1872 1880 0
v 0.023569785 -0.06400578 0.0234375
v 0.02031036 -0.06408552 0.0234375
v 0.02034282 -0.06375 0.0234375
v 0.02351265 -0.0645465 0.0234375
v 0.023569455 -0.063469005 0.0234375
v 0.02031036 -0.06341448 0.0234375
v 0.02022732 -0.063103335 0.0234375
v 0.02351028 -0.06293049 0.0234375
v 0.02009247 -0.06281505 0.0234375
v 0.01990233 -0.06254526 0.0234375
v 0.02339364 -0.062395935 0.0234375
v 0.01967199 -0.06231288 0.0234375
v 0.019406475 -0.06212847 0.0234375
v 0.019106325 -0.061988265 0.0234375
v 0.01879551 -0.06190413 0.0234375
v 0.023223615 -0.061882365 0.0234375
v 0.01846782 -0.061876755 0.0234375
v -0.00022632 -0.061782675 0.0234375
v 0.01814013 -0.06190413 0.0234375
v 0.0001119 -0.06148608 0.0234375
v 0.022998495 -0.061390215 0.0234375
v 0.000404475 -0.06115443 0.0234375
v 0.02272002 -0.060919035 0.0234375
v 0.000645765 -0.06079272 0.0234375
v 0.012400365 -0.06048453 0.0234375
v 0.02239752 -0.06048456 0.0234375
v 0.000841425 -0.06039597 0.0234375
v 0.012002745 -0.060457815 0.0234375
v 0.01159083 -0.06037173 0.0234375
v 0.000991425 -0.059964195 0.0234375
v 0.01116192 -0.060227655 0.0234375
v 0.010950705 -0.06013266 0.0234375
v 0.010745565 -0.060020505 0.0234375
v 0.010540875 -0.059889615 0.0234375
v 0.010340295 -0.05974359 0.0234375
v 0.010148775 -0.05958645 0.0234375
v 0.009971085 -0.05942196 0.0234375
v 0.009805305 -0.059244795 0.0234375
v 0.00964998 -0.0590562 0.0234375
v 0.00950631 -0.058862625 0.0234375
v 0.00937548 -0.05867055 0.0234375
v 0.00915702 -0.05829228 0.0234375
v 0.0089847 -0.057915885 0.0234375
v 0.008843835 -0.057552345 0.0234375
v 0.00873591 -0.057199215 0.0234375
v 0.008648505 -0.056856735 0.0234375
v 0.008582955 -0.05652477 0.0234375
v 0.008533335 -0.056205315 0.0234375
v 0.008499645 -0.055898655 0.0234375
v 0.00847869 -0.05560419 0.0234375
v 0.00730014 -0.03641976 0.0234375
v 0.008469855 -0.055321755 0.0234375
v 0.008470965 -0.05505153 0.0234375
v 0.00848031 -0.054793485 0.0234375
v 0.008497035 -0.054547845 0.0234375
v 0.00851844 -0.05431539 0.0234375
v 0.00854466 -0.054095625 0.0234375
v 0.00857304 -0.05388741 0.0234375
v 0.008603925 -0.05369088 0.0234375
v 0.00863535 -0.05350281 0.0234375
v 0.0086673 -0.05332353 0.0234375
v 0.008699175 -0.05314986 0.0234375
v 0.008730705 -0.052980675 0.0234375
v 0.008762055 -0.052816695 0.0234375
v 0.009016425 -0.05144421 0.0234375
v 0.00926046 -0.05006997 0.0234375
v 0.00949416 -0.048694005 0.0234375
v 0.009717525 -0.047316285 0.0234375
v 0.009930555 -0.045936825 0.0234375
v 0.010133265 -0.04455564 0.0234375
v 0.010325625 -0.0431727 0.0234375
v 0.01050765 -0.041788005 0.0234375
v 0.010679355 -0.040401585 0.0234375
v 0.01084071 -0.039013425 0.0234375
v 0.010991745 -0.03762351 0.0234375
v 0.011132445 -0.036231855 0.0234375
v 0.00738612 -0.035970825 0.0234375
v 0.01115508 -0.03587619 0.0234375
v 0.007415055 -0.035529405 0.0234375
v 0.01116444 -0.035528115 0.0234375
v 0.007386945 -0.0350955 0.0234375
v 0.011160525 -0.03518763 0.0234375
v 0.01114335 -0.034854765 0.0234375
v 0.00729939 -0.034662015 0.0234375
v 0.0111129 -0.03452949 0.0234375
v 0.00715479 -0.03423603 0.0234375
v 0.011069175 -0.034211805 0.0234375
v 0.00696036 -0.033838815 0.0234375
v 0.01101201 -0.033901905 0.0234375
v 0.010940865 -0.033600255 0.0234375
v 0.00671358 -0.03347184 0.0234375
v 0.01085619 -0.033306465 0.0234375
v 0.00641697 -0.03313362 0.0234375
v 0.01075848 -0.033020055 0.0234375
v 0.006085335 -0.03284106 0.0234375
v 0.010648245 -0.03274053 0.0234375
v 0.005716905 -0.03259644 0.0234375
v 0.01052601 -0.03246741 0.0234375
v 0.00531345 -0.03239748 0.0234375
v 0.010438095 -0.032288655 0.0234375
v 0.0048951 -0.032254095 0.0234375
v 0.004461105 -0.03216909 0.0234375
v 0.004012215 -0.032139675 0.0234375
v 0.01034499 -0.03211239 0.0234375
v -0.00217092 -0.03194469 0.0234375
v 0.010246365 -0.03193863 0.0234375
v 0.00357084 -0.03216729 0.0234375
v -0.00233079 -0.032245335 0.0234375
v 0.003137355 -0.032254845 0.0234375
v 0.00271137 -0.032399445 0.0234375
v -0.00248235 -0.03255882 0.0234375
v 0.00231417 -0.032593875 0.0234375
v 0.00194718 -0.032840655 0.0234375
v -0.002625615 -0.032885145 0.0234375
v 0.00160896 -0.033137265 0.0234375
v 0.0013164 -0.0334689 0.0234375
v 0.001075095 -0.033830625 0.0234375
v 0.00087945 -0.03422736 0.0234375
v -0.003303285 -0.03459918 0.0234375
v 0.000729435 -0.034659135 0.0234375
v -0.00396783 -0.03631758 0.0234375
v -0.00557928 -0.058203585 0.0234375
v -0.00461928 -0.038040375 0.0234375
v -0.005257635 -0.03976755 0.0234375
v -0.00588288 -0.04149909 0.0234375
v -0.006495045 -0.043235085 0.0234375
v -0.007094115 -0.04497549 0.0234375
v -0.00768006 -0.0467202 0.0234375
v -0.008252865 -0.048469155 0.0234375
v -0.008812515 -0.050222325 0.0234375
v -0.00935904 -0.051979725 0.0234375
v -0.009892425 -0.053741415 0.0234375
v -0.01041267 -0.05550735 0.0234375
v -0.01091979 -0.057277545 0.0234375
v -0.01102695 -0.05763183 0.0234375
v -0.011122875 -0.05800329 0.0234375
v -0.011207745 -0.058391895 0.0234375
v -0.00566526 -0.058652505 0.0234375
v -0.011287665 -0.05879667 0.0234375
v -0.00569418 -0.059093925 0.0234375
v -0.01135299 -0.059219145 0.0234375
v -0.00566607 -0.059527845 0.0234375
v -0.011387385 -0.059662215 0.0234375
v -0.005578515 -0.05996133 0.0234375
v -0.01139703 -0.06012717 0.0234375
v -0.005433915 -0.0603873 0.0234375
v -0.01137252 -0.06061062 0.0234375
v -0.0052395 -0.060784515 0.0234375
v -0.01129893 -0.061110015 0.0234375
v -0.00499272 -0.06115149 0.0234375
v -0.00469611 -0.06148971 0.0234375
v -0.01118367 -0.061630245 0.0234375
v -0.004364475 -0.061782285 0.0234375
v -0.003996045 -0.06202689 0.0234375
v -0.011014695 -0.06215871 0.0234375
v -0.003592575 -0.06222585 0.0234375
v -0.003174225 -0.062369235 0.0234375
v -0.01090458 -0.06242112 0.0234375
v -0.00274023 -0.06245424 0.0234375
v -0.002291355 -0.062483655 0.0234375
v -0.01077684 -0.06268632 0.0234375
v 0.017033295 -0.06254526 0.0234375
v -0.001849965 -0.06245604 0.0234375
v 0.01684317 -0.06281505 0.0234375
v -0.01063296 -0.0629547 0.0234375
v 0.01670832 -0.063103335 0.0234375
v -0.01047375 -0.06322227 0.0234375
v 0.016625265 -0.06341448 0.0234375
v -0.010300005 -0.06348504 0.0234375
v 0.01659282 -0.06375 0.0234375
v -0.01011255 -0.06373899 0.0234375
v -0.00991143 -0.06398109 0.0234375
v 0.016625265 -0.06408552 0.0234375
v -0.00969243 -0.06421623 0.0234375
v 0.01670832 -0.064396665 0.0234375
v -0.009457695 -0.064444575 0.0234375
v 0.01684317 -0.06468495 0.0234375
v -0.009210885 -0.064664685 0.0234375
v -0.00895566 -0.064875105 0.0234375
v 0.017033295 -0.06495474 0.0234375
v -0.00869565 -0.065074425 0.0234375
v 0.01726365 -0.06518712 0.0234375
v -0.008432535 -0.065261955 0.0234375
v 0.017529165 -0.06537153 0.0234375
v -0.008162655 -0.06543915 0.0234375
v 0.017829315 -0.065511735 0.0234375
v 0.01814013 -0.06559587 0.0234375
v -0.00788574 -0.065606115 0.0234375
v 0.01846782 -0.065623245 0.0234375
v -0.00760179 -0.065762865 0.0234375
v 0.023060805 -0.066454635 0.0234375
v 0.01879551 -0.06559587 0.0234375
v -0.007310805 -0.065909385 0.0234375
v -0.0070128 -0.06604566 0.0234375
v -0.005728785 -0.066647115 0.0234375
v 0.02278401 -0.06781686 0.0234375
v -0.004433955 -0.06719862 0.0234375
v -0.00312828 -0.067700205 0.0234375
v -0.00181179 -0.068151855 0.0234375
v 0.022567665 -0.069177885 0.0234375
v -0.000483675 -0.068553555 0.0234375
v 0.000855795 -0.06890529 0.0234375
v 0.002205045 -0.06920715 0.0234375
v 0.0224118 -0.070537755 0.0234375
v 0.003562515 -0.069459165 0.0234375
v 0.004927935 -0.06966138 0.0234375
v 0.0063021 -0.069813735 0.0234375
v 0.009343125 -0.069969375 0.0234375
v 0.009625215 -0.069987285 0.0234375
v 0.007684995 -0.069916245 0.0234375
v 0.009076635 -0.069968895 0.0234375
v 0.00992412 -0.070016985 0.0234375
v 0.010236195 -0.07007541 0.0234375
v 0.01056459 -0.070177305 0.0234375
v 0.01089012 -0.07032336 0.0234375
v 0.01119927 -0.07052232 0.0234375
v 0.01147806 -0.07076472 0.0234375
v 0.02231682 -0.071897535 0.0234375
v 0.011707395 -0.071047755 0.0234375
v 0.01188924 -0.07135998 0.0234375
v 0.012017235 -0.07169418 0.0234375
v 0.01209717 -0.072034845 0.0234375
v 0.02228229 -0.073256115 0.0234375
v 0.01212855 -0.072365955 0.0234375
v 0.01212369 -0.07268187 0.0234375
v 0.012091695 -0.07296888 0.0234375
v 0.01204167 -0.07323525 0.0234375
v 0.01198722 -0.073485135 0.0234375
v 0.02230743 -0.074611485 0.0234375
v 0.01192383 -0.073717155 0.0234375
v 0.011541375 -0.07529886 0.0234375
v 0.022391535 -0.07596228 0.0234375
v 0.011207055 -0.076889355 0.0234375
v 0.022534725 -0.077310285 0.0234375
v 0.010920855 -0.07848864 0.0234375
v 0.022737525 -0.07865409 0.0234375
v 0.023000445 -0.079991595 0.0234375
v 0.01068261 -0.08009706 0.0234375
v 0.023323815 -0.08132163 0.0234375
v 0.0104925 -0.08171427 0.0234375
v 0.023707305 -0.08264529 0.0234375
v 0.01035102 -0.08333931 0.0234375
v 0.024150945 -0.083962665 0.0234375
v 0.01025838 -0.084971865 0.0234375
v 0.024654705 -0.085273755 0.0234375
v 0.02477733 -0.08559804 0.0234375
v 0.024884895 -0.08592339 0.0234375
v 0.017894445 -0.086024505 0.0234375
v 0.024977415 -0.086249805 0.0234375
v 0.017541195 -0.086024505 0.0234375
v 0.017201385 -0.0860799 0.0234375
v 0.01687239 -0.086194515 0.0234375
v 0.016561995 -0.08636151 0.0234375
v 0.016291695 -0.086571525 0.0234375
v 0.010214385 -0.086612235 0.0234375
v 0.016054515 -0.086830935 0.0234375
v 0.015861795 -0.08712327 0.0234375
v 0.015725865 -0.08743305 0.0234375
v 0.01564161 -0.087766725 0.0234375
v 0.015608445 -0.088125 0.0234375
v 0.010219035 -0.088260435 0.0234375
v 0.01564161 -0.088483275 0.0234375
v 0.01023516 -0.088606755 0.0234375
v 0.015725865 -0.08881695 0.0234375
v 0.010265535 -0.08894808 0.0234375
v 0.015861795 -0.08912673 0.0234375
v 0.01031013 -0.089284395 0.0234375
v 0.016054515 -0.089419065 0.0234375
v 0.010368975 -0.08961573 0.0234375
v 0.016291695 -0.089678475 0.0234375
v 0.016561995 -0.08988849 0.0234375
v 0.01044204 -0.08994207 0.0234375
v 0.01687239 -0.090055485 0.0234375
v 0.017201385 -0.0901701 0.0234375
v 0.017541195 -0.090225495 0.0234375
v 0.010529355 -0.0902634 0.0234375
v 0.024914415 -0.09023556 0.0234375
v 0.02481156 -0.09055665 0.0234375
v 0.017894445 -0.090225495 0.0234375
v 0.018234255 -0.0901701 0.0234375
v 0.01856325 -0.090055485 0.0234375
v 0.025001445 -0.089913465 0.0234375
v 0.018873645 -0.08988849 0.0234375
v 0.019143945 -0.089678475 0.0234375
v 0.025073505 -0.08958633 0.0234375
v 0.019381125 -0.089419065 0.0234375
v 0.025131165 -0.089253105 0.0234375
v 0.019573845 -0.08912673 0.0234375
v 0.02517423 -0.088915785 0.0234375
v 0.01970976 -0.08881695 0.0234375
v 0.02520252 -0.088576395 0.0234375
v 0.01979403 -0.088483275 0.0234375
v 0.025215855 -0.088236975 0.0234375
v 0.019827195 -0.088125 0.0234375
v 0.02521407 -0.087899535 0.0234375
v 0.01979403 -0.087766725 0.0234375
v 0.02519697 -0.087566085 0.0234375
v 0.01970976 -0.08743305 0.0234375
v 0.025164645 -0.08723541 0.0234375
v 0.019573845 -0.08712327 0.0234375
v 0.02511729 -0.086905815 0.0234375
v 0.019381125 -0.086830935 0.0234375
v 0.025054875 -0.08657727 0.0234375
v 0.019143945 -0.086571525 0.0234375
v 0.018873645 -0.08636151 0.0234375
v 0.01856325 -0.086194515 0.0234375
v 0.018234255 -0.0860799 0.0234375
v 0.01063092 -0.090579735 0.0234375
v 0.024693645 -0.090875055 0.0234375
v 0.01074753 -0.090892605 0.0234375
v 0.02456148 -0.0911889 0.0234375
v 0.010879785 -0.09120306 0.0234375
v 0.024415845 -0.09149631 0.0234375
v 0.01102671 -0.091509315 0.0234375
v 0.02425758 -0.09179544 0.0234375
v 0.011187345 -0.0918096 0.0234375
v 0.02408748 -0.0920844 0.0234375
v 0.01136073 -0.092102145 0.0234375
v 0.02390502 -0.092363505 0.0234375
v 0.01154589 -0.092385135 0.0234375
v 0.02370783 -0.09263664 0.0234375
v 0.011741835 -0.09265683 0.0234375
v 0.023497065 -0.09290265 0.0234375
v 0.011949525 -0.09291795 0.0234375
v 0.023274075 -0.093159975 0.0234375
v 0.012171345 -0.09317187 0.0234375
v 0.02304021 -0.093407115 0.0234375
v 0.01240593 -0.093417345 0.0234375
v 0.02279682 -0.09364254 0.0234375
v 0.01265178 -0.093652965 0.0234375
v 0.022545255 -0.093864765 0.0234375
v 0.01290744 -0.093877365 0.0234375
v 0.022285395 -0.094073475 0.0234375
v 0.01317141 -0.09408912 0.0234375
v 0.02201346 -0.09427185 0.0234375
v 0.01344222 -0.094286865 0.0234375
v 0.021730725 -0.09445926 0.0234375
v 0.013720425 -0.094470645 0.0234375
v 0.021438945 -0.094634685 0.0234375
v 0.01400982 -0.09464313 0.0234375
v 0.021139875 -0.09479712 0.0234375
v 0.01430883 -0.09480366 0.0234375
v 0.020835285 -0.094945545 0.0234375
v 0.014615625 -0.094951365 0.0234375
v 0.020526915 -0.09507894 0.0234375
v 0.01492836 -0.09508542 0.0234375
v 0.02021523 -0.095196825 0.0234375
v 0.01524519 -0.09520494 0.0234375
v 0.01989549 -0.095301015 0.0234375
v 0.015564285 -0.0953091 0.0234375
v 0.019568745 -0.095391435 0.0234375
v 0.01588563 -0.09539757 0.0234375
v 0.01923699 -0.09546768 0.0234375
v 0.01621395 -0.095471745 0.0234375
v 0.01890222 -0.09552933 0.0234375
v 0.016547835 -0.09553158 0.0234375
v 0.018566415 -0.095575995 0.0234375
v 0.016885275 -0.095576835 0.0234375
v 0.018231585 -0.09560724 0.0234375
v 0.017224245 -0.095607255 0.0234375
v 0.017898705 -0.095622705 0.0234375
v 0.01756272 -0.09562263 0.0234375
v 0.019106325 -0.065511735 0.0234375
v 0.019406475 -0.06537153 0.0234375
v 0.01967199 -0.06518712 0.0234375
v 0.02339802 -0.06509118 0.0234375
v 0.01990233 -0.06495474 0.0234375
v 0.02009247 -0.06468495 0.0234375
v 0.02022732 -0.064396665 0.0234375
v -0.00141648 -0.062368485 0.0234375
v 0.01726365 -0.06231288 0.0234375
v -0.00099051 -0.062223885 0.0234375
v 0.017529165 -0.06212847 0.0234375
v -0.000593295 -0.062029455 0.0234375
v 0.017829315 -0.061988265 0.0234375
v -0.00200277 -0.0316569 0.0234375
v 0.01014225 -0.03176754 0.0234375
v 0.010032705 -0.0315993 0.0234375
v -0.00182631 -0.031381965 0.0234375
v 0.009917775 -0.03143409 0.0234375
v 0.00979752 -0.031272075 0.0234375
v -0.001641555 -0.03111987 0.0234375
v 0.009671985 -0.03111345 0.0234375
v -0.00144843 -0.030870855 0.0234375
v 0.00954123 -0.030958365 0.0234375
v 0.0094053 -0.030807 0.0234375
v -0.00124668 -0.03063558 0.0234375
v 0.00926424 -0.030659505 0.0234375
v 0.00911736 -0.0305148 0.0234375
v -0.001036515 -0.030413505 0.0234375
v 0.008964555 -0.030372675 0.0234375
v -0.00081816 -0.03020397 0.0234375
v 0.00880617 -0.030233565 0.0234375
v 0.008642535 -0.03009795 0.0234375
v -0.000591855 -0.030006315 0.0234375
v 0.00847401 -0.02996625 0.0234375
v -0.000357825 -0.029819865 0.0234375
v 0.00830091 -0.02983896 0.0234375
v 0.00812358 -0.029716485 0.0234375
v -0.000197625 -0.02970147 0.0234375
v 0.007942365 -0.02959932 0.0234375
v -3.3975e-05 -0.029587665 0.0234375
v 0.00775761 -0.0294879 0.0234375
v 0.000133455 -0.029478615 0.0234375
v 0.00756897 -0.029382165 0.0234375
v 0.000304515 -0.02937447 0.0234375
v 0.007374345 -0.029280525 0.0234375
v 0.0004791 -0.02927535 0.0234375
v 0.00717423 -0.02918316 0.0234375
v 0.00065709 -0.02918139 0.0234375
v 0.00083832 -0.02909271 0.0234375
v 0.00696945 -0.029090475 0.0234375
v 0.0010227 -0.02900946 0.0234375
v 0.00676086 -0.029002875 0.0234375
v 0.00121008 -0.02893176 0.0234375
v 0.006549255 -0.028920795 0.0234375
v 0.00140034 -0.02885976 0.0234375
v 0.006335475 -0.02884461 0.0234375
v 0.001593375 -0.028793535 0.0234375
v 0.00612033 -0.028774755 0.0234375
v 0.001790325 -0.028732455 0.0234375
v 0.005904675 -0.028711635 0.0234375
v 0.00199134 -0.0286764 0.0234375
v 0.005689305 -0.02865564 0.0234375
v 0.002195925 -0.028625595 0.0234375
v 0.0054723 -0.028606455 0.0234375
v 0.00240357 -0.02858028 0.0234375
v 0.005251725 -0.028563465 0.0234375
v 0.00261375 -0.028540725 0.0234375
v 0.005028555 -0.0285267 0.0234375
v 0.002825985 -0.028507155 0.0234375
v 0.00480366 -0.028496175 0.0234375
v 0.00303975 -0.028479825 0.0234375
v 0.004578 -0.02847189 0.0234375
v 0.003254535 -0.028458975 0.0234375
v 0.004352475 -0.028453875 0.0234375
v 0.00346983 -0.028444875 0.0234375
v 0.004128 -0.028442145 0.0234375
v 0.00368595 -0.0284376 0.0234375
v 0.00390552 -0.028436715 0.0234375
v 0.012777555 -0.060476415 0.0234375
v 0.01313355 -0.06043323 0.0234375
v 0.01346841 -0.060367665 0.0234375
v 0.01378098 -0.060282735 0.0234375
v 0.01407381 -0.060184695 0.0234375
v 0.0220296 -0.06008805 0.0234375
v 0.014347755 -0.060080085 0.0234375
v 0.01460451 -0.059969145 0.0234375
v 0.01484763 -0.059857215 0.0234375
v 0.015077115 -0.05974368 0.0234375
v 0.02161767 -0.059728245 0.0234375
v 0.015297255 -0.059632125 0.0234375
v 0.01550751 -0.059522115 0.0234375
v 0.02117535 -0.059416995 0.0234375
v 0.01571193 -0.0594159 0.0234375
v 0.01591053 -0.05931318 0.0234375
v 0.016104345 -0.059216565 0.0234375
v 0.02070165 -0.059155875 0.0234375
v 0.016293855 -0.05912691 0.0234375
v 0.016478775 -0.05904369 0.0234375
v 0.020197545 -0.05894331 0.0234375
v 0.017001555 -0.058857405 0.0234375
v 0.01967967 -0.058786425 0.0234375
v 0.017528625 -0.05872848 0.0234375
v 0.01914753 -0.05868702 0.0234375
v 0.018059955 -0.05865693 0.0234375
v 0.018601605 -0.058643295 0.0234375
v 0.02034282 -0.06375 0.0290625
v 0.02034282 -0.06375 0.0234375
v 0.02031036 -0.06408552 0.0234375
v 0.02031036 -0.06341448 0.0290625
v 0.02031036 -0.06408552 0.0290625
v 0.02022732 -0.064396665 0.0234375
v 0.02022732 -0.064396665 0.0290625
v 0.02009247 -0.06468495 0.0234375
v 0.02009247 -0.06468495 0.0290625
v 0.01990233 -0.06495474 0.0234375
v 0.01990233 -0.06495474 0.0290625
v 0.01967199 -0.06518712 0.0234375
v 0.01967199 -0.06518712 0.0290625
v 0.019406475 -0.06537153 0.0234375
v 0.019406475 -0.06537153 0.0290625
v 0.019106325 -0.065511735 0.0234375
v 0.019106325 -0.065511735 0.0290625
v 0.01879551 -0.06559587 0.0234375
v 0.01879551 -0.06559587 0.0290625
v 0.01846782 -0.065623245 0.0234375
v 0.01846782 -0.065623245 0.0290625
v 0.01814013 -0.06559587 0.0234375
v 0.01814013 -0.06559587 0.0290625
v 0.017829315 -0.065511735 0.0234375
v 0.017829315 -0.065511735 0.0290625
v 0.017529165 -0.06537153 0.0234375
v 0.017529165 -0.06537153 0.0290625
v 0.01726365 -0.06518712 0.0234375
v 0.01726365 -0.06518712 0.0290625
v 0.017033295 -0.06495474 0.0234375
v 0.017033295 -0.06495474 0.0290625
v 0.01684317 -0.06468495 0.0234375
v 0.01684317 -0.06468495 0.0290625
v 0.01670832 -0.064396665 0.0234375
v 0.01670832 -0.064396665 0.0290625
v 0.016625265 -0.06408552 0.0234375
v 0.016625265 -0.06408552 0.0290625
v 0.01659282 -0.06375 0.0234375
v 0.01659282 -0.06375 0.0290625
v 0.016625265 -0.06341448 0.0234375
v 0.016625265 -0.06341448 0.0290625
v 0.01670832 -0.063103335 0.0234375
v 0.01670832 -0.063103335 0.0290625
v 0.01684317 -0.06281505 0.0234375
v 0.01684317 -0.06281505 0.0290625
v 0.017033295 -0.06254526 0.0234375
v 0.017033295 -0.06254526 0.0290625
v 0.01726365 -0.06231288 0.0234375
v 0.01726365 -0.06231288 0.0290625
v 0.017529165 -0.06212847 0.0234375
v 0.017529165 -0.06212847 0.0290625
v 0.017829315 -0.061988265 0.0234375
v 0.017829315 -0.061988265 0.0290625
v 0.01814013 -0.06190413 0.0234375
v 0.01814013 -0.06190413 0.0290625
v 0.01846782 -0.061876755 0.0234375
v 0.01846782 -0.061876755 0.0290625
v 0.01879551 -0.06190413 0.0234375
v 0.01879551 -0.06190413 0.0290625
v 0.019106325 -0.061988265 0.0234375
v 0.019106325 -0.061988265 0.0290625
v 0.019406475 -0.06212847 0.0234375
v 0.019406475 -0.06212847 0.0290625
v 0.01967199 -0.06231288 0.0234375
v 0.01967199 -0.06231288 0.0290625
v 0.01990233 -0.06254526 0.0234375
v 0.01990233 -0.06254526 0.0290625
v 0.02009247 -0.06281505 0.0234375
v 0.02009247 -0.06281505 0.0290625
v 0.02022732 -0.063103335 0.0234375
v 0.02022732 -0.063103335 0.0290625
v 0.02031036 -0.06341448 0.0234375
v 0.019827195 -0.088125 0.0290625
v 0.019827195 -0.088125 0.0234375
v 0.01979403 -0.088483275 0.0234375
v 0.01979403 -0.087766725 0.0290625
v 0.01979403 -0.088483275 0.0290625
v 0.01970976 -0.08881695 0.0234375
v 0.01970976 -0.08881695 0.0290625
v 0.019573845 -0.08912673 0.0234375
v 0.019573845 -0.08912673 0.0290625
v 0.019381125 -0.089419065 0.0234375
v 0.019381125 -0.089419065 0.0290625
v 0.019143945 -0.089678475 0.0234375
v 0.019143945 -0.089678475 0.0290625
v 0.018873645 -0.08988849 0.0234375
v 0.018873645 -0.08988849 0.0290625
v 0.01856325 -0.090055485 0.0234375
v 0.01856325 -0.090055485 0.0290625
v 0.018234255 -0.0901701 0.0234375
v 0.018234255 -0.0901701 0.0290625
v 0.017894445 -0.090225495 0.0234375
v 0.017894445 -0.090225495 0.0290625
v 0.017541195 -0.090225495 0.0234375
v 0.017541195 -0.090225495 0.0290625
v 0.017201385 -0.0901701 0.0234375
v 0.017201385 -0.0901701 0.0290625
v 0.01687239 -0.090055485 0.0234375
v 0.01687239 -0.090055485 0.0290625
v 0.016561995 -0.08988849 0.0234375
v 0.016561995 -0.08988849 0.0290625
v 0.016291695 -0.089678475 0.0234375
v 0.016291695 -0.089678475 0.0290625
v 0.016054515 -0.089419065 0.0234375
v 0.016054515 -0.089419065 0.0290625
v 0.015861795 -0.08912673 0.0234375
v 0.015861795 -0.08912673 0.0290625
v 0.015725865 -0.08881695 0.0234375
v 0.015725865 -0.08881695 0.0290625
v 0.01564161 -0.088483275 0.0234375
v 0.01564161 -0.088483275 0.0290625
v 0.015608445 -0.088125 0.0234375
v 0.015608445 -0.088125 0.0290625
v 0.01564161 -0.087766725 0.0234375
v 0.01564161 -0.087766725 0.0290625
v 0.015725865 -0.08743305 0.0234375
v 0.015725865 -0.08743305 0.0290625
v 0.015861795 -0.08712327 0.0234375
v 0.015861795 -0.08712327 0.0290625
v 0.016054515 -0.086830935 0.0234375
v 0.016054515 -0.086830935 0.0290625
v 0.016291695 -0.086571525 0.0234375
v 0.016291695 -0.086571525 0.0290625
v 0.016561995 -0.08636151 0.0234375
v 0.016561995 -0.08636151 0.0290625
v 0.01687239 -0.086194515 0.0234375
v 0.01687239 -0.086194515 0.0290625
v 0.017201385 -0.0860799 0.0234375
v 0.017201385 -0.0860799 0.0290625
v 0.017541195 -0.086024505 0.0234375
v 0.017541195 -0.086024505 0.0290625
v 0.017894445 -0.086024505 0.0234375
v 0.017894445 -0.086024505 0.0290625
v 0.018234255 -0.0860799 0.0234375
v 0.018234255 -0.0860799 0.0290625
v 0.01856325 -0.086194515 0.0234375
v 0.01856325 -0.086194515 0.0290625
v 0.018873645 -0.08636151 0.0234375
v 0.018873645 -0.08636151 0.0290625
v 0.019143945 -0.086571525 0.0234375
v 0.019143945 -0.086571525 0.0290625
v 0.019381125 -0.086830935 0.0234375
v 0.019381125 -0.086830935 0.0290625
v 0.019573845 -0.08712327 0.0234375
v 0.019573845 -0.08712327 0.0290625
v 0.01970976 -0.08743305 0.0234375
v 0.01970976 -0.08743305 0.0290625
v 0.01979403 -0.087766725 0.0234375
v -0.00557928 -0.058203585 0.0290625
v -0.00557928 -0.058203585 0.0234375
v 0.000729435 -0.034659135 0.0234375
v -0.00566526 -0.058652505 0.0290625
v 0.000729435 -0.034659135 0.0290625
v 0.00087945 -0.03422736 0.0234375
v 0.00087945 -0.03422736 0.0290625
v 0.001075095 -0.033830625 0.0234375
v 0.001075095 -0.033830625 0.0290625
v 0.0013164 -0.0334689 0.0234375
v 0.0013164 -0.0334689 0.0290625
v 0.00160896 -0.033137265 0.0234375
v 0.00160896 -0.033137265 0.0290625
v 0.00194718 -0.032840655 0.0234375
v 0.00194718 -0.032840655 0.0290625
v 0.00231417 -0.032593875 0.0234375
v 0.00231417 -0.032593875 0.0290625
v 0.00271137 -0.032399445 0.0234375
v 0.00271137 -0.032399445 0.0290625
v 0.003137355 -0.032254845 0.0234375
v 0.003137355 -0.032254845 0.0290625
v 0.00357084 -0.03216729 0.0234375
v 0.00357084 -0.03216729 0.0290625
v 0.004012215 -0.032139675 0.0234375
v 0.004012215 -0.032139675 0.0290625
v 0.004461105 -0.03216909 0.0234375
v 0.004461105 -0.03216909 0.0290625
v 0.0048951 -0.032254095 0.0234375
v 0.0048951 -0.032254095 0.0290625
v 0.00531345 -0.03239748 0.0234375
v 0.00531345 -0.03239748 0.0290625
v 0.005716905 -0.03259644 0.0234375
v 0.005716905 -0.03259644 0.0290625
v 0.006085335 -0.03284106 0.0234375
v 0.006085335 -0.03284106 0.0290625
v 0.00641697 -0.03313362 0.0234375
v 0.00641697 -0.03313362 0.0290625
v 0.00671358 -0.03347184 0.0234375
v 0.00671358 -0.03347184 0.0290625
v 0.00696036 -0.033838815 0.0234375
v 0.00696036 -0.033838815 0.0290625
v 0.00715479 -0.03423603 0.0234375
v 0.00715479 -0.03423603 0.0290625
v 0.00729939 -0.034662015 0.0234375
v 0.00729939 -0.034662015 0.0290625
v 0.007386945 -0.0350955 0.0234375
v 0.007386945 -0.0350955 0.0290625
v 0.007415055 -0.035529405 0.0234375
v 0.007415055 -0.035529405 0.0290625
v 0.00738612 -0.035970825 0.0234375
v 0.00738612 -0.035970825 0.0290625
v 0.00730014 -0.03641976 0.0234375
v 0.00730014 -0.03641976 0.0290625
v 0.000991425 -0.059964195 0.0234375
v 0.000991425 -0.059964195 0.0290625
v 0.000841425 -0.06039597 0.0234375
v 0.000841425 -0.06039597 0.0290625
v 0.000645765 -0.06079272 0.0234375
v 0.000645765 -0.06079272 0.0290625
v 0.000404475 -0.06115443 0.0234375
v 0.000404475 -0.06115443 0.0290625
v 0.0001119 -0.06148608 0.0234375
v 0.0001119 -0.06148608 0.0290625
v -0.00022632 -0.061782675 0.0234375
v -0.00022632 -0.061782675 0.0290625
v -0.000593295 -0.062029455 0.0234375
v -0.000593295 -0.062029455 0.0290625
v -0.00099051 -0.062223885 0.0234375
v -0.00099051 -0.062223885 0.0290625
v -0.00141648 -0.062368485 0.0234375
v -0.00141648 -0.062368485 0.0290625
v -0.001849965 -0.06245604 0.0234375
v -0.001849965 -0.06245604 0.0290625
v -0.002291355 -0.062483655 0.0234375
v -0.002291355 -0.062483655 0.0290625
v -0.00274023 -0.06245424 0.0234375
v -0.00274023 -0.06245424 0.0290625
v -0.003174225 -0.062369235 0.0234375
v -0.003174225 -0.062369235 0.0290625
v -0.003592575 -0.06222585 0.0234375
v -0.003592575 -0.06222585 0.0290625
v -0.003996045 -0.06202689 0.0234375
v -0.003996045 -0.06202689 0.0290625
v -0.004364475 -0.061782285 0.0234375
v -0.004364475 -0.061782285 0.0290625
v -0.00469611 -0.06148971 0.0234375
v -0.00469611 -0.06148971 0.0290625
v -0.00499272 -0.06115149 0.0234375
v -0.00499272 -0.06115149 0.0290625
v -0.0052395 -0.060784515 0.0234375
v -0.0052395 -0.060784515 0.0290625
v -0.005433915 -0.0603873 0.0234375
v -0.005433915 -0.0603873 0.0290625
v -0.005578515 -0.05996133 0.0234375
v -0.005578515 -0.05996133 0.0290625
v -0.00566607 -0.059527845 0.0234375
v -0.00566607 -0.059527845 0.0290625
v -0.00569418 -0.059093925 0.0234375
v -0.00569418 -0.059093925 0.0290625
v -0.00566526 -0.058652505 0.0234375
v -0.0070128 -0.06604566 0.0290625
v -0.0070128 -0.06604566 0.0234375
v -0.005728785 -0.066647115 0.0234375
v -0.007445805 -0.06584415 0.0290625
v -0.005728785 -0.066647115 0.0290625
v -0.004433955 -0.06719862 0.0234375
v -0.004433955 -0.06719862 0.0290625
v -0.00312828 -0.067700205 0.0234375
v -0.00312828 -0.067700205 0.0290625
v -0.00181179 -0.068151855 0.0234375
v -0.00181179 -0.068151855 0.0290625
v -0.000483675 -0.068553555 0.0234375
v -0.000483675 -0.068553555 0.0290625
v 0.000855795 -0.06890529 0.0234375
v 0.000855795 -0.06890529 0.0290625
v 0.002205045 -0.06920715 0.0234375
v 0.002205045 -0.06920715 0.0290625
v 0.003562515 -0.069459165 0.0234375
v 0.003562515 -0.069459165 0.0290625
v 0.004927935 -0.06966138 0.0234375
v 0.004927935 -0.06966138 0.0290625
v 0.0063021 -0.069813735 0.0234375
v 0.0063021 -0.069813735 0.0290625
v 0.007684995 -0.069916245 0.0234375
v 0.007684995 -0.069916245 0.0290625
v 0.009076635 -0.069968895 0.0234375
v 0.009076635 -0.069968895 0.0290625
v 0.009343125 -0.069969375 0.0234375
v 0.009343005 -0.06996945 0.0290625
v 0.009624375 -0.069987225 0.0290625
v 0.009625215 -0.069987285 0.0234375
v 0.00992232 -0.07001694 0.0290625
v 0.00992412 -0.070016985 0.0234375
v 0.0102321 -0.070074435 0.0290625
v 0.010236195 -0.07007541 0.0234375
v 0.01055415 -0.070172655 0.0290625
v 0.01056459 -0.070177305 0.0234375
v 0.01087443 -0.07031493 0.0290625
v 0.01089012 -0.07032336 0.0234375
v 0.01118466 -0.070511055 0.0290625
v 0.01119927 -0.07052232 0.0234375
v 0.01133244 -0.070627305 0.0290625
v 0.01147806 -0.07076472 0.0234375
v 0.011468025 -0.07075446 0.0290625
v 0.01159182 -0.070895355 0.0290625
v 0.011707395 -0.071047755 0.0234375
v 0.011706165 -0.071049435 0.0290625
v 0.01188924 -0.07135998 0.0234375
v 0.011808285 -0.07121076 0.0290625
v 0.011895495 -0.071373345 0.0290625
v 0.012017235 -0.07169418 0.0234375
v 0.0120222 -0.071708475 0.0290625
v 0.01209717 -0.072034845 0.0234375
v 0.0120987 -0.072044385 0.0290625
v 0.01212855 -0.072365955 0.0234375
v 0.01212933 -0.07236435 0.0290625
v 0.01212456 -0.07266948 0.0290625
v 0.01212369 -0.07268187 0.0234375
v 0.012093705 -0.072953745 0.0290625
v 0.012091695 -0.07296888 0.0234375
v 0.01204452 -0.07322181 0.0290625
v 0.01204167 -0.07323525 0.0234375
v 0.01198926 -0.0734766 0.0290625
v 0.01198722 -0.073485135 0.0234375
v 0.01192383 -0.073717155 0.0234375
v 0.01192383 -0.073717155 0.0290625
v 0.011541375 -0.07529886 0.0234375
v 0.011541375 -0.07529886 0.0290625
v 0.011207055 -0.076889355 0.0234375
v 0.011207055 -0.076889355 0.0290625
v 0.010920855 -0.07848864 0.0234375
v 0.010920855 -0.07848864 0.0290625
v 0.01068261 -0.08009706 0.0234375
v 0.01068261 -0.08009706 0.0290625
v 0.0104925 -0.08171427 0.0234375
v 0.0104925 -0.08171427 0.0290625
v 0.01035102 -0.08333931 0.0234375
v 0.01035102 -0.08333931 0.0290625
v 0.01025838 -0.084971865 0.0234375
v 0.01025838 -0.084971865 0.0290625
v 0.010214385 -0.086612235 0.0234375
v 0.010214385 -0.086612235 0.0290625
v 0.010219035 -0.088260435 0.0234375
v 0.010219035 -0.088260435 0.0290625
v 0.01023516 -0.088606755 0.0234375
v 0.01023516 -0.088606755 0.0290625
v 0.010265535 -0.08894808 0.0234375
v 0.010265535 -0.08894808 0.0290625
v 0.01031013 -0.089284395 0.0234375
v 0.01031013 -0.089284395 0.0290625
v 0.010368975 -0.08961573 0.0234375
v 0.010368975 -0.08961573 0.0290625
v 0.01044204 -0.08994207 0.0234375
v 0.01044204 -0.08994207 0.0290625
v 0.010529355 -0.0902634 0.0234375
v 0.010529355 -0.0902634 0.0290625
v 0.01063092 -0.090579735 0.0234375
v 0.01063092 -0.090579735 0.0290625
v 0.01074753 -0.090892605 0.0234375
v 0.01074753 -0.090892605 0.0290625
v 0.010879785 -0.09120306 0.0234375
v 0.010879785 -0.09120306 0.0290625
v 0.01102671 -0.091509315 0.0234375
v 0.01102671 -0.091509315 0.0290625
v 0.011187345 -0.0918096 0.0234375
v 0.011187345 -0.0918096 0.0290625
v 0.01136073 -0.092102145 0.0234375
v 0.01136073 -0.092102145 0.0290625
v 0.01154589 -0.092385135 0.0234375
v 0.01154589 -0.092385135 0.0290625
v 0.011741835 -0.09265683 0.0234375
v 0.011741835 -0.09265683 0.0290625
v 0.011949525 -0.09291795 0.0234375
v 0.011949525 -0.09291795 0.0290625
v 0.012171345 -0.09317187 0.0234375
v 0.012171345 -0.09317187 0.0290625
v 0.01240593 -0.093417345 0.0234375
v 0.01240593 -0.093417345 0.0290625
v 0.01265178 -0.093652965 0.0234375
v 0.01265178 -0.093652965 0.0290625
v 0.01290744 -0.093877365 0.0234375
v 0.01290744 -0.093877365 0.0290625
v 0.01317141 -0.09408912 0.0234375
v 0.01317141 -0.09408912 0.0290625
v 0.01344222 -0.094286865 0.0234375
v 0.01344222 -0.094286865 0.0290625
v 0.013720425 -0.094470645 0.0234375
v 0.013720425 -0.094470645 0.0290625
v 0.01400982 -0.09464313 0.0234375
v 0.01400982 -0.09464313 0.0290625
v 0.01430883 -0.09480366 0.0234375
v 0.01430883 -0.09480366 0.0290625
v 0.014615625 -0.094951365 0.0234375
v 0.014615625 -0.094951365 0.0290625
v 0.01492836 -0.09508542 0.0234375
v 0.01492836 -0.09508542 0.0290625
v 0.01524519 -0.09520494 0.0234375
v 0.01524519 -0.09520494 0.0290625
v 0.015564285 -0.0953091 0.0234375
v 0.015564285 -0.0953091 0.0290625
v 0.01588563 -0.09539757 0.0234375
v 0.01588563 -0.09539757 0.0290625
v 0.01621395 -0.095471745 0.0234375
v 0.01621395 -0.095471745 0.0290625
v 0.016547835 -0.09553158 0.0234375
v 0.016547835 -0.09553158 0.0290625
v 0.016885275 -0.095576835 0.0234375
v 0.016885275 -0.095576835 0.0290625
v 0.017224245 -0.095607255 0.0234375
v 0.017224245 -0.095607255 0.0290625
v 0.01756272 -0.09562263 0.0234375
v 0.01756272 -0.09562263 0.0290625
v 0.017898705 -0.095622705 0.0234375
v 0.017898705 -0.095622705 0.0290625
v 0.018231585 -0.09560724 0.0234375
v 0.018231585 -0.09560724 0.0290625
v 0.018566415 -0.095575995 0.0234375
v 0.018566415 -0.095575995 0.0290625
v 0.01890222 -0.09552933 0.0234375
v 0.01890222 -0.09552933 0.0290625
v 0.01923699 -0.09546768 0.0234375
v 0.01923699 -0.09546768 0.0290625
v 0.019568745 -0.095391435 0.0234375
v 0.019568745 -0.095391435 0.0290625
v 0.01989549 -0.095301015 0.0234375
v 0.01989549 -0.095301015 0.0290625
v 0.02021523 -0.095196825 0.0234375
v 0.02021523 -0.095196825 0.0290625
v 0.020526915 -0.09507894 0.0234375
v 0.020526915 -0.09507894 0.0290625
v 0.020835285 -0.094945545 0.0234375
v 0.020835285 -0.094945545 0.0290625
v 0.021139875 -0.09479712 0.0234375
v 0.021139875 -0.09479712 0.0290625
v 0.021438945 -0.094634685 0.0234375
v 0.021438945 -0.094634685 0.0290625
v 0.021730725 -0.09445926 0.0234375
v 0.021730725 -0.09445926 0.0290625
v 0.02201346 -0.09427185 0.0234375
v 0.02201346 -0.09427185 0.0290625
v 0.022285395 -0.094073475 0.0234375
v 0.022285395 -0.094073475 0.0290625
v 0.022545255 -0.093864765 0.0234375
v 0.022545255 -0.093864765 0.0290625
v 0.02279682 -0.09364254 0.0234375
v 0.02279682 -0.09364254 0.0290625
v 0.02304021 -0.093407115 0.0234375
v 0.02304021 -0.093407115 0.0290625
v 0.023274075 -0.093159975 0.0234375
v 0.023274075 -0.093159975 0.0290625
v 0.023497065 -0.09290265 0.0234375
v 0.023497065 -0.09290265 0.0290625
v 0.02370783 -0.09263664 0.0234375
v 0.02370783 -0.09263664 0.0290625
v 0.02390502 -0.092363505 0.0234375
v 0.02390502 -0.092363505 0.0290625
v 0.02408748 -0.0920844 0.0234375
v 0.02408748 -0.0920844 0.0290625
v 0.02425758 -0.09179544 0.0234375
v 0.02425758 -0.09179544 0.0290625
v 0.024415845 -0.09149631 0.0234375
v 0.024415845 -0.09149631 0.0290625
v 0.02456148 -0.0911889 0.0234375
v 0.02456148 -0.0911889 0.0290625
v 0.024693645 -0.090875055 0.0234375
v 0.024693645 -0.090875055 0.0290625
v 0.02481156 -0.09055665 0.0234375
v 0.02481156 -0.09055665 0.0290625
v 0.024914415 -0.09023556 0.0234375
v 0.024914415 -0.09023556 0.0290625
v 0.025001445 -0.089913465 0.0234375
v 0.025001445 -0.089913465 0.0290625
v 0.025073505 -0.08958633 0.0234375
v 0.025073505 -0.08958633 0.0290625
v 0.025131165 -0.089253105 0.0234375
v 0.025131165 -0.089253105 0.0290625
v 0.02517423 -0.088915785 0.0234375
v 0.02517423 -0.088915785 0.0290625
v 0.02520252 -0.088576395 0.0234375
v 0.02520252 -0.088576395 0.0290625
v 0.025215855 -0.088236975 0.0234375
v 0.025215855 -0.088236975 0.0290625
v 0.02521407 -0.087899535 0.0234375
v 0.02521407 -0.087899535 0.0290625
v 0.02519697 -0.087566085 0.0234375
v 0.02519697 -0.087566085 0.0290625
v 0.025164645 -0.08723541 0.0234375
v 0.025164645 -0.08723541 0.0290625
v 0.02511729 -0.086905815 0.0234375
v 0.02511729 -0.086905815 0.0290625
v 0.025054875 -0.08657727 0.0234375
v 0.025054875 -0.08657727 0.0290625
v 0.024977415 -0.086249805 0.0234375
v 0.024977415 -0.086249805 0.0290625
v 0.024884895 -0.08592339 0.0234375
v 0.024884895 -0.08592339 0.0290625
v 0.02477733 -0.08559804 0.0234375
v 0.02477733 -0.08559804 0.0290625
v 0.024654705 -0.085273755 0.0234375
v 0.024654705 -0.085273755 0.0290625
v 0.024150945 -0.083962665 0.0234375
v 0.024150945 -0.083962665 0.0290625
v 0.023707305 -0.08264529 0.0234375
v 0.023707305 -0.08264529 0.0290625
v 0.023323815 -0.08132163 0.0234375
v 0.023323815 -0.08132163 0.0290625
v 0.023000445 -0.079991595 0.0234375
v 0.023000445 -0.079991595 0.0290625
v 0.022737525 -0.07865409 0.0234375
v 0.022737525 -0.07865409 0.0290625
v 0.022534725 -0.077310285 0.0234375
v 0.022534725 -0.077310285 0.0290625
v 0.022391535 -0.07596228 0.0234375
v 0.022391535 -0.07596228 0.0290625
v 0.02230743 -0.074611485 0.0234375
v 0.02230743 -0.074611485 0.0290625
v 0.02228229 -0.073256115 0.0234375
v 0.02228229 -0.073256115 0.0290625
v 0.02231682 -0.071897535 0.0234375
v 0.02231682 -0.071897535 0.0290625
v 0.0224118 -0.070537755 0.0234375
v 0.0224118 -0.070537755 0.0290625
v 0.022567665 -0.069177885 0.0234375
v 0.022567665 -0.069177885 0.0290625
v 0.02278401 -0.06781686 0.0234375
v 0.02278401 -0.06781686 0.0290625
v 0.023060805 -0.066454635 0.0234375
v 0.023060805 -0.066454635 0.0290625
v 0.02339802 -0.06509118 0.0234375
v 0.02339802 -0.06509118 0.0290625
v 0.02351265 -0.0645465 0.0234375
v 0.02351265 -0.0645465 0.0290625
v 0.023569785 -0.06400578 0.0234375
v 0.023569785 -0.06400578 0.0290625
v 0.023569455 -0.063469005 0.0234375
v 0.023569455 -0.063469005 0.0290625
v 0.02351028 -0.06293049 0.0234375
v 0.02351028 -0.06293049 0.0290625
v 0.02339364 -0.062395935 0.0234375
v 0.02339364 -0.062395935 0.0290625
v 0.023223615 -0.061882365 0.0234375
v 0.023223615 -0.061882365 0.0290625
v 0.022998495 -0.061390215 0.0234375
v 0.022998495 -0.061390215 0.0290625
v 0.02272002 -0.060919035 0.0234375
v 0.02272002 -0.060919035 0.0290625
v 0.02239752 -0.06048456 0.0234375
v 0.02239752 -0.06048456 0.0290625
v 0.0220296 -0.06008805 0.0234375
v 0.0220296 -0.06008805 0.0290625
v 0.02161767 -0.059728245 0.0234375
v 0.02161767 -0.059728245 0.0290625
v 0.02117535 -0.059416995 0.0234375
v 0.02117535 -0.059416995 0.0290625
v 0.02070165 -0.059155875 0.0234375
v 0.02070165 -0.059155875 0.0290625
v 0.020197545 -0.05894331 0.0234375
v 0.020197545 -0.05894331 0.0290625
v 0.01967967 -0.058786425 0.0234375
v 0.01967967 -0.058786425 0.0290625
v 0.01914753 -0.05868702 0.0234375
v 0.01914753 -0.05868702 0.0290625
v 0.018601605 -0.058643295 0.0234375
v 0.018601605 -0.058643295 0.0290625
v 0.018059955 -0.05865693 0.0234375
v 0.018059955 -0.05865693 0.0290625
v 0.017528625 -0.05872848 0.0234375
v 0.017528625 -0.05872848 0.0290625
v 0.017001555 -0.058857405 0.0234375
v 0.017001555 -0.058857405 0.0290625
v 0.016478775 -0.05904369 0.0234375
v 0.016478775 -0.05904369 0.0290625
v 0.016293855 -0.05912691 0.0234375
v 0.016345545 -0.05910234 0.0290625
v 0.016208115 -0.059166 0.0290625
v 0.016104345 -0.059216565 0.0234375
v 0.016066605 -0.05923494 0.0290625
v 0.01591053 -0.05931318 0.0234375
v 0.015920505 -0.059308335 0.0290625
v 0.0157698 -0.05938572 0.0290625
v 0.01571193 -0.0594159 0.0234375
v 0.015613365 -0.059466945 0.0290625
v 0.01550751 -0.059522115 0.0234375
v 0.01545093 -0.059551905 0.0290625
v 0.015297255 -0.059632125 0.0234375
v 0.01528077 -0.059640075 0.0290625
v 0.015077115 -0.05974368 0.0234375
v 0.015102465 -0.05973144 0.0290625
v 0.014913855 -0.05982468 0.0290625
v 0.01484763 -0.059857215 0.0234375
v 0.01471446 -0.059919705 0.0290625
v 0.01460451 -0.059969145 0.0234375
v 0.014501745 -0.060014475 0.0290625
v 0.014347755 -0.060080085 0.0234375
v 0.01427517 -0.06010902 0.0290625
v 0.01407381 -0.060184695 0.0234375
v 0.01403241 -0.06019932 0.0290625
v 0.01378098 -0.060282735 0.0234375
v 0.013772985 -0.060285345 0.0290625
v 0.01346841 -0.060367665 0.0234375
v 0.01349541 -0.060360015 0.0290625
v 0.013199145 -0.060423015 0.0290625
v 0.01313355 -0.06043323 0.0234375
v 0.01288545 -0.060465285 0.0290625
v 0.012777555 -0.060476415 0.0234375
v 0.012554535 -0.060486585 0.0290625
v 0.012400365 -0.06048453 0.0234375
v 0.012205125 -0.060475215 0.0290625
v 0.012002745 -0.060457815 0.0234375
v 0.011836815 -0.06043113 0.0290625
v 0.01159083 -0.06037173 0.0234375
v 0.01145337 -0.060334065 0.0290625
v 0.01116192 -0.060227655 0.0234375
v 0.01105461 -0.060183105 0.0290625
v 0.010950705 -0.06013266 0.0234375
v 0.010745565 -0.060020505 0.0234375
v 0.01065519 -0.05996478 0.0290625
v 0.010540875 -0.059889615 0.0234375
v 0.010453275 -0.059829345 0.0290625
v 0.010340295 -0.05974359 0.0234375
v 0.010255845 -0.059679045 0.0290625
v 0.010148775 -0.05958645 0.0234375
v 0.010068915 -0.05951595 0.0290625
v 0.009971085 -0.05942196 0.0234375
v 0.009890745 -0.059336565 0.0290625
v 0.009805305 -0.059244795 0.0234375
v 0.00971997 -0.059142135 0.0290625
v 0.00964998 -0.0590562 0.0234375
v 0.009560175 -0.058939215 0.0290625
v 0.00950631 -0.058862625 0.0234375
v 0.009414915 -0.05873418 0.0290625
v 0.00937548 -0.05867055 0.0234375
v 0.00928458 -0.058523505 0.0290625
v 0.00915702 -0.05829228 0.0234375
v 0.00916731 -0.0583071 0.0290625
v 0.0090618 -0.058090035 0.0290625
v 0.0089847 -0.057915885 0.0234375
v 0.008884395 -0.05766612 0.0290625
v 0.008843835 -0.057552345 0.0234375
v 0.00875076 -0.05725041 0.0290625
v 0.00873591 -0.057199215 0.0234375
v 0.008648505 -0.056856735 0.0234375
v 0.008647215 -0.056851485 0.0290625
v 0.008582955 -0.05652477 0.0234375
v 0.00857355 -0.056468715 0.0290625
v 0.008533335 -0.056205315 0.0234375
v 0.008520705 -0.056104935 0.0290625
v 0.008499645 -0.055898655 0.0234375
v 0.00848859 -0.055759605 0.0290625
v 0.00847869 -0.05560419 0.0234375
v 0.00847188 -0.05543283 0.0290625
v 0.008469855 -0.055321755 0.0234375
v 0.00846993 -0.05512413 0.0290625
v 0.008470965 -0.05505153 0.0234375
v 0.00847827 -0.054832335 0.0290625
v 0.00848031 -0.054793485 0.0234375
v 0.008496255 -0.054557175 0.0290625
v 0.008497035 -0.054547845 0.0234375
v 0.00851844 -0.05431539 0.0234375
v 0.008520375 -0.054297855 0.0290625
v 0.00854466 -0.054095625 0.0234375
v 0.00855006 -0.05405355 0.0290625
v 0.00857304 -0.05388741 0.0234375
v 0.00858288 -0.05382276 0.0290625
v 0.008603925 -0.05369088 0.0234375
v 0.008618235 -0.05360424 0.0290625
v 0.00863535 -0.05350281 0.0234375
v 0.00865422 -0.05339577 0.0290625
v 0.0086673 -0.05332353 0.0234375
v 0.00869067 -0.053196195 0.0290625
v 0.008699175 -0.05314986 0.0234375
v 0.008726505 -0.05300292 0.0290625
v 0.008730705 -0.052980675 0.0234375
v 0.008762055 -0.052816695 0.0234375
v 0.008762055 -0.052816695 0.0290625
v 0.009016425 -0.05144421 0.0234375
v 0.009016425 -0.05144421 0.0290625
v 0.00926046 -0.05006997 0.0234375
v 0.00926046 -0.05006997 0.0290625
v 0.00949416 -0.048694005 0.0234375
v 0.00949416 -0.048694005 0.0290625
v 0.009717525 -0.047316285 0.0234375
v 0.009717525 -0.047316285 0.0290625
v 0.009930555 -0.045936825 0.0234375
v 0.009930555 -0.045936825 0.0290625
v 0.010133265 -0.04455564 0.0234375
v 0.010133265 -0.04455564 0.0290625
v 0.010325625 -0.0431727 0.0234375
v 0.010325625 -0.0431727 0.0290625
v 0.01050765 -0.041788005 0.0234375
v 0.01050765 -0.041788005 0.0290625
v 0.010679355 -0.040401585 0.0234375
v 0.010679355 -0.040401585 0.0290625
v 0.01084071 -0.039013425 0.0234375
v 0.01084071 -0.039013425 0.0290625
v 0.010991745 -0.03762351 0.0234375
v 0.010991745 -0.03762351 0.0290625
v 0.011132445 -0.036231855 0.0234375
v 0.011132445 -0.036231855 0.0290625
v 0.01115508 -0.03587619 0.0234375
v 0.01115508 -0.03587619 0.0290625
v 0.01116444 -0.035528115 0.0234375
v 0.01116444 -0.035528115 0.0290625
v 0.011160525 -0.03518763 0.0234375
v 0.011160525 -0.03518763 0.0290625
v 0.01114335 -0.034854765 0.0234375
v 0.01114335 -0.034854765 0.0290625
v 0.0111129 -0.03452949 0.0234375
v 0.0111129 -0.03452949 0.0290625
v 0.011069175 -0.034211805 0.0234375
v 0.011069175 -0.034211805 0.0290625
v 0.01101201 -0.033901905 0.0234375
v 0.01101201 -0.033901905 0.0290625
v 0.010940865 -0.033600255 0.0234375
v 0.010940865 -0.033600255 0.0290625
v 0.01085619 -0.033306465 0.0234375
v 0.01085619 -0.033306465 0.0290625
v 0.01075848 -0.033020055 0.0234375
v 0.01075848 -0.033020055 0.0290625
v 0.010648245 -0.03274053 0.0234375
v 0.010648245 -0.03274053 0.0290625
v 0.01052601 -0.03246741 0.0234375
v 0.01052601 -0.03246741 0.0290625
v 0.010438095 -0.032288655 0.0234375
v 0.010438095 -0.032288655 0.0290625
v 0.01034499 -0.03211239 0.0234375
v 0.01034499 -0.03211239 0.0290625
v 0.010246365 -0.03193863 0.0234375
v 0.010246365 -0.03193863 0.0290625
v 0.01014225 -0.03176754 0.0234375
v 0.01014225 -0.03176754 0.0290625
v 0.010032705 -0.0315993 0.0234375
v 0.010032705 -0.0315993 0.0290625
v 0.009917775 -0.03143409 0.0234375
v 0.009917775 -0.03143409 0.0290625
v 0.00979752 -0.031272075 0.0234375
v 0.00979752 -0.031272075 0.0290625
v 0.009671985 -0.03111345 0.0234375
v 0.009671985 -0.03111345 0.0290625
v 0.00954123 -0.030958365 0.0234375
v 0.00954123 -0.030958365 0.0290625
v 0.0094053 -0.030807 0.0234375
v 0.0094053 -0.030807 0.0290625
v 0.00926424 -0.030659505 0.0234375
v 0.00926424 -0.030659505 0.0290625
v 0.00911736 -0.0305148 0.0234375
v 0.00911736 -0.0305148 0.0290625
v 0.008964555 -0.030372675 0.0234375
v 0.008964555 -0.030372675 0.0290625
v 0.00880617 -0.030233565 0.0234375
v 0.00880617 -0.030233565 0.0290625
v 0.008642535 -0.03009795 0.0234375
v 0.008642535 -0.03009795 0.0290625
v 0.00847401 -0.02996625 0.0234375
v 0.00847401 -0.02996625 0.0290625
v 0.00830091 -0.02983896 0.0234375
v 0.00830091 -0.02983896 0.0290625
v 0.00812358 -0.029716485 0.0234375
v 0.00812358 -0.029716485 0.0290625
v 0.007942365 -0.02959932 0.0234375
v 0.007942365 -0.02959932 0.0290625
v 0.00775761 -0.0294879 0.0234375
v 0.00775761 -0.0294879 0.0290625
v 0.00756897 -0.029382165 0.0234375
v 0.00756897 -0.029382165 0.0290625
v 0.007374345 -0.029280525 0.0234375
v 0.007374345 -0.029280525 0.0290625
v 0.00717423 -0.02918316 0.0234375
v 0.00717423 -0.02918316 0.0290625
v 0.00696945 -0.029090475 0.0234375
v 0.00696945 -0.029090475 0.0290625
v 0.00676086 -0.029002875 0.0234375
v 0.00676086 -0.029002875 0.0290625
v 0.006549255 -0.028920795 0.0234375
v 0.006549255 -0.028920795 0.0290625
v 0.006335475 -0.02884461 0.0234375
v 0.006335475 -0.02884461 0.0290625
v 0.00612033 -0.028774755 0.0234375
v 0.00612033 -0.028774755 0.0290625
v 0.005904675 -0.028711635 0.0234375
v 0.005904675 -0.028711635 0.0290625
v 0.005689305 -0.02865564 0.0234375
v 0.005689305 -0.02865564 0.0290625
v 0.0054723 -0.028606455 0.0234375
v 0.0054723 -0.028606455 0.0290625
v 0.005251725 -0.028563465 0.0234375
v 0.005251725 -0.028563465 0.0290625
v 0.005028555 -0.0285267 0.0234375
v 0.005028555 -0.0285267 0.0290625
v 0.00480366 -0.028496175 0.0234375
v 0.00480366 -0.028496175 0.0290625
v 0.004578 -0.02847189 0.0234375
v 0.004578 -0.02847189 0.0290625
v 0.004352475 -0.028453875 0.0234375
v 0.004352475 -0.028453875 0.0290625
v 0.004128 -0.028442145 0.0234375
v 0.004128 -0.028442145 0.0290625
v 0.00390552 -0.028436715 0.0234375
v 0.00390552 -0.028436715 0.0290625
v 0.00368595 -0.0284376 0.0234375
v 0.00368595 -0.0284376 0.0290625
v 0.00346983 -0.028444875 0.0234375
v 0.00346983 -0.028444875 0.0290625
v 0.003254535 -0.028458975 0.0234375
v 0.003254535 -0.028458975 0.0290625
v 0.00303975 -0.028479825 0.0234375
v 0.00303975 -0.028479825 0.0290625
v 0.002825985 -0.028507155 0.0234375
v 0.002825985 -0.028507155 0.0290625
v 0.00261375 -0.028540725 0.0234375
v 0.00261375 -0.028540725 0.0290625
v 0.00240357 -0.02858028 0.0234375
v 0.00240357 -0.02858028 0.0290625
v 0.002195925 -0.028625595 0.0234375
v 0.002195925 -0.028625595 0.0290625
v 0.00199134 -0.0286764 0.0234375
v 0.00199134 -0.0286764 0.0290625
v 0.001790325 -0.028732455 0.0234375
v 0.001790325 -0.028732455 0.0290625
v 0.001593375 -0.028793535 0.0234375
v 0.001593375 -0.028793535 0.0290625
v 0.00140034 -0.02885976 0.0234375
v 0.00140034 -0.02885976 0.0290625
v 0.00121008 -0.02893176 0.0234375
v 0.00121008 -0.02893176 0.0290625
v 0.0010227 -0.02900946 0.0234375
v 0.0010227 -0.02900946 0.0290625
v 0.00083832 -0.02909271 0.0234375
v 0.00083832 -0.02909271 0.0290625
v 0.00065709 -0.02918139 0.0234375
v 0.00065709 -0.02918139 0.0290625
v 0.0004791 -0.02927535 0.0234375
v 0.0004791 -0.02927535 0.0290625
v 0.000304515 -0.02937447 0.0234375
v 0.000304515 -0.02937447 0.0290625
v 0.000133455 -0.029478615 0.0234375
v 0.000133455 -0.029478615 0.0290625
v -3.3975e-05 -0.029587665 0.0234375
v -3.3975e-05 -0.029587665 0.0290625
v -0.000197625 -0.02970147 0.0234375
v -0.000197625 -0.02970147 0.0290625
v -0.000357825 -0.029819865 0.0234375
v -0.000357825 -0.029819865 0.0290625
v -0.000591855 -0.030006315 0.0234375
v -0.000591855 -0.030006315 0.0290625
v -0.00081816 -0.03020397 0.0234375
v -0.00081816 -0.03020397 0.0290625
v -0.001036515 -0.030413505 0.0234375
v -0.001036515 -0.030413505 0.0290625
v -0.00124668 -0.03063558 0.0234375
v -0.00124668 -0.03063558 0.0290625
v -0.00144843 -0.030870855 0.0234375
v -0.00144843 -0.030870855 0.0290625
v -0.001641555 -0.03111987 0.0234375
v -0.001641555 -0.03111987 0.0290625
v -0.00182631 -0.031381965 0.0234375
v -0.00182631 -0.031381965 0.0290625
v -0.00200277 -0.0316569 0.0234375
v -0.00200277 -0.0316569 0.0290625
v -0.00217092 -0.03194469 0.0234375
v -0.00217092 -0.03194469 0.0290625
v -0.00233079 -0.032245335 0.0234375
v -0.00233079 -0.032245335 0.0290625
v -0.00248235 -0.03255882 0.0234375
v -0.00248235 -0.03255882 0.0290625
v -0.002625615 -0.032885145 0.0234375
v -0.002625615 -0.032885145 0.0290625
v -0.003303285 -0.03459918 0.0234375
v -0.003303285 -0.03459918 0.0290625
v -0.00396783 -0.03631758 0.0234375
v -0.00396783 -0.03631758 0.0290625
v -0.00461928 -0.038040375 0.0234375
v -0.00461928 -0.038040375 0.0290625
v -0.005257635 -0.03976755 0.0234375
v -0.005257635 -0.03976755 0.0290625
v -0.00588288 -0.04149909 0.0234375
v -0.00588288 -0.04149909 0.0290625
v -0.006495045 -0.043235085 0.0234375
v -0.006495045 -0.043235085 0.0290625
v -0.007094115 -0.04497549 0.0234375
v -0.007094115 -0.04497549 0.0290625
v -0.00768006 -0.0467202 0.0234375
v -0.00768006 -0.0467202 0.0290625
v -0.008252865 -0.048469155 0.0234375
v -0.008252865 -0.048469155 0.0290625
v -0.008812515 -0.050222325 0.0234375
v -0.008812515 -0.050222325 0.0290625
v -0.00935904 -0.051979725 0.0234375
v -0.00935904 -0.051979725 0.0290625
v -0.009892425 -0.053741415 0.0234375
v -0.009892425 -0.053741415 0.0290625
v -0.01041267 -0.05550735 0.0234375
v -0.01041267 -0.05550735 0.0290625
v -0.01091979 -0.057277545 0.0234375
v -0.01091979 -0.057277545 0.0290625
v -0.01102695 -0.05763183 0.0234375
v -0.011016585 -0.05757102 0.0290625
v -0.01110207 -0.05786541 0.0290625
v -0.011122875 -0.05800329 0.0234375
v -0.01117623 -0.05816073 0.0290625
v -0.011207745 -0.058391895 0.0234375
v -0.011239065 -0.05845695 0.0290625
v -0.011287665 -0.05879667 0.0234375
v -0.01129059 -0.058754085 0.0290625
v -0.011330775 -0.059052135 0.0290625
v -0.01135299 -0.059219145 0.0234375
v -0.0113601 -0.059352225 0.0290625
v -0.011387385 -0.059662215 0.0234375
v -0.011379525 -0.059656785 0.0290625
v -0.011388075 -0.05996346 0.0290625
v -0.01139703 -0.06012717 0.0234375
v -0.01138473 -0.060269565 0.0290625
v -0.01137252 -0.06061062 0.0234375
v -0.01136841 -0.060572385 0.0290625
v -0.01133805 -0.060869235 0.0290625
v -0.01129893 -0.061110015 0.0234375
v -0.011292615 -0.061157865 0.0290625
v -0.01118367 -0.061630245 0.0234375
v -0.011232 -0.061441905 0.0290625
v -0.01115712 -0.06172194 0.0290625
v -0.011014695 -0.06215871 0.0234375
v -0.01106886 -0.061996995 0.0290625
v -0.01090458 -0.06242112 0.0234375
v -0.01085595 -0.062528025 0.0290625
v -0.01077684 -0.06268632 0.0234375
v -0.01063296 -0.0629547 0.0234375
v -0.010597485 -0.06302901 0.0290625
v -0.01047375 -0.06322227 0.0234375
v -0.010300005 -0.06348504 0.0234375
v -0.01028613 -0.063504855 0.0290625
v -0.01011255 -0.06373899 0.0234375
v -0.00993621 -0.063949185 0.0290625
v -0.00991143 -0.06398109 0.0234375
v -0.00969243 -0.06421623 0.0234375
v -0.009563325 -0.06435375 0.0290625
v -0.009457695 -0.064444575 0.0234375
v -0.009210885 -0.064664685 0.0234375
v -0.009156285 -0.0647181 0.0290625
v -0.00895566 -0.064875105 0.0234375
v -0.008727885 -0.065046855 0.0290625
v -0.00869565 -0.065074425 0.0234375
v -0.008432535 -0.065261955 0.0234375
v -0.00830031 -0.06534417 0.0290625
v -0.008162655 -0.06543915 0.0234375
v -0.00788574 -0.065606115 0.0234375
v -0.00787497 -0.06561033 0.0290625
v -0.00760179 -0.065762865 0.0234375
v -0.007310805 -0.065909385 0.0234375
v 0.023569455 -0.063469005 0.0290625
v 0.02031036 -0.06341448 0.0290625
v 0.02034282 -0.06375 0.0290625
v 0.02351028 -0.06293049 0.0290625
v 0.023569785 -0.06400578 0.0290625
v 0.02031036 -0.06408552 0.0290625
v 0.02022732 -0.064396665 0.0290625
v 0.02351265 -0.0645465 0.0290625
v 0.02009247 -0.06468495 0.0290625
v 0.01990233 -0.06495474 0.0290625
v 0.02339802 -0.06509118 0.0290625
v 0.01967199 -0.06518712 0.0290625
v 0.019406475 -0.06537153 0.0290625
v 0.019106325 -0.065511735 0.0290625
v 0.01879551 -0.06559587 0.0290625
v 0.023060805 -0.066454635 0.0290625
v 0.01846782 -0.065623245 0.0290625
v -0.0070128 -0.06604566 0.0290625
v -0.005728785 -0.066647115 0.0290625
v -0.007445805 -0.06584415 0.0290625
v -0.00787497 -0.06561033 0.0290625
v 0.01814013 -0.06559587 0.0290625
v 0.017829315 -0.065511735 0.0290625
v 0.017529165 -0.06537153 0.0290625
v -0.00830031 -0.06534417 0.0290625
v 0.01726365 -0.06518712 0.0290625
v -0.008727885 -0.065046855 0.0290625
v 0.017033295 -0.06495474 0.0290625
v -0.009156285 -0.0647181 0.0290625
v 0.01684317 -0.06468495 0.0290625
v 0.01670832 -0.064396665 0.0290625
v -0.009563325 -0.06435375 0.0290625
v 0.016625265 -0.06408552 0.0290625
v -0.00993621 -0.063949185 0.0290625
v 0.01659282 -0.06375 0.0290625
v -0.01028613 -0.063504855 0.0290625
v 0.016625265 -0.06341448 0.0290625
v 0.01670832 -0.063103335 0.0290625
v -0.010597485 -0.06302901 0.0290625
v 0.01684317 -0.06281505 0.0290625
v 0.017033295 -0.06254526 0.0290625
v -0.01085595 -0.062528025 0.0290625
v -0.002291355 -0.062483655 0.0290625
v 0.01726365 -0.06231288 0.0290625
v -0.00274023 -0.06245424 0.0290625
v -0.003174225 -0.062369235 0.0290625
v -0.003592575 -0.06222585 0.0290625
v -0.003996045 -0.06202689 0.0290625
v -0.01106886 -0.061996995 0.0290625
v -0.004364475 -0.061782285 0.0290625
v -0.01115712 -0.06172194 0.0290625
v -0.00469611 -0.06148971 0.0290625
v -0.011232 -0.061441905 0.0290625
v -0.00499272 -0.06115149 0.0290625
v -0.011292615 -0.061157865 0.0290625
v -0.01133805 -0.060869235 0.0290625
v -0.0052395 -0.060784515 0.0290625
v -0.01136841 -0.060572385 0.0290625
v -0.005433915 -0.0603873 0.0290625
v -0.01138473 -0.060269565 0.0290625
v -0.005578515 -0.05996133 0.0290625
v -0.011388075 -0.05996346 0.0290625
v -0.011379525 -0.059656785 0.0290625
v -0.00566607 -0.059527845 0.0290625
v -0.0113601 -0.059352225 0.0290625
v -0.00569418 -0.059093925 0.0290625
v -0.011330775 -0.059052135 0.0290625
v -0.00566526 -0.058652505 0.0290625
v -0.01129059 -0.058754085 0.0290625
v -0.011239065 -0.05845695 0.0290625
v -0.00557928 -0.058203585 0.0290625
v -0.01117623 -0.05816073 0.0290625
v 0.000729435 -0.034659135 0.0290625
v -0.01110207 -0.05786541 0.0290625
v -0.011016585 -0.05757102 0.0290625
v -0.01091979 -0.057277545 0.0290625
v -0.01041267 -0.05550735 0.0290625
v -0.009892425 -0.053741415 0.0290625
v -0.00935904 -0.051979725 0.0290625
v -0.008812515 -0.050222325 0.0290625
v -0.008252865 -0.048469155 0.0290625
v -0.00768006 -0.0467202 0.0290625
v -0.007094115 -0.04497549 0.0290625
v -0.006495045 -0.043235085 0.0290625
v -0.00588288 -0.04149909 0.0290625
v -0.005257635 -0.03976755 0.0290625
v -0.00461928 -0.038040375 0.0290625
v -0.00396783 -0.03631758 0.0290625
v -0.003303285 -0.03459918 0.0290625
v 0.00087945 -0.03422736 0.0290625
v 0.001075095 -0.033830625 0.0290625
v 0.0013164 -0.0334689 0.0290625
v 0.00160896 -0.033137265 0.0290625
v -0.002625615 -0.032885145 0.0290625
v 0.00194718 -0.032840655 0.0290625
v 0.00231417 -0.032593875 0.0290625
v -0.00248235 -0.03255882 0.0290625
v 0.00271137 -0.032399445 0.0290625
v 0.003137355 -0.032254845 0.0290625
v -0.00233079 -0.032245335 0.0290625
v 0.00357084 -0.03216729 0.0290625
v 0.004012215 -0.032139675 0.0290625
v -0.00217092 -0.03194469 0.0290625
v 0.01034499 -0.03211239 0.0290625
v 0.010246365 -0.03193863 0.0290625
v 0.004461105 -0.03216909 0.0290625
v 0.0048951 -0.032254095 0.0290625
v 0.010438095 -0.032288655 0.0290625
v 0.00531345 -0.03239748 0.0290625
v 0.01052601 -0.03246741 0.0290625
v 0.005716905 -0.03259644 0.0290625
v 0.010648245 -0.03274053 0.0290625
v 0.006085335 -0.03284106 0.0290625
v 0.01075848 -0.033020055 0.0290625
v 0.00641697 -0.03313362 0.0290625
v 0.01085619 -0.033306465 0.0290625
v 0.00671358 -0.03347184 0.0290625
v 0.010940865 -0.033600255 0.0290625
v 0.00696036 -0.033838815 0.0290625
v 0.01101201 -0.033901905 0.0290625
v 0.00715479 -0.03423603 0.0290625
v 0.011069175 -0.034211805 0.0290625
v 0.0111129 -0.03452949 0.0290625
v 0.00729939 -0.034662015 0.0290625
v 0.01114335 -0.034854765 0.0290625
v 0.007386945 -0.0350955 0.0290625
v 0.011160525 -0.03518763 0.0290625
v 0.007415055 -0.035529405 0.0290625
v 0.01116444 -0.035528115 0.0290625
v 0.01115508 -0.03587619 0.0290625
v 0.00738612 -0.035970825 0.0290625
v 0.011132445 -0.036231855 0.0290625
v 0.00730014 -0.03641976 0.0290625
v 0.010991745 -0.03762351 0.0290625
v 0.000991425 -0.059964195 0.0290625
v 0.01084071 -0.039013425 0.0290625
v 0.010679355 -0.040401585 0.0290625
v 0.01050765 -0.041788005 0.0290625
v 0.010325625 -0.0431727 0.0290625
v 0.010133265 -0.04455564 0.0290625
v 0.009930555 -0.045936825 0.0290625
v 0.009717525 -0.047316285 0.0290625
v 0.00949416 -0.048694005 0.0290625
v 0.00926046 -0.05006997 0.0290625
v 0.009016425 -0.05144421 0.0290625
v 0.008762055 -0.052816695 0.0290625
v 0.008726505 -0.05300292 0.0290625
v 0.00869067 -0.053196195 0.0290625
v 0.00865422 -0.05339577 0.0290625
v 0.008618235 -0.05360424 0.0290625
v 0.00858288 -0.05382276 0.0290625
v 0.00855006 -0.05405355 0.0290625
v 0.008520375 -0.054297855 0.0290625
v 0.008496255 -0.054557175 0.0290625
v 0.00847827 -0.054832335 0.0290625
v 0.00846993 -0.05512413 0.0290625
v 0.00847188 -0.05543283 0.0290625
v 0.00848859 -0.055759605 0.0290625
v 0.008520705 -0.056104935 0.0290625
v 0.00857355 -0.056468715 0.0290625
v 0.008647215 -0.056851485 0.0290625
v 0.00875076 -0.05725041 0.0290625
v 0.008884395 -0.05766612 0.0290625
v 0.0090618 -0.058090035 0.0290625
v 0.00916731 -0.0583071 0.0290625
v 0.00928458 -0.058523505 0.0290625
v 0.009414915 -0.05873418 0.0290625
v 0.009560175 -0.058939215 0.0290625
v 0.00971997 -0.059142135 0.0290625
v 0.009890745 -0.059336565 0.0290625
v 0.010068915 -0.05951595 0.0290625
v 0.010255845 -0.059679045 0.0290625
v 0.010453275 -0.059829345 0.0290625
v 0.01065519 -0.05996478 0.0290625
v 0.000841425 -0.06039597 0.0290625
v 0.01105461 -0.060183105 0.0290625
v 0.01145337 -0.060334065 0.0290625
v 0.011836815 -0.06043113 0.0290625
v 0.000645765 -0.06079272 0.0290625
v 0.012205125 -0.060475215 0.0290625
v 0.012554535 -0.060486585 0.0290625
v 0.02239752 -0.06048456 0.0290625
v 0.01288545 -0.060465285 0.0290625
v 0.02272002 -0.060919035 0.0290625
v 0.000404475 -0.06115443 0.0290625
v 0.022998495 -0.061390215 0.0290625
v 0.0001119 -0.06148608 0.0290625
v -0.00022632 -0.061782675 0.0290625
v 0.01846782 -0.061876755 0.0290625
v -0.000593295 -0.062029455 0.0290625
v 0.023223615 -0.061882365 0.0290625
v 0.01879551 -0.06190413 0.0290625
v 0.019106325 -0.061988265 0.0290625
v 0.019406475 -0.06212847 0.0290625
v 0.01967199 -0.06231288 0.0290625
v 0.02339364 -0.062395935 0.0290625
v 0.01990233 -0.06254526 0.0290625
v 0.02009247 -0.06281505 0.0290625
v 0.02022732 -0.063103335 0.0290625
v 0.01814013 -0.06190413 0.0290625
v 0.017829315 -0.061988265 0.0290625
v 0.017529165 -0.06212847 0.0290625
v -0.00099051 -0.062223885 0.0290625
v -0.00141648 -0.062368485 0.0290625
v -0.001849965 -0.06245604 0.0290625
v 0.0220296 -0.06008805 0.0290625
v 0.013199145 -0.060423015 0.0290625
v 0.01349541 -0.060360015 0.0290625
v 0.013772985 -0.060285345 0.0290625
v 0.01403241 -0.06019932 0.0290625
v 0.01427517 -0.06010902 0.0290625
v 0.014501745 -0.060014475 0.0290625
v 0.02161767 -0.059728245 0.0290625
v 0.01471446 -0.059919705 0.0290625
v 0.014913855 -0.05982468 0.0290625
v 0.015102465 -0.05973144 0.0290625
v 0.01528077 -0.059640075 0.0290625
v 0.02117535 -0.059416995 0.0290625
v 0.01545093 -0.059551905 0.0290625
v 0.015613365 -0.059466945 0.0290625
v 0.0157698 -0.05938572 0.0290625
v 0.02070165 -0.059155875 0.0290625
v 0.015920505 -0.059308335 0.0290625
v 0.016066605 -0.05923494 0.0290625
v 0.016208115 -0.059166 0.0290625
v 0.016345545 -0.05910234 0.0290625
v 0.020197545 -0.05894331 0.0290625
v 0.016478775 -0.05904369 0.0290625
v 0.017001555 -0.058857405 0.0290625
v 0.01967967 -0.058786425 0.0290625
v 0.017528625 -0.05872848 0.0290625
v 0.01914753 -0.05868702 0.0290625
v 0.018059955 -0.05865693 0.0290625
v 0.018601605 -0.058643295 0.0290625
v 0.01014225 -0.03176754 0.0290625
v -0.00200277 -0.0316569 0.0290625
v 0.010032705 -0.0315993 0.0290625
v 0.009917775 -0.03143409 0.0290625
v -0.00182631 -0.031381965 0.0290625
v 0.00979752 -0.031272075 0.0290625
v -0.001641555 -0.03111987 0.0290625
v 0.009671985 -0.03111345 0.0290625
v 0.00954123 -0.030958365 0.0290625
v -0.00144843 -0.030870855 0.0290625
v 0.0094053 -0.030807 0.0290625
v 0.00926424 -0.030659505 0.0290625
v -0.00124668 -0.03063558 0.0290625
v 0.00911736 -0.0305148 0.0290625
v -0.001036515 -0.030413505 0.0290625
v 0.008964555 -0.030372675 0.0290625
v 0.00880617 -0.030233565 0.0290625
v -0.00081816 -0.03020397 0.0290625
v 0.008642535 -0.03009795 0.0290625
v -0.000591855 -0.030006315 0.0290625
v 0.00847401 -0.02996625 0.0290625
v 0.00830091 -0.02983896 0.0290625
v -0.000357825 -0.029819865 0.0290625
v 0.00812358 -0.029716485 0.0290625
v -0.000197625 -0.02970147 0.0290625
v 0.007942365 -0.02959932 0.0290625
v -3.3975e-05 -0.029587665 0.0290625
v 0.00775761 -0.0294879 0.0290625
v 0.000133455 -0.029478615 0.0290625
v 0.00756897 -0.029382165 0.0290625
v 0.000304515 -0.02937447 0.0290625
v 0.007374345 -0.029280525 0.0290625
v 0.0004791 -0.02927535 0.0290625
v 0.00717423 -0.02918316 0.0290625
v 0.00065709 -0.02918139 0.0290625
v 0.00696945 -0.029090475 0.0290625
v 0.00083832 -0.02909271 0.0290625
v 0.0010227 -0.02900946 0.0290625
v 0.00676086 -0.029002875 0.0290625
v 0.00121008 -0.02893176 0.0290625
v 0.006549255 -0.028920795 0.0290625
v 0.00140034 -0.02885976 0.0290625
v 0.006335475 -0.02884461 0.0290625
v 0.001593375 -0.028793535 0.0290625
v 0.00612033 -0.028774755 0.0290625
v 0.001790325 -0.028732455 0.0290625
v 0.005904675 -0.028711635 0.0290625
v 0.00199134 -0.0286764 0.0290625
v 0.005689305 -0.02865564 0.0290625
v 0.002195925 -0.028625595 0.0290625
v 0.0054723 -0.028606455 0.0290625
v 0.00240357 -0.02858028 0.0290625
v 0.005251725 -0.028563465 0.0290625
v 0.00261375 -0.028540725 0.0290625
v 0.005028555 -0.0285267 0.0290625
v 0.002825985 -0.028507155 0.0290625
v 0.00480366 -0.028496175 0.0290625
v 0.00303975 -0.028479825 0.0290625
v 0.004578 -0.02847189 0.0290625
v 0.003254535 -0.028458975 0.0290625
v 0.004352475 -0.028453875 0.0290625
v 0.00346983 -0.028444875 0.0290625
v 0.004128 -0.028442145 0.0290625
v 0.00368595 -0.0284376 0.0290625
v 0.00390552 -0.028436715 0.0290625
v -0.004433955 -0.06719862 0.0290625
v -0.00312828 -0.067700205 0.0290625
v 0.02278401 -0.06781686 0.0290625
v -0.00181179 -0.068151855 0.0290625
v -0.000483675 -0.068553555 0.0290625
v 0.000855795 -0.06890529 0.0290625
v 0.022567665 -0.069177885 0.0290625
v 0.002205045 -0.06920715 0.0290625
v 0.003562515 -0.069459165 0.0290625
v 0.004927935 -0.06966138 0.0290625
v 0.0063021 -0.069813735 0.0290625
v 0.007684995 -0.069916245 0.0290625
v 0.009076635 -0.069968895 0.0290625
v 0.009343005 -0.06996945 0.0290625
v 0.009624375 -0.069987225 0.0290625
v 0.00992232 -0.07001694 0.0290625
v 0.0102321 -0.070074435 0.0290625
v 0.01055415 -0.070172655 0.0290625
v 0.01087443 -0.07031493 0.0290625
v 0.01118466 -0.070511055 0.0290625
v 0.0224118 -0.070537755 0.0290625
v 0.01133244 -0.070627305 0.0290625
v 0.011468025 -0.07075446 0.0290625
v 0.01159182 -0.070895355 0.0290625
v 0.011706165 -0.071049435 0.0290625
v 0.011808285 -0.07121076 0.0290625
v 0.011895495 -0.071373345 0.0290625
v 0.0120222 -0.071708475 0.0290625
v 0.02231682 -0.071897535 0.0290625
v 0.0120987 -0.072044385 0.0290625
v 0.01212933 -0.07236435 0.0290625
v 0.01212456 -0.07266948 0.0290625
v 0.012093705 -0.072953745 0.0290625
v 0.01204452 -0.07322181 0.0290625
v 0.02228229 -0.073256115 0.0290625
v 0.01198926 -0.0734766 0.0290625
v 0.01192383 -0.073717155 0.0290625
v 0.02230743 -0.074611485 0.0290625
v 0.011541375 -0.07529886 0.0290625
v 0.022391535 -0.07596228 0.0290625
v 0.011207055 -0.076889355 0.0290625
v 0.022534725 -0.077310285 0.0290625
v 0.010920855 -0.07848864 0.0290625
v 0.022737525 -0.07865409 0.0290625
v 0.01068261 -0.08009706 0.0290625
v 0.023000445 -0.079991595 0.0290625
v 0.023323815 -0.08132163 0.0290625
v 0.0104925 -0.08171427 0.0290625
v 0.023707305 -0.08264529 0.0290625
v 0.01035102 -0.08333931 0.0290625
v 0.024150945 -0.083962665 0.0290625
v 0.01025838 -0.084971865 0.0290625
v 0.024654705 -0.085273755 0.0290625
v 0.010214385 -0.086612235 0.0290625
v 0.017541195 -0.086024505 0.0290625
v 0.017201385 -0.0860799 0.0290625
v 0.02477733 -0.08559804 0.0290625
v 0.024884895 -0.08592339 0.0290625
v 0.017894445 -0.086024505 0.0290625
v 0.018234255 -0.0860799 0.0290625
v 0.01856325 -0.086194515 0.0290625
v 0.024977415 -0.086249805 0.0290625
v 0.018873645 -0.08636151 0.0290625
v 0.019143945 -0.086571525 0.0290625
v 0.025054875 -0.08657727 0.0290625
v 0.019381125 -0.086830935 0.0290625
v 0.02511729 -0.086905815 0.0290625
v 0.019573845 -0.08712327 0.0290625
v 0.025164645 -0.08723541 0.0290625
v 0.01970976 -0.08743305 0.0290625
v 0.02519697 -0.087566085 0.0290625
v 0.01979403 -0.087766725 0.0290625
v 0.02521407 -0.087899535 0.0290625
v 0.019827195 -0.088125 0.0290625
v 0.025215855 -0.088236975 0.0290625
v 0.01979403 -0.088483275 0.0290625
v 0.02520252 -0.088576395 0.0290625
v 0.01970976 -0.08881695 0.0290625
v 0.02517423 -0.088915785 0.0290625
v 0.019573845 -0.08912673 0.0290625
v 0.025131165 -0.089253105 0.0290625
v 0.019381125 -0.089419065 0.0290625
v 0.025073505 -0.08958633 0.0290625
v 0.019143945 -0.089678475 0.0290625
v 0.018873645 -0.08988849 0.0290625
v 0.025001445 -0.089913465 0.0290625
v 0.01856325 -0.090055485 0.0290625
v 0.018234255 -0.0901701 0.0290625
v 0.017894445 -0.090225495 0.0290625
v 0.024914415 -0.09023556 0.0290625
v 0.010529355 -0.0902634 0.0290625
v 0.02481156 -0.09055665 0.0290625
v 0.017541195 -0.090225495 0.0290625
v 0.017201385 -0.0901701 0.0290625
v 0.01687239 -0.090055485 0.0290625
v 0.01044204 -0.08994207 0.0290625
v 0.016561995 -0.08988849 0.0290625
v 0.016291695 -0.089678475 0.0290625
v 0.010368975 -0.08961573 0.0290625
v 0.016054515 -0.089419065 0.0290625
v 0.01031013 -0.089284395 0.0290625
v 0.015861795 -0.08912673 0.0290625
v 0.010265535 -0.08894808 0.0290625
v 0.015725865 -0.08881695 0.0290625
v 0.01023516 -0.088606755 0.0290625
v 0.01564161 -0.088483275 0.0290625
v 0.010219035 -0.088260435 0.0290625
v 0.015608445 -0.088125 0.0290625
v 0.01564161 -0.087766725 0.0290625
v 0.015725865 -0.08743305 0.0290625
v 0.015861795 -0.08712327 0.0290625
v 0.016054515 -0.086830935 0.0290625
v 0.016291695 -0.086571525 0.0290625
v 0.016561995 -0.08636151 0.0290625
v 0.01687239 -0.086194515 0.0290625
v 0.01063092 -0.090579735 0.0290625
v 0.024693645 -0.090875055 0.0290625
v 0.01074753 -0.090892605 0.0290625
v 0.02456148 -0.0911889 0.0290625
v 0.010879785 -0.09120306 0.0290625
v 0.024415845 -0.09149631 0.0290625
v 0.01102671 -0.091509315 0.0290625
v 0.02425758 -0.09179544 0.0290625
v 0.011187345 -0.0918096 0.0290625
v 0.02408748 -0.0920844 0.0290625
v 0.01136073 -0.092102145 0.0290625
v 0.02390502 -0.092363505 0.0290625
v 0.01154589 -0.092385135 0.0290625
v 0.02370783 -0.09263664 0.0290625
v 0.011741835 -0.09265683 0.0290625
v 0.023497065 -0.09290265 0.0290625
v 0.011949525 -0.09291795 0.0290625
v 0.023274075 -0.093159975 0.0290625
v 0.012171345 -0.09317187 0.0290625
v 0.02304021 -0.093407115 0.0290625
v 0.01240593 -0.093417345 0.0290625
v 0.02279682 -0.09364254 0.0290625
v 0.01265178 -0.093652965 0.0290625
v 0.022545255 -0.093864765 0.0290625
v 0.01290744 -0.093877365 0.0290625
v 0.022285395 -0.094073475 0.0290625
v 0.01317141 -0.09408912 0.0290625
v 0.02201346 -0.09427185 0.0290625
v 0.01344222 -0.094286865 0.0290625
v 0.021730725 -0.09445926 0.0290625
v 0.013720425 -0.094470645 0.0290625
v 0.021438945 -0.094634685 0.0290625
v 0.01400982 -0.09464313 0.0290625
v 0.021139875 -0.09479712 0.0290625
v 0.01430883 -0.09480366 0.0290625
v 0.020835285 -0.094945545 0.0290625
v 0.014615625 -0.094951365 0.0290625
v 0.020526915 -0.09507894 0.0290625
v 0.01492836 -0.09508542 0.0290625
v 0.02021523 -0.095196825 0.0290625
v 0.01524519 -0.09520494 0.0290625
v 0.01989549 -0.095301015 0.0290625
v 0.015564285 -0.0953091 0.0290625
v 0.019568745 -0.095391435 0.0290625
v 0.01588563 -0.09539757 0.0290625
v 0.01923699 -0.09546768 0.0290625
v 0.01621395 -0.095471745 0.0290625
v 0.01890222 -0.09552933 0.0290625
v 0.016547835 -0.09553158 0.0290625
v 0.018566415 -0.095575995 0.0290625
v 0.016885275 -0.095576835 0.0290625
v 0.017224245 -0.095607255 0.0290625
v 0.018231585 -0.09560724 0.0290625
v 0.01756272 -0.09562263 0.0290625
v 0.017898705 -0.095622705 0.0290625
f 1 2 3
f 1 4 2
f 5 1 3
f 5 3 6
f 5 6 7
f 8 5 7
f 8 7 9
f 8 9 10
f 11 8 10
f 11 10 12
f 11 12 13
f 11 13 14
f 11 14 15
f 16 11 15
f 16 15 17
f 16 17 18
f 18 17 19
f 16 18 20
f 21 16 20
f 21 20 22
f 23 21 22
f 23 22 24
f 25 23 24
f 25 26 23
f 25 24 27
f 28 25 27
f 29 28 27
f 29 27 30
f 31 29 30
f 32 31 30
f 33 32 30
f 34 33 30
f 35 34 30
f 36 35 30
f 37 36 30
f 38 37 30
f 39 38 30
f 40 39 30
f 41 40 30
f 42 41 30
f 43 42 30
f 44 43 30
f 45 44 30
f 46 45 30
f 47 46 30
f 48 47 30
f 49 48 30
f 50 49 30
f 50 30 51
f 52 50 51
f 53 52 51
f 54 53 51
f 55 54 51
f 56 55 51
f 57 56 51
f 58 57 51
f 59 58 51
f 60 59 51
f 61 60 51
f 62 61 51
f 63 62 51
f 64 63 51
f 65 64 51
f 66 65 51
f 67 66 51
f 68 67 51
f 69 68 51
f 70 69 51
f 71 70 51
f 72 71 51
f 73 72 51
f 74 73 51
f 75 74 51
f 76 75 51
f 76 51 77
f 78 76 77
f 78 77 79
f 80 78 79
f 80 79 81
f 82 80 81
f 83 82 81
f 83 81 84
f 85 83 84
f 85 84 86
f 87 85 86
f 87 86 88
f 89 87 88
f 90 89 88
f 90 88 91
f 92 90 91
f 92 91 93
f 94 92 93
f 94 93 95
f 96 94 95
f 96 95 97
f 98 96 97
f 98 97 99
f 100 98 99
f 100 99 101
f 100 101 102
f 100 102 103
f 104 100 103
f 105 104 103
f 105 106 104
f 105 103 107
f 108 105 107
f 108 107 109
f 108 109 110
f 111 108 110
f 111 110 112
f 111 112 113
f 114 111 113
f 114 113 115
f 114 115 116
f 114 116 117
f 114 117 118
f 119 114 118
f 119 118 120
f 121 119 120
f 121 120 122
f 123 121 122
f 124 123 122
f 125 124 122
f 126 125 122
f 127 126 122
f 128 127 122
f 129 128 122
f 130 129 122
f 131 130 122
f 132 131 122
f 133 132 122
f 134 133 122
f 135 134 122
f 136 135 122
f 137 136 122
f 137 122 138
f 139 137 138
f 139 138 140
f 141 139 140
f 141 140 142
f 143 141 142
f 143 142 144
f 145 143 144
f 145 144 146
f 147 145 146
f 147 146 148
f 149 147 148
f 149 148 150
f 149 150 151
f 152 149 151
f 152 151 153
f 152 153 154
f 155 152 154
f 155 154 156
f 155 156 157
f 158 155 157
f 158 157 159
f 158 159 160
f 161 158 160
f 161 160 162
f 160 163 162
f 161 162 164
f 165 161 164
f 165 164 166
f 167 165 166
f 167 166 168
f 169 167 168
f 169 168 170
f 171 169 170
f 172 171 170
f 172 170 173
f 174 172 173
f 174 173 175
f 176 174 175
f 176 175 177
f 178 176 177
f 179 178 177
f 179 177 180
f 181 179 180
f 181 180 182
f 183 181 182
f 183 182 184
f 185 183 184
f 185 184 186
f 185 186 187
f 188 185 187
f 188 187 189
f 190 188 189
f 190 189 191
f 191 189 192
f 193 190 191
f 193 191 194
f 191 195 194
f 191 196 195
f 196 197 195
f 196 198 197
f 196 199 198
f 196 200 199
f 200 201 199
f 200 202 201
f 200 203 202
f 200 204 203
f 204 205 203
f 204 206 205
f 204 207 206
f 204 208 207
f 204 209 208
f 208 210 207
f 208 211 210
f 204 212 209
f 204 213 212
f 204 214 213
f 204 215 214
f 204 216 215
f 204 217 216
f 204 218 217
f 218 219 217
f 218 220 219
f 218 221 220
f 218 222 221
f 218 223 222
f 223 224 222
f 223 225 224
f 223 226 225
f 223 227 226
f 223 228 227
f 223 229 228
f 229 230 228
f 229 231 230
f 229 232 231
f 232 233 231
f 232 234 233
f 234 235 233
f 234 236 235
f 236 237 235
f 237 238 235
f 237 239 238
f 239 240 238
f 239 241 240
f 241 242 240
f 241 243 242
f 243 244 242
f 243 245 244
f 245 246 244
f 246 247 244
f 247 248 244
f 247 249 248
f 244 248 250
f 244 250 251
f 244 251 252
f 244 252 253
f 244 253 254
f 255 244 254
f 255 254 256
f 255 256 257
f 255 257 258
f 255 258 259
f 255 259 260
f 261 255 260
f 261 260 262
f 263 261 262
f 263 262 264
f 265 263 264
f 265 264 266
f 267 265 266
f 267 266 268
f 269 267 268
f 269 268 270
f 269 270 271
f 272 269 271
f 272 271 273
f 272 273 274
f 272 274 275
f 276 272 275
f 277 276 275
f 277 278 276
f 277 275 279
f 277 279 280
f 277 280 281
f 282 277 281
f 282 281 283
f 282 283 284
f 285 282 284
f 285 284 286
f 287 285 286
f 287 286 288
f 289 287 288
f 289 288 290
f 291 289 290
f 291 290 292
f 293 291 292
f 293 292 294
f 295 293 294
f 295 294 296
f 297 295 296
f 297 296 298
f 299 297 298
f 299 298 300
f 301 299 300
f 301 300 302
f 303 301 302
f 303 302 304
f 303 304 305
f 249 303 305
f 249 305 306
f 249 306 307
f 249 307 248
f 278 308 276
f 278 309 308
f 309 310 308
f 309 311 310
f 311 312 310
f 311 313 312
f 313 314 312
f 313 315 314
f 315 316 314
f 315 317 316
f 317 318 316
f 317 319 318
f 319 320 318
f 319 321 320
f 321 322 320
f 321 323 322
f 323 324 322
f 323 325 324
f 325 326 324
f 325 327 326
f 327 328 326
f 327 329 328
f 329 330 328
f 329 331 330
f 331 332 330
f 331 333 332
f 333 334 332
f 333 335 334
f 335 336 334
f 335 337 336
f 337 338 336
f 337 339 338
f 339 340 338
f 339 341 340
f 341 342 340
f 341 343 342
f 343 344 342
f 343 345 344
f 345 346 344
f 345 347 346
f 347 348 346
f 347 349 348
f 349 350 348
f 349 351 350
f 351 352 350
f 351 353 352
f 353 354 352
f 353 355 354
f 355 356 354
f 355 357 356
f 357 358 356
f 357 359 358
f 359 360 358
f 359 361 360
f 361 362 360
f 191 192 363
f 191 363 364
f 191 364 365
f 366 191 365
f 366 365 367
f 366 367 368
f 4 366 368
f 4 368 369
f 4 369 2
f 163 370 162
f 370 371 162
f 370 372 371
f 372 373 371
f 372 374 373
f 374 375 373
f 374 18 375
f 18 19 375
f 105 376 106
f 376 377 106
f 376 378 377
f 376 379 378
f 379 380 378
f 379 381 380
f 379 382 381
f 382 383 381
f 382 384 383
f 384 385 383
f 384 386 385
f 384 387 386
f 387 388 386
f 387 389 388
f 387 390 389
f 390 391 389
f 390 392 391
f 392 393 391
f 392 394 393
f 392 395 394
f 395 396 394
f 395 397 396
f 397 398 396
f 397 399 398
f 397 400 399
f 400 401 399
f 400 402 401
f 402 403 401
f 402 404 403
f 404 405 403
f 404 406 405
f 406 407 405
f 406 408 407
f 408 409 407
f 408 410 409
f 410 411 409
f 411 412 409
f 411 413 412
f 413 414 412
f 413 415 414
f 415 416 414
f 415 417 416
f 417 418 416
f 417 419 418
f 419 420 418
f 419 421 420
f 421 422 420
f 421 423 422
f 423 424 422
f 423 425 424
f 425 426 424
f 425 427 426
f 427 428 426
f 427 429 428
f 429 430 428
f 429 431 430
f 431 432 430
f 431 433 432
f 433 434 432
f 433 435 434
f 435 436 434
f 435 437 436
f 437 438 436
f 437 439 438
f 439 440 438
f 25 441 26
f 441 442 26
f 442 443 26
f 443 444 26
f 444 445 26
f 445 446 26
f 445 447 446
f 447 448 446
f 448 449 446
f 449 450 446
f 450 451 446
f 450 452 451
f 452 453 451
f 453 454 451
f 453 455 454
f 455 456 454
f 456 457 454
f 457 458 454
f 457 459 458
f 459 460 458
f 460 461 458
f 460 462 461
f 462 463 461
f 462 464 463
f 464 465 463
f 464 466 465
f 466 467 465
f 468 469 470
f 471 469 468
f 472 468 470
f 472 470 473
f 472 473 474
f 474 473 475
f 474 475 476
f 476 475 477
f 476 477 478
f 478 477 479
f 478 479 480
f 480 479 481
f 480 481 482
f 482 481 483
f 482 483 484
f 484 483 485
f 484 485 486
f 486 485 487
f 486 487 488
f 488 487 489
f 488 489 490
f 490 489 491
f 490 491 492
f 492 491 493
f 492 493 494
f 494 493 495
f 494 495 496
f 496 495 497
f 496 497 498
f 498 497 499
f 498 499 500
f 500 499 501
f 500 501 502
f 502 501 503
f 502 503 504
f 504 503 505
f 504 505 506
f 506 505 507
f 506 507 508
f 508 507 509
f 508 509 510
f 510 509 511
f 510 511 512
f 512 511 513
f 512 513 514
f 514 513 515
f 514 515 516
f 516 515 517
f 516 517 518
f 518 517 519
f 518 519 520
f 520 519 521
f 520 521 522
f 522 521 523
f 522 523 524
f 524 523 525
f 524 525 526
f 526 525 527
f 526 527 528
f 528 527 529
f 528 529 530
f 530 529 531
f 530 531 532
f 532 531 533
f 532 533 534
f 534 533 535
f 534 535 536
f 536 535 537
f 536 537 538
f 538 537 539
f 538 539 471
f 471 539 469
f 540 541 542
f 543 541 540
f 544 540 542
f 544 542 545
f 544 545 546
f 546 545 547
f 546 547 548
f 548 547 549
f 548 549 550
f 550 549 551
f 550 551 552
f 552 551 553
f 552 553 554
f 554 553 555
f 554 555 556
f 556 555 557
f 556 557 558
f 558 557 559
f 558 559 560
f 560 559 561
f 560 561 562
f 562 561 563
f 562 563 564
f 564 563 565
f 564 565 566
f 566 565 567
f 566 567 568
f 568 567 569
f 568 569 570
f 570 569 571
f 570 571 572
f 572 571 573
f 572 573 574
f 574 573 575
f 574 575 576
f 576 575 577
f 576 577 578
f 578 577 579
f 578 579 580
f 580 579 581
f 580 581 582
f 582 581 583
f 582 583 584
f 584 583 585
f 584 585 586
f 586 585 587
f 586 587 588
f 588 587 589
f 588 589 590
f 590 589 591
f 590 591 592
f 592 591 593
f 592 593 594
f 594 593 595
f 594 595 596
f 596 595 597
f 596 597 598
f 598 597 599
f 598 599 600
f 600 599 601
f 600 601 602
f 602 601 603
f 602 603 604
f 604 603 605
f 604 605 606
f 606 605 607
f 606 607 608
f 608 607 609
f 608 609 610
f 610 609 611
f 610 611 612
f 612 611 613
f 612 613 614
f 614 613 615
f 614 615 543
f 543 615 541
f 616 617 618
f 619 617 616
f 620 616 618
f 620 618 621
f 620 621 622
f 622 621 623
f 622 623 624
f 624 623 625
f 624 625 626
f 626 625 627
f 626 627 628
f 628 627 629
f 628 629 630
f 630 629 631
f 630 631 632
f 632 631 633
f 632 633 634
f 634 633 635
f 634 635 636
f 636 635 637
f 636 637 638
f 638 637 639
f 638 639 640
f 640 639 641
f 640 641 642
f 642 641 643
f 642 643 644
f 644 643 645
f 644 645 646
f 646 645 647
f 646 647 648
f 648 647 649
f 648 649 650
f 650 649 651
f 650 651 652
f 652 651 653
f 652 653 654
f 654 653 655
f 654 655 656
f 656 655 657
f 656 657 658
f 658 657 659
f 658 659 660
f 660 659 661
f 660 661 662
f 662 661 663
f 662 663 664
f 664 663 665
f 664 665 666
f 666 665 667
f 666 667 668
f 668 667 669
f 668 669 670
f 670 669 671
f 670 671 672
f 672 671 673
f 672 673 674
f 674 673 675
f 674 675 676
f 676 675 677
f 676 677 678
f 678 677 679
f 678 679 680
f 680 679 681
f 680 681 682
f 682 681 683
f 682 683 684
f 684 683 685
f 684 685 686
f 686 685 687
f 686 687 688
f 688 687 689
f 688 689 690
f 690 689 691
f 690 691 692
f 692 691 693
f 692 693 694
f 694 693 695
f 694 695 696
f 696 695 697
f 696 697 698
f 698 697 699
f 698 699 700
f 700 699 701
f 700 701 702
f 702 701 703
f 702 703 704
f 704 703 705
f 704 705 706
f 706 705 707
f 706 707 708
f 708 707 709
f 708 709 710
f 710 709 711
f 710 711 712
f 712 711 713
f 712 713 714
f 714 713 715
f 714 715 619
f 619 715 617
f 716 717 718
f 719 717 716
f 716 718 720
f 720 718 721
f 720 721 722
f 722 721 723
f 722 723 724
f 724 723 725
f 724 725 726
f 726 725 727
f 726 727 728
f 728 727 729
f 728 729 730
f 730 729 731
f 730 731 732
f 732 731 733
f 732 733 734
f 734 733 735
f 734 735 736
f 736 735 737
f 736 737 738
f 738 737 739
f 738 739 740
f 740 739 741
f 740 741 742
f 742 741 743
f 742 743 744
f 744 743 745
f 745 743 746
f 745 746 747
f 747 746 748
f 747 748 749
f 749 748 750
f 749 750 751
f 751 750 752
f 751 752 753
f 753 752 754
f 753 754 755
f 755 754 756
f 755 756 757
f 757 756 758
f 757 758 759
f 759 758 760
f 760 758 761
f 760 761 762
f 762 761 763
f 762 763 764
f 764 763 765
f 765 763 766
f 765 766 767
f 767 766 768
f 767 768 769
f 769 768 770
f 769 770 771
f 771 770 772
f 772 770 773
f 772 773 774
f 774 773 775
f 774 775 776
f 776 775 777
f 776 777 778
f 778 777 779
f 778 779 780
f 778 780 781
f 781 780 782
f 781 782 783
f 783 782 784
f 783 784 785
f 785 784 786
f 785 786 787
f 787 786 788
f 787 788 789
f 789 788 790
f 789 790 791
f 791 790 792
f 791 792 793
f 793 792 794
f 793 794 795
f 795 794 796
f 795 796 797
f 797 796 798
f 797 798 799
f 799 798 800
f 799 800 801
f 801 800 802
f 801 802 803
f 803 802 804
f 803 804 805
f 805 804 806
f 805 806 807
f 807 806 808
f 807 808 809
f 809 808 810
f 809 810 811
f 811 810 812
f 811 812 813
f 813 812 814
f 813 814 815
f 815 814 816
f 815 816 817
f 817 816 818
f 817 818 819
f 819 818 820
f 819 820 821
f 821 820 822
f 821 822 823
f 823 822 824
f 823 824 825
f 825 824 826
f 825 826 827
f 827 826 828
f 827 828 829
f 829 828 830
f 829 830 831
f 831 830 832
f 831 832 833
f 833 832 834
f 833 834 835
f 835 834 836
f 835 836 837
f 837 836 838
f 837 838 839
f 839 838 840
f 839 840 841
f 841 840 842
f 841 842 843
f 843 842 844
f 843 844 845
f 845 844 846
f 845 846 847
f 847 846 848
f 847 848 849
f 849 848 850
f 849 850 851
f 851 850 852
f 851 852 853
f 853 852 854
f 853 854 855
f 855 854 856
f 855 856 857
f 857 856 858
f 857 858 859
f 859 858 860
f 859 860 861
f 861 860 862
f 861 862 863
f 863 862 864
f 863 864 865
f 865 864 866
f 865 866 867
f 867 866 868
f 867 868 869
f 869 868 870
f 869 870 871
f 871 870 872
f 871 872 873
f 873 872 874
f 873 874 875
f 875 874 876
f 875 876 877
f 877 876 878
f 877 878 879
f 879 878 880
f 879 880 881
f 881 880 882
f 881 882 883
f 883 882 884
f 883 884 885
f 885 884 886
f 885 886 887
f 887 886 888
f 887 888 889
f 889 888 890
f 889 890 891
f 891 890 892
f 891 892 893
f 893 892 894
f 893 894 895
f 895 894 896
f 895 896 897
f 897 896 898
f 897 898 899
f 899 898 900
f 899 900 901
f 901 900 902
f 901 902 903
f 903 902 904
f 903 904 905
f 905 904 906
f 905 906 907
f 907 906 908
f 907 908 909
f 909 908 910
f 909 910 911
f 911 910 912
f 911 912 913
f 913 912 914
f 913 914 915
f 915 914 916
f 915 916 917
f 917 916 918
f 917 918 919
f 919 918 920
f 919 920 921
f 921 920 922
f 921 922 923
f 923 922 924
f 923 924 925
f 925 924 926
f 925 926 927
f 927 926 928
f 927 928 929
f 929 928 930
f 929 930 931
f 931 930 932
f 931 932 933
f 933 932 934
f 933 934 935
f 935 934 936
f 935 936 937
f 937 936 938
f 937 938 939
f 939 938 940
f 939 940 941
f 941 940 942
f 941 942 943
f 943 942 944
f 943 944 945
f 945 944 946
f 945 946 947
f 947 946 948
f 947 948 949
f 949 948 950
f 949 950 951
f 951 950 952
f 951 952 953
f 953 952 954
f 953 954 955
f 955 954 956
f 955 956 957
f 957 956 958
f 957 958 959
f 959 958 960
f 959 960 961
f 961 960 962
f 961 962 963
f 963 962 964
f 963 964 965
f 965 964 966
f 965 966 967
f 967 966 968
f 967 968 969
f 969 968 970
f 969 970 971
f 971 970 972
f 971 972 973
f 973 972 974
f 973 974 975
f 975 974 976
f 975 976 977
f 977 976 978
f 977 978 979
f 979 978 980
f 979 980 981
f 981 980 982
f 981 982 983
f 983 982 984
f 983 984 985
f 985 984 986
f 985 986 987
f 987 986 988
f 987 988 989
f 989 988 990
f 989 990 991
f 991 990 992
f 991 992 993
f 993 992 994
f 993 994 995
f 995 994 996
f 995 996 997
f 997 996 998
f 997 998 999
f 999 998 1000
f 999 1000 1001
f 1001 1000 1002
f 1001 1002 1003
f 1003 1002 1004
f 1003 1004 1005
f 1005 1004 1006
f 1005 1006 1007
f 1007 1006 1008
f 1007 1008 1009
f 1009 1008 1010
f 1009 1010 1011
f 1011 1010 1012
f 1011 1012 1013
f 1013 1012 1014
f 1013 1014 1015
f 1015 1014 1016
f 1015 1016 1017
f 1017 1016 1018
f 1017 1018 1019
f 1019 1018 1020
f 1019 1020 1021
f 1021 1020 1022
f 1021 1022 1023
f 1023 1022 1024
f 1023 1024 1025
f 1025 1024 1026
f 1025 1026 1027
f 1027 1026 1028
f 1027 1028 1029
f 1029 1028 1030
f 1030 1028 1031
f 1030 1031 1032
f 1032 1031 1033
f 1032 1033 1034
f 1034 1033 1035
f 1035 1033 1036
f 1035 1036 1037
f 1037 1036 1038
f 1037 1038 1039
f 1039 1038 1040
f 1039 1040 1041
f 1041 1040 1042
f 1041 1042 1043
f 1043 1042 1044
f 1044 1042 1045
f 1044 1045 1046
f 1046 1045 1047
f 1046 1047 1048
f 1048 1047 1049
f 1048 1049 1050
f 1050 1049 1051
f 1050 1051 1052
f 1052 1051 1053
f 1052 1053 1054
f 1054 1053 1055
f 1054 1055 1056
f 1056 1055 1057
f 1057 1055 1058
f 1057 1058 1059
f 1059 1058 1060
f 1059 1060 1061
f 1061 1060 1062
f 1061 1062 1063
f 1063 1062 1064
f 1063 1064 1065
f 1065 1064 1066
f 1065 1066 1067
f 1067 1066 1068
f 1067 1068 1069
f 1069 1068 1070
f 1069 1070 1071
f 1069 1071 1072
f 1072 1071 1073
f 1072 1073 1074
f 1074 1073 1075
f 1074 1075 1076
f 1076 1075 1077
f 1076 1077 1078
f 1078 1077 1079
f 1078 1079 1080
f 1080 1079 1081
f 1080 1081 1082
f 1082 1081 1083
f 1082 1083 1084
f 1084 1083 1085
f 1084 1085 1086
f 1086 1085 1087
f 1086 1087 1088
f 1088 1087 1089
f 1088 1089 1090
f 1090 1089 1091
f 1091 1089 1092
f 1091 1092 1093
f 1093 1092 1094
f 1093 1094 1095
f 1095 1094 1096
f 1095 1096 1097
f 1095 1097 1098
f 1098 1097 1099
f 1098 1099 1100
f 1100 1099 1101
f 1100 1101 1102
f 1102 1101 1103
f 1102 1103 1104
f 1104 1103 1105
f 1104 1105 1106
f 1106 1105 1107
f 1106 1107 1108
f 1108 1107 1109
f 1108 1109 1110
f 1110 1109 1111
f 1110 1111 1112
f 1112 1111 1113
f 1112 1113 1114
f 1112 1114 1115
f 1115 1114 1116
f 1115 1116 1117
f 1117 1116 1118
f 1117 1118 1119
f 1119 1118 1120
f 1119 1120 1121
f 1121 1120 1122
f 1121 1122 1123
f 1123 1122 1124
f 1123 1124 1125
f 1125 1124 1126
f 1125 1126 1127
f 1127 1126 1128
f 1127 1128 1129
f 1127 1129 1130
f 1130 1129 1131
f 1130 1131 1132
f 1132 1131 1133
f 1132 1133 1134
f 1134 1133 1135
f 1134 1135 1136
f 1136 1135 1137
f 1136 1137 1138
f 1138 1137 1139
f 1138 1139 1140
f 1140 1139 1141
f 1140 1141 1142
f 1142 1141 1143
f 1142 1143 1144
f 1144 1143 1145
f 1144 1145 1146
f 1146 1145 1147
f 1146 1147 1148
f 1148 1147 1149
f 1148 1149 1150
f 1150 1149 1151
f 1150 1151 1152
f 1152 1151 1153
f 1152 1153 1154
f 1154 1153 1155
f 1154 1155 1156
f 1156 1155 1157
f 1156 1157 1158
f 1158 1157 1159
f 1158 1159 1160
f 1160 1159 1161
f 1160 1161 1162
f 1162 1161 1163
f 1162 1163 1164
f 1164 1163 1165
f 1164 1165 1166
f 1166 1165 1167
f 1166 1167 1168
f 1168 1167 1169
f 1168 1169 1170
f 1170 1169 1171
f 1170 1171 1172
f 1172 1171 1173
f 1172 1173 1174
f 1174 1173 1175
f 1174 1175 1176
f 1176 1175 1177
f 1176 1177 1178
f 1178 1177 1179
f 1178 1179 1180
f 1180 1179 1181
f 1180 1181 1182
f 1182 1181 1183
f 1182 1183 1184
f 1184 1183 1185
f 1184 1185 1186
f 1186 1185 1187
f 1186 1187 1188
f 1188 1187 1189
f 1188 1189 1190
f 1190 1189 1191
f 1190 1191 1192
f 1192 1191 1193
f 1192 1193 1194
f 1194 1193 1195
f 1194 1195 1196
f 1196 1195 1197
f 1196 1197 1198
f 1198 1197 1199
f 1198 1199 1200
f 1200 1199 1201
f 1200 1201 1202
f 1202 1201 1203
f 1202 1203 1204
f 1204 1203 1205
f 1204 1205 1206
f 1206 1205 1207
f 1206 1207 1208
f 1208 1207 1209
f 1208 1209 1210
f 1210 1209 1211
f 1210 1211 1212
f 1212 1211 1213
f 1212 1213 1214
f 1214 1213 1215
f 1214 1215 1216
f 1216 1215 1217
f 1216 1217 1218
f 1218 1217 1219
f 1218 1219 1220
f 1220 1219 1221
f 1220 1221 1222
f 1222 1221 1223
f 1222 1223 1224
f 1224 1223 1225
f 1224 1225 1226
f 1226 1225 1227
f 1226 1227 1228
f 1228 1227 1229
f 1228 1229 1230
f 1230 1229 1231
f 1230 1231 1232
f 1232 1231 1233
f 1232 1233 1234
f 1234 1233 1235
f 1234 1235 1236
f 1236 1235 1237
f 1236 1237 1238
f 1238 1237 1239
f 1238 1239 1240
f 1240 1239 1241
f 1240 1241 1242
f 1242 1241 1243
f 1242 1243 1244
f 1244 1243 1245
f 1244 1245 1246
f 1246 1245 1247
f 1246 1247 1248
f 1248 1247 1249
f 1248 1249 1250
f 1250 1249 1251
f 1250 1251 1252
f 1252 1251 1253
f 1252 1253 1254
f 1254 1253 1255
f 1254 1255 1256
f 1256 1255 1257
f 1256 1257 1258
f 1258 1257 1259
f 1258 1259 1260
f 1260 1259 1261
f 1260 1261 1262
f 1262 1261 1263
f 1262 1263 1264
f 1264 1263 1265
f 1264 1265 1266
f 1266 1265 1267
f 1266 1267 1268
f 1268 1267 1269
f 1268 1269 1270
f 1270 1269 1271
f 1270 1271 1272
f 1272 1271 1273
f 1272 1273 1274
f 1274 1273 1275
f 1274 1275 1276
f 1276 1275 1277
f 1276 1277 1278
f 1278 1277 1279
f 1278 1279 1280
f 1280 1279 1281
f 1280 1281 1282
f 1282 1281 1283
f 1282 1283 1284
f 1284 1283 1285
f 1284 1285 1286
f 1286 1285 1287
f 1286 1287 1288
f 1288 1287 1289
f 1288 1289 1290
f 1290 1289 1291
f 1290 1291 1292
f 1292 1291 1293
f 1292 1293 1294
f 1294 1293 1295
f 1294 1295 1296
f 1296 1295 1297
f 1296 1297 1298
f 1298 1297 1299
f 1298 1299 1300
f 1300 1299 1301
f 1300 1301 1302
f 1302 1301 1303
f 1302 1303 1304
f 1304 1303 1305
f 1304 1305 1306
f 1306 1305 1307
f 1306 1307 1308
f 1308 1307 1309
f 1308 1309 1310
f 1310 1309 1311
f 1310 1311 1312
f 1312 1311 1313
f 1312 1313 1314
f 1314 1313 1315
f 1314 1315 1316
f 1316 1315 1317
f 1316 1317 1318
f 1318 1317 1319
f 1318 1319 1320
f 1320 1319 1321
f 1320 1321 1322
f 1322 1321 1323
f 1322 1323 1324
f 1324 1323 1325
f 1324 1325 1326
f 1326 1325 1327
f 1326 1327 1328
f 1328 1327 1329
f 1328 1329 1330
f 1330 1329 1331
f 1330 1331 1332
f 1332 1331 1333
f 1332 1333 1334
f 1334 1333 1335
f 1334 1335 1336
f 1336 1335 1337
f 1336 1337 1338
f 1338 1337 1339
f 1338 1339 1340
f 1340 1339 1341
f 1340 1341 1342
f 1342 1341 1343
f 1342 1343 1344
f 1344 1343 1345
f 1344 1345 1346
f 1346 1345 1347
f 1346 1347 1348
f 1348 1347 1349
f 1348 1349 1350
f 1350 1349 1351
f 1352 1350 1351
f 1352 1351 1353
f 1353 1351 1354
f 1353 1354 1355
f 1355 1354 1356
f 1355 1356 1357
f 1357 1356 1358
f 1357 1358 1359
f 1359 1358 1360
f 1360 1358 1361
f 1360 1361 1362
f 1362 1361 1363
f 1362 1363 1364
f 1364 1363 1365
f 1365 1363 1366
f 1365 1366 1367
f 1367 1366 1368
f 1367 1368 1369
f 1369 1368 1370
f 1370 1368 1371
f 1370 1371 1372
f 1372 1371 1373
f 1372 1373 1374
f 1374 1373 1375
f 1375 1373 1376
f 1375 1376 1377
f 1377 1376 1378
f 1377 1378 1379
f 1379 1378 1380
f 1379 1380 1381
f 1379 1381 1382
f 1382 1381 1383
f 1382 1383 1384
f 1382 1384 1385
f 1385 1384 1386
f 1385 1386 1387
f 1387 1386 1388
f 1387 1388 1389
f 1387 1389 1390
f 1390 1389 1391
f 1390 1391 1392
f 1390 1392 1393
f 1393 1392 1394
f 1393 1394 1395
f 1395 1394 1396
f 1395 1396 1397
f 1395 1397 1398
f 1398 1397 1399
f 1398 1399 1400
f 1398 1400 1401
f 1401 1400 1402
f 1401 1402 719
f 719 1402 1403
f 719 1403 717
f 1404 1405 1406
f 1404 1407 1405
f 1408 1404 1406
f 1408 1406 1409
f 1408 1409 1410
f 1411 1408 1410
f 1411 1410 1412
f 1411 1412 1413
f 1414 1411 1413
f 1414 1413 1415
f 1414 1415 1416
f 1414 1416 1417
f 1414 1417 1418
f 1419 1414 1418
f 1419 1418 1420
f 1421 1419 1420
f 1421 1422 1419
f 1423 1421 1420
f 1424 1423 1420
f 1424 1420 1425
f 1424 1425 1426
f 1424 1426 1427
f 1428 1424 1427
f 1428 1427 1429
f 1430 1428 1429
f 1430 1429 1431
f 1432 1430 1431
f 1432 1431 1433
f 1432 1433 1434
f 1435 1432 1434
f 1435 1434 1436
f 1437 1435 1436
f 1437 1436 1438
f 1439 1437 1438
f 1439 1438 1440
f 1439 1440 1441
f 1442 1439 1441
f 1442 1441 1443
f 1442 1443 1444
f 1445 1442 1444
f 1445 1444 1446
f 1446 1444 1447
f 1445 1446 1448
f 1445 1448 1449
f 1445 1449 1450
f 1445 1450 1451
f 1452 1445 1451
f 1452 1451 1453
f 1454 1452 1453
f 1454 1453 1455
f 1456 1454 1455
f 1456 1455 1457
f 1458 1456 1457
f 1459 1458 1457
f 1459 1457 1460
f 1461 1459 1460
f 1461 1460 1462
f 1463 1461 1462
f 1463 1462 1464
f 1465 1463 1464
f 1466 1465 1464
f 1466 1464 1467
f 1468 1466 1467
f 1468 1467 1469
f 1470 1468 1469
f 1470 1469 1471
f 1472 1470 1471
f 1473 1472 1471
f 1473 1471 1474
f 1475 1473 1474
f 1475 1474 1476
f 1477 1475 1476
f 1478 1477 1476
f 1478 1476 1479
f 1480 1479 1476
f 1481 1480 1476
f 1482 1481 1476
f 1483 1482 1476
f 1484 1483 1476
f 1485 1484 1476
f 1486 1485 1476
f 1487 1486 1476
f 1488 1487 1476
f 1489 1488 1476
f 1490 1489 1476
f 1491 1490 1476
f 1492 1491 1476
f 1492 1476 1493
f 1492 1493 1494
f 1492 1494 1495
f 1492 1495 1496
f 1497 1492 1496
f 1497 1496 1498
f 1497 1498 1499
f 1500 1497 1499
f 1500 1499 1501
f 1500 1501 1502
f 1503 1500 1502
f 1503 1502 1504
f 1503 1504 1505
f 1506 1503 1505
f 1507 1506 1505
f 1507 1508 1506
f 1507 1505 1509
f 1507 1509 1510
f 1511 1507 1510
f 1511 1510 1512
f 1513 1511 1512
f 1513 1512 1514
f 1515 1513 1514
f 1515 1514 1516
f 1517 1515 1516
f 1517 1516 1518
f 1519 1517 1518
f 1519 1518 1520
f 1521 1519 1520
f 1521 1520 1522
f 1523 1521 1522
f 1523 1522 1524
f 1525 1523 1524
f 1526 1525 1524
f 1526 1524 1527
f 1528 1526 1527
f 1528 1527 1529
f 1530 1528 1529
f 1530 1529 1531
f 1532 1530 1531
f 1533 1532 1531
f 1533 1531 1534
f 1535 1533 1534
f 1535 1534 1536
f 1537 1535 1536
f 1537 1536 1538
f 1539 1537 1538
f 1540 1539 1538
f 1541 1540 1538
f 1542 1541 1538
f 1543 1542 1538
f 1544 1543 1538
f 1545 1544 1538
f 1546 1545 1538
f 1547 1546 1538
f 1548 1547 1538
f 1549 1548 1538
f 1550 1549 1538
f 1551 1550 1538
f 1552 1551 1538
f 1553 1552 1538
f 1554 1553 1538
f 1555 1554 1538
f 1556 1555 1538
f 1557 1556 1538
f 1558 1557 1538
f 1559 1558 1538
f 1560 1559 1538
f 1561 1560 1538
f 1562 1561 1538
f 1563 1562 1538
f 1564 1563 1538
f 1565 1564 1538
f 1566 1565 1538
f 1567 1566 1538
f 1568 1567 1538
f 1569 1568 1538
f 1570 1569 1538
f 1571 1570 1538
f 1572 1571 1538
f 1573 1572 1538
f 1574 1573 1538
f 1575 1574 1538
f 1576 1575 1538
f 1577 1576 1538
f 1577 1538 1578
f 1579 1577 1578
f 1580 1579 1578
f 1581 1580 1578
f 1581 1578 1582
f 1583 1581 1582
f 1584 1583 1582
f 1585 1584 1582
f 1585 1586 1584
f 1587 1585 1582
f 1587 1582 1588
f 1589 1587 1588
f 1589 1588 1590
f 1589 1590 1591
f 1589 1591 1592
f 1591 1593 1592
f 1594 1589 1592
f 1594 1592 1595
f 1594 1595 1596
f 1594 1596 1597
f 1594 1597 1598
f 1599 1594 1598
f 1599 1598 1600
f 1599 1600 1601
f 1407 1599 1601
f 1407 1601 1602
f 1407 1602 1405
f 1593 1603 1592
f 1593 1604 1603
f 1593 1605 1604
f 1593 1606 1605
f 1606 1447 1605
f 1606 1607 1447
f 1607 1608 1447
f 1608 1446 1447
f 1585 1609 1586
f 1609 1610 1586
f 1609 1611 1610
f 1609 1612 1611
f 1609 1613 1612
f 1609 1614 1613
f 1609 1615 1614
f 1609 1616 1615
f 1616 1617 1615
f 1616 1618 1617
f 1616 1619 1618
f 1616 1620 1619
f 1616 1621 1620
f 1621 1622 1620
f 1621 1623 1622
f 1621 1624 1623
f 1621 1625 1624
f 1625 1626 1624
f 1625 1627 1626
f 1625 1628 1627
f 1625 1629 1628
f 1625 1630 1629
f 1630 1631 1629
f 1630 1632 1631
f 1630 1633 1632
f 1633 1634 1632
f 1633 1635 1634
f 1635 1636 1634
f 1635 1637 1636
f 1508 1638 1506
f 1638 1639 1506
f 1638 1640 1639
f 1640 1641 1639
f 1641 1642 1639
f 1641 1643 1642
f 1643 1644 1642
f 1643 1645 1644
f 1645 1646 1644
f 1646 1647 1644
f 1646 1648 1647
f 1648 1649 1647
f 1649 1650 1647
f 1649 1651 1650
f 1651 1652 1650
f 1651 1653 1652
f 1653 1654 1652
f 1654 1655 1652
f 1654 1656 1655
f 1656 1657 1655
f 1656 1658 1657
f 1658 1659 1657
f 1659 1660 1657
f 1659 1661 1660
f 1661 1662 1660
f 1661 1663 1662
f 1663 1664 1662
f 1663 1665 1664
f 1665 1666 1664
f 1665 1667 1666
f 1667 1668 1666
f 1667 1669 1668
f 1669 1670 1668
f 1669 1671 1670
f 1671 1672 1670
f 1671 1673 1672
f 1673 1674 1672
f 1673 1675 1674
f 1673 1676 1675
f 1676 1677 1675
f 1676 1678 1677
f 1678 1679 1677
f 1678 1680 1679
f 1680 1681 1679
f 1680 1682 1681
f 1682 1683 1681
f 1682 1684 1683
f 1684 1685 1683
f 1684 1686 1685
f 1686 1687 1685
f 1686 1688 1687
f 1688 1689 1687
f 1688 1690 1689
f 1690 1691 1689
f 1690 1692 1691
f 1692 1693 1691
f 1692 1694 1693
f 1694 1695 1693
f 1694 1696 1695
f 1696 1697 1695
f 1696 1698 1697
f 1698 1699 1697
f 1698 1700 1699
f 1700 1701 1699
f 1700 1702 1701
f 1422 1703 1419
f 1703 1704 1419
f 1704 1705 1419
f 1704 1706 1705
f 1706 1707 1705
f 1707 1708 1705
f 1708 1709 1705
f 1708 1710 1709
f 1710 1711 1709
f 1711 1712 1709
f 1712 1713 1709
f 1713 1714 1709
f 1714 1715 1709
f 1715 1716 1709
f 1716 1717 1709
f 1717 1718 1709
f 1718 1719 1709
f 1719 1720 1709
f 1720 1721 1709
f 1721 1722 1709
f 1722 1723 1709
f 1722 1724 1723
f 1724 1725 1723
f 1725 1726 1723
f 1726 1727 1723
f 1727 1728 1723
f 1728 1729 1723
f 1729 1730 1723
f 1730 1731 1723
f 1730 1732 1731
f 1732 1733 1731
f 1733 1734 1731
f 1734 1735 1731
f 1735 1736 1731
f 1736 1737 1731
f 1736 1738 1737
f 1738 1739 1737
f 1739 1740 1737
f 1739 1741 1740
f 1741 1742 1740
f 1741 1743 1742
f 1743 1744 1742
f 1743 1745 1744
f 1745 1746 1744
f 1745 1747 1746
f 1747 1748 1746
f 1747 1749 1748
f 1747 1750 1749
f 1750 1751 1749
f 1750 1752 1751
f 1752 1753 1751
f 1752 1754 1753
f 1754 1755 1753
f 1754 1756 1755
f 1756 1757 1755
f 1756 1758 1757
f 1759 1755 1757
f 1760 1759 1757
f 1760 1757 1761
f 1760 1761 1762
f 1760 1762 1763
f 1764 1760 1763
f 1764 1763 1765
f 1764 1765 1766
f 1767 1764 1766
f 1767 1766 1768
f 1769 1767 1768
f 1769 1768 1770
f 1771 1769 1770
f 1771 1770 1772
f 1773 1771 1772
f 1773 1772 1774
f 1775 1773 1774
f 1775 1774 1776
f 1777 1775 1776
f 1777 1776 1778
f 1779 1777 1778
f 1779 1778 1780
f 1781 1779 1780
f 1781 1780 1782
f 1783 1781 1782
f 1783 1782 1784
f 1785 1783 1784
f 1785 1784 1786
f 1785 1786 1787
f 1788 1785 1787
f 1788 1787 1789
f 1788 1789 1790
f 1788 1790 1791
f 1792 1788 1791
f 1793 1792 1791
f 1793 1794 1792
f 1793 1791 1795
f 1793 1795 1796
f 1793 1796 1797
f 1798 1793 1797
f 1798 1797 1799
f 1798 1799 1800
f 1801 1798 1800
f 1801 1800 1802
f 1803 1801 1802
f 1803 1802 1804
f 1805 1803 1804
f 1805 1804 1806
f 1807 1805 1806
f 1807 1806 1808
f 1809 1807 1808
f 1809 1808 1810
f 1809 1810 1811
f 1809 1811 1812
f 1809 1812 1813
f 1809 1813 1814
f 1756 1809 1814
f 1756 1814 1815
f 1756 1815 1816
f 1756 1816 1817
f 1756 1817 1758
f 1793 1818 1794
f 1818 1819 1794
f 1818 1820 1819
f 1820 1821 1819
f 1820 1822 1821
f 1822 1823 1821
f 1822 1824 1823
f 1824 1825 1823
f 1824 1826 1825
f 1826 1827 1825
f 1826 1828 1827
f 1828 1829 1827
f 1828 1830 1829
f 1830 1831 1829
f 1830 1832 1831
f 1832 1833 1831
f 1832 1834 1833
f 1834 1835 1833
f 1834 1836 1835
f 1836 1837 1835
f 1836 1838 1837
f 1838 1839 1837
f 1838 1840 1839
f 1840 1841 1839
f 1840 1842 1841
f 1842 1843 1841
f 1842 1844 1843
f 1844 1845 1843
f 1844 1846 1845
f 1846 1847 1845
f 1846 1848 1847
f 1848 1849 1847
f 1848 1850 1849
f 1850 1851 1849
f 1850 1852 1851
f 1852 1853 1851
f 1852 1854 1853
f 1854 1855 1853
f 1854 1856 1855
f 1856 1857 1855
f 1856 1858 1857
f 1858 1859 1857
f 1858 1860 1859
f 1860 1861 1859
f 1860 1862 1861
f 1862 1863 1861
f 1862 1864 1863
f 1864 1865 1863
f 1864 1866 1865
f 1866 1867 1865
f 1866 1868 1867
f 1868 1869 1867
f 1869 1870 1867
f 1869 1871 1870
f 1871 1872 1870
