1728 1732 0
v 0.03078513 -0.00332421 0.0084375
v 0.030299385 0.001324785 0.0084375
v 0.030327195 0.00165 0.0084375
v 0.02974362 -0.003360645 0.0084375
v 0.030909015 0.00615537 0.0084375
v 0.030299385 0.001975215 0.0084375
v 0.031818945 -0.003327825 0.0084375
v 0.03211545 0.005728395 0.0084375
v 0.03284514 -0.00337152 0.0084375
v 0.033300645 0.00526437 0.0084375
v 0.03386427 -0.003455715 0.0084375
v 0.03446463 0.004763295 0.0084375
v 0.0348756 -0.003579855 0.0084375
v 0.035607375 0.004225155 0.0084375
v 0.03587802 -0.003743085 0.0084375
v 0.036728895 0.00364995 0.0084375
v 0.036870765 -0.00394482 0.0084375
v 0.03690864 0.003552255 0.0084375
v 0.03709812 0.00345366 0.0084375
v 0.03729615 0.003352995 0.0084375
v 0.037506225 0.003253785 0.0084375
v 0.037730565 0.00315777 0.0084375
v 0.03785442 -0.004185495 0.0084375
v 0.037971735 0.003069135 0.0084375
v 0.038232165 0.00299043 0.0084375
v 0.038514585 0.00292842 0.0084375
v 0.038825355 0.002888415 0.0084375
v 0.03882903 -0.004465155 0.0084375
v 0.039155985 0.00287742 0.0084375
v 0.03950517 0.00290322 0.0084375
v 0.039794595 -0.004783815 0.0084375
v 0.039857715 0.002968635 0.0084375
v 0.04002957 0.00301902 0.0084375
v 0.040062075 -0.004872705 0.0084375
v 0.04020045 0.003080505 0.0084375
v 0.04033179 -0.00498723 0.0084375
v 0.040366995 0.003152535 0.0084375
v 0.040525875 0.00323451 0.0084375
v 0.040605795 -0.005125965 0.0084375
v 0.04082259 0.00343299 0.0084375
v 0.040884375 -0.00528867 0.0084375
v 0.04108911 0.0036627 0.0084375
v 0.04115106 -0.005487465 0.0084375
v 0.04131972 0.00391467 0.0084375
v 0.04140831 -0.005724315 0.0084375
v 0.04151571 0.004178385 0.0084375
v 0.04153008 -0.005856585 0.0084375
v 0.04167447 0.00444096 0.0084375
v 0.041643225 -0.00599847 0.0084375
v 0.04174596 -0.006151065 0.0084375
v 0.04180206 0.004700595 0.0084375
v 0.041841225 -0.00631641 0.0084375
v 0.04190178 0.004950675 0.0084375
v 0.04192848 -0.006491295 0.0084375
v 0.041979435 0.005192595 0.0084375
v 0.042006645 -0.00667209 0.0084375
v 0.042040995 0.00542532 0.0084375
v 0.042074685 -0.006855105 0.0084375
v 0.042089205 0.00564957 0.0084375
v 0.04212798 0.005865405 0.0084375
v 0.04213215 -0.007038885 0.0084375
v 0.04215966 0.00607374 0.0084375
v 0.042179865 -0.00722625 0.0084375
v 0.042188385 0.00627564 0.0084375
v 0.04221276 0.00647073 0.0084375
v 0.042217875 -0.007417305 0.0084375
v 0.042373755 0.00760413 0.0084375
v 0.042246165 -0.00761205 0.0084375
v 0.04226475 -0.007810515 0.0084375
v 0.04228653 -0.007967295 0.0084375
v 0.042308775 -0.008124105 0.0084375
v 0.04238925 -0.00849012 0.0084375
v 0.042559155 0.008734575 0.0084375
v 0.042508635 -0.0088314 0.0084375
v 0.04266693 -0.009147945 0.0084375
v 0.04276896 0.009862065 0.0084375
v 0.042829275 0.01019016 0.0084375
v 0.04286685 -0.0094425 0.0084375
v 0.042896745 0.010512405 0.0084375
v 0.042971415 0.010828815 0.0084375
v 0.04305327 0.011139375 0.0084375
v 0.043109835 -0.00971652 0.0084375
v 0.043142295 0.0114441 0.0084375
v 0.043237995 0.011743035 0.0084375
v 0.04333971 0.012036285 0.0084375
v 0.04338402 -0.009958005 0.0084375
v 0.04344861 0.01232367 0.0084375
v 0.043565925 0.012605085 0.0084375
v 0.04367985 -0.010156305 0.0084375
v 0.043692855 0.012880335 0.0084375
v 0.043830465 0.01314957 0.0084375
v 0.04397817 0.01341393 0.0084375
v 0.04400667 -0.01031712 0.0084375
v 0.044135325 0.0136725 0.0084375
v 0.04430142 0.013924005 0.0084375
v 0.04435329 -0.01043724 0.0084375
v 0.044475945 0.0141672 0.0084375
v 0.04465851 0.014400975 0.0084375
v 0.04470357 -0.01051038 0.0084375
v 0.044851185 0.01462707 0.0084375
v 0.04505328 0.01484547 0.0084375
v 0.04506399 -0.010535625 0.0084375
v 0.045477735 0.01525425 0.0084375
v 0.04543077 -0.01051539 0.0084375
v 0.04578624 -0.01045062 0.0084375
v 0.045919185 0.01561842 0.0084375
v 0.046126335 -0.010339395 0.0084375
v 0.046382445 0.015939045 0.0084375
v 0.046457625 -0.01018185 0.0084375
v 0.04685613 0.016219635 0.0084375
v 0.046764765 -0.00998604 0.0084375
v 0.047036985 -0.00975639 0.0084375
v 0.04733589 0.01645992 0.0084375
v 0.047282925 -0.00948621 0.0084375
v 0.04740126 0.009400875 0.0084375
v 0.04744497 0.009006765 0.0084375
v 0.047403645 0.009795495 0.0084375
v 0.047822175 0.01666098 0.0084375
v 0.04745187 0.010188855 0.0084375
v 0.04754535 0.010572615 0.0084375
v 0.04768272 0.01094367 0.0084375
v 0.047862525 0.011296125 0.0084375
v 0.048298905 0.01683054 0.0084375
v 0.04808139 0.01162491 0.0084375
v 0.04833798 0.011926935 0.0084375
v 0.04876776 0.016964835 0.0084375
v 0.04862658 0.012196095 0.0084375
v 0.048946035 0.012430995 0.0084375
v 0.049224345 0.01707312 0.0084375
v 0.04928898 0.01262625 0.0084375
v 0.04966017 0.017167785 0.0084375
v 0.04965375 0.01278117 0.0084375
v 0.05003118 0.01289172 0.0084375
v 0.05007774 0.017245125 0.0084375
v 0.05042286 0.01295865 0.0084375
v 0.050477655 0.0173043 0.0084375
v 0.051631695 0.01748391 0.0084375
v 0.052786965 0.01765167 0.0084375
v 0.053943495 0.01780758 0.0084375
v 0.05510127 0.01795164 0.0084375
v 0.05626029 0.01808385 0.0084375
v 0.057420585 0.01820421 0.0084375
v 0.0585822 0.01831275 0.0084375
v 0.059745075 0.018409425 0.0084375
v 0.06090912 0.018494235 0.0084375
v 0.06207429 0.018567165 0.0084375
v 0.063240495 0.018628185 0.0084375
v 0.064407795 0.01867731 0.0084375
v 0.065576205 0.01871454 0.0084375
v 0.06674574 0.018739905 0.0084375
v 0.067916385 0.01875336 0.0084375
v 0.06868587 0.014984265 0.0084375
v 0.06908814 0.01875495 0.0084375
v 0.06909267 0.015002385 0.0084375
v 0.069484245 0.01873947 0.0084375
v 0.06948681 0.01497684 0.0084375
v 0.069869445 0.018714285 0.0084375
v 0.06986829 0.014907645 0.0084375
v 0.070239615 0.01479348 0.0084375
v 0.070243755 0.01867938 0.0084375
v 0.07060404 0.01463265 0.0084375
v 0.070607175 0.01863477 0.0084375
v 0.070948815 0.0144318 0.0084375
v 0.07095969 0.01858044 0.0084375
v 0.0712608 0.014197515 0.0084375
v 0.0713013 0.01851642 0.0084375
v 0.07154589 0.013923645 0.0084375
v 0.071632035 0.018442665 0.0084375
v 0.071801295 0.01361577 0.0084375
v 0.071951595 0.01835883 0.0084375
v 0.07201689 0.013285995 0.0084375
v 0.072259185 0.018263655 0.0084375
v 0.07218951 0.01293501 0.0084375
v 0.072323385 0.0125586 0.0084375
v 0.072555315 0.018157935 0.0084375
v 0.072413865 0.012171525 0.0084375
v 0.07245678 0.01178454 0.0084375
v 0.07245333 0.011387055 0.0084375
v 0.07237524 0.00524148 0.0084375
v 0.07270701 0.005396355 0.0084375
v 0.072405195 0.01099044 0.0084375
v 0.072313665 0.010610175 0.0084375
v 0.07203009 0.005092455 0.0084375
v 0.07217559 0.01024116 0.0084375
v 0.07199385 0.009884805 0.0084375
v 0.07167159 0.00494931 0.0084375
v 0.07177572 0.009555105 0.0084375
v 0.071522655 0.00925815 0.0084375
v 0.071299725 0.004812015 0.0084375
v 0.071230275 0.008986635 0.0084375
v 0.070271625 0.00447942 0.0084375
v 0.070909935 0.00874986 0.0084375
v 0.07057266 0.00855711 0.0084375
v 0.070215615 0.008405985 0.0084375
v 0.069240915 0.004158375 0.0084375
v 0.069836655 0.0082947 0.0084375
v 0.069435765 0.008223225 0.0084375
v 0.06820761 0.003848865 0.0084375
v 0.067171665 0.003550905 0.0084375
v 0.066133125 0.00326448 0.0084375
v 0.06509196 0.002989605 0.0084375
v 0.064048065 0.00272625 0.0084375
v 0.06300156 0.002474445 0.0084375
v 0.06195252 0.00223419 0.0084375
v 0.060901065 0.0020055 0.0084375
v 0.059847285 0.00178839 0.0084375
v 0.05879109 0.001582845 0.0084375
v 0.057732465 0.001388865 0.0084375
v 0.056671395 0.00120645 0.0084375
v 0.05560791 0.0010356 0.0084375
v 0.05454198 0.000876315 0.0084375
v 0.054076065 0.00082581 0.0084375
v 0.05360673 0.00074301 0.0084375
v 0.05313396 0.000627915 0.0084375
v 0.05264979 0.00048327 0.0084375
v 0.05240493 0.000399345 0.0084375
v 0.0521622 0.00030633 0.0084375
v 0.051924615 0.00020319 0.0084375
v 0.051172755 0.00619761 0.0084375
v 0.05169516 8.8905e-05 0.0084375
v 0.051472215 -3.7425e-05 0.0084375
v 0.051253035 -0.00017514 0.0084375
v 0.051039 -0.000322965 0.0084375
v 0.050831475 -0.000479655 0.0084375
v 0.05077593 0.006177075 0.0084375
v 0.050631825 -0.000643905 0.0084375
v 0.050441445 -0.00081447 0.0084375
v 0.050383455 0.00620223 0.0084375
v 0.050260035 -0.00099303 0.0084375
v 0.050086485 -0.001180935 0.0084375
v 0.04999359 0.00627345 0.0084375
v 0.04992081 -0.00137643 0.0084375
v 0.04976307 -0.001577715 0.0084375
v 0.049616205 0.0063888 0.0084375
v 0.04947153 -0.00199062 0.0084375
v 0.04925304 0.006547995 0.0084375
v 0.04921407 -0.00241731 0.0084375
v 0.048988485 -0.002860125 0.0084375
v 0.04891248 0.006747375 0.0084375
v 0.048788625 -0.00331188 0.0084375
v 0.048612405 -0.00377019 0.0084375
v 0.04859592 0.006985815 0.0084375
v 0.04846191 -0.00423744 0.0084375
v 0.048337125 -0.004713645 0.0084375
v 0.048310335 0.007258665 0.0084375
v 0.048167715 -0.005469615 0.0084375
v 0.048057675 0.00756315 0.0084375
v 0.04803903 -0.006238545 0.0084375
v 0.047951085 -0.00702045 0.0084375
v 0.047903865 -0.0078153 0.0084375
v 0.04786416 -0.008187945 0.0084375
v 0.047842335 0.007895085 0.0084375
v 0.04778307 -0.008540295 0.0084375
v 0.04766703 0.008249025 0.0084375
v 0.047660565 -0.008872335 0.0084375
v 0.04753377 0.008622255 0.0084375
v 0.047494275 -0.00918711 0.0084375
v 0.07284063 0.018042645 0.0084375
v 0.073025415 0.005557095 0.0084375
v 0.073115805 0.01791873 0.0084375
v 0.073330455 0.0057237 0.0084375
v 0.073381455 0.01778718 0.0084375
v 0.07362213 0.00589617 0.0084375
v 0.07363827 0.017648955 0.0084375
v 0.07388685 0.017504955 0.0084375
v 0.073900065 0.00607479 0.0084375
v 0.074126415 0.017353395 0.0084375
v 0.074163105 0.00626046 0.0084375
v 0.0743565 0.017193675 0.0084375
v 0.07441197 0.006452625 0.0084375
v 0.074577285 0.017026455 0.0084375
v 0.07464762 0.006650565 0.0084375
v 0.074788875 0.01685241 0.0084375
v 0.074870925 0.006853545 0.0084375
v 0.07499142 0.0166722 0.0084375
v 0.075082845 0.007060845 0.0084375
v 0.07518507 0.0164865 0.0084375
v 0.07528428 0.007271745 0.0084375
v 0.075369945 0.01629597 0.0084375
v 0.075476085 0.0074856 0.0084375
v 0.075546195 0.01610019 0.0084375
v 0.075656985 0.00770385 0.0084375
v 0.075713805 0.01589757 0.0084375
v 0.075826365 0.007926945 0.0084375
v 0.075872595 0.0156888 0.0084375
v 0.075984555 0.00815427 0.0084375
v 0.076022385 0.0154746 0.0084375
v 0.0761319 0.008385255 0.0084375
v 0.07616298 0.015255705 0.0084375
v 0.076268745 0.008619285 0.0084375
v 0.076294215 0.015032835 0.0084375
v 0.07639542 0.00885579 0.0084375
v 0.076415895 0.014806755 0.0084375
v 0.07651227 0.009094185 0.0084375
v 0.07652793 0.01457784 0.0084375
v 0.07661928 0.009334905 0.0084375
v 0.07663086 0.014343885 0.0084375
v 0.07671597 0.009579435 0.0084375
v 0.076724625 0.014105085 0.0084375
v 0.076802355 0.0098271 0.0084375
v 0.076809015 0.013862355 0.0084375
v 0.07687851 0.010077135 0.0084375
v 0.076883805 0.013616625 0.0084375
v 0.076944465 0.010328805 0.0084375
v 0.076948785 0.013368825 0.0084375
v 0.077000295 0.01058133 0.0084375
v 0.07700373 0.01311987 0.0084375
v 0.077046045 0.01083399 0.0084375
v 0.077048415 0.01287072 0.0084375
v 0.077081745 0.011086335 0.0084375
v 0.07708302 0.012619965 0.0084375
v 0.077107215 0.011340645 0.0084375
v 0.077107815 0.01236624 0.0084375
v 0.077122485 0.01159674 0.0084375
v 0.07712271 0.01211049 0.0084375
v 0.077127615 0.011853675 0.0084375
v 0.030229755 0.002280285 0.0084375
v 0.030118305 0.002565225 0.0084375
v 0.02996073 0.002835405 0.0084375
v 0.029761335 0.00308544 0.0084375
v 0.02968134 0.00654528 0.0084375
v 0.02953299 0.003299175 0.0084375
v 0.02943174 0.00661116 0.0084375
v 0.029273805 0.003474225 0.0084375
v 0.02918289 0.00666495 0.0084375
v 0.02898567 0.00361299 0.0084375
v 0.028934805 0.006706635 0.0084375
v 0.0286872 0.003706485 0.0084375
v 0.028687455 0.0067362 0.0084375
v 0.02844087 0.00675369 0.0084375
v 0.02837772 0.00375174 0.0084375
v 0.02819502 0.00675906 0.0084375
v 0.02805792 0.00375174 0.0084375
v 0.027949935 0.00675234 0.0084375
v 0.02774844 0.003706485 0.0084375
v 0.02770443 0.00673323 0.0084375
v 0.02744997 0.00361299 0.0084375
v 0.027457005 0.00670137 0.0084375
v 0.027209295 0.006657165 0.0084375
v 0.027161835 0.003474225 0.0084375
v 0.026963025 0.00660102 0.0084375
v 0.02690265 0.003299175 0.0084375
v 0.026719905 0.006533355 0.0084375
v 0.026674305 0.00308544 0.0084375
v 0.02648169 0.006454605 0.0084375
v 0.02647491 0.002835405 0.0084375
v 0.026317335 0.002565225 0.0084375
v 0.026250075 0.006365175 0.0084375
v 0.026205885 0.002280285 0.0084375
v 0.026136255 0.001975215 0.0084375
v 0.026108445 0.00165 0.0084375
v 0.02602539 0.0062649 0.0084375
v 0.026017815 -0.002959455 0.0084375
v 0.025803555 0.00615201 0.0084375
v 0.026136255 0.001324785 0.0084375
v 0.026205885 0.001019715 0.0084375
v 0.026248335 -0.003062745 0.0084375
v 0.026317335 0.000734775 0.0084375
v 0.02647491 0.000464595 0.0084375
v 0.02648259 -0.003154605 0.0084375
v 0.026674305 0.00021456 0.0084375
v 0.02671899 -0.0032343 0.0084375
v 0.02690265 8.25e-07 0.0084375
v 0.026956005 -0.00330111 0.0084375
v 0.027161835 -0.000174225 0.0084375
v 0.02719503 -0.003355695 0.0084375
v 0.02744997 -0.00031299 0.0084375
v 0.02743716 -0.00339855 0.0084375
v 0.027682395 -0.003429705 0.0084375
v 0.02774844 -0.000406485 0.0084375
v 0.02793075 -0.00344913 0.0084375
v 0.02805792 -0.00045174 0.0084375
v 0.028182195 -0.00345684 0.0084375
v 0.02837772 -0.00045174 0.0084375
v 0.02843676 -0.003452835 0.0084375
v 0.0286872 -0.000406485 0.0084375
v 0.02869443 -0.0034371 0.0084375
v 0.02898567 -0.00031299 0.0084375
v 0.029219985 -0.00339387 0.0084375
v 0.029273805 -0.000174225 0.0084375
v 0.02953299 8.25e-07 0.0084375
v 0.029761335 0.00021456 0.0084375
v 0.02996073 0.000464595 0.0084375
v 0.030118305 0.000734775 0.0084375
v 0.030229755 0.001019715 0.0084375
v 0.025792665 -0.002845515 0.0084375
v 0.025585425 0.006027255 0.0084375
v 0.025574475 -0.00272163 0.0084375
v 0.025372485 0.00589158 0.0084375
v 0.02536485 -0.002588565 0.0084375
v 0.025166175 0.005746005 0.0084375
v 0.025164165 -0.00244623 0.0084375
v 0.02496873 -0.002292105 0.0084375
v 0.024967995 0.005591505 0.0084375
v 0.02477925 -0.002127045 0.0084375
v 0.024779415 0.00542907 0.0084375
v 0.02460141 0.00525921 0.0084375
v 0.024596985 -0.00195231 0.0084375
v 0.0244308 0.005078835 0.0084375
v 0.024423195 -0.001769145 0.0084375
v 0.02426757 0.004888275 0.0084375
v 0.02425911 -0.00157884 0.0084375
v 0.024112755 0.004689 0.0084375
v 0.024105975 -0.00138261 0.0084375
v 0.02396739 0.004482435 0.0084375
v 0.023964675 -0.00118119 0.0084375
v 0.02383269 -0.00097089 0.0084375
v 0.023832525 0.004270005 0.0084375
v 0.02370993 -0.00075207 0.0084375
v 0.023709195 0.00405315 0.0084375
v 0.02359713 -0.000526335 0.0084375
v 0.023598375 0.00383316 0.0084375
v 0.02349852 0.003606555 0.0084375
v 0.02349504 -0.00029529 0.0084375
v 0.023409 0.00337263 0.0084375
v 0.02340438 -6.057e-05 0.0084375
v 0.02333028 0.00313308 0.0084375
v 0.0233259 0.000176235 0.0084375
v 0.02326287 0.0028896 0.0084375
v 0.023260305 0.00041367 0.0084375
v 0.02320725 0.0026439 0.0084375
v 0.023206755 0.00065544 0.0084375
v 0.02316477 0.00090237 0.0084375
v 0.02316387 0.002397705 0.0084375
v 0.0231345 0.001152705 0.0084375
v 0.023133225 0.002152695 0.0084375
v 0.023116065 0.00140466 0.0084375
v 0.0231153 0.001906425 0.0084375
v 0.02310963 0.001656495 0.0084375
v 0.030327195 0.00165 0.0121875
v 0.030327195 0.00165 0.0084375
v 0.030299385 0.001324785 0.0084375
v 0.030299385 0.001975215 0.0121875
v 0.030299385 0.001324785 0.0121875
v 0.030229755 0.001019715 0.0084375
v 0.030229755 0.001019715 0.0121875
v 0.030118305 0.000734775 0.0084375
v 0.030118305 0.000734775 0.0121875
v 0.02996073 0.000464595 0.0084375
v 0.02996073 0.000464595 0.0121875
v 0.029761335 0.00021456 0.0084375
v 0.029761335 0.00021456 0.0121875
v 0.02953299 8.25e-07 0.0084375
v 0.02953299 8.25e-07 0.0121875
v 0.029273805 -0.000174225 0.0084375
v 0.029273805 -0.000174225 0.0121875
v 0.02898567 -0.00031299 0.0084375
v 0.02898567 -0.00031299 0.0121875
v 0.0286872 -0.000406485 0.0084375
v 0.0286872 -0.000406485 0.0121875
v 0.02837772 -0.00045174 0.0084375
v 0.02837772 -0.00045174 0.0121875
v 0.02805792 -0.00045174 0.0084375
v 0.02805792 -0.00045174 0.0121875
v 0.02774844 -0.000406485 0.0084375
v 0.02774844 -0.000406485 0.0121875
v 0.02744997 -0.00031299 0.0084375
v 0.02744997 -0.00031299 0.0121875
v 0.027161835 -0.000174225 0.0084375
v 0.027161835 -0.000174225 0.0121875
v 0.02690265 8.25e-07 0.0084375
v 0.02690265 8.25e-07 0.0121875
v 0.026674305 0.00021456 0.0084375
v 0.026674305 0.00021456 0.0121875
v 0.02647491 0.000464595 0.0084375
v 0.02647491 0.000464595 0.0121875
v 0.026317335 0.000734775 0.0084375
v 0.026317335 0.000734775 0.0121875
v 0.026205885 0.001019715 0.0084375
v 0.026205885 0.001019715 0.0121875
v 0.026136255 0.001324785 0.0084375
v 0.026136255 0.001324785 0.0121875
v 0.026108445 0.00165 0.0084375
v 0.026108445 0.00165 0.0121875
v 0.026136255 0.001975215 0.0084375
v 0.026136255 0.001975215 0.0121875
v 0.026205885 0.002280285 0.0084375
v 0.026205885 0.002280285 0.0121875
v 0.026317335 0.002565225 0.0084375
v 0.026317335 0.002565225 0.0121875
v 0.02647491 0.002835405 0.0084375
v 0.02647491 0.002835405 0.0121875
v 0.026674305 0.00308544 0.0084375
v 0.026674305 0.00308544 0.0121875
v 0.02690265 0.003299175 0.0084375
v 0.02690265 0.003299175 0.0121875
v 0.027161835 0.003474225 0.0084375
v 0.027161835 0.003474225 0.0121875
v 0.02744997 0.00361299 0.0084375
v 0.02744997 0.00361299 0.0121875
v 0.02774844 0.003706485 0.0084375
v 0.02774844 0.003706485 0.0121875
v 0.02805792 0.00375174 0.0084375
v 0.02805792 0.00375174 0.0121875
v 0.02837772 0.00375174 0.0084375
v 0.02837772 0.00375174 0.0121875
v 0.0286872 0.003706485 0.0084375
v 0.0286872 0.003706485 0.0121875
v 0.02898567 0.00361299 0.0084375
v 0.02898567 0.00361299 0.0121875
v 0.029273805 0.003474225 0.0084375
v 0.029273805 0.003474225 0.0121875
v 0.02953299 0.003299175 0.0084375
v 0.02953299 0.003299175 0.0121875
v 0.029761335 0.00308544 0.0084375
v 0.029761335 0.00308544 0.0121875
v 0.02996073 0.002835405 0.0084375
v 0.02996073 0.002835405 0.0121875
v 0.030118305 0.002565225 0.0084375
v 0.030118305 0.002565225 0.0121875
v 0.030229755 0.002280285 0.0084375
v 0.030229755 0.002280285 0.0121875
v 0.030299385 0.001975215 0.0084375
v 0.04276896 0.009862065 0.0121875
v 0.04276896 0.009862065 0.0084375
v 0.042559155 0.008734575 0.0084375
v 0.042830805 0.01019772 0.0121875
v 0.042559155 0.008734575 0.0121875
v 0.042373755 0.00760413 0.0084375
v 0.042373755 0.00760413 0.0121875
v 0.04221276 0.00647073 0.0084375
v 0.04221276 0.00647073 0.0121875
v 0.042188385 0.00627564 0.0084375
v 0.04218897 0.006278235 0.0121875
v 0.042160755 0.006079545 0.0121875
v 0.04215966 0.00607374 0.0084375
v 0.04212933 0.00587496 0.0121875
v 0.04212798 0.005865405 0.0084375
v 0.042092385 0.00566391 0.0121875
v 0.042089205 0.00564957 0.0084375
v 0.04204524 0.005445 0.0121875
v 0.042040995 0.00542532 0.0084375
v 0.041987685 0.005218425 0.0121875
v 0.041979435 0.005192595 0.0084375
v 0.041912235 0.004983135 0.0121875
v 0.04190178 0.004950675 0.0084375
v 0.041819715 0.00473916 0.0121875
v 0.04180206 0.004700595 0.0084375
v 0.04169973 0.004489605 0.0121875
v 0.04167447 0.00444096 0.0084375
v 0.041553015 0.004233405 0.0121875
v 0.04151571 0.004178385 0.0084375
v 0.041370375 0.00397893 0.0121875
v 0.04131972 0.00391467 0.0084375
v 0.04114899 0.003722565 0.0121875
v 0.04108911 0.0036627 0.0084375
v 0.04089093 0.003486255 0.0121875
v 0.04082259 0.00343299 0.0084375
v 0.040746 0.003378855 0.0121875
v 0.040525875 0.00323451 0.0084375
v 0.04059102 0.00327726 0.0121875
v 0.040429275 0.00318483 0.0121875
v 0.040366995 0.003152535 0.0084375
v 0.040264095 0.00310494 0.0121875
v 0.04020045 0.003080505 0.0084375
v 0.04009494 0.003039285 0.0121875
v 0.04002957 0.00301902 0.0084375
v 0.039918945 0.002985855 0.0121875
v 0.039857715 0.002968635 0.0084375
v 0.039740385 0.002943585 0.0121875
v 0.03950517 0.00290322 0.0084375
v 0.03956367 0.002911485 0.0121875
v 0.039220755 0.002878485 0.0121875
v 0.039155985 0.00287742 0.0084375
v 0.03888753 0.002884575 0.0121875
v 0.038825355 0.002888415 0.0084375
v 0.038578095 0.00291702 0.0121875
v 0.038514585 0.00292842 0.0084375
v 0.03829026 0.002976945 0.0121875
v 0.038232165 0.00299043 0.0084375
v 0.038021925 0.00305142 0.0121875
v 0.037971735 0.003069135 0.0084375
v 0.03777351 0.00314145 0.0121875
v 0.037730565 0.00315777 0.0084375
v 0.037540125 0.00323799 0.0121875
v 0.037506225 0.003253785 0.0084375
v 0.03732192 0.00334068 0.0121875
v 0.03729615 0.003352995 0.0084375
v 0.037114755 0.003444585 0.0121875
v 0.03709812 0.00345366 0.0084375
v 0.036916755 0.003547245 0.0121875
v 0.03690864 0.003552255 0.0084375
v 0.036728895 0.00364995 0.0084375
v 0.036728895 0.00364995 0.0121875
v 0.035607375 0.004225155 0.0084375
v 0.035607375 0.004225155 0.0121875
v 0.03446463 0.004763295 0.0084375
v 0.03446463 0.004763295 0.0121875
v 0.033300645 0.00526437 0.0084375
v 0.033300645 0.00526437 0.0121875
v 0.03211545 0.005728395 0.0084375
v 0.03211545 0.005728395 0.0121875
v 0.030909015 0.00615537 0.0084375
v 0.030909015 0.00615537 0.0121875
v 0.02968134 0.00654528 0.0084375
v 0.02968134 0.00654528 0.0121875
v 0.02943174 0.00661116 0.0084375
v 0.02943174 0.00661116 0.0121875
v 0.02918289 0.00666495 0.0084375
v 0.02918289 0.00666495 0.0121875
v 0.028934805 0.006706635 0.0084375
v 0.028934805 0.006706635 0.0121875
v 0.028687455 0.0067362 0.0084375
v 0.028687455 0.0067362 0.0121875
v 0.02844087 0.00675369 0.0084375
v 0.02844087 0.00675369 0.0121875
v 0.02819502 0.00675906 0.0084375
v 0.02819502 0.00675906 0.0121875
v 0.027949935 0.00675234 0.0084375
v 0.027949935 0.00675234 0.0121875
v 0.02770443 0.00673323 0.0084375
v 0.02770443 0.00673323 0.0121875
v 0.027457005 0.00670137 0.0084375
v 0.027457005 0.00670137 0.0121875
v 0.027209295 0.006657165 0.0084375
v 0.027209295 0.006657165 0.0121875
v 0.026963025 0.00660102 0.0084375
v 0.026963025 0.00660102 0.0121875
v 0.026719905 0.006533355 0.0084375
v 0.026719905 0.006533355 0.0121875
v 0.02648169 0.006454605 0.0084375
v 0.02648169 0.006454605 0.0121875
v 0.026250075 0.006365175 0.0084375
v 0.026250075 0.006365175 0.0121875
v 0.02602539 0.0062649 0.0084375
v 0.02602539 0.0062649 0.0121875
v 0.025803555 0.00615201 0.0084375
v 0.025803555 0.00615201 0.0121875
v 0.025585425 0.006027255 0.0084375
v 0.025585425 0.006027255 0.0121875
v 0.025372485 0.00589158 0.0084375
v 0.025372485 0.00589158 0.0121875
v 0.025166175 0.005746005 0.0084375
v 0.025166175 0.005746005 0.0121875
v 0.024967995 0.005591505 0.0084375
v 0.024967995 0.005591505 0.0121875
v 0.024779415 0.00542907 0.0084375
v 0.024779415 0.00542907 0.0121875
v 0.02460141 0.00525921 0.0084375
v 0.02460141 0.00525921 0.0121875
v 0.0244308 0.005078835 0.0084375
v 0.0244308 0.005078835 0.0121875
v 0.02426757 0.004888275 0.0084375
v 0.02426757 0.004888275 0.0121875
v 0.024112755 0.004689 0.0084375
v 0.024112755 0.004689 0.0121875
v 0.02396739 0.004482435 0.0084375
v 0.02396739 0.004482435 0.0121875
v 0.023832525 0.004270005 0.0084375
v 0.023832525 0.004270005 0.0121875
v 0.023709195 0.00405315 0.0084375
v 0.023709195 0.00405315 0.0121875
v 0.023598375 0.00383316 0.0084375
v 0.023598375 0.00383316 0.0121875
v 0.02349852 0.003606555 0.0084375
v 0.02349852 0.003606555 0.0121875
v 0.023409 0.00337263 0.0084375
v 0.023409 0.00337263 0.0121875
v 0.02333028 0.00313308 0.0084375
v 0.02333028 0.00313308 0.0121875
v 0.02326287 0.0028896 0.0084375
v 0.02326287 0.0028896 0.0121875
v 0.02320725 0.0026439 0.0084375
v 0.02320725 0.0026439 0.0121875
v 0.02316387 0.002397705 0.0084375
v 0.02316387 0.002397705 0.0121875
v 0.023133225 0.002152695 0.0084375
v 0.023133225 0.002152695 0.0121875
v 0.0231153 0.001906425 0.0084375
v 0.0231153 0.001906425 0.0121875
v 0.02310963 0.001656495 0.0084375
v 0.02310963 0.001656495 0.0121875
v 0.023116065 0.00140466 0.0084375
v 0.023116065 0.00140466 0.0121875
v 0.0231345 0.001152705 0.0084375
v 0.0231345 0.001152705 0.0121875
v 0.02316477 0.00090237 0.0084375
v 0.02316477 0.00090237 0.0121875
v 0.023206755 0.00065544 0.0084375
v 0.023206755 0.00065544 0.0121875
v 0.023260305 0.00041367 0.0084375
v 0.023260305 0.00041367 0.0121875
v 0.0233259 0.000176235 0.0084375
v 0.0233259 0.000176235 0.0121875
v 0.02340438 -6.057e-05 0.0084375
v 0.02340438 -6.057e-05 0.0121875
v 0.02349504 -0.00029529 0.0084375
v 0.02349504 -0.00029529 0.0121875
v 0.02359713 -0.000526335 0.0084375
v 0.02359713 -0.000526335 0.0121875
v 0.02370993 -0.00075207 0.0084375
v 0.02370993 -0.00075207 0.0121875
v 0.02383269 -0.00097089 0.0084375
v 0.02383269 -0.00097089 0.0121875
v 0.023964675 -0.00118119 0.0084375
v 0.023964675 -0.00118119 0.0121875
v 0.024105975 -0.00138261 0.0084375
v 0.024105975 -0.00138261 0.0121875
v 0.02425911 -0.00157884 0.0084375
v 0.02425911 -0.00157884 0.0121875
v 0.024423195 -0.001769145 0.0084375
v 0.024423195 -0.001769145 0.0121875
v 0.024596985 -0.00195231 0.0084375
v 0.024596985 -0.00195231 0.0121875
v 0.02477925 -0.002127045 0.0084375
v 0.02477925 -0.002127045 0.0121875
v 0.02496873 -0.002292105 0.0084375
v 0.02496873 -0.002292105 0.0121875
v 0.025164165 -0.00244623 0.0084375
v 0.025164165 -0.00244623 0.0121875
v 0.02536485 -0.002588565 0.0084375
v 0.02536485 -0.002588565 0.0121875
v 0.025574475 -0.00272163 0.0084375
v 0.025574475 -0.00272163 0.0121875
v 0.025792665 -0.002845515 0.0084375
v 0.025792665 -0.002845515 0.0121875
v 0.026017815 -0.002959455 0.0084375
v 0.026017815 -0.002959455 0.0121875
v 0.026248335 -0.003062745 0.0084375
v 0.026248335 -0.003062745 0.0121875
v 0.02648259 -0.003154605 0.0084375
v 0.02648259 -0.003154605 0.0121875
v 0.02671899 -0.0032343 0.0084375
v 0.02671899 -0.0032343 0.0121875
v 0.026956005 -0.00330111 0.0084375
v 0.026956005 -0.00330111 0.0121875
v 0.02719503 -0.003355695 0.0084375
v 0.02719503 -0.003355695 0.0121875
v 0.02743716 -0.00339855 0.0084375
v 0.02743716 -0.00339855 0.0121875
v 0.027682395 -0.003429705 0.0084375
v 0.027682395 -0.003429705 0.0121875
v 0.02793075 -0.00344913 0.0084375
v 0.02793075 -0.00344913 0.0121875
v 0.028182195 -0.00345684 0.0084375
v 0.028182195 -0.00345684 0.0121875
v 0.02843676 -0.003452835 0.0084375
v 0.02843676 -0.003452835 0.0121875
v 0.02869443 -0.0034371 0.0084375
v 0.02869443 -0.0034371 0.0121875
v 0.029219985 -0.00339387 0.0084375
v 0.029219985 -0.00339387 0.0121875
v 0.02974362 -0.003360645 0.0084375
v 0.02974362 -0.003360645 0.0121875
v 0.03078513 -0.00332421 0.0084375
v 0.03078513 -0.00332421 0.0121875
v 0.031818945 -0.003327825 0.0084375
v 0.031818945 -0.003327825 0.0121875
v 0.03284514 -0.00337152 0.0084375
v 0.03284514 -0.00337152 0.0121875
v 0.03386427 -0.003455715 0.0084375
v 0.03386427 -0.003455715 0.0121875
v 0.0348756 -0.003579855 0.0084375
v 0.0348756 -0.003579855 0.0121875
v 0.03587802 -0.003743085 0.0084375
v 0.03587802 -0.003743085 0.0121875
v 0.036870765 -0.00394482 0.0084375
v 0.036870765 -0.00394482 0.0121875
v 0.03785442 -0.004185495 0.0084375
v 0.03785442 -0.004185495 0.0121875
v 0.03882903 -0.004465155 0.0084375
v 0.03882903 -0.004465155 0.0121875
v 0.039794595 -0.004783815 0.0084375
v 0.039794595 -0.004783815 0.0121875
v 0.040062075 -0.004872705 0.0084375
v 0.040085115 -0.004883085 0.0121875
v 0.04033179 -0.00498723 0.0084375
v 0.040381395 -0.00501282 0.0121875
v 0.040605795 -0.005125965 0.0084375
v 0.040688955 -0.00517131 0.0121875
v 0.040884375 -0.00528867 0.0084375
v 0.040842855 -0.005262615 0.0121875
v 0.040991325 -0.00536367 0.0121875
v 0.04115106 -0.005487465 0.0084375
v 0.041135625 -0.00547524 0.0121875
v 0.04127718 -0.005596485 0.0121875
v 0.04140831 -0.005724315 0.0084375
v 0.04141209 -0.005726355 0.0121875
v 0.04153008 -0.005856585 0.0084375
v 0.041536485 -0.00586377 0.0121875
v 0.041643225 -0.00599847 0.0084375
v 0.041650275 -0.006010245 0.0121875
v 0.04174596 -0.006151065 0.0084375
v 0.041755215 -0.00616575 0.0121875
v 0.041841225 -0.00631641 0.0084375
v 0.04185018 -0.006326895 0.0121875
v 0.04192848 -0.006491295 0.0084375
v 0.041934 -0.00649032 0.0121875
v 0.042006645 -0.00667209 0.0084375
v 0.04200528 -0.00665772 0.0121875
v 0.042064995 -0.006830025 0.0121875
v 0.042074685 -0.006855105 0.0084375
v 0.04213215 -0.007038885 0.0084375
v 0.04215945 -0.00717132 0.0121875
v 0.042179865 -0.00722625 0.0084375
v 0.042217875 -0.007417305 0.0084375
v 0.042227115 -0.00749613 0.0121875
v 0.042246165 -0.00761205 0.0084375
v 0.04226475 -0.007810515 0.0084375
v 0.04226475 -0.007810515 0.0121875
v 0.04228653 -0.007967295 0.0084375
v 0.04228653 -0.007967295 0.0121875
v 0.042308775 -0.008124105 0.0084375
v 0.042308775 -0.008124105 0.0121875
v 0.04238925 -0.00849012 0.0084375
v 0.04238925 -0.00849012 0.0121875
v 0.042508635 -0.0088314 0.0084375
v 0.042508635 -0.0088314 0.0121875
v 0.04266693 -0.009147945 0.0084375
v 0.04266693 -0.009147945 0.0121875
v 0.04286685 -0.0094425 0.0084375
v 0.04286685 -0.0094425 0.0121875
v 0.043109835 -0.00971652 0.0084375
v 0.043109835 -0.00971652 0.0121875
v 0.04338402 -0.009958005 0.0084375
v 0.04338402 -0.009958005 0.0121875
v 0.04367985 -0.010156305 0.0084375
v 0.04367985 -0.010156305 0.0121875
v 0.04400667 -0.01031712 0.0084375
v 0.04400667 -0.01031712 0.0121875
v 0.04435329 -0.01043724 0.0084375
v 0.04435329 -0.01043724 0.0121875
v 0.04470357 -0.01051038 0.0084375
v 0.04470357 -0.01051038 0.0121875
v 0.04506399 -0.010535625 0.0084375
v 0.04506399 -0.010535625 0.0121875
v 0.04543077 -0.01051539 0.0084375
v 0.04543077 -0.01051539 0.0121875
v 0.04578624 -0.01045062 0.0084375
v 0.04578624 -0.01045062 0.0121875
v 0.046126335 -0.010339395 0.0084375
v 0.046126335 -0.010339395 0.0121875
v 0.046457625 -0.01018185 0.0084375
v 0.046457625 -0.01018185 0.0121875
v 0.046764765 -0.00998604 0.0084375
v 0.046764765 -0.00998604 0.0121875
v 0.047036985 -0.00975639 0.0084375
v 0.047036985 -0.00975639 0.0121875
v 0.047282925 -0.00948621 0.0084375
v 0.047282925 -0.00948621 0.0121875
v 0.047494275 -0.00918711 0.0084375
v 0.047494275 -0.00918711 0.0121875
v 0.047660565 -0.008872335 0.0084375
v 0.047660565 -0.008872335 0.0121875
v 0.04778307 -0.008540295 0.0084375
v 0.04778307 -0.008540295 0.0121875
v 0.04786416 -0.008187945 0.0084375
v 0.04786416 -0.008187945 0.0121875
v 0.047903865 -0.0078153 0.0084375
v 0.047903865 -0.0078153 0.0121875
v 0.047951085 -0.00702045 0.0084375
v 0.047951085 -0.00702045 0.0121875
v 0.04803903 -0.006238545 0.0084375
v 0.04803903 -0.006238545 0.0121875
v 0.048167715 -0.005469615 0.0084375
v 0.048167715 -0.005469615 0.0121875
v 0.048337125 -0.004713645 0.0084375
v 0.048337125 -0.004713645 0.0121875
v 0.04846191 -0.00423744 0.0084375
v 0.04840134 -0.004454865 0.0121875
v 0.048472815 -0.00419922 0.0121875
v 0.048612405 -0.00377019 0.0084375
v 0.048551595 -0.00394674 0.0121875
v 0.048637635 -0.00369741 0.0121875
v 0.048788625 -0.00331188 0.0084375
v 0.04873098 -0.003451215 0.0121875
v 0.0488316 -0.00320817 0.0121875
v 0.048988485 -0.002860125 0.0084375
v 0.04893918 -0.00296709 0.0121875
v 0.04905366 -0.002727735 0.0121875
v 0.04921407 -0.00241731 0.0084375
v 0.04917543 -0.00249153 0.0121875
v 0.049304865 -0.0022599 0.0121875
v 0.04947153 -0.00199062 0.0084375
v 0.04944234 -0.002034255 0.0121875
v 0.04958823 -0.00181605 0.0121875
v 0.04976307 -0.001577715 0.0084375
v 0.049743105 -0.001603665 0.0121875
v 0.04990677 -0.00139563 0.0121875
v 0.04992081 -0.00137643 0.0084375
v 0.05007846 -0.00119361 0.0121875
v 0.050086485 -0.001180935 0.0084375
v 0.05025747 -0.000999225 0.0121875
v 0.050260035 -0.00099303 0.0084375
v 0.05044305 -0.000814125 0.0121875
v 0.050441445 -0.00081447 0.0084375
v 0.050631825 -0.000643905 0.0084375
v 0.05063445 -0.00063999 0.0121875
v 0.050831475 -0.000479655 0.0084375
v 0.05083356 -0.00047598 0.0121875
v 0.051039 -0.000322965 0.0084375
v 0.05104137 -0.000320625 0.0121875
v 0.051253035 -0.00017514 0.0084375
v 0.05125572 -0.000174585 0.0121875
v 0.051472215 -3.7425e-05 0.0084375
v 0.051474555 -3.846e-05 0.0121875
v 0.05169516 8.8905e-05 0.0084375
v 0.0519171 0.000201495 0.0121875
v 0.051924615 0.00020319 0.0084375
v 0.0521622 0.00030633 0.0084375
v 0.05237055 0.000392655 0.0121875
v 0.05240493 0.000399345 0.0084375
v 0.05264979 0.00048327 0.0084375
v 0.052833375 0.00054159 0.0121875
v 0.05313396 0.000627915 0.0084375
v 0.05328408 0.000662955 0.0121875
v 0.05360673 0.00074301 0.0084375
v 0.053715495 0.00076164 0.0121875
v 0.054076065 0.00082581 0.0084375
v 0.054134805 0.000832755 0.0121875
v 0.05454198 0.000876315 0.0084375
v 0.05454198 0.000876315 0.0121875
v 0.05560791 0.0010356 0.0084375
v 0.05560791 0.0010356 0.0121875
v 0.056671395 0.00120645 0.0084375
v 0.056671395 0.00120645 0.0121875
v 0.057732465 0.001388865 0.0084375
v 0.057732465 0.001388865 0.0121875
v 0.05879109 0.001582845 0.0084375
v 0.05879109 0.001582845 0.0121875
v 0.059847285 0.00178839 0.0084375
v 0.059847285 0.00178839 0.0121875
v 0.060901065 0.0020055 0.0084375
v 0.060901065 0.0020055 0.0121875
v 0.06195252 0.00223419 0.0084375
v 0.06195252 0.00223419 0.0121875
v 0.06300156 0.002474445 0.0084375
v 0.06300156 0.002474445 0.0121875
v 0.064048065 0.00272625 0.0084375
v 0.064048065 0.00272625 0.0121875
v 0.06509196 0.002989605 0.0084375
v 0.06509196 0.002989605 0.0121875
v 0.066133125 0.00326448 0.0084375
v 0.066133125 0.00326448 0.0121875
v 0.067171665 0.003550905 0.0084375
v 0.067171665 0.003550905 0.0121875
v 0.06820761 0.003848865 0.0084375
v 0.06820761 0.003848865 0.0121875
v 0.069240915 0.004158375 0.0084375
v 0.069240915 0.004158375 0.0121875
v 0.070271625 0.00447942 0.0084375
v 0.070271625 0.00447942 0.0121875
v 0.071299725 0.004812015 0.0084375
v 0.071299725 0.004812015 0.0121875
v 0.07167159 0.00494931 0.0084375
v 0.07167159 0.00494931 0.0121875
v 0.07203009 0.005092455 0.0084375
v 0.07203009 0.005092455 0.0121875
v 0.07237524 0.00524148 0.0084375
v 0.07237524 0.00524148 0.0121875
v 0.07270701 0.005396355 0.0084375
v 0.07270701 0.005396355 0.0121875
v 0.073025415 0.005557095 0.0084375
v 0.073025415 0.005557095 0.0121875
v 0.073330455 0.0057237 0.0084375
v 0.073330455 0.0057237 0.0121875
v 0.07362213 0.00589617 0.0084375
v 0.07362213 0.00589617 0.0121875
v 0.073900065 0.00607479 0.0084375
v 0.073900065 0.00607479 0.0121875
v 0.074163105 0.00626046 0.0084375
v 0.074163105 0.00626046 0.0121875
v 0.07441197 0.006452625 0.0084375
v 0.07441197 0.006452625 0.0121875
v 0.07464762 0.006650565 0.0084375
v 0.07464762 0.006650565 0.0121875
v 0.074870925 0.006853545 0.0084375
v 0.074870925 0.006853545 0.0121875
v 0.075082845 0.007060845 0.0084375
v 0.075082845 0.007060845 0.0121875
v 0.07528428 0.007271745 0.0084375
v 0.07528428 0.007271745 0.0121875
v 0.075476085 0.0074856 0.0084375
v 0.075476085 0.0074856 0.0121875
v 0.075656985 0.00770385 0.0084375
v 0.075656985 0.00770385 0.0121875
v 0.075826365 0.007926945 0.0084375
v 0.075826365 0.007926945 0.0121875
v 0.075984555 0.00815427 0.0084375
v 0.075984555 0.00815427 0.0121875
v 0.0761319 0.008385255 0.0084375
v 0.0761319 0.008385255 0.0121875
v 0.076268745 0.008619285 0.0084375
v 0.076268745 0.008619285 0.0121875
v 0.07639542 0.00885579 0.0084375
v 0.07639542 0.00885579 0.0121875
v 0.07651227 0.009094185 0.0084375
v 0.07651227 0.009094185 0.0121875
v 0.07661928 0.009334905 0.0084375
v 0.07661928 0.009334905 0.0121875
v 0.07671597 0.009579435 0.0084375
v 0.07671597 0.009579435 0.0121875
v 0.076802355 0.0098271 0.0084375
v 0.076802355 0.0098271 0.0121875
v 0.07687851 0.010077135 0.0084375
v 0.07687851 0.010077135 0.0121875
v 0.076944465 0.010328805 0.0084375
v 0.076944465 0.010328805 0.0121875
v 0.077000295 0.01058133 0.0084375
v 0.077000295 0.01058133 0.0121875
v 0.077046045 0.01083399 0.0084375
v 0.077046045 0.01083399 0.0121875
v 0.077081745 0.011086335 0.0084375
v 0.077081745 0.011086335 0.0121875
v 0.077107215 0.011340645 0.0084375
v 0.077107215 0.011340645 0.0121875
v 0.077122485 0.01159674 0.0084375
v 0.077122485 0.01159674 0.0121875
v 0.077127615 0.011853675 0.0084375
v 0.077127615 0.011853675 0.0121875
v 0.07712271 0.01211049 0.0084375
v 0.07712271 0.01211049 0.0121875
v 0.077107815 0.01236624 0.0084375
v 0.077107815 0.01236624 0.0121875
v 0.07708302 0.012619965 0.0084375
v 0.07708302 0.012619965 0.0121875
v 0.077048415 0.01287072 0.0084375
v 0.077048415 0.01287072 0.0121875
v 0.07700373 0.01311987 0.0084375
v 0.07700373 0.01311987 0.0121875
v 0.076948785 0.013368825 0.0084375
v 0.076948785 0.013368825 0.0121875
v 0.076883805 0.013616625 0.0084375
v 0.076883805 0.013616625 0.0121875
v 0.076809015 0.013862355 0.0084375
v 0.076809015 0.013862355 0.0121875
v 0.076724625 0.014105085 0.0084375
v 0.076724625 0.014105085 0.0121875
v 0.07663086 0.014343885 0.0084375
v 0.07663086 0.014343885 0.0121875
v 0.07652793 0.01457784 0.0084375
v 0.07652793 0.01457784 0.0121875
v 0.076415895 0.014806755 0.0084375
v 0.076415895 0.014806755 0.0121875
v 0.076294215 0.015032835 0.0084375
v 0.076294215 0.015032835 0.0121875
v 0.07616298 0.015255705 0.0084375
v 0.07616298 0.015255705 0.0121875
v 0.076022385 0.0154746 0.0084375
v 0.076022385 0.0154746 0.0121875
v 0.075872595 0.0156888 0.0084375
v 0.075872595 0.0156888 0.0121875
v 0.075713805 0.01589757 0.0084375
v 0.075713805 0.01589757 0.0121875
v 0.075546195 0.01610019 0.0084375
v 0.075546195 0.01610019 0.0121875
v 0.075369945 0.01629597 0.0084375
v 0.075369945 0.01629597 0.0121875
v 0.07518507 0.0164865 0.0084375
v 0.07518507 0.0164865 0.0121875
v 0.07499142 0.0166722 0.0084375
v 0.07499142 0.0166722 0.0121875
v 0.074788875 0.01685241 0.0084375
v 0.074788875 0.01685241 0.0121875
v 0.074577285 0.017026455 0.0084375
v 0.074577285 0.017026455 0.0121875
v 0.0743565 0.017193675 0.0084375
v 0.0743565 0.017193675 0.0121875
v 0.074126415 0.017353395 0.0084375
v 0.074126415 0.017353395 0.0121875
v 0.07388685 0.017504955 0.0084375
v 0.07388685 0.017504955 0.0121875
v 0.07363827 0.017648955 0.0084375
v 0.07363827 0.017648955 0.0121875
v 0.073381455 0.01778718 0.0084375
v 0.073381455 0.01778718 0.0121875
v 0.073115805 0.01791873 0.0084375
v 0.073115805 0.01791873 0.0121875
v 0.07284063 0.018042645 0.0084375
v 0.07284063 0.018042645 0.0121875
v 0.072555315 0.018157935 0.0084375
v 0.072555315 0.018157935 0.0121875
v 0.072259185 0.018263655 0.0084375
v 0.072259185 0.018263655 0.0121875
v 0.071951595 0.01835883 0.0084375
v 0.071951595 0.01835883 0.0121875
v 0.071632035 0.018442665 0.0084375
v 0.071632035 0.018442665 0.0121875
v 0.0713013 0.01851642 0.0084375
v 0.0713013 0.01851642 0.0121875
v 0.07095969 0.01858044 0.0084375
v 0.07095969 0.01858044 0.0121875
v 0.070607175 0.01863477 0.0084375
v 0.070607175 0.01863477 0.0121875
v 0.070243755 0.01867938 0.0084375
v 0.070243755 0.01867938 0.0121875
v 0.069869445 0.018714285 0.0084375
v 0.069869445 0.018714285 0.0121875
v 0.069484245 0.01873947 0.0084375
v 0.069484245 0.01873947 0.0121875
v 0.06908814 0.01875495 0.0084375
v 0.06908814 0.01875495 0.0121875
v 0.067916385 0.01875336 0.0084375
v 0.067916385 0.01875336 0.0121875
v 0.06674574 0.018739905 0.0084375
v 0.06674574 0.018739905 0.0121875
v 0.065576205 0.01871454 0.0084375
v 0.065576205 0.01871454 0.0121875
v 0.064407795 0.01867731 0.0084375
v 0.064407795 0.01867731 0.0121875
v 0.063240495 0.018628185 0.0084375
v 0.063240495 0.018628185 0.0121875
v 0.06207429 0.018567165 0.0084375
v 0.06207429 0.018567165 0.0121875
v 0.06090912 0.018494235 0.0084375
v 0.06090912 0.018494235 0.0121875
v 0.059745075 0.018409425 0.0084375
v 0.059745075 0.018409425 0.0121875
v 0.0585822 0.01831275 0.0084375
v 0.0585822 0.01831275 0.0121875
v 0.057420585 0.01820421 0.0084375
v 0.057420585 0.01820421 0.0121875
v 0.05626029 0.01808385 0.0084375
v 0.05626029 0.01808385 0.0121875
v 0.05510127 0.01795164 0.0084375
v 0.05510127 0.01795164 0.0121875
v 0.053943495 0.01780758 0.0084375
v 0.053943495 0.01780758 0.0121875
v 0.052786965 0.01765167 0.0084375
v 0.052786965 0.01765167 0.0121875
v 0.051631695 0.01748391 0.0084375
v 0.051631695 0.01748391 0.0121875
v 0.050477655 0.0173043 0.0084375
v 0.050477655 0.0173043 0.0121875
v 0.05007774 0.017245125 0.0084375
v 0.05008062 0.017245455 0.0121875
v 0.0496662 0.017168835 0.0121875
v 0.04966017 0.017167785 0.0084375
v 0.04923384 0.017075265 0.0121875
v 0.049224345 0.01707312 0.0084375
v 0.04878117 0.016968375 0.0121875
v 0.04876776 0.016964835 0.0084375
v 0.0483162 0.016835955 0.0121875
v 0.048298905 0.01683054 0.0084375
v 0.047842845 0.01666881 0.0121875
v 0.047822175 0.01666098 0.0084375
v 0.047359635 0.01647069 0.0121875
v 0.04733589 0.01645992 0.0084375
v 0.046882905 0.016234185 0.0121875
v 0.04685613 0.016219635 0.0084375
v 0.04641252 0.015958335 0.0121875
v 0.046382445 0.015939045 0.0084375
v 0.045952335 0.015643245 0.0121875
v 0.045919185 0.01561842 0.0084375
v 0.045513255 0.015285675 0.0121875
v 0.045477735 0.01525425 0.0084375
v 0.04509087 0.014885145 0.0121875
v 0.04505328 0.01484547 0.0084375
v 0.044889225 0.014670495 0.0121875
v 0.044851185 0.01462707 0.0084375
v 0.04469631 0.01444731 0.0121875
v 0.04465851 0.014400975 0.0084375
v 0.04451259 0.014215365 0.0121875
v 0.044475945 0.0141672 0.0084375
v 0.044336055 0.01397334 0.0121875
v 0.04430142 0.013924005 0.0084375
v 0.044167365 0.013722375 0.0121875
v 0.044135325 0.0136725 0.0084375
v 0.04400733 0.01346373 0.0121875
v 0.04397817 0.01341393 0.0084375
v 0.043856745 0.01319865 0.0121875
v 0.043830465 0.01314957 0.0084375
v 0.04371642 0.012928065 0.0121875
v 0.043692855 0.012880335 0.0084375
v 0.043586595 0.012650835 0.0121875
v 0.043565925 0.012605085 0.0084375
v 0.043466295 0.012366825 0.0121875
v 0.04344861 0.01232367 0.0084375
v 0.04335441 0.012076185 0.0121875
v 0.04333971 0.012036285 0.0084375
v 0.043249905 0.011779095 0.0121875
v 0.043237995 0.011743035 0.0084375
v 0.04315173 0.01147569 0.0121875
v 0.043142295 0.0114441 0.0084375
v 0.043060455 0.01116588 0.0121875
v 0.04305327 0.011139375 0.0084375
v 0.042976545 0.01084962 0.0121875
v 0.042971415 0.010828815 0.0084375
v 0.0429 0.010526895 0.0121875
v 0.042896745 0.010512405 0.0084375
v 0.042829275 0.01019016 0.0084375
v 0.05042286 0.01295865 0.0121875
v 0.05042286 0.01295865 0.0084375
v 0.06868587 0.014984265 0.0084375
v 0.05003118 0.01289172 0.0121875
v 0.06868587 0.014984265 0.0121875
v 0.06909267 0.015002385 0.0084375
v 0.06909267 0.015002385 0.0121875
v 0.06948681 0.01497684 0.0084375
v 0.06948681 0.01497684 0.0121875
v 0.06986829 0.014907645 0.0084375
v 0.06986829 0.014907645 0.0121875
v 0.070239615 0.01479348 0.0084375
v 0.070239615 0.01479348 0.0121875
v 0.07060404 0.01463265 0.0084375
v 0.07060404 0.01463265 0.0121875
v 0.070948815 0.0144318 0.0084375
v 0.070948815 0.0144318 0.0121875
v 0.0712608 0.014197515 0.0084375
v 0.0712608 0.014197515 0.0121875
v 0.07154589 0.013923645 0.0084375
v 0.07154589 0.013923645 0.0121875
v 0.071801295 0.01361577 0.0084375
v 0.071801295 0.01361577 0.0121875
v 0.07201689 0.013285995 0.0084375
v 0.07201689 0.013285995 0.0121875
v 0.07218951 0.01293501 0.0084375
v 0.07218951 0.01293501 0.0121875
v 0.072323385 0.0125586 0.0084375
v 0.072323385 0.0125586 0.0121875
v 0.072413865 0.012171525 0.0084375
v 0.072413865 0.012171525 0.0121875
v 0.07245678 0.01178454 0.0084375
v 0.07245678 0.01178454 0.0121875
v 0.07245333 0.011387055 0.0084375
v 0.07245333 0.011387055 0.0121875
v 0.072405195 0.01099044 0.0084375
v 0.072405195 0.01099044 0.0121875
v 0.072313665 0.010610175 0.0084375
v 0.072313665 0.010610175 0.0121875
v 0.07217559 0.01024116 0.0084375
v 0.07217559 0.01024116 0.0121875
v 0.07199385 0.009884805 0.0084375
v 0.07199385 0.009884805 0.0121875
v 0.07177572 0.009555105 0.0084375
v 0.07177572 0.009555105 0.0121875
v 0.071522655 0.00925815 0.0084375
v 0.071522655 0.00925815 0.0121875
v 0.071230275 0.008986635 0.0084375
v 0.071230275 0.008986635 0.0121875
v 0.070909935 0.00874986 0.0084375
v 0.070909935 0.00874986 0.0121875
v 0.07057266 0.00855711 0.0084375
v 0.07057266 0.00855711 0.0121875
v 0.070215615 0.008405985 0.0084375
v 0.070215615 0.008405985 0.0121875
v 0.069836655 0.0082947 0.0084375
v 0.069836655 0.0082947 0.0121875
v 0.069435765 0.008223225 0.0084375
v 0.069435765 0.008223225 0.0121875
v 0.051172755 0.00619761 0.0084375
v 0.051172755 0.00619761 0.0121875
v 0.05077593 0.006177075 0.0084375
v 0.05077593 0.006177075 0.0121875
v 0.050383455 0.00620223 0.0084375
v 0.050383455 0.00620223 0.0121875
v 0.04999359 0.00627345 0.0084375
v 0.04999359 0.00627345 0.0121875
v 0.049616205 0.0063888 0.0084375
v 0.049616205 0.0063888 0.0121875
v 0.04925304 0.006547995 0.0084375
v 0.04925304 0.006547995 0.0121875
v 0.04891248 0.006747375 0.0084375
v 0.04891248 0.006747375 0.0121875
v 0.04859592 0.006985815 0.0084375
v 0.04859592 0.006985815 0.0121875
v 0.048310335 0.007258665 0.0084375
v 0.048310335 0.007258665 0.0121875
v 0.048057675 0.00756315 0.0084375
v 0.048057675 0.00756315 0.0121875
v 0.047842335 0.007895085 0.0084375
v 0.047842335 0.007895085 0.0121875
v 0.04766703 0.008249025 0.0084375
v 0.04766703 0.008249025 0.0121875
v 0.04753377 0.008622255 0.0084375
v 0.04753377 0.008622255 0.0121875
v 0.04744497 0.009006765 0.0084375
v 0.04744497 0.009006765 0.0121875
v 0.04740126 0.009400875 0.0084375
v 0.04740126 0.009400875 0.0121875
v 0.047403645 0.009795495 0.0084375
v 0.047403645 0.009795495 0.0121875
v 0.04745187 0.010188855 0.0084375
v 0.04745187 0.010188855 0.0121875
v 0.04754535 0.010572615 0.0084375
v 0.04754535 0.010572615 0.0121875
v 0.04768272 0.01094367 0.0084375
v 0.04768272 0.01094367 0.0121875
v 0.047862525 0.011296125 0.0084375
v 0.047862525 0.011296125 0.0121875
v 0.04808139 0.01162491 0.0084375
v 0.04808139 0.01162491 0.0121875
v 0.04833798 0.011926935 0.0084375
v 0.04833798 0.011926935 0.0121875
v 0.04862658 0.012196095 0.0084375
v 0.04862658 0.012196095 0.0121875
v 0.048946035 0.012430995 0.0084375
v 0.048946035 0.012430995 0.0121875
v 0.04928898 0.01262625 0.0084375
v 0.04928898 0.01262625 0.0121875
v 0.04965375 0.01278117 0.0084375
v 0.04965375 0.01278117 0.0121875
v 0.05003118 0.01289172 0.0084375
v 0.03078513 -0.00332421 0.0121875
v 0.030299385 0.001975215 0.0121875
v 0.030327195 0.00165 0.0121875
v 0.030909015 0.00615537 0.0121875
v 0.030299385 0.001324785 0.0121875
v 0.030229755 0.001019715 0.0121875
v 0.030118305 0.000734775 0.0121875
v 0.02996073 0.000464595 0.0121875
v 0.029761335 0.00021456 0.0121875
v 0.02974362 -0.003360645 0.0121875
v 0.02953299 8.25e-07 0.0121875
v 0.029273805 -0.000174225 0.0121875
v 0.029219985 -0.00339387 0.0121875
v 0.02898567 -0.00031299 0.0121875
v 0.02869443 -0.0034371 0.0121875
v 0.0286872 -0.000406485 0.0121875
v 0.02843676 -0.003452835 0.0121875
v 0.02837772 -0.00045174 0.0121875
v 0.028182195 -0.00345684 0.0121875
v 0.02805792 -0.00045174 0.0121875
v 0.02793075 -0.00344913 0.0121875
v 0.02774844 -0.000406485 0.0121875
v 0.027682395 -0.003429705 0.0121875
v 0.02744997 -0.00031299 0.0121875
v 0.02743716 -0.00339855 0.0121875
v 0.027161835 -0.000174225 0.0121875
v 0.02719503 -0.003355695 0.0121875
v 0.026956005 -0.00330111 0.0121875
v 0.02690265 8.25e-07 0.0121875
v 0.02671899 -0.0032343 0.0121875
v 0.026674305 0.00021456 0.0121875
v 0.02648259 -0.003154605 0.0121875
v 0.02647491 0.000464595 0.0121875
v 0.026317335 0.000734775 0.0121875
v 0.026248335 -0.003062745 0.0121875
v 0.026205885 0.001019715 0.0121875
v 0.026136255 0.001324785 0.0121875
v 0.026108445 0.00165 0.0121875
v 0.026017815 -0.002959455 0.0121875
v 0.02602539 0.0062649 0.0121875
v 0.025803555 0.00615201 0.0121875
v 0.026136255 0.001975215 0.0121875
v 0.026205885 0.002280285 0.0121875
v 0.026250075 0.006365175 0.0121875
v 0.026317335 0.002565225 0.0121875
v 0.02647491 0.002835405 0.0121875
v 0.02648169 0.006454605 0.0121875
v 0.026674305 0.00308544 0.0121875
v 0.026719905 0.006533355 0.0121875
v 0.02690265 0.003299175 0.0121875
v 0.026963025 0.00660102 0.0121875
v 0.027161835 0.003474225 0.0121875
v 0.027209295 0.006657165 0.0121875
v 0.02744997 0.00361299 0.0121875
v 0.027457005 0.00670137 0.0121875
v 0.02774844 0.003706485 0.0121875
v 0.02770443 0.00673323 0.0121875
v 0.027949935 0.00675234 0.0121875
v 0.02805792 0.00375174 0.0121875
v 0.02819502 0.00675906 0.0121875
v 0.02837772 0.00375174 0.0121875
v 0.02844087 0.00675369 0.0121875
v 0.0286872 0.003706485 0.0121875
v 0.028687455 0.0067362 0.0121875
v 0.02898567 0.00361299 0.0121875
v 0.028934805 0.006706635 0.0121875
v 0.02918289 0.00666495 0.0121875
v 0.029273805 0.003474225 0.0121875
v 0.02943174 0.00661116 0.0121875
v 0.02953299 0.003299175 0.0121875
v 0.02968134 0.00654528 0.0121875
v 0.029761335 0.00308544 0.0121875
v 0.02996073 0.002835405 0.0121875
v 0.030118305 0.002565225 0.0121875
v 0.030229755 0.002280285 0.0121875
v 0.025792665 -0.002845515 0.0121875
v 0.025585425 0.006027255 0.0121875
v 0.025574475 -0.00272163 0.0121875
v 0.025372485 0.00589158 0.0121875
v 0.02536485 -0.002588565 0.0121875
v 0.025166175 0.005746005 0.0121875
v 0.025164165 -0.00244623 0.0121875
v 0.024967995 0.005591505 0.0121875
v 0.02496873 -0.002292105 0.0121875
v 0.024779415 0.00542907 0.0121875
v 0.02477925 -0.002127045 0.0121875
v 0.02460141 0.00525921 0.0121875
v 0.024596985 -0.00195231 0.0121875
v 0.0244308 0.005078835 0.0121875
v 0.024423195 -0.001769145 0.0121875
v 0.02426757 0.004888275 0.0121875
v 0.02425911 -0.00157884 0.0121875
v 0.024112755 0.004689 0.0121875
v 0.024105975 -0.00138261 0.0121875
v 0.02396739 0.004482435 0.0121875
v 0.023964675 -0.00118119 0.0121875
v 0.023832525 0.004270005 0.0121875
v 0.02383269 -0.00097089 0.0121875
v 0.02370993 -0.00075207 0.0121875
v 0.023709195 0.00405315 0.0121875
v 0.023598375 0.00383316 0.0121875
v 0.02359713 -0.000526335 0.0121875
v 0.02349852 0.003606555 0.0121875
v 0.02349504 -0.00029529 0.0121875
v 0.023409 0.00337263 0.0121875
v 0.02340438 -6.057e-05 0.0121875
v 0.02333028 0.00313308 0.0121875
v 0.0233259 0.000176235 0.0121875
v 0.02326287 0.0028896 0.0121875
v 0.023260305 0.00041367 0.0121875
v 0.02320725 0.0026439 0.0121875
v 0.023206755 0.00065544 0.0121875
v 0.02316387 0.002397705 0.0121875
v 0.02316477 0.00090237 0.0121875
v 0.0231345 0.001152705 0.0121875
v 0.023133225 0.002152695 0.0121875
v 0.023116065 0.00140466 0.0121875
v 0.0231153 0.001906425 0.0121875
v 0.02310963 0.001656495 0.0121875
v 0.031818945 -0.003327825 0.0121875
v 0.03211545 0.005728395 0.0121875
v 0.03284514 -0.00337152 0.0121875
v 0.033300645 0.00526437 0.0121875
v 0.03386427 -0.003455715 0.0121875
v 0.03446463 0.004763295 0.0121875
v 0.0348756 -0.003579855 0.0121875
v 0.035607375 0.004225155 0.0121875
v 0.03587802 -0.003743085 0.0121875
v 0.036728895 0.00364995 0.0121875
v 0.036870765 -0.00394482 0.0121875
v 0.036916755 0.003547245 0.0121875
v 0.03785442 -0.004185495 0.0121875
v 0.037114755 0.003444585 0.0121875
v 0.03732192 0.00334068 0.0121875
v 0.037540125 0.00323799 0.0121875
v 0.03777351 0.00314145 0.0121875
v 0.038021925 0.00305142 0.0121875
v 0.03882903 -0.004465155 0.0121875
v 0.03829026 0.002976945 0.0121875
v 0.038578095 0.00291702 0.0121875
v 0.03888753 0.002884575 0.0121875
v 0.039794595 -0.004783815 0.0121875
v 0.039220755 0.002878485 0.0121875
v 0.03956367 0.002911485 0.0121875
v 0.039740385 0.002943585 0.0121875
v 0.039918945 0.002985855 0.0121875
v 0.040085115 -0.004883085 0.0121875
v 0.04009494 0.003039285 0.0121875
v 0.040381395 -0.00501282 0.0121875
v 0.040264095 0.00310494 0.0121875
v 0.040429275 0.00318483 0.0121875
v 0.040688955 -0.00517131 0.0121875
v 0.04059102 0.00327726 0.0121875
v 0.040746 0.003378855 0.0121875
v 0.040842855 -0.005262615 0.0121875
v 0.04089093 0.003486255 0.0121875
v 0.040991325 -0.00536367 0.0121875
v 0.041135625 -0.00547524 0.0121875
v 0.04114899 0.003722565 0.0121875
v 0.04127718 -0.005596485 0.0121875
v 0.041370375 0.00397893 0.0121875
v 0.04141209 -0.005726355 0.0121875
v 0.041536485 -0.00586377 0.0121875
v 0.041553015 0.004233405 0.0121875
v 0.041650275 -0.006010245 0.0121875
v 0.04169973 0.004489605 0.0121875
v 0.041755215 -0.00616575 0.0121875
v 0.041819715 0.00473916 0.0121875
v 0.04185018 -0.006326895 0.0121875
v 0.041912235 0.004983135 0.0121875
v 0.041934 -0.00649032 0.0121875
v 0.041987685 0.005218425 0.0121875
v 0.04200528 -0.00665772 0.0121875
v 0.04204524 0.005445 0.0121875
v 0.042064995 -0.006830025 0.0121875
v 0.042092385 0.00566391 0.0121875
v 0.04215945 -0.00717132 0.0121875
v 0.04212933 0.00587496 0.0121875
v 0.042160755 0.006079545 0.0121875
v 0.042227115 -0.00749613 0.0121875
v 0.04218897 0.006278235 0.0121875
v 0.04221276 0.00647073 0.0121875
v 0.04226475 -0.007810515 0.0121875
v 0.04228653 -0.007967295 0.0121875
v 0.042308775 -0.008124105 0.0121875
v 0.042373755 0.00760413 0.0121875
v 0.04238925 -0.00849012 0.0121875
v 0.042508635 -0.0088314 0.0121875
v 0.042559155 0.008734575 0.0121875
v 0.04266693 -0.009147945 0.0121875
v 0.04276896 0.009862065 0.0121875
v 0.04286685 -0.0094425 0.0121875
v 0.042830805 0.01019772 0.0121875
v 0.0429 0.010526895 0.0121875
v 0.043109835 -0.00971652 0.0121875
v 0.042976545 0.01084962 0.0121875
v 0.043060455 0.01116588 0.0121875
v 0.04315173 0.01147569 0.0121875
v 0.04338402 -0.009958005 0.0121875
v 0.043249905 0.011779095 0.0121875
v 0.04335441 0.012076185 0.0121875
v 0.043466295 0.012366825 0.0121875
v 0.04367985 -0.010156305 0.0121875
v 0.043586595 0.012650835 0.0121875
v 0.04371642 0.012928065 0.0121875
v 0.04400667 -0.01031712 0.0121875
v 0.043856745 0.01319865 0.0121875
v 0.04400733 0.01346373 0.0121875
v 0.04435329 -0.01043724 0.0121875
v 0.044167365 0.013722375 0.0121875
v 0.044336055 0.01397334 0.0121875
v 0.04451259 0.014215365 0.0121875
v 0.04470357 -0.01051038 0.0121875
v 0.04469631 0.01444731 0.0121875
v 0.044889225 0.014670495 0.0121875
v 0.04506399 -0.010535625 0.0121875
v 0.04509087 0.014885145 0.0121875
v 0.04543077 -0.01051539 0.0121875
v 0.045513255 0.015285675 0.0121875
v 0.04578624 -0.01045062 0.0121875
v 0.045952335 0.015643245 0.0121875
v 0.046126335 -0.010339395 0.0121875
v 0.04641252 0.015958335 0.0121875
v 0.046457625 -0.01018185 0.0121875
v 0.046764765 -0.00998604 0.0121875
v 0.046882905 0.016234185 0.0121875
v 0.047036985 -0.00975639 0.0121875
v 0.047282925 -0.00948621 0.0121875
v 0.047359635 0.01647069 0.0121875
v 0.04740126 0.009400875 0.0121875
v 0.047403645 0.009795495 0.0121875
v 0.047494275 -0.00918711 0.0121875
v 0.04744497 0.009006765 0.0121875
v 0.04753377 0.008622255 0.0121875
v 0.047660565 -0.008872335 0.0121875
v 0.04766703 0.008249025 0.0121875
v 0.04778307 -0.008540295 0.0121875
v 0.047842335 0.007895085 0.0121875
v 0.04786416 -0.008187945 0.0121875
v 0.047903865 -0.0078153 0.0121875
v 0.047951085 -0.00702045 0.0121875
v 0.04803903 -0.006238545 0.0121875
v 0.048057675 0.00756315 0.0121875
v 0.048167715 -0.005469615 0.0121875
v 0.048310335 0.007258665 0.0121875
v 0.048337125 -0.004713645 0.0121875
v 0.04840134 -0.004454865 0.0121875
v 0.048472815 -0.00419922 0.0121875
v 0.048551595 -0.00394674 0.0121875
v 0.04859592 0.006985815 0.0121875
v 0.048637635 -0.00369741 0.0121875
v 0.04873098 -0.003451215 0.0121875
v 0.0488316 -0.00320817 0.0121875
v 0.04891248 0.006747375 0.0121875
v 0.04893918 -0.00296709 0.0121875
v 0.04905366 -0.002727735 0.0121875
v 0.04917543 -0.00249153 0.0121875
v 0.04925304 0.006547995 0.0121875
v 0.049304865 -0.0022599 0.0121875
v 0.04944234 -0.002034255 0.0121875
v 0.04958823 -0.00181605 0.0121875
v 0.049616205 0.0063888 0.0121875
v 0.049743105 -0.001603665 0.0121875
v 0.04990677 -0.00139563 0.0121875
v 0.04999359 0.00627345 0.0121875
v 0.05007846 -0.00119361 0.0121875
v 0.05025747 -0.000999225 0.0121875
v 0.050383455 0.00620223 0.0121875
v 0.05044305 -0.000814125 0.0121875
v 0.05063445 -0.00063999 0.0121875
v 0.05077593 0.006177075 0.0121875
v 0.05083356 -0.00047598 0.0121875
v 0.05104137 -0.000320625 0.0121875
v 0.051172755 0.00619761 0.0121875
v 0.05125572 -0.000174585 0.0121875
v 0.051474555 -3.846e-05 0.0121875
v 0.0519171 0.000201495 0.0121875
v 0.05237055 0.000392655 0.0121875
v 0.052833375 0.00054159 0.0121875
v 0.05328408 0.000662955 0.0121875
v 0.053715495 0.00076164 0.0121875
v 0.054134805 0.000832755 0.0121875
v 0.05454198 0.000876315 0.0121875
v 0.05560791 0.0010356 0.0121875
v 0.056671395 0.00120645 0.0121875
v 0.057732465 0.001388865 0.0121875
v 0.05879109 0.001582845 0.0121875
v 0.059847285 0.00178839 0.0121875
v 0.060901065 0.0020055 0.0121875
v 0.06195252 0.00223419 0.0121875
v 0.06300156 0.002474445 0.0121875
v 0.064048065 0.00272625 0.0121875
v 0.06509196 0.002989605 0.0121875
v 0.066133125 0.00326448 0.0121875
v 0.067171665 0.003550905 0.0121875
v 0.06820761 0.003848865 0.0121875
v 0.069240915 0.004158375 0.0121875
v 0.069435765 0.008223225 0.0121875
v 0.070271625 0.00447942 0.0121875
v 0.069836655 0.0082947 0.0121875
v 0.070215615 0.008405985 0.0121875
v 0.07057266 0.00855711 0.0121875
v 0.071299725 0.004812015 0.0121875
v 0.070909935 0.00874986 0.0121875
v 0.071230275 0.008986635 0.0121875
v 0.071522655 0.00925815 0.0121875
v 0.07167159 0.00494931 0.0121875
v 0.07177572 0.009555105 0.0121875
v 0.07203009 0.005092455 0.0121875
v 0.07199385 0.009884805 0.0121875
v 0.07217559 0.01024116 0.0121875
v 0.07237524 0.00524148 0.0121875
v 0.072313665 0.010610175 0.0121875
v 0.072405195 0.01099044 0.0121875
v 0.07270701 0.005396355 0.0121875
v 0.07245333 0.011387055 0.0121875
v 0.07245678 0.01178454 0.0121875
v 0.072555315 0.018157935 0.0121875
v 0.07284063 0.018042645 0.0121875
v 0.072259185 0.018263655 0.0121875
v 0.072413865 0.012171525 0.0121875
v 0.072323385 0.0125586 0.0121875
v 0.07218951 0.01293501 0.0121875
v 0.071951595 0.01835883 0.0121875
v 0.07201689 0.013285995 0.0121875
v 0.071801295 0.01361577 0.0121875
v 0.071632035 0.018442665 0.0121875
v 0.07154589 0.013923645 0.0121875
v 0.0713013 0.01851642 0.0121875
v 0.0712608 0.014197515 0.0121875
v 0.07095969 0.01858044 0.0121875
v 0.070948815 0.0144318 0.0121875
v 0.070607175 0.01863477 0.0121875
v 0.07060404 0.01463265 0.0121875
v 0.070243755 0.01867938 0.0121875
v 0.070239615 0.01479348 0.0121875
v 0.069869445 0.018714285 0.0121875
v 0.06986829 0.014907645 0.0121875
v 0.069484245 0.01873947 0.0121875
v 0.06948681 0.01497684 0.0121875
v 0.06909267 0.015002385 0.0121875
v 0.06908814 0.01875495 0.0121875
v 0.06868587 0.014984265 0.0121875
v 0.067916385 0.01875336 0.0121875
v 0.06674574 0.018739905 0.0121875
v 0.065576205 0.01871454 0.0121875
v 0.064407795 0.01867731 0.0121875
v 0.063240495 0.018628185 0.0121875
v 0.06207429 0.018567165 0.0121875
v 0.06090912 0.018494235 0.0121875
v 0.059745075 0.018409425 0.0121875
v 0.0585822 0.01831275 0.0121875
v 0.057420585 0.01820421 0.0121875
v 0.05626029 0.01808385 0.0121875
v 0.05510127 0.01795164 0.0121875
v 0.053943495 0.01780758 0.0121875
v 0.052786965 0.01765167 0.0121875
v 0.051631695 0.01748391 0.0121875
v 0.050477655 0.0173043 0.0121875
v 0.05042286 0.01295865 0.0121875
v 0.05008062 0.017245455 0.0121875
v 0.05003118 0.01289172 0.0121875
v 0.0496662 0.017168835 0.0121875
v 0.04965375 0.01278117 0.0121875
v 0.04923384 0.017075265 0.0121875
v 0.04928898 0.01262625 0.0121875
v 0.048946035 0.012430995 0.0121875
v 0.04878117 0.016968375 0.0121875
v 0.04862658 0.012196095 0.0121875
v 0.0483162 0.016835955 0.0121875
v 0.04833798 0.011926935 0.0121875
v 0.04808139 0.01162491 0.0121875
v 0.047842845 0.01666881 0.0121875
v 0.047862525 0.011296125 0.0121875
v 0.04768272 0.01094367 0.0121875
v 0.04754535 0.010572615 0.0121875
v 0.04745187 0.010188855 0.0121875
v 0.073025415 0.005557095 0.0121875
v 0.073115805 0.01791873 0.0121875
v 0.073330455 0.0057237 0.0121875
v 0.073381455 0.01778718 0.0121875
v 0.07362213 0.00589617 0.0121875
v 0.07363827 0.017648955 0.0121875
v 0.073900065 0.00607479 0.0121875
v 0.07388685 0.017504955 0.0121875
v 0.074126415 0.017353395 0.0121875
v 0.074163105 0.00626046 0.0121875
v 0.0743565 0.017193675 0.0121875
v 0.07441197 0.006452625 0.0121875
v 0.074577285 0.017026455 0.0121875
v 0.07464762 0.006650565 0.0121875
v 0.074788875 0.01685241 0.0121875
v 0.074870925 0.006853545 0.0121875
v 0.07499142 0.0166722 0.0121875
v 0.075082845 0.007060845 0.0121875
v 0.07518507 0.0164865 0.0121875
v 0.07528428 0.007271745 0.0121875
v 0.075369945 0.01629597 0.0121875
v 0.075476085 0.0074856 0.0121875
v 0.075546195 0.01610019 0.0121875
v 0.075656985 0.00770385 0.0121875
v 0.075713805 0.01589757 0.0121875
v 0.075826365 0.007926945 0.0121875
v 0.075872595 0.0156888 0.0121875
v 0.075984555 0.00815427 0.0121875
v 0.076022385 0.0154746 0.0121875
v 0.0761319 0.008385255 0.0121875
v 0.07616298 0.015255705 0.0121875
v 0.076268745 0.008619285 0.0121875
v 0.076294215 0.015032835 0.0121875
v 0.07639542 0.00885579 0.0121875
v 0.076415895 0.014806755 0.0121875
v 0.07651227 0.009094185 0.0121875
v 0.07652793 0.01457784 0.0121875
v 0.07661928 0.009334905 0.0121875
v 0.07663086 0.014343885 0.0121875
v 0.07671597 0.009579435 0.0121875
v 0.076724625 0.014105085 0.0121875
v 0.076802355 0.0098271 0.0121875
v 0.076809015 0.013862355 0.0121875
v 0.07687851 0.010077135 0.0121875
v 0.076883805 0.013616625 0.0121875
v 0.076944465 0.010328805 0.0121875
v 0.076948785 0.013368825 0.0121875
v 0.077000295 0.01058133 0.0121875
v 0.07700373 0.01311987 0.0121875
v 0.077046045 0.01083399 0.0121875
v 0.077048415 0.01287072 0.0121875
v 0.077081745 0.011086335 0.0121875
v 0.07708302 0.012619965 0.0121875
v 0.077107215 0.011340645 0.0121875
v 0.077107815 0.01236624 0.0121875
v 0.077122485 0.01159674 0.0121875
v 0.07712271 0.01211049 0.0121875
v 0.077127615 0.011853675 0.0121875
f 1 2 3
f 1 4 2
f 1 3 5
f 5 3 6
f 7 1 5
f 7 5 8
f 9 7 8
f 9 8 10
f 11 9 10
f 11 10 12
f 13 11 12
f 13 12 14
f 15 13 14
f 15 14 16
f 17 15 16
f 17 16 18
f 17 18 19
f 17 19 20
f 17 20 21
f 17 21 22
f 23 17 22
f 23 22 24
f 23 24 25
f 23 25 26
f 23 26 27
f 28 23 27
f 28 27 29
f 28 29 30
f 31 28 30
f 31 30 32
f 31 32 33
f 34 31 33
f 34 33 35
f 36 34 35
f 36 35 37
f 36 37 38
f 39 36 38
f 39 38 40
f 41 39 40
f 41 40 42
f 43 41 42
f 43 42 44
f 45 43 44
f 45 44 46
f 47 45 46
f 47 46 48
f 49 47 48
f 50 49 48
f 50 48 51
f 52 50 51
f 52 51 53
f 54 52 53
f 54 53 55
f 56 54 55
f 56 55 57
f 58 56 57
f 58 57 59
f 58 59 60
f 61 58 60
f 61 60 62
f 63 61 62
f 63 62 64
f 63 64 65
f 66 63 65
f 66 65 67
f 68 66 67
f 69 68 67
f 70 69 67
f 71 70 67
f 72 71 67
f 72 67 73
f 74 72 73
f 75 74 73
f 75 73 76
f 77 75 76
f 77 78 75
f 77 79 78
f 79 80 78
f 80 81 78
f 81 82 78
f 81 83 82
f 83 84 82
f 84 85 82
f 85 86 82
f 85 87 86
f 87 88 86
f 88 89 86
f 88 90 89
f 90 91 89
f 91 92 89
f 92 93 89
f 92 94 93
f 94 95 93
f 95 96 93
f 95 97 96
f 97 98 96
f 98 99 96
f 98 100 99
f 100 101 99
f 101 102 99
f 101 103 102
f 103 104 102
f 103 105 104
f 103 106 105
f 106 107 105
f 106 108 107
f 108 109 107
f 108 110 109
f 110 111 109
f 110 112 111
f 110 113 112
f 113 114 112
f 115 114 113
f 115 116 114
f 117 115 113
f 117 113 118
f 119 117 118
f 120 119 118
f 121 120 118
f 122 121 118
f 122 118 123
f 124 122 123
f 125 124 123
f 125 123 126
f 127 125 126
f 128 127 126
f 128 126 129
f 130 128 129
f 130 129 131
f 132 130 131
f 133 132 131
f 133 131 134
f 133 134 135
f 135 134 136
f 135 136 137
f 135 137 138
f 135 138 139
f 135 139 140
f 135 140 141
f 135 141 142
f 135 142 143
f 135 143 144
f 135 144 145
f 135 145 146
f 135 146 147
f 135 147 148
f 135 148 149
f 135 149 150
f 135 150 151
f 152 135 151
f 152 151 153
f 154 152 153
f 154 153 155
f 156 154 155
f 156 155 157
f 158 156 157
f 159 158 157
f 159 157 160
f 161 159 160
f 161 160 162
f 163 161 162
f 163 162 164
f 165 163 164
f 165 164 166
f 167 165 166
f 167 166 168
f 169 167 168
f 169 168 170
f 171 169 170
f 171 170 172
f 173 171 172
f 174 173 172
f 174 172 175
f 176 174 175
f 177 176 175
f 178 177 175
f 178 175 179
f 175 180 179
f 181 178 179
f 182 181 179
f 182 179 183
f 184 182 183
f 185 184 183
f 185 183 186
f 187 185 186
f 188 187 186
f 188 186 189
f 190 188 189
f 190 189 191
f 192 190 191
f 193 192 191
f 194 193 191
f 194 191 195
f 196 194 195
f 197 196 195
f 197 195 198
f 197 198 199
f 197 199 200
f 197 200 201
f 197 201 202
f 197 202 203
f 197 203 204
f 197 204 205
f 197 205 206
f 197 206 207
f 197 207 208
f 197 208 209
f 197 209 210
f 197 210 211
f 197 211 212
f 197 212 213
f 197 213 214
f 197 214 215
f 197 215 216
f 197 216 217
f 197 217 218
f 219 197 218
f 219 218 220
f 219 220 221
f 219 221 222
f 219 222 223
f 219 223 224
f 225 219 224
f 225 224 226
f 225 226 227
f 228 225 227
f 228 227 229
f 228 229 230
f 231 228 230
f 231 230 232
f 231 232 233
f 234 231 233
f 234 233 235
f 236 234 235
f 236 235 237
f 236 237 238
f 239 236 238
f 239 238 240
f 239 240 241
f 242 239 241
f 242 241 243
f 242 243 244
f 245 242 244
f 245 244 246
f 247 245 246
f 247 246 248
f 247 248 249
f 247 249 250
f 247 250 251
f 252 247 251
f 252 251 253
f 254 252 253
f 254 253 255
f 256 254 255
f 256 255 257
f 116 256 257
f 116 257 114
f 175 258 180
f 258 259 180
f 258 260 259
f 260 261 259
f 260 262 261
f 262 263 261
f 262 264 263
f 264 265 263
f 265 266 263
f 265 267 266
f 267 268 266
f 267 269 268
f 269 270 268
f 269 271 270
f 271 272 270
f 271 273 272
f 273 274 272
f 273 275 274
f 275 276 274
f 275 277 276
f 277 278 276
f 277 279 278
f 279 280 278
f 279 281 280
f 281 282 280
f 281 283 282
f 283 284 282
f 283 285 284
f 285 286 284
f 285 287 286
f 287 288 286
f 287 289 288
f 289 290 288
f 289 291 290
f 291 292 290
f 291 293 292
f 293 294 292
f 293 295 294
f 295 296 294
f 295 297 296
f 297 298 296
f 297 299 298
f 299 300 298
f 299 301 300
f 301 302 300
f 301 303 302
f 303 304 302
f 303 305 304
f 305 306 304
f 305 307 306
f 307 308 306
f 307 309 308
f 309 310 308
f 309 311 310
f 311 312 310
f 311 313 312
f 313 314 312
f 313 315 314
f 315 316 314
f 5 6 317
f 5 317 318
f 5 318 319
f 5 319 320
f 321 5 320
f 321 320 322
f 323 321 322
f 323 322 324
f 325 323 324
f 325 324 326
f 327 325 326
f 327 326 328
f 329 327 328
f 330 329 328
f 330 328 331
f 332 330 331
f 332 331 333
f 334 332 333
f 334 333 335
f 336 334 335
f 336 335 337
f 338 336 337
f 339 338 337
f 339 337 340
f 341 339 340
f 341 340 342
f 343 341 342
f 343 342 344
f 345 343 344
f 345 344 346
f 345 346 347
f 348 345 347
f 348 347 349
f 348 349 350
f 348 350 351
f 352 348 351
f 353 352 351
f 353 354 352
f 353 351 355
f 353 355 356
f 357 353 356
f 357 356 358
f 357 358 359
f 360 357 359
f 360 359 361
f 362 360 361
f 362 361 363
f 364 362 363
f 364 363 365
f 366 364 365
f 366 365 367
f 368 366 367
f 369 368 367
f 369 367 370
f 371 369 370
f 371 370 372
f 373 371 372
f 373 372 374
f 375 373 374
f 375 374 376
f 377 375 376
f 377 376 378
f 379 377 378
f 379 378 380
f 379 380 381
f 4 379 381
f 4 381 382
f 4 382 383
f 4 383 384
f 4 384 385
f 4 385 2
f 353 386 354
f 386 387 354
f 386 388 387
f 388 389 387
f 388 390 389
f 390 391 389
f 390 392 391
f 392 393 391
f 393 394 391
f 393 395 394
f 395 396 394
f 395 397 396
f 395 398 397
f 398 399 397
f 398 400 399
f 400 401 399
f 400 402 401
f 402 403 401
f 402 404 403
f 404 405 403
f 404 406 405
f 406 407 405
f 407 408 405
f 407 409 408
f 409 410 408
f 409 411 410
f 411 412 410
f 411 413 412
f 411 414 413
f 414 415 413
f 414 416 415
f 416 417 415
f 416 418 417
f 418 419 417
f 418 420 419
f 420 421 419
f 420 422 421
f 422 423 421
f 423 424 421
f 423 425 424
f 425 426 424
f 425 427 426
f 427 428 426
f 427 429 428
f 430 431 432
f 433 431 430
f 434 430 432
f 434 432 435
f 434 435 436
f 436 435 437
f 436 437 438
f 438 437 439
f 438 439 440
f 440 439 441
f 440 441 442
f 442 441 443
f 442 443 444
f 444 443 445
f 444 445 446
f 446 445 447
f 446 447 448
f 448 447 449
f 448 449 450
f 450 449 451
f 450 451 452
f 452 451 453
f 452 453 454
f 454 453 455
f 454 455 456
f 456 455 457
f 456 457 458
f 458 457 459
f 458 459 460
f 460 459 461
f 460 461 462
f 462 461 463
f 462 463 464
f 464 463 465
f 464 465 466
f 466 465 467
f 466 467 468
f 468 467 469
f 468 469 470
f 470 469 471
f 470 471 472
f 472 471 473
f 472 473 474
f 474 473 475
f 474 475 476
f 476 475 477
f 476 477 478
f 478 477 479
f 478 479 480
f 480 479 481
f 480 481 482
f 482 481 483
f 482 483 484
f 484 483 485
f 484 485 486
f 486 485 487
f 486 487 488
f 488 487 489
f 488 489 490
f 490 489 491
f 490 491 492
f 492 491 493
f 492 493 494
f 494 493 495
f 494 495 496
f 496 495 497
f 496 497 498
f 498 497 499
f 498 499 500
f 500 499 501
f 500 501 502
f 502 501 503
f 502 503 504
f 504 503 505
f 504 505 506
f 506 505 507
f 506 507 508
f 508 507 509
f 508 509 510
f 510 509 511
f 510 511 512
f 512 511 513
f 512 513 433
f 433 513 431
f 514 515 516
f 517 515 514
f 514 516 518
f 518 516 519
f 518 519 520
f 520 519 521
f 520 521 522
f 522 521 523
f 522 523 524
f 524 523 525
f 525 523 526
f 525 526 527
f 527 526 528
f 527 528 529
f 529 528 530
f 529 530 531
f 531 530 532
f 531 532 533
f 533 532 534
f 533 534 535
f 535 534 536
f 535 536 537
f 537 536 538
f 537 538 539
f 539 538 540
f 539 540 541
f 541 540 542
f 541 542 543
f 543 542 544
f 543 544 545
f 545 544 546
f 545 546 547
f 547 546 548
f 547 548 549
f 549 548 550
f 549 550 551
f 551 550 552
f 552 550 553
f 552 553 554
f 554 553 555
f 554 555 556
f 556 555 557
f 556 557 558
f 558 557 559
f 558 559 560
f 560 559 561
f 560 561 562
f 562 561 563
f 563 561 564
f 563 564 565
f 565 564 566
f 565 566 567
f 567 566 568
f 567 568 569
f 569 568 570
f 569 570 571
f 571 570 572
f 571 572 573
f 573 572 574
f 573 574 575
f 575 574 576
f 575 576 577
f 577 576 578
f 577 578 579
f 579 578 580
f 579 580 581
f 581 580 582
f 581 582 583
f 581 583 584
f 584 583 585
f 584 585 586
f 586 585 587
f 586 587 588
f 588 587 589
f 588 589 590
f 590 589 591
f 590 591 592
f 592 591 593
f 592 593 594
f 594 593 595
f 594 595 596
f 596 595 597
f 596 597 598
f 598 597 599
f 598 599 600
f 600 599 601
f 600 601 602
f 602 601 603
f 602 603 604
f 604 603 605
f 604 605 606
f 606 605 607
f 606 607 608
f 608 607 609
f 608 609 610
f 610 609 611
f 610 611 612
f 612 611 613
f 612 613 614
f 614 613 615
f 614 615 616
f 616 615 617
f 616 617 618
f 618 617 619
f 618 619 620
f 620 619 621
f 620 621 622
f 622 621 623
f 622 623 624
f 624 623 625
f 624 625 626
f 626 625 627
f 626 627 628
f 628 627 629
f 628 629 630
f 630 629 631
f 630 631 632
f 632 631 633
f 632 633 634
f 634 633 635
f 634 635 636
f 636 635 637
f 636 637 638
f 638 637 639
f 638 639 640
f 640 639 641
f 640 641 642
f 642 641 643
f 642 643 644
f 644 643 645
f 644 645 646
f 646 645 647
f 646 647 648
f 648 647 649
f 648 649 650
f 650 649 651
f 650 651 652
f 652 651 653
f 652 653 654
f 654 653 655
f 654 655 656
f 656 655 657
f 656 657 658
f 658 657 659
f 658 659 660
f 660 659 661
f 660 661 662
f 662 661 663
f 662 663 664
f 664 663 665
f 664 665 666
f 666 665 667
f 666 667 668
f 668 667 669
f 668 669 670
f 670 669 671
f 670 671 672
f 672 671 673
f 672 673 674
f 674 673 675
f 674 675 676
f 676 675 677
f 676 677 678
f 678 677 679
f 678 679 680
f 680 679 681
f 680 681 682
f 682 681 683
f 682 683 684
f 684 683 685
f 684 685 686
f 686 685 687
f 686 687 688
f 688 687 689
f 688 689 690
f 690 689 691
f 690 691 692
f 692 691 693
f 692 693 694
f 694 693 695
f 694 695 696
f 696 695 697
f 696 697 698
f 698 697 699
f 698 699 700
f 700 699 701
f 700 701 702
f 702 701 703
f 702 703 704
f 704 703 705
f 704 705 706
f 706 705 707
f 706 707 708
f 708 707 709
f 708 709 710
f 710 709 711
f 710 711 712
f 712 711 713
f 712 713 714
f 714 713 715
f 714 715 716
f 716 715 717
f 716 717 718
f 718 717 719
f 718 719 720
f 720 719 721
f 720 721 722
f 722 721 723
f 722 723 724
f 724 723 725
f 724 725 726
f 726 725 727
f 726 727 728
f 728 727 729
f 728 729 730
f 730 729 731
f 730 731 732
f 732 731 733
f 732 733 734
f 734 733 735
f 734 735 736
f 736 735 737
f 736 737 738
f 738 737 739
f 738 739 740
f 740 739 741
f 740 741 742
f 742 741 743
f 742 743 744
f 744 743 745
f 744 745 746
f 746 745 747
f 746 747 748
f 748 747 749
f 748 749 750
f 750 749 751
f 750 751 752
f 752 751 753
f 752 753 754
f 754 753 755
f 754 755 756
f 756 755 757
f 756 757 758
f 758 757 759
f 758 759 760
f 760 759 761
f 760 761 762
f 762 761 763
f 762 763 764
f 764 763 765
f 764 765 766
f 766 765 767
f 766 767 768
f 768 767 769
f 768 769 770
f 770 769 771
f 770 771 772
f 772 771 773
f 773 771 774
f 773 774 775
f 775 774 776
f 776 774 777
f 776 777 778
f 778 777 779
f 778 779 780
f 780 779 781
f 780 781 782
f 782 781 783
f 782 783 784
f 784 783 785
f 784 785 786
f 786 785 787
f 786 787 788
f 788 787 789
f 788 789 790
f 790 789 791
f 791 789 792
f 791 792 793
f 791 793 794
f 794 793 795
f 794 795 796
f 794 796 797
f 797 796 798
f 797 798 799
f 797 799 800
f 800 799 801
f 800 801 802
f 802 801 803
f 802 803 804
f 804 803 805
f 804 805 806
f 806 805 807
f 806 807 808
f 808 807 809
f 808 809 810
f 810 809 811
f 810 811 812
f 812 811 813
f 812 813 814
f 814 813 815
f 814 815 816
f 816 815 817
f 816 817 818
f 818 817 819
f 818 819 820
f 820 819 821
f 820 821 822
f 822 821 823
f 822 823 824
f 824 823 825
f 824 825 826
f 826 825 827
f 826 827 828
f 828 827 829
f 828 829 830
f 830 829 831
f 830 831 832
f 832 831 833
f 832 833 834
f 834 833 835
f 834 835 836
f 836 835 837
f 836 837 838
f 838 837 839
f 838 839 840
f 840 839 841
f 840 841 842
f 842 841 843
f 842 843 844
f 844 843 845
f 844 845 846
f 846 845 847
f 846 847 848
f 848 847 849
f 848 849 850
f 850 849 851
f 850 851 852
f 852 851 853
f 852 853 854
f 854 853 855
f 854 855 856
f 856 855 857
f 856 857 858
f 858 857 859
f 858 859 860
f 860 859 861
f 861 859 862
f 861 862 863
f 863 862 864
f 864 862 865
f 864 865 866
f 866 865 867
f 867 865 868
f 867 868 869
f 869 868 870
f 870 868 871
f 870 871 872
f 872 871 873
f 873 871 874
f 873 874 875
f 875 874 876
f 876 874 877
f 876 877 878
f 878 877 879
f 879 877 880
f 879 880 881
f 881 880 882
f 881 882 883
f 883 882 884
f 883 884 885
f 885 884 886
f 885 886 887
f 885 887 888
f 888 887 889
f 888 889 890
f 890 889 891
f 890 891 892
f 892 891 893
f 892 893 894
f 894 893 895
f 894 895 896
f 896 895 897
f 896 897 898
f 898 897 899
f 898 899 900
f 898 900 901
f 901 900 902
f 901 902 903
f 901 903 904
f 904 903 905
f 904 905 906
f 906 905 907
f 906 907 908
f 908 907 909
f 908 909 910
f 910 909 911
f 910 911 912
f 912 911 913
f 912 913 914
f 914 913 915
f 914 915 916
f 916 915 917
f 916 917 918
f 918 917 919
f 918 919 920
f 920 919 921
f 920 921 922
f 922 921 923
f 922 923 924
f 924 923 925
f 924 925 926
f 926 925 927
f 926 927 928
f 928 927 929
f 928 929 930
f 930 929 931
f 930 931 932
f 932 931 933
f 932 933 934
f 934 933 935
f 934 935 936
f 936 935 937
f 936 937 938
f 938 937 939
f 938 939 940
f 940 939 941
f 940 941 942
f 942 941 943
f 942 943 944
f 944 943 945
f 944 945 946
f 946 945 947
f 946 947 948
f 948 947 949
f 948 949 950
f 950 949 951
f 950 951 952
f 952 951 953
f 952 953 954
f 954 953 955
f 954 955 956
f 956 955 957
f 956 957 958
f 958 957 959
f 958 959 960
f 960 959 961
f 960 961 962
f 962 961 963
f 962 963 964
f 964 963 965
f 964 965 966
f 966 965 967
f 966 967 968
f 968 967 969
f 968 969 970
f 970 969 971
f 970 971 972
f 972 971 973
f 972 973 974
f 974 973 975
f 974 975 976
f 976 975 977
f 976 977 978
f 978 977 979
f 978 979 980
f 980 979 981
f 980 981 982
f 982 981 983
f 982 983 984
f 984 983 985
f 984 985 986
f 986 985 987
f 986 987 988
f 988 987 989
f 988 989 990
f 990 989 991
f 990 991 992
f 992 991 993
f 992 993 994
f 994 993 995
f 994 995 996
f 996 995 997
f 996 997 998
f 998 997 999
f 998 999 1000
f 1000 999 1001
f 1000 1001 1002
f 1002 1001 1003
f 1002 1003 1004
f 1004 1003 1005
f 1004 1005 1006
f 1006 1005 1007
f 1006 1007 1008
f 1008 1007 1009
f 1008 1009 1010
f 1010 1009 1011
f 1010 1011 1012
f 1012 1011 1013
f 1012 1013 1014
f 1014 1013 1015
f 1014 1015 1016
f 1016 1015 1017
f 1016 1017 1018
f 1018 1017 1019
f 1018 1019 1020
f 1020 1019 1021
f 1020 1021 1022
f 1022 1021 1023
f 1022 1023 1024
f 1024 1023 1025
f 1024 1025 1026
f 1026 1025 1027
f 1026 1027 1028
f 1028 1027 1029
f 1028 1029 1030
f 1030 1029 1031
f 1030 1031 1032
f 1032 1031 1033
f 1032 1033 1034
f 1034 1033 1035
f 1034 1035 1036
f 1036 1035 1037
f 1036 1037 1038
f 1038 1037 1039
f 1038 1039 1040
f 1040 1039 1041
f 1040 1041 1042
f 1042 1041 1043
f 1042 1043 1044
f 1044 1043 1045
f 1044 1045 1046
f 1046 1045 1047
f 1046 1047 1048
f 1048 1047 1049
f 1048 1049 1050
f 1050 1049 1051
f 1050 1051 1052
f 1052 1051 1053
f 1052 1053 1054
f 1054 1053 1055
f 1054 1055 1056
f 1056 1055 1057
f 1056 1057 1058
f 1058 1057 1059
f 1058 1059 1060
f 1060 1059 1061
f 1060 1061 1062
f 1062 1061 1063
f 1062 1063 1064
f 1064 1063 1065
f 1064 1065 1066
f 1066 1065 1067
f 1066 1067 1068
f 1068 1067 1069
f 1068 1069 1070
f 1070 1069 1071
f 1070 1071 1072
f 1072 1071 1073
f 1072 1073 1074
f 1074 1073 1075
f 1074 1075 1076
f 1076 1075 1077
f 1076 1077 1078
f 1078 1077 1079
f 1078 1079 1080
f 1080 1079 1081
f 1080 1081 1082
f 1082 1081 1083
f 1082 1083 1084
f 1084 1083 1085
f 1084 1085 1086
f 1086 1085 1087
f 1086 1087 1088
f 1088 1087 1089
f 1088 1089 1090
f 1090 1089 1091
f 1090 1091 1092
f 1092 1091 1093
f 1092 1093 1094
f 1094 1093 1095
f 1094 1095 1096
f 1096 1095 1097
f 1096 1097 1098
f 1098 1097 1099
f 1098 1099 1100
f 1100 1099 1101
f 1100 1101 1102
f 1102 1101 1103
f 1102 1103 1104
f 1104 1103 1105
f 1104 1105 1106
f 1106 1105 1107
f 1106 1107 1108
f 1108 1107 1109
f 1108 1109 1110
f 1110 1109 1111
f 1110 1111 1112
f 1112 1111 1113
f 1112 1113 1114
f 1114 1113 1115
f 1114 1115 1116
f 1116 1115 1117
f 1116 1117 1118
f 1118 1117 1119
f 1118 1119 1120
f 1120 1119 1121
f 1120 1121 1122
f 1122 1121 1123
f 1122 1123 1124
f 1124 1123 1125
f 1126 1124 1125
f 1126 1125 1127
f 1127 1125 1128
f 1127 1128 1129
f 1129 1128 1130
f 1129 1130 1131
f 1131 1130 1132
f 1131 1132 1133
f 1133 1132 1134
f 1133 1134 1135
f 1135 1134 1136
f 1135 1136 1137
f 1137 1136 1138
f 1137 1138 1139
f 1139 1138 1140
f 1139 1140 1141
f 1141 1140 1142
f 1141 1142 1143
f 1143 1142 1144
f 1143 1144 1145
f 1145 1144 1146
f 1145 1146 1147
f 1147 1146 1148
f 1147 1148 1149
f 1149 1148 1150
f 1149 1150 1151
f 1151 1150 1152
f 1151 1152 1153
f 1153 1152 1154
f 1153 1154 1155
f 1155 1154 1156
f 1155 1156 1157
f 1157 1156 1158
f 1157 1158 1159
f 1159 1158 1160
f 1159 1160 1161
f 1161 1160 1162
f 1161 1162 1163
f 1163 1162 1164
f 1163 1164 1165
f 1165 1164 1166
f 1165 1166 1167
f 1167 1166 1168
f 1167 1168 1169
f 1169 1168 1170
f 1169 1170 1171
f 1171 1170 1172
f 1171 1172 1173
f 1173 1172 1174
f 1173 1174 1175
f 1175 1174 1176
f 1175 1176 1177
f 1177 1176 1178
f 1177 1178 1179
f 1179 1178 1180
f 1179 1180 517
f 517 1180 1181
f 517 1181 515
f 1182 1183 1184
f 1185 1183 1182
f 1186 1182 1184
f 1186 1184 1187
f 1186 1187 1188
f 1188 1187 1189
f 1188 1189 1190
f 1190 1189 1191
f 1190 1191 1192
f 1192 1191 1193
f 1192 1193 1194
f 1194 1193 1195
f 1194 1195 1196
f 1196 1195 1197
f 1196 1197 1198
f 1198 1197 1199
f 1198 1199 1200
f 1200 1199 1201
f 1200 1201 1202
f 1202 1201 1203
f 1202 1203 1204
f 1204 1203 1205
f 1204 1205 1206
f 1206 1205 1207
f 1206 1207 1208
f 1208 1207 1209
f 1208 1209 1210
f 1210 1209 1211
f 1210 1211 1212
f 1212 1211 1213
f 1212 1213 1214
f 1214 1213 1215
f 1214 1215 1216
f 1216 1215 1217
f 1216 1217 1218
f 1218 1217 1219
f 1218 1219 1220
f 1220 1219 1221
f 1220 1221 1222
f 1222 1221 1223
f 1222 1223 1224
f 1224 1223 1225
f 1224 1225 1226
f 1226 1225 1227
f 1226 1227 1228
f 1228 1227 1229
f 1228 1229 1230
f 1230 1229 1231
f 1230 1231 1232
f 1232 1231 1233
f 1232 1233 1234
f 1234 1233 1235
f 1234 1235 1236
f 1236 1235 1237
f 1236 1237 1238
f 1238 1237 1239
f 1238 1239 1240
f 1240 1239 1241
f 1240 1241 1242
f 1242 1241 1243
f 1242 1243 1244
f 1244 1243 1245
f 1244 1245 1246
f 1246 1245 1247
f 1246 1247 1248
f 1248 1247 1249
f 1248 1249 1250
f 1250 1249 1251
f 1250 1251 1252
f 1252 1251 1253
f 1252 1253 1254
f 1254 1253 1255
f 1254 1255 1256
f 1256 1255 1257
f 1256 1257 1258
f 1258 1257 1259
f 1258 1259 1260
f 1260 1259 1261
f 1260 1261 1262
f 1262 1261 1263
f 1262 1263 1264
f 1264 1263 1265
f 1264 1265 1266
f 1266 1265 1267
f 1266 1267 1268
f 1268 1267 1269
f 1268 1269 1270
f 1270 1269 1271
f 1270 1271 1272
f 1272 1271 1273
f 1272 1273 1274
f 1274 1273 1275
f 1274 1275 1276
f 1276 1275 1277
f 1276 1277 1278
f 1278 1277 1279
f 1278 1279 1280
f 1280 1279 1281
f 1280 1281 1282
f 1282 1281 1283
f 1282 1283 1284
f 1284 1283 1285
f 1284 1285 1286
f 1286 1285 1287
f 1286 1287 1288
f 1288 1287 1289
f 1288 1289 1290
f 1290 1289 1291
f 1290 1291 1292
f 1292 1291 1293
f 1292 1293 1185
f 1185 1293 1183
f 1294 1295 1296
f 1297 1295 1294
f 1294 1296 1298
f 1294 1298 1299
f 1294 1299 1300
f 1294 1300 1301
f 1294 1301 1302
f 1303 1294 1302
f 1303 1302 1304
f 1303 1304 1305
f 1306 1303 1305
f 1306 1305 1307
f 1308 1306 1307
f 1308 1307 1309
f 1310 1308 1309
f 1310 1309 1311
f 1312 1310 1311
f 1312 1311 1313
f 1314 1312 1313
f 1314 1313 1315
f 1316 1314 1315
f 1316 1315 1317
f 1318 1316 1317
f 1318 1317 1319
f 1320 1318 1319
f 1321 1320 1319
f 1321 1319 1322
f 1323 1321 1322
f 1323 1322 1324
f 1325 1323 1324
f 1325 1324 1326
f 1325 1326 1327
f 1328 1325 1327
f 1328 1327 1329
f 1328 1329 1330
f 1328 1330 1331
f 1332 1328 1331
f 1333 1332 1331
f 1333 1334 1332
f 1333 1331 1335
f 1333 1335 1336
f 1337 1333 1336
f 1337 1336 1338
f 1337 1338 1339
f 1340 1337 1339
f 1340 1339 1341
f 1342 1340 1341
f 1342 1341 1343
f 1344 1342 1343
f 1344 1343 1345
f 1346 1344 1345
f 1346 1345 1347
f 1348 1346 1347
f 1348 1347 1349
f 1350 1348 1349
f 1351 1350 1349
f 1351 1349 1352
f 1353 1351 1352
f 1353 1352 1354
f 1355 1353 1354
f 1355 1354 1356
f 1357 1355 1356
f 1357 1356 1358
f 1359 1357 1358
f 1360 1359 1358
f 1360 1358 1361
f 1362 1360 1361
f 1362 1361 1363
f 1364 1362 1363
f 1364 1363 1365
f 1364 1365 1366
f 1364 1366 1367
f 1364 1367 1368
f 1364 1368 1295
f 1297 1364 1295
f 1334 1369 1332
f 1334 1370 1369
f 1370 1371 1369
f 1370 1372 1371
f 1372 1373 1371
f 1372 1374 1373
f 1374 1375 1373
f 1374 1376 1375
f 1376 1377 1375
f 1376 1378 1377
f 1378 1379 1377
f 1378 1380 1379
f 1380 1381 1379
f 1380 1382 1381
f 1382 1383 1381
f 1382 1384 1383
f 1384 1385 1383
f 1384 1386 1385
f 1386 1387 1385
f 1386 1388 1387
f 1388 1389 1387
f 1388 1390 1389
f 1390 1391 1389
f 1390 1392 1391
f 1390 1393 1392
f 1393 1394 1392
f 1394 1395 1392
f 1394 1396 1395
f 1396 1397 1395
f 1396 1398 1397
f 1398 1399 1397
f 1398 1400 1399
f 1400 1401 1399
f 1400 1402 1401
f 1402 1403 1401
f 1402 1404 1403
f 1404 1405 1403
f 1404 1406 1405
f 1406 1407 1405
f 1406 1408 1407
f 1406 1409 1408
f 1409 1410 1408
f 1409 1411 1410
f 1411 1412 1410
f 1297 1294 1413
f 1414 1297 1413
f 1414 1413 1415
f 1416 1414 1415
f 1416 1415 1417
f 1418 1416 1417
f 1418 1417 1419
f 1420 1418 1419
f 1420 1419 1421
f 1422 1420 1421
f 1422 1421 1423
f 1424 1422 1423
f 1424 1423 1425
f 1426 1424 1425
f 1427 1426 1425
f 1428 1427 1425
f 1429 1428 1425
f 1430 1429 1425
f 1430 1425 1431
f 1432 1430 1431
f 1433 1432 1431
f 1434 1433 1431
f 1434 1431 1435
f 1436 1434 1435
f 1437 1436 1435
f 1438 1437 1435
f 1439 1438 1435
f 1439 1435 1440
f 1441 1439 1440
f 1441 1440 1442
f 1443 1441 1442
f 1444 1443 1442
f 1444 1442 1445
f 1446 1444 1445
f 1447 1446 1445
f 1447 1445 1448
f 1449 1447 1448
f 1449 1448 1450
f 1449 1450 1451
f 1452 1449 1451
f 1452 1451 1453
f 1454 1452 1453
f 1454 1453 1455
f 1454 1455 1456
f 1457 1454 1456
f 1457 1456 1458
f 1459 1457 1458
f 1459 1458 1460
f 1461 1459 1460
f 1461 1460 1462
f 1463 1461 1462
f 1463 1462 1464
f 1465 1463 1464
f 1465 1464 1466
f 1467 1465 1466
f 1467 1466 1468
f 1469 1467 1468
f 1469 1468 1470
f 1471 1469 1470
f 1472 1471 1470
f 1472 1470 1473
f 1474 1472 1473
f 1475 1474 1473
f 1475 1473 1476
f 1475 1476 1477
f 1475 1477 1478
f 1479 1475 1478
f 1479 1478 1480
f 1479 1480 1481
f 1482 1479 1481
f 1482 1481 1483
f 1484 1482 1483
f 1484 1483 1485
f 1486 1484 1485
f 1487 1486 1485
f 1487 1485 1488
f 1489 1487 1488
f 1490 1489 1488
f 1491 1490 1488
f 1491 1488 1492
f 1493 1491 1492
f 1494 1493 1492
f 1495 1494 1492
f 1495 1492 1496
f 1497 1495 1496
f 1498 1497 1496
f 1498 1496 1499
f 1500 1498 1499
f 1501 1500 1499
f 1501 1499 1502
f 1503 1501 1502
f 1504 1503 1502
f 1505 1504 1502
f 1505 1502 1506
f 1507 1505 1506
f 1508 1507 1506
f 1508 1506 1509
f 1510 1508 1509
f 1510 1509 1511
f 1512 1510 1511
f 1512 1511 1513
f 1514 1512 1513
f 1514 1513 1515
f 1516 1514 1515
f 1516 1515 1517
f 1516 1517 1518
f 1519 1516 1518
f 1519 1518 1520
f 1519 1520 1521
f 1522 1519 1521
f 1523 1522 1521
f 1523 1524 1522
f 1521 1525 1523
f 1526 1523 1525
f 1527 1526 1525
f 1527 1525 1528
f 1529 1527 1528
f 1529 1528 1530
f 1531 1529 1530
f 1531 1530 1532
f 1531 1532 1533
f 1531 1533 1534
f 1531 1534 1535
f 1536 1531 1535
f 1536 1535 1537
f 1538 1536 1537
f 1538 1537 1539
f 1538 1539 1540
f 1538 1540 1541
f 1538 1541 1542
f 1543 1538 1542
f 1543 1542 1544
f 1543 1544 1545
f 1543 1545 1546
f 1547 1543 1546
f 1547 1546 1548
f 1547 1548 1549
f 1547 1549 1550
f 1551 1547 1550
f 1551 1550 1552
f 1551 1552 1553
f 1551 1553 1554
f 1555 1551 1554
f 1555 1554 1556
f 1555 1556 1557
f 1558 1555 1557
f 1558 1557 1559
f 1558 1559 1560
f 1561 1558 1560
f 1561 1560 1562
f 1561 1562 1563
f 1564 1561 1563
f 1564 1563 1565
f 1564 1565 1566
f 1567 1564 1566
f 1567 1566 1568
f 1567 1568 1569
f 1567 1569 1570
f 1567 1570 1571
f 1567 1571 1572
f 1567 1572 1573
f 1567 1573 1574
f 1567 1574 1575
f 1567 1575 1576
f 1567 1576 1577
f 1567 1577 1578
f 1567 1578 1579
f 1567 1579 1580
f 1567 1580 1581
f 1567 1581 1582
f 1567 1582 1583
f 1567 1583 1584
f 1567 1584 1585
f 1567 1585 1586
f 1567 1586 1587
f 1567 1587 1588
f 1567 1588 1589
f 1567 1589 1590
f 1591 1567 1590
f 1591 1590 1592
f 1593 1591 1592
f 1594 1593 1592
f 1595 1594 1592
f 1595 1592 1596
f 1597 1595 1596
f 1598 1597 1596
f 1599 1598 1596
f 1599 1596 1600
f 1601 1599 1600
f 1601 1600 1602
f 1603 1601 1602
f 1604 1603 1602
f 1604 1602 1605
f 1606 1604 1605
f 1607 1606 1605
f 1607 1605 1608
f 1609 1607 1608
f 1610 1609 1608
f 1610 1608 1611
f 1608 1612 1611
f 1610 1611 1613
f 1614 1610 1613
f 1615 1614 1613
f 1616 1615 1613
f 1616 1613 1617
f 1618 1616 1617
f 1619 1618 1617
f 1619 1617 1620
f 1621 1619 1620
f 1621 1620 1622
f 1623 1621 1622
f 1623 1622 1624
f 1625 1623 1624
f 1625 1624 1626
f 1627 1625 1626
f 1627 1626 1628
f 1629 1627 1628
f 1629 1628 1630
f 1631 1629 1630
f 1631 1630 1632
f 1633 1631 1632
f 1634 1633 1632
f 1634 1632 1635
f 1636 1634 1635
f 1636 1635 1637
f 1636 1637 1638
f 1636 1638 1639
f 1636 1639 1640
f 1636 1640 1641
f 1636 1641 1642
f 1636 1642 1643
f 1636 1643 1644
f 1636 1644 1645
f 1636 1645 1646
f 1636 1646 1647
f 1636 1647 1648
f 1636 1648 1649
f 1636 1649 1650
f 1636 1650 1651
f 1636 1651 1652
f 1636 1652 1653
f 1653 1652 1654
f 1655 1653 1654
f 1655 1654 1656
f 1657 1655 1656
f 1657 1656 1658
f 1659 1657 1658
f 1660 1659 1658
f 1660 1658 1661
f 1662 1660 1661
f 1662 1661 1663
f 1664 1662 1663
f 1665 1664 1663
f 1665 1663 1666
f 1667 1665 1666
f 1668 1667 1666
f 1668 1666 1522
f 1669 1668 1522
f 1670 1669 1522
f 1524 1670 1522
f 1608 1671 1612
f 1671 1672 1612
f 1671 1673 1672
f 1673 1674 1672
f 1673 1675 1674
f 1675 1676 1674
f 1675 1677 1676
f 1677 1678 1676
f 1677 1679 1678
f 1677 1680 1679
f 1680 1681 1679
f 1680 1682 1681
f 1682 1683 1681
f 1682 1684 1683
f 1684 1685 1683
f 1684 1686 1685
f 1686 1687 1685
f 1686 1688 1687
f 1688 1689 1687
f 1688 1690 1689
f 1690 1691 1689
f 1690 1692 1691
f 1692 1693 1691
f 1692 1694 1693
f 1694 1695 1693
f 1694 1696 1695
f 1696 1697 1695
f 1696 1698 1697
f 1698 1699 1697
f 1698 1700 1699
f 1700 1701 1699
f 1700 1702 1701
f 1702 1703 1701
f 1702 1704 1703
f 1704 1705 1703
f 1704 1706 1705
f 1706 1707 1705
f 1706 1708 1707
f 1708 1709 1707
f 1708 1710 1709
f 1710 1711 1709
f 1710 1712 1711
f 1712 1713 1711
f 1712 1714 1713
f 1714 1715 1713
f 1714 1716 1715
f 1716 1717 1715
f 1716 1718 1717
f 1718 1719 1717
f 1718 1720 1719
f 1720 1721 1719
f 1720 1722 1721
f 1722 1723 1721
f 1722 1724 1723
f 1724 1725 1723
f 1724 1726 1725
f 1726 1727 1725
f 1726 1728 1727
