1824 1856 0
v -0.0144114 -0.15651108 0.0065625
v -0.009927645 -0.156121185 0.0065625
v -0.009879915 -0.1575 0.0065625
v -0.014517375 -0.155432295 0.0065625
v -0.014380245 -0.157599855 0.0065625
v -0.009927645 -0.158878815 0.0065625
v -0.014426085 -0.1581606 0.0065625
v -0.014554485 -0.158705415 0.0065625
v -0.014762865 -0.159226125 0.0065625
v -0.010067715 -0.16024221 0.0065625
v -0.01504734 -0.15971097 0.0065625
v -0.015400605 -0.160147065 0.0065625
v -0.01581438 -0.160525215 0.0065625
v -0.010300635 -0.161592105 0.0065625
v -0.01628043 -0.16083792 0.0065625
v -0.01678884 -0.161077725 0.0065625
v -0.017326155 -0.16123851 0.0065625
v -0.0178803 -0.16131747 0.0065625
v -0.03540051 -0.161551665 0.0065625
v -0.035555595 -0.162105255 0.0065625
v -0.018442905 -0.16131282 0.0065625
v -0.035266815 -0.161014545 0.0065625
v -0.01894428 -0.161263005 0.0065625
v -0.019427055 -0.161199525 0.0065625
v -0.019891215 -0.16112244 0.0065625
v -0.02033703 -0.161031555 0.0065625
v -0.02076435 -0.16092699 0.0065625
v -0.03515367 -0.16049181 0.0065625
v -0.021172335 -0.160809135 0.0065625
v -0.02156079 -0.160677915 0.0065625
v -0.021930075 -0.16053318 0.0065625
v -0.022278645 -0.16037628 0.0065625
v -0.03506118 -0.15998376 0.0065625
v -0.022605405 -0.16020786 0.0065625
v -0.02291094 -0.1600272 0.0065625
v -0.023195175 -0.159835845 0.0065625
v -0.03498945 -0.15949059 0.0065625
v -0.023457825 -0.15963501 0.0065625
v -0.023698695 -0.15942387 0.0065625
v -0.03495702 -0.159142815 0.0065625
v -0.02411856 -0.15897459 0.0065625
v -0.034944495 -0.15880662 0.0065625
v -0.03 -0.158671875 0.0065625
v -0.034951845 -0.15848196 0.0065625
v -0.02983596 -0.158659065 0.0065625
v -0.029669775 -0.158622315 0.0065625
v -0.029511045 -0.15856422 0.0065625
v -0.0244569 -0.158491215 0.0065625
v -0.029368155 -0.158486685 0.0065625
v -0.02923509 -0.158385525 0.0065625
v -0.029114475 -0.15826491 0.0065625
v -0.029013315 -0.15813186 0.0065625
v -0.02893635 -0.157991085 0.0065625
v -0.02471961 -0.157973355 0.0065625
v -0.028880055 -0.15783906 0.0065625
v -0.02884398 -0.157675365 0.0065625
v -0.028828125 -0.1575 0.0065625
v -0.02490717 -0.15741927 0.0065625
v -0.02884398 -0.157324635 0.0065625
v -0.028880055 -0.15716094 0.0065625
v -0.02893635 -0.157008915 0.0065625
v -0.029013315 -0.15686814 0.0065625
v -0.02502093 -0.156826755 0.0065625
v -0.029114475 -0.15673509 0.0065625
v -0.02923509 -0.156614475 0.0065625
v -0.02504835 -0.15651429 0.0065625
v -0.029368155 -0.156513315 0.0065625
v -0.029511045 -0.15643578 0.0065625
v -0.029669775 -0.156377685 0.0065625
v -0.02983596 -0.156340935 0.0065625
v -0.03 -0.156328125 0.0065625
v -0.025055595 -0.156190395 0.0065625
v -0.03587532 -0.156032925 0.0065625
v -0.03016404 -0.156340935 0.0065625
v -0.025042995 -0.15585543 0.0065625
v -0.03628989 -0.155586705 0.0065625
v -0.02501055 -0.15550941 0.0065625
v -0.036527955 -0.15537657 0.0065625
v -0.03678846 -0.15517605 0.0065625
v -0.024934665 -0.154995525 0.0065625
v -0.037070925 -0.154984305 0.0065625
v -0.03737532 -0.154802775 0.0065625
v -0.037701915 -0.1546332 0.0065625
v -0.038051385 -0.154474695 0.0065625
v -0.02483811 -0.15447012 0.0065625
v -0.038422365 -0.154328175 0.0065625
v -0.038813175 -0.154195365 0.0065625
v -0.0392247 -0.154076025 0.0065625
v -0.03965598 -0.15397011 0.0065625
v -0.024720885 -0.15393324 0.0065625
v -0.04010484 -0.15387828 0.0065625
v -0.04057092 -0.15380061 0.0065625
v -0.041054865 -0.153736905 0.0065625
v -0.04155669 -0.153687195 0.0065625
v -0.049699365 -0.153407895 0.0065625
v -0.04211934 -0.153682485 0.0065625
v -0.024582585 -0.15338472 0.0065625
v -0.049373415 -0.152070735 0.0065625
v -0.02442279 -0.152824425 0.0065625
v -0.031307655 -0.15255546 0.0065625
v -0.03164325 -0.15254289 0.0065625
v -0.03098382 -0.152548275 0.0065625
v -0.03067221 -0.15252084 0.0065625
v -0.03008331 -0.15240753 0.0065625
v -0.024243525 -0.15225306 0.0065625
v -0.02953461 -0.15222306 0.0065625
v -0.02902263 -0.15196548 0.0065625
v -0.0240468 -0.151671285 0.0065625
v -0.028544775 -0.15163407 0.0065625
v -0.02809869 -0.15122259 0.0065625
v -0.023832225 -0.151078965 0.0065625
v -0.027888195 -0.15098592 0.0065625
v -0.027687015 -0.15072645 0.0065625
v -0.023599365 -0.150475965 0.0065625
v -0.02749422 -0.15044475 0.0065625
v -0.027311475 -0.15014073 0.0065625
v -0.02334822 -0.149862285 0.0065625
v -0.027140745 -0.14981397 0.0065625
v -0.026981055 -0.14946378 0.0065625
v -0.02308062 -0.14933604 0.0065625
v -0.02683335 -0.149091615 0.0065625
v -0.022736145 -0.1488612 0.0065625
v -0.026699445 -0.148699365 0.0065625
v -0.022320765 -0.148444635 0.0065625
v -0.02657904 -0.148286055 0.0065625
v -0.02184396 -0.148097475 0.0065625
v -0.02647215 -0.14785269 0.0065625
v -0.021319965 -0.1478301 0.0065625
v -0.026379525 -0.147401655 0.0065625
v -0.020761125 -0.147647865 0.0065625
v -0.020179275 -0.147555015 0.0065625
v -0.019590075 -0.14755473 0.0065625
v -0.012808575 -0.147047145 0.0065625
v -0.02630127 -0.146933295 0.0065625
v -0.01213626 -0.148242465 0.0065625
v -0.019009455 -0.147646335 0.0065625
v -0.01844979 -0.14782752 0.0065625
v -0.0179241 -0.14809494 0.0065625
v -0.017448105 -0.148440615 0.0065625
v -0.01154589 -0.149484435 0.0065625
v -0.01703289 -0.14885505 0.0065625
v -0.016685475 -0.149332365 0.0065625
v -0.016148745 -0.15028023 0.0065625
v -0.01104138 -0.15076296 0.0065625
v -0.015681225 -0.15125823 0.0065625
v -0.010626585 -0.152070735 0.0065625
v -0.015282045 -0.15226887 0.0065625
v -0.010300635 -0.153407895 0.0065625
v -0.014953845 -0.153304725 0.0065625
v -0.014698725 -0.15436095 0.0065625
v -0.010067715 -0.15475779 0.0065625
v -0.02623716 -0.146446935 0.0065625
v -0.02618721 -0.14594256 0.0065625
v -0.013563465 -0.145896195 0.0065625
v -0.02618259 -0.14537997 0.0065625
v -0.02626161 -0.14482587 0.0065625
v -0.014391885 -0.14480349 0.0065625
v -0.026422425 -0.1442886 0.0065625
v -0.02666226 -0.14378022 0.0065625
v -0.015295995 -0.143766975 0.0065625
v -0.026974965 -0.143314215 0.0065625
v -0.027353115 -0.142900485 0.0065625
v -0.01626741 -0.14279514 0.0065625
v -0.02778921 -0.142547265 0.0065625
v -0.028274025 -0.142262805 0.0065625
v -0.028794705 -0.14205447 0.0065625
v -0.029339505 -0.141926085 0.0065625
v -0.01730193 -0.141893445 0.0065625
v -0.02990022 -0.141880245 0.0065625
v -0.023088795 -0.14162349 0.0065625
v -0.04160157 -0.141061785 0.0065625
v -0.022877025 -0.14162349 0.0065625
v -0.022691085 -0.14153208 0.0065625
v -0.022563315 -0.141374805 0.0065625
v -0.02251416 -0.141167265 0.0065625
v -0.01839843 -0.141061785 0.0065625
v -0.022563315 -0.140959725 0.0065625
v -0.022691085 -0.140802465 0.0065625
v -0.022877025 -0.140711025 0.0065625
v -0.01954476 -0.14030988 0.0065625
v -0.04045524 -0.14030988 0.0065625
v -0.023088795 -0.140711025 0.0065625
v -0.039255705 -0.1396356 0.0065625
v -0.020744295 -0.1396356 0.0065625
v -0.03801615 -0.139045755 0.0065625
v -0.02198385 -0.139045755 0.0065625
v -0.03673815 -0.138542115 0.0065625
v -0.02326185 -0.138542115 0.0065625
v -0.035427 -0.13812576 0.0065625
v -0.024573 -0.13812576 0.0065625
v -0.03409488 -0.137801235 0.0065625
v -0.02590512 -0.137801235 0.0065625
v -0.03273849 -0.13756743 0.0065625
v -0.02726151 -0.13756743 0.0065625
v -0.03137403 -0.13742694 0.0065625
v -0.02862597 -0.13742694 0.0065625
v -0.03 -0.137380275 0.0065625
v -0.02327472 -0.140802465 0.0065625
v -0.02340249 -0.140959725 0.0065625
v -0.02345166 -0.141167265 0.0065625
v -0.02340249 -0.141374805 0.0065625
v -0.02327472 -0.14153208 0.0065625
v -0.04269807 -0.141893445 0.0065625
v -0.030988965 -0.1419114 0.0065625
v -0.032067705 -0.14201739 0.0065625
v -0.033139035 -0.142198725 0.0065625
v -0.03419523 -0.14245383 0.0065625
v -0.03523107 -0.142782045 0.0065625
v -0.04373259 -0.14279514 0.0065625
v -0.03624171 -0.14318121 0.0065625
v -0.03721974 -0.14364873 0.0065625
v -0.044704005 -0.143766975 0.0065625
v -0.038167635 -0.144185475 0.0065625
v -0.03864495 -0.14453289 0.0065625
v -0.045608115 -0.14480349 0.0065625
v -0.039059385 -0.14494809 0.0065625
v -0.039405045 -0.1454241 0.0065625
v -0.046436535 -0.145896195 0.0065625
v -0.039672465 -0.145949775 0.0065625
v -0.039853665 -0.14650944 0.0065625
v -0.047191425 -0.147047145 0.0065625
v -0.03994527 -0.14709006 0.0065625
v -0.039944985 -0.14767926 0.0065625
v -0.04786374 -0.148242465 0.0065625
v -0.039852135 -0.148261095 0.0065625
v -0.039669915 -0.148819935 0.0065625
v -0.03940254 -0.14934393 0.0065625
v -0.04845411 -0.149484435 0.0065625
v -0.039055395 -0.149820735 0.0065625
v -0.04622685 -0.15002667 0.0065625
v -0.038638845 -0.1502361 0.0065625
v -0.04643862 -0.15002667 0.0065625
v -0.04662456 -0.15011811 0.0065625
v -0.046752315 -0.150275355 0.0065625
v -0.046801485 -0.150482895 0.0065625
v -0.046752315 -0.15069045 0.0065625
v -0.04895862 -0.15076296 0.0065625
v -0.04662456 -0.15084771 0.0065625
v -0.04643862 -0.150939135 0.0065625
v -0.035182005 -0.15176529 0.0065625
v -0.0346101 -0.151942995 0.0065625
v -0.035770485 -0.151566315 0.0065625
v -0.036375975 -0.15134724 0.0065625
v -0.036998415 -0.1511079 0.0065625
v -0.04622685 -0.150939135 0.0065625
v -0.03763776 -0.150848205 0.0065625
v -0.04604091 -0.15084771 0.0065625
v -0.045913155 -0.15069045 0.0065625
v -0.03816399 -0.150580605 0.0065625
v -0.045863985 -0.150482895 0.0065625
v -0.045913155 -0.150275355 0.0065625
v -0.04604091 -0.15011811 0.0065625
v -0.034054845 -0.152098635 0.0065625
v -0.033515865 -0.152232855 0.0065625
v -0.03299208 -0.152346315 0.0065625
v -0.03248361 -0.152438895 0.0065625
v -0.03199059 -0.15251055 0.0065625
v -0.04267353 -0.1537614 0.0065625
v -0.04321089 -0.153922155 0.0065625
v -0.043719345 -0.15416196 0.0065625
v -0.04418544 -0.15447462 0.0065625
v -0.049932285 -0.15475779 0.0065625
v -0.04459926 -0.1548528 0.0065625
v -0.04495257 -0.155288895 0.0065625
v -0.04523709 -0.155773755 0.0065625
v -0.050072355 -0.156121185 0.0065625
v -0.045445485 -0.156294495 0.0065625
v -0.0455739 -0.15683934 0.0065625
v -0.045619755 -0.15740013 0.0065625
v -0.050120085 -0.1575 0.0065625
v -0.045588615 -0.15848889 0.0065625
v -0.050072355 -0.158878815 0.0065625
v -0.045482625 -0.159567645 0.0065625
v -0.049932285 -0.16024221 0.0065625
v -0.04530129 -0.16063899 0.0065625
v -0.049699365 -0.161592105 0.0065625
v -0.04504617 -0.161695185 0.0065625
v -0.044717985 -0.16273104 0.0065625
v -0.049373415 -0.162929265 0.0065625
v -0.044318805 -0.163741695 0.0065625
v -0.04895862 -0.16423704 0.0065625
v -0.043851285 -0.16471974 0.0065625
v -0.04845411 -0.165515565 0.0065625
v -0.043314525 -0.165667635 0.0065625
v -0.04296711 -0.16614495 0.0065625
v -0.042551895 -0.166559385 0.0065625
v -0.04786374 -0.166757535 0.0065625
v -0.042075885 -0.16690506 0.0065625
v -0.04155021 -0.16717248 0.0065625
v -0.04099053 -0.167353665 0.0065625
v -0.04040991 -0.16744527 0.0065625
v -0.047191425 -0.167952855 0.0065625
v -0.03362244 -0.167608785 0.0065625
v -0.03369954 -0.16807296 0.0065625
v -0.039820695 -0.16744497 0.0065625
v -0.039238845 -0.16735212 0.0065625
v -0.038680005 -0.167169885 0.0065625
v -0.03353157 -0.16716297 0.0065625
v -0.03815601 -0.166902495 0.0065625
v -0.03342699 -0.166735635 0.0065625
v -0.03767922 -0.166555335 0.0065625
v -0.03330912 -0.166327665 0.0065625
v -0.03726384 -0.16613877 0.0065625
v -0.033177915 -0.16593921 0.0065625
v -0.03691935 -0.1656639 0.0065625
v -0.033033195 -0.165569925 0.0065625
v -0.036651765 -0.16513767 0.0065625
v -0.03287628 -0.16522134 0.0065625
v -0.03270786 -0.164894595 0.0065625
v -0.03639072 -0.164494815 0.0065625
v -0.0325272 -0.16458906 0.0065625
v -0.032335845 -0.16430481 0.0065625
v -0.036150585 -0.163870155 0.0065625
v -0.03213501 -0.16404219 0.0065625
v -0.03192387 -0.163801305 0.0065625
v -0.035931285 -0.16326381 0.0065625
v -0.03147459 -0.163381455 0.0065625
v -0.030991215 -0.163043085 0.0065625
v -0.03573273 -0.162675945 0.0065625
v -0.030473355 -0.16278039 0.0065625
v -0.02991927 -0.162592815 0.0065625
v -0.029326755 -0.16247907 0.0065625
v -0.02901429 -0.16245165 0.0065625
v -0.028690395 -0.16244439 0.0065625
v -0.010626585 -0.162929265 0.0065625
v -0.02835543 -0.16245699 0.0065625
v -0.02800941 -0.16248945 0.0065625
v -0.0274965 -0.162565155 0.0065625
v -0.026971845 -0.16266156 0.0065625
v -0.026435445 -0.16277865 0.0065625
v -0.025887135 -0.162916815 0.0065625
v -0.02532678 -0.16307646 0.0065625
v -0.01104138 -0.16423704 0.0065625
v -0.02475513 -0.16325565 0.0065625
v -0.01356138 -0.164060865 0.0065625
v -0.01337544 -0.16415229 0.0065625
v -0.024172905 -0.16345248 0.0065625
v -0.02357997 -0.163667295 0.0065625
v -0.02297616 -0.163900515 0.0065625
v -0.01377315 -0.164060865 0.0065625
v -0.02236149 -0.16415214 0.0065625
v -0.01395909 -0.16415229 0.0065625
v -0.014086845 -0.16430955 0.0065625
v -0.02183538 -0.16441983 0.0065625
v -0.014136015 -0.164517105 0.0065625
v -0.014086845 -0.164724645 0.0065625
v -0.021360645 -0.16476438 0.0065625
v -0.01395909 -0.16488189 0.0065625
v -0.01377315 -0.16497333 0.0065625
v -0.020944215 -0.165179805 0.0065625
v -0.01154589 -0.165515565 0.0065625
v -0.01356138 -0.16497333 0.0065625
v -0.020597175 -0.16565661 0.0065625
v -0.01213626 -0.166757535 0.0065625
v -0.020329905 -0.16618059 0.0065625
v -0.02014779 -0.166739385 0.0065625
v -0.020055015 -0.16732119 0.0065625
v -0.012808575 -0.167952855 0.0065625
v -0.02005479 -0.16791033 0.0065625
v -0.02014644 -0.168490875 0.0065625
v -0.013563465 -0.169103805 0.0065625
v -0.02032767 -0.16905048 0.0065625
v -0.02059509 -0.169576095 0.0065625
v -0.014391885 -0.17019651 0.0065625
v -0.020940735 -0.17005203 0.0065625
v -0.02135514 -0.17046717 0.0065625
v -0.015295995 -0.171233025 0.0065625
v -0.02183241 -0.170814555 0.0065625
v -0.02278023 -0.171351255 0.0065625
v -0.01626741 -0.17220486 0.0065625
v -0.0237582 -0.17181876 0.0065625
v -0.024768825 -0.172217925 0.0065625
v -0.01730193 -0.173106555 0.0065625
v -0.02580468 -0.17254614 0.0065625
v -0.026860905 -0.17280126 0.0065625
v -0.027932265 -0.17298261 0.0065625
v -0.02901105 -0.1730886 0.0065625
v -0.03009984 -0.173119755 0.0065625
v -0.01839843 -0.173938215 0.0065625
v -0.036911205 -0.17337651 0.0065625
v -0.03672528 -0.17346792 0.0065625
v -0.04269807 -0.173106555 0.0065625
v -0.037122975 -0.17337651 0.0065625
v -0.0306606 -0.1730739 0.0065625
v -0.04373259 -0.17220486 0.0065625
v -0.031205415 -0.172945515 0.0065625
v -0.031726125 -0.172737135 0.0065625
v -0.03221097 -0.172452645 0.0065625
v -0.032647065 -0.172099395 0.0065625
v -0.044704005 -0.171233025 0.0065625
v -0.033025215 -0.17168562 0.0065625
v -0.033337905 -0.171219585 0.0065625
v -0.045608115 -0.17019651 0.0065625
v -0.033577725 -0.17071116 0.0065625
v -0.03373851 -0.170173845 0.0065625
v -0.046436535 -0.169103805 0.0065625
v -0.033817485 -0.1696197 0.0065625
v -0.033812805 -0.169057095 0.0065625
v -0.03376299 -0.168555705 0.0065625
v -0.037308915 -0.17346792 0.0065625
v -0.037436685 -0.173625195 0.0065625
v -0.03748584 -0.173832735 0.0065625
v -0.04160157 -0.173938215 0.0065625
v -0.037436685 -0.174040275 0.0065625
v -0.037308915 -0.174197535 0.0065625
v -0.037122975 -0.174288975 0.0065625
v -0.04045524 -0.17469012 0.0065625
v -0.01954476 -0.17469012 0.0065625
v -0.036911205 -0.174288975 0.0065625
v -0.020744295 -0.1753644 0.0065625
v -0.039255705 -0.1753644 0.0065625
v -0.02198385 -0.175954245 0.0065625
v -0.03801615 -0.175954245 0.0065625
v -0.02326185 -0.176457885 0.0065625
v -0.03673815 -0.176457885 0.0065625
v -0.024573 -0.17687424 0.0065625
v -0.035427 -0.17687424 0.0065625
v -0.02590512 -0.177198765 0.0065625
v -0.03409488 -0.177198765 0.0065625
v -0.02726151 -0.17743257 0.0065625
v -0.03273849 -0.17743257 0.0065625
v -0.02862597 -0.17757306 0.0065625
v -0.03137403 -0.17757306 0.0065625
v -0.03 -0.177619725 0.0065625
v -0.03672528 -0.174197535 0.0065625
v -0.03659751 -0.174040275 0.0065625
v -0.03654834 -0.173832735 0.0065625
v -0.03659751 -0.173625195 0.0065625
v -0.01337544 -0.16488189 0.0065625
v -0.013247685 -0.164724645 0.0065625
v -0.013198515 -0.164517105 0.0065625
v -0.013247685 -0.16430955 0.0065625
v -0.030330225 -0.156377685 0.0065625
v -0.030488955 -0.15643578 0.0065625
v -0.035540865 -0.15651225 0.0065625
v -0.030631845 -0.156513315 0.0065625
v -0.03076491 -0.156614475 0.0065625
v -0.030885525 -0.15673509 0.0065625
v -0.030986685 -0.15686814 0.0065625
v -0.03106365 -0.157008915 0.0065625
v -0.03528045 -0.157026465 0.0065625
v -0.031119945 -0.15716094 0.0065625
v -0.03115602 -0.157324635 0.0065625
v -0.031171875 -0.1575 0.0065625
v -0.035093715 -0.157577805 0.0065625
v -0.03115602 -0.157675365 0.0065625
v -0.031119945 -0.15783906 0.0065625
v -0.03106365 -0.157991085 0.0065625
v -0.030986685 -0.15813186 0.0065625
v -0.03497952 -0.1581693 0.0065625
v -0.030885525 -0.15826491 0.0065625
v -0.03076491 -0.158385525 0.0065625
v -0.030631845 -0.158486685 0.0065625
v -0.030488955 -0.15856422 0.0065625
v -0.030330225 -0.158622315 0.0065625
v -0.03016404 -0.158659065 0.0065625
v -0.009879915 -0.1575 0.0084375
v -0.009879915 -0.1575 0.0065625
v -0.009927645 -0.156121185 0.0065625
v -0.009927645 -0.158878815 0.0084375
v -0.009927645 -0.156121185 0.0084375
v -0.010067715 -0.15475779 0.0065625
v -0.010067715 -0.15475779 0.0084375
v -0.010300635 -0.153407895 0.0065625
v -0.010300635 -0.153407895 0.0084375
v -0.010626585 -0.152070735 0.0065625
v -0.010626585 -0.152070735 0.0084375
v -0.01104138 -0.15076296 0.0065625
v -0.01104138 -0.15076296 0.0084375
v -0.01154589 -0.149484435 0.0065625
v -0.01154589 -0.149484435 0.0084375
v -0.01213626 -0.148242465 0.0065625
v -0.01213626 -0.148242465 0.0084375
v -0.012808575 -0.147047145 0.0065625
v -0.012808575 -0.147047145 0.0084375
v -0.013563465 -0.145896195 0.0065625
v -0.013563465 -0.145896195 0.0084375
v -0.014391885 -0.14480349 0.0065625
v -0.014391885 -0.14480349 0.0084375
v -0.015295995 -0.143766975 0.0065625
v -0.015295995 -0.143766975 0.0084375
v -0.01626741 -0.14279514 0.0065625
v -0.01626741 -0.14279514 0.0084375
v -0.01730193 -0.141893445 0.0065625
v -0.01730193 -0.141893445 0.0084375
v -0.01839843 -0.141061785 0.0065625
v -0.01839843 -0.141061785 0.0084375
v -0.01954476 -0.14030988 0.0065625
v -0.01954476 -0.14030988 0.0084375
v -0.020744295 -0.1396356 0.0065625
v -0.020744295 -0.1396356 0.0084375
v -0.02198385 -0.139045755 0.0065625
v -0.02198385 -0.139045755 0.0084375
v -0.02326185 -0.138542115 0.0065625
v -0.02326185 -0.138542115 0.0084375
v -0.024573 -0.13812576 0.0065625
v -0.024573 -0.13812576 0.0084375
v -0.02590512 -0.137801235 0.0065625
v -0.02590512 -0.137801235 0.0084375
v -0.02726151 -0.13756743 0.0065625
v -0.02726151 -0.13756743 0.0084375
v -0.02862597 -0.13742694 0.0065625
v -0.02862597 -0.13742694 0.0084375
v -0.03 -0.137380275 0.0065625
v -0.03 -0.137380275 0.0084375
v -0.03137403 -0.13742694 0.0065625
v -0.03137403 -0.13742694 0.0084375
v -0.03273849 -0.13756743 0.0065625
v -0.03273849 -0.13756743 0.0084375
v -0.03409488 -0.137801235 0.0065625
v -0.03409488 -0.137801235 0.0084375
v -0.035427 -0.13812576 0.0065625
v -0.035427 -0.13812576 0.0084375
v -0.03673815 -0.138542115 0.0065625
v -0.03673815 -0.138542115 0.0084375
v -0.03801615 -0.139045755 0.0065625
v -0.03801615 -0.139045755 0.0084375
v -0.039255705 -0.1396356 0.0065625
v -0.039255705 -0.1396356 0.0084375
v -0.04045524 -0.14030988 0.0065625
v -0.04045524 -0.14030988 0.0084375
v -0.04160157 -0.141061785 0.0065625
v -0.04160157 -0.141061785 0.0084375
v -0.04269807 -0.141893445 0.0065625
v -0.04269807 -0.141893445 0.0084375
v -0.04373259 -0.14279514 0.0065625
v -0.04373259 -0.14279514 0.0084375
v -0.044704005 -0.143766975 0.0065625
v -0.044704005 -0.143766975 0.0084375
v -0.045608115 -0.14480349 0.0065625
v -0.045608115 -0.14480349 0.0084375
v -0.046436535 -0.145896195 0.0065625
v -0.046436535 -0.145896195 0.0084375
v -0.047191425 -0.147047145 0.0065625
v -0.047191425 -0.147047145 0.0084375
v -0.04786374 -0.148242465 0.0065625
v -0.04786374 -0.148242465 0.0084375
v -0.04845411 -0.149484435 0.0065625
v -0.04845411 -0.149484435 0.0084375
v -0.04895862 -0.15076296 0.0065625
v -0.04895862 -0.15076296 0.0084375
v -0.049373415 -0.152070735 0.0065625
v -0.049373415 -0.152070735 0.0084375
v -0.049699365 -0.153407895 0.0065625
v -0.049699365 -0.153407895 0.0084375
v -0.049932285 -0.15475779 0.0065625
v -0.049932285 -0.15475779 0.0084375
v -0.050072355 -0.156121185 0.0065625
v -0.050072355 -0.156121185 0.0084375
v -0.050120085 -0.1575 0.0065625
v -0.050120085 -0.1575 0.0084375
v -0.050072355 -0.158878815 0.0065625
v -0.050072355 -0.158878815 0.0084375
v -0.049932285 -0.16024221 0.0065625
v -0.049932285 -0.16024221 0.0084375
v -0.049699365 -0.161592105 0.0065625
v -0.049699365 -0.161592105 0.0084375
v -0.049373415 -0.162929265 0.0065625
v -0.049373415 -0.162929265 0.0084375
v -0.04895862 -0.16423704 0.0065625
v -0.04895862 -0.16423704 0.0084375
v -0.04845411 -0.165515565 0.0065625
v -0.04845411 -0.165515565 0.0084375
v -0.04786374 -0.166757535 0.0065625
v -0.04786374 -0.166757535 0.0084375
v -0.047191425 -0.167952855 0.0065625
v -0.047191425 -0.167952855 0.0084375
v -0.046436535 -0.169103805 0.0065625
v -0.046436535 -0.169103805 0.0084375
v -0.045608115 -0.17019651 0.0065625
v -0.045608115 -0.17019651 0.0084375
v -0.044704005 -0.171233025 0.0065625
v -0.044704005 -0.171233025 0.0084375
v -0.04373259 -0.17220486 0.0065625
v -0.04373259 -0.17220486 0.0084375
v -0.04269807 -0.173106555 0.0065625
v -0.04269807 -0.173106555 0.0084375
v -0.04160157 -0.173938215 0.0065625
v -0.04160157 -0.173938215 0.0084375
v -0.04045524 -0.17469012 0.0065625
v -0.04045524 -0.17469012 0.0084375
v -0.039255705 -0.1753644 0.0065625
v -0.039255705 -0.1753644 0.0084375
v -0.03801615 -0.175954245 0.0065625
v -0.03801615 -0.175954245 0.0084375
v -0.03673815 -0.176457885 0.0065625
v -0.03673815 -0.176457885 0.0084375
v -0.035427 -0.17687424 0.0065625
v -0.035427 -0.17687424 0.0084375
v -0.03409488 -0.177198765 0.0065625
v -0.03409488 -0.177198765 0.0084375
v -0.03273849 -0.17743257 0.0065625
v -0.03273849 -0.17743257 0.0084375
v -0.03137403 -0.17757306 0.0065625
v -0.03137403 -0.17757306 0.0084375
v -0.03 -0.177619725 0.0065625
v -0.03 -0.177619725 0.0084375
v -0.02862597 -0.17757306 0.0065625
v -0.02862597 -0.17757306 0.0084375
v -0.02726151 -0.17743257 0.0065625
v -0.02726151 -0.17743257 0.0084375
v -0.02590512 -0.177198765 0.0065625
v -0.02590512 -0.177198765 0.0084375
v -0.024573 -0.17687424 0.0065625
v -0.024573 -0.17687424 0.0084375
v -0.02326185 -0.176457885 0.0065625
v -0.02326185 -0.176457885 0.0084375
v -0.02198385 -0.175954245 0.0065625
v -0.02198385 -0.175954245 0.0084375
v -0.020744295 -0.1753644 0.0065625
v -0.020744295 -0.1753644 0.0084375
v -0.01954476 -0.17469012 0.0065625
v -0.01954476 -0.17469012 0.0084375
v -0.01839843 -0.173938215 0.0065625
v -0.01839843 -0.173938215 0.0084375
v -0.01730193 -0.173106555 0.0065625
v -0.01730193 -0.173106555 0.0084375
v -0.01626741 -0.17220486 0.0065625
v -0.01626741 -0.17220486 0.0084375
v -0.015295995 -0.171233025 0.0065625
v -0.015295995 -0.171233025 0.0084375
v -0.014391885 -0.17019651 0.0065625
v -0.014391885 -0.17019651 0.0084375
v -0.013563465 -0.169103805 0.0065625
v -0.013563465 -0.169103805 0.0084375
v -0.012808575 -0.167952855 0.0065625
v -0.012808575 -0.167952855 0.0084375
v -0.01213626 -0.166757535 0.0065625
v -0.01213626 -0.166757535 0.0084375
v -0.01154589 -0.165515565 0.0065625
v -0.01154589 -0.165515565 0.0084375
v -0.01104138 -0.16423704 0.0065625
v -0.01104138 -0.16423704 0.0084375
v -0.010626585 -0.162929265 0.0065625
v -0.010626585 -0.162929265 0.0084375
v -0.010300635 -0.161592105 0.0065625
v -0.010300635 -0.161592105 0.0084375
v -0.010067715 -0.16024221 0.0065625
v -0.010067715 -0.16024221 0.0084375
v -0.009927645 -0.158878815 0.0065625
v -0.045863985 -0.150482895 0.0084375
v -0.045863985 -0.150482895 0.0065625
v -0.045913155 -0.15069045 0.0065625
v -0.045913155 -0.150275355 0.0084375
v -0.045913155 -0.15069045 0.0084375
v -0.04604091 -0.15084771 0.0065625
v -0.04604091 -0.15084771 0.0084375
v -0.04622685 -0.150939135 0.0065625
v -0.04622685 -0.150939135 0.0084375
v -0.04643862 -0.150939135 0.0065625
v -0.04643862 -0.150939135 0.0084375
v -0.04662456 -0.15084771 0.0065625
v -0.04662456 -0.15084771 0.0084375
v -0.046752315 -0.15069045 0.0065625
v -0.046752315 -0.15069045 0.0084375
v -0.046801485 -0.150482895 0.0065625
v -0.046801485 -0.150482895 0.0084375
v -0.046752315 -0.150275355 0.0065625
v -0.046752315 -0.150275355 0.0084375
v -0.04662456 -0.15011811 0.0065625
v -0.04662456 -0.15011811 0.0084375
v -0.04643862 -0.15002667 0.0065625
v -0.04643862 -0.15002667 0.0084375
v -0.04622685 -0.15002667 0.0065625
v -0.04622685 -0.15002667 0.0084375
v -0.04604091 -0.15011811 0.0065625
v -0.04604091 -0.15011811 0.0084375
v -0.045913155 -0.150275355 0.0065625
v -0.02251416 -0.141167265 0.0084375
v -0.02251416 -0.141167265 0.0065625
v -0.022563315 -0.141374805 0.0065625
v -0.022563315 -0.140959725 0.0084375
v -0.022563315 -0.141374805 0.0084375
v -0.022691085 -0.14153208 0.0065625
v -0.022691085 -0.14153208 0.0084375
v -0.022877025 -0.14162349 0.0065625
v -0.022877025 -0.14162349 0.0084375
v -0.023088795 -0.14162349 0.0065625
v -0.023088795 -0.14162349 0.0084375
v -0.02327472 -0.14153208 0.0065625
v -0.02327472 -0.14153208 0.0084375
v -0.02340249 -0.141374805 0.0065625
v -0.02340249 -0.141374805 0.0084375
v -0.02345166 -0.141167265 0.0065625
v -0.02345166 -0.141167265 0.0084375
v -0.02340249 -0.140959725 0.0065625
v -0.02340249 -0.140959725 0.0084375
v -0.02327472 -0.140802465 0.0065625
v -0.02327472 -0.140802465 0.0084375
v -0.023088795 -0.140711025 0.0065625
v -0.023088795 -0.140711025 0.0084375
v -0.022877025 -0.140711025 0.0065625
v -0.022877025 -0.140711025 0.0084375
v -0.022691085 -0.140802465 0.0065625
v -0.022691085 -0.140802465 0.0084375
v -0.022563315 -0.140959725 0.0065625
v -0.013198515 -0.164517105 0.0084375
v -0.013198515 -0.164517105 0.0065625
v -0.013247685 -0.164724645 0.0065625
v -0.013247685 -0.16430955 0.0084375
v -0.013247685 -0.164724645 0.0084375
v -0.01337544 -0.16488189 0.0065625
v -0.01337544 -0.16488189 0.0084375
v -0.01356138 -0.16497333 0.0065625
v -0.01356138 -0.16497333 0.0084375
v -0.01377315 -0.16497333 0.0065625
v -0.01377315 -0.16497333 0.0084375
v -0.01395909 -0.16488189 0.0065625
v -0.01395909 -0.16488189 0.0084375
v -0.014086845 -0.164724645 0.0065625
v -0.014086845 -0.164724645 0.0084375
v -0.014136015 -0.164517105 0.0065625
v -0.014136015 -0.164517105 0.0084375
v -0.014086845 -0.16430955 0.0065625
v -0.014086845 -0.16430955 0.0084375
v -0.01395909 -0.16415229 0.0065625
v -0.01395909 -0.16415229 0.0084375
v -0.01377315 -0.164060865 0.0065625
v -0.01377315 -0.164060865 0.0084375
v -0.01356138 -0.164060865 0.0065625
v -0.01356138 -0.164060865 0.0084375
v -0.01337544 -0.16415229 0.0065625
v -0.01337544 -0.16415229 0.0084375
v -0.013247685 -0.16430955 0.0065625
v -0.03654834 -0.173832735 0.0084375
v -0.03654834 -0.173832735 0.0065625
v -0.03659751 -0.174040275 0.0065625
v -0.03659751 -0.173625195 0.0084375
v -0.03659751 -0.174040275 0.0084375
v -0.03672528 -0.174197535 0.0065625
v -0.03672528 -0.174197535 0.0084375
v -0.036911205 -0.174288975 0.0065625
v -0.036911205 -0.174288975 0.0084375
v -0.037122975 -0.174288975 0.0065625
v -0.037122975 -0.174288975 0.0084375
v -0.037308915 -0.174197535 0.0065625
v -0.037308915 -0.174197535 0.0084375
v -0.037436685 -0.174040275 0.0065625
v -0.037436685 -0.174040275 0.0084375
v -0.03748584 -0.173832735 0.0065625
v -0.03748584 -0.173832735 0.0084375
v -0.037436685 -0.173625195 0.0065625
v -0.037436685 -0.173625195 0.0084375
v -0.037308915 -0.17346792 0.0065625
v -0.037308915 -0.17346792 0.0084375
v -0.037122975 -0.17337651 0.0065625
v -0.037122975 -0.17337651 0.0084375
v -0.036911205 -0.17337651 0.0065625
v -0.036911205 -0.17337651 0.0084375
v -0.03672528 -0.17346792 0.0065625
v -0.03672528 -0.17346792 0.0084375
v -0.03659751 -0.173625195 0.0065625
v -0.028828125 -0.1575 0.0084375
v -0.028828125 -0.1575 0.0065625
v -0.02884398 -0.157675365 0.0065625
v -0.02884398 -0.157324635 0.0084375
v -0.02884398 -0.157675365 0.0084375
v -0.028880055 -0.15783906 0.0065625
v -0.028880055 -0.15783906 0.0084375
v -0.02893635 -0.157991085 0.0065625
v -0.02893635 -0.157991085 0.0084375
v -0.029013315 -0.15813186 0.0065625
v -0.029013315 -0.15813186 0.0084375
v -0.029114475 -0.15826491 0.0065625
v -0.029114475 -0.15826491 0.0084375
v -0.02923509 -0.158385525 0.0065625
v -0.02923509 -0.158385525 0.0084375
v -0.029368155 -0.158486685 0.0065625
v -0.029368155 -0.158486685 0.0084375
v -0.029511045 -0.15856422 0.0065625
v -0.029511045 -0.15856422 0.0084375
v -0.029669775 -0.158622315 0.0065625
v -0.029669775 -0.158622315 0.0084375
v -0.02983596 -0.158659065 0.0065625
v -0.02983596 -0.158659065 0.0084375
v -0.03 -0.158671875 0.0065625
v -0.03 -0.158671875 0.0084375
v -0.03016404 -0.158659065 0.0065625
v -0.03016404 -0.158659065 0.0084375
v -0.030330225 -0.158622315 0.0065625
v -0.030330225 -0.158622315 0.0084375
v -0.030488955 -0.15856422 0.0065625
v -0.030488955 -0.15856422 0.0084375
v -0.030631845 -0.158486685 0.0065625
v -0.030631845 -0.158486685 0.0084375
v -0.03076491 -0.158385525 0.0065625
v -0.03076491 -0.158385525 0.0084375
v -0.030885525 -0.15826491 0.0065625
v -0.030885525 -0.15826491 0.0084375
v -0.030986685 -0.15813186 0.0065625
v -0.030986685 -0.15813186 0.0084375
v -0.03106365 -0.157991085 0.0065625
v -0.03106365 -0.157991085 0.0084375
v -0.031119945 -0.15783906 0.0065625
v -0.031119945 -0.15783906 0.0084375
v -0.03115602 -0.157675365 0.0065625
v -0.03115602 -0.157675365 0.0084375
v -0.031171875 -0.1575 0.0065625
v -0.031171875 -0.1575 0.0084375
v -0.03115602 -0.157324635 0.0065625
v -0.03115602 -0.157324635 0.0084375
v -0.031119945 -0.15716094 0.0065625
v -0.031119945 -0.15716094 0.0084375
v -0.03106365 -0.157008915 0.0065625
v -0.03106365 -0.157008915 0.0084375
v -0.030986685 -0.15686814 0.0065625
v -0.030986685 -0.15686814 0.0084375
v -0.030885525 -0.15673509 0.0065625
v -0.030885525 -0.15673509 0.0084375
v -0.03076491 -0.156614475 0.0065625
v -0.03076491 -0.156614475 0.0084375
v -0.030631845 -0.156513315 0.0065625
v -0.030631845 -0.156513315 0.0084375
v -0.030488955 -0.15643578 0.0065625
v -0.030488955 -0.15643578 0.0084375
v -0.030330225 -0.156377685 0.0065625
v -0.030330225 -0.156377685 0.0084375
v -0.03016404 -0.156340935 0.0065625
v -0.03016404 -0.156340935 0.0084375
v -0.03 -0.156328125 0.0065625
v -0.03 -0.156328125 0.0084375
v -0.02983596 -0.156340935 0.0065625
v -0.02983596 -0.156340935 0.0084375
v -0.029669775 -0.156377685 0.0065625
v -0.029669775 -0.156377685 0.0084375
v -0.029511045 -0.15643578 0.0065625
v -0.029511045 -0.15643578 0.0084375
v -0.029368155 -0.156513315 0.0065625
v -0.029368155 -0.156513315 0.0084375
v -0.02923509 -0.156614475 0.0065625
v -0.02923509 -0.156614475 0.0084375
v -0.029114475 -0.15673509 0.0065625
v -0.029114475 -0.15673509 0.0084375
v -0.029013315 -0.15686814 0.0065625
v -0.029013315 -0.15686814 0.0084375
v -0.02893635 -0.157008915 0.0065625
v -0.02893635 -0.157008915 0.0084375
v -0.028880055 -0.15716094 0.0065625
v -0.028880055 -0.15716094 0.0084375
v -0.02884398 -0.157324635 0.0065625
v -0.03763776 -0.150848205 0.0084375
v -0.03763776 -0.150848205 0.0065625
v -0.03816399 -0.150580605 0.0065625
v -0.036998415 -0.1511079 0.0084375
v -0.03816399 -0.150580605 0.0084375
v -0.038638845 -0.1502361 0.0065625
v -0.038638845 -0.1502361 0.0084375
v -0.039055395 -0.149820735 0.0065625
v -0.039055395 -0.149820735 0.0084375
v -0.03940254 -0.14934393 0.0065625
v -0.03940254 -0.14934393 0.0084375
v -0.039669915 -0.148819935 0.0065625
v -0.039669915 -0.148819935 0.0084375
v -0.039852135 -0.148261095 0.0065625
v -0.039852135 -0.148261095 0.0084375
v -0.039944985 -0.14767926 0.0065625
v -0.039944985 -0.14767926 0.0084375
v -0.03994527 -0.14709006 0.0065625
v -0.03994527 -0.14709006 0.0084375
v -0.039853665 -0.14650944 0.0065625
v -0.039853665 -0.14650944 0.0084375
v -0.039672465 -0.145949775 0.0065625
v -0.039672465 -0.145949775 0.0084375
v -0.039405045 -0.1454241 0.0065625
v -0.039405045 -0.1454241 0.0084375
v -0.039059385 -0.14494809 0.0065625
v -0.039059385 -0.14494809 0.0084375
v -0.03864495 -0.14453289 0.0065625
v -0.03864495 -0.14453289 0.0084375
v -0.038167635 -0.144185475 0.0065625
v -0.038167635 -0.144185475 0.0084375
v -0.03721974 -0.14364873 0.0065625
v -0.03721974 -0.14364873 0.0084375
v -0.03624171 -0.14318121 0.0065625
v -0.03624171 -0.14318121 0.0084375
v -0.03523107 -0.142782045 0.0065625
v -0.03523107 -0.142782045 0.0084375
v -0.03419523 -0.14245383 0.0065625
v -0.03419523 -0.14245383 0.0084375
v -0.033139035 -0.142198725 0.0065625
v -0.033139035 -0.142198725 0.0084375
v -0.032067705 -0.14201739 0.0065625
v -0.032067705 -0.14201739 0.0084375
v -0.030988965 -0.1419114 0.0065625
v -0.030988965 -0.1419114 0.0084375
v -0.02990022 -0.141880245 0.0065625
v -0.02990022 -0.141880245 0.0084375
v -0.029339505 -0.141926085 0.0065625
v -0.029339505 -0.141926085 0.0084375
v -0.028794705 -0.14205447 0.0065625
v -0.028794705 -0.14205447 0.0084375
v -0.028274025 -0.142262805 0.0065625
v -0.028274025 -0.142262805 0.0084375
v -0.02778921 -0.142547265 0.0065625
v -0.02778921 -0.142547265 0.0084375
v -0.027353115 -0.142900485 0.0065625
v -0.027353115 -0.142900485 0.0084375
v -0.026974965 -0.143314215 0.0065625
v -0.026974965 -0.143314215 0.0084375
v -0.02666226 -0.14378022 0.0065625
v -0.02666226 -0.14378022 0.0084375
v -0.026422425 -0.1442886 0.0065625
v -0.026422425 -0.1442886 0.0084375
v -0.02626161 -0.14482587 0.0065625
v -0.02626161 -0.14482587 0.0084375
v -0.02618259 -0.14537997 0.0065625
v -0.02618259 -0.14537997 0.0084375
v -0.02618721 -0.14594256 0.0065625
v -0.02618721 -0.14594256 0.0084375
v -0.02623716 -0.146446935 0.0065625
v -0.02623716 -0.146446935 0.0084375
v -0.02630127 -0.146933295 0.0065625
v -0.02630127 -0.146933295 0.0084375
v -0.026379525 -0.147401655 0.0065625
v -0.026379525 -0.147401655 0.0084375
v -0.02647215 -0.14785269 0.0065625
v -0.02647215 -0.14785269 0.0084375
v -0.02657904 -0.148286055 0.0065625
v -0.02657904 -0.148286055 0.0084375
v -0.026699445 -0.148699365 0.0065625
v -0.026699445 -0.148699365 0.0084375
v -0.02683335 -0.149091615 0.0065625
v -0.02683335 -0.149091615 0.0084375
v -0.026981055 -0.14946378 0.0065625
v -0.026981055 -0.14946378 0.0084375
v -0.027140745 -0.14981397 0.0065625
v -0.027140745 -0.14981397 0.0084375
v -0.027311475 -0.15014073 0.0065625
v -0.027311475 -0.15014073 0.0084375
v -0.02749422 -0.15044475 0.0065625
v -0.02749422 -0.15044475 0.0084375
v -0.027687015 -0.15072645 0.0065625
v -0.027687015 -0.15072645 0.0084375
v -0.027888195 -0.15098592 0.0065625
v -0.027888195 -0.15098592 0.0084375
v -0.02809869 -0.15122259 0.0065625
v -0.02809869 -0.15122259 0.0084375
v -0.028544775 -0.15163407 0.0065625
v -0.028544775 -0.15163407 0.0084375
v -0.02902263 -0.15196548 0.0065625
v -0.02902263 -0.15196548 0.0084375
v -0.02953461 -0.15222306 0.0065625
v -0.02953461 -0.15222306 0.0084375
v -0.03008331 -0.15240753 0.0065625
v -0.03008331 -0.15240753 0.0084375
v -0.03067221 -0.15252084 0.0065625
v -0.03067221 -0.15252084 0.0084375
v -0.03098382 -0.152548275 0.0065625
v -0.03098382 -0.152548275 0.0084375
v -0.031307655 -0.15255546 0.0065625
v -0.031307655 -0.15255546 0.0084375
v -0.03164325 -0.15254289 0.0065625
v -0.03164325 -0.15254289 0.0084375
v -0.03199059 -0.15251055 0.0065625
v -0.03199059 -0.15251055 0.0084375
v -0.03248361 -0.152438895 0.0065625
v -0.03248361 -0.152438895 0.0084375
v -0.03299208 -0.152346315 0.0065625
v -0.03299208 -0.152346315 0.0084375
v -0.033515865 -0.152232855 0.0065625
v -0.033515865 -0.152232855 0.0084375
v -0.034054845 -0.152098635 0.0065625
v -0.034054845 -0.152098635 0.0084375
v -0.0346101 -0.151942995 0.0065625
v -0.0346101 -0.151942995 0.0084375
v -0.035182005 -0.15176529 0.0065625
v -0.035182005 -0.15176529 0.0084375
v -0.035770485 -0.151566315 0.0065625
v -0.035770485 -0.151566315 0.0084375
v -0.036375975 -0.15134724 0.0065625
v -0.036375975 -0.15134724 0.0084375
v -0.036998415 -0.1511079 0.0065625
v -0.045619755 -0.15740013 0.0084375
v -0.045619755 -0.15740013 0.0065625
v -0.0455739 -0.15683934 0.0065625
v -0.045588615 -0.15848889 0.0084375
v -0.0455739 -0.15683934 0.0084375
v -0.045445485 -0.156294495 0.0065625
v -0.045445485 -0.156294495 0.0084375
v -0.04523709 -0.155773755 0.0065625
v -0.04523709 -0.155773755 0.0084375
v -0.04495257 -0.155288895 0.0065625
v -0.04495257 -0.155288895 0.0084375
v -0.04459926 -0.1548528 0.0065625
v -0.04459926 -0.1548528 0.0084375
v -0.04418544 -0.15447462 0.0065625
v -0.04418544 -0.15447462 0.0084375
v -0.043719345 -0.15416196 0.0065625
v -0.043719345 -0.15416196 0.0084375
v -0.04321089 -0.153922155 0.0065625
v -0.04321089 -0.153922155 0.0084375
v -0.04267353 -0.1537614 0.0065625
v -0.04267353 -0.1537614 0.0084375
v -0.04211934 -0.153682485 0.0065625
v -0.04211934 -0.153682485 0.0084375
v -0.04155669 -0.153687195 0.0065625
v -0.04155669 -0.153687195 0.0084375
v -0.041054865 -0.153736905 0.0065625
v -0.041054865 -0.153736905 0.0084375
v -0.04057092 -0.15380061 0.0065625
v -0.04057092 -0.15380061 0.0084375
v -0.04010484 -0.15387828 0.0065625
v -0.04010484 -0.15387828 0.0084375
v -0.03965598 -0.15397011 0.0065625
v -0.03965598 -0.15397011 0.0084375
v -0.0392247 -0.154076025 0.0065625
v -0.0392247 -0.154076025 0.0084375
v -0.038813175 -0.154195365 0.0065625
v -0.038813175 -0.154195365 0.0084375
v -0.038422365 -0.154328175 0.0065625
v -0.038422365 -0.154328175 0.0084375
v -0.038051385 -0.154474695 0.0065625
v -0.038051385 -0.154474695 0.0084375
v -0.037701915 -0.1546332 0.0065625
v -0.037701915 -0.1546332 0.0084375
v -0.03737532 -0.154802775 0.0065625
v -0.03737532 -0.154802775 0.0084375
v -0.037070925 -0.154984305 0.0065625
v -0.037070925 -0.154984305 0.0084375
v -0.03678846 -0.15517605 0.0065625
v -0.03678846 -0.15517605 0.0084375
v -0.036527955 -0.15537657 0.0065625
v -0.036527955 -0.15537657 0.0084375
v -0.03628989 -0.155586705 0.0065625
v -0.03628989 -0.155586705 0.0084375
v -0.03587532 -0.156032925 0.0065625
v -0.03587532 -0.156032925 0.0084375
v -0.035540865 -0.15651225 0.0065625
v -0.035540865 -0.15651225 0.0084375
v -0.03528045 -0.157026465 0.0065625
v -0.03528045 -0.157026465 0.0084375
v -0.035093715 -0.157577805 0.0065625
v -0.035093715 -0.157577805 0.0084375
v -0.03497952 -0.1581693 0.0065625
v -0.03497952 -0.1581693 0.0084375
v -0.034951845 -0.15848196 0.0065625
v -0.034951845 -0.15848196 0.0084375
v -0.034944495 -0.15880662 0.0065625
v -0.034944495 -0.15880662 0.0084375
v -0.03495702 -0.159142815 0.0065625
v -0.03495702 -0.159142815 0.0084375
v -0.03498945 -0.15949059 0.0065625
v -0.03498945 -0.15949059 0.0084375
v -0.03506118 -0.15998376 0.0065625
v -0.03506118 -0.15998376 0.0084375
v -0.03515367 -0.16049181 0.0065625
v -0.03515367 -0.16049181 0.0084375
v -0.035266815 -0.161014545 0.0065625
v -0.035266815 -0.161014545 0.0084375
v -0.03540051 -0.161551665 0.0065625
v -0.03540051 -0.161551665 0.0084375
v -0.035555595 -0.162105255 0.0065625
v -0.035555595 -0.162105255 0.0084375
v -0.03573273 -0.162675945 0.0065625
v -0.03573273 -0.162675945 0.0084375
v -0.035931285 -0.16326381 0.0065625
v -0.035931285 -0.16326381 0.0084375
v -0.036150585 -0.163870155 0.0065625
v -0.036150585 -0.163870155 0.0084375
v -0.03639072 -0.164494815 0.0065625
v -0.03639072 -0.164494815 0.0084375
v -0.036651765 -0.16513767 0.0065625
v -0.036651765 -0.16513767 0.0084375
v -0.03691935 -0.1656639 0.0065625
v -0.03691935 -0.1656639 0.0084375
v -0.03726384 -0.16613877 0.0065625
v -0.03726384 -0.16613877 0.0084375
v -0.03767922 -0.166555335 0.0065625
v -0.03767922 -0.166555335 0.0084375
v -0.03815601 -0.166902495 0.0065625
v -0.03815601 -0.166902495 0.0084375
v -0.038680005 -0.167169885 0.0065625
v -0.038680005 -0.167169885 0.0084375
v -0.039238845 -0.16735212 0.0065625
v -0.039238845 -0.16735212 0.0084375
v -0.039820695 -0.16744497 0.0065625
v -0.039820695 -0.16744497 0.0084375
v -0.04040991 -0.16744527 0.0065625
v -0.04040991 -0.16744527 0.0084375
v -0.04099053 -0.167353665 0.0065625
v -0.04099053 -0.167353665 0.0084375
v -0.04155021 -0.16717248 0.0065625
v -0.04155021 -0.16717248 0.0084375
v -0.042075885 -0.16690506 0.0065625
v -0.042075885 -0.16690506 0.0084375
v -0.042551895 -0.166559385 0.0065625
v -0.042551895 -0.166559385 0.0084375
v -0.04296711 -0.16614495 0.0065625
v -0.04296711 -0.16614495 0.0084375
v -0.043314525 -0.165667635 0.0065625
v -0.043314525 -0.165667635 0.0084375
v -0.043851285 -0.16471974 0.0065625
v -0.043851285 -0.16471974 0.0084375
v -0.044318805 -0.163741695 0.0065625
v -0.044318805 -0.163741695 0.0084375
v -0.044717985 -0.16273104 0.0065625
v -0.044717985 -0.16273104 0.0084375
v -0.04504617 -0.161695185 0.0065625
v -0.04504617 -0.161695185 0.0084375
v -0.04530129 -0.16063899 0.0065625
v -0.04530129 -0.16063899 0.0084375
v -0.045482625 -0.159567645 0.0065625
v -0.045482625 -0.159567645 0.0084375
v -0.045588615 -0.15848889 0.0065625
v -0.03009984 -0.173119755 0.0084375
v -0.03009984 -0.173119755 0.0065625
v -0.0306606 -0.1730739 0.0065625
v -0.02901105 -0.1730886 0.0084375
v -0.0306606 -0.1730739 0.0084375
v -0.031205415 -0.172945515 0.0065625
v -0.031205415 -0.172945515 0.0084375
v -0.031726125 -0.172737135 0.0065625
v -0.031726125 -0.172737135 0.0084375
v -0.03221097 -0.172452645 0.0065625
v -0.03221097 -0.172452645 0.0084375
v -0.032647065 -0.172099395 0.0065625
v -0.032647065 -0.172099395 0.0084375
v -0.033025215 -0.17168562 0.0065625
v -0.033025215 -0.17168562 0.0084375
v -0.033337905 -0.171219585 0.0065625
v -0.033337905 -0.171219585 0.0084375
v -0.033577725 -0.17071116 0.0065625
v -0.033577725 -0.17071116 0.0084375
v -0.03373851 -0.170173845 0.0065625
v -0.03373851 -0.170173845 0.0084375
v -0.033817485 -0.1696197 0.0065625
v -0.033817485 -0.1696197 0.0084375
v -0.033812805 -0.169057095 0.0065625
v -0.033812805 -0.169057095 0.0084375
v -0.03376299 -0.168555705 0.0065625
v -0.03376299 -0.168555705 0.0084375
v -0.03369954 -0.16807296 0.0065625
v -0.03369954 -0.16807296 0.0084375
v -0.03362244 -0.167608785 0.0065625
v -0.03362244 -0.167608785 0.0084375
v -0.03353157 -0.16716297 0.0065625
v -0.03353157 -0.16716297 0.0084375
v -0.03342699 -0.166735635 0.0065625
v -0.03342699 -0.166735635 0.0084375
v -0.03330912 -0.166327665 0.0065625
v -0.03330912 -0.166327665 0.0084375
v -0.033177915 -0.16593921 0.0065625
v -0.033177915 -0.16593921 0.0084375
v -0.033033195 -0.165569925 0.0065625
v -0.033033195 -0.165569925 0.0084375
v -0.03287628 -0.16522134 0.0065625
v -0.03287628 -0.16522134 0.0084375
v -0.03270786 -0.164894595 0.0065625
v -0.03270786 -0.164894595 0.0084375
v -0.0325272 -0.16458906 0.0065625
v -0.0325272 -0.16458906 0.0084375
v -0.032335845 -0.16430481 0.0065625
v -0.032335845 -0.16430481 0.0084375
v -0.03213501 -0.16404219 0.0065625
v -0.03213501 -0.16404219 0.0084375
v -0.03192387 -0.163801305 0.0065625
v -0.03192387 -0.163801305 0.0084375
v -0.03147459 -0.163381455 0.0065625
v -0.03147459 -0.163381455 0.0084375
v -0.030991215 -0.163043085 0.0065625
v -0.030991215 -0.163043085 0.0084375
v -0.030473355 -0.16278039 0.0065625
v -0.030473355 -0.16278039 0.0084375
v -0.02991927 -0.162592815 0.0065625
v -0.02991927 -0.162592815 0.0084375
v -0.029326755 -0.16247907 0.0065625
v -0.029326755 -0.16247907 0.0084375
v -0.02901429 -0.16245165 0.0065625
v -0.02901429 -0.16245165 0.0084375
v -0.028690395 -0.16244439 0.0065625
v -0.028690395 -0.16244439 0.0084375
v -0.02835543 -0.16245699 0.0065625
v -0.02835543 -0.16245699 0.0084375
v -0.02800941 -0.16248945 0.0065625
v -0.02800941 -0.16248945 0.0084375
v -0.0274965 -0.162565155 0.0065625
v -0.0274965 -0.162565155 0.0084375
v -0.026971845 -0.16266156 0.0065625
v -0.026971845 -0.16266156 0.0084375
v -0.026435445 -0.16277865 0.0065625
v -0.026435445 -0.16277865 0.0084375
v -0.025887135 -0.162916815 0.0065625
v -0.025887135 -0.162916815 0.0084375
v -0.02532678 -0.16307646 0.0065625
v -0.02532678 -0.16307646 0.0084375
v -0.02475513 -0.16325565 0.0065625
v -0.02475513 -0.16325565 0.0084375
v -0.024172905 -0.16345248 0.0065625
v -0.024172905 -0.16345248 0.0084375
v -0.02357997 -0.163667295 0.0065625
v -0.02357997 -0.163667295 0.0084375
v -0.02297616 -0.163900515 0.0065625
v -0.02297616 -0.163900515 0.0084375
v -0.02236149 -0.16415214 0.0065625
v -0.02236149 -0.16415214 0.0084375
v -0.02183538 -0.16441983 0.0065625
v -0.02183538 -0.16441983 0.0084375
v -0.021360645 -0.16476438 0.0065625
v -0.021360645 -0.16476438 0.0084375
v -0.020944215 -0.165179805 0.0065625
v -0.020944215 -0.165179805 0.0084375
v -0.020597175 -0.16565661 0.0065625
v -0.020597175 -0.16565661 0.0084375
v -0.020329905 -0.16618059 0.0065625
v -0.020329905 -0.16618059 0.0084375
v -0.02014779 -0.166739385 0.0065625
v -0.02014779 -0.166739385 0.0084375
v -0.020055015 -0.16732119 0.0065625
v -0.020055015 -0.16732119 0.0084375
v -0.02005479 -0.16791033 0.0065625
v -0.02005479 -0.16791033 0.0084375
v -0.02014644 -0.168490875 0.0065625
v -0.02014644 -0.168490875 0.0084375
v -0.02032767 -0.16905048 0.0065625
v -0.02032767 -0.16905048 0.0084375
v -0.02059509 -0.169576095 0.0065625
v -0.02059509 -0.169576095 0.0084375
v -0.020940735 -0.17005203 0.0065625
v -0.020940735 -0.17005203 0.0084375
v -0.02135514 -0.17046717 0.0065625
v -0.02135514 -0.17046717 0.0084375
v -0.02183241 -0.170814555 0.0065625
v -0.02183241 -0.170814555 0.0084375
v -0.02278023 -0.171351255 0.0065625
v -0.02278023 -0.171351255 0.0084375
v -0.0237582 -0.17181876 0.0065625
v -0.0237582 -0.17181876 0.0084375
v -0.024768825 -0.172217925 0.0065625
v -0.024768825 -0.172217925 0.0084375
v -0.02580468 -0.17254614 0.0065625
v -0.02580468 -0.17254614 0.0084375
v -0.026860905 -0.17280126 0.0065625
v -0.026860905 -0.17280126 0.0084375
v -0.027932265 -0.17298261 0.0065625
v -0.027932265 -0.17298261 0.0084375
v -0.02901105 -0.1730886 0.0065625
v -0.014380245 -0.157599855 0.0084375
v -0.014380245 -0.157599855 0.0065625
v -0.014426085 -0.1581606 0.0065625
v -0.0144114 -0.15651108 0.0084375
v -0.014426085 -0.1581606 0.0084375
v -0.014554485 -0.158705415 0.0065625
v -0.014554485 -0.158705415 0.0084375
v -0.014762865 -0.159226125 0.0065625
v -0.014762865 -0.159226125 0.0084375
v -0.01504734 -0.15971097 0.0065625
v -0.01504734 -0.15971097 0.0084375
v -0.015400605 -0.160147065 0.0065625
v -0.015400605 -0.160147065 0.0084375
v -0.01581438 -0.160525215 0.0065625
v -0.01581438 -0.160525215 0.0084375
v -0.01628043 -0.16083792 0.0065625
v -0.01628043 -0.16083792 0.0084375
v -0.01678884 -0.161077725 0.0065625
v -0.01678884 -0.161077725 0.0084375
v -0.017326155 -0.16123851 0.0065625
v -0.017326155 -0.16123851 0.0084375
v -0.0178803 -0.16131747 0.0065625
v -0.0178803 -0.16131747 0.0084375
v -0.018442905 -0.16131282 0.0065625
v -0.018442905 -0.16131282 0.0084375
v -0.01894428 -0.161263005 0.0065625
v -0.01894428 -0.161263005 0.0084375
v -0.019427055 -0.161199525 0.0065625
v -0.019427055 -0.161199525 0.0084375
v -0.019891215 -0.16112244 0.0065625
v -0.019891215 -0.16112244 0.0084375
v -0.02033703 -0.161031555 0.0065625
v -0.02033703 -0.161031555 0.0084375
v -0.02076435 -0.16092699 0.0065625
v -0.02076435 -0.16092699 0.0084375
v -0.021172335 -0.160809135 0.0065625
v -0.021172335 -0.160809135 0.0084375
v -0.02156079 -0.160677915 0.0065625
v -0.02156079 -0.160677915 0.0084375
v -0.021930075 -0.16053318 0.0065625
v -0.021930075 -0.16053318 0.0084375
v -0.022278645 -0.16037628 0.0065625
v -0.022278645 -0.16037628 0.0084375
v -0.022605405 -0.16020786 0.0065625
v -0.022605405 -0.16020786 0.0084375
v -0.02291094 -0.1600272 0.0065625
v -0.02291094 -0.1600272 0.0084375
v -0.023195175 -0.159835845 0.0065625
v -0.023195175 -0.159835845 0.0084375
v -0.023457825 -0.15963501 0.0065625
v -0.023457825 -0.15963501 0.0084375
v -0.023698695 -0.15942387 0.0065625
v -0.023698695 -0.15942387 0.0084375
v -0.02411856 -0.15897459 0.0065625
v -0.02411856 -0.15897459 0.0084375
v -0.0244569 -0.158491215 0.0065625
v -0.0244569 -0.158491215 0.0084375
v -0.02471961 -0.157973355 0.0065625
v -0.02471961 -0.157973355 0.0084375
v -0.02490717 -0.15741927 0.0065625
v -0.02490717 -0.15741927 0.0084375
v -0.02502093 -0.156826755 0.0065625
v -0.02502093 -0.156826755 0.0084375
v -0.02504835 -0.15651429 0.0065625
v -0.02504835 -0.15651429 0.0084375
v -0.025055595 -0.156190395 0.0065625
v -0.025055595 -0.156190395 0.0084375
v -0.025042995 -0.15585543 0.0065625
v -0.025042995 -0.15585543 0.0084375
v -0.02501055 -0.15550941 0.0065625
v -0.02501055 -0.15550941 0.0084375
v -0.024934665 -0.154995525 0.0065625
v -0.024934665 -0.154995525 0.0084375
v -0.02483811 -0.15447012 0.0065625
v -0.02483811 -0.15447012 0.0084375
v -0.024720885 -0.15393324 0.0065625
v -0.024720885 -0.15393324 0.0084375
v -0.024582585 -0.15338472 0.0065625
v -0.024582585 -0.15338472 0.0084375
v -0.02442279 -0.152824425 0.0065625
v -0.02442279 -0.152824425 0.0084375
v -0.024243525 -0.15225306 0.0065625
v -0.024243525 -0.15225306 0.0084375
v -0.0240468 -0.151671285 0.0065625
v -0.0240468 -0.151671285 0.0084375
v -0.023832225 -0.151078965 0.0065625
v -0.023832225 -0.151078965 0.0084375
v -0.023599365 -0.150475965 0.0065625
v -0.023599365 -0.150475965 0.0084375
v -0.02334822 -0.149862285 0.0065625
v -0.02334822 -0.149862285 0.0084375
v -0.02308062 -0.14933604 0.0065625
v -0.02308062 -0.14933604 0.0084375
v -0.022736145 -0.1488612 0.0065625
v -0.022736145 -0.1488612 0.0084375
v -0.022320765 -0.148444635 0.0065625
v -0.022320765 -0.148444635 0.0084375
v -0.02184396 -0.148097475 0.0065625
v -0.02184396 -0.148097475 0.0084375
v -0.021319965 -0.1478301 0.0065625
v -0.021319965 -0.1478301 0.0084375
v -0.020761125 -0.147647865 0.0065625
v -0.020761125 -0.147647865 0.0084375
v -0.020179275 -0.147555015 0.0065625
v -0.020179275 -0.147555015 0.0084375
v -0.019590075 -0.14755473 0.0065625
v -0.019590075 -0.14755473 0.0084375
v -0.019009455 -0.147646335 0.0065625
v -0.019009455 -0.147646335 0.0084375
v -0.01844979 -0.14782752 0.0065625
v -0.01844979 -0.14782752 0.0084375
v -0.0179241 -0.14809494 0.0065625
v -0.0179241 -0.14809494 0.0084375
v -0.017448105 -0.148440615 0.0065625
v -0.017448105 -0.148440615 0.0084375
v -0.01703289 -0.14885505 0.0065625
v -0.01703289 -0.14885505 0.0084375
v -0.016685475 -0.149332365 0.0065625
v -0.016685475 -0.149332365 0.0084375
v -0.016148745 -0.15028023 0.0065625
v -0.016148745 -0.15028023 0.0084375
v -0.015681225 -0.15125823 0.0065625
v -0.015681225 -0.15125823 0.0084375
v -0.015282045 -0.15226887 0.0065625
v -0.015282045 -0.15226887 0.0084375
v -0.014953845 -0.153304725 0.0065625
v -0.014953845 -0.153304725 0.0084375
v -0.014698725 -0.15436095 0.0065625
v -0.014698725 -0.15436095 0.0084375
v -0.014517375 -0.155432295 0.0065625
v -0.014517375 -0.155432295 0.0084375
v -0.0144114 -0.15651108 0.0065625
v -0.045445485 -0.156294495 0.0084375
v -0.050072355 -0.156121185 0.0084375
v -0.050120085 -0.1575 0.0084375
v -0.04523709 -0.155773755 0.0084375
v -0.0455739 -0.15683934 0.0084375
v -0.045619755 -0.15740013 0.0084375
v -0.045588615 -0.15848889 0.0084375
v -0.050072355 -0.158878815 0.0084375
v -0.045482625 -0.159567645 0.0084375
v -0.049932285 -0.16024221 0.0084375
v -0.04530129 -0.16063899 0.0084375
v -0.049699365 -0.161592105 0.0084375
v -0.04504617 -0.161695185 0.0084375
v -0.049373415 -0.162929265 0.0084375
v -0.044717985 -0.16273104 0.0084375
v -0.044318805 -0.163741695 0.0084375
v -0.04895862 -0.16423704 0.0084375
v -0.043851285 -0.16471974 0.0084375
v -0.04845411 -0.165515565 0.0084375
v -0.043314525 -0.165667635 0.0084375
v -0.04786374 -0.166757535 0.0084375
v -0.04296711 -0.16614495 0.0084375
v -0.042551895 -0.166559385 0.0084375
v -0.042075885 -0.16690506 0.0084375
v -0.047191425 -0.167952855 0.0084375
v -0.04155021 -0.16717248 0.0084375
v -0.04099053 -0.167353665 0.0084375
v -0.04040991 -0.16744527 0.0084375
v -0.03362244 -0.167608785 0.0084375
v -0.039820695 -0.16744497 0.0084375
v -0.03369954 -0.16807296 0.0084375
v -0.046436535 -0.169103805 0.0084375
v -0.03376299 -0.168555705 0.0084375
v -0.033812805 -0.169057095 0.0084375
v -0.033817485 -0.1696197 0.0084375
v -0.045608115 -0.17019651 0.0084375
v -0.03373851 -0.170173845 0.0084375
v -0.033577725 -0.17071116 0.0084375
v -0.044704005 -0.171233025 0.0084375
v -0.033337905 -0.171219585 0.0084375
v -0.033025215 -0.17168562 0.0084375
v -0.04373259 -0.17220486 0.0084375
v -0.032647065 -0.172099395 0.0084375
v -0.03221097 -0.172452645 0.0084375
v -0.04269807 -0.173106555 0.0084375
v -0.031726125 -0.172737135 0.0084375
v -0.031205415 -0.172945515 0.0084375
v -0.0306606 -0.1730739 0.0084375
v -0.03009984 -0.173119755 0.0084375
v -0.037122975 -0.17337651 0.0084375
v -0.04160157 -0.173938215 0.0084375
v -0.01730193 -0.173106555 0.0084375
v -0.036911205 -0.17337651 0.0084375
v -0.02901105 -0.1730886 0.0084375
v -0.01626741 -0.17220486 0.0084375
v -0.027932265 -0.17298261 0.0084375
v -0.026860905 -0.17280126 0.0084375
v -0.02580468 -0.17254614 0.0084375
v -0.024768825 -0.172217925 0.0084375
v -0.0237582 -0.17181876 0.0084375
v -0.015295995 -0.171233025 0.0084375
v -0.02278023 -0.171351255 0.0084375
v -0.02183241 -0.170814555 0.0084375
v -0.014391885 -0.17019651 0.0084375
v -0.02135514 -0.17046717 0.0084375
v -0.020940735 -0.17005203 0.0084375
v -0.013563465 -0.169103805 0.0084375
v -0.02059509 -0.169576095 0.0084375
v -0.02032767 -0.16905048 0.0084375
v -0.012808575 -0.167952855 0.0084375
v -0.02014644 -0.168490875 0.0084375
v -0.02005479 -0.16791033 0.0084375
v -0.01213626 -0.166757535 0.0084375
v -0.020055015 -0.16732119 0.0084375
v -0.02014779 -0.166739385 0.0084375
v -0.01154589 -0.165515565 0.0084375
v -0.020329905 -0.16618059 0.0084375
v -0.020597175 -0.16565661 0.0084375
v -0.020944215 -0.165179805 0.0084375
v -0.01356138 -0.16497333 0.0084375
v -0.01104138 -0.16423704 0.0084375
v -0.01377315 -0.16497333 0.0084375
v -0.01395909 -0.16488189 0.0084375
v -0.021360645 -0.16476438 0.0084375
v -0.014086845 -0.164724645 0.0084375
v -0.014136015 -0.164517105 0.0084375
v -0.02183538 -0.16441983 0.0084375
v -0.014086845 -0.16430955 0.0084375
v -0.01395909 -0.16415229 0.0084375
v -0.02236149 -0.16415214 0.0084375
v -0.01377315 -0.164060865 0.0084375
v -0.02297616 -0.163900515 0.0084375
v -0.010626585 -0.162929265 0.0084375
v -0.01356138 -0.164060865 0.0084375
v -0.02357997 -0.163667295 0.0084375
v -0.024172905 -0.16345248 0.0084375
v -0.02475513 -0.16325565 0.0084375
v -0.02532678 -0.16307646 0.0084375
v -0.025887135 -0.162916815 0.0084375
v -0.010300635 -0.161592105 0.0084375
v -0.026435445 -0.16277865 0.0084375
v -0.026971845 -0.16266156 0.0084375
v -0.0274965 -0.162565155 0.0084375
v -0.02800941 -0.16248945 0.0084375
v -0.02835543 -0.16245699 0.0084375
v -0.028690395 -0.16244439 0.0084375
v -0.035555595 -0.162105255 0.0084375
v -0.03540051 -0.161551665 0.0084375
v -0.02901429 -0.16245165 0.0084375
v -0.03573273 -0.162675945 0.0084375
v -0.029326755 -0.16247907 0.0084375
v -0.02991927 -0.162592815 0.0084375
v -0.030473355 -0.16278039 0.0084375
v -0.035931285 -0.16326381 0.0084375
v -0.030991215 -0.163043085 0.0084375
v -0.03147459 -0.163381455 0.0084375
v -0.036150585 -0.163870155 0.0084375
v -0.03192387 -0.163801305 0.0084375
v -0.03213501 -0.16404219 0.0084375
v -0.03639072 -0.164494815 0.0084375
v -0.032335845 -0.16430481 0.0084375
v -0.0325272 -0.16458906 0.0084375
v -0.036651765 -0.16513767 0.0084375
v -0.03270786 -0.164894595 0.0084375
v -0.03287628 -0.16522134 0.0084375
v -0.03691935 -0.1656639 0.0084375
v -0.033033195 -0.165569925 0.0084375
v -0.033177915 -0.16593921 0.0084375
v -0.03726384 -0.16613877 0.0084375
v -0.03330912 -0.166327665 0.0084375
v -0.03767922 -0.166555335 0.0084375
v -0.03342699 -0.166735635 0.0084375
v -0.03815601 -0.166902495 0.0084375
v -0.03353157 -0.16716297 0.0084375
v -0.038680005 -0.167169885 0.0084375
v -0.039238845 -0.16735212 0.0084375
v -0.0178803 -0.16131747 0.0084375
v -0.018442905 -0.16131282 0.0084375
v -0.010067715 -0.16024221 0.0084375
v -0.017326155 -0.16123851 0.0084375
v -0.01678884 -0.161077725 0.0084375
v -0.01628043 -0.16083792 0.0084375
v -0.01581438 -0.160525215 0.0084375
v -0.015400605 -0.160147065 0.0084375
v -0.009927645 -0.158878815 0.0084375
v -0.01504734 -0.15971097 0.0084375
v -0.014762865 -0.159226125 0.0084375
v -0.014554485 -0.158705415 0.0084375
v -0.009879915 -0.1575 0.0084375
v -0.014426085 -0.1581606 0.0084375
v -0.014380245 -0.157599855 0.0084375
v -0.0144114 -0.15651108 0.0084375
v -0.009927645 -0.156121185 0.0084375
v -0.014517375 -0.155432295 0.0084375
v -0.010067715 -0.15475779 0.0084375
v -0.014698725 -0.15436095 0.0084375
v -0.010300635 -0.153407895 0.0084375
v -0.014953845 -0.153304725 0.0084375
v -0.010626585 -0.152070735 0.0084375
v -0.015282045 -0.15226887 0.0084375
v -0.015681225 -0.15125823 0.0084375
v -0.01104138 -0.15076296 0.0084375
v -0.016148745 -0.15028023 0.0084375
v -0.01154589 -0.149484435 0.0084375
v -0.016685475 -0.149332365 0.0084375
v -0.01213626 -0.148242465 0.0084375
v -0.01703289 -0.14885505 0.0084375
v -0.017448105 -0.148440615 0.0084375
v -0.0179241 -0.14809494 0.0084375
v -0.012808575 -0.147047145 0.0084375
v -0.01844979 -0.14782752 0.0084375
v -0.019009455 -0.147646335 0.0084375
v -0.019590075 -0.14755473 0.0084375
v -0.026379525 -0.147401655 0.0084375
v -0.02630127 -0.146933295 0.0084375
v -0.020179275 -0.147555015 0.0084375
v -0.02647215 -0.14785269 0.0084375
v -0.020761125 -0.147647865 0.0084375
v -0.021319965 -0.1478301 0.0084375
v -0.02184396 -0.148097475 0.0084375
v -0.02657904 -0.148286055 0.0084375
v -0.022320765 -0.148444635 0.0084375
v -0.026699445 -0.148699365 0.0084375
v -0.022736145 -0.1488612 0.0084375
v -0.02683335 -0.149091615 0.0084375
v -0.02308062 -0.14933604 0.0084375
v -0.026981055 -0.14946378 0.0084375
v -0.027140745 -0.14981397 0.0084375
v -0.02334822 -0.149862285 0.0084375
v -0.027311475 -0.15014073 0.0084375
v -0.02749422 -0.15044475 0.0084375
v -0.023599365 -0.150475965 0.0084375
v -0.027687015 -0.15072645 0.0084375
v -0.027888195 -0.15098592 0.0084375
v -0.023832225 -0.151078965 0.0084375
v -0.02809869 -0.15122259 0.0084375
v -0.028544775 -0.15163407 0.0084375
v -0.0240468 -0.151671285 0.0084375
v -0.02902263 -0.15196548 0.0084375
v -0.02953461 -0.15222306 0.0084375
v -0.024243525 -0.15225306 0.0084375
v -0.03008331 -0.15240753 0.0084375
v -0.03067221 -0.15252084 0.0084375
v -0.03098382 -0.152548275 0.0084375
v -0.02442279 -0.152824425 0.0084375
v -0.031307655 -0.15255546 0.0084375
v -0.049699365 -0.153407895 0.0084375
v -0.03164325 -0.15254289 0.0084375
v -0.024582585 -0.15338472 0.0084375
v -0.04211934 -0.153682485 0.0084375
v -0.049932285 -0.15475779 0.0084375
v -0.04155669 -0.153687195 0.0084375
v -0.041054865 -0.153736905 0.0084375
v -0.04057092 -0.15380061 0.0084375
v -0.04010484 -0.15387828 0.0084375
v -0.024720885 -0.15393324 0.0084375
v -0.03965598 -0.15397011 0.0084375
v -0.0392247 -0.154076025 0.0084375
v -0.038813175 -0.154195365 0.0084375
v -0.038422365 -0.154328175 0.0084375
v -0.02483811 -0.15447012 0.0084375
v -0.038051385 -0.154474695 0.0084375
v -0.037701915 -0.1546332 0.0084375
v -0.03737532 -0.154802775 0.0084375
v -0.037070925 -0.154984305 0.0084375
v -0.024934665 -0.154995525 0.0084375
v -0.03678846 -0.15517605 0.0084375
v -0.036527955 -0.15537657 0.0084375
v -0.02501055 -0.15550941 0.0084375
v -0.03628989 -0.155586705 0.0084375
v -0.025042995 -0.15585543 0.0084375
v -0.03587532 -0.156032925 0.0084375
v -0.025055595 -0.156190395 0.0084375
v -0.03 -0.156328125 0.0084375
v -0.035540865 -0.15651225 0.0084375
v -0.02983596 -0.156340935 0.0084375
v -0.029669775 -0.156377685 0.0084375
v -0.029511045 -0.15643578 0.0084375
v -0.029368155 -0.156513315 0.0084375
v -0.02504835 -0.15651429 0.0084375
v -0.02923509 -0.156614475 0.0084375
v -0.029114475 -0.15673509 0.0084375
v -0.02502093 -0.156826755 0.0084375
v -0.029013315 -0.15686814 0.0084375
v -0.02893635 -0.157008915 0.0084375
v -0.028880055 -0.15716094 0.0084375
v -0.02884398 -0.157324635 0.0084375
v -0.02490717 -0.15741927 0.0084375
v -0.028828125 -0.1575 0.0084375
v -0.02884398 -0.157675365 0.0084375
v -0.028880055 -0.15783906 0.0084375
v -0.02471961 -0.157973355 0.0084375
v -0.02893635 -0.157991085 0.0084375
v -0.029013315 -0.15813186 0.0084375
v -0.029114475 -0.15826491 0.0084375
v -0.02923509 -0.158385525 0.0084375
v -0.029368155 -0.158486685 0.0084375
v -0.0244569 -0.158491215 0.0084375
v -0.029511045 -0.15856422 0.0084375
v -0.029669775 -0.158622315 0.0084375
v -0.02983596 -0.158659065 0.0084375
v -0.03 -0.158671875 0.0084375
v -0.02411856 -0.15897459 0.0084375
v -0.034944495 -0.15880662 0.0084375
v -0.03016404 -0.158659065 0.0084375
v -0.03495702 -0.159142815 0.0084375
v -0.023698695 -0.15942387 0.0084375
v -0.03498945 -0.15949059 0.0084375
v -0.023457825 -0.15963501 0.0084375
v -0.03506118 -0.15998376 0.0084375
v -0.023195175 -0.159835845 0.0084375
v -0.02291094 -0.1600272 0.0084375
v -0.03515367 -0.16049181 0.0084375
v -0.022605405 -0.16020786 0.0084375
v -0.022278645 -0.16037628 0.0084375
v -0.021930075 -0.16053318 0.0084375
v -0.035266815 -0.161014545 0.0084375
v -0.02156079 -0.160677915 0.0084375
v -0.021172335 -0.160809135 0.0084375
v -0.02076435 -0.16092699 0.0084375
v -0.02033703 -0.161031555 0.0084375
v -0.019891215 -0.16112244 0.0084375
v -0.019427055 -0.161199525 0.0084375
v -0.01894428 -0.161263005 0.0084375
v -0.030330225 -0.158622315 0.0084375
v -0.030488955 -0.15856422 0.0084375
v -0.030631845 -0.158486685 0.0084375
v -0.034951845 -0.15848196 0.0084375
v -0.03076491 -0.158385525 0.0084375
v -0.030885525 -0.15826491 0.0084375
v -0.03497952 -0.1581693 0.0084375
v -0.030986685 -0.15813186 0.0084375
v -0.03106365 -0.157991085 0.0084375
v -0.031119945 -0.15783906 0.0084375
v -0.03115602 -0.157675365 0.0084375
v -0.035093715 -0.157577805 0.0084375
v -0.031171875 -0.1575 0.0084375
v -0.03115602 -0.157324635 0.0084375
v -0.031119945 -0.15716094 0.0084375
v -0.03528045 -0.157026465 0.0084375
v -0.03106365 -0.157008915 0.0084375
v -0.030986685 -0.15686814 0.0084375
v -0.030885525 -0.15673509 0.0084375
v -0.03076491 -0.156614475 0.0084375
v -0.030631845 -0.156513315 0.0084375
v -0.030488955 -0.15643578 0.0084375
v -0.030330225 -0.156377685 0.0084375
v -0.03016404 -0.156340935 0.0084375
v -0.04267353 -0.1537614 0.0084375
v -0.04321089 -0.153922155 0.0084375
v -0.043719345 -0.15416196 0.0084375
v -0.04418544 -0.15447462 0.0084375
v -0.04459926 -0.1548528 0.0084375
v -0.04495257 -0.155288895 0.0084375
v -0.03199059 -0.15251055 0.0084375
v -0.03248361 -0.152438895 0.0084375
v -0.03299208 -0.152346315 0.0084375
v -0.033515865 -0.152232855 0.0084375
v -0.034054845 -0.152098635 0.0084375
v -0.049373415 -0.152070735 0.0084375
v -0.0346101 -0.151942995 0.0084375
v -0.035182005 -0.15176529 0.0084375
v -0.035770485 -0.151566315 0.0084375
v -0.036375975 -0.15134724 0.0084375
v -0.036998415 -0.1511079 0.0084375
v -0.04622685 -0.150939135 0.0084375
v -0.03763776 -0.150848205 0.0084375
v -0.04643862 -0.150939135 0.0084375
v -0.04662456 -0.15084771 0.0084375
v -0.04895862 -0.15076296 0.0084375
v -0.046752315 -0.15069045 0.0084375
v -0.046801485 -0.150482895 0.0084375
v -0.046752315 -0.150275355 0.0084375
v -0.04662456 -0.15011811 0.0084375
v -0.04643862 -0.15002667 0.0084375
v -0.04845411 -0.149484435 0.0084375
v -0.039055395 -0.149820735 0.0084375
v -0.03940254 -0.14934393 0.0084375
v -0.04622685 -0.15002667 0.0084375
v -0.04604091 -0.15011811 0.0084375
v -0.038638845 -0.1502361 0.0084375
v -0.045913155 -0.150275355 0.0084375
v -0.045863985 -0.150482895 0.0084375
v -0.03816399 -0.150580605 0.0084375
v -0.045913155 -0.15069045 0.0084375
v -0.04604091 -0.15084771 0.0084375
v -0.039669915 -0.148819935 0.0084375
v -0.039852135 -0.148261095 0.0084375
v -0.04786374 -0.148242465 0.0084375
v -0.039944985 -0.14767926 0.0084375
v -0.03994527 -0.14709006 0.0084375
v -0.047191425 -0.147047145 0.0084375
v -0.039853665 -0.14650944 0.0084375
v -0.039672465 -0.145949775 0.0084375
v -0.046436535 -0.145896195 0.0084375
v -0.039405045 -0.1454241 0.0084375
v -0.039059385 -0.14494809 0.0084375
v -0.045608115 -0.14480349 0.0084375
v -0.03864495 -0.14453289 0.0084375
v -0.038167635 -0.144185475 0.0084375
v -0.044704005 -0.143766975 0.0084375
v -0.03721974 -0.14364873 0.0084375
v -0.03624171 -0.14318121 0.0084375
v -0.04373259 -0.14279514 0.0084375
v -0.03523107 -0.142782045 0.0084375
v -0.03419523 -0.14245383 0.0084375
v -0.033139035 -0.142198725 0.0084375
v -0.032067705 -0.14201739 0.0084375
v -0.030988965 -0.1419114 0.0084375
v -0.04269807 -0.141893445 0.0084375
v -0.02990022 -0.141880245 0.0084375
v -0.022877025 -0.14162349 0.0084375
v -0.01730193 -0.141893445 0.0084375
v -0.023088795 -0.14162349 0.0084375
v -0.02327472 -0.14153208 0.0084375
v -0.02340249 -0.141374805 0.0084375
v -0.02345166 -0.141167265 0.0084375
v -0.04160157 -0.141061785 0.0084375
v -0.02340249 -0.140959725 0.0084375
v -0.02327472 -0.140802465 0.0084375
v -0.023088795 -0.140711025 0.0084375
v -0.01954476 -0.14030988 0.0084375
v -0.022877025 -0.140711025 0.0084375
v -0.04045524 -0.14030988 0.0084375
v -0.020744295 -0.1396356 0.0084375
v -0.039255705 -0.1396356 0.0084375
v -0.02198385 -0.139045755 0.0084375
v -0.03801615 -0.139045755 0.0084375
v -0.02326185 -0.138542115 0.0084375
v -0.03673815 -0.138542115 0.0084375
v -0.024573 -0.13812576 0.0084375
v -0.035427 -0.13812576 0.0084375
v -0.02590512 -0.137801235 0.0084375
v -0.03409488 -0.137801235 0.0084375
v -0.02726151 -0.13756743 0.0084375
v -0.03273849 -0.13756743 0.0084375
v -0.02862597 -0.13742694 0.0084375
v -0.03137403 -0.13742694 0.0084375
v -0.03 -0.137380275 0.0084375
v -0.022691085 -0.140802465 0.0084375
v -0.022563315 -0.140959725 0.0084375
v -0.01839843 -0.141061785 0.0084375
v -0.02251416 -0.141167265 0.0084375
v -0.022563315 -0.141374805 0.0084375
v -0.022691085 -0.14153208 0.0084375
v -0.029339505 -0.141926085 0.0084375
v -0.028794705 -0.14205447 0.0084375
v -0.028274025 -0.142262805 0.0084375
v -0.02778921 -0.142547265 0.0084375
v -0.01626741 -0.14279514 0.0084375
v -0.027353115 -0.142900485 0.0084375
v -0.026974965 -0.143314215 0.0084375
v -0.015295995 -0.143766975 0.0084375
v -0.02666226 -0.14378022 0.0084375
v -0.026422425 -0.1442886 0.0084375
v -0.014391885 -0.14480349 0.0084375
v -0.02626161 -0.14482587 0.0084375
v -0.02618259 -0.14537997 0.0084375
v -0.013563465 -0.145896195 0.0084375
v -0.02618721 -0.14594256 0.0084375
v -0.02623716 -0.146446935 0.0084375
v -0.01337544 -0.16415229 0.0084375
v -0.013247685 -0.16430955 0.0084375
v -0.013198515 -0.164517105 0.0084375
v -0.013247685 -0.164724645 0.0084375
v -0.01337544 -0.16488189 0.0084375
v -0.03672528 -0.17346792 0.0084375
v -0.03659751 -0.173625195 0.0084375
v -0.03654834 -0.173832735 0.0084375
v -0.01839843 -0.173938215 0.0084375
v -0.03659751 -0.174040275 0.0084375
v -0.03672528 -0.174197535 0.0084375
v -0.036911205 -0.174288975 0.0084375
v -0.04045524 -0.17469012 0.0084375
v -0.037122975 -0.174288975 0.0084375
v -0.01954476 -0.17469012 0.0084375
v -0.039255705 -0.1753644 0.0084375
v -0.020744295 -0.1753644 0.0084375
v -0.03801615 -0.175954245 0.0084375
v -0.02198385 -0.175954245 0.0084375
v -0.03673815 -0.176457885 0.0084375
v -0.02326185 -0.176457885 0.0084375
v -0.035427 -0.17687424 0.0084375
v -0.024573 -0.17687424 0.0084375
v -0.03409488 -0.177198765 0.0084375
v -0.02590512 -0.177198765 0.0084375
v -0.03273849 -0.17743257 0.0084375
v -0.02726151 -0.17743257 0.0084375
v -0.03137403 -0.17757306 0.0084375
v -0.02862597 -0.17757306 0.0084375
v -0.03 -0.177619725 0.0084375
v -0.037308915 -0.174197535 0.0084375
v -0.037436685 -0.174040275 0.0084375
v -0.03748584 -0.173832735 0.0084375
v -0.037436685 -0.173625195 0.0084375
v -0.037308915 -0.17346792 0.0084375
f 1 2 3
f 1 4 2
f 1 3 5
f 5 3 6
f 7 5 6
f 8 7 6
f 9 8 6
f 9 6 10
f 11 9 10
f 12 11 10
f 13 12 10
f 13 10 14
f 15 13 14
f 16 15 14
f 17 16 14
f 18 17 14
f 18 14 19
f 20 19 14
f 21 18 19
f 21 19 22
f 23 21 22
f 24 23 22
f 25 24 22
f 26 25 22
f 27 26 22
f 27 22 28
f 29 27 28
f 30 29 28
f 31 30 28
f 32 31 28
f 32 28 33
f 34 32 33
f 35 34 33
f 36 35 33
f 36 33 37
f 38 36 37
f 39 38 37
f 39 37 40
f 41 39 40
f 41 40 42
f 41 42 43
f 42 44 43
f 41 43 45
f 41 45 46
f 41 46 47
f 48 41 47
f 48 47 49
f 48 49 50
f 48 50 51
f 48 51 52
f 48 52 53
f 54 48 53
f 54 53 55
f 54 55 56
f 54 56 57
f 58 54 57
f 58 57 59
f 58 59 60
f 58 60 61
f 58 61 62
f 63 58 62
f 63 62 64
f 63 64 65
f 66 63 65
f 66 65 67
f 66 67 68
f 66 68 69
f 66 69 70
f 66 70 71
f 72 66 71
f 72 71 73
f 73 71 74
f 75 72 73
f 75 73 76
f 77 75 76
f 77 76 78
f 77 78 79
f 80 77 79
f 80 79 81
f 80 81 82
f 80 82 83
f 80 83 84
f 85 80 84
f 85 84 86
f 85 86 87
f 85 87 88
f 85 88 89
f 90 85 89
f 90 89 91
f 90 91 92
f 90 92 93
f 90 93 94
f 90 94 95
f 94 96 95
f 97 90 95
f 97 95 98
f 99 97 98
f 99 98 100
f 101 100 98
f 99 100 102
f 99 102 103
f 99 103 104
f 105 99 104
f 105 104 106
f 105 106 107
f 108 105 107
f 108 107 109
f 108 109 110
f 111 108 110
f 111 110 112
f 111 112 113
f 114 111 113
f 114 113 115
f 114 115 116
f 117 114 116
f 117 116 118
f 117 118 119
f 120 117 119
f 120 119 121
f 122 120 121
f 122 121 123
f 124 122 123
f 124 123 125
f 126 124 125
f 126 125 127
f 128 126 127
f 128 127 129
f 130 128 129
f 131 130 129
f 132 131 129
f 132 129 133
f 129 134 133
f 132 133 135
f 136 132 135
f 137 136 135
f 138 137 135
f 139 138 135
f 139 135 140
f 141 139 140
f 142 141 140
f 143 142 140
f 143 140 144
f 145 143 144
f 145 144 146
f 147 145 146
f 147 146 148
f 149 147 148
f 150 149 148
f 150 148 151
f 4 150 151
f 4 151 2
f 134 152 133
f 152 153 133
f 153 154 133
f 153 155 154
f 155 156 154
f 156 157 154
f 156 158 157
f 158 159 157
f 159 160 157
f 159 161 160
f 161 162 160
f 162 163 160
f 162 164 163
f 164 165 163
f 165 166 163
f 166 167 163
f 167 168 163
f 167 169 168
f 169 170 168
f 169 171 170
f 170 172 168
f 172 173 168
f 173 174 168
f 174 175 168
f 175 176 168
f 177 176 175
f 177 178 176
f 178 179 176
f 179 180 176
f 179 181 180
f 179 182 181
f 181 183 180
f 183 184 180
f 183 185 184
f 185 186 184
f 185 187 186
f 187 188 186
f 187 189 188
f 189 190 188
f 189 191 190
f 191 192 190
f 191 193 192
f 193 194 192
f 193 195 194
f 195 196 194
f 195 197 196
f 182 198 181
f 198 199 181
f 199 171 181
f 199 200 171
f 200 201 171
f 201 202 171
f 202 170 171
f 169 203 171
f 169 204 203
f 204 205 203
f 205 206 203
f 206 207 203
f 207 208 203
f 208 209 203
f 208 210 209
f 210 211 209
f 211 212 209
f 211 213 212
f 213 214 212
f 214 215 212
f 214 216 215
f 216 217 215
f 217 218 215
f 217 219 218
f 219 220 218
f 220 221 218
f 220 222 221
f 222 223 221
f 223 224 221
f 223 225 224
f 225 226 224
f 226 227 224
f 227 228 224
f 227 229 228
f 229 230 228
f 229 231 230
f 230 232 228
f 232 233 228
f 233 234 228
f 234 235 228
f 235 236 228
f 236 237 228
f 236 238 237
f 238 239 237
f 240 237 239
f 240 241 237
f 242 240 239
f 243 242 239
f 244 243 239
f 244 239 245
f 244 245 246
f 246 245 247
f 246 247 248
f 249 246 248
f 249 248 250
f 249 250 251
f 231 249 251
f 231 251 252
f 231 252 230
f 241 98 237
f 241 253 98
f 253 254 98
f 254 255 98
f 255 256 98
f 256 257 98
f 257 101 98
f 96 258 95
f 258 259 95
f 259 260 95
f 260 261 95
f 261 262 95
f 261 263 262
f 263 264 262
f 264 265 262
f 265 266 262
f 265 267 266
f 267 268 266
f 268 269 266
f 269 270 266
f 271 270 269
f 271 272 270
f 271 273 272
f 273 274 272
f 273 275 274
f 275 276 274
f 275 277 276
f 277 278 276
f 278 279 276
f 278 280 279
f 280 281 279
f 280 282 281
f 282 283 281
f 282 284 283
f 284 285 283
f 285 286 283
f 286 287 283
f 286 288 287
f 288 289 287
f 289 290 287
f 290 291 287
f 291 292 287
f 293 292 291
f 293 294 292
f 293 291 295
f 293 295 296
f 293 296 297
f 298 293 297
f 298 297 299
f 300 298 299
f 300 299 301
f 302 300 301
f 302 301 303
f 304 302 303
f 304 303 305
f 306 304 305
f 306 305 307
f 308 306 307
f 309 308 307
f 309 307 310
f 311 309 310
f 312 311 310
f 312 310 313
f 314 312 313
f 315 314 313
f 315 313 316
f 317 315 316
f 318 317 316
f 318 316 319
f 320 318 319
f 321 320 319
f 321 319 20
f 322 321 20
f 323 322 20
f 324 323 20
f 324 20 325
f 20 14 325
f 326 324 325
f 327 326 325
f 328 327 325
f 329 328 325
f 330 329 325
f 331 330 325
f 332 331 325
f 332 325 333
f 334 332 333
f 334 333 335
f 336 335 333
f 337 334 335
f 338 337 335
f 339 338 335
f 339 335 340
f 341 339 340
f 341 340 342
f 341 342 343
f 344 341 343
f 344 343 345
f 344 345 346
f 347 344 346
f 347 346 348
f 347 348 349
f 350 347 349
f 350 349 351
f 349 352 351
f 353 350 351
f 353 351 354
f 355 353 354
f 356 355 354
f 357 356 354
f 357 354 358
f 359 357 358
f 360 359 358
f 360 358 361
f 362 360 361
f 363 362 361
f 363 361 364
f 365 363 364
f 366 365 364
f 366 364 367
f 368 366 367
f 369 368 367
f 369 367 370
f 371 369 370
f 372 371 370
f 372 370 373
f 374 372 373
f 375 374 373
f 376 375 373
f 377 376 373
f 377 373 378
f 378 373 379
f 378 379 380
f 381 380 379
f 378 380 382
f 380 383 382
f 384 378 382
f 384 382 385
f 386 384 385
f 387 386 385
f 388 387 385
f 389 388 385
f 389 385 390
f 391 389 390
f 392 391 390
f 392 390 393
f 394 392 393
f 395 394 393
f 395 393 396
f 397 395 396
f 398 397 396
f 398 396 292
f 399 398 292
f 294 399 292
f 383 400 382
f 400 401 382
f 401 402 382
f 402 403 382
f 402 404 403
f 404 405 403
f 405 406 403
f 406 407 403
f 406 408 407
f 406 409 408
f 408 410 407
f 410 411 407
f 410 412 411
f 412 413 411
f 412 414 413
f 414 415 413
f 414 416 415
f 416 417 415
f 416 418 417
f 418 419 417
f 418 420 419
f 420 421 419
f 420 422 421
f 422 423 421
f 422 424 423
f 409 425 408
f 425 426 408
f 426 379 408
f 426 427 379
f 428 379 427
f 428 381 379
f 352 429 351
f 429 430 351
f 430 431 351
f 432 351 431
f 432 333 351
f 432 336 333
f 73 74 433
f 73 433 434
f 435 73 434
f 435 434 436
f 435 436 437
f 435 437 438
f 435 438 439
f 435 439 440
f 441 435 440
f 441 440 442
f 441 442 443
f 441 443 444
f 445 441 444
f 445 444 446
f 445 446 447
f 445 447 448
f 445 448 449
f 450 445 449
f 450 449 451
f 450 451 452
f 44 450 452
f 44 452 453
f 44 453 454
f 44 454 455
f 44 455 456
f 44 456 43
f 457 458 459
f 460 458 457
f 457 459 461
f 461 459 462
f 461 462 463
f 463 462 464
f 463 464 465
f 465 464 466
f 465 466 467
f 467 466 468
f 467 468 469
f 469 468 470
f 469 470 471
f 471 470 472
f 471 472 473
f 473 472 474
f 473 474 475
f 475 474 476
f 475 476 477
f 477 476 478
f 477 478 479
f 479 478 480
f 479 480 481
f 481 480 482
f 481 482 483
f 483 482 484
f 483 484 485
f 485 484 486
f 485 486 487
f 487 486 488
f 487 488 489
f 489 488 490
f 489 490 491
f 491 490 492
f 491 492 493
f 493 492 494
f 493 494 495
f 495 494 496
f 495 496 497
f 497 496 498
f 497 498 499
f 499 498 500
f 499 500 501
f 501 500 502
f 501 502 503
f 503 502 504
f 503 504 505
f 505 504 506
f 505 506 507
f 507 506 508
f 507 508 509
f 509 508 510
f 509 510 511
f 511 510 512
f 511 512 513
f 513 512 514
f 513 514 515
f 515 514 516
f 515 516 517
f 517 516 518
f 517 518 519
f 519 518 520
f 519 520 521
f 521 520 522
f 521 522 523
f 523 522 524
f 523 524 525
f 525 524 526
f 525 526 527
f 527 526 528
f 527 528 529
f 529 528 530
f 529 530 531
f 531 530 532
f 531 532 533
f 533 532 534
f 533 534 535
f 535 534 536
f 535 536 537
f 537 536 538
f 537 538 539
f 539 538 540
f 539 540 541
f 541 540 542
f 541 542 543
f 543 542 544
f 543 544 545
f 545 544 546
f 545 546 547
f 547 546 548
f 547 548 549
f 549 548 550
f 549 550 551
f 551 550 552
f 553 551 552
f 553 552 554
f 553 554 555
f 555 554 556
f 555 556 557
f 557 556 558
f 557 558 559
f 559 558 560
f 559 560 561
f 561 560 562
f 561 562 563
f 563 562 564
f 563 564 565
f 565 564 566
f 565 566 567
f 567 566 568
f 567 568 569
f 569 568 570
f 569 570 571
f 571 570 572
f 571 572 573
f 573 572 574
f 573 574 575
f 575 574 576
f 575 576 577
f 577 576 578
f 577 578 579
f 579 578 580
f 579 580 581
f 581 580 582
f 581 582 583
f 583 582 584
f 583 584 585
f 585 584 586
f 585 586 587
f 587 586 588
f 587 588 589
f 589 588 590
f 589 590 591
f 591 590 592
f 591 592 593
f 593 592 594
f 593 594 595
f 595 594 596
f 595 596 597
f 597 596 598
f 597 598 599
f 599 598 600
f 599 600 601
f 601 600 602
f 601 602 603
f 603 602 604
f 603 604 605
f 605 604 606
f 605 606 607
f 607 606 608
f 607 608 609
f 609 608 610
f 609 610 611
f 611 610 612
f 611 612 613
f 613 612 614
f 613 614 615
f 615 614 616
f 615 616 617
f 617 616 618
f 617 618 619
f 619 618 620
f 619 620 621
f 621 620 622
f 621 622 623
f 623 622 624
f 623 624 625
f 625 624 626
f 625 626 627
f 627 626 628
f 627 628 629
f 629 628 630
f 629 630 631
f 631 630 632
f 631 632 633
f 633 632 634
f 633 634 635
f 635 634 636
f 635 636 637
f 637 636 638
f 637 638 639
f 639 638 640
f 639 640 460
f 460 640 458
f 641 642 643
f 644 642 641
f 645 641 643
f 645 643 646
f 645 646 647
f 647 646 648
f 647 648 649
f 649 648 650
f 649 650 651
f 651 650 652
f 651 652 653
f 653 652 654
f 653 654 655
f 655 654 656
f 655 656 657
f 657 656 658
f 657 658 659
f 659 658 660
f 659 660 661
f 661 660 662
f 661 662 663
f 663 662 664
f 663 664 665
f 665 664 666
f 665 666 667
f 667 666 668
f 667 668 644
f 644 668 642
f 669 670 671
f 672 670 669
f 673 669 671
f 673 671 674
f 673 674 675
f 675 674 676
f 675 676 677
f 677 676 678
f 677 678 679
f 679 678 680
f 679 680 681
f 681 680 682
f 681 682 683
f 683 682 684
f 683 684 685
f 685 684 686
f 685 686 687
f 687 686 688
f 687 688 689
f 689 688 690
f 689 690 691
f 691 690 692
f 691 692 693
f 693 692 694
f 693 694 695
f 695 694 696
f 695 696 672
f 672 696 670
f 697 698 699
f 700 698 697
f 701 697 699
f 701 699 702
f 701 702 703
f 703 702 704
f 703 704 705
f 705 704 706
f 705 706 707
f 707 706 708
f 707 708 709
f 709 708 710
f 709 710 711
f 711 710 712
f 711 712 713
f 713 712 714
f 713 714 715
f 715 714 716
f 715 716 717
f 717 716 718
f 717 718 719
f 719 718 720
f 719 720 721
f 721 720 722
f 721 722 723
f 723 722 724
f 723 724 700
f 700 724 698
f 725 726 727
f 728 726 725
f 729 725 727
f 729 727 730
f 729 730 731
f 731 730 732
f 731 732 733
f 733 732 734
f 733 734 735
f 735 734 736
f 735 736 737
f 737 736 738
f 737 738 739
f 739 738 740
f 739 740 741
f 741 740 742
f 741 742 743
f 743 742 744
f 743 744 745
f 745 744 746
f 745 746 747
f 747 746 748
f 747 748 749
f 749 748 750
f 749 750 751
f 751 750 752
f 751 752 728
f 728 752 726
f 753 754 755
f 756 754 753
f 757 753 755
f 757 755 758
f 757 758 759
f 759 758 760
f 759 760 761
f 761 760 762
f 761 762 763
f 763 762 764
f 763 764 765
f 765 764 766
f 765 766 767
f 767 766 768
f 767 768 769
f 769 768 770
f 769 770 771
f 771 770 772
f 771 772 773
f 773 772 774
f 773 774 775
f 775 774 776
f 775 776 777
f 777 776 778
f 777 778 779
f 779 778 780
f 779 780 781
f 781 780 782
f 781 782 783
f 783 782 784
f 783 784 785
f 785 784 786
f 785 786 787
f 787 786 788
f 787 788 789
f 789 788 790
f 789 790 791
f 791 790 792
f 791 792 793
f 793 792 794
f 793 794 795
f 795 794 796
f 795 796 797
f 797 796 798
f 797 798 799
f 799 798 800
f 799 800 801
f 801 800 802
f 801 802 803
f 803 802 804
f 803 804 805
f 805 804 806
f 805 806 807
f 807 806 808
f 807 808 809
f 809 808 810
f 809 810 811
f 811 810 812
f 811 812 813
f 813 812 814
f 813 814 815
f 815 814 816
f 815 816 817
f 817 816 818
f 817 818 819
f 819 818 820
f 819 820 821
f 821 820 822
f 821 822 823
f 823 822 824
f 823 824 825
f 825 824 826
f 825 826 827
f 827 826 828
f 827 828 829
f 829 828 830
f 829 830 831
f 831 830 832
f 831 832 833
f 833 832 834
f 833 834 835
f 835 834 836
f 835 836 837
f 837 836 838
f 837 838 839
f 839 838 840
f 839 840 756
f 756 840 754
f 841 842 843
f 844 842 841
f 841 843 845
f 845 843 846
f 845 846 847
f 847 846 848
f 847 848 849
f 849 848 850
f 849 850 851
f 851 850 852
f 851 852 853
f 853 852 854
f 853 854 855
f 855 854 856
f 855 856 857
f 857 856 858
f 857 858 859
f 859 858 860
f 859 860 861
f 861 860 862
f 861 862 863
f 863 862 864
f 863 864 865
f 865 864 866
f 865 866 867
f 867 866 868
f 867 868 869
f 869 868 870
f 869 870 871
f 871 870 872
f 871 872 873
f 873 872 874
f 873 874 875
f 875 874 876
f 875 876 877
f 877 876 878
f 877 878 879
f 879 878 880
f 879 880 881
f 881 880 882
f 881 882 883
f 883 882 884
f 883 884 885
f 885 884 886
f 885 886 887
f 887 886 888
f 889 887 888
f 889 888 890
f 889 890 891
f 891 890 892
f 891 892 893
f 893 892 894
f 893 894 895
f 895 894 896
f 895 896 897
f 897 896 898
f 897 898 899
f 899 898 900
f 899 900 901
f 901 900 902
f 901 902 903
f 903 902 904
f 903 904 905
f 905 904 906
f 905 906 907
f 907 906 908
f 907 908 909
f 909 908 910
f 909 910 911
f 911 910 912
f 911 912 913
f 913 912 914
f 913 914 915
f 915 914 916
f 915 916 917
f 917 916 918
f 917 918 919
f 919 918 920
f 919 920 921
f 921 920 922
f 921 922 923
f 923 922 924
f 923 924 925
f 925 924 926
f 925 926 927
f 927 926 928
f 927 928 929
f 929 928 930
f 929 930 931
f 931 930 932
f 931 932 933
f 933 932 934
f 933 934 935
f 935 934 936
f 935 936 937
f 937 936 938
f 937 938 939
f 939 938 940
f 939 940 941
f 941 940 942
f 941 942 943
f 943 942 944
f 943 944 945
f 945 944 946
f 945 946 947
f 947 946 948
f 947 948 949
f 949 948 950
f 949 950 951
f 951 950 952
f 951 952 953
f 953 952 954
f 953 954 955
f 955 954 956
f 955 956 957
f 957 956 958
f 957 958 959
f 959 958 960
f 959 960 961
f 961 960 962
f 961 962 963
f 963 962 964
f 963 964 965
f 965 964 966
f 965 966 967
f 967 966 968
f 967 968 969
f 969 968 970
f 969 970 971
f 971 970 972
f 971 972 844
f 844 972 842
f 973 974 975
f 976 974 973
f 973 975 977
f 977 975 978
f 977 978 979
f 979 978 980
f 979 980 981
f 981 980 982
f 981 982 983
f 983 982 984
f 983 984 985
f 985 984 986
f 985 986 987
f 987 986 988
f 987 988 989
f 989 988 990
f 989 990 991
f 991 990 992
f 991 992 993
f 993 992 994
f 993 994 995
f 995 994 996
f 995 996 997
f 997 996 998
f 997 998 999
f 999 998 1000
f 999 1000 1001
f 1001 1000 1002
f 1001 1002 1003
f 1003 1002 1004
f 1003 1004 1005
f 1005 1004 1006
f 1005 1006 1007
f 1007 1006 1008
f 1007 1008 1009
f 1009 1008 1010
f 1009 1010 1011
f 1011 1010 1012
f 1011 1012 1013
f 1013 1012 1014
f 1013 1014 1015
f 1015 1014 1016
f 1015 1016 1017
f 1017 1016 1018
f 1017 1018 1019
f 1019 1018 1020
f 1019 1020 1021
f 1021 1020 1022
f 1021 1022 1023
f 1023 1022 1024
f 1023 1024 1025
f 1025 1024 1026
f 1025 1026 1027
f 1027 1026 1028
f 1027 1028 1029
f 1029 1028 1030
f 1029 1030 1031
f 1031 1030 1032
f 1031 1032 1033
f 1033 1032 1034
f 1033 1034 1035
f 1035 1034 1036
f 1035 1036 1037
f 1037 1036 1038
f 1037 1038 1039
f 1039 1038 1040
f 1039 1040 1041
f 1041 1040 1042
f 1041 1042 1043
f 1043 1042 1044
f 1045 1043 1044
f 1045 1044 1046
f 1045 1046 1047
f 1047 1046 1048
f 1047 1048 1049
f 1049 1048 1050
f 1049 1050 1051
f 1051 1050 1052
f 1051 1052 1053
f 1053 1052 1054
f 1053 1054 1055
f 1055 1054 1056
f 1055 1056 1057
f 1057 1056 1058
f 1057 1058 1059
f 1059 1058 1060
f 1059 1060 1061
f 1061 1060 1062
f 1061 1062 1063
f 1063 1062 1064
f 1063 1064 1065
f 1065 1064 1066
f 1065 1066 1067
f 1067 1066 1068
f 1067 1068 1069
f 1069 1068 1070
f 1069 1070 1071
f 1071 1070 1072
f 1071 1072 1073
f 1073 1072 1074
f 1073 1074 1075
f 1075 1074 1076
f 1075 1076 1077
f 1077 1076 1078
f 1077 1078 1079
f 1079 1078 1080
f 1079 1080 1081
f 1081 1080 1082
f 1081 1082 1083
f 1083 1082 1084
f 1083 1084 1085
f 1085 1084 1086
f 1085 1086 1087
f 1087 1086 1088
f 1087 1088 1089
f 1089 1088 1090
f 1089 1090 1091
f 1091 1090 1092
f 1091 1092 1093
f 1093 1092 1094
f 1093 1094 1095
f 1095 1094 1096
f 1095 1096 1097
f 1097 1096 1098
f 1097 1098 1099
f 1099 1098 1100
f 1099 1100 1101
f 1101 1100 1102
f 1101 1102 1103
f 1103 1102 1104
f 1103 1104 976
f 976 1104 974
f 1105 1106 1107
f 1108 1106 1105
f 1105 1107 1109
f 1109 1107 1110
f 1109 1110 1111
f 1111 1110 1112
f 1111 1112 1113
f 1113 1112 1114
f 1113 1114 1115
f 1115 1114 1116
f 1115 1116 1117
f 1117 1116 1118
f 1117 1118 1119
f 1119 1118 1120
f 1119 1120 1121
f 1121 1120 1122
f 1121 1122 1123
f 1123 1122 1124
f 1123 1124 1125
f 1125 1124 1126
f 1125 1126 1127
f 1127 1126 1128
f 1127 1128 1129
f 1129 1128 1130
f 1129 1130 1131
f 1131 1130 1132
f 1131 1132 1133
f 1133 1132 1134
f 1133 1134 1135
f 1135 1134 1136
f 1135 1136 1137
f 1137 1136 1138
f 1137 1138 1139
f 1139 1138 1140
f 1139 1140 1141
f 1141 1140 1142
f 1141 1142 1143
f 1143 1142 1144
f 1143 1144 1145
f 1145 1144 1146
f 1145 1146 1147
f 1147 1146 1148
f 1147 1148 1149
f 1149 1148 1150
f 1149 1150 1151
f 1151 1150 1152
f 1151 1152 1153
f 1153 1152 1154
f 1153 1154 1155
f 1155 1154 1156
f 1155 1156 1157
f 1157 1156 1158
f 1157 1158 1159
f 1159 1158 1160
f 1159 1160 1161
f 1161 1160 1162
f 1161 1162 1163
f 1163 1162 1164
f 1163 1164 1165
f 1165 1164 1166
f 1165 1166 1167
f 1167 1166 1168
f 1167 1168 1169
f 1169 1168 1170
f 1169 1170 1171
f 1171 1170 1172
f 1171 1172 1173
f 1173 1172 1174
f 1173 1174 1175
f 1175 1174 1176
f 1177 1175 1176
f 1177 1176 1178
f 1177 1178 1179
f 1179 1178 1180
f 1179 1180 1181
f 1181 1180 1182
f 1181 1182 1183
f 1183 1182 1184
f 1183 1184 1185
f 1185 1184 1186
f 1185 1186 1187
f 1187 1186 1188
f 1187 1188 1189
f 1189 1188 1190
f 1189 1190 1191
f 1191 1190 1192
f 1191 1192 1193
f 1193 1192 1194
f 1193 1194 1195
f 1195 1194 1196
f 1195 1196 1197
f 1197 1196 1198
f 1197 1198 1199
f 1199 1198 1200
f 1199 1200 1201
f 1201 1200 1202
f 1201 1202 1203
f 1203 1202 1204
f 1203 1204 1205
f 1205 1204 1206
f 1205 1206 1207
f 1207 1206 1208
f 1207 1208 1209
f 1209 1208 1210
f 1209 1210 1211
f 1211 1210 1212
f 1211 1212 1213
f 1213 1212 1214
f 1213 1214 1215
f 1215 1214 1216
f 1215 1216 1217
f 1217 1216 1218
f 1217 1218 1219
f 1219 1218 1220
f 1219 1220 1221
f 1221 1220 1222
f 1221 1222 1223
f 1223 1222 1224
f 1223 1224 1225
f 1225 1224 1226
f 1225 1226 1227
f 1227 1226 1228
f 1227 1228 1229
f 1229 1228 1230
f 1229 1230 1231
f 1231 1230 1232
f 1231 1232 1233
f 1233 1232 1234
f 1233 1234 1235
f 1235 1234 1236
f 1235 1236 1108
f 1108 1236 1106
f 1237 1238 1239
f 1240 1238 1237
f 1237 1239 1241
f 1241 1239 1242
f 1241 1242 1243
f 1243 1242 1244
f 1243 1244 1245
f 1245 1244 1246
f 1245 1246 1247
f 1247 1246 1248
f 1247 1248 1249
f 1249 1248 1250
f 1249 1250 1251
f 1251 1250 1252
f 1251 1252 1253
f 1253 1252 1254
f 1253 1254 1255
f 1255 1254 1256
f 1255 1256 1257
f 1257 1256 1258
f 1257 1258 1259
f 1259 1258 1260
f 1259 1260 1261
f 1261 1260 1262
f 1261 1262 1263
f 1263 1262 1264
f 1263 1264 1265
f 1265 1264 1266
f 1265 1266 1267
f 1267 1266 1268
f 1267 1268 1269
f 1269 1268 1270
f 1269 1270 1271
f 1271 1270 1272
f 1271 1272 1273
f 1273 1272 1274
f 1273 1274 1275
f 1275 1274 1276
f 1275 1276 1277
f 1277 1276 1278
f 1277 1278 1279
f 1279 1278 1280
f 1279 1280 1281
f 1281 1280 1282
f 1281 1282 1283
f 1283 1282 1284
f 1283 1284 1285
f 1285 1284 1286
f 1285 1286 1287
f 1287 1286 1288
f 1287 1288 1289
f 1289 1288 1290
f 1289 1290 1291
f 1291 1290 1292
f 1291 1292 1293
f 1293 1292 1294
f 1293 1294 1295
f 1295 1294 1296
f 1295 1296 1297
f 1297 1296 1298
f 1297 1298 1299
f 1299 1298 1300
f 1299 1300 1301
f 1301 1300 1302
f 1301 1302 1303
f 1303 1302 1304
f 1303 1304 1305
f 1305 1304 1306
f 1305 1306 1307
f 1307 1306 1308
f 1309 1307 1308
f 1309 1308 1310
f 1309 1310 1311
f 1311 1310 1312
f 1311 1312 1313
f 1313 1312 1314
f 1313 1314 1315
f 1315 1314 1316
f 1315 1316 1317
f 1317 1316 1318
f 1317 1318 1319
f 1319 1318 1320
f 1319 1320 1321
f 1321 1320 1322
f 1321 1322 1323
f 1323 1322 1324
f 1323 1324 1325
f 1325 1324 1326
f 1325 1326 1327
f 1327 1326 1328
f 1327 1328 1329
f 1329 1328 1330
f 1329 1330 1331
f 1331 1330 1332
f 1331 1332 1333
f 1333 1332 1334
f 1333 1334 1335
f 1335 1334 1336
f 1335 1336 1337
f 1337 1336 1338
f 1337 1338 1339
f 1339 1338 1340
f 1339 1340 1341
f 1341 1340 1342
f 1341 1342 1343
f 1343 1342 1344
f 1343 1344 1345
f 1345 1344 1346
f 1345 1346 1347
f 1347 1346 1348
f 1347 1348 1349
f 1349 1348 1350
f 1349 1350 1351
f 1351 1350 1352
f 1351 1352 1353
f 1353 1352 1354
f 1353 1354 1355
f 1355 1354 1356
f 1355 1356 1357
f 1357 1356 1358
f 1357 1358 1359
f 1359 1358 1360
f 1359 1360 1361
f 1361 1360 1362
f 1361 1362 1363
f 1363 1362 1364
f 1363 1364 1365
f 1365 1364 1366
f 1365 1366 1367
f 1367 1366 1368
f 1367 1368 1240
f 1240 1368 1238
f 1369 1370 1371
f 1369 1372 1370
f 1373 1369 1371
f 1374 1373 1371
f 1375 1374 1371
f 1375 1371 1376
f 1377 1375 1376
f 1377 1376 1378
f 1379 1377 1378
f 1379 1378 1380
f 1381 1379 1380
f 1381 1380 1382
f 1383 1381 1382
f 1384 1383 1382
f 1384 1382 1385
f 1386 1384 1385
f 1386 1385 1387
f 1388 1386 1387
f 1388 1387 1389
f 1390 1388 1389
f 1391 1390 1389
f 1392 1391 1389
f 1392 1389 1393
f 1394 1392 1393
f 1395 1394 1393
f 1396 1395 1393
f 1397 1396 1393
f 1397 1398 1396
f 1399 1397 1393
f 1399 1393 1400
f 1401 1399 1400
f 1402 1401 1400
f 1403 1402 1400
f 1403 1400 1404
f 1405 1403 1404
f 1406 1405 1404
f 1406 1404 1407
f 1408 1406 1407
f 1409 1408 1407
f 1409 1407 1410
f 1411 1409 1410
f 1412 1411 1410
f 1412 1410 1413
f 1414 1412 1413
f 1415 1414 1413
f 1416 1415 1413
f 1417 1416 1413
f 1417 1413 1418
f 1418 1413 1419
f 1417 1418 1420
f 1418 1421 1420
f 1422 1417 1420
f 1422 1420 1423
f 1424 1422 1423
f 1425 1424 1423
f 1426 1425 1423
f 1427 1426 1423
f 1428 1427 1423
f 1428 1423 1429
f 1430 1428 1429
f 1431 1430 1429
f 1431 1429 1432
f 1433 1431 1432
f 1434 1433 1432
f 1434 1432 1435
f 1436 1434 1435
f 1437 1436 1435
f 1437 1435 1438
f 1439 1437 1438
f 1440 1439 1438
f 1440 1438 1441
f 1442 1440 1441
f 1443 1442 1441
f 1443 1441 1444
f 1445 1443 1444
f 1446 1445 1444
f 1447 1446 1444
f 1447 1444 1448
f 1448 1444 1449
f 1447 1448 1450
f 1447 1450 1451
f 1452 1447 1451
f 1452 1451 1453
f 1452 1453 1454
f 1455 1452 1454
f 1455 1454 1456
f 1455 1456 1457
f 1458 1455 1457
f 1458 1457 1459
f 1460 1458 1459
f 1460 1459 1461
f 1459 1462 1461
f 1463 1460 1461
f 1464 1463 1461
f 1465 1464 1461
f 1466 1465 1461
f 1467 1466 1461
f 1467 1461 1468
f 1469 1467 1468
f 1470 1469 1468
f 1471 1470 1468
f 1471 1468 1472
f 1473 1472 1468
f 1474 1473 1468
f 1474 1468 1475
f 1476 1475 1468
f 1477 1474 1475
f 1477 1475 1478
f 1479 1477 1478
f 1480 1479 1478
f 1481 1480 1478
f 1481 1478 1482
f 1483 1481 1482
f 1484 1483 1482
f 1484 1482 1485
f 1486 1484 1485
f 1487 1486 1485
f 1487 1485 1488
f 1489 1487 1488
f 1490 1489 1488
f 1490 1488 1491
f 1492 1490 1491
f 1493 1492 1491
f 1493 1491 1494
f 1495 1493 1494
f 1496 1495 1494
f 1496 1494 1497
f 1498 1496 1497
f 1498 1497 1499
f 1500 1498 1499
f 1500 1499 1501
f 1502 1500 1501
f 1502 1501 1503
f 1502 1503 1504
f 1502 1504 1398
f 1397 1502 1398
f 1505 1476 1468
f 1505 1506 1476
f 1505 1468 1507
f 1508 1505 1507
f 1509 1508 1507
f 1510 1509 1507
f 1511 1510 1507
f 1512 1511 1507
f 1512 1507 1513
f 1514 1512 1513
f 1515 1514 1513
f 1516 1515 1513
f 1516 1513 1517
f 1518 1516 1517
f 1519 1518 1517
f 1520 1519 1517
f 1520 1517 1521
f 1522 1520 1521
f 1522 1521 1523
f 1524 1522 1523
f 1524 1523 1525
f 1526 1524 1525
f 1526 1525 1527
f 1528 1526 1527
f 1529 1528 1527
f 1529 1527 1530
f 1531 1529 1530
f 1531 1530 1532
f 1533 1531 1532
f 1533 1532 1534
f 1535 1533 1534
f 1536 1535 1534
f 1537 1536 1534
f 1537 1534 1538
f 1539 1537 1538
f 1540 1539 1538
f 1541 1540 1538
f 1541 1538 1542
f 1543 1542 1538
f 1544 1541 1542
f 1544 1542 1545
f 1546 1544 1545
f 1547 1546 1545
f 1548 1547 1545
f 1548 1545 1549
f 1550 1548 1549
f 1550 1549 1551
f 1552 1550 1551
f 1552 1551 1553
f 1554 1552 1553
f 1554 1553 1555
f 1554 1555 1556
f 1557 1554 1556
f 1557 1556 1558
f 1557 1558 1559
f 1560 1557 1559
f 1560 1559 1561
f 1560 1561 1562
f 1563 1560 1562
f 1563 1562 1564
f 1563 1564 1565
f 1566 1563 1565
f 1566 1565 1567
f 1566 1567 1568
f 1569 1566 1568
f 1569 1568 1570
f 1569 1570 1571
f 1569 1571 1572
f 1573 1569 1572
f 1573 1572 1574
f 1573 1574 1575
f 1574 1576 1575
f 1577 1573 1575
f 1577 1575 1578
f 1578 1575 1579
f 1577 1578 1580
f 1577 1580 1581
f 1577 1581 1582
f 1577 1582 1583
f 1584 1577 1583
f 1584 1583 1585
f 1584 1585 1586
f 1584 1586 1587
f 1584 1587 1588
f 1589 1584 1588
f 1589 1588 1590
f 1589 1590 1591
f 1589 1591 1592
f 1589 1592 1593
f 1594 1589 1593
f 1594 1593 1595
f 1594 1595 1596
f 1594 1596 1597
f 1597 1596 1598
f 1599 1597 1598
f 1599 1598 1600
f 1601 1599 1600
f 1601 1600 1602
f 1600 1603 1602
f 1601 1602 1604
f 1601 1604 1605
f 1601 1605 1606
f 1601 1606 1607
f 1608 1601 1607
f 1608 1607 1609
f 1608 1609 1610
f 1611 1608 1610
f 1611 1610 1612
f 1611 1612 1613
f 1611 1613 1614
f 1611 1614 1615
f 1616 1611 1615
f 1616 1615 1617
f 1616 1617 1618
f 1616 1618 1619
f 1620 1616 1619
f 1620 1619 1621
f 1620 1621 1622
f 1620 1622 1623
f 1620 1623 1624
f 1620 1624 1625
f 1626 1620 1625
f 1626 1625 1627
f 1626 1627 1628
f 1626 1628 1629
f 1626 1629 1630
f 1631 1626 1630
f 1631 1630 1632
f 1632 1630 1633
f 1631 1632 1634
f 1635 1631 1634
f 1635 1634 1636
f 1637 1635 1636
f 1637 1636 1638
f 1639 1637 1638
f 1640 1639 1638
f 1640 1638 1641
f 1642 1640 1641
f 1643 1642 1641
f 1644 1643 1641
f 1644 1641 1645
f 1646 1644 1645
f 1647 1646 1645
f 1648 1647 1645
f 1649 1648 1645
f 1649 1645 1476
f 1650 1649 1476
f 1651 1650 1476
f 1652 1651 1476
f 1506 1652 1476
f 1632 1633 1653
f 1632 1653 1654
f 1632 1654 1655
f 1656 1632 1655
f 1656 1655 1657
f 1656 1657 1658
f 1659 1656 1658
f 1659 1658 1660
f 1659 1660 1661
f 1659 1661 1662
f 1659 1662 1663
f 1664 1659 1663
f 1664 1663 1665
f 1664 1665 1666
f 1664 1666 1667
f 1668 1664 1667
f 1668 1667 1669
f 1668 1669 1670
f 1668 1670 1671
f 1668 1671 1672
f 1668 1672 1673
f 1603 1668 1673
f 1603 1673 1674
f 1603 1674 1675
f 1603 1675 1676
f 1603 1676 1602
f 1677 1578 1579
f 1678 1677 1579
f 1679 1678 1579
f 1680 1679 1579
f 1681 1680 1579
f 1681 1579 1370
f 1682 1681 1370
f 1372 1682 1370
f 1576 1683 1575
f 1683 1684 1575
f 1684 1685 1575
f 1685 1686 1575
f 1686 1687 1575
f 1687 1688 1575
f 1687 1689 1688
f 1689 1690 1688
f 1690 1691 1688
f 1691 1692 1688
f 1692 1693 1688
f 1693 1694 1688
f 1693 1695 1694
f 1694 1696 1688
f 1696 1697 1688
f 1697 1698 1688
f 1697 1699 1698
f 1699 1700 1698
f 1700 1701 1698
f 1701 1702 1698
f 1702 1703 1698
f 1703 1704 1698
f 1705 1704 1703
f 1705 1706 1704
f 1705 1703 1707
f 1705 1707 1708
f 1709 1705 1708
f 1709 1708 1710
f 1709 1710 1711
f 1712 1709 1711
f 1712 1711 1713
f 1712 1713 1714
f 1695 1712 1714
f 1695 1714 1694
f 1706 1715 1704
f 1715 1716 1704
f 1716 1717 1704
f 1716 1718 1717
f 1718 1719 1717
f 1719 1720 1717
f 1719 1721 1720
f 1721 1722 1720
f 1722 1723 1720
f 1722 1724 1723
f 1724 1725 1723
f 1725 1726 1723
f 1725 1727 1726
f 1727 1728 1726
f 1728 1729 1726
f 1728 1730 1729
f 1730 1731 1729
f 1731 1732 1729
f 1731 1733 1732
f 1733 1734 1732
f 1734 1735 1732
f 1735 1736 1732
f 1736 1737 1732
f 1737 1738 1732
f 1737 1739 1738
f 1739 1740 1738
f 1739 1741 1740
f 1740 1742 1738
f 1742 1743 1738
f 1743 1744 1738
f 1744 1745 1738
f 1745 1746 1738
f 1745 1747 1746
f 1747 1748 1746
f 1748 1749 1746
f 1749 1750 1746
f 1749 1751 1750
f 1750 1752 1746
f 1750 1753 1752
f 1753 1754 1752
f 1753 1755 1754
f 1755 1756 1754
f 1755 1757 1756
f 1757 1758 1756
f 1757 1759 1758
f 1759 1760 1758
f 1759 1761 1760
f 1761 1762 1760
f 1761 1763 1762
f 1763 1764 1762
f 1763 1765 1764
f 1765 1766 1764
f 1765 1767 1766
f 1751 1768 1750
f 1768 1769 1750
f 1769 1770 1750
f 1769 1771 1770
f 1772 1770 1771
f 1772 1773 1770
f 1773 1740 1770
f 1740 1741 1770
f 1774 1741 1739
f 1774 1775 1741
f 1775 1776 1741
f 1776 1777 1741
f 1777 1778 1741
f 1777 1779 1778
f 1779 1780 1778
f 1780 1781 1778
f 1780 1782 1781
f 1782 1783 1781
f 1783 1784 1781
f 1783 1785 1784
f 1785 1786 1784
f 1786 1787 1784
f 1786 1788 1787
f 1788 1789 1787
f 1789 1543 1787
f 1543 1538 1787
f 1462 1790 1461
f 1790 1449 1461
f 1790 1791 1449
f 1791 1792 1449
f 1793 1449 1792
f 1793 1794 1449
f 1794 1448 1449
f 1421 1795 1420
f 1795 1796 1420
f 1796 1797 1420
f 1797 1798 1420
f 1799 1798 1797
f 1799 1800 1798
f 1800 1801 1798
f 1801 1802 1798
f 1801 1803 1802
f 1802 1804 1798
f 1802 1805 1804
f 1805 1806 1804
f 1805 1807 1806
f 1807 1808 1806
f 1807 1809 1808
f 1809 1810 1808
f 1809 1811 1810
f 1811 1812 1810
f 1811 1813 1812
f 1813 1814 1812
f 1813 1815 1814
f 1815 1816 1814
f 1815 1817 1816
f 1817 1818 1816
f 1817 1819 1818
f 1803 1820 1802
f 1820 1821 1802
f 1821 1419 1802
f 1821 1822 1419
f 1822 1823 1419
f 1823 1824 1419
f 1824 1418 1419
