1268 1262 0
v -0.147599355 -0.145452615 0.025291755
v -0.1480047 -0.145361715 0.00665475
v -0.148009155 -0.14536071 0.0065625
v -0.14799501 -0.14536389 0.00674445
v -0.148254375 -0.14530572 0.0252477
v -0.148254375 -0.14530572 -0.0121227
v -0.148909905 -0.145158705 -0.01205457
v -0.1480047 -0.145361715 0.00647025
v -0.14799501 -0.14536389 0.00638055
v -0.147980145 -0.14536722 0.00629343
v -0.147960075 -0.14537172 0.00620886
v -0.147934815 -0.14537739 0.00612687
v -0.14790435 -0.14538423 0.00604743
v -0.147868545 -0.145392255 0.00597039
v -0.147826545 -0.14540166 0.005894625
v -0.147778785 -0.145412385 0.005820705
v -0.147726 -0.145424205 0.005749575
v -0.14766894 -0.145437015 0.00568218
v -0.147608295 -0.14545062 0.00561945
v -0.147599355 -0.145452615 -0.012166755
v -0.147544845 -0.14546484 0.005562315
v -0.14747787 -0.145479855 0.00551052
v -0.147405945 -0.145495995 0.005462685
v -0.147330045 -0.14551302 0.00541929
v -0.147251265 -0.145530675 0.00538086
v -0.14717067 -0.14554875 0.005347935
v -0.147089265 -0.145567005 0.00532101
v -0.147007935 -0.145585245 0.00530058
v -0.14694738 -0.145598835 -0.012186405
v -0.14692437 -0.14560398 0.005286165
v -0.146838435 -0.145623255 0.005277525
v -0.14675133 -0.145642785 0.005274645
v -0.146664255 -0.145662315 0.005277525
v -0.14657832 -0.14568159 0.005286165
v -0.146494725 -0.14570034 0.00530058
v -0.146413425 -0.145718565 0.00532101
v -0.14633202 -0.14573682 0.005347935
v -0.14629671 -0.14574474 -0.01218138
v -0.14625141 -0.145754895 0.00538086
v -0.146172645 -0.145772565 0.00541929
v -0.146096745 -0.14578959 0.005462685
v -0.14602482 -0.145805715 0.00551052
v -0.145957845 -0.14582073 0.005562315
v -0.145894395 -0.145834965 0.00561945
v -0.14583375 -0.14584857 0.00568218
v -0.145776675 -0.14586138 0.005749575
v -0.145723905 -0.1458732 0.005820705
v -0.14567613 -0.145883925 0.005894625
v -0.14564214 -0.145891545 -0.01215186
v -0.14563413 -0.14589333 0.00597039
v -0.14559834 -0.145901355 0.00604743
v -0.145567875 -0.145908195 0.00612687
v -0.145542615 -0.145913865 0.00620886
v -0.145522545 -0.145918365 0.00629343
v -0.145507665 -0.145921695 0.00638055
v -0.14549799 -0.145923855 0.00647025
v -0.14549352 -0.145924875 0.0065625
v -0.14498595 -0.14603868 0.02522316
v -0.14549799 -0.145923855 0.00665475
v -0.14498595 -0.14603868 -0.01209816
v -0.14433069 -0.146185635 0.025145625
v -0.14433069 -0.146185635 -0.012020625
v -0.14367882 -0.146331825 0.02504457
v -0.14367882 -0.146331825 -0.01191957
v -0.14303283 -0.146476695 0.02492031
v -0.14303283 -0.146476695 -0.01179531
v -0.14239521 -0.14661969 0.02477316
v -0.14239521 -0.14661969 -0.01164816
v -0.14176665 -0.146760645 0.024603
v -0.14176665 -0.146760645 -0.011478
v -0.14114082 -0.146901 0.02440815
v -0.14114082 -0.146901 -0.01128315
v -0.14051889 -0.14704047 0.024189255
v -0.14051889 -0.14704047 -0.011064255
v -0.1399032 -0.147178545 0.02394729
v -0.1399032 -0.147178545 -0.01082229
v -0.13929606 -0.1473147 0.02368323
v -0.13929606 -0.1473147 -0.01055823
v -0.13869981 -0.147448425 0.023398035
v -0.13869981 -0.147448425 -0.010273035
v -0.138116745 -0.14757918 0.02309268
v -0.138116745 -0.14757918 -0.00996768
v -0.13754898 -0.1477065 0.02276805
v -0.13754898 -0.1477065 -0.00964305
v -0.13699413 -0.147830925 0.022423125
v -0.13699413 -0.147830925 -0.009298125
v -0.136450845 -0.14795277 0.02205735
v -0.136450845 -0.14795277 -0.00893235
v -0.135919125 -0.14807202 0.02167074
v -0.135919125 -0.14807202 -0.00854574
v -0.13539897 -0.14818866 0.021263295
v -0.13539897 -0.14818866 -0.008138295
v -0.13489038 -0.148302705 0.020835
v -0.13489038 -0.148302705 -0.00771
v -0.13439337 -0.148414185 0.02038587
v -0.13439337 -0.148414185 -0.00726087
v -0.133907925 -0.14852304 0.01991589
v -0.133907925 -0.14852304 -0.00679089
v -0.133343235 -0.14864967 0.019361475
v -0.133343235 -0.14864967 -0.006236475
v -0.13305228 -0.148714935 0.019087395
v -0.13305228 -0.148714935 -0.005962395
v -0.13275555 -0.14878146 0.018815415
v -0.13275555 -0.14878146 -0.005690415
v -0.13245309 -0.14884929 0.018545535
v -0.13245309 -0.14884929 -0.005420535
v -0.13214487 -0.148918425 0.018277755
v -0.13214487 -0.148918425 -0.005152755
v -0.13183089 -0.148988835 0.01801206
v -0.13183089 -0.148988835 -0.00488706
v -0.131511165 -0.14906052 0.01774845
v -0.131511165 -0.14906052 -0.00462345
v -0.13118568 -0.149133525 0.017486955
v -0.13118568 -0.149133525 -0.00436194
v -0.130854465 -0.14920779 0.01722753
v -0.130854465 -0.14920779 -0.00410253
v -0.130517445 -0.14928339 0.016970235
v -0.130517445 -0.14928339 -0.003845235
v -0.130174305 -0.149360325 0.016715235
v -0.130174305 -0.149360325 -0.003590235
v -0.12982506 -0.149438655 0.016462515
v -0.12982506 -0.149438655 -0.003337515
v -0.12946986 -0.14951832 0.016212
v -0.12946986 -0.14951832 -0.003087
v -0.12910887 -0.149599275 0.015963585
v -0.12910887 -0.149599275 -0.002838585
v -0.128742255 -0.149681475 0.01571721
v -0.128742255 -0.149681475 -0.00259221
v -0.12837018 -0.14976492 0.01547277
v -0.128455755 -0.14974572 0.0103125
v -0.12799278 -0.14984955 0.01523019
v -0.128455755 -0.14974572 0.0028125
v -0.12837018 -0.14976492 -0.00234777
v -0.121136625 -0.15138711 0.0028125
v -0.12799278 -0.14984955 -0.00210519
v -0.127610235 -0.14993535 -0.00186438
v -0.12722271 -0.15002226 -0.00162525
v -0.12683034 -0.15011025 -0.001387725
v -0.126433155 -0.15019932 -0.001151775
v -0.126030825 -0.150289545 -0.00091761
v -0.125623305 -0.150380925 -0.00068523
v -0.125210595 -0.15047349 -0.000454635
v -0.12479271 -0.150567195 -0.000225825
v -0.12436962 -0.150662085 1.185e-06
v -0.123941355 -0.15075813 0.00022641
v -0.123507915 -0.15085533 0.00044985
v -0.12306927 -0.1509537 0.00067149
v -0.12262545 -0.151053225 0.000891345
v -0.12217644 -0.15115392 0.001109415
v -0.122016945 -0.15118968 0.001182555
v -0.12186777 -0.151223145 0.00126933
v -0.121728885 -0.1512543 0.001369755
v -0.12159783 -0.151283685 0.00148407
v -0.12147708 -0.15131076 0.00161202
v -0.121373985 -0.151333875 0.00175287
v -0.12129114 -0.15135246 0.001908435
v -0.121225965 -0.151367085 0.0020769
v -0.12117798 -0.15137784 0.002252145
v -0.12114702 -0.151384785 0.002432145
v -0.12113322 -0.151387875 0.002618925
v -0.127610235 -0.14993535 0.01498938
v -0.12722271 -0.15002226 0.01475025
v -0.12683034 -0.15011025 0.014512725
v -0.126433155 -0.15019932 0.01427679
v -0.126030825 -0.150289545 0.01404261
v -0.125623305 -0.150380925 0.01381023
v -0.125210595 -0.15047349 0.013579635
v -0.12479271 -0.150567195 0.013350825
v -0.12436962 -0.150662085 0.013123815
v -0.123941355 -0.15075813 0.01289859
v -0.123507915 -0.15085533 0.01267515
v -0.12306927 -0.1509537 0.01245351
v -0.12262545 -0.151053225 0.01223364
v -0.12217644 -0.15115392 0.012015585
v -0.122010255 -0.15119118 0.01193952
v -0.12185547 -0.151225905 0.011848395
v -0.121712085 -0.151258065 0.01174218
v -0.12157716 -0.15128832 0.01161927
v -0.121453635 -0.151316025 0.011481285
v -0.12135027 -0.1513392 0.011333055
v -0.12127128 -0.151356915 0.011173455
v -0.12121248 -0.1513701 0.011003625
v -0.121169985 -0.151379625 0.0108318
v -0.12114258 -0.151385775 0.010660695
v -0.121136745 -0.15138708 0.0103125
v -0.121131495 -0.151388265 0.01048761
v -0.145507665 -0.145921695 0.00674445
v -0.145522545 -0.145918365 0.00683157
v -0.145542615 -0.145913865 0.00691614
v -0.145567875 -0.145908195 0.00699813
v -0.14559834 -0.145901355 0.00707757
v -0.14563413 -0.14589333 0.00715461
v -0.14564214 -0.145891545 0.02527686
v -0.14567613 -0.145883925 0.007230375
v -0.145723905 -0.1458732 0.007304295
v -0.145776675 -0.14586138 0.007375425
v -0.14583375 -0.14584857 0.00744282
v -0.145894395 -0.145834965 0.00750555
v -0.145957845 -0.14582073 0.007562685
v -0.14602482 -0.145805715 0.00761448
v -0.146096745 -0.14578959 0.007662315
v -0.146172645 -0.145772565 0.00770571
v -0.14625141 -0.145754895 0.00774414
v -0.14629671 -0.14574474 0.02530638
v -0.14633202 -0.14573682 0.007777065
v -0.146413425 -0.145718565 0.00780399
v -0.146494725 -0.14570034 0.00782442
v -0.14657832 -0.14568159 0.007838835
v -0.146664255 -0.145662315 0.007847475
v -0.14675133 -0.145642785 0.007850355
v -0.146838435 -0.145623255 0.007847475
v -0.14692437 -0.14560398 0.007838835
v -0.14694738 -0.145598835 0.025311405
v -0.147007935 -0.145585245 0.00782442
v -0.147089265 -0.145567005 0.00780399
v -0.14717067 -0.14554875 0.007777065
v -0.147251265 -0.145530675 0.00774414
v -0.147330045 -0.14551302 0.00770571
v -0.147405945 -0.145495995 0.007662315
v -0.14747787 -0.145479855 0.00761448
v -0.147544845 -0.14546484 0.007562685
v -0.147608295 -0.14545062 0.00750555
v -0.14766894 -0.145437015 0.00744282
v -0.147726 -0.145424205 0.007375425
v -0.147778785 -0.145412385 0.007304295
v -0.147826545 -0.14540166 0.007230375
v -0.147868545 -0.145392255 0.00715461
v -0.14790435 -0.14538423 0.00707757
v -0.147934815 -0.14537739 0.00699813
v -0.147960075 -0.14537172 0.00691614
v -0.147980145 -0.14536722 0.00683157
v -0.148909905 -0.145158705 0.02517957
v -0.1495635 -0.14501214 -0.011962725
v -0.1495635 -0.14501214 0.025087725
v -0.150212625 -0.144866565 -0.011847495
v -0.150212625 -0.144866565 0.024972495
v -0.15085485 -0.14472255 -0.01170924
v -0.15085485 -0.14472255 0.02483424
v -0.151487625 -0.144580635 -0.01154832
v -0.151487625 -0.144580635 0.02467332
v -0.152113155 -0.144440355 -0.011363835
v -0.152113155 -0.144440355 0.024488835
v -0.152736015 -0.144300675 -0.01115472
v -0.152736015 -0.144300675 0.024279735
v -0.15335397 -0.14416209 -0.01092195
v -0.15335397 -0.14416209 0.02404695
v -0.153964695 -0.144025125 -0.010666485
v -0.153964695 -0.144025125 0.023791485
v -0.15456591 -0.14389032 -0.010389345
v -0.15456591 -0.14389032 0.023514345
v -0.155155245 -0.14375814 -0.010091505
v -0.155155245 -0.14375814 0.023216505
v -0.15573045 -0.14362914 -0.00977397
v -0.15573045 -0.14362914 0.02289897
v -0.15629112 -0.143503425 -0.009436605
v -0.15629112 -0.143503425 0.022561605
v -0.156842835 -0.143379675 -0.009076125
v -0.156842835 -0.143379675 0.022201125
v -0.15738441 -0.143258235 -0.00869364
v -0.15738441 -0.143258235 0.02181864
v -0.15791388 -0.143139495 -0.00829071
v -0.15791388 -0.143139495 0.02141571
v -0.158429205 -0.14302392 -0.007868925
v -0.158429205 -0.14302392 0.020993925
v -0.158928435 -0.142911975 -0.007429845
v -0.158928435 -0.142911975 0.020554845
v -0.159409575 -0.142804065 -0.006975045
v -0.159409575 -0.142804065 0.020100045
v -0.159871095 -0.142700565 -0.006505605
v -0.159871095 -0.142700565 0.019630605
v -0.16031736 -0.1426005 -0.00601695
v -0.16031736 -0.1426005 0.01914195
v -0.160748715 -0.142503765 -0.005509155
v -0.160748715 -0.142503765 0.018634155
v -0.16116363 -0.142410705 -0.004984245
v -0.16116363 -0.142410705 0.018109245
v -0.16156056 -0.14232168 -0.00444429
v -0.16156056 -0.14232168 0.01756929
v -0.161938005 -0.14223705 -0.0038913
v -0.161938005 -0.14223705 0.0170163
v -0.16229445 -0.142157115 -0.00332736
v -0.16229445 -0.142157115 0.01645236
v -0.162628335 -0.142082235 -0.00275445
v -0.162628335 -0.142082235 0.01587945
v -0.16294164 -0.142011975 -0.002168805
v -0.16294164 -0.142011975 0.015293805
v -0.163235955 -0.141945975 -0.001567935
v -0.163235955 -0.141945975 0.014692935
v -0.163510335 -0.14188443 -0.000954225
v -0.163510335 -0.14188443 0.014079225
v -0.16376385 -0.141827595 -0.00033006
v -0.16376385 -0.141827595 0.01345506
v -0.16399551 -0.141775635 0.00030219
v -0.16399551 -0.141775635 0.01282281
v -0.164204385 -0.14172879 0.00094014
v -0.164204385 -0.14172879 0.01218486
v -0.164389485 -0.141687285 0.00158142
v -0.164389485 -0.141687285 0.01154358
v -0.16455087 -0.14165109 0.002227245
v -0.16455087 -0.14165109 0.010897755
v -0.16469013 -0.14161986 0.002883165
v -0.16469013 -0.14161986 0.010241835
v -0.164806965 -0.141593655 0.00354693
v -0.164806965 -0.141593655 0.00957807
v -0.16490109 -0.141572535 0.004215975
v -0.16490109 -0.141572535 0.008909025
v -0.16497219 -0.141556605 0.00488778
v -0.16497219 -0.141556605 0.00823722
v -0.165019905 -0.14154591 0.00555975
v -0.165019905 -0.14154591 0.00756525
v -0.165043905 -0.141540525 0.00622938
v -0.165043905 -0.141540525 0.00689562
v -0.14841945 -0.147190275 0.0065625
v -0.148009155 -0.14536071 0.0065625
v -0.1480047 -0.145361715 0.00665475
v -0.14841498 -0.14719128 0.00647025
v -0.14841498 -0.14719128 0.00665475
v -0.14799501 -0.14536389 0.00674445
v -0.148405305 -0.14719344 0.00674445
v -0.147980145 -0.14536722 0.00683157
v -0.148390425 -0.147196785 0.00683157
v -0.147960075 -0.14537172 0.00691614
v -0.148370355 -0.14720127 0.00691614
v -0.147934815 -0.14537739 0.00699813
v -0.148345095 -0.14720694 0.00699813
v -0.14790435 -0.14538423 0.00707757
v -0.148314645 -0.14721378 0.00707757
v -0.147868545 -0.145392255 0.00715461
v -0.14827884 -0.147221805 0.00715461
v -0.147826545 -0.14540166 0.007230375
v -0.14823684 -0.147231225 0.007230375
v -0.147778785 -0.145412385 0.007304295
v -0.14818908 -0.147241935 0.007304295
v -0.147726 -0.145424205 0.007375425
v -0.148136295 -0.14725377 0.007375425
v -0.14766894 -0.145437015 0.00744282
v -0.14807922 -0.147266565 0.00744282
v -0.147608295 -0.14545062 0.00750555
v -0.148018605 -0.14728017 0.00750555
v -0.147544845 -0.14546484 0.007562685
v -0.147955125 -0.147294405 0.007562685
v -0.14747787 -0.145479855 0.00761448
v -0.147888165 -0.14730942 0.00761448
v -0.147405945 -0.145495995 0.007662315
v -0.147816225 -0.147325545 0.007662315
v -0.147330045 -0.14551302 0.00770571
v -0.147740355 -0.14734257 0.00770571
v -0.147251265 -0.145530675 0.00774414
v -0.147661575 -0.14736024 0.00774414
v -0.14717067 -0.14554875 0.007777065
v -0.14758095 -0.147378315 0.007777065
v -0.147089265 -0.145567005 0.00780399
v -0.14749956 -0.14739657 0.00780399
v -0.147007935 -0.145585245 0.00782442
v -0.147418245 -0.14741481 0.00782442
v -0.14692437 -0.14560398 0.007838835
v -0.14733465 -0.147433545 0.007838835
v -0.146838435 -0.145623255 0.007847475
v -0.147248745 -0.14745282 0.007847475
v -0.14675133 -0.145642785 0.007850355
v -0.14716164 -0.14747235 0.007850355
v -0.146664255 -0.145662315 0.007847475
v -0.147074535 -0.14749188 0.007847475
v -0.14657832 -0.14568159 0.007838835
v -0.146988615 -0.147511155 0.007838835
v -0.146494725 -0.14570034 0.00782442
v -0.146905035 -0.14752989 0.00782442
v -0.146413425 -0.145718565 0.00780399
v -0.146823705 -0.14754813 0.00780399
v -0.14633202 -0.14573682 0.007777065
v -0.14674233 -0.147566385 0.007777065
v -0.14625141 -0.145754895 0.00774414
v -0.146661705 -0.14758446 0.00774414
v -0.146172645 -0.145772565 0.00770571
v -0.146582925 -0.14760213 0.00770571
v -0.146096745 -0.14578959 0.007662315
v -0.146507055 -0.14761914 0.007662315
v -0.14602482 -0.145805715 0.00761448
v -0.146435115 -0.14763528 0.00761448
v -0.145957845 -0.14582073 0.007562685
v -0.14636814 -0.147650295 0.007562685
v -0.145894395 -0.145834965 0.00750555
v -0.146304675 -0.14766453 0.00750555
v -0.14583375 -0.14584857 0.00744282
v -0.146244045 -0.14767812 0.00744282
v -0.145776675 -0.14586138 0.007375425
v -0.14618697 -0.14769093 0.007375425
v -0.145723905 -0.1458732 0.007304295
v -0.146134185 -0.14770275 0.007304295
v -0.14567613 -0.145883925 0.007230375
v -0.14608644 -0.147713475 0.007230375
v -0.14563413 -0.14589333 0.00715461
v -0.14604444 -0.14772288 0.00715461
v -0.14559834 -0.145901355 0.00707757
v -0.146008635 -0.14773092 0.00707757
v -0.145567875 -0.145908195 0.00699813
v -0.14597817 -0.147737745 0.00699813
v -0.145542615 -0.145913865 0.00691614
v -0.14595291 -0.147743415 0.00691614
v -0.145522545 -0.145918365 0.00683157
v -0.14593284 -0.147747915 0.00683157
v -0.145507665 -0.145921695 0.00674445
v -0.14591796 -0.147751245 0.00674445
v -0.14549799 -0.145923855 0.00665475
v -0.1459083 -0.14775342 0.00665475
v -0.14549352 -0.145924875 0.0065625
v -0.145903815 -0.147754425 0.0065625
v -0.14549799 -0.145923855 0.00647025
v -0.1459083 -0.14775342 0.00647025
v -0.145507665 -0.145921695 0.00638055
v -0.14591796 -0.147751245 0.00638055
v -0.145522545 -0.145918365 0.00629343
v -0.14593284 -0.147747915 0.00629343
v -0.145542615 -0.145913865 0.00620886
v -0.14595291 -0.147743415 0.00620886
v -0.145567875 -0.145908195 0.00612687
v -0.14597817 -0.147737745 0.00612687
v -0.14559834 -0.145901355 0.00604743
v -0.146008635 -0.14773092 0.00604743
v -0.14563413 -0.14589333 0.00597039
v -0.14604444 -0.14772288 0.00597039
v -0.14567613 -0.145883925 0.005894625
v -0.14608644 -0.147713475 0.005894625
v -0.145723905 -0.1458732 0.005820705
v -0.146134185 -0.14770275 0.005820705
v -0.145776675 -0.14586138 0.005749575
v -0.14618697 -0.14769093 0.005749575
v -0.14583375 -0.14584857 0.00568218
v -0.146244045 -0.14767812 0.00568218
v -0.145894395 -0.145834965 0.00561945
v -0.146304675 -0.14766453 0.00561945
v -0.145957845 -0.14582073 0.005562315
v -0.14636814 -0.147650295 0.005562315
v -0.14602482 -0.145805715 0.00551052
v -0.146435115 -0.14763528 0.00551052
v -0.146096745 -0.14578959 0.005462685
v -0.146507055 -0.14761914 0.005462685
v -0.146172645 -0.145772565 0.00541929
v -0.146582925 -0.14760213 0.00541929
v -0.14625141 -0.145754895 0.00538086
v -0.146661705 -0.14758446 0.00538086
v -0.14633202 -0.14573682 0.005347935
v -0.14674233 -0.147566385 0.005347935
v -0.146413425 -0.145718565 0.00532101
v -0.146823705 -0.14754813 0.00532101
v -0.146494725 -0.14570034 0.00530058
v -0.146905035 -0.14752989 0.00530058
v -0.14657832 -0.14568159 0.005286165
v -0.146988615 -0.147511155 0.005286165
v -0.146664255 -0.145662315 0.005277525
v -0.147074535 -0.14749188 0.005277525
v -0.14675133 -0.145642785 0.005274645
v -0.14716164 -0.14747235 0.005274645
v -0.146838435 -0.145623255 0.005277525
v -0.147248745 -0.14745282 0.005277525
v -0.14692437 -0.14560398 0.005286165
v -0.14733465 -0.147433545 0.005286165
v -0.147007935 -0.145585245 0.00530058
v -0.147418245 -0.14741481 0.00530058
v -0.147089265 -0.145567005 0.00532101
v -0.14749956 -0.14739657 0.00532101
v -0.14717067 -0.14554875 0.005347935
v -0.14758095 -0.147378315 0.005347935
v -0.147251265 -0.145530675 0.00538086
v -0.147661575 -0.14736024 0.00538086
v -0.147330045 -0.14551302 0.00541929
v -0.147740355 -0.14734257 0.00541929
v -0.147405945 -0.145495995 0.005462685
v -0.147816225 -0.147325545 0.005462685
v -0.14747787 -0.145479855 0.00551052
v -0.147888165 -0.14730942 0.00551052
v -0.147544845 -0.14546484 0.005562315
v -0.147955125 -0.147294405 0.005562315
v -0.147608295 -0.14545062 0.00561945
v -0.148018605 -0.14728017 0.00561945
v -0.14766894 -0.145437015 0.00568218
v -0.14807922 -0.147266565 0.00568218
v -0.147726 -0.145424205 0.005749575
v -0.148136295 -0.14725377 0.005749575
v -0.147778785 -0.145412385 0.005820705
v -0.14818908 -0.147241935 0.005820705
v -0.147826545 -0.14540166 0.005894625
v -0.14823684 -0.147231225 0.005894625
v -0.147868545 -0.145392255 0.00597039
v -0.14827884 -0.147221805 0.00597039
v -0.14790435 -0.14538423 0.00604743
v -0.148314645 -0.14721378 0.00604743
v -0.147934815 -0.14537739 0.00612687
v -0.148345095 -0.14720694 0.00612687
v -0.147960075 -0.14537172 0.00620886
v -0.148370355 -0.14720127 0.00620886
v -0.147980145 -0.14536722 0.00629343
v -0.148390425 -0.147196785 0.00629343
v -0.14799501 -0.14536389 0.00638055
v -0.148405305 -0.14719344 0.00638055
v -0.1480047 -0.145361715 0.00647025
v -0.12134268 -0.15230169 0.0028125
v -0.121136625 -0.15138711 0.0028125
v -0.128455755 -0.14974572 0.0028125
v -0.1215471 -0.15321663 0.0028125
v -0.12886605 -0.1515753 0.0028125
v -0.121541655 -0.153217845 0.00264516
v -0.12113322 -0.151387875 0.002618925
v -0.121136625 -0.15138711 0.0028125
v -0.121551555 -0.153215625 0.002478555
v -0.1215471 -0.15321663 0.0028125
v -0.12114702 -0.151384785 0.002432145
v -0.121576845 -0.15320997 0.002312715
v -0.12117798 -0.15137784 0.002252145
v -0.121615515 -0.153201285 0.002145225
v -0.121225965 -0.151367085 0.0020769
v -0.121669575 -0.153189165 0.0019785
v -0.12129114 -0.15135246 0.001908435
v -0.121744845 -0.15317229 0.00181965
v -0.121373985 -0.151333875 0.00175287
v -0.12184581 -0.15314964 0.001668735
v -0.12147708 -0.15131076 0.00161202
v -0.121904715 -0.15313644 0.001595805
v -0.121967985 -0.15312225 0.00152571
v -0.12159783 -0.151283685 0.00148407
v -0.122034705 -0.15310728 0.00145935
v -0.12210393 -0.15309177 0.00139758
v -0.121728885 -0.1512543 0.001369755
v -0.122175795 -0.153075645 0.00134025
v -0.12225111 -0.153058755 0.00128664
v -0.12186777 -0.151223145 0.00126933
v -0.12232986 -0.1530411 0.00123675
v -0.122412045 -0.15302265 0.001190595
v -0.122016945 -0.15118968 0.001182555
v -0.12249768 -0.153003465 0.001148145
v -0.12258672 -0.152983485 0.001109415
v -0.12217644 -0.15115392 0.001109415
v -0.123035745 -0.15288279 0.000891345
v -0.12262545 -0.151053225 0.000891345
v -0.123479565 -0.152783265 0.00067149
v -0.12306927 -0.1509537 0.00067149
v -0.123918195 -0.15268488 0.00044985
v -0.123507915 -0.15085533 0.00044985
v -0.124351665 -0.15258768 0.00022641
v -0.123941355 -0.15075813 0.00022641
v -0.12477993 -0.152491635 1.185e-06
v -0.12436962 -0.150662085 1.185e-06
v -0.125203005 -0.15239676 -0.000225825
v -0.12479271 -0.150567195 -0.000225825
v -0.12562089 -0.152303055 -0.000454635
v -0.125210595 -0.15047349 -0.000454635
v -0.1260336 -0.152210505 -0.00068523
v -0.125623305 -0.150380925 -0.00068523
v -0.12644112 -0.152119095 -0.00091761
v -0.126030825 -0.150289545 -0.00091761
v -0.12684345 -0.152028885 -0.001151775
v -0.126433155 -0.15019932 -0.001151775
v -0.127240635 -0.1519398 -0.001387725
v -0.12683034 -0.15011025 -0.001387725
v -0.12763299 -0.15185181 -0.00162525
v -0.12722271 -0.15002226 -0.00162525
v -0.12802053 -0.151764915 -0.00186438
v -0.127610235 -0.14993535 -0.00186438
v -0.128403075 -0.151679115 -0.00210519
v -0.12799278 -0.14984955 -0.00210519
v -0.12878046 -0.151594485 -0.00234777
v -0.12837018 -0.14976492 -0.00234777
v -0.12915255 -0.15151104 -0.00259221
v -0.128742255 -0.149681475 -0.00259221
v -0.129519165 -0.151428825 -0.002838585
v -0.12910887 -0.149599275 -0.002838585
v -0.129880155 -0.15134787 -0.003087
v -0.12946986 -0.14951832 -0.003087
v -0.130235355 -0.15126822 -0.003337515
v -0.12982506 -0.149438655 -0.003337515
v -0.1305846 -0.151189905 -0.003590235
v -0.130174305 -0.149360325 -0.003590235
v -0.13092774 -0.15111294 -0.003845235
v -0.130517445 -0.14928339 -0.003845235
v -0.131264745 -0.15103737 -0.00410253
v -0.130854465 -0.14920779 -0.00410253
v -0.13159599 -0.150963075 -0.00436194
v -0.13118568 -0.149133525 -0.00436194
v -0.131921475 -0.1508901 -0.00462345
v -0.131511165 -0.14906052 -0.00462345
v -0.132241185 -0.150818385 -0.00488706
v -0.13183089 -0.148988835 -0.00488706
v -0.132555165 -0.150747975 -0.005152755
v -0.13214487 -0.148918425 -0.005152755
v -0.132863385 -0.150678855 -0.005420535
v -0.13245309 -0.14884929 -0.005420535
v -0.13316586 -0.150611025 -0.005690415
v -0.13275555 -0.14878146 -0.005690415
v -0.133462575 -0.150544485 -0.005962395
v -0.13305228 -0.148714935 -0.005962395
v -0.133753545 -0.150479235 -0.006236475
v -0.133343235 -0.14864967 -0.006236475
v -0.13431822 -0.15035259 -0.00679089
v -0.133907925 -0.14852304 -0.00679089
v -0.134803665 -0.150243735 -0.00726087
v -0.13439337 -0.148414185 -0.00726087
v -0.135300675 -0.15013227 -0.00771
v -0.13489038 -0.148302705 -0.00771
v -0.13580925 -0.15001821 -0.008138295
v -0.13539897 -0.14818866 -0.008138295
v -0.13632942 -0.14990157 -0.00854574
v -0.135919125 -0.14807202 -0.00854574
v -0.13686114 -0.14978232 -0.00893235
v -0.136450845 -0.14795277 -0.00893235
v -0.137404425 -0.149660475 -0.009298125
v -0.13699413 -0.147830925 -0.009298125
v -0.13795929 -0.14953605 -0.00964305
v -0.13754898 -0.1477065 -0.00964305
v -0.13852704 -0.14940873 -0.00996768
v -0.138116745 -0.14757918 -0.00996768
v -0.13911009 -0.149277975 -0.010273035
v -0.13869981 -0.147448425 -0.010273035
v -0.139706355 -0.14914425 -0.01055823
v -0.13929606 -0.1473147 -0.01055823
v -0.140313495 -0.149008095 -0.01082229
v -0.1399032 -0.147178545 -0.01082229
v -0.140929185 -0.14887002 -0.011064255
v -0.14051889 -0.14704047 -0.011064255
v -0.141551115 -0.148730565 -0.01128315
v -0.14114082 -0.146901 -0.01128315
v -0.142176945 -0.148590195 -0.011478
v -0.14176665 -0.146760645 -0.011478
v -0.142805505 -0.148449255 -0.01164816
v -0.14239521 -0.14661969 -0.01164816
v -0.143443125 -0.14830626 -0.01179531
v -0.14303283 -0.146476695 -0.01179531
v -0.144089115 -0.14816139 -0.01191957
v -0.14367882 -0.146331825 -0.01191957
v -0.144740985 -0.1480152 -0.012020625
v -0.14433069 -0.146185635 -0.012020625
v -0.14539626 -0.147868245 -0.01209816
v -0.14498595 -0.14603868 -0.01209816
v -0.14605242 -0.147721095 -0.01215186
v -0.14564214 -0.145891545 -0.01215186
v -0.146707005 -0.14757429 -0.01218138
v -0.14629671 -0.14574474 -0.01218138
v -0.147357675 -0.147428385 -0.012186405
v -0.14694738 -0.145598835 -0.012186405
v -0.148009665 -0.147282165 -0.012166755
v -0.147599355 -0.145452615 -0.012166755
v -0.148664655 -0.147135285 -0.0121227
v -0.148254375 -0.14530572 -0.0121227
v -0.1493202 -0.14698827 -0.01205457
v -0.148909905 -0.145158705 -0.01205457
v -0.14997378 -0.146841705 -0.011962725
v -0.1495635 -0.14501214 -0.011962725
v -0.150622935 -0.146696115 -0.011847495
v -0.150212625 -0.144866565 -0.011847495
v -0.15126513 -0.1465521 -0.01170924
v -0.15085485 -0.14472255 -0.01170924
v -0.151897935 -0.146410185 -0.01154832
v -0.151487625 -0.144580635 -0.01154832
v -0.15252345 -0.14626992 -0.011363835
v -0.152113155 -0.144440355 -0.011363835
v -0.153146295 -0.14613024 -0.01115472
v -0.152736015 -0.144300675 -0.01115472
v -0.153764265 -0.145991655 -0.01092195
v -0.15335397 -0.14416209 -0.01092195
v -0.15437499 -0.14585469 -0.010666485
v -0.153964695 -0.144025125 -0.010666485
v -0.15497619 -0.14571987 -0.010389345
v -0.15456591 -0.14389032 -0.010389345
v -0.155565555 -0.145587705 -0.010091505
v -0.155155245 -0.14375814 -0.010091505
v -0.156140745 -0.14545872 -0.00977397
v -0.15573045 -0.14362914 -0.00977397
v -0.1567014 -0.145332975 -0.009436605
v -0.15629112 -0.143503425 -0.009436605
v -0.15725313 -0.14520924 -0.009076125
v -0.156842835 -0.143379675 -0.009076125
v -0.15779472 -0.145087785 -0.00869364
v -0.15738441 -0.143258235 -0.00869364
v -0.15832416 -0.144969045 -0.00829071
v -0.15791388 -0.143139495 -0.00829071
v -0.1588395 -0.144853485 -0.007868925
v -0.158429205 -0.14302392 -0.007868925
v -0.159338715 -0.144741525 -0.007429845
v -0.158928435 -0.142911975 -0.007429845
v -0.159819855 -0.14463363 -0.006975045
v -0.159409575 -0.142804065 -0.006975045
v -0.160281405 -0.14453013 -0.006505605
v -0.159871095 -0.142700565 -0.006505605
v -0.16072767 -0.14443005 -0.00601695
v -0.16031736 -0.1426005 -0.00601695
v -0.16115901 -0.144333315 -0.005509155
v -0.160748715 -0.142503765 -0.005509155
v -0.16157391 -0.14424027 -0.004984245
v -0.16116363 -0.142410705 -0.004984245
v -0.161970855 -0.14415126 -0.00444429
v -0.16156056 -0.14232168 -0.00444429
v -0.1623483 -0.144066615 -0.0038913
v -0.161938005 -0.14223705 -0.0038913
v -0.16270473 -0.14398668 -0.00332736
v -0.16229445 -0.142157115 -0.00332736
v -0.163038645 -0.143911785 -0.00275445
v -0.162628335 -0.142082235 -0.00275445
v -0.16335192 -0.14384154 -0.002168805
v -0.16294164 -0.142011975 -0.002168805
v -0.16364625 -0.143775525 -0.001567935
v -0.163235955 -0.141945975 -0.001567935
v -0.16392063 -0.14371401 -0.000954225
v -0.163510335 -0.14188443 -0.000954225
v -0.16417413 -0.143657145 -0.00033006
v -0.16376385 -0.141827595 -0.00033006
v -0.164405805 -0.1436052 0.00030219
v -0.16399551 -0.141775635 0.00030219
v -0.16461468 -0.143558355 0.00094014
v -0.164204385 -0.14172879 0.00094014
v -0.16479978 -0.143516835 0.00158142
v -0.164389485 -0.141687285 0.00158142
v -0.16496118 -0.14348064 0.002227245
v -0.16455087 -0.14165109 0.002227245
v -0.16510041 -0.14344941 0.002883165
v -0.16469013 -0.14161986 0.002883165
v -0.16521726 -0.14342322 0.00354693
v -0.164806965 -0.141593655 0.00354693
v -0.1653114 -0.143402115 0.004215975
v -0.16490109 -0.141572535 0.004215975
v -0.16538247 -0.143386155 0.00488778
v -0.16497219 -0.141556605 0.00488778
v -0.165430185 -0.14337546 0.00555975
v -0.165019905 -0.14154591 0.00555975
v -0.1654542 -0.143370075 0.00622938
v -0.165043905 -0.141540525 0.00622938
v -0.1654542 -0.143370075 0.00689562
v -0.165043905 -0.141540525 0.00689562
v -0.165430185 -0.14337546 0.00756525
v -0.165019905 -0.14154591 0.00756525
v -0.16538247 -0.143386155 0.00823722
v -0.16497219 -0.141556605 0.00823722
v -0.1653114 -0.143402115 0.008909025
v -0.16490109 -0.141572535 0.008909025
v -0.16521726 -0.14342322 0.00957807
v -0.164806965 -0.141593655 0.00957807
v -0.16510041 -0.14344941 0.010241835
v -0.16469013 -0.14161986 0.010241835
v -0.16496118 -0.14348064 0.010897755
v -0.16455087 -0.14165109 0.010897755
v -0.16479978 -0.143516835 0.01154358
v -0.164389485 -0.141687285 0.01154358
v -0.16461468 -0.143558355 0.01218486
v -0.164204385 -0.14172879 0.01218486
v -0.164405805 -0.1436052 0.01282281
v -0.16399551 -0.141775635 0.01282281
v -0.16417413 -0.143657145 0.01345506
v -0.16376385 -0.141827595 0.01345506
v -0.16392063 -0.14371401 0.014079225
v -0.163510335 -0.14188443 0.014079225
v -0.16364625 -0.143775525 0.014692935
v -0.163235955 -0.141945975 0.014692935
v -0.16335192 -0.14384154 0.015293805
v -0.16294164 -0.142011975 0.015293805
v -0.163038645 -0.143911785 0.01587945
v -0.162628335 -0.142082235 0.01587945
v -0.16270473 -0.14398668 0.01645236
v -0.16229445 -0.142157115 0.01645236
v -0.1623483 -0.144066615 0.0170163
v -0.161938005 -0.14223705 0.0170163
v -0.161970855 -0.14415126 0.01756929
v -0.16156056 -0.14232168 0.01756929
v -0.16157391 -0.14424027 0.018109245
v -0.16116363 -0.142410705 0.018109245
v -0.16115901 -0.144333315 0.018634155
v -0.160748715 -0.142503765 0.018634155
v -0.16072767 -0.14443005 0.01914195
v -0.16031736 -0.1426005 0.01914195
v -0.160281405 -0.14453013 0.019630605
v -0.159871095 -0.142700565 0.019630605
v -0.159819855 -0.14463363 0.020100045
v -0.159409575 -0.142804065 0.020100045
v -0.159338715 -0.144741525 0.020554845
v -0.158928435 -0.142911975 0.020554845
v -0.1588395 -0.144853485 0.020993925
v -0.158429205 -0.14302392 0.020993925
v -0.15832416 -0.144969045 0.02141571
v -0.15791388 -0.143139495 0.02141571
v -0.15779472 -0.145087785 0.02181864
v -0.15738441 -0.143258235 0.02181864
v -0.15725313 -0.14520924 0.022201125
v -0.156842835 -0.143379675 0.022201125
v -0.1567014 -0.145332975 0.022561605
v -0.15629112 -0.143503425 0.022561605
v -0.156140745 -0.14545872 0.02289897
v -0.15573045 -0.14362914 0.02289897
v -0.155565555 -0.145587705 0.023216505
v -0.155155245 -0.14375814 0.023216505
v -0.15497619 -0.14571987 0.023514345
v -0.15456591 -0.14389032 0.023514345
v -0.15437499 -0.14585469 0.023791485
v -0.153964695 -0.144025125 0.023791485
v -0.153764265 -0.145991655 0.02404695
v -0.15335397 -0.14416209 0.02404695
v -0.153146295 -0.14613024 0.024279735
v -0.152736015 -0.144300675 0.024279735
v -0.15252345 -0.14626992 0.024488835
v -0.152113155 -0.144440355 0.024488835
v -0.151897935 -0.146410185 0.02467332
v -0.151487625 -0.144580635 0.02467332
v -0.15126513 -0.1465521 0.02483424
v -0.15085485 -0.14472255 0.02483424
v -0.150622935 -0.146696115 0.024972495
v -0.150212625 -0.144866565 0.024972495
v -0.14997378 -0.146841705 0.025087725
v -0.1495635 -0.14501214 0.025087725
v -0.1493202 -0.14698827 0.02517957
v -0.148909905 -0.145158705 0.02517957
v -0.148664655 -0.147135285 0.0252477
v -0.148254375 -0.14530572 0.0252477
v -0.148009665 -0.147282165 0.025291755
v -0.147599355 -0.145452615 0.025291755
v -0.147357675 -0.147428385 0.025311405
v -0.14694738 -0.145598835 0.025311405
v -0.146707005 -0.14757429 0.02530638
v -0.14629671 -0.14574474 0.02530638
v -0.14605242 -0.147721095 0.02527686
v -0.14564214 -0.145891545 0.02527686
v -0.14539626 -0.147868245 0.02522316
v -0.14498595 -0.14603868 0.02522316
v -0.144740985 -0.1480152 0.025145625
v -0.14433069 -0.146185635 0.025145625
v -0.144089115 -0.14816139 0.02504457
v -0.14367882 -0.146331825 0.02504457
v -0.143443125 -0.14830626 0.02492031
v -0.14303283 -0.146476695 0.02492031
v -0.142805505 -0.148449255 0.02477316
v -0.14239521 -0.14661969 0.02477316
v -0.142176945 -0.148590195 0.024603
v -0.14176665 -0.146760645 0.024603
v -0.141551115 -0.148730565 0.02440815
v -0.14114082 -0.146901 0.02440815
v -0.140929185 -0.14887002 0.024189255
v -0.14051889 -0.14704047 0.024189255
v -0.140313495 -0.149008095 0.02394729
v -0.1399032 -0.147178545 0.02394729
v -0.139706355 -0.14914425 0.02368323
v -0.13929606 -0.1473147 0.02368323
v -0.13911009 -0.149277975 0.023398035
v -0.13869981 -0.147448425 0.023398035
v -0.13852704 -0.14940873 0.02309268
v -0.138116745 -0.14757918 0.02309268
v -0.13795929 -0.14953605 0.02276805
v -0.13754898 -0.1477065 0.02276805
v -0.137404425 -0.149660475 0.022423125
v -0.13699413 -0.147830925 0.022423125
v -0.13686114 -0.14978232 0.02205735
v -0.136450845 -0.14795277 0.02205735
v -0.13632942 -0.14990157 0.02167074
v -0.135919125 -0.14807202 0.02167074
v -0.13580925 -0.15001821 0.021263295
v -0.13539897 -0.14818866 0.021263295
v -0.135300675 -0.15013227 0.020835
v -0.13489038 -0.148302705 0.020835
v -0.134803665 -0.150243735 0.02038587
v -0.13439337 -0.148414185 0.02038587
v -0.13431822 -0.15035259 0.01991589
v -0.133907925 -0.14852304 0.01991589
v -0.133753545 -0.150479235 0.019361475
v -0.133343235 -0.14864967 0.019361475
v -0.133462575 -0.150544485 0.019087395
v -0.13305228 -0.148714935 0.019087395
v -0.13316586 -0.150611025 0.018815415
v -0.13275555 -0.14878146 0.018815415
v -0.132863385 -0.150678855 0.018545535
v -0.13245309 -0.14884929 0.018545535
v -0.132555165 -0.150747975 0.018277755
v -0.13214487 -0.148918425 0.018277755
v -0.132241185 -0.150818385 0.01801206
v -0.13183089 -0.148988835 0.01801206
v -0.131921475 -0.1508901 0.01774845
v -0.131511165 -0.14906052 0.01774845
v -0.13159599 -0.150963075 0.017486955
v -0.13118568 -0.149133525 0.017486955
v -0.131264745 -0.15103737 0.01722753
v -0.130854465 -0.14920779 0.01722753
v -0.13092774 -0.15111294 0.016970235
v -0.130517445 -0.14928339 0.016970235
v -0.1305846 -0.151189905 0.016715235
v -0.130174305 -0.149360325 0.016715235
v -0.130235355 -0.15126822 0.016462515
v -0.12982506 -0.149438655 0.016462515
v -0.129880155 -0.15134787 0.016212
v -0.12946986 -0.14951832 0.016212
v -0.129519165 -0.151428825 0.015963585
v -0.12910887 -0.149599275 0.015963585
v -0.12915255 -0.15151104 0.01571721
v -0.128742255 -0.149681475 0.01571721
v -0.12878046 -0.151594485 0.01547277
v -0.12837018 -0.14976492 0.01547277
v -0.128403075 -0.151679115 0.01523019
v -0.12799278 -0.14984955 0.01523019
v -0.12802053 -0.151764915 0.01498938
v -0.127610235 -0.14993535 0.01498938
v -0.12763299 -0.15185181 0.01475025
v -0.12722271 -0.15002226 0.01475025
v -0.127240635 -0.1519398 0.014512725
v -0.12683034 -0.15011025 0.014512725
v -0.12684345 -0.152028885 0.01427679
v -0.126433155 -0.15019932 0.01427679
v -0.12644112 -0.152119095 0.01404261
v -0.126030825 -0.150289545 0.01404261
v -0.1260336 -0.152210505 0.01381023
v -0.125623305 -0.150380925 0.01381023
v -0.12562089 -0.152303055 0.013579635
v -0.125210595 -0.15047349 0.013579635
v -0.125203005 -0.15239676 0.013350825
v -0.12479271 -0.150567195 0.013350825
v -0.12477993 -0.152491635 0.013123815
v -0.12436962 -0.150662085 0.013123815
v -0.124351665 -0.15258768 0.01289859
v -0.123941355 -0.15075813 0.01289859
v -0.123918195 -0.15268488 0.01267515
v -0.123507915 -0.15085533 0.01267515
v -0.123479565 -0.152783265 0.01245351
v -0.12306927 -0.1509537 0.01245351
v -0.123035745 -0.15288279 0.01223364
v -0.12262545 -0.151053225 0.01223364
v -0.12258672 -0.152983485 0.012015585
v -0.12217644 -0.15115392 0.012015585
v -0.12242916 -0.153018825 0.011943615
v -0.122010255 -0.15119118 0.01193952
v -0.122281335 -0.153051975 0.011857875
v -0.12185547 -0.151225905 0.011848395
v -0.122143245 -0.153082935 0.01175835
v -0.121712085 -0.151258065 0.01174218
v -0.122012325 -0.153112305 0.011644935
v -0.12157716 -0.15128832 0.01161927
v -0.121891155 -0.15313947 0.01151772
v -0.121453635 -0.151316025 0.011481285
v -0.12178743 -0.153162735 0.01137711
v -0.12135027 -0.1513392 0.011333055
v -0.12170376 -0.1531815 0.011221005
v -0.12127128 -0.151356915 0.011173455
v -0.12163755 -0.15319635 0.01105149
v -0.12121248 -0.1513701 0.011003625
v -0.12158877 -0.1532073 0.010875225
v -0.121169985 -0.151379625 0.0108318
v -0.12155739 -0.15321432 0.010694415
v -0.12114258 -0.151385775 0.010660695
v -0.12154344 -0.153217455 0.01050684
v -0.121131495 -0.151388265 0.01048761
v -0.121546905 -0.153216675 0.0103125
v -0.121136745 -0.15138708 0.0103125
v -0.12886605 -0.1515753 0.0028125
v -0.128455755 -0.14974572 0.0028125
v -0.128455755 -0.14974572 0.0103125
v -0.12886605 -0.1515753 0.0103125
v -0.12886605 -0.1515753 0.0103125
v -0.128455755 -0.14974572 0.0103125
v -0.121136745 -0.15138708 0.0103125
v -0.12134268 -0.15230169 0.0103125
v -0.121546905 -0.153216675 0.0103125
v -0.148009665 -0.147282165 -0.012166755
v -0.14841498 -0.14719128 0.00647025
v -0.14841945 -0.147190275 0.0065625
v -0.148405305 -0.14719344 0.00638055
v -0.148664655 -0.147135285 -0.0121227
v -0.148664655 -0.147135285 0.0252477
v -0.1493202 -0.14698827 0.02517957
v -0.14841498 -0.14719128 0.00665475
v -0.148405305 -0.14719344 0.00674445
v -0.148390425 -0.147196785 0.00683157
v -0.148370355 -0.14720127 0.00691614
v -0.148345095 -0.14720694 0.00699813
v -0.148314645 -0.14721378 0.00707757
v -0.14827884 -0.147221805 0.00715461
v -0.14823684 -0.147231225 0.007230375
v -0.14818908 -0.147241935 0.007304295
v -0.148136295 -0.14725377 0.007375425
v -0.14807922 -0.147266565 0.00744282
v -0.148018605 -0.14728017 0.00750555
v -0.148009665 -0.147282165 0.025291755
v -0.147955125 -0.147294405 0.007562685
v -0.147888165 -0.14730942 0.00761448
v -0.147816225 -0.147325545 0.007662315
v -0.147740355 -0.14734257 0.00770571
v -0.147661575 -0.14736024 0.00774414
v -0.14758095 -0.147378315 0.007777065
v -0.14749956 -0.14739657 0.00780399
v -0.147418245 -0.14741481 0.00782442
v -0.147357675 -0.147428385 0.025311405
v -0.14733465 -0.147433545 0.007838835
v -0.147248745 -0.14745282 0.007847475
v -0.14716164 -0.14747235 0.007850355
v -0.147074535 -0.14749188 0.007847475
v -0.146988615 -0.147511155 0.007838835
v -0.146905035 -0.14752989 0.00782442
v -0.146823705 -0.14754813 0.00780399
v -0.14674233 -0.147566385 0.007777065
v -0.146707005 -0.14757429 0.02530638
v -0.146661705 -0.14758446 0.00774414
v -0.146582925 -0.14760213 0.00770571
v -0.146507055 -0.14761914 0.007662315
v -0.146435115 -0.14763528 0.00761448
v -0.14636814 -0.147650295 0.007562685
v -0.146304675 -0.14766453 0.00750555
v -0.146244045 -0.14767812 0.00744282
v -0.14618697 -0.14769093 0.007375425
v -0.146134185 -0.14770275 0.007304295
v -0.14608644 -0.147713475 0.007230375
v -0.14605242 -0.147721095 0.02527686
v -0.14604444 -0.14772288 0.00715461
v -0.146008635 -0.14773092 0.00707757
v -0.14597817 -0.147737745 0.00699813
v -0.14595291 -0.147743415 0.00691614
v -0.14593284 -0.147747915 0.00683157
v -0.14591796 -0.147751245 0.00674445
v -0.1459083 -0.14775342 0.00665475
v -0.145903815 -0.147754425 0.0065625
v -0.14539626 -0.147868245 -0.01209816
v -0.1459083 -0.14775342 0.00647025
v -0.14539626 -0.147868245 0.02522316
v -0.144740985 -0.1480152 -0.012020625
v -0.144740985 -0.1480152 0.025145625
v -0.144089115 -0.14816139 -0.01191957
v -0.144089115 -0.14816139 0.02504457
v -0.143443125 -0.14830626 -0.01179531
v -0.143443125 -0.14830626 0.02492031
v -0.142805505 -0.148449255 -0.01164816
v -0.142805505 -0.148449255 0.02477316
v -0.142176945 -0.148590195 -0.011478
v -0.142176945 -0.148590195 0.024603
v -0.141551115 -0.148730565 -0.01128315
v -0.141551115 -0.148730565 0.02440815
v -0.140929185 -0.14887002 -0.011064255
v -0.140929185 -0.14887002 0.024189255
v -0.140313495 -0.149008095 -0.01082229
v -0.140313495 -0.149008095 0.02394729
v -0.139706355 -0.14914425 -0.01055823
v -0.139706355 -0.14914425 0.02368323
v -0.13911009 -0.149277975 -0.010273035
v -0.13911009 -0.149277975 0.023398035
v -0.13852704 -0.14940873 -0.00996768
v -0.13852704 -0.14940873 0.02309268
v -0.13795929 -0.14953605 -0.00964305
v -0.13795929 -0.14953605 0.02276805
v -0.137404425 -0.149660475 -0.009298125
v -0.137404425 -0.149660475 0.022423125
v -0.13686114 -0.14978232 -0.00893235
v -0.13686114 -0.14978232 0.02205735
v -0.13632942 -0.14990157 -0.00854574
v -0.13632942 -0.14990157 0.02167074
v -0.13580925 -0.15001821 -0.008138295
v -0.13580925 -0.15001821 0.021263295
v -0.135300675 -0.15013227 -0.00771
v -0.135300675 -0.15013227 0.020835
v -0.134803665 -0.150243735 -0.00726087
v -0.134803665 -0.150243735 0.02038587
v -0.13431822 -0.15035259 -0.00679089
v -0.13431822 -0.15035259 0.01991589
v -0.133753545 -0.150479235 -0.006236475
v -0.133753545 -0.150479235 0.019361475
v -0.133462575 -0.150544485 -0.005962395
v -0.133462575 -0.150544485 0.019087395
v -0.13316586 -0.150611025 -0.005690415
v -0.13316586 -0.150611025 0.018815415
v -0.132863385 -0.150678855 -0.005420535
v -0.132863385 -0.150678855 0.018545535
v -0.132555165 -0.150747975 -0.005152755
v -0.132555165 -0.150747975 0.018277755
v -0.132241185 -0.150818385 -0.00488706
v -0.132241185 -0.150818385 0.01801206
v -0.131921475 -0.1508901 -0.00462345
v -0.131921475 -0.1508901 0.01774845
v -0.13159599 -0.150963075 -0.00436194
v -0.13159599 -0.150963075 0.017486955
v -0.131264745 -0.15103737 -0.00410253
v -0.131264745 -0.15103737 0.01722753
v -0.13092774 -0.15111294 -0.003845235
v -0.13092774 -0.15111294 0.016970235
v -0.1305846 -0.151189905 -0.003590235
v -0.1305846 -0.151189905 0.016715235
v -0.130235355 -0.15126822 -0.003337515
v -0.130235355 -0.15126822 0.016462515
v -0.129880155 -0.15134787 -0.003087
v -0.129880155 -0.15134787 0.016212
v -0.129519165 -0.151428825 -0.002838585
v -0.129519165 -0.151428825 0.015963585
v -0.12915255 -0.15151104 -0.00259221
v -0.12915255 -0.15151104 0.01571721
v -0.12878046 -0.151594485 -0.00234777
v -0.12886605 -0.1515753 0.0028125
v -0.12886605 -0.1515753 0.0103125
v -0.128403075 -0.151679115 -0.00210519
v -0.12802053 -0.151764915 -0.00186438
v -0.12763299 -0.15185181 -0.00162525
v -0.127240635 -0.1519398 -0.001387725
v -0.12684345 -0.152028885 -0.001151775
v -0.12644112 -0.152119095 -0.00091761
v -0.1260336 -0.152210505 -0.00068523
v -0.12562089 -0.152303055 -0.000454635
v -0.125203005 -0.15239676 -0.000225825
v -0.12477993 -0.152491635 1.185e-06
v -0.124351665 -0.15258768 0.00022641
v -0.123918195 -0.15268488 0.00044985
v -0.123479565 -0.152783265 0.00067149
v -0.123035745 -0.15288279 0.000891345
v -0.12258672 -0.152983485 0.001109415
v -0.12249768 -0.153003465 0.001148145
v -0.122412045 -0.15302265 0.001190595
v -0.12232986 -0.1530411 0.00123675
v -0.12225111 -0.153058755 0.00128664
v -0.122175795 -0.153075645 0.00134025
v -0.12210393 -0.15309177 0.00139758
v -0.122034705 -0.15310728 0.00145935
v -0.121967985 -0.15312225 0.00152571
v -0.121904715 -0.15313644 0.001595805
v -0.12184581 -0.15314964 0.001668735
v -0.121744845 -0.15317229 0.00181965
v -0.121669575 -0.153189165 0.0019785
v -0.121615515 -0.153201285 0.002145225
v -0.121576845 -0.15320997 0.002312715
v -0.121551555 -0.153215625 0.002478555
v -0.1215471 -0.15321663 0.0028125
v -0.121541655 -0.153217845 0.00264516
v -0.12878046 -0.151594485 0.01547277
v -0.121546905 -0.153216675 0.0103125
v -0.128403075 -0.151679115 0.01523019
v -0.12802053 -0.151764915 0.01498938
v -0.12763299 -0.15185181 0.01475025
v -0.127240635 -0.1519398 0.014512725
v -0.12684345 -0.152028885 0.01427679
v -0.12644112 -0.152119095 0.01404261
v -0.1260336 -0.152210505 0.01381023
v -0.12562089 -0.152303055 0.013579635
v -0.125203005 -0.15239676 0.013350825
v -0.12477993 -0.152491635 0.013123815
v -0.124351665 -0.15258768 0.01289859
v -0.123918195 -0.15268488 0.01267515
v -0.123479565 -0.152783265 0.01245351
v -0.123035745 -0.15288279 0.01223364
v -0.12258672 -0.152983485 0.012015585
v -0.12242916 -0.153018825 0.011943615
v -0.122281335 -0.153051975 0.011857875
v -0.122143245 -0.153082935 0.01175835
v -0.122012325 -0.153112305 0.011644935
v -0.121891155 -0.15313947 0.01151772
v -0.12178743 -0.153162735 0.01137711
v -0.12170376 -0.1531815 0.011221005
v -0.12163755 -0.15319635 0.01105149
v -0.12158877 -0.1532073 0.010875225
v -0.12155739 -0.15321432 0.010694415
v -0.12154344 -0.153217455 0.01050684
v -0.14591796 -0.147751245 0.00638055
v -0.14593284 -0.147747915 0.00629343
v -0.14595291 -0.147743415 0.00620886
v -0.14597817 -0.147737745 0.00612687
v -0.146008635 -0.14773092 0.00604743
v -0.14604444 -0.14772288 0.00597039
v -0.14605242 -0.147721095 -0.01215186
v -0.14608644 -0.147713475 0.005894625
v -0.146134185 -0.14770275 0.005820705
v -0.14618697 -0.14769093 0.005749575
v -0.146244045 -0.14767812 0.00568218
v -0.146304675 -0.14766453 0.00561945
v -0.14636814 -0.147650295 0.005562315
v -0.146435115 -0.14763528 0.00551052
v -0.146507055 -0.14761914 0.005462685
v -0.146582925 -0.14760213 0.00541929
v -0.146661705 -0.14758446 0.00538086
v -0.146707005 -0.14757429 -0.01218138
v -0.14674233 -0.147566385 0.005347935
v -0.146823705 -0.14754813 0.00532101
v -0.146905035 -0.14752989 0.00530058
v -0.146988615 -0.147511155 0.005286165
v -0.147074535 -0.14749188 0.005277525
v -0.14716164 -0.14747235 0.005274645
v -0.147248745 -0.14745282 0.005277525
v -0.14733465 -0.147433545 0.005286165
v -0.147357675 -0.147428385 -0.012186405
v -0.147418245 -0.14741481 0.00530058
v -0.14749956 -0.14739657 0.00532101
v -0.14758095 -0.147378315 0.005347935
v -0.147661575 -0.14736024 0.00538086
v -0.147740355 -0.14734257 0.00541929
v -0.147816225 -0.147325545 0.005462685
v -0.147888165 -0.14730942 0.00551052
v -0.147955125 -0.147294405 0.005562315
v -0.148018605 -0.14728017 0.00561945
v -0.14807922 -0.147266565 0.00568218
v -0.148136295 -0.14725377 0.005749575
v -0.14818908 -0.147241935 0.005820705
v -0.14823684 -0.147231225 0.005894625
v -0.14827884 -0.147221805 0.00597039
v -0.148314645 -0.14721378 0.00604743
v -0.148345095 -0.14720694 0.00612687
v -0.148370355 -0.14720127 0.00620886
v -0.148390425 -0.147196785 0.00629343
v -0.1493202 -0.14698827 -0.01205457
v -0.14997378 -0.146841705 0.025087725
v -0.14997378 -0.146841705 -0.011962725
v -0.150622935 -0.146696115 0.024972495
v -0.150622935 -0.146696115 -0.011847495
v -0.15126513 -0.1465521 0.02483424
v -0.15126513 -0.1465521 -0.01170924
v -0.151897935 -0.146410185 0.02467332
v -0.151897935 -0.146410185 -0.01154832
v -0.15252345 -0.14626992 0.024488835
v -0.15252345 -0.14626992 -0.011363835
v -0.153146295 -0.14613024 0.024279735
v -0.153146295 -0.14613024 -0.01115472
v -0.153764265 -0.145991655 0.02404695
v -0.153764265 -0.145991655 -0.01092195
v -0.15437499 -0.14585469 0.023791485
v -0.15437499 -0.14585469 -0.010666485
v -0.15497619 -0.14571987 0.023514345
v -0.15497619 -0.14571987 -0.010389345
v -0.155565555 -0.145587705 0.023216505
v -0.155565555 -0.145587705 -0.010091505
v -0.156140745 -0.14545872 0.02289897
v -0.156140745 -0.14545872 -0.00977397
v -0.1567014 -0.145332975 0.022561605
v -0.1567014 -0.145332975 -0.009436605
v -0.15725313 -0.14520924 0.022201125
v -0.15725313 -0.14520924 -0.009076125
v -0.15779472 -0.145087785 0.02181864
v -0.15779472 -0.145087785 -0.00869364
v -0.15832416 -0.144969045 0.02141571
v -0.15832416 -0.144969045 -0.00829071
v -0.1588395 -0.144853485 0.020993925
v -0.1588395 -0.144853485 -0.007868925
v -0.159338715 -0.144741525 0.020554845
v -0.159338715 -0.144741525 -0.007429845
v -0.159819855 -0.14463363 0.020100045
v -0.159819855 -0.14463363 -0.006975045
v -0.160281405 -0.14453013 0.019630605
v -0.160281405 -0.14453013 -0.006505605
v -0.16072767 -0.14443005 0.01914195
v -0.16072767 -0.14443005 -0.00601695
v -0.16115901 -0.144333315 0.018634155
v -0.16115901 -0.144333315 -0.005509155
v -0.16157391 -0.14424027 0.018109245
v -0.16157391 -0.14424027 -0.004984245
v -0.161970855 -0.14415126 0.01756929
v -0.161970855 -0.14415126 -0.00444429
v -0.1623483 -0.144066615 0.0170163
v -0.1623483 -0.144066615 -0.0038913
v -0.16270473 -0.14398668 0.01645236
v -0.16270473 -0.14398668 -0.00332736
v -0.163038645 -0.143911785 0.01587945
v -0.163038645 -0.143911785 -0.00275445
v -0.16335192 -0.14384154 0.015293805
v -0.16335192 -0.14384154 -0.002168805
v -0.16364625 -0.143775525 0.014692935
v -0.16364625 -0.143775525 -0.001567935
v -0.16392063 -0.14371401 0.014079225
v -0.16392063 -0.14371401 -0.000954225
v -0.16417413 -0.143657145 0.01345506
v -0.16417413 -0.143657145 -0.00033006
v -0.164405805 -0.1436052 0.01282281
v -0.164405805 -0.1436052 0.00030219
v -0.16461468 -0.143558355 0.01218486
v -0.16461468 -0.143558355 0.00094014
v -0.16479978 -0.143516835 0.01154358
v -0.16479978 -0.143516835 0.00158142
v -0.16496118 -0.14348064 0.010897755
v -0.16496118 -0.14348064 0.002227245
v -0.16510041 -0.14344941 0.010241835
v -0.16510041 -0.14344941 0.002883165
v -0.16521726 -0.14342322 0.00957807
v -0.16521726 -0.14342322 0.00354693
v -0.1653114 -0.143402115 0.008909025
v -0.1653114 -0.143402115 0.004215975
v -0.16538247 -0.143386155 0.00823722
v -0.16538247 -0.143386155 0.00488778
v -0.165430185 -0.14337546 0.00756525
v -0.165430185 -0.14337546 0.00555975
v -0.1654542 -0.143370075 0.00689562
v -0.1654542 -0.143370075 0.00622938
f 1 2 3
f 1 4 2
f 5 1 3
f 6 5 3
f 6 7 5
f 6 3 8
f 6 8 9
f 6 9 10
f 6 10 11
f 6 11 12
f 6 12 13
f 6 13 14
f 6 14 15
f 6 15 16
f 6 16 17
f 6 17 18
f 6 18 19
f 20 6 19
f 20 19 21
f 20 21 22
f 20 22 23
f 20 23 24
f 20 24 25
f 20 25 26
f 20 26 27
f 20 27 28
f 29 20 28
f 29 28 30
f 29 30 31
f 29 31 32
f 29 32 33
f 29 33 34
f 29 34 35
f 29 35 36
f 29 36 37
f 38 29 37
f 38 37 39
f 38 39 40
f 38 40 41
f 38 41 42
f 38 42 43
f 38 43 44
f 38 44 45
f 38 45 46
f 38 46 47
f 38 47 48
f 49 38 48
f 49 48 50
f 49 50 51
f 49 51 52
f 49 52 53
f 49 53 54
f 49 54 55
f 49 55 56
f 49 56 57
f 49 57 58
f 58 57 59
f 60 49 58
f 60 58 61
f 62 60 61
f 62 61 63
f 64 62 63
f 64 63 65
f 66 64 65
f 66 65 67
f 68 66 67
f 68 67 69
f 70 68 69
f 70 69 71
f 72 70 71
f 72 71 73
f 74 72 73
f 74 73 75
f 76 74 75
f 76 75 77
f 78 76 77
f 78 77 79
f 80 78 79
f 80 79 81
f 82 80 81
f 82 81 83
f 84 82 83
f 84 83 85
f 86 84 85
f 86 85 87
f 88 86 87
f 88 87 89
f 90 88 89
f 90 89 91
f 92 90 91
f 92 91 93
f 94 92 93
f 94 93 95
f 96 94 95
f 96 95 97
f 98 96 97
f 98 97 99
f 100 98 99
f 100 99 101
f 102 100 101
f 102 101 103
f 104 102 103
f 104 103 105
f 106 104 105
f 106 105 107
f 108 106 107
f 108 107 109
f 110 108 109
f 110 109 111
f 112 110 111
f 112 111 113
f 114 112 113
f 114 113 115
f 116 114 115
f 116 115 117
f 118 116 117
f 118 117 119
f 120 118 119
f 120 119 121
f 122 120 121
f 122 121 123
f 124 122 123
f 124 123 125
f 126 124 125
f 126 125 127
f 128 126 127
f 128 127 129
f 128 129 130
f 129 131 130
f 128 130 132
f 133 128 132
f 133 132 134
f 135 133 134
f 136 135 134
f 137 136 134
f 138 137 134
f 139 138 134
f 140 139 134
f 141 140 134
f 142 141 134
f 143 142 134
f 144 143 134
f 145 144 134
f 146 145 134
f 147 146 134
f 148 147 134
f 149 148 134
f 150 149 134
f 151 150 134
f 152 151 134
f 153 152 134
f 154 153 134
f 155 154 134
f 156 155 134
f 157 156 134
f 158 157 134
f 159 158 134
f 160 159 134
f 131 161 130
f 161 162 130
f 162 163 130
f 163 164 130
f 164 165 130
f 165 166 130
f 166 167 130
f 167 168 130
f 168 169 130
f 169 170 130
f 170 171 130
f 171 172 130
f 172 173 130
f 173 174 130
f 174 175 130
f 175 176 130
f 176 177 130
f 177 178 130
f 178 179 130
f 179 180 130
f 180 181 130
f 181 182 130
f 182 183 130
f 183 184 130
f 184 185 130
f 184 186 185
f 58 59 187
f 58 187 188
f 58 188 189
f 58 189 190
f 58 190 191
f 58 191 192
f 193 58 192
f 193 192 194
f 193 194 195
f 193 195 196
f 193 196 197
f 193 197 198
f 193 198 199
f 193 199 200
f 193 200 201
f 193 201 202
f 193 202 203
f 204 193 203
f 204 203 205
f 204 205 206
f 204 206 207
f 204 207 208
f 204 208 209
f 204 209 210
f 204 210 211
f 204 211 212
f 213 204 212
f 213 212 214
f 213 214 215
f 213 215 216
f 213 216 217
f 213 217 218
f 213 218 219
f 213 219 220
f 213 220 221
f 1 213 221
f 1 221 222
f 1 222 223
f 1 223 224
f 1 224 225
f 1 225 226
f 1 226 227
f 1 227 228
f 1 228 229
f 1 229 230
f 1 230 231
f 1 231 4
f 7 232 5
f 7 233 232
f 233 234 232
f 233 235 234
f 235 236 234
f 235 237 236
f 237 238 236
f 237 239 238
f 239 240 238
f 239 241 240
f 241 242 240
f 241 243 242
f 243 244 242
f 243 245 244
f 245 246 244
f 245 247 246
f 247 248 246
f 247 249 248
f 249 250 248
f 249 251 250
f 251 252 250
f 251 253 252
f 253 254 252
f 253 255 254
f 255 256 254
f 255 257 256
f 257 258 256
f 257 259 258
f 259 260 258
f 259 261 260
f 261 262 260
f 261 263 262
f 263 264 262
f 263 265 264
f 265 266 264
f 265 267 266
f 267 268 266
f 267 269 268
f 269 270 268
f 269 271 270
f 271 272 270
f 271 273 272
f 273 274 272
f 273 275 274
f 275 276 274
f 275 277 276
f 277 278 276
f 277 279 278
f 279 280 278
f 279 281 280
f 281 282 280
f 281 283 282
f 283 284 282
f 283 285 284
f 285 286 284
f 285 287 286
f 287 288 286
f 287 289 288
f 289 290 288
f 289 291 290
f 291 292 290
f 291 293 292
f 293 294 292
f 293 295 294
f 295 296 294
f 295 297 296
f 297 298 296
f 297 299 298
f 299 300 298
f 299 301 300
f 301 302 300
f 301 303 302
f 303 304 302
f 303 305 304
f 305 306 304
f 305 307 306
f 307 308 306
f 307 309 308
f 309 310 308
f 309 311 310
f 311 312 310
f 313 314 315
f 316 314 313
f 317 313 315
f 317 315 318
f 317 318 319
f 319 318 320
f 319 320 321
f 321 320 322
f 321 322 323
f 323 322 324
f 323 324 325
f 325 324 326
f 325 326 327
f 327 326 328
f 327 328 329
f 329 328 330
f 329 330 331
f 331 330 332
f 331 332 333
f 333 332 334
f 333 334 335
f 335 334 336
f 335 336 337
f 337 336 338
f 337 338 339
f 339 338 340
f 339 340 341
f 341 340 342
f 341 342 343
f 343 342 344
f 343 344 345
f 345 344 346
f 345 346 347
f 347 346 348
f 347 348 349
f 349 348 350
f 349 350 351
f 351 350 352
f 351 352 353
f 353 352 354
f 353 354 355
f 355 354 356
f 355 356 357
f 357 356 358
f 357 358 359
f 359 358 360
f 359 360 361
f 361 360 362
f 361 362 363
f 363 362 364
f 363 364 365
f 365 364 366
f 365 366 367
f 367 366 368
f 367 368 369
f 369 368 370
f 369 370 371
f 371 370 372
f 371 372 373
f 373 372 374
f 373 374 375
f 375 374 376
f 375 376 377
f 377 376 378
f 377 378 379
f 379 378 380
f 379 380 381
f 381 380 382
f 381 382 383
f 383 382 384
f 383 384 385
f 385 384 386
f 385 386 387
f 387 386 388
f 387 388 389
f 389 388 390
f 389 390 391
f 391 390 392
f 391 392 393
f 393 392 394
f 393 394 395
f 395 394 396
f 395 396 397
f 397 396 398
f 397 398 399
f 399 398 400
f 399 400 401
f 401 400 402
f 401 402 403
f 403 402 404
f 403 404 405
f 405 404 406
f 405 406 407
f 407 406 408
f 407 408 409
f 409 408 410
f 409 410 411
f 411 410 412
f 411 412 413
f 413 412 414
f 413 414 415
f 415 414 416
f 415 416 417
f 417 416 418
f 417 418 419
f 419 418 420
f 419 420 421
f 421 420 422
f 421 422 423
f 423 422 424
f 423 424 425
f 425 424 426
f 425 426 427
f 427 426 428
f 427 428 429
f 429 428 430
f 429 430 431
f 431 430 432
f 431 432 433
f 433 432 434
f 433 434 435
f 435 434 436
f 435 436 437
f 437 436 438
f 437 438 439
f 439 438 440
f 439 440 441
f 441 440 442
f 441 442 443
f 443 442 444
f 443 444 445
f 445 444 446
f 445 446 447
f 447 446 448
f 447 448 449
f 449 448 450
f 449 450 451
f 451 450 452
f 451 452 453
f 453 452 454
f 453 454 455
f 455 454 456
f 455 456 457
f 457 456 458
f 457 458 459
f 459 458 460
f 459 460 461
f 461 460 462
f 461 462 463
f 463 462 464
f 463 464 465
f 465 464 466
f 465 466 467
f 467 466 468
f 467 468 469
f 469 468 470
f 469 470 471
f 471 470 472
f 471 472 473
f 473 472 474
f 473 474 475
f 475 474 476
f 475 476 477
f 477 476 478
f 477 478 479
f 479 478 480
f 479 480 481
f 481 480 482
f 481 482 483
f 483 482 484
f 483 484 485
f 485 484 486
f 485 486 487
f 487 486 488
f 487 488 489
f 489 488 490
f 489 490 491
f 491 490 492
f 491 492 493
f 493 492 494
f 493 494 495
f 495 494 496
f 495 496 316
f 316 496 314
f 497 498 499
f 497 500 498
f 497 499 500
f 500 499 501
f 502 503 504
f 505 503 502
f 502 504 506
f 505 507 503
f 508 507 505
f 508 509 507
f 510 509 508
f 510 511 509
f 512 511 510
f 512 513 511
f 514 513 512
f 514 515 513
f 516 515 514
f 516 517 515
f 518 517 516
f 519 517 518
f 519 520 517
f 521 520 519
f 522 520 521
f 522 523 520
f 524 523 522
f 525 523 524
f 525 526 523
f 527 526 525
f 528 526 527
f 528 529 526
f 530 529 528
f 530 531 529
f 531 532 529
f 533 532 531
f 533 534 532
f 535 534 533
f 535 536 534
f 537 536 535
f 537 538 536
f 539 538 537
f 539 540 538
f 541 540 539
f 541 542 540
f 543 542 541
f 543 544 542
f 545 544 543
f 545 546 544
f 547 546 545
f 547 548 546
f 549 548 547
f 549 550 548
f 551 550 549
f 551 552 550
f 553 552 551
f 553 554 552
f 555 554 553
f 555 556 554
f 557 556 555
f 557 558 556
f 559 558 557
f 559 560 558
f 561 560 559
f 561 562 560
f 563 562 561
f 563 564 562
f 565 564 563
f 565 566 564
f 567 566 565
f 567 568 566
f 569 568 567
f 569 570 568
f 571 570 569
f 571 572 570
f 573 572 571
f 573 574 572
f 575 574 573
f 575 576 574
f 577 576 575
f 577 578 576
f 579 578 577
f 579 580 578
f 581 580 579
f 581 582 580
f 583 582 581
f 583 584 582
f 585 584 583
f 585 586 584
f 587 586 585
f 587 588 586
f 589 588 587
f 589 590 588
f 591 590 589
f 591 592 590
f 593 592 591
f 593 594 592
f 595 594 593
f 595 596 594
f 597 596 595
f 597 598 596
f 599 598 597
f 599 600 598
f 601 600 599
f 601 602 600
f 603 602 601
f 603 604 602
f 605 604 603
f 605 606 604
f 607 606 605
f 607 608 606
f 609 608 607
f 609 610 608
f 611 610 609
f 611 612 610
f 613 612 611
f 613 614 612
f 615 614 613
f 615 616 614
f 617 616 615
f 617 618 616
f 619 618 617
f 619 620 618
f 621 620 619
f 621 622 620
f 623 622 621
f 623 624 622
f 625 624 623
f 625 626 624
f 627 626 625
f 627 628 626
f 629 628 627
f 629 630 628
f 631 630 629
f 631 632 630
f 633 632 631
f 633 634 632
f 635 634 633
f 635 636 634
f 637 636 635
f 637 638 636
f 639 638 637
f 639 640 638
f 641 640 639
f 641 642 640
f 643 642 641
f 643 644 642
f 645 644 643
f 645 646 644
f 647 646 645
f 647 648 646
f 649 648 647
f 649 650 648
f 651 650 649
f 651 652 650
f 653 652 651
f 653 654 652
f 655 654 653
f 655 656 654
f 657 656 655
f 657 658 656
f 659 658 657
f 659 660 658
f 661 660 659
f 661 662 660
f 663 662 661
f 663 664 662
f 665 664 663
f 665 666 664
f 667 666 665
f 667 668 666
f 669 668 667
f 669 670 668
f 671 670 669
f 671 672 670
f 673 672 671
f 673 674 672
f 675 674 673
f 675 676 674
f 677 676 675
f 677 678 676
f 679 678 677
f 679 680 678
f 681 680 679
f 681 682 680
f 683 682 681
f 683 684 682
f 685 684 683
f 685 686 684
f 687 686 685
f 687 688 686
f 689 688 687
f 689 690 688
f 691 690 689
f 691 692 690
f 693 692 691
f 693 694 692
f 695 694 693
f 695 696 694
f 697 696 695
f 697 698 696
f 699 698 697
f 699 700 698
f 701 700 699
f 701 702 700
f 703 702 701
f 703 704 702
f 705 704 703
f 705 706 704
f 707 706 705
f 707 708 706
f 709 708 707
f 709 710 708
f 711 710 709
f 711 712 710
f 713 712 711
f 713 714 712
f 715 714 713
f 715 716 714
f 717 716 715
f 717 718 716
f 719 718 717
f 719 720 718
f 721 720 719
f 721 722 720
f 723 722 721
f 723 724 722
f 725 724 723
f 725 726 724
f 727 726 725
f 727 728 726
f 729 728 727
f 729 730 728
f 731 730 729
f 731 732 730
f 733 732 731
f 733 734 732
f 735 734 733
f 735 736 734
f 737 736 735
f 737 738 736
f 739 738 737
f 739 740 738
f 741 740 739
f 741 742 740
f 743 742 741
f 743 744 742
f 745 744 743
f 745 746 744
f 747 746 745
f 747 748 746
f 749 748 747
f 749 750 748
f 751 750 749
f 751 752 750
f 753 752 751
f 753 754 752
f 755 754 753
f 755 756 754
f 757 756 755
f 757 758 756
f 759 758 757
f 759 760 758
f 761 760 759
f 761 762 760
f 763 762 761
f 763 764 762
f 765 764 763
f 765 766 764
f 767 766 765
f 767 768 766
f 769 768 767
f 769 770 768
f 771 770 769
f 771 772 770
f 773 772 771
f 773 774 772
f 775 774 773
f 775 776 774
f 777 776 775
f 777 778 776
f 779 778 777
f 779 780 778
f 781 780 779
f 781 782 780
f 783 782 781
f 783 784 782
f 785 784 783
f 785 786 784
f 787 786 785
f 787 788 786
f 789 788 787
f 789 790 788
f 791 790 789
f 791 792 790
f 793 792 791
f 793 794 792
f 795 794 793
f 795 796 794
f 797 796 795
f 797 798 796
f 799 798 797
f 799 800 798
f 801 800 799
f 801 802 800
f 803 802 801
f 803 804 802
f 805 804 803
f 805 806 804
f 807 806 805
f 807 808 806
f 809 808 807
f 809 810 808
f 811 810 809
f 811 812 810
f 813 812 811
f 813 814 812
f 815 814 813
f 815 816 814
f 817 816 815
f 817 818 816
f 819 818 817
f 819 820 818
f 821 820 819
f 821 822 820
f 823 822 821
f 823 824 822
f 825 824 823
f 825 826 824
f 827 826 825
f 827 828 826
f 829 828 827
f 829 830 828
f 831 830 829
f 831 832 830
f 833 832 831
f 833 834 832
f 835 834 833
f 835 836 834
f 837 836 835
f 837 838 836
f 839 838 837
f 839 840 838
f 841 840 839
f 841 842 840
f 843 842 841
f 843 844 842
f 845 844 843
f 845 846 844
f 847 846 845
f 847 848 846
f 849 848 847
f 849 850 848
f 851 850 849
f 851 852 850
f 853 852 851
f 853 854 852
f 855 854 853
f 855 856 854
f 857 856 855
f 857 858 856
f 859 858 857
f 859 860 858
f 861 860 859
f 861 862 860
f 863 862 861
f 863 864 862
f 865 864 863
f 865 866 864
f 867 866 865
f 867 868 866
f 869 868 867
f 869 870 868
f 871 870 869
f 871 872 870
f 873 872 871
f 873 874 872
f 875 874 873
f 875 876 874
f 877 876 875
f 877 878 876
f 879 878 877
f 879 880 878
f 881 880 879
f 881 882 880
f 883 882 881
f 883 884 882
f 885 884 883
f 885 886 884
f 887 886 885
f 887 888 886
f 889 888 887
f 889 890 888
f 891 890 889
f 891 892 890
f 893 892 891
f 893 894 892
f 895 894 893
f 895 896 894
f 897 896 895
f 897 898 896
f 899 898 897
f 899 900 898
f 901 900 899
f 901 902 900
f 903 902 901
f 903 904 902
f 905 904 903
f 905 906 904
f 907 906 905
f 907 908 906
f 909 908 907
f 909 910 908
f 911 910 909
f 911 912 910
f 913 912 911
f 913 914 912
f 915 914 913
f 915 916 914
f 917 916 915
f 917 918 916
f 919 918 917
f 919 920 918
f 921 920 919
f 921 922 920
f 923 922 921
f 923 924 922
f 925 924 923
f 925 926 924
f 927 926 925
f 927 928 926
f 929 928 927
f 929 930 928
f 931 930 929
f 931 932 930
f 933 932 931
f 933 934 932
f 935 934 933
f 935 936 934
f 937 936 935
f 937 938 936
f 939 938 937
f 939 940 938
f 941 940 939
f 941 942 940
f 943 944 945
f 943 945 946
f 947 948 949
f 950 947 949
f 950 951 947
f 950 949 951
f 952 953 954
f 952 955 953
f 956 952 954
f 957 956 954
f 957 958 956
f 957 954 959
f 957 959 960
f 957 960 961
f 957 961 962
f 957 962 963
f 957 963 964
f 957 964 965
f 957 965 966
f 957 966 967
f 957 967 968
f 957 968 969
f 957 969 970
f 971 957 970
f 971 970 972
f 971 972 973
f 971 973 974
f 971 974 975
f 971 975 976
f 971 976 977
f 971 977 978
f 971 978 979
f 980 971 979
f 980 979 981
f 980 981 982
f 980 982 983
f 980 983 984
f 980 984 985
f 980 985 986
f 980 986 987
f 980 987 988
f 989 980 988
f 989 988 990
f 989 990 991
f 989 991 992
f 989 992 993
f 989 993 994
f 989 994 995
f 989 995 996
f 989 996 997
f 989 997 998
f 989 998 999
f 1000 989 999
f 1000 999 1001
f 1000 1001 1002
f 1000 1002 1003
f 1000 1003 1004
f 1000 1004 1005
f 1000 1005 1006
f 1000 1006 1007
f 1000 1007 1008
f 1000 1008 1009
f 1009 1008 1010
f 1011 1000 1009
f 1011 1009 1012
f 1013 1011 1012
f 1013 1012 1014
f 1015 1013 1014
f 1015 1014 1016
f 1017 1015 1016
f 1017 1016 1018
f 1019 1017 1018
f 1019 1018 1020
f 1021 1019 1020
f 1021 1020 1022
f 1023 1021 1022
f 1023 1022 1024
f 1025 1023 1024
f 1025 1024 1026
f 1027 1025 1026
f 1027 1026 1028
f 1029 1027 1028
f 1029 1028 1030
f 1031 1029 1030
f 1031 1030 1032
f 1033 1031 1032
f 1033 1032 1034
f 1035 1033 1034
f 1035 1034 1036
f 1037 1035 1036
f 1037 1036 1038
f 1039 1037 1038
f 1039 1038 1040
f 1041 1039 1040
f 1041 1040 1042
f 1043 1041 1042
f 1043 1042 1044
f 1045 1043 1044
f 1045 1044 1046
f 1047 1045 1046
f 1047 1046 1048
f 1049 1047 1048
f 1049 1048 1050
f 1051 1049 1050
f 1051 1050 1052
f 1053 1051 1052
f 1053 1052 1054
f 1055 1053 1054
f 1055 1054 1056
f 1057 1055 1056
f 1057 1056 1058
f 1059 1057 1058
f 1059 1058 1060
f 1061 1059 1060
f 1061 1060 1062
f 1063 1061 1062
f 1063 1062 1064
f 1065 1063 1064
f 1065 1064 1066
f 1067 1065 1066
f 1067 1066 1068
f 1069 1067 1068
f 1069 1068 1070
f 1071 1069 1070
f 1071 1070 1072
f 1073 1071 1072
f 1073 1072 1074
f 1075 1073 1074
f 1075 1074 1076
f 1077 1075 1076
f 1077 1076 1078
f 1079 1077 1078
f 1079 1078 1080
f 1081 1079 1080
f 1081 1082 1079
f 1081 1080 1083
f 1081 1083 1084
f 1081 1084 1085
f 1081 1085 1086
f 1081 1086 1087
f 1081 1087 1088
f 1081 1088 1089
f 1081 1089 1090
f 1081 1090 1091
f 1081 1091 1092
f 1081 1092 1093
f 1081 1093 1094
f 1081 1094 1095
f 1081 1095 1096
f 1081 1096 1097
f 1098 1081 1097
f 1098 1099 1081
f 1099 1100 1081
f 1100 1101 1081
f 1101 1102 1081
f 1102 1103 1081
f 1103 1104 1081
f 1104 1105 1081
f 1105 1106 1081
f 1106 1107 1081
f 1107 1108 1081
f 1108 1109 1081
f 1109 1110 1081
f 1110 1111 1081
f 1111 1112 1081
f 1112 1113 1081
f 1112 1114 1113
f 1082 1115 1079
f 1082 1116 1115
f 1116 1117 1115
f 1116 1118 1117
f 1116 1119 1118
f 1116 1120 1119
f 1116 1121 1120
f 1116 1122 1121
f 1116 1123 1122
f 1116 1124 1123
f 1116 1125 1124
f 1116 1126 1125
f 1116 1127 1126
f 1116 1128 1127
f 1116 1129 1128
f 1116 1130 1129
f 1116 1131 1130
f 1116 1132 1131
f 1116 1133 1132
f 1116 1134 1133
f 1116 1135 1134
f 1116 1136 1135
f 1116 1137 1136
f 1116 1138 1137
f 1116 1139 1138
f 1116 1140 1139
f 1116 1141 1140
f 1116 1142 1141
f 1009 1010 1143
f 1009 1143 1144
f 1009 1144 1145
f 1009 1145 1146
f 1009 1146 1147
f 1009 1147 1148
f 1149 1009 1148
f 1149 1148 1150
f 1149 1150 1151
f 1149 1151 1152
f 1149 1152 1153
f 1149 1153 1154
f 1149 1154 1155
f 1149 1155 1156
f 1149 1156 1157
f 1149 1157 1158
f 1149 1158 1159
f 1160 1149 1159
f 1160 1159 1161
f 1160 1161 1162
f 1160 1162 1163
f 1160 1163 1164
f 1160 1164 1165
f 1160 1165 1166
f 1160 1166 1167
f 1160 1167 1168
f 1169 1160 1168
f 1169 1168 1170
f 1169 1170 1171
f 1169 1171 1172
f 1169 1172 1173
f 1169 1173 1174
f 1169 1174 1175
f 1169 1175 1176
f 1169 1176 1177
f 952 1169 1177
f 952 1177 1178
f 952 1178 1179
f 952 1179 1180
f 952 1180 1181
f 952 1181 1182
f 952 1182 1183
f 952 1183 1184
f 952 1184 1185
f 952 1185 1186
f 952 1186 1187
f 952 1187 955
f 958 1188 956
f 958 1189 1188
f 1189 1190 1188
f 1189 1191 1190
f 1191 1192 1190
f 1191 1193 1192
f 1193 1194 1192
f 1193 1195 1194
f 1195 1196 1194
f 1195 1197 1196
f 1197 1198 1196
f 1197 1199 1198
f 1199 1200 1198
f 1199 1201 1200
f 1201 1202 1200
f 1201 1203 1202
f 1203 1204 1202
f 1203 1205 1204
f 1205 1206 1204
f 1205 1207 1206
f 1207 1208 1206
f 1207 1209 1208
f 1209 1210 1208
f 1209 1211 1210
f 1211 1212 1210
f 1211 1213 1212
f 1213 1214 1212
f 1213 1215 1214
f 1215 1216 1214
f 1215 1217 1216
f 1217 1218 1216
f 1217 1219 1218
f 1219 1220 1218
f 1219 1221 1220
f 1221 1222 1220
f 1221 1223 1222
f 1223 1224 1222
f 1223 1225 1224
f 1225 1226 1224
f 1225 1227 1226
f 1227 1228 1226
f 1227 1229 1228
f 1229 1230 1228
f 1229 1231 1230
f 1231 1232 1230
f 1231 1233 1232
f 1233 1234 1232
f 1233 1235 1234
f 1235 1236 1234
f 1235 1237 1236
f 1237 1238 1236
f 1237 1239 1238
f 1239 1240 1238
f 1239 1241 1240
f 1241 1242 1240
f 1241 1243 1242
f 1243 1244 1242
f 1243 1245 1244
f 1245 1246 1244
f 1245 1247 1246
f 1247 1248 1246
f 1247 1249 1248
f 1249 1250 1248
f 1249 1251 1250
f 1251 1252 1250
f 1251 1253 1252
f 1253 1254 1252
f 1253 1255 1254
f 1255 1256 1254
f 1255 1257 1256
f 1257 1258 1256
f 1257 1259 1258
f 1259 1260 1258
f 1259 1261 1260
f 1261 1262 1260
f 1261 1263 1262
f 1263 1264 1262
f 1263 1265 1264
f 1265 1266 1264
f 1265 1267 1266
f 1267 1268 1266
