1444 1432 0
v 0.134192505 -0.115022595 -0.001875
v 0.127701705 -0.11472384 -0.001875
v 0.12778116 -0.1141875 -0.001875
v 0.12748398 -0.11519844 -0.001875
v 0.127701705 -0.11365116 -0.001875
v 0.12748398 -0.113176575 -0.001875
v 0.12713244 -0.11276937 -0.001875
v 0.13575645 -0.11254314 -0.001875
v 0.126683745 -0.112483245 -0.001875
v 0.126175575 -0.112332585 -0.001875
v 0.117181125 -0.11138487 -0.001875
v 0.13735062 -0.110077275 -0.001875
v 0.12563673 -0.112332585 -0.001875
v 0.12512856 -0.112483245 -0.001875
v 0.124679865 -0.11276937 -0.001875
v 0.124328325 -0.113176575 -0.001875
v 0.1241106 -0.11365116 -0.001875
v 0.12403116 -0.1141875 -0.001875
v 0.1241106 -0.11472384 -0.001875
v 0.1142052 -0.11518932 -0.001875
v 0.124328325 -0.11519844 -0.001875
v 0.124679865 -0.115605645 -0.001875
v 0.12512856 -0.11589177 -0.001875
v 0.12563673 -0.116042415 -0.001875
v 0.132658785 -0.117515655 -0.001875
v 0.126175575 -0.116042415 -0.001875
v 0.111297585 -0.119037765 -0.001875
v 0.13115529 -0.12002247 -0.001875
v 0.110789985 -0.11972772 -0.001875
v 0.110565165 -0.120096795 -0.001875
v 0.129682035 -0.122542995 -0.001875
v 0.11035638 -0.12048375 -0.001875
v 0.11016378 -0.12088854 -0.001875
v 0.109999965 -0.121304175 -0.001875
v 0.10987512 -0.121726935 -0.001875
v 0.109784805 -0.122161875 -0.001875
v 0.10970118 -0.12302943 -0.001875
v 0.128238975 -0.125076885 -0.001875
v 0.109751325 -0.123880125 -0.001875
v 0.10987461 -0.124678815 -0.001875
v 0.118784115 -0.12538503 -0.001875
v 0.126826065 -0.127623795 -0.001875
v 0.11824527 -0.12538503 -0.001875
v 0.110067945 -0.12542334 -0.001875
v 0.1177371 -0.125535675 -0.001875
v 0.117288405 -0.125821815 -0.001875
v 0.11693688 -0.12622902 -0.001875
v 0.11671914 -0.126703605 -0.001875
v 0.1166397 -0.127239945 -0.001875
v 0.11671914 -0.127776285 -0.001875
v 0.11693688 -0.12825087 -0.001875
v 0.11100243 -0.1286373 -0.001875
v 0.117288405 -0.12865809 -0.001875
v 0.1177371 -0.1289442 -0.001875
v 0.11824527 -0.12909486 -0.001875
v 0.12544332 -0.130183695 -0.001875
v 0.118784115 -0.12909486 -0.001875
v 0.11209308 -0.13179552 -0.001875
v 0.124090755 -0.13275675 -0.001875
v 0.11333991 -0.13489797 -0.001875
v 0.12276834 -0.13534293 -0.001875
v 0.12147612 -0.13794228 -0.001875
v 0.11474292 -0.137944695 -0.001875
v 0.12137394 -0.138150315 -0.001875
v 0.114844245 -0.13814961 -0.001875
v 0.114950475 -0.13835961 -0.001875
v 0.121265955 -0.138366915 -0.001875
v 0.11506845 -0.138584145 -0.001875
v 0.121144275 -0.138602895 -0.001875
v 0.11520462 -0.138829515 -0.001875
v 0.12100119 -0.13886424 -0.001875
v 0.11536236 -0.139092225 -0.001875
v 0.120832305 -0.139146255 -0.001875
v 0.115545885 -0.139366665 -0.001875
v 0.120632145 -0.13944354 -0.001875
v 0.11576517 -0.139654005 -0.001875
v 0.120387855 -0.139757595 -0.001875
v 0.116035365 -0.13995834 -0.001875
v 0.120080685 -0.140090745 -0.001875
v 0.11637615 -0.140279175 -0.001875
v 0.11968548 -0.14043423 -0.001875
v 0.116812845 -0.140596245 -0.001875
v 0.119179605 -0.14074425 -0.001875
v 0.11735055 -0.14085267 -0.001875
v 0.11888877 -0.14086407 -0.001875
v 0.118583985 -0.14094501 -0.001875
v 0.117956835 -0.140982495 -0.001875
v 0.118270305 -0.140986875 -0.001875
v 0.119292285 -0.1289442 -0.001875
v 0.119740995 -0.12865809 -0.001875
v 0.120092505 -0.12825087 -0.001875
v 0.120310245 -0.127776285 -0.001875
v 0.1203897 -0.127239945 -0.001875
v 0.120310245 -0.126703605 -0.001875
v 0.120092505 -0.12622902 -0.001875
v 0.119740995 -0.125821815 -0.001875
v 0.119292285 -0.125535675 -0.001875
v 0.126683745 -0.11589177 -0.001875
v 0.12713244 -0.115605645 -0.001875
v 0.120225 -0.107625 -0.001875
v 0.138975 -0.107625 -0.001875
v 0.122530695 -0.10492959 -0.001875
v 0.14006547 -0.105995565 -0.001875
v 0.141144915 -0.10437612 -0.001875
v 0.12480723 -0.10226115 -0.001875
v 0.14221335 -0.102766665 -0.001875
v 0.143270775 -0.101167215 -0.001875
v 0.127054605 -0.09961971 -0.001875
v 0.14431719 -0.09957774 -0.001875
v 0.12927285 -0.097005255 -0.001875
v 0.14535258 -0.09799827 -0.001875
v 0.146376975 -0.09642879 -0.001875
v 0.13146195 -0.0944178 -0.001875
v 0.147390345 -0.094869315 -0.001875
v 0.14839272 -0.09331983 -0.001875
v 0.133621875 -0.09185733 -0.001875
v 0.14938407 -0.09178032 -0.001875
v 0.13575267 -0.089323845 -0.001875
v 0.150364395 -0.090250815 -0.001875
v 0.151333725 -0.0887313 -0.001875
v 0.13785594 -0.086818695 -0.001875
v 0.15229194 -0.087221925 -0.001875
v 0.153238665 -0.08572323 -0.001875
v 0.139939545 -0.08434821 -0.001875
v 0.15417399 -0.08423511 -0.001875
v 0.14199966 -0.08190933 -0.001875
v 0.15509805 -0.082757325 -0.001875
v 0.1563129 -0.08080266 -0.001875
v 0.14403063 -0.079497435 -0.001875
v 0.157508385 -0.078865485 -0.001875
v 0.14602677 -0.07710792 -0.001875
v 0.158684835 -0.076945245 -0.001875
v 0.147982425 -0.07473618 -0.001875
v 0.159842625 -0.07504143 -0.001875
v 0.1609821 -0.073153515 -0.001875
v 0.149891895 -0.07237761 -0.001875
v 0.162103635 -0.07128099 -0.001875
v 0.151749525 -0.07002762 -0.001875
v 0.16320747 -0.06942348 -0.001875
v 0.153560565 -0.06768981 -0.001875
v 0.164292465 -0.067582725 -0.001875
v 0.15533229 -0.065369865 -0.001875
v 0.1653585 -0.065758935 -0.001875
v 0.166405815 -0.063951645 -0.001875
v 0.157062 -0.06306618 -0.001875
v 0.167434755 -0.062160405 -0.001875
v 0.158747055 -0.06077718 -0.001875
v 0.16844559 -0.060384705 -0.001875
v 0.160384755 -0.05850126 -0.001875
v 0.169438605 -0.058624095 -0.001875
v 0.170414085 -0.056878095 -0.001875
v 0.161972445 -0.056236875 -0.001875
v 0.171372345 -0.055146255 -0.001875
v 0.16350747 -0.05398242 -0.001875
v 0.172313655 -0.053428065 -0.001875
v 0.16498803 -0.051736845 -0.001875
v 0.17323755 -0.05172447 -0.001875
v 0.166417815 -0.04950231 -0.001875
v 0.17414343 -0.050036415 -0.001875
v 0.175031535 -0.048363465 -0.001875
v 0.16779756 -0.047279295 -0.001875
v 0.175902045 -0.046705245 -0.001875
v 0.169127325 -0.0450678 -0.001875
v 0.1767552 -0.04506132 -0.001875
v 0.170407065 -0.042867825 -0.001875
v 0.17759118 -0.043431285 -0.001875
v 0.17841021 -0.041814735 -0.001875
v 0.171636795 -0.040679355 -0.001875
v 0.179212485 -0.04021125 -0.001875
v 0.17281653 -0.038502405 -0.001875
v 0.17999823 -0.03862041 -0.001875
v 0.1807674 -0.037042335 -0.001875
v 0.173946255 -0.03633696 -0.001875
v 0.181519485 -0.035478285 -0.001875
v 0.17470305 -0.03484425 -0.001875
v 0.182254515 -0.033928065 -0.001875
v 0.17544396 -0.03336384 -0.001875
v 0.18297261 -0.032391375 -0.001875
v 0.176169015 -0.031895745 -0.001875
v 0.183673815 -0.030867915 -0.001875
v 0.17687823 -0.03043995 -0.001875
v 0.18435828 -0.02935734 -0.001875
v 0.17757156 -0.02899647 -0.001875
v 0.18502608 -0.027859365 -0.001875
v 0.178249035 -0.02756529 -0.001875
v 0.185677305 -0.02637369 -0.001875
v 0.178910655 -0.026146425 -0.001875
v 0.18631206 -0.02489997 -0.001875
v 0.179556405 -0.024739875 -0.001875
v 0.186930435 -0.02343801 -0.001875
v 0.180186285 -0.023345655 -0.001875
v 0.18753231 -0.02198853 -0.001875
v 0.180800205 -0.021964125 -0.001875
v 0.181398195 -0.02059518 -0.001875
v 0.18811764 -0.020551725 -0.001875
v 0.1819803 -0.01923864 -0.001875
v 0.18868638 -0.019127445 -0.001875
v 0.182546565 -0.017894295 -0.001875
v 0.189238515 -0.017715555 -0.001875
v 0.18309705 -0.01656198 -0.001875
v 0.190035465 -0.01562067 -0.001875
v 0.1836318 -0.01524147 -0.001875
v 0.19079487 -0.013552905 -0.001875
v 0.18440451 -0.013282455 -0.001875
v 0.191516625 -0.011511825 -0.001875
v 0.185142075 -0.01134921 -0.001875
v 0.192200775 -0.00949719 -0.001875
v 0.185844315 -0.00944265 -0.001875
v 0.1865112 -0.00756264 -0.001875
v 0.1928478 -0.007509495 -0.001875
v 0.1871427 -0.005708895 -0.001875
v 0.193457385 -0.005548815 -0.001875
v 0.1877388 -0.00388113 -0.001875
v 0.194029155 -0.00361515 -0.001875
v 0.18829947 -0.00207903 -0.001875
v 0.194562795 -0.00170853 -0.001875
v 0.18882495 -0.000302415 -0.001875
v 0.195057915 0.00017103 -0.001875
v 0.18931551 0.001448505 -0.001875
v 0.195514365 0.00202365 -0.001875
v 0.189770715 0.00317358 -0.001875
v 0.19593288 0.00385011 -0.001875
v 0.190190085 0.0048726 -0.001875
v 0.196313325 0.005649945 -0.001875
v 0.1905732 0.006545415 -0.001875
v 0.19665531 0.00742248 -0.001875
v 0.190919565 0.00819186 -0.001875
v 0.196958475 0.00916701 -0.001875
v 0.19122966 0.00981279 -0.001875
v 0.197222385 0.010882845 -0.001875
v 0.1915038 0.011408265 -0.001875
v 0.197446725 0.012569385 -0.001875
v 0.191741595 0.012977385 -0.001875
v 0.19763148 0.01422879 -0.001875
v 0.191942655 0.01451925 -0.001875
v 0.19777695 0.015861 -0.001875
v 0.192106575 0.016032915 -0.001875
v 0.197883345 0.01746447 -0.001875
v 0.19223298 0.01751778 -0.001875
v 0.1923219 0.018976455 -0.001875
v 0.197950875 0.019037715 -0.001875
v 0.19237362 0.020408265 -0.001875
v 0.197979765 0.020579205 -0.001875
v 0.192388425 0.021811305 -0.001875
v 0.197970225 0.022087395 -0.001875
v 0.192366585 0.02318367 -0.001875
v 0.19792044 0.023564595 -0.001875
v 0.192308385 0.024523455 -0.001875
v 0.197829795 0.025012575 -0.001875
v 0.19221345 0.02582994 -0.001875
v 0.197700345 0.026429085 -0.001875
v 0.19208007 0.027106365 -0.001875
v 0.19753413 0.02781183 -0.001875
v 0.191909655 0.028351665 -0.001875
v 0.197333235 0.02915859 -0.001875
v 0.191703915 0.02956428 -0.001875
v 0.197099685 0.030467085 -0.001875
v 0.19146459 0.030742605 -0.001875
v 0.196832955 0.03173529 -0.001875
v 0.191193435 0.031885065 -0.001875
v 0.19652934 0.032963985 -0.001875
v 0.19089 0.0329895 -0.001875
v 0.19055217 0.034056105 -0.001875
v 0.19619073 0.034155615 -0.001875
v 0.190181085 0.035087925 -0.001875
v 0.195819165 0.03531264 -0.001875
v 0.189777945 0.036088095 -0.001875
v 0.195416775 0.036437535 -0.001875
v 0.188880315 0.03800571 -0.001875
v 0.194985645 0.037532775 -0.001875
v 0.194041095 0.03962805 -0.001875
v 0.1878693 0.03980262 -0.001875
v 0.18673212 0.041488965 -0.001875
v 0.1929789 0.04159074 -0.001875
v 0.185447265 0.04310196 -0.001875
v 0.19178934 0.04345485 -0.001875
v 0.184022865 0.04464213 -0.001875
v 0.19047135 0.045242925 -0.001875
v 0.18325539 0.045383055 -0.001875
v 0.1824462 0.046105845 -0.001875
v 0.18159168 0.046811475 -0.001875
v 0.1890324 0.04693968 -0.001875
v 0.180689925 0.047501265 -0.001875
v 0.17974461 0.04817586 -0.001875
v 0.18744333 0.04855884 -0.001875
v 0.178756065 0.048833235 -0.001875
v 0.186582675 0.04934451 -0.001875
v 0.17772426 0.04947129 -0.001875
v 0.176649135 0.05008788 -0.001875
v 0.185680965 0.05011566 -0.001875
v 0.17553069 0.050680875 -0.001875
v 0.18474084 0.05087073 -0.001875
v 0.17436768 0.0512511 -0.001875
v 0.18375987 0.05160801 -0.001875
v 0.17315961 0.05180079 -0.001875
v 0.182735595 0.052325865 -0.001875
v 0.17190828 0.052328655 -0.001875
v 0.17061546 0.052833375 -0.001875
v 0.18166557 0.0530226 -0.001875
v 0.16928292 0.05331366 -0.001875
v 0.180547365 0.05369655 -0.001875
v 0.167912325 0.05376825 -0.001875
v 0.16650165 0.054198 -0.001875
v 0.179379705 0.054349395 -0.001875
v 0.16505028 0.05460354 -0.001875
v 0.178164345 0.054984015 -0.001875
v 0.163559325 0.054984735 -0.001875
v 0.162029835 0.055341465 -0.001875
v 0.176902845 0.05559795 -0.001875
v 0.160462875 0.055673595 -0.001875
v 0.15885921 0.05598096 -0.001875
v 0.175596795 0.05618862 -0.001875
v 0.15721749 0.05626359 -0.001875
v 0.15553773 0.05652159 -0.001875
v 0.17424774 0.05675349 -0.001875
v 0.153820305 0.05675511 -0.001875
v 0.15206568 0.0569643 -0.001875
v 0.15027426 0.05714928 -0.001875
v 0.172857255 0.057290025 -0.001875
v 0.14844621 0.05731011 -0.001875
v 0.14658111 0.05744667 -0.001875
v 0.144678945 0.057558945 -0.001875
v 0.1427397 0.05764692 -0.001875
v 0.14076339 0.057710595 -0.001875
v 0.13875 0.05775 -0.001875
v 0.171425595 0.05779722 -0.001875
v 0.13875 0.06225 -0.001875
v 0.16994991 0.058278495 -0.001875
v 0.168431115 0.058733565 -0.001875
v 0.16687047 0.0591618 -0.001875
v 0.165269235 0.0595626 -0.001875
v 0.16362867 0.059935305 -0.001875
v 0.161949585 0.06027945 -0.001875
v 0.160229895 0.060595545 -0.001875
v 0.15846975 0.06088383 -0.001875
v 0.15666987 0.061144395 -0.001875
v 0.15483108 0.061377345 -0.001875
v 0.15295413 0.061582755 -0.001875
v 0.15103977 0.06176073 -0.001875
v 0.14908743 0.061911165 -0.001875
v 0.14709672 0.06203406 -0.001875
v 0.14506761 0.062129385 -0.001875
v 0.14300013 0.062197155 -0.001875
v 0.14089425 0.062237355 -0.001875
v 0.12778116 -0.1141875 0.001875
v 0.12778116 -0.1141875 -0.001875
v 0.127701705 -0.11472384 -0.001875
v 0.127701705 -0.11365116 0.001875
v 0.127701705 -0.11472384 0.001875
v 0.12748398 -0.11519844 -0.001875
v 0.12748398 -0.11519844 0.001875
v 0.12713244 -0.115605645 -0.001875
v 0.12713244 -0.115605645 0.001875
v 0.126683745 -0.11589177 -0.001875
v 0.126683745 -0.11589177 0.001875
v 0.126175575 -0.116042415 -0.001875
v 0.126175575 -0.116042415 0.001875
v 0.12563673 -0.116042415 -0.001875
v 0.12563673 -0.116042415 0.001875
v 0.12512856 -0.11589177 -0.001875
v 0.12512856 -0.11589177 0.001875
v 0.124679865 -0.115605645 -0.001875
v 0.124679865 -0.115605645 0.001875
v 0.124328325 -0.11519844 -0.001875
v 0.124328325 -0.11519844 0.001875
v 0.1241106 -0.11472384 -0.001875
v 0.1241106 -0.11472384 0.001875
v 0.12403116 -0.1141875 -0.001875
v 0.12403116 -0.1141875 0.001875
v 0.1241106 -0.11365116 -0.001875
v 0.1241106 -0.11365116 0.001875
v 0.124328325 -0.113176575 -0.001875
v 0.124328325 -0.113176575 0.001875
v 0.124679865 -0.11276937 -0.001875
v 0.124679865 -0.11276937 0.001875
v 0.12512856 -0.112483245 -0.001875
v 0.12512856 -0.112483245 0.001875
v 0.12563673 -0.112332585 -0.001875
v 0.12563673 -0.112332585 0.001875
v 0.126175575 -0.112332585 -0.001875
v 0.126175575 -0.112332585 0.001875
v 0.126683745 -0.112483245 -0.001875
v 0.126683745 -0.112483245 0.001875
v 0.12713244 -0.11276937 -0.001875
v 0.12713244 -0.11276937 0.001875
v 0.12748398 -0.113176575 -0.001875
v 0.12748398 -0.113176575 0.001875
v 0.127701705 -0.11365116 -0.001875
v 0.1203897 -0.127239945 0.001875
v 0.1203897 -0.127239945 -0.001875
v 0.120310245 -0.127776285 -0.001875
v 0.120310245 -0.126703605 0.001875
v 0.120310245 -0.127776285 0.001875
v 0.120092505 -0.12825087 -0.001875
v 0.120092505 -0.12825087 0.001875
v 0.119740995 -0.12865809 -0.001875
v 0.119740995 -0.12865809 0.001875
v 0.119292285 -0.1289442 -0.001875
v 0.119292285 -0.1289442 0.001875
v 0.118784115 -0.12909486 -0.001875
v 0.118784115 -0.12909486 0.001875
v 0.11824527 -0.12909486 -0.001875
v 0.11824527 -0.12909486 0.001875
v 0.1177371 -0.1289442 -0.001875
v 0.1177371 -0.1289442 0.001875
v 0.117288405 -0.12865809 -0.001875
v 0.117288405 -0.12865809 0.001875
v 0.11693688 -0.12825087 -0.001875
v 0.11693688 -0.12825087 0.001875
v 0.11671914 -0.127776285 -0.001875
v 0.11671914 -0.127776285 0.001875
v 0.1166397 -0.127239945 -0.001875
v 0.1166397 -0.127239945 0.001875
v 0.11671914 -0.126703605 -0.001875
v 0.11671914 -0.126703605 0.001875
v 0.11693688 -0.12622902 -0.001875
v 0.11693688 -0.12622902 0.001875
v 0.117288405 -0.125821815 -0.001875
v 0.117288405 -0.125821815 0.001875
v 0.1177371 -0.125535675 -0.001875
v 0.1177371 -0.125535675 0.001875
v 0.11824527 -0.12538503 -0.001875
v 0.11824527 -0.12538503 0.001875
v 0.118784115 -0.12538503 -0.001875
v 0.118784115 -0.12538503 0.001875
v 0.119292285 -0.125535675 -0.001875
v 0.119292285 -0.125535675 0.001875
v 0.119740995 -0.125821815 -0.001875
v 0.119740995 -0.125821815 0.001875
v 0.120092505 -0.12622902 -0.001875
v 0.120092505 -0.12622902 0.001875
v 0.120310245 -0.126703605 -0.001875
v 0.12147612 -0.13794228 0.001875
v 0.12147612 -0.13794228 -0.001875
v 0.12276834 -0.13534293 -0.001875
v 0.121374315 -0.138149535 0.001875
v 0.12276834 -0.13534293 0.001875
v 0.124090755 -0.13275675 -0.001875
v 0.124090755 -0.13275675 0.001875
v 0.12544332 -0.130183695 -0.001875
v 0.12544332 -0.130183695 0.001875
v 0.126826065 -0.127623795 -0.001875
v 0.126826065 -0.127623795 0.001875
v 0.128238975 -0.125076885 -0.001875
v 0.128238975 -0.125076885 0.001875
v 0.129682035 -0.122542995 -0.001875
v 0.129682035 -0.122542995 0.001875
v 0.13115529 -0.12002247 -0.001875
v 0.13115529 -0.12002247 0.001875
v 0.132658785 -0.117515655 -0.001875
v 0.132658785 -0.117515655 0.001875
v 0.134192505 -0.115022595 -0.001875
v 0.134192505 -0.115022595 0.001875
v 0.13575645 -0.11254314 -0.001875
v 0.13575645 -0.11254314 0.001875
v 0.13735062 -0.110077275 -0.001875
v 0.13735062 -0.110077275 0.001875
v 0.138975 -0.107625 -0.001875
v 0.138975 -0.107625 0.001875
v 0.14006547 -0.105995565 -0.001875
v 0.14006547 -0.105995565 0.001875
v 0.141144915 -0.10437612 -0.001875
v 0.141144915 -0.10437612 0.001875
v 0.14221335 -0.102766665 -0.001875
v 0.14221335 -0.102766665 0.001875
v 0.143270775 -0.101167215 -0.001875
v 0.143270775 -0.101167215 0.001875
v 0.14431719 -0.09957774 -0.001875
v 0.14431719 -0.09957774 0.001875
v 0.14535258 -0.09799827 -0.001875
v 0.14535258 -0.09799827 0.001875
v 0.146376975 -0.09642879 -0.001875
v 0.146376975 -0.09642879 0.001875
v 0.147390345 -0.094869315 -0.001875
v 0.147390345 -0.094869315 0.001875
v 0.14839272 -0.09331983 -0.001875
v 0.14839272 -0.09331983 0.001875
v 0.14938407 -0.09178032 -0.001875
v 0.14938407 -0.09178032 0.001875
v 0.150364395 -0.090250815 -0.001875
v 0.150364395 -0.090250815 0.001875
v 0.151333725 -0.0887313 -0.001875
v 0.151333725 -0.0887313 0.001875
v 0.15229194 -0.087221925 -0.001875
v 0.15229194 -0.087221925 0.001875
v 0.153238665 -0.08572323 -0.001875
v 0.153238665 -0.08572323 0.001875
v 0.15417399 -0.08423511 -0.001875
v 0.15417399 -0.08423511 0.001875
v 0.15509805 -0.082757325 -0.001875
v 0.15509805 -0.082757325 0.001875
v 0.1563129 -0.08080266 -0.001875
v 0.1563129 -0.08080266 0.001875
v 0.157508385 -0.078865485 -0.001875
v 0.157508385 -0.078865485 0.001875
v 0.158684835 -0.076945245 -0.001875
v 0.158684835 -0.076945245 0.001875
v 0.159842625 -0.07504143 -0.001875
v 0.159842625 -0.07504143 0.001875
v 0.1609821 -0.073153515 -0.001875
v 0.1609821 -0.073153515 0.001875
v 0.162103635 -0.07128099 -0.001875
v 0.162103635 -0.07128099 0.001875
v 0.16320747 -0.06942348 -0.001875
v 0.16320747 -0.06942348 0.001875
v 0.164292465 -0.067582725 -0.001875
v 0.164292465 -0.067582725 0.001875
v 0.1653585 -0.065758935 -0.001875
v 0.1653585 -0.065758935 0.001875
v 0.166405815 -0.063951645 -0.001875
v 0.166405815 -0.063951645 0.001875
v 0.167434755 -0.062160405 -0.001875
v 0.167434755 -0.062160405 0.001875
v 0.16844559 -0.060384705 -0.001875
v 0.16844559 -0.060384705 0.001875
v 0.169438605 -0.058624095 -0.001875
v 0.169438605 -0.058624095 0.001875
v 0.170414085 -0.056878095 -0.001875
v 0.170414085 -0.056878095 0.001875
v 0.171372345 -0.055146255 -0.001875
v 0.171372345 -0.055146255 0.001875
v 0.172313655 -0.053428065 -0.001875
v 0.172313655 -0.053428065 0.001875
v 0.17323755 -0.05172447 -0.001875
v 0.17323755 -0.05172447 0.001875
v 0.17414343 -0.050036415 -0.001875
v 0.17414343 -0.050036415 0.001875
v 0.175031535 -0.048363465 -0.001875
v 0.175031535 -0.048363465 0.001875
v 0.175902045 -0.046705245 -0.001875
v 0.175902045 -0.046705245 0.001875
v 0.1767552 -0.04506132 -0.001875
v 0.1767552 -0.04506132 0.001875
v 0.17759118 -0.043431285 -0.001875
v 0.17759118 -0.043431285 0.001875
v 0.17841021 -0.041814735 -0.001875
v 0.17841021 -0.041814735 0.001875
v 0.179212485 -0.04021125 -0.001875
v 0.179212485 -0.04021125 0.001875
v 0.17999823 -0.03862041 -0.001875
v 0.17999823 -0.03862041 0.001875
v 0.1807674 -0.037042335 -0.001875
v 0.1807674 -0.037042335 0.001875
v 0.181519485 -0.035478285 -0.001875
v 0.181519485 -0.035478285 0.001875
v 0.182254515 -0.033928065 -0.001875
v 0.182254515 -0.033928065 0.001875
v 0.18297261 -0.032391375 -0.001875
v 0.18297261 -0.032391375 0.001875
v 0.183673815 -0.030867915 -0.001875
v 0.183673815 -0.030867915 0.001875
v 0.18435828 -0.02935734 -0.001875
v 0.18435828 -0.02935734 0.001875
v 0.18502608 -0.027859365 -0.001875
v 0.18502608 -0.027859365 0.001875
v 0.185677305 -0.02637369 -0.001875
v 0.185677305 -0.02637369 0.001875
v 0.18631206 -0.02489997 -0.001875
v 0.18631206 -0.02489997 0.001875
v 0.186930435 -0.02343801 -0.001875
v 0.186930435 -0.02343801 0.001875
v 0.18753231 -0.02198853 -0.001875
v 0.18753231 -0.02198853 0.001875
v 0.18811764 -0.020551725 -0.001875
v 0.18811764 -0.020551725 0.001875
v 0.18868638 -0.019127445 -0.001875
v 0.18868638 -0.019127445 0.001875
v 0.189238515 -0.017715555 -0.001875
v 0.189238515 -0.017715555 0.001875
v 0.190035465 -0.01562067 -0.001875
v 0.190035465 -0.01562067 0.001875
v 0.19079487 -0.013552905 -0.001875
v 0.19079487 -0.013552905 0.001875
v 0.191516625 -0.011511825 -0.001875
v 0.191516625 -0.011511825 0.001875
v 0.192200775 -0.00949719 -0.001875
v 0.192200775 -0.00949719 0.001875
v 0.1928478 -0.007509495 -0.001875
v 0.1928478 -0.007509495 0.001875
v 0.193457385 -0.005548815 -0.001875
v 0.193457385 -0.005548815 0.001875
v 0.194029155 -0.00361515 -0.001875
v 0.194029155 -0.00361515 0.001875
v 0.194562795 -0.00170853 -0.001875
v 0.194562795 -0.00170853 0.001875
v 0.195057915 0.00017103 -0.001875
v 0.195057915 0.00017103 0.001875
v 0.195514365 0.00202365 -0.001875
v 0.195514365 0.00202365 0.001875
v 0.19593288 0.00385011 -0.001875
v 0.19593288 0.00385011 0.001875
v 0.196313325 0.005649945 -0.001875
v 0.196313325 0.005649945 0.001875
v 0.19665531 0.00742248 -0.001875
v 0.19665531 0.00742248 0.001875
v 0.196958475 0.00916701 -0.001875
v 0.196958475 0.00916701 0.001875
v 0.197222385 0.010882845 -0.001875
v 0.197222385 0.010882845 0.001875
v 0.197446725 0.012569385 -0.001875
v 0.197446725 0.012569385 0.001875
v 0.19763148 0.01422879 -0.001875
v 0.19763148 0.01422879 0.001875
v 0.19777695 0.015861 -0.001875
v 0.19777695 0.015861 0.001875
v 0.197883345 0.01746447 -0.001875
v 0.197883345 0.01746447 0.001875
v 0.197950875 0.019037715 -0.001875
v 0.197950875 0.019037715 0.001875
v 0.197979765 0.020579205 -0.001875
v 0.197979765 0.020579205 0.001875
v 0.197970225 0.022087395 -0.001875
v 0.197970225 0.022087395 0.001875
v 0.19792044 0.023564595 -0.001875
v 0.19792044 0.023564595 0.001875
v 0.197829795 0.025012575 -0.001875
v 0.197829795 0.025012575 0.001875
v 0.197700345 0.026429085 -0.001875
v 0.197700345 0.026429085 0.001875
v 0.19753413 0.02781183 -0.001875
v 0.19753413 0.02781183 0.001875
v 0.197333235 0.02915859 -0.001875
v 0.197333235 0.02915859 0.001875
v 0.197099685 0.030467085 -0.001875
v 0.197099685 0.030467085 0.001875
v 0.196832955 0.03173529 -0.001875
v 0.196832955 0.03173529 0.001875
v 0.19652934 0.032963985 -0.001875
v 0.19652934 0.032963985 0.001875
v 0.19619073 0.034155615 -0.001875
v 0.19619073 0.034155615 0.001875
v 0.195819165 0.03531264 -0.001875
v 0.195819165 0.03531264 0.001875
v 0.195416775 0.036437535 -0.001875
v 0.195416775 0.036437535 0.001875
v 0.194985645 0.037532775 -0.001875
v 0.194985645 0.037532775 0.001875
v 0.194041095 0.03962805 -0.001875
v 0.194041095 0.03962805 0.001875
v 0.1929789 0.04159074 -0.001875
v 0.1929789 0.04159074 0.001875
v 0.19178934 0.04345485 -0.001875
v 0.19178934 0.04345485 0.001875
v 0.19047135 0.045242925 -0.001875
v 0.19047135 0.045242925 0.001875
v 0.1890324 0.04693968 -0.001875
v 0.1890324 0.04693968 0.001875
v 0.18744333 0.04855884 -0.001875
v 0.18744333 0.04855884 0.001875
v 0.186582675 0.04934451 -0.001875
v 0.186582675 0.04934451 0.001875
v 0.185680965 0.05011566 -0.001875
v 0.185680965 0.05011566 0.001875
v 0.18474084 0.05087073 -0.001875
v 0.18474084 0.05087073 0.001875
v 0.18375987 0.05160801 -0.001875
v 0.18375987 0.05160801 0.001875
v 0.182735595 0.052325865 -0.001875
v 0.182735595 0.052325865 0.001875
v 0.18166557 0.0530226 -0.001875
v 0.18166557 0.0530226 0.001875
v 0.180547365 0.05369655 -0.001875
v 0.180547365 0.05369655 0.001875
v 0.179379705 0.054349395 -0.001875
v 0.179379705 0.054349395 0.001875
v 0.178164345 0.054984015 -0.001875
v 0.178164345 0.054984015 0.001875
v 0.176902845 0.05559795 -0.001875
v 0.176902845 0.05559795 0.001875
v 0.175596795 0.05618862 -0.001875
v 0.175596795 0.05618862 0.001875
v 0.17424774 0.05675349 -0.001875
v 0.17424774 0.05675349 0.001875
v 0.172857255 0.057290025 -0.001875
v 0.172857255 0.057290025 0.001875
v 0.171425595 0.05779722 -0.001875
v 0.171425595 0.05779722 0.001875
v 0.16994991 0.058278495 -0.001875
v 0.16994991 0.058278495 0.001875
v 0.168431115 0.058733565 -0.001875
v 0.168431115 0.058733565 0.001875
v 0.16687047 0.0591618 -0.001875
v 0.16687047 0.0591618 0.001875
v 0.165269235 0.0595626 -0.001875
v 0.165269235 0.0595626 0.001875
v 0.16362867 0.059935305 -0.001875
v 0.16362867 0.059935305 0.001875
v 0.161949585 0.06027945 -0.001875
v 0.161949585 0.06027945 0.001875
v 0.160229895 0.060595545 -0.001875
v 0.160229895 0.060595545 0.001875
v 0.15846975 0.06088383 -0.001875
v 0.15846975 0.06088383 0.001875
v 0.15666987 0.061144395 -0.001875
v 0.15666987 0.061144395 0.001875
v 0.15483108 0.061377345 -0.001875
v 0.15483108 0.061377345 0.001875
v 0.15295413 0.061582755 -0.001875
v 0.15295413 0.061582755 0.001875
v 0.15103977 0.06176073 -0.001875
v 0.15103977 0.06176073 0.001875
v 0.14908743 0.061911165 -0.001875
v 0.14908743 0.061911165 0.001875
v 0.14709672 0.06203406 -0.001875
v 0.14709672 0.06203406 0.001875
v 0.14506761 0.062129385 -0.001875
v 0.14506761 0.062129385 0.001875
v 0.14300013 0.062197155 -0.001875
v 0.14300013 0.062197155 0.001875
v 0.14089425 0.062237355 -0.001875
v 0.14089425 0.062237355 0.001875
v 0.13875 0.06225 -0.001875
v 0.13875 0.06225 0.001875
v 0.12137394 -0.138150315 -0.001875
v 0.12126819 -0.13836252 0.001875
v 0.121265955 -0.138366915 -0.001875
v 0.121150695 -0.138590805 0.001875
v 0.121144275 -0.138602895 -0.001875
v 0.12101493 -0.138840015 0.001875
v 0.12100119 -0.13886424 -0.001875
v 0.12085728 -0.139106415 0.001875
v 0.120832305 -0.139146255 -0.001875
v 0.12067383 -0.139384845 0.001875
v 0.120632145 -0.13944354 -0.001875
v 0.120454275 -0.139677015 0.001875
v 0.120387855 -0.139757595 -0.001875
v 0.120182595 -0.13998705 0.001875
v 0.120080685 -0.140090745 -0.001875
v 0.119837325 -0.1403133 0.001875
v 0.11968548 -0.14043423 -0.001875
v 0.119391195 -0.1406316 0.001875
v 0.119179605 -0.14074425 -0.001875
v 0.11884155 -0.140878695 0.001875
v 0.11888877 -0.14086407 -0.001875
v 0.118583985 -0.14094501 -0.001875
v 0.11853882 -0.1409544 0.001875
v 0.118270305 -0.140986875 -0.001875
v 0.11822763 -0.14098773 0.001875
v 0.117956835 -0.140982495 -0.001875
v 0.1179135 -0.140979705 0.001875
v 0.117601905 -0.14092623 0.001875
v 0.11735055 -0.14085267 -0.001875
v 0.11730102 -0.140835585 0.001875
v 0.11701581 -0.140709195 0.001875
v 0.116812845 -0.140596245 -0.001875
v 0.11652078 -0.140395515 0.001875
v 0.11637615 -0.140279175 -0.001875
v 0.116132535 -0.1400565 0.001875
v 0.116035365 -0.13995834 -0.001875
v 0.11582868 -0.13972998 0.001875
v 0.11576517 -0.139654005 -0.001875
v 0.115585935 -0.13942221 0.001875
v 0.115545885 -0.139366665 -0.001875
v 0.11538651 -0.139130235 0.001875
v 0.11536236 -0.139092225 -0.001875
v 0.115218015 -0.138852705 0.001875
v 0.11520462 -0.138829515 -0.001875
v 0.11507469 -0.138595725 0.001875
v 0.11506845 -0.138584145 -0.001875
v 0.114952605 -0.138363735 0.001875
v 0.114950475 -0.13835961 -0.001875
v 0.11484453 -0.138150195 0.001875
v 0.114844245 -0.13814961 -0.001875
v 0.11474292 -0.137944695 0.001875
v 0.11474292 -0.137944695 -0.001875
v 0.11333991 -0.13489797 0.001875
v 0.11333991 -0.13489797 -0.001875
v 0.11209308 -0.13179552 0.001875
v 0.11209308 -0.13179552 -0.001875
v 0.11100243 -0.1286373 0.001875
v 0.11100243 -0.1286373 -0.001875
v 0.110067945 -0.12542334 0.001875
v 0.110067945 -0.12542334 -0.001875
v 0.10989039 -0.12474522 0.001875
v 0.10987461 -0.124678815 -0.001875
v 0.109766565 -0.124008525 0.001875
v 0.109751325 -0.123880125 -0.001875
v 0.10969998 -0.12321339 0.001875
v 0.10970118 -0.12302943 -0.001875
v 0.109755255 -0.12235365 0.001875
v 0.109784805 -0.122161875 -0.001875
v 0.10983084 -0.121907415 0.001875
v 0.10987512 -0.121726935 -0.001875
v 0.10994925 -0.121464795 0.001875
v 0.109999965 -0.121304175 -0.001875
v 0.110114415 -0.121016115 0.001875
v 0.11016378 -0.12088854 -0.001875
v 0.11031291 -0.120573795 0.001875
v 0.11035638 -0.12048375 -0.001875
v 0.110529375 -0.12015609 0.001875
v 0.110565165 -0.120096795 -0.001875
v 0.11076363 -0.119763255 0.001875
v 0.110789985 -0.11972772 -0.001875
v 0.111019695 -0.119390475 0.001875
v 0.111297585 -0.119037765 0.001875
v 0.111297585 -0.119037765 -0.001875
v 0.1142052 -0.11518932 0.001875
v 0.1142052 -0.11518932 -0.001875
v 0.117181125 -0.11138487 0.001875
v 0.117181125 -0.11138487 -0.001875
v 0.120225 -0.107625 0.001875
v 0.120225 -0.107625 -0.001875
v 0.122530695 -0.10492959 0.001875
v 0.122530695 -0.10492959 -0.001875
v 0.12480723 -0.10226115 0.001875
v 0.12480723 -0.10226115 -0.001875
v 0.127054605 -0.09961971 0.001875
v 0.127054605 -0.09961971 -0.001875
v 0.12927285 -0.097005255 0.001875
v 0.12927285 -0.097005255 -0.001875
v 0.13146195 -0.0944178 0.001875
v 0.13146195 -0.0944178 -0.001875
v 0.133621875 -0.09185733 0.001875
v 0.133621875 -0.09185733 -0.001875
v 0.13575267 -0.089323845 0.001875
v 0.13575267 -0.089323845 -0.001875
v 0.13785594 -0.086818695 0.001875
v 0.13785594 -0.086818695 -0.001875
v 0.139939545 -0.08434821 0.001875
v 0.139939545 -0.08434821 -0.001875
v 0.14199966 -0.08190933 0.001875
v 0.14199966 -0.08190933 -0.001875
v 0.14403063 -0.079497435 0.001875
v 0.14403063 -0.079497435 -0.001875
v 0.14602677 -0.07710792 0.001875
v 0.14602677 -0.07710792 -0.001875
v 0.147982425 -0.07473618 0.001875
v 0.147982425 -0.07473618 -0.001875
v 0.149891895 -0.07237761 0.001875
v 0.149891895 -0.07237761 -0.001875
v 0.151749525 -0.07002762 0.001875
v 0.151749525 -0.07002762 -0.001875
v 0.153560565 -0.06768981 0.001875
v 0.153560565 -0.06768981 -0.001875
v 0.15533229 -0.065369865 0.001875
v 0.15533229 -0.065369865 -0.001875
v 0.157062 -0.06306618 0.001875
v 0.157062 -0.06306618 -0.001875
v 0.158747055 -0.06077718 0.001875
v 0.158747055 -0.06077718 -0.001875
v 0.160384755 -0.05850126 0.001875
v 0.160384755 -0.05850126 -0.001875
v 0.161972445 -0.056236875 0.001875
v 0.161972445 -0.056236875 -0.001875
v 0.16350747 -0.05398242 0.001875
v 0.16350747 -0.05398242 -0.001875
v 0.16498803 -0.051736845 0.001875
v 0.16498803 -0.051736845 -0.001875
v 0.166417815 -0.04950231 0.001875
v 0.166417815 -0.04950231 -0.001875
v 0.16779756 -0.047279295 0.001875
v 0.16779756 -0.047279295 -0.001875
v 0.169127325 -0.0450678 0.001875
v 0.169127325 -0.0450678 -0.001875
v 0.170407065 -0.042867825 0.001875
v 0.170407065 -0.042867825 -0.001875
v 0.171636795 -0.040679355 0.001875
v 0.171636795 -0.040679355 -0.001875
v 0.17281653 -0.038502405 0.001875
v 0.17281653 -0.038502405 -0.001875
v 0.173946255 -0.03633696 0.001875
v 0.173946255 -0.03633696 -0.001875
v 0.17470305 -0.03484425 0.001875
v 0.17470305 -0.03484425 -0.001875
v 0.17544396 -0.03336384 0.001875
v 0.17544396 -0.03336384 -0.001875
v 0.176169015 -0.031895745 0.001875
v 0.176169015 -0.031895745 -0.001875
v 0.17687823 -0.03043995 0.001875
v 0.17687823 -0.03043995 -0.001875
v 0.17757156 -0.02899647 0.001875
v 0.17757156 -0.02899647 -0.001875
v 0.178249035 -0.02756529 0.001875
v 0.178249035 -0.02756529 -0.001875
v 0.178910655 -0.026146425 0.001875
v 0.178910655 -0.026146425 -0.001875
v 0.179556405 -0.024739875 0.001875
v 0.179556405 -0.024739875 -0.001875
v 0.180186285 -0.023345655 0.001875
v 0.180186285 -0.023345655 -0.001875
v 0.180800205 -0.021964125 0.001875
v 0.180800205 -0.021964125 -0.001875
v 0.181398195 -0.02059518 0.001875
v 0.181398195 -0.02059518 -0.001875
v 0.1819803 -0.01923864 0.001875
v 0.1819803 -0.01923864 -0.001875
v 0.182546565 -0.017894295 0.001875
v 0.182546565 -0.017894295 -0.001875
v 0.18309705 -0.01656198 0.001875
v 0.18309705 -0.01656198 -0.001875
v 0.1836318 -0.01524147 0.001875
v 0.1836318 -0.01524147 -0.001875
v 0.18440451 -0.013282455 0.001875
v 0.18440451 -0.013282455 -0.001875
v 0.185142075 -0.01134921 0.001875
v 0.185142075 -0.01134921 -0.001875
v 0.185844315 -0.00944265 0.001875
v 0.185844315 -0.00944265 -0.001875
v 0.1865112 -0.00756264 0.001875
v 0.1865112 -0.00756264 -0.001875
v 0.1871427 -0.005708895 0.001875
v 0.1871427 -0.005708895 -0.001875
v 0.1877388 -0.00388113 0.001875
v 0.1877388 -0.00388113 -0.001875
v 0.18829947 -0.00207903 0.001875
v 0.18829947 -0.00207903 -0.001875
v 0.18882495 -0.000302415 0.001875
v 0.18882495 -0.000302415 -0.001875
v 0.18931551 0.001448505 0.001875
v 0.18931551 0.001448505 -0.001875
v 0.189770715 0.00317358 0.001875
v 0.189770715 0.00317358 -0.001875
v 0.190190085 0.0048726 0.001875
v 0.190190085 0.0048726 -0.001875
v 0.1905732 0.006545415 0.001875
v 0.1905732 0.006545415 -0.001875
v 0.190919565 0.00819186 0.001875
v 0.190919565 0.00819186 -0.001875
v 0.19122966 0.00981279 0.001875
v 0.19122966 0.00981279 -0.001875
v 0.1915038 0.011408265 0.001875
v 0.1915038 0.011408265 -0.001875
v 0.191741595 0.012977385 0.001875
v 0.191741595 0.012977385 -0.001875
v 0.191942655 0.01451925 0.001875
v 0.191942655 0.01451925 -0.001875
v 0.192106575 0.016032915 0.001875
v 0.192106575 0.016032915 -0.001875
v 0.19223298 0.01751778 0.001875
v 0.19223298 0.01751778 -0.001875
v 0.1923219 0.018976455 0.001875
v 0.1923219 0.018976455 -0.001875
v 0.19237362 0.020408265 0.001875
v 0.19237362 0.020408265 -0.001875
v 0.192388425 0.021811305 0.001875
v 0.192388425 0.021811305 -0.001875
v 0.192366585 0.02318367 0.001875
v 0.192366585 0.02318367 -0.001875
v 0.192308385 0.024523455 0.001875
v 0.192308385 0.024523455 -0.001875
v 0.19221345 0.02582994 0.001875
v 0.19221345 0.02582994 -0.001875
v 0.19208007 0.027106365 0.001875
v 0.19208007 0.027106365 -0.001875
v 0.191909655 0.028351665 0.001875
v 0.191909655 0.028351665 -0.001875
v 0.191703915 0.02956428 0.001875
v 0.191703915 0.02956428 -0.001875
v 0.19146459 0.030742605 0.001875
v 0.19146459 0.030742605 -0.001875
v 0.191193435 0.031885065 0.001875
v 0.191193435 0.031885065 -0.001875
v 0.19089 0.0329895 0.001875
v 0.19089 0.0329895 -0.001875
v 0.19055217 0.034056105 0.001875
v 0.19055217 0.034056105 -0.001875
v 0.190181085 0.035087925 0.001875
v 0.190181085 0.035087925 -0.001875
v 0.189777945 0.036088095 0.001875
v 0.189777945 0.036088095 -0.001875
v 0.188880315 0.03800571 0.001875
v 0.188880315 0.03800571 -0.001875
v 0.1878693 0.03980262 0.001875
v 0.1878693 0.03980262 -0.001875
v 0.18673212 0.041488965 0.001875
v 0.18673212 0.041488965 -0.001875
v 0.185447265 0.04310196 0.001875
v 0.185447265 0.04310196 -0.001875
v 0.184022865 0.04464213 0.001875
v 0.184022865 0.04464213 -0.001875
v 0.18325539 0.045383055 0.001875
v 0.18325539 0.045383055 -0.001875
v 0.1824462 0.046105845 0.001875
v 0.1824462 0.046105845 -0.001875
v 0.18159168 0.046811475 0.001875
v 0.18159168 0.046811475 -0.001875
v 0.180689925 0.047501265 0.001875
v 0.180689925 0.047501265 -0.001875
v 0.17974461 0.04817586 0.001875
v 0.17974461 0.04817586 -0.001875
v 0.178756065 0.048833235 0.001875
v 0.178756065 0.048833235 -0.001875
v 0.17772426 0.04947129 0.001875
v 0.17772426 0.04947129 -0.001875
v 0.176649135 0.05008788 0.001875
v 0.176649135 0.05008788 -0.001875
v 0.17553069 0.050680875 0.001875
v 0.17553069 0.050680875 -0.001875
v 0.17436768 0.0512511 0.001875
v 0.17436768 0.0512511 -0.001875
v 0.17315961 0.05180079 0.001875
v 0.17315961 0.05180079 -0.001875
v 0.17190828 0.052328655 0.001875
v 0.17190828 0.052328655 -0.001875
v 0.17061546 0.052833375 0.001875
v 0.17061546 0.052833375 -0.001875
v 0.16928292 0.05331366 0.001875
v 0.16928292 0.05331366 -0.001875
v 0.167912325 0.05376825 0.001875
v 0.167912325 0.05376825 -0.001875
v 0.16650165 0.054198 0.001875
v 0.16650165 0.054198 -0.001875
v 0.16505028 0.05460354 0.001875
v 0.16505028 0.05460354 -0.001875
v 0.163559325 0.054984735 0.001875
v 0.163559325 0.054984735 -0.001875
v 0.162029835 0.055341465 0.001875
v 0.162029835 0.055341465 -0.001875
v 0.160462875 0.055673595 0.001875
v 0.160462875 0.055673595 -0.001875
v 0.15885921 0.05598096 0.001875
v 0.15885921 0.05598096 -0.001875
v 0.15721749 0.05626359 0.001875
v 0.15721749 0.05626359 -0.001875
v 0.15553773 0.05652159 0.001875
v 0.15553773 0.05652159 -0.001875
v 0.153820305 0.05675511 0.001875
v 0.153820305 0.05675511 -0.001875
v 0.15206568 0.0569643 0.001875
v 0.15206568 0.0569643 -0.001875
v 0.15027426 0.05714928 0.001875
v 0.15027426 0.05714928 -0.001875
v 0.14844621 0.05731011 0.001875
v 0.14844621 0.05731011 -0.001875
v 0.14658111 0.05744667 0.001875
v 0.14658111 0.05744667 -0.001875
v 0.144678945 0.057558945 0.001875
v 0.144678945 0.057558945 -0.001875
v 0.1427397 0.05764692 0.001875
v 0.1427397 0.05764692 -0.001875
v 0.14076339 0.057710595 0.001875
v 0.14076339 0.057710595 -0.001875
v 0.13875 0.05775 0.001875
v 0.13875 0.05775 -0.001875
v 0.13875 0.060234375 -0.000405945
v 0.13875 0.06225 -0.001875
v 0.13875 0.05775 -0.001875
v 0.13875 0.060405945 -0.000234375
v 0.13875 0.06 -0.00046875
v 0.13875 0.059765625 -0.000405945
v 0.13875 0.059594055 -0.000234375
v 0.13875 0.05953125 0
v 0.13875 0.059594055 0.000234375
v 0.13875 0.05775 0.001875
v 0.13875 0.059765625 0.000405945
v 0.13875 0.06225 0.001875
v 0.13875 0.06 0.00046875
v 0.13875 0.060234375 0.000405945
v 0.13875 0.060405945 0.000234375
v 0.13875 0.06046875 0
v 0.13575645 -0.11254314 0.001875
v 0.127701705 -0.11365116 0.001875
v 0.12778116 -0.1141875 0.001875
v 0.12748398 -0.113176575 0.001875
v 0.127701705 -0.11472384 0.001875
v 0.134192505 -0.115022595 0.001875
v 0.12748398 -0.11519844 0.001875
v 0.12713244 -0.115605645 0.001875
v 0.126683745 -0.11589177 0.001875
v 0.126175575 -0.116042415 0.001875
v 0.132658785 -0.117515655 0.001875
v 0.111297585 -0.119037765 0.001875
v 0.12563673 -0.116042415 0.001875
v 0.111019695 -0.119390475 0.001875
v 0.11076363 -0.119763255 0.001875
v 0.13115529 -0.12002247 0.001875
v 0.110529375 -0.12015609 0.001875
v 0.11031291 -0.120573795 0.001875
v 0.110114415 -0.121016115 0.001875
v 0.10994925 -0.121464795 0.001875
v 0.10983084 -0.121907415 0.001875
v 0.109755255 -0.12235365 0.001875
v 0.129682035 -0.122542995 0.001875
v 0.10969998 -0.12321339 0.001875
v 0.109766565 -0.124008525 0.001875
v 0.10989039 -0.12474522 0.001875
v 0.128238975 -0.125076885 0.001875
v 0.110067945 -0.12542334 0.001875
v 0.11824527 -0.12538503 0.001875
v 0.1177371 -0.125535675 0.001875
v 0.118784115 -0.12538503 0.001875
v 0.119292285 -0.125535675 0.001875
v 0.119740995 -0.125821815 0.001875
v 0.120092505 -0.12622902 0.001875
v 0.120310245 -0.126703605 0.001875
v 0.1203897 -0.127239945 0.001875
v 0.126826065 -0.127623795 0.001875
v 0.120310245 -0.127776285 0.001875
v 0.120092505 -0.12825087 0.001875
v 0.119740995 -0.12865809 0.001875
v 0.119292285 -0.1289442 0.001875
v 0.118784115 -0.12909486 0.001875
v 0.12544332 -0.130183695 0.001875
v 0.11209308 -0.13179552 0.001875
v 0.11824527 -0.12909486 0.001875
v 0.124090755 -0.13275675 0.001875
v 0.11333991 -0.13489797 0.001875
v 0.12276834 -0.13534293 0.001875
v 0.11474292 -0.137944695 0.001875
v 0.12147612 -0.13794228 0.001875
v 0.121374315 -0.138149535 0.001875
v 0.11484453 -0.138150195 0.001875
v 0.12126819 -0.13836252 0.001875
v 0.114952605 -0.138363735 0.001875
v 0.121150695 -0.138590805 0.001875
v 0.11507469 -0.138595725 0.001875
v 0.12101493 -0.138840015 0.001875
v 0.115218015 -0.138852705 0.001875
v 0.12085728 -0.139106415 0.001875
v 0.11538651 -0.139130235 0.001875
v 0.12067383 -0.139384845 0.001875
v 0.115585935 -0.13942221 0.001875
v 0.120454275 -0.139677015 0.001875
v 0.11582868 -0.13972998 0.001875
v 0.120182595 -0.13998705 0.001875
v 0.116132535 -0.1400565 0.001875
v 0.119837325 -0.1403133 0.001875
v 0.11652078 -0.140395515 0.001875
v 0.119391195 -0.1406316 0.001875
v 0.11701581 -0.140709195 0.001875
v 0.11730102 -0.140835585 0.001875
v 0.11884155 -0.140878695 0.001875
v 0.117601905 -0.14092623 0.001875
v 0.11853882 -0.1409544 0.001875
v 0.1179135 -0.140979705 0.001875
v 0.11822763 -0.14098773 0.001875
v 0.1177371 -0.1289442 0.001875
v 0.117288405 -0.12865809 0.001875
v 0.11100243 -0.1286373 0.001875
v 0.11693688 -0.12825087 0.001875
v 0.11671914 -0.127776285 0.001875
v 0.1166397 -0.127239945 0.001875
v 0.11671914 -0.126703605 0.001875
v 0.11693688 -0.12622902 0.001875
v 0.117288405 -0.125821815 0.001875
v 0.12512856 -0.11589177 0.001875
v 0.124679865 -0.115605645 0.001875
v 0.124328325 -0.11519844 0.001875
v 0.1142052 -0.11518932 0.001875
v 0.1241106 -0.11472384 0.001875
v 0.12403116 -0.1141875 0.001875
v 0.1241106 -0.11365116 0.001875
v 0.124328325 -0.113176575 0.001875
v 0.124679865 -0.11276937 0.001875
v 0.12512856 -0.112483245 0.001875
v 0.12563673 -0.112332585 0.001875
v 0.117181125 -0.11138487 0.001875
v 0.13735062 -0.110077275 0.001875
v 0.138975 -0.107625 0.001875
v 0.126175575 -0.112332585 0.001875
v 0.126683745 -0.112483245 0.001875
v 0.12713244 -0.11276937 0.001875
v 0.120225 -0.107625 0.001875
v 0.14006547 -0.105995565 0.001875
v 0.122530695 -0.10492959 0.001875
v 0.141144915 -0.10437612 0.001875
v 0.14221335 -0.102766665 0.001875
v 0.12480723 -0.10226115 0.001875
v 0.143270775 -0.101167215 0.001875
v 0.127054605 -0.09961971 0.001875
v 0.14431719 -0.09957774 0.001875
v 0.14535258 -0.09799827 0.001875
v 0.12927285 -0.097005255 0.001875
v 0.146376975 -0.09642879 0.001875
v 0.147390345 -0.094869315 0.001875
v 0.13146195 -0.0944178 0.001875
v 0.14839272 -0.09331983 0.001875
v 0.133621875 -0.09185733 0.001875
v 0.14938407 -0.09178032 0.001875
v 0.150364395 -0.090250815 0.001875
v 0.13575267 -0.089323845 0.001875
v 0.151333725 -0.0887313 0.001875
v 0.15229194 -0.087221925 0.001875
v 0.13785594 -0.086818695 0.001875
v 0.153238665 -0.08572323 0.001875
v 0.139939545 -0.08434821 0.001875
v 0.15417399 -0.08423511 0.001875
v 0.15509805 -0.082757325 0.001875
v 0.14199966 -0.08190933 0.001875
v 0.1563129 -0.08080266 0.001875
v 0.14403063 -0.079497435 0.001875
v 0.157508385 -0.078865485 0.001875
v 0.14602677 -0.07710792 0.001875
v 0.158684835 -0.076945245 0.001875
v 0.159842625 -0.07504143 0.001875
v 0.147982425 -0.07473618 0.001875
v 0.1609821 -0.073153515 0.001875
v 0.149891895 -0.07237761 0.001875
v 0.162103635 -0.07128099 0.001875
v 0.151749525 -0.07002762 0.001875
v 0.16320747 -0.06942348 0.001875
v 0.153560565 -0.06768981 0.001875
v 0.164292465 -0.067582725 0.001875
v 0.1653585 -0.065758935 0.001875
v 0.15533229 -0.065369865 0.001875
v 0.166405815 -0.063951645 0.001875
v 0.157062 -0.06306618 0.001875
v 0.167434755 -0.062160405 0.001875
v 0.158747055 -0.06077718 0.001875
v 0.16844559 -0.060384705 0.001875
v 0.169438605 -0.058624095 0.001875
v 0.160384755 -0.05850126 0.001875
v 0.170414085 -0.056878095 0.001875
v 0.161972445 -0.056236875 0.001875
v 0.171372345 -0.055146255 0.001875
v 0.16350747 -0.05398242 0.001875
v 0.172313655 -0.053428065 0.001875
v 0.16498803 -0.051736845 0.001875
v 0.17323755 -0.05172447 0.001875
v 0.17414343 -0.050036415 0.001875
v 0.166417815 -0.04950231 0.001875
v 0.175031535 -0.048363465 0.001875
v 0.16779756 -0.047279295 0.001875
v 0.175902045 -0.046705245 0.001875
v 0.169127325 -0.0450678 0.001875
v 0.1767552 -0.04506132 0.001875
v 0.17759118 -0.043431285 0.001875
v 0.170407065 -0.042867825 0.001875
v 0.17841021 -0.041814735 0.001875
v 0.171636795 -0.040679355 0.001875
v 0.179212485 -0.04021125 0.001875
v 0.17999823 -0.03862041 0.001875
v 0.17281653 -0.038502405 0.001875
v 0.1807674 -0.037042335 0.001875
v 0.173946255 -0.03633696 0.001875
v 0.181519485 -0.035478285 0.001875
v 0.17470305 -0.03484425 0.001875
v 0.182254515 -0.033928065 0.001875
v 0.17544396 -0.03336384 0.001875
v 0.18297261 -0.032391375 0.001875
v 0.176169015 -0.031895745 0.001875
v 0.183673815 -0.030867915 0.001875
v 0.17687823 -0.03043995 0.001875
v 0.18435828 -0.02935734 0.001875
v 0.17757156 -0.02899647 0.001875
v 0.18502608 -0.027859365 0.001875
v 0.178249035 -0.02756529 0.001875
v 0.185677305 -0.02637369 0.001875
v 0.178910655 -0.026146425 0.001875
v 0.18631206 -0.02489997 0.001875
v 0.179556405 -0.024739875 0.001875
v 0.186930435 -0.02343801 0.001875
v 0.180186285 -0.023345655 0.001875
v 0.18753231 -0.02198853 0.001875
v 0.180800205 -0.021964125 0.001875
v 0.18811764 -0.020551725 0.001875
v 0.181398195 -0.02059518 0.001875
v 0.1819803 -0.01923864 0.001875
v 0.18868638 -0.019127445 0.001875
v 0.182546565 -0.017894295 0.001875
v 0.189238515 -0.017715555 0.001875
v 0.18309705 -0.01656198 0.001875
v 0.190035465 -0.01562067 0.001875
v 0.1836318 -0.01524147 0.001875
v 0.19079487 -0.013552905 0.001875
v 0.18440451 -0.013282455 0.001875
v 0.191516625 -0.011511825 0.001875
v 0.185142075 -0.01134921 0.001875
v 0.192200775 -0.00949719 0.001875
v 0.185844315 -0.00944265 0.001875
v 0.1928478 -0.007509495 0.001875
v 0.1865112 -0.00756264 0.001875
v 0.1871427 -0.005708895 0.001875
v 0.193457385 -0.005548815 0.001875
v 0.1877388 -0.00388113 0.001875
v 0.194029155 -0.00361515 0.001875
v 0.18829947 -0.00207903 0.001875
v 0.194562795 -0.00170853 0.001875
v 0.18882495 -0.000302415 0.001875
v 0.195057915 0.00017103 0.001875
v 0.18931551 0.001448505 0.001875
v 0.195514365 0.00202365 0.001875
v 0.189770715 0.00317358 0.001875
v 0.19593288 0.00385011 0.001875
v 0.190190085 0.0048726 0.001875
v 0.196313325 0.005649945 0.001875
v 0.1905732 0.006545415 0.001875
v 0.19665531 0.00742248 0.001875
v 0.190919565 0.00819186 0.001875
v 0.196958475 0.00916701 0.001875
v 0.19122966 0.00981279 0.001875
v 0.197222385 0.010882845 0.001875
v 0.1915038 0.011408265 0.001875
v 0.197446725 0.012569385 0.001875
v 0.191741595 0.012977385 0.001875
v 0.19763148 0.01422879 0.001875
v 0.191942655 0.01451925 0.001875
v 0.19777695 0.015861 0.001875
v 0.192106575 0.016032915 0.001875
v 0.197883345 0.01746447 0.001875
v 0.19223298 0.01751778 0.001875
v 0.197950875 0.019037715 0.001875
v 0.1923219 0.018976455 0.001875
v 0.19237362 0.020408265 0.001875
v 0.197979765 0.020579205 0.001875
v 0.192388425 0.021811305 0.001875
v 0.197970225 0.022087395 0.001875
v 0.192366585 0.02318367 0.001875
v 0.19792044 0.023564595 0.001875
v 0.192308385 0.024523455 0.001875
v 0.197829795 0.025012575 0.001875
v 0.19221345 0.02582994 0.001875
v 0.197700345 0.026429085 0.001875
v 0.19208007 0.027106365 0.001875
v 0.19753413 0.02781183 0.001875
v 0.191909655 0.028351665 0.001875
v 0.197333235 0.02915859 0.001875
v 0.191703915 0.02956428 0.001875
v 0.197099685 0.030467085 0.001875
v 0.19146459 0.030742605 0.001875
v 0.196832955 0.03173529 0.001875
v 0.191193435 0.031885065 0.001875
v 0.19652934 0.032963985 0.001875
v 0.19089 0.0329895 0.001875
v 0.19619073 0.034155615 0.001875
v 0.19055217 0.034056105 0.001875
v 0.190181085 0.035087925 0.001875
v 0.195819165 0.03531264 0.001875
v 0.189777945 0.036088095 0.001875
v 0.195416775 0.036437535 0.001875
v 0.194985645 0.037532775 0.001875
v 0.188880315 0.03800571 0.001875
v 0.194041095 0.03962805 0.001875
v 0.1878693 0.03980262 0.001875
v 0.1929789 0.04159074 0.001875
v 0.18673212 0.041488965 0.001875
v 0.185447265 0.04310196 0.001875
v 0.19178934 0.04345485 0.001875
v 0.184022865 0.04464213 0.001875
v 0.19047135 0.045242925 0.001875
v 0.18325539 0.045383055 0.001875
v 0.1890324 0.04693968 0.001875
v 0.1824462 0.046105845 0.001875
v 0.18159168 0.046811475 0.001875
v 0.180689925 0.047501265 0.001875
v 0.18744333 0.04855884 0.001875
v 0.17974461 0.04817586 0.001875
v 0.178756065 0.048833235 0.001875
v 0.186582675 0.04934451 0.001875
v 0.17772426 0.04947129 0.001875
v 0.185680965 0.05011566 0.001875
v 0.176649135 0.05008788 0.001875
v 0.17553069 0.050680875 0.001875
v 0.18474084 0.05087073 0.001875
v 0.17436768 0.0512511 0.001875
v 0.18375987 0.05160801 0.001875
v 0.17315961 0.05180079 0.001875
v 0.182735595 0.052325865 0.001875
v 0.17190828 0.052328655 0.001875
v 0.18166557 0.0530226 0.001875
v 0.17061546 0.052833375 0.001875
v 0.16928292 0.05331366 0.001875
v 0.180547365 0.05369655 0.001875
v 0.167912325 0.05376825 0.001875
v 0.179379705 0.054349395 0.001875
v 0.16650165 0.054198 0.001875
v 0.16505028 0.05460354 0.001875
v 0.178164345 0.054984015 0.001875
v 0.163559325 0.054984735 0.001875
v 0.176902845 0.05559795 0.001875
v 0.162029835 0.055341465 0.001875
v 0.160462875 0.055673595 0.001875
v 0.175596795 0.05618862 0.001875
v 0.15885921 0.05598096 0.001875
v 0.15721749 0.05626359 0.001875
v 0.17424774 0.05675349 0.001875
v 0.15553773 0.05652159 0.001875
v 0.153820305 0.05675511 0.001875
v 0.172857255 0.057290025 0.001875
v 0.15206568 0.0569643 0.001875
v 0.15027426 0.05714928 0.001875
v 0.14844621 0.05731011 0.001875
v 0.171425595 0.05779722 0.001875
v 0.14658111 0.05744667 0.001875
v 0.144678945 0.057558945 0.001875
v 0.1427397 0.05764692 0.001875
v 0.14076339 0.057710595 0.001875
v 0.13875 0.05775 0.001875
v 0.16994991 0.058278495 0.001875
v 0.168431115 0.058733565 0.001875
v 0.16687047 0.0591618 0.001875
v 0.165269235 0.0595626 0.001875
v 0.16362867 0.059935305 0.001875
v 0.161949585 0.06027945 0.001875
v 0.160229895 0.060595545 0.001875
v 0.15846975 0.06088383 0.001875
v 0.15666987 0.061144395 0.001875
v 0.15483108 0.061377345 0.001875
v 0.15295413 0.061582755 0.001875
v 0.15103977 0.06176073 0.001875
v 0.14908743 0.061911165 0.001875
v 0.14709672 0.06203406 0.001875
v 0.14506761 0.062129385 0.001875
v 0.14300013 0.062197155 0.001875
v 0.14089425 0.062237355 0.001875
v 0.13875 0.06225 0.001875
v 0.14625 0.05976309 -0.000404205
v 0.14625 0.05976309 0.000404205
v 0.14625 0.06 0.00046875
v 0.14625 0.059594445 -0.00023244
v 0.14625 0.06 -0.00046875
v 0.14625 0.06023691 0.000404205
v 0.14625 0.06023691 -0.000404205
v 0.14625 0.060405555 0.00023244
v 0.14625 0.060405555 -0.00023244
v 0.14625 0.060467085 0
v 0.14625 0.059594445 0.00023244
v 0.14625 0.0595329 0
v 0.13875 0.06 0.00046875
v 0.14625 0.06 0.00046875
v 0.14625 0.05976309 0.000404205
v 0.13875 0.059765625 0.000405945
v 0.13875 0.060234375 0.000405945
v 0.14625 0.06023691 0.000404205
v 0.14625 0.06 0.00046875
v 0.13875 0.060405945 0.000234375
v 0.13875 0.06 0.00046875
v 0.14625 0.060405555 0.00023244
v 0.13875 0.06046875 0
v 0.14625 0.060467085 0
v 0.13875 0.060405945 -0.000234375
v 0.14625 0.060405555 -0.00023244
v 0.13875 0.059765625 0.000405945
v 0.14625 0.05976309 0.000404205
v 0.14625 0.059594445 0.00023244
v 0.13875 0.059594055 0.000234375
v 0.13875 0.059594055 0.000234375
v 0.14625 0.059594445 0.00023244
v 0.14625 0.0595329 0
v 0.13875 0.05953125 0
v 0.14625 0.059594445 -0.00023244
v 0.13875 0.059594055 -0.000234375
v 0.14625 0.05976309 -0.000404205
v 0.13875 0.059765625 -0.000405945
v 0.14625 0.06 -0.00046875
v 0.13875 0.06 -0.00046875
v 0.13875 0.06 -0.00046875
v 0.14625 0.06 -0.00046875
v 0.14625 0.06023691 -0.000404205
v 0.13875 0.060234375 -0.000405945
v 0.13875 0.060234375 -0.000405945
v 0.14625 0.06023691 -0.000404205
v 0.14625 0.060405555 -0.00023244
v 0.13875 0.060405945 -0.000234375
f 1 2 3
f 1 4 2
f 1 3 5
f 1 5 6
f 1 6 7
f 8 1 7
f 8 7 9
f 8 9 10
f 11 8 10
f 11 12 8
f 11 10 13
f 11 13 14
f 11 14 15
f 11 15 16
f 11 16 17
f 11 17 18
f 11 18 19
f 20 11 19
f 20 19 21
f 20 21 22
f 20 22 23
f 20 23 24
f 20 24 25
f 25 24 26
f 27 20 25
f 27 25 28
f 29 27 28
f 30 29 28
f 30 28 31
f 32 30 31
f 33 32 31
f 34 33 31
f 35 34 31
f 36 35 31
f 37 36 31
f 37 31 38
f 39 37 38
f 40 39 38
f 40 38 41
f 38 42 41
f 40 41 43
f 44 40 43
f 44 43 45
f 44 45 46
f 44 46 47
f 44 47 48
f 44 48 49
f 44 49 50
f 44 50 51
f 52 44 51
f 52 51 53
f 52 53 54
f 52 54 55
f 52 55 56
f 56 55 57
f 58 52 56
f 58 56 59
f 60 58 59
f 60 59 61
f 60 61 62
f 63 60 62
f 64 63 62
f 64 65 63
f 64 66 65
f 64 67 66
f 67 68 66
f 67 69 68
f 69 70 68
f 69 71 70
f 71 72 70
f 71 73 72
f 73 74 72
f 73 75 74
f 75 76 74
f 75 77 76
f 77 78 76
f 77 79 78
f 79 80 78
f 79 81 80
f 81 82 80
f 81 83 82
f 83 84 82
f 83 85 84
f 85 86 84
f 86 87 84
f 86 88 87
f 56 57 89
f 56 89 90
f 56 90 91
f 56 91 92
f 42 56 92
f 42 92 93
f 42 93 94
f 42 94 95
f 42 95 96
f 42 96 97
f 42 97 41
f 25 26 98
f 25 98 99
f 25 99 4
f 1 25 4
f 11 100 12
f 100 101 12
f 100 102 101
f 102 103 101
f 102 104 103
f 102 105 104
f 105 106 104
f 105 107 106
f 105 108 107
f 108 109 107
f 108 110 109
f 110 111 109
f 110 112 111
f 110 113 112
f 113 114 112
f 113 115 114
f 113 116 115
f 116 117 115
f 116 118 117
f 118 119 117
f 118 120 119
f 118 121 120
f 121 122 120
f 121 123 122
f 121 124 123
f 124 125 123
f 124 126 125
f 126 127 125
f 126 128 127
f 126 129 128
f 129 130 128
f 129 131 130
f 131 132 130
f 131 133 132
f 133 134 132
f 133 135 134
f 133 136 135
f 136 137 135
f 136 138 137
f 138 139 137
f 138 140 139
f 140 141 139
f 140 142 141
f 142 143 141
f 142 144 143
f 142 145 144
f 145 146 144
f 145 147 146
f 147 148 146
f 147 149 148
f 149 150 148
f 149 151 150
f 149 152 151
f 152 153 151
f 152 154 153
f 154 155 153
f 154 156 155
f 156 157 155
f 156 158 157
f 158 159 157
f 158 160 159
f 158 161 160
f 161 162 160
f 161 163 162
f 163 164 162
f 163 165 164
f 165 166 164
f 165 167 166
f 165 168 167
f 168 169 167
f 168 170 169
f 170 171 169
f 170 172 171
f 170 173 172
f 173 174 172
f 173 175 174
f 175 176 174
f 175 177 176
f 177 178 176
f 177 179 178
f 179 180 178
f 179 181 180
f 181 182 180
f 181 183 182
f 183 184 182
f 183 185 184
f 185 186 184
f 185 187 186
f 187 188 186
f 187 189 188
f 189 190 188
f 189 191 190
f 191 192 190
f 191 193 192
f 193 194 192
f 194 195 192
f 194 196 195
f 196 197 195
f 196 198 197
f 198 199 197
f 198 200 199
f 200 201 199
f 200 202 201
f 202 203 201
f 202 204 203
f 204 205 203
f 204 206 205
f 206 207 205
f 206 208 207
f 208 209 207
f 209 210 207
f 209 211 210
f 211 212 210
f 211 213 212
f 213 214 212
f 213 215 214
f 215 216 214
f 215 217 216
f 217 218 216
f 217 219 218
f 219 220 218
f 219 221 220
f 221 222 220
f 221 223 222
f 223 224 222
f 223 225 224
f 225 226 224
f 225 227 226
f 227 228 226
f 227 229 228
f 229 230 228
f 229 231 230
f 231 232 230
f 231 233 232
f 233 234 232
f 233 235 234
f 235 236 234
f 235 237 236
f 237 238 236
f 237 239 238
f 239 240 238
f 240 241 238
f 240 242 241
f 242 243 241
f 242 244 243
f 244 245 243
f 244 246 245
f 246 247 245
f 246 248 247
f 248 249 247
f 248 250 249
f 250 251 249
f 250 252 251
f 252 253 251
f 252 254 253
f 254 255 253
f 254 256 255
f 256 257 255
f 256 258 257
f 258 259 257
f 258 260 259
f 260 261 259
f 260 262 261
f 262 263 261
f 263 264 261
f 263 265 264
f 265 266 264
f 265 267 266
f 267 268 266
f 267 269 268
f 269 270 268
f 269 271 270
f 269 272 271
f 272 273 271
f 273 274 271
f 273 275 274
f 275 276 274
f 275 277 276
f 277 278 276
f 277 279 278
f 279 280 278
f 280 281 278
f 281 282 278
f 281 283 282
f 283 284 282
f 284 285 282
f 284 286 285
f 286 287 285
f 286 288 287
f 288 289 287
f 289 290 287
f 289 291 290
f 291 292 290
f 291 293 292
f 293 294 292
f 293 295 294
f 295 296 294
f 295 297 296
f 297 298 296
f 298 299 296
f 298 300 299
f 300 301 299
f 300 302 301
f 302 303 301
f 303 304 301
f 303 305 304
f 305 306 304
f 305 307 306
f 307 308 306
f 308 309 306
f 308 310 309
f 310 311 309
f 311 312 309
f 311 313 312
f 313 314 312
f 314 315 312
f 314 316 315
f 316 317 315
f 317 318 315
f 318 319 315
f 318 320 319
f 320 321 319
f 321 322 319
f 322 323 319
f 323 324 319
f 324 325 319
f 325 326 319
f 325 327 326
f 327 328 326
f 327 329 328
f 327 330 329
f 327 331 330
f 327 332 331
f 327 333 332
f 327 334 333
f 327 335 334
f 327 336 335
f 327 337 336
f 327 338 337
f 327 339 338
f 327 340 339
f 327 341 340
f 327 342 341
f 327 343 342
f 327 344 343
f 345 346 347
f 348 346 345
f 349 345 347
f 349 347 350
f 349 350 351
f 351 350 352
f 351 352 353
f 353 352 354
f 353 354 355
f 355 354 356
f 355 356 357
f 357 356 358
f 357 358 359
f 359 358 360
f 359 360 361
f 361 360 362
f 361 362 363
f 363 362 364
f 363 364 365
f 365 364 366
f 365 366 367
f 367 366 368
f 367 368 369
f 369 368 370
f 369 370 371
f 371 370 372
f 371 372 373
f 373 372 374
f 373 374 375
f 375 374 376
f 375 376 377
f 377 376 378
f 377 378 379
f 379 378 380
f 379 380 381
f 381 380 382
f 381 382 383
f 383 382 384
f 383 384 385
f 385 384 386
f 385 386 387
f 387 386 388
f 387 388 348
f 348 388 346
f 389 390 391
f 392 390 389
f 393 389 391
f 393 391 394
f 393 394 395
f 395 394 396
f 395 396 397
f 397 396 398
f 397 398 399
f 399 398 400
f 399 400 401
f 401 400 402
f 401 402 403
f 403 402 404
f 403 404 405
f 405 404 406
f 405 406 407
f 407 406 408
f 407 408 409
f 409 408 410
f 409 410 411
f 411 410 412
f 411 412 413
f 413 412 414
f 413 414 415
f 415 414 416
f 415 416 417
f 417 416 418
f 417 418 419
f 419 418 420
f 419 420 421
f 421 420 422
f 421 422 423
f 423 422 424
f 423 424 425
f 425 424 426
f 425 426 427
f 427 426 428
f 427 428 429
f 429 428 430
f 429 430 431
f 431 430 432
f 431 432 392
f 392 432 390
f 433 434 435
f 436 434 433
f 433 435 437
f 437 435 438
f 437 438 439
f 439 438 440
f 439 440 441
f 441 440 442
f 441 442 443
f 443 442 444
f 443 444 445
f 445 444 446
f 445 446 447
f 447 446 448
f 447 448 449
f 449 448 450
f 449 450 451
f 451 450 452
f 451 452 453
f 453 452 454
f 453 454 455
f 455 454 456
f 455 456 457
f 457 456 458
f 457 458 459
f 459 458 460
f 459 460 461
f 461 460 462
f 461 462 463
f 463 462 464
f 463 464 465
f 465 464 466
f 465 466 467
f 467 466 468
f 467 468 469
f 469 468 470
f 469 470 471
f 471 470 472
f 471 472 473
f 473 472 474
f 473 474 475
f 475 474 476
f 475 476 477
f 477 476 478
f 477 478 479
f 479 478 480
f 479 480 481
f 481 480 482
f 481 482 483
f 483 482 484
f 483 484 485
f 485 484 486
f 485 486 487
f 487 486 488
f 487 488 489
f 489 488 490
f 489 490 491
f 491 490 492
f 491 492 493
f 493 492 494
f 493 494 495
f 495 494 496
f 495 496 497
f 497 496 498
f 497 498 499
f 499 498 500
f 499 500 501
f 501 500 502
f 501 502 503
f 503 502 504
f 503 504 505
f 505 504 506
f 505 506 507
f 507 506 508
f 507 508 509
f 509 508 510
f 509 510 511
f 511 510 512
f 511 512 513
f 513 512 514
f 513 514 515
f 515 514 516
f 515 516 517
f 517 516 518
f 517 518 519
f 519 518 520
f 519 520 521
f 521 520 522
f 521 522 523
f 523 522 524
f 523 524 525
f 525 524 526
f 525 526 527
f 527 526 528
f 527 528 529
f 529 528 530
f 529 530 531
f 531 530 532
f 531 532 533
f 533 532 534
f 533 534 535
f 535 534 536
f 535 536 537
f 537 536 538
f 537 538 539
f 539 538 540
f 539 540 541
f 541 540 542
f 541 542 543
f 543 542 544
f 543 544 545
f 545 544 546
f 545 546 547
f 547 546 548
f 547 548 549
f 549 548 550
f 549 550 551
f 551 550 552
f 551 552 553
f 553 552 554
f 553 554 555
f 555 554 556
f 555 556 557
f 557 556 558
f 557 558 559
f 559 558 560
f 559 560 561
f 561 560 562
f 561 562 563
f 563 562 564
f 563 564 565
f 565 564 566
f 565 566 567
f 567 566 568
f 567 568 569
f 569 568 570
f 569 570 571
f 571 570 572
f 571 572 573
f 573 572 574
f 573 574 575
f 575 574 576
f 575 576 577
f 577 576 578
f 577 578 579
f 579 578 580
f 579 580 581
f 581 580 582
f 581 582 583
f 583 582 584
f 583 584 585
f 585 584 586
f 585 586 587
f 587 586 588
f 587 588 589
f 589 588 590
f 589 590 591
f 591 590 592
f 591 592 593
f 593 592 594
f 593 594 595
f 595 594 596
f 595 596 597
f 597 596 598
f 597 598 599
f 599 598 600
f 599 600 601
f 601 600 602
f 601 602 603
f 603 602 604
f 603 604 605
f 605 604 606
f 605 606 607
f 607 606 608
f 607 608 609
f 609 608 610
f 609 610 611
f 611 610 612
f 611 612 613
f 613 612 614
f 613 614 615
f 615 614 616
f 615 616 617
f 617 616 618
f 617 618 619
f 619 618 620
f 619 620 621
f 621 620 622
f 621 622 623
f 623 622 624
f 623 624 625
f 625 624 626
f 625 626 627
f 627 626 628
f 627 628 629
f 629 628 630
f 629 630 631
f 631 630 632
f 631 632 633
f 633 632 634
f 633 634 635
f 635 634 636
f 635 636 637
f 637 636 638
f 637 638 639
f 639 638 640
f 639 640 641
f 641 640 642
f 641 642 643
f 643 642 644
f 643 644 645
f 645 644 646
f 645 646 647
f 647 646 648
f 647 648 649
f 649 648 650
f 649 650 651
f 651 650 652
f 651 652 653
f 653 652 654
f 653 654 655
f 655 654 656
f 655 656 657
f 657 656 658
f 657 658 659
f 659 658 660
f 659 660 661
f 661 660 662
f 661 662 663
f 663 662 664
f 663 664 665
f 665 664 666
f 665 666 667
f 667 666 668
f 667 668 669
f 669 668 670
f 669 670 671
f 671 670 672
f 671 672 673
f 673 672 674
f 673 674 675
f 675 674 676
f 675 676 677
f 677 676 678
f 677 678 679
f 679 678 680
f 679 680 681
f 681 680 682
f 681 682 683
f 683 682 684
f 683 684 685
f 685 684 686
f 685 686 687
f 687 686 688
f 687 688 689
f 689 688 690
f 689 690 691
f 691 690 692
f 691 692 693
f 693 692 694
f 693 694 695
f 695 694 696
f 695 696 697
f 697 696 698
f 697 698 699
f 699 698 700
f 699 700 701
f 701 700 702
f 701 702 703
f 703 702 704
f 703 704 705
f 705 704 706
f 705 706 707
f 707 706 708
f 707 708 709
f 709 708 710
f 709 710 711
f 711 710 712
f 711 712 713
f 436 714 434
f 715 714 436
f 715 716 714
f 717 716 715
f 717 718 716
f 719 718 717
f 719 720 718
f 721 720 719
f 721 722 720
f 723 722 721
f 723 724 722
f 725 724 723
f 725 726 724
f 727 726 725
f 727 728 726
f 729 728 727
f 729 730 728
f 731 730 729
f 731 732 730
f 733 732 731
f 733 734 732
f 733 735 734
f 736 735 733
f 736 737 735
f 738 737 736
f 738 739 737
f 740 739 738
f 741 739 740
f 741 742 739
f 743 742 741
f 744 742 743
f 744 745 742
f 746 745 744
f 746 747 745
f 748 747 746
f 748 749 747
f 750 749 748
f 750 751 749
f 752 751 750
f 752 753 751
f 754 753 752
f 754 755 753
f 756 755 754
f 756 757 755
f 758 757 756
f 758 759 757
f 760 759 758
f 760 761 759
f 762 761 760
f 762 763 761
f 762 764 763
f 764 765 763
f 766 765 764
f 766 767 765
f 768 767 766
f 768 769 767
f 770 769 768
f 770 771 769
f 772 771 770
f 772 773 771
f 774 773 772
f 774 775 773
f 776 775 774
f 776 777 775
f 778 777 776
f 778 779 777
f 780 779 778
f 780 781 779
f 782 781 780
f 782 783 781
f 784 783 782
f 784 785 783
f 786 785 784
f 786 787 785
f 788 787 786
f 788 789 787
f 790 789 788
f 790 791 789
f 792 791 790
f 792 793 791
f 794 793 792
f 795 793 794
f 795 796 793
f 797 796 795
f 797 798 796
f 799 798 797
f 799 800 798
f 801 800 799
f 801 802 800
f 803 802 801
f 803 804 802
f 805 804 803
f 805 806 804
f 807 806 805
f 807 808 806
f 809 808 807
f 809 810 808
f 811 810 809
f 811 812 810
f 813 812 811
f 813 814 812
f 815 814 813
f 815 816 814
f 817 816 815
f 817 818 816
f 819 818 817
f 819 820 818
f 821 820 819
f 821 822 820
f 823 822 821
f 823 824 822
f 825 824 823
f 825 826 824
f 827 826 825
f 827 828 826
f 829 828 827
f 829 830 828
f 831 830 829
f 831 832 830
f 833 832 831
f 833 834 832
f 835 834 833
f 835 836 834
f 837 836 835
f 837 838 836
f 839 838 837
f 839 840 838
f 841 840 839
f 841 842 840
f 843 842 841
f 843 844 842
f 845 844 843
f 845 846 844
f 847 846 845
f 847 848 846
f 849 848 847
f 849 850 848
f 851 850 849
f 851 852 850
f 853 852 851
f 853 854 852
f 855 854 853
f 855 856 854
f 857 856 855
f 857 858 856
f 859 858 857
f 859 860 858
f 861 860 859
f 861 862 860
f 863 862 861
f 863 864 862
f 865 864 863
f 865 866 864
f 867 866 865
f 867 868 866
f 869 868 867
f 869 870 868
f 871 870 869
f 871 872 870
f 873 872 871
f 873 874 872
f 875 874 873
f 875 876 874
f 877 876 875
f 877 878 876
f 879 878 877
f 879 880 878
f 881 880 879
f 881 882 880
f 883 882 881
f 883 884 882
f 885 884 883
f 885 886 884
f 887 886 885
f 887 888 886
f 889 888 887
f 889 890 888
f 891 890 889
f 891 892 890
f 893 892 891
f 893 894 892
f 895 894 893
f 895 896 894
f 897 896 895
f 897 898 896
f 899 898 897
f 899 900 898
f 901 900 899
f 901 902 900
f 903 902 901
f 903 904 902
f 905 904 903
f 905 906 904
f 907 906 905
f 907 908 906
f 909 908 907
f 909 910 908
f 911 910 909
f 911 912 910
f 913 912 911
f 913 914 912
f 915 914 913
f 915 916 914
f 917 916 915
f 917 918 916
f 919 918 917
f 919 920 918
f 921 920 919
f 921 922 920
f 923 922 921
f 923 924 922
f 925 924 923
f 925 926 924
f 927 926 925
f 927 928 926
f 929 928 927
f 929 930 928
f 931 930 929
f 931 932 930
f 933 932 931
f 933 934 932
f 935 934 933
f 935 936 934
f 937 936 935
f 937 938 936
f 939 938 937
f 939 940 938
f 941 940 939
f 941 942 940
f 943 942 941
f 943 944 942
f 945 944 943
f 945 946 944
f 947 946 945
f 947 948 946
f 949 948 947
f 949 950 948
f 951 950 949
f 951 952 950
f 953 952 951
f 953 954 952
f 955 954 953
f 955 956 954
f 957 956 955
f 957 958 956
f 959 958 957
f 959 960 958
f 961 960 959
f 961 962 960
f 963 962 961
f 963 964 962
f 965 964 963
f 965 966 964
f 967 966 965
f 967 968 966
f 969 968 967
f 969 970 968
f 971 970 969
f 971 972 970
f 973 972 971
f 973 974 972
f 975 974 973
f 975 976 974
f 977 976 975
f 977 978 976
f 979 978 977
f 979 980 978
f 981 980 979
f 981 982 980
f 983 982 981
f 983 984 982
f 985 984 983
f 985 986 984
f 987 986 985
f 987 988 986
f 989 988 987
f 989 990 988
f 991 990 989
f 991 992 990
f 993 992 991
f 993 994 992
f 995 994 993
f 995 996 994
f 997 996 995
f 997 998 996
f 999 998 997
f 999 1000 998
f 1001 1000 999
f 1001 1002 1000
f 1003 1002 1001
f 1003 1004 1002
f 1005 1004 1003
f 1005 1006 1004
f 1007 1006 1005
f 1007 1008 1006
f 1009 1008 1007
f 1009 1010 1008
f 1011 1010 1009
f 1011 1012 1010
f 1013 1012 1011
f 1013 1014 1012
f 1015 1014 1013
f 1015 1016 1014
f 1017 1016 1015
f 1017 1018 1016
f 1019 1018 1017
f 1019 1020 1018
f 1021 1020 1019
f 1021 1022 1020
f 1023 1022 1021
f 1023 1024 1022
f 1025 1024 1023
f 1025 1026 1024
f 1027 1026 1025
f 1027 1028 1026
f 1029 1028 1027
f 1029 1030 1028
f 1031 1030 1029
f 1031 1032 1030
f 1033 1032 1031
f 1033 1034 1032
f 1035 1036 1037
f 1038 1036 1035
f 1035 1037 1039
f 1040 1039 1037
f 1040 1037 1041
f 1041 1037 1042
f 1042 1037 1043
f 1043 1037 1044
f 1043 1044 1045
f 1045 1044 1046
f 1045 1046 1047
f 1048 1047 1046
f 1048 1046 1049
f 1049 1046 1050
f 1050 1046 1038
f 1038 1046 1036
f 1051 1052 1053
f 1051 1054 1052
f 1051 1053 1055
f 1056 1051 1055
f 1056 1055 1057
f 1056 1057 1058
f 1056 1058 1059
f 1056 1059 1060
f 1061 1056 1060
f 1061 1060 1062
f 1062 1060 1063
f 1061 1062 1064
f 1061 1064 1065
f 1066 1061 1065
f 1066 1065 1067
f 1066 1067 1068
f 1066 1068 1069
f 1066 1069 1070
f 1066 1070 1071
f 1066 1071 1072
f 1073 1066 1072
f 1073 1072 1074
f 1073 1074 1075
f 1073 1075 1076
f 1077 1073 1076
f 1077 1076 1078
f 1077 1078 1079
f 1078 1080 1079
f 1077 1079 1081
f 1077 1081 1082
f 1077 1082 1083
f 1077 1083 1084
f 1077 1084 1085
f 1077 1085 1086
f 1087 1077 1086
f 1087 1086 1088
f 1087 1088 1089
f 1087 1089 1090
f 1087 1090 1091
f 1087 1091 1092
f 1093 1087 1092
f 1093 1092 1094
f 1094 1092 1095
f 1096 1093 1094
f 1096 1094 1097
f 1098 1096 1097
f 1098 1097 1099
f 1100 1098 1099
f 1101 1100 1099
f 1102 1101 1099
f 1102 1103 1101
f 1102 1104 1103
f 1104 1105 1103
f 1104 1106 1105
f 1106 1107 1105
f 1106 1108 1107
f 1108 1109 1107
f 1108 1110 1109
f 1110 1111 1109
f 1110 1112 1111
f 1112 1113 1111
f 1112 1114 1113
f 1114 1115 1113
f 1114 1116 1115
f 1116 1117 1115
f 1116 1118 1117
f 1118 1119 1117
f 1118 1120 1119
f 1120 1121 1119
f 1121 1122 1119
f 1121 1123 1122
f 1123 1124 1122
f 1123 1125 1124
f 1125 1126 1124
f 1094 1095 1127
f 1094 1127 1128
f 1129 1094 1128
f 1129 1128 1130
f 1129 1130 1131
f 1129 1131 1132
f 1129 1132 1133
f 1129 1133 1134
f 1129 1134 1135
f 1129 1135 1080
f 1078 1129 1080
f 1062 1063 1136
f 1062 1136 1137
f 1062 1137 1138
f 1139 1062 1138
f 1139 1138 1140
f 1139 1140 1141
f 1139 1141 1142
f 1139 1142 1143
f 1139 1143 1144
f 1139 1144 1145
f 1139 1145 1146
f 1147 1139 1146
f 1148 1147 1146
f 1148 1149 1147
f 1148 1146 1150
f 1148 1150 1151
f 1051 1148 1151
f 1051 1151 1152
f 1051 1152 1054
f 1149 1153 1147
f 1149 1154 1153
f 1154 1155 1153
f 1154 1156 1155
f 1156 1157 1155
f 1157 1158 1155
f 1157 1159 1158
f 1159 1160 1158
f 1159 1161 1160
f 1161 1162 1160
f 1162 1163 1160
f 1162 1164 1163
f 1164 1165 1163
f 1165 1166 1163
f 1165 1167 1166
f 1167 1168 1166
f 1167 1169 1168
f 1169 1170 1168
f 1170 1171 1168
f 1170 1172 1171
f 1172 1173 1171
f 1173 1174 1171
f 1173 1175 1174
f 1175 1176 1174
f 1175 1177 1176
f 1177 1178 1176
f 1178 1179 1176
f 1178 1180 1179
f 1180 1181 1179
f 1180 1182 1181
f 1182 1183 1181
f 1182 1184 1183
f 1184 1185 1183
f 1185 1186 1183
f 1185 1187 1186
f 1187 1188 1186
f 1187 1189 1188
f 1189 1190 1188
f 1189 1191 1190
f 1191 1192 1190
f 1191 1193 1192
f 1193 1194 1192
f 1194 1195 1192
f 1194 1196 1195
f 1196 1197 1195
f 1196 1198 1197
f 1198 1199 1197
f 1198 1200 1199
f 1200 1201 1199
f 1201 1202 1199
f 1201 1203 1202
f 1203 1204 1202
f 1203 1205 1204
f 1205 1206 1204
f 1205 1207 1206
f 1207 1208 1206
f 1207 1209 1208
f 1209 1210 1208
f 1210 1211 1208
f 1210 1212 1211
f 1212 1213 1211
f 1212 1214 1213
f 1214 1215 1213
f 1214 1216 1215
f 1216 1217 1215
f 1217 1218 1215
f 1217 1219 1218
f 1219 1220 1218
f 1219 1221 1220
f 1221 1222 1220
f 1222 1223 1220
f 1222 1224 1223
f 1224 1225 1223
f 1224 1226 1225
f 1226 1227 1225
f 1226 1228 1227
f 1228 1229 1227
f 1228 1230 1229
f 1230 1231 1229
f 1230 1232 1231
f 1232 1233 1231
f 1232 1234 1233
f 1234 1235 1233
f 1234 1236 1235
f 1236 1237 1235
f 1236 1238 1237
f 1238 1239 1237
f 1238 1240 1239
f 1240 1241 1239
f 1240 1242 1241
f 1242 1243 1241
f 1242 1244 1243
f 1244 1245 1243
f 1244 1246 1245
f 1246 1247 1245
f 1246 1248 1247
f 1246 1249 1248
f 1249 1250 1248
f 1249 1251 1250
f 1251 1252 1250
f 1251 1253 1252
f 1253 1254 1252
f 1253 1255 1254
f 1255 1256 1254
f 1255 1257 1256
f 1257 1258 1256
f 1257 1259 1258
f 1259 1260 1258
f 1259 1261 1260
f 1261 1262 1260
f 1261 1263 1262
f 1261 1264 1263
f 1264 1265 1263
f 1264 1266 1265
f 1266 1267 1265
f 1266 1268 1267
f 1268 1269 1267
f 1268 1270 1269
f 1270 1271 1269
f 1270 1272 1271
f 1272 1273 1271
f 1272 1274 1273
f 1274 1275 1273
f 1274 1276 1275
f 1276 1277 1275
f 1276 1278 1277
f 1278 1279 1277
f 1278 1280 1279
f 1280 1281 1279
f 1280 1282 1281
f 1282 1283 1281
f 1282 1284 1283
f 1284 1285 1283
f 1284 1286 1285
f 1286 1287 1285
f 1286 1288 1287
f 1288 1289 1287
f 1288 1290 1289
f 1290 1291 1289
f 1290 1292 1291
f 1292 1293 1291
f 1292 1294 1293
f 1292 1295 1294
f 1295 1296 1294
f 1295 1297 1296
f 1297 1298 1296
f 1297 1299 1298
f 1299 1300 1298
f 1299 1301 1300
f 1301 1302 1300
f 1301 1303 1302
f 1303 1304 1302
f 1303 1305 1304
f 1305 1306 1304
f 1305 1307 1306
f 1307 1308 1306
f 1307 1309 1308
f 1309 1310 1308
f 1309 1311 1310
f 1311 1312 1310
f 1311 1313 1312
f 1313 1314 1312
f 1313 1315 1314
f 1315 1316 1314
f 1315 1317 1316
f 1315 1318 1317
f 1318 1319 1317
f 1318 1320 1319
f 1320 1321 1319
f 1321 1322 1319
f 1321 1323 1322
f 1323 1324 1322
f 1323 1325 1324
f 1325 1326 1324
f 1325 1327 1326
f 1325 1328 1327
f 1328 1329 1327
f 1328 1330 1329
f 1330 1331 1329
f 1330 1332 1331
f 1332 1333 1331
f 1332 1334 1333
f 1332 1335 1334
f 1332 1336 1335
f 1336 1337 1335
f 1336 1338 1337
f 1336 1339 1338
f 1339 1340 1338
f 1339 1341 1340
f 1341 1342 1340
f 1341 1343 1342
f 1341 1344 1343
f 1344 1345 1343
f 1344 1346 1345
f 1346 1347 1345
f 1346 1348 1347
f 1348 1349 1347
f 1348 1350 1349
f 1350 1351 1349
f 1350 1352 1351
f 1350 1353 1352
f 1353 1354 1352
f 1353 1355 1354
f 1355 1356 1354
f 1355 1357 1356
f 1355 1358 1357
f 1358 1359 1357
f 1358 1360 1359
f 1360 1361 1359
f 1360 1362 1361
f 1360 1363 1362
f 1363 1364 1362
f 1363 1365 1364
f 1363 1366 1365
f 1366 1367 1365
f 1366 1368 1367
f 1366 1369 1368
f 1369 1370 1368
f 1369 1371 1370
f 1369 1372 1371
f 1369 1373 1372
f 1373 1374 1372
f 1373 1375 1374
f 1373 1376 1375
f 1373 1377 1376
f 1373 1378 1377
f 1373 1379 1378
f 1379 1380 1378
f 1380 1381 1378
f 1381 1382 1378
f 1382 1383 1378
f 1383 1384 1378
f 1384 1385 1378
f 1385 1386 1378
f 1386 1387 1378
f 1387 1388 1378
f 1388 1389 1378
f 1389 1390 1378
f 1390 1391 1378
f 1391 1392 1378
f 1392 1393 1378
f 1393 1394 1378
f 1394 1395 1378
f 1395 1396 1378
f 1397 1398 1399
f 1397 1400 1398
f 1401 1397 1399
f 1402 1401 1399
f 1402 1403 1401
f 1402 1404 1403
f 1404 1405 1403
f 1404 1406 1405
f 1400 1407 1398
f 1400 1408 1407
f 1409 1410 1411
f 1412 1409 1411
f 1413 1414 1415
f 1413 1416 1414
f 1413 1415 1417
f 1416 1418 1414
f 1416 1419 1418
f 1419 1420 1418
f 1419 1421 1420
f 1421 1422 1420
f 1423 1424 1425
f 1426 1423 1425
f 1427 1428 1429
f 1430 1427 1429
f 1430 1429 1431
f 1432 1430 1431
f 1432 1431 1433
f 1434 1432 1433
f 1434 1433 1435
f 1434 1435 1436
f 1437 1438 1439
f 1440 1437 1439
f 1441 1442 1443
f 1444 1441 1443
