1874 1860 0
v 0.139092135 0.07349415 -0.001875
v 0.139446195 0.06282591 -0.001875
v 0.13875 0.0628125 -0.001875
v 0.14367174 0.07028748 -0.001875
v 0.13901271 0.073215945 -0.001875
v 0.13894377 0.072931455 -0.001875
v 0.1388853 0.07264068 -0.001875
v 0.138837285 0.072343635 -0.001875
v 0.13879977 0.072040305 -0.001875
v 0.138772695 0.071730705 -0.001875
v 0.138756105 0.07141482 -0.001875
v 0.13875 0.07109265 -0.001875
v 0.140124015 0.062847885 -0.001875
v 0.14078349 0.062878455 -0.001875
v 0.141424575 0.06291762 -0.001875
v 0.142047285 0.062965365 -0.001875
v 0.142651635 0.063021705 -0.001875
v 0.143237595 0.063086625 -0.001875
v 0.143805195 0.063160125 -0.001875
v 0.14474721 0.07182339 -0.001875
v 0.144354435 0.06324222 -0.001875
v 0.14488515 0.063332955 -0.001875
v 0.144835665 0.07913196 -0.001875
v 0.14445009 0.07895847 -0.001875
v 0.145236405 0.07930044 -0.001875
v 0.14539386 0.063433395 -0.001875
v 0.14565264 0.079463355 -0.001875
v 0.145880445 0.0635436 -0.001875
v 0.14608476 0.079620165 -0.001875
v 0.146346735 0.063662985 -0.001875
v 0.14653293 0.079771245 -0.001875
v 0.14679459 0.06379098 -0.001875
v 0.146996925 0.07991763 -0.001875
v 0.14722587 0.063927015 -0.001875
v 0.147476475 0.080058885 -0.001875
v 0.147642375 0.06407049 -0.001875
v 0.14797131 0.080194575 -0.001875
v 0.14804598 0.064220865 -0.001875
v 0.148481145 0.08032428 -0.001875
v 0.148438515 0.06437754 -0.001875
v 0.14882181 0.064539945 -0.001875
v 0.149005725 0.08044752 -0.001875
v 0.149196645 0.064707795 -0.001875
v 0.14954478 0.08056389 -0.001875
v 0.149556345 0.064882815 -0.001875
v 0.15009846 0.080673135 -0.001875
v 0.14990076 0.065065095 -0.001875
v 0.15023154 0.065254335 -0.001875
v 0.1506687 0.08077614 -0.001875
v 0.150550245 0.06545025 -0.001875
v 0.15085848 0.065652495 -0.001875
v 0.15125478 0.08087289 -0.001875
v 0.15115782 0.06586077 -0.001875
v 0.1514499 0.06607476 -0.001875
v 0.151855545 0.08096316 -0.001875
v 0.15173628 0.066294165 -0.001875
v 0.15201858 0.066518655 -0.001875
v 0.15246984 0.081046755 -0.001875
v 0.152296275 0.06674895 -0.001875
v 0.15256392 0.06698772 -0.001875
v 0.152886285 0.08109867 -0.001875
v 0.15282231 0.067234065 -0.001875
v 0.153072765 0.0674868 -0.001875
v 0.15330789 0.08114745 -0.001875
v 0.153316605 0.067744755 -0.001875
v 0.15373428 0.08119302 -0.001875
v 0.15355512 0.06800673 -0.001875
v 0.15378963 0.06827157 -0.001875
v 0.154165125 0.08123535 -0.001875
v 0.15402144 0.06853809 -0.001875
v 0.15425187 0.068805105 -0.001875
v 0.154600935 0.08127438 -0.001875
v 0.15448221 0.069071445 -0.001875
v 0.15471045 0.06933996 -0.001875
v 0.155043915 0.081310185 -0.001875
v 0.15493275 0.06961512 -0.001875
v 0.1551504 0.069894945 -0.001875
v 0.15549351 0.081342795 -0.001875
v 0.15536466 0.070177365 -0.001875
v 0.155576865 0.070460355 -0.001875
v 0.155949075 0.081372285 -0.001875
v 0.15578829 0.07074186 -0.001875
v 0.156000255 0.07101984 -0.001875
v 0.156409905 0.08139864 -0.001875
v 0.15621402 0.07129227 -0.001875
v 0.156430935 0.07155708 -0.001875
v 0.15687534 0.081421935 -0.001875
v 0.1566522 0.071812305 -0.001875
v 0.15687366 0.07206159 -0.001875
v 0.15709317 0.07230765 -0.001875
v 0.15734466 0.081442215 -0.001875
v 0.15731229 0.072549735 -0.001875
v 0.15753252 0.072787125 -0.001875
v 0.157817205 0.081459495 -0.001875
v 0.15775539 0.073019085 -0.001875
v 0.157982445 0.07324488 -0.001875
v 0.15829227 0.08147382 -0.001875
v 0.1582152 0.073463775 -0.001875
v 0.1584552 0.07367505 -0.001875
v 0.158769195 0.08148525 -0.001875
v 0.15870396 0.073877955 -0.001875
v 0.1589625 0.074071875 -0.001875
v 0.159247275 0.0814938 -0.001875
v 0.15922536 0.074257965 -0.001875
v 0.15949182 0.07443669 -0.001875
v 0.159727065 0.08149935 -0.001875
v 0.15976329 0.074608155 -0.001875
v 0.16021242 0.08150151 -0.001875
v 0.16004121 0.074772435 -0.001875
v 0.16032696 0.07492959 -0.001875
v 0.160702695 0.08150034 -0.001875
v 0.16062201 0.075079725 -0.001875
v 0.160927755 0.075222885 -0.001875
v 0.16119687 0.081496035 -0.001875
v 0.16124559 0.07535916 -0.001875
v 0.16169385 0.081488745 -0.001875
v 0.161576955 0.07548864 -0.001875
v 0.161922585 0.075611235 -0.001875
v 0.16219257 0.081478665 -0.001875
v 0.162279825 0.0757263 -0.001875
v 0.162691965 0.081465945 -0.001875
v 0.162648195 0.075834 -0.001875
v 0.16302759 0.075934575 -0.001875
v 0.163191 0.081450765 -0.001875
v 0.16341792 0.07602828 -0.001875
v 0.163688595 0.081433275 -0.001875
v 0.163819065 0.07611537 -0.001875
v 0.16418367 0.08141367 -0.001875
v 0.16423095 0.076196085 -0.001875
v 0.164675175 0.0813921 -0.001875
v 0.164653425 0.07627068 -0.001875
v 0.16508643 0.076339395 -0.001875
v 0.165163215 0.08136855 -0.001875
v 0.16552986 0.076402515 -0.001875
v 0.16565238 0.08134227 -0.001875
v 0.165985785 0.07645992 -0.001875
v 0.1661424 0.08131329 -0.001875
v 0.166457745 0.07651101 -0.001875
v 0.16663233 0.081281805 -0.001875
v 0.1669437 0.07655586 -0.001875
v 0.16712121 0.08124795 -0.001875
v 0.16744137 0.076594545 -0.001875
v 0.16760805 0.08121189 -0.001875
v 0.16794849 0.07662714 -0.001875
v 0.16809192 0.08117382 -0.001875
v 0.16846278 0.076653735 -0.001875
v 0.16857186 0.081133875 -0.001875
v 0.16898199 0.07667439 -0.001875
v 0.16904691 0.081092205 -0.001875
v 0.16950384 0.07668921 -0.001875
v 0.169516095 0.08104902 -0.001875
v 0.16997847 0.08100444 -0.001875
v 0.170026065 0.07669827 -0.001875
v 0.17043369 0.080958555 -0.001875
v 0.1705464 0.076701645 -0.001875
v 0.170884725 0.08091087 -0.001875
v 0.17107176 0.07669884 -0.001875
v 0.17133183 0.080861355 -0.001875
v 0.17160828 0.07668951 -0.001875
v 0.171774645 0.08081004 -0.001875
v 0.17215245 0.076673955 -0.001875
v 0.17221281 0.080757 -0.001875
v 0.17253816 0.08071608 -0.001875
v 0.17270076 0.076652445 -0.001875
v 0.172860555 0.080674245 -0.001875
v 0.17317983 0.08063148 -0.001875
v 0.173249685 0.076625295 -0.001875
v 0.17349585 0.08058783 -0.001875
v 0.17379576 0.076592775 -0.001875
v 0.17380845 0.080543295 -0.001875
v 0.17411748 0.08049792 -0.001875
v 0.174335445 0.076555215 -0.001875
v 0.17442279 0.08045169 -0.001875
v 0.17472426 0.08040465 -0.001875
v 0.174865245 0.07651287 -0.001875
v 0.17502171 0.080356815 -0.001875
v 0.175315245 0.080307975 -0.001875
v 0.175381665 0.07646604 -0.001875
v 0.175605015 0.080258115 -0.001875
v 0.175881555 0.07641501 -0.001875
v 0.17589111 0.080207265 -0.001875
v 0.17617365 0.080155485 -0.001875
v 0.176371905 0.076359105 -0.001875
v 0.17645274 0.080102775 -0.001875
v 0.17672847 0.08004921 -0.001875
v 0.176855985 0.07629804 -0.001875
v 0.17700096 0.07999482 -0.001875
v 0.177270285 0.07993965 -0.001875
v 0.17733282 0.07623195 -0.001875
v 0.17753658 0.07988373 -0.001875
v 0.177799905 0.079827105 -0.001875
v 0.17780151 0.076160955 -0.001875
v 0.178060395 0.07976982 -0.001875
v 0.17826108 0.076085145 -0.001875
v 0.178318155 0.07971192 -0.001875
v 0.17857326 0.07965345 -0.001875
v 0.17871063 0.07600467 -0.001875
v 0.178825845 0.079594425 -0.001875
v 0.17907573 0.0795348 -0.001875
v 0.1791492 0.075919605 -0.001875
v 0.17932155 0.079474125 -0.001875
v 0.179563365 0.07941237 -0.001875
v 0.179575875 0.0758301 -0.001875
v 0.179801505 0.07934967 -0.001875
v 0.179989665 0.07573626 -0.001875
v 0.180036285 0.079286145 -0.001875
v 0.18026805 0.07922187 -0.001875
v 0.180389925 0.07563801 -0.001875
v 0.180497115 0.079156995 -0.001875
v 0.18072381 0.079091625 -0.001875
v 0.180777855 0.07553412 -0.001875
v 0.180948465 0.079025865 -0.001875
v 0.181154025 0.07542477 -0.001875
v 0.181171425 0.07895982 -0.001875
v 0.181393005 0.07889361 -0.001875
v 0.18151872 0.07531047 -0.001875
v 0.181613535 0.078827355 -0.001875
v 0.181833315 0.078761145 -0.001875
v 0.181872195 0.075191745 -0.001875
v 0.18205272 0.0786951 -0.001875
v 0.182214765 0.075069075 -0.001875
v 0.18227205 0.078629355 -0.001875
v 0.182490585 0.078563505 -0.001875
v 0.182546685 0.074942985 -0.001875
v 0.18270612 0.078496575 -0.001875
v 0.18286824 0.07481397 -0.001875
v 0.182876595 0.078442365 -0.001875
v 0.1830456 0.07838772 -0.001875
v 0.18317967 0.074682555 -0.001875
v 0.183213345 0.078332745 -0.001875
v 0.18338004 0.07827756 -0.001875
v 0.183481305 0.074549235 -0.001875
v 0.183545955 0.0782223 -0.001875
v 0.18371127 0.0781671 -0.001875
v 0.18377241 0.074413095 -0.001875
v 0.18387624 0.07811205 -0.001875
v 0.183959205 0.07431867 -0.001875
v 0.18404109 0.078057315 -0.001875
v 0.18414045 0.074221665 -0.001875
v 0.184206045 0.078002985 -0.001875
v 0.184316445 0.07412253 -0.001875
v 0.184371345 0.07794921 -0.001875
v 0.18448755 0.0740217 -0.001875
v 0.184537185 0.077896095 -0.001875
v 0.18465408 0.07391964 -0.001875
v 0.184703805 0.077843775 -0.001875
v 0.184816395 0.0738168 -0.001875
v 0.184871445 0.07779237 -0.001875
v 0.18497481 0.073713645 -0.001875
v 0.18504033 0.077742 -0.001875
v 0.185129655 0.07361061 -0.001875
v 0.18521067 0.077692815 -0.001875
v 0.18528129 0.07350819 -0.001875
v 0.18538272 0.077644905 -0.001875
v 0.185430015 0.073406775 -0.001875
v 0.18555606 0.077598015 -0.001875
v 0.185576205 0.073306875 -0.001875
v 0.185729415 0.077551335 -0.001875
v 0.185720175 0.07320894 -0.001875
v 0.18586224 0.07311339 -0.001875
v 0.18590283 0.07750491 -0.001875
v 0.18600249 0.073020495 -0.001875
v 0.18607641 0.077458845 -0.001875
v 0.18613791 0.07292808 -0.001875
v 0.186250305 0.077413215 -0.001875
v 0.186268065 0.072835635 -0.001875
v 0.186424605 0.07736814 -0.001875
v 0.18639363 0.07274343 -0.001875
v 0.18651519 0.072651735 -0.001875
v 0.18659943 0.077323695 -0.001875
v 0.18663345 0.07256082 -0.001875
v 0.18677493 0.07728 -0.001875
v 0.186749025 0.07247097 -0.001875
v 0.18686256 0.07238247 -0.001875
v 0.18695118 0.077237145 -0.001875
v 0.187030485 0.07225281 -0.001875
v 0.187128345 0.07719522 -0.001875
v 0.18719745 0.072127695 -0.001875
v 0.1873065 0.077154315 -0.001875
v 0.18736566 0.072008055 -0.001875
v 0.187485795 0.07711455 -0.001875
v 0.187537275 0.07189479 -0.001875
v 0.187666335 0.077076 -0.001875
v 0.187714425 0.07178883 -0.001875
v 0.187848255 0.077038785 -0.001875
v 0.187891275 0.0716886 -0.001875
v 0.188031645 0.07700298 -0.001875
v 0.18806454 0.071592915 -0.001875
v 0.188216655 0.07696869 -0.001875
v 0.188236065 0.071502015 -0.001875
v 0.18840339 0.076936005 -0.001875
v 0.18840774 0.07141623 -0.001875
v 0.188591985 0.07690503 -0.001875
v 0.18858147 0.071335785 -0.001875
v 0.188759085 0.07126098 -0.001875
v 0.18878253 0.076875825 -0.001875
v 0.18894249 0.0711921 -0.001875
v 0.18902343 0.076841025 -0.001875
v 0.189133545 0.071129385 -0.001875
v 0.189267165 0.07680792 -0.001875
v 0.189334125 0.07107312 -0.001875
v 0.189513525 0.076776585 -0.001875
v 0.189545415 0.071023335 -0.001875
v 0.1897623 0.07674711 -0.001875
v 0.18975999 0.07097706 -0.001875
v 0.18997707 0.07093443 -0.001875
v 0.190013265 0.07671957 -0.001875
v 0.190198755 0.07089666 -0.001875
v 0.19026621 0.076694055 -0.001875
v 0.190427145 0.07086501 -0.001875
v 0.190520925 0.076670655 -0.001875
v 0.190664325 0.07084071 -0.001875
v 0.1907772 0.07664943 -0.001875
v 0.190912395 0.070825005 -0.001875
v 0.191034825 0.07663047 -0.001875
v 0.191173485 0.070819155 -0.001875
v 0.19129359 0.076613865 -0.001875
v 0.19144965 0.07082436 -0.001875
v 0.19155327 0.076599705 -0.001875
v 0.191743035 0.07084191 -0.001875
v 0.191813655 0.076588035 -0.001875
v 0.1920543 0.07087143 -0.001875
v 0.192074535 0.076578975 -0.001875
v 0.1923357 0.076572585 -0.001875
v 0.19237818 0.070906785 -0.001875
v 0.19259739 0.076568865 -0.001875
v 0.19271445 0.07094889 -0.001875
v 0.192861915 0.07656741 -0.001875
v 0.193063665 0.07099968 -0.001875
v 0.193129215 0.076568175 -0.001875
v 0.193398795 0.076571205 -0.001875
v 0.193426455 0.07106112 -0.001875
v 0.193670115 0.076576575 -0.001875
v 0.19380339 0.07113516 -0.001875
v 0.19394265 0.076584315 -0.001875
v 0.1941951 0.07122375 -0.001875
v 0.194215905 0.07659447 -0.001875
v 0.194489355 0.076607115 -0.001875
v 0.194602155 0.071328855 -0.001875
v 0.194762445 0.076622295 -0.001875
v 0.19502517 0.071452395 -0.001875
v 0.195034725 0.076640055 -0.001875
v 0.19530561 0.076660425 -0.001875
v 0.195464715 0.071596335 -0.001875
v 0.19557462 0.076683495 -0.001875
v 0.19584123 0.076709295 -0.001875
v 0.195920775 0.071760555 -0.001875
v 0.196104915 0.076737885 -0.001875
v 0.196365165 0.076769295 -0.001875
v 0.19639221 0.071941365 -0.001875
v 0.196622205 0.076803525 -0.001875
v 0.196877625 0.07684041 -0.001875
v 0.19687899 0.072138585 -0.001875
v 0.1971315 0.07687995 -0.001875
v 0.1973811 0.072352245 -0.001875
v 0.197383845 0.07692213 -0.001875
v 0.197634645 0.076966965 -0.001875
v 0.197883915 0.07701444 -0.001875
v 0.197898525 0.072582345 -0.001875
v 0.19813164 0.07706457 -0.001875
v 0.198377805 0.07711734 -0.001875
v 0.19843131 0.072828855 -0.001875
v 0.198622455 0.077172765 -0.001875
v 0.198795 0.07300233 -0.001875
v 0.19886556 0.07723083 -0.001875
v 0.19910712 0.07729155 -0.001875
v 0.1991655 0.073183095 -0.001875
v 0.199426815 0.07737663 -0.001875
v 0.199542825 0.07337118 -0.001875
v 0.19974378 0.077466405 -0.001875
v 0.199926975 0.073566555 -0.001875
v 0.200057985 0.077560905 -0.001875
v 0.20016153 0.077594175 -0.001875
v 0.20027295 0.07762896 -0.001875
v 0.20031792 0.07376922 -0.001875
v 0.20039226 0.0776649 -0.001875
v 0.20051892 0.077699175 -0.001875
v 0.20065491 0.07772913 -0.001875
v 0.20071569 0.073979205 -0.001875
v 0.20080158 0.077752725 -0.001875
v 0.200824395 0.074037915 -0.001875
v 0.20096259 0.077763885 -0.001875
v 0.20093148 0.074104905 -0.001875
v 0.201037245 0.07417986 -0.001875
v 0.201138975 0.077757975 -0.001875
v 0.201142215 0.074262285 -0.001875
v 0.20133453 0.07772976 -0.001875
v 0.201242865 0.074355675 -0.001875
v 0.201338025 0.074462295 -0.001875
v 0.201534015 0.07766766 -0.001875
v 0.201427845 0.074580135 -0.001875
v 0.20151054 0.074707035 -0.001875
v 0.201586365 0.074843295 -0.001875
v 0.201725775 0.07756938 -0.001875
v 0.20165547 0.07498911 -0.001875
v 0.20178996 0.075290715 -0.001875
v 0.201881685 0.07743009 -0.001875
v 0.201913095 0.075596535 -0.001875
v 0.201998145 0.07726239 -0.001875
v 0.201977925 0.075770985 -0.001875
v 0.20203581 0.075948075 -0.001875
v 0.20207355 0.077072595 -0.001875
v 0.20208606 0.076127835 -0.001875
v 0.20211939 0.0768789 -0.001875
v 0.202121715 0.07631043 -0.001875
v 0.202140285 0.07668522 -0.001875
v 0.20214051 0.07649616 -0.001875
v 0.139880415 0.075231135 -0.001875
v 0.144079335 0.07878051 -0.001875
v 0.14372301 0.078598665 -0.001875
v 0.14338083 0.07841346 -0.001875
v 0.143053125 0.078224745 -0.001875
v 0.142741185 0.078031245 -0.001875
v 0.142444335 0.077833395 -0.001875
v 0.14216178 0.07763166 -0.001875
v 0.14189277 0.077426535 -0.001875
v 0.141636525 0.077218515 -0.001875
v 0.141392265 0.07700808 -0.001875
v 0.14115936 0.076795635 -0.001875
v 0.140938755 0.076580595 -0.001875
v 0.140730765 0.07636272 -0.001875
v 0.140535435 0.076142055 -0.001875
v 0.140352735 0.07591854 -0.001875
v 0.14018265 0.075692235 -0.001875
v 0.14002521 0.075463095 -0.001875
v 0.13875 0.0628125 0.001875
v 0.13875 0.0628125 -0.001875
v 0.139446195 0.06282591 -0.001875
v 0.139446195 0.06282591 0.001875
v 0.140124015 0.062847885 -0.001875
v 0.140124015 0.062847885 0.001875
v 0.14078349 0.062878455 -0.001875
v 0.14078349 0.062878455 0.001875
v 0.141424575 0.06291762 -0.001875
v 0.141424575 0.06291762 0.001875
v 0.142047285 0.062965365 -0.001875
v 0.142047285 0.062965365 0.001875
v 0.142651635 0.063021705 -0.001875
v 0.142651635 0.063021705 0.001875
v 0.143237595 0.063086625 -0.001875
v 0.143237595 0.063086625 0.001875
v 0.143805195 0.063160125 -0.001875
v 0.143805195 0.063160125 0.001875
v 0.144354435 0.06324222 -0.001875
v 0.144354435 0.06324222 0.001875
v 0.14488515 0.063332955 -0.001875
v 0.14488515 0.063332955 0.001875
v 0.14539386 0.063433395 -0.001875
v 0.14539386 0.063433395 0.001875
v 0.145880445 0.0635436 -0.001875
v 0.145880445 0.0635436 0.001875
v 0.146346735 0.063662985 -0.001875
v 0.146346735 0.063662985 0.001875
v 0.14679459 0.06379098 -0.001875
v 0.14679459 0.06379098 0.001875
v 0.14722587 0.063927015 -0.001875
v 0.14722587 0.063927015 0.001875
v 0.147642375 0.06407049 -0.001875
v 0.147642375 0.06407049 0.001875
v 0.14804598 0.064220865 -0.001875
v 0.14804598 0.064220865 0.001875
v 0.148438515 0.06437754 -0.001875
v 0.148438515 0.06437754 0.001875
v 0.14882181 0.064539945 -0.001875
v 0.14882181 0.064539945 0.001875
v 0.149196645 0.064707795 -0.001875
v 0.149196645 0.064707795 0.001875
v 0.149556345 0.064882815 -0.001875
v 0.149556345 0.064882815 0.001875
v 0.14990076 0.065065095 -0.001875
v 0.14990076 0.065065095 0.001875
v 0.15023154 0.065254335 -0.001875
v 0.15023154 0.065254335 0.001875
v 0.150550245 0.06545025 -0.001875
v 0.150550245 0.06545025 0.001875
v 0.15085848 0.065652495 -0.001875
v 0.15085848 0.065652495 0.001875
v 0.15115782 0.06586077 -0.001875
v 0.15115782 0.06586077 0.001875
v 0.1514499 0.06607476 -0.001875
v 0.1514499 0.06607476 0.001875
v 0.15173628 0.066294165 -0.001875
v 0.15173628 0.066294165 0.001875
v 0.15201858 0.066518655 -0.001875
v 0.15201858 0.066518655 0.001875
v 0.152296275 0.06674895 -0.001875
v 0.152296275 0.06674895 0.001875
v 0.15256392 0.06698772 -0.001875
v 0.15256392 0.06698772 0.001875
v 0.15282231 0.067234065 -0.001875
v 0.15282231 0.067234065 0.001875
v 0.153072765 0.0674868 -0.001875
v 0.153072765 0.0674868 0.001875
v 0.153316605 0.067744755 -0.001875
v 0.153316605 0.067744755 0.001875
v 0.15355512 0.06800673 -0.001875
v 0.15355512 0.06800673 0.001875
v 0.15378963 0.06827157 -0.001875
v 0.15378963 0.06827157 0.001875
v 0.15402144 0.06853809 -0.001875
v 0.15402144 0.06853809 0.001875
v 0.15425187 0.068805105 -0.001875
v 0.15425187 0.068805105 0.001875
v 0.15448221 0.069071445 -0.001875
v 0.15448221 0.069071445 0.001875
v 0.15471045 0.06933996 -0.001875
v 0.15471045 0.06933996 0.001875
v 0.15493275 0.06961512 -0.001875
v 0.15493275 0.06961512 0.001875
v 0.1551504 0.069894945 -0.001875
v 0.1551504 0.069894945 0.001875
v 0.15536466 0.070177365 -0.001875
v 0.15536466 0.070177365 0.001875
v 0.155576865 0.070460355 -0.001875
v 0.155576865 0.070460355 0.001875
v 0.15578829 0.07074186 -0.001875
v 0.15578829 0.07074186 0.001875
v 0.156000255 0.07101984 -0.001875
v 0.156000255 0.07101984 0.001875
v 0.15621402 0.07129227 -0.001875
v 0.15621402 0.07129227 0.001875
v 0.156430935 0.07155708 -0.001875
v 0.156430935 0.07155708 0.001875
v 0.1566522 0.071812305 -0.001875
v 0.1566522 0.071812305 0.001875
v 0.15687366 0.07206159 -0.001875
v 0.15687366 0.07206159 0.001875
v 0.15709317 0.07230765 -0.001875
v 0.15709317 0.07230765 0.001875
v 0.15731229 0.072549735 -0.001875
v 0.15731229 0.072549735 0.001875
v 0.15753252 0.072787125 -0.001875
v 0.15753252 0.072787125 0.001875
v 0.15775539 0.073019085 -0.001875
v 0.15775539 0.073019085 0.001875
v 0.157982445 0.07324488 -0.001875
v 0.157982445 0.07324488 0.001875
v 0.1582152 0.073463775 -0.001875
v 0.1582152 0.073463775 0.001875
v 0.1584552 0.07367505 -0.001875
v 0.1584552 0.07367505 0.001875
v 0.15870396 0.073877955 -0.001875
v 0.15870396 0.073877955 0.001875
v 0.1589625 0.074071875 -0.001875
v 0.1589625 0.074071875 0.001875
v 0.15922536 0.074257965 -0.001875
v 0.15922536 0.074257965 0.001875
v 0.15949182 0.07443669 -0.001875
v 0.15949182 0.07443669 0.001875
v 0.15976329 0.074608155 -0.001875
v 0.15976329 0.074608155 0.001875
v 0.16004121 0.074772435 -0.001875
v 0.16004121 0.074772435 0.001875
v 0.16032696 0.07492959 -0.001875
v 0.16032696 0.07492959 0.001875
v 0.16062201 0.075079725 -0.001875
v 0.16062201 0.075079725 0.001875
v 0.160927755 0.075222885 -0.001875
v 0.160927755 0.075222885 0.001875
v 0.16124559 0.07535916 -0.001875
v 0.16124559 0.07535916 0.001875
v 0.161576955 0.07548864 -0.001875
v 0.161576955 0.07548864 0.001875
v 0.161922585 0.075611235 -0.001875
v 0.161922585 0.075611235 0.001875
v 0.162279825 0.0757263 -0.001875
v 0.162279825 0.0757263 0.001875
v 0.162648195 0.075834 -0.001875
v 0.162648195 0.075834 0.001875
v 0.16302759 0.075934575 -0.001875
v 0.16302759 0.075934575 0.001875
v 0.16341792 0.07602828 -0.001875
v 0.16341792 0.07602828 0.001875
v 0.163819065 0.07611537 -0.001875
v 0.163819065 0.07611537 0.001875
v 0.16423095 0.076196085 -0.001875
v 0.16423095 0.076196085 0.001875
v 0.164653425 0.07627068 -0.001875
v 0.164653425 0.07627068 0.001875
v 0.16508643 0.076339395 -0.001875
v 0.16508643 0.076339395 0.001875
v 0.16552986 0.076402515 -0.001875
v 0.16552986 0.076402515 0.001875
v 0.165985785 0.07645992 -0.001875
v 0.165985785 0.07645992 0.001875
v 0.166457745 0.07651101 -0.001875
v 0.166457745 0.07651101 0.001875
v 0.1669437 0.07655586 -0.001875
v 0.1669437 0.07655586 0.001875
v 0.16744137 0.076594545 -0.001875
v 0.16744137 0.076594545 0.001875
v 0.16794849 0.07662714 -0.001875
v 0.16794849 0.07662714 0.001875
v 0.16846278 0.076653735 -0.001875
v 0.16846278 0.076653735 0.001875
v 0.16898199 0.07667439 -0.001875
v 0.16898199 0.07667439 0.001875
v 0.16950384 0.07668921 -0.001875
v 0.16950384 0.07668921 0.001875
v 0.170026065 0.07669827 -0.001875
v 0.170026065 0.07669827 0.001875
v 0.1705464 0.076701645 -0.001875
v 0.1705464 0.076701645 0.001875
v 0.17107176 0.07669884 -0.001875
v 0.17107176 0.07669884 0.001875
v 0.17160828 0.07668951 -0.001875
v 0.17160828 0.07668951 0.001875
v 0.17215245 0.076673955 -0.001875
v 0.17215245 0.076673955 0.001875
v 0.17270076 0.076652445 -0.001875
v 0.17270076 0.076652445 0.001875
v 0.173249685 0.076625295 -0.001875
v 0.173249685 0.076625295 0.001875
v 0.17379576 0.076592775 -0.001875
v 0.17379576 0.076592775 0.001875
v 0.174335445 0.076555215 -0.001875
v 0.174335445 0.076555215 0.001875
v 0.174865245 0.07651287 -0.001875
v 0.174865245 0.07651287 0.001875
v 0.175381665 0.07646604 -0.001875
v 0.175381665 0.07646604 0.001875
v 0.175881555 0.07641501 -0.001875
v 0.175881555 0.07641501 0.001875
v 0.176371905 0.076359105 -0.001875
v 0.176371905 0.076359105 0.001875
v 0.176855985 0.07629804 -0.001875
v 0.176855985 0.07629804 0.001875
v 0.17733282 0.07623195 -0.001875
v 0.17733282 0.07623195 0.001875
v 0.17780151 0.076160955 -0.001875
v 0.17780151 0.076160955 0.001875
v 0.17826108 0.076085145 -0.001875
v 0.17826108 0.076085145 0.001875
v 0.17871063 0.07600467 -0.001875
v 0.17871063 0.07600467 0.001875
v 0.1791492 0.075919605 -0.001875
v 0.1791492 0.075919605 0.001875
v 0.179575875 0.0758301 -0.001875
v 0.179575875 0.0758301 0.001875
v 0.179989665 0.07573626 -0.001875
v 0.179989665 0.07573626 0.001875
v 0.180389925 0.07563801 -0.001875
v 0.180389925 0.07563801 0.001875
v 0.180777855 0.07553412 -0.001875
v 0.180777855 0.07553412 0.001875
v 0.181154025 0.07542477 -0.001875
v 0.181154025 0.07542477 0.001875
v 0.18151872 0.07531047 -0.001875
v 0.18151872 0.07531047 0.001875
v 0.181872195 0.075191745 -0.001875
v 0.181872195 0.075191745 0.001875
v 0.182214765 0.075069075 -0.001875
v 0.182214765 0.075069075 0.001875
v 0.182546685 0.074942985 -0.001875
v 0.182546685 0.074942985 0.001875
v 0.18286824 0.07481397 -0.001875
v 0.18286824 0.07481397 0.001875
v 0.18317967 0.074682555 -0.001875
v 0.18317967 0.074682555 0.001875
v 0.183481305 0.074549235 -0.001875
v 0.183481305 0.074549235 0.001875
v 0.18377241 0.074413095 -0.001875
v 0.18377241 0.074413095 0.001875
v 0.183959205 0.07431867 -0.001875
v 0.183959205 0.07431867 0.001875
v 0.18414045 0.074221665 -0.001875
v 0.18414045 0.074221665 0.001875
v 0.184316445 0.07412253 -0.001875
v 0.184316445 0.07412253 0.001875
v 0.18448755 0.0740217 -0.001875
v 0.18448755 0.0740217 0.001875
v 0.18465408 0.07391964 -0.001875
v 0.18465408 0.07391964 0.001875
v 0.184816395 0.0738168 -0.001875
v 0.184816395 0.0738168 0.001875
v 0.18497481 0.073713645 -0.001875
v 0.18497481 0.073713645 0.001875
v 0.185129655 0.07361061 -0.001875
v 0.185129655 0.07361061 0.001875
v 0.18528129 0.07350819 -0.001875
v 0.18528129 0.07350819 0.001875
v 0.185430015 0.073406775 -0.001875
v 0.185430015 0.073406775 0.001875
v 0.185576205 0.073306875 -0.001875
v 0.185576205 0.073306875 0.001875
v 0.185720175 0.07320894 -0.001875
v 0.185720175 0.07320894 0.001875
v 0.18586224 0.07311339 -0.001875
v 0.18586224 0.07311339 0.001875
v 0.18600249 0.073020495 -0.001875
v 0.18600249 0.073020495 0.001875
v 0.18613791 0.07292808 -0.001875
v 0.18613791 0.07292808 0.001875
v 0.186268065 0.072835635 -0.001875
v 0.186268065 0.072835635 0.001875
v 0.18639363 0.07274343 -0.001875
v 0.18639363 0.07274343 0.001875
v 0.18651519 0.072651735 -0.001875
v 0.18651519 0.072651735 0.001875
v 0.18663345 0.07256082 -0.001875
v 0.18663345 0.07256082 0.001875
v 0.186749025 0.07247097 -0.001875
v 0.186749025 0.07247097 0.001875
v 0.18686256 0.07238247 -0.001875
v 0.18686256 0.07238247 0.001875
v 0.187030485 0.07225281 -0.001875
v 0.187030485 0.07225281 0.001875
v 0.18719745 0.072127695 -0.001875
v 0.18719745 0.072127695 0.001875
v 0.18736566 0.072008055 -0.001875
v 0.18736566 0.072008055 0.001875
v 0.187537275 0.07189479 -0.001875
v 0.187537275 0.07189479 0.001875
v 0.187714425 0.07178883 -0.001875
v 0.187714425 0.07178883 0.001875
v 0.187891275 0.0716886 -0.001875
v 0.187891275 0.0716886 0.001875
v 0.18806454 0.071592915 -0.001875
v 0.18806454 0.071592915 0.001875
v 0.188236065 0.071502015 -0.001875
v 0.188236065 0.071502015 0.001875
v 0.18840774 0.07141623 -0.001875
v 0.18840774 0.07141623 0.001875
v 0.18858147 0.071335785 -0.001875
v 0.18858147 0.071335785 0.001875
v 0.188759085 0.07126098 -0.001875
v 0.188759085 0.07126098 0.001875
v 0.18894249 0.0711921 -0.001875
v 0.18894249 0.0711921 0.001875
v 0.189133545 0.071129385 -0.001875
v 0.189133545 0.071129385 0.001875
v 0.189334125 0.07107312 -0.001875
v 0.189334125 0.07107312 0.001875
v 0.189545415 0.071023335 -0.001875
v 0.189545415 0.071023335 0.001875
v 0.18975999 0.07097706 -0.001875
v 0.18975999 0.07097706 0.001875
v 0.18997707 0.07093443 -0.001875
v 0.18997707 0.07093443 0.001875
v 0.190198755 0.07089666 -0.001875
v 0.190198755 0.07089666 0.001875
v 0.190427145 0.07086501 -0.001875
v 0.190427145 0.07086501 0.001875
v 0.190664325 0.07084071 -0.001875
v 0.190664325 0.07084071 0.001875
v 0.190912395 0.070825005 -0.001875
v 0.190912395 0.070825005 0.001875
v 0.191173485 0.070819155 -0.001875
v 0.191173485 0.070819155 0.001875
v 0.19144965 0.07082436 -0.001875
v 0.19144965 0.07082436 0.001875
v 0.191743035 0.07084191 -0.001875
v 0.191743035 0.07084191 0.001875
v 0.1920543 0.07087143 -0.001875
v 0.1920543 0.07087143 0.001875
v 0.19237818 0.070906785 -0.001875
v 0.19237818 0.070906785 0.001875
v 0.19271445 0.07094889 -0.001875
v 0.19271445 0.07094889 0.001875
v 0.193063665 0.07099968 -0.001875
v 0.193063665 0.07099968 0.001875
v 0.193426455 0.07106112 -0.001875
v 0.193426455 0.07106112 0.001875
v 0.19380339 0.07113516 -0.001875
v 0.19380339 0.07113516 0.001875
v 0.1941951 0.07122375 -0.001875
v 0.1941951 0.07122375 0.001875
v 0.194602155 0.071328855 -0.001875
v 0.194602155 0.071328855 0.001875
v 0.19502517 0.071452395 -0.001875
v 0.19502517 0.071452395 0.001875
v 0.195464715 0.071596335 -0.001875
v 0.195464715 0.071596335 0.001875
v 0.195920775 0.071760555 -0.001875
v 0.195920775 0.071760555 0.001875
v 0.19639221 0.071941365 -0.001875
v 0.19639221 0.071941365 0.001875
v 0.19687899 0.072138585 -0.001875
v 0.19687899 0.072138585 0.001875
v 0.1973811 0.072352245 -0.001875
v 0.1973811 0.072352245 0.001875
v 0.197898525 0.072582345 -0.001875
v 0.197898525 0.072582345 0.001875
v 0.19843131 0.072828855 -0.001875
v 0.19843131 0.072828855 0.001875
v 0.198795 0.07300233 -0.001875
v 0.198795 0.07300233 0.001875
v 0.1991655 0.073183095 -0.001875
v 0.1991655 0.073183095 0.001875
v 0.199542825 0.07337118 -0.001875
v 0.199542825 0.07337118 0.001875
v 0.199926975 0.073566555 -0.001875
v 0.199926975 0.073566555 0.001875
v 0.20031792 0.07376922 -0.001875
v 0.20031792 0.07376922 0.001875
v 0.20071569 0.073979205 -0.001875
v 0.20071569 0.073979205 0.001875
v 0.200824395 0.074037915 -0.001875
v 0.200828145 0.07403739 0.001875
v 0.20093148 0.074104905 -0.001875
v 0.20093739 0.074105085 0.001875
v 0.201037245 0.07417986 -0.001875
v 0.20104344 0.074182275 0.001875
v 0.201142215 0.074262285 -0.001875
v 0.20114691 0.074268975 0.001875
v 0.201242865 0.074355675 -0.001875
v 0.2012484 0.074365185 0.001875
v 0.201338025 0.074462295 -0.001875
v 0.201344865 0.074470905 0.001875
v 0.201427845 0.074580135 -0.001875
v 0.201433275 0.074586165 0.001875
v 0.20151054 0.074707035 -0.001875
v 0.20151417 0.07471095 0.001875
v 0.201586365 0.074843295 -0.001875
v 0.201588255 0.074845275 0.001875
v 0.20165547 0.07498911 -0.001875
v 0.20165547 0.07498911 0.001875
v 0.20178996 0.075290715 -0.001875
v 0.20178996 0.075290715 0.001875
v 0.201913095 0.075596535 -0.001875
v 0.201913095 0.075596535 0.001875
v 0.201977925 0.075770985 -0.001875
v 0.2019765 0.075766725 0.001875
v 0.202033125 0.075939525 0.001875
v 0.20203581 0.075948075 -0.001875
v 0.202083015 0.076114935 0.001875
v 0.20208606 0.076127835 -0.001875
v 0.202118925 0.07629387 0.001875
v 0.202121715 0.07631043 -0.001875
v 0.202139385 0.07647537 0.001875
v 0.20214051 0.07649616 -0.001875
v 0.20214162 0.07665795 0.001875
v 0.202140285 0.07668522 -0.001875
v 0.20212491 0.076841865 0.001875
v 0.20211939 0.0768789 -0.001875
v 0.20208795 0.077026815 0.001875
v 0.20207355 0.077072595 -0.001875
v 0.20202138 0.07721304 0.001875
v 0.201998145 0.07726239 -0.001875
v 0.201917265 0.077388195 0.001875
v 0.201881685 0.07743009 -0.001875
v 0.201843495 0.077467725 0.001875
v 0.201725775 0.07756938 -0.001875
v 0.20175981 0.077540595 0.001875
v 0.20158458 0.077649 0.001875
v 0.201534015 0.07766766 -0.001875
v 0.20140008 0.077712555 0.001875
v 0.20133453 0.07772976 -0.001875
v 0.201225855 0.077748975 0.001875
v 0.201138975 0.077757975 -0.001875
v 0.20106111 0.07776336 0.001875
v 0.20096259 0.077763885 -0.001875
v 0.200908035 0.07776144 0.001875
v 0.20080158 0.077752725 -0.001875
v 0.20076492 0.077747895 0.001875
v 0.20065491 0.07772913 -0.001875
v 0.200631015 0.07772448 0.001875
v 0.20051892 0.077699175 -0.001875
v 0.200504295 0.07769532 0.001875
v 0.20039226 0.0776649 -0.001875
v 0.200383755 0.077662485 0.001875
v 0.20027295 0.07762896 -0.001875
v 0.200268495 0.07762755 0.001875
v 0.20016153 0.077594175 -0.001875
v 0.20015991 0.07759371 0.001875
v 0.200057985 0.077560905 -0.001875
v 0.200057985 0.077560905 0.001875
v 0.19974378 0.077466405 -0.001875
v 0.19974378 0.077466405 0.001875
v 0.199426815 0.07737663 -0.001875
v 0.199426815 0.07737663 0.001875
v 0.19910712 0.07729155 -0.001875
v 0.19910712 0.07729155 0.001875
v 0.19886556 0.07723083 -0.001875
v 0.19886556 0.07723083 0.001875
v 0.198622455 0.077172765 -0.001875
v 0.198622455 0.077172765 0.001875
v 0.198377805 0.07711734 -0.001875
v 0.198377805 0.07711734 0.001875
v 0.19813164 0.07706457 -0.001875
v 0.19813164 0.07706457 0.001875
v 0.197883915 0.07701444 -0.001875
v 0.197883915 0.07701444 0.001875
v 0.197634645 0.076966965 -0.001875
v 0.197634645 0.076966965 0.001875
v 0.197383845 0.07692213 -0.001875
v 0.197383845 0.07692213 0.001875
v 0.1971315 0.07687995 -0.001875
v 0.1971315 0.07687995 0.001875
v 0.196877625 0.07684041 -0.001875
v 0.196877625 0.07684041 0.001875
v 0.196622205 0.076803525 -0.001875
v 0.196622205 0.076803525 0.001875
v 0.196365165 0.076769295 -0.001875
v 0.196365165 0.076769295 0.001875
v 0.196104915 0.076737885 -0.001875
v 0.196104915 0.076737885 0.001875
v 0.19584123 0.076709295 -0.001875
v 0.19584123 0.076709295 0.001875
v 0.19557462 0.076683495 -0.001875
v 0.19557462 0.076683495 0.001875
v 0.19530561 0.076660425 -0.001875
v 0.19530561 0.076660425 0.001875
v 0.195034725 0.076640055 -0.001875
v 0.195034725 0.076640055 0.001875
v 0.194762445 0.076622295 -0.001875
v 0.194762445 0.076622295 0.001875
v 0.194489355 0.076607115 -0.001875
v 0.194489355 0.076607115 0.001875
v 0.194215905 0.07659447 -0.001875
v 0.194215905 0.07659447 0.001875
v 0.19394265 0.076584315 -0.001875
v 0.19394265 0.076584315 0.001875
v 0.193670115 0.076576575 -0.001875
v 0.193670115 0.076576575 0.001875
v 0.193398795 0.076571205 -0.001875
v 0.193398795 0.076571205 0.001875
v 0.193129215 0.076568175 -0.001875
v 0.193129215 0.076568175 0.001875
v 0.192861915 0.07656741 -0.001875
v 0.192861915 0.07656741 0.001875
v 0.19259739 0.076568865 -0.001875
v 0.19259739 0.076568865 0.001875
v 0.1923357 0.076572585 -0.001875
v 0.1923357 0.076572585 0.001875
v 0.192074535 0.076578975 -0.001875
v 0.192074535 0.076578975 0.001875
v 0.191813655 0.076588035 -0.001875
v 0.191813655 0.076588035 0.001875
v 0.19155327 0.076599705 -0.001875
v 0.19155327 0.076599705 0.001875
v 0.19129359 0.076613865 -0.001875
v 0.19129359 0.076613865 0.001875
v 0.191034825 0.07663047 -0.001875
v 0.191034825 0.07663047 0.001875
v 0.1907772 0.07664943 -0.001875
v 0.1907772 0.07664943 0.001875
v 0.190520925 0.076670655 -0.001875
v 0.190520925 0.076670655 0.001875
v 0.19026621 0.076694055 -0.001875
v 0.19026621 0.076694055 0.001875
v 0.190013265 0.07671957 -0.001875
v 0.190013265 0.07671957 0.001875
v 0.1897623 0.07674711 -0.001875
v 0.1897623 0.07674711 0.001875
v 0.189513525 0.076776585 -0.001875
v 0.189513525 0.076776585 0.001875
v 0.189267165 0.07680792 -0.001875
v 0.189267165 0.07680792 0.001875
v 0.18902343 0.076841025 -0.001875
v 0.18902343 0.076841025 0.001875
v 0.18878253 0.076875825 -0.001875
v 0.18878253 0.076875825 0.001875
v 0.188591985 0.07690503 -0.001875
v 0.188591985 0.07690503 0.001875
v 0.18840339 0.076936005 -0.001875
v 0.18840339 0.076936005 0.001875
v 0.188216655 0.07696869 -0.001875
v 0.188216655 0.07696869 0.001875
v 0.188031645 0.07700298 -0.001875
v 0.188031645 0.07700298 0.001875
v 0.187848255 0.077038785 -0.001875
v 0.187848255 0.077038785 0.001875
v 0.187666335 0.077076 -0.001875
v 0.187666335 0.077076 0.001875
v 0.187485795 0.07711455 -0.001875
v 0.187485795 0.07711455 0.001875
v 0.1873065 0.077154315 -0.001875
v 0.1873065 0.077154315 0.001875
v 0.187128345 0.07719522 -0.001875
v 0.187128345 0.07719522 0.001875
v 0.18695118 0.077237145 -0.001875
v 0.18695118 0.077237145 0.001875
v 0.18677493 0.07728 -0.001875
v 0.18677493 0.07728 0.001875
v 0.18659943 0.077323695 -0.001875
v 0.18659943 0.077323695 0.001875
v 0.186424605 0.07736814 -0.001875
v 0.186424605 0.07736814 0.001875
v 0.186250305 0.077413215 -0.001875
v 0.186250305 0.077413215 0.001875
v 0.18607641 0.077458845 -0.001875
v 0.18607641 0.077458845 0.001875
v 0.18590283 0.07750491 -0.001875
v 0.18590283 0.07750491 0.001875
v 0.185729415 0.077551335 -0.001875
v 0.185729415 0.077551335 0.001875
v 0.18555606 0.077598015 -0.001875
v 0.18555606 0.077598015 0.001875
v 0.18538272 0.077644905 -0.001875
v 0.18538272 0.077644905 0.001875
v 0.18521067 0.077692815 -0.001875
v 0.18521067 0.077692815 0.001875
v 0.18504033 0.077742 -0.001875
v 0.18504033 0.077742 0.001875
v 0.184871445 0.07779237 -0.001875
v 0.184871445 0.07779237 0.001875
v 0.184703805 0.077843775 -0.001875
v 0.184703805 0.077843775 0.001875
v 0.184537185 0.077896095 -0.001875
v 0.184537185 0.077896095 0.001875
v 0.184371345 0.07794921 -0.001875
v 0.184371345 0.07794921 0.001875
v 0.184206045 0.078002985 -0.001875
v 0.184206045 0.078002985 0.001875
v 0.18404109 0.078057315 -0.001875
v 0.18404109 0.078057315 0.001875
v 0.18387624 0.07811205 -0.001875
v 0.18387624 0.07811205 0.001875
v 0.18371127 0.0781671 -0.001875
v 0.18371127 0.0781671 0.001875
v 0.183545955 0.0782223 -0.001875
v 0.183545955 0.0782223 0.001875
v 0.18338004 0.07827756 -0.001875
v 0.18338004 0.07827756 0.001875
v 0.183213345 0.078332745 -0.001875
v 0.183213345 0.078332745 0.001875
v 0.1830456 0.07838772 -0.001875
v 0.1830456 0.07838772 0.001875
v 0.182876595 0.078442365 -0.001875
v 0.182876595 0.078442365 0.001875
v 0.18270612 0.078496575 -0.001875
v 0.18270612 0.078496575 0.001875
v 0.182490585 0.078563505 -0.001875
v 0.182490585 0.078563505 0.001875
v 0.18227205 0.078629355 -0.001875
v 0.18227205 0.078629355 0.001875
v 0.18205272 0.0786951 -0.001875
v 0.18205272 0.0786951 0.001875
v 0.181833315 0.078761145 -0.001875
v 0.181833315 0.078761145 0.001875
v 0.181613535 0.078827355 -0.001875
v 0.181613535 0.078827355 0.001875
v 0.181393005 0.07889361 -0.001875
v 0.181393005 0.07889361 0.001875
v 0.181171425 0.07895982 -0.001875
v 0.181171425 0.07895982 0.001875
v 0.180948465 0.079025865 -0.001875
v 0.180948465 0.079025865 0.001875
v 0.18072381 0.079091625 -0.001875
v 0.18072381 0.079091625 0.001875
v 0.180497115 0.079156995 -0.001875
v 0.180497115 0.079156995 0.001875
v 0.18026805 0.07922187 -0.001875
v 0.18026805 0.07922187 0.001875
v 0.180036285 0.079286145 -0.001875
v 0.180036285 0.079286145 0.001875
v 0.179801505 0.07934967 -0.001875
v 0.179801505 0.07934967 0.001875
v 0.179563365 0.07941237 -0.001875
v 0.179563365 0.07941237 0.001875
v 0.17932155 0.079474125 -0.001875
v 0.17932155 0.079474125 0.001875
v 0.17907573 0.0795348 -0.001875
v 0.17907573 0.0795348 0.001875
v 0.178825845 0.079594425 -0.001875
v 0.178825845 0.079594425 0.001875
v 0.17857326 0.07965345 -0.001875
v 0.17857326 0.07965345 0.001875
v 0.178318155 0.07971192 -0.001875
v 0.178318155 0.07971192 0.001875
v 0.178060395 0.07976982 -0.001875
v 0.178060395 0.07976982 0.001875
v 0.177799905 0.079827105 -0.001875
v 0.177799905 0.079827105 0.001875
v 0.17753658 0.07988373 -0.001875
v 0.17753658 0.07988373 0.001875
v 0.177270285 0.07993965 -0.001875
v 0.177270285 0.07993965 0.001875
v 0.17700096 0.07999482 -0.001875
v 0.17700096 0.07999482 0.001875
v 0.17672847 0.08004921 -0.001875
v 0.17672847 0.08004921 0.001875
v 0.17645274 0.080102775 -0.001875
v 0.17645274 0.080102775 0.001875
v 0.17617365 0.080155485 -0.001875
v 0.17617365 0.080155485 0.001875
v 0.17589111 0.080207265 -0.001875
v 0.17589111 0.080207265 0.001875
v 0.175605015 0.080258115 -0.001875
v 0.175605015 0.080258115 0.001875
v 0.175315245 0.080307975 -0.001875
v 0.175315245 0.080307975 0.001875
v 0.17502171 0.080356815 -0.001875
v 0.17502171 0.080356815 0.001875
v 0.17472426 0.08040465 -0.001875
v 0.17472426 0.08040465 0.001875
v 0.17442279 0.08045169 -0.001875
v 0.17442279 0.08045169 0.001875
v 0.17411748 0.08049792 -0.001875
v 0.17411748 0.08049792 0.001875
v 0.17380845 0.080543295 -0.001875
v 0.17380845 0.080543295 0.001875
v 0.17349585 0.08058783 -0.001875
v 0.17349585 0.08058783 0.001875
v 0.17317983 0.08063148 -0.001875
v 0.17317983 0.08063148 0.001875
v 0.172860555 0.080674245 -0.001875
v 0.172860555 0.080674245 0.001875
v 0.17253816 0.08071608 -0.001875
v 0.17253816 0.08071608 0.001875
v 0.17221281 0.080757 -0.001875
v 0.17221281 0.080757 0.001875
v 0.171774645 0.08081004 -0.001875
v 0.171774645 0.08081004 0.001875
v 0.17133183 0.080861355 -0.001875
v 0.17133183 0.080861355 0.001875
v 0.170884725 0.08091087 -0.001875
v 0.170884725 0.08091087 0.001875
v 0.17043369 0.080958555 -0.001875
v 0.17043369 0.080958555 0.001875
v 0.16997847 0.08100444 -0.001875
v 0.16997847 0.08100444 0.001875
v 0.169516095 0.08104902 -0.001875
v 0.169516095 0.08104902 0.001875
v 0.16904691 0.081092205 -0.001875
v 0.16904691 0.081092205 0.001875
v 0.16857186 0.081133875 -0.001875
v 0.16857186 0.081133875 0.001875
v 0.16809192 0.08117382 -0.001875
v 0.16809192 0.08117382 0.001875
v 0.16760805 0.08121189 -0.001875
v 0.16760805 0.08121189 0.001875
v 0.16712121 0.08124795 -0.001875
v 0.16712121 0.08124795 0.001875
v 0.16663233 0.081281805 -0.001875
v 0.16663233 0.081281805 0.001875
v 0.1661424 0.08131329 -0.001875
v 0.1661424 0.08131329 0.001875
v 0.16565238 0.08134227 -0.001875
v 0.16565238 0.08134227 0.001875
v 0.165163215 0.08136855 -0.001875
v 0.165163215 0.08136855 0.001875
v 0.164675175 0.0813921 -0.001875
v 0.164675175 0.0813921 0.001875
v 0.16418367 0.08141367 -0.001875
v 0.16418367 0.08141367 0.001875
v 0.163688595 0.081433275 -0.001875
v 0.163688595 0.081433275 0.001875
v 0.163191 0.081450765 -0.001875
v 0.163191 0.081450765 0.001875
v 0.162691965 0.081465945 -0.001875
v 0.162691965 0.081465945 0.001875
v 0.16219257 0.081478665 -0.001875
v 0.16219257 0.081478665 0.001875
v 0.16169385 0.081488745 -0.001875
v 0.16169385 0.081488745 0.001875
v 0.16119687 0.081496035 -0.001875
v 0.16119687 0.081496035 0.001875
v 0.160702695 0.08150034 -0.001875
v 0.160702695 0.08150034 0.001875
v 0.16021242 0.08150151 -0.001875
v 0.16021242 0.08150151 0.001875
v 0.159727065 0.08149935 -0.001875
v 0.159727065 0.08149935 0.001875
v 0.159247275 0.0814938 -0.001875
v 0.159247275 0.0814938 0.001875
v 0.158769195 0.08148525 -0.001875
v 0.158769195 0.08148525 0.001875
v 0.15829227 0.08147382 -0.001875
v 0.15829227 0.08147382 0.001875
v 0.157817205 0.081459495 -0.001875
v 0.157817205 0.081459495 0.001875
v 0.15734466 0.081442215 -0.001875
v 0.15734466 0.081442215 0.001875
v 0.15687534 0.081421935 -0.001875
v 0.15687534 0.081421935 0.001875
v 0.156409905 0.08139864 -0.001875
v 0.156409905 0.08139864 0.001875
v 0.155949075 0.081372285 -0.001875
v 0.155949075 0.081372285 0.001875
v 0.15549351 0.081342795 -0.001875
v 0.15549351 0.081342795 0.001875
v 0.155043915 0.081310185 -0.001875
v 0.155043915 0.081310185 0.001875
v 0.154600935 0.08127438 -0.001875
v 0.154600935 0.08127438 0.001875
v 0.154165125 0.08123535 -0.001875
v 0.154165125 0.08123535 0.001875
v 0.15373428 0.08119302 -0.001875
v 0.15373428 0.08119302 0.001875
v 0.15330789 0.08114745 -0.001875
v 0.15330789 0.08114745 0.001875
v 0.152886285 0.08109867 -0.001875
v 0.152886285 0.08109867 0.001875
v 0.15246984 0.081046755 -0.001875
v 0.15246984 0.081046755 0.001875
v 0.151855545 0.08096316 -0.001875
v 0.151855545 0.08096316 0.001875
v 0.15125478 0.08087289 -0.001875
v 0.15125478 0.08087289 0.001875
v 0.1506687 0.08077614 -0.001875
v 0.1506687 0.08077614 0.001875
v 0.15009846 0.080673135 -0.001875
v 0.15009846 0.080673135 0.001875
v 0.14954478 0.08056389 -0.001875
v 0.14954478 0.08056389 0.001875
v 0.149005725 0.08044752 -0.001875
v 0.149005725 0.08044752 0.001875
v 0.148481145 0.08032428 -0.001875
v 0.148481145 0.08032428 0.001875
v 0.14797131 0.080194575 -0.001875
v 0.14797131 0.080194575 0.001875
v 0.147476475 0.080058885 -0.001875
v 0.147476475 0.080058885 0.001875
v 0.146996925 0.07991763 -0.001875
v 0.146996925 0.07991763 0.001875
v 0.14653293 0.079771245 -0.001875
v 0.14653293 0.079771245 0.001875
v 0.14608476 0.079620165 -0.001875
v 0.14608476 0.079620165 0.001875
v 0.14565264 0.079463355 -0.001875
v 0.14565264 0.079463355 0.001875
v 0.145236405 0.07930044 -0.001875
v 0.145236405 0.07930044 0.001875
v 0.144835665 0.07913196 -0.001875
v 0.144835665 0.07913196 0.001875
v 0.14445009 0.07895847 -0.001875
v 0.14445009 0.07895847 0.001875
v 0.144079335 0.07878051 -0.001875
v 0.144079335 0.07878051 0.001875
v 0.14372301 0.078598665 -0.001875
v 0.14372301 0.078598665 0.001875
v 0.14338083 0.07841346 -0.001875
v 0.14338083 0.07841346 0.001875
v 0.143053125 0.078224745 -0.001875
v 0.143053125 0.078224745 0.001875
v 0.142741185 0.078031245 -0.001875
v 0.142741185 0.078031245 0.001875
v 0.142444335 0.077833395 -0.001875
v 0.142444335 0.077833395 0.001875
v 0.14216178 0.07763166 -0.001875
v 0.14216178 0.07763166 0.001875
v 0.14189277 0.077426535 -0.001875
v 0.14189277 0.077426535 0.001875
v 0.141636525 0.077218515 -0.001875
v 0.141636525 0.077218515 0.001875
v 0.141392265 0.07700808 -0.001875
v 0.141392265 0.07700808 0.001875
v 0.14115936 0.076795635 -0.001875
v 0.14115936 0.076795635 0.001875
v 0.140938755 0.076580595 -0.001875
v 0.140938755 0.076580595 0.001875
v 0.140730765 0.07636272 -0.001875
v 0.140730765 0.07636272 0.001875
v 0.140535435 0.076142055 -0.001875
v 0.140535435 0.076142055 0.001875
v 0.140352735 0.07591854 -0.001875
v 0.140352735 0.07591854 0.001875
v 0.14018265 0.075692235 -0.001875
v 0.14018265 0.075692235 0.001875
v 0.14002521 0.075463095 -0.001875
v 0.14002521 0.075463095 0.001875
v 0.139880415 0.075231135 -0.001875
v 0.139880415 0.075231135 0.001875
v 0.13875 0.068398155 -0.00044412
v 0.13875 0.07109265 -0.001875
v 0.13875 0.0628125 -0.001875
v 0.13875 0.06852444 -0.000379605
v 0.13875 0.06825 -0.00046875
v 0.13875 0.068101845 -0.00044412
v 0.13875 0.067975545 -0.000379605
v 0.13875 0.067870395 -0.000274455
v 0.13875 0.06780507 -0.00014514
v 0.13875 0.06778125 0
v 0.13875 0.06477444 -0.000379605
v 0.13875 0.064879605 -0.000274455
v 0.13875 0.064648155 -0.00044412
v 0.13875 0.0645 -0.00046875
v 0.13875 0.064351845 -0.00044412
v 0.13875 0.064225545 -0.000379605
v 0.13875 0.064120395 -0.000274455
v 0.13875 0.06405507 -0.00014514
v 0.13875 0.06403125 0
v 0.13875 0.06405507 0.00014514
v 0.13875 0.064120395 0.000274455
v 0.13875 0.0628125 0.001875
v 0.13875 0.064225545 0.000379605
v 0.13875 0.064351845 0.00044412
v 0.13875 0.07109265 0.001875
v 0.13875 0.0645 0.00046875
v 0.13875 0.064648155 0.00044412
v 0.13875 0.06477444 0.000379605
v 0.13875 0.064879605 0.000274455
v 0.13875 0.06494493 0.00014514
v 0.13875 0.06496875 0
v 0.13875 0.068101845 0.00044412
v 0.13875 0.06825 0.00046875
v 0.13875 0.067975545 0.000379605
v 0.13875 0.067870395 0.000274455
v 0.13875 0.06780507 0.00014514
v 0.13875 0.06494493 -0.00014514
v 0.13875 0.068398155 0.00044412
v 0.13875 0.06852444 0.000379605
v 0.13875 0.068629605 0.000274455
v 0.13875 0.06869493 0.00014514
v 0.13875 0.06871875 0
v 0.13875 0.06869493 -0.00014514
v 0.13875 0.068629605 -0.000274455
v 0.138756105 0.07141482 0.001875
v 0.138756105 0.07141482 -0.001875
v 0.138772695 0.071730705 0.001875
v 0.138772695 0.071730705 -0.001875
v 0.13879977 0.072040305 0.001875
v 0.13879977 0.072040305 -0.001875
v 0.138837285 0.072343635 0.001875
v 0.138837285 0.072343635 -0.001875
v 0.1388853 0.07264068 0.001875
v 0.1388853 0.07264068 -0.001875
v 0.13894377 0.072931455 0.001875
v 0.13894377 0.072931455 -0.001875
v 0.13901271 0.073215945 0.001875
v 0.13901271 0.073215945 -0.001875
v 0.139092135 0.07349415 0.001875
v 0.139092135 0.07349415 -0.001875
v 0.139880415 0.075231135 0.001875
v 0.139880415 0.075231135 -0.001875
v 0.14474721 0.07182339 -0.001875
v 0.14474721 0.07182339 0.001875
v 0.14367174 0.07028748 0.001875
v 0.14474721 0.07182339 -0.001875
v 0.14367174 0.07028748 -0.001875
v 0.14474721 0.07182339 0.001875
v 0.14367174 0.07028748 0.001875
v 0.14367174 0.07028748 -0.001875
v 0.139092135 0.07349415 -0.001875
v 0.139092135 0.07349415 0.001875
v 0.139446195 0.06282591 0.001875
v 0.13875 0.07109265 0.001875
v 0.13875 0.0628125 0.001875
v 0.138756105 0.07141482 0.001875
v 0.138772695 0.071730705 0.001875
v 0.13879977 0.072040305 0.001875
v 0.138837285 0.072343635 0.001875
v 0.1388853 0.07264068 0.001875
v 0.13894377 0.072931455 0.001875
v 0.13901271 0.073215945 0.001875
v 0.139092135 0.07349415 0.001875
v 0.140124015 0.062847885 0.001875
v 0.14078349 0.062878455 0.001875
v 0.141424575 0.06291762 0.001875
v 0.142047285 0.062965365 0.001875
v 0.142651635 0.063021705 0.001875
v 0.143237595 0.063086625 0.001875
v 0.14367174 0.07028748 0.001875
v 0.143805195 0.063160125 0.001875
v 0.144354435 0.06324222 0.001875
v 0.14474721 0.07182339 0.001875
v 0.14488515 0.063332955 0.001875
v 0.144835665 0.07913196 0.001875
v 0.145236405 0.07930044 0.001875
v 0.14445009 0.07895847 0.001875
v 0.144079335 0.07878051 0.001875
v 0.14372301 0.078598665 0.001875
v 0.14338083 0.07841346 0.001875
v 0.143053125 0.078224745 0.001875
v 0.142741185 0.078031245 0.001875
v 0.142444335 0.077833395 0.001875
v 0.14216178 0.07763166 0.001875
v 0.14189277 0.077426535 0.001875
v 0.141636525 0.077218515 0.001875
v 0.141392265 0.07700808 0.001875
v 0.14115936 0.076795635 0.001875
v 0.140938755 0.076580595 0.001875
v 0.140730765 0.07636272 0.001875
v 0.140535435 0.076142055 0.001875
v 0.140352735 0.07591854 0.001875
v 0.14018265 0.075692235 0.001875
v 0.14002521 0.075463095 0.001875
v 0.139880415 0.075231135 0.001875
v 0.14539386 0.063433395 0.001875
v 0.14565264 0.079463355 0.001875
v 0.145880445 0.0635436 0.001875
v 0.14608476 0.079620165 0.001875
v 0.146346735 0.063662985 0.001875
v 0.14653293 0.079771245 0.001875
v 0.14679459 0.06379098 0.001875
v 0.146996925 0.07991763 0.001875
v 0.14722587 0.063927015 0.001875
v 0.147476475 0.080058885 0.001875
v 0.147642375 0.06407049 0.001875
v 0.14797131 0.080194575 0.001875
v 0.14804598 0.064220865 0.001875
v 0.148438515 0.06437754 0.001875
v 0.148481145 0.08032428 0.001875
v 0.14882181 0.064539945 0.001875
v 0.149005725 0.08044752 0.001875
v 0.149196645 0.064707795 0.001875
v 0.14954478 0.08056389 0.001875
v 0.149556345 0.064882815 0.001875
v 0.14990076 0.065065095 0.001875
v 0.15009846 0.080673135 0.001875
v 0.15023154 0.065254335 0.001875
v 0.150550245 0.06545025 0.001875
v 0.1506687 0.08077614 0.001875
v 0.15085848 0.065652495 0.001875
v 0.15115782 0.06586077 0.001875
v 0.15125478 0.08087289 0.001875
v 0.1514499 0.06607476 0.001875
v 0.15173628 0.066294165 0.001875
v 0.151855545 0.08096316 0.001875
v 0.15201858 0.066518655 0.001875
v 0.152296275 0.06674895 0.001875
v 0.15246984 0.081046755 0.001875
v 0.15256392 0.06698772 0.001875
v 0.15282231 0.067234065 0.001875
v 0.152886285 0.08109867 0.001875
v 0.153072765 0.0674868 0.001875
v 0.15330789 0.08114745 0.001875
v 0.153316605 0.067744755 0.001875
v 0.15355512 0.06800673 0.001875
v 0.15373428 0.08119302 0.001875
v 0.15378963 0.06827157 0.001875
v 0.15402144 0.06853809 0.001875
v 0.154165125 0.08123535 0.001875
v 0.15425187 0.068805105 0.001875
v 0.15448221 0.069071445 0.001875
v 0.154600935 0.08127438 0.001875
v 0.15471045 0.06933996 0.001875
v 0.15493275 0.06961512 0.001875
v 0.155043915 0.081310185 0.001875
v 0.1551504 0.069894945 0.001875
v 0.15536466 0.070177365 0.001875
v 0.15549351 0.081342795 0.001875
v 0.155576865 0.070460355 0.001875
v 0.15578829 0.07074186 0.001875
v 0.155949075 0.081372285 0.001875
v 0.156000255 0.07101984 0.001875
v 0.15621402 0.07129227 0.001875
v 0.156409905 0.08139864 0.001875
v 0.156430935 0.07155708 0.001875
v 0.1566522 0.071812305 0.001875
v 0.15687366 0.07206159 0.001875
v 0.15687534 0.081421935 0.001875
v 0.15709317 0.07230765 0.001875
v 0.15731229 0.072549735 0.001875
v 0.15734466 0.081442215 0.001875
v 0.15753252 0.072787125 0.001875
v 0.15775539 0.073019085 0.001875
v 0.157817205 0.081459495 0.001875
v 0.157982445 0.07324488 0.001875
v 0.1582152 0.073463775 0.001875
v 0.15829227 0.08147382 0.001875
v 0.1584552 0.07367505 0.001875
v 0.15870396 0.073877955 0.001875
v 0.158769195 0.08148525 0.001875
v 0.1589625 0.074071875 0.001875
v 0.15922536 0.074257965 0.001875
v 0.159247275 0.0814938 0.001875
v 0.15949182 0.07443669 0.001875
v 0.159727065 0.08149935 0.001875
v 0.15976329 0.074608155 0.001875
v 0.16004121 0.074772435 0.001875
v 0.16021242 0.08150151 0.001875
v 0.16032696 0.07492959 0.001875
v 0.16062201 0.075079725 0.001875
v 0.160702695 0.08150034 0.001875
v 0.160927755 0.075222885 0.001875
v 0.16119687 0.081496035 0.001875
v 0.16124559 0.07535916 0.001875
v 0.161576955 0.07548864 0.001875
v 0.16169385 0.081488745 0.001875
v 0.161922585 0.075611235 0.001875
v 0.16219257 0.081478665 0.001875
v 0.162279825 0.0757263 0.001875
v 0.162648195 0.075834 0.001875
v 0.162691965 0.081465945 0.001875
v 0.16302759 0.075934575 0.001875
v 0.163191 0.081450765 0.001875
v 0.16341792 0.07602828 0.001875
v 0.163688595 0.081433275 0.001875
v 0.163819065 0.07611537 0.001875
v 0.16418367 0.08141367 0.001875
v 0.16423095 0.076196085 0.001875
v 0.164653425 0.07627068 0.001875
v 0.164675175 0.0813921 0.001875
v 0.16508643 0.076339395 0.001875
v 0.165163215 0.08136855 0.001875
v 0.16552986 0.076402515 0.001875
v 0.16565238 0.08134227 0.001875
v 0.165985785 0.07645992 0.001875
v 0.1661424 0.08131329 0.001875
v 0.166457745 0.07651101 0.001875
v 0.16663233 0.081281805 0.001875
v 0.1669437 0.07655586 0.001875
v 0.16712121 0.08124795 0.001875
v 0.16744137 0.076594545 0.001875
v 0.16760805 0.08121189 0.001875
v 0.16794849 0.07662714 0.001875
v 0.16809192 0.08117382 0.001875
v 0.16846278 0.076653735 0.001875
v 0.16857186 0.081133875 0.001875
v 0.16898199 0.07667439 0.001875
v 0.16904691 0.081092205 0.001875
v 0.16950384 0.07668921 0.001875
v 0.169516095 0.08104902 0.001875
v 0.170026065 0.07669827 0.001875
v 0.16997847 0.08100444 0.001875
v 0.17043369 0.080958555 0.001875
v 0.1705464 0.076701645 0.001875
v 0.170884725 0.08091087 0.001875
v 0.17107176 0.07669884 0.001875
v 0.17133183 0.080861355 0.001875
v 0.17160828 0.07668951 0.001875
v 0.171774645 0.08081004 0.001875
v 0.17215245 0.076673955 0.001875
v 0.17221281 0.080757 0.001875
v 0.17270076 0.076652445 0.001875
v 0.17253816 0.08071608 0.001875
v 0.172860555 0.080674245 0.001875
v 0.173249685 0.076625295 0.001875
v 0.17317983 0.08063148 0.001875
v 0.17349585 0.08058783 0.001875
v 0.17379576 0.076592775 0.001875
v 0.17380845 0.080543295 0.001875
v 0.174335445 0.076555215 0.001875
v 0.17411748 0.08049792 0.001875
v 0.17442279 0.08045169 0.001875
v 0.174865245 0.07651287 0.001875
v 0.17472426 0.08040465 0.001875
v 0.17502171 0.080356815 0.001875
v 0.175381665 0.07646604 0.001875
v 0.175315245 0.080307975 0.001875
v 0.175605015 0.080258115 0.001875
v 0.175881555 0.07641501 0.001875
v 0.17589111 0.080207265 0.001875
v 0.176371905 0.076359105 0.001875
v 0.17617365 0.080155485 0.001875
v 0.17645274 0.080102775 0.001875
v 0.176855985 0.07629804 0.001875
v 0.17672847 0.08004921 0.001875
v 0.17700096 0.07999482 0.001875
v 0.17733282 0.07623195 0.001875
v 0.177270285 0.07993965 0.001875
v 0.17753658 0.07988373 0.001875
v 0.17780151 0.076160955 0.001875
v 0.177799905 0.079827105 0.001875
v 0.178060395 0.07976982 0.001875
v 0.17826108 0.076085145 0.001875
v 0.178318155 0.07971192 0.001875
v 0.17871063 0.07600467 0.001875
v 0.17857326 0.07965345 0.001875
v 0.178825845 0.079594425 0.001875
v 0.1791492 0.075919605 0.001875
v 0.17907573 0.0795348 0.001875
v 0.17932155 0.079474125 0.001875
v 0.179575875 0.0758301 0.001875
v 0.179563365 0.07941237 0.001875
v 0.179801505 0.07934967 0.001875
v 0.179989665 0.07573626 0.001875
v 0.180036285 0.079286145 0.001875
v 0.180389925 0.07563801 0.001875
v 0.18026805 0.07922187 0.001875
v 0.180497115 0.079156995 0.001875
v 0.180777855 0.07553412 0.001875
v 0.18072381 0.079091625 0.001875
v 0.180948465 0.079025865 0.001875
v 0.181154025 0.07542477 0.001875
v 0.181171425 0.07895982 0.001875
v 0.18151872 0.07531047 0.001875
v 0.181393005 0.07889361 0.001875
v 0.181613535 0.078827355 0.001875
v 0.181872195 0.075191745 0.001875
v 0.181833315 0.078761145 0.001875
v 0.18205272 0.0786951 0.001875
v 0.182214765 0.075069075 0.001875
v 0.18227205 0.078629355 0.001875
v 0.182546685 0.074942985 0.001875
v 0.182490585 0.078563505 0.001875
v 0.18270612 0.078496575 0.001875
v 0.18286824 0.07481397 0.001875
v 0.182876595 0.078442365 0.001875
v 0.18317967 0.074682555 0.001875
v 0.1830456 0.07838772 0.001875
v 0.183213345 0.078332745 0.001875
v 0.183481305 0.074549235 0.001875
v 0.18338004 0.07827756 0.001875
v 0.183545955 0.0782223 0.001875
v 0.18377241 0.074413095 0.001875
v 0.18371127 0.0781671 0.001875
v 0.18387624 0.07811205 0.001875
v 0.183959205 0.07431867 0.001875
v 0.18404109 0.078057315 0.001875
v 0.18414045 0.074221665 0.001875
v 0.184206045 0.078002985 0.001875
v 0.184316445 0.07412253 0.001875
v 0.184371345 0.07794921 0.001875
v 0.18448755 0.0740217 0.001875
v 0.184537185 0.077896095 0.001875
v 0.18465408 0.07391964 0.001875
v 0.184703805 0.077843775 0.001875
v 0.184816395 0.0738168 0.001875
v 0.184871445 0.07779237 0.001875
v 0.18497481 0.073713645 0.001875
v 0.18504033 0.077742 0.001875
v 0.185129655 0.07361061 0.001875
v 0.18521067 0.077692815 0.001875
v 0.18528129 0.07350819 0.001875
v 0.18538272 0.077644905 0.001875
v 0.185430015 0.073406775 0.001875
v 0.18555606 0.077598015 0.001875
v 0.185576205 0.073306875 0.001875
v 0.185720175 0.07320894 0.001875
v 0.185729415 0.077551335 0.001875
v 0.18586224 0.07311339 0.001875
v 0.18590283 0.07750491 0.001875
v 0.18600249 0.073020495 0.001875
v 0.18607641 0.077458845 0.001875
v 0.18613791 0.07292808 0.001875
v 0.186250305 0.077413215 0.001875
v 0.186268065 0.072835635 0.001875
v 0.18639363 0.07274343 0.001875
v 0.186424605 0.07736814 0.001875
v 0.18651519 0.072651735 0.001875
v 0.18659943 0.077323695 0.001875
v 0.18663345 0.07256082 0.001875
v 0.186749025 0.07247097 0.001875
v 0.18677493 0.07728 0.001875
v 0.18686256 0.07238247 0.001875
v 0.18695118 0.077237145 0.001875
v 0.187030485 0.07225281 0.001875
v 0.187128345 0.07719522 0.001875
v 0.18719745 0.072127695 0.001875
v 0.1873065 0.077154315 0.001875
v 0.18736566 0.072008055 0.001875
v 0.187485795 0.07711455 0.001875
v 0.187537275 0.07189479 0.001875
v 0.187666335 0.077076 0.001875
v 0.187714425 0.07178883 0.001875
v 0.187848255 0.077038785 0.001875
v 0.187891275 0.0716886 0.001875
v 0.188031645 0.07700298 0.001875
v 0.18806454 0.071592915 0.001875
v 0.188216655 0.07696869 0.001875
v 0.188236065 0.071502015 0.001875
v 0.18840339 0.076936005 0.001875
v 0.18840774 0.07141623 0.001875
v 0.18858147 0.071335785 0.001875
v 0.188591985 0.07690503 0.001875
v 0.188759085 0.07126098 0.001875
v 0.18878253 0.076875825 0.001875
v 0.18894249 0.0711921 0.001875
v 0.18902343 0.076841025 0.001875
v 0.189133545 0.071129385 0.001875
v 0.189267165 0.07680792 0.001875
v 0.189334125 0.07107312 0.001875
v 0.189513525 0.076776585 0.001875
v 0.189545415 0.071023335 0.001875
v 0.18975999 0.07097706 0.001875
v 0.1897623 0.07674711 0.001875
v 0.18997707 0.07093443 0.001875
v 0.190013265 0.07671957 0.001875
v 0.190198755 0.07089666 0.001875
v 0.19026621 0.076694055 0.001875
v 0.190427145 0.07086501 0.001875
v 0.190520925 0.076670655 0.001875
v 0.190664325 0.07084071 0.001875
v 0.1907772 0.07664943 0.001875
v 0.190912395 0.070825005 0.001875
v 0.191034825 0.07663047 0.001875
v 0.191173485 0.070819155 0.001875
v 0.19129359 0.076613865 0.001875
v 0.19144965 0.07082436 0.001875
v 0.19155327 0.076599705 0.001875
v 0.191743035 0.07084191 0.001875
v 0.191813655 0.076588035 0.001875
v 0.1920543 0.07087143 0.001875
v 0.192074535 0.076578975 0.001875
v 0.19237818 0.070906785 0.001875
v 0.1923357 0.076572585 0.001875
v 0.19259739 0.076568865 0.001875
v 0.19271445 0.07094889 0.001875
v 0.192861915 0.07656741 0.001875
v 0.193063665 0.07099968 0.001875
v 0.193129215 0.076568175 0.001875
v 0.193426455 0.07106112 0.001875
v 0.193398795 0.076571205 0.001875
v 0.193670115 0.076576575 0.001875
v 0.19380339 0.07113516 0.001875
v 0.19394265 0.076584315 0.001875
v 0.1941951 0.07122375 0.001875
v 0.194215905 0.07659447 0.001875
v 0.194602155 0.071328855 0.001875
v 0.194489355 0.076607115 0.001875
v 0.194762445 0.076622295 0.001875
v 0.19502517 0.071452395 0.001875
v 0.195034725 0.076640055 0.001875
v 0.195464715 0.071596335 0.001875
v 0.19530561 0.076660425 0.001875
v 0.19557462 0.076683495 0.001875
v 0.195920775 0.071760555 0.001875
v 0.19584123 0.076709295 0.001875
v 0.196104915 0.076737885 0.001875
v 0.19639221 0.071941365 0.001875
v 0.196365165 0.076769295 0.001875
v 0.196622205 0.076803525 0.001875
v 0.19687899 0.072138585 0.001875
v 0.196877625 0.07684041 0.001875
v 0.1971315 0.07687995 0.001875
v 0.1973811 0.072352245 0.001875
v 0.197383845 0.07692213 0.001875
v 0.197898525 0.072582345 0.001875
v 0.197634645 0.076966965 0.001875
v 0.197883915 0.07701444 0.001875
v 0.19813164 0.07706457 0.001875
v 0.19843131 0.072828855 0.001875
v 0.198377805 0.07711734 0.001875
v 0.198622455 0.077172765 0.001875
v 0.198795 0.07300233 0.001875
v 0.19886556 0.07723083 0.001875
v 0.1991655 0.073183095 0.001875
v 0.19910712 0.07729155 0.001875
v 0.199426815 0.07737663 0.001875
v 0.199542825 0.07337118 0.001875
v 0.19974378 0.077466405 0.001875
v 0.199926975 0.073566555 0.001875
v 0.200057985 0.077560905 0.001875
v 0.20031792 0.07376922 0.001875
v 0.20015991 0.07759371 0.001875
v 0.200268495 0.07762755 0.001875
v 0.200383755 0.077662485 0.001875
v 0.20071569 0.073979205 0.001875
v 0.200504295 0.07769532 0.001875
v 0.200631015 0.07772448 0.001875
v 0.20076492 0.077747895 0.001875
v 0.200828145 0.07403739 0.001875
v 0.200908035 0.07776144 0.001875
v 0.20093739 0.074105085 0.001875
v 0.20104344 0.074182275 0.001875
v 0.20106111 0.07776336 0.001875
v 0.20114691 0.074268975 0.001875
v 0.201225855 0.077748975 0.001875
v 0.2012484 0.074365185 0.001875
v 0.201344865 0.074470905 0.001875
v 0.20140008 0.077712555 0.001875
v 0.201433275 0.074586165 0.001875
v 0.20151417 0.07471095 0.001875
v 0.20158458 0.077649 0.001875
v 0.201588255 0.074845275 0.001875
v 0.20165547 0.07498911 0.001875
v 0.20175981 0.077540595 0.001875
v 0.20178996 0.075290715 0.001875
v 0.201843495 0.077467725 0.001875
v 0.201913095 0.075596535 0.001875
v 0.201917265 0.077388195 0.001875
v 0.2019765 0.075766725 0.001875
v 0.20202138 0.07721304 0.001875
v 0.202033125 0.075939525 0.001875
v 0.202083015 0.076114935 0.001875
v 0.20208795 0.077026815 0.001875
v 0.202118925 0.07629387 0.001875
v 0.20212491 0.076841865 0.001875
v 0.202139385 0.07647537 0.001875
v 0.20214162 0.07665795 0.001875
v 0.14475 0.06825 0.00046875
v 0.13875 0.06825 0.00046875
v 0.13875 0.068398155 0.00044412
v 0.14475 0.068099085 0.000442095
v 0.14475 0.068400915 0.000442095
v 0.13875 0.06852444 0.000379605
v 0.14475 0.06852552 0.00037923
v 0.13875 0.068629605 0.000274455
v 0.14475 0.06862788 0.000274545
v 0.13875 0.06869493 0.00014514
v 0.14475 0.0686958 0.000144855
v 0.13875 0.06871875 0
v 0.14475 0.0687171 0
v 0.13875 0.06869493 -0.00014514
v 0.14475 0.0686958 -0.000144855
v 0.13875 0.068629605 -0.000274455
v 0.14475 0.06862788 -0.000274545
v 0.13875 0.06852444 -0.000379605
v 0.14475 0.06852552 -0.00037923
v 0.13875 0.068398155 -0.00044412
v 0.14475 0.068400915 -0.000442095
v 0.13875 0.06825 -0.00046875
v 0.14475 0.06825 -0.00046875
v 0.13875 0.068101845 -0.00044412
v 0.14475 0.068099085 -0.000442095
v 0.13875 0.067975545 -0.000379605
v 0.14475 0.06797448 -0.00037923
v 0.13875 0.067870395 -0.000274455
v 0.14475 0.067872105 -0.000274545
v 0.13875 0.06780507 -0.00014514
v 0.14475 0.067804185 -0.000144855
v 0.13875 0.06778125 0
v 0.14475 0.0677829 0
v 0.13875 0.06780507 0.00014514
v 0.14475 0.067804185 0.000144855
v 0.13875 0.067870395 0.000274455
v 0.14475 0.067872105 0.000274545
v 0.13875 0.067975545 0.000379605
v 0.14475 0.06797448 0.00037923
v 0.13875 0.068101845 0.00044412
v 0.14475 0.0645 0.00046875
v 0.13875 0.0645 0.00046875
v 0.13875 0.064648155 0.00044412
v 0.14475 0.064349085 0.000442095
v 0.14475 0.064650915 0.000442095
v 0.13875 0.06477444 0.000379605
v 0.14475 0.06477552 0.00037923
v 0.13875 0.064879605 0.000274455
v 0.14475 0.06487788 0.000274545
v 0.13875 0.06494493 0.00014514
v 0.14475 0.0649458 0.000144855
v 0.13875 0.06496875 0
v 0.14475 0.0649671 0
v 0.13875 0.06494493 -0.00014514
v 0.14475 0.0649458 -0.000144855
v 0.13875 0.064879605 -0.000274455
v 0.14475 0.06487788 -0.000274545
v 0.13875 0.06477444 -0.000379605
v 0.14475 0.06477552 -0.00037923
v 0.13875 0.064648155 -0.00044412
v 0.14475 0.064650915 -0.000442095
v 0.13875 0.0645 -0.00046875
v 0.14475 0.0645 -0.00046875
v 0.13875 0.064351845 -0.00044412
v 0.14475 0.064349085 -0.000442095
v 0.13875 0.064225545 -0.000379605
v 0.14475 0.06422448 -0.00037923
v 0.13875 0.064120395 -0.000274455
v 0.14475 0.064122105 -0.000274545
v 0.13875 0.06405507 -0.00014514
v 0.14475 0.064054185 -0.000144855
v 0.13875 0.06403125 0
v 0.14475 0.0640329 0
v 0.13875 0.06405507 0.00014514
v 0.14475 0.064054185 0.000144855
v 0.13875 0.064120395 0.000274455
v 0.14475 0.064122105 0.000274545
v 0.13875 0.064225545 0.000379605
v 0.14475 0.06422448 0.00037923
v 0.13875 0.064351845 0.00044412
v 0.14475 0.068099085 -0.000442095
v 0.14475 0.068099085 0.000442095
v 0.14475 0.06825 0.00046875
v 0.14475 0.06797448 -0.00037923
v 0.14475 0.06825 -0.00046875
v 0.14475 0.068400915 0.000442095
v 0.14475 0.068400915 -0.000442095
v 0.14475 0.06852552 0.00037923
v 0.14475 0.06852552 -0.00037923
v 0.14475 0.06862788 0.000274545
v 0.14475 0.06862788 -0.000274545
v 0.14475 0.0686958 0.000144855
v 0.14475 0.0686958 -0.000144855
v 0.14475 0.0687171 0
v 0.14475 0.06797448 0.00037923
v 0.14475 0.067872105 -0.000274545
v 0.14475 0.067872105 0.000274545
v 0.14475 0.067804185 -0.000144855
v 0.14475 0.067804185 0.000144855
v 0.14475 0.0677829 0
v 0.14475 0.064349085 -0.000442095
v 0.14475 0.064349085 0.000442095
v 0.14475 0.0645 0.00046875
v 0.14475 0.06422448 -0.00037923
v 0.14475 0.0645 -0.00046875
v 0.14475 0.064650915 0.000442095
v 0.14475 0.064650915 -0.000442095
v 0.14475 0.06477552 0.00037923
v 0.14475 0.06477552 -0.00037923
v 0.14475 0.06487788 0.000274545
v 0.14475 0.06487788 -0.000274545
v 0.14475 0.0649458 0.000144855
v 0.14475 0.0649458 -0.000144855
v 0.14475 0.0649671 0
v 0.14475 0.06422448 0.00037923
v 0.14475 0.064122105 -0.000274545
v 0.14475 0.064122105 0.000274545
v 0.14475 0.064054185 -0.000144855
v 0.14475 0.064054185 0.000144855
v 0.14475 0.0640329 0
f 1 2 3
f 1 4 2
f 5 1 3
f 6 5 3
f 7 6 3
f 8 7 3
f 9 8 3
f 10 9 3
f 11 10 3
f 12 11 3
f 4 13 2
f 4 14 13
f 4 15 14
f 4 16 15
f 4 17 16
f 4 18 17
f 4 19 18
f 4 20 19
f 20 21 19
f 20 22 21
f 20 23 22
f 20 24 23
f 23 25 22
f 25 26 22
f 25 27 26
f 27 28 26
f 27 29 28
f 29 30 28
f 29 31 30
f 31 32 30
f 31 33 32
f 33 34 32
f 33 35 34
f 35 36 34
f 35 37 36
f 37 38 36
f 37 39 38
f 39 40 38
f 39 41 40
f 39 42 41
f 42 43 41
f 42 44 43
f 44 45 43
f 44 46 45
f 46 47 45
f 46 48 47
f 46 49 48
f 49 50 48
f 49 51 50
f 49 52 51
f 52 53 51
f 52 54 53
f 52 55 54
f 55 56 54
f 55 57 56
f 55 58 57
f 58 59 57
f 58 60 59
f 58 61 60
f 61 62 60
f 61 63 62
f 61 64 63
f 64 65 63
f 64 66 65
f 66 67 65
f 66 68 67
f 66 69 68
f 69 70 68
f 69 71 70
f 69 72 71
f 72 73 71
f 72 74 73
f 72 75 74
f 75 76 74
f 75 77 76
f 75 78 77
f 78 79 77
f 78 80 79
f 78 81 80
f 81 82 80
f 81 83 82
f 81 84 83
f 84 85 83
f 84 86 85
f 84 87 86
f 87 88 86
f 87 89 88
f 87 90 89
f 87 91 90
f 91 92 90
f 91 93 92
f 91 94 93
f 94 95 93
f 94 96 95
f 94 97 96
f 97 98 96
f 97 99 98
f 97 100 99
f 100 101 99
f 100 102 101
f 100 103 102
f 103 104 102
f 103 105 104
f 103 106 105
f 106 107 105
f 106 108 107
f 108 109 107
f 108 110 109
f 108 111 110
f 111 112 110
f 111 113 112
f 111 114 113
f 114 115 113
f 114 116 115
f 116 117 115
f 116 118 117
f 116 119 118
f 119 120 118
f 119 121 120
f 121 122 120
f 121 123 122
f 121 124 123
f 124 125 123
f 124 126 125
f 126 127 125
f 126 128 127
f 128 129 127
f 128 130 129
f 130 131 129
f 130 132 131
f 130 133 132
f 133 134 132
f 133 135 134
f 135 136 134
f 135 137 136
f 137 138 136
f 137 139 138
f 139 140 138
f 139 141 140
f 141 142 140
f 141 143 142
f 143 144 142
f 143 145 144
f 145 146 144
f 145 147 146
f 147 148 146
f 147 149 148
f 149 150 148
f 149 151 150
f 151 152 150
f 152 153 150
f 152 154 153
f 154 155 153
f 154 156 155
f 156 157 155
f 156 158 157
f 158 159 157
f 158 160 159
f 160 161 159
f 160 162 161
f 162 163 161
f 163 164 161
f 163 165 164
f 165 166 164
f 166 167 164
f 166 168 167
f 168 169 167
f 168 170 169
f 170 171 169
f 171 172 169
f 171 173 172
f 173 174 172
f 174 175 172
f 174 176 175
f 176 177 175
f 177 178 175
f 177 179 178
f 179 180 178
f 179 181 180
f 181 182 180
f 182 183 180
f 182 184 183
f 184 185 183
f 185 186 183
f 185 187 186
f 187 188 186
f 188 189 186
f 188 190 189
f 190 191 189
f 191 192 189
f 191 193 192
f 193 194 192
f 193 195 194
f 195 196 194
f 196 197 194
f 196 198 197
f 198 199 197
f 199 200 197
f 199 201 200
f 201 202 200
f 202 203 200
f 202 204 203
f 204 205 203
f 204 206 205
f 206 207 205
f 207 208 205
f 207 209 208
f 209 210 208
f 210 211 208
f 210 212 211
f 212 213 211
f 212 214 213
f 214 215 213
f 215 216 213
f 215 217 216
f 217 218 216
f 218 219 216
f 218 220 219
f 220 221 219
f 220 222 221
f 222 223 221
f 223 224 221
f 223 225 224
f 225 226 224
f 225 227 226
f 227 228 226
f 228 229 226
f 228 230 229
f 230 231 229
f 231 232 229
f 231 233 232
f 233 234 232
f 234 235 232
f 234 236 235
f 236 237 235
f 236 238 237
f 238 239 237
f 238 240 239
f 240 241 239
f 240 242 241
f 242 243 241
f 242 244 243
f 244 245 243
f 244 246 245
f 246 247 245
f 246 248 247
f 248 249 247
f 248 250 249
f 250 251 249
f 250 252 251
f 252 253 251
f 252 254 253
f 254 255 253
f 254 256 255
f 256 257 255
f 256 258 257
f 258 259 257
f 258 260 259
f 258 261 260
f 261 262 260
f 261 263 262
f 263 264 262
f 263 265 264
f 265 266 264
f 265 267 266
f 267 268 266
f 267 269 268
f 267 270 269
f 270 271 269
f 270 272 271
f 272 273 271
f 272 274 273
f 272 275 274
f 275 276 274
f 275 277 276
f 277 278 276
f 277 279 278
f 279 280 278
f 279 281 280
f 281 282 280
f 281 283 282
f 283 284 282
f 283 285 284
f 285 286 284
f 285 287 286
f 287 288 286
f 287 289 288
f 289 290 288
f 289 291 290
f 291 292 290
f 291 293 292
f 293 294 292
f 293 295 294
f 293 296 295
f 296 297 295
f 296 298 297
f 298 299 297
f 298 300 299
f 300 301 299
f 300 302 301
f 302 303 301
f 302 304 303
f 304 305 303
f 304 306 305
f 304 307 306
f 307 308 306
f 307 309 308
f 309 310 308
f 309 311 310
f 311 312 310
f 311 313 312
f 313 314 312
f 313 315 314
f 315 316 314
f 315 317 316
f 317 318 316
f 317 319 318
f 319 320 318
f 319 321 320
f 321 322 320
f 321 323 322
f 323 324 322
f 324 325 322
f 324 326 325
f 326 327 325
f 326 328 327
f 328 329 327
f 328 330 329
f 330 331 329
f 331 332 329
f 331 333 332
f 333 334 332
f 333 335 334
f 335 336 334
f 335 337 336
f 337 338 336
f 338 339 336
f 338 340 339
f 340 341 339
f 340 342 341
f 342 343 341
f 343 344 341
f 343 345 344
f 345 346 344
f 346 347 344
f 346 348 347
f 348 349 347
f 349 350 347
f 349 351 350
f 351 352 350
f 352 353 350
f 352 354 353
f 354 355 353
f 354 356 355
f 356 357 355
f 357 358 355
f 358 359 355
f 358 360 359
f 360 361 359
f 361 362 359
f 361 363 362
f 363 364 362
f 363 365 364
f 365 366 364
f 366 367 364
f 366 368 367
f 368 369 367
f 368 370 369
f 370 371 369
f 370 372 371
f 372 373 371
f 373 374 371
f 374 375 371
f 374 376 375
f 376 377 375
f 377 378 375
f 378 379 375
f 378 380 379
f 380 381 379
f 380 382 381
f 382 383 381
f 382 384 383
f 382 385 384
f 385 386 384
f 385 387 386
f 387 388 386
f 387 389 388
f 387 390 389
f 390 391 389
f 390 392 391
f 390 393 392
f 390 394 393
f 394 395 393
f 394 396 395
f 394 397 396
f 397 398 396
f 397 399 398
f 399 400 398
f 399 401 400
f 399 402 401
f 402 403 401
f 402 404 403
f 404 405 403
f 404 406 405
f 406 407 405
f 20 408 24
f 408 409 24
f 408 410 409
f 408 411 410
f 408 412 411
f 408 413 412
f 408 414 413
f 408 415 414
f 408 416 415
f 408 417 416
f 408 418 417
f 408 419 418
f 408 420 419
f 408 421 420
f 408 422 421
f 408 423 422
f 408 424 423
f 408 425 424
f 426 427 428
f 429 426 428
f 429 428 430
f 429 430 431
f 431 430 432
f 431 432 433
f 433 432 434
f 433 434 435
f 435 434 436
f 435 436 437
f 437 436 438
f 437 438 439
f 439 438 440
f 439 440 441
f 441 440 442
f 441 442 443
f 443 442 444
f 443 444 445
f 445 444 446
f 445 446 447
f 447 446 448
f 447 448 449
f 449 448 450
f 449 450 451
f 451 450 452
f 451 452 453
f 453 452 454
f 453 454 455
f 455 454 456
f 455 456 457
f 457 456 458
f 457 458 459
f 459 458 460
f 459 460 461
f 461 460 462
f 461 462 463
f 463 462 464
f 463 464 465
f 465 464 466
f 465 466 467
f 467 466 468
f 467 468 469
f 469 468 470
f 469 470 471
f 471 470 472
f 471 472 473
f 473 472 474
f 473 474 475
f 475 474 476
f 475 476 477
f 477 476 478
f 477 478 479
f 479 478 480
f 479 480 481
f 481 480 482
f 481 482 483
f 483 482 484
f 483 484 485
f 485 484 486
f 485 486 487
f 487 486 488
f 487 488 489
f 489 488 490
f 489 490 491
f 491 490 492
f 491 492 493
f 493 492 494
f 493 494 495
f 495 494 496
f 495 496 497
f 497 496 498
f 497 498 499
f 499 498 500
f 499 500 501
f 501 500 502
f 501 502 503
f 503 502 504
f 503 504 505
f 505 504 506
f 505 506 507
f 507 506 508
f 507 508 509
f 509 508 510
f 509 510 511
f 511 510 512
f 511 512 513
f 513 512 514
f 513 514 515
f 515 514 516
f 515 516 517
f 517 516 518
f 517 518 519
f 519 518 520
f 519 520 521
f 521 520 522
f 521 522 523
f 523 522 524
f 523 524 525
f 525 524 526
f 525 526 527
f 527 526 528
f 527 528 529
f 529 528 530
f 529 530 531
f 531 530 532
f 531 532 533
f 533 532 534
f 533 534 535
f 535 534 536
f 535 536 537
f 537 536 538
f 537 538 539
f 539 538 540
f 539 540 541
f 541 540 542
f 541 542 543
f 543 542 544
f 543 544 545
f 545 544 546
f 545 546 547
f 547 546 548
f 547 548 549
f 549 548 550
f 549 550 551
f 551 550 552
f 551 552 553
f 553 552 554
f 553 554 555
f 555 554 556
f 555 556 557
f 557 556 558
f 557 558 559
f 559 558 560
f 559 560 561
f 561 560 562
f 561 562 563
f 563 562 564
f 563 564 565
f 565 564 566
f 565 566 567
f 567 566 568
f 567 568 569
f 569 568 570
f 569 570 571
f 571 570 572
f 571 572 573
f 573 572 574
f 573 574 575
f 575 574 576
f 575 576 577
f 577 576 578
f 577 578 579
f 579 578 580
f 579 580 581
f 581 580 582
f 581 582 583
f 583 582 584
f 583 584 585
f 585 584 586
f 585 586 587
f 587 586 588
f 587 588 589
f 589 588 590
f 589 590 591
f 591 590 592
f 591 592 593
f 593 592 594
f 593 594 595
f 595 594 596
f 595 596 597
f 597 596 598
f 597 598 599
f 599 598 600
f 599 600 601
f 601 600 602
f 601 602 603
f 603 602 604
f 603 604 605
f 605 604 606
f 605 606 607
f 607 606 608
f 607 608 609
f 609 608 610
f 609 610 611
f 611 610 612
f 611 612 613
f 613 612 614
f 613 614 615
f 615 614 616
f 615 616 617
f 617 616 618
f 617 618 619
f 619 618 620
f 619 620 621
f 621 620 622
f 621 622 623
f 623 622 624
f 623 624 625
f 625 624 626
f 625 626 627
f 627 626 628
f 627 628 629
f 629 628 630
f 629 630 631
f 631 630 632
f 631 632 633
f 633 632 634
f 633 634 635
f 635 634 636
f 635 636 637
f 637 636 638
f 637 638 639
f 639 638 640
f 639 640 641
f 641 640 642
f 641 642 643
f 643 642 644
f 643 644 645
f 645 644 646
f 645 646 647
f 647 646 648
f 647 648 649
f 649 648 650
f 649 650 651
f 651 650 652
f 651 652 653
f 653 652 654
f 653 654 655
f 655 654 656
f 655 656 657
f 657 656 658
f 657 658 659
f 659 658 660
f 659 660 661
f 661 660 662
f 661 662 663
f 663 662 664
f 663 664 665
f 665 664 666
f 665 666 667
f 667 666 668
f 667 668 669
f 669 668 670
f 669 670 671
f 671 670 672
f 671 672 673
f 673 672 674
f 673 674 675
f 675 674 676
f 675 676 677
f 677 676 678
f 677 678 679
f 679 678 680
f 679 680 681
f 681 680 682
f 681 682 683
f 683 682 684
f 683 684 685
f 685 684 686
f 685 686 687
f 687 686 688
f 687 688 689
f 689 688 690
f 689 690 691
f 691 690 692
f 691 692 693
f 693 692 694
f 693 694 695
f 695 694 696
f 695 696 697
f 697 696 698
f 697 698 699
f 699 698 700
f 699 700 701
f 701 700 702
f 701 702 703
f 703 702 704
f 703 704 705
f 705 704 706
f 705 706 707
f 707 706 708
f 707 708 709
f 709 708 710
f 709 710 711
f 711 710 712
f 711 712 713
f 713 712 714
f 713 714 715
f 715 714 716
f 715 716 717
f 717 716 718
f 717 718 719
f 719 718 720
f 719 720 721
f 721 720 722
f 721 722 723
f 723 722 724
f 723 724 725
f 725 724 726
f 725 726 727
f 727 726 728
f 727 728 729
f 729 728 730
f 729 730 731
f 731 730 732
f 731 732 733
f 733 732 734
f 733 734 735
f 735 734 736
f 735 736 737
f 737 736 738
f 737 738 739
f 739 738 740
f 739 740 741
f 741 740 742
f 741 742 743
f 743 742 744
f 743 744 745
f 745 744 746
f 745 746 747
f 747 746 748
f 747 748 749
f 749 748 750
f 749 750 751
f 751 750 752
f 751 752 753
f 753 752 754
f 753 754 755
f 755 754 756
f 755 756 757
f 757 756 758
f 757 758 759
f 759 758 760
f 759 760 761
f 761 760 762
f 761 762 763
f 763 762 764
f 763 764 765
f 765 764 766
f 765 766 767
f 767 766 768
f 767 768 769
f 769 768 770
f 769 770 771
f 771 770 772
f 771 772 773
f 773 772 774
f 773 774 775
f 775 774 776
f 775 776 777
f 777 776 778
f 777 778 779
f 779 778 780
f 779 780 781
f 781 780 782
f 781 782 783
f 783 782 784
f 783 784 785
f 785 784 786
f 785 786 787
f 787 786 788
f 787 788 789
f 789 788 790
f 789 790 791
f 791 790 792
f 791 792 793
f 793 792 794
f 793 794 795
f 795 794 796
f 795 796 797
f 797 796 798
f 797 798 799
f 799 798 800
f 799 800 801
f 801 800 802
f 801 802 803
f 803 802 804
f 803 804 805
f 805 804 806
f 805 806 807
f 807 806 808
f 807 808 809
f 809 808 810
f 809 810 811
f 811 810 812
f 811 812 813
f 813 812 814
f 813 814 815
f 815 814 816
f 815 816 817
f 817 816 818
f 817 818 819
f 819 818 820
f 819 820 821
f 821 820 822
f 821 822 823
f 823 822 824
f 824 822 825
f 824 825 826
f 826 825 827
f 826 827 828
f 828 827 829
f 828 829 830
f 830 829 831
f 830 831 832
f 832 831 833
f 832 833 834
f 834 833 835
f 834 835 836
f 836 835 837
f 836 837 838
f 838 837 839
f 838 839 840
f 840 839 841
f 840 841 842
f 842 841 843
f 842 843 844
f 844 843 845
f 845 843 846
f 845 846 847
f 847 846 848
f 847 848 849
f 849 848 850
f 849 850 851
f 851 850 852
f 851 852 853
f 853 852 854
f 853 854 855
f 855 854 856
f 855 856 857
f 857 856 858
f 857 858 859
f 859 858 860
f 859 860 861
f 861 860 862
f 861 862 863
f 863 862 864
f 863 864 865
f 865 864 866
f 865 866 867
f 867 866 868
f 867 868 869
f 869 868 870
f 869 870 871
f 871 870 872
f 871 872 873
f 873 872 874
f 873 874 875
f 875 874 876
f 875 876 877
f 877 876 878
f 877 878 879
f 879 878 880
f 879 880 881
f 881 880 882
f 881 882 883
f 883 882 884
f 883 884 885
f 885 884 886
f 885 886 887
f 887 886 888
f 887 888 889
f 889 888 890
f 889 890 891
f 891 890 892
f 891 892 893
f 893 892 894
f 893 894 895
f 895 894 896
f 895 896 897
f 897 896 898
f 897 898 899
f 899 898 900
f 899 900 901
f 901 900 902
f 901 902 903
f 903 902 904
f 903 904 905
f 905 904 906
f 905 906 907
f 907 906 908
f 907 908 909
f 909 908 910
f 909 910 911
f 911 910 912
f 911 912 913
f 913 912 914
f 913 914 915
f 915 914 916
f 915 916 917
f 917 916 918
f 917 918 919
f 919 918 920
f 919 920 921
f 921 920 922
f 921 922 923
f 923 922 924
f 923 924 925
f 925 924 926
f 925 926 927
f 927 926 928
f 927 928 929
f 929 928 930
f 929 930 931
f 931 930 932
f 931 932 933
f 933 932 934
f 933 934 935
f 935 934 936
f 935 936 937
f 937 936 938
f 937 938 939
f 939 938 940
f 939 940 941
f 941 940 942
f 941 942 943
f 943 942 944
f 943 944 945
f 945 944 946
f 945 946 947
f 947 946 948
f 947 948 949
f 949 948 950
f 949 950 951
f 951 950 952
f 951 952 953
f 953 952 954
f 953 954 955
f 955 954 956
f 955 956 957
f 957 956 958
f 957 958 959
f 959 958 960
f 959 960 961
f 961 960 962
f 961 962 963
f 963 962 964
f 963 964 965
f 965 964 966
f 965 966 967
f 967 966 968
f 967 968 969
f 969 968 970
f 969 970 971
f 971 970 972
f 971 972 973
f 973 972 974
f 973 974 975
f 975 974 976
f 975 976 977
f 977 976 978
f 977 978 979
f 979 978 980
f 979 980 981
f 981 980 982
f 981 982 983
f 983 982 984
f 983 984 985
f 985 984 986
f 985 986 987
f 987 986 988
f 987 988 989
f 989 988 990
f 989 990 991
f 991 990 992
f 991 992 993
f 993 992 994
f 993 994 995
f 995 994 996
f 995 996 997
f 997 996 998
f 997 998 999
f 999 998 1000
f 999 1000 1001
f 1001 1000 1002
f 1001 1002 1003
f 1003 1002 1004
f 1003 1004 1005
f 1005 1004 1006
f 1005 1006 1007
f 1007 1006 1008
f 1007 1008 1009
f 1009 1008 1010
f 1009 1010 1011
f 1011 1010 1012
f 1011 1012 1013
f 1013 1012 1014
f 1013 1014 1015
f 1015 1014 1016
f 1015 1016 1017
f 1017 1016 1018
f 1017 1018 1019
f 1019 1018 1020
f 1019 1020 1021
f 1021 1020 1022
f 1021 1022 1023
f 1023 1022 1024
f 1023 1024 1025
f 1025 1024 1026
f 1025 1026 1027
f 1027 1026 1028
f 1027 1028 1029
f 1029 1028 1030
f 1029 1030 1031
f 1031 1030 1032
f 1031 1032 1033
f 1033 1032 1034
f 1033 1034 1035
f 1035 1034 1036
f 1035 1036 1037
f 1037 1036 1038
f 1037 1038 1039
f 1039 1038 1040
f 1039 1040 1041
f 1041 1040 1042
f 1041 1042 1043
f 1043 1042 1044
f 1043 1044 1045
f 1045 1044 1046
f 1045 1046 1047
f 1047 1046 1048
f 1047 1048 1049
f 1049 1048 1050
f 1049 1050 1051
f 1051 1050 1052
f 1051 1052 1053
f 1053 1052 1054
f 1053 1054 1055
f 1055 1054 1056
f 1055 1056 1057
f 1057 1056 1058
f 1057 1058 1059
f 1059 1058 1060
f 1059 1060 1061
f 1061 1060 1062
f 1061 1062 1063
f 1063 1062 1064
f 1063 1064 1065
f 1065 1064 1066
f 1065 1066 1067
f 1067 1066 1068
f 1067 1068 1069
f 1069 1068 1070
f 1069 1070 1071
f 1071 1070 1072
f 1071 1072 1073
f 1073 1072 1074
f 1073 1074 1075
f 1075 1074 1076
f 1075 1076 1077
f 1077 1076 1078
f 1077 1078 1079
f 1079 1078 1080
f 1079 1080 1081
f 1081 1080 1082
f 1081 1082 1083
f 1083 1082 1084
f 1083 1084 1085
f 1085 1084 1086
f 1085 1086 1087
f 1087 1086 1088
f 1087 1088 1089
f 1089 1088 1090
f 1089 1090 1091
f 1091 1090 1092
f 1091 1092 1093
f 1093 1092 1094
f 1093 1094 1095
f 1095 1094 1096
f 1095 1096 1097
f 1097 1096 1098
f 1097 1098 1099
f 1099 1098 1100
f 1099 1100 1101
f 1101 1100 1102
f 1101 1102 1103
f 1103 1102 1104
f 1103 1104 1105
f 1105 1104 1106
f 1105 1106 1107
f 1107 1106 1108
f 1107 1108 1109
f 1109 1108 1110
f 1109 1110 1111
f 1111 1110 1112
f 1111 1112 1113
f 1113 1112 1114
f 1113 1114 1115
f 1115 1114 1116
f 1115 1116 1117
f 1117 1116 1118
f 1117 1118 1119
f 1119 1118 1120
f 1119 1120 1121
f 1121 1120 1122
f 1121 1122 1123
f 1123 1122 1124
f 1123 1124 1125
f 1125 1124 1126
f 1125 1126 1127
f 1127 1126 1128
f 1127 1128 1129
f 1129 1128 1130
f 1129 1130 1131
f 1131 1130 1132
f 1131 1132 1133
f 1133 1132 1134
f 1133 1134 1135
f 1135 1134 1136
f 1135 1136 1137
f 1137 1136 1138
f 1137 1138 1139
f 1139 1138 1140
f 1139 1140 1141
f 1141 1140 1142
f 1141 1142 1143
f 1143 1142 1144
f 1143 1144 1145
f 1145 1144 1146
f 1145 1146 1147
f 1147 1146 1148
f 1147 1148 1149
f 1149 1148 1150
f 1149 1150 1151
f 1151 1150 1152
f 1151 1152 1153
f 1153 1152 1154
f 1153 1154 1155
f 1155 1154 1156
f 1155 1156 1157
f 1157 1156 1158
f 1157 1158 1159
f 1159 1158 1160
f 1159 1160 1161
f 1161 1160 1162
f 1161 1162 1163
f 1163 1162 1164
f 1163 1164 1165
f 1165 1164 1166
f 1165 1166 1167
f 1167 1166 1168
f 1167 1168 1169
f 1169 1168 1170
f 1169 1170 1171
f 1171 1170 1172
f 1171 1172 1173
f 1173 1172 1174
f 1173 1174 1175
f 1175 1174 1176
f 1175 1176 1177
f 1177 1176 1178
f 1177 1178 1179
f 1179 1178 1180
f 1179 1180 1181
f 1181 1180 1182
f 1181 1182 1183
f 1183 1182 1184
f 1183 1184 1185
f 1185 1184 1186
f 1185 1186 1187
f 1187 1186 1188
f 1187 1188 1189
f 1189 1188 1190
f 1189 1190 1191
f 1191 1190 1192
f 1191 1192 1193
f 1193 1192 1194
f 1193 1194 1195
f 1195 1194 1196
f 1195 1196 1197
f 1197 1196 1198
f 1197 1198 1199
f 1199 1198 1200
f 1199 1200 1201
f 1201 1200 1202
f 1201 1202 1203
f 1203 1202 1204
f 1203 1204 1205
f 1205 1204 1206
f 1205 1206 1207
f 1207 1206 1208
f 1207 1208 1209
f 1209 1208 1210
f 1209 1210 1211
f 1211 1210 1212
f 1211 1212 1213
f 1213 1212 1214
f 1213 1214 1215
f 1215 1214 1216
f 1215 1216 1217
f 1217 1216 1218
f 1217 1218 1219
f 1219 1218 1220
f 1219 1220 1221
f 1221 1220 1222
f 1221 1222 1223
f 1223 1222 1224
f 1223 1224 1225
f 1225 1224 1226
f 1225 1226 1227
f 1227 1226 1228
f 1227 1228 1229
f 1229 1228 1230
f 1229 1230 1231
f 1231 1230 1232
f 1231 1232 1233
f 1233 1232 1234
f 1233 1234 1235
f 1235 1234 1236
f 1235 1236 1237
f 1237 1236 1238
f 1237 1238 1239
f 1239 1238 1240
f 1239 1240 1241
f 1241 1240 1242
f 1241 1242 1243
f 1243 1242 1244
f 1243 1244 1245
f 1245 1244 1246
f 1245 1246 1247
f 1247 1246 1248
f 1247 1248 1249
f 1249 1248 1250
f 1249 1250 1251
f 1251 1250 1252
f 1251 1252 1253
f 1253 1252 1254
f 1253 1254 1255
f 1256 1257 1258
f 1256 1259 1257
f 1260 1256 1258
f 1261 1260 1258
f 1262 1261 1258
f 1263 1262 1258
f 1264 1263 1258
f 1265 1264 1258
f 1266 1265 1258
f 1266 1267 1265
f 1268 1266 1258
f 1269 1268 1258
f 1270 1269 1258
f 1271 1270 1258
f 1272 1271 1258
f 1273 1272 1258
f 1274 1273 1258
f 1275 1274 1258
f 1276 1275 1258
f 1276 1258 1277
f 1278 1276 1277
f 1279 1278 1277
f 1279 1277 1280
f 1279 1280 1281
f 1282 1281 1280
f 1283 1282 1280
f 1284 1283 1280
f 1285 1284 1280
f 1286 1285 1280
f 1286 1280 1287
f 1287 1280 1288
f 1286 1287 1289
f 1286 1289 1290
f 1286 1290 1291
f 1286 1291 1265
f 1292 1286 1265
f 1267 1292 1265
f 1293 1288 1280
f 1294 1293 1280
f 1295 1294 1280
f 1296 1295 1280
f 1297 1296 1280
f 1298 1297 1280
f 1299 1298 1280
f 1259 1299 1280
f 1259 1280 1257
f 1300 1257 1280
f 1300 1301 1257
f 1302 1301 1300
f 1302 1303 1301
f 1304 1303 1302
f 1304 1305 1303
f 1306 1305 1304
f 1306 1307 1305
f 1308 1307 1306
f 1308 1309 1307
f 1310 1309 1308
f 1310 1311 1309
f 1312 1311 1310
f 1312 1313 1311
f 1314 1313 1312
f 1314 1315 1313
f 1316 1317 1318
f 1316 1318 1319
f 1320 1321 1322
f 1323 1321 1320
f 1324 1325 1326
f 1324 1326 1327
f 1328 1329 1330
f 1328 1331 1329
f 1328 1332 1331
f 1328 1333 1332
f 1328 1334 1333
f 1328 1335 1334
f 1328 1336 1335
f 1328 1337 1336
f 1328 1338 1337
f 1328 1339 1338
f 1339 1340 1338
f 1340 1341 1338
f 1341 1342 1338
f 1342 1343 1338
f 1343 1344 1338
f 1344 1345 1338
f 1344 1346 1345
f 1346 1347 1345
f 1347 1348 1345
f 1347 1349 1348
f 1349 1350 1348
f 1349 1351 1350
f 1350 1352 1348
f 1352 1353 1348
f 1353 1354 1348
f 1354 1355 1348
f 1355 1356 1348
f 1356 1357 1348
f 1357 1358 1348
f 1358 1359 1348
f 1359 1360 1348
f 1360 1361 1348
f 1361 1362 1348
f 1362 1363 1348
f 1363 1364 1348
f 1364 1365 1348
f 1365 1366 1348
f 1366 1367 1348
f 1367 1368 1348
f 1368 1369 1348
f 1369 1370 1348
f 1349 1371 1351
f 1371 1372 1351
f 1371 1373 1372
f 1373 1374 1372
f 1373 1375 1374
f 1375 1376 1374
f 1375 1377 1376
f 1377 1378 1376
f 1377 1379 1378
f 1379 1380 1378
f 1379 1381 1380
f 1381 1382 1380
f 1381 1383 1382
f 1383 1384 1382
f 1384 1385 1382
f 1384 1386 1385
f 1386 1387 1385
f 1386 1388 1387
f 1388 1389 1387
f 1388 1390 1389
f 1390 1391 1389
f 1391 1392 1389
f 1391 1393 1392
f 1393 1394 1392
f 1394 1395 1392
f 1394 1396 1395
f 1396 1397 1395
f 1397 1398 1395
f 1397 1399 1398
f 1399 1400 1398
f 1400 1401 1398
f 1400 1402 1401
f 1402 1403 1401
f 1403 1404 1401
f 1403 1405 1404
f 1405 1406 1404
f 1406 1407 1404
f 1406 1408 1407
f 1408 1409 1407
f 1408 1410 1409
f 1410 1411 1409
f 1411 1412 1409
f 1411 1413 1412
f 1413 1414 1412
f 1414 1415 1412
f 1414 1416 1415
f 1416 1417 1415
f 1417 1418 1415
f 1417 1419 1418
f 1419 1420 1418
f 1420 1421 1418
f 1420 1422 1421
f 1422 1423 1421
f 1423 1424 1421
f 1423 1425 1424
f 1425 1426 1424
f 1426 1427 1424
f 1426 1428 1427
f 1428 1429 1427
f 1429 1430 1427
f 1429 1431 1430
f 1431 1432 1430
f 1432 1433 1430
f 1433 1434 1430
f 1433 1435 1434
f 1435 1436 1434
f 1436 1437 1434
f 1436 1438 1437
f 1438 1439 1437
f 1439 1440 1437
f 1439 1441 1440
f 1441 1442 1440
f 1442 1443 1440
f 1442 1444 1443
f 1444 1445 1443
f 1445 1446 1443
f 1445 1447 1446
f 1447 1448 1446
f 1448 1449 1446
f 1448 1450 1449
f 1450 1451 1449
f 1450 1452 1451
f 1452 1453 1451
f 1453 1454 1451
f 1453 1455 1454
f 1455 1456 1454
f 1456 1457 1454
f 1456 1458 1457
f 1458 1459 1457
f 1458 1460 1459
f 1460 1461 1459
f 1461 1462 1459
f 1461 1463 1462
f 1463 1464 1462
f 1463 1465 1464
f 1465 1466 1464
f 1466 1467 1464
f 1466 1468 1467
f 1468 1469 1467
f 1468 1470 1469
f 1470 1471 1469
f 1470 1472 1471
f 1472 1473 1471
f 1472 1474 1473
f 1474 1475 1473
f 1475 1476 1473
f 1475 1477 1476
f 1477 1478 1476
f 1477 1479 1478
f 1479 1480 1478
f 1479 1481 1480
f 1481 1482 1480
f 1481 1483 1482
f 1483 1484 1482
f 1483 1485 1484
f 1485 1486 1484
f 1485 1487 1486
f 1487 1488 1486
f 1487 1489 1488
f 1489 1490 1488
f 1489 1491 1490
f 1491 1492 1490
f 1491 1493 1492
f 1493 1494 1492
f 1493 1495 1494
f 1495 1496 1494
f 1495 1497 1496
f 1497 1498 1496
f 1497 1499 1498
f 1497 1500 1499
f 1500 1501 1499
f 1500 1502 1501
f 1502 1503 1501
f 1502 1504 1503
f 1504 1505 1503
f 1504 1506 1505
f 1506 1507 1505
f 1506 1508 1507
f 1508 1509 1507
f 1508 1510 1509
f 1508 1511 1510
f 1511 1512 1510
f 1511 1513 1512
f 1511 1514 1513
f 1514 1515 1513
f 1514 1516 1515
f 1516 1517 1515
f 1516 1518 1517
f 1516 1519 1518
f 1519 1520 1518
f 1519 1521 1520
f 1519 1522 1521
f 1522 1523 1521
f 1522 1524 1523
f 1522 1525 1524
f 1525 1526 1524
f 1525 1527 1526
f 1527 1528 1526
f 1527 1529 1528
f 1527 1530 1529
f 1530 1531 1529
f 1530 1532 1531
f 1530 1533 1532
f 1533 1534 1532
f 1533 1535 1534
f 1533 1536 1535
f 1536 1537 1535
f 1536 1538 1537
f 1536 1539 1538
f 1539 1540 1538
f 1539 1541 1540
f 1541 1542 1540
f 1541 1543 1542
f 1541 1544 1543
f 1544 1545 1543
f 1544 1546 1545
f 1544 1547 1546
f 1547 1548 1546
f 1547 1549 1548
f 1547 1550 1549
f 1550 1551 1549
f 1550 1552 1551
f 1552 1553 1551
f 1552 1554 1553
f 1552 1555 1554
f 1555 1556 1554
f 1555 1557 1556
f 1555 1558 1557
f 1558 1559 1557
f 1558 1560 1559
f 1560 1561 1559
f 1560 1562 1561
f 1560 1563 1562
f 1563 1564 1562
f 1563 1565 1564
f 1563 1566 1565
f 1566 1567 1565
f 1566 1568 1567
f 1568 1569 1567
f 1568 1570 1569
f 1568 1571 1570
f 1571 1572 1570
f 1571 1573 1572
f 1573 1574 1572
f 1573 1575 1574
f 1573 1576 1575
f 1576 1577 1575
f 1576 1578 1577
f 1576 1579 1578
f 1579 1580 1578
f 1579 1581 1580
f 1579 1582 1581
f 1582 1583 1581
f 1582 1584 1583
f 1584 1585 1583
f 1584 1586 1585
f 1586 1587 1585
f 1586 1588 1587
f 1588 1589 1587
f 1588 1590 1589
f 1590 1591 1589
f 1590 1592 1591
f 1592 1593 1591
f 1592 1594 1593
f 1594 1595 1593
f 1594 1596 1595
f 1596 1597 1595
f 1596 1598 1597
f 1598 1599 1597
f 1598 1600 1599
f 1600 1601 1599
f 1600 1602 1601
f 1602 1603 1601
f 1603 1604 1601
f 1603 1605 1604
f 1605 1606 1604
f 1605 1607 1606
f 1607 1608 1606
f 1607 1609 1608
f 1609 1610 1608
f 1609 1611 1610
f 1611 1612 1610
f 1612 1613 1610
f 1612 1614 1613
f 1614 1615 1613
f 1614 1616 1615
f 1616 1617 1615
f 1617 1618 1615
f 1617 1619 1618
f 1619 1620 1618
f 1619 1621 1620
f 1621 1622 1620
f 1621 1623 1622
f 1623 1624 1622
f 1623 1625 1624
f 1625 1626 1624
f 1625 1627 1626
f 1627 1628 1626
f 1627 1629 1628
f 1629 1630 1628
f 1629 1631 1630
f 1631 1632 1630
f 1631 1633 1632
f 1633 1634 1632
f 1633 1635 1634
f 1635 1636 1634
f 1635 1637 1636
f 1637 1638 1636
f 1638 1639 1636
f 1638 1640 1639
f 1640 1641 1639
f 1640 1642 1641
f 1642 1643 1641
f 1642 1644 1643
f 1644 1645 1643
f 1644 1646 1645
f 1646 1647 1645
f 1646 1648 1647
f 1648 1649 1647
f 1649 1650 1647
f 1649 1651 1650
f 1651 1652 1650
f 1651 1653 1652
f 1653 1654 1652
f 1653 1655 1654
f 1655 1656 1654
f 1655 1657 1656
f 1657 1658 1656
f 1657 1659 1658
f 1659 1660 1658
f 1659 1661 1660
f 1661 1662 1660
f 1661 1663 1662
f 1663 1664 1662
f 1663 1665 1664
f 1665 1666 1664
f 1665 1667 1666
f 1667 1668 1666
f 1667 1669 1668
f 1669 1670 1668
f 1669 1671 1670
f 1669 1672 1671
f 1672 1673 1671
f 1672 1674 1673
f 1674 1675 1673
f 1674 1676 1675
f 1676 1677 1675
f 1676 1678 1677
f 1676 1679 1678
f 1679 1680 1678
f 1679 1681 1680
f 1681 1682 1680
f 1681 1683 1682
f 1683 1684 1682
f 1683 1685 1684
f 1683 1686 1685
f 1686 1687 1685
f 1686 1688 1687
f 1688 1689 1687
f 1688 1690 1689
f 1688 1691 1690
f 1691 1692 1690
f 1691 1693 1692
f 1691 1694 1693
f 1694 1695 1693
f 1694 1696 1695
f 1694 1697 1696
f 1697 1698 1696
f 1697 1699 1698
f 1697 1700 1699
f 1700 1701 1699
f 1700 1702 1701
f 1702 1703 1701
f 1702 1704 1703
f 1702 1705 1704
f 1702 1706 1705
f 1706 1707 1705
f 1706 1708 1707
f 1706 1709 1708
f 1709 1710 1708
f 1709 1711 1710
f 1711 1712 1710
f 1711 1713 1712
f 1711 1714 1713
f 1714 1715 1713
f 1714 1716 1715
f 1716 1717 1715
f 1716 1718 1717
f 1718 1719 1717
f 1718 1720 1719
f 1718 1721 1720
f 1718 1722 1721
f 1722 1723 1721
f 1722 1724 1723
f 1722 1725 1724
f 1722 1726 1725
f 1726 1727 1725
f 1726 1728 1727
f 1728 1729 1727
f 1729 1730 1727
f 1729 1731 1730
f 1731 1732 1730
f 1731 1733 1732
f 1733 1734 1732
f 1734 1735 1732
f 1734 1736 1735
f 1736 1737 1735
f 1737 1738 1735
f 1737 1739 1738
f 1739 1740 1738
f 1740 1741 1738
f 1740 1742 1741
f 1742 1743 1741
f 1742 1744 1743
f 1744 1745 1743
f 1744 1746 1745
f 1746 1747 1745
f 1746 1748 1747
f 1748 1749 1747
f 1749 1750 1747
f 1749 1751 1750
f 1751 1752 1750
f 1751 1753 1752
f 1753 1754 1752
f 1755 1756 1757
f 1758 1756 1755
f 1759 1755 1757
f 1759 1757 1760
f 1759 1760 1761
f 1761 1760 1762
f 1761 1762 1763
f 1763 1762 1764
f 1763 1764 1765
f 1765 1764 1766
f 1765 1766 1767
f 1767 1766 1768
f 1767 1768 1769
f 1769 1768 1770
f 1769 1770 1771
f 1771 1770 1772
f 1771 1772 1773
f 1773 1772 1774
f 1773 1774 1775
f 1775 1774 1776
f 1775 1776 1777
f 1777 1776 1778
f 1777 1778 1779
f 1779 1778 1780
f 1779 1780 1781
f 1781 1780 1782
f 1781 1782 1783
f 1783 1782 1784
f 1783 1784 1785
f 1785 1784 1786
f 1785 1786 1787
f 1787 1786 1788
f 1787 1788 1789
f 1789 1788 1790
f 1789 1790 1791
f 1791 1790 1792
f 1791 1792 1793
f 1793 1792 1794
f 1793 1794 1758
f 1758 1794 1756
f 1795 1796 1797
f 1798 1796 1795
f 1799 1795 1797
f 1799 1797 1800
f 1799 1800 1801
f 1801 1800 1802
f 1801 1802 1803
f 1803 1802 1804
f 1803 1804 1805
f 1805 1804 1806
f 1805 1806 1807
f 1807 1806 1808
f 1807 1808 1809
f 1809 1808 1810
f 1809 1810 1811
f 1811 1810 1812
f 1811 1812 1813
f 1813 1812 1814
f 1813 1814 1815
f 1815 1814 1816
f 1815 1816 1817
f 1817 1816 1818
f 1817 1818 1819
f 1819 1818 1820
f 1819 1820 1821
f 1821 1820 1822
f 1821 1822 1823
f 1823 1822 1824
f 1823 1824 1825
f 1825 1824 1826
f 1825 1826 1827
f 1827 1826 1828
f 1827 1828 1829
f 1829 1828 1830
f 1829 1830 1831
f 1831 1830 1832
f 1831 1832 1833
f 1833 1832 1834
f 1833 1834 1798
f 1798 1834 1796
f 1835 1836 1837
f 1835 1838 1836
f 1839 1835 1837
f 1840 1839 1837
f 1840 1841 1839
f 1840 1842 1841
f 1842 1843 1841
f 1842 1844 1843
f 1844 1845 1843
f 1844 1846 1845
f 1846 1847 1845
f 1846 1848 1847
f 1838 1849 1836
f 1838 1850 1849
f 1850 1851 1849
f 1850 1852 1851
f 1852 1853 1851
f 1852 1854 1853
f 1855 1856 1857
f 1855 1858 1856
f 1859 1855 1857
f 1860 1859 1857
f 1860 1861 1859
f 1860 1862 1861
f 1862 1863 1861
f 1862 1864 1863
f 1864 1865 1863
f 1864 1866 1865
f 1866 1867 1865
f 1866 1868 1867
f 1858 1869 1856
f 1858 1870 1869
f 1870 1871 1869
f 1870 1872 1871
f 1872 1873 1871
f 1872 1874 1873
