1820 1808 0
v 0.14367174 0.07028748 -0.001875
v 0.1503642 0.065601375 -0.00200127
v 0.15040296 0.06557421 -0.001875
v 0.15032178 0.065631075 -0.002126475
v 0.1502757 0.065663325 -0.0022506
v 0.15022599 0.06569814 -0.002373675
v 0.150172635 0.065735505 -0.00249567
v 0.150115635 0.065775405 -0.0026166
v 0.15005499 0.065817885 -0.00273645
v 0.149990685 0.0658629 -0.00285525
v 0.149922735 0.06591048 -0.00297297
v 0.149851155 0.06596061 -0.003089625
v 0.14977593 0.06601329 -0.0032052
v 0.149697045 0.066068505 -0.003319725
v 0.149614845 0.06612606 -0.003433245
v 0.149529345 0.06618594 -0.003545745
v 0.14944041 0.066248205 -0.003657225
v 0.149347935 0.066312975 -0.00376767
v 0.149251755 0.06638031 -0.00387702
v 0.14915178 0.066450315 -0.003985275
v 0.149047845 0.06652308 -0.004092405
v 0.14893986 0.066598695 -0.004198395
v 0.14882766 0.06667725 -0.0043032
v 0.148711155 0.066758835 -0.004406805
v 0.148590195 0.06684354 -0.00450918
v 0.148464675 0.066931425 -0.00461034
v 0.14833488 0.067022295 -0.0047103
v 0.1482009 0.06711612 -0.00480909
v 0.14806272 0.06721287 -0.00490671
v 0.1479204 0.067312545 -0.005003175
v 0.14777391 0.0674151 -0.005098455
v 0.147623325 0.067520535 -0.005192595
v 0.147468645 0.06762885 -0.005285565
v 0.147309885 0.067740015 -0.00537738
v 0.147147075 0.06785403 -0.005468025
v 0.14698023 0.06797085 -0.00555753
v 0.14680938 0.068090475 -0.005645865
v 0.14663433 0.06821304 -0.005732955
v 0.14645457 0.06833892 -0.005818485
v 0.14627022 0.068467995 -0.005902575
v 0.146081535 0.068600115 -0.00598536
v 0.145888725 0.06873513 -0.006066945
v 0.145692015 0.06887286 -0.00614745
v 0.14549163 0.06901317 -0.00622704
v 0.14528778 0.06915591 -0.006305805
v 0.145080705 0.0693009 -0.006383895
v 0.1448706 0.06944802 -0.00646143
v 0.144657705 0.06959709 -0.00653853
v 0.144442245 0.06974796 -0.006615345
v 0.1442235 0.06990114 -0.006691305
v 0.14400033 0.070057395 -0.006765675
v 0.14377317 0.070216455 -0.00683874
v 0.143542395 0.070378035 -0.006910815
v 0.143641515 0.070308645 0.006995895
v 0.14367174 0.07028748 0.001875
v 0.14341362 0.070468215 0.007061865
v 0.143308425 0.070541865 -0.00698223
v 0.14318289 0.07062978 0.007127955
v 0.143071635 0.070707675 -0.007053285
v 0.142949535 0.07079316 0.007194495
v 0.142832415 0.070875165 -0.007124295
v 0.14271381 0.07095822 0.007261815
v 0.142591215 0.071044065 -0.007195575
v 0.14247594 0.07112478 0.007330215
v 0.14234838 0.071214105 -0.007267455
v 0.14223612 0.071292705 0.007399995
v 0.14210433 0.071384985 -0.00734022
v 0.141991755 0.07146381 0.00746976
v 0.14185947 0.071556435 -0.0074142
v 0.141741825 0.071638815 0.007538745
v 0.141614175 0.0717282 -0.007489695
v 0.141487365 0.071816985 0.0076074
v 0.141366135 0.07190187 -0.007565175
v 0.14122944 0.071997585 0.007676145
v 0.141114285 0.072078225 -0.00763986
v 0.140969085 0.07217991 0.0077454
v 0.14085939 0.072256695 -0.007714245
v 0.14079468 0.072302025 0.00779208
v 0.14061996 0.07242435 0.007839285
v 0.140602245 0.07243677 -0.007788795
v 0.140445285 0.07254666 0.00788718
v 0.140343585 0.072617865 -0.00786402
v 0.140270925 0.07266876 0.00793587
v 0.14009718 0.07279041 0.00798549
v 0.14008425 0.07279947 -0.0079404
v 0.139924395 0.0729114 0.00803616
v 0.139824975 0.072981015 -0.0080184
v 0.139752855 0.073031505 0.008088015
v 0.13965255 0.073101735 -0.00807156
v 0.13958289 0.073150515 0.008141175
v 0.139480755 0.073222035 -0.0081258
v 0.1394148 0.07326822 0.008195775
v 0.13930977 0.073341765 -0.008181255
v 0.1392489 0.07338438 0.00825192
v 0.13913988 0.073460715 -0.008238105
v 0.139083945 0.07349988 0.00830916
v 0.13897128 0.073578765 -0.008296455
v 0.13891857 0.07361568 0.00836697
v 0.138804225 0.07369575 -0.00835647
v 0.138753015 0.073731615 0.00842541
v 0.13863894 0.073811475 -0.008418285
v 0.13858749 0.073847505 0.008484585
v 0.13847391 0.073927035 -0.008481675
v 0.138422235 0.073963215 0.00854454
v 0.13830774 0.074043375 -0.00854628
v 0.138257445 0.074078595 0.008605365
v 0.138140805 0.07416027 -0.00861207
v 0.138093345 0.074193495 0.00866715
v 0.13797345 0.07427745 -0.00867903
v 0.137930175 0.074307765 0.00872997
v 0.13780605 0.074394675 -0.008747145
v 0.13776813 0.07442124 0.008793885
v 0.13763895 0.074511675 -0.008816385
v 0.13760742 0.074533755 0.00885897
v 0.13747254 0.074628195 -0.00888672
v 0.13744827 0.07464519 0.00892533
v 0.137307165 0.074743995 -0.00895812
v 0.13729092 0.074755365 0.00899301
v 0.137143185 0.074858805 -0.009030585
v 0.137135565 0.074864145 0.009062115
v 0.136982445 0.074971365 0.009132705
v 0.136981005 0.074972385 -0.00910407
v 0.136831755 0.07507689 0.009204855
v 0.136820925 0.075084465 -0.00917856
v 0.13668372 0.075180525 0.009278655
v 0.136663335 0.075194805 -0.009254025
v 0.136538565 0.075282165 0.009354165
v 0.13650861 0.07530315 -0.00933045
v 0.1363965 0.07538166 0.00943155
v 0.13635711 0.07540923 -0.009407805
v 0.136257225 0.075479175 0.00951159
v 0.136209195 0.075512805 -0.009486075
v 0.136120545 0.075574875 0.0095943
v 0.136065225 0.075613605 -0.00956523
v 0.135986325 0.075668865 0.00967941
v 0.135925575 0.075711405 -0.00964524
v 0.1358544 0.075761235 0.00976662
v 0.135790545 0.07580595 -0.00972618
v 0.135724665 0.075852075 0.00985566
v 0.135659805 0.075897495 -0.009809115
v 0.135596955 0.075941505 0.00994626
v 0.135532995 0.07598628 -0.009894195
v 0.135471135 0.0760296 0.01003812
v 0.135409875 0.0760725 -0.009981135
v 0.13534707 0.076116465 0.010130985
v 0.13529016 0.07615632 -0.010069695
v 0.135224625 0.076202205 0.01022454
v 0.135173625 0.07623792 -0.01015962
v 0.135103635 0.076286925 0.010318545
v 0.1350042 0.07635654 -0.01029648
v 0.13498401 0.0763707 0.010412685
v 0.13486554 0.076453635 0.01050669
v 0.134840505 0.076471185 -0.01043496
v 0.134748165 0.076535835 0.01060029
v 0.13468164 0.07658241 -0.010574205
v 0.13463169 0.07661739 0.0106932
v 0.134526795 0.07669083 -0.010713345
v 0.13451598 0.076698405 0.01078515
v 0.134400915 0.07677897 0.010875825
v 0.1343751 0.076797045 -0.010851495
v 0.134286345 0.07685919 0.010964985
v 0.1342257 0.07690167 -0.01098783
v 0.134172585 0.076938855 0.01105299
v 0.134077755 0.07700526 -0.01112145
v 0.13406094 0.07701702 0.01114173
v 0.13395132 0.077093775 0.01123116
v 0.133930395 0.077108445 -0.011251515
v 0.133790205 0.077206605 0.011366115
v 0.13378479 0.077210385 -0.01137888
v 0.13363245 0.077317065 0.01150134
v 0.13364466 0.077308515 -0.011506665
v 0.13350927 0.077403315 -0.011634435
v 0.13347735 0.077425665 0.0116361
v 0.13337775 0.0774954 -0.011761635
v 0.133324185 0.0775329 0.01176966
v 0.13324929 0.07758537 -0.01188771
v 0.133172265 0.07763928 0.01190124
v 0.13312296 0.07767381 -0.012012045
v 0.133020885 0.077745285 0.012030105
v 0.132997935 0.07776135 -0.012134115
v 0.132869325 0.07785141 0.012155505
v 0.132873375 0.077848575 -0.012253335
v 0.132748395 0.077936085 -0.012369135
v 0.13271688 0.07795815 0.01227669
v 0.132622125 0.078024495 -0.01248093
v 0.132562845 0.078066015 0.01239288
v 0.13249371 0.078114405 -0.01258818
v 0.132406515 0.078175485 0.012503355
v 0.13236231 0.07820643 -0.012690315
v 0.132249945 0.078285105 0.012609405
v 0.132230325 0.078298845 -0.01278822
v 0.132095235 0.078393435 0.012712635
v 0.132100245 0.078389925 -0.012883125
v 0.131971245 0.078480255 -0.012974865
v 0.131941635 0.07850097 0.01281282
v 0.131842515 0.07857039 -0.01306329
v 0.131788485 0.07860822 0.01290969
v 0.13171326 0.0786609 -0.013148235
v 0.13163505 0.078715665 0.01300302
v 0.131582625 0.07875237 -0.01322955
v 0.131480625 0.078823785 0.01309257
v 0.13144983 0.078845355 -0.013307085
v 0.131324505 0.078933105 0.013178085
v 0.131314065 0.078940425 -0.01338069
v 0.13116597 0.079044105 0.013259325
v 0.13117449 0.07903815 -0.0134502
v 0.131030295 0.0791391 -0.013515465
v 0.13100436 0.07915728 0.013336035
v 0.1308807 0.07924386 -0.013576335
v 0.130838895 0.079273125 0.013407975
v 0.130725 0.07935288 -0.01363269
v 0.130668945 0.079392135 0.013474905
v 0.13056633 0.079463985 -0.01368549
v 0.13049388 0.079514715 0.01353663
v 0.13040577 0.07957641 -0.013734975
v 0.13031673 0.07963875 0.013594245
v 0.13024266 0.079690605 -0.013780875
v 0.130138485 0.079763565 0.013648095
v 0.130076355 0.079807065 -0.01382289
v 0.12995841 0.079889655 0.013697925
v 0.129906165 0.07992624 -0.013860765
v 0.12977583 0.080017485 0.01374345
v 0.129731445 0.08004858 -0.013894215
v 0.129590055 0.080147595 0.0137844
v 0.12955152 0.08017455 -0.013922955
v 0.12940035 0.080280405 0.01382052
v 0.129365775 0.08030463 -0.013946715
v 0.12920604 0.08041647 0.01385154
v 0.129173505 0.080439255 -0.013965195
v 0.12900642 0.08055624 0.013877205
v 0.12897405 0.080578905 -0.013978155
v 0.1288008 0.080700225 0.01389723
v 0.128766795 0.08072403 -0.01398528
v 0.12858846 0.08084889 0.013911345
v 0.128551185 0.080875005 -0.013986585
v 0.12836874 0.08100276 0.013919295
v 0.12832806 0.08103123 -0.01398381
v 0.12814101 0.08116221 0.01392105
v 0.128097945 0.081192375 -0.013976955
v 0.127905915 0.08132682 0.01391799
v 0.127861095 0.081358215 -0.013965585
v 0.12766401 0.081496215 0.013910175
v 0.12761784 0.08152854 -0.01394928
v 0.127415715 0.081670065 0.01389729
v 0.12736848 0.08170314 -0.013927575
v 0.127161465 0.0818481 0.01387902
v 0.127113315 0.081881805 -0.01390005
v 0.126901695 0.08202999 0.01385505
v 0.12685263 0.08206434 -0.01386627
v 0.12663681 0.08221545 0.013825065
v 0.126586755 0.082250505 -0.013825785
v 0.126367275 0.08240418 0.013788765
v 0.126315975 0.082440105 -0.01377816
v 0.12609351 0.08259588 0.013745835
v 0.12604059 0.08263293 -0.013722975
v 0.125815935 0.08279025 0.01369596
v 0.125760915 0.08282877 -0.01365978
v 0.12553497 0.082986975 0.01363884
v 0.125475555 0.083028585 -0.013588305
v 0.12525105 0.083185785 0.01357413
v 0.125180085 0.08323548 -0.013508985
v 0.124962855 0.08338758 0.013501515
v 0.124875705 0.0834486 -0.013422135
v 0.1246656 0.08359572 0.013420905
v 0.12456414 0.08366676 -0.01332804
v 0.1243605 0.08380935 0.01333266
v 0.124247055 0.08388879 -0.013227
v 0.124049235 0.0840273 0.01323717
v 0.123926145 0.08411349 -0.013119285
v 0.123733485 0.0842484 0.013134825
v 0.12360306 0.08433972 -0.01300521
v 0.123414885 0.08447148 0.013026
v 0.12327954 0.08456625 -0.01288506
v 0.12309516 0.084695355 0.012911085
v 0.122957205 0.08479194 -0.01275912
v 0.122775945 0.08491887 0.01279047
v 0.12263781 0.08501559 -0.012627675
v 0.122458935 0.08514084 0.01266453
v 0.12232299 0.08523603 -0.012491025
v 0.122145795 0.085360095 0.01253367
v 0.12201444 0.085452075 -0.012349455
v 0.121838205 0.08557548 0.012398265
v 0.12170943 0.085665645 -0.012201645
v 0.121537845 0.085785795 0.012258705
v 0.12140259 0.085880505 -0.01204575
v 0.12124236 0.085992705 0.012113745
v 0.121094985 0.08609589 -0.011882505
v 0.12094686 0.086199615 0.011961525
v 0.12078774 0.08631102 -0.01171272
v 0.12065214 0.08640597 0.01180266
v 0.120481995 0.086525115 -0.01153716
v 0.120359055 0.086611185 0.01163784
v 0.12017886 0.086737365 -0.011356635
v 0.120068445 0.086814675 0.01146777
v 0.119879475 0.08694699 -0.011171895
v 0.119781165 0.08701584 0.011293095
v 0.11958498 0.08715321 -0.010983765
v 0.119498055 0.087214065 0.01111452
v 0.11929647 0.087355215 -0.01079301
v 0.11921997 0.08740878 0.010932705
v 0.1190151 0.08755224 -0.01060041
v 0.118947765 0.0875994 0.01074834
v 0.118741995 0.087743475 -0.01040676
v 0.118682265 0.087785295 0.010562085
v 0.11847825 0.08792814 -0.01021281
v 0.118424355 0.08796588 0.01037466
v 0.118221915 0.08810763 -0.01001643
v 0.118174845 0.0881406 0.01018668
v 0.117971325 0.0882831 -0.009816225
v 0.117932355 0.088310385 0.00999633
v 0.117726555 0.08845449 -0.009612585
v 0.117695685 0.088476105 0.009802395
v 0.11748768 0.088621755 -0.009405945
v 0.11746482 0.08863776 0.009605235
v 0.11725479 0.08878482 -0.00919674
v 0.11723979 0.08879532 0.00940521
v 0.117027945 0.088943655 -0.00898539
v 0.117020595 0.0889488 0.009202665
v 0.11680728 0.08909817 0.00899796
v 0.11680725 0.0890982 -0.0087723
v 0.116599815 0.089243445 0.00879147
v 0.116592765 0.08924838 -0.008557905
v 0.116398245 0.08938458 0.00858354
v 0.11638458 0.08939415 -0.008342625
v 0.11620257 0.08952159 0.008374515
v 0.116182755 0.089535465 -0.00812688
v 0.116012805 0.08965446 0.008164755
v 0.115987395 0.08967225 -0.00791109
v 0.115828965 0.089783205 0.007954635
v 0.11579859 0.089804475 -0.007695525
v 0.11565108 0.08990775 0.007744365
v 0.11561646 0.08993199 -0.00747855
v 0.115479465 0.090027915 0.007532595
v 0.115440945 0.0900549 -0.00725982
v 0.115314105 0.0901437 0.007319025
v 0.115271895 0.09017325 -0.00703965
v 0.115154865 0.09025521 0.00710391
v 0.115109205 0.090287175 -0.00681831
v 0.115001595 0.09036252 0.006887475
v 0.114952755 0.090396735 -0.006596085
v 0.11485416 0.090465765 0.00666996
v 0.11480238 0.09050202 -0.006373275
v 0.114712425 0.090565005 0.006451605
v 0.114657975 0.090603135 -0.006150165
v 0.114576255 0.09066036 0.00623262
v 0.11451939 0.09070017 -0.00592704
v 0.1144455 0.090751905 0.006013275
v 0.114386535 0.0907932 -0.005704185
v 0.11432004 0.09083976 0.005793765
v 0.11425923 0.09088233 -0.0054819
v 0.114199725 0.090924 0.00557436
v 0.114137385 0.09096765 -0.005260455
v 0.11408442 0.09100473 0.00535527
v 0.11402109 0.091049085 -0.005039985
v 0.1139742 0.09108192 0.005136645
v 0.113911215 0.09112602 -0.0048198
v 0.11386989 0.091154955 0.00491805
v 0.113807685 0.091198515 -0.004599795
v 0.113771415 0.09122391 0.004699365
v 0.11371026 0.09126672 -0.004379955
v 0.113678565 0.09128892 0.004480515
v 0.113618685 0.091330845 -0.00416025
v 0.113591145 0.091350135 0.00426144
v 0.113532735 0.091391025 -0.003940665
v 0.11350896 0.091407675 0.00404205
v 0.113452155 0.091447455 -0.0037212
v 0.113431785 0.09146172 0.0038223
v 0.11337669 0.091500285 -0.003501825
v 0.113359425 0.091512375 0.003602115
v 0.11330613 0.091549695 -0.00328251
v 0.113291685 0.09155982 0.003381405
v 0.113240205 0.091595865 -0.00306327
v 0.113228355 0.091604175 0.003160125
v 0.11317869 0.091638945 -0.002844075
v 0.11316921 0.091645575 0.002938185
v 0.113121315 0.0916791 -0.00262491
v 0.11311407 0.091684185 0.002715525
v 0.113068185 0.091716315 -0.002405775
v 0.113062995 0.09171996 0.00249216
v 0.11301984 0.09175017 -0.002186715
v 0.113016435 0.091752555 0.00226827
v 0.11297631 0.09178065 -0.001967715
v 0.112974435 0.091781955 0.00204384
v 0.11293758 0.091807755 -0.00174879
v 0.11293698 0.09180819 0.00181887
v 0.11290407 0.09183123 0.001593375
v 0.11290368 0.0918315 -0.00152994
v 0.11287572 0.091851075 0.00136734
v 0.112874595 0.09185187 -0.001311165
v 0.11285193 0.09186774 0.00114078
v 0.112850325 0.091868865 -0.00109245
v 0.11283267 0.091881225 0.000913695
v 0.11283087 0.091882485 -0.000873825
v 0.11281797 0.091891515 0.00068607
v 0.112816215 0.091892745 -0.00065526
v 0.11280783 0.091898625 0.000457905
v 0.11280639 0.09189963 -0.00043677
v 0.11280222 0.09190254 0.000229215
v 0.11280138 0.09190314 -0.00021834
v 0.11280117 0.091903275 0
v 0.143866335 0.07015122 0.006929745
v 0.15042975 0.06555546 0.001875
v 0.144087855 0.06999612 0.00686307
v 0.14430582 0.069843495 0.006795585
v 0.144520005 0.06969351 0.006726945
v 0.1447302 0.069546345 0.006656835
v 0.14493615 0.069402135 0.006584955
v 0.145138425 0.069260505 0.00651207
v 0.145337385 0.06912117 0.006438705
v 0.145532985 0.06898422 0.00636474
v 0.14572512 0.068849685 0.00629007
v 0.145913685 0.06871764 0.006214545
v 0.146098635 0.068588145 0.006138075
v 0.146279865 0.068461245 0.00606051
v 0.1464573 0.068337015 0.005981745
v 0.14663082 0.0682155 0.005901645
v 0.14680038 0.068096775 0.005820105
v 0.14696589 0.067980885 0.00573699
v 0.14712726 0.067867905 0.00565221
v 0.147284655 0.067757685 0.005566005
v 0.147438165 0.067650195 0.005478465
v 0.14758779 0.06754542 0.005389635
v 0.147733545 0.067443375 0.005299485
v 0.147875415 0.06734403 0.00520806
v 0.148013445 0.067247385 0.005115345
v 0.14814765 0.06715341 0.005021355
v 0.148278015 0.067062135 0.004926105
v 0.14840457 0.066973515 0.004829595
v 0.148527315 0.066887565 0.00473184
v 0.14864628 0.06680427 0.004632855
v 0.14876136 0.06672369 0.00453264
v 0.148872225 0.06664605 0.004431195
v 0.148978965 0.06657132 0.00432852
v 0.149081685 0.066499395 0.0042246
v 0.149180535 0.066430185 0.00411942
v 0.14927565 0.06636357 0.00401298
v 0.149367165 0.06629949 0.003905265
v 0.149455215 0.06623784 0.00379626
v 0.149539935 0.066178515 0.003685965
v 0.149621475 0.066121425 0.003574365
v 0.14969994 0.06606648 0.00346146
v 0.149775495 0.06601359 0.00334722
v 0.14984808 0.065962755 0.003231675
v 0.149917395 0.065914215 0.003114825
v 0.14998344 0.065867985 0.00299667
v 0.15004617 0.065824035 0.002877225
v 0.15010563 0.06578241 0.00275649
v 0.150161805 0.06574308 0.00263445
v 0.15021468 0.06570606 0.00251112
v 0.15026427 0.065671335 0.002386485
v 0.150310575 0.065638905 0.00226056
v 0.15035358 0.0656088 0.00213333
v 0.1503933 0.06558099 0.00200481
v 0.151478415 0.067110135 -0.001875
v 0.15040296 0.06557421 -0.001875
v 0.1503642 0.065601375 -0.00200127
v 0.151439655 0.067137285 -0.00200127
v 0.15032178 0.065631075 -0.002126475
v 0.15139722 0.067166985 -0.002126475
v 0.1502757 0.065663325 -0.0022506
v 0.151351155 0.067199235 -0.0022506
v 0.15022599 0.06569814 -0.002373675
v 0.151301445 0.06723405 -0.002373675
v 0.150172635 0.065735505 -0.00249567
v 0.15124809 0.067271415 -0.00249567
v 0.150115635 0.065775405 -0.0026166
v 0.15119109 0.06731133 -0.0026166
v 0.15005499 0.065817885 -0.00273645
v 0.15113043 0.06735378 -0.00273645
v 0.149990685 0.0658629 -0.00285525
v 0.15106614 0.06739881 -0.00285525
v 0.149922735 0.06591048 -0.00297297
v 0.15099819 0.06744639 -0.00297297
v 0.149851155 0.06596061 -0.003089625
v 0.15092661 0.067496505 -0.003089625
v 0.14977593 0.06601329 -0.0032052
v 0.15085137 0.0675492 -0.0032052
v 0.149697045 0.066068505 -0.003319725
v 0.1507725 0.067604415 -0.003319725
v 0.149614845 0.06612606 -0.003433245
v 0.150690315 0.06766197 -0.003433245
v 0.149529345 0.06618594 -0.003545745
v 0.1506048 0.06772185 -0.003545745
v 0.14944041 0.066248205 -0.003657225
v 0.150515865 0.067784115 -0.003657225
v 0.149347935 0.066312975 -0.00376767
v 0.15042339 0.06784887 -0.00376767
v 0.149251755 0.06638031 -0.00387702
v 0.15032721 0.06791622 -0.00387702
v 0.14915178 0.066450315 -0.003985275
v 0.15022722 0.067986225 -0.003985275
v 0.149047845 0.06652308 -0.004092405
v 0.150123315 0.06805899 -0.004092405
v 0.14893986 0.066598695 -0.004198395
v 0.150015315 0.068134605 -0.004198395
v 0.14882766 0.06667725 -0.0043032
v 0.14990313 0.06821316 -0.0043032
v 0.148711155 0.066758835 -0.004406805
v 0.14978661 0.068294745 -0.004406805
v 0.148590195 0.06684354 -0.00450918
v 0.14966565 0.06837945 -0.00450918
v 0.148464675 0.066931425 -0.00461034
v 0.14954013 0.068467335 -0.00461034
v 0.14833488 0.067022295 -0.0047103
v 0.14941035 0.06855822 -0.0047103
v 0.1482009 0.06711612 -0.00480909
v 0.14927634 0.06865203 -0.00480909
v 0.14806272 0.06721287 -0.00490671
v 0.149138175 0.06874878 -0.00490671
v 0.1479204 0.067312545 -0.005003175
v 0.14899584 0.068848455 -0.005003175
v 0.14777391 0.0674151 -0.005098455
v 0.148849365 0.06895101 -0.005098455
v 0.147623325 0.067520535 -0.005192595
v 0.14869878 0.06905646 -0.005192595
v 0.147468645 0.06762885 -0.005285565
v 0.1485441 0.06916476 -0.005285565
v 0.147309885 0.067740015 -0.00537738
v 0.14838534 0.069275925 -0.00537738
v 0.147147075 0.06785403 -0.005468025
v 0.148222515 0.06938994 -0.005468025
v 0.14698023 0.06797085 -0.00555753
v 0.14805567 0.06950676 -0.00555753
v 0.14680938 0.068090475 -0.005645865
v 0.147884835 0.069626385 -0.005645865
v 0.14663433 0.06821304 -0.005732955
v 0.1477098 0.06974895 -0.005732955
v 0.14645457 0.06833892 -0.005818485
v 0.14753001 0.06987483 -0.005818485
v 0.14627022 0.068467995 -0.005902575
v 0.147345675 0.070003905 -0.005902575
v 0.146081535 0.068600115 -0.00598536
v 0.14715699 0.070136025 -0.00598536
v 0.145888725 0.06873513 -0.006066945
v 0.14696418 0.07027104 -0.006066945
v 0.145692015 0.06887286 -0.00614745
v 0.14676747 0.07040877 -0.00614745
v 0.14549163 0.06901317 -0.00622704
v 0.146567085 0.07054908 -0.00622704
v 0.14528778 0.06915591 -0.006305805
v 0.146363235 0.07069182 -0.006305805
v 0.145080705 0.0693009 -0.006383895
v 0.14615616 0.070836825 -0.006383895
v 0.1448706 0.06944802 -0.00646143
v 0.145946055 0.07098393 -0.00646143
v 0.144657705 0.06959709 -0.00653853
v 0.145733175 0.071133 -0.00653853
v 0.144442245 0.06974796 -0.006615345
v 0.1455177 0.07128387 -0.006615345
v 0.1442235 0.06990114 -0.006691305
v 0.14529894 0.07143705 -0.006691305
v 0.14400033 0.070057395 -0.006765675
v 0.1450758 0.071593305 -0.006765675
v 0.14377317 0.070216455 -0.00683874
v 0.144848625 0.071752365 -0.00683874
v 0.143542395 0.070378035 -0.006910815
v 0.144617865 0.071913945 -0.006910815
v 0.143308425 0.070541865 -0.00698223
v 0.14438388 0.072077775 -0.00698223
v 0.143071635 0.070707675 -0.007053285
v 0.14414709 0.072243585 -0.007053285
v 0.142832415 0.070875165 -0.007124295
v 0.143907885 0.072411075 -0.007124295
v 0.142591215 0.071044065 -0.007195575
v 0.14366667 0.072579975 -0.007195575
v 0.14234838 0.071214105 -0.007267455
v 0.143423835 0.072750015 -0.007267455
v 0.14210433 0.071384985 -0.00734022
v 0.1431798 0.072920895 -0.00734022
v 0.14185947 0.071556435 -0.0074142
v 0.14293494 0.073092345 -0.0074142
v 0.141614175 0.0717282 -0.007489695
v 0.14268963 0.07326411 -0.007489695
v 0.141366135 0.07190187 -0.007565175
v 0.14244159 0.07343778 -0.007565175
v 0.141114285 0.072078225 -0.00763986
v 0.14218974 0.073614135 -0.00763986
v 0.14085939 0.072256695 -0.007714245
v 0.141934845 0.07379262 -0.007714245
v 0.140602245 0.07243677 -0.007788795
v 0.141677685 0.07397268 -0.007788795
v 0.140343585 0.072617865 -0.00786402
v 0.141419055 0.074153775 -0.00786402
v 0.14008425 0.07279947 -0.0079404
v 0.14115969 0.07433538 -0.0079404
v 0.139824975 0.072981015 -0.0080184
v 0.14090043 0.07451691 -0.0080184
v 0.13965255 0.073101735 -0.00807156
v 0.140728005 0.074637645 -0.00807156
v 0.139480755 0.073222035 -0.0081258
v 0.140556195 0.074757945 -0.0081258
v 0.13930977 0.073341765 -0.008181255
v 0.140385225 0.07487766 -0.008181255
v 0.13913988 0.073460715 -0.008238105
v 0.140215335 0.074996625 -0.008238105
v 0.13897128 0.073578765 -0.008296455
v 0.14004675 0.075114675 -0.008296455
v 0.138804225 0.07369575 -0.00835647
v 0.139879695 0.075231645 -0.00835647
v 0.13863894 0.073811475 -0.008418285
v 0.139714395 0.0753474 -0.008418285
v 0.13847391 0.073927035 -0.008481675
v 0.139549365 0.075462945 -0.008481675
v 0.13830774 0.074043375 -0.00854628
v 0.139383195 0.0755793 -0.00854628
v 0.138140805 0.07416027 -0.00861207
v 0.13921626 0.07569618 -0.00861207
v 0.13797345 0.07427745 -0.00867903
v 0.139048905 0.07581336 -0.00867903
v 0.13780605 0.074394675 -0.008747145
v 0.138881505 0.075930585 -0.008747145
v 0.13763895 0.074511675 -0.008816385
v 0.138714405 0.076047585 -0.008816385
v 0.13747254 0.074628195 -0.00888672
v 0.138547995 0.076164105 -0.00888672
v 0.137307165 0.074743995 -0.00895812
v 0.138382635 0.076279905 -0.00895812
v 0.137143185 0.074858805 -0.009030585
v 0.138218655 0.076394715 -0.009030585
v 0.136981005 0.074972385 -0.00910407
v 0.138056445 0.076508295 -0.00910407
v 0.136820925 0.075084465 -0.00917856
v 0.137896365 0.07662039 -0.00917856
v 0.136663335 0.075194805 -0.009254025
v 0.137738805 0.076730715 -0.009254025
v 0.13650861 0.07530315 -0.00933045
v 0.13758408 0.07683906 -0.00933045
v 0.13635711 0.07540923 -0.009407805
v 0.137432565 0.07694514 -0.009407805
v 0.136209195 0.075512805 -0.009486075
v 0.13728465 0.077048715 -0.009486075
v 0.136065225 0.075613605 -0.00956523
v 0.137140695 0.077149515 -0.00956523
v 0.135925575 0.075711405 -0.00964524
v 0.13700103 0.077247315 -0.00964524
v 0.135790545 0.07580595 -0.00972618
v 0.136865985 0.07734186 -0.00972618
v 0.135659805 0.075897495 -0.009809115
v 0.136735275 0.077433405 -0.009809115
v 0.135532995 0.07598628 -0.009894195
v 0.13660845 0.07752219 -0.009894195
v 0.135409875 0.0760725 -0.009981135
v 0.13648533 0.07760841 -0.009981135
v 0.13529016 0.07615632 -0.010069695
v 0.13636563 0.07769223 -0.010069695
v 0.135173625 0.07623792 -0.01015962
v 0.13624908 0.07777383 -0.01015962
v 0.1350042 0.07635654 -0.01029648
v 0.13607967 0.077892465 -0.01029648
v 0.134840505 0.076471185 -0.01043496
v 0.13591596 0.07800708 -0.01043496
v 0.13468164 0.07658241 -0.010574205
v 0.135757095 0.07811832 -0.010574205
v 0.134526795 0.07669083 -0.010713345
v 0.13560225 0.078226755 -0.010713345
v 0.1343751 0.076797045 -0.010851495
v 0.135450555 0.07833297 -0.010851495
v 0.1342257 0.07690167 -0.01098783
v 0.135301155 0.07843758 -0.01098783
v 0.134077755 0.07700526 -0.01112145
v 0.13515321 0.07854117 -0.01112145
v 0.133930395 0.077108445 -0.011251515
v 0.135005835 0.078644355 -0.011251515
v 0.13378479 0.077210385 -0.01137888
v 0.13486026 0.078746295 -0.01137888
v 0.13364466 0.077308515 -0.011506665
v 0.134720115 0.078844425 -0.011506665
v 0.13350927 0.077403315 -0.011634435
v 0.134584725 0.078939225 -0.011634435
v 0.13337775 0.0774954 -0.011761635
v 0.13445322 0.07903131 -0.011761635
v 0.13324929 0.07758537 -0.01188771
v 0.13432473 0.07912128 -0.01188771
v 0.13312296 0.07767381 -0.012012045
v 0.134198415 0.07920972 -0.012012045
v 0.132997935 0.07776135 -0.012134115
v 0.134073405 0.07929726 -0.012134115
v 0.132873375 0.077848575 -0.012253335
v 0.13394883 0.079384485 -0.012253335
v 0.132748395 0.077936085 -0.012369135
v 0.13382385 0.079471995 -0.012369135
v 0.132622125 0.078024495 -0.01248093
v 0.13369758 0.079560405 -0.01248093
v 0.13249371 0.078114405 -0.01258818
v 0.13356918 0.079650315 -0.01258818
v 0.13236231 0.07820643 -0.012690315
v 0.133437765 0.07974234 -0.012690315
v 0.132230325 0.078298845 -0.01278822
v 0.133305795 0.079834755 -0.01278822
v 0.132100245 0.078389925 -0.012883125
v 0.1331757 0.079925835 -0.012883125
v 0.131971245 0.078480255 -0.012974865
v 0.133046715 0.080016165 -0.012974865
v 0.131842515 0.07857039 -0.01306329
v 0.13291797 0.0801063 -0.01306329
v 0.13171326 0.0786609 -0.013148235
v 0.1327887 0.08019681 -0.013148235
v 0.131582625 0.07875237 -0.01322955
v 0.13265808 0.080288265 -0.01322955
v 0.13144983 0.078845355 -0.013307085
v 0.132525285 0.08038125 -0.013307085
v 0.131314065 0.078940425 -0.01338069
v 0.132389505 0.08047632 -0.01338069
v 0.13117449 0.07903815 -0.0134502
v 0.132249945 0.08057406 -0.0134502
v 0.131030295 0.0791391 -0.013515465
v 0.132105765 0.080675025 -0.013515465
v 0.1308807 0.07924386 -0.013576335
v 0.13195614 0.08077977 -0.013576335
v 0.130725 0.07935288 -0.01363269
v 0.13180044 0.08088879 -0.01363269
v 0.13056633 0.079463985 -0.01368549
v 0.131641785 0.08099988 -0.01368549
v 0.13040577 0.07957641 -0.013734975
v 0.131481225 0.081112305 -0.013734975
v 0.13024266 0.079690605 -0.013780875
v 0.131318115 0.08122653 -0.013780875
v 0.130076355 0.079807065 -0.01382289
v 0.13115181 0.081342975 -0.01382289
v 0.129906165 0.07992624 -0.013860765
v 0.13098162 0.08146215 -0.013860765
v 0.129731445 0.08004858 -0.013894215
v 0.1308069 0.08158449 -0.013894215
v 0.12955152 0.08017455 -0.013922955
v 0.13062699 0.08171046 -0.013922955
v 0.129365775 0.08030463 -0.013946715
v 0.130441215 0.08184054 -0.013946715
v 0.129173505 0.080439255 -0.013965195
v 0.13024896 0.081975165 -0.013965195
v 0.12897405 0.080578905 -0.013978155
v 0.13004952 0.082114815 -0.013978155
v 0.128766795 0.08072403 -0.01398528
v 0.12984225 0.08225994 -0.01398528
v 0.128551185 0.080875005 -0.013986585
v 0.129626625 0.082410915 -0.013986585
v 0.12832806 0.08103123 -0.01398381
v 0.12940353 0.08256714 -0.01398381
v 0.128097945 0.081192375 -0.013976955
v 0.1291734 0.082728285 -0.013976955
v 0.127861095 0.081358215 -0.013965585
v 0.12893655 0.082894125 -0.013965585
v 0.12761784 0.08152854 -0.01394928
v 0.12869331 0.08306445 -0.01394928
v 0.12736848 0.08170314 -0.013927575
v 0.128443935 0.08323905 -0.013927575
v 0.127113315 0.081881805 -0.01390005
v 0.12818877 0.08341773 -0.01390005
v 0.12685263 0.08206434 -0.01386627
v 0.1279281 0.08360025 -0.01386627
v 0.126586755 0.082250505 -0.013825785
v 0.127662225 0.083786415 -0.013825785
v 0.126315975 0.082440105 -0.01377816
v 0.12739143 0.08397603 -0.01377816
v 0.12604059 0.08263293 -0.013722975
v 0.127116045 0.084168855 -0.013722975
v 0.125760915 0.08282877 -0.01365978
v 0.126836355 0.08436468 -0.01365978
v 0.125475555 0.083028585 -0.013588305
v 0.12655101 0.08456448 -0.013588305
v 0.125180085 0.08323548 -0.013508985
v 0.12625554 0.08477139 -0.013508985
v 0.124875705 0.0834486 -0.013422135
v 0.125951175 0.08498451 -0.013422135
v 0.12456414 0.08366676 -0.01332804
v 0.12563961 0.08520267 -0.01332804
v 0.124247055 0.08388879 -0.013227
v 0.125322525 0.0854247 -0.013227
v 0.123926145 0.08411349 -0.013119285
v 0.125001585 0.0856494 -0.013119285
v 0.12360306 0.08433972 -0.01300521
v 0.124678515 0.085875615 -0.01300521
v 0.12327954 0.08456625 -0.01288506
v 0.12435498 0.08610216 -0.01288506
v 0.122957205 0.08479194 -0.01275912
v 0.124032675 0.08632785 -0.01275912
v 0.12263781 0.08501559 -0.012627675
v 0.123713265 0.0865515 -0.012627675
v 0.12232299 0.08523603 -0.012491025
v 0.123398445 0.08677194 -0.012491025
v 0.12201444 0.085452075 -0.012349455
v 0.12308991 0.086987985 -0.012349455
v 0.12170943 0.085665645 -0.012201645
v 0.122784885 0.087201555 -0.012201645
v 0.12140259 0.085880505 -0.01204575
v 0.122478045 0.087416415 -0.01204575
v 0.121094985 0.08609589 -0.011882505
v 0.12217044 0.0876318 -0.011882505
v 0.12078774 0.08631102 -0.01171272
v 0.121863195 0.08784693 -0.01171272
v 0.120481995 0.086525115 -0.01153716
v 0.12155745 0.088061025 -0.01153716
v 0.12017886 0.086737365 -0.011356635
v 0.121254315 0.088273275 -0.011356635
v 0.119879475 0.08694699 -0.011171895
v 0.120954945 0.0884829 -0.011171895
v 0.11958498 0.08715321 -0.010983765
v 0.12066042 0.08868912 -0.010983765
v 0.11929647 0.087355215 -0.01079301
v 0.120371925 0.088891125 -0.01079301
v 0.1190151 0.08755224 -0.01060041
v 0.120090555 0.08908815 -0.01060041
v 0.118741995 0.087743475 -0.01040676
v 0.11981745 0.089279385 -0.01040676
v 0.11847825 0.08792814 -0.01021281
v 0.119553705 0.08946405 -0.01021281
v 0.118221915 0.08810763 -0.01001643
v 0.11929737 0.08964354 -0.01001643
v 0.117971325 0.0882831 -0.009816225
v 0.11904678 0.08981901 -0.009816225
v 0.117726555 0.08845449 -0.009612585
v 0.11880201 0.0899904 -0.009612585
v 0.11748768 0.088621755 -0.009405945
v 0.118563135 0.09015765 -0.009405945
v 0.11725479 0.08878482 -0.00919674
v 0.118330245 0.09032073 -0.00919674
v 0.117027945 0.088943655 -0.00898539
v 0.1181034 0.090479565 -0.00898539
v 0.11680725 0.0890982 -0.0087723
v 0.117882705 0.09063411 -0.0087723
v 0.116592765 0.08924838 -0.008557905
v 0.11766822 0.09078429 -0.008557905
v 0.11638458 0.08939415 -0.008342625
v 0.11746002 0.09093006 -0.008342625
v 0.116182755 0.089535465 -0.00812688
v 0.11725821 0.091071375 -0.00812688
v 0.115987395 0.08967225 -0.00791109
v 0.117062865 0.09120816 -0.00791109
v 0.11579859 0.089804475 -0.007695525
v 0.116874045 0.09134037 -0.007695525
v 0.11561646 0.08993199 -0.00747855
v 0.116691915 0.0914679 -0.00747855
v 0.115440945 0.0900549 -0.00725982
v 0.116516385 0.09159081 -0.00725982
v 0.115271895 0.09017325 -0.00703965
v 0.11634735 0.091709175 -0.00703965
v 0.115109205 0.090287175 -0.00681831
v 0.116184675 0.091823085 -0.00681831
v 0.114952755 0.090396735 -0.006596085
v 0.11602821 0.091932645 -0.006596085
v 0.11480238 0.09050202 -0.006373275
v 0.115877835 0.09203793 -0.006373275
v 0.114657975 0.090603135 -0.006150165
v 0.11573343 0.092139045 -0.006150165
v 0.11451939 0.09070017 -0.00592704
v 0.11559486 0.09223608 -0.00592704
v 0.114386535 0.0907932 -0.005704185
v 0.11546199 0.09232911 -0.005704185
v 0.11425923 0.09088233 -0.0054819
v 0.1153347 0.09241824 -0.0054819
v 0.114137385 0.09096765 -0.005260455
v 0.11521284 0.09250356 -0.005260455
v 0.11402109 0.091049085 -0.005039985
v 0.11509653 0.092584995 -0.005039985
v 0.113911215 0.09112602 -0.0048198
v 0.11498667 0.09266193 -0.0048198
v 0.113807685 0.091198515 -0.004599795
v 0.11488314 0.092734425 -0.004599795
v 0.11371026 0.09126672 -0.004379955
v 0.114785715 0.09280263 -0.004379955
v 0.113618685 0.091330845 -0.00416025
v 0.11469414 0.092866755 -0.00416025
v 0.113532735 0.091391025 -0.003940665
v 0.11460819 0.092926935 -0.003940665
v 0.113452155 0.091447455 -0.0037212
v 0.11452761 0.092983365 -0.0037212
v 0.11337669 0.091500285 -0.003501825
v 0.11445216 0.09303621 -0.003501825
v 0.11330613 0.091549695 -0.00328251
v 0.114381585 0.09308562 -0.00328251
v 0.113240205 0.091595865 -0.00306327
v 0.11431566 0.093131775 -0.00306327
v 0.11317869 0.091638945 -0.002844075
v 0.114254145 0.093174855 -0.002844075
v 0.113121315 0.0916791 -0.00262491
v 0.114196785 0.09321501 -0.00262491
v 0.113068185 0.091716315 -0.002405775
v 0.11414364 0.093252225 -0.002405775
v 0.11301984 0.09175017 -0.002186715
v 0.114095295 0.09328608 -0.002186715
v 0.11297631 0.09178065 -0.001967715
v 0.114051765 0.09331656 -0.001967715
v 0.11293758 0.091807755 -0.00174879
v 0.11401305 0.093343665 -0.00174879
v 0.11290368 0.0918315 -0.00152994
v 0.113979135 0.09336741 -0.00152994
v 0.112874595 0.09185187 -0.001311165
v 0.11395005 0.09338778 -0.001311165
v 0.112850325 0.091868865 -0.00109245
v 0.11392578 0.093404775 -0.00109245
v 0.11283087 0.091882485 -0.000873825
v 0.11390631 0.093418395 -0.000873825
v 0.112816215 0.091892745 -0.00065526
v 0.11389167 0.093428655 -0.00065526
v 0.11280639 0.09189963 -0.00043677
v 0.113881845 0.09343554 -0.00043677
v 0.11280138 0.09190314 -0.00021834
v 0.113876835 0.09343905 -0.00021834
v 0.11280117 0.091903275 0
v 0.113876625 0.093439185 0
v 0.11280222 0.09190254 0.000229215
v 0.11387769 0.09343845 0.000229215
v 0.11280783 0.091898625 0.000457905
v 0.11388327 0.093434535 0.000457905
v 0.11281797 0.091891515 0.00068607
v 0.113893425 0.093427425 0.00068607
v 0.11283267 0.091881225 0.000913695
v 0.113908125 0.093417135 0.000913695
v 0.11285193 0.09186774 0.00114078
v 0.113927385 0.09340365 0.00114078
v 0.11287572 0.091851075 0.00136734
v 0.113951175 0.093386985 0.00136734
v 0.11290407 0.09183123 0.001593375
v 0.11397954 0.093367125 0.001593375
v 0.11293698 0.09180819 0.00181887
v 0.114012435 0.093344085 0.00181887
v 0.112974435 0.091781955 0.00204384
v 0.11404989 0.093317865 0.00204384
v 0.113016435 0.091752555 0.00226827
v 0.11409189 0.093288465 0.00226827
v 0.113062995 0.09171996 0.00249216
v 0.11413845 0.093255855 0.00249216
v 0.11311407 0.091684185 0.002715525
v 0.11418954 0.093220095 0.002715525
v 0.11316921 0.091645575 0.002938185
v 0.114244665 0.093181485 0.002938185
v 0.113228355 0.091604175 0.003160125
v 0.11430381 0.093140085 0.003160125
v 0.113291685 0.09155982 0.003381405
v 0.11436714 0.09309573 0.003381405
v 0.113359425 0.091512375 0.003602115
v 0.114434895 0.093048285 0.003602115
v 0.113431785 0.09146172 0.0038223
v 0.11450724 0.09299763 0.0038223
v 0.11350896 0.091407675 0.00404205
v 0.114584415 0.092943585 0.00404205
v 0.113591145 0.091350135 0.00426144
v 0.1146666 0.092886045 0.00426144
v 0.113678565 0.09128892 0.004480515
v 0.11475402 0.09282483 0.004480515
v 0.113771415 0.09122391 0.004699365
v 0.114846855 0.09275982 0.004699365
v 0.11386989 0.091154955 0.00491805
v 0.114945345 0.092690865 0.00491805
v 0.1139742 0.09108192 0.005136645
v 0.115049655 0.09261783 0.005136645
v 0.11408442 0.09100473 0.00535527
v 0.115159875 0.09254064 0.00535527
v 0.114199725 0.090924 0.00557436
v 0.11527518 0.09245991 0.00557436
v 0.11432004 0.09083976 0.005793765
v 0.115395495 0.09237567 0.005793765
v 0.1144455 0.090751905 0.006013275
v 0.115520955 0.092287815 0.006013275
v 0.114576255 0.09066036 0.00623262
v 0.11565171 0.09219627 0.00623262
v 0.114712425 0.090565005 0.006451605
v 0.11578788 0.092100915 0.006451605
v 0.11485416 0.090465765 0.00666996
v 0.115929615 0.092001675 0.00666996
v 0.115001595 0.09036252 0.006887475
v 0.11607705 0.091898445 0.006887475
v 0.115154865 0.09025521 0.00710391
v 0.11623032 0.09179112 0.00710391
v 0.115314105 0.0901437 0.007319025
v 0.116389575 0.09167961 0.007319025
v 0.115479465 0.090027915 0.007532595
v 0.116554935 0.091563825 0.007532595
v 0.11565108 0.08990775 0.007744365
v 0.116726535 0.09144366 0.007744365
v 0.115828965 0.089783205 0.007954635
v 0.11690442 0.091319115 0.007954635
v 0.116012805 0.08965446 0.008164755
v 0.11708826 0.091190385 0.008164755
v 0.11620257 0.08952159 0.008374515
v 0.117278025 0.0910575 0.008374515
v 0.116398245 0.08938458 0.00858354
v 0.1174737 0.09092049 0.00858354
v 0.116599815 0.089243445 0.00879147
v 0.11767527 0.090779355 0.00879147
v 0.11680728 0.08909817 0.00899796
v 0.117882735 0.09063408 0.00899796
v 0.117020595 0.0889488 0.009202665
v 0.118096065 0.09048471 0.009202665
v 0.11723979 0.08879532 0.00940521
v 0.118315245 0.09033123 0.00940521
v 0.11746482 0.08863776 0.009605235
v 0.118540275 0.09017367 0.009605235
v 0.117695685 0.088476105 0.009802395
v 0.11877114 0.090012015 0.009802395
v 0.117932355 0.088310385 0.00999633
v 0.11900781 0.089846295 0.00999633
v 0.118174845 0.0881406 0.01018668
v 0.1192503 0.08967651 0.01018668
v 0.118424355 0.08796588 0.01037466
v 0.11949981 0.08950179 0.01037466
v 0.118682265 0.087785295 0.010562085
v 0.119757735 0.089321205 0.010562085
v 0.118947765 0.0875994 0.01074834
v 0.12002322 0.089135295 0.01074834
v 0.11921997 0.08740878 0.010932705
v 0.120295425 0.08894469 0.010932705
v 0.119498055 0.087214065 0.01111452
v 0.12057351 0.08874999 0.01111452
v 0.119781165 0.08701584 0.011293095
v 0.12085662 0.08855175 0.011293095
v 0.120068445 0.086814675 0.01146777
v 0.1211439 0.088350585 0.01146777
v 0.120359055 0.086611185 0.01163784
v 0.12143451 0.088147095 0.01163784
v 0.12065214 0.08640597 0.01180266
v 0.121727595 0.08794188 0.01180266
v 0.12094686 0.086199615 0.011961525
v 0.122022315 0.087735525 0.011961525
v 0.12124236 0.085992705 0.012113745
v 0.1223178 0.087528615 0.012113745
v 0.121537845 0.085785795 0.012258705
v 0.122613285 0.087321705 0.012258705
v 0.121838205 0.08557548 0.012398265
v 0.12291366 0.08711139 0.012398265
v 0.122145795 0.085360095 0.01253367
v 0.12322125 0.086896005 0.01253367
v 0.122458935 0.08514084 0.01266453
v 0.12353439 0.08667675 0.01266453
v 0.122775945 0.08491887 0.01279047
v 0.1238514 0.08645478 0.01279047
v 0.12309516 0.084695355 0.012911085
v 0.124170615 0.086231265 0.012911085
v 0.123414885 0.08447148 0.013026
v 0.12449034 0.08600739 0.013026
v 0.123733485 0.0842484 0.013134825
v 0.124808925 0.08578431 0.013134825
v 0.124049235 0.0840273 0.01323717
v 0.12512469 0.08556321 0.01323717
v 0.1243605 0.08380935 0.01333266
v 0.125435955 0.08534526 0.01333266
v 0.1246656 0.08359572 0.013420905
v 0.125741055 0.08513163 0.013420905
v 0.124962855 0.08338758 0.013501515
v 0.12603831 0.08492349 0.013501515
v 0.12525105 0.083185785 0.01357413
v 0.126326505 0.08472168 0.01357413
v 0.12553497 0.082986975 0.01363884
v 0.126610425 0.0845229 0.01363884
v 0.125815935 0.08279025 0.01369596
v 0.126891375 0.08432616 0.01369596
v 0.12609351 0.08259588 0.013745835
v 0.127168965 0.084131805 0.013745835
v 0.126367275 0.08240418 0.013788765
v 0.12744273 0.08394009 0.013788765
v 0.12663681 0.08221545 0.013825065
v 0.12771228 0.083751375 0.013825065
v 0.126901695 0.08202999 0.01385505
v 0.12797715 0.0835659 0.01385505
v 0.127161465 0.0818481 0.01387902
v 0.12823692 0.08338401 0.01387902
v 0.127415715 0.081670065 0.01389729
v 0.12849117 0.083205975 0.01389729
v 0.12766401 0.081496215 0.013910175
v 0.128739465 0.083032125 0.013910175
v 0.127905915 0.08132682 0.01391799
v 0.12898137 0.08286273 0.01391799
v 0.12814101 0.08116221 0.01392105
v 0.129216465 0.08269812 0.01392105
v 0.12836874 0.08100276 0.013919295
v 0.12944418 0.08253867 0.013919295
v 0.12858846 0.08084889 0.013911345
v 0.129663915 0.082384815 0.013911345
v 0.1288008 0.080700225 0.01389723
v 0.129876255 0.082236135 0.01389723
v 0.12900642 0.08055624 0.013877205
v 0.130081875 0.08209215 0.013877205
v 0.12920604 0.08041647 0.01385154
v 0.13028148 0.08195238 0.01385154
v 0.12940035 0.080280405 0.01382052
v 0.13047579 0.08181633 0.01382052
v 0.129590055 0.080147595 0.0137844
v 0.130665495 0.08168349 0.0137844
v 0.12977583 0.080017485 0.01374345
v 0.130851285 0.081553395 0.01374345
v 0.12995841 0.079889655 0.013697925
v 0.131033865 0.08142555 0.013697925
v 0.130138485 0.079763565 0.013648095
v 0.13121394 0.081299475 0.013648095
v 0.13031673 0.07963875 0.013594245
v 0.1313922 0.08117466 0.013594245
v 0.13049388 0.079514715 0.01353663
v 0.131569335 0.081050625 0.01353663
v 0.130668945 0.079392135 0.013474905
v 0.1317444 0.080928045 0.013474905
v 0.130838895 0.079273125 0.013407975
v 0.131914365 0.080809035 0.013407975
v 0.13100436 0.07915728 0.013336035
v 0.132079815 0.08069319 0.013336035
v 0.13116597 0.079044105 0.013259325
v 0.132241425 0.080580015 0.013259325
v 0.131324505 0.078933105 0.013178085
v 0.13239996 0.080469015 0.013178085
v 0.131480625 0.078823785 0.01309257
v 0.132556065 0.080359695 0.01309257
v 0.13163505 0.078715665 0.01300302
v 0.13271049 0.08025156 0.01300302
v 0.131788485 0.07860822 0.01290969
v 0.13286394 0.08014413 0.01290969
v 0.131941635 0.07850097 0.01281282
v 0.13301709 0.080036895 0.01281282
v 0.132095235 0.078393435 0.012712635
v 0.13317069 0.079929345 0.012712635
v 0.132249945 0.078285105 0.012609405
v 0.1333254 0.079821015 0.012609405
v 0.132406515 0.078175485 0.012503355
v 0.13348197 0.07971138 0.012503355
v 0.132562845 0.078066015 0.01239288
v 0.1336383 0.079601925 0.01239288
v 0.13271688 0.07795815 0.01227669
v 0.133792335 0.07949406 0.01227669
v 0.132869325 0.07785141 0.012155505
v 0.133944765 0.07938732 0.012155505
v 0.133020885 0.077745285 0.012030105
v 0.134096325 0.079281195 0.012030105
v 0.133172265 0.07763928 0.01190124
v 0.13424772 0.07917519 0.01190124
v 0.133324185 0.0775329 0.01176966
v 0.13439964 0.079068825 0.01176966
v 0.13347735 0.077425665 0.0116361
v 0.13455279 0.078961575 0.0116361
v 0.13363245 0.077317065 0.01150134
v 0.134707905 0.078852975 0.01150134
v 0.133790205 0.077206605 0.011366115
v 0.13486566 0.078742515 0.011366115
v 0.13395132 0.077093775 0.01123116
v 0.135026775 0.0786297 0.01123116
v 0.13406094 0.07701702 0.01114173
v 0.135136395 0.07855293 0.01114173
v 0.134172585 0.076938855 0.01105299
v 0.135248055 0.078474765 0.01105299
v 0.134286345 0.07685919 0.010964985
v 0.1353618 0.0783951 0.010964985
v 0.134400915 0.07677897 0.010875825
v 0.13547637 0.07831488 0.010875825
v 0.13451598 0.076698405 0.01078515
v 0.13559145 0.078234315 0.01078515
v 0.13463169 0.07661739 0.0106932
v 0.135707145 0.0781533 0.0106932
v 0.134748165 0.076535835 0.01060029
v 0.13582362 0.078071745 0.01060029
v 0.13486554 0.076453635 0.01050669
v 0.13594101 0.077989545 0.01050669
v 0.13498401 0.0763707 0.010412685
v 0.13605945 0.07790661 0.010412685
v 0.135103635 0.076286925 0.010318545
v 0.136179105 0.077822835 0.010318545
v 0.135224625 0.076202205 0.01022454
v 0.13630008 0.077738115 0.01022454
v 0.13534707 0.076116465 0.010130985
v 0.136422525 0.07765239 0.010130985
v 0.135471135 0.0760296 0.01003812
v 0.13654659 0.07756551 0.01003812
v 0.135596955 0.075941505 0.00994626
v 0.13667241 0.077477415 0.00994626
v 0.135724665 0.075852075 0.00985566
v 0.13680012 0.077387985 0.00985566
v 0.1358544 0.075761235 0.00976662
v 0.136929855 0.077297145 0.00976662
v 0.135986325 0.075668865 0.00967941
v 0.13706178 0.077204775 0.00967941
v 0.136120545 0.075574875 0.0095943
v 0.137196 0.077110785 0.0095943
v 0.136257225 0.075479175 0.00951159
v 0.13733268 0.077015085 0.00951159
v 0.1363965 0.07538166 0.00943155
v 0.137471955 0.07691757 0.00943155
v 0.136538565 0.075282165 0.009354165
v 0.137614035 0.076818075 0.009354165
v 0.13668372 0.075180525 0.009278655
v 0.13775919 0.076716435 0.009278655
v 0.136831755 0.07507689 0.009204855
v 0.13790721 0.0766128 0.009204855
v 0.136982445 0.074971365 0.009132705
v 0.1380579 0.076507275 0.009132705
v 0.137135565 0.074864145 0.009062115
v 0.13821102 0.076400055 0.009062115
v 0.13729092 0.074755365 0.00899301
v 0.138366375 0.076291275 0.00899301
v 0.13744827 0.07464519 0.00892533
v 0.13852374 0.0761811 0.00892533
v 0.13760742 0.074533755 0.00885897
v 0.13868286 0.076069665 0.00885897
v 0.13776813 0.07442124 0.008793885
v 0.13884357 0.075957135 0.008793885
v 0.137930175 0.074307765 0.00872997
v 0.13900563 0.075843675 0.00872997
v 0.138093345 0.074193495 0.00866715
v 0.139168815 0.075729405 0.00866715
v 0.138257445 0.074078595 0.008605365
v 0.1393329 0.075614505 0.008605365
v 0.138422235 0.073963215 0.00854454
v 0.13949769 0.075499125 0.00854454
v 0.13858749 0.073847505 0.008484585
v 0.139662945 0.075383415 0.008484585
v 0.138753015 0.073731615 0.00842541
v 0.13982847 0.07526751 0.00842541
v 0.13891857 0.07361568 0.00836697
v 0.13999401 0.07515159 0.00836697
v 0.139083945 0.07349988 0.00830916
v 0.1401594 0.075035805 0.00830916
v 0.1392489 0.07338438 0.00825192
v 0.14032437 0.07492029 0.00825192
v 0.1394148 0.07326822 0.008195775
v 0.140490255 0.074804115 0.008195775
v 0.13958289 0.073150515 0.008141175
v 0.140658345 0.074686425 0.008141175
v 0.139752855 0.073031505 0.008088015
v 0.140828325 0.074567415 0.008088015
v 0.139924395 0.0729114 0.00803616
v 0.14099985 0.07444731 0.00803616
v 0.14009718 0.07279041 0.00798549
v 0.14117265 0.07432632 0.00798549
v 0.140270925 0.07266876 0.00793587
v 0.141346365 0.07420467 0.00793587
v 0.140445285 0.07254666 0.00788718
v 0.14152074 0.07408257 0.00788718
v 0.14061996 0.07242435 0.007839285
v 0.14169543 0.07396026 0.007839285
v 0.14079468 0.072302025 0.00779208
v 0.141870135 0.073837935 0.00779208
v 0.140969085 0.07217991 0.0077454
v 0.142044525 0.073715805 0.0077454
v 0.14122944 0.071997585 0.007676145
v 0.142304895 0.07353351 0.007676145
v 0.141487365 0.071816985 0.0076074
v 0.142562835 0.073352895 0.0076074
v 0.141741825 0.071638815 0.007538745
v 0.14281728 0.073174725 0.007538745
v 0.141991755 0.07146381 0.00746976
v 0.14306721 0.07299972 0.00746976
v 0.14223612 0.071292705 0.007399995
v 0.143311575 0.072828615 0.007399995
v 0.14247594 0.07112478 0.007330215
v 0.143551395 0.072660705 0.007330215
v 0.14271381 0.07095822 0.007261815
v 0.143789265 0.07249413 0.007261815
v 0.142949535 0.07079316 0.007194495
v 0.14402499 0.072329085 0.007194495
v 0.14318289 0.07062978 0.007127955
v 0.144258345 0.07216569 0.007127955
v 0.14341362 0.070468215 0.007061865
v 0.14448909 0.07200411 0.007061865
v 0.143641515 0.070308645 0.006995895
v 0.144716985 0.07184454 0.006995895
v 0.143866335 0.07015122 0.006929745
v 0.14494179 0.071687115 0.006929745
v 0.144087855 0.06999612 0.00686307
v 0.14516331 0.071532015 0.00686307
v 0.14430582 0.069843495 0.006795585
v 0.145381275 0.07137939 0.006795585
v 0.144520005 0.06969351 0.006726945
v 0.145595475 0.07122942 0.006726945
v 0.1447302 0.069546345 0.006656835
v 0.145805655 0.07108224 0.006656835
v 0.14493615 0.069402135 0.006584955
v 0.146011605 0.070938045 0.006584955
v 0.145138425 0.069260505 0.00651207
v 0.146213865 0.0707964 0.00651207
v 0.145337385 0.06912117 0.006438705
v 0.146412855 0.070657095 0.006438705
v 0.145532985 0.06898422 0.00636474
v 0.14660844 0.07052013 0.00636474
v 0.14572512 0.068849685 0.00629007
v 0.14680056 0.070385595 0.00629007
v 0.145913685 0.06871764 0.006214545
v 0.14698914 0.07025355 0.006214545
v 0.146098635 0.068588145 0.006138075
v 0.14717409 0.070124055 0.006138075
v 0.146279865 0.068461245 0.00606051
v 0.147355335 0.069997155 0.00606051
v 0.1464573 0.068337015 0.005981745
v 0.14753274 0.069872925 0.005981745
v 0.14663082 0.0682155 0.005901645
v 0.147706275 0.06975141 0.005901645
v 0.14680038 0.068096775 0.005820105
v 0.147875835 0.069632685 0.005820105
v 0.14696589 0.067980885 0.00573699
v 0.148041345 0.069516795 0.00573699
v 0.14712726 0.067867905 0.00565221
v 0.1482027 0.069403815 0.00565221
v 0.147284655 0.067757685 0.005566005
v 0.148360125 0.069293595 0.005566005
v 0.147438165 0.067650195 0.005478465
v 0.14851362 0.069186105 0.005478465
v 0.14758779 0.06754542 0.005389635
v 0.148663245 0.06908133 0.005389635
v 0.147733545 0.067443375 0.005299485
v 0.148808985 0.068979285 0.005299485
v 0.147875415 0.06734403 0.00520806
v 0.14895087 0.06887994 0.00520806
v 0.148013445 0.067247385 0.005115345
v 0.1490889 0.06878328 0.005115345
v 0.14814765 0.06715341 0.005021355
v 0.149223105 0.06868932 0.005021355
v 0.148278015 0.067062135 0.004926105
v 0.14935347 0.068598045 0.004926105
v 0.14840457 0.066973515 0.004829595
v 0.149480025 0.068509425 0.004829595
v 0.148527315 0.066887565 0.00473184
v 0.14960277 0.068423475 0.00473184
v 0.14864628 0.06680427 0.004632855
v 0.14972172 0.06834018 0.004632855
v 0.14876136 0.06672369 0.00453264
v 0.149836815 0.0682596 0.00453264
v 0.148872225 0.06664605 0.004431195
v 0.14994768 0.06818196 0.004431195
v 0.148978965 0.06657132 0.00432852
v 0.15005442 0.06810723 0.00432852
v 0.149081685 0.066499395 0.0042246
v 0.15015714 0.068035305 0.0042246
v 0.149180535 0.066430185 0.00411942
v 0.15025599 0.06796608 0.00411942
v 0.14927565 0.06636357 0.00401298
v 0.150351105 0.06789948 0.00401298
v 0.149367165 0.06629949 0.003905265
v 0.15044262 0.0678354 0.003905265
v 0.149455215 0.06623784 0.00379626
v 0.15053067 0.06777375 0.00379626
v 0.149539935 0.066178515 0.003685965
v 0.15061539 0.067714425 0.003685965
v 0.149621475 0.066121425 0.003574365
v 0.150696915 0.067657335 0.003574365
v 0.14969994 0.06606648 0.00346146
v 0.150775395 0.06760239 0.00346146
v 0.149775495 0.06601359 0.00334722
v 0.15085095 0.067549485 0.00334722
v 0.14984808 0.065962755 0.003231675
v 0.150923535 0.067498665 0.003231675
v 0.149917395 0.065914215 0.003114825
v 0.150992865 0.067450125 0.003114825
v 0.14998344 0.065867985 0.00299667
v 0.151058895 0.06740388 0.00299667
v 0.15004617 0.065824035 0.002877225
v 0.15112164 0.06735996 0.002877225
v 0.15010563 0.06578241 0.00275649
v 0.151181085 0.06731832 0.00275649
v 0.150161805 0.06574308 0.00263445
v 0.15123726 0.06727899 0.00263445
v 0.15021468 0.06570606 0.00251112
v 0.151290135 0.06724197 0.00251112
v 0.15026427 0.065671335 0.002386485
v 0.151339725 0.067207245 0.002386485
v 0.150310575 0.065638905 0.00226056
v 0.15138603 0.06717483 0.00226056
v 0.15035358 0.0656088 0.00213333
v 0.151429035 0.06714471 0.00213333
v 0.1503933 0.06558099 0.00200481
v 0.15146877 0.067116885 0.00200481
v 0.15042975 0.06555546 0.001875
v 0.151505205 0.06709137 0.001875
v 0.14474721 0.07182339 -0.001875
v 0.14367174 0.07028748 -0.001875
v 0.15040296 0.06557421 -0.001875
v 0.151478415 0.067110135 -0.001875
v 0.151505205 0.06709137 0.001875
v 0.15042975 0.06555546 0.001875
v 0.14367174 0.07028748 0.001875
v 0.14474721 0.07182339 0.001875
v 0.14474721 0.07182339 0.001875
v 0.14367174 0.07028748 0.001875
v 0.14367174 0.07028748 -0.001875
v 0.14474721 0.07182339 -0.001875
v 0.144848625 0.071752365 -0.00683874
v 0.14474721 0.07182339 -0.001875
v 0.151478415 0.067110135 -0.001875
v 0.144617865 0.071913945 -0.006910815
v 0.1450758 0.071593305 -0.006765675
v 0.14529894 0.07143705 -0.006691305
v 0.1455177 0.07128387 -0.006615345
v 0.145733175 0.071133 -0.00653853
v 0.145946055 0.07098393 -0.00646143
v 0.14615616 0.070836825 -0.006383895
v 0.146363235 0.07069182 -0.006305805
v 0.146567085 0.07054908 -0.00622704
v 0.14676747 0.07040877 -0.00614745
v 0.14696418 0.07027104 -0.006066945
v 0.14715699 0.070136025 -0.00598536
v 0.147345675 0.070003905 -0.005902575
v 0.14753001 0.06987483 -0.005818485
v 0.1477098 0.06974895 -0.005732955
v 0.147884835 0.069626385 -0.005645865
v 0.14805567 0.06950676 -0.00555753
v 0.148222515 0.06938994 -0.005468025
v 0.14838534 0.069275925 -0.00537738
v 0.1485441 0.06916476 -0.005285565
v 0.14869878 0.06905646 -0.005192595
v 0.148849365 0.06895101 -0.005098455
v 0.14899584 0.068848455 -0.005003175
v 0.149138175 0.06874878 -0.00490671
v 0.14927634 0.06865203 -0.00480909
v 0.14941035 0.06855822 -0.0047103
v 0.14954013 0.068467335 -0.00461034
v 0.14966565 0.06837945 -0.00450918
v 0.14978661 0.068294745 -0.004406805
v 0.14990313 0.06821316 -0.0043032
v 0.150015315 0.068134605 -0.004198395
v 0.150123315 0.06805899 -0.004092405
v 0.15022722 0.067986225 -0.003985275
v 0.15032721 0.06791622 -0.00387702
v 0.15042339 0.06784887 -0.00376767
v 0.150515865 0.067784115 -0.003657225
v 0.1506048 0.06772185 -0.003545745
v 0.150690315 0.06766197 -0.003433245
v 0.1507725 0.067604415 -0.003319725
v 0.15085137 0.0675492 -0.0032052
v 0.15092661 0.067496505 -0.003089625
v 0.15099819 0.06744639 -0.00297297
v 0.15106614 0.06739881 -0.00285525
v 0.15113043 0.06735378 -0.00273645
v 0.15119109 0.06731133 -0.0026166
v 0.15124809 0.067271415 -0.00249567
v 0.151301445 0.06723405 -0.002373675
v 0.151351155 0.067199235 -0.0022506
v 0.15139722 0.067166985 -0.002126475
v 0.151439655 0.067137285 -0.00200127
v 0.14474721 0.07182339 0.001875
v 0.144716985 0.07184454 0.006995895
v 0.14448909 0.07200411 0.007061865
v 0.14494179 0.071687115 0.006929745
v 0.14516331 0.071532015 0.00686307
v 0.145381275 0.07137939 0.006795585
v 0.145595475 0.07122942 0.006726945
v 0.145805655 0.07108224 0.006656835
v 0.146011605 0.070938045 0.006584955
v 0.146213865 0.0707964 0.00651207
v 0.146412855 0.070657095 0.006438705
v 0.14660844 0.07052013 0.00636474
v 0.14680056 0.070385595 0.00629007
v 0.14698914 0.07025355 0.006214545
v 0.14717409 0.070124055 0.006138075
v 0.147355335 0.069997155 0.00606051
v 0.14753274 0.069872925 0.005981745
v 0.147706275 0.06975141 0.005901645
v 0.147875835 0.069632685 0.005820105
v 0.148041345 0.069516795 0.00573699
v 0.1482027 0.069403815 0.00565221
v 0.148360125 0.069293595 0.005566005
v 0.14851362 0.069186105 0.005478465
v 0.148663245 0.06908133 0.005389635
v 0.148808985 0.068979285 0.005299485
v 0.14895087 0.06887994 0.00520806
v 0.1490889 0.06878328 0.005115345
v 0.149223105 0.06868932 0.005021355
v 0.14935347 0.068598045 0.004926105
v 0.149480025 0.068509425 0.004829595
v 0.14960277 0.068423475 0.00473184
v 0.14972172 0.06834018 0.004632855
v 0.149836815 0.0682596 0.00453264
v 0.14994768 0.06818196 0.004431195
v 0.15005442 0.06810723 0.00432852
v 0.15015714 0.068035305 0.0042246
v 0.15025599 0.06796608 0.00411942
v 0.150351105 0.06789948 0.00401298
v 0.15044262 0.0678354 0.003905265
v 0.15053067 0.06777375 0.00379626
v 0.15061539 0.067714425 0.003685965
v 0.150696915 0.067657335 0.003574365
v 0.150775395 0.06760239 0.00346146
v 0.15085095 0.067549485 0.00334722
v 0.150923535 0.067498665 0.003231675
v 0.150992865 0.067450125 0.003114825
v 0.151058895 0.06740388 0.00299667
v 0.15112164 0.06735996 0.002877225
v 0.151181085 0.06731832 0.00275649
v 0.15123726 0.06727899 0.00263445
v 0.151290135 0.06724197 0.00251112
v 0.151339725 0.067207245 0.002386485
v 0.15138603 0.06717483 0.00226056
v 0.151429035 0.06714471 0.00213333
v 0.15146877 0.067116885 0.00200481
v 0.151505205 0.06709137 0.001875
v 0.14438388 0.072077775 -0.00698223
v 0.144258345 0.07216569 0.007127955
v 0.14414709 0.072243585 -0.007053285
v 0.14402499 0.072329085 0.007194495
v 0.143907885 0.072411075 -0.007124295
v 0.143789265 0.07249413 0.007261815
v 0.14366667 0.072579975 -0.007195575
v 0.143551395 0.072660705 0.007330215
v 0.143423835 0.072750015 -0.007267455
v 0.143311575 0.072828615 0.007399995
v 0.1431798 0.072920895 -0.00734022
v 0.14306721 0.07299972 0.00746976
v 0.14293494 0.073092345 -0.0074142
v 0.14281728 0.073174725 0.007538745
v 0.14268963 0.07326411 -0.007489695
v 0.142562835 0.073352895 0.0076074
v 0.14244159 0.07343778 -0.007565175
v 0.142304895 0.07353351 0.007676145
v 0.14218974 0.073614135 -0.00763986
v 0.142044525 0.073715805 0.0077454
v 0.141934845 0.07379262 -0.007714245
v 0.141870135 0.073837935 0.00779208
v 0.141677685 0.07397268 -0.007788795
v 0.14169543 0.07396026 0.007839285
v 0.14152074 0.07408257 0.00788718
v 0.141419055 0.074153775 -0.00786402
v 0.141346365 0.07420467 0.00793587
v 0.14115969 0.07433538 -0.0079404
v 0.14117265 0.07432632 0.00798549
v 0.14099985 0.07444731 0.00803616
v 0.14090043 0.07451691 -0.0080184
v 0.140828325 0.074567415 0.008088015
v 0.140728005 0.074637645 -0.00807156
v 0.140658345 0.074686425 0.008141175
v 0.140556195 0.074757945 -0.0081258
v 0.140490255 0.074804115 0.008195775
v 0.140385225 0.07487766 -0.008181255
v 0.14032437 0.07492029 0.00825192
v 0.140215335 0.074996625 -0.008238105
v 0.1401594 0.075035805 0.00830916
v 0.14004675 0.075114675 -0.008296455
v 0.13999401 0.07515159 0.00836697
v 0.139879695 0.075231645 -0.00835647
v 0.13982847 0.07526751 0.00842541
v 0.139714395 0.0753474 -0.008418285
v 0.139662945 0.075383415 0.008484585
v 0.139549365 0.075462945 -0.008481675
v 0.13949769 0.075499125 0.00854454
v 0.139383195 0.0755793 -0.00854628
v 0.1393329 0.075614505 0.008605365
v 0.13921626 0.07569618 -0.00861207
v 0.139168815 0.075729405 0.00866715
v 0.139048905 0.07581336 -0.00867903
v 0.13900563 0.075843675 0.00872997
v 0.138881505 0.075930585 -0.008747145
v 0.13884357 0.075957135 0.008793885
v 0.138714405 0.076047585 -0.008816385
v 0.13868286 0.076069665 0.00885897
v 0.138547995 0.076164105 -0.00888672
v 0.13852374 0.0761811 0.00892533
v 0.138382635 0.076279905 -0.00895812
v 0.138366375 0.076291275 0.00899301
v 0.138218655 0.076394715 -0.009030585
v 0.13821102 0.076400055 0.009062115
v 0.138056445 0.076508295 -0.00910407
v 0.1380579 0.076507275 0.009132705
v 0.13790721 0.0766128 0.009204855
v 0.137896365 0.07662039 -0.00917856
v 0.13775919 0.076716435 0.009278655
v 0.137738805 0.076730715 -0.009254025
v 0.137614035 0.076818075 0.009354165
v 0.13758408 0.07683906 -0.00933045
v 0.137471955 0.07691757 0.00943155
v 0.137432565 0.07694514 -0.009407805
v 0.13733268 0.077015085 0.00951159
v 0.13728465 0.077048715 -0.009486075
v 0.137196 0.077110785 0.0095943
v 0.137140695 0.077149515 -0.00956523
v 0.13706178 0.077204775 0.00967941
v 0.13700103 0.077247315 -0.00964524
v 0.136929855 0.077297145 0.00976662
v 0.136865985 0.07734186 -0.00972618
v 0.13680012 0.077387985 0.00985566
v 0.136735275 0.077433405 -0.009809115
v 0.13667241 0.077477415 0.00994626
v 0.13660845 0.07752219 -0.009894195
v 0.13654659 0.07756551 0.01003812
v 0.13648533 0.07760841 -0.009981135
v 0.136422525 0.07765239 0.010130985
v 0.13636563 0.07769223 -0.010069695
v 0.13630008 0.077738115 0.01022454
v 0.13624908 0.07777383 -0.01015962
v 0.136179105 0.077822835 0.010318545
v 0.13607967 0.077892465 -0.01029648
v 0.13605945 0.07790661 0.010412685
v 0.13591596 0.07800708 -0.01043496
v 0.13594101 0.077989545 0.01050669
v 0.13582362 0.078071745 0.01060029
v 0.135757095 0.07811832 -0.010574205
v 0.135707145 0.0781533 0.0106932
v 0.13560225 0.078226755 -0.010713345
v 0.13559145 0.078234315 0.01078515
v 0.135450555 0.07833297 -0.010851495
v 0.13547637 0.07831488 0.010875825
v 0.1353618 0.0783951 0.010964985
v 0.135301155 0.07843758 -0.01098783
v 0.135248055 0.078474765 0.01105299
v 0.13515321 0.07854117 -0.01112145
v 0.135136395 0.07855293 0.01114173
v 0.135005835 0.078644355 -0.011251515
v 0.135026775 0.0786297 0.01123116
v 0.13486566 0.078742515 0.011366115
v 0.13486026 0.078746295 -0.01137888
v 0.134720115 0.078844425 -0.011506665
v 0.134707905 0.078852975 0.01150134
v 0.134584725 0.078939225 -0.011634435
v 0.13455279 0.078961575 0.0116361
v 0.13445322 0.07903131 -0.011761635
v 0.13439964 0.079068825 0.01176966
v 0.13432473 0.07912128 -0.01188771
v 0.13424772 0.07917519 0.01190124
v 0.134198415 0.07920972 -0.012012045
v 0.134096325 0.079281195 0.012030105
v 0.134073405 0.07929726 -0.012134115
v 0.13394883 0.079384485 -0.012253335
v 0.133944765 0.07938732 0.012155505
v 0.13382385 0.079471995 -0.012369135
v 0.133792335 0.07949406 0.01227669
v 0.13369758 0.079560405 -0.01248093
v 0.1336383 0.079601925 0.01239288
v 0.13356918 0.079650315 -0.01258818
v 0.13348197 0.07971138 0.012503355
v 0.133437765 0.07974234 -0.012690315
v 0.1333254 0.079821015 0.012609405
v 0.133305795 0.079834755 -0.01278822
v 0.1331757 0.079925835 -0.012883125
v 0.13317069 0.079929345 0.012712635
v 0.133046715 0.080016165 -0.012974865
v 0.13301709 0.080036895 0.01281282
v 0.13291797 0.0801063 -0.01306329
v 0.13286394 0.08014413 0.01290969
v 0.1327887 0.08019681 -0.013148235
v 0.13271049 0.08025156 0.01300302
v 0.13265808 0.080288265 -0.01322955
v 0.132556065 0.080359695 0.01309257
v 0.132525285 0.08038125 -0.013307085
v 0.13239996 0.080469015 0.013178085
v 0.132389505 0.08047632 -0.01338069
v 0.132249945 0.08057406 -0.0134502
v 0.132241425 0.080580015 0.013259325
v 0.132105765 0.080675025 -0.013515465
v 0.132079815 0.08069319 0.013336035
v 0.13195614 0.08077977 -0.013576335
v 0.131914365 0.080809035 0.013407975
v 0.13180044 0.08088879 -0.01363269
v 0.1317444 0.080928045 0.013474905
v 0.131641785 0.08099988 -0.01368549
v 0.131569335 0.081050625 0.01353663
v 0.131481225 0.081112305 -0.013734975
v 0.1313922 0.08117466 0.013594245
v 0.131318115 0.08122653 -0.013780875
v 0.13121394 0.081299475 0.013648095
v 0.13115181 0.081342975 -0.01382289
v 0.131033865 0.08142555 0.013697925
v 0.13098162 0.08146215 -0.013860765
v 0.130851285 0.081553395 0.01374345
v 0.1308069 0.08158449 -0.013894215
v 0.130665495 0.08168349 0.0137844
v 0.13062699 0.08171046 -0.013922955
v 0.13047579 0.08181633 0.01382052
v 0.130441215 0.08184054 -0.013946715
v 0.13028148 0.08195238 0.01385154
v 0.13024896 0.081975165 -0.013965195
v 0.130081875 0.08209215 0.013877205
v 0.13004952 0.082114815 -0.013978155
v 0.129876255 0.082236135 0.01389723
v 0.12984225 0.08225994 -0.01398528
v 0.129663915 0.082384815 0.013911345
v 0.129626625 0.082410915 -0.013986585
v 0.12944418 0.08253867 0.013919295
v 0.12940353 0.08256714 -0.01398381
v 0.129216465 0.08269812 0.01392105
v 0.1291734 0.082728285 -0.013976955
v 0.12898137 0.08286273 0.01391799
v 0.12893655 0.082894125 -0.013965585
v 0.128739465 0.083032125 0.013910175
v 0.12869331 0.08306445 -0.01394928
v 0.12849117 0.083205975 0.01389729
v 0.128443935 0.08323905 -0.013927575
v 0.12823692 0.08338401 0.01387902
v 0.12818877 0.08341773 -0.01390005
v 0.12797715 0.0835659 0.01385505
v 0.1279281 0.08360025 -0.01386627
v 0.12771228 0.083751375 0.013825065
v 0.127662225 0.083786415 -0.013825785
v 0.12744273 0.08394009 0.013788765
v 0.12739143 0.08397603 -0.01377816
v 0.127168965 0.084131805 0.013745835
v 0.127116045 0.084168855 -0.013722975
v 0.126891375 0.08432616 0.01369596
v 0.126836355 0.08436468 -0.01365978
v 0.126610425 0.0845229 0.01363884
v 0.12655101 0.08456448 -0.013588305
v 0.126326505 0.08472168 0.01357413
v 0.12625554 0.08477139 -0.013508985
v 0.12603831 0.08492349 0.013501515
v 0.125951175 0.08498451 -0.013422135
v 0.125741055 0.08513163 0.013420905
v 0.12563961 0.08520267 -0.01332804
v 0.125435955 0.08534526 0.01333266
v 0.125322525 0.0854247 -0.013227
v 0.12512469 0.08556321 0.01323717
v 0.125001585 0.0856494 -0.013119285
v 0.124808925 0.08578431 0.013134825
v 0.124678515 0.085875615 -0.01300521
v 0.12449034 0.08600739 0.013026
v 0.12435498 0.08610216 -0.01288506
v 0.124170615 0.086231265 0.012911085
v 0.124032675 0.08632785 -0.01275912
v 0.1238514 0.08645478 0.01279047
v 0.123713265 0.0865515 -0.012627675
v 0.12353439 0.08667675 0.01266453
v 0.123398445 0.08677194 -0.012491025
v 0.12322125 0.086896005 0.01253367
v 0.12308991 0.086987985 -0.012349455
v 0.12291366 0.08711139 0.012398265
v 0.122784885 0.087201555 -0.012201645
v 0.122613285 0.087321705 0.012258705
v 0.122478045 0.087416415 -0.01204575
v 0.1223178 0.087528615 0.012113745
v 0.12217044 0.0876318 -0.011882505
v 0.122022315 0.087735525 0.011961525
v 0.121863195 0.08784693 -0.01171272
v 0.121727595 0.08794188 0.01180266
v 0.12155745 0.088061025 -0.01153716
v 0.12143451 0.088147095 0.01163784
v 0.121254315 0.088273275 -0.011356635
v 0.1211439 0.088350585 0.01146777
v 0.120954945 0.0884829 -0.011171895
v 0.12085662 0.08855175 0.011293095
v 0.12066042 0.08868912 -0.010983765
v 0.12057351 0.08874999 0.01111452
v 0.120371925 0.088891125 -0.01079301
v 0.120295425 0.08894469 0.010932705
v 0.120090555 0.08908815 -0.01060041
v 0.12002322 0.089135295 0.01074834
v 0.11981745 0.089279385 -0.01040676
v 0.119757735 0.089321205 0.010562085
v 0.119553705 0.08946405 -0.01021281
v 0.11949981 0.08950179 0.01037466
v 0.11929737 0.08964354 -0.01001643
v 0.1192503 0.08967651 0.01018668
v 0.11904678 0.08981901 -0.009816225
v 0.11900781 0.089846295 0.00999633
v 0.11880201 0.0899904 -0.009612585
v 0.11877114 0.090012015 0.009802395
v 0.118563135 0.09015765 -0.009405945
v 0.118540275 0.09017367 0.009605235
v 0.118330245 0.09032073 -0.00919674
v 0.118315245 0.09033123 0.00940521
v 0.1181034 0.090479565 -0.00898539
v 0.118096065 0.09048471 0.009202665
v 0.117882705 0.09063411 -0.0087723
v 0.117882735 0.09063408 0.00899796
v 0.11766822 0.09078429 -0.008557905
v 0.11767527 0.090779355 0.00879147
v 0.1174737 0.09092049 0.00858354
v 0.11746002 0.09093006 -0.008342625
v 0.117278025 0.0910575 0.008374515
v 0.11725821 0.091071375 -0.00812688
v 0.11708826 0.091190385 0.008164755
v 0.117062865 0.09120816 -0.00791109
v 0.11690442 0.091319115 0.007954635
v 0.116874045 0.09134037 -0.007695525
v 0.116726535 0.09144366 0.007744365
v 0.116691915 0.0914679 -0.00747855
v 0.116554935 0.091563825 0.007532595
v 0.116516385 0.09159081 -0.00725982
v 0.116389575 0.09167961 0.007319025
v 0.11634735 0.091709175 -0.00703965
v 0.11623032 0.09179112 0.00710391
v 0.116184675 0.091823085 -0.00681831
v 0.11607705 0.091898445 0.006887475
v 0.11602821 0.091932645 -0.006596085
v 0.115929615 0.092001675 0.00666996
v 0.115877835 0.09203793 -0.006373275
v 0.11578788 0.092100915 0.006451605
v 0.11573343 0.092139045 -0.006150165
v 0.11565171 0.09219627 0.00623262
v 0.11559486 0.09223608 -0.00592704
v 0.115520955 0.092287815 0.006013275
v 0.11546199 0.09232911 -0.005704185
v 0.115395495 0.09237567 0.005793765
v 0.1153347 0.09241824 -0.0054819
v 0.11527518 0.09245991 0.00557436
v 0.11521284 0.09250356 -0.005260455
v 0.115159875 0.09254064 0.00535527
v 0.11509653 0.092584995 -0.005039985
v 0.115049655 0.09261783 0.005136645
v 0.11498667 0.09266193 -0.0048198
v 0.114945345 0.092690865 0.00491805
v 0.11488314 0.092734425 -0.004599795
v 0.114846855 0.09275982 0.004699365
v 0.114785715 0.09280263 -0.004379955
v 0.11475402 0.09282483 0.004480515
v 0.11469414 0.092866755 -0.00416025
v 0.1146666 0.092886045 0.00426144
v 0.11460819 0.092926935 -0.003940665
v 0.114584415 0.092943585 0.00404205
v 0.11452761 0.092983365 -0.0037212
v 0.11450724 0.09299763 0.0038223
v 0.11445216 0.09303621 -0.003501825
v 0.114434895 0.093048285 0.003602115
v 0.114381585 0.09308562 -0.00328251
v 0.11436714 0.09309573 0.003381405
v 0.11431566 0.093131775 -0.00306327
v 0.11430381 0.093140085 0.003160125
v 0.114254145 0.093174855 -0.002844075
v 0.114244665 0.093181485 0.002938185
v 0.114196785 0.09321501 -0.00262491
v 0.11418954 0.093220095 0.002715525
v 0.11414364 0.093252225 -0.002405775
v 0.11413845 0.093255855 0.00249216
v 0.114095295 0.09328608 -0.002186715
v 0.11409189 0.093288465 0.00226827
v 0.114051765 0.09331656 -0.001967715
v 0.11404989 0.093317865 0.00204384
v 0.11401305 0.093343665 -0.00174879
v 0.114012435 0.093344085 0.00181887
v 0.113979135 0.09336741 -0.00152994
v 0.11397954 0.093367125 0.001593375
v 0.113951175 0.093386985 0.00136734
v 0.11395005 0.09338778 -0.001311165
v 0.113927385 0.09340365 0.00114078
v 0.11392578 0.093404775 -0.00109245
v 0.113908125 0.093417135 0.000913695
v 0.11390631 0.093418395 -0.000873825
v 0.113893425 0.093427425 0.00068607
v 0.11389167 0.093428655 -0.00065526
v 0.11388327 0.093434535 0.000457905
v 0.113881845 0.09343554 -0.00043677
v 0.11387769 0.09343845 0.000229215
v 0.113876835 0.09343905 -0.00021834
v 0.113876625 0.093439185 0
f 1 2 3
f 1 4 2
f 1 5 4
f 1 6 5
f 1 7 6
f 1 8 7
f 1 9 8
f 1 10 9
f 1 11 10
f 1 12 11
f 1 13 12
f 1 14 13
f 1 15 14
f 1 16 15
f 1 17 16
f 1 18 17
f 1 19 18
f 1 20 19
f 1 21 20
f 1 22 21
f 1 23 22
f 1 24 23
f 1 25 24
f 1 26 25
f 1 27 26
f 1 28 27
f 1 29 28
f 1 30 29
f 1 31 30
f 1 32 31
f 1 33 32
f 1 34 33
f 1 35 34
f 1 36 35
f 1 37 36
f 1 38 37
f 1 39 38
f 1 40 39
f 1 41 40
f 1 42 41
f 1 43 42
f 1 44 43
f 1 45 44
f 1 46 45
f 1 47 46
f 1 48 47
f 1 49 48
f 1 50 49
f 1 51 50
f 1 52 51
f 1 53 52
f 1 54 53
f 1 55 54
f 54 56 53
f 56 57 53
f 56 58 57
f 58 59 57
f 58 60 59
f 60 61 59
f 60 62 61
f 62 63 61
f 62 64 63
f 64 65 63
f 64 66 65
f 66 67 65
f 66 68 67
f 68 69 67
f 68 70 69
f 70 71 69
f 70 72 71
f 72 73 71
f 72 74 73
f 74 75 73
f 74 76 75
f 76 77 75
f 76 78 77
f 78 79 77
f 79 80 77
f 79 81 80
f 81 82 80
f 81 83 82
f 83 84 82
f 84 85 82
f 84 86 85
f 86 87 85
f 86 88 87
f 88 89 87
f 88 90 89
f 90 91 89
f 90 92 91
f 92 93 91
f 92 94 93
f 94 95 93
f 94 96 95
f 96 97 95
f 96 98 97
f 98 99 97
f 98 100 99
f 100 101 99
f 100 102 101
f 102 103 101
f 102 104 103
f 104 105 103
f 104 106 105
f 106 107 105
f 106 108 107
f 108 109 107
f 108 110 109
f 110 111 109
f 110 112 111
f 112 113 111
f 112 114 113
f 114 115 113
f 114 116 115
f 116 117 115
f 116 118 117
f 118 119 117
f 118 120 119
f 120 121 119
f 121 122 119
f 121 123 122
f 123 124 122
f 123 125 124
f 125 126 124
f 125 127 126
f 127 128 126
f 127 129 128
f 129 130 128
f 129 131 130
f 131 132 130
f 131 133 132
f 133 134 132
f 133 135 134
f 135 136 134
f 135 137 136
f 137 138 136
f 137 139 138
f 139 140 138
f 139 141 140
f 141 142 140
f 141 143 142
f 143 144 142
f 143 145 144
f 145 146 144
f 145 147 146
f 147 148 146
f 147 149 148
f 149 150 148
f 149 151 150
f 151 152 150
f 152 153 150
f 152 154 153
f 154 155 153
f 154 156 155
f 156 157 155
f 156 158 157
f 158 159 157
f 159 160 157
f 159 161 160
f 161 162 160
f 161 163 162
f 163 164 162
f 163 165 164
f 165 166 164
f 166 167 164
f 166 168 167
f 168 169 167
f 168 170 169
f 170 171 169
f 170 172 171
f 170 173 172
f 173 174 172
f 173 175 174
f 175 176 174
f 175 177 176
f 177 178 176
f 177 179 178
f 179 180 178
f 179 181 180
f 181 182 180
f 181 183 182
f 181 184 183
f 184 185 183
f 184 186 185
f 186 187 185
f 186 188 187
f 188 189 187
f 188 190 189
f 190 191 189
f 190 192 191
f 192 193 191
f 192 194 193
f 192 195 194
f 195 196 194
f 195 197 196
f 197 198 196
f 197 199 198
f 199 200 198
f 199 201 200
f 201 202 200
f 201 203 202
f 203 204 202
f 203 205 204
f 205 206 204
f 205 207 206
f 205 208 207
f 208 209 207
f 208 210 209
f 210 211 209
f 210 212 211
f 212 213 211
f 212 214 213
f 214 215 213
f 214 216 215
f 216 217 215
f 216 218 217
f 218 219 217
f 218 220 219
f 220 221 219
f 220 222 221
f 222 223 221
f 222 224 223
f 224 225 223
f 224 226 225
f 226 227 225
f 226 228 227
f 228 229 227
f 228 230 229
f 230 231 229
f 230 232 231
f 232 233 231
f 232 234 233
f 234 235 233
f 234 236 235
f 236 237 235
f 236 238 237
f 238 239 237
f 238 240 239
f 240 241 239
f 240 242 241
f 242 243 241
f 242 244 243
f 244 245 243
f 244 246 245
f 246 247 245
f 246 248 247
f 248 249 247
f 248 250 249
f 250 251 249
f 250 252 251
f 252 253 251
f 252 254 253
f 254 255 253
f 254 256 255
f 256 257 255
f 256 258 257
f 258 259 257
f 258 260 259
f 260 261 259
f 260 262 261
f 262 263 261
f 262 264 263
f 264 265 263
f 264 266 265
f 266 267 265
f 266 268 267
f 268 269 267
f 268 270 269
f 270 271 269
f 270 272 271
f 272 273 271
f 272 274 273
f 274 275 273
f 274 276 275
f 276 277 275
f 276 278 277
f 278 279 277
f 278 280 279
f 280 281 279
f 280 282 281
f 282 283 281
f 282 284 283
f 284 285 283
f 284 286 285
f 286 287 285
f 286 288 287
f 288 289 287
f 288 290 289
f 290 291 289
f 290 292 291
f 292 293 291
f 292 294 293
f 294 295 293
f 294 296 295
f 296 297 295
f 296 298 297
f 298 299 297
f 298 300 299
f 300 301 299
f 300 302 301
f 302 303 301
f 302 304 303
f 304 305 303
f 304 306 305
f 306 307 305
f 306 308 307
f 308 309 307
f 308 310 309
f 310 311 309
f 310 312 311
f 312 313 311
f 312 314 313
f 314 315 313
f 314 316 315
f 316 317 315
f 316 318 317
f 318 319 317
f 319 320 317
f 319 321 320
f 321 322 320
f 321 323 322
f 323 324 322
f 323 325 324
f 325 326 324
f 325 327 326
f 327 328 326
f 327 329 328
f 329 330 328
f 329 331 330
f 331 332 330
f 331 333 332
f 333 334 332
f 333 335 334
f 335 336 334
f 335 337 336
f 337 338 336
f 337 339 338
f 339 340 338
f 339 341 340
f 341 342 340
f 341 343 342
f 343 344 342
f 343 345 344
f 345 346 344
f 345 347 346
f 347 348 346
f 347 349 348
f 349 350 348
f 349 351 350
f 351 352 350
f 351 353 352
f 353 354 352
f 353 355 354
f 355 356 354
f 355 357 356
f 357 358 356
f 357 359 358
f 359 360 358
f 359 361 360
f 361 362 360
f 361 363 362
f 363 364 362
f 363 365 364
f 365 366 364
f 365 367 366
f 367 368 366
f 367 369 368
f 369 370 368
f 369 371 370
f 371 372 370
f 371 373 372
f 373 374 372
f 373 375 374
f 375 376 374
f 375 377 376
f 377 378 376
f 377 379 378
f 379 380 378
f 379 381 380
f 381 382 380
f 381 383 382
f 383 384 382
f 383 385 384
f 385 386 384
f 386 387 384
f 386 388 387
f 388 389 387
f 388 390 389
f 390 391 389
f 390 392 391
f 392 393 391
f 392 394 393
f 394 395 393
f 394 396 395
f 396 397 395
f 396 398 397
f 398 399 397
f 398 400 399
f 55 401 54
f 55 402 401
f 402 403 401
f 402 404 403
f 402 405 404
f 402 406 405
f 402 407 406
f 402 408 407
f 402 409 408
f 402 410 409
f 402 411 410
f 402 412 411
f 402 413 412
f 402 414 413
f 402 415 414
f 402 416 415
f 402 417 416
f 402 418 417
f 402 419 418
f 402 420 419
f 402 421 420
f 402 422 421
f 402 423 422
f 402 424 423
f 402 425 424
f 402 426 425
f 402 427 426
f 402 428 427
f 402 429 428
f 402 430 429
f 402 431 430
f 402 432 431
f 402 433 432
f 402 434 433
f 402 435 434
f 402 436 435
f 402 437 436
f 402 438 437
f 402 439 438
f 402 440 439
f 402 441 440
f 402 442 441
f 402 443 442
f 402 444 443
f 402 445 444
f 402 446 445
f 402 447 446
f 402 448 447
f 402 449 448
f 402 450 449
f 402 451 450
f 402 452 451
f 402 453 452
f 454 455 456
f 457 454 456
f 457 456 458
f 457 458 459
f 459 458 460
f 459 460 461
f 461 460 462
f 461 462 463
f 463 462 464
f 463 464 465
f 465 464 466
f 465 466 467
f 467 466 468
f 467 468 469
f 469 468 470
f 469 470 471
f 471 470 472
f 471 472 473
f 473 472 474
f 473 474 475
f 475 474 476
f 475 476 477
f 477 476 478
f 477 478 479
f 479 478 480
f 479 480 481
f 481 480 482
f 481 482 483
f 483 482 484
f 483 484 485
f 485 484 486
f 485 486 487
f 487 486 488
f 487 488 489
f 489 488 490
f 489 490 491
f 491 490 492
f 491 492 493
f 493 492 494
f 493 494 495
f 495 494 496
f 495 496 497
f 497 496 498
f 497 498 499
f 499 498 500
f 499 500 501
f 501 500 502
f 501 502 503
f 503 502 504
f 503 504 505
f 505 504 506
f 505 506 507
f 507 506 508
f 507 508 509
f 509 508 510
f 509 510 511
f 511 510 512
f 511 512 513
f 513 512 514
f 513 514 515
f 515 514 516
f 515 516 517
f 517 516 518
f 517 518 519
f 519 518 520
f 519 520 521
f 521 520 522
f 521 522 523
f 523 522 524
f 523 524 525
f 525 524 526
f 525 526 527
f 527 526 528
f 527 528 529
f 529 528 530
f 529 530 531
f 531 530 532
f 531 532 533
f 533 532 534
f 533 534 535
f 535 534 536
f 535 536 537
f 537 536 538
f 537 538 539
f 539 538 540
f 539 540 541
f 541 540 542
f 541 542 543
f 543 542 544
f 543 544 545
f 545 544 546
f 545 546 547
f 547 546 548
f 547 548 549
f 549 548 550
f 549 550 551
f 551 550 552
f 551 552 553
f 553 552 554
f 553 554 555
f 555 554 556
f 555 556 557
f 557 556 558
f 557 558 559
f 559 558 560
f 559 560 561
f 561 560 562
f 561 562 563
f 563 562 564
f 563 564 565
f 565 564 566
f 565 566 567
f 567 566 568
f 567 568 569
f 569 568 570
f 569 570 571
f 571 570 572
f 571 572 573
f 573 572 574
f 573 574 575
f 575 574 576
f 575 576 577
f 577 576 578
f 577 578 579
f 579 578 580
f 579 580 581
f 581 580 582
f 581 582 583
f 583 582 584
f 583 584 585
f 585 584 586
f 585 586 587
f 587 586 588
f 587 588 589
f 589 588 590
f 589 590 591
f 591 590 592
f 591 592 593
f 593 592 594
f 593 594 595
f 595 594 596
f 595 596 597
f 597 596 598
f 597 598 599
f 599 598 600
f 599 600 601
f 601 600 602
f 601 602 603
f 603 602 604
f 603 604 605
f 605 604 606
f 605 606 607
f 607 606 608
f 607 608 609
f 609 608 610
f 609 610 611
f 611 610 612
f 611 612 613
f 613 612 614
f 613 614 615
f 615 614 616
f 615 616 617
f 617 616 618
f 617 618 619
f 619 618 620
f 619 620 621
f 621 620 622
f 621 622 623
f 623 622 624
f 623 624 625
f 625 624 626
f 625 626 627
f 627 626 628
f 627 628 629
f 629 628 630
f 629 630 631
f 631 630 632
f 631 632 633
f 633 632 634
f 633 634 635
f 635 634 636
f 635 636 637
f 637 636 638
f 637 638 639
f 639 638 640
f 639 640 641
f 641 640 642
f 641 642 643
f 643 642 644
f 643 644 645
f 645 644 646
f 645 646 647
f 647 646 648
f 647 648 649
f 649 648 650
f 649 650 651
f 651 650 652
f 651 652 653
f 653 652 654
f 653 654 655
f 655 654 656
f 655 656 657
f 657 656 658
f 657 658 659
f 659 658 660
f 659 660 661
f 661 660 662
f 661 662 663
f 663 662 664
f 663 664 665
f 665 664 666
f 665 666 667
f 667 666 668
f 667 668 669
f 669 668 670
f 669 670 671
f 671 670 672
f 671 672 673
f 673 672 674
f 673 674 675
f 675 674 676
f 675 676 677
f 677 676 678
f 677 678 679
f 679 678 680
f 679 680 681
f 681 680 682
f 681 682 683
f 683 682 684
f 683 684 685
f 685 684 686
f 685 686 687
f 687 686 688
f 687 688 689
f 689 688 690
f 689 690 691
f 691 690 692
f 691 692 693
f 693 692 694
f 693 694 695
f 695 694 696
f 695 696 697
f 697 696 698
f 697 698 699
f 699 698 700
f 699 700 701
f 701 700 702
f 701 702 703
f 703 702 704
f 703 704 705
f 705 704 706
f 705 706 707
f 707 706 708
f 707 708 709
f 709 708 710
f 709 710 711
f 711 710 712
f 711 712 713
f 713 712 714
f 713 714 715
f 715 714 716
f 715 716 717
f 717 716 718
f 717 718 719
f 719 718 720
f 719 720 721
f 721 720 722
f 721 722 723
f 723 722 724
f 723 724 725
f 725 724 726
f 725 726 727
f 727 726 728
f 727 728 729
f 729 728 730
f 729 730 731
f 731 730 732
f 731 732 733
f 733 732 734
f 733 734 735
f 735 734 736
f 735 736 737
f 737 736 738
f 737 738 739
f 739 738 740
f 739 740 741
f 741 740 742
f 741 742 743
f 743 742 744
f 743 744 745
f 745 744 746
f 745 746 747
f 747 746 748
f 747 748 749
f 749 748 750
f 749 750 751
f 751 750 752
f 751 752 753
f 753 752 754
f 753 754 755
f 755 754 756
f 755 756 757
f 757 756 758
f 757 758 759
f 759 758 760
f 759 760 761
f 761 760 762
f 761 762 763
f 763 762 764
f 763 764 765
f 765 764 766
f 765 766 767
f 767 766 768
f 767 768 769
f 769 768 770
f 769 770 771
f 771 770 772
f 771 772 773
f 773 772 774
f 773 774 775
f 775 774 776
f 775 776 777
f 777 776 778
f 777 778 779
f 779 778 780
f 779 780 781
f 781 780 782
f 781 782 783
f 783 782 784
f 783 784 785
f 785 784 786
f 785 786 787
f 787 786 788
f 787 788 789
f 789 788 790
f 789 790 791
f 791 790 792
f 791 792 793
f 793 792 794
f 793 794 795
f 795 794 796
f 795 796 797
f 797 796 798
f 797 798 799
f 799 798 800
f 799 800 801
f 801 800 802
f 801 802 803
f 803 802 804
f 803 804 805
f 805 804 806
f 805 806 807
f 807 806 808
f 807 808 809
f 809 808 810
f 809 810 811
f 811 810 812
f 811 812 813
f 813 812 814
f 813 814 815
f 815 814 816
f 815 816 817
f 817 816 818
f 817 818 819
f 819 818 820
f 819 820 821
f 821 820 822
f 821 822 823
f 823 822 824
f 823 824 825
f 825 824 826
f 825 826 827
f 827 826 828
f 827 828 829
f 829 828 830
f 829 830 831
f 831 830 832
f 831 832 833
f 833 832 834
f 833 834 835
f 835 834 836
f 835 836 837
f 837 836 838
f 837 838 839
f 839 838 840
f 839 840 841
f 841 840 842
f 841 842 843
f 843 842 844
f 843 844 845
f 845 844 846
f 845 846 847
f 847 846 848
f 847 848 849
f 849 848 850
f 849 850 851
f 851 850 852
f 851 852 853
f 853 852 854
f 853 854 855
f 855 854 856
f 855 856 857
f 857 856 858
f 857 858 859
f 859 858 860
f 859 860 861
f 861 860 862
f 861 862 863
f 863 862 864
f 863 864 865
f 865 864 866
f 865 866 867
f 867 866 868
f 867 868 869
f 869 868 870
f 869 870 871
f 871 870 872
f 871 872 873
f 873 872 874
f 873 874 875
f 875 874 876
f 875 876 877
f 877 876 878
f 877 878 879
f 879 878 880
f 879 880 881
f 881 880 882
f 881 882 883
f 883 882 884
f 883 884 885
f 885 884 886
f 885 886 887
f 887 886 888
f 887 888 889
f 889 888 890
f 889 890 891
f 891 890 892
f 891 892 893
f 893 892 894
f 893 894 895
f 895 894 896
f 895 896 897
f 897 896 898
f 897 898 899
f 899 898 900
f 899 900 901
f 901 900 902
f 901 902 903
f 903 902 904
f 903 904 905
f 905 904 906
f 905 906 907
f 907 906 908
f 907 908 909
f 909 908 910
f 909 910 911
f 911 910 912
f 911 912 913
f 913 912 914
f 913 914 915
f 915 914 916
f 915 916 917
f 917 916 918
f 917 918 919
f 919 918 920
f 919 920 921
f 921 920 922
f 921 922 923
f 923 922 924
f 923 924 925
f 925 924 926
f 925 926 927
f 927 926 928
f 927 928 929
f 929 928 930
f 929 930 931
f 931 930 932
f 931 932 933
f 933 932 934
f 933 934 935
f 935 934 936
f 935 936 937
f 937 936 938
f 937 938 939
f 939 938 940
f 939 940 941
f 941 940 942
f 941 942 943
f 943 942 944
f 943 944 945
f 945 944 946
f 945 946 947
f 947 946 948
f 947 948 949
f 949 948 950
f 949 950 951
f 951 950 952
f 951 952 953
f 953 952 954
f 953 954 955
f 955 954 956
f 955 956 957
f 957 956 958
f 957 958 959
f 959 958 960
f 959 960 961
f 961 960 962
f 961 962 963
f 963 962 964
f 963 964 965
f 965 964 966
f 965 966 967
f 967 966 968
f 967 968 969
f 969 968 970
f 969 970 971
f 971 970 972
f 971 972 973
f 973 972 974
f 973 974 975
f 975 974 976
f 975 976 977
f 977 976 978
f 977 978 979
f 979 978 980
f 979 980 981
f 981 980 982
f 981 982 983
f 983 982 984
f 983 984 985
f 985 984 986
f 985 986 987
f 987 986 988
f 987 988 989
f 989 988 990
f 989 990 991
f 991 990 992
f 991 992 993
f 993 992 994
f 993 994 995
f 995 994 996
f 995 996 997
f 997 996 998
f 997 998 999
f 999 998 1000
f 999 1000 1001
f 1001 1000 1002
f 1001 1002 1003
f 1003 1002 1004
f 1003 1004 1005
f 1005 1004 1006
f 1005 1006 1007
f 1007 1006 1008
f 1007 1008 1009
f 1009 1008 1010
f 1009 1010 1011
f 1011 1010 1012
f 1011 1012 1013
f 1013 1012 1014
f 1013 1014 1015
f 1015 1014 1016
f 1015 1016 1017
f 1017 1016 1018
f 1017 1018 1019
f 1019 1018 1020
f 1019 1020 1021
f 1021 1020 1022
f 1021 1022 1023
f 1023 1022 1024
f 1023 1024 1025
f 1025 1024 1026
f 1025 1026 1027
f 1027 1026 1028
f 1027 1028 1029
f 1029 1028 1030
f 1029 1030 1031
f 1031 1030 1032
f 1031 1032 1033
f 1033 1032 1034
f 1033 1034 1035
f 1035 1034 1036
f 1035 1036 1037
f 1037 1036 1038
f 1037 1038 1039
f 1039 1038 1040
f 1039 1040 1041
f 1041 1040 1042
f 1041 1042 1043
f 1043 1042 1044
f 1043 1044 1045
f 1045 1044 1046
f 1045 1046 1047
f 1047 1046 1048
f 1047 1048 1049
f 1049 1048 1050
f 1049 1050 1051
f 1051 1050 1052
f 1051 1052 1053
f 1053 1052 1054
f 1053 1054 1055
f 1055 1054 1056
f 1055 1056 1057
f 1057 1056 1058
f 1057 1058 1059
f 1059 1058 1060
f 1059 1060 1061
f 1061 1060 1062
f 1061 1062 1063
f 1063 1062 1064
f 1063 1064 1065
f 1065 1064 1066
f 1065 1066 1067
f 1067 1066 1068
f 1067 1068 1069
f 1069 1068 1070
f 1069 1070 1071
f 1071 1070 1072
f 1071 1072 1073
f 1073 1072 1074
f 1073 1074 1075
f 1075 1074 1076
f 1075 1076 1077
f 1077 1076 1078
f 1077 1078 1079
f 1079 1078 1080
f 1079 1080 1081
f 1081 1080 1082
f 1081 1082 1083
f 1083 1082 1084
f 1083 1084 1085
f 1085 1084 1086
f 1085 1086 1087
f 1087 1086 1088
f 1087 1088 1089
f 1089 1088 1090
f 1089 1090 1091
f 1091 1090 1092
f 1091 1092 1093
f 1093 1092 1094
f 1093 1094 1095
f 1095 1094 1096
f 1095 1096 1097
f 1097 1096 1098
f 1097 1098 1099
f 1099 1098 1100
f 1099 1100 1101
f 1101 1100 1102
f 1101 1102 1103
f 1103 1102 1104
f 1103 1104 1105
f 1105 1104 1106
f 1105 1106 1107
f 1107 1106 1108
f 1107 1108 1109
f 1109 1108 1110
f 1109 1110 1111
f 1111 1110 1112
f 1111 1112 1113
f 1113 1112 1114
f 1113 1114 1115
f 1115 1114 1116
f 1115 1116 1117
f 1117 1116 1118
f 1117 1118 1119
f 1119 1118 1120
f 1119 1120 1121
f 1121 1120 1122
f 1121 1122 1123
f 1123 1122 1124
f 1123 1124 1125
f 1125 1124 1126
f 1125 1126 1127
f 1127 1126 1128
f 1127 1128 1129
f 1129 1128 1130
f 1129 1130 1131
f 1131 1130 1132
f 1131 1132 1133
f 1133 1132 1134
f 1133 1134 1135
f 1135 1134 1136
f 1135 1136 1137
f 1137 1136 1138
f 1137 1138 1139
f 1139 1138 1140
f 1139 1140 1141
f 1141 1140 1142
f 1141 1142 1143
f 1143 1142 1144
f 1143 1144 1145
f 1145 1144 1146
f 1145 1146 1147
f 1147 1146 1148
f 1147 1148 1149
f 1149 1148 1150
f 1149 1150 1151
f 1151 1150 1152
f 1151 1152 1153
f 1153 1152 1154
f 1153 1154 1155
f 1155 1154 1156
f 1155 1156 1157
f 1157 1156 1158
f 1157 1158 1159
f 1159 1158 1160
f 1159 1160 1161
f 1161 1160 1162
f 1161 1162 1163
f 1163 1162 1164
f 1163 1164 1165
f 1165 1164 1166
f 1165 1166 1167
f 1167 1166 1168
f 1167 1168 1169
f 1169 1168 1170
f 1169 1170 1171
f 1171 1170 1172
f 1171 1172 1173
f 1173 1172 1174
f 1173 1174 1175
f 1175 1174 1176
f 1175 1176 1177
f 1177 1176 1178
f 1177 1178 1179
f 1179 1178 1180
f 1179 1180 1181
f 1181 1180 1182
f 1181 1182 1183
f 1183 1182 1184
f 1183 1184 1185
f 1185 1184 1186
f 1185 1186 1187
f 1187 1186 1188
f 1187 1188 1189
f 1189 1188 1190
f 1189 1190 1191
f 1191 1190 1192
f 1191 1192 1193
f 1193 1192 1194
f 1193 1194 1195
f 1195 1194 1196
f 1195 1196 1197
f 1197 1196 1198
f 1197 1198 1199
f 1199 1198 1200
f 1199 1200 1201
f 1201 1200 1202
f 1201 1202 1203
f 1203 1202 1204
f 1203 1204 1205
f 1205 1204 1206
f 1205 1206 1207
f 1207 1206 1208
f 1207 1208 1209
f 1209 1208 1210
f 1209 1210 1211
f 1211 1210 1212
f 1211 1212 1213
f 1213 1212 1214
f 1213 1214 1215
f 1215 1214 1216
f 1215 1216 1217
f 1217 1216 1218
f 1217 1218 1219
f 1219 1218 1220
f 1219 1220 1221
f 1221 1220 1222
f 1221 1222 1223
f 1223 1222 1224
f 1223 1224 1225
f 1225 1224 1226
f 1225 1226 1227
f 1227 1226 1228
f 1227 1228 1229
f 1229 1228 1230
f 1229 1230 1231
f 1231 1230 1232
f 1231 1232 1233
f 1233 1232 1234
f 1233 1234 1235
f 1235 1234 1236
f 1235 1236 1237
f 1237 1236 1238
f 1237 1238 1239
f 1239 1238 1240
f 1239 1240 1241
f 1241 1240 1242
f 1241 1242 1243
f 1243 1242 1244
f 1243 1244 1245
f 1245 1244 1246
f 1245 1246 1247
f 1247 1246 1248
f 1247 1248 1249
f 1249 1248 1250
f 1249 1250 1251
f 1251 1250 1252
f 1251 1252 1253
f 1253 1252 1254
f 1253 1254 1255
f 1255 1254 1256
f 1255 1256 1257
f 1257 1256 1258
f 1257 1258 1259
f 1259 1258 1260
f 1259 1260 1261
f 1261 1260 1262
f 1261 1262 1263
f 1263 1262 1264
f 1263 1264 1265
f 1265 1264 1266
f 1265 1266 1267
f 1267 1266 1268
f 1267 1268 1269
f 1269 1268 1270
f 1269 1270 1271
f 1271 1270 1272
f 1271 1272 1273
f 1273 1272 1274
f 1273 1274 1275
f 1275 1274 1276
f 1275 1276 1277
f 1277 1276 1278
f 1277 1278 1279
f 1279 1278 1280
f 1279 1280 1281
f 1281 1280 1282
f 1281 1282 1283
f 1283 1282 1284
f 1283 1284 1285
f 1285 1284 1286
f 1285 1286 1287
f 1287 1286 1288
f 1287 1288 1289
f 1289 1288 1290
f 1289 1290 1291
f 1291 1290 1292
f 1291 1292 1293
f 1293 1292 1294
f 1293 1294 1295
f 1295 1294 1296
f 1295 1296 1297
f 1297 1296 1298
f 1297 1298 1299
f 1299 1298 1300
f 1299 1300 1301
f 1301 1300 1302
f 1301 1302 1303
f 1303 1302 1304
f 1303 1304 1305
f 1305 1304 1306
f 1305 1306 1307
f 1307 1306 1308
f 1307 1308 1309
f 1309 1308 1310
f 1309 1310 1311
f 1311 1310 1312
f 1311 1312 1313
f 1313 1312 1314
f 1313 1314 1315
f 1315 1314 1316
f 1315 1316 1317
f 1317 1316 1318
f 1317 1318 1319
f 1319 1318 1320
f 1319 1320 1321
f 1321 1320 1322
f 1321 1322 1323
f 1323 1322 1324
f 1323 1324 1325
f 1325 1324 1326
f 1325 1326 1327
f 1327 1326 1328
f 1327 1328 1329
f 1329 1328 1330
f 1329 1330 1331
f 1331 1330 1332
f 1331 1332 1333
f 1333 1332 1334
f 1333 1334 1335
f 1335 1334 1336
f 1335 1336 1337
f 1337 1336 1338
f 1337 1338 1339
f 1339 1338 1340
f 1339 1340 1341
f 1341 1340 1342
f 1341 1342 1343
f 1343 1342 1344
f 1343 1344 1345
f 1345 1344 1346
f 1345 1346 1347
f 1347 1346 1348
f 1347 1348 1349
f 1349 1348 1350
f 1349 1350 1351
f 1351 1350 1352
f 1351 1352 1353
f 1353 1352 1354
f 1353 1354 1355
f 1356 1357 1358
f 1356 1358 1359
f 1360 1361 1362
f 1360 1362 1363
f 1364 1365 1366
f 1364 1366 1367
f 1368 1369 1370
f 1368 1371 1369
f 1372 1368 1370
f 1373 1372 1370
f 1374 1373 1370
f 1375 1374 1370
f 1376 1375 1370
f 1377 1376 1370
f 1378 1377 1370
f 1379 1378 1370
f 1380 1379 1370
f 1381 1380 1370
f 1382 1381 1370
f 1383 1382 1370
f 1384 1383 1370
f 1385 1384 1370
f 1386 1385 1370
f 1387 1386 1370
f 1388 1387 1370
f 1389 1388 1370
f 1390 1389 1370
f 1391 1390 1370
f 1392 1391 1370
f 1393 1392 1370
f 1394 1393 1370
f 1395 1394 1370
f 1396 1395 1370
f 1397 1396 1370
f 1398 1397 1370
f 1399 1398 1370
f 1400 1399 1370
f 1401 1400 1370
f 1402 1401 1370
f 1403 1402 1370
f 1404 1403 1370
f 1405 1404 1370
f 1406 1405 1370
f 1407 1406 1370
f 1408 1407 1370
f 1409 1408 1370
f 1410 1409 1370
f 1411 1410 1370
f 1412 1411 1370
f 1413 1412 1370
f 1414 1413 1370
f 1415 1414 1370
f 1416 1415 1370
f 1417 1416 1370
f 1418 1417 1370
f 1419 1418 1370
f 1420 1419 1370
f 1371 1421 1369
f 1371 1422 1421
f 1371 1423 1422
f 1422 1424 1421
f 1424 1425 1421
f 1425 1426 1421
f 1426 1427 1421
f 1427 1428 1421
f 1428 1429 1421
f 1429 1430 1421
f 1430 1431 1421
f 1431 1432 1421
f 1432 1433 1421
f 1433 1434 1421
f 1434 1435 1421
f 1435 1436 1421
f 1436 1437 1421
f 1437 1438 1421
f 1438 1439 1421
f 1439 1440 1421
f 1440 1441 1421
f 1441 1442 1421
f 1442 1443 1421
f 1443 1444 1421
f 1444 1445 1421
f 1445 1446 1421
f 1446 1447 1421
f 1447 1448 1421
f 1448 1449 1421
f 1449 1450 1421
f 1450 1451 1421
f 1451 1452 1421
f 1452 1453 1421
f 1453 1454 1421
f 1454 1455 1421
f 1455 1456 1421
f 1456 1457 1421
f 1457 1458 1421
f 1458 1459 1421
f 1459 1460 1421
f 1460 1461 1421
f 1461 1462 1421
f 1462 1463 1421
f 1463 1464 1421
f 1464 1465 1421
f 1465 1466 1421
f 1466 1467 1421
f 1467 1468 1421
f 1468 1469 1421
f 1469 1470 1421
f 1470 1471 1421
f 1471 1472 1421
f 1472 1473 1421
f 1473 1474 1421
f 1474 1475 1421
f 1475 1476 1421
f 1371 1477 1423
f 1477 1478 1423
f 1477 1479 1478
f 1479 1480 1478
f 1479 1481 1480
f 1481 1482 1480
f 1481 1483 1482
f 1483 1484 1482
f 1483 1485 1484
f 1485 1486 1484
f 1485 1487 1486
f 1487 1488 1486
f 1487 1489 1488
f 1489 1490 1488
f 1489 1491 1490
f 1491 1492 1490
f 1491 1493 1492
f 1493 1494 1492
f 1493 1495 1494
f 1495 1496 1494
f 1495 1497 1496
f 1497 1498 1496
f 1497 1499 1498
f 1499 1500 1498
f 1499 1501 1500
f 1499 1502 1501
f 1502 1503 1501
f 1502 1504 1503
f 1504 1505 1503
f 1504 1506 1505
f 1504 1507 1506
f 1507 1508 1506
f 1507 1509 1508
f 1509 1510 1508
f 1509 1511 1510
f 1511 1512 1510
f 1511 1513 1512
f 1513 1514 1512
f 1513 1515 1514
f 1515 1516 1514
f 1515 1517 1516
f 1517 1518 1516
f 1517 1519 1518
f 1519 1520 1518
f 1519 1521 1520
f 1521 1522 1520
f 1521 1523 1522
f 1523 1524 1522
f 1523 1525 1524
f 1525 1526 1524
f 1525 1527 1526
f 1527 1528 1526
f 1527 1529 1528
f 1529 1530 1528
f 1529 1531 1530
f 1531 1532 1530
f 1531 1533 1532
f 1533 1534 1532
f 1533 1535 1534
f 1535 1536 1534
f 1535 1537 1536
f 1537 1538 1536
f 1537 1539 1538
f 1539 1540 1538
f 1539 1541 1540
f 1541 1542 1540
f 1541 1543 1542
f 1541 1544 1543
f 1544 1545 1543
f 1544 1546 1545
f 1546 1547 1545
f 1546 1548 1547
f 1548 1549 1547
f 1548 1550 1549
f 1550 1551 1549
f 1550 1552 1551
f 1552 1553 1551
f 1552 1554 1553
f 1554 1555 1553
f 1554 1556 1555
f 1556 1557 1555
f 1556 1558 1557
f 1558 1559 1557
f 1558 1560 1559
f 1560 1561 1559
f 1560 1562 1561
f 1562 1563 1561
f 1562 1564 1563
f 1564 1565 1563
f 1564 1566 1565
f 1566 1567 1565
f 1566 1568 1567
f 1568 1569 1567
f 1568 1570 1569
f 1570 1571 1569
f 1570 1572 1571
f 1572 1573 1571
f 1572 1574 1573
f 1572 1575 1574
f 1575 1576 1574
f 1575 1577 1576
f 1577 1578 1576
f 1577 1579 1578
f 1579 1580 1578
f 1579 1581 1580
f 1579 1582 1581
f 1582 1583 1581
f 1582 1584 1583
f 1584 1585 1583
f 1584 1586 1585
f 1586 1587 1585
f 1586 1588 1587
f 1586 1589 1588
f 1589 1590 1588
f 1590 1591 1588
f 1590 1592 1591
f 1592 1593 1591
f 1592 1594 1593
f 1594 1595 1593
f 1594 1596 1595
f 1596 1597 1595
f 1596 1598 1597
f 1598 1599 1597
f 1598 1600 1599
f 1600 1601 1599
f 1601 1602 1599
f 1601 1603 1602
f 1603 1604 1602
f 1603 1605 1604
f 1605 1606 1604
f 1605 1607 1606
f 1607 1608 1606
f 1607 1609 1608
f 1609 1610 1608
f 1609 1611 1610
f 1611 1612 1610
f 1612 1613 1610
f 1612 1614 1613
f 1614 1615 1613
f 1614 1616 1615
f 1616 1617 1615
f 1616 1618 1617
f 1618 1619 1617
f 1618 1620 1619
f 1620 1621 1619
f 1620 1622 1621
f 1622 1623 1621
f 1622 1624 1623
f 1624 1625 1623
f 1625 1626 1623
f 1625 1627 1626
f 1627 1628 1626
f 1627 1629 1628
f 1629 1630 1628
f 1629 1631 1630
f 1631 1632 1630
f 1631 1633 1632
f 1633 1634 1632
f 1633 1635 1634
f 1635 1636 1634
f 1635 1637 1636
f 1637 1638 1636
f 1637 1639 1638
f 1639 1640 1638
f 1639 1641 1640
f 1641 1642 1640
f 1641 1643 1642
f 1643 1644 1642
f 1643 1645 1644
f 1645 1646 1644
f 1645 1647 1646
f 1647 1648 1646
f 1647 1649 1648
f 1649 1650 1648
f 1649 1651 1650
f 1651 1652 1650
f 1651 1653 1652
f 1653 1654 1652
f 1653 1655 1654
f 1655 1656 1654
f 1655 1657 1656
f 1657 1658 1656
f 1657 1659 1658
f 1659 1660 1658
f 1659 1661 1660
f 1661 1662 1660
f 1661 1663 1662
f 1663 1664 1662
f 1663 1665 1664
f 1665 1666 1664
f 1665 1667 1666
f 1667 1668 1666
f 1667 1669 1668
f 1669 1670 1668
f 1669 1671 1670
f 1671 1672 1670
f 1671 1673 1672
f 1673 1674 1672
f 1673 1675 1674
f 1675 1676 1674
f 1675 1677 1676
f 1677 1678 1676
f 1677 1679 1678
f 1679 1680 1678
f 1679 1681 1680
f 1681 1682 1680
f 1681 1683 1682
f 1683 1684 1682
f 1683 1685 1684
f 1685 1686 1684
f 1685 1687 1686
f 1687 1688 1686
f 1687 1689 1688
f 1689 1690 1688
f 1689 1691 1690
f 1691 1692 1690
f 1691 1693 1692
f 1693 1694 1692
f 1693 1695 1694
f 1695 1696 1694
f 1695 1697 1696
f 1697 1698 1696
f 1697 1699 1698
f 1699 1700 1698
f 1699 1701 1700
f 1701 1702 1700
f 1701 1703 1702
f 1703 1704 1702
f 1703 1705 1704
f 1705 1706 1704
f 1705 1707 1706
f 1707 1708 1706
f 1707 1709 1708
f 1709 1710 1708
f 1709 1711 1710
f 1711 1712 1710
f 1711 1713 1712
f 1713 1714 1712
f 1713 1715 1714
f 1715 1716 1714
f 1715 1717 1716
f 1717 1718 1716
f 1717 1719 1718
f 1719 1720 1718
f 1719 1721 1720
f 1721 1722 1720
f 1721 1723 1722
f 1723 1724 1722
f 1723 1725 1724
f 1725 1726 1724
f 1725 1727 1726
f 1727 1728 1726
f 1727 1729 1728
f 1729 1730 1728
f 1729 1731 1730
f 1731 1732 1730
f 1731 1733 1732
f 1733 1734 1732
f 1733 1735 1734
f 1735 1736 1734
f 1735 1737 1736
f 1737 1738 1736
f 1737 1739 1738
f 1739 1740 1738
f 1739 1741 1740
f 1741 1742 1740
f 1741 1743 1742
f 1741 1744 1743
f 1744 1745 1743
f 1744 1746 1745
f 1746 1747 1745
f 1746 1748 1747
f 1748 1749 1747
f 1748 1750 1749
f 1750 1751 1749
f 1750 1752 1751
f 1752 1753 1751
f 1752 1754 1753
f 1754 1755 1753
f 1754 1756 1755
f 1756 1757 1755
f 1756 1758 1757
f 1758 1759 1757
f 1758 1760 1759
f 1760 1761 1759
f 1760 1762 1761
f 1762 1763 1761
f 1762 1764 1763
f 1764 1765 1763
f 1764 1766 1765
f 1766 1767 1765
f 1766 1768 1767
f 1768 1769 1767
f 1768 1770 1769
f 1770 1771 1769
f 1770 1772 1771
f 1772 1773 1771
f 1772 1774 1773
f 1774 1775 1773
f 1774 1776 1775
f 1776 1777 1775
f 1776 1778 1777
f 1778 1779 1777
f 1778 1780 1779
f 1780 1781 1779
f 1780 1782 1781
f 1782 1783 1781
f 1782 1784 1783
f 1784 1785 1783
f 1784 1786 1785
f 1786 1787 1785
f 1786 1788 1787
f 1788 1789 1787
f 1788 1790 1789
f 1790 1791 1789
f 1790 1792 1791
f 1792 1793 1791
f 1792 1794 1793
f 1794 1795 1793
f 1794 1796 1795
f 1796 1797 1795
f 1796 1798 1797
f 1798 1799 1797
f 1798 1800 1799
f 1800 1801 1799
f 1800 1802 1801
f 1802 1803 1801
f 1802 1804 1803
f 1804 1805 1803
f 1804 1806 1805
f 1806 1807 1805
f 1806 1808 1807
f 1806 1809 1808
f 1809 1810 1808
f 1809 1811 1810
f 1811 1812 1810
f 1811 1813 1812
f 1813 1814 1812
f 1813 1815 1814
f 1815 1816 1814
f 1815 1817 1816
f 1817 1818 1816
f 1817 1819 1818
f 1819 1820 1818
