1742 1750 0
v -0.032304675 0.01687872 0.0065625
v -0.03775476 0.01713273 0.0065625
v -0.03775125 0.017175 0.0065625
v -0.03776076 0.01709229 0.0065625
v -0.03775476 0.01721727 0.0065625
v -0.03776076 0.01725771 0.0065625
v -0.031871175 0.017296275 0.0065625
v -0.03776928 0.017296335 0.0065625
v -0.037780305 0.01733313 0.0065625
v -0.03779385 0.01736811 0.0065625
v -0.037809885 0.01740126 0.0065625
v -0.03782844 0.017432595 0.0065625
v -0.03784962 0.01746219 0.0065625
v -0.03787431 0.017490705 0.0065625
v -0.037902195 0.017517885 0.0065625
v -0.037932675 0.01754331 0.0065625
v -0.03796512 0.01756653 0.0065625
v -0.037998945 0.017587095 0.0065625
v -0.03803352 0.017604555 0.0065625
v -0.038068245 0.01761849 0.0065625
v -0.038103585 0.017628825 0.0065625
v -0.03814113 0.01763619 0.0065625
v -0.03818019 0.017640615 0.0065625
v -0.03143748 0.017709915 0.0065625
v -0.03822 0.0176421 0.0065625
v -0.042581985 0.01773504 0.0065625
v -0.042546375 0.017959755 0.0065625
v -0.03825981 0.017640615 0.0065625
v -0.03829887 0.01763619 0.0065625
v -0.038336415 0.017628825 0.0065625
v -0.038371755 0.01761849 0.0065625
v -0.03840648 0.017604555 0.0065625
v -0.038441055 0.017587095 0.0065625
v -0.038474865 0.01756653 0.0065625
v -0.038507325 0.01754331 0.0065625
v -0.038537805 0.017517885 0.0065625
v -0.04260504 0.017511855 0.0065625
v -0.038565705 0.017490705 0.0065625
v -0.03859038 0.01746219 0.0065625
v -0.03861156 0.017432595 0.0065625
v -0.038630115 0.01740126 0.0065625
v -0.03864615 0.01736811 0.0065625
v -0.03865968 0.01733313 0.0065625
v -0.03867072 0.017296335 0.0065625
v -0.04261587 0.017285685 0.0065625
v -0.03867924 0.01725771 0.0065625
v -0.03868524 0.01721727 0.0065625
v -0.03868875 0.017175 0.0065625
v -0.03868524 0.01713273 0.0065625
v -0.03867924 0.01709229 0.0065625
v -0.042614805 0.01705638 0.0065625
v -0.03867072 0.017053665 0.0065625
v -0.03865968 0.01701687 0.0065625
v -0.03864615 0.01698189 0.0065625
v -0.038630115 0.01694874 0.0065625
v -0.03861156 0.016917405 0.0065625
v -0.03859038 0.01688781 0.0065625
v -0.038565705 0.016859295 0.0065625
v -0.038537805 0.016832115 0.0065625
v -0.04260201 0.0168258 0.0065625
v -0.038507325 0.01680669 0.0065625
v -0.038474865 0.01678347 0.0065625
v -0.038441055 0.016762905 0.0065625
v -0.03840648 0.016745445 0.0065625
v -0.038371755 0.01673151 0.0065625
v -0.038336415 0.016721175 0.0065625
v -0.03829887 0.01671381 0.0065625
v -0.03825981 0.016709385 0.0065625
v -0.03822 0.0167079 0.0065625
v -0.04257768 0.016595715 0.0065625
v -0.032737725 0.016457475 0.0065625
v -0.03818019 0.016709385 0.0065625
v -0.042541965 0.01636797 0.0065625
v -0.03317001 0.016032705 0.0065625
v -0.042495075 0.01614435 0.0065625
v -0.04243716 0.0159267 0.0065625
v -0.03360141 0.01560453 0.0065625
v -0.042367275 0.015712605 0.0065625
v -0.042284895 0.015499485 0.0065625
v -0.034032285 0.01517268 0.0065625
v -0.04219089 0.015289005 0.0065625
v -0.04208607 0.01508274 0.0065625
v -0.034462665 0.014737155 0.0065625
v -0.041971275 0.01488234 0.0065625
v -0.041847375 0.01468941 0.0065625
v -0.034892535 0.01429794 0.0065625
v -0.04171518 0.01450557 0.0065625
v -0.041574345 0.014330895 0.0065625
v -0.041422155 0.01416177 0.0065625
v -0.035321925 0.013855035 0.0065625
v -0.04125966 0.01399902 0.0065625
v -0.04108827 0.013843815 0.0065625
v -0.035750805 0.013408455 0.0065625
v -0.040909335 0.01369737 0.0065625
v -0.04072425 0.013560855 0.0065625
v -0.04053441 0.01343547 0.0065625
v -0.04034097 0.01332222 0.0065625
v -0.03617919 0.012958185 0.0065625
v -0.040142385 0.01321977 0.0065625
v -0.03993795 0.013127505 0.0065625
v -0.03972768 0.013045455 0.0065625
v -0.03951156 0.01297359 0.0065625
v -0.036217275 0.01291296 0.0065625
v -0.039289605 0.01291194 0.0065625
v -0.03625671 0.012869595 0.0065625
v -0.0390618 0.012860475 0.0065625
v -0.03629751 0.012828105 0.0065625
v -0.038828145 0.012819225 0.0065625
v -0.036339645 0.012788475 0.0065625
v -0.03871341 0.012801945 0.0065625
v -0.038600085 0.012782895 0.0065625
v -0.036383145 0.012750705 0.0065625
v -0.03837777 0.012739485 0.0065625
v -0.036427995 0.01271481 0.0065625
v -0.0381612 0.012688965 0.0065625
v -0.036474195 0.01268076 0.0065625
v -0.03652182 0.012648465 0.0065625
v -0.037950375 0.012631365 0.0065625
v -0.036571215 0.012617295 0.0065625
v -0.036622215 0.01258755 0.0065625
v -0.03774528 0.01256667 0.0065625
v -0.03667455 0.012559665 0.0065625
v -0.037690755 0.012543765 0.0065625
v -0.03672801 0.01253409 0.0065625
v -0.037635885 0.012523275 0.0065625
v -0.03678231 0.01251126 0.0065625
v -0.037580685 0.01250517 0.0065625
v -0.036837225 0.01249161 0.0065625
v -0.037525155 0.01248948 0.0065625
v -0.036892485 0.01247559 0.0065625
v -0.03746928 0.012476205 0.0065625
v -0.03741309 0.012465315 0.0065625
v -0.03694866 0.012463245 0.0065625
v -0.03735657 0.01245684 0.0065625
v -0.037006215 0.012454215 0.0065625
v -0.0372996 0.012450705 0.0065625
v -0.0370647 0.01244826 0.0065625
v -0.03724158 0.012446595 0.0065625
v -0.03712371 0.012445155 0.0065625
v -0.03718281 0.012444675 0.0065625
v -0.03814113 0.01671381 0.0065625
v -0.038103585 0.016721175 0.0065625
v -0.038068245 0.01673151 0.0065625
v -0.03803352 0.016745445 0.0065625
v -0.037998945 0.016762905 0.0065625
v -0.03796512 0.01678347 0.0065625
v -0.037932675 0.01680669 0.0065625
v -0.037902195 0.016832115 0.0065625
v -0.03787431 0.016859295 0.0065625
v -0.03784962 0.01688781 0.0065625
v -0.03782844 0.016917405 0.0065625
v -0.037809885 0.01694874 0.0065625
v -0.03779385 0.01698189 0.0065625
v -0.037780305 0.01701687 0.0065625
v -0.03776928 0.017053665 0.0065625
v -0.031003905 0.018119445 0.0065625
v -0.042498645 0.01818474 0.0065625
v -0.042439335 0.018408225 0.0065625
v -0.03057072 0.0185247 0.0065625
v -0.042368955 0.01862847 0.0065625
v -0.03600924 0.018735855 0.0065625
v -0.042288 0.018843735 0.0065625
v -0.03596943 0.018737325 0.0065625
v -0.035930385 0.01874175 0.0065625
v -0.035892825 0.018749115 0.0065625
v -0.035857485 0.018759465 0.0065625
v -0.035822775 0.018773385 0.0065625
v -0.0357882 0.01879086 0.0065625
v -0.035754375 0.018811425 0.0065625
v -0.035721915 0.01883463 0.0065625
v -0.035691435 0.018860055 0.0065625
v -0.03566355 0.01888725 0.0065625
v -0.03563886 0.01891575 0.0065625
v -0.030138045 0.018925545 0.0065625
v -0.03561768 0.018945345 0.0065625
v -0.03559914 0.01897668 0.0065625
v -0.03558309 0.019009845 0.0065625
v -0.03556956 0.01904481 0.0065625
v -0.035558535 0.01908162 0.0065625
v -0.035550015 0.01912023 0.0065625
v -0.035544 0.019160685 0.0065625
v -0.03554049 0.01920294 0.0065625
v -0.035544 0.01924521 0.0065625
v -0.035550015 0.01928565 0.0065625
v -0.02970555 0.01932225 0.0065625
v -0.035558535 0.019324275 0.0065625
v -0.03556956 0.019361085 0.0065625
v -0.03558309 0.01939605 0.0065625
v -0.03559914 0.019429215 0.0065625
v -0.03561768 0.01946055 0.0065625
v -0.03563886 0.019490145 0.0065625
v -0.03566355 0.019518645 0.0065625
v -0.035691435 0.01954584 0.0065625
v -0.035721915 0.01957125 0.0065625
v -0.035754375 0.01959447 0.0065625
v -0.0357882 0.019615035 0.0065625
v -0.035822775 0.01963251 0.0065625
v -0.035857485 0.01964643 0.0065625
v -0.035892825 0.01965678 0.0065625
v -0.035930385 0.019664145 0.0065625
v -0.03596943 0.01966857 0.0065625
v -0.029273175 0.01971483 0.0065625
v -0.03600924 0.01967004 0.0065625
v -0.041732535 0.019818555 0.0065625
v -0.04159035 0.01999647 0.0065625
v -0.03604905 0.01966857 0.0065625
v -0.03608811 0.019664145 0.0065625
v -0.036125655 0.01965678 0.0065625
v -0.03616101 0.01964643 0.0065625
v -0.041864265 0.019635255 0.0065625
v -0.03619572 0.01963251 0.0065625
v -0.036230295 0.019615035 0.0065625
v -0.03626412 0.01959447 0.0065625
v -0.03629658 0.01957125 0.0065625
v -0.03632706 0.01954584 0.0065625
v -0.036354945 0.019518645 0.0065625
v -0.036379635 0.019490145 0.0065625
v -0.0364008 0.01946055 0.0065625
v -0.04198554 0.019446585 0.0065625
v -0.036419355 0.019429215 0.0065625
v -0.036435405 0.01939605 0.0065625
v -0.036448935 0.019361085 0.0065625
v -0.03645996 0.019324275 0.0065625
v -0.03646848 0.01928565 0.0065625
v -0.042096375 0.019252545 0.0065625
v -0.036474495 0.01924521 0.0065625
v -0.03647799 0.01920294 0.0065625
v -0.036474495 0.019160685 0.0065625
v -0.03646848 0.01912023 0.0065625
v -0.03645996 0.01908162 0.0065625
v -0.042196995 0.019052265 0.0065625
v -0.036448935 0.01904481 0.0065625
v -0.036435405 0.019009845 0.0065625
v -0.036419355 0.01897668 0.0065625
v -0.0364008 0.018945345 0.0065625
v -0.036379635 0.01891575 0.0065625
v -0.036354945 0.01888725 0.0065625
v -0.03632706 0.018860055 0.0065625
v -0.03629658 0.01883463 0.0065625
v -0.03626412 0.018811425 0.0065625
v -0.036230295 0.01879086 0.0065625
v -0.03619572 0.018773385 0.0065625
v -0.03616101 0.018759465 0.0065625
v -0.036125655 0.018749115 0.0065625
v -0.03608811 0.01874175 0.0065625
v -0.03604905 0.018737325 0.0065625
v -0.02884095 0.0201033 0.0065625
v -0.04143771 0.020169 0.0065625
v -0.04127463 0.02033616 0.0065625
v -0.02840886 0.02048763 0.0065625
v -0.04110108 0.02049795 0.0065625
v -0.02797692 0.02086785 0.0065625
v -0.04064154 0.020894235 0.0065625
v -0.0275451 0.021243945 0.0065625
v -0.04018206 0.021287025 0.0065625
v -0.027451305 0.021316875 0.0065625
v -0.039722625 0.021676335 0.0065625
v -0.027364935 0.021396285 0.0065625
v -0.027324555 0.021438435 0.0065625
v -0.02728602 0.021482205 0.0065625
v -0.027249345 0.021527595 0.0065625
v -0.02721453 0.021574605 0.0065625
v -0.02718144 0.021623385 0.0065625
v -0.027149355 0.02167458 0.0065625
v -0.027118545 0.021727935 0.0065625
v -0.039263235 0.02206218 0.0065625
v -0.02708946 0.021783045 0.0065625
v -0.02706252 0.02183952 0.0065625
v -0.02703816 0.021896925 0.0065625
v -0.027016815 0.021954885 0.0065625
v -0.031875 0.022032915 0.0065625
v -0.03191481 0.022034385 0.0065625
v -0.02699892 0.022012965 0.0065625
v -0.03183519 0.022034385 0.0065625
v -0.03179613 0.02203881 0.0065625
v -0.031758585 0.022046175 0.0065625
v -0.031723245 0.02205651 0.0065625
v -0.03168852 0.022070445 0.0065625
v -0.026984925 0.02207076 0.0065625
v -0.031653945 0.022087905 0.0065625
v -0.03162012 0.02210847 0.0065625
v -0.02697474 0.022128795 0.0065625
v -0.031587675 0.02213169 0.0065625
v -0.031557195 0.022157115 0.0065625
v -0.03152931 0.022184295 0.0065625
v -0.02696793 0.0221877 0.0065625
v -0.03150462 0.02221281 0.0065625
v -0.03148344 0.022242405 0.0065625
v -0.026964345 0.022247265 0.0065625
v -0.031464885 0.02227374 0.0065625
v -0.03144885 0.02230689 0.0065625
v -0.026963805 0.02230725 0.0065625
v -0.031435305 0.02234187 0.0065625
v -0.02696619 0.02236746 0.0065625
v -0.03142428 0.022378665 0.0065625
v -0.03141576 0.02241729 0.0065625
v -0.02697135 0.022427655 0.0065625
v -0.03140976 0.02245773 0.0065625
v -0.026979105 0.02248761 0.0065625
v -0.03140625 0.0225 0.0065625
v -0.03140976 0.02254227 0.0065625
v -0.026989335 0.02254713 0.0065625
v -0.03141576 0.02258271 0.0065625
v -0.027001935 0.02260605 0.0065625
v -0.03142428 0.022621335 0.0065625
v -0.031435305 0.02265813 0.0065625
v -0.027017145 0.022664745 0.0065625
v -0.03144885 0.02269311 0.0065625
v -0.02703501 0.022723275 0.0065625
v -0.031464885 0.02272626 0.0065625
v -0.03148344 0.022757595 0.0065625
v -0.02705556 0.022781655 0.0065625
v -0.03150462 0.02278719 0.0065625
v -0.03152931 0.022815705 0.0065625
v -0.02707875 0.022839885 0.0065625
v -0.031557195 0.022842885 0.0065625
v -0.031587675 0.02286831 0.0065625
v -0.03162012 0.02289153 0.0065625
v -0.027104625 0.02289795 0.0065625
v -0.031653945 0.022912095 0.0065625
v -0.03168852 0.022929555 0.0065625
v -0.031723245 0.02294349 0.0065625
v -0.031758585 0.022953825 0.0065625
v -0.027133155 0.022955865 0.0065625
v -0.03179613 0.02296119 0.0065625
v -0.03183519 0.022965615 0.0065625
v -0.031875 0.022967085 0.0065625
v -0.027164355 0.023013615 0.0065625
v -0.037885335 0.02319879 0.0065625
v -0.02719821 0.023071215 0.0065625
v -0.03191481 0.022965615 0.0065625
v -0.03195387 0.02296119 0.0065625
v -0.031991415 0.022953825 0.0065625
v -0.032026755 0.02294349 0.0065625
v -0.03206148 0.022929555 0.0065625
v -0.032096055 0.022912095 0.0065625
v -0.03212988 0.02289153 0.0065625
v -0.032162325 0.02286831 0.0065625
v -0.032192805 0.022842885 0.0065625
v -0.03834459 0.0228234 0.0065625
v -0.03222069 0.022815705 0.0065625
v -0.03224538 0.02278719 0.0065625
v -0.03226656 0.022757595 0.0065625
v -0.032285115 0.02272626 0.0065625
v -0.03230115 0.02269311 0.0065625
v -0.032314695 0.02265813 0.0065625
v -0.03232572 0.022621335 0.0065625
v -0.03233424 0.02258271 0.0065625
v -0.03234024 0.02254227 0.0065625
v -0.03234375 0.0225 0.0065625
v -0.03234024 0.02245773 0.0065625
v -0.03880389 0.02244453 0.0065625
v -0.03233424 0.02241729 0.0065625
v -0.03232572 0.022378665 0.0065625
v -0.032314695 0.02234187 0.0065625
v -0.03230115 0.02230689 0.0065625
v -0.032285115 0.02227374 0.0065625
v -0.03226656 0.022242405 0.0065625
v -0.03224538 0.02221281 0.0065625
v -0.03222069 0.022184295 0.0065625
v -0.032192805 0.022157115 0.0065625
v -0.032162325 0.02213169 0.0065625
v -0.03212988 0.02210847 0.0065625
v -0.032096055 0.022087905 0.0065625
v -0.03206148 0.022070445 0.0065625
v -0.032026755 0.02205651 0.0065625
v -0.031991415 0.022046175 0.0065625
v -0.03195387 0.02203881 0.0065625
v -0.027325755 0.02331789 0.0065625
v -0.03742599 0.023570775 0.0065625
v -0.027451455 0.023566425 0.0065625
v -0.027575325 0.02381682 0.0065625
v -0.03696624 0.02393952 0.0065625
v -0.027697365 0.024069075 0.0065625
v -0.036506325 0.024304875 0.0065625
v -0.02781756 0.02432319 0.0065625
v -0.036046515 0.024666735 0.0065625
v -0.02793594 0.02457918 0.0065625
v -0.028052505 0.024837 0.0065625
v -0.035587095 0.025024935 0.0065625
v -0.028167285 0.025096695 0.0065625
v -0.035128335 0.02537934 0.0065625
v -0.028280235 0.025358235 0.0065625
v -0.02839131 0.02562165 0.0065625
v -0.03467052 0.0257298 0.0065625
v -0.028500465 0.025886955 0.0065625
v -0.03421389 0.02607618 0.0065625
v -0.028607655 0.02615415 0.0065625
v -0.0337581 0.026418675 0.0065625
v -0.02871291 0.026423235 0.0065625
v -0.033303045 0.026757345 0.0065625
v -0.02881623 0.026694195 0.0065625
v -0.028917645 0.02696706 0.0065625
v -0.03284871 0.027092175 0.0065625
v -0.02901714 0.027241785 0.0065625
v -0.03239511 0.027423165 0.0065625
v -0.029114715 0.027518415 0.0065625
v -0.03194223 0.02775033 0.0065625
v -0.029210385 0.027796905 0.0065625
v -0.03149007 0.02807367 0.0065625
v -0.029229045 0.02786151 0.0065625
v -0.02924937 0.027923895 0.0065625
v -0.029271375 0.027984105 0.0065625
v -0.029295045 0.028042125 0.0065625
v -0.029320395 0.02809794 0.0065625
v -0.03103863 0.028393185 0.0065625
v -0.02934741 0.028151565 0.0065625
v -0.02937609 0.028203 0.0065625
v -0.029406465 0.028252245 0.0065625
v -0.02943861 0.02829939 0.0065625
v -0.02947296 0.02834472 0.0065625
v -0.029509275 0.028388085 0.0065625
v -0.02954733 0.02842929 0.0065625
v -0.03098538 0.028433955 0.0065625
v -0.029586855 0.028468155 0.0065625
v -0.03093207 0.028471995 0.0065625
v -0.029627565 0.028504485 0.0065625
v -0.03087873 0.028507335 0.0065625
v -0.029669205 0.02853807 0.0065625
v -0.030825345 0.02853996 0.0065625
v -0.029711535 0.02856873 0.0065625
v -0.030771915 0.02856987 0.0065625
v -0.02975427 0.028596285 0.0065625
v -0.030718455 0.02859705 0.0065625
v -0.0297978 0.028620945 0.0065625
v -0.030664935 0.02862153 0.0065625
v -0.030611385 0.028643295 0.0065625
v -0.0298878 0.028662045 0.0065625
v -0.03055764 0.028662345 0.0065625
v -0.03050325 0.028678695 0.0065625
v -0.029981475 0.02869221 0.0065625
v -0.030448425 0.02869233 0.0065625
v -0.03039351 0.028703265 0.0065625
v -0.030078555 0.028711425 0.0065625
v -0.03033879 0.02871147 0.0065625
v -0.03012828 0.02871693 0.0065625
v -0.03028461 0.028716945 0.0065625
v -0.030231255 0.02871969 0.0065625
v -0.03017904 0.02871969 0.0065625
v -0.03775125 0.017175 0.0103125
v -0.03775125 0.017175 0.0065625
v -0.03775476 0.01713273 0.0065625
v -0.03775476 0.01721727 0.0103125
v -0.03775476 0.01713273 0.0103125
v -0.03776076 0.01709229 0.0065625
v -0.03776076 0.01709229 0.0103125
v -0.03776928 0.017053665 0.0065625
v -0.03776928 0.017053665 0.0103125
v -0.037780305 0.01701687 0.0065625
v -0.037780305 0.01701687 0.0103125
v -0.03779385 0.01698189 0.0065625
v -0.03779385 0.01698189 0.0103125
v -0.037809885 0.01694874 0.0065625
v -0.037809885 0.01694874 0.0103125
v -0.03782844 0.016917405 0.0065625
v -0.03782844 0.016917405 0.0103125
v -0.03784962 0.01688781 0.0065625
v -0.03784962 0.01688781 0.0103125
v -0.03787431 0.016859295 0.0065625
v -0.03787431 0.016859295 0.0103125
v -0.037902195 0.016832115 0.0065625
v -0.037902195 0.016832115 0.0103125
v -0.037932675 0.01680669 0.0065625
v -0.037932675 0.01680669 0.0103125
v -0.03796512 0.01678347 0.0065625
v -0.03796512 0.01678347 0.0103125
v -0.037998945 0.016762905 0.0065625
v -0.037998945 0.016762905 0.0103125
v -0.03803352 0.016745445 0.0065625
v -0.03803352 0.016745445 0.0103125
v -0.038068245 0.01673151 0.0065625
v -0.038068245 0.01673151 0.0103125
v -0.038103585 0.016721175 0.0065625
v -0.038103585 0.016721175 0.0103125
v -0.03814113 0.01671381 0.0065625
v -0.03814113 0.01671381 0.0103125
v -0.03818019 0.016709385 0.0065625
v -0.03818019 0.016709385 0.0103125
v -0.03822 0.0167079 0.0065625
v -0.03822 0.0167079 0.0103125
v -0.03825981 0.016709385 0.0065625
v -0.03825981 0.016709385 0.0103125
v -0.03829887 0.01671381 0.0065625
v -0.03829887 0.01671381 0.0103125
v -0.038336415 0.016721175 0.0065625
v -0.038336415 0.016721175 0.0103125
v -0.038371755 0.01673151 0.0065625
v -0.038371755 0.01673151 0.0103125
v -0.03840648 0.016745445 0.0065625
v -0.03840648 0.016745445 0.0103125
v -0.038441055 0.016762905 0.0065625
v -0.038441055 0.016762905 0.0103125
v -0.038474865 0.01678347 0.0065625
v -0.038474865 0.01678347 0.0103125
v -0.038507325 0.01680669 0.0065625
v -0.038507325 0.01680669 0.0103125
v -0.038537805 0.016832115 0.0065625
v -0.038537805 0.016832115 0.0103125
v -0.038565705 0.016859295 0.0065625
v -0.038565705 0.016859295 0.0103125
v -0.03859038 0.01688781 0.0065625
v -0.03859038 0.01688781 0.0103125
v -0.03861156 0.016917405 0.0065625
v -0.03861156 0.016917405 0.0103125
v -0.038630115 0.01694874 0.0065625
v -0.038630115 0.01694874 0.0103125
v -0.03864615 0.01698189 0.0065625
v -0.03864615 0.01698189 0.0103125
v -0.03865968 0.01701687 0.0065625
v -0.03865968 0.01701687 0.0103125
v -0.03867072 0.017053665 0.0065625
v -0.03867072 0.017053665 0.0103125
v -0.03867924 0.01709229 0.0065625
v -0.03867924 0.01709229 0.0103125
v -0.03868524 0.01713273 0.0065625
v -0.03868524 0.01713273 0.0103125
v -0.03868875 0.017175 0.0065625
v -0.03868875 0.017175 0.0103125
v -0.03868524 0.01721727 0.0065625
v -0.03868524 0.01721727 0.0103125
v -0.03867924 0.01725771 0.0065625
v -0.03867924 0.01725771 0.0103125
v -0.03867072 0.017296335 0.0065625
v -0.03867072 0.017296335 0.0103125
v -0.03865968 0.01733313 0.0065625
v -0.03865968 0.01733313 0.0103125
v -0.03864615 0.01736811 0.0065625
v -0.03864615 0.01736811 0.0103125
v -0.038630115 0.01740126 0.0065625
v -0.038630115 0.01740126 0.0103125
v -0.03861156 0.017432595 0.0065625
v -0.03861156 0.017432595 0.0103125
v -0.03859038 0.01746219 0.0065625
v -0.03859038 0.01746219 0.0103125
v -0.038565705 0.017490705 0.0065625
v -0.038565705 0.017490705 0.0103125
v -0.038537805 0.017517885 0.0065625
v -0.038537805 0.017517885 0.0103125
v -0.038507325 0.01754331 0.0065625
v -0.038507325 0.01754331 0.0103125
v -0.038474865 0.01756653 0.0065625
v -0.038474865 0.01756653 0.0103125
v -0.038441055 0.017587095 0.0065625
v -0.038441055 0.017587095 0.0103125
v -0.03840648 0.017604555 0.0065625
v -0.03840648 0.017604555 0.0103125
v -0.038371755 0.01761849 0.0065625
v -0.038371755 0.01761849 0.0103125
v -0.038336415 0.017628825 0.0065625
v -0.038336415 0.017628825 0.0103125
v -0.03829887 0.01763619 0.0065625
v -0.03829887 0.01763619 0.0103125
v -0.03825981 0.017640615 0.0065625
v -0.03825981 0.017640615 0.0103125
v -0.03822 0.0176421 0.0065625
v -0.03822 0.0176421 0.0103125
v -0.03818019 0.017640615 0.0065625
v -0.03818019 0.017640615 0.0103125
v -0.03814113 0.01763619 0.0065625
v -0.03814113 0.01763619 0.0103125
v -0.038103585 0.017628825 0.0065625
v -0.038103585 0.017628825 0.0103125
v -0.038068245 0.01761849 0.0065625
v -0.038068245 0.01761849 0.0103125
v -0.03803352 0.017604555 0.0065625
v -0.03803352 0.017604555 0.0103125
v -0.037998945 0.017587095 0.0065625
v -0.037998945 0.017587095 0.0103125
v -0.03796512 0.01756653 0.0065625
v -0.03796512 0.01756653 0.0103125
v -0.037932675 0.01754331 0.0065625
v -0.037932675 0.01754331 0.0103125
v -0.037902195 0.017517885 0.0065625
v -0.037902195 0.017517885 0.0103125
v -0.03787431 0.017490705 0.0065625
v -0.03787431 0.017490705 0.0103125
v -0.03784962 0.01746219 0.0065625
v -0.03784962 0.01746219 0.0103125
v -0.03782844 0.017432595 0.0065625
v -0.03782844 0.017432595 0.0103125
v -0.037809885 0.01740126 0.0065625
v -0.037809885 0.01740126 0.0103125
v -0.03779385 0.01736811 0.0065625
v -0.03779385 0.01736811 0.0103125
v -0.037780305 0.01733313 0.0065625
v -0.037780305 0.01733313 0.0103125
v -0.03776928 0.017296335 0.0065625
v -0.03776928 0.017296335 0.0103125
v -0.03776076 0.01725771 0.0065625
v -0.03776076 0.01725771 0.0103125
v -0.03775476 0.01721727 0.0065625
v -0.03140625 0.0225 0.0103125
v -0.03140625 0.0225 0.0065625
v -0.03140976 0.02245773 0.0065625
v -0.03140976 0.02254227 0.0103125
v -0.03140976 0.02245773 0.0103125
v -0.03141576 0.02241729 0.0065625
v -0.03141576 0.02241729 0.0103125
v -0.03142428 0.022378665 0.0065625
v -0.03142428 0.022378665 0.0103125
v -0.031435305 0.02234187 0.0065625
v -0.031435305 0.02234187 0.0103125
v -0.03144885 0.02230689 0.0065625
v -0.03144885 0.02230689 0.0103125
v -0.031464885 0.02227374 0.0065625
v -0.031464885 0.02227374 0.0103125
v -0.03148344 0.022242405 0.0065625
v -0.03148344 0.022242405 0.0103125
v -0.03150462 0.02221281 0.0065625
v -0.03150462 0.02221281 0.0103125
v -0.03152931 0.022184295 0.0065625
v -0.03152931 0.022184295 0.0103125
v -0.031557195 0.022157115 0.0065625
v -0.031557195 0.022157115 0.0103125
v -0.031587675 0.02213169 0.0065625
v -0.031587675 0.02213169 0.0103125
v -0.03162012 0.02210847 0.0065625
v -0.03162012 0.02210847 0.0103125
v -0.031653945 0.022087905 0.0065625
v -0.031653945 0.022087905 0.0103125
v -0.03168852 0.022070445 0.0065625
v -0.03168852 0.022070445 0.0103125
v -0.031723245 0.02205651 0.0065625
v -0.031723245 0.02205651 0.0103125
v -0.031758585 0.022046175 0.0065625
v -0.031758585 0.022046175 0.0103125
v -0.03179613 0.02203881 0.0065625
v -0.03179613 0.02203881 0.0103125
v -0.03183519 0.022034385 0.0065625
v -0.03183519 0.022034385 0.0103125
v -0.031875 0.022032915 0.0065625
v -0.031875 0.022032915 0.0103125
v -0.03191481 0.022034385 0.0065625
v -0.03191481 0.022034385 0.0103125
v -0.03195387 0.02203881 0.0065625
v -0.03195387 0.02203881 0.0103125
v -0.031991415 0.022046175 0.0065625
v -0.031991415 0.022046175 0.0103125
v -0.032026755 0.02205651 0.0065625
v -0.032026755 0.02205651 0.0103125
v -0.03206148 0.022070445 0.0065625
v -0.03206148 0.022070445 0.0103125
v -0.032096055 0.022087905 0.0065625
v -0.032096055 0.022087905 0.0103125
v -0.03212988 0.02210847 0.0065625
v -0.03212988 0.02210847 0.0103125
v -0.032162325 0.02213169 0.0065625
v -0.032162325 0.02213169 0.0103125
v -0.032192805 0.022157115 0.0065625
v -0.032192805 0.022157115 0.0103125
v -0.03222069 0.022184295 0.0065625
v -0.03222069 0.022184295 0.0103125
v -0.03224538 0.02221281 0.0065625
v -0.03224538 0.02221281 0.0103125
v -0.03226656 0.022242405 0.0065625
v -0.03226656 0.022242405 0.0103125
v -0.032285115 0.02227374 0.0065625
v -0.032285115 0.02227374 0.0103125
v -0.03230115 0.02230689 0.0065625
v -0.03230115 0.02230689 0.0103125
v -0.032314695 0.02234187 0.0065625
v -0.032314695 0.02234187 0.0103125
v -0.03232572 0.022378665 0.0065625
v -0.03232572 0.022378665 0.0103125
v -0.03233424 0.02241729 0.0065625
v -0.03233424 0.02241729 0.0103125
v -0.03234024 0.02245773 0.0065625
v -0.03234024 0.02245773 0.0103125
v -0.03234375 0.0225 0.0065625
v -0.03234375 0.0225 0.0103125
v -0.03234024 0.02254227 0.0065625
v -0.03234024 0.02254227 0.0103125
v -0.03233424 0.02258271 0.0065625
v -0.03233424 0.02258271 0.0103125
v -0.03232572 0.022621335 0.0065625
v -0.03232572 0.022621335 0.0103125
v -0.032314695 0.02265813 0.0065625
v -0.032314695 0.02265813 0.0103125
v -0.03230115 0.02269311 0.0065625
v -0.03230115 0.02269311 0.0103125
v -0.032285115 0.02272626 0.0065625
v -0.032285115 0.02272626 0.0103125
v -0.03226656 0.022757595 0.0065625
v -0.03226656 0.022757595 0.0103125
v -0.03224538 0.02278719 0.0065625
v -0.03224538 0.02278719 0.0103125
v -0.03222069 0.022815705 0.0065625
v -0.03222069 0.022815705 0.0103125
v -0.032192805 0.022842885 0.0065625
v -0.032192805 0.022842885 0.0103125
v -0.032162325 0.02286831 0.0065625
v -0.032162325 0.02286831 0.0103125
v -0.03212988 0.02289153 0.0065625
v -0.03212988 0.02289153 0.0103125
v -0.032096055 0.022912095 0.0065625
v -0.032096055 0.022912095 0.0103125
v -0.03206148 0.022929555 0.0065625
v -0.03206148 0.022929555 0.0103125
v -0.032026755 0.02294349 0.0065625
v -0.032026755 0.02294349 0.0103125
v -0.031991415 0.022953825 0.0065625
v -0.031991415 0.022953825 0.0103125
v -0.03195387 0.02296119 0.0065625
v -0.03195387 0.02296119 0.0103125
v -0.03191481 0.022965615 0.0065625
v -0.03191481 0.022965615 0.0103125
v -0.031875 0.022967085 0.0065625
v -0.031875 0.022967085 0.0103125
v -0.03183519 0.022965615 0.0065625
v -0.03183519 0.022965615 0.0103125
v -0.03179613 0.02296119 0.0065625
v -0.03179613 0.02296119 0.0103125
v -0.031758585 0.022953825 0.0065625
v -0.031758585 0.022953825 0.0103125
v -0.031723245 0.02294349 0.0065625
v -0.031723245 0.02294349 0.0103125
v -0.03168852 0.022929555 0.0065625
v -0.03168852 0.022929555 0.0103125
v -0.031653945 0.022912095 0.0065625
v -0.031653945 0.022912095 0.0103125
v -0.03162012 0.02289153 0.0065625
v -0.03162012 0.02289153 0.0103125
v -0.031587675 0.02286831 0.0065625
v -0.031587675 0.02286831 0.0103125
v -0.031557195 0.022842885 0.0065625
v -0.031557195 0.022842885 0.0103125
v -0.03152931 0.022815705 0.0065625
v -0.03152931 0.022815705 0.0103125
v -0.03150462 0.02278719 0.0065625
v -0.03150462 0.02278719 0.0103125
v -0.03148344 0.022757595 0.0065625
v -0.03148344 0.022757595 0.0103125
v -0.031464885 0.02272626 0.0065625
v -0.031464885 0.02272626 0.0103125
v -0.03144885 0.02269311 0.0065625
v -0.03144885 0.02269311 0.0103125
v -0.031435305 0.02265813 0.0065625
v -0.031435305 0.02265813 0.0103125
v -0.03142428 0.022621335 0.0065625
v -0.03142428 0.022621335 0.0103125
v -0.03141576 0.02258271 0.0065625
v -0.03141576 0.02258271 0.0103125
v -0.03140976 0.02254227 0.0065625
v -0.03554049 0.01920294 0.0103125
v -0.03554049 0.01920294 0.0065625
v -0.035544 0.019160685 0.0065625
v -0.035544 0.01924521 0.0103125
v -0.035544 0.019160685 0.0103125
v -0.035550015 0.01912023 0.0065625
v -0.035550015 0.01912023 0.0103125
v -0.035558535 0.01908162 0.0065625
v -0.035558535 0.01908162 0.0103125
v -0.03556956 0.01904481 0.0065625
v -0.03556956 0.01904481 0.0103125
v -0.03558309 0.019009845 0.0065625
v -0.03558309 0.019009845 0.0103125
v -0.03559914 0.01897668 0.0065625
v -0.03559914 0.01897668 0.0103125
v -0.03561768 0.018945345 0.0065625
v -0.03561768 0.018945345 0.0103125
v -0.03563886 0.01891575 0.0065625
v -0.03563886 0.01891575 0.0103125
v -0.03566355 0.01888725 0.0065625
v -0.03566355 0.01888725 0.0103125
v -0.035691435 0.018860055 0.0065625
v -0.035691435 0.018860055 0.0103125
v -0.035721915 0.01883463 0.0065625
v -0.035721915 0.01883463 0.0103125
v -0.035754375 0.018811425 0.0065625
v -0.035754375 0.018811425 0.0103125
v -0.0357882 0.01879086 0.0065625
v -0.0357882 0.01879086 0.0103125
v -0.035822775 0.018773385 0.0065625
v -0.035822775 0.018773385 0.0103125
v -0.035857485 0.018759465 0.0065625
v -0.035857485 0.018759465 0.0103125
v -0.035892825 0.018749115 0.0065625
v -0.035892825 0.018749115 0.0103125
v -0.035930385 0.01874175 0.0065625
v -0.035930385 0.01874175 0.0103125
v -0.03596943 0.018737325 0.0065625
v -0.03596943 0.018737325 0.0103125
v -0.03600924 0.018735855 0.0065625
v -0.03600924 0.018735855 0.0103125
v -0.03604905 0.018737325 0.0065625
v -0.03604905 0.018737325 0.0103125
v -0.03608811 0.01874175 0.0065625
v -0.03608811 0.01874175 0.0103125
v -0.036125655 0.018749115 0.0065625
v -0.036125655 0.018749115 0.0103125
v -0.03616101 0.018759465 0.0065625
v -0.03616101 0.018759465 0.0103125
v -0.03619572 0.018773385 0.0065625
v -0.03619572 0.018773385 0.0103125
v -0.036230295 0.01879086 0.0065625
v -0.036230295 0.01879086 0.0103125
v -0.03626412 0.018811425 0.0065625
v -0.03626412 0.018811425 0.0103125
v -0.03629658 0.01883463 0.0065625
v -0.03629658 0.01883463 0.0103125
v -0.03632706 0.018860055 0.0065625
v -0.03632706 0.018860055 0.0103125
v -0.036354945 0.01888725 0.0065625
v -0.036354945 0.01888725 0.0103125
v -0.036379635 0.01891575 0.0065625
v -0.036379635 0.01891575 0.0103125
v -0.0364008 0.018945345 0.0065625
v -0.0364008 0.018945345 0.0103125
v -0.036419355 0.01897668 0.0065625
v -0.036419355 0.01897668 0.0103125
v -0.036435405 0.019009845 0.0065625
v -0.036435405 0.019009845 0.0103125
v -0.036448935 0.01904481 0.0065625
v -0.036448935 0.01904481 0.0103125
v -0.03645996 0.01908162 0.0065625
v -0.03645996 0.01908162 0.0103125
v -0.03646848 0.01912023 0.0065625
v -0.03646848 0.01912023 0.0103125
v -0.036474495 0.019160685 0.0065625
v -0.036474495 0.019160685 0.0103125
v -0.03647799 0.01920294 0.0065625
v -0.03647799 0.01920294 0.0103125
v -0.036474495 0.01924521 0.0065625
v -0.036474495 0.01924521 0.0103125
v -0.03646848 0.01928565 0.0065625
v -0.03646848 0.01928565 0.0103125
v -0.03645996 0.019324275 0.0065625
v -0.03645996 0.019324275 0.0103125
v -0.036448935 0.019361085 0.0065625
v -0.036448935 0.019361085 0.0103125
v -0.036435405 0.01939605 0.0065625
v -0.036435405 0.01939605 0.0103125
v -0.036419355 0.019429215 0.0065625
v -0.036419355 0.019429215 0.0103125
v -0.0364008 0.01946055 0.0065625
v -0.0364008 0.01946055 0.0103125
v -0.036379635 0.019490145 0.0065625
v -0.036379635 0.019490145 0.0103125
v -0.036354945 0.019518645 0.0065625
v -0.036354945 0.019518645 0.0103125
v -0.03632706 0.01954584 0.0065625
v -0.03632706 0.01954584 0.0103125
v -0.03629658 0.01957125 0.0065625
v -0.03629658 0.01957125 0.0103125
v -0.03626412 0.01959447 0.0065625
v -0.03626412 0.01959447 0.0103125
v -0.036230295 0.019615035 0.0065625
v -0.036230295 0.019615035 0.0103125
v -0.03619572 0.01963251 0.0065625
v -0.03619572 0.01963251 0.0103125
v -0.03616101 0.01964643 0.0065625
v -0.03616101 0.01964643 0.0103125
v -0.036125655 0.01965678 0.0065625
v -0.036125655 0.01965678 0.0103125
v -0.03608811 0.019664145 0.0065625
v -0.03608811 0.019664145 0.0103125
v -0.03604905 0.01966857 0.0065625
v -0.03604905 0.01966857 0.0103125
v -0.03600924 0.01967004 0.0065625
v -0.03600924 0.01967004 0.0103125
v -0.03596943 0.01966857 0.0065625
v -0.03596943 0.01966857 0.0103125
v -0.035930385 0.019664145 0.0065625
v -0.035930385 0.019664145 0.0103125
v -0.035892825 0.01965678 0.0065625
v -0.035892825 0.01965678 0.0103125
v -0.035857485 0.01964643 0.0065625
v -0.035857485 0.01964643 0.0103125
v -0.035822775 0.01963251 0.0065625
v -0.035822775 0.01963251 0.0103125
v -0.0357882 0.019615035 0.0065625
v -0.0357882 0.019615035 0.0103125
v -0.035754375 0.01959447 0.0065625
v -0.035754375 0.01959447 0.0103125
v -0.035721915 0.01957125 0.0065625
v -0.035721915 0.01957125 0.0103125
v -0.035691435 0.01954584 0.0065625
v -0.035691435 0.01954584 0.0103125
v -0.03566355 0.019518645 0.0065625
v -0.03566355 0.019518645 0.0103125
v -0.03563886 0.019490145 0.0065625
v -0.03563886 0.019490145 0.0103125
v -0.03561768 0.01946055 0.0065625
v -0.03561768 0.01946055 0.0103125
v -0.03559914 0.019429215 0.0065625
v -0.03559914 0.019429215 0.0103125
v -0.03558309 0.01939605 0.0065625
v -0.03558309 0.01939605 0.0103125
v -0.03556956 0.019361085 0.0065625
v -0.03556956 0.019361085 0.0103125
v -0.035558535 0.019324275 0.0065625
v -0.035558535 0.019324275 0.0103125
v -0.035550015 0.01928565 0.0065625
v -0.035550015 0.01928565 0.0103125
v -0.035544 0.01924521 0.0065625
v -0.03617919 0.012958185 0.0103125
v -0.03617919 0.012958185 0.0065625
v -0.035750805 0.013408455 0.0065625
v -0.03624951 0.01287609 0.0103125
v -0.035750805 0.013408455 0.0103125
v -0.035321925 0.013855035 0.0065625
v -0.035321925 0.013855035 0.0103125
v -0.034892535 0.01429794 0.0065625
v -0.034892535 0.01429794 0.0103125
v -0.034462665 0.014737155 0.0065625
v -0.034462665 0.014737155 0.0103125
v -0.034032285 0.01517268 0.0065625
v -0.034032285 0.01517268 0.0103125
v -0.03360141 0.01560453 0.0065625
v -0.03360141 0.01560453 0.0103125
v -0.03317001 0.016032705 0.0065625
v -0.03317001 0.016032705 0.0103125
v -0.032737725 0.016457475 0.0065625
v -0.032737725 0.016457475 0.0103125
v -0.032304675 0.01687872 0.0065625
v -0.032304675 0.01687872 0.0103125
v -0.031871175 0.017296275 0.0065625
v -0.031871175 0.017296275 0.0103125
v -0.03143748 0.017709915 0.0065625
v -0.03143748 0.017709915 0.0103125
v -0.031003905 0.018119445 0.0065625
v -0.031003905 0.018119445 0.0103125
v -0.03057072 0.0185247 0.0065625
v -0.03057072 0.0185247 0.0103125
v -0.030138045 0.018925545 0.0065625
v -0.030138045 0.018925545 0.0103125
v -0.02970555 0.01932225 0.0065625
v -0.02970555 0.01932225 0.0103125
v -0.029273175 0.01971483 0.0065625
v -0.029273175 0.01971483 0.0103125
v -0.02884095 0.0201033 0.0065625
v -0.02884095 0.0201033 0.0103125
v -0.02840886 0.02048763 0.0065625
v -0.02840886 0.02048763 0.0103125
v -0.02797692 0.02086785 0.0065625
v -0.02797692 0.02086785 0.0103125
v -0.0275451 0.021243945 0.0065625
v -0.0275451 0.021243945 0.0103125
v -0.027451305 0.021316875 0.0065625
v -0.027493785 0.02128464 0.0103125
v -0.02744478 0.02132631 0.0103125
v -0.027364935 0.021396285 0.0065625
v -0.02739807 0.02136894 0.0103125
v -0.027353655 0.021412545 0.0103125
v -0.027324555 0.021438435 0.0065625
v -0.02731155 0.021457095 0.0103125
v -0.02728602 0.021482205 0.0065625
v -0.02727174 0.02150262 0.0103125
v -0.027249345 0.021527595 0.0065625
v -0.027234225 0.02154912 0.0103125
v -0.02721453 0.021574605 0.0065625
v -0.02719902 0.021596565 0.0103125
v -0.02718144 0.021623385 0.0065625
v -0.02716605 0.02164503 0.0103125
v -0.027149355 0.02167458 0.0065625
v -0.027135045 0.02169468 0.0103125
v -0.027118545 0.021727935 0.0065625
v -0.02708946 0.021783045 0.0065625
v -0.027079395 0.021797235 0.0103125
v -0.02706252 0.02183952 0.0065625
v -0.02703816 0.021896925 0.0065625
v -0.02703342 0.02190333 0.0103125
v -0.027016815 0.021954885 0.0065625
v -0.02699853 0.02201202 0.0103125
v -0.02699892 0.022012965 0.0065625
v -0.026984925 0.02207076 0.0065625
v -0.02697588 0.022122735 0.0103125
v -0.02697474 0.022128795 0.0065625
v -0.02696793 0.0221877 0.0065625
v -0.026964675 0.022236555 0.0103125
v -0.026964345 0.022247265 0.0065625
v -0.026963805 0.02230725 0.0065625
v -0.026964675 0.02235282 0.0103125
v -0.02696619 0.02236746 0.0065625
v -0.026968875 0.022411545 0.0103125
v -0.02697135 0.022427655 0.0065625
v -0.026975835 0.02247051 0.0103125
v -0.026979105 0.02248761 0.0065625
v -0.02698557 0.022529595 0.0103125
v -0.026989335 0.02254713 0.0065625
v -0.026998065 0.022588695 0.0103125
v -0.027001935 0.02260605 0.0065625
v -0.02701335 0.02264805 0.0103125
v -0.027017145 0.022664745 0.0065625
v -0.02703141 0.022707675 0.0103125
v -0.02703501 0.022723275 0.0065625
v -0.02705226 0.02276757 0.0103125
v -0.02705556 0.022781655 0.0065625
v -0.027075885 0.02282775 0.0103125
v -0.02707875 0.022839885 0.0065625
v -0.0271023 0.0228882 0.0103125
v -0.027104625 0.02289795 0.0065625
v -0.02713149 0.02294892 0.0103125
v -0.027133155 0.022955865 0.0065625
v -0.027163455 0.023009925 0.0103125
v -0.027164355 0.023013615 0.0065625
v -0.02719821 0.023071215 0.0065625
v -0.02719821 0.023071215 0.0103125
v -0.027325755 0.02331789 0.0065625
v -0.027325755 0.02331789 0.0103125
v -0.027451455 0.023566425 0.0065625
v -0.027451455 0.023566425 0.0103125
v -0.027575325 0.02381682 0.0065625
v -0.027575325 0.02381682 0.0103125
v -0.027697365 0.024069075 0.0065625
v -0.027697365 0.024069075 0.0103125
v -0.02781756 0.02432319 0.0065625
v -0.02781756 0.02432319 0.0103125
v -0.02793594 0.02457918 0.0065625
v -0.02793594 0.02457918 0.0103125
v -0.028052505 0.024837 0.0065625
v -0.028052505 0.024837 0.0103125
v -0.028167285 0.025096695 0.0065625
v -0.028167285 0.025096695 0.0103125
v -0.028280235 0.025358235 0.0065625
v -0.028280235 0.025358235 0.0103125
v -0.02839131 0.02562165 0.0065625
v -0.02839131 0.02562165 0.0103125
v -0.028500465 0.025886955 0.0065625
v -0.028500465 0.025886955 0.0103125
v -0.028607655 0.02615415 0.0065625
v -0.028607655 0.02615415 0.0103125
v -0.02871291 0.026423235 0.0065625
v -0.02871291 0.026423235 0.0103125
v -0.02881623 0.026694195 0.0065625
v -0.02881623 0.026694195 0.0103125
v -0.028917645 0.02696706 0.0065625
v -0.028917645 0.02696706 0.0103125
v -0.02901714 0.027241785 0.0065625
v -0.02901714 0.027241785 0.0103125
v -0.029114715 0.027518415 0.0065625
v -0.029114715 0.027518415 0.0103125
v -0.029210385 0.027796905 0.0065625
v -0.029210385 0.027796905 0.0103125
v -0.029229045 0.02786151 0.0065625
v -0.029229045 0.02786151 0.0103125
v -0.02924937 0.027923895 0.0065625
v -0.02924937 0.027923895 0.0103125
v -0.029271375 0.027984105 0.0065625
v -0.029271375 0.027984105 0.0103125
v -0.029295045 0.028042125 0.0065625
v -0.029295045 0.028042125 0.0103125
v -0.029320395 0.02809794 0.0065625
v -0.029320395 0.02809794 0.0103125
v -0.02934741 0.028151565 0.0065625
v -0.02934741 0.028151565 0.0103125
v -0.02937609 0.028203 0.0065625
v -0.02937609 0.028203 0.0103125
v -0.029406465 0.028252245 0.0065625
v -0.029406465 0.028252245 0.0103125
v -0.02943861 0.02829939 0.0065625
v -0.02943861 0.02829939 0.0103125
v -0.02947296 0.02834472 0.0065625
v -0.02947296 0.02834472 0.0103125
v -0.029509275 0.028388085 0.0065625
v -0.029509275 0.028388085 0.0103125
v -0.02954733 0.02842929 0.0065625
v -0.02954733 0.02842929 0.0103125
v -0.029586855 0.028468155 0.0065625
v -0.029586855 0.028468155 0.0103125
v -0.029627565 0.028504485 0.0065625
v -0.029627565 0.028504485 0.0103125
v -0.029669205 0.02853807 0.0065625
v -0.029669205 0.02853807 0.0103125
v -0.029711535 0.02856873 0.0065625
v -0.029711535 0.02856873 0.0103125
v -0.02975427 0.028596285 0.0065625
v -0.02975427 0.028596285 0.0103125
v -0.0297978 0.028620945 0.0065625
v -0.0297978 0.028620945 0.0103125
v -0.0298878 0.028662045 0.0065625
v -0.0298878 0.028662045 0.0103125
v -0.029981475 0.02869221 0.0065625
v -0.029981475 0.02869221 0.0103125
v -0.030078555 0.028711425 0.0065625
v -0.030078555 0.028711425 0.0103125
v -0.03012828 0.02871693 0.0065625
v -0.03012828 0.02871693 0.0103125
v -0.03017904 0.02871969 0.0065625
v -0.03017904 0.02871969 0.0103125
v -0.030231255 0.02871969 0.0065625
v -0.030231255 0.02871969 0.0103125
v -0.03028461 0.028716945 0.0065625
v -0.03028461 0.028716945 0.0103125
v -0.03033879 0.02871147 0.0065625
v -0.03033879 0.02871147 0.0103125
v -0.03039351 0.028703265 0.0065625
v -0.03039351 0.028703265 0.0103125
v -0.030448425 0.02869233 0.0065625
v -0.030448425 0.02869233 0.0103125
v -0.03050325 0.028678695 0.0065625
v -0.03050325 0.028678695 0.0103125
v -0.03055764 0.028662345 0.0065625
v -0.03055764 0.028662345 0.0103125
v -0.030611385 0.028643295 0.0065625
v -0.030611385 0.028643295 0.0103125
v -0.030664935 0.02862153 0.0065625
v -0.030664935 0.02862153 0.0103125
v -0.030718455 0.02859705 0.0065625
v -0.030718455 0.02859705 0.0103125
v -0.030771915 0.02856987 0.0065625
v -0.030771915 0.02856987 0.0103125
v -0.030825345 0.02853996 0.0065625
v -0.030825345 0.02853996 0.0103125
v -0.03087873 0.028507335 0.0065625
v -0.03087873 0.028507335 0.0103125
v -0.03093207 0.028471995 0.0065625
v -0.03093207 0.028471995 0.0103125
v -0.03098538 0.028433955 0.0065625
v -0.03098538 0.028433955 0.0103125
v -0.03103863 0.028393185 0.0065625
v -0.03103863 0.028393185 0.0103125
v -0.03149007 0.02807367 0.0065625
v -0.03149007 0.02807367 0.0103125
v -0.03194223 0.02775033 0.0065625
v -0.03194223 0.02775033 0.0103125
v -0.03239511 0.027423165 0.0065625
v -0.03239511 0.027423165 0.0103125
v -0.03284871 0.027092175 0.0065625
v -0.03284871 0.027092175 0.0103125
v -0.033303045 0.026757345 0.0065625
v -0.033303045 0.026757345 0.0103125
v -0.0337581 0.026418675 0.0065625
v -0.0337581 0.026418675 0.0103125
v -0.03421389 0.02607618 0.0065625
v -0.03421389 0.02607618 0.0103125
v -0.03467052 0.0257298 0.0065625
v -0.03467052 0.0257298 0.0103125
v -0.035128335 0.02537934 0.0065625
v -0.035128335 0.02537934 0.0103125
v -0.035587095 0.025024935 0.0065625
v -0.035587095 0.025024935 0.0103125
v -0.036046515 0.024666735 0.0065625
v -0.036046515 0.024666735 0.0103125
v -0.036506325 0.024304875 0.0065625
v -0.036506325 0.024304875 0.0103125
v -0.03696624 0.02393952 0.0065625
v -0.03696624 0.02393952 0.0103125
v -0.03742599 0.023570775 0.0065625
v -0.03742599 0.023570775 0.0103125
v -0.037885335 0.02319879 0.0065625
v -0.037885335 0.02319879 0.0103125
v -0.03834459 0.0228234 0.0065625
v -0.03834459 0.0228234 0.0103125
v -0.03880389 0.02244453 0.0065625
v -0.03880389 0.02244453 0.0103125
v -0.039263235 0.02206218 0.0065625
v -0.039263235 0.02206218 0.0103125
v -0.039722625 0.021676335 0.0065625
v -0.039722625 0.021676335 0.0103125
v -0.04018206 0.021287025 0.0065625
v -0.04018206 0.021287025 0.0103125
v -0.04064154 0.020894235 0.0065625
v -0.04064154 0.020894235 0.0103125
v -0.04110108 0.02049795 0.0065625
v -0.04110108 0.02049795 0.0103125
v -0.04127463 0.02033616 0.0065625
v -0.04127463 0.02033616 0.0103125
v -0.04143771 0.020169 0.0065625
v -0.04143771 0.020169 0.0103125
v -0.04159035 0.01999647 0.0065625
v -0.04159035 0.01999647 0.0103125
v -0.041732535 0.019818555 0.0065625
v -0.041732535 0.019818555 0.0103125
v -0.041864265 0.019635255 0.0065625
v -0.041864265 0.019635255 0.0103125
v -0.04198554 0.019446585 0.0065625
v -0.04198554 0.019446585 0.0103125
v -0.042096375 0.019252545 0.0065625
v -0.042096375 0.019252545 0.0103125
v -0.042196995 0.019052265 0.0065625
v -0.042196995 0.019052265 0.0103125
v -0.042288 0.018843735 0.0065625
v -0.042288 0.018843735 0.0103125
v -0.042368955 0.01862847 0.0065625
v -0.042368955 0.01862847 0.0103125
v -0.042439335 0.018408225 0.0065625
v -0.042439335 0.018408225 0.0103125
v -0.042498645 0.01818474 0.0065625
v -0.042498645 0.01818474 0.0103125
v -0.042546375 0.017959755 0.0065625
v -0.042546375 0.017959755 0.0103125
v -0.042581985 0.01773504 0.0065625
v -0.042581985 0.01773504 0.0103125
v -0.04260504 0.017511855 0.0065625
v -0.04260504 0.017511855 0.0103125
v -0.04261587 0.017285685 0.0065625
v -0.04261587 0.017285685 0.0103125
v -0.042614805 0.01705638 0.0065625
v -0.042614805 0.01705638 0.0103125
v -0.04260201 0.0168258 0.0065625
v -0.04260201 0.0168258 0.0103125
v -0.04257768 0.016595715 0.0065625
v -0.04257768 0.016595715 0.0103125
v -0.042541965 0.01636797 0.0065625
v -0.042541965 0.01636797 0.0103125
v -0.042495075 0.01614435 0.0065625
v -0.042495075 0.01614435 0.0103125
v -0.04243716 0.0159267 0.0065625
v -0.04243716 0.0159267 0.0103125
v -0.042367275 0.015712605 0.0065625
v -0.042367275 0.015712605 0.0103125
v -0.042284895 0.015499485 0.0065625
v -0.042284895 0.015499485 0.0103125
v -0.04219089 0.015289005 0.0065625
v -0.04219089 0.015289005 0.0103125
v -0.04208607 0.01508274 0.0065625
v -0.04208607 0.01508274 0.0103125
v -0.041971275 0.01488234 0.0065625
v -0.041971275 0.01488234 0.0103125
v -0.041847375 0.01468941 0.0065625
v -0.041847375 0.01468941 0.0103125
v -0.04171518 0.01450557 0.0065625
v -0.04171518 0.01450557 0.0103125
v -0.041574345 0.014330895 0.0065625
v -0.041574345 0.014330895 0.0103125
v -0.041422155 0.01416177 0.0065625
v -0.041422155 0.01416177 0.0103125
v -0.04125966 0.01399902 0.0065625
v -0.04125966 0.01399902 0.0103125
v -0.04108827 0.013843815 0.0065625
v -0.04108827 0.013843815 0.0103125
v -0.040909335 0.01369737 0.0065625
v -0.040909335 0.01369737 0.0103125
v -0.04072425 0.013560855 0.0065625
v -0.04072425 0.013560855 0.0103125
v -0.04053441 0.01343547 0.0065625
v -0.04053441 0.01343547 0.0103125
v -0.04034097 0.01332222 0.0065625
v -0.04034097 0.01332222 0.0103125
v -0.040142385 0.01321977 0.0065625
v -0.040142385 0.01321977 0.0103125
v -0.03993795 0.013127505 0.0065625
v -0.03993795 0.013127505 0.0103125
v -0.03972768 0.013045455 0.0065625
v -0.03972768 0.013045455 0.0103125
v -0.03951156 0.01297359 0.0065625
v -0.03951156 0.01297359 0.0103125
v -0.039289605 0.01291194 0.0065625
v -0.039289605 0.01291194 0.0103125
v -0.0390618 0.012860475 0.0065625
v -0.0390618 0.012860475 0.0103125
v -0.038828145 0.012819225 0.0065625
v -0.038828145 0.012819225 0.0103125
v -0.03871341 0.012801945 0.0065625
v -0.03871341 0.012801945 0.0103125
v -0.038600085 0.012782895 0.0065625
v -0.038600085 0.012782895 0.0103125
v -0.03837777 0.012739485 0.0065625
v -0.03837777 0.012739485 0.0103125
v -0.0381612 0.012688965 0.0065625
v -0.0381612 0.012688965 0.0103125
v -0.037950375 0.012631365 0.0065625
v -0.037950375 0.012631365 0.0103125
v -0.03774528 0.01256667 0.0065625
v -0.03774528 0.01256667 0.0103125
v -0.037690755 0.012543765 0.0065625
v -0.03768924 0.01254294 0.0103125
v -0.037635885 0.012523275 0.0065625
v -0.037632825 0.012521805 0.0103125
v -0.037580685 0.01250517 0.0065625
v -0.037576035 0.012503265 0.0103125
v -0.037525155 0.01248948 0.0065625
v -0.037518855 0.01248732 0.0103125
v -0.03746928 0.012476205 0.0065625
v -0.0374613 0.012473955 0.0103125
v -0.03741309 0.012465315 0.0065625
v -0.037403355 0.0124632 0.0103125
v -0.03735657 0.01245684 0.0065625
v -0.03734505 0.012455025 0.0103125
v -0.0372996 0.012450705 0.0065625
v -0.03728619 0.012449415 0.0103125
v -0.03724158 0.012446595 0.0065625
v -0.03722595 0.01244616 0.0103125
v -0.03718281 0.012444675 0.0065625
v -0.037164735 0.01244535 0.0103125
v -0.03712371 0.012445155 0.0065625
v -0.037103145 0.012447135 0.0103125
v -0.0370647 0.01244826 0.0065625
v -0.03704178 0.01245165 0.0103125
v -0.037006215 0.012454215 0.0065625
v -0.036981225 0.012459045 0.0103125
v -0.03694866 0.012463245 0.0065625
v -0.036922065 0.01246947 0.0103125
v -0.036892485 0.01247559 0.0065625
v -0.0368649 0.012483045 0.0103125
v -0.036837225 0.01249161 0.0065625
v -0.03680928 0.012500385 0.0103125
v -0.03678231 0.01251126 0.0065625
v -0.036754455 0.01252158 0.0103125
v -0.03672801 0.01253409 0.0065625
v -0.03670062 0.012546015 0.0103125
v -0.03667455 0.012559665 0.0065625
v -0.036648015 0.012573105 0.0103125
v -0.036622215 0.01258755 0.0065625
v -0.03659682 0.01260225 0.0103125
v -0.036571215 0.012617295 0.0065625
v -0.036547245 0.01263282 0.0103125
v -0.03652182 0.012648465 0.0065625
v -0.0364995 0.01266423 0.0103125
v -0.036474195 0.01268076 0.0065625
v -0.03645372 0.01269609 0.0103125
v -0.036427995 0.01271481 0.0065625
v -0.036409635 0.01272921 0.0103125
v -0.036383145 0.012750705 0.0065625
v -0.036339645 0.012788475 0.0065625
v -0.036326325 0.012799755 0.0103125
v -0.03629751 0.012828105 0.0065625
v -0.03625671 0.012869595 0.0065625
v -0.036217275 0.01291296 0.0065625
v -0.031871175 0.017296275 0.0103125
v -0.03775476 0.01721727 0.0103125
v -0.03775125 0.017175 0.0103125
v -0.03776076 0.01725771 0.0103125
v -0.03775476 0.01713273 0.0103125
v -0.03776076 0.01709229 0.0103125
v -0.03776928 0.017053665 0.0103125
v -0.037780305 0.01701687 0.0103125
v -0.03779385 0.01698189 0.0103125
v -0.037809885 0.01694874 0.0103125
v -0.03782844 0.016917405 0.0103125
v -0.03784962 0.01688781 0.0103125
v -0.032304675 0.01687872 0.0103125
v -0.03787431 0.016859295 0.0103125
v -0.037902195 0.016832115 0.0103125
v -0.037932675 0.01680669 0.0103125
v -0.03796512 0.01678347 0.0103125
v -0.037998945 0.016762905 0.0103125
v -0.03803352 0.016745445 0.0103125
v -0.038068245 0.01673151 0.0103125
v -0.038103585 0.016721175 0.0103125
v -0.03814113 0.01671381 0.0103125
v -0.03818019 0.016709385 0.0103125
v -0.03822 0.0167079 0.0103125
v -0.032737725 0.016457475 0.0103125
v -0.04257768 0.016595715 0.0103125
v -0.03825981 0.016709385 0.0103125
v -0.042541965 0.01636797 0.0103125
v -0.042495075 0.01614435 0.0103125
v -0.03317001 0.016032705 0.0103125
v -0.04243716 0.0159267 0.0103125
v -0.042367275 0.015712605 0.0103125
v -0.03360141 0.01560453 0.0103125
v -0.042284895 0.015499485 0.0103125
v -0.04219089 0.015289005 0.0103125
v -0.034032285 0.01517268 0.0103125
v -0.04208607 0.01508274 0.0103125
v -0.041971275 0.01488234 0.0103125
v -0.034462665 0.014737155 0.0103125
v -0.041847375 0.01468941 0.0103125
v -0.04171518 0.01450557 0.0103125
v -0.041574345 0.014330895 0.0103125
v -0.034892535 0.01429794 0.0103125
v -0.041422155 0.01416177 0.0103125
v -0.04125966 0.01399902 0.0103125
v -0.035321925 0.013855035 0.0103125
v -0.04108827 0.013843815 0.0103125
v -0.040909335 0.01369737 0.0103125
v -0.04072425 0.013560855 0.0103125
v -0.04053441 0.01343547 0.0103125
v -0.035750805 0.013408455 0.0103125
v -0.04034097 0.01332222 0.0103125
v -0.040142385 0.01321977 0.0103125
v -0.03993795 0.013127505 0.0103125
v -0.03972768 0.013045455 0.0103125
v -0.03951156 0.01297359 0.0103125
v -0.03617919 0.012958185 0.0103125
v -0.039289605 0.01291194 0.0103125
v -0.03624951 0.01287609 0.0103125
v -0.0390618 0.012860475 0.0103125
v -0.038828145 0.012819225 0.0103125
v -0.03871341 0.012801945 0.0103125
v -0.036326325 0.012799755 0.0103125
v -0.038600085 0.012782895 0.0103125
v -0.03837777 0.012739485 0.0103125
v -0.036409635 0.01272921 0.0103125
v -0.0381612 0.012688965 0.0103125
v -0.03645372 0.01269609 0.0103125
v -0.0364995 0.01266423 0.0103125
v -0.037950375 0.012631365 0.0103125
v -0.036547245 0.01263282 0.0103125
v -0.03659682 0.01260225 0.0103125
v -0.03774528 0.01256667 0.0103125
v -0.036648015 0.012573105 0.0103125
v -0.03670062 0.012546015 0.0103125
v -0.03768924 0.01254294 0.0103125
v -0.037632825 0.012521805 0.0103125
v -0.036754455 0.01252158 0.0103125
v -0.037576035 0.012503265 0.0103125
v -0.03680928 0.012500385 0.0103125
v -0.037518855 0.01248732 0.0103125
v -0.0368649 0.012483045 0.0103125
v -0.0374613 0.012473955 0.0103125
v -0.036922065 0.01246947 0.0103125
v -0.037403355 0.0124632 0.0103125
v -0.036981225 0.012459045 0.0103125
v -0.03734505 0.012455025 0.0103125
v -0.03704178 0.01245165 0.0103125
v -0.03728619 0.012449415 0.0103125
v -0.037103145 0.012447135 0.0103125
v -0.03722595 0.01244616 0.0103125
v -0.037164735 0.01244535 0.0103125
v -0.03829887 0.01671381 0.0103125
v -0.038336415 0.016721175 0.0103125
v -0.038371755 0.01673151 0.0103125
v -0.03840648 0.016745445 0.0103125
v -0.038441055 0.016762905 0.0103125
v -0.038474865 0.01678347 0.0103125
v -0.038507325 0.01680669 0.0103125
v -0.04260201 0.0168258 0.0103125
v -0.038537805 0.016832115 0.0103125
v -0.038565705 0.016859295 0.0103125
v -0.03859038 0.01688781 0.0103125
v -0.03861156 0.016917405 0.0103125
v -0.038630115 0.01694874 0.0103125
v -0.03864615 0.01698189 0.0103125
v -0.03865968 0.01701687 0.0103125
v -0.03867072 0.017053665 0.0103125
v -0.042614805 0.01705638 0.0103125
v -0.03867924 0.01709229 0.0103125
v -0.03868524 0.01713273 0.0103125
v -0.03868875 0.017175 0.0103125
v -0.03868524 0.01721727 0.0103125
v -0.03867924 0.01725771 0.0103125
v -0.04261587 0.017285685 0.0103125
v -0.03867072 0.017296335 0.0103125
v -0.03865968 0.01733313 0.0103125
v -0.03864615 0.01736811 0.0103125
v -0.038630115 0.01740126 0.0103125
v -0.03861156 0.017432595 0.0103125
v -0.03859038 0.01746219 0.0103125
v -0.038565705 0.017490705 0.0103125
v -0.04260504 0.017511855 0.0103125
v -0.038537805 0.017517885 0.0103125
v -0.038507325 0.01754331 0.0103125
v -0.038474865 0.01756653 0.0103125
v -0.038441055 0.017587095 0.0103125
v -0.03840648 0.017604555 0.0103125
v -0.038371755 0.01761849 0.0103125
v -0.038336415 0.017628825 0.0103125
v -0.03829887 0.01763619 0.0103125
v -0.03825981 0.017640615 0.0103125
v -0.03822 0.0176421 0.0103125
v -0.042581985 0.01773504 0.0103125
v -0.03143748 0.017709915 0.0103125
v -0.031003905 0.018119445 0.0103125
v -0.03818019 0.017640615 0.0103125
v -0.03814113 0.01763619 0.0103125
v -0.038103585 0.017628825 0.0103125
v -0.038068245 0.01761849 0.0103125
v -0.03803352 0.017604555 0.0103125
v -0.037998945 0.017587095 0.0103125
v -0.03796512 0.01756653 0.0103125
v -0.037932675 0.01754331 0.0103125
v -0.037902195 0.017517885 0.0103125
v -0.03787431 0.017490705 0.0103125
v -0.03784962 0.01746219 0.0103125
v -0.03782844 0.017432595 0.0103125
v -0.037809885 0.01740126 0.0103125
v -0.03779385 0.01736811 0.0103125
v -0.037780305 0.01733313 0.0103125
v -0.03776928 0.017296335 0.0103125
v -0.042546375 0.017959755 0.0103125
v -0.042498645 0.01818474 0.0103125
v -0.03057072 0.0185247 0.0103125
v -0.042439335 0.018408225 0.0103125
v -0.042368955 0.01862847 0.0103125
v -0.03600924 0.018735855 0.0103125
v -0.030138045 0.018925545 0.0103125
v -0.03604905 0.018737325 0.0103125
v -0.03608811 0.01874175 0.0103125
v -0.036125655 0.018749115 0.0103125
v -0.03616101 0.018759465 0.0103125
v -0.03619572 0.018773385 0.0103125
v -0.036230295 0.01879086 0.0103125
v -0.03626412 0.018811425 0.0103125
v -0.03629658 0.01883463 0.0103125
v -0.042288 0.018843735 0.0103125
v -0.03632706 0.018860055 0.0103125
v -0.036354945 0.01888725 0.0103125
v -0.036379635 0.01891575 0.0103125
v -0.0364008 0.018945345 0.0103125
v -0.036419355 0.01897668 0.0103125
v -0.036435405 0.019009845 0.0103125
v -0.036448935 0.01904481 0.0103125
v -0.042196995 0.019052265 0.0103125
v -0.03645996 0.01908162 0.0103125
v -0.03646848 0.01912023 0.0103125
v -0.036474495 0.019160685 0.0103125
v -0.03647799 0.01920294 0.0103125
v -0.036474495 0.01924521 0.0103125
v -0.042096375 0.019252545 0.0103125
v -0.03646848 0.01928565 0.0103125
v -0.03645996 0.019324275 0.0103125
v -0.036448935 0.019361085 0.0103125
v -0.036435405 0.01939605 0.0103125
v -0.036419355 0.019429215 0.0103125
v -0.04198554 0.019446585 0.0103125
v -0.0364008 0.01946055 0.0103125
v -0.036379635 0.019490145 0.0103125
v -0.036354945 0.019518645 0.0103125
v -0.03632706 0.01954584 0.0103125
v -0.03629658 0.01957125 0.0103125
v -0.03626412 0.01959447 0.0103125
v -0.036230295 0.019615035 0.0103125
v -0.03619572 0.01963251 0.0103125
v -0.041864265 0.019635255 0.0103125
v -0.03616101 0.01964643 0.0103125
v -0.036125655 0.01965678 0.0103125
v -0.03608811 0.019664145 0.0103125
v -0.03604905 0.01966857 0.0103125
v -0.03600924 0.01967004 0.0103125
v -0.041732535 0.019818555 0.0103125
v -0.029273175 0.01971483 0.0103125
v -0.03596943 0.01966857 0.0103125
v -0.02884095 0.0201033 0.0103125
v -0.04159035 0.01999647 0.0103125
v -0.04143771 0.020169 0.0103125
v -0.02840886 0.02048763 0.0103125
v -0.04127463 0.02033616 0.0103125
v -0.04110108 0.02049795 0.0103125
v -0.02797692 0.02086785 0.0103125
v -0.04064154 0.020894235 0.0103125
v -0.0275451 0.021243945 0.0103125
v -0.027493785 0.02128464 0.0103125
v -0.04018206 0.021287025 0.0103125
v -0.02744478 0.02132631 0.0103125
v -0.02739807 0.02136894 0.0103125
v -0.027353655 0.021412545 0.0103125
v -0.02731155 0.021457095 0.0103125
v -0.02727174 0.02150262 0.0103125
v -0.027234225 0.02154912 0.0103125
v -0.02719902 0.021596565 0.0103125
v -0.02716605 0.02164503 0.0103125
v -0.039722625 0.021676335 0.0103125
v -0.027135045 0.02169468 0.0103125
v -0.027079395 0.021797235 0.0103125
v -0.02703342 0.02190333 0.0103125
v -0.02699853 0.02201202 0.0103125
v -0.031875 0.022032915 0.0103125
v -0.02697588 0.022122735 0.0103125
v -0.03191481 0.022034385 0.0103125
v -0.03195387 0.02203881 0.0103125
v -0.031991415 0.022046175 0.0103125
v -0.032026755 0.02205651 0.0103125
v -0.039263235 0.02206218 0.0103125
v -0.03206148 0.022070445 0.0103125
v -0.032096055 0.022087905 0.0103125
v -0.03212988 0.02210847 0.0103125
v -0.032162325 0.02213169 0.0103125
v -0.032192805 0.022157115 0.0103125
v -0.03222069 0.022184295 0.0103125
v -0.03224538 0.02221281 0.0103125
v -0.03226656 0.022242405 0.0103125
v -0.032285115 0.02227374 0.0103125
v -0.03230115 0.02230689 0.0103125
v -0.032314695 0.02234187 0.0103125
v -0.03232572 0.022378665 0.0103125
v -0.03233424 0.02241729 0.0103125
v -0.03880389 0.02244453 0.0103125
v -0.03234024 0.02245773 0.0103125
v -0.03234375 0.0225 0.0103125
v -0.03234024 0.02254227 0.0103125
v -0.03233424 0.02258271 0.0103125
v -0.03232572 0.022621335 0.0103125
v -0.032314695 0.02265813 0.0103125
v -0.03230115 0.02269311 0.0103125
v -0.032285115 0.02272626 0.0103125
v -0.03226656 0.022757595 0.0103125
v -0.03224538 0.02278719 0.0103125
v -0.03222069 0.022815705 0.0103125
v -0.03834459 0.0228234 0.0103125
v -0.032192805 0.022842885 0.0103125
v -0.032162325 0.02286831 0.0103125
v -0.03212988 0.02289153 0.0103125
v -0.032096055 0.022912095 0.0103125
v -0.03206148 0.022929555 0.0103125
v -0.032026755 0.02294349 0.0103125
v -0.031991415 0.022953825 0.0103125
v -0.03195387 0.02296119 0.0103125
v -0.03191481 0.022965615 0.0103125
v -0.031875 0.022967085 0.0103125
v -0.037885335 0.02319879 0.0103125
v -0.02719821 0.023071215 0.0103125
v -0.027163455 0.023009925 0.0103125
v -0.027325755 0.02331789 0.0103125
v -0.027451455 0.023566425 0.0103125
v -0.03742599 0.023570775 0.0103125
v -0.027575325 0.02381682 0.0103125
v -0.03696624 0.02393952 0.0103125
v -0.027697365 0.024069075 0.0103125
v -0.036506325 0.024304875 0.0103125
v -0.02781756 0.02432319 0.0103125
v -0.02793594 0.02457918 0.0103125
v -0.036046515 0.024666735 0.0103125
v -0.028052505 0.024837 0.0103125
v -0.035587095 0.025024935 0.0103125
v -0.028167285 0.025096695 0.0103125
v -0.028280235 0.025358235 0.0103125
v -0.035128335 0.02537934 0.0103125
v -0.02839131 0.02562165 0.0103125
v -0.03467052 0.0257298 0.0103125
v -0.028500465 0.025886955 0.0103125
v -0.03421389 0.02607618 0.0103125
v -0.028607655 0.02615415 0.0103125
v -0.0337581 0.026418675 0.0103125
v -0.02871291 0.026423235 0.0103125
v -0.02881623 0.026694195 0.0103125
v -0.033303045 0.026757345 0.0103125
v -0.028917645 0.02696706 0.0103125
v -0.03284871 0.027092175 0.0103125
v -0.02901714 0.027241785 0.0103125
v -0.03239511 0.027423165 0.0103125
v -0.029114715 0.027518415 0.0103125
v -0.03194223 0.02775033 0.0103125
v -0.029210385 0.027796905 0.0103125
v -0.029229045 0.02786151 0.0103125
v -0.02924937 0.027923895 0.0103125
v -0.029271375 0.027984105 0.0103125
v -0.029295045 0.028042125 0.0103125
v -0.03149007 0.02807367 0.0103125
v -0.029320395 0.02809794 0.0103125
v -0.02934741 0.028151565 0.0103125
v -0.02937609 0.028203 0.0103125
v -0.029406465 0.028252245 0.0103125
v -0.02943861 0.02829939 0.0103125
v -0.02947296 0.02834472 0.0103125
v -0.029509275 0.028388085 0.0103125
v -0.03103863 0.028393185 0.0103125
v -0.02954733 0.02842929 0.0103125
v -0.03098538 0.028433955 0.0103125
v -0.029586855 0.028468155 0.0103125
v -0.03093207 0.028471995 0.0103125
v -0.029627565 0.028504485 0.0103125
v -0.03087873 0.028507335 0.0103125
v -0.029669205 0.02853807 0.0103125
v -0.030825345 0.02853996 0.0103125
v -0.029711535 0.02856873 0.0103125
v -0.030771915 0.02856987 0.0103125
v -0.02975427 0.028596285 0.0103125
v -0.030718455 0.02859705 0.0103125
v -0.0297978 0.028620945 0.0103125
v -0.030664935 0.02862153 0.0103125
v -0.0298878 0.028662045 0.0103125
v -0.030611385 0.028643295 0.0103125
v -0.03055764 0.028662345 0.0103125
v -0.029981475 0.02869221 0.0103125
v -0.03050325 0.028678695 0.0103125
v -0.030448425 0.02869233 0.0103125
v -0.030078555 0.028711425 0.0103125
v -0.03039351 0.028703265 0.0103125
v -0.03033879 0.02871147 0.0103125
v -0.03012828 0.02871693 0.0103125
v -0.03028461 0.028716945 0.0103125
v -0.03017904 0.02871969 0.0103125
v -0.030231255 0.02871969 0.0103125
v -0.03183519 0.022965615 0.0103125
v -0.03179613 0.02296119 0.0103125
v -0.031758585 0.022953825 0.0103125
v -0.02713149 0.02294892 0.0103125
v -0.031723245 0.02294349 0.0103125
v -0.03168852 0.022929555 0.0103125
v -0.031653945 0.022912095 0.0103125
v -0.03162012 0.02289153 0.0103125
v -0.0271023 0.0228882 0.0103125
v -0.031587675 0.02286831 0.0103125
v -0.031557195 0.022842885 0.0103125
v -0.027075885 0.02282775 0.0103125
v -0.03152931 0.022815705 0.0103125
v -0.03150462 0.02278719 0.0103125
v -0.02705226 0.02276757 0.0103125
v -0.03148344 0.022757595 0.0103125
v -0.031464885 0.02272626 0.0103125
v -0.02703141 0.022707675 0.0103125
v -0.03144885 0.02269311 0.0103125
v -0.031435305 0.02265813 0.0103125
v -0.02701335 0.02264805 0.0103125
v -0.03142428 0.022621335 0.0103125
v -0.026998065 0.022588695 0.0103125
v -0.03141576 0.02258271 0.0103125
v -0.03140976 0.02254227 0.0103125
v -0.02698557 0.022529595 0.0103125
v -0.03140625 0.0225 0.0103125
v -0.026975835 0.02247051 0.0103125
v -0.03140976 0.02245773 0.0103125
v -0.03141576 0.02241729 0.0103125
v -0.026968875 0.022411545 0.0103125
v -0.03142428 0.022378665 0.0103125
v -0.026964675 0.02235282 0.0103125
v -0.031435305 0.02234187 0.0103125
v -0.03144885 0.02230689 0.0103125
v -0.031464885 0.02227374 0.0103125
v -0.03148344 0.022242405 0.0103125
v -0.026964675 0.022236555 0.0103125
v -0.03150462 0.02221281 0.0103125
v -0.03152931 0.022184295 0.0103125
v -0.031557195 0.022157115 0.0103125
v -0.031587675 0.02213169 0.0103125
v -0.03162012 0.02210847 0.0103125
v -0.031653945 0.022087905 0.0103125
v -0.03168852 0.022070445 0.0103125
v -0.031723245 0.02205651 0.0103125
v -0.031758585 0.022046175 0.0103125
v -0.03179613 0.02203881 0.0103125
v -0.03183519 0.022034385 0.0103125
v -0.035930385 0.019664145 0.0103125
v -0.035892825 0.01965678 0.0103125
v -0.035857485 0.01964643 0.0103125
v -0.035822775 0.01963251 0.0103125
v -0.0357882 0.019615035 0.0103125
v -0.035754375 0.01959447 0.0103125
v -0.035721915 0.01957125 0.0103125
v -0.035691435 0.01954584 0.0103125
v -0.03566355 0.019518645 0.0103125
v -0.03563886 0.019490145 0.0103125
v -0.03561768 0.01946055 0.0103125
v -0.03559914 0.019429215 0.0103125
v -0.03558309 0.01939605 0.0103125
v -0.03556956 0.019361085 0.0103125
v -0.035558535 0.019324275 0.0103125
v -0.02970555 0.01932225 0.0103125
v -0.035550015 0.01928565 0.0103125
v -0.035544 0.01924521 0.0103125
v -0.03554049 0.01920294 0.0103125
v -0.035544 0.019160685 0.0103125
v -0.035550015 0.01912023 0.0103125
v -0.035558535 0.01908162 0.0103125
v -0.03556956 0.01904481 0.0103125
v -0.03558309 0.019009845 0.0103125
v -0.03559914 0.01897668 0.0103125
v -0.03561768 0.018945345 0.0103125
v -0.03563886 0.01891575 0.0103125
v -0.03566355 0.01888725 0.0103125
v -0.035691435 0.018860055 0.0103125
v -0.035721915 0.01883463 0.0103125
v -0.035754375 0.018811425 0.0103125
v -0.0357882 0.01879086 0.0103125
v -0.035822775 0.018773385 0.0103125
v -0.035857485 0.018759465 0.0103125
v -0.035892825 0.018749115 0.0103125
v -0.035930385 0.01874175 0.0103125
v -0.03596943 0.018737325 0.0103125
f 1 2 3
f 1 4 2
f 1 3 5
f 1 5 6
f 7 1 6
f 7 6 8
f 7 8 9
f 7 9 10
f 7 10 11
f 7 11 12
f 7 12 13
f 7 13 14
f 7 14 15
f 7 15 16
f 7 16 17
f 7 17 18
f 7 18 19
f 7 19 20
f 7 20 21
f 7 21 22
f 7 22 23
f 24 7 23
f 24 23 25
f 26 24 25
f 26 27 24
f 26 25 28
f 26 28 29
f 26 29 30
f 26 30 31
f 26 31 32
f 26 32 33
f 26 33 34
f 26 34 35
f 26 35 36
f 37 26 36
f 37 36 38
f 37 38 39
f 37 39 40
f 37 40 41
f 37 41 42
f 37 42 43
f 37 43 44
f 45 37 44
f 45 44 46
f 45 46 47
f 45 47 48
f 45 48 49
f 45 49 50
f 51 45 50
f 51 50 52
f 51 52 53
f 51 53 54
f 51 54 55
f 51 55 56
f 51 56 57
f 51 57 58
f 51 58 59
f 60 51 59
f 60 59 61
f 60 61 62
f 60 62 63
f 60 63 64
f 60 64 65
f 60 65 66
f 60 66 67
f 60 67 68
f 60 68 69
f 70 60 69
f 70 69 71
f 71 69 72
f 73 70 71
f 73 71 74
f 75 73 74
f 76 75 74
f 76 74 77
f 78 76 77
f 79 78 77
f 79 77 80
f 81 79 80
f 82 81 80
f 82 80 83
f 84 82 83
f 85 84 83
f 85 83 86
f 87 85 86
f 88 87 86
f 89 88 86
f 89 86 90
f 91 89 90
f 92 91 90
f 92 90 93
f 94 92 93
f 95 94 93
f 96 95 93
f 97 96 93
f 97 93 98
f 99 97 98
f 100 99 98
f 101 100 98
f 102 101 98
f 103 102 98
f 103 104 102
f 103 105 104
f 105 106 104
f 105 107 106
f 107 108 106
f 107 109 108
f 109 110 108
f 109 111 110
f 109 112 111
f 112 113 111
f 112 114 113
f 114 115 113
f 114 116 115
f 116 117 115
f 117 118 115
f 117 119 118
f 119 120 118
f 120 121 118
f 120 122 121
f 122 123 121
f 122 124 123
f 124 125 123
f 124 126 125
f 126 127 125
f 126 128 127
f 128 129 127
f 128 130 129
f 130 131 129
f 130 132 131
f 130 133 132
f 133 134 132
f 133 135 134
f 135 136 134
f 135 137 136
f 137 138 136
f 137 139 138
f 139 140 138
f 71 72 141
f 71 141 142
f 71 142 143
f 71 143 144
f 71 144 145
f 71 145 146
f 71 146 147
f 71 147 148
f 71 148 149
f 1 71 149
f 1 149 150
f 1 150 151
f 1 151 152
f 1 152 153
f 1 153 154
f 1 154 155
f 1 155 4
f 27 156 24
f 27 157 156
f 157 158 156
f 158 159 156
f 158 160 159
f 160 161 159
f 160 162 161
f 159 161 163
f 159 163 164
f 159 164 165
f 159 165 166
f 159 166 167
f 159 167 168
f 159 168 169
f 159 169 170
f 159 170 171
f 159 171 172
f 159 172 173
f 174 159 173
f 174 173 175
f 174 175 176
f 174 176 177
f 174 177 178
f 174 178 179
f 174 179 180
f 174 180 181
f 174 181 182
f 174 182 183
f 174 183 184
f 185 174 184
f 185 184 186
f 185 186 187
f 185 187 188
f 185 188 189
f 185 189 190
f 185 190 191
f 185 191 192
f 185 192 193
f 185 193 194
f 185 194 195
f 185 195 196
f 185 196 197
f 185 197 198
f 185 198 199
f 185 199 200
f 185 200 201
f 202 185 201
f 202 201 203
f 204 202 203
f 204 205 202
f 204 203 206
f 204 206 207
f 204 207 208
f 204 208 209
f 210 204 209
f 210 209 211
f 210 211 212
f 210 212 213
f 210 213 214
f 210 214 215
f 210 215 216
f 210 216 217
f 210 217 218
f 219 210 218
f 219 218 220
f 219 220 221
f 219 221 222
f 219 222 223
f 219 223 224
f 225 219 224
f 225 224 226
f 225 226 227
f 225 227 228
f 225 228 229
f 225 229 230
f 231 225 230
f 231 230 232
f 231 232 233
f 231 233 234
f 231 234 235
f 231 235 236
f 231 236 237
f 231 237 238
f 162 231 238
f 162 238 239
f 162 239 240
f 162 240 241
f 162 241 242
f 162 242 243
f 162 243 244
f 162 244 245
f 162 245 246
f 162 246 161
f 205 247 202
f 205 248 247
f 248 249 247
f 249 250 247
f 249 251 250
f 251 252 250
f 251 253 252
f 253 254 252
f 253 255 254
f 255 256 254
f 255 257 256
f 257 258 256
f 257 259 258
f 257 260 259
f 257 261 260
f 257 262 261
f 257 263 262
f 257 264 263
f 257 265 264
f 257 266 265
f 266 267 265
f 266 268 267
f 266 269 268
f 266 270 269
f 270 266 271
f 266 272 271
f 271 273 270
f 273 271 274
f 273 274 275
f 273 275 276
f 273 276 277
f 273 277 278
f 279 273 278
f 279 278 280
f 279 280 281
f 282 279 281
f 282 281 283
f 282 283 284
f 282 284 285
f 286 282 285
f 286 285 287
f 286 287 288
f 289 286 288
f 289 288 290
f 289 290 291
f 292 289 291
f 292 291 293
f 294 292 293
f 294 293 295
f 294 295 296
f 297 294 296
f 297 296 298
f 299 297 298
f 299 298 300
f 299 300 301
f 302 299 301
f 302 301 303
f 304 302 303
f 304 303 305
f 304 305 306
f 307 304 306
f 307 306 308
f 309 307 308
f 309 308 310
f 309 310 311
f 312 309 311
f 312 311 313
f 312 313 314
f 315 312 314
f 315 314 316
f 315 316 317
f 315 317 318
f 319 315 318
f 319 318 320
f 319 320 321
f 319 321 322
f 319 322 323
f 324 319 323
f 324 323 325
f 324 325 326
f 324 326 327
f 328 324 327
f 329 328 327
f 329 330 328
f 329 327 331
f 329 331 332
f 329 332 333
f 329 333 334
f 329 334 335
f 329 335 336
f 329 336 337
f 329 337 338
f 329 338 339
f 340 329 339
f 340 339 341
f 340 341 342
f 340 342 343
f 340 343 344
f 340 344 345
f 340 345 346
f 340 346 347
f 340 347 348
f 340 348 349
f 340 349 350
f 340 350 351
f 352 340 351
f 352 351 353
f 352 353 354
f 352 354 355
f 352 355 356
f 352 356 357
f 352 357 358
f 352 358 359
f 352 359 360
f 352 360 361
f 352 361 362
f 352 362 363
f 352 363 364
f 352 364 365
f 266 352 365
f 266 365 366
f 266 366 367
f 266 367 368
f 266 368 272
f 329 369 330
f 329 370 369
f 370 371 369
f 370 372 371
f 370 373 372
f 373 374 372
f 373 375 374
f 375 376 374
f 375 377 376
f 377 378 376
f 377 379 378
f 377 380 379
f 380 381 379
f 380 382 381
f 382 383 381
f 382 384 383
f 382 385 384
f 385 386 384
f 385 387 386
f 387 388 386
f 387 389 388
f 389 390 388
f 389 391 390
f 391 392 390
f 391 393 392
f 391 394 393
f 394 395 393
f 394 396 395
f 396 397 395
f 396 398 397
f 398 399 397
f 398 400 399
f 400 401 399
f 400 402 401
f 400 403 402
f 400 404 403
f 400 405 404
f 400 406 405
f 406 407 405
f 406 408 407
f 406 409 408
f 406 410 409
f 406 411 410
f 406 412 411
f 406 413 412
f 406 414 413
f 414 415 413
f 414 416 415
f 416 417 415
f 416 418 417
f 418 419 417
f 418 420 419
f 420 421 419
f 420 422 421
f 422 423 421
f 422 424 423
f 424 425 423
f 424 426 425
f 426 427 425
f 427 428 425
f 427 429 428
f 429 430 428
f 430 431 428
f 430 432 431
f 432 433 431
f 433 434 431
f 433 435 434
f 435 436 434
f 435 437 436
f 437 438 436
f 438 439 436
f 440 441 442
f 443 441 440
f 444 440 442
f 444 442 445
f 444 445 446
f 446 445 447
f 446 447 448
f 448 447 449
f 448 449 450
f 450 449 451
f 450 451 452
f 452 451 453
f 452 453 454
f 454 453 455
f 454 455 456
f 456 455 457
f 456 457 458
f 458 457 459
f 458 459 460
f 460 459 461
f 460 461 462
f 462 461 463
f 462 463 464
f 464 463 465
f 464 465 466
f 466 465 467
f 466 467 468
f 468 467 469
f 468 469 470
f 470 469 471
f 470 471 472
f 472 471 473
f 472 473 474
f 474 473 475
f 474 475 476
f 476 475 477
f 476 477 478
f 478 477 479
f 478 479 480
f 480 479 481
f 480 481 482
f 482 481 483
f 482 483 484
f 484 483 485
f 484 485 486
f 486 485 487
f 486 487 488
f 488 487 489
f 488 489 490
f 490 489 491
f 490 491 492
f 492 491 493
f 492 493 494
f 494 493 495
f 494 495 496
f 496 495 497
f 496 497 498
f 498 497 499
f 498 499 500
f 500 499 501
f 500 501 502
f 502 501 503
f 502 503 504
f 504 503 505
f 504 505 506
f 506 505 507
f 506 507 508
f 508 507 509
f 508 509 510
f 510 509 511
f 510 511 512
f 512 511 513
f 512 513 514
f 514 513 515
f 514 515 516
f 516 515 517
f 516 517 518
f 518 517 519
f 518 519 520
f 520 519 521
f 520 521 522
f 522 521 523
f 522 523 524
f 524 523 525
f 524 525 526
f 526 525 527
f 526 527 528
f 528 527 529
f 528 529 530
f 530 529 531
f 530 531 532
f 532 531 533
f 532 533 534
f 534 533 535
f 534 535 536
f 536 535 537
f 536 537 538
f 538 537 539
f 538 539 540
f 540 539 541
f 540 541 542
f 542 541 543
f 542 543 544
f 544 543 545
f 544 545 546
f 546 545 547
f 546 547 548
f 548 547 549
f 548 549 550
f 550 549 551
f 550 551 552
f 552 551 553
f 552 553 554
f 554 553 555
f 554 555 556
f 556 555 557
f 556 557 558
f 558 557 559
f 558 559 560
f 560 559 561
f 560 561 562
f 562 561 563
f 562 563 564
f 564 563 565
f 564 565 566
f 566 565 567
f 566 567 568
f 568 567 569
f 568 569 570
f 570 569 571
f 570 571 572
f 572 571 573
f 572 573 574
f 574 573 575
f 574 575 576
f 576 575 577
f 576 577 578
f 578 577 579
f 578 579 580
f 580 579 581
f 580 581 582
f 582 581 583
f 582 583 584
f 584 583 585
f 584 585 586
f 586 585 587
f 586 587 588
f 588 587 589
f 588 589 590
f 590 589 591
f 590 591 443
f 443 591 441
f 592 593 594
f 595 593 592
f 596 592 594
f 596 594 597
f 596 597 598
f 598 597 599
f 598 599 600
f 600 599 601
f 600 601 602
f 602 601 603
f 602 603 604
f 604 603 605
f 604 605 606
f 606 605 607
f 606 607 608
f 608 607 609
f 608 609 610
f 610 609 611
f 610 611 612
f 612 611 613
f 612 613 614
f 614 613 615
f 614 615 616
f 616 615 617
f 616 617 618
f 618 617 619
f 618 619 620
f 620 619 621
f 620 621 622
f 622 621 623
f 622 623 624
f 624 623 625
f 624 625 626
f 626 625 627
f 626 627 628
f 628 627 629
f 628 629 630
f 630 629 631
f 630 631 632
f 632 631 633
f 632 633 634
f 634 633 635
f 634 635 636
f 636 635 637
f 636 637 638
f 638 637 639
f 638 639 640
f 640 639 641
f 640 641 642
f 642 641 643
f 642 643 644
f 644 643 645
f 644 645 646
f 646 645 647
f 646 647 648
f 648 647 649
f 648 649 650
f 650 649 651
f 650 651 652
f 652 651 653
f 652 653 654
f 654 653 655
f 654 655 656
f 656 655 657
f 656 657 658
f 658 657 659
f 658 659 660
f 660 659 661
f 660 661 662
f 662 661 663
f 662 663 664
f 664 663 665
f 664 665 666
f 666 665 667
f 666 667 668
f 668 667 669
f 668 669 670
f 670 669 671
f 670 671 672
f 672 671 673
f 672 673 674
f 674 673 675
f 674 675 676
f 676 675 677
f 676 677 678
f 678 677 679
f 678 679 680
f 680 679 681
f 680 681 682
f 682 681 683
f 682 683 684
f 684 683 685
f 684 685 686
f 686 685 687
f 686 687 688
f 688 687 689
f 688 689 690
f 690 689 691
f 690 691 692
f 692 691 693
f 692 693 694
f 694 693 695
f 694 695 696
f 696 695 697
f 696 697 698
f 698 697 699
f 698 699 700
f 700 699 701
f 700 701 702
f 702 701 703
f 702 703 704
f 704 703 705
f 704 705 706
f 706 705 707
f 706 707 708
f 708 707 709
f 708 709 710
f 710 709 711
f 710 711 712
f 712 711 713
f 712 713 714
f 714 713 715
f 714 715 716
f 716 715 717
f 716 717 718
f 718 717 719
f 718 719 720
f 720 719 721
f 720 721 722
f 722 721 723
f 722 723 724
f 724 723 725
f 724 725 726
f 726 725 727
f 726 727 728
f 728 727 729
f 728 729 730
f 730 729 731
f 730 731 732
f 732 731 733
f 732 733 734
f 734 733 735
f 734 735 736
f 736 735 737
f 736 737 738
f 738 737 739
f 738 739 740
f 740 739 741
f 740 741 742
f 742 741 743
f 742 743 595
f 595 743 593
f 744 745 746
f 747 745 744
f 748 744 746
f 748 746 749
f 748 749 750
f 750 749 751
f 750 751 752
f 752 751 753
f 752 753 754
f 754 753 755
f 754 755 756
f 756 755 757
f 756 757 758
f 758 757 759
f 758 759 760
f 760 759 761
f 760 761 762
f 762 761 763
f 762 763 764
f 764 763 765
f 764 765 766
f 766 765 767
f 766 767 768
f 768 767 769
f 768 769 770
f 770 769 771
f 770 771 772
f 772 771 773
f 772 773 774
f 774 773 775
f 774 775 776
f 776 775 777
f 776 777 778
f 778 777 779
f 778 779 780
f 780 779 781
f 780 781 782
f 782 781 783
f 782 783 784
f 784 783 785
f 784 785 786
f 786 785 787
f 786 787 788
f 788 787 789
f 788 789 790
f 790 789 791
f 790 791 792
f 792 791 793
f 792 793 794
f 794 793 795
f 794 795 796
f 796 795 797
f 796 797 798
f 798 797 799
f 798 799 800
f 800 799 801
f 800 801 802
f 802 801 803
f 802 803 804
f 804 803 805
f 804 805 806
f 806 805 807
f 806 807 808
f 808 807 809
f 808 809 810
f 810 809 811
f 810 811 812
f 812 811 813
f 812 813 814
f 814 813 815
f 814 815 816
f 816 815 817
f 816 817 818
f 818 817 819
f 818 819 820
f 820 819 821
f 820 821 822
f 822 821 823
f 822 823 824
f 824 823 825
f 824 825 826
f 826 825 827
f 826 827 828
f 828 827 829
f 828 829 830
f 830 829 831
f 830 831 832
f 832 831 833
f 832 833 834
f 834 833 835
f 834 835 836
f 836 835 837
f 836 837 838
f 838 837 839
f 838 839 840
f 840 839 841
f 840 841 842
f 842 841 843
f 842 843 844
f 844 843 845
f 844 845 846
f 846 845 847
f 846 847 848
f 848 847 849
f 848 849 850
f 850 849 851
f 850 851 852
f 852 851 853
f 852 853 854
f 854 853 855
f 854 855 856
f 856 855 857
f 856 857 858
f 858 857 859
f 858 859 860
f 860 859 861
f 860 861 862
f 862 861 863
f 862 863 864
f 864 863 865
f 864 865 866
f 866 865 867
f 866 867 868
f 868 867 869
f 868 869 870
f 870 869 871
f 870 871 872
f 872 871 873
f 872 873 874
f 874 873 875
f 874 875 876
f 876 875 877
f 876 877 878
f 878 877 879
f 878 879 880
f 880 879 881
f 880 881 882
f 882 881 883
f 882 883 884
f 884 883 885
f 884 885 886
f 886 885 887
f 886 887 888
f 888 887 889
f 888 889 890
f 890 889 891
f 890 891 892
f 892 891 893
f 892 893 894
f 894 893 895
f 894 895 747
f 747 895 745
f 896 897 898
f 899 897 896
f 896 898 900
f 900 898 901
f 900 901 902
f 902 901 903
f 902 903 904
f 904 903 905
f 904 905 906
f 906 905 907
f 906 907 908
f 908 907 909
f 908 909 910
f 910 909 911
f 910 911 912
f 912 911 913
f 912 913 914
f 914 913 915
f 914 915 916
f 916 915 917
f 916 917 918
f 918 917 919
f 918 919 920
f 920 919 921
f 920 921 922
f 922 921 923
f 922 923 924
f 924 923 925
f 924 925 926
f 926 925 927
f 926 927 928
f 928 927 929
f 928 929 930
f 930 929 931
f 930 931 932
f 932 931 933
f 932 933 934
f 934 933 935
f 934 935 936
f 936 935 937
f 936 937 938
f 938 937 939
f 938 939 940
f 940 939 941
f 941 939 942
f 941 942 943
f 943 942 944
f 944 942 945
f 944 945 946
f 946 945 947
f 946 947 948
f 948 947 949
f 948 949 950
f 950 949 951
f 950 951 952
f 952 951 953
f 952 953 954
f 954 953 955
f 954 955 956
f 956 955 957
f 956 957 958
f 956 958 959
f 959 958 960
f 959 960 961
f 959 961 962
f 962 961 963
f 962 963 964
f 964 963 965
f 964 965 966
f 964 966 967
f 967 966 968
f 967 968 969
f 967 969 970
f 970 969 971
f 970 971 972
f 970 972 973
f 973 972 974
f 973 974 975
f 975 974 976
f 975 976 977
f 977 976 978
f 977 978 979
f 979 978 980
f 979 980 981
f 981 980 982
f 981 982 983
f 983 982 984
f 983 984 985
f 985 984 986
f 985 986 987
f 987 986 988
f 987 988 989
f 989 988 990
f 989 990 991
f 991 990 992
f 991 992 993
f 993 992 994
f 993 994 995
f 995 994 996
f 995 996 997
f 995 997 998
f 998 997 999
f 998 999 1000
f 1000 999 1001
f 1000 1001 1002
f 1002 1001 1003
f 1002 1003 1004
f 1004 1003 1005
f 1004 1005 1006
f 1006 1005 1007
f 1006 1007 1008
f 1008 1007 1009
f 1008 1009 1010
f 1010 1009 1011
f 1010 1011 1012
f 1012 1011 1013
f 1012 1013 1014
f 1014 1013 1015
f 1014 1015 1016
f 1016 1015 1017
f 1016 1017 1018
f 1018 1017 1019
f 1018 1019 1020
f 1020 1019 1021
f 1020 1021 1022
f 1022 1021 1023
f 1022 1023 1024
f 1024 1023 1025
f 1024 1025 1026
f 1026 1025 1027
f 1026 1027 1028
f 1028 1027 1029
f 1028 1029 1030
f 1030 1029 1031
f 1030 1031 1032
f 1032 1031 1033
f 1032 1033 1034
f 1034 1033 1035
f 1034 1035 1036
f 1036 1035 1037
f 1036 1037 1038
f 1038 1037 1039
f 1038 1039 1040
f 1040 1039 1041
f 1040 1041 1042
f 1042 1041 1043
f 1042 1043 1044
f 1044 1043 1045
f 1044 1045 1046
f 1046 1045 1047
f 1046 1047 1048
f 1048 1047 1049
f 1048 1049 1050
f 1050 1049 1051
f 1050 1051 1052
f 1052 1051 1053
f 1052 1053 1054
f 1054 1053 1055
f 1054 1055 1056
f 1056 1055 1057
f 1056 1057 1058
f 1058 1057 1059
f 1058 1059 1060
f 1060 1059 1061
f 1060 1061 1062
f 1062 1061 1063
f 1062 1063 1064
f 1064 1063 1065
f 1064 1065 1066
f 1066 1065 1067
f 1066 1067 1068
f 1068 1067 1069
f 1068 1069 1070
f 1070 1069 1071
f 1070 1071 1072
f 1072 1071 1073
f 1072 1073 1074
f 1074 1073 1075
f 1074 1075 1076
f 1076 1075 1077
f 1076 1077 1078
f 1078 1077 1079
f 1078 1079 1080
f 1080 1079 1081
f 1080 1081 1082
f 1082 1081 1083
f 1082 1083 1084
f 1084 1083 1085
f 1084 1085 1086
f 1086 1085 1087
f 1086 1087 1088
f 1088 1087 1089
f 1088 1089 1090
f 1090 1089 1091
f 1090 1091 1092
f 1092 1091 1093
f 1092 1093 1094
f 1094 1093 1095
f 1094 1095 1096
f 1096 1095 1097
f 1096 1097 1098
f 1098 1097 1099
f 1098 1099 1100
f 1100 1099 1101
f 1100 1101 1102
f 1102 1101 1103
f 1102 1103 1104
f 1104 1103 1105
f 1104 1105 1106
f 1106 1105 1107
f 1106 1107 1108
f 1108 1107 1109
f 1108 1109 1110
f 1110 1109 1111
f 1110 1111 1112
f 1112 1111 1113
f 1112 1113 1114
f 1114 1113 1115
f 1114 1115 1116
f 1116 1115 1117
f 1116 1117 1118
f 1118 1117 1119
f 1118 1119 1120
f 1120 1119 1121
f 1120 1121 1122
f 1122 1121 1123
f 1122 1123 1124
f 1124 1123 1125
f 1124 1125 1126
f 1126 1125 1127
f 1126 1127 1128
f 1128 1127 1129
f 1128 1129 1130
f 1130 1129 1131
f 1130 1131 1132
f 1132 1131 1133
f 1132 1133 1134
f 1134 1133 1135
f 1134 1135 1136
f 1136 1135 1137
f 1136 1137 1138
f 1138 1137 1139
f 1138 1139 1140
f 1140 1139 1141
f 1140 1141 1142
f 1142 1141 1143
f 1142 1143 1144
f 1144 1143 1145
f 1144 1145 1146
f 1146 1145 1147
f 1146 1147 1148
f 1148 1147 1149
f 1148 1149 1150
f 1150 1149 1151
f 1150 1151 1152
f 1152 1151 1153
f 1152 1153 1154
f 1154 1153 1155
f 1154 1155 1156
f 1156 1155 1157
f 1156 1157 1158
f 1158 1157 1159
f 1158 1159 1160
f 1160 1159 1161
f 1160 1161 1162
f 1162 1161 1163
f 1162 1163 1164
f 1164 1163 1165
f 1164 1165 1166
f 1166 1165 1167
f 1166 1167 1168
f 1168 1167 1169
f 1168 1169 1170
f 1170 1169 1171
f 1170 1171 1172
f 1172 1171 1173
f 1172 1173 1174
f 1174 1173 1175
f 1174 1175 1176
f 1176 1175 1177
f 1176 1177 1178
f 1178 1177 1179
f 1178 1179 1180
f 1180 1179 1181
f 1180 1181 1182
f 1182 1181 1183
f 1182 1183 1184
f 1184 1183 1185
f 1184 1185 1186
f 1186 1185 1187
f 1186 1187 1188
f 1188 1187 1189
f 1188 1189 1190
f 1190 1189 1191
f 1190 1191 1192
f 1192 1191 1193
f 1192 1193 1194
f 1194 1193 1195
f 1194 1195 1196
f 1196 1195 1197
f 1196 1197 1198
f 1198 1197 1199
f 1198 1199 1200
f 1200 1199 1201
f 1200 1201 1202
f 1202 1201 1203
f 1202 1203 1204
f 1204 1203 1205
f 1204 1205 1206
f 1206 1205 1207
f 1206 1207 1208
f 1208 1207 1209
f 1208 1209 1210
f 1210 1209 1211
f 1210 1211 1212
f 1212 1211 1213
f 1212 1213 1214
f 1214 1213 1215
f 1214 1215 1216
f 1216 1215 1217
f 1216 1217 1218
f 1218 1217 1219
f 1218 1219 1220
f 1220 1219 1221
f 1220 1221 1222
f 1222 1221 1223
f 1222 1223 1224
f 1224 1223 1225
f 1224 1225 1226
f 1226 1225 1227
f 1226 1227 1228
f 1228 1227 1229
f 1228 1229 1230
f 1230 1229 1231
f 1230 1231 1232
f 1232 1231 1233
f 1232 1233 1234
f 1234 1233 1235
f 1234 1235 1236
f 1236 1235 1237
f 1236 1237 1238
f 1238 1237 1239
f 1238 1239 1240
f 1240 1239 1241
f 1240 1241 1242
f 1242 1241 1243
f 1242 1243 1244
f 1244 1243 1245
f 1244 1245 1246
f 1246 1245 1247
f 1246 1247 1248
f 1248 1247 1249
f 1248 1249 1250
f 1250 1249 1251
f 1250 1251 1252
f 1252 1251 1253
f 1252 1253 1254
f 1254 1253 1255
f 1254 1255 1256
f 1256 1255 1257
f 1258 1256 1257
f 1258 1257 1259
f 1258 1259 1260
f 1260 1259 1261
f 1260 1261 1262
f 1262 1261 1263
f 1262 1263 1264
f 1264 1263 1265
f 1264 1265 1266
f 1266 1265 1267
f 1266 1267 1268
f 1268 1267 1269
f 1268 1269 1270
f 1270 1269 1271
f 1270 1271 1272
f 1272 1271 1273
f 1272 1273 1274
f 1274 1273 1275
f 1274 1275 1276
f 1276 1275 1277
f 1276 1277 1278
f 1278 1277 1279
f 1278 1279 1280
f 1280 1279 1281
f 1280 1281 1282
f 1282 1281 1283
f 1282 1283 1284
f 1284 1283 1285
f 1284 1285 1286
f 1286 1285 1287
f 1286 1287 1288
f 1288 1287 1289
f 1288 1289 1290
f 1290 1289 1291
f 1290 1291 1292
f 1292 1291 1293
f 1292 1293 1294
f 1294 1293 1295
f 1294 1295 1296
f 1296 1295 1297
f 1296 1297 1298
f 1298 1297 1299
f 1298 1299 1300
f 1300 1299 1301
f 1300 1301 1302
f 1302 1301 1303
f 1302 1303 1304
f 1304 1303 1305
f 1304 1305 1306
f 1304 1306 1307
f 1307 1306 1308
f 1307 1308 1309
f 1307 1309 899
f 899 1309 1310
f 899 1310 897
f 1311 1312 1313
f 1311 1314 1312
f 1311 1313 1315
f 1311 1315 1316
f 1311 1316 1317
f 1311 1317 1318
f 1311 1318 1319
f 1311 1319 1320
f 1311 1320 1321
f 1311 1321 1322
f 1323 1311 1322
f 1323 1322 1324
f 1323 1324 1325
f 1323 1325 1326
f 1323 1326 1327
f 1323 1327 1328
f 1323 1328 1329
f 1323 1329 1330
f 1323 1330 1331
f 1323 1331 1332
f 1323 1332 1333
f 1323 1333 1334
f 1335 1323 1334
f 1335 1334 1336
f 1336 1334 1337
f 1335 1336 1338
f 1335 1338 1339
f 1340 1335 1339
f 1340 1339 1341
f 1340 1341 1342
f 1343 1340 1342
f 1343 1342 1344
f 1343 1344 1345
f 1346 1343 1345
f 1346 1345 1347
f 1346 1347 1348
f 1349 1346 1348
f 1349 1348 1350
f 1349 1350 1351
f 1349 1351 1352
f 1353 1349 1352
f 1353 1352 1354
f 1353 1354 1355
f 1356 1353 1355
f 1356 1355 1357
f 1356 1357 1358
f 1356 1358 1359
f 1356 1359 1360
f 1361 1356 1360
f 1361 1360 1362
f 1361 1362 1363
f 1361 1363 1364
f 1361 1364 1365
f 1361 1365 1366
f 1367 1361 1366
f 1367 1366 1368
f 1369 1367 1368
f 1369 1368 1370
f 1369 1370 1371
f 1369 1371 1372
f 1373 1369 1372
f 1373 1372 1374
f 1373 1374 1375
f 1376 1373 1375
f 1376 1375 1377
f 1378 1376 1377
f 1379 1378 1377
f 1379 1377 1380
f 1381 1379 1380
f 1382 1381 1380
f 1382 1380 1383
f 1384 1382 1383
f 1385 1384 1383
f 1386 1385 1383
f 1386 1387 1385
f 1387 1388 1385
f 1387 1389 1388
f 1389 1390 1388
f 1389 1391 1390
f 1391 1392 1390
f 1391 1393 1392
f 1393 1394 1392
f 1393 1395 1394
f 1395 1396 1394
f 1395 1397 1396
f 1397 1398 1396
f 1397 1399 1398
f 1399 1400 1398
f 1399 1401 1400
f 1401 1402 1400
f 1336 1337 1403
f 1336 1403 1404
f 1336 1404 1405
f 1336 1405 1406
f 1336 1406 1407
f 1336 1407 1408
f 1336 1408 1409
f 1410 1336 1409
f 1410 1409 1411
f 1410 1411 1412
f 1410 1412 1413
f 1410 1413 1414
f 1410 1414 1415
f 1410 1415 1416
f 1410 1416 1417
f 1410 1417 1418
f 1419 1410 1418
f 1419 1418 1420
f 1419 1420 1421
f 1419 1421 1422
f 1419 1422 1423
f 1419 1423 1424
f 1425 1419 1424
f 1425 1424 1426
f 1425 1426 1427
f 1425 1427 1428
f 1425 1428 1429
f 1425 1429 1430
f 1425 1430 1431
f 1425 1431 1432
f 1433 1425 1432
f 1433 1432 1434
f 1433 1434 1435
f 1433 1435 1436
f 1433 1436 1437
f 1433 1437 1438
f 1433 1438 1439
f 1433 1439 1440
f 1433 1440 1441
f 1433 1441 1442
f 1433 1442 1443
f 1444 1433 1443
f 1445 1444 1443
f 1445 1446 1444
f 1445 1443 1447
f 1445 1447 1448
f 1445 1448 1449
f 1445 1449 1450
f 1445 1450 1451
f 1445 1451 1452
f 1445 1452 1453
f 1445 1453 1454
f 1445 1454 1455
f 1445 1455 1456
f 1445 1456 1457
f 1445 1457 1458
f 1445 1458 1459
f 1445 1459 1460
f 1445 1460 1461
f 1445 1461 1462
f 1311 1445 1462
f 1311 1462 1314
f 1446 1463 1444
f 1446 1464 1463
f 1446 1465 1464
f 1465 1466 1464
f 1465 1467 1466
f 1465 1468 1467
f 1465 1469 1468
f 1467 1468 1470
f 1467 1470 1471
f 1467 1471 1472
f 1467 1472 1473
f 1467 1473 1474
f 1467 1474 1475
f 1467 1475 1476
f 1467 1476 1477
f 1478 1467 1477
f 1478 1477 1479
f 1478 1479 1480
f 1478 1480 1481
f 1478 1481 1482
f 1478 1482 1483
f 1478 1483 1484
f 1478 1484 1485
f 1486 1478 1485
f 1486 1485 1487
f 1486 1487 1488
f 1486 1488 1489
f 1486 1489 1490
f 1486 1490 1491
f 1492 1486 1491
f 1492 1491 1493
f 1492 1493 1494
f 1492 1494 1495
f 1492 1495 1496
f 1492 1496 1497
f 1498 1492 1497
f 1498 1497 1499
f 1498 1499 1500
f 1498 1500 1501
f 1498 1501 1502
f 1498 1502 1503
f 1498 1503 1504
f 1498 1504 1505
f 1498 1505 1506
f 1507 1498 1506
f 1507 1506 1508
f 1507 1508 1509
f 1507 1509 1510
f 1507 1510 1511
f 1507 1511 1512
f 1513 1507 1512
f 1512 1514 1513
f 1514 1512 1515
f 1514 1516 1513
f 1516 1517 1513
f 1516 1518 1517
f 1516 1519 1518
f 1519 1520 1518
f 1519 1521 1520
f 1519 1522 1521
f 1522 1523 1521
f 1522 1524 1523
f 1524 1525 1523
f 1525 1526 1523
f 1525 1527 1526
f 1527 1528 1526
f 1528 1529 1526
f 1529 1530 1526
f 1530 1531 1526
f 1531 1532 1526
f 1532 1533 1526
f 1533 1534 1526
f 1534 1535 1526
f 1534 1536 1535
f 1536 1537 1535
f 1537 1538 1535
f 1538 1539 1535
f 1539 1540 1535
f 1539 1541 1540
f 1535 1540 1542
f 1535 1542 1543
f 1535 1543 1544
f 1535 1544 1545
f 1546 1535 1545
f 1546 1545 1547
f 1546 1547 1548
f 1546 1548 1549
f 1546 1549 1550
f 1546 1550 1551
f 1546 1551 1552
f 1546 1552 1553
f 1546 1553 1554
f 1546 1554 1555
f 1546 1555 1556
f 1546 1556 1557
f 1546 1557 1558
f 1546 1558 1559
f 1560 1546 1559
f 1560 1559 1561
f 1560 1561 1562
f 1560 1562 1563
f 1560 1563 1564
f 1560 1564 1565
f 1560 1565 1566
f 1560 1566 1567
f 1560 1567 1568
f 1560 1568 1569
f 1560 1569 1570
f 1560 1570 1571
f 1572 1560 1571
f 1572 1571 1573
f 1572 1573 1574
f 1572 1574 1575
f 1572 1575 1576
f 1572 1576 1577
f 1572 1577 1578
f 1572 1578 1579
f 1572 1579 1580
f 1572 1580 1581
f 1572 1581 1582
f 1583 1572 1582
f 1582 1584 1583
f 1585 1584 1582
f 1584 1586 1583
f 1586 1587 1583
f 1587 1588 1583
f 1587 1589 1588
f 1589 1590 1588
f 1589 1591 1590
f 1591 1592 1590
f 1591 1593 1592
f 1593 1594 1592
f 1594 1595 1592
f 1594 1596 1595
f 1596 1597 1595
f 1596 1598 1597
f 1598 1599 1597
f 1599 1600 1597
f 1599 1601 1600
f 1601 1602 1600
f 1601 1603 1602
f 1603 1604 1602
f 1603 1605 1604
f 1605 1606 1604
f 1605 1607 1606
f 1607 1608 1606
f 1608 1609 1606
f 1608 1610 1609
f 1610 1611 1609
f 1610 1612 1611
f 1612 1613 1611
f 1612 1614 1613
f 1614 1615 1613
f 1614 1616 1615
f 1616 1617 1615
f 1617 1618 1615
f 1618 1619 1615
f 1619 1620 1615
f 1620 1621 1615
f 1620 1622 1621
f 1622 1623 1621
f 1623 1624 1621
f 1624 1625 1621
f 1625 1626 1621
f 1626 1627 1621
f 1627 1628 1621
f 1628 1629 1621
f 1628 1630 1629
f 1630 1631 1629
f 1630 1632 1631
f 1632 1633 1631
f 1632 1634 1633
f 1634 1635 1633
f 1634 1636 1635
f 1636 1637 1635
f 1636 1638 1637
f 1638 1639 1637
f 1638 1640 1639
f 1640 1641 1639
f 1640 1642 1641
f 1642 1643 1641
f 1642 1644 1643
f 1644 1645 1643
f 1644 1646 1645
f 1644 1647 1646
f 1647 1648 1646
f 1647 1649 1648
f 1647 1650 1649
f 1650 1651 1649
f 1650 1652 1651
f 1650 1653 1652
f 1653 1654 1652
f 1653 1655 1654
f 1655 1656 1654
f 1585 1582 1657
f 1585 1657 1658
f 1585 1658 1659
f 1660 1585 1659
f 1660 1659 1661
f 1660 1661 1662
f 1660 1662 1663
f 1660 1663 1664
f 1665 1660 1664
f 1665 1664 1666
f 1665 1666 1667
f 1668 1665 1667
f 1668 1667 1669
f 1668 1669 1670
f 1671 1668 1670
f 1671 1670 1672
f 1671 1672 1673
f 1674 1671 1673
f 1674 1673 1675
f 1674 1675 1676
f 1677 1674 1676
f 1677 1676 1678
f 1679 1677 1678
f 1679 1678 1680
f 1679 1680 1681
f 1682 1679 1681
f 1682 1681 1683
f 1684 1682 1683
f 1684 1683 1685
f 1684 1685 1686
f 1687 1684 1686
f 1687 1686 1688
f 1689 1687 1688
f 1689 1688 1690
f 1689 1690 1691
f 1689 1691 1692
f 1689 1692 1693
f 1694 1689 1693
f 1694 1693 1695
f 1694 1695 1696
f 1694 1696 1697
f 1694 1697 1698
f 1541 1694 1698
f 1541 1698 1699
f 1541 1699 1700
f 1541 1700 1701
f 1541 1701 1702
f 1541 1702 1703
f 1541 1703 1704
f 1541 1704 1705
f 1541 1705 1540
f 1514 1515 1706
f 1514 1706 1707
f 1514 1707 1708
f 1514 1708 1709
f 1514 1709 1710
f 1514 1710 1711
f 1514 1711 1712
f 1514 1712 1713
f 1514 1713 1714
f 1514 1714 1715
f 1514 1715 1716
f 1514 1716 1717
f 1514 1717 1718
f 1514 1718 1719
f 1514 1719 1720
f 1721 1514 1720
f 1721 1720 1722
f 1721 1722 1723
f 1721 1723 1724
f 1721 1724 1725
f 1721 1725 1726
f 1721 1726 1727
f 1721 1727 1728
f 1721 1728 1729
f 1721 1729 1730
f 1721 1730 1731
f 1469 1721 1731
f 1469 1731 1732
f 1469 1732 1733
f 1469 1733 1734
f 1469 1734 1735
f 1469 1735 1736
f 1469 1736 1737
f 1469 1737 1738
f 1469 1738 1739
f 1469 1739 1740
f 1469 1740 1741
f 1469 1741 1742
f 1469 1742 1468
