1808 1816 0
v -0.0185826 -0.024357765 0.0046875
v -0.01858536 -0.02113365 0.0046875
v -0.01858887 -0.021091395 0.0046875
v -0.018579345 -0.021174105 0.0046875
v -0.018640065 -0.01892187 0.0046875
v -0.01858536 -0.021049125 0.0046875
v -0.018702495 -0.02444049 0.0046875
v -0.018776685 -0.01893621 0.0046875
v -0.01882512 -0.02452386 0.0046875
v -0.01891728 -0.018953625 0.0046875
v -0.018950445 -0.024607875 0.0046875
v -0.019062075 -0.01897458 0.0046875
v -0.0190785 -0.02469255 0.0046875
v -0.019211265 -0.01899948 0.0046875
v -0.019209285 -0.02477787 0.0046875
v -0.019313295 -0.0190185 0.0046875
v -0.019342785 -0.02486385 0.0046875
v -0.01941744 -0.01903959 0.0046875
v -0.019523775 -0.0190629 0.0046875
v -0.01963236 -0.019088535 0.0046875
v -0.019743255 -0.019116645 0.0046875
v -0.019748835 -0.02510853 0.0046875
v -0.01985652 -0.019147335 0.0046875
v -0.01997214 -0.01918056 0.0046875
v -0.02008986 -0.019215825 0.0046875
v -0.020156235 -0.025351575 0.0046875
v -0.020209665 -0.0192531 0.0046875
v -0.02033154 -0.019292355 0.0046875
v -0.0204555 -0.019333635 0.0046875
v -0.020565 -0.025592985 0.0046875
v -0.02058156 -0.019376895 0.0046875
v -0.02066562 -0.02262882 0.0046875
v -0.02070969 -0.01942218 0.0046875
v -0.02066913 -0.022671075 0.0046875
v -0.020675145 -0.02271153 0.0046875
v -0.020683665 -0.022750155 0.0046875
v -0.02069469 -0.02278695 0.0046875
v -0.02070822 -0.02282193 0.0046875
v -0.02072427 -0.02285508 0.0046875
v -0.02074281 -0.022886415 0.0046875
v -0.02076399 -0.02291601 0.0046875
v -0.02078868 -0.02294451 0.0046875
v -0.020816565 -0.022971705 0.0046875
v -0.020847045 -0.02299713 0.0046875
v -0.020879505 -0.02302035 0.0046875
v -0.02091333 -0.0230409 0.0046875
v -0.020947905 -0.023058375 0.0046875
v -0.0209751 -0.025832775 0.0046875
v -0.020982615 -0.02307231 0.0046875
v -0.021017955 -0.023082645 0.0046875
v -0.0210555 -0.02309001 0.0046875
v -0.02109456 -0.023094435 0.0046875
v -0.02113437 -0.023095905 0.0046875
v -0.021174195 -0.023094435 0.0046875
v -0.02121324 -0.02309001 0.0046875
v -0.021250785 -0.023082645 0.0046875
v -0.02128614 -0.02307231 0.0046875
v -0.02132085 -0.023058375 0.0046875
v -0.021355425 -0.0230409 0.0046875
v -0.021386565 -0.026070915 0.0046875
v -0.02138925 -0.02302035 0.0046875
v -0.02142171 -0.02299713 0.0046875
v -0.02145219 -0.022971705 0.0046875
v -0.021480075 -0.02294451 0.0046875
v -0.021504765 -0.02291601 0.0046875
v -0.02152593 -0.022886415 0.0046875
v -0.021544485 -0.02285508 0.0046875
v -0.021560535 -0.02282193 0.0046875
v -0.021574065 -0.02278695 0.0046875
v -0.02158509 -0.022750155 0.0046875
v -0.02159361 -0.02271153 0.0046875
v -0.021599625 -0.022671075 0.0046875
v -0.02160312 -0.02262882 0.0046875
v -0.021799425 -0.026307435 0.0046875
v -0.021664905 -0.01979517 0.0046875
v -0.021599625 -0.02258655 0.0046875
v -0.0218097 -0.01985646 0.0046875
v -0.02195658 -0.01991976 0.0046875
v -0.02210553 -0.019985055 0.0046875
v -0.022213635 -0.02654232 0.0046875
v -0.022256565 -0.02005236 0.0046875
v -0.022629225 -0.02677557 0.0046875
v -0.022715145 -0.02027139 0.0046875
v -0.022685625 -0.02680503 0.0046875
v -0.022744515 -0.02682963 0.0046875
v -0.0231753 -0.02048838 0.0046875
v -0.02280831 -0.02685381 0.0046875
v -0.02287179 -0.026875125 0.0046875
v -0.02293497 -0.026893575 0.0046875
v -0.02299785 -0.02690916 0.0046875
v -0.02306043 -0.026921895 0.0046875
v -0.02312268 -0.02693175 0.0046875
v -0.023184645 -0.026938755 0.0046875
v -0.023637045 -0.0207033 0.0046875
v -0.023246295 -0.026942895 0.0046875
v -0.023307645 -0.02694417 0.0046875
v -0.0233688 -0.02694261 0.0046875
v -0.02349057 -0.026930985 0.0046875
v -0.023611125 -0.026907915 0.0046875
v -0.023679885 -0.024166245 0.0046875
v -0.023683395 -0.024123975 0.0046875
v -0.023683395 -0.024208515 0.0046875
v -0.02368941 -0.024248955 0.0046875
v -0.02369793 -0.02428758 0.0046875
v -0.023708955 -0.024324375 0.0046875
v -0.023722485 -0.024359355 0.0046875
v -0.02372982 -0.02687325 0.0046875
v -0.023738535 -0.024392505 0.0046875
v -0.023757075 -0.02442384 0.0046875
v -0.023778255 -0.024453435 0.0046875
v -0.02378826 -0.02685153 0.0046875
v -0.023802945 -0.02448195 0.0046875
v -0.02383083 -0.02450913 0.0046875
v -0.023845995 -0.02682684 0.0046875
v -0.02386131 -0.024534555 0.0046875
v -0.02389377 -0.024557775 0.0046875
v -0.02390337 -0.026799015 0.0046875
v -0.02392758 -0.02457834 0.0046875
v -0.023960625 -0.026767965 0.0046875
v -0.023962155 -0.0245958 0.0046875
v -0.02399688 -0.024609735 0.0046875
v -0.024017535 -0.02673384 0.0046875
v -0.02403222 -0.02462007 0.0046875
v -0.024069765 -0.024627435 0.0046875
v -0.024073905 -0.02669679 0.0046875
v -0.024108825 -0.02463186 0.0046875
v -0.02412951 -0.02665698 0.0046875
v -0.024148635 -0.02463333 0.0046875
v -0.02418414 -0.026614575 0.0046875
v -0.024188445 -0.02463186 0.0046875
v -0.024227505 -0.024627435 0.0046875
v -0.0242376 -0.02656971 0.0046875
v -0.02426505 -0.02462007 0.0046875
v -0.02428965 -0.02652255 0.0046875
v -0.02430039 -0.024609735 0.0046875
v -0.024335115 -0.0245958 0.0046875
v -0.024340095 -0.02647326 0.0046875
v -0.02436969 -0.02457834 0.0046875
v -0.02438907 -0.02642172 0.0046875
v -0.024403515 -0.024557775 0.0046875
v -0.024435975 -0.024534555 0.0046875
v -0.02443686 -0.026367735 0.0046875
v -0.02446644 -0.02450913 0.0046875
v -0.02448348 -0.026311305 0.0046875
v -0.02449434 -0.02448195 0.0046875
v -0.02451903 -0.024453435 0.0046875
v -0.0245289 -0.026252415 0.0046875
v -0.024540195 -0.02442384 0.0046875
v -0.02455875 -0.024392505 0.0046875
v -0.024573135 -0.02619108 0.0046875
v -0.024574785 -0.024359355 0.0046875
v -0.02458833 -0.024324375 0.0046875
v -0.024599355 -0.02428758 0.0046875
v -0.024607875 -0.024248955 0.0046875
v -0.02461389 -0.024208515 0.0046875
v -0.0246162 -0.0261273 0.0046875
v -0.024617385 -0.024166245 0.0046875
v -0.024658065 -0.026061075 0.0046875
v -0.025031565 -0.021335565 0.0046875
v -0.024698745 -0.02599239 0.0046875
v -0.02461389 -0.024123975 0.0046875
v -0.024607875 -0.024083535 0.0046875
v -0.024599355 -0.02404491 0.0046875
v -0.02458833 -0.024008115 0.0046875
v -0.024574785 -0.023973135 0.0046875
v -0.024565185 -0.021126915 0.0046875
v -0.02455875 -0.023939985 0.0046875
v -0.024540195 -0.02390865 0.0046875
v -0.02451903 -0.02387904 0.0046875
v -0.02449434 -0.02385054 0.0046875
v -0.02446644 -0.02382336 0.0046875
v -0.024435975 -0.023797935 0.0046875
v -0.024403515 -0.023774715 0.0046875
v -0.02436969 -0.02375415 0.0046875
v -0.024335115 -0.02373669 0.0046875
v -0.02430039 -0.023722755 0.0046875
v -0.02426505 -0.02371242 0.0046875
v -0.024227505 -0.02370504 0.0046875
v -0.024188445 -0.02370063 0.0046875
v -0.024148635 -0.023699145 0.0046875
v -0.024108825 -0.02370063 0.0046875
v -0.024100365 -0.02091615 0.0046875
v -0.024069765 -0.02370504 0.0046875
v -0.02403222 -0.02371242 0.0046875
v -0.02399688 -0.023722755 0.0046875
v -0.023962155 -0.02373669 0.0046875
v -0.02392758 -0.02375415 0.0046875
v -0.02389377 -0.023774715 0.0046875
v -0.02386131 -0.023797935 0.0046875
v -0.02383083 -0.02382336 0.0046875
v -0.023802945 -0.02385054 0.0046875
v -0.023778255 -0.02387904 0.0046875
v -0.023757075 -0.02390865 0.0046875
v -0.023738535 -0.023939985 0.0046875
v -0.023722485 -0.023973135 0.0046875
v -0.023708955 -0.024008115 0.0046875
v -0.02369793 -0.02404491 0.0046875
v -0.02368941 -0.024083535 0.0046875
v -0.024738255 -0.02592126 0.0046875
v -0.025106085 -0.02136498 0.0046875
v -0.025178415 -0.021395865 0.0046875
v -0.02524857 -0.021428235 0.0046875
v -0.025316535 -0.021462075 0.0046875
v -0.025382325 -0.0214974 0.0046875
v -0.025445925 -0.02153421 0.0046875
v -0.02550735 -0.02157249 0.0046875
v -0.0255666 -0.021612255 0.0046875
v -0.025623645 -0.02165349 0.0046875
v -0.02567856 -0.02169624 0.0046875
v -0.025731615 -0.02174082 0.0046875
v -0.02578272 -0.02178717 0.0046875
v -0.02583177 -0.021835125 0.0046875
v -0.025878615 -0.02188452 0.0046875
v -0.02587971 -0.024010605 0.0046875
v -0.025923105 -0.021935205 0.0046875
v -0.02592372 -0.023943195 0.0046875
v -0.02596509 -0.021987015 0.0046875
v -0.02596509 -0.023875845 0.0046875
v -0.026004435 -0.0220398 0.0046875
v -0.02600382 -0.02380857 0.0046875
v -0.02603988 -0.023741355 0.0046875
v -0.026041005 -0.022093395 0.0046875
v -0.0260733 -0.023674215 0.0046875
v -0.0261054 -0.022202625 0.0046875
v -0.026104065 -0.02360712 0.0046875
v -0.02613219 -0.0235401 0.0046875
v -0.0261591 -0.022315875 0.0046875
v -0.02615766 -0.02347314 0.0046875
v -0.026180475 -0.02340624 0.0046875
v -0.026202285 -0.022433115 0.0046875
v -0.02620065 -0.023339355 0.0046875
v -0.026218215 -0.023272065 0.0046875
v -0.02623476 -0.022553805 0.0046875
v -0.02623317 -0.023204445 0.0046875
v -0.0262455 -0.023136705 0.0046875
v -0.02625636 -0.022677405 0.0046875
v -0.02625516 -0.023069085 0.0046875
v -0.02626215 -0.023001795 0.0046875
v -0.026266905 -0.02280399 0.0046875
v -0.026266455 -0.02293503 0.0046875
v -0.026268045 -0.02286903 0.0046875
v -0.02159361 -0.02254611 0.0046875
v -0.02158509 -0.022507485 0.0046875
v -0.021574065 -0.02247069 0.0046875
v -0.021560535 -0.02243571 0.0046875
v -0.021544485 -0.022402545 0.0046875
v -0.02152593 -0.022371225 0.0046875
v -0.021522195 -0.019735875 0.0046875
v -0.021504765 -0.022341615 0.0046875
v -0.021480075 -0.022313115 0.0046875
v -0.02145219 -0.022285935 0.0046875
v -0.02142171 -0.02226051 0.0046875
v -0.02138925 -0.02223729 0.0046875
v -0.02138157 -0.01967859 0.0046875
v -0.021355425 -0.022216725 0.0046875
v -0.02132085 -0.022199265 0.0046875
v -0.02128614 -0.02218533 0.0046875
v -0.021250785 -0.022174995 0.0046875
v -0.02124303 -0.0196233 0.0046875
v -0.02121324 -0.022167615 0.0046875
v -0.021174195 -0.02216319 0.0046875
v -0.02113437 -0.02216172 0.0046875
v -0.021106575 -0.01957002 0.0046875
v -0.02109456 -0.02216319 0.0046875
v -0.0210555 -0.022167615 0.0046875
v -0.021017955 -0.022174995 0.0046875
v -0.020982615 -0.02218533 0.0046875
v -0.02097219 -0.019518735 0.0046875
v -0.020947905 -0.022199265 0.0046875
v -0.02091333 -0.022216725 0.0046875
v -0.020879505 -0.02223729 0.0046875
v -0.020847045 -0.02226051 0.0046875
v -0.02083989 -0.01946946 0.0046875
v -0.020816565 -0.022285935 0.0046875
v -0.02078868 -0.022313115 0.0046875
v -0.02076399 -0.022341615 0.0046875
v -0.02074281 -0.022371225 0.0046875
v -0.02072427 -0.022402545 0.0046875
v -0.02070822 -0.02243571 0.0046875
v -0.02069469 -0.02247069 0.0046875
v -0.020683665 -0.022507485 0.0046875
v -0.020675145 -0.02254611 0.0046875
v -0.02066913 -0.02258655 0.0046875
v -0.018579345 -0.021008685 0.0046875
v -0.018570825 -0.02097006 0.0046875
v -0.0185598 -0.02093325 0.0046875
v -0.01854627 -0.020898285 0.0046875
v -0.01853022 -0.02086512 0.0046875
v -0.01851168 -0.020833785 0.0046875
v -0.01850721 -0.018910185 0.0046875
v -0.0184905 -0.02080419 0.0046875
v -0.01846581 -0.02077569 0.0046875
v -0.018437925 -0.02074851 0.0046875
v -0.018407445 -0.020723085 0.0046875
v -0.018377895 -0.01890072 0.0046875
v -0.018374985 -0.020699865 0.0046875
v -0.01834116 -0.0206793 0.0046875
v -0.018306585 -0.020661825 0.0046875
v -0.018271875 -0.020647905 0.0046875
v -0.01825191 -0.018893055 0.0046875
v -0.01823652 -0.02063757 0.0046875
v -0.01819899 -0.02063019 0.0046875
v -0.01815993 -0.020625765 0.0046875
v -0.018129165 -0.018886965 0.0046875
v -0.01812012 -0.020624295 0.0046875
v -0.018080295 -0.020625765 0.0046875
v -0.01804125 -0.02063019 0.0046875
v -0.018010635 -0.01888422 0.0046875
v -0.018003705 -0.02063757 0.0046875
v -0.01796835 -0.020647905 0.0046875
v -0.01793364 -0.020661825 0.0046875
v -0.017899065 -0.0206793 0.0046875
v -0.01789641 -0.01888503 0.0046875
v -0.01786524 -0.020699865 0.0046875
v -0.01783278 -0.020723085 0.0046875
v -0.0178023 -0.02074851 0.0046875
v -0.01778631 -0.018889095 0.0046875
v -0.017774415 -0.02077569 0.0046875
v -0.017749725 -0.02080419 0.0046875
v -0.017728545 -0.020833785 0.0046875
v -0.017710005 -0.02086512 0.0046875
v -0.017693955 -0.020898285 0.0046875
v -0.017680425 -0.02093325 0.0046875
v -0.01768014 -0.01889613 0.0046875
v -0.0176694 -0.02097006 0.0046875
v -0.01766088 -0.021008685 0.0046875
v -0.017654865 -0.021049125 0.0046875
v -0.01765137 -0.021091395 0.0046875
v -0.01757772 -0.018905805 0.0046875
v -0.01762599 -0.02364252 0.0046875
v -0.017533305 -0.023566305 0.0046875
v -0.017654865 -0.02113365 0.0046875
v -0.01766088 -0.021174105 0.0046875
v -0.0176694 -0.021212715 0.0046875
v -0.017680425 -0.021249525 0.0046875
v -0.017693955 -0.021284505 0.0046875
v -0.017710005 -0.021317655 0.0046875
v -0.017721405 -0.023719395 0.0046875
v -0.017728545 -0.02134899 0.0046875
v -0.017749725 -0.021378585 0.0046875
v -0.017774415 -0.021407085 0.0046875
v -0.0178023 -0.02143428 0.0046875
v -0.01781952 -0.023796915 0.0046875
v -0.01783278 -0.021459705 0.0046875
v -0.01786524 -0.02148291 0.0046875
v -0.017899065 -0.021503475 0.0046875
v -0.01792038 -0.02387508 0.0046875
v -0.01793364 -0.02152095 0.0046875
v -0.01796835 -0.02153487 0.0046875
v -0.018003705 -0.02154522 0.0046875
v -0.01802394 -0.023953905 0.0046875
v -0.01804125 -0.021552585 0.0046875
v -0.018080295 -0.02155701 0.0046875
v -0.01812012 -0.02155848 0.0046875
v -0.018130245 -0.024033375 0.0046875
v -0.01815993 -0.02155701 0.0046875
v -0.01819899 -0.021552585 0.0046875
v -0.01823652 -0.02154522 0.0046875
v -0.01823925 -0.024113505 0.0046875
v -0.018271875 -0.02153487 0.0046875
v -0.018306585 -0.02152095 0.0046875
v -0.01834116 -0.021503475 0.0046875
v -0.018350985 -0.024194265 0.0046875
v -0.018374985 -0.02148291 0.0046875
v -0.018407445 -0.021459705 0.0046875
v -0.018437925 -0.02143428 0.0046875
v -0.018465435 -0.0242757 0.0046875
v -0.01846581 -0.021407085 0.0046875
v -0.0184905 -0.021378585 0.0046875
v -0.01851168 -0.02134899 0.0046875
v -0.01853022 -0.021317655 0.0046875
v -0.01854627 -0.021284505 0.0046875
v -0.0185598 -0.021249525 0.0046875
v -0.018570825 -0.021212715 0.0046875
v -0.017478855 -0.018917865 0.0046875
v -0.017443335 -0.023490735 0.0046875
v -0.017383365 -0.01893198 0.0046875
v -0.017356125 -0.02341581 0.0046875
v -0.017291055 -0.018947865 0.0046875
v -0.01723152 -0.02330454 0.0046875
v -0.01720173 -0.01896522 0.0046875
v -0.01711431 -0.023194635 0.0046875
v -0.017115225 -0.018983745 0.0046875
v -0.017031345 -0.019003155 0.0046875
v -0.01700403 -0.023086125 0.0046875
v -0.01695015 -0.01902348 0.0046875
v -0.016900215 -0.022979055 0.0046875
v -0.016872585 -0.019045875 0.0046875
v -0.0168024 -0.022873455 0.0046875
v -0.016798575 -0.019070325 0.0046875
v -0.016710105 -0.02276937 0.0046875
v -0.016727895 -0.019096635 0.0046875
v -0.016660395 -0.01912464 0.0046875
v -0.01662288 -0.02266683 0.0046875
v -0.01659585 -0.019154145 0.0046875
v -0.016540245 -0.02256588 0.0046875
v -0.016534095 -0.019185 0.0046875
v -0.016461735 -0.022466565 0.0046875
v -0.016474905 -0.019216995 0.0046875
v -0.0164181 -0.019249965 0.0046875
v -0.01638687 -0.022368915 0.0046875
v -0.0163635 -0.01928373 0.0046875
v -0.0163152 -0.022272975 0.0046875
v -0.016310895 -0.019318125 0.0046875
v -0.0162465 -0.022178775 0.0046875
v -0.016260105 -0.01935294 0.0046875
v -0.016211355 -0.01938828 0.0046875
v -0.01618272 -0.022086255 0.0046875
v -0.016165335 -0.019424565 0.0046875
v -0.0161241 -0.021995385 0.0046875
v -0.016121955 -0.01946178 0.0046875
v -0.016070295 -0.021906165 0.0046875
v -0.01608105 -0.01949994 0.0046875
v -0.016042515 -0.019539015 0.0046875
v -0.016020945 -0.02181855 0.0046875
v -0.016006185 -0.01957902 0.0046875
v -0.01597572 -0.021732555 0.0046875
v -0.01597194 -0.01961994 0.0046875
v -0.01593426 -0.021648165 0.0046875
v -0.015939645 -0.01966176 0.0046875
v -0.01590915 -0.019704465 0.0046875
v -0.015896235 -0.02156535 0.0046875
v -0.015880335 -0.01974807 0.0046875
v -0.01586127 -0.02148411 0.0046875
v -0.015853035 -0.019792545 0.0046875
v -0.01582905 -0.021404415 0.0046875
v -0.015827145 -0.019837875 0.0046875
v -0.015799215 -0.021326265 0.0046875
v -0.015802695 -0.019883925 0.0046875
v -0.015779895 -0.019930575 0.0046875
v -0.015771435 -0.021249645 0.0046875
v -0.015758805 -0.01997793 0.0046875
v -0.015745755 -0.021174585 0.0046875
v -0.01573944 -0.020026095 0.0046875
v -0.015723585 -0.021101325 0.0046875
v -0.01572189 -0.02007516 0.0046875
v -0.015704865 -0.02102979 0.0046875
v -0.015706185 -0.020125215 0.0046875
v -0.0156924 -0.020176365 0.0046875
v -0.015689385 -0.02095992 0.0046875
v -0.015680565 -0.0202287 0.0046875
v -0.01567689 -0.020891625 0.0046875
v -0.01567074 -0.020282325 0.0046875
v -0.01566717 -0.02082486 0.0046875
v -0.015662985 -0.02033733 0.0046875
v -0.01565997 -0.02075952 0.0046875
v -0.015657345 -0.020393805 0.0046875
v -0.01565508 -0.02069556 0.0046875
v -0.01565385 -0.020451855 0.0046875
v -0.015652245 -0.020632875 0.0046875
v -0.01565187 -0.020511105 0.0046875
v -0.015651255 -0.02057142 0.0046875
v -0.01858887 -0.021091395 -0.0028125
v -0.01858887 -0.021091395 0.0046875
v -0.01858536 -0.02113365 0.0046875
v -0.01858536 -0.021049125 -0.0028125
v -0.01858536 -0.02113365 -0.0028125
v -0.018579345 -0.021174105 0.0046875
v -0.018579345 -0.021174105 -0.0028125
v -0.018570825 -0.021212715 0.0046875
v -0.018570825 -0.021212715 -0.0028125
v -0.0185598 -0.021249525 0.0046875
v -0.0185598 -0.021249525 -0.0028125
v -0.01854627 -0.021284505 0.0046875
v -0.01854627 -0.021284505 -0.0028125
v -0.01853022 -0.021317655 0.0046875
v -0.01853022 -0.021317655 -0.0028125
v -0.01851168 -0.02134899 0.0046875
v -0.01851168 -0.02134899 -0.0028125
v -0.0184905 -0.021378585 0.0046875
v -0.0184905 -0.021378585 -0.0028125
v -0.01846581 -0.021407085 0.0046875
v -0.01846581 -0.021407085 -0.0028125
v -0.018437925 -0.02143428 0.0046875
v -0.018437925 -0.02143428 -0.0028125
v -0.018407445 -0.021459705 0.0046875
v -0.018407445 -0.021459705 -0.0028125
v -0.018374985 -0.02148291 0.0046875
v -0.018374985 -0.02148291 -0.0028125
v -0.01834116 -0.021503475 0.0046875
v -0.01834116 -0.021503475 -0.0028125
v -0.018306585 -0.02152095 0.0046875
v -0.018306585 -0.02152095 -0.0028125
v -0.018271875 -0.02153487 0.0046875
v -0.018271875 -0.02153487 -0.0028125
v -0.01823652 -0.02154522 0.0046875
v -0.01823652 -0.02154522 -0.0028125
v -0.01819899 -0.021552585 0.0046875
v -0.01819899 -0.021552585 -0.0028125
v -0.01815993 -0.02155701 0.0046875
v -0.01815993 -0.02155701 -0.0028125
v -0.01812012 -0.02155848 0.0046875
v -0.01812012 -0.02155848 -0.0028125
v -0.018080295 -0.02155701 0.0046875
v -0.018080295 -0.02155701 -0.0028125
v -0.01804125 -0.021552585 0.0046875
v -0.01804125 -0.021552585 -0.0028125
v -0.018003705 -0.02154522 0.0046875
v -0.018003705 -0.02154522 -0.0028125
v -0.01796835 -0.02153487 0.0046875
v -0.01796835 -0.02153487 -0.0028125
v -0.01793364 -0.02152095 0.0046875
v -0.01793364 -0.02152095 -0.0028125
v -0.017899065 -0.021503475 0.0046875
v -0.017899065 -0.021503475 -0.0028125
v -0.01786524 -0.02148291 0.0046875
v -0.01786524 -0.02148291 -0.0028125
v -0.01783278 -0.021459705 0.0046875
v -0.01783278 -0.021459705 -0.0028125
v -0.0178023 -0.02143428 0.0046875
v -0.0178023 -0.02143428 -0.0028125
v -0.017774415 -0.021407085 0.0046875
v -0.017774415 -0.021407085 -0.0028125
v -0.017749725 -0.021378585 0.0046875
v -0.017749725 -0.021378585 -0.0028125
v -0.017728545 -0.02134899 0.0046875
v -0.017728545 -0.02134899 -0.0028125
v -0.017710005 -0.021317655 0.0046875
v -0.017710005 -0.021317655 -0.0028125
v -0.017693955 -0.021284505 0.0046875
v -0.017693955 -0.021284505 -0.0028125
v -0.017680425 -0.021249525 0.0046875
v -0.017680425 -0.021249525 -0.0028125
v -0.0176694 -0.021212715 0.0046875
v -0.0176694 -0.021212715 -0.0028125
v -0.01766088 -0.021174105 0.0046875
v -0.01766088 -0.021174105 -0.0028125
v -0.017654865 -0.02113365 0.0046875
v -0.017654865 -0.02113365 -0.0028125
v -0.01765137 -0.021091395 0.0046875
v -0.01765137 -0.021091395 -0.0028125
v -0.017654865 -0.021049125 0.0046875
v -0.017654865 -0.021049125 -0.0028125
v -0.01766088 -0.021008685 0.0046875
v -0.01766088 -0.021008685 -0.0028125
v -0.0176694 -0.02097006 0.0046875
v -0.0176694 -0.02097006 -0.0028125
v -0.017680425 -0.02093325 0.0046875
v -0.017680425 -0.02093325 -0.0028125
v -0.017693955 -0.020898285 0.0046875
v -0.017693955 -0.020898285 -0.0028125
v -0.017710005 -0.02086512 0.0046875
v -0.017710005 -0.02086512 -0.0028125
v -0.017728545 -0.020833785 0.0046875
v -0.017728545 -0.020833785 -0.0028125
v -0.017749725 -0.02080419 0.0046875
v -0.017749725 -0.02080419 -0.0028125
v -0.017774415 -0.02077569 0.0046875
v -0.017774415 -0.02077569 -0.0028125
v -0.0178023 -0.02074851 0.0046875
v -0.0178023 -0.02074851 -0.0028125
v -0.01783278 -0.020723085 0.0046875
v -0.01783278 -0.020723085 -0.0028125
v -0.01786524 -0.020699865 0.0046875
v -0.01786524 -0.020699865 -0.0028125
v -0.017899065 -0.0206793 0.0046875
v -0.017899065 -0.0206793 -0.0028125
v -0.01793364 -0.020661825 0.0046875
v -0.01793364 -0.020661825 -0.0028125
v -0.01796835 -0.020647905 0.0046875
v -0.01796835 -0.020647905 -0.0028125
v -0.018003705 -0.02063757 0.0046875
v -0.018003705 -0.02063757 -0.0028125
v -0.01804125 -0.02063019 0.0046875
v -0.01804125 -0.02063019 -0.0028125
v -0.018080295 -0.020625765 0.0046875
v -0.018080295 -0.020625765 -0.0028125
v -0.01812012 -0.020624295 0.0046875
v -0.01812012 -0.020624295 -0.0028125
v -0.01815993 -0.020625765 0.0046875
v -0.01815993 -0.020625765 -0.0028125
v -0.01819899 -0.02063019 0.0046875
v -0.01819899 -0.02063019 -0.0028125
v -0.01823652 -0.02063757 0.0046875
v -0.01823652 -0.02063757 -0.0028125
v -0.018271875 -0.020647905 0.0046875
v -0.018271875 -0.020647905 -0.0028125
v -0.018306585 -0.020661825 0.0046875
v -0.018306585 -0.020661825 -0.0028125
v -0.01834116 -0.0206793 0.0046875
v -0.01834116 -0.0206793 -0.0028125
v -0.018374985 -0.020699865 0.0046875
v -0.018374985 -0.020699865 -0.0028125
v -0.018407445 -0.020723085 0.0046875
v -0.018407445 -0.020723085 -0.0028125
v -0.018437925 -0.02074851 0.0046875
v -0.018437925 -0.02074851 -0.0028125
v -0.01846581 -0.02077569 0.0046875
v -0.01846581 -0.02077569 -0.0028125
v -0.0184905 -0.02080419 0.0046875
v -0.0184905 -0.02080419 -0.0028125
v -0.01851168 -0.020833785 0.0046875
v -0.01851168 -0.020833785 -0.0028125
v -0.01853022 -0.02086512 0.0046875
v -0.01853022 -0.02086512 -0.0028125
v -0.01854627 -0.020898285 0.0046875
v -0.01854627 -0.020898285 -0.0028125
v -0.0185598 -0.02093325 0.0046875
v -0.0185598 -0.02093325 -0.0028125
v -0.018570825 -0.02097006 0.0046875
v -0.018570825 -0.02097006 -0.0028125
v -0.018579345 -0.021008685 0.0046875
v -0.018579345 -0.021008685 -0.0028125
v -0.01858536 -0.021049125 0.0046875
v -0.02160312 -0.02262882 -0.0028125
v -0.02160312 -0.02262882 0.0046875
v -0.021599625 -0.022671075 0.0046875
v -0.021599625 -0.02258655 -0.0028125
v -0.021599625 -0.022671075 -0.0028125
v -0.02159361 -0.02271153 0.0046875
v -0.02159361 -0.02271153 -0.0028125
v -0.02158509 -0.022750155 0.0046875
v -0.02158509 -0.022750155 -0.0028125
v -0.021574065 -0.02278695 0.0046875
v -0.021574065 -0.02278695 -0.0028125
v -0.021560535 -0.02282193 0.0046875
v -0.021560535 -0.02282193 -0.0028125
v -0.021544485 -0.02285508 0.0046875
v -0.021544485 -0.02285508 -0.0028125
v -0.02152593 -0.022886415 0.0046875
v -0.02152593 -0.022886415 -0.0028125
v -0.021504765 -0.02291601 0.0046875
v -0.021504765 -0.02291601 -0.0028125
v -0.021480075 -0.02294451 0.0046875
v -0.021480075 -0.02294451 -0.0028125
v -0.02145219 -0.022971705 0.0046875
v -0.02145219 -0.022971705 -0.0028125
v -0.02142171 -0.02299713 0.0046875
v -0.02142171 -0.02299713 -0.0028125
v -0.02138925 -0.02302035 0.0046875
v -0.02138925 -0.02302035 -0.0028125
v -0.021355425 -0.0230409 0.0046875
v -0.021355425 -0.0230409 -0.0028125
v -0.02132085 -0.023058375 0.0046875
v -0.02132085 -0.023058375 -0.0028125
v -0.02128614 -0.02307231 0.0046875
v -0.02128614 -0.02307231 -0.0028125
v -0.021250785 -0.023082645 0.0046875
v -0.021250785 -0.023082645 -0.0028125
v -0.02121324 -0.02309001 0.0046875
v -0.02121324 -0.02309001 -0.0028125
v -0.021174195 -0.023094435 0.0046875
v -0.021174195 -0.023094435 -0.0028125
v -0.02113437 -0.023095905 0.0046875
v -0.02113437 -0.023095905 -0.0028125
v -0.02109456 -0.023094435 0.0046875
v -0.02109456 -0.023094435 -0.0028125
v -0.0210555 -0.02309001 0.0046875
v -0.0210555 -0.02309001 -0.0028125
v -0.021017955 -0.023082645 0.0046875
v -0.021017955 -0.023082645 -0.0028125
v -0.020982615 -0.02307231 0.0046875
v -0.020982615 -0.02307231 -0.0028125
v -0.020947905 -0.023058375 0.0046875
v -0.020947905 -0.023058375 -0.0028125
v -0.02091333 -0.0230409 0.0046875
v -0.02091333 -0.0230409 -0.0028125
v -0.020879505 -0.02302035 0.0046875
v -0.020879505 -0.02302035 -0.0028125
v -0.020847045 -0.02299713 0.0046875
v -0.020847045 -0.02299713 -0.0028125
v -0.020816565 -0.022971705 0.0046875
v -0.020816565 -0.022971705 -0.0028125
v -0.02078868 -0.02294451 0.0046875
v -0.02078868 -0.02294451 -0.0028125
v -0.02076399 -0.02291601 0.0046875
v -0.02076399 -0.02291601 -0.0028125
v -0.02074281 -0.022886415 0.0046875
v -0.02074281 -0.022886415 -0.0028125
v -0.02072427 -0.02285508 0.0046875
v -0.02072427 -0.02285508 -0.0028125
v -0.02070822 -0.02282193 0.0046875
v -0.02070822 -0.02282193 -0.0028125
v -0.02069469 -0.02278695 0.0046875
v -0.02069469 -0.02278695 -0.0028125
v -0.020683665 -0.022750155 0.0046875
v -0.020683665 -0.022750155 -0.0028125
v -0.020675145 -0.02271153 0.0046875
v -0.020675145 -0.02271153 -0.0028125
v -0.02066913 -0.022671075 0.0046875
v -0.02066913 -0.022671075 -0.0028125
v -0.02066562 -0.02262882 0.0046875
v -0.02066562 -0.02262882 -0.0028125
v -0.02066913 -0.02258655 0.0046875
v -0.02066913 -0.02258655 -0.0028125
v -0.020675145 -0.02254611 0.0046875
v -0.020675145 -0.02254611 -0.0028125
v -0.020683665 -0.022507485 0.0046875
v -0.020683665 -0.022507485 -0.0028125
v -0.02069469 -0.02247069 0.0046875
v -0.02069469 -0.02247069 -0.0028125
v -0.02070822 -0.02243571 0.0046875
v -0.02070822 -0.02243571 -0.0028125
v -0.02072427 -0.022402545 0.0046875
v -0.02072427 -0.022402545 -0.0028125
v -0.02074281 -0.022371225 0.0046875
v -0.02074281 -0.022371225 -0.0028125
v -0.02076399 -0.022341615 0.0046875
v -0.02076399 -0.022341615 -0.0028125
v -0.02078868 -0.022313115 0.0046875
v -0.02078868 -0.022313115 -0.0028125
v -0.020816565 -0.022285935 0.0046875
v -0.020816565 -0.022285935 -0.0028125
v -0.020847045 -0.02226051 0.0046875
v -0.020847045 -0.02226051 -0.0028125
v -0.020879505 -0.02223729 0.0046875
v -0.020879505 -0.02223729 -0.0028125
v -0.02091333 -0.022216725 0.0046875
v -0.02091333 -0.022216725 -0.0028125
v -0.020947905 -0.022199265 0.0046875
v -0.020947905 -0.022199265 -0.0028125
v -0.020982615 -0.02218533 0.0046875
v -0.020982615 -0.02218533 -0.0028125
v -0.021017955 -0.022174995 0.0046875
v -0.021017955 -0.022174995 -0.0028125
v -0.0210555 -0.022167615 0.0046875
v -0.0210555 -0.022167615 -0.0028125
v -0.02109456 -0.02216319 0.0046875
v -0.02109456 -0.02216319 -0.0028125
v -0.02113437 -0.02216172 0.0046875
v -0.02113437 -0.02216172 -0.0028125
v -0.021174195 -0.02216319 0.0046875
v -0.021174195 -0.02216319 -0.0028125
v -0.02121324 -0.022167615 0.0046875
v -0.02121324 -0.022167615 -0.0028125
v -0.021250785 -0.022174995 0.0046875
v -0.021250785 -0.022174995 -0.0028125
v -0.02128614 -0.02218533 0.0046875
v -0.02128614 -0.02218533 -0.0028125
v -0.02132085 -0.022199265 0.0046875
v -0.02132085 -0.022199265 -0.0028125
v -0.021355425 -0.022216725 0.0046875
v -0.021355425 -0.022216725 -0.0028125
v -0.02138925 -0.02223729 0.0046875
v -0.02138925 -0.02223729 -0.0028125
v -0.02142171 -0.02226051 0.0046875
v -0.02142171 -0.02226051 -0.0028125
v -0.02145219 -0.022285935 0.0046875
v -0.02145219 -0.022285935 -0.0028125
v -0.021480075 -0.022313115 0.0046875
v -0.021480075 -0.022313115 -0.0028125
v -0.021504765 -0.022341615 0.0046875
v -0.021504765 -0.022341615 -0.0028125
v -0.02152593 -0.022371225 0.0046875
v -0.02152593 -0.022371225 -0.0028125
v -0.021544485 -0.022402545 0.0046875
v -0.021544485 -0.022402545 -0.0028125
v -0.021560535 -0.02243571 0.0046875
v -0.021560535 -0.02243571 -0.0028125
v -0.021574065 -0.02247069 0.0046875
v -0.021574065 -0.02247069 -0.0028125
v -0.02158509 -0.022507485 0.0046875
v -0.02158509 -0.022507485 -0.0028125
v -0.02159361 -0.02254611 0.0046875
v -0.02159361 -0.02254611 -0.0028125
v -0.021599625 -0.02258655 0.0046875
v -0.024617385 -0.024166245 -0.0028125
v -0.024617385 -0.024166245 0.0046875
v -0.02461389 -0.024208515 0.0046875
v -0.02461389 -0.024123975 -0.0028125
v -0.02461389 -0.024208515 -0.0028125
v -0.024607875 -0.024248955 0.0046875
v -0.024607875 -0.024248955 -0.0028125
v -0.024599355 -0.02428758 0.0046875
v -0.024599355 -0.02428758 -0.0028125
v -0.02458833 -0.024324375 0.0046875
v -0.02458833 -0.024324375 -0.0028125
v -0.024574785 -0.024359355 0.0046875
v -0.024574785 -0.024359355 -0.0028125
v -0.02455875 -0.024392505 0.0046875
v -0.02455875 -0.024392505 -0.0028125
v -0.024540195 -0.02442384 0.0046875
v -0.024540195 -0.02442384 -0.0028125
v -0.02451903 -0.024453435 0.0046875
v -0.02451903 -0.024453435 -0.0028125
v -0.02449434 -0.02448195 0.0046875
v -0.02449434 -0.02448195 -0.0028125
v -0.02446644 -0.02450913 0.0046875
v -0.02446644 -0.02450913 -0.0028125
v -0.024435975 -0.024534555 0.0046875
v -0.024435975 -0.024534555 -0.0028125
v -0.024403515 -0.024557775 0.0046875
v -0.024403515 -0.024557775 -0.0028125
v -0.02436969 -0.02457834 0.0046875
v -0.02436969 -0.02457834 -0.0028125
v -0.024335115 -0.0245958 0.0046875
v -0.024335115 -0.0245958 -0.0028125
v -0.02430039 -0.024609735 0.0046875
v -0.02430039 -0.024609735 -0.0028125
v -0.02426505 -0.02462007 0.0046875
v -0.02426505 -0.02462007 -0.0028125
v -0.024227505 -0.024627435 0.0046875
v -0.024227505 -0.024627435 -0.0028125
v -0.024188445 -0.02463186 0.0046875
v -0.024188445 -0.02463186 -0.0028125
v -0.024148635 -0.02463333 0.0046875
v -0.024148635 -0.02463333 -0.0028125
v -0.024108825 -0.02463186 0.0046875
v -0.024108825 -0.02463186 -0.0028125
v -0.024069765 -0.024627435 0.0046875
v -0.024069765 -0.024627435 -0.0028125
v -0.02403222 -0.02462007 0.0046875
v -0.02403222 -0.02462007 -0.0028125
v -0.02399688 -0.024609735 0.0046875
v -0.02399688 -0.024609735 -0.0028125
v -0.023962155 -0.0245958 0.0046875
v -0.023962155 -0.0245958 -0.0028125
v -0.02392758 -0.02457834 0.0046875
v -0.02392758 -0.02457834 -0.0028125
v -0.02389377 -0.024557775 0.0046875
v -0.02389377 -0.024557775 -0.0028125
v -0.02386131 -0.024534555 0.0046875
v -0.02386131 -0.024534555 -0.0028125
v -0.02383083 -0.02450913 0.0046875
v -0.02383083 -0.02450913 -0.0028125
v -0.023802945 -0.02448195 0.0046875
v -0.023802945 -0.02448195 -0.0028125
v -0.023778255 -0.024453435 0.0046875
v -0.023778255 -0.024453435 -0.0028125
v -0.023757075 -0.02442384 0.0046875
v -0.023757075 -0.02442384 -0.0028125
v -0.023738535 -0.024392505 0.0046875
v -0.023738535 -0.024392505 -0.0028125
v -0.023722485 -0.024359355 0.0046875
v -0.023722485 -0.024359355 -0.0028125
v -0.023708955 -0.024324375 0.0046875
v -0.023708955 -0.024324375 -0.0028125
v -0.02369793 -0.02428758 0.0046875
v -0.02369793 -0.02428758 -0.0028125
v -0.02368941 -0.024248955 0.0046875
v -0.02368941 -0.024248955 -0.0028125
v -0.023683395 -0.024208515 0.0046875
v -0.023683395 -0.024208515 -0.0028125
v -0.023679885 -0.024166245 0.0046875
v -0.023679885 -0.024166245 -0.0028125
v -0.023683395 -0.024123975 0.0046875
v -0.023683395 -0.024123975 -0.0028125
v -0.02368941 -0.024083535 0.0046875
v -0.02368941 -0.024083535 -0.0028125
v -0.02369793 -0.02404491 0.0046875
v -0.02369793 -0.02404491 -0.0028125
v -0.023708955 -0.024008115 0.0046875
v -0.023708955 -0.024008115 -0.0028125
v -0.023722485 -0.023973135 0.0046875
v -0.023722485 -0.023973135 -0.0028125
v -0.023738535 -0.023939985 0.0046875
v -0.023738535 -0.023939985 -0.0028125
v -0.023757075 -0.02390865 0.0046875
v -0.023757075 -0.02390865 -0.0028125
v -0.023778255 -0.02387904 0.0046875
v -0.023778255 -0.02387904 -0.0028125
v -0.023802945 -0.02385054 0.0046875
v -0.023802945 -0.02385054 -0.0028125
v -0.02383083 -0.02382336 0.0046875
v -0.02383083 -0.02382336 -0.0028125
v -0.02386131 -0.023797935 0.0046875
v -0.02386131 -0.023797935 -0.0028125
v -0.02389377 -0.023774715 0.0046875
v -0.02389377 -0.023774715 -0.0028125
v -0.02392758 -0.02375415 0.0046875
v -0.02392758 -0.02375415 -0.0028125
v -0.023962155 -0.02373669 0.0046875
v -0.023962155 -0.02373669 -0.0028125
v -0.02399688 -0.023722755 0.0046875
v -0.02399688 -0.023722755 -0.0028125
v -0.02403222 -0.02371242 0.0046875
v -0.02403222 -0.02371242 -0.0028125
v -0.024069765 -0.02370504 0.0046875
v -0.024069765 -0.02370504 -0.0028125
v -0.024108825 -0.02370063 0.0046875
v -0.024108825 -0.02370063 -0.0028125
v -0.024148635 -0.023699145 0.0046875
v -0.024148635 -0.023699145 -0.0028125
v -0.024188445 -0.02370063 0.0046875
v -0.024188445 -0.02370063 -0.0028125
v -0.024227505 -0.02370504 0.0046875
v -0.024227505 -0.02370504 -0.0028125
v -0.02426505 -0.02371242 0.0046875
v -0.02426505 -0.02371242 -0.0028125
v -0.02430039 -0.023722755 0.0046875
v -0.02430039 -0.023722755 -0.0028125
v -0.024335115 -0.02373669 0.0046875
v -0.024335115 -0.02373669 -0.0028125
v -0.02436969 -0.02375415 0.0046875
v -0.02436969 -0.02375415 -0.0028125
v -0.024403515 -0.023774715 0.0046875
v -0.024403515 -0.023774715 -0.0028125
v -0.024435975 -0.023797935 0.0046875
v -0.024435975 -0.023797935 -0.0028125
v -0.02446644 -0.02382336 0.0046875
v -0.02446644 -0.02382336 -0.0028125
v -0.02449434 -0.02385054 0.0046875
v -0.02449434 -0.02385054 -0.0028125
v -0.02451903 -0.02387904 0.0046875
v -0.02451903 -0.02387904 -0.0028125
v -0.024540195 -0.02390865 0.0046875
v -0.024540195 -0.02390865 -0.0028125
v -0.02455875 -0.023939985 0.0046875
v -0.02455875 -0.023939985 -0.0028125
v -0.024574785 -0.023973135 0.0046875
v -0.024574785 -0.023973135 -0.0028125
v -0.02458833 -0.024008115 0.0046875
v -0.02458833 -0.024008115 -0.0028125
v -0.024599355 -0.02404491 0.0046875
v -0.024599355 -0.02404491 -0.0028125
v -0.024607875 -0.024083535 0.0046875
v -0.024607875 -0.024083535 -0.0028125
v -0.02461389 -0.024123975 0.0046875
v -0.022629225 -0.02677557 -0.0028125
v -0.022629225 -0.02677557 0.0046875
v -0.022685625 -0.02680503 0.0046875
v -0.022213635 -0.02654232 -0.0028125
v -0.022685625 -0.02680503 -0.0028125
v -0.022744515 -0.02682963 0.0046875
v -0.022744515 -0.02682963 -0.0028125
v -0.02280831 -0.02685381 0.0046875
v -0.02280831 -0.02685381 -0.0028125
v -0.02287179 -0.026875125 0.0046875
v -0.02287179 -0.026875125 -0.0028125
v -0.02293497 -0.026893575 0.0046875
v -0.02293497 -0.026893575 -0.0028125
v -0.02299785 -0.02690916 0.0046875
v -0.02299785 -0.02690916 -0.0028125
v -0.02306043 -0.026921895 0.0046875
v -0.02306043 -0.026921895 -0.0028125
v -0.02312268 -0.02693175 0.0046875
v -0.02312268 -0.02693175 -0.0028125
v -0.023184645 -0.026938755 0.0046875
v -0.023184645 -0.026938755 -0.0028125
v -0.023246295 -0.026942895 0.0046875
v -0.023246295 -0.026942895 -0.0028125
v -0.023307645 -0.02694417 0.0046875
v -0.023307645 -0.02694417 -0.0028125
v -0.0233688 -0.02694261 0.0046875
v -0.0233688 -0.02694261 -0.0028125
v -0.02349057 -0.026930985 0.0046875
v -0.02349057 -0.026930985 -0.0028125
v -0.023611125 -0.026907915 0.0046875
v -0.023611125 -0.026907915 -0.0028125
v -0.02372982 -0.02687325 0.0046875
v -0.02372982 -0.02687325 -0.0028125
v -0.02378826 -0.02685153 0.0046875
v -0.02378826 -0.02685153 -0.0028125
v -0.023845995 -0.02682684 0.0046875
v -0.023845995 -0.02682684 -0.0028125
v -0.02390337 -0.026799015 0.0046875
v -0.02390337 -0.026799015 -0.0028125
v -0.023960625 -0.026767965 0.0046875
v -0.023960625 -0.026767965 -0.0028125
v -0.024017535 -0.02673384 0.0046875
v -0.024017535 -0.02673384 -0.0028125
v -0.024073905 -0.02669679 0.0046875
v -0.024073905 -0.02669679 -0.0028125
v -0.02412951 -0.02665698 0.0046875
v -0.02412951 -0.02665698 -0.0028125
v -0.02418414 -0.026614575 0.0046875
v -0.02418414 -0.026614575 -0.0028125
v -0.0242376 -0.02656971 0.0046875
v -0.0242376 -0.02656971 -0.0028125
v -0.02428965 -0.02652255 0.0046875
v -0.02428965 -0.02652255 -0.0028125
v -0.024340095 -0.02647326 0.0046875
v -0.024340095 -0.02647326 -0.0028125
v -0.02438907 -0.02642172 0.0046875
v -0.02438907 -0.02642172 -0.0028125
v -0.02443686 -0.026367735 0.0046875
v -0.02443686 -0.026367735 -0.0028125
v -0.02448348 -0.026311305 0.0046875
v -0.02448348 -0.026311305 -0.0028125
v -0.0245289 -0.026252415 0.0046875
v -0.0245289 -0.026252415 -0.0028125
v -0.024573135 -0.02619108 0.0046875
v -0.024573135 -0.02619108 -0.0028125
v -0.0246162 -0.0261273 0.0046875
v -0.0246162 -0.0261273 -0.0028125
v -0.024658065 -0.026061075 0.0046875
v -0.024658065 -0.026061075 -0.0028125
v -0.024698745 -0.02599239 0.0046875
v -0.024698745 -0.02599239 -0.0028125
v -0.024738255 -0.02592126 0.0046875
v -0.024738255 -0.02592126 -0.0028125
v -0.02587971 -0.024010605 -0.0028125
v -0.02587971 -0.024010605 0.0046875
v -0.02592372 -0.023943195 0.0046875
v -0.02592372 -0.023943195 -0.0028125
v -0.02596509 -0.023875845 0.0046875
v -0.02596509 -0.023875845 -0.0028125
v -0.02600382 -0.02380857 0.0046875
v -0.02600382 -0.02380857 -0.0028125
v -0.02603988 -0.023741355 0.0046875
v -0.02603988 -0.023741355 -0.0028125
v -0.0260733 -0.023674215 0.0046875
v -0.0260733 -0.023674215 -0.0028125
v -0.026104065 -0.02360712 0.0046875
v -0.026104065 -0.02360712 -0.0028125
v -0.02613219 -0.0235401 0.0046875
v -0.02613219 -0.0235401 -0.0028125
v -0.02615766 -0.02347314 0.0046875
v -0.02615766 -0.02347314 -0.0028125
v -0.026180475 -0.02340624 0.0046875
v -0.026180475 -0.02340624 -0.0028125
v -0.02620065 -0.023339355 0.0046875
v -0.02620065 -0.023339355 -0.0028125
v -0.026218215 -0.023272065 0.0046875
v -0.026218215 -0.023272065 -0.0028125
v -0.02623317 -0.023204445 0.0046875
v -0.02623317 -0.023204445 -0.0028125
v -0.0262455 -0.023136705 0.0046875
v -0.0262455 -0.023136705 -0.0028125
v -0.02625516 -0.023069085 0.0046875
v -0.02625516 -0.023069085 -0.0028125
v -0.02626215 -0.023001795 0.0046875
v -0.02626215 -0.023001795 -0.0028125
v -0.026266455 -0.02293503 0.0046875
v -0.026266455 -0.02293503 -0.0028125
v -0.026268045 -0.02286903 0.0046875
v -0.026268045 -0.02286903 -0.0028125
v -0.026266905 -0.02280399 0.0046875
v -0.026266905 -0.02280399 -0.0028125
v -0.02625636 -0.022677405 0.0046875
v -0.02625636 -0.022677405 -0.0028125
v -0.02623476 -0.022553805 0.0046875
v -0.02623476 -0.022553805 -0.0028125
v -0.026202285 -0.022433115 0.0046875
v -0.026202285 -0.022433115 -0.0028125
v -0.0261591 -0.022315875 0.0046875
v -0.0261591 -0.022315875 -0.0028125
v -0.0261054 -0.022202625 0.0046875
v -0.0261054 -0.022202625 -0.0028125
v -0.026041005 -0.022093395 0.0046875
v -0.026041005 -0.022093395 -0.0028125
v -0.026004435 -0.0220398 0.0046875
v -0.026004435 -0.0220398 -0.0028125
v -0.02596509 -0.021987015 0.0046875
v -0.02596509 -0.021987015 -0.0028125
v -0.025923105 -0.021935205 0.0046875
v -0.025923105 -0.021935205 -0.0028125
v -0.025878615 -0.02188452 0.0046875
v -0.025878615 -0.02188452 -0.0028125
v -0.02583177 -0.021835125 0.0046875
v -0.02583177 -0.021835125 -0.0028125
v -0.02578272 -0.02178717 0.0046875
v -0.02578272 -0.02178717 -0.0028125
v -0.025731615 -0.02174082 0.0046875
v -0.025731615 -0.02174082 -0.0028125
v -0.02567856 -0.02169624 0.0046875
v -0.02567856 -0.02169624 -0.0028125
v -0.025623645 -0.02165349 0.0046875
v -0.025623645 -0.02165349 -0.0028125
v -0.0255666 -0.021612255 0.0046875
v -0.0255666 -0.021612255 -0.0028125
v -0.02550735 -0.02157249 0.0046875
v -0.02550735 -0.02157249 -0.0028125
v -0.025445925 -0.02153421 0.0046875
v -0.025445925 -0.02153421 -0.0028125
v -0.025382325 -0.0214974 0.0046875
v -0.025382325 -0.0214974 -0.0028125
v -0.025316535 -0.021462075 0.0046875
v -0.025316535 -0.021462075 -0.0028125
v -0.02524857 -0.021428235 0.0046875
v -0.02524857 -0.021428235 -0.0028125
v -0.025178415 -0.021395865 0.0046875
v -0.025178415 -0.021395865 -0.0028125
v -0.025106085 -0.02136498 0.0046875
v -0.025106085 -0.02136498 -0.0028125
v -0.025031565 -0.021335565 0.0046875
v -0.025031565 -0.021335565 -0.0028125
v -0.024565185 -0.021126915 0.0046875
v -0.024565185 -0.021126915 -0.0028125
v -0.024100365 -0.02091615 0.0046875
v -0.024100365 -0.02091615 -0.0028125
v -0.023637045 -0.0207033 0.0046875
v -0.023637045 -0.0207033 -0.0028125
v -0.0231753 -0.02048838 0.0046875
v -0.0231753 -0.02048838 -0.0028125
v -0.022715145 -0.02027139 0.0046875
v -0.022715145 -0.02027139 -0.0028125
v -0.022256565 -0.02005236 0.0046875
v -0.022256565 -0.02005236 -0.0028125
v -0.02210553 -0.019985055 0.0046875
v -0.02210553 -0.019985055 -0.0028125
v -0.02195658 -0.01991976 0.0046875
v -0.02195658 -0.01991976 -0.0028125
v -0.0218097 -0.01985646 0.0046875
v -0.0218097 -0.01985646 -0.0028125
v -0.021664905 -0.01979517 0.0046875
v -0.021664905 -0.01979517 -0.0028125
v -0.021522195 -0.019735875 0.0046875
v -0.021522195 -0.019735875 -0.0028125
v -0.02138157 -0.01967859 0.0046875
v -0.02138157 -0.01967859 -0.0028125
v -0.02124303 -0.0196233 0.0046875
v -0.02124303 -0.0196233 -0.0028125
v -0.021106575 -0.01957002 0.0046875
v -0.021106575 -0.01957002 -0.0028125
v -0.02097219 -0.019518735 0.0046875
v -0.02097219 -0.019518735 -0.0028125
v -0.02083989 -0.01946946 0.0046875
v -0.02083989 -0.01946946 -0.0028125
v -0.02070969 -0.01942218 0.0046875
v -0.02070969 -0.01942218 -0.0028125
v -0.02058156 -0.019376895 0.0046875
v -0.02058156 -0.019376895 -0.0028125
v -0.0204555 -0.019333635 0.0046875
v -0.0204555 -0.019333635 -0.0028125
v -0.02033154 -0.019292355 0.0046875
v -0.02033154 -0.019292355 -0.0028125
v -0.020209665 -0.0192531 0.0046875
v -0.020209665 -0.0192531 -0.0028125
v -0.02008986 -0.019215825 0.0046875
v -0.02008986 -0.019215825 -0.0028125
v -0.01997214 -0.01918056 0.0046875
v -0.01997214 -0.01918056 -0.0028125
v -0.01985652 -0.019147335 0.0046875
v -0.01985652 -0.019147335 -0.0028125
v -0.019743255 -0.019116645 0.0046875
v -0.019743255 -0.019116645 -0.0028125
v -0.01963236 -0.019088535 0.0046875
v -0.01963236 -0.019088535 -0.0028125
v -0.019523775 -0.0190629 0.0046875
v -0.019523775 -0.0190629 -0.0028125
v -0.01941744 -0.01903959 0.0046875
v -0.01941744 -0.01903959 -0.0028125
v -0.019313295 -0.0190185 0.0046875
v -0.019313295 -0.0190185 -0.0028125
v -0.019211265 -0.01899948 0.0046875
v -0.019211265 -0.01899948 -0.0028125
v -0.019062075 -0.01897458 0.0046875
v -0.019062075 -0.01897458 -0.0028125
v -0.01891728 -0.018953625 0.0046875
v -0.01891728 -0.018953625 -0.0028125
v -0.018776685 -0.01893621 0.0046875
v -0.018776685 -0.01893621 -0.0028125
v -0.018640065 -0.01892187 0.0046875
v -0.018640065 -0.01892187 -0.0028125
v -0.01850721 -0.018910185 0.0046875
v -0.01850721 -0.018910185 -0.0028125
v -0.018377895 -0.01890072 0.0046875
v -0.018377895 -0.01890072 -0.0028125
v -0.01825191 -0.018893055 0.0046875
v -0.01825191 -0.018893055 -0.0028125
v -0.018129165 -0.018886965 0.0046875
v -0.018129165 -0.018886965 -0.0028125
v -0.018010635 -0.01888422 0.0046875
v -0.018010635 -0.01888422 -0.0028125
v -0.01789641 -0.01888503 0.0046875
v -0.01789641 -0.01888503 -0.0028125
v -0.01778631 -0.018889095 0.0046875
v -0.01778631 -0.018889095 -0.0028125
v -0.01768014 -0.01889613 0.0046875
v -0.01768014 -0.01889613 -0.0028125
v -0.01757772 -0.018905805 0.0046875
v -0.01757772 -0.018905805 -0.0028125
v -0.017478855 -0.018917865 0.0046875
v -0.017478855 -0.018917865 -0.0028125
v -0.017383365 -0.01893198 0.0046875
v -0.017383365 -0.01893198 -0.0028125
v -0.017291055 -0.018947865 0.0046875
v -0.017291055 -0.018947865 -0.0028125
v -0.01720173 -0.01896522 0.0046875
v -0.01720173 -0.01896522 -0.0028125
v -0.017115225 -0.018983745 0.0046875
v -0.017115225 -0.018983745 -0.0028125
v -0.017031345 -0.019003155 0.0046875
v -0.017031345 -0.019003155 -0.0028125
v -0.01695015 -0.01902348 0.0046875
v -0.01695015 -0.01902348 -0.0028125
v -0.016872585 -0.019045875 0.0046875
v -0.016872585 -0.019045875 -0.0028125
v -0.016798575 -0.019070325 0.0046875
v -0.016798575 -0.019070325 -0.0028125
v -0.016727895 -0.019096635 0.0046875
v -0.016727895 -0.019096635 -0.0028125
v -0.016660395 -0.01912464 0.0046875
v -0.016660395 -0.01912464 -0.0028125
v -0.01659585 -0.019154145 0.0046875
v -0.01659585 -0.019154145 -0.0028125
v -0.016534095 -0.019185 0.0046875
v -0.016534095 -0.019185 -0.0028125
v -0.016474905 -0.019216995 0.0046875
v -0.016474905 -0.019216995 -0.0028125
v -0.0164181 -0.019249965 0.0046875
v -0.0164181 -0.019249965 -0.0028125
v -0.0163635 -0.01928373 0.0046875
v -0.0163635 -0.01928373 -0.0028125
v -0.016310895 -0.019318125 0.0046875
v -0.016310895 -0.019318125 -0.0028125
v -0.016260105 -0.01935294 0.0046875
v -0.016260105 -0.01935294 -0.0028125
v -0.016211355 -0.01938828 0.0046875
v -0.016211355 -0.01938828 -0.0028125
v -0.016165335 -0.019424565 0.0046875
v -0.016165335 -0.019424565 -0.0028125
v -0.016121955 -0.01946178 0.0046875
v -0.016121955 -0.01946178 -0.0028125
v -0.01608105 -0.01949994 0.0046875
v -0.01608105 -0.01949994 -0.0028125
v -0.016042515 -0.019539015 0.0046875
v -0.016042515 -0.019539015 -0.0028125
v -0.016006185 -0.01957902 0.0046875
v -0.016006185 -0.01957902 -0.0028125
v -0.01597194 -0.01961994 0.0046875
v -0.01597194 -0.01961994 -0.0028125
v -0.015939645 -0.01966176 0.0046875
v -0.015939645 -0.01966176 -0.0028125
v -0.01590915 -0.019704465 0.0046875
v -0.01590915 -0.019704465 -0.0028125
v -0.015880335 -0.01974807 0.0046875
v -0.015880335 -0.01974807 -0.0028125
v -0.015853035 -0.019792545 0.0046875
v -0.015853035 -0.019792545 -0.0028125
v -0.015827145 -0.019837875 0.0046875
v -0.015827145 -0.019837875 -0.0028125
v -0.015802695 -0.019883925 0.0046875
v -0.015802695 -0.019883925 -0.0028125
v -0.015779895 -0.019930575 0.0046875
v -0.015779895 -0.019930575 -0.0028125
v -0.015758805 -0.01997793 0.0046875
v -0.015758805 -0.01997793 -0.0028125
v -0.01573944 -0.020026095 0.0046875
v -0.01573944 -0.020026095 -0.0028125
v -0.01572189 -0.02007516 0.0046875
v -0.01572189 -0.02007516 -0.0028125
v -0.015706185 -0.020125215 0.0046875
v -0.015706185 -0.020125215 -0.0028125
v -0.0156924 -0.020176365 0.0046875
v -0.0156924 -0.020176365 -0.0028125
v -0.015680565 -0.0202287 0.0046875
v -0.015680565 -0.0202287 -0.0028125
v -0.01567074 -0.020282325 0.0046875
v -0.01567074 -0.020282325 -0.0028125
v -0.015662985 -0.02033733 0.0046875
v -0.015662985 -0.02033733 -0.0028125
v -0.015657345 -0.020393805 0.0046875
v -0.015657345 -0.020393805 -0.0028125
v -0.01565385 -0.020451855 0.0046875
v -0.01565385 -0.020451855 -0.0028125
v -0.01565187 -0.020511105 0.0046875
v -0.01565187 -0.020511105 -0.0028125
v -0.015651255 -0.02057142 0.0046875
v -0.015651255 -0.02057142 -0.0028125
v -0.015652245 -0.020632875 0.0046875
v -0.015652245 -0.020632875 -0.0028125
v -0.01565508 -0.02069556 0.0046875
v -0.01565508 -0.02069556 -0.0028125
v -0.01565997 -0.02075952 0.0046875
v -0.01565997 -0.02075952 -0.0028125
v -0.01566717 -0.02082486 0.0046875
v -0.01566717 -0.02082486 -0.0028125
v -0.01567689 -0.020891625 0.0046875
v -0.01567689 -0.020891625 -0.0028125
v -0.015689385 -0.02095992 0.0046875
v -0.015689385 -0.02095992 -0.0028125
v -0.015704865 -0.02102979 0.0046875
v -0.015704865 -0.02102979 -0.0028125
v -0.015723585 -0.021101325 0.0046875
v -0.015723585 -0.021101325 -0.0028125
v -0.015745755 -0.021174585 0.0046875
v -0.015745755 -0.021174585 -0.0028125
v -0.015771435 -0.021249645 0.0046875
v -0.015771435 -0.021249645 -0.0028125
v -0.015799215 -0.021326265 0.0046875
v -0.015799215 -0.021326265 -0.0028125
v -0.01582905 -0.021404415 0.0046875
v -0.01582905 -0.021404415 -0.0028125
v -0.01586127 -0.02148411 0.0046875
v -0.01586127 -0.02148411 -0.0028125
v -0.015896235 -0.02156535 0.0046875
v -0.015896235 -0.02156535 -0.0028125
v -0.01593426 -0.021648165 0.0046875
v -0.01593426 -0.021648165 -0.0028125
v -0.01597572 -0.021732555 0.0046875
v -0.01597572 -0.021732555 -0.0028125
v -0.016020945 -0.02181855 0.0046875
v -0.016020945 -0.02181855 -0.0028125
v -0.016070295 -0.021906165 0.0046875
v -0.016070295 -0.021906165 -0.0028125
v -0.0161241 -0.021995385 0.0046875
v -0.0161241 -0.021995385 -0.0028125
v -0.01618272 -0.022086255 0.0046875
v -0.01618272 -0.022086255 -0.0028125
v -0.0162465 -0.022178775 0.0046875
v -0.0162465 -0.022178775 -0.0028125
v -0.0163152 -0.022272975 0.0046875
v -0.0163152 -0.022272975 -0.0028125
v -0.01638687 -0.022368915 0.0046875
v -0.01638687 -0.022368915 -0.0028125
v -0.016461735 -0.022466565 0.0046875
v -0.016461735 -0.022466565 -0.0028125
v -0.016540245 -0.02256588 0.0046875
v -0.016540245 -0.02256588 -0.0028125
v -0.01662288 -0.02266683 0.0046875
v -0.01662288 -0.02266683 -0.0028125
v -0.016710105 -0.02276937 0.0046875
v -0.016710105 -0.02276937 -0.0028125
v -0.0168024 -0.022873455 0.0046875
v -0.0168024 -0.022873455 -0.0028125
v -0.016900215 -0.022979055 0.0046875
v -0.016900215 -0.022979055 -0.0028125
v -0.01700403 -0.023086125 0.0046875
v -0.01700403 -0.023086125 -0.0028125
v -0.01711431 -0.023194635 0.0046875
v -0.01711431 -0.023194635 -0.0028125
v -0.01723152 -0.02330454 0.0046875
v -0.01723152 -0.02330454 -0.0028125
v -0.017356125 -0.02341581 0.0046875
v -0.017356125 -0.02341581 -0.0028125
v -0.017443335 -0.023490735 0.0046875
v -0.017443335 -0.023490735 -0.0028125
v -0.017533305 -0.023566305 0.0046875
v -0.017533305 -0.023566305 -0.0028125
v -0.01762599 -0.02364252 0.0046875
v -0.01762599 -0.02364252 -0.0028125
v -0.017721405 -0.023719395 0.0046875
v -0.017721405 -0.023719395 -0.0028125
v -0.01781952 -0.023796915 0.0046875
v -0.01781952 -0.023796915 -0.0028125
v -0.01792038 -0.02387508 0.0046875
v -0.01792038 -0.02387508 -0.0028125
v -0.01802394 -0.023953905 0.0046875
v -0.01802394 -0.023953905 -0.0028125
v -0.018130245 -0.024033375 0.0046875
v -0.018130245 -0.024033375 -0.0028125
v -0.01823925 -0.024113505 0.0046875
v -0.01823925 -0.024113505 -0.0028125
v -0.018350985 -0.024194265 0.0046875
v -0.018350985 -0.024194265 -0.0028125
v -0.018465435 -0.0242757 0.0046875
v -0.018465435 -0.0242757 -0.0028125
v -0.0185826 -0.024357765 0.0046875
v -0.0185826 -0.024357765 -0.0028125
v -0.018702495 -0.02444049 0.0046875
v -0.018702495 -0.02444049 -0.0028125
v -0.01882512 -0.02452386 0.0046875
v -0.01882512 -0.02452386 -0.0028125
v -0.018950445 -0.024607875 0.0046875
v -0.018950445 -0.024607875 -0.0028125
v -0.0190785 -0.02469255 0.0046875
v -0.0190785 -0.02469255 -0.0028125
v -0.019209285 -0.02477787 0.0046875
v -0.019209285 -0.02477787 -0.0028125
v -0.019342785 -0.02486385 0.0046875
v -0.019342785 -0.02486385 -0.0028125
v -0.019748835 -0.02510853 0.0046875
v -0.019748835 -0.02510853 -0.0028125
v -0.020156235 -0.025351575 0.0046875
v -0.020156235 -0.025351575 -0.0028125
v -0.020565 -0.025592985 0.0046875
v -0.020565 -0.025592985 -0.0028125
v -0.0209751 -0.025832775 0.0046875
v -0.0209751 -0.025832775 -0.0028125
v -0.021386565 -0.026070915 0.0046875
v -0.021386565 -0.026070915 -0.0028125
v -0.021799425 -0.026307435 0.0046875
v -0.021799425 -0.026307435 -0.0028125
v -0.022213635 -0.02654232 0.0046875
v -0.01850721 -0.018910185 -0.0028125
v -0.01858536 -0.021049125 -0.0028125
v -0.01858887 -0.021091395 -0.0028125
v -0.018579345 -0.021008685 -0.0028125
v -0.018640065 -0.01892187 -0.0028125
v -0.018702495 -0.02444049 -0.0028125
v -0.01858536 -0.02113365 -0.0028125
v -0.018776685 -0.01893621 -0.0028125
v -0.01882512 -0.02452386 -0.0028125
v -0.01891728 -0.018953625 -0.0028125
v -0.018950445 -0.024607875 -0.0028125
v -0.019062075 -0.01897458 -0.0028125
v -0.0190785 -0.02469255 -0.0028125
v -0.019209285 -0.02477787 -0.0028125
v -0.019211265 -0.01899948 -0.0028125
v -0.019342785 -0.02486385 -0.0028125
v -0.019313295 -0.0190185 -0.0028125
v -0.01941744 -0.01903959 -0.0028125
v -0.019748835 -0.02510853 -0.0028125
v -0.019523775 -0.0190629 -0.0028125
v -0.01963236 -0.019088535 -0.0028125
v -0.019743255 -0.019116645 -0.0028125
v -0.01985652 -0.019147335 -0.0028125
v -0.020156235 -0.025351575 -0.0028125
v -0.01997214 -0.01918056 -0.0028125
v -0.02008986 -0.019215825 -0.0028125
v -0.020209665 -0.0192531 -0.0028125
v -0.020565 -0.025592985 -0.0028125
v -0.02033154 -0.019292355 -0.0028125
v -0.0204555 -0.019333635 -0.0028125
v -0.02058156 -0.019376895 -0.0028125
v -0.02066562 -0.02262882 -0.0028125
v -0.02066913 -0.022671075 -0.0028125
v -0.02066913 -0.02258655 -0.0028125
v -0.020675145 -0.02254611 -0.0028125
v -0.020683665 -0.022507485 -0.0028125
v -0.02069469 -0.02247069 -0.0028125
v -0.02070822 -0.02243571 -0.0028125
v -0.02070969 -0.01942218 -0.0028125
v -0.02072427 -0.022402545 -0.0028125
v -0.02074281 -0.022371225 -0.0028125
v -0.02076399 -0.022341615 -0.0028125
v -0.02078868 -0.022313115 -0.0028125
v -0.020816565 -0.022285935 -0.0028125
v -0.02083989 -0.01946946 -0.0028125
v -0.020847045 -0.02226051 -0.0028125
v -0.020879505 -0.02223729 -0.0028125
v -0.02091333 -0.022216725 -0.0028125
v -0.020947905 -0.022199265 -0.0028125
v -0.02097219 -0.019518735 -0.0028125
v -0.020982615 -0.02218533 -0.0028125
v -0.021017955 -0.022174995 -0.0028125
v -0.0210555 -0.022167615 -0.0028125
v -0.02109456 -0.02216319 -0.0028125
v -0.021106575 -0.01957002 -0.0028125
v -0.02113437 -0.02216172 -0.0028125
v -0.021174195 -0.02216319 -0.0028125
v -0.02121324 -0.022167615 -0.0028125
v -0.02124303 -0.0196233 -0.0028125
v -0.021250785 -0.022174995 -0.0028125
v -0.02128614 -0.02218533 -0.0028125
v -0.02132085 -0.022199265 -0.0028125
v -0.021355425 -0.022216725 -0.0028125
v -0.02138157 -0.01967859 -0.0028125
v -0.02138925 -0.02223729 -0.0028125
v -0.02142171 -0.02226051 -0.0028125
v -0.02145219 -0.022285935 -0.0028125
v -0.021480075 -0.022313115 -0.0028125
v -0.021504765 -0.022341615 -0.0028125
v -0.021522195 -0.019735875 -0.0028125
v -0.02152593 -0.022371225 -0.0028125
v -0.021544485 -0.022402545 -0.0028125
v -0.021560535 -0.02243571 -0.0028125
v -0.021574065 -0.02247069 -0.0028125
v -0.02158509 -0.022507485 -0.0028125
v -0.02159361 -0.02254611 -0.0028125
v -0.021599625 -0.02258655 -0.0028125
v -0.02160312 -0.02262882 -0.0028125
v -0.021664905 -0.01979517 -0.0028125
v -0.021799425 -0.026307435 -0.0028125
v -0.021599625 -0.022671075 -0.0028125
v -0.0218097 -0.01985646 -0.0028125
v -0.022213635 -0.02654232 -0.0028125
v -0.02195658 -0.01991976 -0.0028125
v -0.02210553 -0.019985055 -0.0028125
v -0.022256565 -0.02005236 -0.0028125
v -0.022629225 -0.02677557 -0.0028125
v -0.022685625 -0.02680503 -0.0028125
v -0.022715145 -0.02027139 -0.0028125
v -0.022744515 -0.02682963 -0.0028125
v -0.02280831 -0.02685381 -0.0028125
v -0.02287179 -0.026875125 -0.0028125
v -0.02293497 -0.026893575 -0.0028125
v -0.02299785 -0.02690916 -0.0028125
v -0.02306043 -0.026921895 -0.0028125
v -0.02312268 -0.02693175 -0.0028125
v -0.0231753 -0.02048838 -0.0028125
v -0.023184645 -0.026938755 -0.0028125
v -0.023246295 -0.026942895 -0.0028125
v -0.023307645 -0.02694417 -0.0028125
v -0.0233688 -0.02694261 -0.0028125
v -0.02349057 -0.026930985 -0.0028125
v -0.023611125 -0.026907915 -0.0028125
v -0.023637045 -0.0207033 -0.0028125
v -0.023679885 -0.024166245 -0.0028125
v -0.02372982 -0.02687325 -0.0028125
v -0.023683395 -0.024123975 -0.0028125
v -0.02368941 -0.024083535 -0.0028125
v -0.02369793 -0.02404491 -0.0028125
v -0.023708955 -0.024008115 -0.0028125
v -0.023722485 -0.023973135 -0.0028125
v -0.023738535 -0.023939985 -0.0028125
v -0.023757075 -0.02390865 -0.0028125
v -0.023778255 -0.02387904 -0.0028125
v -0.023802945 -0.02385054 -0.0028125
v -0.02383083 -0.02382336 -0.0028125
v -0.02386131 -0.023797935 -0.0028125
v -0.02389377 -0.023774715 -0.0028125
v -0.02392758 -0.02375415 -0.0028125
v -0.023962155 -0.02373669 -0.0028125
v -0.02399688 -0.023722755 -0.0028125
v -0.02403222 -0.02371242 -0.0028125
v -0.024069765 -0.02370504 -0.0028125
v -0.024100365 -0.02091615 -0.0028125
v -0.024108825 -0.02370063 -0.0028125
v -0.024148635 -0.023699145 -0.0028125
v -0.024188445 -0.02370063 -0.0028125
v -0.024227505 -0.02370504 -0.0028125
v -0.02426505 -0.02371242 -0.0028125
v -0.02430039 -0.023722755 -0.0028125
v -0.024335115 -0.02373669 -0.0028125
v -0.02436969 -0.02375415 -0.0028125
v -0.024403515 -0.023774715 -0.0028125
v -0.024435975 -0.023797935 -0.0028125
v -0.02446644 -0.02382336 -0.0028125
v -0.02449434 -0.02385054 -0.0028125
v -0.02451903 -0.02387904 -0.0028125
v -0.024540195 -0.02390865 -0.0028125
v -0.02455875 -0.023939985 -0.0028125
v -0.024565185 -0.021126915 -0.0028125
v -0.024574785 -0.023973135 -0.0028125
v -0.02458833 -0.024008115 -0.0028125
v -0.024599355 -0.02404491 -0.0028125
v -0.024607875 -0.024083535 -0.0028125
v -0.02461389 -0.024123975 -0.0028125
v -0.024617385 -0.024166245 -0.0028125
v -0.024658065 -0.026061075 -0.0028125
v -0.024698745 -0.02599239 -0.0028125
v -0.0246162 -0.0261273 -0.0028125
v -0.02461389 -0.024208515 -0.0028125
v -0.024607875 -0.024248955 -0.0028125
v -0.024599355 -0.02428758 -0.0028125
v -0.02458833 -0.024324375 -0.0028125
v -0.024574785 -0.024359355 -0.0028125
v -0.024573135 -0.02619108 -0.0028125
v -0.02455875 -0.024392505 -0.0028125
v -0.024540195 -0.02442384 -0.0028125
v -0.0245289 -0.026252415 -0.0028125
v -0.02451903 -0.024453435 -0.0028125
v -0.02449434 -0.02448195 -0.0028125
v -0.02448348 -0.026311305 -0.0028125
v -0.02446644 -0.02450913 -0.0028125
v -0.02443686 -0.026367735 -0.0028125
v -0.024435975 -0.024534555 -0.0028125
v -0.024403515 -0.024557775 -0.0028125
v -0.02438907 -0.02642172 -0.0028125
v -0.02436969 -0.02457834 -0.0028125
v -0.024340095 -0.02647326 -0.0028125
v -0.024335115 -0.0245958 -0.0028125
v -0.02430039 -0.024609735 -0.0028125
v -0.02428965 -0.02652255 -0.0028125
v -0.02426505 -0.02462007 -0.0028125
v -0.0242376 -0.02656971 -0.0028125
v -0.024227505 -0.024627435 -0.0028125
v -0.024188445 -0.02463186 -0.0028125
v -0.02418414 -0.026614575 -0.0028125
v -0.024148635 -0.02463333 -0.0028125
v -0.02412951 -0.02665698 -0.0028125
v -0.024108825 -0.02463186 -0.0028125
v -0.024073905 -0.02669679 -0.0028125
v -0.024069765 -0.024627435 -0.0028125
v -0.02403222 -0.02462007 -0.0028125
v -0.024017535 -0.02673384 -0.0028125
v -0.02399688 -0.024609735 -0.0028125
v -0.023962155 -0.0245958 -0.0028125
v -0.023960625 -0.026767965 -0.0028125
v -0.02392758 -0.02457834 -0.0028125
v -0.02390337 -0.026799015 -0.0028125
v -0.02389377 -0.024557775 -0.0028125
v -0.02386131 -0.024534555 -0.0028125
v -0.023845995 -0.02682684 -0.0028125
v -0.02383083 -0.02450913 -0.0028125
v -0.023802945 -0.02448195 -0.0028125
v -0.02378826 -0.02685153 -0.0028125
v -0.023778255 -0.024453435 -0.0028125
v -0.023757075 -0.02442384 -0.0028125
v -0.023738535 -0.024392505 -0.0028125
v -0.023722485 -0.024359355 -0.0028125
v -0.023708955 -0.024324375 -0.0028125
v -0.02369793 -0.02428758 -0.0028125
v -0.02368941 -0.024248955 -0.0028125
v -0.023683395 -0.024208515 -0.0028125
v -0.024738255 -0.02592126 -0.0028125
v -0.025031565 -0.021335565 -0.0028125
v -0.02587971 -0.024010605 -0.0028125
v -0.025106085 -0.02136498 -0.0028125
v -0.025178415 -0.021395865 -0.0028125
v -0.02524857 -0.021428235 -0.0028125
v -0.025316535 -0.021462075 -0.0028125
v -0.025382325 -0.0214974 -0.0028125
v -0.025445925 -0.02153421 -0.0028125
v -0.02550735 -0.02157249 -0.0028125
v -0.0255666 -0.021612255 -0.0028125
v -0.025623645 -0.02165349 -0.0028125
v -0.02567856 -0.02169624 -0.0028125
v -0.025731615 -0.02174082 -0.0028125
v -0.02578272 -0.02178717 -0.0028125
v -0.02583177 -0.021835125 -0.0028125
v -0.025878615 -0.02188452 -0.0028125
v -0.025923105 -0.021935205 -0.0028125
v -0.02592372 -0.023943195 -0.0028125
v -0.02596509 -0.023875845 -0.0028125
v -0.02596509 -0.021987015 -0.0028125
v -0.02600382 -0.02380857 -0.0028125
v -0.026004435 -0.0220398 -0.0028125
v -0.02603988 -0.023741355 -0.0028125
v -0.026041005 -0.022093395 -0.0028125
v -0.0260733 -0.023674215 -0.0028125
v -0.026104065 -0.02360712 -0.0028125
v -0.0261054 -0.022202625 -0.0028125
v -0.02613219 -0.0235401 -0.0028125
v -0.02615766 -0.02347314 -0.0028125
v -0.0261591 -0.022315875 -0.0028125
v -0.026180475 -0.02340624 -0.0028125
v -0.02620065 -0.023339355 -0.0028125
v -0.026202285 -0.022433115 -0.0028125
v -0.026218215 -0.023272065 -0.0028125
v -0.02623317 -0.023204445 -0.0028125
v -0.02623476 -0.022553805 -0.0028125
v -0.0262455 -0.023136705 -0.0028125
v -0.02625516 -0.023069085 -0.0028125
v -0.02625636 -0.022677405 -0.0028125
v -0.02626215 -0.023001795 -0.0028125
v -0.026266455 -0.02293503 -0.0028125
v -0.026266905 -0.02280399 -0.0028125
v -0.026268045 -0.02286903 -0.0028125
v -0.02159361 -0.02271153 -0.0028125
v -0.02158509 -0.022750155 -0.0028125
v -0.021574065 -0.02278695 -0.0028125
v -0.021560535 -0.02282193 -0.0028125
v -0.021544485 -0.02285508 -0.0028125
v -0.02152593 -0.022886415 -0.0028125
v -0.021504765 -0.02291601 -0.0028125
v -0.021480075 -0.02294451 -0.0028125
v -0.02145219 -0.022971705 -0.0028125
v -0.02142171 -0.02299713 -0.0028125
v -0.02138925 -0.02302035 -0.0028125
v -0.021386565 -0.026070915 -0.0028125
v -0.021355425 -0.0230409 -0.0028125
v -0.02132085 -0.023058375 -0.0028125
v -0.02128614 -0.02307231 -0.0028125
v -0.021250785 -0.023082645 -0.0028125
v -0.02121324 -0.02309001 -0.0028125
v -0.021174195 -0.023094435 -0.0028125
v -0.02113437 -0.023095905 -0.0028125
v -0.02109456 -0.023094435 -0.0028125
v -0.0210555 -0.02309001 -0.0028125
v -0.021017955 -0.023082645 -0.0028125
v -0.020982615 -0.02307231 -0.0028125
v -0.0209751 -0.025832775 -0.0028125
v -0.020947905 -0.023058375 -0.0028125
v -0.02091333 -0.0230409 -0.0028125
v -0.020879505 -0.02302035 -0.0028125
v -0.020847045 -0.02299713 -0.0028125
v -0.020816565 -0.022971705 -0.0028125
v -0.02078868 -0.02294451 -0.0028125
v -0.02076399 -0.02291601 -0.0028125
v -0.02074281 -0.022886415 -0.0028125
v -0.02072427 -0.02285508 -0.0028125
v -0.02070822 -0.02282193 -0.0028125
v -0.02069469 -0.02278695 -0.0028125
v -0.020683665 -0.022750155 -0.0028125
v -0.020675145 -0.02271153 -0.0028125
v -0.0185826 -0.024357765 -0.0028125
v -0.018579345 -0.021174105 -0.0028125
v -0.018570825 -0.021212715 -0.0028125
v -0.0185598 -0.021249525 -0.0028125
v -0.01854627 -0.021284505 -0.0028125
v -0.01853022 -0.021317655 -0.0028125
v -0.01851168 -0.02134899 -0.0028125
v -0.0184905 -0.021378585 -0.0028125
v -0.01846581 -0.021407085 -0.0028125
v -0.018465435 -0.0242757 -0.0028125
v -0.018437925 -0.02143428 -0.0028125
v -0.018407445 -0.021459705 -0.0028125
v -0.018374985 -0.02148291 -0.0028125
v -0.018350985 -0.024194265 -0.0028125
v -0.01834116 -0.021503475 -0.0028125
v -0.018306585 -0.02152095 -0.0028125
v -0.018271875 -0.02153487 -0.0028125
v -0.01823925 -0.024113505 -0.0028125
v -0.01823652 -0.02154522 -0.0028125
v -0.01819899 -0.021552585 -0.0028125
v -0.01815993 -0.02155701 -0.0028125
v -0.018130245 -0.024033375 -0.0028125
v -0.01812012 -0.02155848 -0.0028125
v -0.018080295 -0.02155701 -0.0028125
v -0.01804125 -0.021552585 -0.0028125
v -0.01802394 -0.023953905 -0.0028125
v -0.018003705 -0.02154522 -0.0028125
v -0.01796835 -0.02153487 -0.0028125
v -0.01793364 -0.02152095 -0.0028125
v -0.01792038 -0.02387508 -0.0028125
v -0.017899065 -0.021503475 -0.0028125
v -0.01786524 -0.02148291 -0.0028125
v -0.01783278 -0.021459705 -0.0028125
v -0.01781952 -0.023796915 -0.0028125
v -0.0178023 -0.02143428 -0.0028125
v -0.017774415 -0.021407085 -0.0028125
v -0.017749725 -0.021378585 -0.0028125
v -0.017728545 -0.02134899 -0.0028125
v -0.017721405 -0.023719395 -0.0028125
v -0.017710005 -0.021317655 -0.0028125
v -0.017693955 -0.021284505 -0.0028125
v -0.017680425 -0.021249525 -0.0028125
v -0.0176694 -0.021212715 -0.0028125
v -0.01766088 -0.021174105 -0.0028125
v -0.017654865 -0.02113365 -0.0028125
v -0.01765137 -0.021091395 -0.0028125
v -0.01762599 -0.02364252 -0.0028125
v -0.01757772 -0.018905805 -0.0028125
v -0.017533305 -0.023566305 -0.0028125
v -0.017654865 -0.021049125 -0.0028125
v -0.01766088 -0.021008685 -0.0028125
v -0.0176694 -0.02097006 -0.0028125
v -0.01768014 -0.01889613 -0.0028125
v -0.017680425 -0.02093325 -0.0028125
v -0.017693955 -0.020898285 -0.0028125
v -0.017710005 -0.02086512 -0.0028125
v -0.017728545 -0.020833785 -0.0028125
v -0.017749725 -0.02080419 -0.0028125
v -0.017774415 -0.02077569 -0.0028125
v -0.01778631 -0.018889095 -0.0028125
v -0.0178023 -0.02074851 -0.0028125
v -0.01783278 -0.020723085 -0.0028125
v -0.01786524 -0.020699865 -0.0028125
v -0.01789641 -0.01888503 -0.0028125
v -0.017899065 -0.0206793 -0.0028125
v -0.01793364 -0.020661825 -0.0028125
v -0.01796835 -0.020647905 -0.0028125
v -0.018003705 -0.02063757 -0.0028125
v -0.018010635 -0.01888422 -0.0028125
v -0.01804125 -0.02063019 -0.0028125
v -0.018080295 -0.020625765 -0.0028125
v -0.01812012 -0.020624295 -0.0028125
v -0.018129165 -0.018886965 -0.0028125
v -0.01815993 -0.020625765 -0.0028125
v -0.01819899 -0.02063019 -0.0028125
v -0.01823652 -0.02063757 -0.0028125
v -0.01825191 -0.018893055 -0.0028125
v -0.018271875 -0.020647905 -0.0028125
v -0.018306585 -0.020661825 -0.0028125
v -0.01834116 -0.0206793 -0.0028125
v -0.018374985 -0.020699865 -0.0028125
v -0.018377895 -0.01890072 -0.0028125
v -0.018407445 -0.020723085 -0.0028125
v -0.018437925 -0.02074851 -0.0028125
v -0.01846581 -0.02077569 -0.0028125
v -0.0184905 -0.02080419 -0.0028125
v -0.01851168 -0.020833785 -0.0028125
v -0.01853022 -0.02086512 -0.0028125
v -0.01854627 -0.020898285 -0.0028125
v -0.0185598 -0.02093325 -0.0028125
v -0.018570825 -0.02097006 -0.0028125
v -0.017478855 -0.018917865 -0.0028125
v -0.017443335 -0.023490735 -0.0028125
v -0.017383365 -0.01893198 -0.0028125
v -0.017356125 -0.02341581 -0.0028125
v -0.017291055 -0.018947865 -0.0028125
v -0.01723152 -0.02330454 -0.0028125
v -0.01720173 -0.01896522 -0.0028125
v -0.017115225 -0.018983745 -0.0028125
v -0.01711431 -0.023194635 -0.0028125
v -0.017031345 -0.019003155 -0.0028125
v -0.01700403 -0.023086125 -0.0028125
v -0.01695015 -0.01902348 -0.0028125
v -0.016900215 -0.022979055 -0.0028125
v -0.016872585 -0.019045875 -0.0028125
v -0.0168024 -0.022873455 -0.0028125
v -0.016798575 -0.019070325 -0.0028125
v -0.016727895 -0.019096635 -0.0028125
v -0.016710105 -0.02276937 -0.0028125
v -0.016660395 -0.01912464 -0.0028125
v -0.01662288 -0.02266683 -0.0028125
v -0.01659585 -0.019154145 -0.0028125
v -0.016540245 -0.02256588 -0.0028125
v -0.016534095 -0.019185 -0.0028125
v -0.016474905 -0.019216995 -0.0028125
v -0.016461735 -0.022466565 -0.0028125
v -0.0164181 -0.019249965 -0.0028125
v -0.01638687 -0.022368915 -0.0028125
v -0.0163635 -0.01928373 -0.0028125
v -0.0163152 -0.022272975 -0.0028125
v -0.016310895 -0.019318125 -0.0028125
v -0.016260105 -0.01935294 -0.0028125
v -0.0162465 -0.022178775 -0.0028125
v -0.016211355 -0.01938828 -0.0028125
v -0.01618272 -0.022086255 -0.0028125
v -0.016165335 -0.019424565 -0.0028125
v -0.0161241 -0.021995385 -0.0028125
v -0.016121955 -0.01946178 -0.0028125
v -0.01608105 -0.01949994 -0.0028125
v -0.016070295 -0.021906165 -0.0028125
v -0.016042515 -0.019539015 -0.0028125
v -0.016020945 -0.02181855 -0.0028125
v -0.016006185 -0.01957902 -0.0028125
v -0.01597572 -0.021732555 -0.0028125
v -0.01597194 -0.01961994 -0.0028125
v -0.015939645 -0.01966176 -0.0028125
v -0.01593426 -0.021648165 -0.0028125
v -0.01590915 -0.019704465 -0.0028125
v -0.015896235 -0.02156535 -0.0028125
v -0.015880335 -0.01974807 -0.0028125
v -0.01586127 -0.02148411 -0.0028125
v -0.015853035 -0.019792545 -0.0028125
v -0.01582905 -0.021404415 -0.0028125
v -0.015827145 -0.019837875 -0.0028125
v -0.015802695 -0.019883925 -0.0028125
v -0.015799215 -0.021326265 -0.0028125
v -0.015779895 -0.019930575 -0.0028125
v -0.015771435 -0.021249645 -0.0028125
v -0.015758805 -0.01997793 -0.0028125
v -0.015745755 -0.021174585 -0.0028125
v -0.01573944 -0.020026095 -0.0028125
v -0.015723585 -0.021101325 -0.0028125
v -0.01572189 -0.02007516 -0.0028125
v -0.015706185 -0.020125215 -0.0028125
v -0.015704865 -0.02102979 -0.0028125
v -0.0156924 -0.020176365 -0.0028125
v -0.015689385 -0.02095992 -0.0028125
v -0.015680565 -0.0202287 -0.0028125
v -0.01567689 -0.020891625 -0.0028125
v -0.01567074 -0.020282325 -0.0028125
v -0.01566717 -0.02082486 -0.0028125
v -0.015662985 -0.02033733 -0.0028125
v -0.01565997 -0.02075952 -0.0028125
v -0.015657345 -0.020393805 -0.0028125
v -0.01565508 -0.02069556 -0.0028125
v -0.01565385 -0.020451855 -0.0028125
v -0.015652245 -0.020632875 -0.0028125
v -0.01565187 -0.020511105 -0.0028125
v -0.015651255 -0.02057142 -0.0028125
f 1 2 3
f 1 4 2
f 1 3 5
f 5 3 6
f 7 1 5
f 7 5 8
f 9 7 8
f 9 8 10
f 11 9 10
f 11 10 12
f 13 11 12
f 13 12 14
f 15 13 14
f 15 14 16
f 17 15 16
f 17 16 18
f 17 18 19
f 17 19 20
f 17 20 21
f 22 17 21
f 22 21 23
f 22 23 24
f 22 24 25
f 26 22 25
f 26 25 27
f 26 27 28
f 26 28 29
f 30 26 29
f 30 29 31
f 30 31 32
f 31 33 32
f 30 32 34
f 30 34 35
f 30 35 36
f 30 36 37
f 30 37 38
f 30 38 39
f 30 39 40
f 30 40 41
f 30 41 42
f 30 42 43
f 30 43 44
f 30 44 45
f 30 45 46
f 30 46 47
f 48 30 47
f 48 47 49
f 48 49 50
f 48 50 51
f 48 51 52
f 48 52 53
f 48 53 54
f 48 54 55
f 48 55 56
f 48 56 57
f 48 57 58
f 48 58 59
f 60 48 59
f 60 59 61
f 60 61 62
f 60 62 63
f 60 63 64
f 60 64 65
f 60 65 66
f 60 66 67
f 60 67 68
f 60 68 69
f 60 69 70
f 60 70 71
f 60 71 72
f 60 72 73
f 74 60 73
f 74 73 75
f 75 73 76
f 74 75 77
f 74 77 78
f 74 78 79
f 80 74 79
f 80 79 81
f 80 81 82
f 81 83 82
f 83 84 82
f 83 85 84
f 83 86 85
f 86 87 85
f 86 88 87
f 86 89 88
f 86 90 89
f 86 91 90
f 86 92 91
f 86 93 92
f 86 94 93
f 94 95 93
f 94 96 95
f 94 97 96
f 94 98 97
f 94 99 98
f 94 100 99
f 94 101 100
f 99 100 102
f 99 102 103
f 99 103 104
f 99 104 105
f 99 105 106
f 107 99 106
f 107 106 108
f 107 108 109
f 107 109 110
f 111 107 110
f 111 110 112
f 111 112 113
f 114 111 113
f 114 113 115
f 114 115 116
f 117 114 116
f 117 116 118
f 119 117 118
f 119 118 120
f 119 120 121
f 122 119 121
f 122 121 123
f 122 123 124
f 125 122 124
f 125 124 126
f 127 125 126
f 127 126 128
f 129 127 128
f 129 128 130
f 129 130 131
f 132 129 131
f 132 131 133
f 134 132 133
f 134 133 135
f 134 135 136
f 137 134 136
f 137 136 138
f 139 137 138
f 139 138 140
f 139 140 141
f 142 139 141
f 142 141 143
f 144 142 143
f 144 143 145
f 144 145 146
f 147 144 146
f 147 146 148
f 147 148 149
f 150 147 149
f 150 149 151
f 150 151 152
f 150 152 153
f 150 153 154
f 150 154 155
f 156 150 155
f 156 155 157
f 158 156 157
f 159 158 157
f 159 160 158
f 159 157 161
f 159 161 162
f 159 162 163
f 159 163 164
f 159 164 165
f 166 159 165
f 166 165 167
f 166 167 168
f 166 168 169
f 166 169 170
f 166 170 171
f 166 171 172
f 166 172 173
f 166 173 174
f 166 174 175
f 166 175 176
f 166 176 177
f 166 177 178
f 166 178 179
f 166 179 180
f 166 180 181
f 182 166 181
f 182 181 183
f 182 183 184
f 182 184 185
f 182 185 186
f 182 186 187
f 182 187 188
f 182 188 189
f 182 189 190
f 182 190 191
f 182 191 192
f 182 192 193
f 182 193 194
f 182 194 195
f 182 195 196
f 182 196 197
f 182 197 198
f 182 198 101
f 94 182 101
f 159 199 160
f 159 200 199
f 200 201 199
f 201 202 199
f 202 203 199
f 203 204 199
f 204 205 199
f 205 206 199
f 206 207 199
f 207 208 199
f 208 209 199
f 209 210 199
f 210 211 199
f 211 212 199
f 212 213 199
f 213 214 199
f 213 215 214
f 215 216 214
f 215 217 216
f 217 218 216
f 217 219 218
f 219 220 218
f 219 221 220
f 219 222 221
f 222 223 221
f 222 224 223
f 224 225 223
f 224 226 225
f 224 227 226
f 227 228 226
f 227 229 228
f 227 230 229
f 230 231 229
f 230 232 231
f 230 233 232
f 233 234 232
f 233 235 234
f 233 236 235
f 236 237 235
f 236 238 237
f 236 239 238
f 239 240 238
f 239 241 240
f 75 76 242
f 75 242 243
f 75 243 244
f 75 244 245
f 75 245 246
f 75 246 247
f 248 75 247
f 248 247 249
f 248 249 250
f 248 250 251
f 248 251 252
f 248 252 253
f 254 248 253
f 254 253 255
f 254 255 256
f 254 256 257
f 254 257 258
f 259 254 258
f 259 258 260
f 259 260 261
f 259 261 262
f 263 259 262
f 263 262 264
f 263 264 265
f 263 265 266
f 263 266 267
f 268 263 267
f 268 267 269
f 268 269 270
f 268 270 271
f 268 271 272
f 273 268 272
f 273 272 274
f 273 274 275
f 273 275 276
f 273 276 277
f 273 277 278
f 33 273 278
f 33 278 279
f 33 279 280
f 33 280 281
f 33 281 282
f 33 282 283
f 33 283 32
f 5 6 284
f 5 284 285
f 5 285 286
f 5 286 287
f 5 287 288
f 5 288 289
f 290 5 289
f 290 289 291
f 290 291 292
f 290 292 293
f 290 293 294
f 295 290 294
f 295 294 296
f 295 296 297
f 295 297 298
f 295 298 299
f 300 295 299
f 300 299 301
f 300 301 302
f 300 302 303
f 304 300 303
f 304 303 305
f 304 305 306
f 304 306 307
f 308 304 307
f 308 307 309
f 308 309 310
f 308 310 311
f 308 311 312
f 313 308 312
f 313 312 314
f 313 314 315
f 313 315 316
f 317 313 316
f 317 316 318
f 317 318 319
f 317 319 320
f 317 320 321
f 317 321 322
f 317 322 323
f 324 317 323
f 324 323 325
f 324 325 326
f 324 326 327
f 324 327 328
f 329 324 328
f 330 329 328
f 330 331 329
f 330 328 332
f 330 332 333
f 330 333 334
f 330 334 335
f 330 335 336
f 330 336 337
f 338 330 337
f 338 337 339
f 338 339 340
f 338 340 341
f 338 341 342
f 343 338 342
f 343 342 344
f 343 344 345
f 343 345 346
f 347 343 346
f 347 346 348
f 347 348 349
f 347 349 350
f 351 347 350
f 351 350 352
f 351 352 353
f 351 353 354
f 355 351 354
f 355 354 356
f 355 356 357
f 355 357 358
f 359 355 358
f 359 358 360
f 359 360 361
f 359 361 362
f 363 359 362
f 363 362 364
f 363 364 365
f 363 365 366
f 367 363 366
f 367 366 368
f 367 368 369
f 367 369 370
f 367 370 371
f 367 371 372
f 367 372 373
f 367 373 374
f 367 374 4
f 1 367 4
f 331 375 329
f 331 376 375
f 376 377 375
f 376 378 377
f 378 379 377
f 378 380 379
f 380 381 379
f 380 382 381
f 382 383 381
f 382 384 383
f 382 385 384
f 385 386 384
f 385 387 386
f 387 388 386
f 387 389 388
f 389 390 388
f 389 391 390
f 391 392 390
f 391 393 392
f 391 394 393
f 394 395 393
f 394 396 395
f 396 397 395
f 396 398 397
f 398 399 397
f 398 400 399
f 398 401 400
f 401 402 400
f 401 403 402
f 403 404 402
f 403 405 404
f 405 406 404
f 405 407 406
f 405 408 407
f 408 409 407
f 408 410 409
f 410 411 409
f 410 412 411
f 412 413 411
f 412 414 413
f 412 415 414
f 415 416 414
f 415 417 416
f 417 418 416
f 417 419 418
f 419 420 418
f 419 421 420
f 419 422 421
f 422 423 421
f 422 424 423
f 424 425 423
f 424 426 425
f 426 427 425
f 426 428 427
f 428 429 427
f 428 430 429
f 428 431 430
f 431 432 430
f 431 433 432
f 433 434 432
f 433 435 434
f 435 436 434
f 435 437 436
f 437 438 436
f 437 439 438
f 437 440 439
f 440 441 439
f 440 442 441
f 442 443 441
f 442 444 443
f 444 445 443
f 444 446 445
f 446 447 445
f 446 448 447
f 448 449 447
f 448 450 449
f 450 451 449
f 450 452 451
f 453 454 455
f 456 454 453
f 457 453 455
f 457 455 458
f 457 458 459
f 459 458 460
f 459 460 461
f 461 460 462
f 461 462 463
f 463 462 464
f 463 464 465
f 465 464 466
f 465 466 467
f 467 466 468
f 467 468 469
f 469 468 470
f 469 470 471
f 471 470 472
f 471 472 473
f 473 472 474
f 473 474 475
f 475 474 476
f 475 476 477
f 477 476 478
f 477 478 479
f 479 478 480
f 479 480 481
f 481 480 482
f 481 482 483
f 483 482 484
f 483 484 485
f 485 484 486
f 485 486 487
f 487 486 488
f 487 488 489
f 489 488 490
f 489 490 491
f 491 490 492
f 491 492 493
f 493 492 494
f 493 494 495
f 495 494 496
f 495 496 497
f 497 496 498
f 497 498 499
f 499 498 500
f 499 500 501
f 501 500 502
f 501 502 503
f 503 502 504
f 503 504 505
f 505 504 506
f 505 506 507
f 507 506 508
f 507 508 509
f 509 508 510
f 509 510 511
f 511 510 512
f 511 512 513
f 513 512 514
f 513 514 515
f 515 514 516
f 515 516 517
f 517 516 518
f 517 518 519
f 519 518 520
f 519 520 521
f 521 520 522
f 521 522 523
f 523 522 524
f 523 524 525
f 525 524 526
f 525 526 527
f 527 526 528
f 527 528 529
f 529 528 530
f 529 530 531
f 531 530 532
f 531 532 533
f 533 532 534
f 533 534 535
f 535 534 536
f 535 536 537
f 537 536 538
f 537 538 539
f 539 538 540
f 539 540 541
f 541 540 542
f 541 542 543
f 543 542 544
f 543 544 545
f 545 544 546
f 545 546 547
f 547 546 548
f 547 548 549
f 549 548 550
f 549 550 551
f 551 550 552
f 551 552 553
f 553 552 554
f 553 554 555
f 555 554 556
f 555 556 557
f 557 556 558
f 557 558 559
f 559 558 560
f 559 560 561
f 561 560 562
f 561 562 563
f 563 562 564
f 563 564 565
f 565 564 566
f 565 566 567
f 567 566 568
f 567 568 569
f 569 568 570
f 569 570 571
f 571 570 572
f 571 572 573
f 573 572 574
f 573 574 575
f 575 574 576
f 575 576 577
f 577 576 578
f 577 578 579
f 579 578 580
f 579 580 581
f 581 580 582
f 581 582 583
f 583 582 584
f 583 584 585
f 585 584 586
f 585 586 587
f 587 586 588
f 587 588 589
f 589 588 590
f 589 590 591
f 591 590 592
f 591 592 593
f 593 592 594
f 593 594 595
f 595 594 596
f 595 596 597
f 597 596 598
f 597 598 599
f 599 598 600
f 599 600 601
f 601 600 602
f 601 602 603
f 603 602 604
f 603 604 456
f 456 604 454
f 605 606 607
f 608 606 605
f 609 605 607
f 609 607 610
f 609 610 611
f 611 610 612
f 611 612 613
f 613 612 614
f 613 614 615
f 615 614 616
f 615 616 617
f 617 616 618
f 617 618 619
f 619 618 620
f 619 620 621
f 621 620 622
f 621 622 623
f 623 622 624
f 623 624 625
f 625 624 626
f 625 626 627
f 627 626 628
f 627 628 629
f 629 628 630
f 629 630 631
f 631 630 632
f 631 632 633
f 633 632 634
f 633 634 635
f 635 634 636
f 635 636 637
f 637 636 638
f 637 638 639
f 639 638 640
f 639 640 641
f 641 640 642
f 641 642 643
f 643 642 644
f 643 644 645
f 645 644 646
f 645 646 647
f 647 646 648
f 647 648 649
f 649 648 650
f 649 650 651
f 651 650 652
f 651 652 653
f 653 652 654
f 653 654 655
f 655 654 656
f 655 656 657
f 657 656 658
f 657 658 659
f 659 658 660
f 659 660 661
f 661 660 662
f 661 662 663
f 663 662 664
f 663 664 665
f 665 664 666
f 665 666 667
f 667 666 668
f 667 668 669
f 669 668 670
f 669 670 671
f 671 670 672
f 671 672 673
f 673 672 674
f 673 674 675
f 675 674 676
f 675 676 677
f 677 676 678
f 677 678 679
f 679 678 680
f 679 680 681
f 681 680 682
f 681 682 683
f 683 682 684
f 683 684 685
f 685 684 686
f 685 686 687
f 687 686 688
f 687 688 689
f 689 688 690
f 689 690 691
f 691 690 692
f 691 692 693
f 693 692 694
f 693 694 695
f 695 694 696
f 695 696 697
f 697 696 698
f 697 698 699
f 699 698 700
f 699 700 701
f 701 700 702
f 701 702 703
f 703 702 704
f 703 704 705
f 705 704 706
f 705 706 707
f 707 706 708
f 707 708 709
f 709 708 710
f 709 710 711
f 711 710 712
f 711 712 713
f 713 712 714
f 713 714 715
f 715 714 716
f 715 716 717
f 717 716 718
f 717 718 719
f 719 718 720
f 719 720 721
f 721 720 722
f 721 722 723
f 723 722 724
f 723 724 725
f 725 724 726
f 725 726 727
f 727 726 728
f 727 728 729
f 729 728 730
f 729 730 731
f 731 730 732
f 731 732 733
f 733 732 734
f 733 734 735
f 735 734 736
f 735 736 737
f 737 736 738
f 737 738 739
f 739 738 740
f 739 740 741
f 741 740 742
f 741 742 743
f 743 742 744
f 743 744 745
f 745 744 746
f 745 746 747
f 747 746 748
f 747 748 749
f 749 748 750
f 749 750 751
f 751 750 752
f 751 752 753
f 753 752 754
f 753 754 755
f 755 754 756
f 755 756 608
f 608 756 606
f 757 758 759
f 760 758 757
f 761 757 759
f 761 759 762
f 761 762 763
f 763 762 764
f 763 764 765
f 765 764 766
f 765 766 767
f 767 766 768
f 767 768 769
f 769 768 770
f 769 770 771
f 771 770 772
f 771 772 773
f 773 772 774
f 773 774 775
f 775 774 776
f 775 776 777
f 777 776 778
f 777 778 779
f 779 778 780
f 779 780 781
f 781 780 782
f 781 782 783
f 783 782 784
f 783 784 785
f 785 784 786
f 785 786 787
f 787 786 788
f 787 788 789
f 789 788 790
f 789 790 791
f 791 790 792
f 791 792 793
f 793 792 794
f 793 794 795
f 795 794 796
f 795 796 797
f 797 796 798
f 797 798 799
f 799 798 800
f 799 800 801
f 801 800 802
f 801 802 803
f 803 802 804
f 803 804 805
f 805 804 806
f 805 806 807
f 807 806 808
f 807 808 809
f 809 808 810
f 809 810 811
f 811 810 812
f 811 812 813
f 813 812 814
f 813 814 815
f 815 814 816
f 815 816 817
f 817 816 818
f 817 818 819
f 819 818 820
f 819 820 821
f 821 820 822
f 821 822 823
f 823 822 824
f 823 824 825
f 825 824 826
f 825 826 827
f 827 826 828
f 827 828 829
f 829 828 830
f 829 830 831
f 831 830 832
f 831 832 833
f 833 832 834
f 833 834 835
f 835 834 836
f 835 836 837
f 837 836 838
f 837 838 839
f 839 838 840
f 839 840 841
f 841 840 842
f 841 842 843
f 843 842 844
f 843 844 845
f 845 844 846
f 845 846 847
f 847 846 848
f 847 848 849
f 849 848 850
f 849 850 851
f 851 850 852
f 851 852 853
f 853 852 854
f 853 854 855
f 855 854 856
f 855 856 857
f 857 856 858
f 857 858 859
f 859 858 860
f 859 860 861
f 861 860 862
f 861 862 863
f 863 862 864
f 863 864 865
f 865 864 866
f 865 866 867
f 867 866 868
f 867 868 869
f 869 868 870
f 869 870 871
f 871 870 872
f 871 872 873
f 873 872 874
f 873 874 875
f 875 874 876
f 875 876 877
f 877 876 878
f 877 878 879
f 879 878 880
f 879 880 881
f 881 880 882
f 881 882 883
f 883 882 884
f 883 884 885
f 885 884 886
f 885 886 887
f 887 886 888
f 887 888 889
f 889 888 890
f 889 890 891
f 891 890 892
f 891 892 893
f 893 892 894
f 893 894 895
f 895 894 896
f 895 896 897
f 897 896 898
f 897 898 899
f 899 898 900
f 899 900 901
f 901 900 902
f 901 902 903
f 903 902 904
f 903 904 905
f 905 904 906
f 905 906 907
f 907 906 908
f 907 908 760
f 760 908 758
f 909 910 911
f 912 910 909
f 909 911 913
f 913 911 914
f 913 914 915
f 915 914 916
f 917 915 916
f 917 916 918
f 917 918 919
f 919 918 920
f 919 920 921
f 921 920 922
f 921 922 923
f 923 922 924
f 923 924 925
f 925 924 926
f 925 926 927
f 927 926 928
f 927 928 929
f 929 928 930
f 929 930 931
f 931 930 932
f 931 932 933
f 933 932 934
f 933 934 935
f 935 934 936
f 935 936 937
f 937 936 938
f 937 938 939
f 939 938 940
f 939 940 941
f 941 940 942
f 941 942 943
f 943 942 944
f 943 944 945
f 945 944 946
f 945 946 947
f 947 946 948
f 947 948 949
f 949 948 950
f 949 950 951
f 951 950 952
f 951 952 953
f 953 952 954
f 953 954 955
f 955 954 956
f 955 956 957
f 957 956 958
f 957 958 959
f 959 958 960
f 959 960 961
f 961 960 962
f 961 962 963
f 963 962 964
f 963 964 965
f 965 964 966
f 965 966 967
f 967 966 968
f 967 968 969
f 969 968 970
f 969 970 971
f 971 970 972
f 971 972 973
f 973 972 974
f 973 974 975
f 975 974 976
f 975 976 977
f 977 976 978
f 977 978 979
f 979 978 980
f 979 980 981
f 981 980 982
f 982 980 983
f 982 983 984
f 982 984 985
f 985 984 986
f 985 986 987
f 987 986 988
f 987 988 989
f 989 988 990
f 989 990 991
f 991 990 992
f 991 992 993
f 993 992 994
f 993 994 995
f 995 994 996
f 995 996 997
f 997 996 998
f 997 998 999
f 999 998 1000
f 999 1000 1001
f 1001 1000 1002
f 1001 1002 1003
f 1003 1002 1004
f 1003 1004 1005
f 1005 1004 1006
f 1005 1006 1007
f 1007 1006 1008
f 1007 1008 1009
f 1009 1008 1010
f 1009 1010 1011
f 1011 1010 1012
f 1011 1012 1013
f 1013 1012 1014
f 1013 1014 1015
f 1015 1014 1016
f 1015 1016 1017
f 1017 1016 1018
f 1017 1018 1019
f 1019 1018 1020
f 1019 1020 1021
f 1021 1020 1022
f 1021 1022 1023
f 1023 1022 1024
f 1023 1024 1025
f 1025 1024 1026
f 1025 1026 1027
f 1027 1026 1028
f 1027 1028 1029
f 1029 1028 1030
f 1029 1030 1031
f 1031 1030 1032
f 1031 1032 1033
f 1033 1032 1034
f 1033 1034 1035
f 1035 1034 1036
f 1035 1036 1037
f 1037 1036 1038
f 1037 1038 1039
f 1039 1038 1040
f 1039 1040 1041
f 1041 1040 1042
f 1041 1042 1043
f 1043 1042 1044
f 1043 1044 1045
f 1045 1044 1046
f 1045 1046 1047
f 1047 1046 1048
f 1047 1048 1049
f 1049 1048 1050
f 1049 1050 1051
f 1051 1050 1052
f 1051 1052 1053
f 1053 1052 1054
f 1053 1054 1055
f 1055 1054 1056
f 1055 1056 1057
f 1057 1056 1058
f 1057 1058 1059
f 1059 1058 1060
f 1059 1060 1061
f 1061 1060 1062
f 1061 1062 1063
f 1063 1062 1064
f 1063 1064 1065
f 1065 1064 1066
f 1065 1066 1067
f 1067 1066 1068
f 1067 1068 1069
f 1069 1068 1070
f 1069 1070 1071
f 1071 1070 1072
f 1071 1072 1073
f 1073 1072 1074
f 1073 1074 1075
f 1075 1074 1076
f 1075 1076 1077
f 1077 1076 1078
f 1077 1078 1079
f 1079 1078 1080
f 1079 1080 1081
f 1081 1080 1082
f 1081 1082 1083
f 1083 1082 1084
f 1083 1084 1085
f 1085 1084 1086
f 1085 1086 1087
f 1087 1086 1088
f 1087 1088 1089
f 1089 1088 1090
f 1089 1090 1091
f 1091 1090 1092
f 1091 1092 1093
f 1093 1092 1094
f 1093 1094 1095
f 1095 1094 1096
f 1095 1096 1097
f 1097 1096 1098
f 1097 1098 1099
f 1099 1098 1100
f 1099 1100 1101
f 1101 1100 1102
f 1101 1102 1103
f 1103 1102 1104
f 1103 1104 1105
f 1105 1104 1106
f 1105 1106 1107
f 1107 1106 1108
f 1107 1108 1109
f 1109 1108 1110
f 1109 1110 1111
f 1111 1110 1112
f 1111 1112 1113
f 1113 1112 1114
f 1113 1114 1115
f 1115 1114 1116
f 1115 1116 1117
f 1117 1116 1118
f 1117 1118 1119
f 1119 1118 1120
f 1119 1120 1121
f 1121 1120 1122
f 1121 1122 1123
f 1123 1122 1124
f 1123 1124 1125
f 1125 1124 1126
f 1125 1126 1127
f 1127 1126 1128
f 1127 1128 1129
f 1129 1128 1130
f 1129 1130 1131
f 1131 1130 1132
f 1131 1132 1133
f 1133 1132 1134
f 1133 1134 1135
f 1135 1134 1136
f 1135 1136 1137
f 1137 1136 1138
f 1137 1138 1139
f 1139 1138 1140
f 1139 1140 1141
f 1141 1140 1142
f 1141 1142 1143
f 1143 1142 1144
f 1143 1144 1145
f 1145 1144 1146
f 1145 1146 1147
f 1147 1146 1148
f 1147 1148 1149
f 1149 1148 1150
f 1149 1150 1151
f 1151 1150 1152
f 1151 1152 1153
f 1153 1152 1154
f 1153 1154 1155
f 1155 1154 1156
f 1155 1156 1157
f 1157 1156 1158
f 1157 1158 1159
f 1159 1158 1160
f 1159 1160 1161
f 1161 1160 1162
f 1161 1162 1163
f 1163 1162 1164
f 1163 1164 1165
f 1165 1164 1166
f 1165 1166 1167
f 1167 1166 1168
f 1167 1168 1169
f 1169 1168 1170
f 1169 1170 1171
f 1171 1170 1172
f 1171 1172 1173
f 1173 1172 1174
f 1173 1174 1175
f 1175 1174 1176
f 1175 1176 1177
f 1177 1176 1178
f 1177 1178 1179
f 1179 1178 1180
f 1179 1180 1181
f 1181 1180 1182
f 1181 1182 1183
f 1183 1182 1184
f 1183 1184 1185
f 1185 1184 1186
f 1185 1186 1187
f 1187 1186 1188
f 1187 1188 1189
f 1189 1188 1190
f 1189 1190 1191
f 1191 1190 1192
f 1191 1192 1193
f 1193 1192 1194
f 1193 1194 1195
f 1195 1194 1196
f 1195 1196 1197
f 1197 1196 1198
f 1197 1198 1199
f 1199 1198 1200
f 1199 1200 1201
f 1201 1200 1202
f 1201 1202 1203
f 1203 1202 1204
f 1203 1204 1205
f 1205 1204 1206
f 1205 1206 1207
f 1207 1206 1208
f 1207 1208 1209
f 1209 1208 1210
f 1209 1210 1211
f 1211 1210 1212
f 1211 1212 1213
f 1213 1212 1214
f 1213 1214 1215
f 1215 1214 1216
f 1215 1216 1217
f 1217 1216 1218
f 1217 1218 1219
f 1219 1218 1220
f 1219 1220 1221
f 1221 1220 1222
f 1221 1222 1223
f 1223 1222 1224
f 1223 1224 1225
f 1225 1224 1226
f 1225 1226 1227
f 1227 1226 1228
f 1227 1228 1229
f 1229 1228 1230
f 1229 1230 1231
f 1231 1230 1232
f 1231 1232 1233
f 1233 1232 1234
f 1233 1234 1235
f 1235 1234 1236
f 1235 1236 1237
f 1237 1236 1238
f 1237 1238 1239
f 1239 1238 1240
f 1239 1240 1241
f 1241 1240 1242
f 1241 1242 1243
f 1243 1242 1244
f 1243 1244 1245
f 1245 1244 1246
f 1245 1246 1247
f 1247 1246 1248
f 1247 1248 1249
f 1249 1248 1250
f 1249 1250 1251
f 1251 1250 1252
f 1251 1252 1253
f 1253 1252 1254
f 1253 1254 1255
f 1255 1254 1256
f 1255 1256 1257
f 1257 1256 1258
f 1257 1258 1259
f 1259 1258 1260
f 1259 1260 1261
f 1261 1260 1262
f 1261 1262 1263
f 1263 1262 1264
f 1263 1264 1265
f 1265 1264 1266
f 1265 1266 1267
f 1267 1266 1268
f 1267 1268 1269
f 1269 1268 1270
f 1269 1270 1271
f 1271 1270 1272
f 1271 1272 1273
f 1273 1272 1274
f 1273 1274 1275
f 1275 1274 1276
f 1275 1276 1277
f 1277 1276 1278
f 1277 1278 1279
f 1279 1278 1280
f 1279 1280 1281
f 1281 1280 1282
f 1281 1282 1283
f 1283 1282 1284
f 1283 1284 1285
f 1285 1284 1286
f 1285 1286 1287
f 1287 1286 1288
f 1287 1288 1289
f 1289 1288 1290
f 1289 1290 1291
f 1291 1290 1292
f 1291 1292 1293
f 1293 1292 1294
f 1293 1294 1295
f 1295 1294 1296
f 1295 1296 1297
f 1297 1296 1298
f 1297 1298 1299
f 1299 1298 1300
f 1299 1300 1301
f 1301 1300 1302
f 1301 1302 1303
f 1303 1302 1304
f 1303 1304 1305
f 1305 1304 1306
f 1305 1306 1307
f 1307 1306 1308
f 1307 1308 1309
f 1309 1308 1310
f 1309 1310 1311
f 1311 1310 1312
f 1311 1312 1313
f 1313 1312 1314
f 1313 1314 1315
f 1315 1314 1316
f 1315 1316 1317
f 1317 1316 1318
f 1317 1318 1319
f 1319 1318 1320
f 1319 1320 1321
f 1321 1320 1322
f 1321 1322 1323
f 1323 1322 1324
f 1323 1324 1325
f 1325 1324 1326
f 1325 1326 1327
f 1327 1326 1328
f 1327 1328 1329
f 1329 1328 1330
f 1329 1330 1331
f 1331 1330 1332
f 1331 1332 1333
f 1333 1332 1334
f 1333 1334 1335
f 1335 1334 1336
f 1335 1336 1337
f 1337 1336 1338
f 1337 1338 1339
f 1339 1338 1340
f 1339 1340 1341
f 1341 1340 1342
f 1341 1342 1343
f 1343 1342 1344
f 1343 1344 1345
f 1345 1344 1346
f 1345 1346 1347
f 1347 1346 1348
f 1347 1348 1349
f 1349 1348 1350
f 1349 1350 1351
f 1351 1350 1352
f 1351 1352 1353
f 1353 1352 1354
f 1353 1354 1355
f 1355 1354 1356
f 1355 1356 912
f 912 1356 910
f 1357 1358 1359
f 1357 1360 1358
f 1361 1357 1359
f 1361 1359 1362
f 1362 1359 1363
f 1364 1361 1362
f 1364 1362 1365
f 1366 1364 1365
f 1366 1365 1367
f 1368 1366 1367
f 1368 1367 1369
f 1368 1369 1370
f 1371 1368 1370
f 1371 1370 1372
f 1373 1371 1372
f 1374 1373 1372
f 1374 1372 1375
f 1376 1374 1375
f 1377 1376 1375
f 1378 1377 1375
f 1379 1378 1375
f 1379 1375 1380
f 1381 1379 1380
f 1382 1381 1380
f 1383 1382 1380
f 1383 1380 1384
f 1385 1383 1384
f 1386 1385 1384
f 1387 1386 1384
f 1387 1384 1388
f 1384 1389 1388
f 1387 1388 1390
f 1387 1390 1391
f 1387 1391 1392
f 1387 1392 1393
f 1387 1393 1394
f 1395 1387 1394
f 1395 1394 1396
f 1395 1396 1397
f 1395 1397 1398
f 1395 1398 1399
f 1395 1399 1400
f 1401 1395 1400
f 1401 1400 1402
f 1401 1402 1403
f 1401 1403 1404
f 1401 1404 1405
f 1406 1401 1405
f 1406 1405 1407
f 1406 1407 1408
f 1406 1408 1409
f 1406 1409 1410
f 1411 1406 1410
f 1411 1410 1412
f 1411 1412 1413
f 1411 1413 1414
f 1415 1411 1414
f 1415 1414 1416
f 1415 1416 1417
f 1415 1417 1418
f 1415 1418 1419
f 1420 1415 1419
f 1420 1419 1421
f 1420 1421 1422
f 1420 1422 1423
f 1420 1423 1424
f 1420 1424 1425
f 1426 1420 1425
f 1426 1425 1427
f 1426 1427 1428
f 1426 1428 1429
f 1426 1429 1430
f 1426 1430 1431
f 1426 1431 1432
f 1426 1432 1433
f 1426 1433 1434
f 1435 1426 1434
f 1435 1434 1436
f 1436 1434 1437
f 1438 1435 1436
f 1438 1436 1439
f 1440 1438 1439
f 1441 1440 1439
f 1442 1441 1439
f 1442 1439 1443
f 1442 1443 1444
f 1445 1442 1444
f 1445 1444 1446
f 1447 1445 1446
f 1447 1448 1445
f 1448 1449 1445
f 1449 1450 1445
f 1450 1451 1445
f 1451 1452 1445
f 1452 1453 1445
f 1452 1454 1453
f 1454 1455 1453
f 1455 1456 1453
f 1456 1457 1453
f 1457 1458 1453
f 1458 1459 1453
f 1459 1460 1453
f 1459 1461 1460
f 1459 1462 1461
f 1460 1461 1463
f 1460 1463 1464
f 1460 1464 1465
f 1460 1465 1466
f 1460 1466 1467
f 1460 1467 1468
f 1460 1468 1469
f 1460 1469 1470
f 1460 1470 1471
f 1460 1471 1472
f 1460 1472 1473
f 1460 1473 1474
f 1460 1474 1475
f 1460 1475 1476
f 1460 1476 1477
f 1460 1477 1478
f 1460 1478 1479
f 1480 1460 1479
f 1480 1479 1481
f 1480 1481 1482
f 1480 1482 1483
f 1480 1483 1484
f 1480 1484 1485
f 1480 1485 1486
f 1480 1486 1487
f 1480 1487 1488
f 1480 1488 1489
f 1480 1489 1490
f 1480 1490 1491
f 1480 1491 1492
f 1480 1492 1493
f 1480 1493 1494
f 1480 1494 1495
f 1496 1480 1495
f 1496 1495 1497
f 1496 1497 1498
f 1496 1498 1499
f 1496 1499 1500
f 1496 1500 1501
f 1496 1501 1502
f 1503 1496 1502
f 1503 1504 1496
f 1505 1503 1502
f 1505 1502 1506
f 1505 1506 1507
f 1505 1507 1508
f 1505 1508 1509
f 1505 1509 1510
f 1511 1505 1510
f 1511 1510 1512
f 1511 1512 1513
f 1514 1511 1513
f 1514 1513 1515
f 1514 1515 1516
f 1517 1514 1516
f 1517 1516 1518
f 1519 1517 1518
f 1519 1518 1520
f 1519 1520 1521
f 1522 1519 1521
f 1522 1521 1523
f 1524 1522 1523
f 1524 1523 1525
f 1524 1525 1526
f 1527 1524 1526
f 1527 1526 1528
f 1529 1527 1528
f 1529 1528 1530
f 1529 1530 1531
f 1532 1529 1531
f 1532 1531 1533
f 1534 1532 1533
f 1534 1533 1535
f 1536 1534 1535
f 1536 1535 1537
f 1536 1537 1538
f 1539 1536 1538
f 1539 1538 1540
f 1539 1540 1541
f 1542 1539 1541
f 1542 1541 1543
f 1544 1542 1543
f 1544 1543 1545
f 1544 1545 1546
f 1547 1544 1546
f 1547 1546 1548
f 1547 1548 1549
f 1550 1547 1549
f 1550 1549 1551
f 1550 1551 1552
f 1550 1552 1553
f 1462 1550 1553
f 1462 1553 1554
f 1462 1554 1555
f 1462 1555 1556
f 1462 1556 1557
f 1462 1557 1558
f 1462 1558 1461
f 1504 1559 1496
f 1559 1560 1496
f 1559 1561 1560
f 1561 1562 1560
f 1561 1563 1562
f 1561 1564 1563
f 1561 1565 1564
f 1561 1566 1565
f 1561 1567 1566
f 1561 1568 1567
f 1561 1569 1568
f 1561 1570 1569
f 1561 1571 1570
f 1561 1572 1571
f 1561 1573 1572
f 1561 1574 1573
f 1561 1575 1574
f 1561 1576 1575
f 1561 1577 1576
f 1577 1578 1576
f 1578 1579 1576
f 1578 1580 1579
f 1580 1581 1579
f 1580 1582 1581
f 1582 1583 1581
f 1582 1584 1583
f 1584 1585 1583
f 1585 1586 1583
f 1585 1587 1586
f 1587 1588 1586
f 1588 1589 1586
f 1588 1590 1589
f 1590 1591 1589
f 1591 1592 1589
f 1591 1593 1592
f 1593 1594 1592
f 1594 1595 1592
f 1594 1596 1595
f 1596 1597 1595
f 1597 1598 1595
f 1597 1599 1598
f 1599 1600 1598
f 1600 1601 1598
f 1600 1602 1601
f 1436 1437 1603
f 1436 1603 1604
f 1436 1604 1605
f 1436 1605 1606
f 1436 1606 1607
f 1436 1607 1608
f 1436 1608 1609
f 1436 1609 1610
f 1436 1610 1611
f 1436 1611 1612
f 1436 1612 1613
f 1614 1436 1613
f 1614 1613 1615
f 1614 1615 1616
f 1614 1616 1617
f 1614 1617 1618
f 1614 1618 1619
f 1614 1619 1620
f 1614 1620 1621
f 1614 1621 1622
f 1614 1622 1623
f 1614 1623 1624
f 1614 1624 1625
f 1626 1614 1625
f 1626 1625 1627
f 1626 1627 1628
f 1626 1628 1629
f 1626 1629 1630
f 1626 1630 1631
f 1626 1631 1632
f 1626 1632 1633
f 1626 1633 1634
f 1626 1634 1635
f 1626 1635 1636
f 1626 1636 1637
f 1626 1637 1638
f 1626 1638 1639
f 1626 1639 1389
f 1384 1626 1389
f 1640 1362 1363
f 1640 1363 1641
f 1640 1641 1642
f 1640 1642 1643
f 1640 1643 1644
f 1640 1644 1645
f 1640 1645 1646
f 1640 1646 1647
f 1640 1647 1648
f 1649 1640 1648
f 1649 1648 1650
f 1649 1650 1651
f 1649 1651 1652
f 1653 1649 1652
f 1653 1652 1654
f 1653 1654 1655
f 1653 1655 1656
f 1657 1653 1656
f 1657 1656 1658
f 1657 1658 1659
f 1657 1659 1660
f 1661 1657 1660
f 1661 1660 1662
f 1661 1662 1663
f 1661 1663 1664
f 1665 1661 1664
f 1665 1664 1666
f 1665 1666 1667
f 1665 1667 1668
f 1669 1665 1668
f 1669 1668 1670
f 1669 1670 1671
f 1669 1671 1672
f 1673 1669 1672
f 1673 1672 1674
f 1673 1674 1675
f 1673 1675 1676
f 1673 1676 1677
f 1678 1673 1677
f 1678 1677 1679
f 1678 1679 1680
f 1678 1680 1681
f 1678 1681 1682
f 1678 1682 1683
f 1678 1683 1684
f 1678 1684 1685
f 1686 1678 1685
f 1687 1686 1685
f 1687 1688 1686
f 1687 1685 1689
f 1687 1689 1690
f 1687 1690 1691
f 1692 1687 1691
f 1692 1691 1693
f 1692 1693 1694
f 1692 1694 1695
f 1692 1695 1696
f 1692 1696 1697
f 1692 1697 1698
f 1699 1692 1698
f 1699 1698 1700
f 1699 1700 1701
f 1699 1701 1702
f 1703 1699 1702
f 1703 1702 1704
f 1703 1704 1705
f 1703 1705 1706
f 1703 1706 1707
f 1708 1703 1707
f 1708 1707 1709
f 1708 1709 1710
f 1708 1710 1711
f 1712 1708 1711
f 1712 1711 1713
f 1712 1713 1714
f 1712 1714 1715
f 1716 1712 1715
f 1716 1715 1717
f 1716 1717 1718
f 1716 1718 1719
f 1716 1719 1720
f 1721 1716 1720
f 1721 1720 1722
f 1721 1722 1723
f 1721 1723 1724
f 1721 1724 1725
f 1357 1721 1725
f 1357 1725 1726
f 1357 1726 1727
f 1357 1727 1728
f 1357 1728 1729
f 1357 1729 1730
f 1357 1730 1360
f 1687 1731 1688
f 1731 1732 1688
f 1731 1733 1732
f 1733 1734 1732
f 1733 1735 1734
f 1735 1736 1734
f 1735 1737 1736
f 1737 1738 1736
f 1738 1739 1736
f 1738 1740 1739
f 1740 1741 1739
f 1740 1742 1741
f 1742 1743 1741
f 1742 1744 1743
f 1744 1745 1743
f 1744 1746 1745
f 1746 1747 1745
f 1747 1748 1745
f 1747 1749 1748
f 1749 1750 1748
f 1749 1751 1750
f 1751 1752 1750
f 1751 1753 1752
f 1753 1754 1752
f 1754 1755 1752
f 1754 1756 1755
f 1756 1757 1755
f 1756 1758 1757
f 1758 1759 1757
f 1758 1760 1759
f 1760 1761 1759
f 1761 1762 1759
f 1761 1763 1762
f 1763 1764 1762
f 1763 1765 1764
f 1765 1766 1764
f 1765 1767 1766
f 1767 1768 1766
f 1768 1769 1766
f 1768 1770 1769
f 1770 1771 1769
f 1770 1772 1771
f 1772 1773 1771
f 1772 1774 1773
f 1774 1775 1773
f 1775 1776 1773
f 1775 1777 1776
f 1777 1778 1776
f 1777 1779 1778
f 1779 1780 1778
f 1779 1781 1780
f 1781 1782 1780
f 1781 1783 1782
f 1783 1784 1782
f 1784 1785 1782
f 1784 1786 1785
f 1786 1787 1785
f 1786 1788 1787
f 1788 1789 1787
f 1788 1790 1789
f 1790 1791 1789
f 1790 1792 1791
f 1792 1793 1791
f 1793 1794 1791
f 1793 1795 1794
f 1795 1796 1794
f 1795 1797 1796
f 1797 1798 1796
f 1797 1799 1798
f 1799 1800 1798
f 1799 1801 1800
f 1801 1802 1800
f 1801 1803 1802
f 1803 1804 1802
f 1803 1805 1804
f 1805 1806 1804
f 1805 1807 1806
f 1807 1808 1806
