1604 1612 0
v 0.03530331 0.039641115 -0.0028125
v 0.03228624 0.03988104 -0.0028125
v 0.03232725 0.04006869 -0.0028125
v 0.032187495 0.039735765 -0.0028125
v 0.03228624 0.040256355 -0.0028125
v 0.032187495 0.04040163 -0.0028125
v 0.03203307 0.040503285 -0.0028125
v 0.03620883 0.040893645 -0.0028125
v 0.0318585 0.040536375 -0.0028125
v 0.028575765 0.040577805 -0.0028125
v 0.03168393 0.040503285 -0.0028125
v 0.029464515 0.042036735 -0.0028125
v 0.037136565 0.042113715 -0.0028125
v 0.030369045 0.04346259 -0.0028125
v 0.0380838 0.04330191 -0.0028125
v 0.03905538 0.044457225 -0.0028125
v 0.03128769 0.044856195 -0.0028125
v 0.04006362 0.045578595 -0.0028125
v 0.03223584 0.046223835 -0.0028125
v 0.04110726 0.04666494 -0.0028125
v 0.033222075 0.04757322 -0.0028125
v 0.042195915 0.047704485 -0.0028125
v 0.03424776 0.04889748 -0.0028125
v 0.04332888 0.04869861 -0.0028125
v 0.0439128 0.04917408 -0.0028125
v 0.03532269 0.05019318 -0.0028125
v 0.044509155 0.04963317 -0.0028125
v 0.04511802 0.050077815 -0.0028125
v 0.04573839 0.05050734 -0.0028125
v 0.036444705 0.05145834 -0.0028125
v 0.0463692 0.05092086 -0.0028125
v 0.04700946 0.05131755 -0.0028125
v 0.04765962 0.0516978 -0.0028125
v 0.037617315 0.05267502 -0.0028125
v 0.048319995 0.05206185 -0.0028125
v 0.048990555 0.052409685 -0.0028125
v 0.0496713 0.05274132 -0.0028125
v 0.038840415 0.053845995 -0.0028125
v 0.04011114 0.054954615 -0.0028125
v 0.04142901 0.05599731 -0.0028125
v 0.042794415 0.05697708 -0.0028125
v 0.031529505 0.04040163 -0.0028125
v 0.031430745 0.040256355 -0.0028125
v 0.03138975 0.04006869 -0.0028125
v 0.031430745 0.03988104 -0.0028125
v 0.02813148 0.039829905 -0.0028125
v 0.031529505 0.039735765 -0.0028125
v 0.03168393 0.039634095 -0.0028125
v 0.0318585 0.03960102 -0.0028125
v 0.03496248 0.03915549 -0.0028125
v 0.02768742 0.03907038 -0.0028125
v 0.035136165 0.039405705 -0.0028125
v 0.03203307 0.039634095 -0.0028125
v 0.03478194 0.038890575 -0.0028125
v 0.0345984 0.03861009 -0.0028125
v 0.034412835 0.038313165 -0.0028125
v 0.02724489 0.038300475 -0.0028125
v 0.03422811 0.03799797 -0.0028125
v 0.034045335 0.037659555 -0.0028125
v 0.026801775 0.03751722 -0.0028125
v 0.03386511 0.037294845 -0.0028125
v 0.033692625 0.036895965 -0.0028125
v 0.02635599 0.03671763 -0.0028125
v 0.02948334 0.036714255 -0.0028125
v 0.033530055 0.03646068 -0.0028125
v 0.02930877 0.036681165 -0.0028125
v 0.029154345 0.03657951 -0.0028125
v 0.029055585 0.03643422 -0.0028125
v 0.02901459 0.03624657 -0.0028125
v 0.029055585 0.03605892 -0.0028125
v 0.029154345 0.035913645 -0.0028125
v 0.025905885 0.03589938 -0.0028125
v 0.02930877 0.035811975 -0.0028125
v 0.02948334 0.035778885 -0.0028125
v 0.033268215 0.035455755 -0.0028125
v 0.025452765 0.035064315 -0.0028125
v 0.02965791 0.035811975 -0.0028125
v 0.029812335 0.035913645 -0.0028125
v 0.033386205 0.03598137 -0.0028125
v 0.02991108 0.03605892 -0.0028125
v 0.02995209 0.03624657 -0.0028125
v 0.02991108 0.03643422 -0.0028125
v 0.029812335 0.03657951 -0.0028125
v 0.02965791 0.036681165 -0.0028125
v 0.033182835 0.03487707 -0.0028125
v 0.03314904 0.034256895 -0.0028125
v 0.02499696 0.034212945 -0.0028125
v 0.033172995 0.03359892 -0.0028125
v 0.0245385 0.03334524 -0.0028125
v 0.0332736 0.032938965 -0.0028125
v 0.027233715 0.032816925 -0.0028125
v 0.03335247 0.03260895 -0.0028125
v 0.027059145 0.032783835 -0.0028125
v 0.02690472 0.03268218 -0.0028125
v 0.026805975 0.03253689 -0.0028125
v 0.02407737 0.032461215 -0.0028125
v 0.026764965 0.03234924 -0.0028125
v 0.023965425 0.032245725 -0.0028125
v 0.026805975 0.03216159 -0.0028125
v 0.023856645 0.03202479 -0.0028125
v 0.02690472 0.0320163 -0.0028125
v 0.027059145 0.031914645 -0.0028125
v 0.027233715 0.031881555 -0.0028125
v 0.02375103 0.03179841 -0.0028125
v 0.033716895 0.03166161 -0.0028125
v 0.02364858 0.03156657 -0.0028125
v 0.027408285 0.031914645 -0.0028125
v 0.033573945 0.03197109 -0.0028125
v 0.02756271 0.0320163 -0.0028125
v 0.027661455 0.03216159 -0.0028125
v 0.033451935 0.032286525 -0.0028125
v 0.027702465 0.03234924 -0.0028125
v 0.027661455 0.03253689 -0.0028125
v 0.02756271 0.03268218 -0.0028125
v 0.027408285 0.032783835 -0.0028125
v 0.034052025 0.03108174 -0.0028125
v 0.023548485 0.03132843 -0.0028125
v 0.02345004 0.031083225 -0.0028125
v 0.023386455 0.030917055 -0.0028125
v 0.034452765 0.030556725 -0.0028125
v 0.02332539 0.03074961 -0.0028125
v 0.02326758 0.03058167 -0.0028125
v 0.02321364 0.030413865 -0.0028125
v 0.034882275 0.030105135 -0.0028125
v 0.02316237 0.03024444 -0.0028125
v 0.023113545 0.03007335 -0.0028125
v 0.035332185 0.029724795 -0.0028125
v 0.023067765 0.029901585 -0.0028125
v 0.0230256 0.02973018 -0.0028125
v 0.022987665 0.029560155 -0.0028125
v 0.03577665 0.029408445 -0.0028125
v 0.0229545 0.02939253 -0.0028125
v 0.03621246 0.029146425 -0.0028125
v 0.022925985 0.029226915 -0.0028125
v 0.02290134 0.029061915 -0.0028125
v 0.036633255 0.028931895 -0.0028125
v 0.02499096 0.028915635 -0.0028125
v 0.03703683 0.02875251 -0.0028125
v 0.022880835 0.028898115 -0.0028125
v 0.02481639 0.028882545 -0.0028125
v 0.024661965 0.02878089 -0.0028125
v 0.022864755 0.02873619 -0.0028125
v 0.02456322 0.0286356 -0.0028125
v 0.02285334 0.02857677 -0.0028125
v 0.02452221 0.02844795 -0.0028125
v 0.02284689 0.028420515 -0.0028125
v 0.02456322 0.0282603 -0.0028125
v 0.02284554 0.028267725 -0.0028125
v 0.02284887 0.028117005 -0.0028125
v 0.024661965 0.02811501 -0.0028125
v 0.02481639 0.028013355 -0.0028125
v 0.02499096 0.027980265 -0.0028125
v 0.022856895 0.027968655 -0.0028125
v 0.04201488 0.027430965 -0.0028125
v 0.02286975 0.02782329 -0.0028125
v 0.039756285 0.027980685 -0.0028125
v 0.02516553 0.028013355 -0.0028125
v 0.039445425 0.028050285 -0.0028125
v 0.025319955 0.02811501 -0.0028125
v 0.039129915 0.028122795 -0.0028125
v 0.0254187 0.0282603 -0.0028125
v 0.03881016 0.02819778 -0.0028125
v 0.03848172 0.028280535 -0.0028125
v 0.02545971 0.02844795 -0.0028125
v 0.038143275 0.02837283 -0.0028125
v 0.037790835 0.028479405 -0.0028125
v 0.0254187 0.0286356 -0.0028125
v 0.037422705 0.028604955 -0.0028125
v 0.025319955 0.02878089 -0.0028125
v 0.02516553 0.028882545 -0.0028125
v 0.02288757 0.027681555 -0.0028125
v 0.022910505 0.02754408 -0.0028125
v 0.022938675 0.02741148 -0.0028125
v 0.044248635 0.02681394 -0.0028125
v 0.022971735 0.027282885 -0.0028125
v 0.023009595 0.027157875 -0.0028125
v 0.023052525 0.02703696 -0.0028125
v 0.02310081 0.026920665 -0.0028125
v 0.023154705 0.0268095 -0.0028125
v 0.046457565 0.02612958 -0.0028125
v 0.02321448 0.026703975 -0.0028125
v 0.023280465 0.02660364 -0.0028125
v 0.02335266 0.02650701 -0.0028125
v 0.023430645 0.02641512 -0.0028125
v 0.023514045 0.026329155 -0.0028125
v 0.023579865 0.026269275 -0.0028125
v 0.02364831 0.02621385 -0.0028125
v 0.0237192 0.02616339 -0.0028125
v 0.023792415 0.02611821 -0.0028125
v 0.048641655 0.025377915 -0.0028125
v 0.02386827 0.0260775 -0.0028125
v 0.02394678 0.026041095 -0.0028125
v 0.02402799 0.026008995 -0.0028125
v 0.02411187 0.0259812 -0.0028125
v 0.02419842 0.025957725 -0.0028125
v 0.02428767 0.025938555 -0.0028125
v 0.024379575 0.02592369 -0.0028125
v 0.02447418 0.025913145 -0.0028125
v 0.02640762 0.025743195 -0.0028125
v 0.028328355 0.025499475 -0.0028125
v 0.03023685 0.025182015 -0.0028125
v 0.050801385 0.0245589 -0.0028125
v 0.03213522 0.024790905 -0.0028125
v 0.034016385 0.02432583 -0.0028125
v 0.05293746 0.02367252 -0.0028125
v 0.03587589 0.02378622 -0.0028125
v 0.036798705 0.02348847 -0.0028125
v 0.05504832 0.022718835 -0.0028125
v 0.03771549 0.02317233 -0.0028125
v 0.038625045 0.022838025 -0.0028125
v 0.03952632 0.022485705 -0.0028125
v 0.057132255 0.02169795 -0.0028125
v 0.04042089 0.02211489 -0.0028125
v 0.0413088 0.021725685 -0.0028125
v 0.042188925 0.02131851 -0.0028125
v 0.05918772 0.02060994 -0.0028125
v 0.04306017 0.020893845 -0.0028125
v 0.043921425 0.02045208 -0.0028125
v 0.061215435 0.01945476 -0.0028125
v 0.044773425 0.01999278 -0.0028125
v 0.045617025 0.01951557 -0.0028125
v 0.046451205 0.019021125 -0.0028125
v 0.06321585 0.018232395 -0.0028125
v 0.04727499 0.01851009 -0.0028125
v 0.048087405 0.017983155 -0.0028125
v 0.065188965 0.016942845 -0.0028125
v 0.04888836 0.01744023 -0.0028125
v 0.049679175 0.01688028 -0.0028125
v 0.06616527 0.01627287 -0.0028125
v 0.0504591 0.016304085 -0.0028125
v 0.051227295 0.0157125 -0.0028125
v 0.06713478 0.015586095 -0.0028125
v 0.06767118 0.015144825 -0.0028125
v 0.06814134 0.014653125 -0.0028125
v 0.052725495 0.014486235 -0.0028125
v 0.06854634 0.01410873 -0.0028125
v 0.06888879 0.013506405 -0.0028125
v 0.05417457 0.013199895 -0.0028125
v 0.06915564 0.01287252 -0.0028125
v 0.064035795 0.012889425 -0.0028125
v 0.064420215 0.012808455 -0.0028125
v 0.063649845 0.012889425 -0.0028125
v 0.063265425 0.012808455 -0.0028125
v 0.062912505 0.012652185 -0.0028125
v 0.06259389 0.01242342 -0.0028125
v 0.062332755 0.012134625 -0.0028125
v 0.055572465 0.01185747 -0.0028125
v 0.062132565 0.01179351 -0.0028125
v 0.062012445 0.011425635 -0.0028125
v 0.06196782 0.011025 -0.0028125
v 0.062012445 0.010624365 -0.0028125
v 0.056915445 0.010464945 -0.0028125
v 0.062132565 0.01025649 -0.0028125
v 0.062332755 0.009915375 -0.0028125
v 0.06259389 0.00962658 -0.0028125
v 0.062912505 0.009397815 -0.0028125
v 0.063265425 0.009241545 -0.0028125
v 0.063649845 0.009160575 -0.0028125
v 0.058204635 0.009020535 -0.0028125
v 0.06903201 0.008853105 -0.0028125
v 0.06873078 0.008240595 -0.0028125
v 0.064035795 0.009160575 -0.0028125
v 0.064420215 0.009241545 -0.0028125
v 0.064773135 0.009397815 -0.0028125
v 0.06925503 0.00949386 -0.0028125
v 0.065091735 0.00962658 -0.0028125
v 0.065352885 0.009915375 -0.0028125
v 0.069399855 0.010170195 -0.0028125
v 0.06555306 0.01025649 -0.0028125
v 0.065673195 0.010624365 -0.0028125
v 0.069464625 0.01086177 -0.0028125
v 0.06571782 0.011025 -0.0028125
v 0.065673195 0.011425635 -0.0028125
v 0.06944418 0.011541465 -0.0028125
v 0.06555306 0.01179351 -0.0028125
v 0.065352885 0.012134625 -0.0028125
v 0.06933975 0.012218205 -0.0028125
v 0.065091735 0.01242342 -0.0028125
v 0.064773135 0.012652185 -0.0028125
v 0.068358945 0.007672725 -0.0028125
v 0.059440275 0.007523835 -0.0028125
v 0.067909965 0.007143375 -0.0028125
v 0.059906085 0.0070086 -0.0028125
v 0.06740214 0.006670185 -0.0028125
v 0.06041919 0.0065619 -0.0028125
v 0.06685224 0.006272265 -0.0028125
v 0.060981885 0.00618273 -0.0028125
v 0.066254445 0.00594279 -0.0028125
v 0.06159954 0.00586875 -0.0028125
v 0.065624805 0.00569013 -0.0028125
v 0.062245185 0.00563178 -0.0028125
v 0.06495597 0.005513895 -0.0028125
v 0.062907375 0.005478375 -0.0028125
v 0.06426816 0.005416935 -0.0028125
v 0.063588255 0.00540564 -0.0028125
v 0.03232725 0.04006869 0.0028125
v 0.03232725 0.04006869 -0.0028125
v 0.03228624 0.03988104 -0.0028125
v 0.032288265 0.040253235 0.0028125
v 0.032288265 0.03988416 0.0028125
v 0.032190615 0.039739215 0.0028125
v 0.032187495 0.039735765 -0.0028125
v 0.03203628 0.03963531 0.0028125
v 0.03203307 0.039634095 -0.0028125
v 0.0318585 0.03960102 -0.0028125
v 0.0318585 0.039601605 0.0028125
v 0.03168393 0.039634095 -0.0028125
v 0.031680705 0.03963531 0.0028125
v 0.031529505 0.039735765 -0.0028125
v 0.031526385 0.039739215 0.0028125
v 0.031430745 0.03988104 -0.0028125
v 0.03142872 0.03988416 0.0028125
v 0.03138975 0.04006869 -0.0028125
v 0.03138975 0.04006869 0.0028125
v 0.031430745 0.040256355 -0.0028125
v 0.03142872 0.040253235 0.0028125
v 0.031526385 0.04039818 0.0028125
v 0.031529505 0.04040163 -0.0028125
v 0.031680705 0.040502085 0.0028125
v 0.03168393 0.040503285 -0.0028125
v 0.0318585 0.040536375 -0.0028125
v 0.0318585 0.04053579 0.0028125
v 0.03203307 0.040503285 -0.0028125
v 0.03203628 0.040502085 0.0028125
v 0.032187495 0.04040163 -0.0028125
v 0.032190615 0.04039818 0.0028125
v 0.03228624 0.040256355 -0.0028125
v 0.02995209 0.03624657 0.0028125
v 0.02995209 0.03624657 -0.0028125
v 0.02991108 0.03605892 -0.0028125
v 0.029913105 0.036431115 0.0028125
v 0.029913105 0.03606204 0.0028125
v 0.029815455 0.03591708 0.0028125
v 0.029812335 0.035913645 -0.0028125
v 0.02966112 0.03581319 0.0028125
v 0.02965791 0.035811975 -0.0028125
v 0.02948334 0.035778885 -0.0028125
v 0.02948334 0.035779485 0.0028125
v 0.02930877 0.035811975 -0.0028125
v 0.029305545 0.03581319 0.0028125
v 0.029154345 0.035913645 -0.0028125
v 0.029151225 0.03591708 0.0028125
v 0.029055585 0.03605892 -0.0028125
v 0.02905356 0.03606204 0.0028125
v 0.02901459 0.03624657 -0.0028125
v 0.02901459 0.03624657 0.0028125
v 0.029055585 0.03643422 -0.0028125
v 0.02905356 0.036431115 0.0028125
v 0.029151225 0.03657606 0.0028125
v 0.029154345 0.03657951 -0.0028125
v 0.029305545 0.036679965 0.0028125
v 0.02930877 0.036681165 -0.0028125
v 0.02948334 0.036714255 -0.0028125
v 0.02948334 0.03671367 0.0028125
v 0.02965791 0.036681165 -0.0028125
v 0.02966112 0.036679965 0.0028125
v 0.029812335 0.03657951 -0.0028125
v 0.029815455 0.03657606 0.0028125
v 0.02991108 0.03643422 -0.0028125
v 0.027702465 0.03234924 0.0028125
v 0.027702465 0.03234924 -0.0028125
v 0.027661455 0.03216159 -0.0028125
v 0.02766348 0.03253377 0.0028125
v 0.02766348 0.03216471 0.0028125
v 0.02756583 0.03201975 0.0028125
v 0.02756271 0.0320163 -0.0028125
v 0.027411495 0.031915845 0.0028125
v 0.027408285 0.031914645 -0.0028125
v 0.027233715 0.031881555 -0.0028125
v 0.027233715 0.031882155 0.0028125
v 0.027059145 0.031914645 -0.0028125
v 0.02705592 0.031915845 0.0028125
v 0.02690472 0.0320163 -0.0028125
v 0.0269016 0.03201975 0.0028125
v 0.026805975 0.03216159 -0.0028125
v 0.026803935 0.03216471 0.0028125
v 0.026764965 0.03234924 -0.0028125
v 0.026764965 0.03234924 0.0028125
v 0.026805975 0.03253689 -0.0028125
v 0.026803935 0.03253377 0.0028125
v 0.0269016 0.03267873 0.0028125
v 0.02690472 0.03268218 -0.0028125
v 0.02705592 0.032782635 0.0028125
v 0.027059145 0.032783835 -0.0028125
v 0.027233715 0.032816925 -0.0028125
v 0.027233715 0.03281634 0.0028125
v 0.027408285 0.032783835 -0.0028125
v 0.027411495 0.032782635 0.0028125
v 0.02756271 0.03268218 -0.0028125
v 0.02756583 0.03267873 0.0028125
v 0.027661455 0.03253689 -0.0028125
v 0.02545971 0.02844795 0.0028125
v 0.02545971 0.02844795 -0.0028125
v 0.0254187 0.0282603 -0.0028125
v 0.025420725 0.028632495 0.0028125
v 0.025420725 0.02826342 0.0028125
v 0.025323075 0.02811846 0.0028125
v 0.025319955 0.02811501 -0.0028125
v 0.02516874 0.02801457 0.0028125
v 0.02516553 0.028013355 -0.0028125
v 0.02499096 0.027980265 -0.0028125
v 0.02499096 0.027980865 0.0028125
v 0.02481639 0.028013355 -0.0028125
v 0.02481318 0.02801457 0.0028125
v 0.024661965 0.02811501 -0.0028125
v 0.024658845 0.02811846 0.0028125
v 0.02456322 0.0282603 -0.0028125
v 0.02456118 0.02826342 0.0028125
v 0.02452221 0.02844795 -0.0028125
v 0.02452221 0.02844795 0.0028125
v 0.02456322 0.0286356 -0.0028125
v 0.02456118 0.028632495 0.0028125
v 0.024658845 0.02877744 0.0028125
v 0.024661965 0.02878089 -0.0028125
v 0.02481318 0.028881345 0.0028125
v 0.02481639 0.028882545 -0.0028125
v 0.02499096 0.028915635 -0.0028125
v 0.02499096 0.02891505 0.0028125
v 0.02516553 0.028882545 -0.0028125
v 0.02516874 0.028881345 0.0028125
v 0.025319955 0.02878089 -0.0028125
v 0.025323075 0.02877744 0.0028125
v 0.0254187 0.0286356 -0.0028125
v 0.06571782 0.011025 0.0028125
v 0.06571782 0.011025 -0.0028125
v 0.065673195 0.010624365 -0.0028125
v 0.065672805 0.011424705 0.0028125
v 0.065672805 0.010625295 0.0028125
v 0.06555492 0.01026069 0.0028125
v 0.06555306 0.01025649 -0.0028125
v 0.06535923 0.009924975 0.0028125
v 0.065352885 0.009915375 -0.0028125
v 0.06509541 0.00963027 0.0028125
v 0.065091735 0.00962658 -0.0028125
v 0.064781475 0.00940347 0.0028125
v 0.064773135 0.009397815 -0.0028125
v 0.064419405 0.009241605 0.0028125
v 0.064420215 0.009241545 -0.0028125
v 0.0640413 0.00916161 0.0028125
v 0.064035795 0.009160575 -0.0028125
v 0.063649845 0.009160575 -0.0028125
v 0.06364434 0.00916161 0.0028125
v 0.063265425 0.009241545 -0.0028125
v 0.063266235 0.009241605 0.0028125
v 0.062912505 0.009397815 -0.0028125
v 0.062904165 0.00940347 0.0028125
v 0.06259389 0.00962658 -0.0028125
v 0.06259023 0.00963027 0.0028125
v 0.062332755 0.009915375 -0.0028125
v 0.06232641 0.009924975 0.0028125
v 0.062132565 0.01025649 -0.0028125
v 0.062130705 0.01026069 0.0028125
v 0.062012445 0.010624365 -0.0028125
v 0.062012835 0.010625295 0.0028125
v 0.06196782 0.011025 -0.0028125
v 0.06196782 0.011025 0.0028125
v 0.062012445 0.011425635 -0.0028125
v 0.062012835 0.011424705 0.0028125
v 0.062130705 0.01178931 0.0028125
v 0.062132565 0.01179351 -0.0028125
v 0.06232641 0.012125025 0.0028125
v 0.062332755 0.012134625 -0.0028125
v 0.06259023 0.01241973 0.0028125
v 0.06259389 0.01242342 -0.0028125
v 0.062904165 0.01264653 0.0028125
v 0.062912505 0.012652185 -0.0028125
v 0.063266235 0.012808395 0.0028125
v 0.063265425 0.012808455 -0.0028125
v 0.06364434 0.01288839 0.0028125
v 0.063649845 0.012889425 -0.0028125
v 0.064035795 0.012889425 -0.0028125
v 0.0640413 0.01288839 0.0028125
v 0.064420215 0.012808455 -0.0028125
v 0.064419405 0.012808395 0.0028125
v 0.064773135 0.012652185 -0.0028125
v 0.064781475 0.01264653 0.0028125
v 0.065091735 0.01242342 -0.0028125
v 0.06509541 0.01241973 0.0028125
v 0.065352885 0.012134625 -0.0028125
v 0.06535923 0.012125025 0.0028125
v 0.06555306 0.01179351 -0.0028125
v 0.06555492 0.01178931 0.0028125
v 0.065673195 0.011425635 -0.0028125
v 0.042794415 0.05697708 -0.0026625
v 0.042794415 0.05697708 -0.0028125
v 0.04142901 0.05599731 -0.0028125
v 0.042794415 0.05697708 0.0026625
v 0.04335051 0.05734767 0.0026625
v 0.042794415 0.05697708 0.0028125
v 0.04144644 0.056008815 0.0028125
v 0.040128705 0.05496387 0.0028125
v 0.04011114 0.054954615 -0.0028125
v 0.038841255 0.053842245 0.0028125
v 0.038840415 0.053845995 -0.0028125
v 0.038208855 0.05325267 0.0028125
v 0.037617315 0.05267502 -0.0028125
v 0.037584045 0.052643925 0.0028125
v 0.036444705 0.05145834 -0.0028125
v 0.036968265 0.052016115 0.0028125
v 0.036362175 0.051369285 0.0028125
v 0.03532269 0.05019318 -0.0028125
v 0.035764485 0.05070336 0.0028125
v 0.03517395 0.05001822 0.0028125
v 0.03424776 0.04889748 -0.0028125
v 0.03458928 0.04931379 0.0028125
v 0.034009215 0.04858998 0.0028125
v 0.033222075 0.04757322 -0.0028125
v 0.03343248 0.0478467 0.0028125
v 0.0328578 0.04708386 0.0028125
v 0.03223584 0.046223835 -0.0028125
v 0.032286705 0.046299975 0.0028125
v 0.03172107 0.04549449 0.0028125
v 0.03128769 0.044856195 -0.0028125
v 0.031160115 0.044668725 0.0028125
v 0.030369045 0.04346259 -0.0028125
v 0.03060309 0.043823985 0.0028125
v 0.030049215 0.04296159 0.0028125
v 0.029464515 0.042036735 -0.0028125
v 0.029497755 0.042082845 0.0028125
v 0.028947915 0.04118907 0.0028125
v 0.028575765 0.040577805 -0.0028125
v 0.02839896 0.04028157 0.0028125
v 0.02813148 0.039829905 -0.0028125
v 0.02785125 0.0393597 0.0028125
v 0.02768742 0.03907038 -0.0028125
v 0.0273057 0.038421915 0.0028125
v 0.02724489 0.038300475 -0.0028125
v 0.026801775 0.03751722 -0.0028125
v 0.02676228 0.037468245 0.0028125
v 0.02635599 0.03671763 -0.0028125
v 0.026221005 0.036498645 0.0028125
v 0.025905885 0.03589938 -0.0028125
v 0.02568189 0.035513145 0.0028125
v 0.025452765 0.035064315 -0.0028125
v 0.025144905 0.034511745 0.0028125
v 0.02499696 0.034212945 -0.0028125
v 0.024610065 0.03349443 0.0028125
v 0.0245385 0.03334524 -0.0028125
v 0.02407737 0.032461215 -0.0028125
v 0.02407737 0.032461215 0.0028125
v 0.023965425 0.032245725 -0.0028125
v 0.023969685 0.032235855 0.0028125
v 0.023856645 0.03202479 -0.0028125
v 0.023866905 0.032015205 0.0028125
v 0.02375103 0.03179841 -0.0028125
v 0.02376906 0.031799295 0.0028125
v 0.02364858 0.03156657 -0.0028125
v 0.023676135 0.031588095 0.0028125
v 0.02358813 0.03138162 0.0028125
v 0.023548485 0.03132843 -0.0028125
v 0.02348505 0.031130175 0.0028125
v 0.02345004 0.031083225 -0.0028125
v 0.023386455 0.030917055 -0.0028125
v 0.023389665 0.030886095 0.0028125
v 0.02332539 0.03074961 -0.0028125
v 0.023301975 0.030649395 0.0028125
v 0.02326758 0.03058167 -0.0028125
v 0.02322198 0.030420075 0.0028125
v 0.02321364 0.030413865 -0.0028125
v 0.02316237 0.03024444 -0.0028125
v 0.02314968 0.030198135 0.0028125
v 0.023113545 0.03007335 -0.0028125
v 0.02308569 0.02998386 0.0028125
v 0.023067765 0.029901585 -0.0028125
v 0.02303157 0.02977791 0.0028125
v 0.0230256 0.02973018 -0.0028125
v 0.022986555 0.02957997 0.0028125
v 0.022987665 0.029560155 -0.0028125
v 0.0229545 0.02939253 -0.0028125
v 0.022949655 0.02938959 0.0028125
v 0.022925985 0.029226915 -0.0028125
v 0.02291991 0.029206365 0.0028125
v 0.02290134 0.029061915 -0.0028125
v 0.02289636 0.029029845 0.0028125
v 0.022880835 0.028898115 -0.0028125
v 0.02287803 0.02885961 0.0028125
v 0.022864755 0.02873619 -0.0028125
v 0.022863975 0.028695225 0.0028125
v 0.02285334 0.02857677 -0.0028125
v 0.022853205 0.02853627 0.0028125
v 0.02284689 0.028420515 -0.0028125
v 0.022845045 0.02838246 0.0028125
v 0.02284554 0.028267725 -0.0028125
v 0.02284227 0.028235235 0.0028125
v 0.02284887 0.028117005 -0.0028125
v 0.022845315 0.028094745 0.0028125
v 0.022856895 0.027968655 -0.0028125
v 0.022853565 0.0279606 0.0028125
v 0.02286975 0.02782329 -0.0028125
v 0.02286636 0.027832425 0.0028125
v 0.022883055 0.027709815 0.0028125
v 0.02288757 0.027681555 -0.0028125
v 0.02291028 0.02755431 0.0028125
v 0.022910505 0.02754408 -0.0028125
v 0.022938675 0.02741148 -0.0028125
v 0.02294178 0.02740707 0.0028125
v 0.022971735 0.027282885 -0.0028125
v 0.022976025 0.027267165 0.0028125
v 0.023009595 0.027157875 -0.0028125
v 0.02301435 0.027135825 0.0028125
v 0.023052525 0.02703696 -0.0028125
v 0.0230586 0.027014265 0.0028125
v 0.02310081 0.026920665 -0.0028125
v 0.02310789 0.0269016 0.0028125
v 0.023154705 0.0268095 -0.0028125
v 0.02316141 0.0267969 0.0028125
v 0.02321448 0.026703975 -0.0028125
v 0.023218305 0.02669925 0.0028125
v 0.023280465 0.02660364 -0.0028125
v 0.02327772 0.02660775 0.0028125
v 0.02333883 0.02652147 0.0028125
v 0.02335266 0.02650701 -0.0028125
v 0.023401935 0.026441295 0.0028125
v 0.023430645 0.02641512 -0.0028125
v 0.023467905 0.026368305 0.0028125
v 0.023514045 0.026329155 -0.0028125
v 0.02353668 0.02630196 0.0028125
v 0.023579865 0.026269275 -0.0028125
v 0.02360826 0.02624169 0.0028125
v 0.02364831 0.02621385 -0.0028125
v 0.0236826 0.02618691 0.0028125
v 0.0237192 0.02616339 -0.0028125
v 0.023759655 0.02613708 0.0028125
v 0.023792415 0.02611821 -0.0028125
v 0.02383941 0.02609163 0.0028125
v 0.02386827 0.0260775 -0.0028125
v 0.02392188 0.02605074 0.0028125
v 0.02394678 0.026041095 -0.0028125
v 0.02400708 0.02601498 0.0028125
v 0.02402799 0.026008995 -0.0028125
v 0.024095025 0.025984365 0.0028125
v 0.02411187 0.0259812 -0.0028125
v 0.024185715 0.025958865 0.0028125
v 0.02419842 0.025957725 -0.0028125
v 0.02427912 0.025938495 0.0028125
v 0.02428767 0.025938555 -0.0028125
v 0.024375285 0.025923255 0.0028125
v 0.024379575 0.02592369 -0.0028125
v 0.02447418 0.025913145 -0.0028125
v 0.02447418 0.025913145 0.0028125
v 0.02640762 0.025743195 -0.0028125
v 0.025480335 0.02583054 0.0028125
v 0.026478525 0.0257301 0.0028125
v 0.028328355 0.025499475 -0.0028125
v 0.02746875 0.025611825 0.0028125
v 0.028451025 0.0254757 0.0028125
v 0.03023685 0.025182015 -0.0028125
v 0.03039168 0.025149915 0.0028125
v 0.03213522 0.024790905 -0.0028125
v 0.032300505 0.024752775 0.0028125
v 0.034016385 0.02432583 -0.0028125
v 0.034178025 0.02428338 0.0028125
v 0.03587589 0.02378622 -0.0028125
v 0.03602454 0.02374119 0.0028125
v 0.036798705 0.02348847 -0.0028125
v 0.03771549 0.02317233 -0.0028125
v 0.03783861 0.023128635 0.0028125
v 0.038625045 0.022838025 -0.0028125
v 0.03952632 0.022485705 -0.0028125
v 0.03961881 0.022448175 0.0028125
v 0.04042089 0.02211489 -0.0028125
v 0.0413088 0.021725685 -0.0028125
v 0.04136451 0.021701355 0.0028125
v 0.042188925 0.02131851 -0.0028125
v 0.04306017 0.020893845 -0.0028125
v 0.043077555 0.020886165 0.0028125
v 0.043921425 0.02045208 -0.0028125
v 0.044756295 0.02000328 0.0028125
v 0.044773425 0.01999278 -0.0028125
v 0.045617025 0.01951557 -0.0028125
v 0.04639869 0.01905378 0.0028125
v 0.046451205 0.019021125 -0.0028125
v 0.04727499 0.01851009 -0.0028125
v 0.048003285 0.01803864 0.0028125
v 0.048087405 0.017983155 -0.0028125
v 0.04888836 0.01744023 -0.0028125
v 0.04957272 0.016957455 0.0028125
v 0.049679175 0.01688028 -0.0028125
v 0.0504591 0.016304085 -0.0028125
v 0.051105435 0.01580988 0.0028125
v 0.051227295 0.0157125 -0.0028125
v 0.05259852 0.01459569 0.0028125
v 0.052725495 0.014486235 -0.0028125
v 0.05404923 0.013314735 0.0028125
v 0.05417457 0.013199895 -0.0028125
v 0.05545812 0.011967015 0.0028125
v 0.055572465 0.01185747 -0.0028125
v 0.05682627 0.010552635 0.0028125
v 0.056915445 0.010464945 -0.0028125
v 0.05749506 0.00982044 0.0028125
v 0.058204635 0.009020535 -0.0028125
v 0.05815365 0.009071565 0.0028125
v 0.058802055 0.00830604 0.0028125
v 0.059440275 0.007523835 -0.0028125
v 0.059440275 0.007523835 0.0028125
v 0.059906085 0.0070086 -0.0028125
v 0.059910435 0.007006125 0.0028125
v 0.06041919 0.0065619 -0.0028125
v 0.06042444 0.006558735 0.0028125
v 0.060981885 0.00618273 -0.0028125
v 0.060982785 0.0061815 0.0028125
v 0.06159954 0.00586875 -0.0028125
v 0.06159474 0.005870625 0.0028125
v 0.062243085 0.005633115 0.0028125
v 0.062245185 0.00563178 -0.0028125
v 0.062904165 0.005479305 0.0028125
v 0.062907375 0.005478375 -0.0028125
v 0.063588255 0.00540564 -0.0028125
v 0.063589245 0.0054075 0.0028125
v 0.06426816 0.005416935 -0.0028125
v 0.064278015 0.00541728 0.0028125
v 0.06495597 0.005513895 -0.0028125
v 0.06495027 0.00551091 0.0028125
v 0.065617365 0.00568905 0.0028125
v 0.065624805 0.00569013 -0.0028125
v 0.066254835 0.005943525 0.0028125
v 0.066254445 0.00594279 -0.0028125
v 0.06685224 0.006272265 -0.0028125
v 0.066850065 0.00627276 0.0028125
v 0.06740214 0.006670185 -0.0028125
v 0.06741021 0.00667788 0.0028125
v 0.067909965 0.007143375 -0.0028125
v 0.06791202 0.007141425 0.0028125
v 0.068358945 0.007672725 -0.0028125
v 0.068351655 0.00766431 0.0028125
v 0.068730195 0.00824274 0.0028125
v 0.06873078 0.008240595 -0.0028125
v 0.06903201 0.008853105 -0.0028125
v 0.06903129 0.008852685 0.0028125
v 0.06925503 0.00949386 -0.0028125
v 0.06925575 0.00950133 0.0028125
v 0.069399855 0.010170195 -0.0028125
v 0.06940257 0.010176015 0.0028125
v 0.069464625 0.01086177 -0.0028125
v 0.06946473 0.010851915 0.0028125
v 0.06944238 0.011540385 0.0028125
v 0.06944418 0.011541465 -0.0028125
v 0.06933975 0.012218205 -0.0028125
v 0.069338685 0.01222137 0.0028125
v 0.06915564 0.01287252 -0.0028125
v 0.0691542 0.01287456 0.0028125
v 0.06888879 0.013506405 -0.0028125
v 0.06888669 0.013511115 0.0028125
v 0.06854634 0.01410873 -0.0028125
v 0.0685476 0.01410789 0.0028125
v 0.06814473 0.014648025 0.0028125
v 0.06814134 0.014653125 -0.0028125
v 0.06767385 0.015140595 0.0028125
v 0.06767118 0.015144825 -0.0028125
v 0.06713478 0.015586095 -0.0028125
v 0.06713478 0.015586095 0.0028125
v 0.06616527 0.01627287 -0.0028125
v 0.065189445 0.016942575 0.0028125
v 0.065188965 0.016942845 -0.0028125
v 0.063216705 0.018231915 0.0028125
v 0.06321585 0.018232395 -0.0028125
v 0.06121656 0.019454145 0.0028125
v 0.061215435 0.01945476 -0.0028125
v 0.059189025 0.020609235 0.0028125
v 0.05918772 0.02060994 -0.0028125
v 0.057133605 0.021697245 0.0028125
v 0.057132255 0.02169795 -0.0028125
v 0.055049565 0.02271822 0.0028125
v 0.05504832 0.022718835 -0.0028125
v 0.052938525 0.02367204 0.0028125
v 0.05293746 0.02367252 -0.0028125
v 0.05080224 0.024558555 0.0028125
v 0.050801385 0.0245589 -0.0028125
v 0.048642345 0.02537766 0.0028125
v 0.048641655 0.025377915 -0.0028125
v 0.04645809 0.0261294 0.0028125
v 0.046457565 0.02612958 -0.0028125
v 0.044248995 0.02681382 0.0028125
v 0.044248635 0.02681394 -0.0028125
v 0.04201506 0.02743092 0.0028125
v 0.04201488 0.027430965 -0.0028125
v 0.039756285 0.027980685 -0.0028125
v 0.039756285 0.027980685 0.0028125
v 0.039445425 0.028050285 -0.0028125
v 0.039384525 0.028062975 0.0028125
v 0.039129915 0.028122795 -0.0028125
v 0.038994105 0.02815455 0.0028125
v 0.03881016 0.02819778 -0.0028125
v 0.038585055 0.02825328 0.0028125
v 0.03848172 0.028280535 -0.0028125
v 0.03815718 0.02836947 0.0028125
v 0.038143275 0.02837283 -0.0028125
v 0.037790835 0.028479405 -0.0028125
v 0.037710345 0.0285048 0.0028125
v 0.037422705 0.028604955 -0.0028125
v 0.03724491 0.02867127 0.0028125
v 0.03703683 0.02875251 -0.0028125
v 0.03676137 0.02887086 0.0028125
v 0.036633255 0.028931895 -0.0028125
v 0.03626529 0.029118855 0.0028125
v 0.03621246 0.029146425 -0.0028125
v 0.03577665 0.029408445 -0.0028125
v 0.03576012 0.029418525 0.0028125
v 0.035332185 0.029724795 -0.0028125
v 0.03525414 0.029785755 0.0028125
v 0.034882275 0.030105135 -0.0028125
v 0.0347634 0.030220785 0.0028125
v 0.034452765 0.030556725 -0.0028125
v 0.03453162 0.0304686 0.0028125
v 0.03430695 0.030735675 0.0028125
v 0.034052025 0.03108174 -0.0028125
v 0.034097715 0.03101598 0.0028125
v 0.03391146 0.031304415 0.0028125
v 0.033716895 0.03166161 -0.0028125
v 0.03374514 0.0316065 0.0028125
v 0.03359814 0.031918275 0.0028125
v 0.033573945 0.03197109 -0.0028125
v 0.033451935 0.032286525 -0.0028125
v 0.033369525 0.03254307 0.0028125
v 0.03335247 0.03260895 -0.0028125
v 0.0332736 0.032938965 -0.0028125
v 0.033230325 0.03316968 0.0028125
v 0.033172995 0.03359892 -0.0028125
v 0.0331584 0.033779745 0.0028125
v 0.03314904 0.034256895 -0.0028125
v 0.03315102 0.03437061 0.0028125
v 0.033182835 0.03487707 -0.0028125
v 0.033187755 0.034924605 0.0028125
v 0.033268215 0.035455755 -0.0028125
v 0.03326583 0.035442675 0.0028125
v 0.03337047 0.035921745 0.0028125
v 0.033386205 0.03598137 -0.0028125
v 0.033499035 0.03636498 0.0028125
v 0.033530055 0.03646068 -0.0028125
v 0.03364455 0.03677532 0.0028125
v 0.033692625 0.036895965 -0.0028125
v 0.03380205 0.037155495 0.0028125
v 0.03386511 0.037294845 -0.0028125
v 0.03396777 0.03750696 0.0028125
v 0.034045335 0.037659555 -0.0028125
v 0.03413739 0.03783444 0.0028125
v 0.03422811 0.03799797 -0.0028125
v 0.03430953 0.038139 0.0028125
v 0.034412835 0.038313165 -0.0028125
v 0.034481655 0.03842568 0.0028125
v 0.0345984 0.03861009 -0.0028125
v 0.034653375 0.038695065 0.0028125
v 0.03478194 0.038890575 -0.0028125
v 0.03482238 0.03895071 0.0028125
v 0.03496248 0.03915549 -0.0028125
v 0.03498819 0.03919275 0.0028125
v 0.035136165 0.039405705 -0.0028125
v 0.03514833 0.039423015 0.0028125
v 0.03530331 0.039641115 -0.0028125
v 0.03530331 0.039641115 0.0028125
v 0.03620883 0.040893645 -0.0028125
v 0.03641259 0.041172015 0.0028125
v 0.037136565 0.042113715 -0.0028125
v 0.037529325 0.042620535 0.0028125
v 0.0380838 0.04330191 -0.0028125
v 0.0386535 0.04398669 0.0028125
v 0.03905538 0.044457225 -0.0028125
v 0.03978033 0.04526976 0.0028125
v 0.04006362 0.045578595 -0.0028125
v 0.040914615 0.046470465 0.0028125
v 0.04110726 0.04666494 -0.0028125
v 0.04207068 0.04759089 0.0028125
v 0.042195915 0.047704485 -0.0028125
v 0.042657195 0.048120075 0.0028125
v 0.04332888 0.04869861 -0.0028125
v 0.04324668 0.04862769 0.0028125
v 0.043841625 0.04911522 0.0028125
v 0.0439128 0.04917408 -0.0028125
v 0.044444475 0.04958421 0.0028125
v 0.044509155 0.04963317 -0.0028125
v 0.045057735 0.050036175 0.0028125
v 0.04511802 0.050077815 -0.0028125
v 0.04568385 0.05047263 0.0028125
v 0.04573839 0.05050734 -0.0028125
v 0.046322445 0.05089332 0.0028125
v 0.0463692 0.05092086 -0.0028125
v 0.04697142 0.05129697 0.0028125
v 0.04700946 0.05131755 -0.0028125
v 0.04763079 0.05168361 0.0028125
v 0.04765962 0.0516978 -0.0028125
v 0.04830057 0.05205321 0.0028125
v 0.048319995 0.05206185 -0.0028125
v 0.048980745 0.05240577 0.0028125
v 0.048990555 0.052409685 -0.0028125
v 0.0496713 0.05274132 -0.0028125
v 0.0496713 0.05274132 -0.0026625
v 0.0496713 0.05274132 0.0026625
v 0.0496713 0.05274132 0.0028125
v 0.05058939 0.05315979 -0.0026625
v 0.05058939 0.05315979 0.0026625
v 0.051525765 0.053564145 -0.0026625
v 0.051525765 0.053564145 0.0026625
v 0.052480425 0.05395437 -0.0026625
v 0.052480425 0.05395437 0.0026625
v 0.05345337 0.05433048 -0.0026625
v 0.05345337 0.05433048 0.0026625
v 0.0544446 0.054692475 -0.0026625
v 0.0544446 0.054692475 0.0026625
v 0.055454115 0.05504034 -0.0026625
v 0.055454115 0.05504034 0.0026625
v 0.0564819 0.05537409 -0.0026625
v 0.0564819 0.05537409 0.0026625
v 0.057528045 0.055693605 -0.0026625
v 0.057528045 0.055693605 0.0026625
v 0.05859336 0.055997385 -0.0026625
v 0.05859336 0.055997385 0.0026625
v 0.059677695 0.056285715 -0.0026625
v 0.059677695 0.056285715 0.0026625
v 0.06078048 0.056559615 -0.0026625
v 0.06078048 0.056559615 0.0026625
v 0.06190113 0.05682015 -0.0026625
v 0.06190113 0.05682015 0.0026625
v 0.063039105 0.057068325 -0.0026625
v 0.063039105 0.057068325 0.0026625
v 0.06419382 0.057305175 -0.0026625
v 0.06419382 0.057305175 0.0026625
v 0.06536472 0.05753175 -0.0026625
v 0.06536472 0.05753175 0.0026625
v 0.066550725 0.05774808 -0.0026625
v 0.066550725 0.05774808 0.0026625
v 0.06774999 0.05795076 -0.0026625
v 0.06774999 0.05795076 0.0026625
v 0.068964135 0.0581406 -0.0026625
v 0.068964135 0.0581406 0.0026625
v 0.070195095 0.058318965 -0.0026625
v 0.070195095 0.058318965 0.0026625
v 0.07144485 0.05848725 -0.0026625
v 0.07144485 0.05848725 0.0026625
v 0.072715365 0.058646835 -0.0026625
v 0.072715365 0.058646835 0.0026625
v 0.074008575 0.05879907 -0.0026625
v 0.074008575 0.05879907 0.0026625
v 0.07532646 0.058945365 -0.0026625
v 0.07532646 0.058945365 0.0026625
v 0.076669725 0.059085045 -0.0026625
v 0.076669725 0.059085045 0.0026625
v 0.078036525 0.059215695 -0.0026625
v 0.078036525 0.059215695 0.0026625
v 0.07942587 0.059337915 -0.0026625
v 0.07942587 0.059337915 0.0026625
v 0.080836815 0.059452425 -0.0026625
v 0.080836815 0.059452425 0.0026625
v 0.0822684 0.059559885 -0.0026625
v 0.0822684 0.059559885 0.0026625
v 0.083719665 0.059661 -0.0026625
v 0.083719665 0.059661 0.0026625
v 0.085189665 0.05975643 -0.0026625
v 0.085189665 0.05975643 0.0026625
v 0.08819079 0.05993091 -0.0026625
v 0.08819079 0.05993091 0.0026625
v 0.09129138 0.060078765 -0.0026625
v 0.09129138 0.060078765 0.0026625
v 0.094458525 0.060203235 -0.0026625
v 0.094458525 0.060203235 0.0026625
v 0.09765345 0.060308685 -0.0026625
v 0.09765345 0.060308685 0.0026625
v 0.10082739 0.06039666 -0.0026625
v 0.10082739 0.06039666 0.0026625
v 0.10397895 0.060463605 -0.0026625
v 0.10397895 0.060463605 0.0026625
v 0.107198445 0.060513375 -0.0026625
v 0.107198445 0.060513375 0.0026625
v 0.11057961 0.06055029 -0.0026625
v 0.11057961 0.06055029 0.0026625
v 0.11416206 0.06057618 -0.0026625
v 0.11416206 0.06057618 0.0026625
v 0.11789397 0.06058863 -0.0026625
v 0.11789397 0.06058863 0.0026625
v 0.121774155 0.060587595 -0.0026625
v 0.121774155 0.060587595 0.0026625
v 0.125802615 0.06057309 -0.0026625
v 0.125802615 0.06057309 0.0026625
v 0.125946255 0.060609 -0.0026625
v 0.125946255 0.060609 0.0026625
v 0.126053445 0.06070737 -0.0026625
v 0.126053445 0.06070737 0.0026625
v 0.12610194 0.06084441 -0.0026625
v 0.12610194 0.06084441 0.0026625
v 0.12608049 0.060988185 -0.0026625
v 0.12608049 0.060988185 0.0026625
v 0.125994045 0.061105185 -0.0026625
v 0.125994045 0.061105185 0.0026625
v 0.125859885 0.061167855 -0.0026625
v 0.125859885 0.061167855 0.0026625
v 0.12447909 0.061415625 -0.0026625
v 0.12447909 0.061415625 0.0026625
v 0.12301965 0.061653585 -0.0026625
v 0.12301965 0.061653585 0.0026625
v 0.12148482 0.0618813 -0.0026625
v 0.12148482 0.0618813 0.0026625
v 0.11986692 0.062099805 -0.0026625
v 0.11986692 0.062099805 0.0026625
v 0.118154325 0.06231099 -0.0026625
v 0.118154325 0.06231099 0.0026625
v 0.116347785 0.06251403 -0.0026625
v 0.116347785 0.06251403 0.0026625
v 0.11444223 0.062708385 -0.0026625
v 0.11444223 0.062708385 0.0026625
v 0.112436385 0.06289374 -0.0026625
v 0.112436385 0.06289374 0.0026625
v 0.1103205 0.063068835 -0.0026625
v 0.1103205 0.063068835 0.0026625
v 0.10809552 0.063233385 -0.0026625
v 0.10809552 0.063233385 0.0026625
v 0.1057575 0.063384375 -0.0026625
v 0.1057575 0.063384375 0.0026625
v 0.1033065 0.063521895 -0.0026625
v 0.1033065 0.063521895 0.0026625
v 0.10073817 0.063641805 -0.0026625
v 0.10073817 0.063641805 0.0026625
v 0.098053695 0.06374442 -0.0026625
v 0.098053695 0.06374442 0.0026625
v 0.095218245 0.06382416 -0.0026625
v 0.095218245 0.06382416 0.0026625
v 0.092234205 0.06388188 -0.0026625
v 0.092234205 0.06388188 0.0026625
v 0.09067314 0.063898755 -0.0026625
v 0.09067314 0.063898755 0.0026625
v 0.089057805 0.063906525 -0.0026625
v 0.089057805 0.063906525 0.0026625
v 0.087391065 0.063907515 -0.0026625
v 0.087391065 0.063907515 0.0026625
v 0.08567751 0.06389916 -0.0026625
v 0.08567751 0.06389916 0.0026625
v 0.08392161 0.063878415 -0.0026625
v 0.08392161 0.063878415 0.0026625
v 0.082123755 0.06384327 -0.0026625
v 0.082123755 0.06384327 0.0026625
v 0.080270175 0.063796785 -0.0026625
v 0.080270175 0.063796785 0.0026625
v 0.078377055 0.06373731 -0.0026625
v 0.078377055 0.06373731 0.0026625
v 0.076465395 0.063662145 -0.0026625
v 0.076465395 0.063662145 0.0026625
v 0.074552955 0.063569025 -0.0026625
v 0.074552955 0.063569025 0.0026625
v 0.072618705 0.063459885 -0.0026625
v 0.072618705 0.063459885 0.0026625
v 0.070670565 0.06333441 -0.0026625
v 0.070670565 0.06333441 0.0026625
v 0.068729415 0.0631911 -0.0026625
v 0.068729415 0.0631911 0.0026625
v 0.06681564 0.06302844 -0.0026625
v 0.06681564 0.06302844 0.0026625
v 0.064926135 0.062846625 -0.0026625
v 0.064926135 0.062846625 0.0026625
v 0.06305286 0.062646285 -0.0026625
v 0.06305286 0.062646285 0.0026625
v 0.061195815 0.06242742 -0.0026625
v 0.061195815 0.06242742 0.0026625
v 0.059355 0.06219 -0.0026625
v 0.059355 0.06219 0.0026625
v 0.05842677 0.06207444 -0.0026625
v 0.05842677 0.06207444 0.0026625
v 0.057514365 0.061947825 -0.0026625
v 0.057514365 0.061947825 0.0026625
v 0.0566178 0.061810155 -0.0026625
v 0.0566178 0.061810155 0.0026625
v 0.055737075 0.061661445 -0.0026625
v 0.055737075 0.061661445 0.0026625
v 0.054872175 0.061501665 -0.0026625
v 0.054872175 0.061501665 0.0026625
v 0.054023115 0.06133083 -0.0026625
v 0.054023115 0.06133083 0.0026625
v 0.05318988 0.061148955 -0.0026625
v 0.05318988 0.061148955 0.0026625
v 0.05237172 0.06095646 -0.0026625
v 0.05237172 0.06095646 0.0026625
v 0.051566865 0.06075438 -0.0026625
v 0.051566865 0.06075438 0.0026625
v 0.05077665 0.060541935 -0.0026625
v 0.05077665 0.060541935 0.0026625
v 0.050002605 0.060318225 -0.0026625
v 0.050002605 0.060318225 0.0026625
v 0.049246275 0.060082395 -0.0026625
v 0.049246275 0.060082395 0.0026625
v 0.04850922 0.059833515 -0.0026625
v 0.04850922 0.059833515 0.0026625
v 0.04779297 0.0595707 -0.0026625
v 0.04779297 0.0595707 0.0026625
v 0.047098845 0.059293215 -0.0026625
v 0.047098845 0.059293215 0.0026625
v 0.046425105 0.059002035 -0.0026625
v 0.046425105 0.059002035 0.0026625
v 0.04577097 0.058697625 -0.0026625
v 0.04577097 0.058697625 0.0026625
v 0.04513644 0.058379985 -0.0026625
v 0.04513644 0.058379985 0.0026625
v 0.04452153 0.058049115 -0.0026625
v 0.04452153 0.058049115 0.0026625
v 0.04392621 0.057705 -0.0026625
v 0.04392621 0.057705 0.0026625
v 0.04335051 0.05734767 -0.0026625
v 0.0496713 0.05274132 -0.0026625
v 0.0496713 0.05274132 -0.0028125
v 0.042794415 0.05697708 -0.0028125
v 0.042794415 0.05697708 -0.0026625
v 0.03641259 0.041172015 0.0028125
v 0.032288265 0.040253235 0.0028125
v 0.03232725 0.04006869 0.0028125
v 0.032190615 0.04039818 0.0028125
v 0.032288265 0.03988416 0.0028125
v 0.032190615 0.039739215 0.0028125
v 0.03530331 0.039641115 0.0028125
v 0.03203628 0.03963531 0.0028125
v 0.0318585 0.039601605 0.0028125
v 0.03514833 0.039423015 0.0028125
v 0.02785125 0.0393597 0.0028125
v 0.03498819 0.03919275 0.0028125
v 0.031680705 0.03963531 0.0028125
v 0.031526385 0.039739215 0.0028125
v 0.03142872 0.03988416 0.0028125
v 0.03138975 0.04006869 0.0028125
v 0.03142872 0.040253235 0.0028125
v 0.02839896 0.04028157 0.0028125
v 0.031526385 0.04039818 0.0028125
v 0.031680705 0.040502085 0.0028125
v 0.0318585 0.04053579 0.0028125
v 0.03203628 0.040502085 0.0028125
v 0.028947915 0.04118907 0.0028125
v 0.037529325 0.042620535 0.0028125
v 0.029497755 0.042082845 0.0028125
v 0.030049215 0.04296159 0.0028125
v 0.0386535 0.04398669 0.0028125
v 0.03060309 0.043823985 0.0028125
v 0.031160115 0.044668725 0.0028125
v 0.03978033 0.04526976 0.0028125
v 0.03172107 0.04549449 0.0028125
v 0.040914615 0.046470465 0.0028125
v 0.032286705 0.046299975 0.0028125
v 0.0328578 0.04708386 0.0028125
v 0.04207068 0.04759089 0.0028125
v 0.03343248 0.0478467 0.0028125
v 0.042657195 0.048120075 0.0028125
v 0.034009215 0.04858998 0.0028125
v 0.04324668 0.04862769 0.0028125
v 0.043841625 0.04911522 0.0028125
v 0.03458928 0.04931379 0.0028125
v 0.044444475 0.04958421 0.0028125
v 0.03517395 0.05001822 0.0028125
v 0.045057735 0.050036175 0.0028125
v 0.04568385 0.05047263 0.0028125
v 0.035764485 0.05070336 0.0028125
v 0.046322445 0.05089332 0.0028125
v 0.04697142 0.05129697 0.0028125
v 0.036362175 0.051369285 0.0028125
v 0.04763079 0.05168361 0.0028125
v 0.036968265 0.052016115 0.0028125
v 0.04830057 0.05205321 0.0028125
v 0.048980745 0.05240577 0.0028125
v 0.037584045 0.052643925 0.0028125
v 0.0496713 0.05274132 0.0028125
v 0.038208855 0.05325267 0.0028125
v 0.042794415 0.05697708 0.0028125
v 0.038841255 0.053842245 0.0028125
v 0.040128705 0.05496387 0.0028125
v 0.04144644 0.056008815 0.0028125
v 0.0273057 0.038421915 0.0028125
v 0.03482238 0.03895071 0.0028125
v 0.034653375 0.038695065 0.0028125
v 0.034481655 0.03842568 0.0028125
v 0.03430953 0.038139 0.0028125
v 0.02676228 0.037468245 0.0028125
v 0.03413739 0.03783444 0.0028125
v 0.03396777 0.03750696 0.0028125
v 0.03380205 0.037155495 0.0028125
v 0.026221005 0.036498645 0.0028125
v 0.02948334 0.03671367 0.0028125
v 0.029305545 0.036679965 0.0028125
v 0.03364455 0.03677532 0.0028125
v 0.02966112 0.036679965 0.0028125
v 0.029815455 0.03657606 0.0028125
v 0.029913105 0.036431115 0.0028125
v 0.033499035 0.03636498 0.0028125
v 0.02995209 0.03624657 0.0028125
v 0.029913105 0.03606204 0.0028125
v 0.03337047 0.035921745 0.0028125
v 0.029815455 0.03591708 0.0028125
v 0.02966112 0.03581319 0.0028125
v 0.02948334 0.035779485 0.0028125
v 0.02568189 0.035513145 0.0028125
v 0.03326583 0.035442675 0.0028125
v 0.029305545 0.03581319 0.0028125
v 0.029151225 0.03591708 0.0028125
v 0.02905356 0.03606204 0.0028125
v 0.02901459 0.03624657 0.0028125
v 0.02905356 0.036431115 0.0028125
v 0.029151225 0.03657606 0.0028125
v 0.025144905 0.034511745 0.0028125
v 0.033187755 0.034924605 0.0028125
v 0.03315102 0.03437061 0.0028125
v 0.024610065 0.03349443 0.0028125
v 0.0331584 0.033779745 0.0028125
v 0.033230325 0.03316968 0.0028125
v 0.027233715 0.03281634 0.0028125
v 0.02407737 0.032461215 0.0028125
v 0.027411495 0.032782635 0.0028125
v 0.02756583 0.03267873 0.0028125
v 0.033369525 0.03254307 0.0028125
v 0.02766348 0.03253377 0.0028125
v 0.027702465 0.03234924 0.0028125
v 0.02766348 0.03216471 0.0028125
v 0.02756583 0.03201975 0.0028125
v 0.03359814 0.031918275 0.0028125
v 0.027411495 0.031915845 0.0028125
v 0.027233715 0.031882155 0.0028125
v 0.02376906 0.031799295 0.0028125
v 0.03374514 0.0316065 0.0028125
v 0.02705592 0.031915845 0.0028125
v 0.023866905 0.032015205 0.0028125
v 0.0269016 0.03201975 0.0028125
v 0.026803935 0.03216471 0.0028125
v 0.023969685 0.032235855 0.0028125
v 0.026764965 0.03234924 0.0028125
v 0.026803935 0.03253377 0.0028125
v 0.0269016 0.03267873 0.0028125
v 0.02705592 0.032782635 0.0028125
v 0.023676135 0.031588095 0.0028125
v 0.02358813 0.03138162 0.0028125
v 0.03391146 0.031304415 0.0028125
v 0.02348505 0.031130175 0.0028125
v 0.034097715 0.03101598 0.0028125
v 0.023389665 0.030886095 0.0028125
v 0.03430695 0.030735675 0.0028125
v 0.023301975 0.030649395 0.0028125
v 0.03453162 0.0304686 0.0028125
v 0.02322198 0.030420075 0.0028125
v 0.0347634 0.030220785 0.0028125
v 0.02314968 0.030198135 0.0028125
v 0.02308569 0.02998386 0.0028125
v 0.03525414 0.029785755 0.0028125
v 0.02303157 0.02977791 0.0028125
v 0.022986555 0.02957997 0.0028125
v 0.03576012 0.029418525 0.0028125
v 0.022949655 0.02938959 0.0028125
v 0.02291991 0.029206365 0.0028125
v 0.03626529 0.029118855 0.0028125
v 0.02289636 0.029029845 0.0028125
v 0.02499096 0.02891505 0.0028125
v 0.02287803 0.02885961 0.0028125
v 0.02516874 0.028881345 0.0028125
v 0.03676137 0.02887086 0.0028125
v 0.025323075 0.02877744 0.0028125
v 0.03724491 0.02867127 0.0028125
v 0.025420725 0.028632495 0.0028125
v 0.037710345 0.0285048 0.0028125
v 0.02545971 0.02844795 0.0028125
v 0.03815718 0.02836947 0.0028125
v 0.025420725 0.02826342 0.0028125
v 0.038585055 0.02825328 0.0028125
v 0.025323075 0.02811846 0.0028125
v 0.038994105 0.02815455 0.0028125
v 0.039384525 0.028062975 0.0028125
v 0.02516874 0.02801457 0.0028125
v 0.02499096 0.027980865 0.0028125
v 0.039756285 0.027980685 0.0028125
v 0.022853565 0.0279606 0.0028125
v 0.02286636 0.027832425 0.0028125
v 0.02481318 0.02801457 0.0028125
v 0.022845315 0.028094745 0.0028125
v 0.024658845 0.02811846 0.0028125
v 0.02284227 0.028235235 0.0028125
v 0.02456118 0.02826342 0.0028125
v 0.022845045 0.02838246 0.0028125
v 0.02452221 0.02844795 0.0028125
v 0.022853205 0.02853627 0.0028125
v 0.02456118 0.028632495 0.0028125
v 0.022863975 0.028695225 0.0028125
v 0.024658845 0.02877744 0.0028125
v 0.02481318 0.028881345 0.0028125
v 0.022883055 0.027709815 0.0028125
v 0.02291028 0.02755431 0.0028125
v 0.04201506 0.02743092 0.0028125
v 0.02294178 0.02740707 0.0028125
v 0.022976025 0.027267165 0.0028125
v 0.02301435 0.027135825 0.0028125
v 0.0230586 0.027014265 0.0028125
v 0.02310789 0.0269016 0.0028125
v 0.044248995 0.02681382 0.0028125
v 0.02316141 0.0267969 0.0028125
v 0.023218305 0.02669925 0.0028125
v 0.02327772 0.02660775 0.0028125
v 0.02333883 0.02652147 0.0028125
v 0.023401935 0.026441295 0.0028125
v 0.023467905 0.026368305 0.0028125
v 0.02353668 0.02630196 0.0028125
v 0.02360826 0.02624169 0.0028125
v 0.0236826 0.02618691 0.0028125
v 0.023759655 0.02613708 0.0028125
v 0.04645809 0.0261294 0.0028125
v 0.02383941 0.02609163 0.0028125
v 0.02392188 0.02605074 0.0028125
v 0.02400708 0.02601498 0.0028125
v 0.024095025 0.025984365 0.0028125
v 0.024185715 0.025958865 0.0028125
v 0.02427912 0.025938495 0.0028125
v 0.024375285 0.025923255 0.0028125
v 0.02447418 0.025913145 0.0028125
v 0.025480335 0.02583054 0.0028125
v 0.026478525 0.0257301 0.0028125
v 0.02746875 0.025611825 0.0028125
v 0.028451025 0.0254757 0.0028125
v 0.048642345 0.02537766 0.0028125
v 0.03039168 0.025149915 0.0028125
v 0.032300505 0.024752775 0.0028125
v 0.05080224 0.024558555 0.0028125
v 0.034178025 0.02428338 0.0028125
v 0.03602454 0.02374119 0.0028125
v 0.052938525 0.02367204 0.0028125
v 0.03783861 0.023128635 0.0028125
v 0.055049565 0.02271822 0.0028125
v 0.03961881 0.022448175 0.0028125
v 0.04136451 0.021701355 0.0028125
v 0.057133605 0.021697245 0.0028125
v 0.043077555 0.020886165 0.0028125
v 0.059189025 0.020609235 0.0028125
v 0.044756295 0.02000328 0.0028125
v 0.06121656 0.019454145 0.0028125
v 0.04639869 0.01905378 0.0028125
v 0.063216705 0.018231915 0.0028125
v 0.048003285 0.01803864 0.0028125
v 0.04957272 0.016957455 0.0028125
v 0.065189445 0.016942575 0.0028125
v 0.051105435 0.01580988 0.0028125
v 0.06713478 0.015586095 0.0028125
v 0.05259852 0.01459569 0.0028125
v 0.06767385 0.015140595 0.0028125
v 0.06814473 0.014648025 0.0028125
v 0.0685476 0.01410789 0.0028125
v 0.05404923 0.013314735 0.0028125
v 0.06888669 0.013511115 0.0028125
v 0.06364434 0.01288839 0.0028125
v 0.05545812 0.011967015 0.0028125
v 0.0640413 0.01288839 0.0028125
v 0.0691542 0.01287456 0.0028125
v 0.064419405 0.012808395 0.0028125
v 0.064781475 0.01264653 0.0028125
v 0.06509541 0.01241973 0.0028125
v 0.069338685 0.01222137 0.0028125
v 0.06535923 0.012125025 0.0028125
v 0.06555492 0.01178931 0.0028125
v 0.06944238 0.011540385 0.0028125
v 0.065672805 0.011424705 0.0028125
v 0.06571782 0.011025 0.0028125
v 0.06946473 0.010851915 0.0028125
v 0.065672805 0.010625295 0.0028125
v 0.06555492 0.01026069 0.0028125
v 0.06940257 0.010176015 0.0028125
v 0.06535923 0.009924975 0.0028125
v 0.06509541 0.00963027 0.0028125
v 0.06925575 0.00950133 0.0028125
v 0.064781475 0.00940347 0.0028125
v 0.064419405 0.009241605 0.0028125
v 0.0640413 0.00916161 0.0028125
v 0.06903129 0.008852685 0.0028125
v 0.05815365 0.009071565 0.0028125
v 0.058802055 0.00830604 0.0028125
v 0.06364434 0.00916161 0.0028125
v 0.063266235 0.009241605 0.0028125
v 0.062904165 0.00940347 0.0028125
v 0.06259023 0.00963027 0.0028125
v 0.05749506 0.00982044 0.0028125
v 0.06232641 0.009924975 0.0028125
v 0.062130705 0.01026069 0.0028125
v 0.05682627 0.010552635 0.0028125
v 0.062012835 0.010625295 0.0028125
v 0.06196782 0.011025 0.0028125
v 0.062012835 0.011424705 0.0028125
v 0.062130705 0.01178931 0.0028125
v 0.06232641 0.012125025 0.0028125
v 0.06259023 0.01241973 0.0028125
v 0.062904165 0.01264653 0.0028125
v 0.063266235 0.012808395 0.0028125
v 0.068730195 0.00824274 0.0028125
v 0.059440275 0.007523835 0.0028125
v 0.068351655 0.00766431 0.0028125
v 0.06791202 0.007141425 0.0028125
v 0.059910435 0.007006125 0.0028125
v 0.06741021 0.00667788 0.0028125
v 0.06042444 0.006558735 0.0028125
v 0.066850065 0.00627276 0.0028125
v 0.060982785 0.0061815 0.0028125
v 0.066254835 0.005943525 0.0028125
v 0.06159474 0.005870625 0.0028125
v 0.065617365 0.00568905 0.0028125
v 0.062243085 0.005633115 0.0028125
v 0.06495027 0.00551091 0.0028125
v 0.062904165 0.005479305 0.0028125
v 0.064278015 0.00541728 0.0028125
v 0.063589245 0.0054075 0.0028125
v 0.042794415 0.05697708 0.0026625
v 0.042794415 0.05697708 0.0028125
v 0.0496713 0.05274132 0.0028125
v 0.0496713 0.05274132 0.0026625
v 0.04392621 0.057705 -0.0026625
v 0.042794415 0.05697708 -0.0026625
v 0.04335051 0.05734767 -0.0026625
v 0.04452153 0.058049115 -0.0026625
v 0.04513644 0.058379985 -0.0026625
v 0.04577097 0.058697625 -0.0026625
v 0.046425105 0.059002035 -0.0026625
v 0.047098845 0.059293215 -0.0026625
v 0.04779297 0.0595707 -0.0026625
v 0.04850922 0.059833515 -0.0026625
v 0.049246275 0.060082395 -0.0026625
v 0.0496713 0.05274132 -0.0026625
v 0.050002605 0.060318225 -0.0026625
v 0.05058939 0.05315979 -0.0026625
v 0.05077665 0.060541935 -0.0026625
v 0.051525765 0.053564145 -0.0026625
v 0.051566865 0.06075438 -0.0026625
v 0.05237172 0.06095646 -0.0026625
v 0.052480425 0.05395437 -0.0026625
v 0.05318988 0.061148955 -0.0026625
v 0.05345337 0.05433048 -0.0026625
v 0.054023115 0.06133083 -0.0026625
v 0.0544446 0.054692475 -0.0026625
v 0.054872175 0.061501665 -0.0026625
v 0.055454115 0.05504034 -0.0026625
v 0.055737075 0.061661445 -0.0026625
v 0.0564819 0.05537409 -0.0026625
v 0.0566178 0.061810155 -0.0026625
v 0.057514365 0.061947825 -0.0026625
v 0.057528045 0.055693605 -0.0026625
v 0.05842677 0.06207444 -0.0026625
v 0.05859336 0.055997385 -0.0026625
v 0.059355 0.06219 -0.0026625
v 0.059677695 0.056285715 -0.0026625
v 0.061195815 0.06242742 -0.0026625
v 0.06078048 0.056559615 -0.0026625
v 0.06190113 0.05682015 -0.0026625
v 0.06305286 0.062646285 -0.0026625
v 0.063039105 0.057068325 -0.0026625
v 0.06419382 0.057305175 -0.0026625
v 0.064926135 0.062846625 -0.0026625
v 0.06536472 0.05753175 -0.0026625
v 0.06681564 0.06302844 -0.0026625
v 0.066550725 0.05774808 -0.0026625
v 0.06774999 0.05795076 -0.0026625
v 0.068729415 0.0631911 -0.0026625
v 0.068964135 0.0581406 -0.0026625
v 0.070670565 0.06333441 -0.0026625
v 0.070195095 0.058318965 -0.0026625
v 0.07144485 0.05848725 -0.0026625
v 0.072618705 0.063459885 -0.0026625
v 0.072715365 0.058646835 -0.0026625
v 0.074552955 0.063569025 -0.0026625
v 0.074008575 0.05879907 -0.0026625
v 0.07532646 0.058945365 -0.0026625
v 0.076465395 0.063662145 -0.0026625
v 0.076669725 0.059085045 -0.0026625
v 0.078377055 0.06373731 -0.0026625
v 0.078036525 0.059215695 -0.0026625
v 0.07942587 0.059337915 -0.0026625
v 0.080270175 0.063796785 -0.0026625
v 0.080836815 0.059452425 -0.0026625
v 0.082123755 0.06384327 -0.0026625
v 0.0822684 0.059559885 -0.0026625
v 0.08392161 0.063878415 -0.0026625
v 0.083719665 0.059661 -0.0026625
v 0.085189665 0.05975643 -0.0026625
v 0.08567751 0.06389916 -0.0026625
v 0.087391065 0.063907515 -0.0026625
v 0.08819079 0.05993091 -0.0026625
v 0.089057805 0.063906525 -0.0026625
v 0.09067314 0.063898755 -0.0026625
v 0.09129138 0.060078765 -0.0026625
v 0.092234205 0.06388188 -0.0026625
v 0.094458525 0.060203235 -0.0026625
v 0.095218245 0.06382416 -0.0026625
v 0.09765345 0.060308685 -0.0026625
v 0.098053695 0.06374442 -0.0026625
v 0.10073817 0.063641805 -0.0026625
v 0.10082739 0.06039666 -0.0026625
v 0.1033065 0.063521895 -0.0026625
v 0.10397895 0.060463605 -0.0026625
v 0.1057575 0.063384375 -0.0026625
v 0.107198445 0.060513375 -0.0026625
v 0.10809552 0.063233385 -0.0026625
v 0.1103205 0.063068835 -0.0026625
v 0.11057961 0.06055029 -0.0026625
v 0.112436385 0.06289374 -0.0026625
v 0.11416206 0.06057618 -0.0026625
v 0.11444223 0.062708385 -0.0026625
v 0.116347785 0.06251403 -0.0026625
v 0.11789397 0.06058863 -0.0026625
v 0.118154325 0.06231099 -0.0026625
v 0.11986692 0.062099805 -0.0026625
v 0.12148482 0.0618813 -0.0026625
v 0.121774155 0.060587595 -0.0026625
v 0.12301965 0.061653585 -0.0026625
v 0.12447909 0.061415625 -0.0026625
v 0.125802615 0.06057309 -0.0026625
v 0.125859885 0.061167855 -0.0026625
v 0.125946255 0.060609 -0.0026625
v 0.125994045 0.061105185 -0.0026625
v 0.126053445 0.06070737 -0.0026625
v 0.12608049 0.060988185 -0.0026625
v 0.12610194 0.06084441 -0.0026625
v 0.05859336 0.055997385 0.0026625
v 0.059355 0.06219 0.0026625
v 0.05842677 0.06207444 0.0026625
v 0.059677695 0.056285715 0.0026625
v 0.057528045 0.055693605 0.0026625
v 0.057514365 0.061947825 0.0026625
v 0.0566178 0.061810155 0.0026625
v 0.0564819 0.05537409 0.0026625
v 0.055737075 0.061661445 0.0026625
v 0.055454115 0.05504034 0.0026625
v 0.054872175 0.061501665 0.0026625
v 0.0544446 0.054692475 0.0026625
v 0.054023115 0.06133083 0.0026625
v 0.05345337 0.05433048 0.0026625
v 0.05318988 0.061148955 0.0026625
v 0.052480425 0.05395437 0.0026625
v 0.05237172 0.06095646 0.0026625
v 0.051566865 0.06075438 0.0026625
v 0.051525765 0.053564145 0.0026625
v 0.05077665 0.060541935 0.0026625
v 0.05058939 0.05315979 0.0026625
v 0.050002605 0.060318225 0.0026625
v 0.0496713 0.05274132 0.0026625
v 0.049246275 0.060082395 0.0026625
v 0.04850922 0.059833515 0.0026625
v 0.04779297 0.0595707 0.0026625
v 0.047098845 0.059293215 0.0026625
v 0.046425105 0.059002035 0.0026625
v 0.04577097 0.058697625 0.0026625
v 0.04513644 0.058379985 0.0026625
v 0.04452153 0.058049115 0.0026625
v 0.04392621 0.057705 0.0026625
v 0.04335051 0.05734767 0.0026625
v 0.042794415 0.05697708 0.0026625
v 0.06078048 0.056559615 0.0026625
v 0.061195815 0.06242742 0.0026625
v 0.06190113 0.05682015 0.0026625
v 0.063039105 0.057068325 0.0026625
v 0.06305286 0.062646285 0.0026625
v 0.06419382 0.057305175 0.0026625
v 0.064926135 0.062846625 0.0026625
v 0.06536472 0.05753175 0.0026625
v 0.066550725 0.05774808 0.0026625
v 0.06681564 0.06302844 0.0026625
v 0.06774999 0.05795076 0.0026625
v 0.068729415 0.0631911 0.0026625
v 0.068964135 0.0581406 0.0026625
v 0.070195095 0.058318965 0.0026625
v 0.070670565 0.06333441 0.0026625
v 0.07144485 0.05848725 0.0026625
v 0.072618705 0.063459885 0.0026625
v 0.072715365 0.058646835 0.0026625
v 0.074008575 0.05879907 0.0026625
v 0.074552955 0.063569025 0.0026625
v 0.07532646 0.058945365 0.0026625
v 0.076465395 0.063662145 0.0026625
v 0.076669725 0.059085045 0.0026625
v 0.078036525 0.059215695 0.0026625
v 0.078377055 0.06373731 0.0026625
v 0.07942587 0.059337915 0.0026625
v 0.080270175 0.063796785 0.0026625
v 0.080836815 0.059452425 0.0026625
v 0.082123755 0.06384327 0.0026625
v 0.0822684 0.059559885 0.0026625
v 0.083719665 0.059661 0.0026625
v 0.08392161 0.063878415 0.0026625
v 0.085189665 0.05975643 0.0026625
v 0.08567751 0.06389916 0.0026625
v 0.08819079 0.05993091 0.0026625
v 0.087391065 0.063907515 0.0026625
v 0.089057805 0.063906525 0.0026625
v 0.09129138 0.060078765 0.0026625
v 0.09067314 0.063898755 0.0026625
v 0.092234205 0.06388188 0.0026625
v 0.094458525 0.060203235 0.0026625
v 0.095218245 0.06382416 0.0026625
v 0.09765345 0.060308685 0.0026625
v 0.098053695 0.06374442 0.0026625
v 0.10082739 0.06039666 0.0026625
v 0.10073817 0.063641805 0.0026625
v 0.1033065 0.063521895 0.0026625
v 0.10397895 0.060463605 0.0026625
v 0.1057575 0.063384375 0.0026625
v 0.107198445 0.060513375 0.0026625
v 0.10809552 0.063233385 0.0026625
v 0.11057961 0.06055029 0.0026625
v 0.1103205 0.063068835 0.0026625
v 0.112436385 0.06289374 0.0026625
v 0.11416206 0.06057618 0.0026625
v 0.11444223 0.062708385 0.0026625
v 0.11789397 0.06058863 0.0026625
v 0.116347785 0.06251403 0.0026625
v 0.118154325 0.06231099 0.0026625
v 0.121774155 0.060587595 0.0026625
v 0.11986692 0.062099805 0.0026625
v 0.12148482 0.0618813 0.0026625
v 0.12301965 0.061653585 0.0026625
v 0.125802615 0.06057309 0.0026625
v 0.12447909 0.061415625 0.0026625
v 0.125859885 0.061167855 0.0026625
v 0.125946255 0.060609 0.0026625
v 0.125994045 0.061105185 0.0026625
v 0.126053445 0.06070737 0.0026625
v 0.12608049 0.060988185 0.0026625
v 0.12610194 0.06084441 0.0026625
f 1 2 3
f 1 4 2
f 1 3 5
f 1 5 6
f 1 6 7
f 8 1 7
f 8 7 9
f 8 9 10
f 10 9 11
f 8 10 12
f 13 8 12
f 13 12 14
f 15 13 14
f 16 15 14
f 16 14 17
f 18 16 17
f 18 17 19
f 20 18 19
f 20 19 21
f 22 20 21
f 22 21 23
f 24 22 23
f 25 24 23
f 25 23 26
f 27 25 26
f 28 27 26
f 29 28 26
f 29 26 30
f 31 29 30
f 32 31 30
f 33 32 30
f 33 30 34
f 35 33 34
f 36 35 34
f 37 36 34
f 37 34 38
f 37 38 39
f 37 39 40
f 37 40 41
f 10 11 42
f 10 42 43
f 10 43 44
f 10 44 45
f 46 10 45
f 46 45 47
f 46 47 48
f 46 48 49
f 50 46 49
f 50 51 46
f 52 50 49
f 52 49 53
f 1 52 53
f 1 53 4
f 50 54 51
f 54 55 51
f 55 56 51
f 56 57 51
f 56 58 57
f 58 59 57
f 59 60 57
f 59 61 60
f 61 62 60
f 62 63 60
f 62 64 63
f 62 65 64
f 63 64 66
f 63 66 67
f 63 67 68
f 63 68 69
f 63 69 70
f 63 70 71
f 72 63 71
f 72 71 73
f 72 73 74
f 75 72 74
f 75 76 72
f 75 74 77
f 75 77 78
f 79 75 78
f 79 78 80
f 79 80 81
f 79 81 82
f 65 79 82
f 65 82 83
f 65 83 84
f 65 84 64
f 75 85 76
f 85 86 76
f 86 87 76
f 86 88 87
f 88 89 87
f 88 90 89
f 90 91 89
f 90 92 91
f 89 91 93
f 89 93 94
f 89 94 95
f 96 89 95
f 96 95 97
f 98 96 97
f 98 97 99
f 100 98 99
f 100 99 101
f 100 101 102
f 100 102 103
f 104 100 103
f 105 104 103
f 105 106 104
f 105 103 107
f 108 105 107
f 108 107 109
f 108 109 110
f 111 108 110
f 111 110 112
f 111 112 113
f 92 111 113
f 92 113 114
f 92 114 115
f 92 115 91
f 105 116 106
f 116 117 106
f 116 118 117
f 116 119 118
f 116 120 119
f 120 121 119
f 120 122 121
f 120 123 122
f 120 124 123
f 124 125 123
f 124 126 125
f 124 127 126
f 127 128 126
f 127 129 128
f 127 130 129
f 127 131 130
f 131 132 130
f 131 133 132
f 133 134 132
f 133 135 134
f 133 136 135
f 136 137 135
f 136 138 137
f 139 135 137
f 139 137 140
f 139 140 141
f 142 139 141
f 142 141 143
f 144 142 143
f 144 143 145
f 146 144 145
f 146 145 147
f 148 146 147
f 149 148 147
f 149 147 150
f 149 150 151
f 149 151 152
f 153 149 152
f 154 153 152
f 154 155 153
f 156 154 152
f 156 152 157
f 158 156 157
f 158 157 159
f 160 158 159
f 160 159 161
f 162 160 161
f 163 162 161
f 163 161 164
f 165 163 164
f 166 165 164
f 166 164 167
f 168 166 167
f 138 168 167
f 138 167 169
f 138 169 170
f 138 170 137
f 154 171 155
f 154 172 171
f 154 173 172
f 154 174 173
f 174 175 173
f 174 176 175
f 174 177 176
f 174 178 177
f 174 179 178
f 174 180 179
f 180 181 179
f 180 182 181
f 180 183 182
f 180 184 183
f 180 185 184
f 180 186 185
f 180 187 186
f 180 188 187
f 180 189 188
f 180 190 189
f 190 191 189
f 190 192 191
f 190 193 192
f 190 194 193
f 190 195 194
f 190 196 195
f 190 197 196
f 190 198 197
f 190 199 198
f 190 200 199
f 190 201 200
f 190 202 201
f 202 203 201
f 202 204 203
f 202 205 204
f 205 206 204
f 205 207 206
f 205 208 207
f 208 209 207
f 208 210 209
f 208 211 210
f 208 212 211
f 212 213 211
f 212 214 213
f 212 215 214
f 212 216 215
f 216 217 215
f 216 218 217
f 216 219 218
f 219 220 218
f 219 221 220
f 219 222 221
f 219 223 222
f 223 224 222
f 223 225 224
f 223 226 225
f 226 227 225
f 226 228 227
f 226 229 228
f 229 230 228
f 229 231 230
f 229 232 231
f 232 233 231
f 233 234 231
f 234 235 231
f 234 236 235
f 236 237 235
f 237 238 235
f 237 239 238
f 239 240 238
f 239 241 240
f 238 240 242
f 238 242 243
f 238 243 244
f 238 244 245
f 238 245 246
f 247 238 246
f 247 246 248
f 247 248 249
f 247 249 250
f 247 250 251
f 252 247 251
f 252 251 253
f 252 253 254
f 252 254 255
f 252 255 256
f 252 256 257
f 252 257 258
f 259 252 258
f 260 259 258
f 260 261 259
f 260 258 262
f 260 262 263
f 260 263 264
f 265 260 264
f 265 264 266
f 265 266 267
f 268 265 267
f 268 267 269
f 268 269 270
f 271 268 270
f 271 270 272
f 271 272 273
f 274 271 273
f 274 273 275
f 274 275 276
f 277 274 276
f 277 276 278
f 277 278 279
f 277 279 241
f 239 277 241
f 261 280 259
f 280 281 259
f 280 282 281
f 282 283 281
f 282 284 283
f 284 285 283
f 284 286 285
f 286 287 285
f 286 288 287
f 288 289 287
f 288 290 289
f 290 291 289
f 290 292 291
f 292 293 291
f 292 294 293
f 294 295 293
f 296 297 298
f 299 297 296
f 300 296 298
f 300 298 301
f 301 298 302
f 301 302 303
f 303 302 304
f 303 304 305
f 303 305 306
f 306 305 307
f 306 307 308
f 308 307 309
f 308 309 310
f 310 309 311
f 310 311 312
f 312 311 313
f 312 313 314
f 314 313 315
f 314 315 316
f 316 315 317
f 317 315 318
f 317 318 319
f 319 318 320
f 319 320 321
f 319 321 322
f 322 321 323
f 322 323 324
f 324 323 325
f 324 325 326
f 326 325 327
f 326 327 299
f 299 327 297
f 328 329 330
f 331 329 328
f 332 328 330
f 332 330 333
f 333 330 334
f 333 334 335
f 335 334 336
f 335 336 337
f 335 337 338
f 338 337 339
f 338 339 340
f 340 339 341
f 340 341 342
f 342 341 343
f 342 343 344
f 344 343 345
f 344 345 346
f 346 345 347
f 346 347 348
f 348 347 349
f 349 347 350
f 349 350 351
f 351 350 352
f 351 352 353
f 351 353 354
f 354 353 355
f 354 355 356
f 356 355 357
f 356 357 358
f 358 357 359
f 358 359 331
f 331 359 329
f 360 361 362
f 363 361 360
f 364 360 362
f 364 362 365
f 365 362 366
f 365 366 367
f 367 366 368
f 367 368 369
f 367 369 370
f 370 369 371
f 370 371 372
f 372 371 373
f 372 373 374
f 374 373 375
f 374 375 376
f 376 375 377
f 376 377 378
f 378 377 379
f 378 379 380
f 380 379 381
f 381 379 382
f 381 382 383
f 383 382 384
f 383 384 385
f 383 385 386
f 386 385 387
f 386 387 388
f 388 387 389
f 388 389 390
f 390 389 391
f 390 391 363
f 363 391 361
f 392 393 394
f 395 393 392
f 396 392 394
f 396 394 397
f 397 394 398
f 397 398 399
f 399 398 400
f 399 400 401
f 399 401 402
f 402 401 403
f 402 403 404
f 404 403 405
f 404 405 406
f 406 405 407
f 406 407 408
f 408 407 409
f 408 409 410
f 410 409 411
f 410 411 412
f 412 411 413
f 413 411 414
f 413 414 415
f 415 414 416
f 415 416 417
f 415 417 418
f 418 417 419
f 418 419 420
f 420 419 421
f 420 421 422
f 422 421 423
f 422 423 395
f 395 423 393
f 424 425 426
f 427 425 424
f 428 424 426
f 428 426 429
f 429 426 430
f 429 430 431
f 431 430 432
f 431 432 433
f 433 432 434
f 433 434 435
f 435 434 436
f 435 436 437
f 437 436 438
f 437 438 439
f 439 438 440
f 439 440 441
f 439 441 442
f 442 441 443
f 442 443 444
f 444 443 445
f 444 445 446
f 446 445 447
f 446 447 448
f 448 447 449
f 448 449 450
f 450 449 451
f 450 451 452
f 452 451 453
f 452 453 454
f 454 453 455
f 454 455 456
f 456 455 457
f 456 457 458
f 458 457 459
f 459 457 460
f 459 460 461
f 461 460 462
f 461 462 463
f 463 462 464
f 463 464 465
f 465 464 466
f 465 466 467
f 467 466 468
f 467 468 469
f 469 468 470
f 469 470 471
f 469 471 472
f 472 471 473
f 472 473 474
f 474 473 475
f 474 475 476
f 476 475 477
f 476 477 478
f 478 477 479
f 478 479 480
f 480 479 481
f 480 481 482
f 482 481 483
f 482 483 427
f 427 483 425
f 484 485 486
f 487 484 486
f 487 488 484
f 487 486 489
f 490 489 486
f 490 486 491
f 491 486 492
f 491 492 493
f 493 492 494
f 493 494 495
f 495 494 496
f 495 496 497
f 497 496 498
f 497 498 499
f 499 498 500
f 500 498 501
f 500 501 502
f 502 501 503
f 503 501 504
f 503 504 505
f 505 504 506
f 506 504 507
f 506 507 508
f 508 507 509
f 509 507 510
f 509 510 511
f 511 510 512
f 512 510 513
f 512 513 514
f 514 513 515
f 514 515 516
f 516 515 517
f 517 515 518
f 517 518 519
f 519 518 520
f 520 518 521
f 520 521 522
f 522 521 523
f 522 523 524
f 524 523 525
f 524 525 526
f 526 525 527
f 526 527 528
f 526 528 529
f 529 528 530
f 529 530 531
f 531 530 532
f 531 532 533
f 533 532 534
f 533 534 535
f 535 534 536
f 535 536 537
f 537 536 538
f 537 538 539
f 537 539 540
f 540 539 541
f 540 541 542
f 542 541 543
f 542 543 544
f 544 543 545
f 544 545 546
f 546 545 547
f 546 547 548
f 548 547 549
f 549 547 550
f 549 550 551
f 551 550 552
f 551 552 553
f 551 553 554
f 554 553 555
f 554 555 556
f 556 555 557
f 556 557 558
f 558 557 559
f 558 559 560
f 558 560 561
f 561 560 562
f 561 562 563
f 563 562 564
f 563 564 565
f 565 564 566
f 565 566 567
f 567 566 568
f 567 568 569
f 567 569 570
f 570 569 571
f 570 571 572
f 572 571 573
f 572 573 574
f 574 573 575
f 574 575 576
f 576 575 577
f 576 577 578
f 578 577 579
f 578 579 580
f 580 579 581
f 580 581 582
f 582 581 583
f 582 583 584
f 584 583 585
f 584 585 586
f 586 585 587
f 586 587 588
f 588 587 589
f 588 589 590
f 590 589 591
f 591 589 592
f 591 592 593
f 593 592 594
f 593 594 595
f 593 595 596
f 596 595 597
f 596 597 598
f 598 597 599
f 598 599 600
f 600 599 601
f 600 601 602
f 602 601 603
f 602 603 604
f 604 603 605
f 604 605 606
f 606 605 607
f 606 607 608
f 608 607 609
f 608 609 610
f 610 609 611
f 611 609 612
f 611 612 613
f 613 612 614
f 613 614 615
f 615 614 616
f 615 616 617
f 617 616 618
f 617 618 619
f 619 618 620
f 619 620 621
f 621 620 622
f 621 622 623
f 623 622 624
f 623 624 625
f 625 624 626
f 625 626 627
f 627 626 628
f 627 628 629
f 629 628 630
f 629 630 631
f 631 630 632
f 631 632 633
f 633 632 634
f 633 634 635
f 635 634 636
f 635 636 637
f 637 636 638
f 637 638 639
f 637 639 640
f 640 639 641
f 640 641 642
f 642 641 643
f 643 641 644
f 643 644 645
f 645 644 646
f 646 644 647
f 646 647 648
f 648 647 649
f 648 649 650
f 650 649 651
f 650 651 652
f 652 651 653
f 652 653 654
f 654 653 655
f 654 655 656
f 654 656 657
f 657 656 658
f 657 658 659
f 657 659 660
f 660 659 661
f 660 661 662
f 660 662 663
f 663 662 664
f 663 664 665
f 663 665 666
f 666 665 667
f 666 667 668
f 668 667 669
f 668 669 670
f 668 670 671
f 671 670 672
f 671 672 673
f 671 673 674
f 674 673 675
f 674 675 676
f 674 676 677
f 677 676 678
f 677 678 679
f 677 679 680
f 680 679 681
f 680 681 682
f 682 681 683
f 682 683 684
f 684 683 685
f 684 685 686
f 686 685 687
f 686 687 688
f 688 687 689
f 688 689 690
f 690 689 691
f 690 691 692
f 692 691 693
f 693 691 694
f 693 694 695
f 695 694 696
f 695 696 697
f 697 696 698
f 697 698 699
f 699 698 700
f 699 700 701
f 701 700 702
f 701 702 703
f 703 702 704
f 704 702 705
f 704 705 706
f 706 705 707
f 706 707 708
f 706 708 709
f 709 708 710
f 709 710 711
f 711 710 712
f 711 712 713
f 713 712 714
f 714 712 715
f 714 715 716
f 716 715 717
f 716 717 718
f 716 718 719
f 719 718 720
f 719 720 721
f 721 720 722
f 721 722 723
f 723 722 724
f 723 724 725
f 725 724 726
f 726 724 727
f 726 727 728
f 726 728 729
f 729 728 730
f 729 730 731
f 731 730 732
f 731 732 733
f 733 732 734
f 733 734 735
f 735 734 736
f 736 734 737
f 736 737 738
f 736 738 739
f 739 738 740
f 739 740 741
f 741 740 742
f 741 742 743
f 743 742 744
f 743 744 745
f 745 744 746
f 746 744 747
f 746 747 748
f 748 747 749
f 748 749 750
f 748 750 751
f 751 750 752
f 751 752 753
f 753 752 754
f 753 754 755
f 755 754 756
f 755 756 757
f 757 756 758
f 757 758 759
f 759 758 760
f 759 760 761
f 761 760 762
f 761 762 763
f 763 762 764
f 763 764 765
f 765 764 766
f 765 766 767
f 767 766 768
f 767 768 769
f 769 768 770
f 769 770 771
f 771 770 772
f 771 772 773
f 773 772 774
f 773 774 775
f 775 774 776
f 775 776 777
f 775 777 778
f 778 777 779
f 778 779 780
f 780 779 781
f 780 781 782
f 782 781 783
f 782 783 784
f 784 783 785
f 784 785 786
f 786 785 787
f 786 787 788
f 786 788 789
f 789 788 790
f 789 790 791
f 791 790 792
f 791 792 793
f 793 792 794
f 793 794 795
f 795 794 796
f 795 796 797
f 795 797 798
f 798 797 799
f 798 799 800
f 800 799 801
f 800 801 802
f 802 801 803
f 802 803 804
f 804 803 805
f 805 803 806
f 805 806 807
f 807 806 808
f 808 806 809
f 808 809 810
f 810 809 811
f 811 809 812
f 811 812 813
f 811 813 814
f 814 813 815
f 814 815 816
f 814 816 817
f 817 816 818
f 817 818 819
f 819 818 820
f 819 820 821
f 821 820 822
f 821 822 823
f 823 822 824
f 823 824 825
f 825 824 826
f 826 824 827
f 826 827 828
f 828 827 829
f 828 829 830
f 830 829 831
f 830 831 832
f 832 831 833
f 832 833 834
f 834 833 835
f 834 835 836
f 836 835 837
f 836 837 838
f 838 837 839
f 838 839 840
f 840 839 841
f 840 841 842
f 842 841 843
f 842 843 844
f 844 843 845
f 844 845 846
f 846 845 847
f 846 847 848
f 848 847 849
f 848 849 850
f 850 849 851
f 850 851 852
f 852 851 853
f 852 853 854
f 854 853 855
f 854 855 856
f 856 855 857
f 856 857 858
f 858 857 859
f 858 859 860
f 860 859 861
f 860 861 862
f 862 861 863
f 862 863 864
f 864 863 865
f 864 865 866
f 866 865 867
f 867 865 868
f 867 868 869
f 869 868 870
f 869 870 871
f 871 870 872
f 871 872 873
f 873 872 874
f 873 874 875
f 875 874 876
f 875 876 877
f 877 876 878
f 877 878 879
f 879 878 880
f 879 880 881
f 881 880 882
f 881 882 883
f 883 882 884
f 883 884 885
f 886 883 885
f 887 883 886
f 887 888 883
f 887 886 889
f 890 887 889
f 890 889 891
f 892 890 891
f 892 891 893
f 894 892 893
f 894 893 895
f 896 894 895
f 896 895 897
f 898 896 897
f 898 897 899
f 900 898 899
f 900 899 901
f 902 900 901
f 902 901 903
f 904 902 903
f 904 903 905
f 906 904 905
f 906 905 907
f 908 906 907
f 908 907 909
f 910 908 909
f 910 909 911
f 912 910 911
f 912 911 913
f 914 912 913
f 914 913 915
f 916 914 915
f 916 915 917
f 918 916 917
f 918 917 919
f 920 918 919
f 920 919 921
f 922 920 921
f 922 921 923
f 924 922 923
f 924 923 925
f 926 924 925
f 926 925 927
f 928 926 927
f 928 927 929
f 930 928 929
f 930 929 931
f 932 930 931
f 932 931 933
f 934 932 933
f 934 933 935
f 936 934 935
f 936 935 937
f 938 936 937
f 938 937 939
f 940 938 939
f 940 939 941
f 942 940 941
f 942 941 943
f 944 942 943
f 944 943 945
f 946 944 945
f 946 945 947
f 948 946 947
f 948 947 949
f 950 948 949
f 950 949 951
f 952 950 951
f 952 951 953
f 954 952 953
f 954 953 955
f 956 954 955
f 956 955 957
f 958 956 957
f 958 957 959
f 960 958 959
f 960 959 961
f 962 960 961
f 962 961 963
f 964 962 963
f 964 963 965
f 966 964 965
f 966 965 967
f 968 966 967
f 968 967 969
f 970 968 969
f 970 969 971
f 970 971 972
f 973 972 971
f 974 972 973
f 974 973 975
f 976 974 975
f 976 975 977
f 978 976 977
f 978 977 979
f 980 978 979
f 980 979 981
f 982 980 981
f 982 981 983
f 982 983 984
f 983 985 984
f 985 986 984
f 985 987 986
f 987 988 986
f 987 989 988
f 989 990 988
f 989 991 990
f 991 992 990
f 991 993 992
f 993 994 992
f 993 995 994
f 995 996 994
f 995 997 996
f 997 998 996
f 997 999 998
f 999 1000 998
f 999 1001 1000
f 1001 1002 1000
f 1001 1003 1002
f 1003 1004 1002
f 1003 1005 1004
f 1005 1006 1004
f 1005 1007 1006
f 1007 1008 1006
f 1007 1009 1008
f 1009 1010 1008
f 1009 1011 1010
f 1011 1012 1010
f 1011 1013 1012
f 1013 1014 1012
f 1013 1015 1014
f 1015 1016 1014
f 1015 1017 1016
f 1017 1018 1016
f 1017 1019 1018
f 1019 1020 1018
f 1019 1021 1020
f 1021 1022 1020
f 1021 1023 1022
f 1023 1024 1022
f 1023 1025 1024
f 1025 1026 1024
f 1025 1027 1026
f 1027 1028 1026
f 1027 1029 1028
f 1029 1030 1028
f 1029 1031 1030
f 1031 1032 1030
f 1031 1033 1032
f 1033 1034 1032
f 1033 1035 1034
f 1035 1036 1034
f 1035 1037 1036
f 1037 1038 1036
f 1037 1039 1038
f 1039 1040 1038
f 1039 1041 1040
f 1041 1042 1040
f 1041 1043 1042
f 1043 1044 1042
f 1043 1045 1044
f 1045 1046 1044
f 1045 1047 1046
f 1047 1048 1046
f 1047 1049 1048
f 1049 1050 1048
f 1049 1051 1050
f 1050 1051 1052
f 1052 1051 1053
f 1054 1052 1053
f 1054 1053 1055
f 1056 1054 1055
f 1056 1055 1057
f 1058 1056 1057
f 1058 1057 1059
f 1060 1058 1059
f 1060 1059 1061
f 1062 1060 1061
f 1062 1061 1063
f 1064 1062 1063
f 1064 1063 1065
f 1066 1064 1065
f 1066 1065 1067
f 1068 1066 1067
f 1068 1067 1069
f 1070 1068 1069
f 1070 1069 1071
f 1072 1070 1071
f 1072 1071 1073
f 1074 1072 1073
f 1074 1073 1075
f 1076 1074 1075
f 1076 1075 1077
f 1078 1076 1077
f 1078 1077 1079
f 1080 1078 1079
f 1080 1079 1081
f 1082 1080 1081
f 1082 1081 1083
f 1084 1082 1083
f 1084 1083 1085
f 1086 1084 1085
f 1086 1085 1087
f 1088 1086 1087
f 1088 1087 1089
f 1090 1088 1089
f 1090 1089 1091
f 1092 1090 1091
f 1092 1091 1093
f 488 1092 1093
f 488 1093 484
f 1094 1095 1096
f 1094 1096 1097
f 1098 1099 1100
f 1098 1101 1099
f 1098 1100 1102
f 1098 1102 1103
f 1104 1098 1103
f 1104 1103 1105
f 1104 1105 1106
f 1107 1104 1106
f 1108 1107 1106
f 1108 1109 1107
f 1108 1106 1110
f 1108 1110 1111
f 1108 1111 1112
f 1108 1112 1113
f 1108 1113 1114
f 1115 1108 1114
f 1115 1114 1116
f 1115 1116 1117
f 1115 1117 1118
f 1115 1118 1098
f 1098 1118 1119
f 1120 1115 1098
f 1120 1098 1121
f 1122 1120 1121
f 1123 1122 1121
f 1123 1121 1124
f 1125 1123 1124
f 1126 1125 1124
f 1126 1124 1127
f 1128 1126 1127
f 1128 1127 1129
f 1130 1128 1129
f 1131 1130 1129
f 1131 1129 1132
f 1133 1131 1132
f 1133 1132 1134
f 1135 1133 1134
f 1135 1134 1136
f 1135 1136 1137
f 1138 1135 1137
f 1138 1137 1139
f 1140 1138 1139
f 1140 1139 1141
f 1140 1141 1142
f 1143 1140 1142
f 1143 1142 1144
f 1143 1144 1145
f 1146 1143 1145
f 1146 1145 1147
f 1148 1146 1147
f 1148 1147 1149
f 1148 1149 1150
f 1151 1148 1150
f 1151 1150 1152
f 1153 1151 1152
f 1153 1152 1154
f 1155 1153 1154
f 1156 1155 1154
f 1157 1156 1154
f 1098 1119 1101
f 1108 1158 1109
f 1158 1159 1109
f 1158 1160 1159
f 1158 1161 1160
f 1158 1162 1161
f 1158 1163 1162
f 1163 1164 1162
f 1163 1165 1164
f 1163 1166 1165
f 1163 1167 1166
f 1167 1168 1166
f 1167 1169 1168
f 1170 1166 1168
f 1170 1168 1171
f 1170 1171 1172
f 1170 1172 1173
f 1174 1170 1173
f 1174 1173 1175
f 1174 1175 1176
f 1177 1174 1176
f 1177 1176 1178
f 1177 1178 1179
f 1177 1179 1180
f 1181 1177 1180
f 1181 1182 1177
f 1181 1180 1183
f 1181 1183 1184
f 1181 1184 1185
f 1181 1185 1186
f 1181 1186 1187
f 1167 1181 1187
f 1167 1187 1188
f 1167 1188 1169
f 1181 1189 1182
f 1189 1190 1182
f 1189 1191 1190
f 1189 1192 1191
f 1192 1193 1191
f 1192 1194 1193
f 1192 1195 1194
f 1192 1196 1195
f 1194 1195 1197
f 1194 1197 1198
f 1199 1194 1198
f 1199 1198 1200
f 1199 1200 1201
f 1199 1201 1202
f 1199 1202 1203
f 1204 1199 1203
f 1204 1203 1205
f 1204 1205 1206
f 1207 1204 1206
f 1207 1208 1204
f 1207 1206 1209
f 1210 1207 1209
f 1210 1209 1211
f 1210 1211 1212
f 1213 1210 1212
f 1213 1212 1214
f 1196 1213 1214
f 1196 1214 1215
f 1196 1215 1216
f 1196 1216 1217
f 1196 1217 1195
f 1207 1218 1208
f 1218 1219 1208
f 1219 1220 1208
f 1219 1221 1220
f 1221 1222 1220
f 1221 1223 1222
f 1223 1224 1222
f 1223 1225 1224
f 1225 1226 1224
f 1225 1227 1226
f 1227 1228 1226
f 1227 1229 1228
f 1229 1230 1228
f 1230 1231 1228
f 1230 1232 1231
f 1232 1233 1231
f 1233 1234 1231
f 1233 1235 1234
f 1235 1236 1234
f 1236 1237 1234
f 1236 1238 1237
f 1238 1239 1237
f 1238 1240 1239
f 1237 1239 1241
f 1242 1237 1241
f 1242 1241 1243
f 1244 1242 1243
f 1244 1243 1245
f 1246 1244 1245
f 1246 1245 1247
f 1248 1246 1247
f 1248 1247 1249
f 1250 1248 1249
f 1250 1249 1251
f 1252 1250 1251
f 1253 1252 1251
f 1253 1251 1254
f 1253 1254 1255
f 1256 1253 1255
f 1257 1256 1255
f 1257 1258 1256
f 1257 1255 1259
f 1260 1257 1259
f 1260 1259 1261
f 1262 1260 1261
f 1262 1261 1263
f 1264 1262 1263
f 1264 1263 1265
f 1266 1264 1265
f 1266 1265 1267
f 1268 1266 1267
f 1268 1267 1269
f 1240 1268 1269
f 1240 1269 1270
f 1240 1270 1239
f 1258 1271 1256
f 1271 1272 1256
f 1272 1273 1256
f 1272 1274 1273
f 1274 1275 1273
f 1275 1276 1273
f 1276 1277 1273
f 1277 1278 1273
f 1278 1279 1273
f 1278 1280 1279
f 1280 1281 1279
f 1281 1282 1279
f 1282 1283 1279
f 1283 1284 1279
f 1284 1285 1279
f 1285 1286 1279
f 1286 1287 1279
f 1287 1288 1279
f 1288 1289 1279
f 1289 1290 1279
f 1289 1291 1290
f 1291 1292 1290
f 1292 1293 1290
f 1293 1294 1290
f 1294 1295 1290
f 1295 1296 1290
f 1296 1297 1290
f 1297 1298 1290
f 1298 1299 1290
f 1299 1300 1290
f 1300 1301 1290
f 1301 1302 1290
f 1302 1303 1290
f 1302 1304 1303
f 1304 1305 1303
f 1305 1306 1303
f 1305 1307 1306
f 1307 1308 1306
f 1308 1309 1306
f 1308 1310 1309
f 1310 1311 1309
f 1310 1312 1311
f 1312 1313 1311
f 1313 1314 1311
f 1313 1315 1314
f 1315 1316 1314
f 1315 1317 1316
f 1317 1318 1316
f 1317 1319 1318
f 1319 1320 1318
f 1319 1321 1320
f 1321 1322 1320
f 1322 1323 1320
f 1322 1324 1323
f 1324 1325 1323
f 1324 1326 1325
f 1326 1327 1325
f 1326 1328 1327
f 1326 1329 1328
f 1326 1330 1329
f 1330 1331 1329
f 1330 1332 1331
f 1330 1333 1332
f 1331 1332 1334
f 1335 1331 1334
f 1335 1334 1336
f 1335 1336 1337
f 1335 1337 1338
f 1339 1335 1338
f 1339 1338 1340
f 1339 1340 1341
f 1342 1339 1341
f 1342 1341 1343
f 1342 1343 1344
f 1345 1342 1344
f 1345 1344 1346
f 1345 1346 1347
f 1348 1345 1347
f 1348 1347 1349
f 1348 1349 1350
f 1351 1348 1350
f 1351 1350 1352
f 1351 1352 1353
f 1351 1353 1354
f 1355 1351 1354
f 1356 1355 1354
f 1356 1357 1355
f 1356 1354 1358
f 1356 1358 1359
f 1356 1359 1360
f 1356 1360 1361
f 1362 1356 1361
f 1362 1361 1363
f 1362 1363 1364
f 1365 1362 1364
f 1365 1364 1366
f 1365 1366 1367
f 1365 1367 1368
f 1365 1368 1369
f 1333 1365 1369
f 1333 1369 1370
f 1333 1370 1371
f 1333 1371 1372
f 1333 1372 1373
f 1333 1373 1332
f 1357 1374 1355
f 1357 1375 1374
f 1375 1376 1374
f 1375 1377 1376
f 1375 1378 1377
f 1378 1379 1377
f 1378 1380 1379
f 1380 1381 1379
f 1380 1382 1381
f 1382 1383 1381
f 1382 1384 1383
f 1384 1385 1383
f 1384 1386 1385
f 1386 1387 1385
f 1386 1388 1387
f 1388 1389 1387
f 1388 1390 1389
f 1391 1392 1393
f 1394 1391 1393
f 1395 1396 1397
f 1398 1396 1395
f 1399 1396 1398
f 1400 1396 1399
f 1401 1396 1400
f 1402 1396 1401
f 1403 1396 1402
f 1404 1396 1403
f 1405 1396 1404
f 1406 1396 1405
f 1406 1405 1407
f 1406 1407 1408
f 1408 1407 1409
f 1408 1409 1410
f 1410 1409 1411
f 1410 1411 1412
f 1410 1412 1413
f 1413 1412 1414
f 1413 1414 1415
f 1415 1414 1416
f 1415 1416 1417
f 1417 1416 1418
f 1417 1418 1419
f 1419 1418 1420
f 1419 1420 1421
f 1421 1420 1422
f 1421 1422 1423
f 1421 1423 1424
f 1424 1423 1425
f 1424 1425 1426
f 1426 1425 1427
f 1426 1427 1428
f 1429 1428 1427
f 1429 1430 1428
f 1429 1431 1430
f 1432 1431 1429
f 1432 1433 1431
f 1432 1434 1433
f 1435 1434 1432
f 1435 1436 1434
f 1437 1436 1435
f 1437 1438 1436
f 1437 1439 1438
f 1440 1439 1437
f 1440 1441 1439
f 1442 1441 1440
f 1442 1443 1441
f 1442 1444 1443
f 1445 1444 1442
f 1445 1446 1444
f 1447 1446 1445
f 1447 1448 1446
f 1447 1449 1448
f 1450 1449 1447
f 1450 1451 1449
f 1452 1451 1450
f 1452 1453 1451
f 1452 1454 1453
f 1455 1454 1452
f 1455 1456 1454
f 1457 1456 1455
f 1457 1458 1456
f 1459 1458 1457
f 1459 1460 1458
f 1459 1461 1460
f 1462 1461 1459
f 1463 1461 1462
f 1463 1464 1461
f 1465 1464 1463
f 1466 1464 1465
f 1466 1467 1464
f 1468 1467 1466
f 1468 1469 1467
f 1470 1469 1468
f 1470 1471 1469
f 1472 1471 1470
f 1473 1471 1472
f 1473 1474 1471
f 1475 1474 1473
f 1475 1476 1474
f 1477 1476 1475
f 1477 1478 1476
f 1479 1478 1477
f 1480 1478 1479
f 1480 1481 1478
f 1482 1481 1480
f 1482 1483 1481
f 1484 1483 1482
f 1485 1483 1484
f 1485 1486 1483
f 1487 1486 1485
f 1488 1486 1487
f 1489 1486 1488
f 1489 1490 1486
f 1491 1490 1489
f 1492 1490 1491
f 1492 1493 1490
f 1494 1493 1492
f 1495 1493 1494
f 1496 1495 1494
f 1496 1497 1495
f 1496 1498 1497
f 1498 1499 1497
f 1500 1501 1502
f 1503 1501 1500
f 1500 1502 1504
f 1504 1502 1505
f 1504 1505 1506
f 1504 1506 1507
f 1507 1506 1508
f 1507 1508 1509
f 1509 1508 1510
f 1509 1510 1511
f 1511 1510 1512
f 1511 1512 1513
f 1513 1512 1514
f 1513 1514 1515
f 1515 1514 1516
f 1515 1516 1517
f 1515 1517 1518
f 1518 1517 1519
f 1518 1519 1520
f 1520 1519 1521
f 1520 1521 1522
f 1522 1521 1523
f 1522 1523 1524
f 1522 1524 1525
f 1522 1525 1526
f 1522 1526 1527
f 1522 1527 1528
f 1522 1528 1529
f 1522 1529 1530
f 1522 1530 1531
f 1522 1531 1532
f 1522 1532 1533
f 1534 1501 1503
f 1535 1501 1534
f 1535 1534 1536
f 1535 1536 1537
f 1535 1537 1538
f 1538 1537 1539
f 1538 1539 1540
f 1540 1539 1541
f 1540 1541 1542
f 1540 1542 1543
f 1543 1542 1544
f 1543 1544 1545
f 1545 1544 1546
f 1545 1546 1547
f 1545 1547 1548
f 1548 1547 1549
f 1548 1549 1550
f 1550 1549 1551
f 1550 1551 1552
f 1550 1552 1553
f 1553 1552 1554
f 1553 1554 1555
f 1555 1554 1556
f 1555 1556 1557
f 1555 1557 1558
f 1558 1557 1559
f 1558 1559 1560
f 1560 1559 1561
f 1560 1561 1562
f 1562 1561 1563
f 1562 1563 1564
f 1562 1564 1565
f 1565 1564 1566
f 1565 1566 1567
f 1567 1566 1568
f 1567 1568 1569
f 1569 1568 1570
f 1570 1568 1571
f 1570 1571 1572
f 1572 1571 1573
f 1573 1571 1574
f 1573 1574 1575
f 1575 1574 1576
f 1575 1576 1577
f 1577 1576 1578
f 1577 1578 1579
f 1579 1578 1580
f 1580 1578 1581
f 1580 1581 1582
f 1582 1581 1583
f 1582 1583 1584
f 1584 1583 1585
f 1584 1585 1586
f 1586 1585 1587
f 1587 1585 1588
f 1587 1588 1589
f 1589 1588 1590
f 1589 1590 1591
f 1591 1590 1592
f 1592 1590 1593
f 1592 1593 1594
f 1594 1593 1595
f 1595 1593 1596
f 1596 1593 1597
f 1596 1597 1598
f 1598 1597 1599
f 1600 1599 1597
f 1601 1599 1600
f 1601 1600 1602
f 1601 1602 1603
f 1603 1602 1604
