1642 1654 0
v -0.031506855 0.01763337 -0.0028125
v -0.031421595 0.022389525 -0.0028125
v -0.03140625 0.0225 -0.0028125
v -0.03145542 0.02229246 -0.0028125
v -0.031227285 0.02823756 -0.0028125
v -0.03092679 0.01818294 -0.0028125
v -0.031421595 0.022610475 -0.0028125
v -0.03145542 0.02270754 -0.0028125
v -0.03150792 0.02279133 -0.0028125
v -0.031583175 0.0228648 -0.0028125
v -0.031673655 0.022922475 -0.0028125
v -0.031769115 0.02295624 -0.0028125
v -0.031875 0.022967085 -0.0028125
v -0.03190533 0.02774772 -0.0028125
v -0.031980885 0.02295624 -0.0028125
v -0.032076345 0.022922475 -0.0028125
v -0.032166825 0.0228648 -0.0028125
v -0.03224208 0.02279133 -0.0028125
v -0.03229458 0.02270754 -0.0028125
v -0.032328405 0.022610475 -0.0028125
v -0.03234375 0.0225 -0.0028125
v -0.03258756 0.02724819 -0.0028125
v -0.032669625 0.01651101 -0.0028125
v -0.032328405 0.022389525 -0.0028125
v -0.03325233 0.01593822 -0.0028125
v -0.03327399 0.02673897 -0.0028125
v -0.033835935 0.01535769 -0.0028125
v -0.033964605 0.02622006 -0.0028125
v -0.034420425 0.01476942 -0.0028125
v -0.034659405 0.02569146 -0.0028125
v -0.035005785 0.01417341 -0.0028125
v -0.03535839 0.02515317 -0.0028125
v -0.035592045 0.01356966 -0.0028125
v -0.03554049 0.01920294 -0.0028125
v -0.035555835 0.019092465 -0.0028125
v -0.035555835 0.01931343 -0.0028125
v -0.03558966 0.019410495 -0.0028125
v -0.035642175 0.019494285 -0.0028125
v -0.03571743 0.019567755 -0.0028125
v -0.035807895 0.01962543 -0.0028125
v -0.035903355 0.01965918 -0.0028125
v -0.03600924 0.01967004 -0.0028125
v -0.036061575 0.02460519 -0.0028125
v -0.03611514 0.01965918 -0.0028125
v -0.0362106 0.01962543 -0.0028125
v -0.036301065 0.019567755 -0.0028125
v -0.03637632 0.019494285 -0.0028125
v -0.036428835 0.019410495 -0.0028125
v -0.036462645 0.01931343 -0.0028125
v -0.03647799 0.01920294 -0.0028125
v -0.036768945 0.024047505 -0.0028125
v -0.036682725 0.01255368 -0.0028125
v -0.03682278 0.012496005 -0.0028125
v -0.036549375 0.012629325 -0.0028125
v -0.036462645 0.019092465 -0.0028125
v -0.036428835 0.0189954 -0.0028125
v -0.036422085 0.01272273 -0.0028125
v -0.03637632 0.01891161 -0.0028125
v -0.036359805 0.012775425 -0.0028125
v -0.036301065 0.01883814 -0.0028125
v -0.036298545 0.01283223 -0.0028125
v -0.0362106 0.018780465 -0.0028125
v -0.036238335 0.012893145 -0.0028125
v -0.03617919 0.012958185 -0.0028125
v -0.03611514 0.018746715 -0.0028125
v -0.03600924 0.018735855 -0.0028125
v -0.035903355 0.018746715 -0.0028125
v -0.035807895 0.018780465 -0.0028125
v -0.03571743 0.01883814 -0.0028125
v -0.035642175 0.01891161 -0.0028125
v -0.03558966 0.0189954 -0.0028125
v -0.03697011 0.01245915 -0.0028125
v -0.03712446 0.012443295 -0.0028125
v -0.0372819 0.012448815 -0.0028125
v -0.03744096 0.012474015 -0.0028125
v -0.037480485 0.023480145 -0.0028125
v -0.037594965 0.01251291 -0.0028125
v -0.03774528 0.01256667 -0.0028125
v -0.03775125 0.017175 -0.0028125
v -0.03809028 0.01267056 -0.0028125
v -0.037766595 0.01728549 -0.0028125
v -0.03780042 0.01738254 -0.0028125
v -0.03785292 0.01746633 -0.0028125
v -0.037928175 0.0175398 -0.0028125
v -0.038018655 0.017597475 -0.0028125
v -0.038114115 0.01763124 -0.0028125
v -0.03819624 0.022903095 -0.0028125
v -0.03822 0.0176421 -0.0028125
v -0.038325885 0.01763124 -0.0028125
v -0.038421345 0.017597475 -0.0028125
v -0.038511825 0.0175398 -0.0028125
v -0.03858708 0.01746633 -0.0028125
v -0.03863958 0.01738254 -0.0028125
v -0.038673405 0.01728549 -0.0028125
v -0.03868875 0.017175 -0.0028125
v -0.038916165 0.02231634 -0.0028125
v -0.038828145 0.012819225 -0.0028125
v -0.03915804 0.012880815 -0.0028125
v -0.038673405 0.017064525 -0.0028125
v -0.03863958 0.01696746 -0.0028125
v -0.03858708 0.01688367 -0.0028125
v -0.038511825 0.0168102 -0.0028125
v -0.03845124 0.01275474 -0.0028125
v -0.038421345 0.016752525 -0.0028125
v -0.038325885 0.01671876 -0.0028125
v -0.03822 0.0167079 -0.0028125
v -0.038114115 0.01671876 -0.0028125
v -0.038018655 0.016752525 -0.0028125
v -0.037928175 0.0168102 -0.0028125
v -0.03785292 0.01688367 -0.0028125
v -0.03780042 0.01696746 -0.0028125
v -0.037766595 0.017064525 -0.0028125
v -0.039476145 0.012962955 -0.0028125
v -0.039640275 0.02171991 -0.0028125
v -0.039782505 0.013065645 -0.0028125
v -0.040077075 0.013188885 -0.0028125
v -0.040359885 0.013332675 -0.0028125
v -0.040368585 0.021113775 -0.0028125
v -0.0406329 0.013498725 -0.0028125
v -0.04089756 0.01368825 -0.0028125
v -0.04110108 0.02049795 -0.0028125
v -0.041150025 0.01389795 -0.0028125
v -0.04134429 0.020266725 -0.0028125
v -0.04138632 0.01412442 -0.0028125
v -0.04156644 0.020024655 -0.0028125
v -0.0416025 0.01436427 -0.0028125
v -0.04176753 0.01977177 -0.0028125
v -0.04179714 0.01461708 -0.0028125
v -0.04194756 0.01950804 -0.0028125
v -0.04197513 0.0148887 -0.0028125
v -0.042106545 0.01923348 -0.0028125
v -0.042134685 0.01517526 -0.0028125
v -0.04224519 0.018945585 -0.0028125
v -0.042273405 0.015472155 -0.0028125
v -0.04236405 0.018642525 -0.0028125
v -0.04238889 0.015774735 -0.0028125
v -0.042461685 0.018329205 -0.0028125
v -0.042479385 0.01608048 -0.0028125
v -0.04253664 0.01801059 -0.0028125
v -0.042547215 0.01639716 -0.0028125
v -0.042587445 0.01769172 -0.0028125
v -0.04259244 0.016721715 -0.0028125
v -0.042613095 0.017373705 -0.0028125
v -0.04261458 0.017048955 -0.0028125
v -0.03229458 0.02229246 -0.0028125
v -0.03224208 0.02220867 -0.0028125
v -0.032166825 0.0221352 -0.0028125
v -0.03208779 0.01707606 -0.0028125
v -0.032076345 0.022077525 -0.0028125
v -0.031980885 0.02204376 -0.0028125
v -0.031875 0.022032915 -0.0028125
v -0.031769115 0.02204376 -0.0028125
v -0.031673655 0.022077525 -0.0028125
v -0.031583175 0.0221352 -0.0028125
v -0.03150792 0.02220867 -0.0028125
v -0.030553425 0.02871771 -0.0028125
v -0.030347625 0.01872477 -0.0028125
v -0.02988375 0.02918817 -0.0028125
v -0.02976933 0.01925886 -0.0028125
v -0.02921826 0.029648925 -0.0028125
v -0.029191935 0.019785225 -0.0028125
v -0.02855679 0.030099675 -0.0028125
v -0.02861541 0.020303835 -0.0028125
v -0.02803962 0.02081445 -0.0028125
v -0.027898845 0.03053949 -0.0028125
v -0.027464475 0.02131692 -0.0028125
v -0.02724453 0.030968535 -0.0028125
v -0.026890035 0.021811335 -0.0028125
v -0.026593965 0.031387065 -0.0028125
v -0.026316375 0.022297845 -0.0028125
v -0.025947285 0.03179535 -0.0028125
v -0.02574357 0.022776585 -0.0028125
v -0.025304655 0.03219366 -0.0028125
v -0.02517171 0.02324766 -0.0028125
v -0.024666195 0.03258225 -0.0028125
v -0.024600855 0.023711205 -0.0028125
v -0.02403204 0.03296139 -0.0028125
v -0.02403108 0.024167355 -0.0028125
v -0.02340234 0.03333132 -0.0028125
v -0.02346249 0.02461623 -0.0028125
v -0.02289513 0.025057965 -0.0028125
v -0.022777215 0.033692325 -0.0028125
v -0.02232909 0.02549268 -0.0028125
v -0.02215683 0.034044645 -0.0028125
v -0.021764445 0.02592051 -0.0028125
v -0.021541305 0.034388565 -0.0028125
v -0.021201255 0.02634156 -0.0028125
v -0.02093079 0.03472434 -0.0028125
v -0.02063934 0.02675565 -0.0028125
v -0.020325405 0.03505221 -0.0028125
v -0.020078475 0.027162465 -0.0028125
v -0.019725315 0.035372475 -0.0028125
v -0.019518705 0.02756205 -0.0028125
v -0.019130625 0.03568536 -0.0028125
v -0.01896009 0.02795442 -0.0028125
v -0.018541515 0.03599115 -0.0028125
v -0.01840266 0.028339605 -0.0028125
v -0.01795803 0.036290025 -0.0028125
v -0.01784649 0.028717605 -0.0028125
v -0.01737972 0.036581025 -0.0028125
v -0.01729161 0.02908845 -0.0028125
v -0.01680639 0.036863865 -0.0028125
v -0.01673808 0.02945217 -0.0028125
v -0.016238055 0.037138515 -0.0028125
v -0.01618596 0.02980878 -0.0028125
v -0.0156747 0.03740499 -0.0028125
v -0.015635295 0.030158295 -0.0028125
v -0.01511634 0.03766329 -0.0028125
v -0.015086115 0.03050076 -0.0028125
v -0.01456296 0.037913415 -0.0028125
v -0.01453851 0.030836175 -0.0028125
v -0.01401456 0.038155365 -0.0028125
v -0.013992495 0.031164555 -0.0028125
v -0.01347117 0.038389125 -0.0028125
v -0.01344801 0.0314859 -0.0028125
v -0.012932745 0.03861471 -0.0028125
v -0.01290498 0.03180015 -0.0028125
v -0.01239933 0.03883212 -0.0028125
v -0.01236336 0.032107305 -0.0028125
v -0.011870895 0.039041355 -0.0028125
v -0.011823195 0.032407365 -0.0028125
v -0.01134744 0.0392424 -0.0028125
v -0.011284455 0.03270033 -0.0028125
v -0.01082898 0.039435285 -0.0028125
v -0.010747155 0.0329862 -0.0028125
v -0.0103155 0.03961998 -0.0028125
v -0.010211295 0.033264975 -0.0028125
v -0.009807015 0.0397965 -0.0028125
v -0.00967686 0.033536655 -0.0028125
v -0.00930351 0.03996483 -0.0028125
v -0.009143865 0.03380124 -0.0028125
v -0.008805 0.040125 -0.0028125
v -0.008612295 0.03405873 -0.0028125
v -0.008590995 0.04018941 -0.0028125
v -0.00838149 0.04025052 -0.0028125
v -0.008203125 0.0375 -0.0028125
v -0.008176515 0.04030833 -0.0028125
v -0.008197005 0.03742932 -0.0028125
v -0.00818619 0.03736206 -0.0028125
v -0.008170665 0.037298205 -0.0028125
v -0.008150445 0.03723777 -0.0028125
v -0.00812553 0.037180755 -0.0028125
v -0.00809592 0.037127145 -0.0028125
v -0.008082165 0.03430914 -0.0028125
v -0.00806154 0.03707691 -0.0028125
v -0.00802086 0.037028925 -0.0028125
v -0.00797412 0.03698334 -0.0028125
v -0.007922595 0.03694113 -0.0028125
v -0.00786756 0.036903195 -0.0028125
v -0.007810305 0.03687048 -0.0028125
v -0.007752105 0.0368439 -0.0028125
v -0.00769374 0.03682422 -0.0028125
v -0.007631805 0.036810405 -0.0028125
v -0.00756669 0.036802125 -0.0028125
v -0.007553475 0.03455244 -0.0028125
v -0.0075 0.036799365 -0.0028125
v -0.00743331 0.036802125 -0.0028125
v -0.007368195 0.036810405 -0.0028125
v -0.00730626 0.03682422 -0.0028125
v -0.00724788 0.0368439 -0.0028125
v -0.007189695 0.03687048 -0.0028125
v -0.00713244 0.036903195 -0.0028125
v -0.007077405 0.03694113 -0.0028125
v -0.007026225 0.03478866 -0.0028125
v -0.00702588 0.03698334 -0.0028125
v -0.00697914 0.037028925 -0.0028125
v -0.00693846 0.03707691 -0.0028125
v -0.00690408 0.037127145 -0.0028125
v -0.00687447 0.037180755 -0.0028125
v -0.006849555 0.03723777 -0.0028125
v -0.006829335 0.037298205 -0.0028125
v -0.00681657 0.034888605 -0.0028125
v -0.00681381 0.03736206 -0.0028125
v -0.006802995 0.03742932 -0.0028125
v -0.006796875 0.0375 -0.0028125
v -0.00669897 0.0406524 -0.0028125
v -0.00661266 0.034987995 -0.0028125
v -0.006802995 0.03757068 -0.0028125
v -0.00681381 0.03763794 -0.0028125
v -0.006829335 0.037701795 -0.0028125
v -0.006849555 0.03776223 -0.0028125
v -0.006867885 0.040620915 -0.0028125
v -0.00687447 0.037819245 -0.0028125
v -0.00690408 0.037872855 -0.0028125
v -0.00693846 0.03792309 -0.0028125
v -0.00697914 0.037971075 -0.0028125
v -0.00702588 0.03801666 -0.0028125
v -0.0070413 0.04058613 -0.0028125
v -0.007077405 0.03805887 -0.0028125
v -0.00713244 0.038096805 -0.0028125
v -0.007189695 0.03812952 -0.0028125
v -0.007219215 0.04054806 -0.0028125
v -0.00724788 0.0381561 -0.0028125
v -0.00730626 0.03817578 -0.0028125
v -0.007368195 0.038189595 -0.0028125
v -0.00740166 0.040506705 -0.0028125
v -0.00743331 0.038197875 -0.0028125
v -0.0075 0.038200635 -0.0028125
v -0.00756669 0.038197875 -0.0028125
v -0.007588605 0.04046205 -0.0028125
v -0.007631805 0.038189595 -0.0028125
v -0.00769374 0.03817578 -0.0028125
v -0.007752105 0.0381561 -0.0028125
v -0.007780065 0.04041411 -0.0028125
v -0.007810305 0.03812952 -0.0028125
v -0.00786756 0.038096805 -0.0028125
v -0.007922595 0.03805887 -0.0028125
v -0.00797412 0.03801666 -0.0028125
v -0.007976025 0.04036287 -0.0028125
v -0.00802086 0.037971075 -0.0028125
v -0.00806154 0.03792309 -0.0028125
v -0.00809592 0.037872855 -0.0028125
v -0.00812553 0.037819245 -0.0028125
v -0.008150445 0.03776223 -0.0028125
v -0.008170665 0.037701795 -0.0028125
v -0.00818619 0.03763794 -0.0028125
v -0.008197005 0.03757068 -0.0028125
v -0.00653457 0.0406806 -0.0028125
v -0.006414465 0.035086815 -0.0028125
v -0.00637476 0.040705395 -0.0028125
v -0.006222 0.035185065 -0.0028125
v -0.006220155 0.04072593 -0.0028125
v -0.00607071 0.04074228 -0.0028125
v -0.00603528 0.03528276 -0.0028125
v -0.0059262 0.04075476 -0.0028125
v -0.00585426 0.0353799 -0.0028125
v -0.00578637 0.040763685 -0.0028125
v -0.005678985 0.035476455 -0.0028125
v -0.00565101 0.04076937 -0.0028125
v -0.00551988 0.040772175 -0.0028125
v -0.00550944 0.03557247 -0.0028125
v -0.005392755 0.040772385 -0.0028125
v -0.00534561 0.0356679 -0.0028125
v -0.005269395 0.04077033 -0.0028125
v -0.005187525 0.035762775 -0.0028125
v -0.005149575 0.04076634 -0.0028125
v -0.005035155 0.035857095 -0.0028125
v -0.005033055 0.040760715 -0.0028125
v -0.00491961 0.040753815 -0.0028125
v -0.004888515 0.035950845 -0.0028125
v -0.004809015 0.040745925 -0.0028125
v -0.004747725 0.036044055 -0.0028125
v -0.004701615 0.04073667 -0.0028125
v -0.004613865 0.036136995 -0.0028125
v -0.00459837 0.04072479 -0.0028125
v -0.004499145 0.040710465 -0.0028125
v -0.004486845 0.03622965 -0.0028125
v -0.004403745 0.04069389 -0.0028125
v -0.004366245 0.036321915 -0.0028125
v -0.00431196 0.040675305 -0.0028125
v -0.004251705 0.0364137 -0.0028125
v -0.00422358 0.040654905 -0.0028125
v -0.00414282 0.036504885 -0.0028125
v -0.004138425 0.0406329 -0.0028125
v -0.0040563 0.0406095 -0.0028125
v -0.00403917 0.03659541 -0.0028125
v -0.00393834 0.04057227 -0.0028125
v -0.003940395 0.03668514 -0.0028125
v -0.00384606 0.036774 -0.0028125
v -0.00382608 0.040533105 -0.0028125
v -0.003755805 0.0368619 -0.0028125
v -0.003718815 0.040492725 -0.0028125
v -0.00366921 0.03694872 -0.0028125
v -0.003617055 0.04045086 -0.0028125
v -0.003585885 0.03703437 -0.0028125
v -0.003522465 0.040405965 -0.0028125
v -0.00350544 0.037118775 -0.0028125
v -0.00343455 0.04035837 -0.0028125
v -0.003428415 0.037201995 -0.0028125
v -0.003352725 0.040308405 -0.0028125
v -0.003356385 0.03728436 -0.0028125
v -0.00328911 0.037365855 -0.0028125
v -0.003276405 0.04025643 -0.0028125
v -0.003226305 0.037446435 -0.0028125
v -0.003205005 0.040202805 -0.0028125
v -0.003167685 0.037526055 -0.0028125
v -0.00313794 0.04014789 -0.0028125
v -0.003112965 0.037604685 -0.0028125
v -0.00307464 0.04009203 -0.0028125
v -0.00306183 0.03768228 -0.0028125
v -0.003014715 0.04003551 -0.0028125
v -0.003013995 0.037758795 -0.0028125
v -0.00295953 0.039977895 -0.0028125
v -0.00296919 0.0378342 -0.0028125
v -0.0029271 0.03790845 -0.0028125
v -0.002909205 0.039919005 -0.0028125
v -0.00288744 0.037981515 -0.0028125
v -0.00286347 0.039858765 -0.0028125
v -0.002831865 0.03808878 -0.0028125
v -0.00282201 0.039797115 -0.0028125
v -0.002784525 0.03973401 -0.0028125
v -0.002781675 0.03819318 -0.0028125
v -0.00275073 0.03966936 -0.0028125
v -0.002739225 0.038294835 -0.0028125
v -0.002720325 0.039603135 -0.0028125
v -0.0027039 0.03839385 -0.0028125
v -0.002692995 0.03953526 -0.0028125
v -0.00267495 0.038490285 -0.0028125
v -0.00266862 0.039466095 -0.0028125
v -0.002651655 0.03858426 -0.0028125
v -0.00264738 0.03939588 -0.0028125
v -0.00263331 0.038675865 -0.0028125
v -0.00262956 0.03932433 -0.0028125
v -0.002619165 0.03876519 -0.0028125
v -0.002615415 0.039251205 -0.0028125
v -0.002608515 0.03885234 -0.0028125
v -0.002605215 0.039176205 -0.0028125
v -0.002600835 0.038937315 -0.0028125
v -0.002599215 0.03909906 -0.0028125
v -0.00259767 0.03901953 -0.0028125
v -0.03140625 0.0225 0.0028125
v -0.03140625 0.0225 -0.0028125
v -0.031421595 0.022389525 -0.0028125
v -0.031421595 0.022610475 0.0028125
v -0.031421595 0.022389525 0.0028125
v -0.03145542 0.02229246 -0.0028125
v -0.03145542 0.02229246 0.0028125
v -0.03150792 0.02220867 -0.0028125
v -0.03150792 0.02220867 0.0028125
v -0.031583175 0.0221352 -0.0028125
v -0.031583175 0.0221352 0.0028125
v -0.031673655 0.022077525 -0.0028125
v -0.031673655 0.022077525 0.0028125
v -0.031769115 0.02204376 -0.0028125
v -0.031769115 0.02204376 0.0028125
v -0.031875 0.022032915 -0.0028125
v -0.031875 0.022032915 0.0028125
v -0.031980885 0.02204376 -0.0028125
v -0.031980885 0.02204376 0.0028125
v -0.032076345 0.022077525 -0.0028125
v -0.032076345 0.022077525 0.0028125
v -0.032166825 0.0221352 -0.0028125
v -0.032166825 0.0221352 0.0028125
v -0.03224208 0.02220867 -0.0028125
v -0.03224208 0.02220867 0.0028125
v -0.03229458 0.02229246 -0.0028125
v -0.03229458 0.02229246 0.0028125
v -0.032328405 0.022389525 -0.0028125
v -0.032328405 0.022389525 0.0028125
v -0.03234375 0.0225 -0.0028125
v -0.03234375 0.0225 0.0028125
v -0.032328405 0.022610475 -0.0028125
v -0.032328405 0.022610475 0.0028125
v -0.03229458 0.02270754 -0.0028125
v -0.03229458 0.02270754 0.0028125
v -0.03224208 0.02279133 -0.0028125
v -0.03224208 0.02279133 0.0028125
v -0.032166825 0.0228648 -0.0028125
v -0.032166825 0.0228648 0.0028125
v -0.032076345 0.022922475 -0.0028125
v -0.032076345 0.022922475 0.0028125
v -0.031980885 0.02295624 -0.0028125
v -0.031980885 0.02295624 0.0028125
v -0.031875 0.022967085 -0.0028125
v -0.031875 0.022967085 0.0028125
v -0.031769115 0.02295624 -0.0028125
v -0.031769115 0.02295624 0.0028125
v -0.031673655 0.022922475 -0.0028125
v -0.031673655 0.022922475 0.0028125
v -0.031583175 0.0228648 -0.0028125
v -0.031583175 0.0228648 0.0028125
v -0.03150792 0.02279133 -0.0028125
v -0.03150792 0.02279133 0.0028125
v -0.03145542 0.02270754 -0.0028125
v -0.03145542 0.02270754 0.0028125
v -0.031421595 0.022610475 -0.0028125
v -0.03775125 0.017175 0.0028125
v -0.03775125 0.017175 -0.0028125
v -0.037766595 0.017064525 -0.0028125
v -0.037766595 0.01728549 0.0028125
v -0.037766595 0.017064525 0.0028125
v -0.03780042 0.01696746 -0.0028125
v -0.03780042 0.01696746 0.0028125
v -0.03785292 0.01688367 -0.0028125
v -0.03785292 0.01688367 0.0028125
v -0.037928175 0.0168102 -0.0028125
v -0.037928175 0.0168102 0.0028125
v -0.038018655 0.016752525 -0.0028125
v -0.038018655 0.016752525 0.0028125
v -0.038114115 0.01671876 -0.0028125
v -0.038114115 0.01671876 0.0028125
v -0.03822 0.0167079 -0.0028125
v -0.03822 0.0167079 0.0028125
v -0.038325885 0.01671876 -0.0028125
v -0.038325885 0.01671876 0.0028125
v -0.038421345 0.016752525 -0.0028125
v -0.038421345 0.016752525 0.0028125
v -0.038511825 0.0168102 -0.0028125
v -0.038511825 0.0168102 0.0028125
v -0.03858708 0.01688367 -0.0028125
v -0.03858708 0.01688367 0.0028125
v -0.03863958 0.01696746 -0.0028125
v -0.03863958 0.01696746 0.0028125
v -0.038673405 0.017064525 -0.0028125
v -0.038673405 0.017064525 0.0028125
v -0.03868875 0.017175 -0.0028125
v -0.03868875 0.017175 0.0028125
v -0.038673405 0.01728549 -0.0028125
v -0.038673405 0.01728549 0.0028125
v -0.03863958 0.01738254 -0.0028125
v -0.03863958 0.01738254 0.0028125
v -0.03858708 0.01746633 -0.0028125
v -0.03858708 0.01746633 0.0028125
v -0.038511825 0.0175398 -0.0028125
v -0.038511825 0.0175398 0.0028125
v -0.038421345 0.017597475 -0.0028125
v -0.038421345 0.017597475 0.0028125
v -0.038325885 0.01763124 -0.0028125
v -0.038325885 0.01763124 0.0028125
v -0.03822 0.0176421 -0.0028125
v -0.03822 0.0176421 0.0028125
v -0.038114115 0.01763124 -0.0028125
v -0.038114115 0.01763124 0.0028125
v -0.038018655 0.017597475 -0.0028125
v -0.038018655 0.017597475 0.0028125
v -0.037928175 0.0175398 -0.0028125
v -0.037928175 0.0175398 0.0028125
v -0.03785292 0.01746633 -0.0028125
v -0.03785292 0.01746633 0.0028125
v -0.03780042 0.01738254 -0.0028125
v -0.03780042 0.01738254 0.0028125
v -0.037766595 0.01728549 -0.0028125
v -0.006796875 0.0375 0.0028125
v -0.006796875 0.0375 -0.0028125
v -0.006802995 0.03742932 -0.0028125
v -0.006802995 0.03757068 0.0028125
v -0.006802995 0.03742932 0.0028125
v -0.00681381 0.03736206 -0.0028125
v -0.00681381 0.03736206 0.0028125
v -0.006829335 0.037298205 -0.0028125
v -0.006829335 0.037298205 0.0028125
v -0.006849555 0.03723777 -0.0028125
v -0.006849555 0.03723777 0.0028125
v -0.00687447 0.037180755 -0.0028125
v -0.00687447 0.037180755 0.0028125
v -0.00690408 0.037127145 -0.0028125
v -0.00690408 0.037127145 0.0028125
v -0.00693846 0.03707691 -0.0028125
v -0.00693846 0.03707691 0.0028125
v -0.00697914 0.037028925 -0.0028125
v -0.00697914 0.037028925 0.0028125
v -0.00702588 0.03698334 -0.0028125
v -0.00702588 0.03698334 0.0028125
v -0.007077405 0.03694113 -0.0028125
v -0.007077405 0.03694113 0.0028125
v -0.00713244 0.036903195 -0.0028125
v -0.00713244 0.036903195 0.0028125
v -0.007189695 0.03687048 -0.0028125
v -0.007189695 0.03687048 0.0028125
v -0.00724788 0.0368439 -0.0028125
v -0.00724788 0.0368439 0.0028125
v -0.00730626 0.03682422 -0.0028125
v -0.00730626 0.03682422 0.0028125
v -0.007368195 0.036810405 -0.0028125
v -0.007368195 0.036810405 0.0028125
v -0.00743331 0.036802125 -0.0028125
v -0.00743331 0.036802125 0.0028125
v -0.0075 0.036799365 -0.0028125
v -0.0075 0.036799365 0.0028125
v -0.00756669 0.036802125 -0.0028125
v -0.00756669 0.036802125 0.0028125
v -0.007631805 0.036810405 -0.0028125
v -0.007631805 0.036810405 0.0028125
v -0.00769374 0.03682422 -0.0028125
v -0.00769374 0.03682422 0.0028125
v -0.007752105 0.0368439 -0.0028125
v -0.007752105 0.0368439 0.0028125
v -0.007810305 0.03687048 -0.0028125
v -0.007810305 0.03687048 0.0028125
v -0.00786756 0.036903195 -0.0028125
v -0.00786756 0.036903195 0.0028125
v -0.007922595 0.03694113 -0.0028125
v -0.007922595 0.03694113 0.0028125
v -0.00797412 0.03698334 -0.0028125
v -0.00797412 0.03698334 0.0028125
v -0.00802086 0.037028925 -0.0028125
v -0.00802086 0.037028925 0.0028125
v -0.00806154 0.03707691 -0.0028125
v -0.00806154 0.03707691 0.0028125
v -0.00809592 0.037127145 -0.0028125
v -0.00809592 0.037127145 0.0028125
v -0.00812553 0.037180755 -0.0028125
v -0.00812553 0.037180755 0.0028125
v -0.008150445 0.03723777 -0.0028125
v -0.008150445 0.03723777 0.0028125
v -0.008170665 0.037298205 -0.0028125
v -0.008170665 0.037298205 0.0028125
v -0.00818619 0.03736206 -0.0028125
v -0.00818619 0.03736206 0.0028125
v -0.008197005 0.03742932 -0.0028125
v -0.008197005 0.03742932 0.0028125
v -0.008203125 0.0375 -0.0028125
v -0.008203125 0.0375 0.0028125
v -0.008197005 0.03757068 -0.0028125
v -0.008197005 0.03757068 0.0028125
v -0.00818619 0.03763794 -0.0028125
v -0.00818619 0.03763794 0.0028125
v -0.008170665 0.037701795 -0.0028125
v -0.008170665 0.037701795 0.0028125
v -0.008150445 0.03776223 -0.0028125
v -0.008150445 0.03776223 0.0028125
v -0.00812553 0.037819245 -0.0028125
v -0.00812553 0.037819245 0.0028125
v -0.00809592 0.037872855 -0.0028125
v -0.00809592 0.037872855 0.0028125
v -0.00806154 0.03792309 -0.0028125
v -0.00806154 0.03792309 0.0028125
v -0.00802086 0.037971075 -0.0028125
v -0.00802086 0.037971075 0.0028125
v -0.00797412 0.03801666 -0.0028125
v -0.00797412 0.03801666 0.0028125
v -0.007922595 0.03805887 -0.0028125
v -0.007922595 0.03805887 0.0028125
v -0.00786756 0.038096805 -0.0028125
v -0.00786756 0.038096805 0.0028125
v -0.007810305 0.03812952 -0.0028125
v -0.007810305 0.03812952 0.0028125
v -0.007752105 0.0381561 -0.0028125
v -0.007752105 0.0381561 0.0028125
v -0.00769374 0.03817578 -0.0028125
v -0.00769374 0.03817578 0.0028125
v -0.007631805 0.038189595 -0.0028125
v -0.007631805 0.038189595 0.0028125
v -0.00756669 0.038197875 -0.0028125
v -0.00756669 0.038197875 0.0028125
v -0.0075 0.038200635 -0.0028125
v -0.0075 0.038200635 0.0028125
v -0.00743331 0.038197875 -0.0028125
v -0.00743331 0.038197875 0.0028125
v -0.007368195 0.038189595 -0.0028125
v -0.007368195 0.038189595 0.0028125
v -0.00730626 0.03817578 -0.0028125
v -0.00730626 0.03817578 0.0028125
v -0.00724788 0.0381561 -0.0028125
v -0.00724788 0.0381561 0.0028125
v -0.007189695 0.03812952 -0.0028125
v -0.007189695 0.03812952 0.0028125
v -0.00713244 0.038096805 -0.0028125
v -0.00713244 0.038096805 0.0028125
v -0.007077405 0.03805887 -0.0028125
v -0.007077405 0.03805887 0.0028125
v -0.00702588 0.03801666 -0.0028125
v -0.00702588 0.03801666 0.0028125
v -0.00697914 0.037971075 -0.0028125
v -0.00697914 0.037971075 0.0028125
v -0.00693846 0.03792309 -0.0028125
v -0.00693846 0.03792309 0.0028125
v -0.00690408 0.037872855 -0.0028125
v -0.00690408 0.037872855 0.0028125
v -0.00687447 0.037819245 -0.0028125
v -0.00687447 0.037819245 0.0028125
v -0.006849555 0.03776223 -0.0028125
v -0.006849555 0.03776223 0.0028125
v -0.006829335 0.037701795 -0.0028125
v -0.006829335 0.037701795 0.0028125
v -0.00681381 0.03763794 -0.0028125
v -0.00681381 0.03763794 0.0028125
v -0.006802995 0.03757068 -0.0028125
v -0.03554049 0.01920294 0.0028125
v -0.03554049 0.01920294 -0.0028125
v -0.035555835 0.019092465 -0.0028125
v -0.035555835 0.01931343 0.0028125
v -0.035555835 0.019092465 0.0028125
v -0.03558966 0.0189954 -0.0028125
v -0.03558966 0.0189954 0.0028125
v -0.035642175 0.01891161 -0.0028125
v -0.035642175 0.01891161 0.0028125
v -0.03571743 0.01883814 -0.0028125
v -0.03571743 0.01883814 0.0028125
v -0.035807895 0.018780465 -0.0028125
v -0.035807895 0.018780465 0.0028125
v -0.035903355 0.018746715 -0.0028125
v -0.035903355 0.018746715 0.0028125
v -0.03600924 0.018735855 -0.0028125
v -0.03600924 0.018735855 0.0028125
v -0.03611514 0.018746715 -0.0028125
v -0.03611514 0.018746715 0.0028125
v -0.0362106 0.018780465 -0.0028125
v -0.0362106 0.018780465 0.0028125
v -0.036301065 0.01883814 -0.0028125
v -0.036301065 0.01883814 0.0028125
v -0.03637632 0.01891161 -0.0028125
v -0.03637632 0.01891161 0.0028125
v -0.036428835 0.0189954 -0.0028125
v -0.036428835 0.0189954 0.0028125
v -0.036462645 0.019092465 -0.0028125
v -0.036462645 0.019092465 0.0028125
v -0.03647799 0.01920294 -0.0028125
v -0.03647799 0.01920294 0.0028125
v -0.036462645 0.01931343 -0.0028125
v -0.036462645 0.01931343 0.0028125
v -0.036428835 0.019410495 -0.0028125
v -0.036428835 0.019410495 0.0028125
v -0.03637632 0.019494285 -0.0028125
v -0.03637632 0.019494285 0.0028125
v -0.036301065 0.019567755 -0.0028125
v -0.036301065 0.019567755 0.0028125
v -0.0362106 0.01962543 -0.0028125
v -0.0362106 0.01962543 0.0028125
v -0.03611514 0.01965918 -0.0028125
v -0.03611514 0.01965918 0.0028125
v -0.03600924 0.01967004 -0.0028125
v -0.03600924 0.01967004 0.0028125
v -0.035903355 0.01965918 -0.0028125
v -0.035903355 0.01965918 0.0028125
v -0.035807895 0.01962543 -0.0028125
v -0.035807895 0.01962543 0.0028125
v -0.03571743 0.019567755 -0.0028125
v -0.03571743 0.019567755 0.0028125
v -0.035642175 0.019494285 -0.0028125
v -0.035642175 0.019494285 0.0028125
v -0.03558966 0.019410495 -0.0028125
v -0.03558966 0.019410495 0.0028125
v -0.035555835 0.01931343 -0.0028125
v -0.03617919 0.012958185 0.0028125
v -0.03617919 0.012958185 -0.0028125
v -0.035592045 0.01356966 -0.0028125
v -0.0362763 0.01284807 0.0028125
v -0.035592045 0.01356966 0.0028125
v -0.035005785 0.01417341 -0.0028125
v -0.035005785 0.01417341 0.0028125
v -0.034420425 0.01476942 -0.0028125
v -0.034420425 0.01476942 0.0028125
v -0.033835935 0.01535769 -0.0028125
v -0.033835935 0.01535769 0.0028125
v -0.03325233 0.01593822 -0.0028125
v -0.03325233 0.01593822 0.0028125
v -0.032669625 0.01651101 -0.0028125
v -0.032669625 0.01651101 0.0028125
v -0.03208779 0.01707606 -0.0028125
v -0.03208779 0.01707606 0.0028125
v -0.031506855 0.01763337 -0.0028125
v -0.031506855 0.01763337 0.0028125
v -0.03092679 0.01818294 -0.0028125
v -0.03092679 0.01818294 0.0028125
v -0.030347625 0.01872477 -0.0028125
v -0.030347625 0.01872477 0.0028125
v -0.02976933 0.01925886 -0.0028125
v -0.02976933 0.01925886 0.0028125
v -0.029191935 0.019785225 -0.0028125
v -0.029191935 0.019785225 0.0028125
v -0.02861541 0.020303835 -0.0028125
v -0.02861541 0.020303835 0.0028125
v -0.02803962 0.02081445 -0.0028125
v -0.02803962 0.02081445 0.0028125
v -0.027464475 0.02131692 -0.0028125
v -0.027464475 0.02131692 0.0028125
v -0.026890035 0.021811335 -0.0028125
v -0.026890035 0.021811335 0.0028125
v -0.026316375 0.022297845 -0.0028125
v -0.026316375 0.022297845 0.0028125
v -0.02574357 0.022776585 -0.0028125
v -0.02574357 0.022776585 0.0028125
v -0.02517171 0.02324766 -0.0028125
v -0.02517171 0.02324766 0.0028125
v -0.024600855 0.023711205 -0.0028125
v -0.024600855 0.023711205 0.0028125
v -0.02403108 0.024167355 -0.0028125
v -0.02403108 0.024167355 0.0028125
v -0.02346249 0.02461623 -0.0028125
v -0.02346249 0.02461623 0.0028125
v -0.02289513 0.025057965 -0.0028125
v -0.02289513 0.025057965 0.0028125
v -0.02232909 0.02549268 -0.0028125
v -0.02232909 0.02549268 0.0028125
v -0.021764445 0.02592051 -0.0028125
v -0.021764445 0.02592051 0.0028125
v -0.021201255 0.02634156 -0.0028125
v -0.021201255 0.02634156 0.0028125
v -0.02063934 0.02675565 -0.0028125
v -0.02063934 0.02675565 0.0028125
v -0.020078475 0.027162465 -0.0028125
v -0.020078475 0.027162465 0.0028125
v -0.019518705 0.02756205 -0.0028125
v -0.019518705 0.02756205 0.0028125
v -0.01896009 0.02795442 -0.0028125
v -0.01896009 0.02795442 0.0028125
v -0.01840266 0.028339605 -0.0028125
v -0.01840266 0.028339605 0.0028125
v -0.01784649 0.028717605 -0.0028125
v -0.01784649 0.028717605 0.0028125
v -0.01729161 0.02908845 -0.0028125
v -0.01729161 0.02908845 0.0028125
v -0.01673808 0.02945217 -0.0028125
v -0.01673808 0.02945217 0.0028125
v -0.01618596 0.02980878 -0.0028125
v -0.01618596 0.02980878 0.0028125
v -0.015635295 0.030158295 -0.0028125
v -0.015635295 0.030158295 0.0028125
v -0.015086115 0.03050076 -0.0028125
v -0.015086115 0.03050076 0.0028125
v -0.01453851 0.030836175 -0.0028125
v -0.01453851 0.030836175 0.0028125
v -0.013992495 0.031164555 -0.0028125
v -0.013992495 0.031164555 0.0028125
v -0.01344801 0.0314859 -0.0028125
v -0.01344801 0.0314859 0.0028125
v -0.01290498 0.03180015 -0.0028125
v -0.01290498 0.03180015 0.0028125
v -0.01236336 0.032107305 -0.0028125
v -0.01236336 0.032107305 0.0028125
v -0.011823195 0.032407365 -0.0028125
v -0.011823195 0.032407365 0.0028125
v -0.011284455 0.03270033 -0.0028125
v -0.011284455 0.03270033 0.0028125
v -0.010747155 0.0329862 -0.0028125
v -0.010747155 0.0329862 0.0028125
v -0.010211295 0.033264975 -0.0028125
v -0.010211295 0.033264975 0.0028125
v -0.00967686 0.033536655 -0.0028125
v -0.00967686 0.033536655 0.0028125
v -0.009143865 0.03380124 -0.0028125
v -0.009143865 0.03380124 0.0028125
v -0.008612295 0.03405873 -0.0028125
v -0.008612295 0.03405873 0.0028125
v -0.008082165 0.03430914 -0.0028125
v -0.008082165 0.03430914 0.0028125
v -0.007553475 0.03455244 -0.0028125
v -0.007553475 0.03455244 0.0028125
v -0.007026225 0.03478866 -0.0028125
v -0.007026225 0.03478866 0.0028125
v -0.00681657 0.034888605 -0.0028125
v -0.00681657 0.034888605 0.0028125
v -0.00661266 0.034987995 -0.0028125
v -0.00661266 0.034987995 0.0028125
v -0.006414465 0.035086815 -0.0028125
v -0.006414465 0.035086815 0.0028125
v -0.006222 0.035185065 -0.0028125
v -0.006222 0.035185065 0.0028125
v -0.00603528 0.03528276 -0.0028125
v -0.00603528 0.03528276 0.0028125
v -0.00585426 0.0353799 -0.0028125
v -0.00585426 0.0353799 0.0028125
v -0.005678985 0.035476455 -0.0028125
v -0.005678985 0.035476455 0.0028125
v -0.00550944 0.03557247 -0.0028125
v -0.00550944 0.03557247 0.0028125
v -0.00534561 0.0356679 -0.0028125
v -0.00534561 0.0356679 0.0028125
v -0.005187525 0.035762775 -0.0028125
v -0.005187525 0.035762775 0.0028125
v -0.005035155 0.035857095 -0.0028125
v -0.005035155 0.035857095 0.0028125
v -0.004888515 0.035950845 -0.0028125
v -0.004888515 0.035950845 0.0028125
v -0.004747725 0.036044055 -0.0028125
v -0.004747725 0.036044055 0.0028125
v -0.004613865 0.036136995 -0.0028125
v -0.004613865 0.036136995 0.0028125
v -0.004486845 0.03622965 -0.0028125
v -0.004486845 0.03622965 0.0028125
v -0.004366245 0.036321915 -0.0028125
v -0.004366245 0.036321915 0.0028125
v -0.004251705 0.0364137 -0.0028125
v -0.004251705 0.0364137 0.0028125
v -0.00414282 0.036504885 -0.0028125
v -0.00414282 0.036504885 0.0028125
v -0.00403917 0.03659541 -0.0028125
v -0.00403917 0.03659541 0.0028125
v -0.003940395 0.03668514 -0.0028125
v -0.003940395 0.03668514 0.0028125
v -0.00384606 0.036774 -0.0028125
v -0.00384606 0.036774 0.0028125
v -0.003755805 0.0368619 -0.0028125
v -0.003755805 0.0368619 0.0028125
v -0.00366921 0.03694872 -0.0028125
v -0.00366921 0.03694872 0.0028125
v -0.003585885 0.03703437 -0.0028125
v -0.003585885 0.03703437 0.0028125
v -0.00350544 0.037118775 -0.0028125
v -0.00350544 0.037118775 0.0028125
v -0.003428415 0.037201995 -0.0028125
v -0.003428415 0.037201995 0.0028125
v -0.003356385 0.03728436 -0.0028125
v -0.003356385 0.03728436 0.0028125
v -0.00328911 0.037365855 -0.0028125
v -0.00328911 0.037365855 0.0028125
v -0.003226305 0.037446435 -0.0028125
v -0.003226305 0.037446435 0.0028125
v -0.003167685 0.037526055 -0.0028125
v -0.003167685 0.037526055 0.0028125
v -0.003112965 0.037604685 -0.0028125
v -0.003112965 0.037604685 0.0028125
v -0.00306183 0.03768228 -0.0028125
v -0.00306183 0.03768228 0.0028125
v -0.003013995 0.037758795 -0.0028125
v -0.003013995 0.037758795 0.0028125
v -0.00296919 0.0378342 -0.0028125
v -0.00296919 0.0378342 0.0028125
v -0.0029271 0.03790845 -0.0028125
v -0.0029271 0.03790845 0.0028125
v -0.00288744 0.037981515 -0.0028125
v -0.00288744 0.037981515 0.0028125
v -0.002831865 0.03808878 -0.0028125
v -0.002831865 0.03808878 0.0028125
v -0.002781675 0.03819318 -0.0028125
v -0.002781675 0.03819318 0.0028125
v -0.002739225 0.038294835 -0.0028125
v -0.002739225 0.038294835 0.0028125
v -0.0027039 0.03839385 -0.0028125
v -0.0027039 0.03839385 0.0028125
v -0.00267495 0.038490285 -0.0028125
v -0.00267495 0.038490285 0.0028125
v -0.002651655 0.03858426 -0.0028125
v -0.002651655 0.03858426 0.0028125
v -0.00263331 0.038675865 -0.0028125
v -0.00263331 0.038675865 0.0028125
v -0.002619165 0.03876519 -0.0028125
v -0.002619165 0.03876519 0.0028125
v -0.002608515 0.03885234 -0.0028125
v -0.002608515 0.03885234 0.0028125
v -0.002600835 0.038937315 -0.0028125
v -0.002600835 0.038937315 0.0028125
v -0.00259767 0.03901953 -0.0028125
v -0.00259767 0.03901953 0.0028125
v -0.002599215 0.03909906 -0.0028125
v -0.002599215 0.03909906 0.0028125
v -0.002605215 0.039176205 -0.0028125
v -0.002605215 0.039176205 0.0028125
v -0.002615415 0.039251205 -0.0028125
v -0.002615415 0.039251205 0.0028125
v -0.00262956 0.03932433 -0.0028125
v -0.00262956 0.03932433 0.0028125
v -0.00264738 0.03939588 -0.0028125
v -0.00264738 0.03939588 0.0028125
v -0.00266862 0.039466095 -0.0028125
v -0.00266862 0.039466095 0.0028125
v -0.002692995 0.03953526 -0.0028125
v -0.002692995 0.03953526 0.0028125
v -0.002720325 0.039603135 -0.0028125
v -0.002720325 0.039603135 0.0028125
v -0.00275073 0.03966936 -0.0028125
v -0.00275073 0.03966936 0.0028125
v -0.002784525 0.03973401 -0.0028125
v -0.002784525 0.03973401 0.0028125
v -0.00282201 0.039797115 -0.0028125
v -0.00282201 0.039797115 0.0028125
v -0.00286347 0.039858765 -0.0028125
v -0.00286347 0.039858765 0.0028125
v -0.002909205 0.039919005 -0.0028125
v -0.002909205 0.039919005 0.0028125
v -0.00295953 0.039977895 -0.0028125
v -0.00295953 0.039977895 0.0028125
v -0.003014715 0.04003551 -0.0028125
v -0.003014715 0.04003551 0.0028125
v -0.00307464 0.04009203 -0.0028125
v -0.00307464 0.04009203 0.0028125
v -0.00313794 0.04014789 -0.0028125
v -0.00313794 0.04014789 0.0028125
v -0.003205005 0.040202805 -0.0028125
v -0.003205005 0.040202805 0.0028125
v -0.003276405 0.04025643 -0.0028125
v -0.003276405 0.04025643 0.0028125
v -0.003352725 0.040308405 -0.0028125
v -0.003352725 0.040308405 0.0028125
v -0.00343455 0.04035837 -0.0028125
v -0.00343455 0.04035837 0.0028125
v -0.003522465 0.040405965 -0.0028125
v -0.003522465 0.040405965 0.0028125
v -0.003617055 0.04045086 -0.0028125
v -0.003617055 0.04045086 0.0028125
v -0.003718815 0.040492725 -0.0028125
v -0.003718815 0.040492725 0.0028125
v -0.00382608 0.040533105 -0.0028125
v -0.00382608 0.040533105 0.0028125
v -0.00393834 0.04057227 -0.0028125
v -0.00393834 0.04057227 0.0028125
v -0.0040563 0.0406095 -0.0028125
v -0.0040563 0.0406095 0.0028125
v -0.004138425 0.0406329 -0.0028125
v -0.004138425 0.0406329 0.0028125
v -0.00422358 0.040654905 -0.0028125
v -0.00422358 0.040654905 0.0028125
v -0.00431196 0.040675305 -0.0028125
v -0.00431196 0.040675305 0.0028125
v -0.004403745 0.04069389 -0.0028125
v -0.004403745 0.04069389 0.0028125
v -0.004499145 0.040710465 -0.0028125
v -0.004499145 0.040710465 0.0028125
v -0.00459837 0.04072479 -0.0028125
v -0.00459837 0.04072479 0.0028125
v -0.004701615 0.04073667 -0.0028125
v -0.004701615 0.04073667 0.0028125
v -0.004809015 0.040745925 -0.0028125
v -0.004809015 0.040745925 0.0028125
v -0.00491961 0.040753815 -0.0028125
v -0.00491961 0.040753815 0.0028125
v -0.005033055 0.040760715 -0.0028125
v -0.005033055 0.040760715 0.0028125
v -0.005149575 0.04076634 -0.0028125
v -0.005149575 0.04076634 0.0028125
v -0.005269395 0.04077033 -0.0028125
v -0.005269395 0.04077033 0.0028125
v -0.005392755 0.040772385 -0.0028125
v -0.005392755 0.040772385 0.0028125
v -0.00551988 0.040772175 -0.0028125
v -0.00551988 0.040772175 0.0028125
v -0.00565101 0.04076937 -0.0028125
v -0.00565101 0.04076937 0.0028125
v -0.00578637 0.040763685 -0.0028125
v -0.00578637 0.040763685 0.0028125
v -0.0059262 0.04075476 -0.0028125
v -0.0059262 0.04075476 0.0028125
v -0.00607071 0.04074228 -0.0028125
v -0.00607071 0.04074228 0.0028125
v -0.006220155 0.04072593 -0.0028125
v -0.006220155 0.04072593 0.0028125
v -0.00637476 0.040705395 -0.0028125
v -0.00637476 0.040705395 0.0028125
v -0.00653457 0.0406806 -0.0028125
v -0.00653457 0.0406806 0.0028125
v -0.00669897 0.0406524 -0.0028125
v -0.00669897 0.0406524 0.0028125
v -0.006867885 0.040620915 -0.0028125
v -0.006867885 0.040620915 0.0028125
v -0.0070413 0.04058613 -0.0028125
v -0.0070413 0.04058613 0.0028125
v -0.007219215 0.04054806 -0.0028125
v -0.007219215 0.04054806 0.0028125
v -0.00740166 0.040506705 -0.0028125
v -0.00740166 0.040506705 0.0028125
v -0.007588605 0.04046205 -0.0028125
v -0.007588605 0.04046205 0.0028125
v -0.007780065 0.04041411 -0.0028125
v -0.007780065 0.04041411 0.0028125
v -0.007976025 0.04036287 -0.0028125
v -0.007976025 0.04036287 0.0028125
v -0.008176515 0.04030833 -0.0028125
v -0.008176515 0.04030833 0.0028125
v -0.00838149 0.04025052 -0.0028125
v -0.00838149 0.04025052 0.0028125
v -0.008590995 0.04018941 -0.0028125
v -0.008590995 0.04018941 0.0028125
v -0.008805 0.040125 -0.0028125
v -0.008805 0.040125 0.0028125
v -0.00930351 0.03996483 -0.0028125
v -0.00930351 0.03996483 0.0028125
v -0.009807015 0.0397965 -0.0028125
v -0.009807015 0.0397965 0.0028125
v -0.0103155 0.03961998 -0.0028125
v -0.0103155 0.03961998 0.0028125
v -0.01082898 0.039435285 -0.0028125
v -0.01082898 0.039435285 0.0028125
v -0.01134744 0.0392424 -0.0028125
v -0.01134744 0.0392424 0.0028125
v -0.011870895 0.039041355 -0.0028125
v -0.011870895 0.039041355 0.0028125
v -0.01239933 0.03883212 -0.0028125
v -0.01239933 0.03883212 0.0028125
v -0.012932745 0.03861471 -0.0028125
v -0.012932745 0.03861471 0.0028125
v -0.01347117 0.038389125 -0.0028125
v -0.01347117 0.038389125 0.0028125
v -0.01401456 0.038155365 -0.0028125
v -0.01401456 0.038155365 0.0028125
v -0.01456296 0.037913415 -0.0028125
v -0.01456296 0.037913415 0.0028125
v -0.01511634 0.03766329 -0.0028125
v -0.01511634 0.03766329 0.0028125
v -0.0156747 0.03740499 -0.0028125
v -0.0156747 0.03740499 0.0028125
v -0.016238055 0.037138515 -0.0028125
v -0.016238055 0.037138515 0.0028125
v -0.01680639 0.036863865 -0.0028125
v -0.01680639 0.036863865 0.0028125
v -0.01737972 0.036581025 -0.0028125
v -0.01737972 0.036581025 0.0028125
v -0.01795803 0.036290025 -0.0028125
v -0.01795803 0.036290025 0.0028125
v -0.018541515 0.03599115 -0.0028125
v -0.018541515 0.03599115 0.0028125
v -0.019130625 0.03568536 -0.0028125
v -0.019130625 0.03568536 0.0028125
v -0.019725315 0.035372475 -0.0028125
v -0.019725315 0.035372475 0.0028125
v -0.020325405 0.03505221 -0.0028125
v -0.020325405 0.03505221 0.0028125
v -0.02093079 0.03472434 -0.0028125
v -0.02093079 0.03472434 0.0028125
v -0.021541305 0.034388565 -0.0028125
v -0.021541305 0.034388565 0.0028125
v -0.02215683 0.034044645 -0.0028125
v -0.02215683 0.034044645 0.0028125
v -0.022777215 0.033692325 -0.0028125
v -0.022777215 0.033692325 0.0028125
v -0.02340234 0.03333132 -0.0028125
v -0.02340234 0.03333132 0.0028125
v -0.02403204 0.03296139 -0.0028125
v -0.02403204 0.03296139 0.0028125
v -0.024666195 0.03258225 -0.0028125
v -0.024666195 0.03258225 0.0028125
v -0.025304655 0.03219366 -0.0028125
v -0.025304655 0.03219366 0.0028125
v -0.025947285 0.03179535 -0.0028125
v -0.025947285 0.03179535 0.0028125
v -0.026593965 0.031387065 -0.0028125
v -0.026593965 0.031387065 0.0028125
v -0.02724453 0.030968535 -0.0028125
v -0.02724453 0.030968535 0.0028125
v -0.027898845 0.03053949 -0.0028125
v -0.027898845 0.03053949 0.0028125
v -0.02855679 0.030099675 -0.0028125
v -0.02855679 0.030099675 0.0028125
v -0.02921826 0.029648925 -0.0028125
v -0.02921826 0.029648925 0.0028125
v -0.02988375 0.02918817 -0.0028125
v -0.02988375 0.02918817 0.0028125
v -0.030553425 0.02871771 -0.0028125
v -0.030553425 0.02871771 0.0028125
v -0.031227285 0.02823756 -0.0028125
v -0.031227285 0.02823756 0.0028125
v -0.03190533 0.02774772 -0.0028125
v -0.03190533 0.02774772 0.0028125
v -0.03258756 0.02724819 -0.0028125
v -0.03258756 0.02724819 0.0028125
v -0.03327399 0.02673897 -0.0028125
v -0.03327399 0.02673897 0.0028125
v -0.033964605 0.02622006 -0.0028125
v -0.033964605 0.02622006 0.0028125
v -0.034659405 0.02569146 -0.0028125
v -0.034659405 0.02569146 0.0028125
v -0.03535839 0.02515317 -0.0028125
v -0.03535839 0.02515317 0.0028125
v -0.036061575 0.02460519 -0.0028125
v -0.036061575 0.02460519 0.0028125
v -0.036768945 0.024047505 -0.0028125
v -0.036768945 0.024047505 0.0028125
v -0.037480485 0.023480145 -0.0028125
v -0.037480485 0.023480145 0.0028125
v -0.03819624 0.022903095 -0.0028125
v -0.03819624 0.022903095 0.0028125
v -0.038916165 0.02231634 -0.0028125
v -0.038916165 0.02231634 0.0028125
v -0.039640275 0.02171991 -0.0028125
v -0.039640275 0.02171991 0.0028125
v -0.040368585 0.021113775 -0.0028125
v -0.040368585 0.021113775 0.0028125
v -0.04110108 0.02049795 -0.0028125
v -0.04110108 0.02049795 0.0028125
v -0.04134429 0.020266725 -0.0028125
v -0.04134429 0.020266725 0.0028125
v -0.04156644 0.020024655 -0.0028125
v -0.04156644 0.020024655 0.0028125
v -0.04176753 0.01977177 -0.0028125
v -0.04176753 0.01977177 0.0028125
v -0.04194756 0.01950804 -0.0028125
v -0.04194756 0.01950804 0.0028125
v -0.042106545 0.01923348 -0.0028125
v -0.042106545 0.01923348 0.0028125
v -0.04224519 0.018945585 -0.0028125
v -0.04224519 0.018945585 0.0028125
v -0.04236405 0.018642525 -0.0028125
v -0.04236405 0.018642525 0.0028125
v -0.042461685 0.018329205 -0.0028125
v -0.042461685 0.018329205 0.0028125
v -0.04253664 0.01801059 -0.0028125
v -0.04253664 0.01801059 0.0028125
v -0.042587445 0.01769172 -0.0028125
v -0.042587445 0.01769172 0.0028125
v -0.042613095 0.017373705 -0.0028125
v -0.042613095 0.017373705 0.0028125
v -0.04261458 0.017048955 -0.0028125
v -0.04261458 0.017048955 0.0028125
v -0.04259244 0.016721715 -0.0028125
v -0.04259244 0.016721715 0.0028125
v -0.042547215 0.01639716 -0.0028125
v -0.042547215 0.01639716 0.0028125
v -0.042479385 0.01608048 -0.0028125
v -0.042479385 0.01608048 0.0028125
v -0.04238889 0.015774735 -0.0028125
v -0.04238889 0.015774735 0.0028125
v -0.042273405 0.015472155 -0.0028125
v -0.042273405 0.015472155 0.0028125
v -0.042134685 0.01517526 -0.0028125
v -0.042134685 0.01517526 0.0028125
v -0.04197513 0.0148887 -0.0028125
v -0.04197513 0.0148887 0.0028125
v -0.04179714 0.01461708 -0.0028125
v -0.04179714 0.01461708 0.0028125
v -0.0416025 0.01436427 -0.0028125
v -0.0416025 0.01436427 0.0028125
v -0.04138632 0.01412442 -0.0028125
v -0.04138632 0.01412442 0.0028125
v -0.041150025 0.01389795 -0.0028125
v -0.041150025 0.01389795 0.0028125
v -0.04089756 0.01368825 -0.0028125
v -0.04089756 0.01368825 0.0028125
v -0.0406329 0.013498725 -0.0028125
v -0.0406329 0.013498725 0.0028125
v -0.040359885 0.013332675 -0.0028125
v -0.040359885 0.013332675 0.0028125
v -0.040077075 0.013188885 -0.0028125
v -0.040077075 0.013188885 0.0028125
v -0.039782505 0.013065645 -0.0028125
v -0.039782505 0.013065645 0.0028125
v -0.039476145 0.012962955 -0.0028125
v -0.039476145 0.012962955 0.0028125
v -0.03915804 0.012880815 -0.0028125
v -0.03915804 0.012880815 0.0028125
v -0.038828145 0.012819225 -0.0028125
v -0.038828145 0.012819225 0.0028125
v -0.03845124 0.01275474 -0.0028125
v -0.03845124 0.01275474 0.0028125
v -0.03809028 0.01267056 -0.0028125
v -0.03809028 0.01267056 0.0028125
v -0.03774528 0.01256667 -0.0028125
v -0.03774528 0.01256667 0.0028125
v -0.037594965 0.01251291 -0.0028125
v -0.03759075 0.01250787 0.0028125
v -0.03744096 0.012474015 -0.0028125
v -0.03743358 0.012468495 0.0028125
v -0.0372819 0.012448815 -0.0028125
v -0.037354005 0.01245609 0.0028125
v -0.03727347 0.01244847 0.0028125
v -0.03712446 0.012443295 -0.0028125
v -0.03719064 0.01244535 0.0028125
v -0.037106655 0.012446985 0.0028125
v -0.03697011 0.01245915 -0.0028125
v -0.037023015 0.01245369 0.0028125
v -0.03694122 0.012465795 0.0028125
v -0.03682278 0.012496005 -0.0028125
v -0.03678723 0.012508365 0.0028125
v -0.036682725 0.01255368 -0.0028125
v -0.036641685 0.012576495 0.0028125
v -0.036549375 0.012629325 -0.0028125
v -0.036506865 0.012659295 0.0028125
v -0.036422085 0.01272273 -0.0028125
v -0.036385485 0.012748545 0.0028125
v -0.036359805 0.012775425 -0.0028125
v -0.036298545 0.01283223 -0.0028125
v -0.036238335 0.012893145 -0.0028125
v -0.03190533 0.02774772 0.0028125
v -0.031421595 0.022610475 0.0028125
v -0.03140625 0.0225 0.0028125
v -0.03145542 0.02270754 0.0028125
v -0.031227285 0.02823756 0.0028125
v -0.03092679 0.01818294 0.0028125
v -0.030553425 0.02871771 0.0028125
v -0.031421595 0.022389525 0.0028125
v -0.03145542 0.02229246 0.0028125
v -0.031506855 0.01763337 0.0028125
v -0.03150792 0.02220867 0.0028125
v -0.031583175 0.0221352 0.0028125
v -0.031673655 0.022077525 0.0028125
v -0.031769115 0.02204376 0.0028125
v -0.031875 0.022032915 0.0028125
v -0.031980885 0.02204376 0.0028125
v -0.032076345 0.022077525 0.0028125
v -0.03208779 0.01707606 0.0028125
v -0.032166825 0.0221352 0.0028125
v -0.03224208 0.02220867 0.0028125
v -0.03229458 0.02229246 0.0028125
v -0.032328405 0.022389525 0.0028125
v -0.03234375 0.0225 0.0028125
v -0.03258756 0.02724819 0.0028125
v -0.032328405 0.022610475 0.0028125
v -0.032669625 0.01651101 0.0028125
v -0.03327399 0.02673897 0.0028125
v -0.03325233 0.01593822 0.0028125
v -0.033835935 0.01535769 0.0028125
v -0.033964605 0.02622006 0.0028125
v -0.034420425 0.01476942 0.0028125
v -0.034659405 0.02569146 0.0028125
v -0.035005785 0.01417341 0.0028125
v -0.03535839 0.02515317 0.0028125
v -0.03554049 0.01920294 0.0028125
v -0.036061575 0.02460519 0.0028125
v -0.035555835 0.019092465 0.0028125
v -0.03558966 0.0189954 0.0028125
v -0.035592045 0.01356966 0.0028125
v -0.035642175 0.01891161 0.0028125
v -0.03571743 0.01883814 0.0028125
v -0.035807895 0.018780465 0.0028125
v -0.035903355 0.018746715 0.0028125
v -0.03600924 0.018735855 0.0028125
v -0.03611514 0.018746715 0.0028125
v -0.03617919 0.012958185 0.0028125
v -0.0362106 0.018780465 0.0028125
v -0.0362763 0.01284807 0.0028125
v -0.036301065 0.01883814 0.0028125
v -0.03637632 0.01891161 0.0028125
v -0.036385485 0.012748545 0.0028125
v -0.036428835 0.0189954 0.0028125
v -0.036462645 0.019092465 0.0028125
v -0.03647799 0.01920294 0.0028125
v -0.036506865 0.012659295 0.0028125
v -0.036768945 0.024047505 0.0028125
v -0.036462645 0.01931343 0.0028125
v -0.036641685 0.012576495 0.0028125
v -0.03678723 0.012508365 0.0028125
v -0.037480485 0.023480145 0.0028125
v -0.03694122 0.012465795 0.0028125
v -0.037023015 0.01245369 0.0028125
v -0.037106655 0.012446985 0.0028125
v -0.03719064 0.01244535 0.0028125
v -0.03727347 0.01244847 0.0028125
v -0.037354005 0.01245609 0.0028125
v -0.03743358 0.012468495 0.0028125
v -0.03759075 0.01250787 0.0028125
v -0.03775125 0.017175 0.0028125
v -0.03819624 0.022903095 0.0028125
v -0.03774528 0.01256667 0.0028125
v -0.037766595 0.017064525 0.0028125
v -0.03780042 0.01696746 0.0028125
v -0.03785292 0.01688367 0.0028125
v -0.037928175 0.0168102 0.0028125
v -0.038018655 0.016752525 0.0028125
v -0.03809028 0.01267056 0.0028125
v -0.038114115 0.01671876 0.0028125
v -0.03822 0.0167079 0.0028125
v -0.038325885 0.01671876 0.0028125
v -0.038421345 0.016752525 0.0028125
v -0.03845124 0.01275474 0.0028125
v -0.038511825 0.0168102 0.0028125
v -0.03858708 0.01688367 0.0028125
v -0.03863958 0.01696746 0.0028125
v -0.038673405 0.017064525 0.0028125
v -0.03868875 0.017175 0.0028125
v -0.038828145 0.012819225 0.0028125
v -0.038916165 0.02231634 0.0028125
v -0.03915804 0.012880815 0.0028125
v -0.038673405 0.01728549 0.0028125
v -0.03863958 0.01738254 0.0028125
v -0.03858708 0.01746633 0.0028125
v -0.038511825 0.0175398 0.0028125
v -0.038421345 0.017597475 0.0028125
v -0.038325885 0.01763124 0.0028125
v -0.03822 0.0176421 0.0028125
v -0.038114115 0.01763124 0.0028125
v -0.038018655 0.017597475 0.0028125
v -0.037928175 0.0175398 0.0028125
v -0.03785292 0.01746633 0.0028125
v -0.03780042 0.01738254 0.0028125
v -0.037766595 0.01728549 0.0028125
v -0.039640275 0.02171991 0.0028125
v -0.039476145 0.012962955 0.0028125
v -0.039782505 0.013065645 0.0028125
v -0.040368585 0.021113775 0.0028125
v -0.040077075 0.013188885 0.0028125
v -0.040359885 0.013332675 0.0028125
v -0.0406329 0.013498725 0.0028125
v -0.04110108 0.02049795 0.0028125
v -0.04089756 0.01368825 0.0028125
v -0.041150025 0.01389795 0.0028125
v -0.04134429 0.020266725 0.0028125
v -0.04138632 0.01412442 0.0028125
v -0.04156644 0.020024655 0.0028125
v -0.0416025 0.01436427 0.0028125
v -0.04176753 0.01977177 0.0028125
v -0.04179714 0.01461708 0.0028125
v -0.04194756 0.01950804 0.0028125
v -0.04197513 0.0148887 0.0028125
v -0.042106545 0.01923348 0.0028125
v -0.042134685 0.01517526 0.0028125
v -0.04224519 0.018945585 0.0028125
v -0.042273405 0.015472155 0.0028125
v -0.04236405 0.018642525 0.0028125
v -0.04238889 0.015774735 0.0028125
v -0.042461685 0.018329205 0.0028125
v -0.042479385 0.01608048 0.0028125
v -0.04253664 0.01801059 0.0028125
v -0.042547215 0.01639716 0.0028125
v -0.042587445 0.01769172 0.0028125
v -0.04259244 0.016721715 0.0028125
v -0.042613095 0.017373705 0.0028125
v -0.04261458 0.017048955 0.0028125
v -0.036428835 0.019410495 0.0028125
v -0.03637632 0.019494285 0.0028125
v -0.036301065 0.019567755 0.0028125
v -0.0362106 0.01962543 0.0028125
v -0.03611514 0.01965918 0.0028125
v -0.03600924 0.01967004 0.0028125
v -0.035903355 0.01965918 0.0028125
v -0.035807895 0.01962543 0.0028125
v -0.03571743 0.019567755 0.0028125
v -0.035642175 0.019494285 0.0028125
v -0.03558966 0.019410495 0.0028125
v -0.035555835 0.01931343 0.0028125
v -0.03229458 0.02270754 0.0028125
v -0.03224208 0.02279133 0.0028125
v -0.032166825 0.0228648 0.0028125
v -0.032076345 0.022922475 0.0028125
v -0.031980885 0.02295624 0.0028125
v -0.031875 0.022967085 0.0028125
v -0.031769115 0.02295624 0.0028125
v -0.031673655 0.022922475 0.0028125
v -0.031583175 0.0228648 0.0028125
v -0.03150792 0.02279133 0.0028125
v -0.030347625 0.01872477 0.0028125
v -0.02988375 0.02918817 0.0028125
v -0.02976933 0.01925886 0.0028125
v -0.02921826 0.029648925 0.0028125
v -0.029191935 0.019785225 0.0028125
v -0.02861541 0.020303835 0.0028125
v -0.02855679 0.030099675 0.0028125
v -0.02803962 0.02081445 0.0028125
v -0.027898845 0.03053949 0.0028125
v -0.027464475 0.02131692 0.0028125
v -0.02724453 0.030968535 0.0028125
v -0.026890035 0.021811335 0.0028125
v -0.026593965 0.031387065 0.0028125
v -0.026316375 0.022297845 0.0028125
v -0.025947285 0.03179535 0.0028125
v -0.02574357 0.022776585 0.0028125
v -0.025304655 0.03219366 0.0028125
v -0.02517171 0.02324766 0.0028125
v -0.024666195 0.03258225 0.0028125
v -0.024600855 0.023711205 0.0028125
v -0.02403204 0.03296139 0.0028125
v -0.02403108 0.024167355 0.0028125
v -0.02346249 0.02461623 0.0028125
v -0.02340234 0.03333132 0.0028125
v -0.02289513 0.025057965 0.0028125
v -0.022777215 0.033692325 0.0028125
v -0.02232909 0.02549268 0.0028125
v -0.02215683 0.034044645 0.0028125
v -0.021764445 0.02592051 0.0028125
v -0.021541305 0.034388565 0.0028125
v -0.021201255 0.02634156 0.0028125
v -0.02093079 0.03472434 0.0028125
v -0.02063934 0.02675565 0.0028125
v -0.020325405 0.03505221 0.0028125
v -0.020078475 0.027162465 0.0028125
v -0.019725315 0.035372475 0.0028125
v -0.019518705 0.02756205 0.0028125
v -0.019130625 0.03568536 0.0028125
v -0.01896009 0.02795442 0.0028125
v -0.018541515 0.03599115 0.0028125
v -0.01840266 0.028339605 0.0028125
v -0.01795803 0.036290025 0.0028125
v -0.01784649 0.028717605 0.0028125
v -0.01737972 0.036581025 0.0028125
v -0.01729161 0.02908845 0.0028125
v -0.01680639 0.036863865 0.0028125
v -0.01673808 0.02945217 0.0028125
v -0.016238055 0.037138515 0.0028125
v -0.01618596 0.02980878 0.0028125
v -0.0156747 0.03740499 0.0028125
v -0.015635295 0.030158295 0.0028125
v -0.01511634 0.03766329 0.0028125
v -0.015086115 0.03050076 0.0028125
v -0.01456296 0.037913415 0.0028125
v -0.01453851 0.030836175 0.0028125
v -0.01401456 0.038155365 0.0028125
v -0.013992495 0.031164555 0.0028125
v -0.01347117 0.038389125 0.0028125
v -0.01344801 0.0314859 0.0028125
v -0.012932745 0.03861471 0.0028125
v -0.01290498 0.03180015 0.0028125
v -0.01239933 0.03883212 0.0028125
v -0.01236336 0.032107305 0.0028125
v -0.011870895 0.039041355 0.0028125
v -0.011823195 0.032407365 0.0028125
v -0.01134744 0.0392424 0.0028125
v -0.011284455 0.03270033 0.0028125
v -0.01082898 0.039435285 0.0028125
v -0.010747155 0.0329862 0.0028125
v -0.0103155 0.03961998 0.0028125
v -0.010211295 0.033264975 0.0028125
v -0.009807015 0.0397965 0.0028125
v -0.00967686 0.033536655 0.0028125
v -0.00930351 0.03996483 0.0028125
v -0.009143865 0.03380124 0.0028125
v -0.008805 0.040125 0.0028125
v -0.008612295 0.03405873 0.0028125
v -0.008590995 0.04018941 0.0028125
v -0.008082165 0.03430914 0.0028125
v -0.00838149 0.04025052 0.0028125
v -0.008203125 0.0375 0.0028125
v -0.008197005 0.03742932 0.0028125
v -0.008197005 0.03757068 0.0028125
v -0.00818619 0.03763794 0.0028125
v -0.008176515 0.04030833 0.0028125
v -0.008170665 0.037701795 0.0028125
v -0.008150445 0.03776223 0.0028125
v -0.00812553 0.037819245 0.0028125
v -0.00809592 0.037872855 0.0028125
v -0.00806154 0.03792309 0.0028125
v -0.00802086 0.037971075 0.0028125
v -0.007976025 0.04036287 0.0028125
v -0.00797412 0.03801666 0.0028125
v -0.007922595 0.03805887 0.0028125
v -0.00786756 0.038096805 0.0028125
v -0.007810305 0.03812952 0.0028125
v -0.007780065 0.04041411 0.0028125
v -0.007752105 0.0381561 0.0028125
v -0.00769374 0.03817578 0.0028125
v -0.007631805 0.038189595 0.0028125
v -0.007588605 0.04046205 0.0028125
v -0.00756669 0.038197875 0.0028125
v -0.0075 0.038200635 0.0028125
v -0.00743331 0.038197875 0.0028125
v -0.00740166 0.040506705 0.0028125
v -0.007368195 0.038189595 0.0028125
v -0.00730626 0.03817578 0.0028125
v -0.00724788 0.0381561 0.0028125
v -0.007219215 0.04054806 0.0028125
v -0.007189695 0.03812952 0.0028125
v -0.00713244 0.038096805 0.0028125
v -0.007077405 0.03805887 0.0028125
v -0.0070413 0.04058613 0.0028125
v -0.00702588 0.03801666 0.0028125
v -0.00697914 0.037971075 0.0028125
v -0.00693846 0.03792309 0.0028125
v -0.00690408 0.037872855 0.0028125
v -0.00687447 0.037819245 0.0028125
v -0.006867885 0.040620915 0.0028125
v -0.006849555 0.03776223 0.0028125
v -0.006829335 0.037701795 0.0028125
v -0.00681381 0.03763794 0.0028125
v -0.006802995 0.03757068 0.0028125
v -0.006796875 0.0375 0.0028125
v -0.00669897 0.0406524 0.0028125
v -0.00661266 0.034987995 0.0028125
v -0.00653457 0.0406806 0.0028125
v -0.006802995 0.03742932 0.0028125
v -0.00681381 0.03736206 0.0028125
v -0.00681657 0.034888605 0.0028125
v -0.006829335 0.037298205 0.0028125
v -0.006849555 0.03723777 0.0028125
v -0.00687447 0.037180755 0.0028125
v -0.00690408 0.037127145 0.0028125
v -0.00693846 0.03707691 0.0028125
v -0.00697914 0.037028925 0.0028125
v -0.00702588 0.03698334 0.0028125
v -0.007026225 0.03478866 0.0028125
v -0.007077405 0.03694113 0.0028125
v -0.00713244 0.036903195 0.0028125
v -0.007189695 0.03687048 0.0028125
v -0.00724788 0.0368439 0.0028125
v -0.00730626 0.03682422 0.0028125
v -0.007368195 0.036810405 0.0028125
v -0.00743331 0.036802125 0.0028125
v -0.0075 0.036799365 0.0028125
v -0.007553475 0.03455244 0.0028125
v -0.00756669 0.036802125 0.0028125
v -0.007631805 0.036810405 0.0028125
v -0.00769374 0.03682422 0.0028125
v -0.007752105 0.0368439 0.0028125
v -0.007810305 0.03687048 0.0028125
v -0.00786756 0.036903195 0.0028125
v -0.007922595 0.03694113 0.0028125
v -0.00797412 0.03698334 0.0028125
v -0.00802086 0.037028925 0.0028125
v -0.00806154 0.03707691 0.0028125
v -0.00809592 0.037127145 0.0028125
v -0.00812553 0.037180755 0.0028125
v -0.008150445 0.03723777 0.0028125
v -0.008170665 0.037298205 0.0028125
v -0.00818619 0.03736206 0.0028125
v -0.006414465 0.035086815 0.0028125
v -0.00637476 0.040705395 0.0028125
v -0.006222 0.035185065 0.0028125
v -0.006220155 0.04072593 0.0028125
v -0.00603528 0.03528276 0.0028125
v -0.00607071 0.04074228 0.0028125
v -0.0059262 0.04075476 0.0028125
v -0.00585426 0.0353799 0.0028125
v -0.00578637 0.040763685 0.0028125
v -0.005678985 0.035476455 0.0028125
v -0.00565101 0.04076937 0.0028125
v -0.00550944 0.03557247 0.0028125
v -0.00551988 0.040772175 0.0028125
v -0.005392755 0.040772385 0.0028125
v -0.00534561 0.0356679 0.0028125
v -0.005269395 0.04077033 0.0028125
v -0.005187525 0.035762775 0.0028125
v -0.005149575 0.04076634 0.0028125
v -0.005035155 0.035857095 0.0028125
v -0.005033055 0.040760715 0.0028125
v -0.004888515 0.035950845 0.0028125
v -0.00491961 0.040753815 0.0028125
v -0.004809015 0.040745925 0.0028125
v -0.004747725 0.036044055 0.0028125
v -0.004701615 0.04073667 0.0028125
v -0.004613865 0.036136995 0.0028125
v -0.00459837 0.04072479 0.0028125
v -0.004486845 0.03622965 0.0028125
v -0.004499145 0.040710465 0.0028125
v -0.004403745 0.04069389 0.0028125
v -0.004366245 0.036321915 0.0028125
v -0.00431196 0.040675305 0.0028125
v -0.004251705 0.0364137 0.0028125
v -0.00422358 0.040654905 0.0028125
v -0.00414282 0.036504885 0.0028125
v -0.004138425 0.0406329 0.0028125
v -0.00403917 0.03659541 0.0028125
v -0.0040563 0.0406095 0.0028125
v -0.003940395 0.03668514 0.0028125
v -0.00393834 0.04057227 0.0028125
v -0.00384606 0.036774 0.0028125
v -0.00382608 0.040533105 0.0028125
v -0.003755805 0.0368619 0.0028125
v -0.003718815 0.040492725 0.0028125
v -0.00366921 0.03694872 0.0028125
v -0.003617055 0.04045086 0.0028125
v -0.003585885 0.03703437 0.0028125
v -0.003522465 0.040405965 0.0028125
v -0.00350544 0.037118775 0.0028125
v -0.00343455 0.04035837 0.0028125
v -0.003428415 0.037201995 0.0028125
v -0.003356385 0.03728436 0.0028125
v -0.003352725 0.040308405 0.0028125
v -0.00328911 0.037365855 0.0028125
v -0.003276405 0.04025643 0.0028125
v -0.003226305 0.037446435 0.0028125
v -0.003205005 0.040202805 0.0028125
v -0.003167685 0.037526055 0.0028125
v -0.00313794 0.04014789 0.0028125
v -0.003112965 0.037604685 0.0028125
v -0.00307464 0.04009203 0.0028125
v -0.00306183 0.03768228 0.0028125
v -0.003014715 0.04003551 0.0028125
v -0.003013995 0.037758795 0.0028125
v -0.00296919 0.0378342 0.0028125
v -0.00295953 0.039977895 0.0028125
v -0.0029271 0.03790845 0.0028125
v -0.002909205 0.039919005 0.0028125
v -0.00288744 0.037981515 0.0028125
v -0.00286347 0.039858765 0.0028125
v -0.002831865 0.03808878 0.0028125
v -0.00282201 0.039797115 0.0028125
v -0.002781675 0.03819318 0.0028125
v -0.002784525 0.03973401 0.0028125
v -0.00275073 0.03966936 0.0028125
v -0.002739225 0.038294835 0.0028125
v -0.002720325 0.039603135 0.0028125
v -0.0027039 0.03839385 0.0028125
v -0.002692995 0.03953526 0.0028125
v -0.00267495 0.038490285 0.0028125
v -0.00266862 0.039466095 0.0028125
v -0.002651655 0.03858426 0.0028125
v -0.00264738 0.03939588 0.0028125
v -0.00263331 0.038675865 0.0028125
v -0.00262956 0.03932433 0.0028125
v -0.002619165 0.03876519 0.0028125
v -0.002615415 0.039251205 0.0028125
v -0.002608515 0.03885234 0.0028125
v -0.002605215 0.039176205 0.0028125
v -0.002600835 0.038937315 0.0028125
v -0.002599215 0.03909906 0.0028125
v -0.00259767 0.03901953 0.0028125
f 1 2 3
f 1 4 2
f 5 1 3
f 5 6 1
f 5 3 7
f 5 7 8
f 5 8 9
f 5 9 10
f 5 10 11
f 5 11 12
f 5 12 13
f 14 5 13
f 14 13 15
f 14 15 16
f 14 16 17
f 14 17 18
f 14 18 19
f 14 19 20
f 14 20 21
f 22 14 21
f 22 21 23
f 23 21 24
f 22 23 25
f 26 22 25
f 26 25 27
f 28 26 27
f 28 27 29
f 30 28 29
f 30 29 31
f 32 30 31
f 32 31 33
f 32 33 34
f 33 35 34
f 32 34 36
f 32 36 37
f 32 37 38
f 32 38 39
f 32 39 40
f 32 40 41
f 32 41 42
f 43 32 42
f 43 42 44
f 43 44 45
f 43 45 46
f 43 46 47
f 43 47 48
f 43 48 49
f 43 49 50
f 51 43 50
f 52 51 50
f 52 53 51
f 54 52 50
f 54 50 55
f 54 55 56
f 57 54 56
f 57 56 58
f 59 57 58
f 59 58 60
f 61 59 60
f 61 60 62
f 63 61 62
f 63 62 64
f 64 62 65
f 64 65 66
f 64 66 67
f 64 67 68
f 64 68 69
f 64 69 70
f 33 64 70
f 33 70 71
f 33 71 35
f 53 72 51
f 72 73 51
f 73 74 51
f 74 75 51
f 75 76 51
f 75 77 76
f 77 78 76
f 78 79 76
f 78 80 79
f 76 79 81
f 76 81 82
f 76 82 83
f 76 83 84
f 76 84 85
f 76 85 86
f 87 76 86
f 87 86 88
f 87 88 89
f 87 89 90
f 87 90 91
f 87 91 92
f 87 92 93
f 87 93 94
f 87 94 95
f 96 87 95
f 97 96 95
f 97 98 96
f 97 95 99
f 97 99 100
f 97 100 101
f 97 101 102
f 103 97 102
f 103 102 104
f 103 104 105
f 103 105 106
f 103 106 107
f 80 103 107
f 80 107 108
f 80 108 109
f 80 109 110
f 80 110 111
f 80 111 112
f 80 112 79
f 98 113 96
f 113 114 96
f 113 115 114
f 115 116 114
f 116 117 114
f 117 118 114
f 117 119 118
f 119 120 118
f 120 121 118
f 120 122 121
f 122 123 121
f 122 124 123
f 124 125 123
f 124 126 125
f 126 127 125
f 126 128 127
f 128 129 127
f 128 130 129
f 130 131 129
f 130 132 131
f 132 133 131
f 132 134 133
f 134 135 133
f 134 136 135
f 136 137 135
f 136 138 137
f 138 139 137
f 138 140 139
f 140 141 139
f 140 142 141
f 142 143 141
f 142 144 143
f 23 24 145
f 23 145 146
f 23 146 147
f 148 23 147
f 148 147 149
f 148 149 150
f 148 150 151
f 148 151 152
f 148 152 153
f 148 153 154
f 148 154 155
f 1 148 155
f 1 155 4
f 5 156 6
f 156 157 6
f 156 158 157
f 158 159 157
f 158 160 159
f 160 161 159
f 160 162 161
f 162 163 161
f 162 164 163
f 162 165 164
f 165 166 164
f 165 167 166
f 167 168 166
f 167 169 168
f 169 170 168
f 169 171 170
f 171 172 170
f 171 173 172
f 173 174 172
f 173 175 174
f 175 176 174
f 175 177 176
f 177 178 176
f 177 179 178
f 179 180 178
f 179 181 180
f 179 182 181
f 182 183 181
f 182 184 183
f 184 185 183
f 184 186 185
f 186 187 185
f 186 188 187
f 188 189 187
f 188 190 189
f 190 191 189
f 190 192 191
f 192 193 191
f 192 194 193
f 194 195 193
f 194 196 195
f 196 197 195
f 196 198 197
f 198 199 197
f 198 200 199
f 200 201 199
f 200 202 201
f 202 203 201
f 202 204 203
f 204 205 203
f 204 206 205
f 206 207 205
f 206 208 207
f 208 209 207
f 208 210 209
f 210 211 209
f 210 212 211
f 212 213 211
f 212 214 213
f 214 215 213
f 214 216 215
f 216 217 215
f 216 218 217
f 218 219 217
f 218 220 219
f 220 221 219
f 220 222 221
f 222 223 221
f 222 224 223
f 224 225 223
f 224 226 225
f 226 227 225
f 226 228 227
f 228 229 227
f 228 230 229
f 230 231 229
f 230 232 231
f 232 233 231
f 232 234 233
f 234 235 233
f 235 236 233
f 235 237 236
f 233 236 238
f 233 238 239
f 233 239 240
f 233 240 241
f 233 241 242
f 233 242 243
f 244 233 243
f 244 243 245
f 244 245 246
f 244 246 247
f 244 247 248
f 244 248 249
f 244 249 250
f 244 250 251
f 244 251 252
f 244 252 253
f 244 253 254
f 255 244 254
f 255 254 256
f 255 256 257
f 255 257 258
f 255 258 259
f 255 259 260
f 255 260 261
f 255 261 262
f 255 262 263
f 264 255 263
f 264 263 265
f 264 265 266
f 264 266 267
f 264 267 268
f 264 268 269
f 264 269 270
f 264 270 271
f 272 264 271
f 272 271 273
f 272 273 274
f 272 274 275
f 276 272 275
f 276 277 272
f 276 275 278
f 276 278 279
f 276 279 280
f 276 280 281
f 282 276 281
f 282 281 283
f 282 283 284
f 282 284 285
f 282 285 286
f 282 286 287
f 288 282 287
f 288 287 289
f 288 289 290
f 288 290 291
f 292 288 291
f 292 291 293
f 292 293 294
f 292 294 295
f 296 292 295
f 296 295 297
f 296 297 298
f 296 298 299
f 300 296 299
f 300 299 301
f 300 301 302
f 300 302 303
f 304 300 303
f 304 303 305
f 304 305 306
f 304 306 307
f 304 307 308
f 309 304 308
f 309 308 310
f 309 310 311
f 309 311 312
f 309 312 313
f 309 313 314
f 309 314 315
f 237 309 315
f 237 315 316
f 237 316 317
f 237 317 236
f 276 318 277
f 318 319 277
f 318 320 319
f 320 321 319
f 320 322 321
f 322 323 321
f 323 324 321
f 323 325 324
f 325 326 324
f 325 327 326
f 327 328 326
f 327 329 328
f 329 330 328
f 330 331 328
f 330 332 331
f 332 333 331
f 332 334 333
f 334 335 333
f 334 336 335
f 336 337 335
f 336 338 337
f 338 339 337
f 339 340 337
f 339 341 340
f 341 342 340
f 341 343 342
f 343 344 342
f 343 345 344
f 345 346 344
f 346 347 344
f 346 348 347
f 348 349 347
f 348 350 349
f 350 351 349
f 350 352 351
f 352 353 351
f 352 354 353
f 354 355 353
f 355 356 353
f 355 357 356
f 357 358 356
f 357 359 358
f 357 360 359
f 360 361 359
f 360 362 361
f 362 363 361
f 362 364 363
f 364 365 363
f 364 366 365
f 366 367 365
f 366 368 367
f 368 369 367
f 368 370 369
f 370 371 369
f 370 372 371
f 370 373 372
f 373 374 372
f 373 375 374
f 375 376 374
f 375 377 376
f 377 378 376
f 377 379 378
f 379 380 378
f 379 381 380
f 381 382 380
f 381 383 382
f 383 384 382
f 383 385 384
f 383 386 385
f 386 387 385
f 386 388 387
f 388 389 387
f 388 390 389
f 390 391 389
f 391 392 389
f 391 393 392
f 393 394 392
f 393 395 394
f 395 396 394
f 395 397 396
f 397 398 396
f 397 399 398
f 399 400 398
f 399 401 400
f 401 402 400
f 401 403 402
f 403 404 402
f 403 405 404
f 405 406 404
f 405 407 406
f 407 408 406
f 407 409 408
f 409 410 408
f 411 412 413
f 414 412 411
f 415 411 413
f 415 413 416
f 415 416 417
f 417 416 418
f 417 418 419
f 419 418 420
f 419 420 421
f 421 420 422
f 421 422 423
f 423 422 424
f 423 424 425
f 425 424 426
f 425 426 427
f 427 426 428
f 427 428 429
f 429 428 430
f 429 430 431
f 431 430 432
f 431 432 433
f 433 432 434
f 433 434 435
f 435 434 436
f 435 436 437
f 437 436 438
f 437 438 439
f 439 438 440
f 439 440 441
f 441 440 442
f 441 442 443
f 443 442 444
f 443 444 445
f 445 444 446
f 445 446 447
f 447 446 448
f 447 448 449
f 449 448 450
f 449 450 451
f 451 450 452
f 451 452 453
f 453 452 454
f 453 454 455
f 455 454 456
f 455 456 457
f 457 456 458
f 457 458 459
f 459 458 460
f 459 460 461
f 461 460 462
f 461 462 463
f 463 462 464
f 463 464 465
f 465 464 466
f 465 466 414
f 414 466 412
f 467 468 469
f 470 468 467
f 471 467 469
f 471 469 472
f 471 472 473
f 473 472 474
f 473 474 475
f 475 474 476
f 475 476 477
f 477 476 478
f 477 478 479
f 479 478 480
f 479 480 481
f 481 480 482
f 481 482 483
f 483 482 484
f 483 484 485
f 485 484 486
f 485 486 487
f 487 486 488
f 487 488 489
f 489 488 490
f 489 490 491
f 491 490 492
f 491 492 493
f 493 492 494
f 493 494 495
f 495 494 496
f 495 496 497
f 497 496 498
f 497 498 499
f 499 498 500
f 499 500 501
f 501 500 502
f 501 502 503
f 503 502 504
f 503 504 505
f 505 504 506
f 505 506 507
f 507 506 508
f 507 508 509
f 509 508 510
f 509 510 511
f 511 510 512
f 511 512 513
f 513 512 514
f 513 514 515
f 515 514 516
f 515 516 517
f 517 516 518
f 517 518 519
f 519 518 520
f 519 520 521
f 521 520 522
f 521 522 470
f 470 522 468
f 523 524 525
f 526 524 523
f 527 523 525
f 527 525 528
f 527 528 529
f 529 528 530
f 529 530 531
f 531 530 532
f 531 532 533
f 533 532 534
f 533 534 535
f 535 534 536
f 535 536 537
f 537 536 538
f 537 538 539
f 539 538 540
f 539 540 541
f 541 540 542
f 541 542 543
f 543 542 544
f 543 544 545
f 545 544 546
f 545 546 547
f 547 546 548
f 547 548 549
f 549 548 550
f 549 550 551
f 551 550 552
f 551 552 553
f 553 552 554
f 553 554 555
f 555 554 556
f 555 556 557
f 557 556 558
f 557 558 559
f 559 558 560
f 559 560 561
f 561 560 562
f 561 562 563
f 563 562 564
f 563 564 565
f 565 564 566
f 565 566 567
f 567 566 568
f 567 568 569
f 569 568 570
f 569 570 571
f 571 570 572
f 571 572 573
f 573 572 574
f 573 574 575
f 575 574 576
f 575 576 577
f 577 576 578
f 577 578 579
f 579 578 580
f 579 580 581
f 581 580 582
f 581 582 583
f 583 582 584
f 583 584 585
f 585 584 586
f 585 586 587
f 587 586 588
f 587 588 589
f 589 588 590
f 589 590 591
f 591 590 592
f 591 592 593
f 593 592 594
f 593 594 595
f 595 594 596
f 595 596 597
f 597 596 598
f 597 598 599
f 599 598 600
f 599 600 601
f 601 600 602
f 601 602 603
f 603 602 604
f 603 604 605
f 605 604 606
f 605 606 607
f 607 606 608
f 607 608 609
f 609 608 610
f 609 610 611
f 611 610 612
f 611 612 613
f 613 612 614
f 613 614 615
f 615 614 616
f 615 616 617
f 617 616 618
f 617 618 619
f 619 618 620
f 619 620 621
f 621 620 622
f 621 622 623
f 623 622 624
f 623 624 625
f 625 624 626
f 625 626 627
f 627 626 628
f 627 628 629
f 629 628 630
f 629 630 631
f 631 630 632
f 631 632 633
f 633 632 634
f 633 634 635
f 635 634 636
f 635 636 637
f 637 636 638
f 637 638 639
f 639 638 640
f 639 640 641
f 641 640 642
f 641 642 643
f 643 642 644
f 643 644 645
f 645 644 646
f 645 646 647
f 647 646 648
f 647 648 649
f 649 648 650
f 649 650 651
f 651 650 652
f 651 652 653
f 653 652 654
f 653 654 655
f 655 654 656
f 655 656 657
f 657 656 658
f 657 658 526
f 526 658 524
f 659 660 661
f 662 660 659
f 663 659 661
f 663 661 664
f 663 664 665
f 665 664 666
f 665 666 667
f 667 666 668
f 667 668 669
f 669 668 670
f 669 670 671
f 671 670 672
f 671 672 673
f 673 672 674
f 673 674 675
f 675 674 676
f 675 676 677
f 677 676 678
f 677 678 679
f 679 678 680
f 679 680 681
f 681 680 682
f 681 682 683
f 683 682 684
f 683 684 685
f 685 684 686
f 685 686 687
f 687 686 688
f 687 688 689
f 689 688 690
f 689 690 691
f 691 690 692
f 691 692 693
f 693 692 694
f 693 694 695
f 695 694 696
f 695 696 697
f 697 696 698
f 697 698 699
f 699 698 700
f 699 700 701
f 701 700 702
f 701 702 703
f 703 702 704
f 703 704 705
f 705 704 706
f 705 706 707
f 707 706 708
f 707 708 709
f 709 708 710
f 709 710 711
f 711 710 712
f 711 712 713
f 713 712 714
f 713 714 662
f 662 714 660
f 715 716 717
f 718 716 715
f 715 717 719
f 719 717 720
f 719 720 721
f 721 720 722
f 721 722 723
f 723 722 724
f 723 724 725
f 725 724 726
f 725 726 727
f 727 726 728
f 727 728 729
f 729 728 730
f 729 730 731
f 731 730 732
f 731 732 733
f 733 732 734
f 733 734 735
f 735 734 736
f 735 736 737
f 737 736 738
f 737 738 739
f 739 738 740
f 739 740 741
f 741 740 742
f 741 742 743
f 743 742 744
f 743 744 745
f 745 744 746
f 745 746 747
f 747 746 748
f 747 748 749
f 749 748 750
f 749 750 751
f 751 750 752
f 751 752 753
f 753 752 754
f 753 754 755
f 755 754 756
f 755 756 757
f 757 756 758
f 757 758 759
f 759 758 760
f 759 760 761
f 761 760 762
f 761 762 763
f 763 762 764
f 763 764 765
f 765 764 766
f 765 766 767
f 767 766 768
f 767 768 769
f 769 768 770
f 769 770 771
f 771 770 772
f 771 772 773
f 773 772 774
f 773 774 775
f 775 774 776
f 775 776 777
f 777 776 778
f 777 778 779
f 779 778 780
f 779 780 781
f 781 780 782
f 781 782 783
f 783 782 784
f 783 784 785
f 785 784 786
f 785 786 787
f 787 786 788
f 787 788 789
f 789 788 790
f 789 790 791
f 791 790 792
f 791 792 793
f 793 792 794
f 793 794 795
f 795 794 796
f 795 796 797
f 797 796 798
f 797 798 799
f 799 798 800
f 799 800 801
f 801 800 802
f 801 802 803
f 803 802 804
f 803 804 805
f 805 804 806
f 805 806 807
f 807 806 808
f 807 808 809
f 809 808 810
f 809 810 811
f 811 810 812
f 811 812 813
f 813 812 814
f 813 814 815
f 815 814 816
f 815 816 817
f 817 816 818
f 817 818 819
f 819 818 820
f 819 820 821
f 821 820 822
f 821 822 823
f 823 822 824
f 823 824 825
f 825 824 826
f 825 826 827
f 827 826 828
f 827 828 829
f 829 828 830
f 829 830 831
f 831 830 832
f 831 832 833
f 833 832 834
f 833 834 835
f 835 834 836
f 835 836 837
f 837 836 838
f 837 838 839
f 839 838 840
f 839 840 841
f 841 840 842
f 841 842 843
f 843 842 844
f 843 844 845
f 845 844 846
f 845 846 847
f 847 846 848
f 847 848 849
f 849 848 850
f 849 850 851
f 851 850 852
f 851 852 853
f 853 852 854
f 853 854 855
f 855 854 856
f 855 856 857
f 857 856 858
f 857 858 859
f 859 858 860
f 859 860 861
f 861 860 862
f 861 862 863
f 863 862 864
f 863 864 865
f 865 864 866
f 865 866 867
f 867 866 868
f 867 868 869
f 869 868 870
f 869 870 871
f 871 870 872
f 871 872 873
f 873 872 874
f 873 874 875
f 875 874 876
f 875 876 877
f 877 876 878
f 877 878 879
f 879 878 880
f 879 880 881
f 881 880 882
f 881 882 883
f 883 882 884
f 883 884 885
f 885 884 886
f 885 886 887
f 887 886 888
f 887 888 889
f 889 888 890
f 889 890 891
f 891 890 892
f 891 892 893
f 893 892 894
f 893 894 895
f 895 894 896
f 895 896 897
f 897 896 898
f 897 898 899
f 899 898 900
f 899 900 901
f 901 900 902
f 901 902 903
f 903 902 904
f 903 904 905
f 905 904 906
f 905 906 907
f 907 906 908
f 907 908 909
f 909 908 910
f 909 910 911
f 911 910 912
f 911 912 913
f 913 912 914
f 913 914 915
f 915 914 916
f 915 916 917
f 917 916 918
f 917 918 919
f 919 918 920
f 919 920 921
f 921 920 922
f 921 922 923
f 923 922 924
f 923 924 925
f 925 924 926
f 925 926 927
f 927 926 928
f 927 928 929
f 929 928 930
f 929 930 931
f 931 930 932
f 931 932 933
f 933 932 934
f 933 934 935
f 935 934 936
f 935 936 937
f 937 936 938
f 937 938 939
f 939 938 940
f 939 940 941
f 941 940 942
f 941 942 943
f 943 942 944
f 943 944 945
f 945 944 946
f 945 946 947
f 947 946 948
f 947 948 949
f 949 948 950
f 949 950 951
f 951 950 952
f 951 952 953
f 953 952 954
f 953 954 955
f 955 954 956
f 955 956 957
f 957 956 958
f 957 958 959
f 959 958 960
f 959 960 961
f 961 960 962
f 961 962 963
f 963 962 964
f 963 964 965
f 965 964 966
f 965 966 967
f 967 966 968
f 967 968 969
f 969 968 970
f 969 970 971
f 971 970 972
f 971 972 973
f 973 972 974
f 973 974 975
f 975 974 976
f 975 976 977
f 977 976 978
f 977 978 979
f 979 978 980
f 979 980 981
f 981 980 982
f 981 982 983
f 983 982 984
f 983 984 985
f 985 984 986
f 985 986 987
f 987 986 988
f 987 988 989
f 989 988 990
f 989 990 991
f 991 990 992
f 991 992 993
f 993 992 994
f 993 994 995
f 995 994 996
f 995 996 997
f 997 996 998
f 997 998 999
f 999 998 1000
f 999 1000 1001
f 1001 1000 1002
f 1001 1002 1003
f 1003 1002 1004
f 1003 1004 1005
f 1005 1004 1006
f 1005 1006 1007
f 1007 1006 1008
f 1007 1008 1009
f 1009 1008 1010
f 1009 1010 1011
f 1011 1010 1012
f 1011 1012 1013
f 1013 1012 1014
f 1013 1014 1015
f 1015 1014 1016
f 1015 1016 1017
f 1017 1016 1018
f 1017 1018 1019
f 1019 1018 1020
f 1019 1020 1021
f 1021 1020 1022
f 1021 1022 1023
f 1023 1022 1024
f 1023 1024 1025
f 1025 1024 1026
f 1025 1026 1027
f 1027 1026 1028
f 1027 1028 1029
f 1029 1028 1030
f 1029 1030 1031
f 1031 1030 1032
f 1031 1032 1033
f 1033 1032 1034
f 1033 1034 1035
f 1035 1034 1036
f 1035 1036 1037
f 1037 1036 1038
f 1037 1038 1039
f 1039 1038 1040
f 1039 1040 1041
f 1041 1040 1042
f 1041 1042 1043
f 1043 1042 1044
f 1043 1044 1045
f 1045 1044 1046
f 1045 1046 1047
f 1047 1046 1048
f 1047 1048 1049
f 1049 1048 1050
f 1049 1050 1051
f 1051 1050 1052
f 1051 1052 1053
f 1053 1052 1054
f 1053 1054 1055
f 1055 1054 1056
f 1055 1056 1057
f 1057 1056 1058
f 1057 1058 1059
f 1059 1058 1060
f 1059 1060 1061
f 1061 1060 1062
f 1061 1062 1063
f 1063 1062 1064
f 1063 1064 1065
f 1065 1064 1066
f 1065 1066 1067
f 1067 1066 1068
f 1067 1068 1069
f 1069 1068 1070
f 1069 1070 1071
f 1071 1070 1072
f 1071 1072 1073
f 1073 1072 1074
f 1073 1074 1075
f 1075 1074 1076
f 1075 1076 1077
f 1077 1076 1078
f 1077 1078 1079
f 1079 1078 1080
f 1079 1080 1081
f 1081 1080 1082
f 1081 1082 1083
f 1083 1082 1084
f 1083 1084 1085
f 1085 1084 1086
f 1085 1086 1087
f 1087 1086 1088
f 1087 1088 1089
f 1089 1088 1090
f 1089 1090 1091
f 1091 1090 1092
f 1091 1092 1093
f 1093 1092 1094
f 1093 1094 1095
f 1095 1094 1096
f 1095 1096 1097
f 1097 1096 1098
f 1097 1098 1099
f 1099 1098 1100
f 1099 1100 1101
f 1101 1100 1102
f 1101 1102 1103
f 1103 1102 1104
f 1103 1104 1105
f 1105 1104 1106
f 1105 1106 1107
f 1107 1106 1108
f 1107 1108 1109
f 1109 1108 1110
f 1109 1110 1111
f 1111 1110 1112
f 1111 1112 1113
f 1113 1112 1114
f 1113 1114 1115
f 1115 1114 1116
f 1115 1116 1117
f 1117 1116 1118
f 1117 1118 1119
f 1119 1118 1120
f 1119 1120 1121
f 1121 1120 1122
f 1121 1122 1123
f 1123 1122 1124
f 1123 1124 1125
f 1125 1124 1126
f 1125 1126 1127
f 1127 1126 1128
f 1127 1128 1129
f 1129 1128 1130
f 1129 1130 1131
f 1131 1130 1132
f 1131 1132 1133
f 1133 1132 1134
f 1133 1134 1135
f 1135 1134 1136
f 1135 1136 1137
f 1137 1136 1138
f 1137 1138 1139
f 1139 1138 1140
f 1139 1140 1141
f 1141 1140 1142
f 1141 1142 1143
f 1143 1142 1144
f 1143 1144 1145
f 1145 1144 1146
f 1145 1146 1147
f 1147 1146 1148
f 1147 1148 1149
f 1149 1148 1150
f 1149 1150 1151
f 1151 1150 1152
f 1151 1152 1153
f 1153 1152 1154
f 1153 1154 1155
f 1155 1154 1156
f 1155 1156 1157
f 1157 1156 1158
f 1157 1158 1159
f 1159 1158 1160
f 1159 1160 1161
f 1161 1160 1162
f 1161 1162 1163
f 1163 1162 1164
f 1163 1164 1165
f 1165 1164 1166
f 1165 1166 1167
f 1167 1166 1168
f 1167 1168 1169
f 1169 1168 1170
f 1169 1170 1171
f 1171 1170 1172
f 1171 1172 1173
f 1173 1172 1174
f 1173 1174 1175
f 1175 1174 1176
f 1175 1176 1177
f 1177 1176 1178
f 1177 1178 1179
f 1179 1178 1180
f 1179 1180 1181
f 1181 1180 1182
f 1181 1182 1183
f 1183 1182 1184
f 1183 1184 1185
f 1185 1184 1186
f 1185 1186 1187
f 1187 1186 1188
f 1187 1188 1189
f 1189 1188 1190
f 1189 1190 1191
f 1191 1190 1192
f 1191 1192 1193
f 1193 1192 1194
f 1193 1194 1195
f 1195 1194 1196
f 1195 1196 1197
f 1197 1196 1198
f 1197 1198 1199
f 1199 1198 1200
f 1199 1200 1201
f 1201 1200 1202
f 1201 1202 1203
f 1203 1202 1204
f 1203 1204 1205
f 1205 1204 1206
f 1205 1206 1207
f 1207 1206 1208
f 1209 1207 1208
f 1209 1208 1210
f 1209 1210 1211
f 1211 1210 1212
f 1211 1212 1213
f 1213 1212 1214
f 1214 1212 1215
f 1214 1215 1216
f 1216 1215 1217
f 1217 1215 1218
f 1217 1218 1219
f 1219 1218 1220
f 1220 1218 1221
f 1220 1221 1222
f 1222 1221 1223
f 1222 1223 1224
f 1224 1223 1225
f 1224 1225 1226
f 1226 1225 1227
f 1226 1227 1228
f 1228 1227 1229
f 1228 1229 1230
f 1228 1230 718
f 718 1230 1231
f 718 1231 716
f 1232 1233 1234
f 1232 1235 1233
f 1236 1232 1234
f 1237 1236 1234
f 1237 1238 1236
f 1237 1234 1239
f 1237 1239 1240
f 1241 1237 1240
f 1241 1240 1242
f 1241 1242 1243
f 1241 1243 1244
f 1241 1244 1245
f 1241 1245 1246
f 1241 1246 1247
f 1241 1247 1248
f 1249 1241 1248
f 1249 1248 1250
f 1249 1250 1251
f 1249 1251 1252
f 1249 1252 1253
f 1249 1253 1254
f 1249 1254 1255
f 1255 1254 1256
f 1257 1249 1255
f 1257 1255 1258
f 1259 1257 1258
f 1260 1259 1258
f 1260 1258 1261
f 1262 1260 1261
f 1262 1261 1263
f 1264 1262 1263
f 1264 1263 1265
f 1264 1265 1266
f 1265 1267 1266
f 1264 1266 1268
f 1264 1268 1269
f 1270 1264 1269
f 1270 1269 1271
f 1270 1271 1272
f 1270 1272 1273
f 1270 1273 1274
f 1270 1274 1275
f 1270 1275 1276
f 1277 1270 1276
f 1277 1276 1278
f 1279 1277 1278
f 1279 1278 1280
f 1279 1280 1281
f 1282 1279 1281
f 1282 1281 1283
f 1282 1283 1284
f 1282 1284 1285
f 1286 1282 1285
f 1286 1285 1287
f 1287 1285 1288
f 1289 1286 1287
f 1290 1289 1287
f 1290 1287 1291
f 1292 1290 1291
f 1293 1292 1291
f 1294 1293 1291
f 1295 1294 1291
f 1296 1295 1291
f 1297 1296 1291
f 1298 1297 1291
f 1299 1298 1291
f 1299 1291 1300
f 1291 1301 1300
f 1299 1300 1302
f 1302 1300 1303
f 1302 1303 1304
f 1302 1304 1305
f 1302 1305 1306
f 1302 1306 1307
f 1308 1302 1307
f 1308 1307 1309
f 1308 1309 1310
f 1308 1310 1311
f 1308 1311 1312
f 1313 1308 1312
f 1313 1312 1314
f 1313 1314 1315
f 1313 1315 1316
f 1313 1316 1317
f 1313 1317 1318
f 1319 1313 1318
f 1320 1319 1318
f 1320 1321 1319
f 1320 1318 1322
f 1320 1322 1323
f 1320 1323 1324
f 1320 1324 1325
f 1320 1325 1326
f 1320 1326 1327
f 1320 1327 1328
f 1301 1320 1328
f 1301 1328 1329
f 1301 1329 1330
f 1301 1330 1331
f 1301 1331 1332
f 1301 1332 1333
f 1301 1333 1334
f 1301 1334 1300
f 1320 1335 1321
f 1335 1336 1321
f 1335 1337 1336
f 1335 1338 1337
f 1338 1339 1337
f 1338 1340 1339
f 1338 1341 1340
f 1338 1342 1341
f 1342 1343 1341
f 1342 1344 1343
f 1342 1345 1344
f 1345 1346 1344
f 1345 1347 1346
f 1347 1348 1346
f 1347 1349 1348
f 1349 1350 1348
f 1349 1351 1350
f 1351 1352 1350
f 1351 1353 1352
f 1353 1354 1352
f 1353 1355 1354
f 1355 1356 1354
f 1355 1357 1356
f 1357 1358 1356
f 1357 1359 1358
f 1359 1360 1358
f 1359 1361 1360
f 1361 1362 1360
f 1361 1363 1362
f 1363 1364 1362
f 1363 1365 1364
f 1365 1366 1364
f 1287 1288 1367
f 1287 1367 1368
f 1287 1368 1369
f 1287 1369 1370
f 1287 1370 1371
f 1267 1287 1371
f 1267 1371 1372
f 1267 1372 1373
f 1267 1373 1374
f 1267 1374 1375
f 1267 1375 1376
f 1267 1376 1377
f 1267 1377 1378
f 1267 1378 1266
f 1255 1256 1379
f 1255 1379 1380
f 1255 1380 1381
f 1255 1381 1382
f 1255 1382 1383
f 1232 1255 1383
f 1232 1383 1384
f 1232 1384 1385
f 1232 1385 1386
f 1232 1386 1387
f 1232 1387 1388
f 1232 1388 1235
f 1237 1389 1238
f 1389 1390 1238
f 1389 1391 1390
f 1391 1392 1390
f 1391 1393 1392
f 1393 1394 1392
f 1394 1395 1392
f 1394 1396 1395
f 1396 1397 1395
f 1396 1398 1397
f 1398 1399 1397
f 1398 1400 1399
f 1400 1401 1399
f 1400 1402 1401
f 1402 1403 1401
f 1402 1404 1403
f 1404 1405 1403
f 1404 1406 1405
f 1406 1407 1405
f 1406 1408 1407
f 1408 1409 1407
f 1408 1410 1409
f 1410 1411 1409
f 1411 1412 1409
f 1411 1413 1412
f 1413 1414 1412
f 1413 1415 1414
f 1415 1416 1414
f 1415 1417 1416
f 1417 1418 1416
f 1417 1419 1418
f 1419 1420 1418
f 1419 1421 1420
f 1421 1422 1420
f 1421 1423 1422
f 1423 1424 1422
f 1423 1425 1424
f 1425 1426 1424
f 1425 1427 1426
f 1427 1428 1426
f 1427 1429 1428
f 1429 1430 1428
f 1429 1431 1430
f 1431 1432 1430
f 1431 1433 1432
f 1433 1434 1432
f 1433 1435 1434
f 1435 1436 1434
f 1435 1437 1436
f 1437 1438 1436
f 1437 1439 1438
f 1439 1440 1438
f 1439 1441 1440
f 1441 1442 1440
f 1441 1443 1442
f 1443 1444 1442
f 1443 1445 1444
f 1445 1446 1444
f 1445 1447 1446
f 1447 1448 1446
f 1447 1449 1448
f 1449 1450 1448
f 1449 1451 1450
f 1451 1452 1450
f 1451 1453 1452
f 1453 1454 1452
f 1453 1455 1454
f 1455 1456 1454
f 1455 1457 1456
f 1457 1458 1456
f 1457 1459 1458
f 1459 1460 1458
f 1459 1461 1460
f 1461 1462 1460
f 1461 1463 1462
f 1463 1464 1462
f 1463 1465 1464
f 1465 1466 1464
f 1465 1467 1466
f 1467 1468 1466
f 1467 1469 1468
f 1467 1470 1469
f 1468 1469 1471
f 1468 1471 1472
f 1473 1468 1472
f 1473 1472 1474
f 1473 1474 1475
f 1473 1475 1476
f 1473 1476 1477
f 1473 1477 1478
f 1473 1478 1479
f 1480 1473 1479
f 1480 1479 1481
f 1480 1481 1482
f 1480 1482 1483
f 1480 1483 1484
f 1485 1480 1484
f 1485 1484 1486
f 1485 1486 1487
f 1485 1487 1488
f 1489 1485 1488
f 1489 1488 1490
f 1489 1490 1491
f 1489 1491 1492
f 1493 1489 1492
f 1493 1492 1494
f 1493 1494 1495
f 1493 1495 1496
f 1497 1493 1496
f 1497 1496 1498
f 1497 1498 1499
f 1497 1499 1500
f 1501 1497 1500
f 1501 1500 1502
f 1501 1502 1503
f 1501 1503 1504
f 1501 1504 1505
f 1501 1505 1506
f 1507 1501 1506
f 1507 1506 1508
f 1507 1508 1509
f 1507 1509 1510
f 1507 1510 1511
f 1507 1511 1512
f 1513 1507 1512
f 1514 1513 1512
f 1514 1515 1513
f 1514 1512 1516
f 1514 1516 1517
f 1518 1514 1517
f 1518 1517 1519
f 1518 1519 1520
f 1518 1520 1521
f 1518 1521 1522
f 1518 1522 1523
f 1518 1523 1524
f 1518 1524 1525
f 1526 1518 1525
f 1526 1525 1527
f 1526 1527 1528
f 1526 1528 1529
f 1526 1529 1530
f 1526 1530 1531
f 1526 1531 1532
f 1526 1532 1533
f 1526 1533 1534
f 1535 1526 1534
f 1535 1534 1536
f 1535 1536 1537
f 1535 1537 1538
f 1535 1538 1539
f 1535 1539 1540
f 1535 1540 1541
f 1535 1541 1542
f 1535 1542 1543
f 1535 1543 1544
f 1535 1544 1545
f 1467 1535 1545
f 1467 1545 1546
f 1467 1546 1547
f 1467 1547 1548
f 1467 1548 1549
f 1467 1549 1550
f 1467 1550 1470
f 1514 1551 1515
f 1551 1552 1515
f 1551 1553 1552
f 1553 1554 1552
f 1553 1555 1554
f 1555 1556 1554
f 1555 1557 1556
f 1555 1558 1557
f 1558 1559 1557
f 1558 1560 1559
f 1560 1561 1559
f 1560 1562 1561
f 1562 1563 1561
f 1562 1564 1563
f 1562 1565 1564
f 1565 1566 1564
f 1565 1567 1566
f 1567 1568 1566
f 1567 1569 1568
f 1569 1570 1568
f 1569 1571 1570
f 1571 1572 1570
f 1571 1573 1572
f 1571 1574 1573
f 1574 1575 1573
f 1574 1576 1575
f 1576 1577 1575
f 1576 1578 1577
f 1578 1579 1577
f 1578 1580 1579
f 1578 1581 1580
f 1581 1582 1580
f 1581 1583 1582
f 1583 1584 1582
f 1583 1585 1584
f 1585 1586 1584
f 1585 1587 1586
f 1587 1588 1586
f 1587 1589 1588
f 1589 1590 1588
f 1589 1591 1590
f 1591 1592 1590
f 1591 1593 1592
f 1593 1594 1592
f 1593 1595 1594
f 1595 1596 1594
f 1595 1597 1596
f 1597 1598 1596
f 1597 1599 1598
f 1599 1600 1598
f 1599 1601 1600
f 1601 1602 1600
f 1602 1603 1600
f 1602 1604 1603
f 1604 1605 1603
f 1604 1606 1605
f 1606 1607 1605
f 1606 1608 1607
f 1608 1609 1607
f 1608 1610 1609
f 1610 1611 1609
f 1610 1612 1611
f 1612 1613 1611
f 1612 1614 1613
f 1614 1615 1613
f 1615 1616 1613
f 1615 1617 1616
f 1617 1618 1616
f 1617 1619 1618
f 1619 1620 1618
f 1619 1621 1620
f 1621 1622 1620
f 1621 1623 1622
f 1623 1624 1622
f 1623 1625 1624
f 1623 1626 1625
f 1626 1627 1625
f 1626 1628 1627
f 1628 1629 1627
f 1628 1630 1629
f 1630 1631 1629
f 1630 1632 1631
f 1632 1633 1631
f 1632 1634 1633
f 1634 1635 1633
f 1634 1636 1635
f 1636 1637 1635
f 1636 1638 1637
f 1638 1639 1637
f 1638 1640 1639
f 1640 1641 1639
f 1640 1642 1641
