1730 1746 0
v 0.001721475 -0.00676854 -0.0065625
v 0.002081565 -0.000325215 -0.0065625
v 0.002109375 0 -0.0065625
v 0.002011935 -0.000630285 -0.0065625
v 0.00226629 -0.006606405 -0.0065625
v 0.00226629 0.006606405 -0.0065625
v 0.002802465 0.00639618 -0.0065625
v 0.002081565 0.000325215 -0.0065625
v 0.002011935 0.000630285 -0.0065625
v 0.001900485 0.000915225 -0.0065625
v 0.00174291 0.001185405 -0.0065625
v 0.001721475 0.00676854 -0.0065625
v 0.001543515 0.00143544 -0.0065625
v 0.00131517 0.001649175 -0.0065625
v 0.001162275 0.00688551 -0.0065625
v 0.001055985 0.001824225 -0.0065625
v 0.00076785 0.00196299 -0.0065625
v 0.00058845 0.006957465 -0.0065625
v 0.00046938 0.002056485 -0.0065625
v 0.0001599 0.00210174 -0.0065625
v 0 0.006984375 -0.0065625
v -0.0001599 0.00210174 -0.0065625
v -0.00046938 0.002056485 -0.0065625
v -0.00066582 0.006994185 -0.0065625
v -0.00076785 0.00196299 -0.0065625
v -0.001055985 0.001824225 -0.0065625
v -0.00131517 0.001649175 -0.0065625
v -0.001325355 0.00701505 -0.0065625
v -0.001543515 0.00143544 -0.0065625
v -0.00174291 0.001185405 -0.0065625
v -0.001900485 0.000915225 -0.0065625
v -0.00197859 0.007046955 -0.0065625
v -0.002011935 0.000630285 -0.0065625
v -0.002081565 0.000325215 -0.0065625
v -0.002109375 0 -0.0065625
v -0.002625525 0.007089915 -0.0065625
v -0.003309015 -0.00699627 -0.0065625
v -0.002081565 -0.000325215 -0.0065625
v -0.00326616 0.00714393 -0.0065625
v -0.00390051 0.007209 -0.0065625
v -0.004970325 -0.007006125 -0.0065625
v -0.004528575 0.007285125 -0.0065625
v -0.005150325 0.00737229 -0.0065625
v -0.006636165 -0.007018575 -0.0065625
v -0.00576579 0.00747051 -0.0065625
v -0.006374985 0.007580145 -0.0065625
v -0.006977955 0.007701585 -0.0065625
v -0.0083085 -0.007034655 -0.0065625
v -0.007574655 0.0078345 -0.0065625
v -0.008749155 0.00813333 -0.0065625
v -0.009986685 -0.00705399 -0.0065625
v -0.009898275 0.008473815 -0.0065625
v -0.011021805 0.008853165 -0.0065625
v -0.01166679 -0.0070746 -0.0065625
v -0.01211991 0.00927126 -0.0065625
v -0.0133449 -0.007094445 -0.0065625
v -0.013192845 0.009730395 -0.0065625
v -0.0142401 0.01022886 -0.0065625
v -0.015020325 -0.007113225 -0.0065625
v -0.015261105 0.01076487 -0.0065625
v -0.016695075 -0.0071319 -0.0065625
v -0.016255425 0.011336805 -0.0065625
v -0.01685271 -0.00016875 -0.0065625
v -0.016879365 -0.000319665 -0.0065625
v -0.01685271 0.00796875 -0.0065625
v -0.016879365 -1.7835e-05 -0.0065625
v -0.016879365 0.008119665 -0.0065625
v -0.01694223 0.00824427 -0.0065625
v -0.017046915 0.00834663 -0.0065625
v -0.017176605 0.008414565 -0.0065625
v -0.017224035 0.01194609 -0.0065625
v -0.01732146 0.00843585 -0.0065625
v -0.017466315 0.008414565 -0.0065625
v -0.017596005 0.00834663 -0.0065625
v -0.01770069 0.00824427 -0.0065625
v -0.017763555 0.008119665 -0.0065625
v -0.01779021 0.00796875 -0.0065625
v -0.01816653 0.0125928 -0.0065625
v -0.018369105 -0.007150515 -0.0065625
v -0.01779021 -0.00016875 -0.0065625
v -0.01908192 0.013276005 -0.0065625
v -0.02004246 -0.00716904 -0.0065625
v -0.019969155 0.01399476 -0.0065625
v -0.02031903 -0.00717288 -0.0065625
v -0.02059002 -0.00717669 -0.0065625
v -0.02082825 0.014748645 -0.0065625
v -0.02085546 -0.0071805 -0.0065625
v -0.021115335 -0.007184295 -0.0065625
v -0.02136903 -0.007188915 -0.0065625
v -0.0216165 -0.007194405 -0.0065625
v -0.0216606 0.015538395 -0.0065625
v -0.02185917 -0.00719886 -0.0065625
v -0.022098435 -0.00720033 -0.0065625
v -0.022334745 -0.00719877 -0.0065625
v -0.02246475 0.01636389 -0.0065625
v -0.02256708 -0.007195875 -0.0065625
v -0.022796055 -0.007189215 -0.0065625
v -0.023022375 -0.00717624 -0.0065625
v -0.02323902 0.01722492 -0.0065625
v -0.02324694 -0.00715593 -0.0065625
v -0.02346993 -0.00713049 -0.0065625
v -0.02368959 -0.007098255 -0.0065625
v -0.02390409 -0.007057335 -0.0065625
v -0.023981805 0.01812129 -0.0065625
v -0.024112755 -0.0070065 -0.0065625
v -0.02431803 -0.006947205 -0.0065625
v -0.02451735 -0.006878985 -0.0065625
v -0.02469519 0.01905276 -0.0065625
v -0.02470761 -0.00680106 -0.0065625
v -0.024886395 -0.006712395 -0.0065625
v -0.025055775 -0.00661197 -0.0065625
v -0.025215555 -0.00650211 -0.0065625
v -0.02536494 -0.00638556 -0.0065625
v -0.025379085 0.02001954 -0.0065625
v -0.025503 -0.00626433 -0.0065625
v -0.02562897 -0.006134775 -0.0065625
v -0.02574441 -0.005999325 -0.0065625
v -0.025851255 -0.005862135 -0.0065625
v -0.02595111 -0.005726925 -0.0065625
v -0.026031015 0.021022035 -0.0065625
v -0.02604105 -0.005590635 -0.0065625
v -0.026122785 -0.00545382 -0.0065625
v -0.026200035 -0.005319225 -0.0065625
v -0.02627631 -0.005189535 -0.0065625
v -0.02632146 0.0003 -0.0065625
v -0.02632146 0.0075 -0.0065625
v -0.026349255 -0.00506325 -0.0065625
v -0.026418855 -0.00494013 -0.0065625
v -0.02648784 -0.00482178 -0.0065625
v -0.02655891 -0.004709805 -0.0065625
v -0.026632005 -0.004604145 -0.0065625
v -0.02670594 -0.00450411 -0.0065625
v -0.026780715 -0.004409715 -0.0065625
v -0.026856315 -0.004320945 -0.0065625
v -0.027060495 -0.00414264 -0.0065625
v -0.02728605 -0.00399789 -0.0065625
v -0.027534795 -0.003886545 -0.0065625
v -0.02779332 -0.003810915 -0.0065625
v -0.02805888 -0.003769785 -0.0065625
v -0.028317645 -0.00374889 -0.0065625
v -0.02857146 -0.00375 -0.0065625
v -0.0312 -0.00375 -0.0065625
v -0.03156729 -0.003726585 -0.0065625
v -0.03192117 -0.003661845 -0.0065625
v -0.032262435 -0.003555375 -0.0065625
v -0.032594115 -0.00340563 -0.0065625
v -0.03290493 -0.003218385 -0.0065625
v -0.033188085 -0.00299601 -0.0065625
v -0.03344601 -0.002738085 -0.0065625
v -0.033668385 -0.00245493 -0.0065625
v -0.03385563 -0.00214413 -0.0065625
v -0.034005375 -0.001812435 -0.0065625
v -0.034111845 -0.00147117 -0.0065625
v -0.034176585 -0.00111729 -0.0065625
v -0.0342 -0.00075 -0.0065625
v -0.0342 0.0003 -0.0065625
v -0.026648445 0.022060665 -0.0065625
v -0.0342 0.0075 -0.0065625
v -0.02694345 0.022593645 -0.0065625
v -0.027229575 0.0231357 -0.0065625
v -0.02750715 0.023686785 -0.0065625
v -0.02777616 0.024246885 -0.0065625
v -0.028036605 0.024816 -0.0065625
v -0.028288485 0.025394145 -0.0065625
v -0.0285318 0.025981305 -0.0065625
v -0.028766565 0.02657748 -0.0065625
v -0.02899275 0.027182685 -0.0065625
v -0.029210385 0.027796905 -0.0065625
v -0.02925939 0.027942975 -0.0065625
v -0.029323035 0.02809545 -0.0065625
v -0.02940657 0.02825127 -0.0065625
v -0.029521725 0.028405125 -0.0065625
v -0.029593065 0.02847555 -0.0065625
v -0.02967525 0.02854278 -0.0065625
v -0.02976522 0.028602735 -0.0065625
v -0.029860125 0.02864964 -0.0065625
v -0.029962305 0.02868483 -0.0065625
v -0.03006699 0.028708605 -0.0065625
v -0.03016941 0.02872011 -0.0065625
v -0.031432905 0.022349085 -0.0065625
v -0.03149577 0.02222448 -0.0065625
v -0.03027192 0.02871879 -0.0065625
v -0.03140625 0.0225 -0.0065625
v -0.030465945 0.02868975 -0.0065625
v -0.03064119 0.02863029 -0.0065625
v -0.030790965 0.02855574 -0.0065625
v -0.03092253 0.02847516 -0.0065625
v -0.03103863 0.028393185 -0.0065625
v -0.031432905 0.022650915 -0.0065625
v -0.03149577 0.02277552 -0.0065625
v -0.031600455 0.02287788 -0.0065625
v -0.031730145 0.022945815 -0.0065625
v -0.03186597 0.027805125 -0.0065625
v -0.031875 0.022967085 -0.0065625
v -0.032019855 0.022945815 -0.0065625
v -0.032149545 0.02287788 -0.0065625
v -0.03225423 0.02277552 -0.0065625
v -0.032317095 0.022650915 -0.0065625
v -0.03234375 0.0225 -0.0065625
v -0.032695905 0.027204075 -0.0065625
v -0.03352845 0.02659002 -0.0065625
v -0.032317095 0.022349085 -0.0065625
v -0.03225423 0.02222448 -0.0065625
v -0.032149545 0.02212212 -0.0065625
v -0.032019855 0.022054185 -0.0065625
v -0.031875 0.022032915 -0.0065625
v -0.031730145 0.022054185 -0.0065625
v -0.031600455 0.02212212 -0.0065625
v -0.03420915 0.00777156 -0.0065625
v -0.03422781 0.008036655 -0.0065625
v -0.034255995 0.008295285 -0.0065625
v -0.03429369 0.00854745 -0.0065625
v -0.03436362 0.025962945 -0.0065625
v -0.03439764 0.00903237 -0.0065625
v -0.034540905 0.00949155 -0.0065625
v -0.034723455 0.00992499 -0.0065625
v -0.03494046 0.01033218 -0.0065625
v -0.035188455 0.01071306 -0.0065625
v -0.035202285 0.02532243 -0.0065625
v -0.03546966 0.011068335 -0.0065625
v -0.03554049 0.01920294 -0.0065625
v -0.035782635 0.011395965 -0.0065625
v -0.035567145 0.01935387 -0.0065625
v -0.035630025 0.019478475 -0.0065625
v -0.035734695 0.019580835 -0.0065625
v -0.0358644 0.019648755 -0.0065625
v -0.03600924 0.01967004 -0.0065625
v -0.036044145 0.02466858 -0.0065625
v -0.036154095 0.019648755 -0.0065625
v -0.0362838 0.019580835 -0.0065625
v -0.03638847 0.019478475 -0.0065625
v -0.036451335 0.01935387 -0.0065625
v -0.03647799 0.01920294 -0.0065625
v -0.036887445 0.024002355 -0.0065625
v -0.03649884 0.01196547 -0.0065625
v -0.036902865 0.012206205 -0.0065625
v -0.036451335 0.019052025 -0.0065625
v -0.03638847 0.01892742 -0.0065625
v -0.0362838 0.01882506 -0.0065625
v -0.036154095 0.01875714 -0.0065625
v -0.036125565 0.01169424 -0.0065625
v -0.03600924 0.018735855 -0.0065625
v -0.0358644 0.01875714 -0.0065625
v -0.035734695 0.01882506 -0.0065625
v -0.035630025 0.01892742 -0.0065625
v -0.035567145 0.019052025 -0.0065625
v -0.037337835 0.0124116 -0.0065625
v -0.0377304 0.023324655 -0.0065625
v -0.03775125 0.017175 -0.0065625
v -0.03780372 0.012581595 -0.0065625
v -0.037777905 0.017325915 -0.0065625
v -0.03784077 0.01745052 -0.0065625
v -0.037945455 0.01755288 -0.0065625
v -0.038075145 0.017620815 -0.0065625
v -0.03822 0.0176421 -0.0065625
v -0.038364855 0.017620815 -0.0065625
v -0.038494545 0.01755288 -0.0065625
v -0.038572695 0.022635645 -0.0065625
v -0.03859923 0.01745052 -0.0065625
v -0.038662095 0.017325915 -0.0065625
v -0.03868875 0.017175 -0.0065625
v -0.038828145 0.012819225 -0.0065625
v -0.039289605 0.01291194 -0.0065625
v -0.038662095 0.017024085 -0.0065625
v -0.03859923 0.01689948 -0.0065625
v -0.038560455 0.01277262 -0.0065625
v -0.038494545 0.01679712 -0.0065625
v -0.038364855 0.016729185 -0.0065625
v -0.03830049 0.012717465 -0.0065625
v -0.03822 0.0167079 -0.0065625
v -0.038075145 0.016729185 -0.0065625
v -0.03804825 0.012653805 -0.0065625
v -0.037945455 0.01679712 -0.0065625
v -0.03784077 0.01689948 -0.0065625
v -0.037777905 0.017024085 -0.0065625
v -0.039415245 0.02193486 -0.0065625
v -0.03972768 0.013045455 -0.0065625
v -0.040142385 0.01321977 -0.0065625
v -0.04025805 0.0212223 -0.0065625
v -0.04053441 0.01343547 -0.0065625
v -0.040909335 0.01369737 -0.0065625
v -0.04110108 0.02049795 -0.0065625
v -0.04125966 0.01399902 -0.0065625
v -0.04143771 0.020169 -0.0065625
v -0.041574345 0.014330895 -0.0065625
v -0.041732535 0.019818555 -0.0065625
v -0.041847375 0.01468941 -0.0065625
v -0.04198554 0.019446585 -0.0065625
v -0.04208607 0.01508274 -0.0065625
v -0.042196995 0.019052265 -0.0065625
v -0.042284895 0.015499485 -0.0065625
v -0.042368955 0.01862847 -0.0065625
v -0.04243716 0.0159267 -0.0065625
v -0.042498645 0.01818474 -0.0065625
v -0.042541965 0.01636797 -0.0065625
v -0.042581985 0.01773504 -0.0065625
v -0.04260201 0.0168258 -0.0065625
v -0.04261587 0.017285685 -0.0065625
v -0.017763555 0.007817835 -0.0065625
v -0.017763555 -0.000319665 -0.0065625
v -0.01770069 -0.00044427 -0.0065625
v -0.017596005 -0.00054663 -0.0065625
v -0.017466315 -0.000614565 -0.0065625
v -0.01732146 -0.00063585 -0.0065625
v -0.017176605 -0.000614565 -0.0065625
v -0.017046915 -0.00054663 -0.0065625
v -0.01694223 -0.00044427 -0.0065625
v -0.017763555 -1.7835e-05 -0.0065625
v -0.01770069 0.00769323 -0.0065625
v -0.01770069 0.00010677 -0.0065625
v -0.017596005 0.00759087 -0.0065625
v -0.017596005 0.00020913 -0.0065625
v -0.017466315 0.007522935 -0.0065625
v -0.017466315 0.000277065 -0.0065625
v -0.01732146 0.00750165 -0.0065625
v -0.01732146 0.00029835 -0.0065625
v -0.017176605 0.007522935 -0.0065625
v -0.017176605 0.000277065 -0.0065625
v -0.017046915 0.00759087 -0.0065625
v -0.017046915 0.00020913 -0.0065625
v -0.01694223 0.00769323 -0.0065625
v -0.01694223 0.00010677 -0.0065625
v -0.016879365 0.007817835 -0.0065625
v -0.002011935 -0.000630285 -0.0065625
v -0.001900485 -0.000915225 -0.0065625
v -0.00174291 -0.001185405 -0.0065625
v -0.001652235 -0.006989025 -0.0065625
v -0.001543515 -0.00143544 -0.0065625
v -0.00131517 -0.001649175 -0.0065625
v -0.001055985 -0.001824225 -0.0065625
v -0.00076785 -0.00196299 -0.0065625
v -0.00046938 -0.002056485 -0.0065625
v -0.0001599 -0.00210174 -0.0065625
v 0 -0.006984375 -0.0065625
v 0.0001599 -0.00210174 -0.0065625
v 0.00046938 -0.002056485 -0.0065625
v 0.00058845 -0.006957465 -0.0065625
v 0.00076785 -0.00196299 -0.0065625
v 0.001055985 -0.001824225 -0.0065625
v 0.001162275 -0.00688551 -0.0065625
v 0.00131517 -0.001649175 -0.0065625
v 0.001543515 -0.00143544 -0.0065625
v 0.00174291 -0.001185405 -0.0065625
v 0.001900485 -0.000915225 -0.0065625
v 0.002802465 -0.00639618 -0.0065625
v 0.00332472 0.00614058 -0.0065625
v 0.00332472 -0.00614058 -0.0065625
v 0.0038226 0.005844915 -0.0065625
v 0.0038226 -0.005844915 -0.0065625
v 0.00428763 0.00551313 -0.0065625
v 0.00428763 -0.00551313 -0.0065625
v 0.00472782 0.005139075 -0.0065625
v 0.00472782 -0.005139075 -0.0065625
v 0.005139075 0.00472782 -0.0065625
v 0.005139075 -0.00472782 -0.0065625
v 0.00551313 0.00428763 -0.0065625
v 0.00551313 -0.00428763 -0.0065625
v 0.005844915 0.0038226 -0.0065625
v 0.005844915 -0.0038226 -0.0065625
v 0.00614058 0.00332472 -0.0065625
v 0.00614058 -0.00332472 -0.0065625
v 0.00639618 0.002802465 -0.0065625
v 0.00639618 -0.002802465 -0.0065625
v 0.006606405 0.00226629 -0.0065625
v 0.006606405 -0.00226629 -0.0065625
v 0.006769125 0.00171777 -0.0065625
v 0.006769125 -0.00171777 -0.0065625
v 0.00688749 0.00114981 -0.0065625
v 0.00688749 -0.00114981 -0.0065625
v 0.00695985 0.00057336 -0.0065625
v 0.00695985 -0.00057336 -0.0065625
v 0.006984375 0 -0.0065625
v 0.002109375 0 -0.0028125
v 0.002109375 0 -0.0065625
v 0.002081565 -0.000325215 -0.0065625
v 0.002081565 0.000325215 -0.0028125
v 0.002081565 -0.000325215 -0.0028125
v 0.002011935 -0.000630285 -0.0065625
v 0.002011935 -0.000630285 -0.0028125
v 0.001900485 -0.000915225 -0.0065625
v 0.001900485 -0.000915225 -0.0028125
v 0.00174291 -0.001185405 -0.0065625
v 0.00174291 -0.001185405 -0.0028125
v 0.001543515 -0.00143544 -0.0065625
v 0.001543515 -0.00143544 -0.0028125
v 0.00131517 -0.001649175 -0.0065625
v 0.00131517 -0.001649175 -0.0028125
v 0.001055985 -0.001824225 -0.0065625
v 0.001055985 -0.001824225 -0.0028125
v 0.00076785 -0.00196299 -0.0065625
v 0.00076785 -0.00196299 -0.0028125
v 0.00046938 -0.002056485 -0.0065625
v 0.00046938 -0.002056485 -0.0028125
v 0.0001599 -0.00210174 -0.0065625
v 0.0001599 -0.00210174 -0.0028125
v -0.0001599 -0.00210174 -0.0065625
v -0.0001599 -0.00210174 -0.0028125
v -0.00046938 -0.002056485 -0.0065625
v -0.00046938 -0.002056485 -0.0028125
v -0.00076785 -0.00196299 -0.0065625
v -0.00076785 -0.00196299 -0.0028125
v -0.001055985 -0.001824225 -0.0065625
v -0.001055985 -0.001824225 -0.0028125
v -0.00131517 -0.001649175 -0.0065625
v -0.00131517 -0.001649175 -0.0028125
v -0.001543515 -0.00143544 -0.0065625
v -0.001543515 -0.00143544 -0.0028125
v -0.00174291 -0.001185405 -0.0065625
v -0.00174291 -0.001185405 -0.0028125
v -0.001900485 -0.000915225 -0.0065625
v -0.001900485 -0.000915225 -0.0028125
v -0.002011935 -0.000630285 -0.0065625
v -0.002011935 -0.000630285 -0.0028125
v -0.002081565 -0.000325215 -0.0065625
v -0.002081565 -0.000325215 -0.0028125
v -0.002109375 0 -0.0065625
v -0.002109375 0 -0.0028125
v -0.002081565 0.000325215 -0.0065625
v -0.002081565 0.000325215 -0.0028125
v -0.002011935 0.000630285 -0.0065625
v -0.002011935 0.000630285 -0.0028125
v -0.001900485 0.000915225 -0.0065625
v -0.001900485 0.000915225 -0.0028125
v -0.00174291 0.001185405 -0.0065625
v -0.00174291 0.001185405 -0.0028125
v -0.001543515 0.00143544 -0.0065625
v -0.001543515 0.00143544 -0.0028125
v -0.00131517 0.001649175 -0.0065625
v -0.00131517 0.001649175 -0.0028125
v -0.001055985 0.001824225 -0.0065625
v -0.001055985 0.001824225 -0.0028125
v -0.00076785 0.00196299 -0.0065625
v -0.00076785 0.00196299 -0.0028125
v -0.00046938 0.002056485 -0.0065625
v -0.00046938 0.002056485 -0.0028125
v -0.0001599 0.00210174 -0.0065625
v -0.0001599 0.00210174 -0.0028125
v 0.0001599 0.00210174 -0.0065625
v 0.0001599 0.00210174 -0.0028125
v 0.00046938 0.002056485 -0.0065625
v 0.00046938 0.002056485 -0.0028125
v 0.00076785 0.00196299 -0.0065625
v 0.00076785 0.00196299 -0.0028125
v 0.001055985 0.001824225 -0.0065625
v 0.001055985 0.001824225 -0.0028125
v 0.00131517 0.001649175 -0.0065625
v 0.00131517 0.001649175 -0.0028125
v 0.001543515 0.00143544 -0.0065625
v 0.001543515 0.00143544 -0.0028125
v 0.00174291 0.001185405 -0.0065625
v 0.00174291 0.001185405 -0.0028125
v 0.001900485 0.000915225 -0.0065625
v 0.001900485 0.000915225 -0.0028125
v 0.002011935 0.000630285 -0.0065625
v 0.002011935 0.000630285 -0.0028125
v 0.002081565 0.000325215 -0.0065625
v -0.03140625 0.0225 -0.0028125
v -0.03140625 0.0225 -0.0065625
v -0.031432905 0.022349085 -0.0065625
v -0.031432905 0.022650915 -0.0028125
v -0.031432905 0.022349085 -0.0028125
v -0.03149577 0.02222448 -0.0065625
v -0.03149577 0.02222448 -0.0028125
v -0.031600455 0.02212212 -0.0065625
v -0.031600455 0.02212212 -0.0028125
v -0.031730145 0.022054185 -0.0065625
v -0.031730145 0.022054185 -0.0028125
v -0.031875 0.022032915 -0.0065625
v -0.031875 0.022032915 -0.0028125
v -0.032019855 0.022054185 -0.0065625
v -0.032019855 0.022054185 -0.0028125
v -0.032149545 0.02212212 -0.0065625
v -0.032149545 0.02212212 -0.0028125
v -0.03225423 0.02222448 -0.0065625
v -0.03225423 0.02222448 -0.0028125
v -0.032317095 0.022349085 -0.0065625
v -0.032317095 0.022349085 -0.0028125
v -0.03234375 0.0225 -0.0065625
v -0.03234375 0.0225 -0.0028125
v -0.032317095 0.022650915 -0.0065625
v -0.032317095 0.022650915 -0.0028125
v -0.03225423 0.02277552 -0.0065625
v -0.03225423 0.02277552 -0.0028125
v -0.032149545 0.02287788 -0.0065625
v -0.032149545 0.02287788 -0.0028125
v -0.032019855 0.022945815 -0.0065625
v -0.032019855 0.022945815 -0.0028125
v -0.031875 0.022967085 -0.0065625
v -0.031875 0.022967085 -0.0028125
v -0.031730145 0.022945815 -0.0065625
v -0.031730145 0.022945815 -0.0028125
v -0.031600455 0.02287788 -0.0065625
v -0.031600455 0.02287788 -0.0028125
v -0.03149577 0.02277552 -0.0065625
v -0.03149577 0.02277552 -0.0028125
v -0.031432905 0.022650915 -0.0065625
v -0.03554049 0.01920294 -0.0028125
v -0.03554049 0.01920294 -0.0065625
v -0.035567145 0.019052025 -0.0065625
v -0.035567145 0.01935387 -0.0028125
v -0.035567145 0.019052025 -0.0028125
v -0.035630025 0.01892742 -0.0065625
v -0.035630025 0.01892742 -0.0028125
v -0.035734695 0.01882506 -0.0065625
v -0.035734695 0.01882506 -0.0028125
v -0.0358644 0.01875714 -0.0065625
v -0.0358644 0.01875714 -0.0028125
v -0.03600924 0.018735855 -0.0065625
v -0.03600924 0.018735855 -0.0028125
v -0.036154095 0.01875714 -0.0065625
v -0.036154095 0.01875714 -0.0028125
v -0.0362838 0.01882506 -0.0065625
v -0.0362838 0.01882506 -0.0028125
v -0.03638847 0.01892742 -0.0065625
v -0.03638847 0.01892742 -0.0028125
v -0.036451335 0.019052025 -0.0065625
v -0.036451335 0.019052025 -0.0028125
v -0.03647799 0.01920294 -0.0065625
v -0.03647799 0.01920294 -0.0028125
v -0.036451335 0.01935387 -0.0065625
v -0.036451335 0.01935387 -0.0028125
v -0.03638847 0.019478475 -0.0065625
v -0.03638847 0.019478475 -0.0028125
v -0.0362838 0.019580835 -0.0065625
v -0.0362838 0.019580835 -0.0028125
v -0.036154095 0.019648755 -0.0065625
v -0.036154095 0.019648755 -0.0028125
v -0.03600924 0.01967004 -0.0065625
v -0.03600924 0.01967004 -0.0028125
v -0.0358644 0.019648755 -0.0065625
v -0.0358644 0.019648755 -0.0028125
v -0.035734695 0.019580835 -0.0065625
v -0.035734695 0.019580835 -0.0028125
v -0.035630025 0.019478475 -0.0065625
v -0.035630025 0.019478475 -0.0028125
v -0.035567145 0.01935387 -0.0065625
v -0.03775125 0.017175 -0.0028125
v -0.03775125 0.017175 -0.0065625
v -0.037777905 0.017024085 -0.0065625
v -0.037777905 0.017325915 -0.0028125
v -0.037777905 0.017024085 -0.0028125
v -0.03784077 0.01689948 -0.0065625
v -0.03784077 0.01689948 -0.0028125
v -0.037945455 0.01679712 -0.0065625
v -0.037945455 0.01679712 -0.0028125
v -0.038075145 0.016729185 -0.0065625
v -0.038075145 0.016729185 -0.0028125
v -0.03822 0.0167079 -0.0065625
v -0.03822 0.0167079 -0.0028125
v -0.038364855 0.016729185 -0.0065625
v -0.038364855 0.016729185 -0.0028125
v -0.038494545 0.01679712 -0.0065625
v -0.038494545 0.01679712 -0.0028125
v -0.03859923 0.01689948 -0.0065625
v -0.03859923 0.01689948 -0.0028125
v -0.038662095 0.017024085 -0.0065625
v -0.038662095 0.017024085 -0.0028125
v -0.03868875 0.017175 -0.0065625
v -0.03868875 0.017175 -0.0028125
v -0.038662095 0.017325915 -0.0065625
v -0.038662095 0.017325915 -0.0028125
v -0.03859923 0.01745052 -0.0065625
v -0.03859923 0.01745052 -0.0028125
v -0.038494545 0.01755288 -0.0065625
v -0.038494545 0.01755288 -0.0028125
v -0.038364855 0.017620815 -0.0065625
v -0.038364855 0.017620815 -0.0028125
v -0.03822 0.0176421 -0.0065625
v -0.03822 0.0176421 -0.0028125
v -0.038075145 0.017620815 -0.0065625
v -0.038075145 0.017620815 -0.0028125
v -0.037945455 0.01755288 -0.0065625
v -0.037945455 0.01755288 -0.0028125
v -0.03784077 0.01745052 -0.0065625
v -0.03784077 0.01745052 -0.0028125
v -0.037777905 0.017325915 -0.0065625
v -0.01685271 0.00796875 -0.0028125
v -0.01685271 0.00796875 -0.0065625
v -0.016879365 0.007817835 -0.0065625
v -0.016879365 0.008119665 -0.0028125
v -0.016879365 0.007817835 -0.0028125
v -0.01694223 0.00769323 -0.0065625
v -0.01694223 0.00769323 -0.0028125
v -0.017046915 0.00759087 -0.0065625
v -0.017046915 0.00759087 -0.0028125
v -0.017176605 0.007522935 -0.0065625
v -0.017176605 0.007522935 -0.0028125
v -0.01732146 0.00750165 -0.0065625
v -0.01732146 0.00750165 -0.0028125
v -0.017466315 0.007522935 -0.0065625
v -0.017466315 0.007522935 -0.0028125
v -0.017596005 0.00759087 -0.0065625
v -0.017596005 0.00759087 -0.0028125
v -0.01770069 0.00769323 -0.0065625
v -0.01770069 0.00769323 -0.0028125
v -0.017763555 0.007817835 -0.0065625
v -0.017763555 0.007817835 -0.0028125
v -0.01779021 0.00796875 -0.0065625
v -0.01779021 0.00796875 -0.0028125
v -0.017763555 0.008119665 -0.0065625
v -0.017763555 0.008119665 -0.0028125
v -0.01770069 0.00824427 -0.0065625
v -0.01770069 0.00824427 -0.0028125
v -0.017596005 0.00834663 -0.0065625
v -0.017596005 0.00834663 -0.0028125
v -0.017466315 0.008414565 -0.0065625
v -0.017466315 0.008414565 -0.0028125
v -0.01732146 0.00843585 -0.0065625
v -0.01732146 0.00843585 -0.0028125
v -0.017176605 0.008414565 -0.0065625
v -0.017176605 0.008414565 -0.0028125
v -0.017046915 0.00834663 -0.0065625
v -0.017046915 0.00834663 -0.0028125
v -0.01694223 0.00824427 -0.0065625
v -0.01694223 0.00824427 -0.0028125
v -0.016879365 0.008119665 -0.0065625
v -0.01685271 -0.00016875 -0.0028125
v -0.01685271 -0.00016875 -0.0065625
v -0.016879365 -0.000319665 -0.0065625
v -0.016879365 -1.7835e-05 -0.0028125
v -0.016879365 -0.000319665 -0.0028125
v -0.01694223 -0.00044427 -0.0065625
v -0.01694223 -0.00044427 -0.0028125
v -0.017046915 -0.00054663 -0.0065625
v -0.017046915 -0.00054663 -0.0028125
v -0.017176605 -0.000614565 -0.0065625
v -0.017176605 -0.000614565 -0.0028125
v -0.01732146 -0.00063585 -0.0065625
v -0.01732146 -0.00063585 -0.0028125
v -0.017466315 -0.000614565 -0.0065625
v -0.017466315 -0.000614565 -0.0028125
v -0.017596005 -0.00054663 -0.0065625
v -0.017596005 -0.00054663 -0.0028125
v -0.01770069 -0.00044427 -0.0065625
v -0.01770069 -0.00044427 -0.0028125
v -0.017763555 -0.000319665 -0.0065625
v -0.017763555 -0.000319665 -0.0028125
v -0.01779021 -0.00016875 -0.0065625
v -0.01779021 -0.00016875 -0.0028125
v -0.017763555 -1.7835e-05 -0.0065625
v -0.017763555 -1.7835e-05 -0.0028125
v -0.01770069 0.00010677 -0.0065625
v -0.01770069 0.00010677 -0.0028125
v -0.017596005 0.00020913 -0.0065625
v -0.017596005 0.00020913 -0.0028125
v -0.017466315 0.000277065 -0.0065625
v -0.017466315 0.000277065 -0.0028125
v -0.01732146 0.00029835 -0.0065625
v -0.01732146 0.00029835 -0.0028125
v -0.017176605 0.000277065 -0.0065625
v -0.017176605 0.000277065 -0.0028125
v -0.017046915 0.00020913 -0.0065625
v -0.017046915 0.00020913 -0.0028125
v -0.01694223 0.00010677 -0.0065625
v -0.01694223 0.00010677 -0.0028125
v -0.016879365 -1.7835e-05 -0.0065625
v -0.02981796 -0.00375 -0.005069955
v -0.0312 -0.00375 -0.0065625
v -0.02857146 -0.00375 -0.0065625
v -0.029878275 -0.00375 -0.00513027
v -0.02976738 -0.00375 -0.00500343
v -0.029728905 -0.00375 -0.004933035
v -0.02857146 -0.00375 -0.0028125
v -0.028317645 -0.00374889 -0.0065625
v -0.02970075 -0.00375 -0.00485703
v -0.02968272 -0.00375 -0.00477519
v -0.029674785 -0.00375 -0.0046875
v -0.02968272 -0.00375 -0.00459981
v -0.02970075 -0.00375 -0.00451797
v -0.029728905 -0.00375 -0.004441965
v -0.02976738 -0.00375 -0.00437157
v -0.02981796 -0.00375 -0.004305045
v -0.029878275 -0.00375 -0.00424473
v -0.0299448 -0.00375 -0.004194165
v -0.030016245 -0.00375 -0.00415539
v -0.030095625 -0.00375 -0.004126335
v -0.03017871 -0.00375 -0.004107975
v -0.03026073 -0.00375 -0.00410157
v -0.03034275 -0.00375 -0.004107975
v -0.030425835 -0.00375 -0.004126335
v -0.0305052 -0.00375 -0.00415539
v -0.03057666 -0.00375 -0.004194165
v -0.0312 -0.00375 -0.0028125
v -0.030643185 -0.00375 -0.00424473
v -0.030703485 -0.00375 -0.004305045
v -0.03075408 -0.00375 -0.00437157
v -0.030792555 -0.00375 -0.004441965
v -0.030820695 -0.00375 -0.00451797
v -0.03083874 -0.00375 -0.00459981
v -0.03156729 -0.003726585 -0.0028125
v -0.03084666 -0.00375 -0.0046875
v -0.03083874 -0.00375 -0.00477519
v -0.030820695 -0.00375 -0.00485703
v -0.030792555 -0.00375 -0.004933035
v -0.03075408 -0.00375 -0.00500343
v -0.030703485 -0.00375 -0.005069955
v -0.030643185 -0.00375 -0.00513027
v -0.03057666 -0.00375 -0.005180835
v -0.0305052 -0.00375 -0.00521961
v -0.030425835 -0.00375 -0.005248665
v -0.03034275 -0.00375 -0.005267025
v -0.03026073 -0.00375 -0.005273445
v -0.03017871 -0.00375 -0.005267025
v -0.030095625 -0.00375 -0.005248665
v -0.030016245 -0.00375 -0.00521961
v -0.0299448 -0.00375 -0.005180835
v -0.03156729 -0.003726585 -0.0065625
v -0.03192117 -0.003661845 -0.0028125
v -0.03192117 -0.003661845 -0.0065625
v -0.032262435 -0.003555375 -0.0028125
v -0.032262435 -0.003555375 -0.0065625
v -0.032594115 -0.00340563 -0.0028125
v -0.032594115 -0.00340563 -0.0065625
v -0.03290493 -0.003218385 -0.0028125
v -0.03290493 -0.003218385 -0.0065625
v -0.033188085 -0.00299601 -0.0028125
v -0.033188085 -0.00299601 -0.0065625
v -0.03344601 -0.002738085 -0.0028125
v -0.03344601 -0.002738085 -0.0065625
v -0.033668385 -0.00245493 -0.0028125
v -0.033668385 -0.00245493 -0.0065625
v -0.03385563 -0.00214413 -0.0028125
v -0.03385563 -0.00214413 -0.0065625
v -0.034005375 -0.001812435 -0.0028125
v -0.034005375 -0.001812435 -0.0065625
v -0.034111845 -0.00147117 -0.0028125
v -0.034111845 -0.00147117 -0.0065625
v -0.034176585 -0.00111729 -0.0028125
v -0.034176585 -0.00111729 -0.0065625
v -0.0342 -0.00075 -0.0028125
v -0.0342 -0.00075 -0.0065625
v -0.0342 0.0003 -0.0065625
v -0.0342 0.0003 -0.0028125
v -0.02832156 -0.003748785 -0.0028125
v -0.028065525 -0.00376908 -0.0028125
v -0.02805888 -0.003769785 -0.0065625
v -0.02780154 -0.003809025 -0.0028125
v -0.02779332 -0.003810915 -0.0065625
v -0.027542985 -0.00388362 -0.0028125
v -0.027534795 -0.003886545 -0.0065625
v -0.027292635 -0.003994275 -0.0028125
v -0.02728605 -0.00399789 -0.0065625
v -0.027064365 -0.00414006 -0.0028125
v -0.027060495 -0.00414264 -0.0065625
v -0.026957865 -0.004226115 -0.0028125
v -0.026856315 -0.004320945 -0.0065625
v -0.026856315 -0.004320945 -0.0028125
v -0.026780715 -0.004409715 -0.0065625
v -0.02670594 -0.00450411 -0.0065625
v -0.026678175 -0.00455427 -0.0028125
v -0.026632005 -0.004604145 -0.0065625
v -0.02655891 -0.004709805 -0.0065625
v -0.026499585 -0.004812255 -0.0028125
v -0.02648784 -0.00482178 -0.0065625
v -0.026418855 -0.00494013 -0.0065625
v -0.026349255 -0.00506325 -0.0065625
v -0.026325465 -0.00509928 -0.0028125
v -0.02627631 -0.005189535 -0.0065625
v -0.026200035 -0.005319225 -0.0065625
v -0.02615193 -0.00541191 -0.0028125
v -0.026122785 -0.00545382 -0.0065625
v -0.02605425 -0.005567865 -0.0028125
v -0.02604105 -0.005590635 -0.0065625
v -0.02594589 -0.00572298 -0.0028125
v -0.02595111 -0.005726925 -0.0065625
v -0.025851255 -0.005862135 -0.0065625
v -0.025830345 -0.005882145 -0.0028125
v -0.02574441 -0.005999325 -0.0065625
v -0.02570742 -0.00603939 -0.0028125
v -0.02562897 -0.006134775 -0.0065625
v -0.02557683 -0.00618846 -0.0028125
v -0.025503 -0.00626433 -0.0065625
v -0.025438155 -0.006323295 -0.0028125
v -0.02536494 -0.00638556 -0.0065625
v -0.02528931 -0.00644622 -0.0028125
v -0.025215555 -0.00650211 -0.0065625
v -0.02513169 -0.006559485 -0.0028125
v -0.025055775 -0.00661197 -0.0065625
v -0.02496831 -0.00666249 -0.0028125
v -0.024886395 -0.006712395 -0.0065625
v -0.02480214 -0.00675456 -0.0028125
v -0.02470761 -0.00680106 -0.0065625
v -0.02451735 -0.006878985 -0.0065625
v -0.02446269 -0.00690177 -0.0028125
v -0.02431803 -0.006947205 -0.0065625
v -0.024112755 -0.0070065 -0.0065625
v -0.024111735 -0.007006635 -0.0028125
v -0.02390409 -0.007057335 -0.0065625
v -0.023764185 -0.00708615 -0.0028125
v -0.02368959 -0.007098255 -0.0065625
v -0.02346993 -0.00713049 -0.0065625
v -0.023418495 -0.007137645 -0.0028125
v -0.02324694 -0.00715593 -0.0065625
v -0.023075655 -0.0071724 -0.0028125
v -0.023022375 -0.00717624 -0.0065625
v -0.022796055 -0.007189215 -0.0065625
v -0.022737015 -0.007191105 -0.0028125
v -0.02256708 -0.007195875 -0.0065625
v -0.0223998 -0.007198785 -0.0028125
v -0.022334745 -0.00719877 -0.0065625
v -0.022098435 -0.00720033 -0.0065625
v -0.022062315 -0.00720045 -0.0028125
v -0.02185917 -0.00719886 -0.0065625
v -0.02172489 -0.00719583 -0.0028125
v -0.0216165 -0.007194405 -0.0065625
v -0.021385905 -0.007190235 -0.0028125
v -0.02136903 -0.007188915 -0.0065625
v -0.021115335 -0.007184295 -0.0065625
v -0.021045615 -0.00718272 -0.0028125
v -0.02085546 -0.0071805 -0.0065625
v -0.020708145 -0.007176555 -0.0028125
v -0.02059002 -0.00717669 -0.0065625
v -0.02037396 -0.007172175 -0.0028125
v -0.02031903 -0.00717288 -0.0065625
v -0.02004246 -0.00716904 -0.0065625
v -0.02004246 -0.00716904 -0.0028125
v -0.018369105 -0.007150515 -0.0065625
v -0.018369105 -0.007150515 -0.0028125
v -0.016695075 -0.0071319 -0.0065625
v -0.016695075 -0.0071319 -0.0028125
v -0.015020325 -0.007113225 -0.0065625
v -0.015020325 -0.007113225 -0.0028125
v -0.0133449 -0.007094445 -0.0065625
v -0.0133449 -0.007094445 -0.0028125
v -0.01166679 -0.0070746 -0.0065625
v -0.01166679 -0.0070746 -0.0028125
v -0.009986685 -0.00705399 -0.0065625
v -0.009986685 -0.00705399 -0.0028125
v -0.0083085 -0.007034655 -0.0065625
v -0.0083085 -0.007034655 -0.0028125
v -0.006636165 -0.007018575 -0.0065625
v -0.006636165 -0.007018575 -0.0028125
v -0.004970325 -0.007006125 -0.0065625
v -0.004970325 -0.007006125 -0.0028125
v -0.003309015 -0.00699627 -0.0065625
v -0.003309015 -0.00699627 -0.0028125
v -0.001652235 -0.006989025 -0.0065625
v -0.001652235 -0.006989025 -0.0028125
v 0 -0.006984375 -0.0065625
v 0 -0.006984375 -0.0028125
v 0.00058845 -0.006957465 -0.0065625
v 0.00058845 -0.006957465 -0.0028125
v 0.001162275 -0.00688551 -0.0065625
v 0.001162275 -0.00688551 -0.0028125
v 0.001721475 -0.00676854 -0.0065625
v 0.001721475 -0.00676854 -0.0028125
v 0.00226629 -0.006606405 -0.0065625
v 0.00226629 -0.006606405 -0.0028125
v 0.002802465 -0.00639618 -0.0065625
v 0.002802465 -0.00639618 -0.0028125
v 0.00332472 -0.00614058 -0.0065625
v 0.00332472 -0.00614058 -0.0028125
v 0.0038226 -0.005844915 -0.0065625
v 0.0038226 -0.005844915 -0.0028125
v 0.00428763 -0.00551313 -0.0065625
v 0.00428763 -0.00551313 -0.0028125
v 0.00472782 -0.005139075 -0.0065625
v 0.00472782 -0.005139075 -0.0028125
v 0.005139075 -0.00472782 -0.0065625
v 0.005139075 -0.00472782 -0.0028125
v 0.00551313 -0.00428763 -0.0065625
v 0.00551313 -0.00428763 -0.0028125
v 0.005844915 -0.0038226 -0.0065625
v 0.005844915 -0.0038226 -0.0028125
v 0.00614058 -0.00332472 -0.0065625
v 0.00614058 -0.00332472 -0.0028125
v 0.00639618 -0.002802465 -0.0065625
v 0.00639618 -0.002802465 -0.0028125
v 0.006606405 -0.00226629 -0.0065625
v 0.006606405 -0.00226629 -0.0028125
v 0.006769125 -0.00171777 -0.0065625
v 0.006769125 -0.00171777 -0.0028125
v 0.00688749 -0.00114981 -0.0065625
v 0.00688749 -0.00114981 -0.0028125
v 0.00695985 -0.00057336 -0.0065625
v 0.00695985 -0.00057336 -0.0028125
v 0.006984375 0 -0.0065625
v 0.006984375 0 -0.0028125
v 0.00695985 0.00057336 -0.0065625
v 0.00695985 0.00057336 -0.0028125
v 0.00688749 0.00114981 -0.0065625
v 0.00688749 0.00114981 -0.0028125
v 0.006769125 0.00171777 -0.0065625
v 0.006769125 0.00171777 -0.0028125
v 0.006606405 0.00226629 -0.0065625
v 0.006606405 0.00226629 -0.0028125
v 0.00639618 0.002802465 -0.0065625
v 0.00639618 0.002802465 -0.0028125
v 0.00614058 0.00332472 -0.0065625
v 0.00614058 0.00332472 -0.0028125
v 0.005844915 0.0038226 -0.0065625
v 0.005844915 0.0038226 -0.0028125
v 0.00551313 0.00428763 -0.0065625
v 0.00551313 0.00428763 -0.0028125
v 0.005139075 0.00472782 -0.0065625
v 0.005139075 0.00472782 -0.0028125
v 0.00472782 0.005139075 -0.0065625
v 0.00472782 0.005139075 -0.0028125
v 0.00428763 0.00551313 -0.0065625
v 0.00428763 0.00551313 -0.0028125
v 0.0038226 0.005844915 -0.0065625
v 0.0038226 0.005844915 -0.0028125
v 0.00332472 0.00614058 -0.0065625
v 0.00332472 0.00614058 -0.0028125
v 0.002802465 0.00639618 -0.0065625
v 0.002802465 0.00639618 -0.0028125
v 0.00226629 0.006606405 -0.0065625
v 0.00226629 0.006606405 -0.0028125
v 0.001721475 0.00676854 -0.0065625
v 0.001721475 0.00676854 -0.0028125
v 0.001162275 0.00688551 -0.0065625
v 0.001162275 0.00688551 -0.0028125
v 0.00058845 0.006957465 -0.0065625
v 0.00058845 0.006957465 -0.0028125
v 0 0.006984375 -0.0065625
v 0 0.006984375 -0.0028125
v -0.00066582 0.006994185 -0.0065625
v -0.00066582 0.006994185 -0.0028125
v -0.001325355 0.00701505 -0.0065625
v -0.001325355 0.00701505 -0.0028125
v -0.00197859 0.007046955 -0.0065625
v -0.00197859 0.007046955 -0.0028125
v -0.002625525 0.007089915 -0.0065625
v -0.002625525 0.007089915 -0.0028125
v -0.00326616 0.00714393 -0.0065625
v -0.00326616 0.00714393 -0.0028125
v -0.00390051 0.007209 -0.0065625
v -0.00390051 0.007209 -0.0028125
v -0.004528575 0.007285125 -0.0065625
v -0.004528575 0.007285125 -0.0028125
v -0.005150325 0.00737229 -0.0065625
v -0.005150325 0.00737229 -0.0028125
v -0.00576579 0.00747051 -0.0065625
v -0.00576579 0.00747051 -0.0028125
v -0.006374985 0.007580145 -0.0065625
v -0.006374985 0.007580145 -0.0028125
v -0.006977955 0.007701585 -0.0065625
v -0.006977955 0.007701585 -0.0028125
v -0.007574655 0.0078345 -0.0065625
v -0.007574655 0.0078345 -0.0028125
v -0.008749155 0.00813333 -0.0065625
v -0.008749155 0.00813333 -0.0028125
v -0.009898275 0.008473815 -0.0065625
v -0.009898275 0.008473815 -0.0028125
v -0.011021805 0.008853165 -0.0065625
v -0.011021805 0.008853165 -0.0028125
v -0.01211991 0.00927126 -0.0065625
v -0.01211991 0.00927126 -0.0028125
v -0.013192845 0.009730395 -0.0065625
v -0.013192845 0.009730395 -0.0028125
v -0.0142401 0.01022886 -0.0065625
v -0.0142401 0.01022886 -0.0028125
v -0.015261105 0.01076487 -0.0065625
v -0.015261105 0.01076487 -0.0028125
v -0.016255425 0.011336805 -0.0065625
v -0.016255425 0.011336805 -0.0028125
v -0.017224035 0.01194609 -0.0065625
v -0.017224035 0.01194609 -0.0028125
v -0.01816653 0.0125928 -0.0065625
v -0.01816653 0.0125928 -0.0028125
v -0.01908192 0.013276005 -0.0065625
v -0.01908192 0.013276005 -0.0028125
v -0.019969155 0.01399476 -0.0065625
v -0.019969155 0.01399476 -0.0028125
v -0.02082825 0.014748645 -0.0065625
v -0.02082825 0.014748645 -0.0028125
v -0.0216606 0.015538395 -0.0065625
v -0.0216606 0.015538395 -0.0028125
v -0.02246475 0.01636389 -0.0065625
v -0.02246475 0.01636389 -0.0028125
v -0.02323902 0.01722492 -0.0065625
v -0.02323902 0.01722492 -0.0028125
v -0.023981805 0.01812129 -0.0065625
v -0.023981805 0.01812129 -0.0028125
v -0.02469519 0.01905276 -0.0065625
v -0.02469519 0.01905276 -0.0028125
v -0.025379085 0.02001954 -0.0065625
v -0.025379085 0.02001954 -0.0028125
v -0.026031015 0.021022035 -0.0065625
v -0.026031015 0.021022035 -0.0028125
v -0.026648445 0.022060665 -0.0065625
v -0.026648445 0.022060665 -0.0028125
v -0.02694345 0.022593645 -0.0065625
v -0.02694345 0.022593645 -0.0028125
v -0.027229575 0.0231357 -0.0065625
v -0.027229575 0.0231357 -0.0028125
v -0.02750715 0.023686785 -0.0065625
v -0.02750715 0.023686785 -0.0028125
v -0.02777616 0.024246885 -0.0065625
v -0.02777616 0.024246885 -0.0028125
v -0.028036605 0.024816 -0.0065625
v -0.028036605 0.024816 -0.0028125
v -0.028288485 0.025394145 -0.0065625
v -0.028288485 0.025394145 -0.0028125
v -0.0285318 0.025981305 -0.0065625
v -0.0285318 0.025981305 -0.0028125
v -0.028766565 0.02657748 -0.0065625
v -0.028766565 0.02657748 -0.0028125
v -0.02899275 0.027182685 -0.0065625
v -0.02899275 0.027182685 -0.0028125
v -0.029210385 0.027796905 -0.0065625
v -0.029210385 0.027796905 -0.0028125
v -0.02925939 0.027942975 -0.0065625
v -0.0292731 0.027977535 -0.0028125
v -0.029323035 0.02809545 -0.0065625
v -0.029312145 0.02807043 -0.0028125
v -0.029356425 0.028164915 -0.0028125
v -0.02940657 0.02825127 -0.0065625
v -0.02941005 0.028256625 -0.0028125
v -0.029521725 0.028405125 -0.0065625
v -0.02947359 0.028346505 -0.0028125
v -0.029545275 0.028429815 -0.0028125
v -0.029593065 0.02847555 -0.0065625
v -0.029625825 0.028504395 -0.0028125
v -0.02967525 0.02854278 -0.0065625
v -0.02971281 0.02856984 -0.0028125
v -0.02976522 0.028602735 -0.0065625
v -0.02980191 0.02862264 -0.0028125
v -0.029860125 0.02864964 -0.0065625
v -0.029962305 0.02868483 -0.0065625
v -0.029985855 0.028693275 -0.0028125
v -0.03006699 0.028708605 -0.0065625
v -0.03016761 0.028719495 -0.0028125
v -0.03016941 0.02872011 -0.0065625
v -0.03027192 0.02871879 -0.0065625
v -0.03033924 0.02871264 -0.0028125
v -0.030465945 0.02868975 -0.0065625
v -0.030494505 0.028681965 -0.0028125
v -0.03064119 0.02863029 -0.0065625
v -0.030630945 0.02863503 -0.0028125
v -0.03075018 0.028578465 -0.0028125
v -0.030790965 0.02855574 -0.0065625
v -0.03085575 0.028517145 -0.0028125
v -0.03092253 0.02847516 -0.0065625
v -0.03095115 0.02845443 -0.0028125
v -0.03103863 0.028393185 -0.0065625
v -0.03103863 0.028393185 -0.0028125
v -0.03186597 0.027805125 -0.0065625
v -0.03186597 0.027805125 -0.0028125
v -0.032695905 0.027204075 -0.0065625
v -0.032695905 0.027204075 -0.0028125
v -0.03352845 0.02659002 -0.0065625
v -0.03352845 0.02659002 -0.0028125
v -0.03436362 0.025962945 -0.0065625
v -0.03436362 0.025962945 -0.0028125
v -0.035202285 0.02532243 -0.0065625
v -0.035202285 0.02532243 -0.0028125
v -0.036044145 0.02466858 -0.0065625
v -0.036044145 0.02466858 -0.0028125
v -0.036887445 0.024002355 -0.0065625
v -0.036887445 0.024002355 -0.0028125
v -0.0377304 0.023324655 -0.0065625
v -0.0377304 0.023324655 -0.0028125
v -0.038572695 0.022635645 -0.0065625
v -0.038572695 0.022635645 -0.0028125
v -0.039415245 0.02193486 -0.0065625
v -0.039415245 0.02193486 -0.0028125
v -0.04025805 0.0212223 -0.0065625
v -0.04025805 0.0212223 -0.0028125
v -0.04110108 0.02049795 -0.0065625
v -0.04110108 0.02049795 -0.0028125
v -0.04143771 0.020169 -0.0065625
v -0.04143771 0.020169 -0.0028125
v -0.041732535 0.019818555 -0.0065625
v -0.041732535 0.019818555 -0.0028125
v -0.04198554 0.019446585 -0.0065625
v -0.04198554 0.019446585 -0.0028125
v -0.042196995 0.019052265 -0.0065625
v -0.042196995 0.019052265 -0.0028125
v -0.042368955 0.01862847 -0.0065625
v -0.042368955 0.01862847 -0.0028125
v -0.042498645 0.01818474 -0.0065625
v -0.042498645 0.01818474 -0.0028125
v -0.042581985 0.01773504 -0.0065625
v -0.042581985 0.01773504 -0.0028125
v -0.04261587 0.017285685 -0.0065625
v -0.04261587 0.017285685 -0.0028125
v -0.04260201 0.0168258 -0.0065625
v -0.04260201 0.0168258 -0.0028125
v -0.042541965 0.01636797 -0.0065625
v -0.042541965 0.01636797 -0.0028125
v -0.04243716 0.0159267 -0.0065625
v -0.04243716 0.0159267 -0.0028125
v -0.042284895 0.015499485 -0.0065625
v -0.042284895 0.015499485 -0.0028125
v -0.04208607 0.01508274 -0.0065625
v -0.04208607 0.01508274 -0.0028125
v -0.041847375 0.01468941 -0.0065625
v -0.041847375 0.01468941 -0.0028125
v -0.041574345 0.014330895 -0.0065625
v -0.041574345 0.014330895 -0.0028125
v -0.04125966 0.01399902 -0.0065625
v -0.04125966 0.01399902 -0.0028125
v -0.040909335 0.01369737 -0.0065625
v -0.040909335 0.01369737 -0.0028125
v -0.04053441 0.01343547 -0.0065625
v -0.04053441 0.01343547 -0.0028125
v -0.040142385 0.01321977 -0.0065625
v -0.040142385 0.01321977 -0.0028125
v -0.03972768 0.013045455 -0.0065625
v -0.03972768 0.013045455 -0.0028125
v -0.039289605 0.01291194 -0.0065625
v -0.039289605 0.01291194 -0.0028125
v -0.038828145 0.012819225 -0.0065625
v -0.038828145 0.012819225 -0.0028125
v -0.038560455 0.01277262 -0.0065625
v -0.038560455 0.01277262 -0.0028125
v -0.03830049 0.012717465 -0.0065625
v -0.03830049 0.012717465 -0.0028125
v -0.03804825 0.012653805 -0.0065625
v -0.03804825 0.012653805 -0.0028125
v -0.03780372 0.012581595 -0.0065625
v -0.03780372 0.012581595 -0.0028125
v -0.037337835 0.0124116 -0.0065625
v -0.037337835 0.0124116 -0.0028125
v -0.036902865 0.012206205 -0.0065625
v -0.036902865 0.012206205 -0.0028125
v -0.03649884 0.01196547 -0.0065625
v -0.03649884 0.01196547 -0.0028125
v -0.036125565 0.01169424 -0.0065625
v -0.036125565 0.01169424 -0.0028125
v -0.035782635 0.011395965 -0.0065625
v -0.035782635 0.011395965 -0.0028125
v -0.03546966 0.011068335 -0.0065625
v -0.03546966 0.011068335 -0.0028125
v -0.035188455 0.01071306 -0.0065625
v -0.035188455 0.01071306 -0.0028125
v -0.03494046 0.01033218 -0.0065625
v -0.03494046 0.01033218 -0.0028125
v -0.034723455 0.00992499 -0.0065625
v -0.034723455 0.00992499 -0.0028125
v -0.034540905 0.00949155 -0.0065625
v -0.034540905 0.00949155 -0.0028125
v -0.03439764 0.00903237 -0.0065625
v -0.03439764 0.00903237 -0.0028125
v -0.03429369 0.00854745 -0.0065625
v -0.03429369 0.00854745 -0.0028125
v -0.034255995 0.008295285 -0.0065625
v -0.034255995 0.008295285 -0.0028125
v -0.03422781 0.008036655 -0.0065625
v -0.03422781 0.008036655 -0.0028125
v -0.03420915 0.00777156 -0.0065625
v -0.03420915 0.00777156 -0.0028125
v -0.0342 0.0075 -0.0065625
v -0.0342 0.0075 -0.0028125
v -0.03040587 0.0075 -0.00513243
v -0.0342 0.0075 -0.0065625
v -0.02632146 0.0075 -0.0065625
v -0.030535185 0.0075 -0.005067105
v -0.03026073 0.0075 -0.00515625
v -0.030115575 0.0075 -0.00513243
v -0.029986275 0.0075 -0.005067105
v -0.029881125 0.0075 -0.004961955
v -0.02981661 0.0075 -0.004835655
v -0.02979198 0.0075 -0.0046875
v -0.02981661 0.0075 -0.004539345
v -0.029881125 0.0075 -0.004413045
v -0.029986275 0.0075 -0.004307895
v -0.02632146 0.0075 -0.0028125
v -0.030115575 0.0075 -0.00424257
v -0.0342 0.0075 -0.0028125
v -0.03026073 0.0075 -0.00421875
v -0.03040587 0.0075 -0.00424257
v -0.030535185 0.0075 -0.004307895
v -0.030640335 0.0075 -0.004413045
v -0.03070485 0.0075 -0.004539345
v -0.03072948 0.0075 -0.0046875
v -0.03070485 0.0075 -0.004835655
v -0.030640335 0.0075 -0.004961955
v -0.02632146 0.0075 -0.0028125
v -0.02632146 0.0075 -0.0065625
v -0.02632146 0.0003 -0.0065625
v -0.02632146 0.0003 -0.0028125
v -0.030095625 0.0003 -0.005248665
v -0.02632146 0.0003 -0.0065625
v -0.0342 0.0003 -0.0065625
v -0.030016245 0.0003 -0.00521961
v -0.03017871 0.0003 -0.005267025
v -0.03026073 0.0003 -0.005273445
v -0.03034275 0.0003 -0.005267025
v -0.030425835 0.0003 -0.005248665
v -0.0305052 0.0003 -0.00521961
v -0.03057666 0.0003 -0.005180835
v -0.030643185 0.0003 -0.00513027
v -0.030703485 0.0003 -0.005069955
v -0.03075408 0.0003 -0.00500343
v -0.030792555 0.0003 -0.004933035
v -0.030820695 0.0003 -0.00485703
v -0.03083874 0.0003 -0.00477519
v -0.03084666 0.0003 -0.0046875
v -0.03083874 0.0003 -0.00459981
v -0.030820695 0.0003 -0.00451797
v -0.030792555 0.0003 -0.004441965
v -0.03075408 0.0003 -0.00437157
v -0.030703485 0.0003 -0.004305045
v -0.030643185 0.0003 -0.00424473
v -0.03057666 0.0003 -0.004194165
v -0.0342 0.0003 -0.0028125
v -0.0305052 0.0003 -0.00415539
v -0.030425835 0.0003 -0.004126335
v -0.02632146 0.0003 -0.0028125
v -0.03034275 0.0003 -0.004107975
v -0.03026073 0.0003 -0.00410157
v -0.03017871 0.0003 -0.004107975
v -0.030095625 0.0003 -0.004126335
v -0.030016245 0.0003 -0.00415539
v -0.0299448 0.0003 -0.004194165
v -0.029878275 0.0003 -0.00424473
v -0.02981796 0.0003 -0.004305045
v -0.02976738 0.0003 -0.00437157
v -0.029728905 0.0003 -0.004441965
v -0.02970075 0.0003 -0.00451797
v -0.02968272 0.0003 -0.00459981
v -0.029674785 0.0003 -0.0046875
v -0.02968272 0.0003 -0.00477519
v -0.02970075 0.0003 -0.00485703
v -0.029728905 0.0003 -0.004933035
v -0.02976738 0.0003 -0.00500343
v -0.02981796 0.0003 -0.005069955
v -0.029878275 0.0003 -0.00513027
v -0.0299448 0.0003 -0.005180835
v 0.001721475 0.00676854 -0.0028125
v 0.002081565 0.000325215 -0.0028125
v 0.002109375 0 -0.0028125
v 0.002011935 0.000630285 -0.0028125
v 0.00226629 0.006606405 -0.0028125
v 0.00226629 -0.006606405 -0.0028125
v 0.002802465 -0.00639618 -0.0028125
v 0.002081565 -0.000325215 -0.0028125
v 0.002011935 -0.000630285 -0.0028125
v 0.001900485 -0.000915225 -0.0028125
v 0.00174291 -0.001185405 -0.0028125
v 0.001721475 -0.00676854 -0.0028125
v 0.001543515 -0.00143544 -0.0028125
v 0.00131517 -0.001649175 -0.0028125
v 0.001162275 -0.00688551 -0.0028125
v 0.001055985 -0.001824225 -0.0028125
v 0.00076785 -0.00196299 -0.0028125
v 0.00058845 -0.006957465 -0.0028125
v 0.00046938 -0.002056485 -0.0028125
v 0.0001599 -0.00210174 -0.0028125
v 0 -0.006984375 -0.0028125
v -0.0001599 -0.00210174 -0.0028125
v -0.00046938 -0.002056485 -0.0028125
v -0.00076785 -0.00196299 -0.0028125
v -0.001055985 -0.001824225 -0.0028125
v -0.00131517 -0.001649175 -0.0028125
v -0.001543515 -0.00143544 -0.0028125
v -0.001652235 -0.006989025 -0.0028125
v -0.00174291 -0.001185405 -0.0028125
v -0.001900485 -0.000915225 -0.0028125
v -0.002011935 -0.000630285 -0.0028125
v -0.002081565 -0.000325215 -0.0028125
v -0.002109375 0 -0.0028125
v -0.002625525 0.007089915 -0.0028125
v -0.002081565 0.000325215 -0.0028125
v -0.00326616 0.00714393 -0.0028125
v -0.003309015 -0.00699627 -0.0028125
v -0.00390051 0.007209 -0.0028125
v -0.004528575 0.007285125 -0.0028125
v -0.004970325 -0.007006125 -0.0028125
v -0.005150325 0.00737229 -0.0028125
v -0.00576579 0.00747051 -0.0028125
v -0.006374985 0.007580145 -0.0028125
v -0.006636165 -0.007018575 -0.0028125
v -0.006977955 0.007701585 -0.0028125
v -0.007574655 0.0078345 -0.0028125
v -0.0083085 -0.007034655 -0.0028125
v -0.008749155 0.00813333 -0.0028125
v -0.009898275 0.008473815 -0.0028125
v -0.009986685 -0.00705399 -0.0028125
v -0.011021805 0.008853165 -0.0028125
v -0.01166679 -0.0070746 -0.0028125
v -0.01211991 0.00927126 -0.0028125
v -0.013192845 0.009730395 -0.0028125
v -0.0133449 -0.007094445 -0.0028125
v -0.0142401 0.01022886 -0.0028125
v -0.015020325 -0.007113225 -0.0028125
v -0.015261105 0.01076487 -0.0028125
v -0.016255425 0.011336805 -0.0028125
v -0.016695075 -0.0071319 -0.0028125
v -0.01685271 0.00796875 -0.0028125
v -0.017224035 0.01194609 -0.0028125
v -0.01685271 -0.00016875 -0.0028125
v -0.016879365 0.007817835 -0.0028125
v -0.016879365 -0.000319665 -0.0028125
v -0.01694223 -0.00044427 -0.0028125
v -0.017046915 -0.00054663 -0.0028125
v -0.017176605 -0.000614565 -0.0028125
v -0.01732146 -0.00063585 -0.0028125
v -0.017466315 -0.000614565 -0.0028125
v -0.017596005 -0.00054663 -0.0028125
v -0.01770069 -0.00044427 -0.0028125
v -0.017763555 -0.000319665 -0.0028125
v -0.01779021 -0.00016875 -0.0028125
v -0.018369105 -0.007150515 -0.0028125
v -0.01816653 0.0125928 -0.0028125
v -0.01779021 0.00796875 -0.0028125
v -0.01908192 0.013276005 -0.0028125
v -0.019969155 0.01399476 -0.0028125
v -0.02004246 -0.00716904 -0.0028125
v -0.02082825 0.014748645 -0.0028125
v -0.02037396 -0.007172175 -0.0028125
v -0.020708145 -0.007176555 -0.0028125
v -0.021045615 -0.00718272 -0.0028125
v -0.0216606 0.015538395 -0.0028125
v -0.021385905 -0.007190235 -0.0028125
v -0.02172489 -0.00719583 -0.0028125
v -0.02246475 0.01636389 -0.0028125
v -0.022062315 -0.00720045 -0.0028125
v -0.0223998 -0.007198785 -0.0028125
v -0.022737015 -0.007191105 -0.0028125
v -0.02323902 0.01722492 -0.0028125
v -0.023075655 -0.0071724 -0.0028125
v -0.023418495 -0.007137645 -0.0028125
v -0.023981805 0.01812129 -0.0028125
v -0.023764185 -0.00708615 -0.0028125
v -0.024111735 -0.007006635 -0.0028125
v -0.02469519 0.01905276 -0.0028125
v -0.02446269 -0.00690177 -0.0028125
v -0.02480214 -0.00675456 -0.0028125
v -0.025379085 0.02001954 -0.0028125
v -0.02496831 -0.00666249 -0.0028125
v -0.02513169 -0.006559485 -0.0028125
v -0.02528931 -0.00644622 -0.0028125
v -0.025438155 -0.006323295 -0.0028125
v -0.026031015 0.021022035 -0.0028125
v -0.02557683 -0.00618846 -0.0028125
v -0.02570742 -0.00603939 -0.0028125
v -0.025830345 -0.005882145 -0.0028125
v -0.02594589 -0.00572298 -0.0028125
v -0.02605425 -0.005567865 -0.0028125
v -0.02632146 0.0075 -0.0028125
v -0.026648445 0.022060665 -0.0028125
v -0.02615193 -0.00541191 -0.0028125
v -0.02632146 0.0003 -0.0028125
v -0.026325465 -0.00509928 -0.0028125
v -0.026499585 -0.004812255 -0.0028125
v -0.026678175 -0.00455427 -0.0028125
v -0.026856315 -0.004320945 -0.0028125
v -0.026957865 -0.004226115 -0.0028125
v -0.027064365 -0.00414006 -0.0028125
v -0.027292635 -0.003994275 -0.0028125
v -0.0342 0.0003 -0.0028125
v -0.027542985 -0.00388362 -0.0028125
v -0.02780154 -0.003809025 -0.0028125
v -0.028065525 -0.00376908 -0.0028125
v -0.02832156 -0.003748785 -0.0028125
v -0.02857146 -0.00375 -0.0028125
v -0.0312 -0.00375 -0.0028125
v -0.03156729 -0.003726585 -0.0028125
v -0.03192117 -0.003661845 -0.0028125
v -0.032262435 -0.003555375 -0.0028125
v -0.032594115 -0.00340563 -0.0028125
v -0.03290493 -0.003218385 -0.0028125
v -0.033188085 -0.00299601 -0.0028125
v -0.03344601 -0.002738085 -0.0028125
v -0.033668385 -0.00245493 -0.0028125
v -0.03385563 -0.00214413 -0.0028125
v -0.034005375 -0.001812435 -0.0028125
v -0.034111845 -0.00147117 -0.0028125
v -0.034176585 -0.00111729 -0.0028125
v -0.0342 -0.00075 -0.0028125
v -0.02694345 0.022593645 -0.0028125
v -0.027229575 0.0231357 -0.0028125
v -0.02750715 0.023686785 -0.0028125
v -0.02777616 0.024246885 -0.0028125
v -0.028036605 0.024816 -0.0028125
v -0.028288485 0.025394145 -0.0028125
v -0.0285318 0.025981305 -0.0028125
v -0.028766565 0.02657748 -0.0028125
v -0.02899275 0.027182685 -0.0028125
v -0.029210385 0.027796905 -0.0028125
v -0.0292731 0.027977535 -0.0028125
v -0.029312145 0.02807043 -0.0028125
v -0.029356425 0.028164915 -0.0028125
v -0.02941005 0.028256625 -0.0028125
v -0.02947359 0.028346505 -0.0028125
v -0.029545275 0.028429815 -0.0028125
v -0.029625825 0.028504395 -0.0028125
v -0.02971281 0.02856984 -0.0028125
v -0.02980191 0.02862264 -0.0028125
v -0.029985855 0.028693275 -0.0028125
v -0.03016761 0.028719495 -0.0028125
v -0.03033924 0.02871264 -0.0028125
v -0.030494505 0.028681965 -0.0028125
v -0.030630945 0.02863503 -0.0028125
v -0.03075018 0.028578465 -0.0028125
v -0.03085575 0.028517145 -0.0028125
v -0.03095115 0.02845443 -0.0028125
v -0.03103863 0.028393185 -0.0028125
v -0.03140625 0.0225 -0.0028125
v -0.03186597 0.027805125 -0.0028125
v -0.031432905 0.022349085 -0.0028125
v -0.03149577 0.02222448 -0.0028125
v -0.031600455 0.02212212 -0.0028125
v -0.031730145 0.022054185 -0.0028125
v -0.031875 0.022032915 -0.0028125
v -0.032019855 0.022054185 -0.0028125
v -0.032149545 0.02212212 -0.0028125
v -0.03225423 0.02222448 -0.0028125
v -0.032317095 0.022349085 -0.0028125
v -0.0342 0.0075 -0.0028125
v -0.03352845 0.02659002 -0.0028125
v -0.03436362 0.025962945 -0.0028125
v -0.03234375 0.0225 -0.0028125
v -0.032695905 0.027204075 -0.0028125
v -0.032317095 0.022650915 -0.0028125
v -0.03225423 0.02277552 -0.0028125
v -0.032149545 0.02287788 -0.0028125
v -0.032019855 0.022945815 -0.0028125
v -0.031875 0.022967085 -0.0028125
v -0.031730145 0.022945815 -0.0028125
v -0.031600455 0.02287788 -0.0028125
v -0.03149577 0.02277552 -0.0028125
v -0.031432905 0.022650915 -0.0028125
v -0.03420915 0.00777156 -0.0028125
v -0.03422781 0.008036655 -0.0028125
v -0.034255995 0.008295285 -0.0028125
v -0.03429369 0.00854745 -0.0028125
v -0.03439764 0.00903237 -0.0028125
v -0.035202285 0.02532243 -0.0028125
v -0.034540905 0.00949155 -0.0028125
v -0.034723455 0.00992499 -0.0028125
v -0.03494046 0.01033218 -0.0028125
v -0.035188455 0.01071306 -0.0028125
v -0.03546966 0.011068335 -0.0028125
v -0.03554049 0.01920294 -0.0028125
v -0.036044145 0.02466858 -0.0028125
v -0.035567145 0.019052025 -0.0028125
v -0.035630025 0.01892742 -0.0028125
v -0.035734695 0.01882506 -0.0028125
v -0.035782635 0.011395965 -0.0028125
v -0.0358644 0.01875714 -0.0028125
v -0.03600924 0.018735855 -0.0028125
v -0.036125565 0.01169424 -0.0028125
v -0.036154095 0.01875714 -0.0028125
v -0.0362838 0.01882506 -0.0028125
v -0.03638847 0.01892742 -0.0028125
v -0.036451335 0.019052025 -0.0028125
v -0.03647799 0.01920294 -0.0028125
v -0.03649884 0.01196547 -0.0028125
v -0.036887445 0.024002355 -0.0028125
v -0.036902865 0.012206205 -0.0028125
v -0.036451335 0.01935387 -0.0028125
v -0.03638847 0.019478475 -0.0028125
v -0.0362838 0.019580835 -0.0028125
v -0.036154095 0.019648755 -0.0028125
v -0.03600924 0.01967004 -0.0028125
v -0.0358644 0.019648755 -0.0028125
v -0.035734695 0.019580835 -0.0028125
v -0.035630025 0.019478475 -0.0028125
v -0.035567145 0.01935387 -0.0028125
v -0.0377304 0.023324655 -0.0028125
v -0.037337835 0.0124116 -0.0028125
v -0.03775125 0.017175 -0.0028125
v -0.038572695 0.022635645 -0.0028125
v -0.037777905 0.017024085 -0.0028125
v -0.03780372 0.012581595 -0.0028125
v -0.03784077 0.01689948 -0.0028125
v -0.037945455 0.01679712 -0.0028125
v -0.03804825 0.012653805 -0.0028125
v -0.038075145 0.016729185 -0.0028125
v -0.03822 0.0167079 -0.0028125
v -0.03830049 0.012717465 -0.0028125
v -0.038364855 0.016729185 -0.0028125
v -0.038494545 0.01679712 -0.0028125
v -0.038560455 0.01277262 -0.0028125
v -0.03859923 0.01689948 -0.0028125
v -0.038662095 0.017024085 -0.0028125
v -0.03868875 0.017175 -0.0028125
v -0.038828145 0.012819225 -0.0028125
v -0.039415245 0.02193486 -0.0028125
v -0.039289605 0.01291194 -0.0028125
v -0.038662095 0.017325915 -0.0028125
v -0.03859923 0.01745052 -0.0028125
v -0.038494545 0.01755288 -0.0028125
v -0.038364855 0.017620815 -0.0028125
v -0.03822 0.0176421 -0.0028125
v -0.038075145 0.017620815 -0.0028125
v -0.037945455 0.01755288 -0.0028125
v -0.03784077 0.01745052 -0.0028125
v -0.037777905 0.017325915 -0.0028125
v -0.03972768 0.013045455 -0.0028125
v -0.04025805 0.0212223 -0.0028125
v -0.040142385 0.01321977 -0.0028125
v -0.04053441 0.01343547 -0.0028125
v -0.04110108 0.02049795 -0.0028125
v -0.040909335 0.01369737 -0.0028125
v -0.04125966 0.01399902 -0.0028125
v -0.04143771 0.020169 -0.0028125
v -0.041574345 0.014330895 -0.0028125
v -0.041732535 0.019818555 -0.0028125
v -0.041847375 0.01468941 -0.0028125
v -0.04198554 0.019446585 -0.0028125
v -0.04208607 0.01508274 -0.0028125
v -0.042196995 0.019052265 -0.0028125
v -0.042284895 0.015499485 -0.0028125
v -0.042368955 0.01862847 -0.0028125
v -0.04243716 0.0159267 -0.0028125
v -0.042498645 0.01818474 -0.0028125
v -0.042541965 0.01636797 -0.0028125
v -0.042581985 0.01773504 -0.0028125
v -0.04260201 0.0168258 -0.0028125
v -0.04261587 0.017285685 -0.0028125
v -0.017763555 -1.7835e-05 -0.0028125
v -0.017763555 0.008119665 -0.0028125
v -0.01770069 0.00824427 -0.0028125
v -0.017596005 0.00834663 -0.0028125
v -0.017466315 0.008414565 -0.0028125
v -0.01732146 0.00843585 -0.0028125
v -0.017176605 0.008414565 -0.0028125
v -0.017046915 0.00834663 -0.0028125
v -0.01694223 0.00824427 -0.0028125
v -0.016879365 0.008119665 -0.0028125
v -0.017763555 0.007817835 -0.0028125
v -0.01770069 0.00010677 -0.0028125
v -0.01770069 0.00769323 -0.0028125
v -0.017596005 0.00020913 -0.0028125
v -0.017596005 0.00759087 -0.0028125
v -0.017466315 0.000277065 -0.0028125
v -0.017466315 0.007522935 -0.0028125
v -0.01732146 0.00029835 -0.0028125
v -0.01732146 0.00750165 -0.0028125
v -0.017176605 0.000277065 -0.0028125
v -0.017176605 0.007522935 -0.0028125
v -0.017046915 0.00020913 -0.0028125
v -0.017046915 0.00759087 -0.0028125
v -0.01694223 0.00010677 -0.0028125
v -0.01694223 0.00769323 -0.0028125
v -0.016879365 -1.7835e-05 -0.0028125
v -0.002011935 0.000630285 -0.0028125
v -0.00197859 0.007046955 -0.0028125
v -0.001900485 0.000915225 -0.0028125
v -0.00174291 0.001185405 -0.0028125
v -0.001543515 0.00143544 -0.0028125
v -0.001325355 0.00701505 -0.0028125
v -0.00131517 0.001649175 -0.0028125
v -0.001055985 0.001824225 -0.0028125
v -0.00076785 0.00196299 -0.0028125
v -0.00066582 0.006994185 -0.0028125
v -0.00046938 0.002056485 -0.0028125
v -0.0001599 0.00210174 -0.0028125
v 0 0.006984375 -0.0028125
v 0.0001599 0.00210174 -0.0028125
v 0.00046938 0.002056485 -0.0028125
v 0.00058845 0.006957465 -0.0028125
v 0.00076785 0.00196299 -0.0028125
v 0.001055985 0.001824225 -0.0028125
v 0.001162275 0.00688551 -0.0028125
v 0.00131517 0.001649175 -0.0028125
v 0.001543515 0.00143544 -0.0028125
v 0.00174291 0.001185405 -0.0028125
v 0.001900485 0.000915225 -0.0028125
v 0.002802465 0.00639618 -0.0028125
v 0.00332472 -0.00614058 -0.0028125
v 0.00332472 0.00614058 -0.0028125
v 0.0038226 -0.005844915 -0.0028125
v 0.0038226 0.005844915 -0.0028125
v 0.00428763 -0.00551313 -0.0028125
v 0.00428763 0.00551313 -0.0028125
v 0.00472782 -0.005139075 -0.0028125
v 0.00472782 0.005139075 -0.0028125
v 0.005139075 -0.00472782 -0.0028125
v 0.005139075 0.00472782 -0.0028125
v 0.00551313 -0.00428763 -0.0028125
v 0.00551313 0.00428763 -0.0028125
v 0.005844915 -0.0038226 -0.0028125
v 0.005844915 0.0038226 -0.0028125
v 0.00614058 -0.00332472 -0.0028125
v 0.00614058 0.00332472 -0.0028125
v 0.00639618 -0.002802465 -0.0028125
v 0.00639618 0.002802465 -0.0028125
v 0.006606405 -0.00226629 -0.0028125
v 0.006606405 0.00226629 -0.0028125
v 0.006769125 -0.00171777 -0.0028125
v 0.006769125 0.00171777 -0.0028125
v 0.00688749 -0.00114981 -0.0028125
v 0.00688749 0.00114981 -0.0028125
v 0.00695985 -0.00057336 -0.0028125
v 0.00695985 0.00057336 -0.0028125
v 0.006984375 0 -0.0028125
v -0.02979198 0.015 -0.0046875
v -0.02979198 0.0075 -0.0046875
v -0.02981661 0.0075 -0.004539345
v -0.029818635 0.015 -0.004838415
v -0.029818635 0.015 -0.004536585
v -0.029881125 0.0075 -0.004413045
v -0.0298815 0.015 -0.00441198
v -0.029986275 0.0075 -0.004307895
v -0.029986185 0.015 -0.00430962
v -0.030115575 0.0075 -0.00424257
v -0.030115875 0.015 -0.004241685
v -0.03026073 0.0075 -0.00421875
v -0.03026073 0.015 -0.0042204
v -0.03040587 0.0075 -0.00424257
v -0.030405585 0.015 -0.004241685
v -0.030535185 0.0075 -0.004307895
v -0.030535275 0.015 -0.00430962
v -0.030640335 0.0075 -0.004413045
v -0.03063996 0.015 -0.00441198
v -0.03070485 0.0075 -0.004539345
v -0.030702825 0.015 -0.004536585
v -0.03072948 0.0075 -0.0046875
v -0.03072948 0.015 -0.0046875
v -0.03070485 0.0075 -0.004835655
v -0.030702825 0.015 -0.004838415
v -0.030640335 0.0075 -0.004961955
v -0.03063996 0.015 -0.00496302
v -0.030535185 0.0075 -0.005067105
v -0.030535275 0.015 -0.00506538
v -0.03040587 0.0075 -0.00513243
v -0.030405585 0.015 -0.005133315
v -0.03026073 0.0075 -0.00515625
v -0.03026073 0.015 -0.0051546
v -0.030115575 0.0075 -0.00513243
v -0.030115875 0.015 -0.005133315
v -0.029986275 0.0075 -0.005067105
v -0.029986185 0.015 -0.00506538
v -0.029881125 0.0075 -0.004961955
v -0.0298815 0.015 -0.00496302
v -0.02981661 0.0075 -0.004835655
v -0.029674785 -0.00375 -0.0046875
v -0.029674785 0.0003 -0.0046875
v -0.02968272 0.0003 -0.00477519
v -0.02968272 -0.00375 -0.00459981
v -0.02968272 -0.00375 -0.00477519
v -0.02970075 0.0003 -0.00485703
v -0.02970075 -0.00375 -0.00485703
v -0.029728905 0.0003 -0.004933035
v -0.029728905 -0.00375 -0.004933035
v -0.02976738 0.0003 -0.00500343
v -0.02976738 -0.00375 -0.00500343
v -0.02981796 0.0003 -0.005069955
v -0.02981796 -0.00375 -0.005069955
v -0.029878275 0.0003 -0.00513027
v -0.029878275 -0.00375 -0.00513027
v -0.0299448 0.0003 -0.005180835
v -0.0299448 -0.00375 -0.005180835
v -0.030016245 0.0003 -0.00521961
v -0.030016245 -0.00375 -0.00521961
v -0.030095625 0.0003 -0.005248665
v -0.030095625 -0.00375 -0.005248665
v -0.03017871 0.0003 -0.005267025
v -0.03017871 -0.00375 -0.005267025
v -0.03026073 0.0003 -0.005273445
v -0.03026073 -0.00375 -0.005273445
v -0.03034275 0.0003 -0.005267025
v -0.03034275 -0.00375 -0.005267025
v -0.030425835 0.0003 -0.005248665
v -0.030425835 -0.00375 -0.005248665
v -0.0305052 0.0003 -0.00521961
v -0.0305052 -0.00375 -0.00521961
v -0.03057666 0.0003 -0.005180835
v -0.03057666 -0.00375 -0.005180835
v -0.030643185 0.0003 -0.00513027
v -0.030643185 -0.00375 -0.00513027
v -0.030703485 0.0003 -0.005069955
v -0.030703485 -0.00375 -0.005069955
v -0.03075408 0.0003 -0.00500343
v -0.03075408 -0.00375 -0.00500343
v -0.030792555 0.0003 -0.004933035
v -0.030792555 -0.00375 -0.004933035
v -0.030820695 0.0003 -0.00485703
v -0.030820695 -0.00375 -0.00485703
v -0.03083874 0.0003 -0.00477519
v -0.03083874 -0.00375 -0.00477519
v -0.03084666 0.0003 -0.0046875
v -0.03084666 -0.00375 -0.0046875
v -0.03083874 0.0003 -0.00459981
v -0.03083874 -0.00375 -0.00459981
v -0.030820695 0.0003 -0.00451797
v -0.030820695 -0.00375 -0.00451797
v -0.030792555 0.0003 -0.004441965
v -0.030792555 -0.00375 -0.004441965
v -0.03075408 0.0003 -0.00437157
v -0.03075408 -0.00375 -0.00437157
v -0.030703485 0.0003 -0.004305045
v -0.030703485 -0.00375 -0.004305045
v -0.030643185 0.0003 -0.00424473
v -0.030643185 -0.00375 -0.00424473
v -0.03057666 0.0003 -0.004194165
v -0.03057666 -0.00375 -0.004194165
v -0.0305052 0.0003 -0.00415539
v -0.0305052 -0.00375 -0.00415539
v -0.030425835 0.0003 -0.004126335
v -0.030425835 -0.00375 -0.004126335
v -0.03034275 0.0003 -0.004107975
v -0.03034275 -0.00375 -0.004107975
v -0.03026073 0.0003 -0.00410157
v -0.03026073 -0.00375 -0.00410157
v -0.03017871 0.0003 -0.004107975
v -0.03017871 -0.00375 -0.004107975
v -0.030095625 0.0003 -0.004126335
v -0.030095625 -0.00375 -0.004126335
v -0.030016245 0.0003 -0.00415539
v -0.030016245 -0.00375 -0.00415539
v -0.0299448 0.0003 -0.004194165
v -0.0299448 -0.00375 -0.004194165
v -0.029878275 0.0003 -0.00424473
v -0.029878275 -0.00375 -0.00424473
v -0.02981796 0.0003 -0.004305045
v -0.02981796 -0.00375 -0.004305045
v -0.02976738 0.0003 -0.00437157
v -0.02976738 -0.00375 -0.00437157
v -0.029728905 0.0003 -0.004441965
v -0.029728905 -0.00375 -0.004441965
v -0.02970075 0.0003 -0.00451797
v -0.02970075 -0.00375 -0.00451797
v -0.02968272 0.0003 -0.00459981
v -0.030702825 0.015 -0.004838415
v -0.029818635 0.015 -0.004838415
v -0.02979198 0.015 -0.0046875
v -0.03063996 0.015 -0.00496302
v -0.03072948 0.015 -0.0046875
v -0.029818635 0.015 -0.004536585
v -0.030702825 0.015 -0.004536585
v -0.0298815 0.015 -0.00441198
v -0.03063996 0.015 -0.00441198
v -0.029986185 0.015 -0.00430962
v -0.030535275 0.015 -0.00430962
v -0.030115875 0.015 -0.004241685
v -0.030405585 0.015 -0.004241685
v -0.03026073 0.015 -0.0042204
v -0.0298815 0.015 -0.00496302
v -0.030535275 0.015 -0.00506538
v -0.029986185 0.015 -0.00506538
v -0.030405585 0.015 -0.005133315
v -0.030115875 0.015 -0.005133315
v -0.03026073 0.015 -0.0051546
f 1 2 3
f 1 4 2
f 5 1 3
f 6 5 3
f 6 7 5
f 6 3 8
f 6 8 9
f 6 9 10
f 6 10 11
f 12 6 11
f 12 11 13
f 12 13 14
f 15 12 14
f 15 14 16
f 15 16 17
f 18 15 17
f 18 17 19
f 18 19 20
f 21 18 20
f 21 20 22
f 21 22 23
f 24 21 23
f 24 23 25
f 24 25 26
f 24 26 27
f 28 24 27
f 28 27 29
f 28 29 30
f 28 30 31
f 32 28 31
f 32 31 33
f 32 33 34
f 32 34 35
f 36 32 35
f 36 35 37
f 37 35 38
f 39 36 37
f 40 39 37
f 40 37 41
f 42 40 41
f 43 42 41
f 43 41 44
f 45 43 44
f 46 45 44
f 47 46 44
f 47 44 48
f 49 47 48
f 50 49 48
f 50 48 51
f 52 50 51
f 53 52 51
f 53 51 54
f 55 53 54
f 55 54 56
f 57 55 56
f 58 57 56
f 58 56 59
f 60 58 59
f 60 59 61
f 62 60 61
f 62 61 63
f 61 64 63
f 62 63 65
f 66 65 63
f 62 65 67
f 62 67 68
f 62 68 69
f 62 69 70
f 71 62 70
f 71 70 72
f 71 72 73
f 71 73 74
f 71 74 75
f 71 75 76
f 71 76 77
f 78 71 77
f 78 77 79
f 79 77 80
f 81 78 79
f 81 79 82
f 83 81 82
f 83 82 84
f 83 84 85
f 86 83 85
f 86 85 87
f 86 87 88
f 86 88 89
f 86 89 90
f 91 86 90
f 91 90 92
f 91 92 93
f 91 93 94
f 95 91 94
f 95 94 96
f 95 96 97
f 95 97 98
f 99 95 98
f 99 98 100
f 99 100 101
f 99 101 102
f 99 102 103
f 104 99 103
f 104 103 105
f 104 105 106
f 104 106 107
f 108 104 107
f 108 107 109
f 108 109 110
f 108 110 111
f 108 111 112
f 108 112 113
f 114 108 113
f 114 113 115
f 114 115 116
f 114 116 117
f 114 117 118
f 114 118 119
f 120 114 119
f 120 119 121
f 120 121 122
f 120 122 123
f 120 123 124
f 125 120 124
f 125 126 120
f 125 124 127
f 125 127 128
f 125 128 129
f 125 129 130
f 125 130 131
f 125 131 132
f 125 132 133
f 125 133 134
f 125 134 135
f 125 135 136
f 125 136 137
f 125 137 138
f 125 138 139
f 125 139 140
f 125 140 141
f 125 141 142
f 143 125 142
f 143 144 125
f 144 145 125
f 145 146 125
f 146 147 125
f 147 148 125
f 148 149 125
f 149 150 125
f 150 151 125
f 151 152 125
f 152 153 125
f 153 154 125
f 154 155 125
f 155 156 125
f 126 157 120
f 126 158 157
f 158 159 157
f 158 160 159
f 158 161 160
f 158 162 161
f 158 163 162
f 158 164 163
f 158 165 164
f 158 166 165
f 158 167 166
f 158 168 167
f 158 169 168
f 158 170 169
f 158 171 170
f 158 172 171
f 158 173 172
f 158 174 173
f 158 175 174
f 158 176 175
f 158 177 176
f 158 178 177
f 158 179 178
f 158 180 179
f 158 181 180
f 182 179 180
f 182 180 183
f 184 182 183
f 185 184 183
f 186 185 183
f 187 186 183
f 188 187 183
f 188 183 189
f 188 189 190
f 188 190 191
f 188 191 192
f 193 188 192
f 193 192 194
f 193 194 195
f 193 195 196
f 193 196 197
f 193 197 198
f 193 198 199
f 200 193 199
f 158 200 199
f 158 201 200
f 158 199 202
f 158 202 203
f 158 203 204
f 158 204 205
f 158 205 206
f 158 206 207
f 158 207 208
f 158 208 181
f 158 209 201
f 209 210 201
f 210 211 201
f 211 212 201
f 212 213 201
f 212 214 213
f 214 215 213
f 215 216 213
f 216 217 213
f 217 218 213
f 218 219 213
f 218 220 219
f 220 221 219
f 220 222 221
f 219 221 223
f 219 223 224
f 219 224 225
f 219 225 226
f 219 226 227
f 228 219 227
f 228 227 229
f 228 229 230
f 228 230 231
f 228 231 232
f 228 232 233
f 234 228 233
f 235 234 233
f 235 236 234
f 235 233 237
f 235 237 238
f 235 238 239
f 235 239 240
f 241 235 240
f 241 240 242
f 241 242 243
f 222 241 243
f 222 243 244
f 222 244 245
f 222 245 246
f 222 246 221
f 236 247 234
f 247 248 234
f 247 249 248
f 247 250 249
f 248 249 251
f 248 251 252
f 248 252 253
f 248 253 254
f 248 254 255
f 248 255 256
f 248 256 257
f 258 248 257
f 258 257 259
f 258 259 260
f 258 260 261
f 262 258 261
f 262 263 258
f 262 261 264
f 262 264 265
f 266 262 265
f 266 265 267
f 266 267 268
f 269 266 268
f 269 268 270
f 269 270 271
f 272 269 271
f 272 271 273
f 272 273 274
f 250 272 274
f 250 274 275
f 250 275 249
f 263 276 258
f 263 277 276
f 277 278 276
f 278 279 276
f 278 280 279
f 280 281 279
f 281 282 279
f 281 283 282
f 283 284 282
f 283 285 284
f 285 286 284
f 285 287 286
f 287 288 286
f 287 289 288
f 289 290 288
f 289 291 290
f 291 292 290
f 291 293 292
f 293 294 292
f 293 295 294
f 295 296 294
f 295 297 296
f 297 298 296
f 80 77 299
f 79 80 300
f 79 300 301
f 79 301 302
f 79 302 303
f 79 303 304
f 79 304 305
f 79 305 306
f 79 306 307
f 79 307 64
f 61 79 64
f 308 80 299
f 308 299 309
f 310 308 309
f 310 309 311
f 312 310 311
f 312 311 313
f 314 312 313
f 314 313 315
f 316 314 315
f 316 315 317
f 318 316 317
f 318 317 319
f 320 318 319
f 320 319 321
f 322 320 321
f 322 321 323
f 66 322 323
f 66 323 65
f 37 38 324
f 37 324 325
f 37 325 326
f 327 37 326
f 327 326 328
f 327 328 329
f 327 329 330
f 327 330 331
f 327 331 332
f 327 332 333
f 334 327 333
f 334 333 335
f 334 335 336
f 337 334 336
f 337 336 338
f 337 338 339
f 340 337 339
f 340 339 341
f 340 341 342
f 1 340 342
f 1 342 343
f 1 343 344
f 1 344 4
f 7 345 5
f 7 346 345
f 346 347 345
f 346 348 347
f 348 349 347
f 348 350 349
f 350 351 349
f 350 352 351
f 352 353 351
f 352 354 353
f 354 355 353
f 354 356 355
f 356 357 355
f 356 358 357
f 358 359 357
f 358 360 359
f 360 361 359
f 360 362 361
f 362 363 361
f 362 364 363
f 364 365 363
f 364 366 365
f 366 367 365
f 366 368 367
f 368 369 367
f 368 370 369
f 370 371 369
f 370 372 371
f 373 374 375
f 376 374 373
f 377 373 375
f 377 375 378
f 377 378 379
f 379 378 380
f 379 380 381
f 381 380 382
f 381 382 383
f 383 382 384
f 383 384 385
f 385 384 386
f 385 386 387
f 387 386 388
f 387 388 389
f 389 388 390
f 389 390 391
f 391 390 392
f 391 392 393
f 393 392 394
f 393 394 395
f 395 394 396
f 395 396 397
f 397 396 398
f 397 398 399
f 399 398 400
f 399 400 401
f 401 400 402
f 401 402 403
f 403 402 404
f 403 404 405
f 405 404 406
f 405 406 407
f 407 406 408
f 407 408 409
f 409 408 410
f 409 410 411
f 411 410 412
f 411 412 413
f 413 412 414
f 413 414 415
f 415 414 416
f 415 416 417
f 417 416 418
f 417 418 419
f 419 418 420
f 419 420 421
f 421 420 422
f 421 422 423
f 423 422 424
f 423 424 425
f 425 424 426
f 425 426 427
f 427 426 428
f 427 428 429
f 429 428 430
f 429 430 431
f 431 430 432
f 431 432 433
f 433 432 434
f 433 434 435
f 435 434 436
f 435 436 437
f 437 436 438
f 437 438 439
f 439 438 440
f 439 440 441
f 441 440 442
f 441 442 443
f 443 442 444
f 443 444 445
f 445 444 446
f 445 446 447
f 447 446 448
f 447 448 449
f 449 448 450
f 449 450 451
f 451 450 452
f 451 452 453
f 453 452 454
f 453 454 455
f 455 454 456
f 455 456 376
f 376 456 374
f 457 458 459
f 460 458 457
f 461 457 459
f 461 459 462
f 461 462 463
f 463 462 464
f 463 464 465
f 465 464 466
f 465 466 467
f 467 466 468
f 467 468 469
f 469 468 470
f 469 470 471
f 471 470 472
f 471 472 473
f 473 472 474
f 473 474 475
f 475 474 476
f 475 476 477
f 477 476 478
f 477 478 479
f 479 478 480
f 479 480 481
f 481 480 482
f 481 482 483
f 483 482 484
f 483 484 485
f 485 484 486
f 485 486 487
f 487 486 488
f 487 488 489
f 489 488 490
f 489 490 491
f 491 490 492
f 491 492 493
f 493 492 494
f 493 494 495
f 495 494 496
f 495 496 460
f 460 496 458
f 497 498 499
f 500 498 497
f 501 497 499
f 501 499 502
f 501 502 503
f 503 502 504
f 503 504 505
f 505 504 506
f 505 506 507
f 507 506 508
f 507 508 509
f 509 508 510
f 509 510 511
f 511 510 512
f 511 512 513
f 513 512 514
f 513 514 515
f 515 514 516
f 515 516 517
f 517 516 518
f 517 518 519
f 519 518 520
f 519 520 521
f 521 520 522
f 521 522 523
f 523 522 524
f 523 524 525
f 525 524 526
f 525 526 527
f 527 526 528
f 527 528 529
f 529 528 530
f 529 530 531
f 531 530 532
f 531 532 533
f 533 532 534
f 533 534 535
f 535 534 536
f 535 536 500
f 500 536 498
f 537 538 539
f 540 538 537
f 541 537 539
f 541 539 542
f 541 542 543
f 543 542 544
f 543 544 545
f 545 544 546
f 545 546 547
f 547 546 548
f 547 548 549
f 549 548 550
f 549 550 551
f 551 550 552
f 551 552 553
f 553 552 554
f 553 554 555
f 555 554 556
f 555 556 557
f 557 556 558
f 557 558 559
f 559 558 560
f 559 560 561
f 561 560 562
f 561 562 563
f 563 562 564
f 563 564 565
f 565 564 566
f 565 566 567
f 567 566 568
f 567 568 569
f 569 568 570
f 569 570 571
f 571 570 572
f 571 572 573
f 573 572 574
f 573 574 575
f 575 574 576
f 575 576 540
f 540 576 538
f 577 578 579
f 580 578 577
f 581 577 579
f 581 579 582
f 581 582 583
f 583 582 584
f 583 584 585
f 585 584 586
f 585 586 587
f 587 586 588
f 587 588 589
f 589 588 590
f 589 590 591
f 591 590 592
f 591 592 593
f 593 592 594
f 593 594 595
f 595 594 596
f 595 596 597
f 597 596 598
f 597 598 599
f 599 598 600
f 599 600 601
f 601 600 602
f 601 602 603
f 603 602 604
f 603 604 605
f 605 604 606
f 605 606 607
f 607 606 608
f 607 608 609
f 609 608 610
f 609 610 611
f 611 610 612
f 611 612 613
f 613 612 614
f 613 614 615
f 615 614 616
f 615 616 580
f 580 616 578
f 617 618 619
f 620 618 617
f 621 617 619
f 621 619 622
f 621 622 623
f 623 622 624
f 623 624 625
f 625 624 626
f 625 626 627
f 627 626 628
f 627 628 629
f 629 628 630
f 629 630 631
f 631 630 632
f 631 632 633
f 633 632 634
f 633 634 635
f 635 634 636
f 635 636 637
f 637 636 638
f 637 638 639
f 639 638 640
f 639 640 641
f 641 640 642
f 641 642 643
f 643 642 644
f 643 644 645
f 645 644 646
f 645 646 647
f 647 646 648
f 647 648 649
f 649 648 650
f 649 650 651
f 651 650 652
f 651 652 653
f 653 652 654
f 653 654 655
f 655 654 656
f 655 656 620
f 620 656 618
f 657 658 659
f 660 658 657
f 657 659 661
f 661 659 662
f 662 659 663
f 663 659 664
f 662 663 665
f 665 663 666
f 666 663 667
f 668 667 663
f 668 663 669
f 669 663 670
f 670 663 671
f 671 663 672
f 672 663 673
f 673 663 674
f 674 663 675
f 675 663 676
f 676 663 677
f 677 663 678
f 678 663 679
f 679 663 680
f 680 663 681
f 681 663 682
f 682 663 683
f 682 683 684
f 684 683 685
f 685 683 686
f 686 683 687
f 687 683 688
f 688 683 689
f 689 683 658
f 690 658 683
f 689 658 691
f 691 658 692
f 692 658 693
f 693 658 694
f 694 658 695
f 695 658 696
f 696 658 697
f 697 658 698
f 698 658 699
f 699 658 700
f 700 658 701
f 701 658 702
f 702 658 703
f 703 658 704
f 704 658 705
f 705 658 706
f 706 658 660
f 690 707 658
f 708 707 690
f 708 709 707
f 710 709 708
f 710 711 709
f 712 711 710
f 712 713 711
f 714 713 712
f 714 715 713
f 716 715 714
f 716 717 715
f 718 717 716
f 718 719 717
f 720 719 718
f 720 721 719
f 722 721 720
f 722 723 721
f 724 723 722
f 724 725 723
f 726 725 724
f 726 727 725
f 728 727 726
f 728 729 727
f 728 730 729
f 730 731 729
f 730 732 731
f 733 732 730
f 663 664 734
f 734 664 735
f 735 664 736
f 735 736 737
f 737 736 738
f 737 738 739
f 739 738 740
f 739 740 741
f 741 740 742
f 741 742 743
f 743 742 744
f 743 744 745
f 745 744 746
f 745 746 747
f 747 746 748
f 747 748 749
f 747 749 750
f 750 749 751
f 750 751 752
f 750 752 753
f 753 752 754
f 753 754 755
f 753 755 756
f 753 756 757
f 757 756 758
f 757 758 759
f 757 759 760
f 760 759 761
f 760 761 762
f 762 761 763
f 762 763 764
f 764 763 765
f 764 765 766
f 764 766 767
f 767 766 768
f 767 768 769
f 769 768 770
f 769 770 771
f 771 770 772
f 771 772 773
f 773 772 774
f 773 774 775
f 775 774 776
f 775 776 777
f 777 776 778
f 777 778 779
f 779 778 780
f 779 780 781
f 781 780 782
f 781 782 783
f 781 783 784
f 784 783 785
f 784 785 786
f 784 786 787
f 787 786 788
f 787 788 789
f 789 788 790
f 789 790 791
f 789 791 792
f 792 791 793
f 792 793 794
f 794 793 795
f 794 795 796
f 794 796 797
f 797 796 798
f 797 798 799
f 799 798 800
f 799 800 801
f 799 801 802
f 802 801 803
f 802 803 804
f 804 803 805
f 804 805 806
f 806 805 807
f 806 807 808
f 806 808 809
f 809 808 810
f 809 810 811
f 811 810 812
f 811 812 813
f 813 812 814
f 813 814 815
f 813 815 816
f 816 815 817
f 816 817 818
f 818 817 819
f 818 819 820
f 820 819 821
f 820 821 822
f 822 821 823
f 822 823 824
f 824 823 825
f 824 825 826
f 826 825 827
f 826 827 828
f 828 827 829
f 828 829 830
f 830 829 831
f 830 831 832
f 832 831 833
f 832 833 834
f 834 833 835
f 834 835 836
f 836 835 837
f 836 837 838
f 838 837 839
f 838 839 840
f 840 839 841
f 840 841 842
f 842 841 843
f 842 843 844
f 844 843 845
f 844 845 846
f 846 845 847
f 846 847 848
f 848 847 849
f 848 849 850
f 850 849 851
f 850 851 852
f 852 851 853
f 852 853 854
f 854 853 855
f 854 855 856
f 856 855 857
f 856 857 858
f 858 857 859
f 858 859 860
f 860 859 861
f 860 861 862
f 862 861 863
f 862 863 864
f 864 863 865
f 864 865 866
f 866 865 867
f 866 867 868
f 868 867 869
f 868 869 870
f 870 869 871
f 870 871 872
f 872 871 873
f 872 873 874
f 874 873 875
f 874 875 876
f 876 875 877
f 876 877 878
f 878 877 879
f 878 879 880
f 880 879 881
f 880 881 882
f 882 881 883
f 882 883 884
f 884 883 885
f 884 885 886
f 886 885 887
f 886 887 888
f 888 887 889
f 888 889 890
f 890 889 891
f 890 891 892
f 892 891 893
f 892 893 894
f 894 893 895
f 894 895 896
f 896 895 897
f 896 897 898
f 898 897 899
f 898 899 900
f 900 899 901
f 900 901 902
f 902 901 903
f 902 903 904
f 904 903 905
f 904 905 906
f 906 905 907
f 906 907 908
f 908 907 909
f 908 909 910
f 910 909 911
f 910 911 912
f 912 911 913
f 912 913 914
f 914 913 915
f 914 915 916
f 916 915 917
f 916 917 918
f 918 917 919
f 918 919 920
f 920 919 921
f 920 921 922
f 922 921 923
f 922 923 924
f 924 923 925
f 924 925 926
f 926 925 927
f 926 927 928
f 928 927 929
f 928 929 930
f 930 929 931
f 930 931 932
f 932 931 933
f 932 933 934
f 934 933 935
f 934 935 936
f 936 935 937
f 936 937 938
f 938 937 939
f 938 939 940
f 940 939 941
f 940 941 942
f 942 941 943
f 942 943 944
f 944 943 945
f 944 945 946
f 946 945 947
f 946 947 948
f 948 947 949
f 948 949 950
f 950 949 951
f 950 951 952
f 952 951 953
f 952 953 954
f 954 953 955
f 954 955 956
f 956 955 957
f 956 957 958
f 958 957 959
f 958 959 960
f 960 959 961
f 960 961 962
f 962 961 963
f 962 963 964
f 964 963 965
f 964 965 966
f 966 965 967
f 966 967 968
f 968 967 969
f 968 969 970
f 970 969 971
f 970 971 972
f 972 971 973
f 972 973 974
f 974 973 975
f 974 975 976
f 976 975 977
f 976 977 978
f 978 977 979
f 978 979 980
f 980 979 981
f 980 981 982
f 982 981 983
f 982 983 984
f 984 983 985
f 984 985 986
f 986 985 987
f 986 987 988
f 988 987 989
f 988 989 990
f 990 989 991
f 990 991 992
f 992 991 993
f 992 993 994
f 994 993 995
f 994 995 996
f 996 995 997
f 996 997 998
f 998 997 999
f 998 999 1000
f 1000 999 1001
f 1000 1001 1002
f 1002 1001 1003
f 1002 1003 1004
f 1004 1003 1005
f 1004 1005 1006
f 1006 1005 1007
f 1007 1005 1008
f 1007 1008 1009
f 1009 1008 1010
f 1009 1010 1011
f 1011 1010 1012
f 1012 1010 1013
f 1012 1013 1014
f 1014 1013 1015
f 1014 1015 1016
f 1016 1015 1017
f 1016 1017 1018
f 1018 1017 1019
f 1018 1019 1020
f 1018 1020 1021
f 1021 1020 1022
f 1021 1022 1023
f 1023 1022 1024
f 1023 1024 1025
f 1023 1025 1026
f 1026 1025 1027
f 1026 1027 1028
f 1028 1027 1029
f 1028 1029 1030
f 1030 1029 1031
f 1031 1029 1032
f 1031 1032 1033
f 1033 1032 1034
f 1033 1034 1035
f 1035 1034 1036
f 1035 1036 1037
f 1037 1036 1038
f 1037 1038 1039
f 1039 1038 1040
f 1039 1040 1041
f 1041 1040 1042
f 1041 1042 1043
f 1043 1042 1044
f 1043 1044 1045
f 1045 1044 1046
f 1045 1046 1047
f 1047 1046 1048
f 1047 1048 1049
f 1049 1048 1050
f 1049 1050 1051
f 1051 1050 1052
f 1051 1052 1053
f 1053 1052 1054
f 1053 1054 1055
f 1055 1054 1056
f 1055 1056 1057
f 1057 1056 1058
f 1057 1058 1059
f 1059 1058 1060
f 1059 1060 1061
f 1061 1060 1062
f 1061 1062 1063
f 1063 1062 1064
f 1063 1064 1065
f 1065 1064 1066
f 1065 1066 1067
f 1067 1066 1068
f 1067 1068 1069
f 1069 1068 1070
f 1069 1070 1071
f 1071 1070 1072
f 1071 1072 1073
f 1073 1072 1074
f 1073 1074 1075
f 1075 1074 1076
f 1075 1076 1077
f 1077 1076 1078
f 1077 1078 1079
f 1079 1078 1080
f 1079 1080 1081
f 1081 1080 1082
f 1081 1082 1083
f 1083 1082 1084
f 1083 1084 1085
f 1085 1084 1086
f 1085 1086 1087
f 1087 1086 1088
f 1087 1088 1089
f 1089 1088 1090
f 1089 1090 1091
f 1091 1090 1092
f 1091 1092 1093
f 1093 1092 1094
f 1093 1094 1095
f 1095 1094 1096
f 1095 1096 1097
f 1097 1096 1098
f 1097 1098 1099
f 1099 1098 1100
f 1099 1100 1101
f 1101 1100 1102
f 1101 1102 1103
f 1103 1102 1104
f 1103 1104 1105
f 1105 1104 1106
f 1105 1106 1107
f 1107 1106 1108
f 1107 1108 1109
f 1109 1108 1110
f 1109 1110 1111
f 1111 1110 1112
f 1111 1112 1113
f 1113 1112 1114
f 1113 1114 1115
f 1115 1114 1116
f 1115 1116 1117
f 1117 1116 1118
f 1117 1118 1119
f 1119 1118 1120
f 1119 1120 1121
f 1121 1120 1122
f 1121 1122 1123
f 1123 1122 1124
f 1123 1124 1125
f 1125 1124 1126
f 1125 1126 1127
f 1127 1126 1128
f 1127 1128 1129
f 1129 1128 1130
f 1129 1130 1131
f 1131 1130 1132
f 1131 1132 1133
f 1133 1132 1134
f 1133 1134 1135
f 1135 1134 1136
f 1135 1136 1137
f 1137 1136 1138
f 1137 1138 1139
f 1139 1138 1140
f 1139 1140 1141
f 1141 1140 1142
f 1141 1142 1143
f 1143 1142 1144
f 1143 1144 1145
f 1146 1147 1148
f 1146 1149 1147
f 1150 1146 1148
f 1151 1150 1148
f 1152 1151 1148
f 1153 1152 1148
f 1154 1153 1148
f 1154 1148 1155
f 1156 1155 1148
f 1157 1156 1148
f 1158 1157 1148
f 1158 1148 1159
f 1160 1158 1159
f 1160 1159 1161
f 1162 1160 1161
f 1163 1162 1161
f 1164 1163 1161
f 1165 1164 1161
f 1166 1165 1161
f 1167 1166 1161
f 1168 1167 1161
f 1169 1168 1161
f 1149 1169 1161
f 1149 1161 1147
f 1170 1171 1172
f 1170 1172 1173
f 1174 1175 1176
f 1174 1177 1175
f 1178 1174 1176
f 1179 1178 1176
f 1180 1179 1176
f 1181 1180 1176
f 1182 1181 1176
f 1183 1182 1176
f 1184 1183 1176
f 1185 1184 1176
f 1186 1185 1176
f 1187 1186 1176
f 1188 1187 1176
f 1189 1188 1176
f 1190 1189 1176
f 1191 1190 1176
f 1192 1191 1176
f 1193 1192 1176
f 1194 1193 1176
f 1195 1194 1176
f 1196 1195 1176
f 1197 1196 1176
f 1197 1176 1198
f 1199 1197 1198
f 1200 1199 1198
f 1200 1198 1201
f 1202 1200 1201
f 1203 1202 1201
f 1204 1203 1201
f 1205 1204 1201
f 1206 1205 1201
f 1207 1206 1201
f 1208 1207 1201
f 1209 1208 1201
f 1210 1209 1201
f 1211 1210 1201
f 1212 1211 1201
f 1213 1212 1201
f 1213 1201 1214
f 1215 1214 1201
f 1216 1215 1201
f 1217 1216 1201
f 1218 1217 1201
f 1219 1218 1201
f 1220 1219 1201
f 1221 1220 1201
f 1221 1201 1175
f 1177 1221 1175
f 1222 1223 1224
f 1222 1225 1223
f 1226 1222 1224
f 1227 1226 1224
f 1227 1228 1226
f 1227 1224 1229
f 1227 1229 1230
f 1227 1230 1231
f 1227 1231 1232
f 1233 1227 1232
f 1233 1232 1234
f 1233 1234 1235
f 1236 1233 1235
f 1236 1235 1237
f 1236 1237 1238
f 1239 1236 1238
f 1239 1238 1240
f 1239 1240 1241
f 1242 1239 1241
f 1242 1241 1243
f 1242 1243 1244
f 1242 1244 1245
f 1242 1245 1246
f 1242 1246 1247
f 1242 1247 1248
f 1249 1242 1248
f 1249 1248 1250
f 1249 1250 1251
f 1249 1251 1252
f 1249 1252 1253
f 1249 1253 1254
f 1249 1254 1255
f 1255 1254 1256
f 1249 1255 1257
f 1258 1249 1257
f 1258 1257 1259
f 1258 1259 1260
f 1261 1258 1260
f 1261 1260 1262
f 1261 1262 1263
f 1261 1263 1264
f 1265 1261 1264
f 1265 1264 1266
f 1265 1266 1267
f 1268 1265 1267
f 1268 1267 1269
f 1268 1269 1270
f 1271 1268 1270
f 1271 1270 1272
f 1273 1271 1272
f 1273 1272 1274
f 1273 1274 1275
f 1276 1273 1275
f 1276 1275 1277
f 1278 1276 1277
f 1278 1277 1279
f 1278 1279 1280
f 1281 1278 1280
f 1281 1280 1282
f 1280 1283 1282
f 1281 1282 1284
f 1284 1282 1285
f 1281 1284 1286
f 1281 1286 1287
f 1281 1287 1288
f 1281 1288 1289
f 1281 1289 1290
f 1281 1290 1291
f 1281 1291 1292
f 1281 1292 1293
f 1281 1293 1294
f 1281 1294 1295
f 1296 1281 1295
f 1296 1295 1297
f 1297 1295 1298
f 1296 1297 1299
f 1296 1299 1300
f 1301 1296 1300
f 1301 1300 1302
f 1303 1301 1302
f 1304 1303 1302
f 1305 1304 1302
f 1305 1302 1306
f 1307 1305 1306
f 1308 1307 1306
f 1308 1306 1309
f 1310 1308 1309
f 1311 1310 1309
f 1312 1311 1309
f 1312 1309 1313
f 1314 1312 1313
f 1315 1314 1313
f 1315 1313 1316
f 1317 1315 1316
f 1318 1317 1316
f 1318 1316 1319
f 1320 1318 1319
f 1321 1320 1319
f 1321 1319 1322
f 1323 1321 1322
f 1324 1323 1322
f 1325 1324 1322
f 1326 1325 1322
f 1326 1322 1327
f 1328 1326 1327
f 1329 1328 1327
f 1330 1329 1327
f 1331 1330 1327
f 1332 1331 1327
f 1332 1327 1333
f 1327 1334 1333
f 1335 1332 1333
f 1335 1333 1336
f 1337 1335 1336
f 1338 1337 1336
f 1339 1338 1336
f 1340 1339 1336
f 1341 1340 1336
f 1342 1341 1336
f 1343 1342 1336
f 1343 1336 1344
f 1345 1343 1344
f 1346 1345 1344
f 1347 1346 1344
f 1348 1347 1344
f 1349 1348 1344
f 1350 1349 1344
f 1351 1350 1344
f 1352 1351 1344
f 1353 1352 1344
f 1354 1353 1344
f 1355 1354 1344
f 1356 1355 1344
f 1357 1356 1344
f 1358 1357 1344
f 1359 1358 1344
f 1360 1359 1344
f 1361 1360 1344
f 1362 1361 1344
f 1362 1344 1363
f 1334 1364 1333
f 1364 1365 1333
f 1365 1366 1333
f 1366 1367 1333
f 1367 1368 1333
f 1368 1369 1333
f 1369 1370 1333
f 1370 1371 1333
f 1371 1372 1333
f 1372 1373 1333
f 1373 1374 1333
f 1374 1375 1333
f 1375 1376 1333
f 1376 1377 1333
f 1377 1378 1333
f 1378 1379 1333
f 1379 1380 1333
f 1380 1381 1333
f 1381 1382 1333
f 1382 1383 1333
f 1383 1384 1333
f 1384 1385 1333
f 1385 1386 1333
f 1386 1387 1333
f 1387 1388 1333
f 1388 1389 1333
f 1389 1390 1333
f 1390 1391 1333
f 1391 1392 1333
f 1391 1393 1392
f 1333 1392 1394
f 1333 1394 1395
f 1333 1395 1396
f 1333 1396 1397
f 1333 1397 1398
f 1333 1398 1399
f 1333 1399 1400
f 1333 1400 1401
f 1333 1401 1402
f 1403 1333 1402
f 1404 1403 1402
f 1404 1405 1403
f 1404 1402 1406
f 1407 1404 1406
f 1407 1406 1408
f 1407 1408 1409
f 1407 1409 1410
f 1407 1410 1411
f 1407 1411 1412
f 1393 1407 1412
f 1393 1412 1413
f 1393 1413 1414
f 1393 1414 1415
f 1393 1415 1416
f 1393 1416 1392
f 1405 1417 1403
f 1405 1418 1417
f 1405 1419 1418
f 1405 1420 1419
f 1405 1421 1420
f 1405 1422 1421
f 1422 1423 1421
f 1422 1424 1423
f 1422 1425 1424
f 1422 1426 1425
f 1422 1427 1426
f 1422 1428 1427
f 1422 1429 1428
f 1427 1428 1430
f 1427 1430 1431
f 1427 1431 1432
f 1433 1427 1432
f 1433 1432 1434
f 1433 1434 1435
f 1436 1433 1435
f 1436 1435 1437
f 1436 1437 1438
f 1436 1438 1439
f 1436 1439 1440
f 1436 1440 1441
f 1442 1436 1441
f 1443 1442 1441
f 1443 1444 1442
f 1443 1441 1445
f 1443 1445 1446
f 1443 1446 1447
f 1443 1447 1448
f 1429 1443 1448
f 1429 1448 1449
f 1429 1449 1450
f 1429 1450 1451
f 1429 1451 1452
f 1429 1452 1453
f 1429 1453 1428
f 1443 1454 1444
f 1454 1455 1444
f 1454 1456 1455
f 1454 1457 1456
f 1455 1456 1458
f 1459 1455 1458
f 1459 1458 1460
f 1459 1460 1461
f 1462 1459 1461
f 1462 1461 1463
f 1462 1463 1464
f 1465 1462 1464
f 1465 1464 1466
f 1465 1466 1467
f 1468 1465 1467
f 1468 1467 1469
f 1468 1469 1470
f 1468 1470 1471
f 1472 1468 1471
f 1473 1472 1471
f 1473 1474 1472
f 1473 1471 1475
f 1473 1475 1476
f 1457 1473 1476
f 1457 1476 1477
f 1457 1477 1478
f 1457 1478 1479
f 1457 1479 1480
f 1457 1480 1481
f 1457 1481 1482
f 1457 1482 1483
f 1457 1483 1456
f 1473 1484 1474
f 1473 1485 1484
f 1485 1486 1484
f 1485 1487 1486
f 1485 1488 1487
f 1488 1489 1487
f 1488 1490 1489
f 1488 1491 1490
f 1491 1492 1490
f 1491 1493 1492
f 1493 1494 1492
f 1493 1495 1494
f 1495 1496 1494
f 1495 1497 1496
f 1497 1498 1496
f 1497 1499 1498
f 1499 1500 1498
f 1499 1501 1500
f 1501 1502 1500
f 1501 1503 1502
f 1503 1504 1502
f 1503 1505 1504
f 1295 1506 1298
f 1297 1298 1507
f 1297 1507 1508
f 1297 1508 1509
f 1297 1509 1510
f 1297 1510 1511
f 1283 1297 1511
f 1283 1511 1512
f 1283 1512 1513
f 1283 1513 1514
f 1283 1514 1515
f 1283 1515 1282
f 1506 1516 1298
f 1506 1517 1516
f 1517 1518 1516
f 1517 1519 1518
f 1519 1520 1518
f 1519 1521 1520
f 1521 1522 1520
f 1521 1523 1522
f 1523 1524 1522
f 1523 1525 1524
f 1525 1526 1524
f 1525 1527 1526
f 1527 1528 1526
f 1527 1529 1528
f 1529 1530 1528
f 1529 1531 1530
f 1531 1285 1530
f 1531 1284 1285
f 1255 1256 1532
f 1533 1255 1532
f 1533 1532 1534
f 1533 1534 1535
f 1533 1535 1536
f 1537 1533 1536
f 1537 1536 1538
f 1537 1538 1539
f 1537 1539 1540
f 1541 1537 1540
f 1541 1540 1542
f 1541 1542 1543
f 1544 1541 1543
f 1544 1543 1545
f 1544 1545 1546
f 1547 1544 1546
f 1547 1546 1548
f 1547 1548 1549
f 1550 1547 1549
f 1550 1549 1551
f 1550 1551 1552
f 1222 1550 1552
f 1222 1552 1553
f 1222 1553 1554
f 1222 1554 1225
f 1228 1555 1226
f 1228 1556 1555
f 1556 1557 1555
f 1556 1558 1557
f 1558 1559 1557
f 1558 1560 1559
f 1560 1561 1559
f 1560 1562 1561
f 1562 1563 1561
f 1562 1564 1563
f 1564 1565 1563
f 1564 1566 1565
f 1566 1567 1565
f 1566 1568 1567
f 1568 1569 1567
f 1568 1570 1569
f 1570 1571 1569
f 1570 1572 1571
f 1572 1573 1571
f 1572 1574 1573
f 1574 1575 1573
f 1574 1576 1575
f 1576 1577 1575
f 1576 1578 1577
f 1578 1579 1577
f 1578 1580 1579
f 1580 1581 1579
f 1580 1582 1581
f 1583 1584 1585
f 1586 1584 1583
f 1587 1583 1585
f 1587 1585 1588
f 1587 1588 1589
f 1589 1588 1590
f 1589 1590 1591
f 1591 1590 1592
f 1591 1592 1593
f 1593 1592 1594
f 1593 1594 1595
f 1595 1594 1596
f 1595 1596 1597
f 1597 1596 1598
f 1597 1598 1599
f 1599 1598 1600
f 1599 1600 1601
f 1601 1600 1602
f 1601 1602 1603
f 1603 1602 1604
f 1603 1604 1605
f 1605 1604 1606
f 1605 1606 1607
f 1607 1606 1608
f 1607 1608 1609
f 1609 1608 1610
f 1609 1610 1611
f 1611 1610 1612
f 1611 1612 1613
f 1613 1612 1614
f 1613 1614 1615
f 1615 1614 1616
f 1615 1616 1617
f 1617 1616 1618
f 1617 1618 1619
f 1619 1618 1620
f 1619 1620 1621
f 1621 1620 1622
f 1621 1622 1586
f 1586 1622 1584
f 1623 1624 1625
f 1626 1624 1623
f 1627 1623 1625
f 1627 1625 1628
f 1629 1627 1628
f 1629 1628 1630
f 1631 1629 1630
f 1631 1630 1632
f 1633 1631 1632
f 1633 1632 1634
f 1635 1633 1634
f 1635 1634 1636
f 1637 1635 1636
f 1637 1636 1638
f 1639 1637 1638
f 1639 1638 1640
f 1641 1639 1640
f 1641 1640 1642
f 1643 1641 1642
f 1643 1642 1644
f 1645 1643 1644
f 1645 1644 1646
f 1647 1645 1646
f 1647 1646 1648
f 1649 1647 1648
f 1649 1648 1650
f 1651 1649 1650
f 1651 1650 1652
f 1653 1651 1652
f 1653 1652 1654
f 1655 1653 1654
f 1655 1654 1656
f 1657 1655 1656
f 1657 1656 1658
f 1659 1657 1658
f 1659 1658 1660
f 1661 1659 1660
f 1661 1660 1662
f 1663 1661 1662
f 1663 1662 1664
f 1665 1663 1664
f 1665 1664 1666
f 1667 1665 1666
f 1667 1666 1668
f 1669 1667 1668
f 1669 1668 1670
f 1671 1669 1670
f 1671 1670 1672
f 1673 1671 1672
f 1673 1672 1674
f 1675 1673 1674
f 1675 1674 1676
f 1677 1675 1676
f 1677 1676 1678
f 1679 1677 1678
f 1679 1678 1680
f 1681 1679 1680
f 1681 1680 1682
f 1683 1681 1682
f 1683 1682 1684
f 1685 1683 1684
f 1685 1684 1686
f 1687 1685 1686
f 1687 1686 1688
f 1689 1687 1688
f 1689 1688 1690
f 1691 1689 1690
f 1691 1690 1692
f 1693 1691 1692
f 1693 1692 1694
f 1695 1693 1694
f 1695 1694 1696
f 1697 1695 1696
f 1697 1696 1698
f 1699 1697 1698
f 1699 1698 1700
f 1701 1699 1700
f 1701 1700 1702
f 1703 1701 1702
f 1703 1702 1704
f 1705 1703 1704
f 1705 1704 1706
f 1707 1705 1706
f 1707 1706 1708
f 1709 1707 1708
f 1709 1708 1710
f 1626 1709 1710
f 1626 1710 1624
f 1711 1712 1713
f 1711 1714 1712
f 1715 1711 1713
f 1716 1715 1713
f 1716 1717 1715
f 1716 1718 1717
f 1718 1719 1717
f 1718 1720 1719
f 1720 1721 1719
f 1720 1722 1721
f 1722 1723 1721
f 1722 1724 1723
f 1714 1725 1712
f 1714 1726 1725
f 1726 1727 1725
f 1726 1728 1727
f 1728 1729 1727
f 1728 1730 1729
