1220 1360 0
v -0.007893 0.01090917 0.026468565
v -0.01161246 0.01704957 0.028615995
v -0.00557865 0.01380069 0.02513238
v -0.0166641 0.015631935 0.031532565
v -0.00783234 0.01087203 0.02643354
v -0.007770885 0.01083954 0.026398065
v -0.00770868 0.010811685 0.026362155
v -0.007645695 0.01078848 0.026325795
v -0.007581945 0.01076991 0.026288985
v -0.007516875 0.01075572 0.02625141
v -0.007449975 0.010745625 0.026212785
v -0.007382385 0.010740225 0.02617377
v -0.00731529 0.01074009 0.026135025
v -0.00724986 0.010745865 0.026097255
v -0.007186665 0.010758045 0.02606076
v -0.007124175 0.01077648 0.026024685
v -0.007062885 0.010800675 0.0259893
v -0.00700347 0.010830105 0.025954995
v -0.00694668 0.01086429 0.025922205
v -0.006893055 0.01090296 0.02589126
v -0.00684186 0.0109476 0.025861695
v -0.006793065 0.010997475 0.025833525
v -0.006747 0.011051295 0.025806915
v -0.00670395 0.011107755 0.02578206
v -0.006664215 0.01116555 0.025759125
v -0.006627675 0.011225295 0.025738035
v -0.00659418 0.01128756 0.025718685
v -0.00651195 0.01148961 0.02567121
v -0.006563715 0.011352375 0.025701105
v -0.00653631 0.011419725 0.02568528
v -0.011725575 0.01712451 0.028681305
v -0.011824125 0.017214885 0.0287382
v -0.011908485 0.01732146 0.028786905
v -0.01197927 0.01744536 0.02882778
v -0.012032265 0.01757859 0.02885838
v -0.012065835 0.01771998 0.02887776
v -0.01208058 0.01786743 0.028886265
v -0.01254663 0.0258279 0.029155335
v -0.012683925 0.025910835 0.02923461
v -0.012075285 0.018011685 0.028883205
v -0.0120501 0.018154065 0.02886867
v -0.01200516 0.01829544 0.02884272
v -0.011318925 0.01999476 0.028446525
v -0.011254005 0.02012538 0.028409055
v -0.01117575 0.02023917 0.02836386
v -0.011083455 0.020336595 0.02831058
v -0.01097616 0.020418315 0.02824863
v -0.01086078 0.020479515 0.028182015
v -0.01073832 0.020518275 0.02811132
v -0.010610625 0.020535315 0.028037595
v -0.00377553 0.021105135 0.02409135
v -0.010485705 0.02052918 0.02796546
v -0.010362405 0.02050011 0.027894285
v -0.01023996 0.020448225 0.02782359
v -0.00420615 0.017199345 0.024339975
v -0.00371445 0.02107671 0.024056085
v -0.00365565 0.02104473 0.02402214
v -0.003599115 0.02100924 0.0239895
v -0.00354486 0.020970195 0.023958165
v -0.00349287 0.02092764 0.02392815
v -0.003442605 0.02088135 0.02389914
v -0.003393615 0.02083119 0.02387085
v -0.00334695 0.02077752 0.02384391
v -0.00330378 0.02072073 0.02381898
v -0.003272865 0.019510425 0.02380113
v -0.0032652 0.020661225 0.023796705
v -0.003241035 0.01957947 0.023782755
v -0.00323187 0.02059899 0.02377746
v -0.003213135 0.019649505 0.023766645
v -0.003202515 0.020533125 0.023760525
v -0.00318918 0.01972056 0.023752815
v -0.003177345 0.02046429 0.02374599
v -0.003169155 0.019792605 0.023741265
v -0.003156765 0.020393325 0.023734095
v -0.003153075 0.019865655 0.02373198
v -0.003141135 0.02032107 0.02372508
v -0.00314067 0.019940355 0.02372481
v -0.00313089 0.02024808 0.02371917
v -0.0031317 0.020017305 0.023719635
v -0.003126705 0.020095155 0.02371674
v -0.00312624 0.02017254 0.023716485
v -0.012826455 0.0259779 0.0293169
v -0.012974205 0.026029095 0.029402205
v -0.01312848 0.026065395 0.029491275
v -0.01320921 0.026078835 0.029537895
v -0.01329132 0.026088345 0.029585295
v -0.013373835 0.026093205 0.02963292
v -0.01345578 0.026092695 0.029680245
v -0.01353621 0.026086065 0.02972667
v -0.01361448 0.02607264 0.029771865
v -0.01369272 0.02605257 0.029817045
v -0.01377084 0.026026395 0.029862135
v -0.013847955 0.025994685 0.02990667
v -0.013923225 0.025957935 0.029950125
v -0.01399578 0.0259167 0.029992005
v -0.01406478 0.02587152 0.030031845
v -0.014191995 0.025766625 0.0301053
v -0.01430805 0.02564097 0.030172305
v -0.014412255 0.025504485 0.030232455
v -0.014503815 0.02536638 0.03028533
v -0.014582985 0.025223955 0.030331035
v -0.014649885 0.0250755 0.03036966
v -0.01470453 0.024920985 0.030401205
v -0.016787805 0.01568982 0.03160398
v -0.01690824 0.01576113 0.03167352
v -0.01702542 0.01584585 0.03174117
v -0.017140785 0.015943785 0.031807785
v -0.01725666 0.016054575 0.031874685
v -0.0173652 0.01617939 0.03193734
v -0.017449515 0.018123675 0.03198603
v -0.01745802 0.016319685 0.031990935
v -0.01748937 0.01804071 0.03200904
v -0.01753824 0.016478625 0.032037255
v -0.01752534 0.017956275 0.0320298
v -0.017557425 0.017870355 0.032048325
v -0.017573655 0.01656396 0.0320577
v -0.01758561 0.017782995 0.0320646
v -0.017604915 0.016652025 0.032075745
v -0.01760991 0.01769415 0.032078625
v -0.017631255 0.01674198 0.032090955
v -0.017630325 0.017603835 0.032090415
v -0.01764687 0.01751199 0.03209997
v -0.01765191 0.01683297 0.03210288
v -0.01766016 0.017416875 0.032107635
v -0.01766628 0.016925025 0.032111175
v -0.01767009 0.017318775 0.03211338
v -0.017674755 0.0170208 0.032116065
v -0.017676165 0.017219115 0.032116875
v -0.01767789 0.017119305 0.03211788
v -0.00601314 0.014945505 0.029289945
v -0.00557865 0.01380069 0.02513238
v -0.01161246 0.01704957 0.028615995
v -0.005916075 0.01491357 0.02932113
v -0.0061089 0.014982255 0.02928168
v -0.00620505 0.015024705 0.029297235
v -0.00629268 0.01506855 0.02933349
v -0.006367905 0.015112395 0.029391255
v -0.006429435 0.015154845 0.029466735
v -0.00647016 0.01519158 0.02955381
v -0.006491685 0.015223515 0.029653455
v -0.006491565 0.015246705 0.02975316
v -0.00646962 0.015260895 0.02985204
v -0.006426225 0.01526664 0.02995185
v -0.006361485 0.015260895 0.030039345
v -0.00628683 0.015246705 0.030107775
v -0.006200535 0.015223515 0.03015774
v -0.00182865 0.01380069 0.031627575
v -0.00869424 0.01704957 0.0336705
v -0.006103485 0.01519158 0.030188925
v -0.00600771 0.015154845 0.03019719
v -0.00591156 0.015112395 0.030181635
v -0.00582393 0.01506855 0.03014538
v -0.00574872 0.015024705 0.030087615
v -0.005687175 0.014982255 0.030012135
v -0.00564645 0.014945505 0.02992506
v -0.005624925 0.01491357 0.029825415
v -0.005625045 0.01489038 0.029725695
v -0.00564699 0.01487619 0.02962683
v -0.005690385 0.014870445 0.02952702
v -0.005755125 0.01487619 0.029439525
v -0.00582978 0.01489038 0.02937108
v -0.009168165 0.01775262 0.035865045
v -0.011725575 0.01712451 0.028681305
v -0.008831085 0.017119335 0.033682095
v -0.00895455 0.017204715 0.033687195
v -0.009438855 0.017938665 0.036021315
v -0.011824125 0.017214885 0.0287382
v -0.00906273 0.01730325 0.03368703
v -0.0095532 0.018044145 0.036087345
v -0.011908485 0.01732146 0.028786905
v -0.009153975 0.01741188 0.033683475
v -0.009654345 0.01815948 0.03614574
v -0.01197927 0.01744536 0.02882778
v -0.0092283 0.017528985 0.0336759
v -0.009741495 0.01828311 0.03619605
v -0.012032265 0.01757859 0.02885838
v -0.00928551 0.01765386 0.033663285
v -0.012065835 0.01771998 0.02887776
v -0.009324345 0.01778412 0.03364734
v -0.01208058 0.01786743 0.028886265
v -0.0093438 0.01791675 0.03362778
v -0.012075285 0.018011685 0.028883205
v -0.00934335 0.018048945 0.03360438
v -0.0120501 0.018154065 0.02886867
v -0.009323205 0.01817832 0.03357843
v -0.01200516 0.01829544 0.02884272
v -0.01013016 0.01829544 0.032090325
v -0.010201005 0.018307635 0.03195624
v -0.00928641 0.01829544 0.033551745
v -0.010049475 0.018307635 0.03221871
v -0.00996621 0.018338415 0.03233421
v -0.00988032 0.018387825 0.0324369
v -0.00978954 0.018457935 0.03252876
v -0.00969744 0.018545475 0.03260664
v -0.009610125 0.018645 0.032665065
v -0.008600175 0.01999476 0.033155535
v -0.0095256 0.01875942 0.03270474
v -0.0094467 0.018883815 0.032725365
v -0.00937839 0.019011075 0.032725005
v -0.009318735 0.0191451 0.03270336
v -0.00927015 0.019279125 0.032662515
v -0.00923568 0.019406385 0.032603535
v -0.009214095 0.01953078 0.032524905
v -0.009206205 0.0196452 0.03243186
v -0.009213135 0.019744725 0.03232704
v -0.009234525 0.019832265 0.03220833
v -0.009268695 0.019902375 0.03208377
v -0.00931467 0.019951785 0.031958055
v -0.00937308 0.019982565 0.0318282
v -0.009443925 0.01999476 0.031694115
v -0.011254005 0.02012538 0.028409055
v -0.011318925 0.01999476 0.028446525
v -0.008545245 0.020104695 0.03312927
v -0.008470185 0.020211135 0.033100245
v -0.01117575 0.02023917 0.02836386
v -0.008379285 0.02030529 0.03307089
v -0.011083455 0.020336595 0.02831058
v -0.00827427 0.020385 0.033040995
v -0.01097616 0.020418315 0.02824863
v -0.008157225 0.020449005 0.033011685
v -0.01086078 0.020479515 0.028182015
v -0.00803067 0.020496225 0.032984175
v -0.01073832 0.020518275 0.02811132
v -0.007897335 0.02052519 0.032957685
v -0.008516145 0.021317415 0.03548859
v -0.010610625 0.020535315 0.028037595
v -0.00775779 0.020535945 0.0329334
v -0.0083781 0.0213198 0.035408895
v -0.010485705 0.02052918 0.02796546
v -0.00761304 0.020527635 0.032912505
v -0.008236575 0.02130447 0.03532719
v -0.010362405 0.02050011 0.027894285
v -0.007466625 0.020498655 0.032894235
v -0.008093085 0.021271125 0.035244345
v -0.01023996 0.020448225 0.02782359
v -0.007321755 0.020448225 0.03287808
v -0.00420615 0.017199345 0.024339975
v -0.00794613 0.02122005 0.03515949
v -0.00779568 0.021151275 0.03507264
v -0.005053725 0.018665295 0.029159445
v -0.00509712 0.01865955 0.029059635
v -0.004988985 0.01865955 0.029246925
v -0.00491433 0.01864536 0.02931537
v -0.00482805 0.01862217 0.029365335
v -0.004730985 0.018590235 0.02939652
v -0.00463521 0.018553485 0.029404785
v -0.004539075 0.018511035 0.02938923
v -0.004451445 0.018467205 0.029352975
v -0.00437622 0.01842336 0.02929521
v -0.00431469 0.01838091 0.02921973
v -0.00045615 0.017199345 0.030835155
v -0.00427395 0.01834416 0.029132655
v -0.00425244 0.018312225 0.029032995
v -0.004252545 0.018289035 0.02893329
v -0.004274505 0.018274845 0.028834425
v -0.0043179 0.0182691 0.028734615
v -0.00438264 0.018274845 0.02864712
v -0.004457295 0.018289035 0.028578675
v -0.004543575 0.018312225 0.028528725
v -0.00464064 0.01834416 0.028497525
v -0.004736415 0.01838091 0.028489275
v -0.00483255 0.01842336 0.028504815
v -0.004920195 0.018467205 0.02854107
v -0.004995405 0.018511035 0.028598835
v -0.005056935 0.018553485 0.02867433
v -0.005097675 0.018590235 0.028761405
v -0.0051192 0.01862217 0.02886105
v -0.00511908 0.01864536 0.028960755
v -0.008646105 0.021298215 0.03556362
v -0.008768535 0.02126148 0.035634315
v -0.008882895 0.02120793 0.035700345
v -0.0089829 0.02114067 0.03575808
v -0.00906645 0.021060705 0.03580632
v -0.009135645 0.020967015 0.035846265
v -0.009190485 0.020859615 0.03587793
v -0.009871245 0.019173885 0.03627096
v -0.009907245 0.01905633 0.03629175
v -0.009924915 0.018934905 0.03630195
v -0.009924255 0.018809595 0.036301575
v -0.009904605 0.018677895 0.03629022
v -0.009866625 0.018542325 0.03626829
v -0.009812295 0.018410415 0.036236925
v -0.00952461 0.019982565 0.03156573
v -0.009607875 0.019951785 0.03145023
v -0.009693765 0.019902375 0.03134754
v -0.009784545 0.019832265 0.03125568
v -0.009876645 0.019744725 0.0311778
v -0.00996396 0.0196452 0.031119375
v -0.010048485 0.01953078 0.0310797
v -0.01012737 0.019406385 0.031059075
v -0.01019568 0.019279125 0.031059435
v -0.01025535 0.0191451 0.03108108
v -0.010303935 0.019011075 0.031121925
v -0.010338405 0.018883815 0.031180905
v -0.01035999 0.01875942 0.031259535
v -0.01036788 0.018645 0.03135258
v -0.01036095 0.018545475 0.031457415
v -0.010339545 0.018457935 0.03157611
v -0.01030539 0.018387825 0.03170067
v -0.0102594 0.018338415 0.031826385
v -0.0093105 0.017841495 0.035947215
v -0.00182865 0.01380069 0.031627575
v -0.00651195 0.01148961 0.02567121
v -0.00557865 0.01380069 0.02513238
v -0.00276195 0.01148961 0.032166405
v -0.00278988 0.011412465 0.03218253
v -0.00653631 0.011419725 0.02568528
v -0.006563715 0.011352375 0.025701105
v -0.002820675 0.011338995 0.03220032
v -0.00659418 0.01128756 0.025718685
v -0.002854335 0.011269185 0.032219745
v -0.006627675 0.011225295 0.025738035
v -0.00289086 0.01120305 0.032240835
v -0.006664215 0.01116555 0.025759125
v -0.00293025 0.011140575 0.032263575
v -0.00670395 0.011107755 0.02578206
v -0.002972715 0.01108134 0.0322881
v -0.006747 0.011051295 0.025806915
v -0.003018435 0.01102497 0.0323145
v -0.006793065 0.010997475 0.025833525
v -0.003067005 0.010972335 0.032342535
v -0.00684186 0.0109476 0.025861695
v -0.00311796 0.010924305 0.03237195
v -0.006893055 0.01090296 0.02589126
v -0.00317085 0.010881795 0.03240249
v -0.00694668 0.01086429 0.025922205
v -0.003225615 0.010845345 0.03243411
v -0.00700347 0.010830105 0.025954995
v -0.0032832 0.0108141 0.03246735
v -0.007062885 0.010800675 0.0259893
v -0.003342975 0.01078806 0.032501865
v -0.007124175 0.01077648 0.026024685
v -0.003404175 0.010767315 0.032537205
v -0.007186665 0.010758045 0.02606076
v -0.003466005 0.010752015 0.03257289
v -0.00724986 0.010745865 0.026097255
v -0.003527895 0.01074231 0.03260862
v -0.00731529 0.01074009 0.026135025
v -0.003591165 0.010738755 0.03264516
v -0.007382385 0.010740225 0.02617377
v -0.003655455 0.01074084 0.03268227
v -0.007449975 0.010745625 0.026212785
v -0.00371991 0.01074786 0.032719485
v -0.007516875 0.01075572 0.02625141
v -0.003783645 0.010759125 0.03275628
v -0.007581945 0.01076991 0.026288985
v -0.00384582 0.010773945 0.032792175
v -0.007645695 0.01078848 0.026325795
v -0.00390681 0.01079262 0.032827395
v -0.00770868 0.010811685 0.026362155
v -0.00396702 0.01081548 0.03286215
v -0.007770885 0.01083954 0.026398065
v -0.00402645 0.010842525 0.03289647
v -0.00783234 0.01087203 0.02643354
v -0.004085115 0.010873755 0.03293034
v -0.004143 0.01090917 0.03296376
v -0.007893 0.01090917 0.026468565
v -0.00701949 0.011477535 0.030419235
v -0.007062885 0.01147179 0.030319425
v -0.006997545 0.011491725 0.030518115
v -0.006997425 0.011514915 0.03061782
v -0.007018935 0.01154685 0.030717465
v -0.007059675 0.0115836 0.03080454
v -0.0129141 0.015631935 0.03802776
v -0.007121205 0.01162605 0.030880035
v -0.00719643 0.011669895 0.0309378
v -0.00728406 0.01171374 0.030974055
v -0.007380195 0.01175619 0.030989595
v -0.00747597 0.01179294 0.030981345
v -0.007573035 0.01182486 0.030950145
v -0.00765933 0.011848065 0.030900195
v -0.00773397 0.01186224 0.03083175
v -0.00779871 0.011868 0.030744255
v -0.012748005 0.014685465 0.034256055
v -0.01275912 0.01465386 0.03410121
v -0.01275912 0.014725605 0.034408905
v -0.01279158 0.01477269 0.03455469
v -0.012845295 0.01482669 0.0346932
v -0.0129186 0.0148857 0.03481935
v -0.013009905 0.01494864 0.03493116
v -0.01311774 0.01501434 0.03502617
v -0.01323864 0.01508076 0.03510162
v -0.013371015 0.01514703 0.035156595
v -0.01351119 0.015211245 0.03518922
v -0.01365594 0.015272025 0.035199195
v -0.013803075 0.01532838 0.035186055
v -0.01394781 0.01537848 0.035150235
v -0.014088 0.01542165 0.03509256
v -0.014220375 0.01545678 0.035013945
v -0.014341275 0.01548297 0.03491691
v -0.01444911 0.015499875 0.03480264
v -0.014540415 0.01550688 0.034674525
v -0.014613705 0.015504015 0.03453528
v -0.0166641 0.015631935 0.031532565
v -0.013061055 0.015703035 0.0381126
v -0.014667435 0.015491175 0.03438717
v -0.014699895 0.015468945 0.034235595
v -0.01471101 0.015437325 0.03408075
v -0.014699895 0.0153972 0.0339279
v -0.014667435 0.0153501 0.03378213
v -0.014613705 0.015296115 0.033643605
v -0.014540415 0.015237105 0.033517455
v -0.01444911 0.015174165 0.033405645
v -0.014341275 0.015108465 0.033310635
v -0.014220375 0.015042045 0.033235185
v -0.014088 0.014975775 0.033180225
v -0.01394781 0.01491156 0.033147585
v -0.013803075 0.01485078 0.03313761
v -0.01365594 0.014794425 0.03315075
v -0.01351119 0.014744325 0.03318657
v -0.013371015 0.014701155 0.033244245
v -0.01323864 0.014666025 0.03332286
v -0.01311774 0.014639835 0.033419895
v -0.013009905 0.01462293 0.033534165
v -0.0129186 0.014615925 0.03366228
v -0.007864065 0.011848065 0.03054558
v -0.007864185 0.01182486 0.030445875
v -0.007842105 0.01186224 0.030644445
v -0.012845295 0.01461879 0.033801525
v -0.01279158 0.01463163 0.033949635
v -0.00784266 0.01179294 0.030346215
v -0.007801935 0.01175619 0.03025914
v -0.00774039 0.01171374 0.03018366
v -0.00766518 0.011669895 0.030125895
v -0.007577535 0.01162605 0.03008964
v -0.0074814 0.0115836 0.030074085
v -0.007385625 0.01154685 0.03008235
v -0.00728856 0.011514915 0.030113535
v -0.00720228 0.011491725 0.0301635
v -0.007127625 0.011477535 0.030231945
v -0.016787805 0.01568982 0.03160398
v -0.01690824 0.01576113 0.03167352
v -0.013200495 0.015789195 0.038193105
v -0.01326741 0.01583793 0.03823173
v -0.01702542 0.01584585 0.03174117
v -0.013332435 0.015890445 0.03826929
v -0.017140785 0.015943785 0.031807785
v -0.01339599 0.0159468 0.03830598
v -0.013459215 0.01600728 0.038342475
v -0.01725666 0.016054575 0.031874685
v -0.01352118 0.01607166 0.03837825
v -0.01358073 0.016139685 0.038412645
v -0.0173652 0.01617939 0.03193734
v -0.01363674 0.016211115 0.03844497
v -0.01368804 0.01628568 0.038474595
v -0.01745802 0.016319685 0.031990935
v -0.01373358 0.0163632 0.038500875
v -0.013774605 0.01644477 0.038524575
v -0.01753824 0.016478625 0.032037255
v -0.013811715 0.016530375 0.038545995
v -0.017573655 0.01656396 0.0320577
v -0.01384449 0.016619145 0.038564925
v -0.017604915 0.016652025 0.032075745
v -0.013872495 0.01671024 0.038581095
v -0.017631255 0.01674198 0.032090955
v -0.013895325 0.016802835 0.038594265
v -0.01765191 0.01683297 0.03210288
v -0.013912515 0.016896045 0.038604195
v -0.01766628 0.016925025 0.032111175
v -0.013923705 0.01699041 0.03861066
v -0.017674755 0.0170208 0.032116065
v -0.013928985 0.01708764 0.038613705
v -0.01767789 0.017119305 0.03211788
v -0.013928895 0.017186685 0.038613645
v -0.017676165 0.017219115 0.032116875
v -0.013923915 0.01728639 0.038610765
v -0.01767009 0.017318775 0.03211338
v -0.01391457 0.017385585 0.03860538
v -0.01766016 0.017416875 0.032107635
v -0.01390137 0.017483145 0.03859776
v -0.01764687 0.01751199 0.03209997
v -0.01388475 0.017578095 0.03858816
v -0.017630325 0.017603835 0.032090415
v -0.013864185 0.01767162 0.038576295
v -0.01760991 0.01769415 0.032078625
v -0.013839495 0.017764095 0.03856203
v -0.01758561 0.017782995 0.0320646
v -0.013810695 0.01785555 0.038545395
v -0.017557425 0.017870355 0.032048325
v -0.013777755 0.017945955 0.03852639
v -0.01752534 0.017956275 0.0320298
v -0.01374069 0.01803534 0.038504985
v -0.01748937 0.01804071 0.03200904
v -0.013699515 0.018123675 0.03848121
v -0.017449515 0.018123675 0.03198603
v -0.014754525 0.020835165 0.034125105
v -0.01477593 0.020922705 0.034006395
v -0.01472037 0.020765055 0.03424965
v -0.01467438 0.020715645 0.03437538
v -0.014615985 0.020684865 0.034505235
v -0.01454514 0.02067267 0.03463932
v -0.014464455 0.020684865 0.034767705
v -0.01438119 0.020715645 0.034883205
v -0.0142953 0.020765055 0.034985895
v -0.01420452 0.020835165 0.035077755
v -0.01411242 0.020922705 0.035155635
v -0.014025105 0.021022215 0.03521406
v -0.01394058 0.02113665 0.035253735
v -0.01386168 0.021261045 0.03527436
v -0.01379337 0.021388305 0.035274
v -0.013733715 0.02152233 0.035252355
v -0.01368513 0.02165634 0.035211495
v -0.01365066 0.0217836 0.03515253
v -0.013629075 0.021907995 0.0350739
v -0.013621185 0.02202243 0.034980855
v -0.01095453 0.024920985 0.0368964
v -0.013628115 0.022121955 0.03487602
v -0.01364952 0.022209495 0.034757325
v -0.01470453 0.024920985 0.030401205
v -0.010905645 0.025061655 0.036868185
v -0.013683675 0.022279605 0.034632765
v -0.013729665 0.022329015 0.03450705
v -0.01378806 0.02235978 0.03437718
v -0.013858905 0.02237199 0.03424311
v -0.01393959 0.02235978 0.034114725
v -0.014022855 0.022329015 0.03399921
v -0.014108745 0.022279605 0.033896535
v -0.014199525 0.022209495 0.03380466
v -0.014291625 0.022121955 0.03372678
v -0.01437894 0.02202243 0.03366837
v -0.014463465 0.021907995 0.03362868
v -0.01454235 0.0217836 0.033608055
v -0.014610675 0.02165634 0.03360843
v -0.01467033 0.02152233 0.033630075
v -0.014718915 0.021388305 0.03367092
v -0.014753385 0.021261045 0.0337299
v -0.01477497 0.02113665 0.03380853
v -0.01478286 0.021022215 0.033901575
v -0.014649885 0.0250755 0.03036966
v -0.010844715 0.02519931 0.036832995
v -0.014582985 0.025223955 0.030331035
v -0.010771725 0.02533395 0.03679086
v -0.014503815 0.02536638 0.03028533
v -0.01068705 0.025467345 0.036741975
v -0.014412255 0.025504485 0.030232455
v -0.010591275 0.02560236 0.03668667
v -0.01430805 0.02564097 0.030172305
v -0.010482405 0.02572935 0.03662382
v -0.014191995 0.025766625 0.0301053
v -0.010358085 0.025838025 0.036552045
v -0.01406478 0.02587152 0.030031845
v -0.01028838 0.025886715 0.0365118
v -0.01399578 0.0259167 0.029992005
v -0.01021401 0.02593251 0.036468855
v -0.013923225 0.025957935 0.029950125
v -0.010136175 0.02597436 0.036423915
v -0.013847955 0.025994685 0.02990667
v -0.010056015 0.026011275 0.03637764
v -0.01377084 0.026026395 0.029862135
v -0.00997473 0.026042235 0.036330705
v -0.01369272 0.02605257 0.029817045
v -0.00989349 0.02606622 0.0362838
v -0.01361448 0.02607264 0.029771865
v -0.009812535 0.026082345 0.03623706
v -0.01353621 0.026086065 0.02972667
v -0.009729165 0.02609097 0.036188925
v -0.01345578 0.026092695 0.029680245
v -0.00964407 0.026092935 0.0361398
v -0.013373835 0.026093205 0.02963292
v -0.00955839 0.026089095 0.03609033
v -0.01329132 0.026088345 0.029585295
v -0.009473205 0.026080275 0.03604116
v -0.01320921 0.026078835 0.029537895
v -0.009389655 0.02606733 0.03599292
v -0.01312848 0.026065395 0.029491275
v -0.009308835 0.0260511 0.035946255
v -0.00923097 0.026031735 0.0359013
v -0.012974205 0.026029095 0.029402205
v -0.00915471 0.026008215 0.035857275
v -0.00907998 0.025980525 0.035814135
v -0.012826455 0.0259779 0.0293169
v -0.0089352 0.02591259 0.03573054
v -0.012683925 0.025910835 0.02923461
v -0.00879663 0.0258279 0.03565053
v -0.01254663 0.0258279 0.029155335
v -0.010439835 0.0257031 0.03226911
v -0.01051023 0.02569722 0.03212199
v -0.010347615 0.02569722 0.03240363
v -0.010244025 0.025682505 0.032519955
v -0.01012905 0.025658955 0.032618085
v -0.009999675 0.025625655 0.03269937
v -0.009858915 0.02558352 0.03276246
v -0.00971586 0.025535265 0.032803275
v -0.009570375 0.0254805 0.032820345
v -0.00942261 0.025419615 0.032815155
v -0.009282105 0.025356555 0.03278802
v -2.553e-05 0.021105135 0.03058653
v -0.00914934 0.025291155 0.032737485
v -0.009023835 0.02522358 0.032665035
v -0.008913705 0.02515818 0.032575305
v -0.00881994 0.025095105 0.0324672
v -0.008741565 0.02503422 0.03234183
v -0.008683605 0.024979455 0.032207295
v -0.008647425 0.0249312 0.03206301
v -0.00863169 0.024889065 0.03190956
v -0.00863739 0.02485578 0.031756875
v -0.008664885 0.02483223 0.03160824
v -0.00871383 0.024817515 0.03146037
v -0.008784225 0.024811635 0.031313235
v -0.003541845 0.022044015 0.028522965
v -0.00345555 0.022020825 0.028572915
v -0.0036165 0.022058205 0.02845452
v -0.00368124 0.02206395 0.028367025
v -0.00887643 0.024817515 0.031178715
v -0.008980035 0.02483223 0.03106239
v -0.009094995 0.02485578 0.030964275
v -0.009224385 0.024889065 0.030882975
v -0.003724635 0.022058205 0.02826723
v -0.009365145 0.0249312 0.030819885
v -0.009508185 0.024979455 0.03077907
v -0.00965367 0.02503422 0.030762
v -0.009801435 0.025095105 0.030767205
v -0.00994194 0.02515818 0.03079434
v -0.010074705 0.02522358 0.03084486
v -0.01020021 0.025291155 0.030917325
v -0.010310355 0.025356555 0.03100704
v -0.010404105 0.025419615 0.03111516
v -0.010482495 0.0254805 0.031240515
v -0.010540455 0.025535265 0.03137505
v -0.01057662 0.02558352 0.031519335
v -0.01059237 0.025625655 0.031672785
v -0.01058667 0.025658955 0.031825485
v -0.010559175 0.025682505 0.031974105
v -0.00374658 0.022044015 0.02816835
v -0.0037467 0.022020825 0.028068645
v -0.003725175 0.02198889 0.027968985
v -0.00368445 0.02195214 0.027881925
v -0.003622905 0.02190969 0.02780643
v -0.003547695 0.021865845 0.027748665
v -0.003460065 0.021822015 0.02771241
v -0.003363915 0.021779565 0.027696855
v -0.00377553 0.021105135 0.02409135
v -0.003268155 0.021742815 0.02770512
v -0.00317109 0.02171088 0.027736305
v -0.003084795 0.02168769 0.02778627
v -0.00301014 0.0216735 0.027854715
v -0.0029454 0.021667755 0.027942195
v 4.05e-05 0.021073395 0.030548415
v -0.00371445 0.02107671 0.024056085
v -0.00365565 0.02104473 0.02402214
v 0.00010347 0.021038325 0.030512055
v -0.003599115 0.02100924 0.0239895
v 0.000163395 0.020999925 0.030477465
v -0.00354486 0.020970195 0.023958165
v 0.000220245 0.02095821 0.03044463
v -0.00349287 0.02092764 0.02392815
v 0.00027405 0.02091315 0.030413565
v -0.003442605 0.02088135 0.02389914
v 0.000325185 0.02086455 0.030384045
v -0.003393615 0.02083119 0.02387085
v 0.000373995 0.02081217 0.030355875
v -0.00334695 0.02077752 0.02384391
v 0.0004197 0.020756505 0.03032949
v -0.00330378 0.02072073 0.02381898
v 0.000461475 0.02069802 0.03030537
v -0.0032652 0.020661225 0.023796705
v 0.00049851 0.020637225 0.03028398
v -0.00323187 0.02059899 0.02377746
v 0.000530325 0.020574195 0.03026562
v -0.003202515 0.020533125 0.023760525
v 0.0005577 0.02050785 0.03024981
v -0.003177345 0.02046429 0.02374599
v 0.000580635 0.020438925 0.030236565
v -0.003156765 0.020393325 0.023734095
v 0.00059898 0.02036829 0.030225975
v -0.003141135 0.02032107 0.02372508
v 0.000612585 0.020296845 0.030218115
v -0.00313089 0.02024808 0.02371917
v 0.000621285 0.02022522 0.030213105
v -0.00312624 0.02017254 0.023716485
v 0.00062463 0.020151915 0.03021117
v -0.003126705 0.020095155 0.02371674
v 0.00062307 0.020077335 0.03021207
v -0.0031317 0.020017305 0.023719635
v 0.000617205 0.020002515 0.03021546
v -0.00314067 0.019940355 0.02372481
v 0.000607605 0.01992849 0.030220995
v -0.003153075 0.019865655 0.02373198
v 0.00059484 0.01985625 0.03022836
v -0.003169155 0.019792605 0.023741265
v 0.00057867 0.01978536 0.03023769
v -0.00318918 0.01972056 0.023752815
v 0.000558825 0.019715325 0.030249165
v -0.003213135 0.019649505 0.023766645
v 0.000535275 0.019646175 0.030262755
v -0.003241035 0.01957947 0.023782755
v 0.00050805 0.019577865 0.030278475
v 0.000477135 0.019510425 0.030296325
v -0.003272865 0.019510425 0.02380113
v -0.00420615 0.017199345 0.024339975
v -0.00045615 0.017199345 0.030835155
v -0.002902005 0.0216735 0.028042005
v -0.00288006 0.02168769 0.028140885
v -0.00287994 0.02171088 0.02824059
v -0.002901465 0.021742815 0.02834025
v -0.00294219 0.021779565 0.02842731
v -0.003003735 0.021822015 0.028502805
v -0.003078945 0.021865845 0.02856057
v -0.003166575 0.02190969 0.028596825
v -0.003262725 0.02195214 0.028612365
v -0.003358485 0.02198889 0.028604115
v -0.00989349 0.02606622 0.0362838
v -0.009907245 0.01905633 0.03629175
v -0.009871245 0.019173885 0.03627096
v -0.00997473 0.026042235 0.036330705
v -0.009812535 0.026082345 0.03623706
v -0.009190485 0.020859615 0.03587793
v -0.009729165 0.02609097 0.036188925
v -0.00964407 0.026092935 0.0361398
v -0.00955839 0.026089095 0.03609033
v -0.009473205 0.026080275 0.03604116
v -0.009389655 0.02606733 0.03599292
v -0.009308835 0.0260511 0.035946255
v -0.00923097 0.026031735 0.0359013
v -0.00915471 0.026008215 0.035857275
v -0.009135645 0.020967015 0.035846265
v -0.00907998 0.025980525 0.035814135
v -0.00906645 0.021060705 0.03580632
v -0.0089829 0.02114067 0.03575808
v -0.0089352 0.02591259 0.03573054
v -0.008882895 0.02120793 0.035700345
v -0.00879663 0.0258279 0.03565053
v -0.008768535 0.02126148 0.035634315
v -0.008646105 0.021298215 0.03556362
v -0.008516145 0.021317415 0.03548859
v -0.0083781 0.0213198 0.035408895
v -0.008236575 0.02130447 0.03532719
v -0.008093085 0.021271125 0.035244345
v -0.00794613 0.02122005 0.03515949
v -0.00779568 0.021151275 0.03507264
v -0.00045615 0.017199345 0.030835155
v -2.553e-05 0.021105135 0.03058653
v 0.000477135 0.019510425 0.030296325
v 4.05e-05 0.021073395 0.030548415
v 0.00010347 0.021038325 0.030512055
v 0.000163395 0.020999925 0.030477465
v 0.000220245 0.02095821 0.03044463
v 0.00027405 0.02091315 0.030413565
v 0.000325185 0.02086455 0.030384045
v 0.000373995 0.02081217 0.030355875
v 0.0004197 0.020756505 0.03032949
v 0.000461475 0.02069802 0.03030537
v 0.00049851 0.020637225 0.03028398
v 0.00050805 0.019577865 0.030278475
v 0.000530325 0.020574195 0.03026562
v 0.000535275 0.019646175 0.030262755
v 0.0005577 0.02050785 0.03024981
v 0.000558825 0.019715325 0.030249165
v 0.00057867 0.01978536 0.03023769
v 0.000580635 0.020438925 0.030236565
v 0.00059484 0.01985625 0.03022836
v 0.00059898 0.02036829 0.030225975
v 0.000607605 0.01992849 0.030220995
v 0.000612585 0.020296845 0.030218115
v 0.000617205 0.020002515 0.03021546
v 0.000621285 0.02022522 0.030213105
v 0.00062307 0.020077335 0.03021207
v 0.00062463 0.020151915 0.03021117
v -0.009924915 0.018934905 0.03630195
v -0.009924255 0.018809595 0.036301575
v -0.010056015 0.026011275 0.03637764
v -0.010136175 0.02597436 0.036423915
v -0.01021401 0.02593251 0.036468855
v -0.01028838 0.025886715 0.0365118
v -0.010358085 0.025838025 0.036552045
v -0.010482405 0.02572935 0.03662382
v -0.010591275 0.02560236 0.03668667
v -0.01068705 0.025467345 0.036741975
v -0.010771725 0.02533395 0.03679086
v -0.010844715 0.02519931 0.036832995
v -0.010905645 0.025061655 0.036868185
v -0.009904605 0.018677895 0.03629022
v -0.01095453 0.024920985 0.0368964
v -0.0129141 0.015631935 0.03802776
v -0.013699515 0.018123675 0.03848121
v -0.009866625 0.018542325 0.03626829
v -0.009812295 0.018410415 0.036236925
v -0.009741495 0.01828311 0.03619605
v -0.009654345 0.01815948 0.03614574
v -0.004143 0.01090917 0.03296376
v -0.0095532 0.018044145 0.036087345
v -0.009438855 0.017938665 0.036021315
v -0.0093105 0.017841495 0.035947215
v -0.009168165 0.01775262 0.035865045
v -0.004085115 0.010873755 0.03293034
v -0.00402645 0.010842525 0.03289647
v -0.00396702 0.01081548 0.03286215
v -0.00390681 0.01079262 0.032827395
v -0.00384582 0.010773945 0.032792175
v -0.003783645 0.010759125 0.03275628
v -0.00371991 0.01074786 0.032719485
v -0.003655455 0.01074084 0.03268227
v -0.003591165 0.010738755 0.03264516
v -0.003527895 0.01074231 0.03260862
v -0.003466005 0.010752015 0.03257289
v -0.003404175 0.010767315 0.032537205
v -0.003342975 0.01078806 0.032501865
v -0.0032832 0.0108141 0.03246735
v -0.003225615 0.010845345 0.03243411
v -0.00317085 0.010881795 0.03240249
v -0.00311796 0.010924305 0.03237195
v -0.003067005 0.010972335 0.032342535
v -0.003018435 0.01102497 0.0323145
v -0.002972715 0.01108134 0.0322881
v -0.00293025 0.011140575 0.032263575
v -0.00289086 0.01120305 0.032240835
v -0.002854335 0.011269185 0.032219745
v -0.002820675 0.011338995 0.03220032
v -0.00278988 0.011412465 0.03218253
v -0.00276195 0.01148961 0.032166405
v -0.00182865 0.01380069 0.031627575
v -0.013061055 0.015703035 0.0381126
v -0.013200495 0.015789195 0.038193105
v -0.01326741 0.01583793 0.03823173
v -0.013332435 0.015890445 0.03826929
v -0.01339599 0.0159468 0.03830598
v -0.013459215 0.01600728 0.038342475
v -0.01352118 0.01607166 0.03837825
v -0.01358073 0.016139685 0.038412645
v -0.01363674 0.016211115 0.03844497
v -0.01368804 0.01628568 0.038474595
v -0.01373358 0.0163632 0.038500875
v -0.01374069 0.01803534 0.038504985
v -0.013774605 0.01644477 0.038524575
v -0.013777755 0.017945955 0.03852639
v -0.013810695 0.01785555 0.038545395
v -0.013811715 0.016530375 0.038545995
v -0.013839495 0.017764095 0.03856203
v -0.01384449 0.016619145 0.038564925
v -0.013864185 0.01767162 0.038576295
v -0.013872495 0.01671024 0.038581095
v -0.01388475 0.017578095 0.03858816
v -0.013895325 0.016802835 0.038594265
v -0.01390137 0.017483145 0.03859776
v -0.013912515 0.016896045 0.038604195
v -0.01391457 0.017385585 0.03860538
v -0.013923705 0.01699041 0.03861066
v -0.013923915 0.01728639 0.038610765
v -0.013928895 0.017186685 0.038613645
v -0.013928985 0.01708764 0.038613705
v -0.0043179 0.0182691 0.028734615
v -0.0029454 0.021667755 0.027942195
v -0.00301014 0.0216735 0.027854715
v -0.004274505 0.018274845 0.028834425
v -0.00438264 0.018274845 0.02864712
v -0.003084795 0.02168769 0.02778627
v -0.004457295 0.018289035 0.028578675
v -0.00317109 0.02171088 0.027736305
v -0.004543575 0.018312225 0.028528725
v -0.003268155 0.021742815 0.02770512
v -0.00464064 0.01834416 0.028497525
v -0.003363915 0.021779565 0.027696855
v -0.004736415 0.01838091 0.028489275
v -0.003460065 0.021822015 0.02771241
v -0.00483255 0.01842336 0.028504815
v -0.003547695 0.021865845 0.027748665
v -0.004920195 0.018467205 0.02854107
v -0.003622905 0.02190969 0.02780643
v -0.004995405 0.018511035 0.028598835
v -0.00368445 0.02195214 0.027881925
v -0.005056935 0.018553485 0.02867433
v -0.003725175 0.02198889 0.027968985
v -0.005097675 0.018590235 0.028761405
v -0.0037467 0.022020825 0.028068645
v -0.0051192 0.01862217 0.02886105
v -0.00374658 0.022044015 0.02816835
v -0.00511908 0.01864536 0.028960755
v -0.003724635 0.022058205 0.02826723
v -0.00509712 0.01865955 0.029059635
v -0.00368124 0.02206395 0.028367025
v -0.005053725 0.018665295 0.029159445
v -0.0036165 0.022058205 0.02845452
v -0.004988985 0.01865955 0.029246925
v -0.003541845 0.022044015 0.028522965
v -0.00491433 0.01864536 0.02931537
v -0.00345555 0.022020825 0.028572915
v -0.00482805 0.01862217 0.029365335
v -0.003358485 0.02198889 0.028604115
v -0.004730985 0.018590235 0.02939652
v -0.003262725 0.02195214 0.028612365
v -0.00463521 0.018553485 0.029404785
v -0.003166575 0.02190969 0.028596825
v -0.004539075 0.018511035 0.02938923
v -0.003078945 0.021865845 0.02856057
v -0.004451445 0.018467205 0.029352975
v -0.003003735 0.021822015 0.028502805
v -0.00437622 0.01842336 0.02929521
v -0.00294219 0.021779565 0.02842731
v -0.00431469 0.01838091 0.02921973
v -0.002901465 0.021742815 0.02834025
v -0.00427395 0.01834416 0.029132655
v -0.00287994 0.02171088 0.02824059
v -0.00425244 0.018312225 0.029032995
v -0.00288006 0.02168769 0.028140885
v -0.004252545 0.018289035 0.02893329
v -0.002902005 0.0216735 0.028042005
v -0.010499835 0.02056332 0.03230376
v -0.008784225 0.024811635 0.031313235
v -0.00887643 0.024817515 0.031178715
v -0.010446645 0.020559435 0.032415465
v -0.010568745 0.020559585 0.03220335
v -0.010658535 0.02054541 0.03211026
v -0.008980035 0.02483223 0.03106239
v -0.010769355 0.020521545 0.03202728
v -0.009094995 0.02485578 0.030964275
v -0.010893045 0.02048805 0.03196215
v -0.009224385 0.024889065 0.030882975
v -0.01102392 0.020446575 0.03191553
v -0.009365145 0.0249312 0.030819885
v -0.011154795 0.020398395 0.031887105
v -0.011279055 0.02034654 0.031874025
v -0.009508185 0.024979455 0.03077907
v -0.01139358 0.020291025 0.03187305
v -0.01149483 0.020233725 0.031880505
v -0.00965367 0.02503422 0.030762
v -0.011582595 0.02017305 0.031893705
v -0.011656725 0.020108325 0.03191034
v -0.009801435 0.025095105 0.030767205
v -0.01171524 0.0200379 0.0319287
v -0.01175769 0.01996143 0.03194748
v -0.01019568 0.019279125 0.031059435
v -0.01012737 0.019406385 0.031059075
v -0.010048485 0.01953078 0.0310797
v -0.00996396 0.0196452 0.031119375
v -0.009876645 0.019744725 0.0311778
v -0.009784545 0.019832265 0.03125568
v -0.009693765 0.019902375 0.03134754
v -0.009607875 0.019951785 0.03145023
v -0.00952461 0.019982565 0.03156573
v -0.009443925 0.01999476 0.031694115
v -0.00937308 0.019982565 0.0318282
v -0.01041084 0.020544855 0.032541765
v -0.00931467 0.019951785 0.031958055
v -0.01039497 0.020520345 0.03268119
v -0.009268695 0.019902375 0.03208377
v -0.010401495 0.02048598 0.032822565
v -0.009234525 0.019832265 0.03220833
v -0.010427895 0.020443635 0.032960385
v -0.009213135 0.019744725 0.03232704
v -0.01047015 0.020394465 0.03308868
v -0.009206205 0.0196452 0.03243186
v -0.010522215 0.020341665 0.033203055
v -0.009214095 0.01953078 0.032524905
v -0.010579665 0.020285145 0.033302565
v -0.01063752 0.020226705 0.033386085
v -0.00923568 0.019406385 0.032603535
v -0.010693275 0.02016462 0.03345474
v -0.00927015 0.019279125 0.032662515
v -0.01074477 0.020098185 0.03350949
v -0.01078938 0.02002593 0.033549285
v -0.008741565 0.02503422 0.03234183
v -0.009318735 0.0191451 0.03270336
v -0.01082589 0.019947375 0.033574485
v -0.00937839 0.019011075 0.032725005
v -0.010853415 0.019862535 0.03358455
v -0.0129186 0.0148857 0.03481935
v -0.01087359 0.019768665 0.03357978
v -0.0094467 0.018883815 0.032725365
v -0.01088796 0.0196659 0.03355971
v -0.010898625 0.01955859 0.033525195
v -0.0095256 0.01875942 0.03270474
v -0.01090824 0.019447395 0.033475575
v -0.009610125 0.018645 0.032665065
v -0.01092003 0.019333575 0.033410775
v -0.00969744 0.018545475 0.03260664
v -0.010936545 0.01921932 0.033327405
v -0.010962615 0.019106565 0.033225255
v -0.00978954 0.018457935 0.03252876
v -0.010991325 0.01902579 0.033131175
v -0.00988032 0.018387825 0.0324369
v -0.01102764 0.01895859 0.033029985
v -0.00996621 0.018338415 0.03233421
v -0.01107237 0.018907365 0.03292266
v -0.010049475 0.018307635 0.03221871
v -0.01112553 0.018875025 0.03281142
v -0.01013016 0.01829544 0.032090325
v -0.011186085 0.018863985 0.032699955
v -0.010201005 0.018307635 0.03195624
v -0.011249685 0.018873915 0.032596095
v -0.011319165 0.01890573 0.032494095
v -0.0102594 0.018338415 0.031826385
v -0.01139415 0.018959745 0.032395965
v -0.01030539 0.018387825 0.03170067
v -0.011473695 0.019039305 0.032302455
v -0.010339545 0.018457935 0.03157611
v -0.011552805 0.019138635 0.032220195
v -0.01036095 0.018545475 0.031457415
v -0.01162356 0.019250205 0.032153325
v -0.01036788 0.018645 0.03135258
v -0.011683035 0.019363515 0.03210189
v -0.01035999 0.01875942 0.031259535
v -0.0117294 0.019475055 0.03206262
v -0.01176399 0.01958382 0.03203178
v -0.010338405 0.018883815 0.031180905
v -0.011785065 0.019688535 0.032006775
v -0.010303935 0.019011075 0.031121925
v -0.01179189 0.01978839 0.03198525
v -0.01178289 0.019879125 0.03196599
v -0.013803075 0.01485078 0.03313761
v -0.01025535 0.0191451 0.03108108
v -0.01394781 0.01491156 0.033147585
v -0.00994194 0.02515818 0.03079434
v -0.014088 0.014975775 0.033180225
v -0.010074705 0.02522358 0.03084486
v -0.014220375 0.015042045 0.033235185
v -0.01020021 0.025291155 0.030917325
v -0.014341275 0.015108465 0.033310635
v -0.010310355 0.025356555 0.03100704
v -0.01444911 0.015174165 0.033405645
v -0.010404105 0.025419615 0.03111516
v -0.014540415 0.015237105 0.033517455
v -0.010482495 0.0254805 0.031240515
v -0.01252191 0.020355885 0.032388705
v -0.01255959 0.02027922 0.03241629
v -0.01249263 0.020440275 0.03237594
v -0.01247118 0.02053158 0.03237762
v -0.01467033 0.02152233 0.033630075
v -0.014610675 0.02165634 0.03360843
v -0.014718915 0.021388305 0.03367092
v -0.01260636 0.020207325 0.032459715
v -0.014753385 0.021261045 0.0337299
v -0.0126609 0.020139405 0.03251955
v -0.01271895 0.02007657 0.032593755
v -0.01477497 0.02113665 0.03380853
v -0.01277802 0.02001771 0.03268302
v -0.01478286 0.021022215 0.033901575
v -0.01283487 0.01996155 0.032787465
v -0.01477593 0.020922705 0.034006395
v -0.012885705 0.01990908 0.032909715
v -0.01292562 0.019858425 0.033049965
v -0.014754525 0.020835165 0.034125105
v -0.012943635 0.01982349 0.03317103
v -0.01472037 0.020765055 0.03424965
v -0.01294599 0.01979496 0.03329454
v -0.01467438 0.020715645 0.03437538
v -0.012930615 0.019773465 0.0334188
v -0.014615985 0.020684865 0.034505235
v -0.01289595 0.019760025 0.033540705
v -0.01454514 0.02067267 0.03463932
v -0.012841695 0.01975545 0.03365583
v -0.014464455 0.020684865 0.034767705
v -0.012772485 0.01975941 0.03375645
v -0.01268472 0.019772835 0.03384792
v -0.01438119 0.020715645 0.034883205
v -0.012578775 0.01979541 0.0339282
v -0.0142953 0.020765055 0.034985895
v -0.0124533 0.019829595 0.033995175
v -0.01420452 0.020835165 0.035077755
v -0.012316785 0.019872465 0.034044285
v -0.01411242 0.020922705 0.035155635
v -0.012180645 0.01992285 0.034073385
v -0.014025105 0.021022215 0.03521406
v -0.01205397 0.019975935 0.03408603
v -0.01394058 0.02113665 0.035253735
v -0.01193994 0.02003193 0.03408624
v -0.011837685 0.020090715 0.03407802
v -0.01386168 0.021261045 0.03527436
v -0.01174893 0.020153625 0.03406392
v -0.01379337 0.021388305 0.035274
v -0.01167435 0.020221515 0.03404634
v -0.01161777 0.020293215 0.034027725
v -0.01365594 0.015272025 0.035199195
v -0.013733715 0.02152233 0.035252355
v -0.011578755 0.020369925 0.03400917
v -0.01368513 0.02165634 0.035211495
v -0.01155621 0.02045448 0.033990405
v -0.00942261 0.025419615 0.032815155
v -0.011549505 0.020545605 0.0339711
v -0.01365066 0.0217836 0.03515253
v -0.01155828 0.02064276 0.03394998
v -0.01158021 0.020744925 0.033925215
v -0.013629075 0.021907995 0.0350739
v -0.01161513 0.020851665 0.03389445
v -0.013621185 0.02202243 0.034980855
v -0.011662275 0.02096295 0.033854595
v -0.01172091 0.021073815 0.033803565
v -0.013628115 0.022121955 0.03487602
v -0.01178925 0.021180855 0.03373887
v -0.01364952 0.022209495 0.034757325
v -0.01186482 0.021276525 0.033660225
v -0.013683675 0.022279605 0.034632765
v -0.01194321 0.02135514 0.033568935
v -0.013729665 0.022329015 0.03450705
v -0.0120213 0.02141214 0.033467145
v -0.01378806 0.02235978 0.03437718
v -0.01209198 0.021445125 0.033363105
v -0.013858905 0.02237199 0.03424311
v -0.012155445 0.02145477 0.03325962
v -0.01393959 0.02235978 0.034114725
v -0.01221414 0.02144481 0.03315135
v -0.01226949 0.02141094 0.03303654
v -0.014022855 0.022329015 0.03399921
v -0.0123189 0.0213525 0.032916675
v -0.014108745 0.022279605 0.033896535
v -0.012358845 0.02127198 0.03280203
v -0.014199525 0.022209495 0.03380466
v -0.01238901 0.02117433 0.03269661
v -0.014291625 0.022121955 0.03372678
v -0.01241064 0.021065145 0.03260478
v -0.01437894 0.02202243 0.03366837
v -0.01242525 0.0209526 0.03252876
v -0.014463465 0.021907995 0.03362868
v -0.01243608 0.02084004 0.032468715
v -0.012445395 0.020732355 0.03242412
v -0.01454235 0.0217836 0.033608055
v -0.01245636 0.020629395 0.032394075
v -0.009570375 0.0254805 0.032820345
v -0.00971586 0.025535265 0.032803275
v -0.009858915 0.02558352 0.03276246
v -0.009999675 0.025625655 0.03269937
v -0.01012905 0.025658955 0.032618085
v -0.010244025 0.025682505 0.032519955
v -0.010347615 0.02569722 0.03240363
v -0.010439835 0.0257031 0.03226911
v -0.01051023 0.02569722 0.03212199
v -0.010559175 0.025682505 0.031974105
v -0.01058667 0.025658955 0.031825485
v -0.01059237 0.025625655 0.031672785
v -0.01057662 0.02558352 0.031519335
v -0.010540455 0.025535265 0.03137505
v -0.01351119 0.015211245 0.03518922
v -0.009282105 0.025356555 0.03278802
v -0.013371015 0.01514703 0.035156595
v -0.00914934 0.025291155 0.032737485
v -0.01323864 0.01508076 0.03510162
v -0.009023835 0.02522358 0.032665035
v -0.01311774 0.01501434 0.03502617
v -0.008913705 0.02515818 0.032575305
v -0.013009905 0.01494864 0.03493116
v -0.00881994 0.025095105 0.0324672
v -0.013803075 0.01532838 0.035186055
v -0.01394781 0.01537848 0.035150235
v -0.014088 0.01542165 0.03509256
v -0.014220375 0.01545678 0.035013945
v -0.014341275 0.01548297 0.03491691
v -0.01444911 0.015499875 0.03480264
v -0.014540415 0.01550688 0.034674525
v -0.014613705 0.015504015 0.03453528
v -0.014667435 0.015491175 0.03438717
v -0.014699895 0.015468945 0.034235595
v -0.01471101 0.015437325 0.03408075
v -0.014699895 0.0153972 0.0339279
v -0.014667435 0.0153501 0.03378213
v -0.014613705 0.015296115 0.033643605
v -0.01365594 0.014794425 0.03315075
v -0.01351119 0.014744325 0.03318657
v -0.013371015 0.014701155 0.033244245
v -0.01323864 0.014666025 0.03332286
v -0.01311774 0.014639835 0.033419895
v -0.013009905 0.01462293 0.033534165
v -0.0129186 0.014615925 0.03366228
v -0.012845295 0.01461879 0.033801525
v -0.01279158 0.01463163 0.033949635
v -0.01275912 0.01465386 0.03410121
v -0.012748005 0.014685465 0.034256055
v -0.01275912 0.014725605 0.034408905
v -0.01279158 0.01477269 0.03455469
v -0.012845295 0.01482669 0.0346932
v -0.008683605 0.024979455 0.032207295
v -0.008647425 0.0249312 0.03206301
v -0.00863169 0.024889065 0.03190956
v -0.00863739 0.02485578 0.031756875
v -0.008664885 0.02483223 0.03160824
v -0.00871383 0.024817515 0.03146037
v -0.005690385 0.014870445 0.02952702
v -0.007062885 0.01147179 0.030319425
v -0.00701949 0.011477535 0.030419235
v -0.005755125 0.01487619 0.029439525
v -0.00564699 0.01487619 0.02962683
v -0.006997545 0.011491725 0.030518115
v -0.005625045 0.01489038 0.029725695
v -0.006997425 0.011514915 0.03061782
v -0.005624925 0.01491357 0.029825415
v -0.007018935 0.01154685 0.030717465
v -0.00564645 0.014945505 0.02992506
v -0.007059675 0.0115836 0.03080454
v -0.005687175 0.014982255 0.030012135
v -0.007121205 0.01162605 0.030880035
v -0.00574872 0.015024705 0.030087615
v -0.00719643 0.011669895 0.0309378
v -0.00582393 0.01506855 0.03014538
v -0.00728406 0.01171374 0.030974055
v -0.00591156 0.015112395 0.030181635
v -0.007380195 0.01175619 0.030989595
v -0.00600771 0.015154845 0.03019719
v -0.00747597 0.01179294 0.030981345
v -0.006103485 0.01519158 0.030188925
v -0.007573035 0.01182486 0.030950145
v -0.006200535 0.015223515 0.03015774
v -0.00765933 0.011848065 0.030900195
v -0.00628683 0.015246705 0.030107775
v -0.00773397 0.01186224 0.03083175
v -0.006361485 0.015260895 0.030039345
v -0.00779871 0.011868 0.030744255
v -0.006426225 0.01526664 0.02995185
v -0.007842105 0.01186224 0.030644445
v -0.00646962 0.015260895 0.02985204
v -0.007864065 0.011848065 0.03054558
v -0.006491565 0.015246705 0.02975316
v -0.007864185 0.01182486 0.030445875
v -0.006491685 0.015223515 0.029653455
v -0.00784266 0.01179294 0.030346215
v -0.00647016 0.01519158 0.02955381
v -0.007801935 0.01175619 0.03025914
v -0.006429435 0.015154845 0.029466735
v -0.00774039 0.01171374 0.03018366
v -0.006367905 0.015112395 0.029391255
v -0.00766518 0.011669895 0.030125895
v -0.00629268 0.01506855 0.02933349
v -0.007577535 0.01162605 0.03008964
v -0.00620505 0.015024705 0.029297235
v -0.0074814 0.0115836 0.030074085
v -0.0061089 0.014982255 0.02928168
v -0.007385625 0.01154685 0.03008235
v -0.00601314 0.014945505 0.029289945
v -0.00728856 0.011514915 0.030113535
v -0.005916075 0.01491357 0.02932113
v -0.00720228 0.011491725 0.0301635
v -0.00582978 0.01489038 0.02937108
v -0.007127625 0.011477535 0.030231945
f 1 2 3
f 1 4 2
f 5 1 3
f 6 5 3
f 7 6 3
f 8 7 3
f 9 8 3
f 10 9 3
f 11 10 3
f 12 11 3
f 13 12 3
f 14 13 3
f 15 14 3
f 16 15 3
f 17 16 3
f 18 17 3
f 19 18 3
f 20 19 3
f 21 20 3
f 22 21 3
f 23 22 3
f 24 23 3
f 25 24 3
f 26 25 3
f 27 26 3
f 28 27 3
f 28 29 27
f 28 30 29
f 4 31 2
f 4 32 31
f 4 33 32
f 4 34 33
f 4 35 34
f 4 36 35
f 4 37 36
f 4 38 37
f 4 39 38
f 38 40 37
f 38 41 40
f 38 42 41
f 38 43 42
f 38 44 43
f 38 45 44
f 38 46 45
f 38 47 46
f 38 48 47
f 38 49 48
f 38 50 49
f 38 51 50
f 51 52 50
f 51 53 52
f 51 54 53
f 51 55 54
f 51 56 55
f 56 57 55
f 57 58 55
f 58 59 55
f 59 60 55
f 60 61 55
f 61 62 55
f 62 63 55
f 63 64 55
f 64 65 55
f 64 66 65
f 66 67 65
f 66 68 67
f 68 69 67
f 68 70 69
f 70 71 69
f 70 72 71
f 72 73 71
f 72 74 73
f 74 75 73
f 74 76 75
f 76 77 75
f 76 78 77
f 78 79 77
f 78 80 79
f 78 81 80
f 4 82 39
f 4 83 82
f 4 84 83
f 4 85 84
f 4 86 85
f 4 87 86
f 4 88 87
f 4 89 88
f 4 90 89
f 4 91 90
f 4 92 91
f 4 93 92
f 4 94 93
f 4 95 94
f 4 96 95
f 4 97 96
f 4 98 97
f 4 99 98
f 4 100 99
f 4 101 100
f 4 102 101
f 4 103 102
f 4 104 103
f 104 105 103
f 105 106 103
f 106 107 103
f 107 108 103
f 108 109 103
f 109 110 103
f 109 111 110
f 111 112 110
f 111 113 112
f 113 114 112
f 113 115 114
f 113 116 115
f 116 117 115
f 116 118 117
f 118 119 117
f 118 120 119
f 120 121 119
f 120 122 121
f 120 123 122
f 123 124 122
f 123 125 124
f 125 126 124
f 125 127 126
f 127 128 126
f 127 129 128
f 130 131 132
f 130 133 131
f 134 130 132
f 135 134 132
f 136 135 132
f 137 136 132
f 138 137 132
f 139 138 132
f 140 139 132
f 141 140 132
f 142 141 132
f 143 142 132
f 144 143 132
f 145 144 132
f 146 145 132
f 146 132 147
f 148 147 132
f 149 146 147
f 150 149 147
f 151 150 147
f 152 151 147
f 153 152 147
f 154 153 147
f 155 154 147
f 156 155 147
f 157 156 147
f 158 157 147
f 158 147 159
f 160 159 147
f 161 160 147
f 133 161 147
f 133 147 131
f 148 162 147
f 148 132 163
f 164 148 163
f 164 162 148
f 165 164 163
f 165 166 164
f 165 163 167
f 168 165 167
f 168 169 165
f 168 167 170
f 171 168 170
f 171 172 168
f 171 170 173
f 174 171 173
f 174 175 171
f 174 173 176
f 177 174 176
f 177 176 178
f 179 177 178
f 179 178 180
f 181 179 180
f 181 180 182
f 183 181 182
f 183 182 184
f 185 183 184
f 185 184 186
f 185 186 187
f 188 187 186
f 185 187 189
f 190 189 187
f 190 191 189
f 191 192 189
f 192 193 189
f 193 194 189
f 194 195 189
f 195 196 189
f 195 197 196
f 197 198 196
f 198 199 196
f 199 200 196
f 200 201 196
f 201 202 196
f 202 203 196
f 203 204 196
f 204 205 196
f 205 206 196
f 206 207 196
f 207 208 196
f 208 209 196
f 209 210 196
f 196 210 211
f 210 212 211
f 213 196 211
f 214 213 211
f 214 211 215
f 216 214 215
f 216 215 217
f 218 216 217
f 218 217 219
f 220 218 219
f 220 219 221
f 222 220 221
f 222 221 223
f 224 222 223
f 224 225 222
f 224 223 226
f 227 224 226
f 227 228 224
f 227 226 229
f 230 227 229
f 230 231 227
f 230 229 232
f 233 230 232
f 233 234 230
f 233 232 235
f 233 235 236
f 236 235 237
f 233 236 238
f 236 239 238
f 233 238 234
f 236 240 239
f 236 241 240
f 240 242 239
f 242 243 239
f 243 244 239
f 244 245 239
f 245 246 239
f 246 247 239
f 247 248 239
f 248 249 239
f 249 250 239
f 250 251 239
f 250 252 251
f 252 253 251
f 253 237 251
f 253 254 237
f 254 255 237
f 255 256 237
f 257 237 256
f 257 258 237
f 258 259 237
f 259 260 237
f 260 261 237
f 261 262 237
f 262 263 237
f 263 264 237
f 264 265 237
f 265 266 237
f 266 267 237
f 236 237 267
f 236 267 268
f 236 268 241
f 230 234 231
f 227 231 228
f 224 228 225
f 222 225 269
f 222 269 220
f 220 269 270
f 220 270 218
f 218 270 271
f 218 271 216
f 216 271 272
f 216 272 214
f 214 272 273
f 214 273 213
f 213 273 274
f 213 274 275
f 213 275 196
f 196 275 189
f 189 275 276
f 189 276 277
f 185 189 277
f 185 277 278
f 185 278 183
f 183 278 279
f 183 279 181
f 181 279 280
f 181 280 179
f 179 280 281
f 179 281 177
f 177 281 282
f 177 282 174
f 174 282 175
f 210 283 212
f 283 284 212
f 284 285 212
f 285 186 212
f 285 286 186
f 286 287 186
f 287 288 186
f 288 289 186
f 289 290 186
f 290 291 186
f 291 292 186
f 292 293 186
f 293 294 186
f 294 295 186
f 295 296 186
f 296 297 186
f 297 298 186
f 298 299 186
f 299 300 186
f 300 188 186
f 171 175 172
f 168 172 169
f 165 169 166
f 164 166 301
f 164 301 162
f 302 303 304
f 305 303 302
f 306 303 305
f 306 307 303
f 306 308 307
f 309 308 306
f 309 310 308
f 311 310 309
f 311 312 310
f 313 312 311
f 313 314 312
f 315 314 313
f 315 316 314
f 317 316 315
f 317 318 316
f 319 318 317
f 319 320 318
f 321 320 319
f 321 322 320
f 323 322 321
f 323 324 322
f 325 324 323
f 325 326 324
f 327 326 325
f 327 328 326
f 329 328 327
f 329 330 328
f 331 330 329
f 331 332 330
f 333 332 331
f 333 334 332
f 335 334 333
f 335 336 334
f 337 336 335
f 337 338 336
f 339 338 337
f 339 340 338
f 341 340 339
f 341 342 340
f 343 342 341
f 343 344 342
f 345 344 343
f 345 346 344
f 347 346 345
f 347 348 346
f 349 348 347
f 349 350 348
f 351 350 349
f 351 352 350
f 353 352 351
f 353 354 352
f 355 354 353
f 356 354 355
f 356 357 354
f 358 357 356
f 358 359 357
f 356 360 358
f 361 360 356
f 362 361 356
f 363 362 356
f 363 356 364
f 365 363 364
f 366 365 364
f 367 366 364
f 368 367 364
f 369 368 364
f 370 369 364
f 371 370 364
f 372 371 364
f 373 372 364
f 374 373 364
f 374 375 373
f 376 374 364
f 377 376 364
f 378 377 364
f 379 378 364
f 380 379 364
f 381 380 364
f 382 381 364
f 383 382 364
f 384 383 364
f 385 384 364
f 386 385 364
f 387 386 364
f 388 387 364
f 389 388 364
f 390 389 364
f 391 390 364
f 392 391 364
f 393 392 364
f 393 364 394
f 395 394 364
f 396 393 394
f 397 396 394
f 397 394 398
f 399 398 394
f 400 399 394
f 401 400 394
f 402 401 394
f 403 402 394
f 403 394 357
f 404 403 357
f 405 404 357
f 406 405 357
f 407 406 357
f 408 407 357
f 409 408 357
f 410 409 357
f 411 410 357
f 412 411 357
f 413 412 357
f 414 413 357
f 415 414 357
f 415 357 416
f 417 416 357
f 415 416 418
f 415 418 373
f 419 415 373
f 420 419 373
f 375 420 373
f 421 417 357
f 422 421 357
f 423 422 357
f 424 423 357
f 425 424 357
f 426 425 357
f 427 426 357
f 428 427 357
f 429 428 357
f 430 429 357
f 430 357 359
f 395 431 394
f 395 432 431
f 433 432 395
f 434 432 433
f 434 435 432
f 436 435 434
f 436 437 435
f 438 437 436
f 439 437 438
f 439 440 437
f 441 440 439
f 442 440 441
f 442 443 440
f 444 443 442
f 445 443 444
f 445 446 443
f 447 446 445
f 448 446 447
f 448 449 446
f 450 449 448
f 450 451 449
f 452 451 450
f 452 453 451
f 454 453 452
f 454 455 453
f 456 455 454
f 456 457 455
f 458 457 456
f 458 459 457
f 460 459 458
f 460 461 459
f 462 461 460
f 462 463 461
f 464 463 462
f 464 465 463
f 466 465 464
f 466 467 465
f 468 467 466
f 468 469 467
f 470 469 468
f 470 471 469
f 472 471 470
f 472 473 471
f 474 473 472
f 474 475 473
f 476 475 474
f 476 477 475
f 478 477 476
f 478 479 477
f 480 479 478
f 480 481 479
f 482 481 480
f 482 483 481
f 484 483 482
f 484 485 483
f 486 485 484
f 486 487 485
f 488 486 484
f 489 488 484
f 490 489 484
f 491 490 484
f 492 491 484
f 493 492 484
f 494 493 484
f 495 494 484
f 496 495 484
f 497 496 484
f 498 497 484
f 499 498 484
f 500 499 484
f 501 500 484
f 502 501 484
f 503 502 484
f 504 503 484
f 505 504 484
f 505 484 506
f 507 505 506
f 508 507 506
f 508 506 509
f 510 509 506
f 511 508 509
f 512 511 509
f 513 512 509
f 513 509 514
f 515 514 509
f 516 515 509
f 517 516 509
f 518 517 509
f 519 518 509
f 520 519 509
f 521 520 509
f 522 521 509
f 523 522 509
f 524 523 509
f 525 524 509
f 526 525 509
f 527 526 509
f 528 527 509
f 528 509 485
f 487 528 485
f 510 529 509
f 530 529 510
f 530 531 529
f 532 531 530
f 532 533 531
f 534 533 532
f 534 535 533
f 536 535 534
f 536 537 535
f 538 537 536
f 538 539 537
f 540 539 538
f 540 541 539
f 542 541 540
f 542 543 541
f 544 543 542
f 544 545 543
f 546 545 544
f 546 547 545
f 548 547 546
f 548 549 547
f 550 549 548
f 550 551 549
f 552 551 550
f 552 553 551
f 554 553 552
f 554 555 553
f 556 555 554
f 556 557 555
f 558 557 556
f 558 559 557
f 560 559 558
f 560 561 559
f 562 561 560
f 562 563 561
f 564 563 562
f 564 565 563
f 566 565 564
f 567 565 566
f 567 568 565
f 569 568 567
f 570 568 569
f 570 571 568
f 572 571 570
f 572 573 571
f 574 573 572
f 574 575 573
f 576 575 574
f 576 577 575
f 578 576 574
f 579 578 574
f 580 579 574
f 581 580 574
f 582 581 574
f 583 582 574
f 584 583 574
f 585 584 574
f 586 585 574
f 586 574 587
f 588 586 587
f 589 588 587
f 590 589 587
f 591 590 587
f 592 591 587
f 593 592 587
f 594 593 587
f 595 594 587
f 596 595 587
f 597 596 587
f 598 597 587
f 598 587 599
f 599 587 600
f 601 600 587
f 599 600 602
f 599 602 603
f 604 599 603
f 605 604 603
f 606 605 603
f 607 606 603
f 607 603 575
f 603 608 575
f 609 607 575
f 610 609 575
f 611 610 575
f 612 611 575
f 613 612 575
f 614 613 575
f 615 614 575
f 616 615 575
f 617 616 575
f 618 617 575
f 619 618 575
f 620 619 575
f 621 620 575
f 622 621 575
f 623 622 575
f 577 623 575
f 608 624 575
f 624 625 575
f 625 626 575
f 626 627 575
f 627 628 575
f 628 629 575
f 629 630 575
f 630 631 575
f 631 632 575
f 631 633 632
f 633 634 632
f 634 635 632
f 632 635 636
f 636 587 632
f 636 637 587
f 638 632 587
f 638 639 632
f 638 640 639
f 641 640 638
f 641 642 640
f 643 642 641
f 643 644 642
f 645 644 643
f 645 646 644
f 647 646 645
f 647 648 646
f 649 648 647
f 649 650 648
f 651 650 649
f 651 652 650
f 653 652 651
f 653 654 652
f 655 654 653
f 655 656 654
f 657 656 655
f 657 658 656
f 659 658 657
f 659 660 658
f 661 660 659
f 661 662 660
f 663 662 661
f 663 664 662
f 665 664 663
f 665 666 664
f 667 666 665
f 667 668 666
f 669 668 667
f 669 670 668
f 671 670 669
f 671 672 670
f 673 672 671
f 673 674 672
f 675 674 673
f 675 676 674
f 677 676 675
f 677 678 676
f 679 678 677
f 679 680 678
f 681 680 679
f 681 682 680
f 683 682 681
f 683 684 682
f 685 684 683
f 685 686 684
f 687 686 685
f 688 686 687
f 688 689 686
f 688 690 689
f 691 690 688
f 692 587 637
f 692 693 587
f 693 694 587
f 694 695 587
f 695 696 587
f 696 697 587
f 697 698 587
f 698 699 587
f 699 700 587
f 700 701 587
f 701 601 587
f 702 703 704
f 702 705 703
f 706 702 704
f 707 706 704
f 707 708 706
f 707 709 708
f 707 710 709
f 707 711 710
f 707 712 711
f 707 713 712
f 707 714 713
f 707 715 714
f 707 716 715
f 716 717 715
f 716 718 717
f 718 719 717
f 719 720 717
f 719 721 720
f 721 722 720
f 721 723 722
f 723 724 722
f 724 725 722
f 725 726 722
f 726 727 722
f 727 728 722
f 728 729 722
f 729 730 722
f 730 731 722
f 731 732 722
f 731 733 732
f 733 734 732
f 733 735 734
f 733 736 735
f 733 737 736
f 733 738 737
f 733 739 738
f 733 740 739
f 733 741 740
f 733 742 741
f 733 743 742
f 733 744 743
f 744 745 743
f 744 746 745
f 746 747 745
f 746 748 747
f 748 749 747
f 749 750 747
f 749 751 750
f 751 752 750
f 751 753 752
f 753 754 752
f 753 755 754
f 755 756 754
f 755 757 756
f 757 758 756
f 705 759 703
f 705 760 759
f 705 761 760
f 761 762 760
f 762 763 760
f 763 764 760
f 764 765 760
f 765 766 760
f 766 767 760
f 767 768 760
f 768 769 760
f 769 770 760
f 770 771 760
f 771 772 760
f 771 773 772
f 773 774 772
f 773 775 774
f 774 776 772
f 774 777 776
f 774 778 777
f 774 779 778
f 774 780 779
f 780 781 779
f 780 782 781
f 780 783 782
f 780 784 783
f 780 785 784
f 785 786 784
f 786 787 784
f 787 788 784
f 788 789 784
f 789 790 784
f 790 791 784
f 791 792 784
f 792 793 784
f 793 794 784
f 794 795 784
f 795 796 784
f 796 797 784
f 797 798 784
f 798 799 784
f 799 800 784
f 800 801 784
f 801 802 784
f 802 803 784
f 803 804 784
f 804 805 784
f 805 806 784
f 806 807 784
f 807 808 784
f 808 809 784
f 809 810 784
f 810 811 784
f 775 812 774
f 775 813 812
f 775 814 813
f 775 815 814
f 775 816 815
f 775 817 816
f 775 818 817
f 775 819 818
f 775 820 819
f 775 821 820
f 775 822 821
f 775 823 822
f 823 824 822
f 823 825 824
f 825 826 824
f 826 827 824
f 826 828 827
f 828 829 827
f 828 830 829
f 830 831 829
f 830 832 831
f 832 833 831
f 832 834 833
f 834 835 833
f 834 836 835
f 836 837 835
f 836 838 837
f 838 839 837
f 839 840 837
f 841 842 843
f 844 842 841
f 845 841 843
f 845 843 846
f 845 846 847
f 847 846 848
f 847 848 849
f 849 848 850
f 849 850 851
f 851 850 852
f 851 852 853
f 853 852 854
f 853 854 855
f 855 854 856
f 855 856 857
f 857 856 858
f 857 858 859
f 859 858 860
f 859 860 861
f 861 860 862
f 861 862 863
f 863 862 864
f 863 864 865
f 865 864 866
f 865 866 867
f 867 866 868
f 867 868 869
f 869 868 870
f 869 870 871
f 871 870 872
f 871 872 873
f 873 872 874
f 873 874 875
f 875 874 876
f 875 876 877
f 877 876 878
f 877 878 879
f 879 878 880
f 879 880 881
f 881 880 882
f 881 882 883
f 883 882 884
f 883 884 885
f 885 884 886
f 885 886 887
f 887 886 888
f 887 888 889
f 889 888 890
f 889 890 891
f 891 890 892
f 891 892 893
f 893 892 894
f 893 894 895
f 895 894 896
f 895 896 844
f 844 896 842
f 897 898 899
f 900 898 897
f 901 897 899
f 901 899 902
f 902 899 903
f 902 903 904
f 904 903 905
f 904 905 906
f 906 905 907
f 906 907 908
f 908 907 909
f 908 909 910
f 910 909 911
f 911 909 912
f 911 912 913
f 913 912 914
f 914 912 915
f 914 915 916
f 916 915 917
f 917 915 918
f 917 918 919
f 919 918 920
f 917 919 921
f 919 920 921
f 917 921 922
f 916 917 922
f 914 916 922
f 914 922 923
f 913 914 923
f 913 923 924
f 911 913 924
f 910 911 924
f 910 924 925
f 908 910 925
f 908 925 926
f 906 908 926
f 906 926 927
f 904 906 927
f 904 927 928
f 902 904 928
f 902 928 929
f 901 902 929
f 901 929 930
f 901 930 897
f 897 930 931
f 900 897 931
f 932 900 931
f 932 931 933
f 934 932 933
f 934 933 935
f 936 934 935
f 936 935 937
f 938 936 937
f 938 937 939
f 940 938 939
f 940 939 941
f 942 940 941
f 942 941 943
f 944 942 943
f 945 944 943
f 945 943 946
f 947 945 946
f 947 946 948
f 949 947 948
f 950 949 948
f 950 951 949
f 950 948 952
f 953 950 952
f 953 951 950
f 953 952 954
f 955 953 954
f 955 956 953
f 957 955 954
f 957 956 955
f 957 954 958
f 959 957 958
f 960 959 958
f 960 958 961
f 962 960 961
f 962 961 963
f 964 962 963
f 964 963 965
f 966 964 965
f 966 965 967
f 967 965 968
f 969 967 968
f 969 968 970
f 971 969 970
f 971 970 972
f 973 971 972
f 973 972 974
f 975 973 974
f 975 974 976
f 977 975 976
f 977 976 978
f 979 977 978
f 980 979 978
f 980 978 981
f 982 980 981
f 982 981 983
f 984 982 983
f 984 983 985
f 986 984 985
f 986 985 987
f 988 986 987
f 988 987 989
f 990 988 989
f 990 989 991
f 992 990 991
f 993 992 991
f 993 991 994
f 995 993 994
f 995 994 996
f 997 995 996
f 998 997 996
f 998 999 997
f 998 996 1000
f 920 998 1000
f 920 999 998
f 920 1000 921
f 920 918 999
f 999 918 1001
f 1001 918 1002
f 1001 1002 1003
f 1003 1002 1004
f 1003 1004 1005
f 1005 1004 1006
f 1005 1006 1007
f 1007 1006 1008
f 1007 1008 1009
f 1009 1008 1010
f 1009 1010 1011
f 1011 1010 1012
f 1013 1011 1012
f 1014 1011 1013
f 1013 1012 1015
f 1015 1012 1016
f 1013 1015 1017
f 1015 1018 1017
f 1013 1017 1019
f 1014 1013 1019
f 1020 1014 1019
f 1020 1011 1014
f 1020 1019 1021
f 1022 1020 1021
f 1023 1022 1021
f 1023 1021 1024
f 1025 1023 1024
f 1025 1024 1026
f 1027 1025 1026
f 1027 1026 1028
f 1029 1027 1028
f 1030 1029 1028
f 1030 1028 1031
f 1032 1030 1031
f 1032 1031 1033
f 1034 1032 1033
f 1034 1033 1035
f 1036 1034 1035
f 1036 1035 1037
f 1038 1036 1037
f 1038 1037 1039
f 1038 1039 1040
f 1040 1039 1041
f 1042 1040 1041
f 1043 1042 1041
f 1043 1041 1044
f 1045 1043 1044
f 1045 1044 1046
f 1047 1045 1046
f 1047 1046 1048
f 1049 1047 1048
f 1049 1048 1050
f 1051 1049 1050
f 1051 1050 1052
f 1053 1051 1052
f 1053 1052 1054
f 1055 1053 1054
f 1056 1055 1054
f 1056 1054 1057
f 1058 1056 1057
f 1058 1057 1059
f 1060 1058 1059
f 1061 1060 1059
f 1061 1062 1060
f 1061 1059 1063
f 1064 1061 1063
f 1064 1062 1061
f 1064 1063 1065
f 1066 1064 1065
f 1066 1067 1064
f 1068 1066 1065
f 1068 1067 1066
f 1068 1065 1069
f 1070 1068 1069
f 1071 1070 1069
f 1071 1069 1072
f 1073 1071 1072
f 1073 1072 1074
f 1075 1073 1074
f 1076 1075 1074
f 1076 1074 1077
f 1078 1076 1077
f 1078 1077 1079
f 1080 1078 1079
f 1080 1079 1081
f 1082 1080 1081
f 1082 1081 1083
f 1084 1082 1083
f 1084 1083 1085
f 1086 1084 1085
f 1086 1085 1087
f 1086 1087 1088
f 1088 1087 1089
f 1090 1088 1089
f 1091 1090 1089
f 1091 1089 1092
f 1093 1091 1092
f 1093 1092 1094
f 1095 1093 1094
f 1095 1094 1096
f 1097 1095 1096
f 1097 1096 1098
f 1099 1097 1098
f 1099 1098 1100
f 1101 1099 1100
f 1101 1100 1102
f 1103 1101 1102
f 1104 1103 1102
f 1104 1102 1105
f 1106 1104 1105
f 1106 1105 1018
f 1016 1106 1018
f 1015 1016 1018
f 1068 1107 1067
f 1070 1107 1068
f 1071 1107 1070
f 1071 1108 1107
f 1073 1108 1071
f 1075 1108 1073
f 1075 1109 1108
f 1076 1109 1075
f 1078 1109 1076
f 1078 1110 1109
f 1080 1110 1078
f 1080 1111 1110
f 1082 1111 1080
f 1082 1112 1111
f 1084 1112 1082
f 1084 1113 1112
f 1086 1113 1084
f 1086 1088 1113
f 1088 1114 1113
f 1090 1114 1088
f 1090 1115 1114
f 1091 1115 1090
f 1091 1116 1115
f 1093 1116 1091
f 1093 1117 1116
f 1095 1117 1093
f 1095 1118 1117
f 1097 1118 1095
f 1099 1118 1097
f 1099 1119 1118
f 1101 1119 1099
f 1101 1120 1119
f 1103 1120 1101
f 1104 1120 1103
f 1106 1120 1104
f 1106 1012 1120
f 1016 1012 1106
f 1064 1067 1062
f 1062 1067 1121
f 1121 1067 1122
f 1121 1122 1123
f 1123 1122 1124
f 1123 1124 1125
f 1125 1124 1126
f 1125 1126 1127
f 1127 1126 1128
f 1127 1128 1129
f 1129 1128 1130
f 1129 1130 956
f 956 1130 951
f 953 956 951
f 1060 1062 1131
f 1060 1131 1058
f 1058 1131 1056
f 1056 1131 1055
f 1055 1131 1132
f 1055 1132 1053
f 1053 1132 1051
f 1051 1132 1133
f 1051 1133 1049
f 1049 1133 1134
f 1049 1134 1047
f 1047 1134 1045
f 1045 1134 1135
f 1045 1135 1043
f 1043 1135 1136
f 1043 1136 1042
f 1042 1136 1137
f 1042 1137 1040
f 1040 1137 1138
f 1038 1040 1138
f 1038 1138 1139
f 1038 1139 1036
f 1036 1139 1034
f 1034 1139 1140
f 1034 1140 1032
f 1032 1140 1141
f 1032 1141 1030
f 1030 1141 1142
f 1030 1142 1029
f 1029 1142 1027
f 1027 1142 1143
f 1027 1143 1025
f 1025 1143 1144
f 1025 1144 1023
f 1023 1144 1022
f 1022 1144 1020
f 1020 1144 1011
f 997 999 1145
f 997 1145 995
f 995 1145 993
f 993 1145 992
f 992 1145 1146
f 992 1146 990
f 990 1146 988
f 988 1146 1147
f 988 1147 986
f 986 1147 1148
f 986 1148 984
f 984 1148 982
f 982 1148 1149
f 982 1149 980
f 980 1149 1150
f 980 1150 979
f 979 1150 1151
f 979 1151 977
f 977 1151 1152
f 977 1152 975
f 975 1152 1153
f 975 1153 973
f 973 1153 971
f 971 1153 1154
f 971 1154 969
f 969 1154 1155
f 969 1155 967
f 967 1155 1156
f 966 967 1156
f 966 1156 964
f 964 1156 1157
f 964 1157 962
f 962 1157 1158
f 962 1158 960
f 960 1158 959
f 959 1158 957
f 957 1158 956
f 949 951 947
f 947 951 1159
f 947 1159 945
f 945 1159 944
f 944 1159 942
f 942 1159 1160
f 942 1160 940
f 940 1160 1161
f 940 1161 938
f 938 1161 936
f 936 1161 1162
f 936 1162 934
f 934 1162 1163
f 934 1163 932
f 932 1163 1164
f 932 1164 900
f 900 1164 898
f 1165 1166 1167
f 1168 1166 1165
f 1169 1165 1167
f 1169 1167 1170
f 1169 1170 1171
f 1171 1170 1172
f 1171 1172 1173
f 1173 1172 1174
f 1173 1174 1175
f 1175 1174 1176
f 1175 1176 1177
f 1177 1176 1178
f 1177 1178 1179
f 1179 1178 1180
f 1179 1180 1181
f 1181 1180 1182
f 1181 1182 1183
f 1183 1182 1184
f 1183 1184 1185
f 1185 1184 1186
f 1185 1186 1187
f 1187 1186 1188
f 1187 1188 1189
f 1189 1188 1190
f 1189 1190 1191
f 1191 1190 1192
f 1191 1192 1193
f 1193 1192 1194
f 1193 1194 1195
f 1195 1194 1196
f 1195 1196 1197
f 1197 1196 1198
f 1197 1198 1199
f 1199 1198 1200
f 1199 1200 1201
f 1201 1200 1202
f 1201 1202 1203
f 1203 1202 1204
f 1203 1204 1205
f 1205 1204 1206
f 1205 1206 1207
f 1207 1206 1208
f 1207 1208 1209
f 1209 1208 1210
f 1209 1210 1211
f 1211 1210 1212
f 1211 1212 1213
f 1213 1212 1214
f 1213 1214 1215
f 1215 1214 1216
f 1215 1216 1217
f 1217 1216 1218
f 1217 1218 1219
f 1219 1218 1220
f 1219 1220 1168
f 1168 1220 1166
