# Geometry extracted from Colibri.usd; meters.
v -0.007892999947 0.01090916991 -0.02646856427
v -0.005578650087 0.01380068958 -0.02513238072
v -0.01161246032 0.01704957068 -0.02861599445
v -0.01666409969 0.0156319356 -0.03153256416
v -0.007832340002 0.01087203026 -0.02643353999
v -0.007770885229 0.01083953977 -0.02639806509
v -0.007708680332 0.01081168503 -0.02636215568
v -0.007645694911 0.01078848034 -0.02632579565
v -0.007581945062 0.01076990962 -0.02628898501
v -0.007516874671 0.01075571984 -0.02625141084
v -0.007449975014 0.0107456249 -0.02621278524
v -0.007382385135 0.01074022472 -0.02617376983
v -0.007315290123 0.01074008971 -0.02613502443
v -0.007249859869 0.0107458654 -0.02609725535
v -0.00718666479 0.01075804532 -0.02606075943
v -0.007124175131 0.01077648014 -0.0260246855
v -0.007062884867 0.01080067456 -0.02598930001
v -0.007003469914 0.01083010465 -0.02595499456
v -0.00694667995 0.0108642903 -0.02592220545
v -0.006893054992 0.0109029597 -0.02589125991
v -0.006841860116 0.01094759971 -0.02586169481
v -0.006793064922 0.01099747539 -0.02583352447
v -0.006747000217 0.0110512948 -0.02580691516
v -0.006703949869 0.0111077553 -0.02578206003
v -0.006664215177 0.01116554976 -0.02575912535
v -0.006627674997 0.01122529507 -0.02573803425
v -0.006594180018 0.01128755987 -0.02571868479
v -0.006511950195 0.01148960978 -0.02567120969
v -0.006563715041 0.01135237455 -0.02570110559
v -0.006536310017 0.01141972482 -0.02568528056
v -0.01172557533 0.01712450981 -0.02868130445
v -0.01182412505 0.01721488416 -0.02873819947
v -0.011908485 0.01732146084 -0.02878690481
v -0.01197927028 0.01744535923 -0.02882777989
v -0.01203226537 0.01757858992 -0.02885838032
v -0.012065835 0.01771997988 -0.02887776017
v -0.01208058 0.01786742985 -0.02888626456
v -0.01254662991 0.02582790077 -0.02915533483
v -0.01268392503 0.02591083467 -0.0292346102
v -0.01207528532 0.01801168442 -0.02888320506
v -0.01205010027 0.01815406501 -0.02886866927
v -0.01200515985 0.01829544067 -0.02884271979
v -0.01131892473 0.01999475956 -0.02844652534
v -0.01125400543 0.02012537956 -0.02840905488
v -0.0111757502 0.0202391696 -0.02836385965
v -0.01108345538 0.02033659458 -0.02831058025
v -0.01097615987 0.02041831434 -0.02824863017
v -0.01086078018 0.02047951519 -0.02818201482
v -0.01073832035 0.0205182749 -0.02811132073
v -0.01061062485 0.02053531587 -0.02803759575
v -0.003775530159 0.02110513508 -0.02409134924
v -0.01048570544 0.02052918077 -0.02796546042
v -0.01036240518 0.0205001092 -0.02789428532
v -0.01023995966 0.02044822454 -0.02782358944
v -0.004206149876 0.01719934523 -0.02433997571
v -0.003714450002 0.02107671082 -0.02405608535
v -0.003655649945 0.02104472995 -0.02402213931
v -0.003599115014 0.02100924075 -0.0239895004
v -0.003544859961 0.02097019494 -0.02395816505
v -0.003492870033 0.0209276408 -0.02392814934
v -0.003442604989 0.02088134944 -0.02389914036
v -0.003393615112 0.02083119035 -0.02387085021
v -0.003346950039 0.02077751935 -0.0238439101
v -0.003303780109 0.02072072983 -0.02381897986
v -0.003272864968 0.01951042414 -0.02380113065
v -0.003265200108 0.02066122413 -0.02379670501
v -0.00324103497 0.01957946956 -0.02378275573
v -0.003231870085 0.02059898973 -0.02377745926
v -0.003213135079 0.01964950562 -0.0237666446
v -0.003202515095 0.0205331254 -0.02376052558
v -0.003189180046 0.01972055912 -0.02375281513
v -0.003177345023 0.02046428919 -0.0237459898
v -0.003169154897 0.01979260504 -0.02374126554
v -0.003156765103 0.02039332509 -0.0237340951
v -0.003153075054 0.01986565411 -0.02373197973
v -0.003141134977 0.02032106996 -0.0237250793
v -0.003140670061 0.01994035542 -0.02372480929
v -0.003130890056 0.0202480799 -0.0237191695
v -0.003131700084 0.02001730442 -0.02371963441
v -0.003126704916 0.02009515464 -0.02371673942
v -0.00312624 0.02017253995 -0.0237164855
v -0.01282645494 0.02597790062 -0.02931690037
v -0.01297420532 0.02602909505 -0.02940220535
v -0.01312847972 0.02606539428 -0.02949127436
v -0.01320920974 0.02607883573 -0.02953789473
v -0.0132913202 0.02608834505 -0.02958529472
v -0.01337383479 0.02609320521 -0.02963292003
v -0.01345577985 0.02609269559 -0.02968024492
v -0.01353621036 0.02608606517 -0.02972667038
v -0.0136144799 0.02607263982 -0.02977186561
v -0.01369271994 0.02605256975 -0.02981704473
v -0.01377084017 0.02602639496 -0.02986213446
v -0.01384795457 0.02599468589 -0.02990666986
v -0.0139232254 0.02595793426 -0.02995012522
v -0.01399578005 0.02591669977 -0.02999200523
v -0.01406477988 0.02587152064 -0.03003184676
v -0.01419199526 0.02576662481 -0.03010529995
v -0.01430804998 0.02564097047 -0.03017230511
v -0.01441225469 0.02550448537 -0.03023245454
v -0.01450381458 0.02536638021 -0.03028532982
v -0.01458298534 0.02522395492 -0.03033103466
v -0.014649885 0.02507550001 -0.03036965847
v -0.01470452964 0.0249209851 -0.03040120482
v -0.01678780496 0.01568981946 -0.03160397887
v -0.01690823972 0.01576113045 -0.03167351961
v -0.01702542007 0.01584585071 -0.0317411685
v -0.01714078546 0.01594378531 -0.03180778384
v -0.01725666046 0.01605457485 -0.03187468529
v -0.01736520052 0.01617939055 -0.03193734169
v -0.01744951487 0.01812367558 -0.03198602915
v -0.01745801926 0.01631968439 -0.0319909358
v -0.0174893707 0.0180407095 -0.03200903893
v -0.01753824055 0.01647862494 -0.03203725576
v -0.01752533913 0.01795627534 -0.03202979922
v -0.0175574255 0.01787035525 -0.03204832435
v -0.01757365465 0.01656396031 -0.03205770135
v -0.01758561015 0.0177829957 -0.03206459999
v -0.0176049149 0.01665202439 -0.03207574368
v -0.01760990918 0.01769415021 -0.03207862616
v -0.0176312542 0.01674198031 -0.03209095359
v -0.01763032436 0.01760383487 -0.03209041357
v -0.01764687002 0.01751199067 -0.03209996939
v -0.01765191078 0.01683296978 -0.03210288048
v -0.01766015947 0.01741687417 -0.03210763335
v -0.01766628027 0.01692502499 -0.03211117387
v -0.01767009079 0.01731877506 -0.03211338043
v -0.01767475426 0.01702079952 -0.03211606622
v -0.0176761651 0.0172191149 -0.03211687446
v -0.01767789066 0.01711930454 -0.03211787939
v -0.006013139784 0.01494550467 -0.02928994417
v -0.01161246032 0.01704957068 -0.02861599445
v -0.005578650087 0.01380068958 -0.02513238072
v -0.00591607511 0.01491357028 -0.02932112932
v -0.006108900011 0.0149822554 -0.02928167939
v -0.006205050051 0.01502470493 -0.02929723442
v -0.006292680055 0.01506855011 -0.02933349073
v -0.006367904842 0.01511239529 -0.02939125478
v -0.006429435164 0.01515484571 -0.02946673572
v -0.006470160037 0.01519157946 -0.02955380917
v -0.006491685212 0.01522351563 -0.02965345502
v -0.006491564959 0.01524670422 -0.02975315988
v -0.006469620019 0.01526089489 -0.02985204041
v -0.006426225007 0.01526664019 -0.02995185077
v -0.006361484975 0.01526089489 -0.03003934622
v -0.006286830157 0.01524670422 -0.03010777473
v -0.006200534999 0.01522351563 -0.03015773892
v -0.001828649975 0.01380068958 -0.03162757516
v -0.008694240153 0.01704957068 -0.03367049932
v -0.006103485078 0.01519157946 -0.03018892407
v -0.006007710099 0.01515484571 -0.03019718885
v -0.005911560059 0.01511239529 -0.03018163562
v -0.005823930055 0.01506855011 -0.0301453793
v -0.00574872002 0.01502470493 -0.03008761525
v -0.005687174946 0.0149822554 -0.03001213431
v -0.005646450073 0.01494550467 -0.02992506087
v -0.005624924898 0.01491357028 -0.02982541502
v -0.005625045151 0.01489037991 -0.02972569585
v -0.005646990091 0.01487619013 -0.02962682962
v -0.005690385103 0.01487044483 -0.02952701926
v -0.005755125135 0.01487619013 -0.0294395256
v -0.005829779953 0.01489037991 -0.02937107921
v -0.009168165028 0.01775262058 -0.0358650434
v -0.01172557533 0.01712450981 -0.02868130445
v -0.008831084669 0.01711933494 -0.03368209362
v -0.008954550326 0.01720471501 -0.03368719339
v -0.00943885535 0.01793866575 -0.03602131605
v -0.01182412505 0.01721488416 -0.02873819947
v -0.009062730074 0.01730325043 -0.03368702888
v -0.009553199708 0.01804414451 -0.03608734488
v -0.011908485 0.01732146084 -0.02878690481
v -0.009153975248 0.0174118799 -0.03368347406
v -0.009654344916 0.0181594795 -0.03614573836
v -0.01197927028 0.01744535923 -0.02882777989
v -0.009228300154 0.01752898514 -0.03367589951
v -0.009741495252 0.01828310966 -0.03619604945
v -0.01203226537 0.01757858992 -0.02885838032
v -0.009285509884 0.01765385985 -0.03366328597
v -0.012065835 0.01771997988 -0.02887776017
v -0.009324344695 0.01778412044 -0.03364733934
v -0.01208058 0.01786742985 -0.02888626456
v -0.009343799651 0.01791675031 -0.03362778068
v -0.01207528532 0.01801168442 -0.02888320506
v -0.009343349934 0.01804894567 -0.03360438108
v -0.01205010027 0.01815406501 -0.02886866927
v -0.009323204756 0.01817831933 -0.03357843161
v -0.01200515985 0.01829544067 -0.02884271979
v -0.01013015985 0.01829544067 -0.03209032416
v -0.01020100504 0.01830763578 -0.03195623875
v -0.009286410213 0.01829544067 -0.03355174541
v -0.01004947543 0.01830763578 -0.03221870899
v -0.009966209829 0.01833841503 -0.03233420849
v -0.009880320132 0.01838782489 -0.03243690133
v -0.009789539874 0.01845793426 -0.03252876163
v -0.009697439969 0.01854547441 -0.03260663867
v -0.009610125124 0.01864500046 -0.03266506433
v -0.008600175083 0.01999475956 -0.03315553665
v -0.009525599778 0.01875941992 -0.03270473957
v -0.009446699917 0.01888381541 -0.03272536397
v -0.009378390312 0.0190110755 -0.03272500634
v -0.009318735301 0.01914510012 -0.03270335913
v -0.009270149767 0.01927912474 -0.03266251445
v -0.009235679805 0.01940638483 -0.03260353446
v -0.009214095175 0.01953078032 -0.0325249064
v -0.00920620501 0.01964519978 -0.03243185878
v -0.009213134944 0.01974472582 -0.03232704163
v -0.009234524667 0.01983226418 -0.03220833063
v -0.009268695116 0.01990237534 -0.03208376884
v -0.009314669967 0.01995178521 -0.0319580555
v -0.009373080432 0.01998256445 -0.03182820082
v -0.009443924725 0.01999475956 -0.0316941154
v -0.01125400543 0.02012537956 -0.02840905488
v -0.01131892473 0.01999475956 -0.02844652534
v -0.00854524523 0.02010469437 -0.03312926888
v -0.008470185399 0.02021113515 -0.03310024381
v -0.0111757502 0.0202391696 -0.02836385965
v -0.008379285336 0.02030528963 -0.03307088971
v -0.01108345538 0.02033659458 -0.02831058025
v -0.0082742697 0.02038499951 -0.0330409956
v -0.01097615987 0.02041831434 -0.02824863017
v -0.008157225251 0.02044900417 -0.03301168442
v -0.01086078018 0.02047951519 -0.02818201482
v -0.008030669689 0.02049622536 -0.03298417568
v -0.01073832035 0.0205182749 -0.02811132073
v -0.007897335291 0.02052518964 -0.03295768619
v -0.008516145051 0.02131741583 -0.03548859
v -0.01061062485 0.02053531587 -0.02803759575
v -0.007757789791 0.0205359453 -0.03293339968
v -0.008378099799 0.02131979942 -0.03540889621
v -0.01048570544 0.02052918077 -0.02796546042
v -0.007613039911 0.02052763581 -0.03291250348
v -0.008236574829 0.0213044697 -0.03532718897
v -0.01036240518 0.0205001092 -0.02789428532
v -0.007466624826 0.02049865544 -0.03289423585
v -0.008093084693 0.02127112448 -0.03524434447
v -0.01023995966 0.02044822454 -0.02782358944
v -0.007321755141 0.02044822454 -0.03287807822
v -0.004206149876 0.01719934523 -0.02433997571
v -0.007946130037 0.02122004986 -0.03515949011
v -0.007795679569 0.02115127444 -0.03507264018
v -0.005053724796 0.01866529584 -0.02915944576
v -0.005097119808 0.01865955055 -0.0290596354
v -0.004988985211 0.01865955055 -0.02924692512
v -0.004914329946 0.01864535987 -0.02931536973
v -0.004828049988 0.01862216949 -0.0293653357
v -0.004730984867 0.01859023511 -0.02939652085
v -0.004635209888 0.01855348527 -0.02940478563
v -0.004539075047 0.01851103485 -0.02938923061
v -0.004451445043 0.01846720576 -0.0293529743
v -0.004376219809 0.01842336059 -0.02929521024
v -0.004314689934 0.01838091016 -0.0292197293
v -0.0004561499879 0.01719934523 -0.03083515406
v -0.004273949862 0.01834416032 -0.02913265586
v -0.004252439886 0.01831222415 -0.0290329957
v -0.00425254494 0.01828903556 -0.02893329084
v -0.004274505079 0.01827484488 -0.02883442461
v -0.004317900091 0.01826909959 -0.02873461425
v -0.004382640123 0.01827484488 -0.02864712059
v -0.004457294941 0.01828903556 -0.0285786742
v -0.004543574899 0.01831222415 -0.02852872431
v -0.00464064002 0.01834416032 -0.02849752486
v -0.004736414999 0.01838091016 -0.02848927438
v -0.00483254984 0.01842336059 -0.0285048151
v -0.004920195043 0.01846720576 -0.02854106963
v -0.004995405078 0.01851103485 -0.02859883547
v -0.005056934953 0.01855348527 -0.02867433071
v -0.005097675025 0.01859023511 -0.02876140416
v -0.0051192002 0.01862216949 -0.02886105001
v -0.005119079947 0.01864535987 -0.02896075487
v -0.00864610523 0.02129821479 -0.03556362033
v -0.00876853466 0.02126147926 -0.03563431621
v -0.008882895112 0.02120792985 -0.03570034504
v -0.008982900381 0.02114067078 -0.03575808048
v -0.009066450298 0.02106070518 -0.03580632091
v -0.009135645032 0.02096701562 -0.03584626436
v -0.009190484583 0.02085961461 -0.03587792873
v -0.009871245325 0.01917388558 -0.03627096176
v -0.00990724504 0.01905632973 -0.03629175067
v -0.009924915433 0.01893490434 -0.03630195022
v -0.009924254715 0.01880959511 -0.03630157471
v -0.009904604852 0.01867789507 -0.03629022002
v -0.009866624773 0.0185423255 -0.03626829028
v -0.009812294841 0.01841041446 -0.03623692632
v -0.009524610043 0.01998256445 -0.03156573057
v -0.009607874751 0.01995178521 -0.03145023108
v -0.009693765342 0.01990237534 -0.03134753823
v -0.009784544706 0.01983226418 -0.03125568151
v -0.009876644611 0.01974472582 -0.03117780089
v -0.00996396035 0.01964519978 -0.03111937523
v -0.0100484848 0.01953078032 -0.03107969999
v -0.01012737036 0.01940638483 -0.03105907559
v -0.01019567996 0.01927912474 -0.03105943322
v -0.01025535017 0.01914510012 -0.03108108044
v -0.01030393481 0.0190110755 -0.03112192512
v -0.01033840477 0.01888381541 -0.0311809051
v -0.0103599903 0.01875941992 -0.03125953674
v -0.01036787957 0.01864500046 -0.03135258079
v -0.01036094964 0.01854547441 -0.03145741582
v -0.01033954471 0.01845793426 -0.03157610893
v -0.01030539036 0.01838782489 -0.03170067072
v -0.01025940031 0.01833841503 -0.03182638407
v -0.009310500026 0.01784149468 -0.03594721556
v -0.001828649975 0.01380068958 -0.03162757516
v -0.005578650087 0.01380068958 -0.02513238072
v -0.006511950195 0.01148960978 -0.02567120969
v -0.002761949971 0.01148960978 -0.03216640592
v -0.002789880037 0.01141246498 -0.03218253136
v -0.006536310017 0.01141972482 -0.02568528056
v -0.006563715041 0.01135237455 -0.02570110559
v -0.002820674926 0.0113389948 -0.03220031977
v -0.006594180018 0.01128755987 -0.02571868479
v -0.002854335085 0.01126918495 -0.03221974611
v -0.006627674997 0.01122529507 -0.02573803425
v -0.002890860066 0.01120304972 -0.03224083543
v -0.006664215177 0.01116554976 -0.02575912535
v -0.002930250093 0.01114057481 -0.03226357341
v -0.006703949869 0.0111077553 -0.02578206003
v -0.00297271505 0.01108134001 -0.03228809953
v -0.006747000217 0.0110512948 -0.02580691516
v -0.003018435091 0.01102496982 -0.03231449962
v -0.006793064922 0.01099747539 -0.02583352447
v -0.003067004979 0.01097233504 -0.03234253407
v -0.006841860116 0.01094759971 -0.02586169481
v -0.003117960021 0.01092430472 -0.03237194896
v -0.006893054992 0.0109029597 -0.02589125991
v -0.003170850053 0.01088179529 -0.03240249038
v -0.00694667995 0.0108642903 -0.02592220545
v -0.00322561495 0.01084534496 -0.03243410826
v -0.007003469914 0.01083010465 -0.02595499456
v -0.003283199966 0.01081409991 -0.03246734977
v -0.007062884867 0.01080067456 -0.02598930001
v -0.003342975006 0.01078806013 -0.03250186443
v -0.007124175131 0.01077648014 -0.0260246855
v -0.003404174969 0.01076731503 -0.03253720522
v -0.00718666479 0.01075804532 -0.02606075943
v -0.003466005027 0.01075201482 -0.03257288933
v -0.007249859869 0.0107458654 -0.02609725535
v -0.003527894989 0.01074230969 -0.03260861993
v -0.007315290123 0.01074008971 -0.02613502443
v -0.003591164947 0.01073875487 -0.03264515877
v -0.007382385135 0.01074022472 -0.02617376983
v -0.003655455038 0.01074083984 -0.03268226981
v -0.007449975014 0.0107456249 -0.02621278524
v -0.003719910085 0.01074786007 -0.03271948457
v -0.007516874671 0.01075571984 -0.02625141084
v -0.003783645183 0.01075912535 -0.0327562809
v -0.007581945062 0.01076990962 -0.02628898501
v -0.003845820129 0.01077394456 -0.03279217601
v -0.007645694911 0.01078848034 -0.02632579565
v -0.003906809986 0.01079261988 -0.0328273952
v -0.007708680332 0.01081168503 -0.02636215568
v -0.003967020214 0.01081548035 -0.03286214948
v -0.007770885229 0.01083953977 -0.02639806509
v -0.004026449919 0.01084252506 -0.03289647102
v -0.007832340002 0.01087203026 -0.02643353999
v -0.004085115194 0.01087375492 -0.03293033838
v -0.004142999947 0.01090916991 -0.03296375871
v -0.007892999947 0.01090916991 -0.02646856427
v -0.007019489855 0.01147753537 -0.03041923642
v -0.007062884867 0.01147179008 -0.03031942606
v -0.006997544914 0.01149172515 -0.03051811337
v -0.006997425109 0.01151491463 -0.03061782002
v -0.007018935084 0.01154684991 -0.03071746588
v -0.007059675157 0.01158359975 -0.03080454111
v -0.01291409969 0.0156319356 -0.0380277586
v -0.007121205032 0.01162605017 -0.03088003635
v -0.007196429819 0.01166989535 -0.03093780041
v -0.007284059823 0.01171373963 -0.03097405672
v -0.007380195111 0.01175619006 -0.03098959565
v -0.007475970089 0.0117929399 -0.03098134518
v -0.007573034763 0.01182485998 -0.03095014572
v -0.007659330368 0.01184806466 -0.03090019584
v -0.007733969986 0.01186224014 -0.03083174944
v -0.007798709571 0.01186799973 -0.03074425578
v -0.01274800479 0.0146854654 -0.03425605416
v -0.01275911987 0.01465386003 -0.03410120845
v -0.01275911987 0.01472560465 -0.03440890431
v -0.01279157996 0.01477268994 -0.03455469131
v -0.01284529477 0.01482668996 -0.03469320059
v -0.01291860044 0.01488570035 -0.03481935024
v -0.01300990462 0.01494864017 -0.03493115902
v -0.01311774015 0.01501434088 -0.03502617002
v -0.01323863983 0.01508075953 -0.03510161877
v -0.01337101489 0.01514702976 -0.03515659332
v -0.01351118982 0.01521124542 -0.03518921971
v -0.0136559397 0.01527202427 -0.03519919395
v -0.01380307496 0.01532837927 -0.03518605471
v -0.01394780964 0.01537847936 -0.0351502347
v -0.01408799976 0.01542165041 -0.03509256005
v -0.01422037482 0.0154567802 -0.03501394629
v -0.01434127539 0.01548296928 -0.03491691113
v -0.01444911003 0.01549987435 -0.03480263829
v -0.01454041511 0.01550688028 -0.03467452526
v -0.01461370468 0.01550401568 -0.03453527927
v -0.01666409969 0.0156319356 -0.03153256416
v -0.01306105524 0.01570303559 -0.03811259866
v -0.01466743469 0.01549117506 -0.03438717127
v -0.01469989479 0.01546894491 -0.03423559427
v -0.01471100986 0.01543732524 -0.03408074856
v -0.01469989479 0.01539719939 -0.03392789841
v -0.01466743469 0.0153500998 -0.03378212929
v -0.01461370468 0.01529611588 -0.03364360571
v -0.01454041511 0.01523710549 -0.03351745605
v -0.01444911003 0.01517416477 -0.0334056437
v -0.01434127539 0.01510846496 -0.03331063628
v -0.01422037482 0.01504204452 -0.03323518395
v -0.01408799976 0.01497577518 -0.0331802237
v -0.01394780964 0.01491156042 -0.03314758658
v -0.01380307496 0.01485077977 -0.03313760877
v -0.0136559397 0.01479442477 -0.03315075159
v -0.01351118982 0.01474432468 -0.0331865716
v -0.01337101489 0.01470115542 -0.03324424624
v -0.01323863983 0.01466602474 -0.03332286
v -0.01311774015 0.01463983476 -0.03341989517
v -0.01300990462 0.01462292969 -0.03353416443
v -0.01291860044 0.01461592466 -0.03366228104
v -0.00786406517 0.01184806466 -0.0305455792
v -0.007864184976 0.01182485998 -0.03044587612
v -0.007842105031 0.01186224014 -0.03064444542
v -0.01284529477 0.01461879015 -0.03380152345
v -0.01279157996 0.01463162988 -0.03394963503
v -0.007842660248 0.0117929399 -0.03034621596
v -0.007801935375 0.01175619006 -0.03025914073
v -0.007740390301 0.01171373963 -0.03018365979
v -0.007665180266 0.01166989535 -0.03012589574
v -0.007577534616 0.01162605017 -0.03008963943
v -0.007481400222 0.01158359975 -0.03007408619
v -0.007385624796 0.01154684991 -0.03008235097
v -0.007288560122 0.01151491463 -0.03011353612
v -0.007202280164 0.01149172515 -0.03016350031
v -0.007127624899 0.01147753537 -0.03023194671
v -0.01678780496 0.01568981946 -0.03160397887
v -0.01690823972 0.01576113045 -0.03167351961
v -0.01320049524 0.0157891953 -0.03819310427
v -0.0132674101 0.01583792925 -0.03823173165
v -0.01702542007 0.01584585071 -0.0317411685
v -0.01333243489 0.01589044511 -0.03826928973
v -0.01714078546 0.01594378531 -0.03180778384
v -0.01339598984 0.01594680011 -0.03830597878
v -0.01345921487 0.01600728035 -0.0383424747
v -0.01725666046 0.01605457485 -0.03187468529
v -0.01352118015 0.01607166052 -0.03837824821
v -0.01358072966 0.01613968492 -0.03841264486
v -0.01736520052 0.01617939055 -0.03193734169
v -0.01363674045 0.01621111572 -0.03844497085
v -0.01368804038 0.01628567934 -0.03847459674
v -0.01745801926 0.01631968439 -0.0319909358
v -0.01373357981 0.01636320055 -0.03850087523
v -0.0137746051 0.0164447701 -0.03852457523
v -0.01753824055 0.01647862494 -0.03203725576
v -0.01381171525 0.01653037548 -0.03854599357
v -0.01757365465 0.01656396031 -0.03205770135
v -0.01384449005 0.01661914587 -0.03856492639
v -0.0176049149 0.01665202439 -0.03207574368
v -0.013872495 0.01671024084 -0.03858109474
v -0.0176312542 0.01674198031 -0.03209095359
v -0.01389532506 0.01680283427 -0.03859426618
v -0.01765191078 0.01683296978 -0.03210288048
v -0.01391251534 0.01689604461 -0.03860419393
v -0.01766628027 0.01692502499 -0.03211117387
v -0.01392370462 0.01699041009 -0.03861065984
v -0.01767475426 0.01702079952 -0.03211606622
v -0.013928985 0.01708764017 -0.03861370325
v -0.01767789066 0.01711930454 -0.03211787939
v -0.0139288947 0.0171866852 -0.03861364603
v -0.0176761651 0.0172191149 -0.03211687446
v -0.01392391473 0.01728639007 -0.03861076355
v -0.01767009079 0.01731877506 -0.03211338043
v -0.01391456991 0.01738558531 -0.03860538125
v -0.01766015947 0.01741687417 -0.03210763335
v -0.01390136987 0.0174831444 -0.0385977602
v -0.01764687002 0.01751199067 -0.03209996939
v -0.01388475001 0.0175780946 -0.03858816147
v -0.01763032436 0.01760383487 -0.03209041357
v -0.01386418462 0.01767161965 -0.03857629538
v -0.01760990918 0.01769415021 -0.03207862616
v -0.01383949488 0.01776409507 -0.0385620296
v -0.01758561015 0.0177829957 -0.03206459999
v -0.01381069511 0.01785554945 -0.03854539633
v -0.0175574255 0.01787035525 -0.03204832435
v -0.0137777549 0.0179459542 -0.03852638841
v -0.01752533913 0.01795627534 -0.03202979922
v -0.01374069035 0.01803533971 -0.03850498438
v -0.0174893707 0.0180407095 -0.03200903893
v -0.01369951487 0.01812367558 -0.03848120928
v -0.01744951487 0.01812367558 -0.03198602915
v -0.01475452513 0.02083516538 -0.03412510514
v -0.01477593005 0.02092270553 -0.03400639415
v -0.01472036988 0.02076505423 -0.03424964905
v -0.01467437983 0.02071564436 -0.03437538028
v -0.01461598456 0.02068486512 -0.03450523496
v -0.01454514027 0.02067267001 -0.03463932037
v -0.01446445495 0.02068486512 -0.0347677052
v -0.01438119024 0.02071564436 -0.0348832047
v -0.01429529965 0.02076505423 -0.03498589396
v -0.01420452029 0.02083516538 -0.03507775426
v -0.01411242038 0.02092270553 -0.03515563488
v -0.01402510464 0.02102221549 -0.03521406054
v -0.01394058019 0.02113664925 -0.03525373578
v -0.01386168033 0.02126104474 -0.03527436018
v -0.01379336983 0.02138830483 -0.03527399898
v -0.01373371482 0.02152232945 -0.03525235534
v -0.01368513018 0.02165633976 -0.03521149635
v -0.01365066022 0.02178359985 -0.03515253067
v -0.01362907469 0.02190799534 -0.03507389903
v -0.01362118542 0.02202242911 -0.03498085499
v -0.01095452964 0.0249209851 -0.03689639926
v -0.01362811536 0.02212195516 -0.03487601995
v -0.01364952028 0.02220949531 -0.03475732327
v -0.01470452964 0.0249209851 -0.03040120482
v -0.0109056446 0.02506165445 -0.036868186
v -0.01368367463 0.02227960467 -0.03463276505
v -0.01372966468 0.02232901454 -0.03450705171
v -0.01378805995 0.02235977948 -0.03437717915
v -0.01385890514 0.02237199068 -0.03424311161
v -0.01393958956 0.02235977948 -0.03411472678
v -0.01402285516 0.02232901454 -0.0339992094
v -0.01410874486 0.02227960467 -0.03389653444
v -0.01419952512 0.02220949531 -0.03380465984
v -0.01429162502 0.02212195516 -0.03372677922
v -0.01437893987 0.02202242911 -0.03366837144
v -0.01446346521 0.02190799534 -0.03362867832
v -0.01454234987 0.02178359985 -0.03360805392
v -0.01461067468 0.02165633976 -0.03360842943
v -0.01467032969 0.02152232945 -0.03363007665
v -0.01471891522 0.02138830483 -0.03367092133
v -0.01475338519 0.02126104474 -0.03372990131
v -0.01477496982 0.02113664925 -0.03380852938
v -0.01478285998 0.02102221549 -0.03390157342
v -0.014649885 0.02507550001 -0.03036965847
v -0.01084471464 0.02519931078 -0.03683299541
v -0.01458298534 0.02522395492 -0.03033103466
v -0.01077172458 0.02533395052 -0.0367908597
v -0.01450381458 0.02536638021 -0.03028532982
v -0.01068704993 0.02546734571 -0.03674197555
v -0.01441225469 0.02550448537 -0.03023245454
v -0.01059127539 0.02560235918 -0.0366866684
v -0.01430804998 0.02564097047 -0.03017230511
v -0.01048240542 0.02572934926 -0.03662381887
v -0.01419199526 0.02576662481 -0.03010529995
v -0.01035808504 0.02583802521 -0.03655204654
v -0.01406477988 0.02587152064 -0.03003184676
v -0.01028837979 0.02588671446 -0.0365117991
v -0.01399578005 0.02591669977 -0.02999200523
v -0.01021401018 0.0259325105 -0.03646885514
v -0.0139232254 0.02595793426 -0.02995012522
v -0.01013617516 0.02597436011 -0.03642391562
v -0.01384795457 0.02599468589 -0.02990666986
v -0.01005601466 0.02601127446 -0.03637763858
v -0.01377084017 0.02602639496 -0.02986213446
v -0.009974730313 0.0260422343 -0.0363307035
v -0.01369271994 0.02605256975 -0.02981704473
v -0.009893489778 0.0260662204 -0.0362838006
v -0.0136144799 0.02607263982 -0.02977186561
v -0.009812535346 0.02608234584 -0.03623705864
v -0.01353621036 0.02608606517 -0.02972667038
v -0.009729165137 0.02609097004 -0.0361889255
v -0.01345577985 0.02609269559 -0.02968024492
v -0.009644070268 0.0260929352 -0.03613980174
v -0.01337383479 0.02609320521 -0.02963292003
v -0.009558389783 0.02608909428 -0.03609033108
v -0.0132913202 0.02608834505 -0.02958529472
v -0.009473204613 0.02608027518 -0.03604116082
v -0.01320920974 0.02607883573 -0.02953789473
v -0.009389654696 0.02606733084 -0.0359929204
v -0.01312847972 0.02606539428 -0.02949127436
v -0.009308835268 0.0260510999 -0.03594625354
v -0.009230969846 0.02603173435 -0.03590129972
v -0.01297420532 0.02602909505 -0.02940220535
v -0.009154710174 0.02600821495 -0.03585727572
v -0.009079980254 0.02598052561 -0.03581413507
v -0.01282645494 0.02597790062 -0.02931690037
v -0.008935199976 0.02591259062 -0.03573053956
v -0.01268392503 0.02591083467 -0.0292346102
v -0.008796629906 0.02582790077 -0.03565053105
v -0.01254662991 0.02582790077 -0.02915533483
v -0.01043983519 0.02570309937 -0.03226910949
v -0.01051022977 0.02569721997 -0.03212198853
v -0.01034761459 0.02569721997 -0.03240363121
v -0.01024402499 0.02568250537 -0.03251995325
v -0.01012905031 0.02565895557 -0.03261808634
v -0.009999674857 0.02562565506 -0.03269937158
v -0.00985891521 0.02558351934 -0.03276246071
v -0.009715859592 0.02553526461 -0.03280327678
v -0.009570374787 0.02548049927 -0.03282034636
v -0.009422610104 0.02541961491 -0.0328151536
v -0.009282105267 0.02535655439 -0.03278802037
v -2.553000057e-05 0.02110513508 -0.03058653116
v -0.009149340391 0.02529115498 -0.03273748398
v -0.009023835361 0.02522357941 -0.03266503572
v -0.008913704753 0.02515818 -0.03257530332
v -0.00881994009 0.02509510517 -0.03246719956
v -0.008741565049 0.02503422081 -0.03234182954
v -0.008683605194 0.02497945547 -0.03220729351
v -0.008647424877 0.02493120074 -0.03206300855
v -0.008631690145 0.02488906503 -0.03190956116
v -0.008637389839 0.0248557806 -0.03175687551
v -0.008664885163 0.02483223081 -0.03160823822
v -0.008713830113 0.02481751442 -0.03146036983
v -0.008784224689 0.02481163502 -0.03131323457
v -0.003541844934 0.02204401553 -0.02852296472
v -0.00345555 0.02202082515 -0.0285729146
v -0.003616499975 0.02205820441 -0.02845452011
v -0.003681240007 0.0220639497 -0.02836702466
v -0.008876430094 0.02481751442 -0.03117871642
v -0.008980034888 0.02483223081 -0.0310623908
v -0.00909499526 0.0248557806 -0.0309642756
v -0.009224385023 0.02488906503 -0.03088297606
v -0.00372463502 0.02205820441 -0.02826723039
v -0.00936514467 0.02493120074 -0.03081988335
v -0.009508185089 0.02497945547 -0.03077907085
v -0.009653669894 0.02503422081 -0.03076200128
v -0.009801434577 0.02509510517 -0.03076720476
v -0.009941940308 0.02515818 -0.03079434156
v -0.01007470518 0.02522357941 -0.03084486008
v -0.01020021021 0.02529115498 -0.03091732621
v -0.01031035513 0.02535655439 -0.03100704074
v -0.01040410459 0.02541961491 -0.0311151588
v -0.01048249483 0.02548049927 -0.03124051452
v -0.01054045469 0.02553526461 -0.03137505054
v -0.0105766198 0.02558351934 -0.03151933551
v -0.01059236974 0.02562565506 -0.03167278647
v -0.01058667004 0.02565895557 -0.03182548642
v -0.01055917472 0.02568250537 -0.03197410583
v -0.00374657996 0.02204401553 -0.02816834986
v -0.003746699989 0.02202082515 -0.028068645
v -0.003725175038 0.02198889077 -0.02796898484
v -0.003684449941 0.02195213914 -0.0278819257
v -0.00362290509 0.0219096905 -0.02780643046
v -0.003547695056 0.02186584532 -0.02774866462
v -0.003460065052 0.02182201445 -0.02771241009
v -0.003363915011 0.02177956581 -0.02769685507
v -0.003775530159 0.02110513508 -0.02409134924
v -0.003268155009 0.02174281418 -0.02770511985
v -0.003171090111 0.0217108798 -0.027736305
v -0.003084794953 0.02168768942 -0.02778626919
v -0.003010139912 0.02167350054 -0.02785471559
v -0.002945400104 0.02166775525 -0.02794219494
v 4.050000105e-05 0.02107339561 -0.03054841518
v -0.003714450002 0.02107671082 -0.02405608535
v -0.003655649945 0.02104472995 -0.02402213931
v 0.0001034699986 0.02103832483 -0.03051205516
v -0.003599115014 0.02100924075 -0.0239895004
v 0.0001633950043 0.02099992454 -0.03047746539
v -0.003544859961 0.02097019494 -0.02395816505
v 0.0002202449972 0.02095821083 -0.03044463158
v -0.003492870033 0.0209276408 -0.02392814934
v 0.0002740500122 0.02091314971 -0.03041356444
v -0.003442604989 0.02088134944 -0.02389914036
v 0.0003251850139 0.02086454988 -0.03038404584
v -0.003393615112 0.02083119035 -0.02387085021
v 0.0003739949875 0.02081216991 -0.03035587549
v -0.003346950039 0.02077751935 -0.0238439101
v 0.0004196999967 0.02075650513 -0.03032948971
v -0.003303780109 0.02072072983 -0.02381897986
v 0.000461475011 0.02069802046 -0.03030537128
v -0.003265200108 0.02066122413 -0.02379670501
v 0.0004985100031 0.02063722551 -0.03028398156
v -0.003231870085 0.02059898973 -0.02377745926
v 0.0005303250253 0.02057419538 -0.03026562095
v -0.003202515095 0.0205331254 -0.02376052558
v 0.0005576999858 0.02050785005 -0.03024981022
v -0.003177345023 0.02046428919 -0.0237459898
v 0.0005806349963 0.02043892443 -0.03023656368
v -0.003156765103 0.02039332509 -0.0237340951
v 0.0005989800207 0.02036828935 -0.03022597432
v -0.003141134977 0.02032106996 -0.0237250793
v 0.000612585023 0.02029684424 -0.03021811366
v -0.003130890056 0.0202480799 -0.0237191695
v 0.0006212849915 0.02022522032 -0.03021310329
v -0.00312624 0.02017253995 -0.0237164855
v 0.0006246299855 0.02015191555 -0.03021116853
v -0.003126704916 0.02009515464 -0.02371673942
v 0.0006230700016 0.02007733583 -0.03021206975
v -0.003131700084 0.02001730442 -0.02371963441
v 0.0006172050163 0.02000251472 -0.03021546006
v -0.003140670061 0.01994035542 -0.02372480929
v 0.0006076049991 0.01992848933 -0.03022099614
v -0.003153075054 0.01986565411 -0.02373197973
v 0.0005948399752 0.01985625029 -0.0302283597
v -0.003169154897 0.01979260504 -0.02374126554
v 0.0005786699988 0.0197853595 -0.03023769021
v -0.003189180046 0.01972055912 -0.02375281513
v 0.0005588250048 0.01971532524 -0.03024916649
v -0.003213135079 0.01964950562 -0.0237666446
v 0.0005352749862 0.01964617431 -0.03026275635
v -0.00324103497 0.01957946956 -0.02378275573
v 0.0005080500059 0.0195778656 -0.03027847409
v 0.0004771349765 0.01951042414 -0.0302963233
v -0.003272864968 0.01951042414 -0.02380113065
v -0.004206149876 0.01719934523 -0.02433997571
v -0.0004561499879 0.01719934523 -0.03083515406
v -0.002902005091 0.02167350054 -0.0280420053
v -0.002880059928 0.02168768942 -0.02814088583
v -0.002879939899 0.0217108798 -0.02824059069
v -0.002901465073 0.02174281418 -0.02834025085
v -0.002942189947 0.02177956581 -0.02842730999
v -0.003003735021 0.02182201445 -0.02850280523
v -0.003078945056 0.02186584532 -0.02856056929
v -0.003166575059 0.0219096905 -0.0285968256
v -0.0032627251 0.02195213914 -0.02861236453
v -0.003358485103 0.02198889077 -0.02860411584
v -0.009893489778 0.0260662204 -0.0362838006
v -0.009871245325 0.01917388558 -0.03627096176
v -0.00990724504 0.01905632973 -0.03629175067
v -0.009974730313 0.0260422343 -0.0363307035
v -0.009812535346 0.02608234584 -0.03623705864
v -0.009190484583 0.02085961461 -0.03587792873
v -0.009729165137 0.02609097004 -0.0361889255
v -0.009644070268 0.0260929352 -0.03613980174
v -0.009558389783 0.02608909428 -0.03609033108
v -0.009473204613 0.02608027518 -0.03604116082
v -0.009389654696 0.02606733084 -0.0359929204
v -0.009308835268 0.0260510999 -0.03594625354
v -0.009230969846 0.02603173435 -0.03590129972
v -0.009154710174 0.02600821495 -0.03585727572
v -0.009135645032 0.02096701562 -0.03584626436
v -0.009079980254 0.02598052561 -0.03581413507
v -0.009066450298 0.02106070518 -0.03580632091
v -0.008982900381 0.02114067078 -0.03575808048
v -0.008935199976 0.02591259062 -0.03573053956
v -0.008882895112 0.02120792985 -0.03570034504
v -0.008796629906 0.02582790077 -0.03565053105
v -0.00876853466 0.02126147926 -0.03563431621
v -0.00864610523 0.02129821479 -0.03556362033
v -0.008516145051 0.02131741583 -0.03548859
v -0.008378099799 0.02131979942 -0.03540889621
v -0.008236574829 0.0213044697 -0.03532718897
v -0.008093084693 0.02127112448 -0.03524434447
v -0.007946130037 0.02122004986 -0.03515949011
v -0.007795679569 0.02115127444 -0.03507264018
v -0.0004561499879 0.01719934523 -0.03083515406
v -2.553000057e-05 0.02110513508 -0.03058653116
v 0.0004771349765 0.01951042414 -0.0302963233
v 4.050000105e-05 0.02107339561 -0.03054841518
v 0.0001034699986 0.02103832483 -0.03051205516
v 0.0001633950043 0.02099992454 -0.03047746539
v 0.0002202449972 0.02095821083 -0.03044463158
v 0.0002740500122 0.02091314971 -0.03041356444
v 0.0003251850139 0.02086454988 -0.03038404584
v 0.0003739949875 0.02081216991 -0.03035587549
v 0.0004196999967 0.02075650513 -0.03032948971
v 0.000461475011 0.02069802046 -0.03030537128
v 0.0004985100031 0.02063722551 -0.03028398156
v 0.0005080500059 0.0195778656 -0.03027847409
v 0.0005303250253 0.02057419538 -0.03026562095
v 0.0005352749862 0.01964617431 -0.03026275635
v 0.0005576999858 0.02050785005 -0.03024981022
v 0.0005588250048 0.01971532524 -0.03024916649
v 0.0005786699988 0.0197853595 -0.03023769021
v 0.0005806349963 0.02043892443 -0.03023656368
v 0.0005948399752 0.01985625029 -0.0302283597
v 0.0005989800207 0.02036828935 -0.03022597432
v 0.0006076049991 0.01992848933 -0.03022099614
v 0.000612585023 0.02029684424 -0.03021811366
v 0.0006172050163 0.02000251472 -0.03021546006
v 0.0006212849915 0.02022522032 -0.03021310329
v 0.0006230700016 0.02007733583 -0.03021206975
v 0.0006246299855 0.02015191555 -0.03021116853
v -0.009924915433 0.01893490434 -0.03630195022
v -0.009924254715 0.01880959511 -0.03630157471
v -0.01005601466 0.02601127446 -0.03637763858
v -0.01013617516 0.02597436011 -0.03642391562
v -0.01021401018 0.0259325105 -0.03646885514
v -0.01028837979 0.02588671446 -0.0365117991
v -0.01035808504 0.02583802521 -0.03655204654
v -0.01048240542 0.02572934926 -0.03662381887
v -0.01059127539 0.02560235918 -0.0366866684
v -0.01068704993 0.02546734571 -0.03674197555
v -0.01077172458 0.02533395052 -0.0367908597
v -0.01084471464 0.02519931078 -0.03683299541
v -0.0109056446 0.02506165445 -0.036868186
v -0.009904604852 0.01867789507 -0.03629022002
v -0.01095452964 0.0249209851 -0.03689639926
v -0.01291409969 0.0156319356 -0.0380277586
v -0.01369951487 0.01812367558 -0.03848120928
v -0.009866624773 0.0185423255 -0.03626829028
v -0.009812294841 0.01841041446 -0.03623692632
v -0.009741495252 0.01828310966 -0.03619604945
v -0.009654344916 0.0181594795 -0.03614573836
v -0.004142999947 0.01090916991 -0.03296375871
v -0.009553199708 0.01804414451 -0.03608734488
v -0.00943885535 0.01793866575 -0.03602131605
v -0.009310500026 0.01784149468 -0.03594721556
v -0.009168165028 0.01775262058 -0.0358650434
v -0.004085115194 0.01087375492 -0.03293033838
v -0.004026449919 0.01084252506 -0.03289647102
v -0.003967020214 0.01081548035 -0.03286214948
v -0.003906809986 0.01079261988 -0.0328273952
v -0.003845820129 0.01077394456 -0.03279217601
v -0.003783645183 0.01075912535 -0.0327562809
v -0.003719910085 0.01074786007 -0.03271948457
v -0.003655455038 0.01074083984 -0.03268226981
v -0.003591164947 0.01073875487 -0.03264515877
v -0.003527894989 0.01074230969 -0.03260861993
v -0.003466005027 0.01075201482 -0.03257288933
v -0.003404174969 0.01076731503 -0.03253720522
v -0.003342975006 0.01078806013 -0.03250186443
v -0.003283199966 0.01081409991 -0.03246734977
v -0.00322561495 0.01084534496 -0.03243410826
v -0.003170850053 0.01088179529 -0.03240249038
v -0.003117960021 0.01092430472 -0.03237194896
v -0.003067004979 0.01097233504 -0.03234253407
v -0.003018435091 0.01102496982 -0.03231449962
v -0.00297271505 0.01108134001 -0.03228809953
v -0.002930250093 0.01114057481 -0.03226357341
v -0.002890860066 0.01120304972 -0.03224083543
v -0.002854335085 0.01126918495 -0.03221974611
v -0.002820674926 0.0113389948 -0.03220031977
v -0.002789880037 0.01141246498 -0.03218253136
v -0.002761949971 0.01148960978 -0.03216640592
v -0.001828649975 0.01380068958 -0.03162757516
v -0.01306105524 0.01570303559 -0.03811259866
v -0.01320049524 0.0157891953 -0.03819310427
v -0.0132674101 0.01583792925 -0.03823173165
v -0.01333243489 0.01589044511 -0.03826928973
v -0.01339598984 0.01594680011 -0.03830597878
v -0.01345921487 0.01600728035 -0.0383424747
v -0.01352118015 0.01607166052 -0.03837824821
v -0.01358072966 0.01613968492 -0.03841264486
v -0.01363674045 0.01621111572 -0.03844497085
v -0.01368804038 0.01628567934 -0.03847459674
v -0.01373357981 0.01636320055 -0.03850087523
v -0.01374069035 0.01803533971 -0.03850498438
v -0.0137746051 0.0164447701 -0.03852457523
v -0.0137777549 0.0179459542 -0.03852638841
v -0.01381069511 0.01785554945 -0.03854539633
v -0.01381171525 0.01653037548 -0.03854599357
v -0.01383949488 0.01776409507 -0.0385620296
v -0.01384449005 0.01661914587 -0.03856492639
v -0.01386418462 0.01767161965 -0.03857629538
v -0.013872495 0.01671024084 -0.03858109474
v -0.01388475001 0.0175780946 -0.03858816147
v -0.01389532506 0.01680283427 -0.03859426618
v -0.01390136987 0.0174831444 -0.0385977602
v -0.01391251534 0.01689604461 -0.03860419393
v -0.01391456991 0.01738558531 -0.03860538125
v -0.01392370462 0.01699041009 -0.03861065984
v -0.01392391473 0.01728639007 -0.03861076355
v -0.0139288947 0.0171866852 -0.03861364603
v -0.013928985 0.01708764017 -0.03861370325
v -0.004317900091 0.01826909959 -0.02873461425
v -0.003010139912 0.02167350054 -0.02785471559
v -0.002945400104 0.02166775525 -0.02794219494
v -0.004274505079 0.01827484488 -0.02883442461
v -0.004382640123 0.01827484488 -0.02864712059
v -0.003084794953 0.02168768942 -0.02778626919
v -0.004457294941 0.01828903556 -0.0285786742
v -0.003171090111 0.0217108798 -0.027736305
v -0.004543574899 0.01831222415 -0.02852872431
v -0.003268155009 0.02174281418 -0.02770511985
v -0.00464064002 0.01834416032 -0.02849752486
v -0.003363915011 0.02177956581 -0.02769685507
v -0.004736414999 0.01838091016 -0.02848927438
v -0.003460065052 0.02182201445 -0.02771241009
v -0.00483254984 0.01842336059 -0.0285048151
v -0.003547695056 0.02186584532 -0.02774866462
v -0.004920195043 0.01846720576 -0.02854106963
v -0.00362290509 0.0219096905 -0.02780643046
v -0.004995405078 0.01851103485 -0.02859883547
v -0.003684449941 0.02195213914 -0.0278819257
v -0.005056934953 0.01855348527 -0.02867433071
v -0.003725175038 0.02198889077 -0.02796898484
v -0.005097675025 0.01859023511 -0.02876140416
v -0.003746699989 0.02202082515 -0.028068645
v -0.0051192002 0.01862216949 -0.02886105001
v -0.00374657996 0.02204401553 -0.02816834986
v -0.005119079947 0.01864535987 -0.02896075487
v -0.00372463502 0.02205820441 -0.02826723039
v -0.005097119808 0.01865955055 -0.0290596354
v -0.003681240007 0.0220639497 -0.02836702466
v -0.005053724796 0.01866529584 -0.02915944576
v -0.003616499975 0.02205820441 -0.02845452011
v -0.004988985211 0.01865955055 -0.02924692512
v -0.003541844934 0.02204401553 -0.02852296472
v -0.004914329946 0.01864535987 -0.02931536973
v -0.00345555 0.02202082515 -0.0285729146
v -0.004828049988 0.01862216949 -0.0293653357
v -0.003358485103 0.02198889077 -0.02860411584
v -0.004730984867 0.01859023511 -0.02939652085
v -0.0032627251 0.02195213914 -0.02861236453
v -0.004635209888 0.01855348527 -0.02940478563
v -0.003166575059 0.0219096905 -0.0285968256
v -0.004539075047 0.01851103485 -0.02938923061
v -0.003078945056 0.02186584532 -0.02856056929
v -0.004451445043 0.01846720576 -0.0293529743
v -0.003003735021 0.02182201445 -0.02850280523
v -0.004376219809 0.01842336059 -0.02929521024
v -0.002942189947 0.02177956581 -0.02842730999
v -0.004314689934 0.01838091016 -0.0292197293
v -0.002901465073 0.02174281418 -0.02834025085
v -0.004273949862 0.01834416032 -0.02913265586
v -0.002879939899 0.0217108798 -0.02824059069
v -0.004252439886 0.01831222415 -0.0290329957
v -0.002880059928 0.02168768942 -0.02814088583
v -0.00425254494 0.01828903556 -0.02893329084
v -0.002902005091 0.02167350054 -0.0280420053
v -0.01049983531 0.02056331992 -0.03230376005
v -0.008876430094 0.02481751442 -0.03117871642
v -0.008784224689 0.02481163502 -0.03131323457
v -0.01044664532 0.02055943429 -0.03241546512
v -0.01056874484 0.0205595845 -0.03220334888
v -0.01065853536 0.02054540992 -0.03211025834
v -0.008980034888 0.02483223081 -0.0310623908
v -0.0107693553 0.02052154541 -0.03202728152
v -0.00909499526 0.0248557806 -0.0309642756
v -0.01089304537 0.02048804998 -0.03196215034
v -0.009224385023 0.02488906503 -0.03088297606
v -0.01102392018 0.02044657588 -0.03191552997
v -0.00936514467 0.02493120074 -0.03081988335
v -0.01115479499 0.02039839447 -0.0318871057
v -0.01127905458 0.02034654021 -0.03187402368
v -0.009508185089 0.02497945547 -0.03077907085
v -0.01139358044 0.02029102564 -0.03187305093
v -0.01149483025 0.02023372471 -0.03188050389
v -0.009653669894 0.02503422081 -0.03076200128
v -0.01158259481 0.02017304957 -0.03189370394
v -0.01165672481 0.02010832429 -0.03191034079
v -0.009801434577 0.02509510517 -0.03076720476
v -0.01171523988 0.02003790021 -0.0319287014
v -0.01175769031 0.01996143043 -0.03194748044
v -0.01019567996 0.01927912474 -0.03105943322
v -0.01012737036 0.01940638483 -0.03105907559
v -0.0100484848 0.01953078032 -0.03107969999
v -0.00996396035 0.01964519978 -0.03111937523
v -0.009876644611 0.01974472582 -0.03117780089
v -0.009784544706 0.01983226418 -0.03125568151
v -0.009693765342 0.01990237534 -0.03134753823
v -0.009607874751 0.01995178521 -0.03145023108
v -0.009524610043 0.01998256445 -0.03156573057
v -0.009443924725 0.01999475956 -0.0316941154
v -0.009373080432 0.01998256445 -0.03182820082
v -0.01041083962 0.02054485559 -0.03254176497
v -0.009314669967 0.01995178521 -0.0319580555
v -0.01039496988 0.02052034557 -0.03268118978
v -0.009268695116 0.01990237534 -0.03208376884
v -0.0104014948 0.02048597932 -0.03282256365
v -0.009234524667 0.01983226418 -0.03220833063
v -0.01042789489 0.02044363439 -0.03296038628
v -0.009213134944 0.01974472582 -0.03232704163
v -0.01047015041 0.02039446414 -0.0330886817
v -0.00920620501 0.01964519978 -0.03243185878
v -0.01052221477 0.02034166574 -0.03320305467
v -0.009214095175 0.01953078032 -0.0325249064
v -0.01057966501 0.02028514445 -0.03330256462
v -0.01063752025 0.02022670448 -0.03338608503
v -0.009235679805 0.01940638483 -0.03260353446
v -0.01069327533 0.02016462028 -0.03345473886
v -0.009270149767 0.01927912474 -0.03266251445
v -0.01074477017 0.02009818554 -0.03350949168
v -0.01078937978 0.0200259304 -0.03354928493
v -0.008741565049 0.02503422081 -0.03234182954
v -0.009318735301 0.01914510012 -0.03270335913
v -0.01082589 0.01994737566 -0.03357448339
v -0.009378390312 0.0190110755 -0.03272500634
v -0.01085341483 0.0198625356 -0.03358455062
v -0.01291860044 0.01488570035 -0.03481935024
v -0.01087359041 0.01976866543 -0.03357977986
v -0.009446699917 0.01888381541 -0.03272536397
v -0.0108879599 0.01966589928 -0.03355970979
v -0.01089862525 0.01955858946 -0.03352519512
v -0.009525599778 0.01875941992 -0.03270473957
v -0.01090824008 0.0194473958 -0.03347557425
v -0.009610125124 0.01864500046 -0.03266506433
v -0.01092003018 0.01933357537 -0.03341077566
v -0.009697439969 0.01854547441 -0.03260663867
v -0.01093654543 0.01921932042 -0.03332740545
v -0.01096261472 0.01910656571 -0.0332252562
v -0.009789539874 0.01845793426 -0.03252876163
v -0.01099132508 0.0190257901 -0.03313117504
v -0.009880320132 0.01838782489 -0.03243690133
v -0.0110276404 0.01895859003 -0.03302998424
v -0.009966209829 0.01833841503 -0.03233420849
v -0.01107236981 0.0189073652 -0.03292266011
v -0.01004947543 0.01830763578 -0.03221870899
v -0.0111255303 0.01887502491 -0.03281141996
v -0.01013015985 0.01829544067 -0.03209032416
v -0.01118608475 0.01886398494 -0.03269995451
v -0.01020100504 0.01830763578 -0.03195623875
v -0.01124968529 0.01887391448 -0.0325960958
v -0.01131916523 0.01890573084 -0.03249409676
v -0.01025940031 0.01833841503 -0.03182638407
v -0.01139414996 0.01895974517 -0.03239596367
v -0.01030539036 0.01838782489 -0.03170067072
v -0.01147369534 0.01903930485 -0.03230245471
v -0.01033954471 0.01845793426 -0.03157610893
v -0.0115528053 0.0191386342 -0.03222019672
v -0.01036094964 0.01854547441 -0.03145741582
v -0.01162356019 0.01925020516 -0.03215332389
v -0.01036787957 0.01864500046 -0.03135258079
v -0.0116830346 0.01936351418 -0.03210188985
v -0.0103599903 0.01875941992 -0.03125953674
v -0.01172940016 0.01947505474 -0.03206261873
v -0.01176398993 0.0195838201 -0.03203178048
v -0.01033840477 0.01888381541 -0.0311809051
v -0.01178506494 0.01968853533 -0.03200677514
v -0.01030393481 0.0190110755 -0.03112192512
v -0.01179189026 0.0197883904 -0.03198524952
v -0.01178288966 0.01987912416 -0.03196599126
v -0.01380307496 0.01485077977 -0.03313760877
v -0.01025535017 0.01914510012 -0.03108108044
v -0.01394780964 0.01491156042 -0.03314758658
v -0.009941940308 0.02515818 -0.03079434156
v -0.01408799976 0.01497577518 -0.0331802237
v -0.01007470518 0.02522357941 -0.03084486008
v -0.01422037482 0.01504204452 -0.03323518395
v -0.01020021021 0.02529115498 -0.03091732621
v -0.01434127539 0.01510846496 -0.03331063628
v -0.01031035513 0.02535655439 -0.03100704074
v -0.01444911003 0.01517416477 -0.0334056437
v -0.01040410459 0.02541961491 -0.0311151588
v -0.01454041511 0.01523710549 -0.03351745605
v -0.01048249483 0.02548049927 -0.03124051452
v -0.01252190977 0.02035588503 -0.03238870382
v -0.01255959034 0.02027922034 -0.03241629124
v -0.01249262989 0.02044027448 -0.03237594008
v -0.01247118026 0.02053158045 -0.03237762094
v -0.01467032969 0.02152232945 -0.03363007665
v -0.01461067468 0.02165633976 -0.03360842943
v -0.01471891522 0.02138830483 -0.03367092133
v -0.01260636002 0.02020732462 -0.03245971441
v -0.01475338519 0.02126104474 -0.03372990131
v -0.01266090006 0.02013940573 -0.03251954913
v -0.01271895021 0.02007657051 -0.03259375334
v -0.01477496982 0.02113664925 -0.03380852938
v -0.01277801961 0.02001771033 -0.03268302083
v -0.01478285998 0.02102221549 -0.03390157342
v -0.01283486992 0.01996155024 -0.03278746605
v -0.01477593005 0.02092270553 -0.03400639415
v -0.01288570493 0.01990908086 -0.03290971398
v -0.01292561978 0.01985842466 -0.0330499649
v -0.01475452513 0.02083516538 -0.03412510514
v -0.01294363528 0.01982348979 -0.03317102909
v -0.01472036988 0.02076505423 -0.03424964905
v -0.01294599026 0.01979496002 -0.03329453945
v -0.01467437983 0.02071564436 -0.03437538028
v -0.01293061495 0.0197734648 -0.03341880083
v -0.01461598456 0.02068486512 -0.03450523496
v -0.01289595008 0.01976002514 -0.03354070544
v -0.01454514027 0.02067267001 -0.03463932037
v -0.01284169525 0.0197554493 -0.03365582943
v -0.01446445495 0.02068486512 -0.0347677052
v -0.01277248532 0.01975941002 -0.03375645161
v -0.01268471986 0.01977283537 -0.03384791851
v -0.01438119024 0.02071564436 -0.0348832047
v -0.01257877529 0.01979541063 -0.03392819881
v -0.01429529965 0.02076505423 -0.03498589396
v -0.01245329976 0.01982959449 -0.03399517536
v -0.01420452029 0.02083516538 -0.03507775426
v -0.01231678516 0.01987246513 -0.03404428482
v -0.01411242038 0.02092270553 -0.03515563488
v -0.01218064517 0.01992284954 -0.034073385
v -0.01402510464 0.02102221549 -0.03521406054
v -0.0120539698 0.01997593582 -0.03408603072
v -0.01394058019 0.02113664925 -0.03525373578
v -0.01193994015 0.02003192961 -0.03408624172
v -0.01183768541 0.02009071469 -0.03407801986
v -0.01386168033 0.02126104474 -0.03527436018
v -0.01174893022 0.02015362501 -0.03406391859
v -0.01379336983 0.02138830483 -0.03527399898
v -0.01167434961 0.0202215153 -0.03404634118
v -0.0116177702 0.02029321432 -0.03402772665
v -0.0136559397 0.01527202427 -0.03519919395
v -0.01373371482 0.02152232945 -0.03525235534
v -0.01157875478 0.0203699255 -0.03400916934
v -0.01368513018 0.02165633976 -0.03521149635
v -0.01155620992 0.02045447946 -0.03399040461
v -0.009422610104 0.02541961491 -0.0328151536
v -0.01154950529 0.02054560483 -0.03397109985
v -0.01365066022 0.02178359985 -0.03515253067
v -0.01155827969 0.0206427598 -0.03394997835
v -0.01158021033 0.02074492514 -0.0339252162
v -0.01362907469 0.02190799534 -0.03507389903
v -0.01161513001 0.02085166454 -0.03389444947
v -0.01362118542 0.02202242911 -0.03498085499
v -0.0116622752 0.0209629494 -0.03385459542
v -0.01172091007 0.02107381582 -0.0338035655
v -0.01362811536 0.02212195516 -0.03487601995
v -0.01178925008 0.02118085563 -0.03373887062
v -0.01364952028 0.02220949531 -0.03475732327
v -0.01186482042 0.02127652466 -0.03366022468
v -0.01368367463 0.02227960467 -0.03463276505
v -0.01194320977 0.02135514021 -0.03356893659
v -0.01372966468 0.02232901454 -0.03450705171
v -0.0120212996 0.02141214073 -0.03346714497
v -0.01378805995 0.02235977948 -0.03437717915
v -0.01209198028 0.02144512475 -0.03336310387
v -0.01385890514 0.02237199068 -0.03424311161
v -0.01215544492 0.02145476997 -0.03325962067
v -0.01393958956 0.02235977948 -0.03411472678
v -0.0122141397 0.02144481003 -0.03315134883
v -0.01226948977 0.02141094089 -0.03303653955
v -0.01402285516 0.02232901454 -0.0339992094
v -0.01231889963 0.02135249913 -0.03291667342
v -0.01410874486 0.02227960467 -0.03389653444
v -0.01235884488 0.02127197921 -0.03280202866
v -0.01419952512 0.02220949531 -0.03380465984
v -0.01238900989 0.02117433071 -0.03269661069
v -0.01429162502 0.02212195516 -0.03372677922
v -0.01241064012 0.02106514513 -0.03260477901
v -0.01437893987 0.02202242911 -0.03366837144
v -0.01242525011 0.02095259964 -0.03252876163
v -0.01446346521 0.02190799534 -0.03362867832
v -0.01243607998 0.02084003985 -0.03246871591
v -0.01244539529 0.02073235452 -0.03242411971
v -0.01454234987 0.02178359985 -0.03360805392
v -0.01245636016 0.02062939525 -0.03239407539
v -0.009570374787 0.02548049927 -0.03282034636
v -0.009715859592 0.02553526461 -0.03280327678
v -0.00985891521 0.02558351934 -0.03276246071
v -0.009999674857 0.02562565506 -0.03269937158
v -0.01012905031 0.02565895557 -0.03261808634
v -0.01024402499 0.02568250537 -0.03251995325
v -0.01034761459 0.02569721997 -0.03240363121
v -0.01043983519 0.02570309937 -0.03226910949
v -0.01051022977 0.02569721997 -0.03212198853
v -0.01055917472 0.02568250537 -0.03197410583
v -0.01058667004 0.02565895557 -0.03182548642
v -0.01059236974 0.02562565506 -0.03167278647
v -0.0105766198 0.02558351934 -0.03151933551
v -0.01054045469 0.02553526461 -0.03137505054
v -0.01351118982 0.01521124542 -0.03518921971
v -0.009282105267 0.02535655439 -0.03278802037
v -0.01337101489 0.01514702976 -0.03515659332
v -0.009149340391 0.02529115498 -0.03273748398
v -0.01323863983 0.01508075953 -0.03510161877
v -0.009023835361 0.02522357941 -0.03266503572
v -0.01311774015 0.01501434088 -0.03502617002
v -0.008913704753 0.02515818 -0.03257530332
v -0.01300990462 0.01494864017 -0.03493115902
v -0.00881994009 0.02509510517 -0.03246719956
v -0.01380307496 0.01532837927 -0.03518605471
v -0.01394780964 0.01537847936 -0.0351502347
v -0.01408799976 0.01542165041 -0.03509256005
v -0.01422037482 0.0154567802 -0.03501394629
v -0.01434127539 0.01548296928 -0.03491691113
v -0.01444911003 0.01549987435 -0.03480263829
v -0.01454041511 0.01550688028 -0.03467452526
v -0.01461370468 0.01550401568 -0.03453527927
v -0.01466743469 0.01549117506 -0.03438717127
v -0.01469989479 0.01546894491 -0.03423559427
v -0.01471100986 0.01543732524 -0.03408074856
v -0.01469989479 0.01539719939 -0.03392789841
v -0.01466743469 0.0153500998 -0.03378212929
v -0.01461370468 0.01529611588 -0.03364360571
v -0.0136559397 0.01479442477 -0.03315075159
v -0.01351118982 0.01474432468 -0.0331865716
v -0.01337101489 0.01470115542 -0.03324424624
v -0.01323863983 0.01466602474 -0.03332286
v -0.01311774015 0.01463983476 -0.03341989517
v -0.01300990462 0.01462292969 -0.03353416443
v -0.01291860044 0.01461592466 -0.03366228104
v -0.01284529477 0.01461879015 -0.03380152345
v -0.01279157996 0.01463162988 -0.03394963503
v -0.01275911987 0.01465386003 -0.03410120845
v -0.01274800479 0.0146854654 -0.03425605416
v -0.01275911987 0.01472560465 -0.03440890431
v -0.01279157996 0.01477268994 -0.03455469131
v -0.01284529477 0.01482668996 -0.03469320059
v -0.008683605194 0.02497945547 -0.03220729351
v -0.008647424877 0.02493120074 -0.03206300855
v -0.008631690145 0.02488906503 -0.03190956116
v -0.008637389839 0.0248557806 -0.03175687551
v -0.008664885163 0.02483223081 -0.03160823822
v -0.008713830113 0.02481751442 -0.03146036983
v -0.005690385103 0.01487044483 -0.02952701926
v -0.007019489855 0.01147753537 -0.03041923642
v -0.007062884867 0.01147179008 -0.03031942606
v -0.005755125135 0.01487619013 -0.0294395256
v -0.005646990091 0.01487619013 -0.02962682962
v -0.006997544914 0.01149172515 -0.03051811337
v -0.005625045151 0.01489037991 -0.02972569585
v -0.006997425109 0.01151491463 -0.03061782002
v -0.005624924898 0.01491357028 -0.02982541502
v -0.007018935084 0.01154684991 -0.03071746588
v -0.005646450073 0.01494550467 -0.02992506087
v -0.007059675157 0.01158359975 -0.03080454111
v -0.005687174946 0.0149822554 -0.03001213431
v -0.007121205032 0.01162605017 -0.03088003635
v -0.00574872002 0.01502470493 -0.03008761525
v -0.007196429819 0.01166989535 -0.03093780041
v -0.005823930055 0.01506855011 -0.0301453793
v -0.007284059823 0.01171373963 -0.03097405672
v -0.005911560059 0.01511239529 -0.03018163562
v -0.007380195111 0.01175619006 -0.03098959565
v -0.006007710099 0.01515484571 -0.03019718885
v -0.007475970089 0.0117929399 -0.03098134518
v -0.006103485078 0.01519157946 -0.03018892407
v -0.007573034763 0.01182485998 -0.03095014572
v -0.006200534999 0.01522351563 -0.03015773892
v -0.007659330368 0.01184806466 -0.03090019584
v -0.006286830157 0.01524670422 -0.03010777473
v -0.007733969986 0.01186224014 -0.03083174944
v -0.006361484975 0.01526089489 -0.03003934622
v -0.007798709571 0.01186799973 -0.03074425578
v -0.006426225007 0.01526664019 -0.02995185077
v -0.007842105031 0.01186224014 -0.03064444542
v -0.006469620019 0.01526089489 -0.02985204041
v -0.00786406517 0.01184806466 -0.0305455792
v -0.006491564959 0.01524670422 -0.02975315988
v -0.007864184976 0.01182485998 -0.03044587612
v -0.006491685212 0.01522351563 -0.02965345502
v -0.007842660248 0.0117929399 -0.03034621596
v -0.006470160037 0.01519157946 -0.02955380917
v -0.007801935375 0.01175619006 -0.03025914073
v -0.006429435164 0.01515484571 -0.02946673572
v -0.007740390301 0.01171373963 -0.03018365979
v -0.006367904842 0.01511239529 -0.02939125478
v -0.007665180266 0.01166989535 -0.03012589574
v -0.006292680055 0.01506855011 -0.02933349073
v -0.007577534616 0.01162605017 -0.03008963943
v -0.006205050051 0.01502470493 -0.02929723442
v -0.007481400222 0.01158359975 -0.03007408619
v -0.006108900011 0.0149822554 -0.02928167939
v -0.007385624796 0.01154684991 -0.03008235097
v -0.006013139784 0.01494550467 -0.02928994417
v -0.007288560122 0.01151491463 -0.03011353612
v -0.00591607511 0.01491357028 -0.02932112932
v -0.007202280164 0.01149172515 -0.03016350031
v -0.005829779953 0.01489037991 -0.02937107921
v -0.007127624899 0.01147753537 -0.03023194671
f 1 2 3
f 1 3 4
f 5 2 1
f 6 2 5
f 7 2 6
f 8 2 7
f 9 2 8
f 10 2 9
f 11 2 10
f 12 2 11
f 13 2 12
f 14 2 13
f 15 2 14
f 16 2 15
f 17 2 16
f 18 2 17
f 19 2 18
f 20 2 19
f 21 2 20
f 22 2 21
f 23 2 22
f 24 2 23
f 25 2 24
f 26 2 25
f 27 2 26
f 28 2 27
f 28 27 29
f 28 29 30
f 4 3 31
f 4 31 32
f 4 32 33
f 4 33 34
f 4 34 35
f 4 35 36
f 4 36 37
f 4 37 38
f 4 38 39
f 38 37 40
f 38 40 41
f 38 41 42
f 38 42 43
f 38 43 44
f 38 44 45
f 38 45 46
f 38 46 47
f 38 47 48
f 38 48 49
f 38 49 50
f 38 50 51
f 51 50 52
f 51 52 53
f 51 53 54
f 51 54 55
f 51 55 56
f 56 55 57
f 57 55 58
f 58 55 59
f 59 55 60
f 60 55 61
f 61 55 62
f 62 55 63
f 63 55 64
f 64 55 65
f 64 65 66
f 66 65 67
f 66 67 68
f 68 67 69
f 68 69 70
f 70 69 71
f 70 71 72
f 72 71 73
f 72 73 74
f 74 73 75
f 74 75 76
f 76 75 77
f 76 77 78
f 78 77 79
f 78 79 80
f 78 80 81
f 4 39 82
f 4 82 83
f 4 83 84
f 4 84 85
f 4 85 86
f 4 86 87
f 4 87 88
f 4 88 89
f 4 89 90
f 4 90 91
f 4 91 92
f 4 92 93
f 4 93 94
f 4 94 95
f 4 95 96
f 4 96 97
f 4 97 98
f 4 98 99
f 4 99 100
f 4 100 101
f 4 101 102
f 4 102 103
f 4 103 104
f 104 103 105
f 105 103 106
f 106 103 107
f 107 103 108
f 108 103 109
f 109 103 110
f 109 110 111
f 111 110 112
f 111 112 113
f 113 112 114
f 113 114 115
f 113 115 116
f 116 115 117
f 116 117 118
f 118 117 119
f 118 119 120
f 120 119 121
f 120 121 122
f 120 122 123
f 123 122 124
f 123 124 125
f 125 124 126
f 125 126 127
f 127 126 128
f 127 128 129
f 130 131 132
f 130 132 133
f 134 131 130
f 135 131 134
f 136 131 135
f 137 131 136
f 138 131 137
f 139 131 138
f 140 131 139
f 141 131 140
f 142 131 141
f 143 131 142
f 144 131 143
f 145 131 144
f 146 131 145
f 146 147 131
f 148 131 147
f 149 147 146
f 150 147 149
f 151 147 150
f 152 147 151
f 153 147 152
f 154 147 153
f 155 147 154
f 156 147 155
f 157 147 156
f 158 147 157
f 158 159 147
f 160 147 159
f 161 147 160
f 133 147 161
f 133 132 147
f 148 147 162
f 148 163 131
f 164 163 148
f 164 148 162
f 165 163 164
f 165 164 166
f 165 167 163
f 168 167 165
f 168 165 169
f 168 170 167
f 171 170 168
f 171 168 172
f 171 173 170
f 174 173 171
f 174 171 175
f 174 176 173
f 177 176 174
f 177 178 176
f 179 178 177
f 179 180 178
f 181 180 179
f 181 182 180
f 183 182 181
f 183 184 182
f 185 184 183
f 185 186 184
f 185 187 186
f 188 186 187
f 185 189 187
f 190 187 189
f 190 189 191
f 191 189 192
f 192 189 193
f 193 189 194
f 194 189 195
f 195 189 196
f 195 196 197
f 197 196 198
f 198 196 199
f 199 196 200
f 200 196 201
f 201 196 202
f 202 196 203
f 203 196 204
f 204 196 205
f 205 196 206
f 206 196 207
f 207 196 208
f 208 196 209
f 209 196 210
f 196 211 210
f 210 211 212
f 213 211 196
f 214 211 213
f 214 215 211
f 216 215 214
f 216 217 215
f 218 217 216
f 218 219 217
f 220 219 218
f 220 221 219
f 222 221 220
f 222 223 221
f 224 223 222
f 224 222 225
f 224 226 223
f 227 226 224
f 227 224 228
f 227 229 226
f 230 229 227
f 230 227 231
f 230 232 229
f 233 232 230
f 233 230 234
f 233 235 232
f 233 236 235
f 236 237 235
f 233 238 236
f 236 238 239
f 233 234 238
f 236 239 240
f 236 240 241
f 240 239 242
f 242 239 243
f 243 239 244
f 244 239 245
f 245 239 246
f 246 239 247
f 247 239 248
f 248 239 249
f 249 239 250
f 250 239 251
f 250 251 252
f 252 251 253
f 253 251 237
f 253 237 254
f 254 237 255
f 255 237 256
f 257 256 237
f 257 237 258
f 258 237 259
f 259 237 260
f 260 237 261
f 261 237 262
f 262 237 263
f 263 237 264
f 264 237 265
f 265 237 266
f 266 237 267
f 236 267 237
f 236 268 267
f 236 241 268
f 230 231 234
f 227 228 231
f 224 225 228
f 222 269 225
f 222 220 269
f 220 270 269
f 220 218 270
f 218 271 270
f 218 216 271
f 216 272 271
f 216 214 272
f 214 273 272
f 214 213 273
f 213 274 273
f 213 275 274
f 213 196 275
f 196 189 275
f 189 276 275
f 189 277 276
f 185 277 189
f 185 278 277
f 185 183 278
f 183 279 278
f 183 181 279
f 181 280 279
f 181 179 280
f 179 281 280
f 179 177 281
f 177 282 281
f 177 174 282
f 174 175 282
f 210 212 283
f 283 212 284
f 284 212 285
f 285 212 186
f 285 186 286
f 286 186 287
f 287 186 288
f 288 186 289
f 289 186 290
f 290 186 291
f 291 186 292
f 292 186 293
f 293 186 294
f 294 186 295
f 295 186 296
f 296 186 297
f 297 186 298
f 298 186 299
f 299 186 300
f 300 186 188
f 171 172 175
f 168 169 172
f 165 166 169
f 164 301 166
f 164 162 301
f 302 303 304
f 305 302 304
f 306 305 304
f 306 304 307
f 306 307 308
f 309 306 308
f 309 308 310
f 311 309 310
f 311 310 312
f 313 311 312
f 313 312 314
f 315 313 314
f 315 314 316
f 317 315 316
f 317 316 318
f 319 317 318
f 319 318 320
f 321 319 320
f 321 320 322
f 323 321 322
f 323 322 324
f 325 323 324
f 325 324 326
f 327 325 326
f 327 326 328
f 329 327 328
f 329 328 330
f 331 329 330
f 331 330 332
f 333 331 332
f 333 332 334
f 335 333 334
f 335 334 336
f 337 335 336
f 337 336 338
f 339 337 338
f 339 338 340
f 341 339 340
f 341 340 342
f 343 341 342
f 343 342 344
f 345 343 344
f 345 344 346
f 347 345 346
f 347 346 348
f 349 347 348
f 349 348 350
f 351 349 350
f 351 350 352
f 353 351 352
f 353 352 354
f 355 353 354
f 356 355 354
f 356 354 357
f 358 356 357
f 358 357 359
f 356 358 360
f 361 356 360
f 362 356 361
f 363 356 362
f 363 364 356
f 365 364 363
f 366 364 365
f 367 364 366
f 368 364 367
f 369 364 368
f 370 364 369
f 371 364 370
f 372 364 371
f 373 364 372
f 374 364 373
f 374 373 375
f 376 364 374
f 377 364 376
f 378 364 377
f 379 364 378
f 380 364 379
f 381 364 380
f 382 364 381
f 383 364 382
f 384 364 383
f 385 364 384
f 386 364 385
f 387 364 386
f 388 364 387
f 389 364 388
f 390 364 389
f 391 364 390
f 392 364 391
f 393 364 392
f 393 394 364
f 395 364 394
f 396 394 393
f 397 394 396
f 397 398 394
f 399 394 398
f 400 394 399
f 401 394 400
f 402 394 401
f 403 394 402
f 403 357 394
f 404 357 403
f 405 357 404
f 406 357 405
f 407 357 406
f 408 357 407
f 409 357 408
f 410 357 409
f 411 357 410
f 412 357 411
f 413 357 412
f 414 357 413
f 415 357 414
f 415 416 357
f 417 357 416
f 415 418 416
f 415 373 418
f 419 373 415
f 420 373 419
f 375 373 420
f 421 357 417
f 422 357 421
f 423 357 422
f 424 357 423
f 425 357 424
f 426 357 425
f 427 357 426
f 428 357 427
f 429 357 428
f 430 357 429
f 430 359 357
f 395 394 431
f 395 431 432
f 433 395 432
f 434 433 432
f 434 432 435
f 436 434 435
f 436 435 437
f 438 436 437
f 439 438 437
f 439 437 440
f 441 439 440
f 442 441 440
f 442 440 443
f 444 442 443
f 445 444 443
f 445 443 446
f 447 445 446
f 448 447 446
f 448 446 449
f 450 448 449
f 450 449 451
f 452 450 451
f 452 451 453
f 454 452 453
f 454 453 455
f 456 454 455
f 456 455 457
f 458 456 457
f 458 457 459
f 460 458 459
f 460 459 461
f 462 460 461
f 462 461 463
f 464 462 463
f 464 463 465
f 466 464 465
f 466 465 467
f 468 466 467
f 468 467 469
f 470 468 469
f 470 469 471
f 472 470 471
f 472 471 473
f 474 472 473
f 474 473 475
f 476 474 475
f 476 475 477
f 478 476 477
f 478 477 479
f 480 478 479
f 480 479 481
f 482 480 481
f 482 481 483
f 484 482 483
f 484 483 485
f 486 484 485
f 486 485 487
f 488 484 486
f 489 484 488
f 490 484 489
f 491 484 490
f 492 484 491
f 493 484 492
f 494 484 493
f 495 484 494
f 496 484 495
f 497 484 496
f 498 484 497
f 499 484 498
f 500 484 499
f 501 484 500
f 502 484 501
f 503 484 502
f 504 484 503
f 505 484 504
f 505 506 484
f 507 506 505
f 508 506 507
f 508 509 506
f 510 506 509
f 511 509 508
f 512 509 511
f 513 509 512
f 513 514 509
f 515 509 514
f 516 509 515
f 517 509 516
f 518 509 517
f 519 509 518
f 520 509 519
f 521 509 520
f 522 509 521
f 523 509 522
f 524 509 523
f 525 509 524
f 526 509 525
f 527 509 526
f 528 509 527
f 528 485 509
f 487 485 528
f 510 509 529
f 530 510 529
f 530 529 531
f 532 530 531
f 532 531 533
f 534 532 533
f 534 533 535
f 536 534 535
f 536 535 537
f 538 536 537
f 538 537 539
f 540 538 539
f 540 539 541
f 542 540 541
f 542 541 543
f 544 542 543
f 544 543 545
f 546 544 545
f 546 545 547
f 548 546 547
f 548 547 549
f 550 548 549
f 550 549 551
f 552 550 551
f 552 551 553
f 554 552 553
f 554 553 555
f 556 554 555
f 556 555 557
f 558 556 557
f 558 557 559
f 560 558 559
f 560 559 561
f 562 560 561
f 562 561 563
f 564 562 563
f 564 563 565
f 566 564 565
f 567 566 565
f 567 565 568
f 569 567 568
f 570 569 568
f 570 568 571
f 572 570 571
f 572 571 573
f 574 572 573
f 574 573 575
f 576 574 575
f 576 575 577
f 578 574 576
f 579 574 578
f 580 574 579
f 581 574 580
f 582 574 581
f 583 574 582
f 584 574 583
f 585 574 584
f 586 574 585
f 586 587 574
f 588 587 586
f 589 587 588
f 590 587 589
f 591 587 590
f 592 587 591
f 593 587 592
f 594 587 593
f 595 587 594
f 596 587 595
f 597 587 596
f 598 587 597
f 598 599 587
f 599 600 587
f 601 587 600
f 599 602 600
f 599 603 602
f 604 603 599
f 605 603 604
f 606 603 605
f 607 603 606
f 607 575 603
f 603 575 608
f 609 575 607
f 610 575 609
f 611 575 610
f 612 575 611
f 613 575 612
f 614 575 613
f 615 575 614
f 616 575 615
f 617 575 616
f 618 575 617
f 619 575 618
f 620 575 619
f 621 575 620
f 622 575 621
f 623 575 622
f 577 575 623
f 608 575 624
f 624 575 625
f 625 575 626
f 626 575 627
f 627 575 628
f 628 575 629
f 629 575 630
f 630 575 631
f 631 575 632
f 631 632 633
f 633 632 634
f 634 632 635
f 632 636 635
f 636 632 587
f 636 587 637
f 638 587 632
f 638 632 639
f 638 639 640
f 641 638 640
f 641 640 642
f 643 641 642
f 643 642 644
f 645 643 644
f 645 644 646
f 647 645 646
f 647 646 648
f 649 647 648
f 649 648 650
f 651 649 650
f 651 650 652
f 653 651 652
f 653 652 654
f 655 653 654
f 655 654 656
f 657 655 656
f 657 656 658
f 659 657 658
f 659 658 660
f 661 659 660
f 661 660 662
f 663 661 662
f 663 662 664
f 665 663 664
f 665 664 666
f 667 665 666
f 667 666 668
f 669 667 668
f 669 668 670
f 671 669 670
f 671 670 672
f 673 671 672
f 673 672 674
f 675 673 674
f 675 674 676
f 677 675 676
f 677 676 678
f 679 677 678
f 679 678 680
f 681 679 680
f 681 680 682
f 683 681 682
f 683 682 684
f 685 683 684
f 685 684 686
f 687 685 686
f 688 687 686
f 688 686 689
f 688 689 690
f 691 688 690
f 692 637 587
f 692 587 693
f 693 587 694
f 694 587 695
f 695 587 696
f 696 587 697
f 697 587 698
f 698 587 699
f 699 587 700
f 700 587 701
f 701 587 601
f 702 703 704
f 702 704 705
f 706 703 702
f 707 703 706
f 707 706 708
f 707 708 709
f 707 709 710
f 707 710 711
f 707 711 712
f 707 712 713
f 707 713 714
f 707 714 715
f 707 715 716
f 716 715 717
f 716 717 718
f 718 717 719
f 719 717 720
f 719 720 721
f 721 720 722
f 721 722 723
f 723 722 724
f 724 722 725
f 725 722 726
f 726 722 727
f 727 722 728
f 728 722 729
f 729 722 730
f 730 722 731
f 731 722 732
f 731 732 733
f 733 732 734
f 733 734 735
f 733 735 736
f 733 736 737
f 733 737 738
f 733 738 739
f 733 739 740
f 733 740 741
f 733 741 742
f 733 742 743
f 733 743 744
f 744 743 745
f 744 745 746
f 746 745 747
f 746 747 748
f 748 747 749
f 749 747 750
f 749 750 751
f 751 750 752
f 751 752 753
f 753 752 754
f 753 754 755
f 755 754 756
f 755 756 757
f 757 756 758
f 705 704 759
f 705 759 760
f 705 760 761
f 761 760 762
f 762 760 763
f 763 760 764
f 764 760 765
f 765 760 766
f 766 760 767
f 767 760 768
f 768 760 769
f 769 760 770
f 770 760 771
f 771 760 772
f 771 772 773
f 773 772 774
f 773 774 775
f 774 772 776
f 774 776 777
f 774 777 778
f 774 778 779
f 774 779 780
f 780 779 781
f 780 781 782
f 780 782 783
f 780 783 784
f 780 784 785
f 785 784 786
f 786 784 787
f 787 784 788
f 788 784 789
f 789 784 790
f 790 784 791
f 791 784 792
f 792 784 793
f 793 784 794
f 794 784 795
f 795 784 796
f 796 784 797
f 797 784 798
f 798 784 799
f 799 784 800
f 800 784 801
f 801 784 802
f 802 784 803
f 803 784 804
f 804 784 805
f 805 784 806
f 806 784 807
f 807 784 808
f 808 784 809
f 809 784 810
f 810 784 811
f 775 774 812
f 775 812 813
f 775 813 814
f 775 814 815
f 775 815 816
f 775 816 817
f 775 817 818
f 775 818 819
f 775 819 820
f 775 820 821
f 775 821 822
f 775 822 823
f 823 822 824
f 823 824 825
f 825 824 826
f 826 824 827
f 826 827 828
f 828 827 829
f 828 829 830
f 830 829 831
f 830 831 832
f 832 831 833
f 832 833 834
f 834 833 835
f 834 835 836
f 836 835 837
f 836 837 838
f 838 837 839
f 839 837 840
f 841 842 843
f 844 841 843
f 845 842 841
f 845 846 842
f 845 847 846
f 847 848 846
f 847 849 848
f 849 850 848
f 849 851 850
f 851 852 850
f 851 853 852
f 853 854 852
f 853 855 854
f 855 856 854
f 855 857 856
f 857 858 856
f 857 859 858
f 859 860 858
f 859 861 860
f 861 862 860
f 861 863 862
f 863 864 862
f 863 865 864
f 865 866 864
f 865 867 866
f 867 868 866
f 867 869 868
f 869 870 868
f 869 871 870
f 871 872 870
f 871 873 872
f 873 874 872
f 873 875 874
f 875 876 874
f 875 877 876
f 877 878 876
f 877 879 878
f 879 880 878
f 879 881 880
f 881 882 880
f 881 883 882
f 883 884 882
f 883 885 884
f 885 886 884
f 885 887 886
f 887 888 886
f 887 889 888
f 889 890 888
f 889 891 890
f 891 892 890
f 891 893 892
f 893 894 892
f 893 895 894
f 895 896 894
f 895 844 896
f 844 843 896
f 897 898 899
f 900 897 899
f 901 898 897
f 901 902 898
f 902 903 898
f 902 904 903
f 904 905 903
f 904 906 905
f 906 907 905
f 906 908 907
f 908 909 907
f 908 910 909
f 910 911 909
f 911 912 909
f 911 913 912
f 913 914 912
f 914 915 912
f 914 916 915
f 916 917 915
f 917 918 915
f 917 919 918
f 919 920 918
f 917 921 919
f 919 921 920
f 917 922 921
f 916 922 917
f 914 922 916
f 914 923 922
f 913 923 914
f 913 924 923
f 911 924 913
f 910 924 911
f 910 925 924
f 908 925 910
f 908 926 925
f 906 926 908
f 906 927 926
f 904 927 906
f 904 928 927
f 902 928 904
f 902 929 928
f 901 929 902
f 901 930 929
f 901 897 930
f 897 931 930
f 900 931 897
f 932 931 900
f 932 933 931
f 934 933 932
f 934 935 933
f 936 935 934
f 936 937 935
f 938 937 936
f 938 939 937
f 940 939 938
f 940 941 939
f 942 941 940
f 942 943 941
f 944 943 942
f 945 943 944
f 945 946 943
f 947 946 945
f 947 948 946
f 949 948 947
f 950 948 949
f 950 949 951
f 950 952 948
f 953 952 950
f 953 950 951
f 953 954 952
f 955 954 953
f 955 953 956
f 957 954 955
f 957 955 956
f 957 958 954
f 959 958 957
f 960 958 959
f 960 961 958
f 962 961 960
f 962 963 961
f 964 963 962
f 964 965 963
f 966 965 964
f 966 967 965
f 967 968 965
f 969 968 967
f 969 970 968
f 971 970 969
f 971 972 970
f 973 972 971
f 973 974 972
f 975 974 973
f 975 976 974
f 977 976 975
f 977 978 976
f 979 978 977
f 980 978 979
f 980 981 978
f 982 981 980
f 982 983 981
f 984 983 982
f 984 985 983
f 986 985 984
f 986 987 985
f 988 987 986
f 988 989 987
f 990 989 988
f 990 991 989
f 992 991 990
f 993 991 992
f 993 994 991
f 995 994 993
f 995 996 994
f 997 996 995
f 998 996 997
f 998 997 999
f 998 1000 996
f 920 1000 998
f 920 998 999
f 920 921 1000
f 920 999 918
f 999 1001 918
f 1001 1002 918
f 1001 1003 1002
f 1003 1004 1002
f 1003 1005 1004
f 1005 1006 1004
f 1005 1007 1006
f 1007 1008 1006
f 1007 1009 1008
f 1009 1010 1008
f 1009 1011 1010
f 1011 1012 1010
f 1013 1012 1011
f 1014 1013 1011
f 1013 1015 1012
f 1015 1016 1012
f 1013 1017 1015
f 1015 1017 1018
f 1013 1019 1017
f 1014 1019 1013
f 1020 1019 1014
f 1020 1014 1011
f 1020 1021 1019
f 1022 1021 1020
f 1023 1021 1022
f 1023 1024 1021
f 1025 1024 1023
f 1025 1026 1024
f 1027 1026 1025
f 1027 1028 1026
f 1029 1028 1027
f 1030 1028 1029
f 1030 1031 1028
f 1032 1031 1030
f 1032 1033 1031
f 1034 1033 1032
f 1034 1035 1033
f 1036 1035 1034
f 1036 1037 1035
f 1038 1037 1036
f 1038 1039 1037
f 1038 1040 1039
f 1040 1041 1039
f 1042 1041 1040
f 1043 1041 1042
f 1043 1044 1041
f 1045 1044 1043
f 1045 1046 1044
f 1047 1046 1045
f 1047 1048 1046
f 1049 1048 1047
f 1049 1050 1048
f 1051 1050 1049
f 1051 1052 1050
f 1053 1052 1051
f 1053 1054 1052
f 1055 1054 1053
f 1056 1054 1055
f 1056 1057 1054
f 1058 1057 1056
f 1058 1059 1057
f 1060 1059 1058
f 1061 1059 1060
f 1061 1060 1062
f 1061 1063 1059
f 1064 1063 1061
f 1064 1061 1062
f 1064 1065 1063
f 1066 1065 1064
f 1066 1064 1067
f 1068 1065 1066
f 1068 1066 1067
f 1068 1069 1065
f 1070 1069 1068
f 1071 1069 1070
f 1071 1072 1069
f 1073 1072 1071
f 1073 1074 1072
f 1075 1074 1073
f 1076 1074 1075
f 1076 1077 1074
f 1078 1077 1076
f 1078 1079 1077
f 1080 1079 1078
f 1080 1081 1079
f 1082 1081 1080
f 1082 1083 1081
f 1084 1083 1082
f 1084 1085 1083
f 1086 1085 1084
f 1086 1087 1085
f 1086 1088 1087
f 1088 1089 1087
f 1090 1089 1088
f 1091 1089 1090
f 1091 1092 1089
f 1093 1092 1091
f 1093 1094 1092
f 1095 1094 1093
f 1095 1096 1094
f 1097 1096 1095
f 1097 1098 1096
f 1099 1098 1097
f 1099 1100 1098
f 1101 1100 1099
f 1101 1102 1100
f 1103 1102 1101
f 1104 1102 1103
f 1104 1105 1102
f 1106 1105 1104
f 1106 1018 1105
f 1016 1018 1106
f 1015 1018 1016
f 1068 1067 1107
f 1070 1068 1107
f 1071 1070 1107
f 1071 1107 1108
f 1073 1071 1108
f 1075 1073 1108
f 1075 1108 1109
f 1076 1075 1109
f 1078 1076 1109
f 1078 1109 1110
f 1080 1078 1110
f 1080 1110 1111
f 1082 1080 1111
f 1082 1111 1112
f 1084 1082 1112
f 1084 1112 1113
f 1086 1084 1113
f 1086 1113 1088
f 1088 1113 1114
f 1090 1088 1114
f 1090 1114 1115
f 1091 1090 1115
f 1091 1115 1116
f 1093 1091 1116
f 1093 1116 1117
f 1095 1093 1117
f 1095 1117 1118
f 1097 1095 1118
f 1099 1097 1118
f 1099 1118 1119
f 1101 1099 1119
f 1101 1119 1120
f 1103 1101 1120
f 1104 1103 1120
f 1106 1104 1120
f 1106 1120 1012
f 1016 1106 1012
f 1064 1062 1067
f 1062 1121 1067
f 1121 1122 1067
f 1121 1123 1122
f 1123 1124 1122
f 1123 1125 1124
f 1125 1126 1124
f 1125 1127 1126
f 1127 1128 1126
f 1127 1129 1128
f 1129 1130 1128
f 1129 956 1130
f 956 951 1130
f 953 951 956
f 1060 1131 1062
f 1060 1058 1131
f 1058 1056 1131
f 1056 1055 1131
f 1055 1132 1131
f 1055 1053 1132
f 1053 1051 1132
f 1051 1133 1132
f 1051 1049 1133
f 1049 1134 1133
f 1049 1047 1134
f 1047 1045 1134
f 1045 1135 1134
f 1045 1043 1135
f 1043 1136 1135
f 1043 1042 1136
f 1042 1137 1136
f 1042 1040 1137
f 1040 1138 1137
f 1038 1138 1040
f 1038 1139 1138
f 1038 1036 1139
f 1036 1034 1139
f 1034 1140 1139
f 1034 1032 1140
f 1032 1141 1140
f 1032 1030 1141
f 1030 1142 1141
f 1030 1029 1142
f 1029 1027 1142
f 1027 1143 1142
f 1027 1025 1143
f 1025 1144 1143
f 1025 1023 1144
f 1023 1022 1144
f 1022 1020 1144
f 1020 1011 1144
f 997 1145 999
f 997 995 1145
f 995 993 1145
f 993 992 1145
f 992 1146 1145
f 992 990 1146
f 990 988 1146
f 988 1147 1146
f 988 986 1147
f 986 1148 1147
f 986 984 1148
f 984 982 1148
f 982 1149 1148
f 982 980 1149
f 980 1150 1149
f 980 979 1150
f 979 1151 1150
f 979 977 1151
f 977 1152 1151
f 977 975 1152
f 975 1153 1152
f 975 973 1153
f 973 971 1153
f 971 1154 1153
f 971 969 1154
f 969 1155 1154
f 969 967 1155
f 967 1156 1155
f 966 1156 967
f 966 964 1156
f 964 1157 1156
f 964 962 1157
f 962 1158 1157
f 962 960 1158
f 960 959 1158
f 959 957 1158
f 957 956 1158
f 949 947 951
f 947 1159 951
f 947 945 1159
f 945 944 1159
f 944 942 1159
f 942 1160 1159
f 942 940 1160
f 940 1161 1160
f 940 938 1161
f 938 936 1161
f 936 1162 1161
f 936 934 1162
f 934 1163 1162
f 934 932 1163
f 932 1164 1163
f 932 900 1164
f 900 899 1164
f 1165 1166 1167
f 1168 1165 1167
f 1169 1166 1165
f 1169 1170 1166
f 1169 1171 1170
f 1171 1172 1170
f 1171 1173 1172
f 1173 1174 1172
f 1173 1175 1174
f 1175 1176 1174
f 1175 1177 1176
f 1177 1178 1176
f 1177 1179 1178
f 1179 1180 1178
f 1179 1181 1180
f 1181 1182 1180
f 1181 1183 1182
f 1183 1184 1182
f 1183 1185 1184
f 1185 1186 1184
f 1185 1187 1186
f 1187 1188 1186
f 1187 1189 1188
f 1189 1190 1188
f 1189 1191 1190
f 1191 1192 1190
f 1191 1193 1192
f 1193 1194 1192
f 1193 1195 1194
f 1195 1196 1194
f 1195 1197 1196
f 1197 1198 1196
f 1197 1199 1198
f 1199 1200 1198
f 1199 1201 1200
f 1201 1202 1200
f 1201 1203 1202
f 1203 1204 1202
f 1203 1205 1204
f 1205 1206 1204
f 1205 1207 1206
f 1207 1208 1206
f 1207 1209 1208
f 1209 1210 1208
f 1209 1211 1210
f 1211 1212 1210
f 1211 1213 1212
f 1213 1214 1212
f 1213 1215 1214
f 1215 1216 1214
f 1215 1217 1216
f 1217 1218 1216
f 1217 1219 1218
f 1219 1220 1218
f 1219 1168 1220
f 1168 1167 1220
