# Geometry extracted from Colibri.usd; meters.
v -0.05986730933 0.06023430347 -0.06621874809
v -0.06013741493 0.05828857541 -0.06637468815
v -0.05980843663 0.05755312443 -0.06618473768
v -0.05975003958 0.06023441792 -0.06615103483
v -0.05999437451 0.06021631479 -0.06629209757
v -0.06012542725 0.06016894341 -0.06636777163
v -0.060168643 0.05835889578 -0.06639271259
v -0.06020183802 0.05843513846 -0.06641188145
v -0.06023699999 0.05851727843 -0.0664321804
v -0.06025825739 0.06008522987 -0.06644444704
v -0.0602724123 0.05860375643 -0.06645262241
v -0.06030781746 0.05869591355 -0.06647307158
v -0.06034290075 0.0587953198 -0.06649332047
v -0.06036183357 0.05995839 -0.06650425673
v -0.06037638187 0.05890381336 -0.06651263952
v -0.06040778875 0.05902214885 -0.06653079271
v -0.06043418884 0.05979958534 -0.06654602766
v -0.06043679953 0.05915226102 -0.0665475297
v -0.060459795 0.05929587007 -0.06656080484
v -0.06046794176 0.0596258533 -0.06656551838
v -0.06047508001 0.05945561886 -0.06656962395
v -0.0596408236 0.06022447586 -0.06608797789
v -0.05953951478 0.0602078104 -0.06602949142
v -0.05946763515 0.05681676149 -0.06598798513
v -0.05944564462 0.06018819094 -0.0659752965
v -0.05935837626 0.06016552448 -0.06592489243
v -0.05927679062 0.06014019012 -0.06587779284
v -0.05920068026 0.06011344671 -0.06583386183
v -0.05912960887 0.06008565187 -0.06579283476
v -0.05911502838 0.05607947946 -0.06578440189
v -0.05906191349 0.06005732775 -0.06575374603
v -0.0589974153 0.06002895355 -0.06571650267
v -0.05893576384 0.06000090122 -0.06568090439
v -0.05887720585 0.05997387171 -0.06564709425
v -0.05882176638 0.05994786143 -0.06561508656
v -0.05875061989 0.05534128547 -0.06557401657
v -0.05767246485 0.05940451384 -0.06495154381
v -0.0583744061 0.05460217595 -0.06535681486
v -0.05798638344 0.0538621366 -0.06513277531
v -0.05758655906 0.05312119603 -0.06490194082
v -0.05652529478 0.05885043025 -0.064289217
v -0.05717491508 0.05237932563 -0.0646642828
v -0.0567514801 0.0516365397 -0.06441980839
v -0.05631622553 0.05089283824 -0.06416851759
v -0.05538020968 0.05828560352 -0.06362811327
v -0.05586916566 0.05014822483 -0.0639104104
v -0.05541028619 0.04940275669 -0.06364546537
v -0.05493943334 0.04865665555 -0.06337361813
v -0.05423724174 0.05771005511 -0.06296821833
v -0.05445666075 0.04790987849 -0.06309489012
v -0.05396201849 0.04716233969 -0.06280930281
v -0.05309638381 0.05712374926 -0.06230953217
v -0.0534555459 0.04641391397 -0.06251689196
v -0.05293729663 0.04566450119 -0.06221769333
v -0.05195762873 0.05652673602 -0.06165206909
v -0.05240733147 0.0449139905 -0.06191172123
v -0.05186571121 0.04416229606 -0.06159899712
v -0.0508209765 0.05591897964 -0.06099583626
v -0.05131245017 0.04340927839 -0.06127959251
v -0.05074764132 0.04265485525 -0.06095349312
v -0.04968643427 0.0553004837 -0.0603407979
v -0.05017132401 0.04189893007 -0.0606207633
v -0.04958354831 0.04114137053 -0.06028140306
v -0.04855399489 0.05467126608 -0.05968699336
v -0.04898311615 0.04038275957 -0.05993473649
v -0.04836922646 0.03962355137 -0.05958031654
v -0.0474236691 0.05403130531 -0.05903440475
v -0.04774254084 0.03886349916 -0.05921850085
v -0.0471037066 0.03810233831 -0.05884966493
v -0.04629539967 0.05338060498 -0.0583829999
v -0.0464533639 0.0373398149 -0.05847418427
v -0.0457921958 0.03657567143 -0.05809246659
v -0.04516864657 0.05271906137 -0.05773246408
v -0.04512081027 0.03580963612 -0.05770483375
v -0.04404344916 0.05204665661 -0.05708282948
v -0.04443988323 0.03504146934 -0.05731171489
v -0.04375007987 0.03427090645 -0.05691344976
v -0.0429200542 0.05136345148 -0.05643422842
v -0.04305202603 0.03349770069 -0.05651041389
v -0.04234636545 0.03272156954 -0.05610301495
v -0.04179870129 0.05066950321 -0.05578681469
v -0.04163345933 0.03194240928 -0.05569141388
v -0.04067965508 0.04996486545 -0.05514073491
v -0.0409117341 0.03116082072 -0.05527473092
v -0.04018088937 0.03037691832 -0.0548527801
v -0.03956315875 0.04924957395 -0.05449612498
v -0.03944093943 0.02959070921 -0.054425565
v -0.0384494555 0.04852371097 -0.05385313511
v -0.03869188428 0.02880218983 -0.05399309993
v -0.03793372393 0.02801136017 -0.05355537057
v -0.03733880997 0.04778730154 -0.05321190119
v -0.03716644406 0.02721822023 -0.05311239123
v -0.03685411334 0.04315256953 -0.05293206096
v -0.03683278441 0.04300441504 -0.05291974425
v -0.03683278441 0.04330072403 -0.05291974425
v -0.03623145103 0.04704040647 -0.05257256985
v -0.03677690864 0.04342700958 -0.05288747907
v -0.03668584585 0.04353217363 -0.05283490419
v -0.03657385468 0.04359750152 -0.0527702558
v -0.03644816995 0.04362131953 -0.05269768596
v -0.0363224566 0.04359750152 -0.05262511611
v -0.03621047974 0.04353217363 -0.05256046414
v -0.03512764335 0.04628306866 -0.05193528056
v -0.03611941338 0.04342700958 -0.05250787497
v -0.03606354117 0.04330072403 -0.05247562408
v -0.03604220867 0.04315256953 -0.05246331096
v -0.03560455441 0.02562500954 -0.05221061826
v -0.03480994463 0.02482495487 -0.05175186038
v -0.03639004469 0.02642277002 -0.05266412973
v -0.03606354117 0.04300441504 -0.05247562408
v -0.03611941338 0.04287811518 -0.05250787497
v -0.03621047974 0.04277296543 -0.05256046414
v -0.0363224566 0.04270764112 -0.05262511611
v -0.03644816995 0.04268381953 -0.05269768596
v -0.03657385468 0.04270764112 -0.0527702558
v -0.03668584585 0.04277296543 -0.05283490419
v -0.03677690864 0.04287811518 -0.05288747907
v -0.03402740836 0.04551530957 -0.05130005836
v -0.03400621533 0.02402257562 -0.05128783464
v -0.03293023467 0.04473701835 -0.05066661
v -0.03319339514 0.0232178843 -0.05081854463
v -0.03183602929 0.04394816995 -0.0500348711
v -0.03074483871 0.04314878941 -0.04940487027
v -0.02965662003 0.04233885169 -0.04877659678
v -0.02921908557 0.01918211997 -0.04852396488
v -0.02857140005 0.04151834965 -0.04815002918
v -0.02905532956 0.01901371479 -0.04842943668
v -0.02887884021 0.01884402037 -0.04832754135
v -0.02869108558 0.01867106974 -0.04821913362
v -0.02848662078 0.01850214064 -0.04810108423
v -0.02748918056 0.04068730474 -0.04752522111
v -0.02826399028 0.01833886564 -0.0479725492
v -0.02801664054 0.01819081485 -0.04782974839
v -0.02774046063 0.01805937052 -0.0476702857
v -0.0275938493 0.01800448537 -0.04758565664
v -0.02744188428 0.01795964956 -0.04749790549
v -0.02739705026 0.02153896451 -0.04747203112
v -0.02737571955 0.02139081001 -0.04745971441
v -0.02640994549 0.03984573126 -0.04690211892
v -0.02737571955 0.0216871208 -0.04745971441
v -0.02731984556 0.02181342065 -0.04742744923
v -0.0272287792 0.0219185704 -0.04737487435
v -0.02711680412 0.02198389471 -0.04731022596
v -0.02699110508 0.02200771451 -0.04723765612
v -0.02686540425 0.02198389471 -0.04716506839
v -0.02675341487 0.0219185704 -0.04710042
v -0.0266623503 0.02181342065 -0.04704784513
v -0.02660647452 0.0216871208 -0.04701557994
v -0.0265851599 0.02153896451 -0.04700328112
v -0.02646904528 0.01790530443 -0.04693622947
v -0.02631187499 0.01793755531 -0.0468454957
v -0.02663097024 0.01788459063 -0.04702972412
v -0.02660647452 0.02139081001 -0.04701557994
v -0.0266623503 0.02126451015 -0.04704784513
v -0.02679436505 0.01787553012 -0.0471240592
v -0.02675341487 0.02115936041 -0.04710042
v -0.02686540425 0.02109403431 -0.04716506839
v -0.02695622921 0.01787835002 -0.04721751094
v -0.02699110508 0.02107021451 -0.04723765612
v -0.0271193558 0.01789441466 -0.04731169581
v -0.02711680412 0.02109403431 -0.04731022596
v -0.0272287792 0.02115936041 -0.04737487435
v -0.0272825557 0.017922315 -0.0474059236
v -0.02731984556 0.02126451015 -0.04742744923
v -0.02533370912 0.03899357915 -0.04628074408
v -0.02615984917 0.01798260033 -0.04675773025
v -0.02586798012 0.01810759485 -0.04658920527
v -0.02560141504 0.01826272488 -0.04643532157
v -0.02536036491 0.01844686568 -0.04629613638
v -0.02514887989 0.01864210546 -0.04617403507
v -0.02426046073 0.03813089848 -0.04566111088
v -0.02496598542 0.01884815991 -0.04606843472
v -0.02480843961 0.01905453086 -0.04597748995
v -0.02467455089 0.01926160455 -0.04590018153
v -0.02455676973 0.01946536481 -0.04583218575
v -0.02445433438 0.01966582417 -0.04577305555
v -0.02436238468 0.01986112475 -0.04571995497
v -0.02427977979 0.02005123436 -0.04567226887
v -0.02420230508 0.02023521066 -0.04562754035
v -0.02319019496 0.03725766063 -0.04504320145
v -0.02413111567 0.02041328967 -0.04558642387
v -0.02298620939 0.03246134877 -0.04492542028
v -0.02296489477 0.03231319427 -0.04491310358
v -0.02293130994 0.03705360174 -0.04489372373
v -0.02296489477 0.03260952115 -0.04491310358
v -0.02290900469 0.0327358067 -0.04488085628
v -0.02266753435 0.03682605028 -0.04474144578
v -0.02281794012 0.03284095645 -0.0448282814
v -0.02270596504 0.03290628076 -0.04476362944
v -0.02258026421 0.03293009877 -0.04469104528
v -0.02239879489 0.03657507062 -0.04458627105
v -0.02245456517 0.03290628076 -0.04461847544
v -0.02234259009 0.03284095645 -0.04455382347
v -0.02212026 0.03630439639 -0.04442547083
v -0.02225152552 0.0327358067 -0.0445012486
v -0.02219564974 0.03260952115 -0.04446898341
v -0.02217432082 0.03246134877 -0.04445667028
v -0.02183915913 0.03600844502 -0.04426316857
v -0.0215683043 0.03567676663 -0.04410679579
v -0.02219564974 0.03231319427 -0.04446898341
v -0.02130175531 0.0353077662 -0.04395289421
v -0.02225152552 0.03218690872 -0.0445012486
v -0.02234259009 0.03208175898 -0.04455382347
v -0.02245456517 0.03201642036 -0.04461847544
v -0.02258026421 0.03199259877 -0.04469104528
v -0.02270596504 0.03201642036 -0.04476362944
v -0.02281794012 0.03208175898 -0.0448282814
v -0.02290900469 0.03218690872 -0.04488085628
v -0.02107474566 0.02798167527 -0.04382184148
v -0.02104889989 0.03490613937 -0.04380691409
v -0.02092386067 0.02833500087 -0.04373471975
v -0.02082599938 0.03447458982 -0.04367822886
v -0.02078173578 0.0287094301 -0.04365266919
v -0.02062702417 0.034008286 -0.04356334448
v -0.02064823508 0.02910488963 -0.04357558608
v -0.02053853989 0.0337652564 -0.04351225376
v -0.02051728427 0.0295194751 -0.04349998355
v -0.02045964003 0.03351811409 -0.04346669912
v -0.02039800465 0.02995604932 -0.04343111873
v -0.02039198935 0.03326871157 -0.04342763901
v -0.02033539474 0.03301471353 -0.0433949697
v -0.02030686498 0.03042061329 -0.04337850094
v -0.02028855085 0.03275431395 -0.04336792588
v -0.02025140941 0.03249019504 -0.04334648967
v -0.02023955941 0.03092105985 -0.04333963394
v -0.02022397578 0.03222498178 -0.04333065033
v -0.02021610081 0.03118011117 -0.04332610488
v -0.02020621419 0.03196133852 -0.04332038999
v -0.02020174563 0.03144124389 -0.04331781149
v -0.02019823551 0.03170161486 -0.04331578374
v -0.05919991493 0.05828857541 -0.06799848318
v -0.05980843663 0.05755312443 -0.06618473768
v -0.06013741493 0.05828857541 -0.06637468815
v -0.05923318505 0.05836354494 -0.06801769495
v -0.05887093663 0.05755312443 -0.06780853271
v -0.05946763515 0.05681676149 -0.06598798513
v -0.05853013515 0.05681676149 -0.06761178017
v -0.05911502838 0.05607947946 -0.06578440189
v -0.05817752838 0.05607947946 -0.06740821838
v -0.05875061989 0.05534128547 -0.06557401657
v -0.05781311989 0.05534128547 -0.06719782591
v -0.0583744061 0.05460217595 -0.06535681486
v -0.0574369061 0.05460217595 -0.06698060989
v -0.05798638344 0.0538621366 -0.06513277531
v -0.05704888344 0.0538621366 -0.06675658464
v -0.05758655906 0.05312119603 -0.06490194082
v -0.05664905906 0.05312119603 -0.06652575016
v -0.05717491508 0.05237932563 -0.0646642828
v -0.05623741508 0.05237932563 -0.06628809214
v -0.0567514801 0.0516365397 -0.06441980839
v -0.0558139801 0.0516365397 -0.06604360342
v -0.05631622553 0.05089283824 -0.06416851759
v -0.05537872553 0.05089283824 -0.06579231262
v -0.05586916566 0.05014822483 -0.0639104104
v -0.05493166566 0.05014822483 -0.06553420544
v -0.05541028619 0.04940275669 -0.06364546537
v -0.05447278619 0.04940275669 -0.06526927471
v -0.05493943334 0.04865665555 -0.06337361813
v -0.05400193334 0.04865665555 -0.06499742746
v -0.05445666075 0.04790987849 -0.06309489012
v -0.05351916075 0.04790987849 -0.06471869946
v -0.05396201849 0.04716233969 -0.06280930281
v -0.05302451849 0.04716233969 -0.06443311214
v -0.0534555459 0.04641391397 -0.06251689196
v -0.0525180459 0.04641391397 -0.06414070845
v -0.05293729663 0.04566450119 -0.06221769333
v -0.05199979663 0.04566450119 -0.06384148836
v -0.05240733147 0.0449139905 -0.06191172123
v -0.05146983147 0.0449139905 -0.06353551626
v -0.05186571121 0.04416229606 -0.06159899712
v -0.05092821121 0.04416229606 -0.06322280645
v -0.05131245017 0.04340927839 -0.06127959251
v -0.05037495017 0.04340927839 -0.06290338755
v -0.05074764132 0.04265485525 -0.06095349312
v -0.04981014132 0.04265485525 -0.06257730246
v -0.05017132401 0.04189893007 -0.0606207633
v -0.04923382401 0.04189893007 -0.06224455833
v -0.04958354831 0.04114137053 -0.06028140306
v -0.04864604831 0.04114137053 -0.0619051981
v -0.04898311615 0.04038275957 -0.05993473649
v -0.04804561615 0.04038275957 -0.06155852795
v -0.04836922646 0.03962355137 -0.05958031654
v -0.04743172646 0.03962355137 -0.06120411158
v -0.04774254084 0.03886349916 -0.05921850085
v -0.04680504084 0.03886349916 -0.06084229231
v -0.0471037066 0.03810233831 -0.05884966493
v -0.0461662066 0.03810233831 -0.06047346354
v -0.0464533639 0.0373398149 -0.05847418427
v -0.0455158639 0.0373398149 -0.06009799719
v -0.0457921958 0.03657567143 -0.05809246659
v -0.0448546958 0.03657567143 -0.05971626163
v -0.04512081027 0.03580963612 -0.05770483375
v -0.04418331027 0.03580963612 -0.05932864666
v -0.04443988323 0.03504146934 -0.05731171489
v -0.04350238323 0.03504146934 -0.05893550992
v -0.04375007987 0.03427090645 -0.05691344976
v -0.04281257987 0.03427090645 -0.0585372448
v -0.04305202603 0.03349770069 -0.05651041389
v -0.04211452603 0.03349770069 -0.05813422322
v -0.04234636545 0.03272156954 -0.05610301495
v -0.04140886545 0.03272156954 -0.05772680998
v -0.04163345933 0.03194240928 -0.05569141388
v -0.04069595933 0.03194240928 -0.05731520891
v -0.0409117341 0.03116082072 -0.05527473092
v -0.0399742341 0.03116082072 -0.05689852595
v -0.04018088937 0.03037691832 -0.0548527801
v -0.03924338937 0.03037691832 -0.05647657514
v -0.03944093943 0.02959070921 -0.054425565
v -0.03850343943 0.02959070921 -0.05604936004
v -0.03869188428 0.02880218983 -0.05399309993
v -0.03775438428 0.02880218983 -0.05561689496
v -0.03793372393 0.02801136017 -0.05355537057
v -0.03699622393 0.02801136017 -0.0551791656
v -0.03716644406 0.02721822023 -0.05311239123
v -0.03622894406 0.02721822023 -0.05473618627
v -0.03639004469 0.02642277002 -0.05266412973
v -0.03545254469 0.02642277002 -0.05428792477
v -0.03560455441 0.02562500954 -0.05221061826
v -0.03466705441 0.02562500954 -0.05383443117
v -0.03480994463 0.02482495487 -0.05175186038
v -0.03387244463 0.02482495487 -0.05337565541
v -0.03400621533 0.02402257562 -0.05128783464
v -0.03306871533 0.02402257562 -0.05291162968
v -0.03319339514 0.0232178843 -0.05081854463
v -0.03225589514 0.0232178843 -0.05244233966
v -0.02921908557 0.01918211997 -0.04852396488
v -0.02828158557 0.01918211997 -0.05014777422
v -0.02905532956 0.01901371479 -0.04842943668
v -0.02815568984 0.01905331492 -0.05007508636
v -0.02802217484 0.0189220351 -0.04999799967
v -0.02887884021 0.01884402037 -0.04832754135
v -0.02788190961 0.01878750086 -0.04991701484
v -0.02869108558 0.01867106974 -0.04821913362
v -0.02773177564 0.01865268052 -0.04983034372
v -0.02848662078 0.01850214064 -0.04810108423
v -0.02757090032 0.01851828039 -0.04973744988
v -0.02739604533 0.0183880949 -0.04963651657
v -0.02826399028 0.01833886564 -0.0479725492
v -0.02720657945 0.01826256037 -0.04952712178
v -0.02801664054 0.01819081485 -0.04782974839
v -0.02699824512 0.01814819992 -0.04940683365
v -0.02774046063 0.01805937052 -0.0476702857
v -0.02676998913 0.01804563046 -0.04927505851
v -0.0275938493 0.01800448537 -0.04758565664
v -0.0265199393 0.0179636693 -0.04913068414
v -0.02744188428 0.01795964956 -0.04749790549
v -0.0272825557 0.017922315 -0.0474059236
v -0.026247105 0.01790275455 -0.04897317052
v -0.0271193558 0.01789441466 -0.04731169581
v -0.02695622921 0.01787835002 -0.04721751094
v -0.02595852077 0.01787665486 -0.04880655169
v -0.02679436505 0.01787553012 -0.0471240592
v -0.02663097024 0.01788459063 -0.04702972412
v -0.02565448523 0.01788619459 -0.04863102078
v -0.02646904528 0.01790530443 -0.04693622947
v -0.02550090015 0.01790968537 -0.0485423398
v -0.02631187499 0.01793755531 -0.0468454957
v -0.0253451854 0.01794709504 -0.04845244646
v -0.02615984917 0.01798260033 -0.04675773025
v -0.02518762529 0.01799704492 -0.04836146951
v -0.02586798012 0.01810759485 -0.04658920527
v -0.02503184974 0.01805885911 -0.04827154398
v -0.02488123477 0.01813199937 -0.04818457603
v -0.02560141504 0.01826272488 -0.04643532157
v -0.02473330557 0.01821889579 -0.04809916377
v -0.0245887506 0.01831750453 -0.04801570415
v -0.02536036491 0.01844686568 -0.04629613638
v -0.02445079565 0.01842376471 -0.04793607116
v -0.02432235003 0.01853425562 -0.04786190987
v -0.02514887989 0.01864210546 -0.04617403507
v -0.02420221567 0.01865224421 -0.04779255152
v -0.02496598542 0.01884815991 -0.04606843472
v -0.02398506045 0.01890265524 -0.04766716361
v -0.02480843961 0.01905453086 -0.04597748995
v -0.02380059063 0.01915891528 -0.04756067991
v -0.02467455089 0.01926160455 -0.04590018153
v -0.02364496529 0.01942026079 -0.04747081518
v -0.02455676973 0.01946536481 -0.04583218575
v -0.02445433438 0.01966582417 -0.04577305555
v -0.02351056516 0.01967737556 -0.04739323497
v -0.02436238468 0.01986112475 -0.04571995497
v -0.02339447916 0.01993036509 -0.0473262012
v -0.02427977979 0.02005123436 -0.04567226887
v -0.02328804016 0.02017530084 -0.04726474643
v -0.02420230508 0.02023521066 -0.04562754035
v -0.02413111567 0.02041328967 -0.04558642387
v -0.02319361567 0.02041328967 -0.04721023679
v -0.02107474566 0.02798167527 -0.04382184148
v -0.02013724566 0.02798167527 -0.04544563651
v -0.02092386067 0.02833500087 -0.04373471975
v -0.01994624913 0.02843765974 -0.0453353548
v -0.02078173578 0.0287094301 -0.04365266919
v -0.01977445543 0.02890651524 -0.04523617387
v -0.02064823508 0.02910488963 -0.04357558608
v -0.01962061465 0.02938805938 -0.04514736056
v -0.02051728427 0.0295194751 -0.04349998355
v -0.01954849541 0.02963338494 -0.04510571837
v -0.02039800465 0.02995604932 -0.04343111873
v -0.01948157966 0.02988196492 -0.04506708026
v -0.01942210436 0.03013405323 -0.04503274441
v -0.02030686498 0.03042061329 -0.04337850094
v -0.01937230468 0.03038992524 -0.04500400543
v -0.01933261514 0.03065063953 -0.04498108506
v -0.02023955941 0.03092105985 -0.04333963394
v -0.01930066466 0.03091691852 -0.04496263504
v -0.02021610081 0.03118011117 -0.04332610488
v -0.01927738488 0.0311866951 -0.04494919538
v -0.02020174563 0.03144124389 -0.04331781149
v -0.01926383972 0.03145779133 -0.04494138122
v -0.02019823551 0.03170161486 -0.04331578374
v -0.01926109493 0.03172801495 -0.04493978977
v -0.02020621419 0.03196133852 -0.04332038999
v -0.01926986933 0.03199708343 -0.04494486094
v -0.02022397578 0.03222498178 -0.04333065033
v -0.01928949058 0.03226870537 -0.04495618343
v -0.02025140941 0.03249019504 -0.04334648967
v -0.01931952059 0.03254035592 -0.04497352481
v -0.02028855085 0.03275431395 -0.04336792588
v -0.01935959995 0.03280908108 -0.04499667048
v -0.02033539474 0.03301471353 -0.0433949697
v -0.01940936923 0.03307190895 -0.04502539515
v -0.02039198935 0.03326871157 -0.04342763901
v -0.01946914494 0.03332733035 -0.04505990982
v -0.02045964003 0.03351811409 -0.04346669912
v -0.01954113007 0.03357960105 -0.04510145903
v -0.02053853989 0.0337652564 -0.04351225376
v -0.01962325573 0.03382710099 -0.04514889121
v -0.02062702417 0.034008286 -0.04356334448
v -0.01971298456 0.03406732678 -0.04520068645
v -0.02082599938 0.03447458982 -0.04367822886
v -0.01990576565 0.03451624632 -0.04531198382
v -0.02104889989 0.03490613937 -0.04380691409
v -0.02012158513 0.03492326975 -0.04543658853
v -0.02130175531 0.0353077662 -0.04395289421
v -0.02035260022 0.03529321432 -0.04556996942
v -0.02058679461 0.03562545061 -0.04570519567
v -0.0215683043 0.03567676663 -0.04410679579
v -0.02082823455 0.03591967463 -0.04584457397
v -0.02183915913 0.03600844502 -0.04426316857
v -0.02106984079 0.0361889255 -0.04598407388
v -0.02212026 0.03630439639 -0.04442547083
v -0.02131017029 0.03643326044 -0.04612282634
v -0.02239879489 0.03657507062 -0.04458627105
v -0.02154968977 0.03665660977 -0.04626111031
v -0.02266753435 0.03682605028 -0.04474144578
v -0.02178637505 0.03686974525 -0.04639775991
v -0.02293130994 0.03705360174 -0.04489372373
v -0.02202064455 0.03707039952 -0.04653301477
v -0.02319019496 0.03725766063 -0.04504320145
v -0.02225269496 0.03725766063 -0.04666699648
v -0.02426046073 0.03813089848 -0.04566111088
v -0.02332296073 0.03813089848 -0.04728490591
v -0.02533370912 0.03899357915 -0.04628074408
v -0.02439620912 0.03899357915 -0.04790453911
v -0.02640994549 0.03984573126 -0.04690211892
v -0.02547244549 0.03984573126 -0.04852591395
v -0.02748918056 0.04068730474 -0.04752522111
v -0.02655168056 0.04068730474 -0.04914901614
v -0.02857140005 0.04151834965 -0.04815002918
v -0.02763390005 0.04151834965 -0.04977383852
v -0.02965662003 0.04233885169 -0.04877659678
v -0.02871912003 0.04233885169 -0.05040038824
v -0.03074483871 0.04314878941 -0.04940487027
v -0.0298073405 0.04314878941 -0.0510286653
v -0.03183602929 0.04394816995 -0.0500348711
v -0.03089852929 0.04394816995 -0.05165866613
v -0.03293023467 0.04473701835 -0.05066661
v -0.03199273467 0.04473701835 -0.05229040504
v -0.03402740836 0.04551530957 -0.05130005836
v -0.03308990836 0.04551530957 -0.05292387128
v -0.03512764335 0.04628306866 -0.05193528056
v -0.03419014335 0.04628306866 -0.05355907559
v -0.03623145103 0.04704040647 -0.05257256985
v -0.03529395103 0.04704040647 -0.05419636488
v -0.03733880997 0.04778730154 -0.05321190119
v -0.03640130997 0.04778730154 -0.05483569622
v -0.0384494555 0.04852371097 -0.05385313511
v -0.0375119555 0.04852371097 -0.05547693014
v -0.03956315875 0.04924957395 -0.05449612498
v -0.03862565875 0.04924957395 -0.05611992002
v -0.04067965508 0.04996486545 -0.05514073491
v -0.03974215508 0.04996486545 -0.05676452994
v -0.04179870129 0.05066950321 -0.05578681469
v -0.04086120129 0.05066950321 -0.05741060972
v -0.0429200542 0.05136345148 -0.05643422842
v -0.0419825542 0.05136345148 -0.05805802345
v -0.04404344916 0.05204665661 -0.05708282948
v -0.04310594916 0.05204665661 -0.05870662451
v -0.04516864657 0.05271906137 -0.05773246408
v -0.04423114657 0.05271906137 -0.05935625911
v -0.04629539967 0.05338060498 -0.0583829999
v -0.04535789967 0.05338060498 -0.06000679493
v -0.0474236691 0.05403130531 -0.05903440475
v -0.0464861691 0.05403130531 -0.06065819979
v -0.04855399489 0.05467126608 -0.05968699336
v -0.04761649489 0.05467126608 -0.06131079197
v -0.04968643427 0.0553004837 -0.0603407979
v -0.04874893427 0.0553004837 -0.06196460724
v -0.0508209765 0.05591897964 -0.06099583626
v -0.0498834765 0.05591897964 -0.06261963129
v -0.05195762873 0.05652673602 -0.06165206909
v -0.05102012873 0.05652673602 -0.06327587843
v -0.05309638381 0.05712374926 -0.06230953217
v -0.05215888381 0.05712374926 -0.0639333272
v -0.05423724174 0.05771005511 -0.06296821833
v -0.05329974174 0.05771005511 -0.06459201336
v -0.05538020968 0.05828560352 -0.06362811327
v -0.05444270968 0.05828560352 -0.0652519083
v -0.05652529478 0.05885043025 -0.064289217
v -0.05558779478 0.05885043025 -0.06591301203
v -0.05767246485 0.05940451384 -0.06495154381
v -0.05673496485 0.05940451384 -0.06657533884
v -0.05882176638 0.05994786143 -0.06561508656
v -0.05788426638 0.05994786143 -0.06723889589
v -0.05887720585 0.05997387171 -0.06564709425
v -0.05794444442 0.0599760747 -0.06727363586
v -0.05893576384 0.06000090122 -0.06568090439
v -0.05800868869 0.06000570059 -0.06731071472
v -0.0589974153 0.06002895355 -0.06571650267
v -0.05807699919 0.06003655672 -0.06735016823
v -0.05906191349 0.06005732775 -0.06575374603
v -0.05814919353 0.0600679493 -0.06739185333
v -0.05912960887 0.06008565187 -0.06579283476
v -0.05822613001 0.06009917736 -0.06743626356
v -0.05920068026 0.06011344671 -0.06583386183
v -0.05830843449 0.06012978315 -0.06748378515
v -0.05927679062 0.06014019012 -0.06587779284
v -0.05839819551 0.06015887976 -0.06753561258
v -0.05935837626 0.06016552448 -0.06592489243
v -0.0584959352 0.06018523693 -0.06759203911
v -0.05944564462 0.06018819094 -0.0659752965
v -0.05953951478 0.0602078104 -0.06602949142
v -0.05860225439 0.0602079463 -0.06765342236
v -0.0596408236 0.06022447586 -0.06608797789
v -0.05871845841 0.06022660732 -0.06772049904
v -0.05975003958 0.06023441792 -0.06615103483
v -0.05884673953 0.06023514032 -0.06779458523
v -0.05986730933 0.06023430347 -0.06621874809
v -0.05898847461 0.06022888184 -0.06787641048
v -0.05999437451 0.06021631479 -0.06629209757
v -0.05913563848 0.06019177437 -0.06796136856
v -0.06012542725 0.06016894341 -0.06636777163
v -0.05927476645 0.06011931181 -0.06804169178
v -0.06025825739 0.06008522987 -0.06644444704
v -0.05939384937 0.06000634432 -0.06811045647
v -0.06036183357 0.05995839 -0.06650425673
v -0.05947609663 0.05985648036 -0.06815792799
v -0.06043418884 0.05979958534 -0.06654602766
v -0.05952349663 0.05968498349 -0.06818530798
v -0.06046794176 0.0596258533 -0.06656551838
v -0.05953688979 0.05950801492 -0.06819303274
v -0.06047508001 0.05945561886 -0.06656962395
v -0.05952904344 0.05934381008 -0.06818849802
v -0.060459795 0.05929587007 -0.06656080484
v -0.05950674176 0.05919370651 -0.06817563057
v -0.06043679953 0.05915226102 -0.0665475297
v -0.05947906494 0.05905930638 -0.06815963745
v -0.06040778875 0.05902214885 -0.06653079271
v -0.05944809079 0.05893624663 -0.06814176321
v -0.06037638187 0.05890381336 -0.06651263952
v -0.05941450596 0.05882336855 -0.06812237978
v -0.06034290075 0.0587953198 -0.06649332047
v -0.05937886477 0.05871934533 -0.06810180187
v -0.06030781746 0.05869591355 -0.06647307158
v -0.05934236884 0.05862246037 -0.06808072329
v -0.0602724123 0.05860375643 -0.06645262241
v -0.05930545449 0.0585316658 -0.06805940866
v -0.06023699999 0.05851727843 -0.0664321804
v -0.05926847935 0.05844467998 -0.06803806543
v -0.06020183802 0.05843513846 -0.06641188145
v -0.060168643 0.05835889578 -0.06639271259
v -0.03510470867 0.04315256953 -0.05408710599
v -0.03606354117 0.04300441504 -0.05247562408
v -0.03604220867 0.04315256953 -0.05246331096
v -0.03512604117 0.04330072403 -0.05409941912
v -0.03512604117 0.04300441504 -0.05409941912
v -0.03611941338 0.04287811518 -0.05250787497
v -0.03518191338 0.04287811518 -0.0541316843
v -0.03621047974 0.04277296543 -0.05256046414
v -0.03527297974 0.04277296543 -0.05418425918
v -0.0363224566 0.04270764112 -0.05262511611
v -0.0353849566 0.04270764112 -0.05424891114
v -0.03644816995 0.04268381953 -0.05269768596
v -0.03551066995 0.04268381953 -0.05432148099
v -0.03657385468 0.04270764112 -0.0527702558
v -0.03563635468 0.04270764112 -0.05439405084
v -0.03668584585 0.04277296543 -0.05283490419
v -0.03574834585 0.04277296543 -0.05445869923
v -0.03677690864 0.04287811518 -0.05288747907
v -0.03583940864 0.04287811518 -0.0545112741
v -0.03683278441 0.04300441504 -0.05291974425
v -0.03589528441 0.04300441504 -0.05454353929
v -0.03685411334 0.04315256953 -0.05293206096
v -0.03591661334 0.04315256953 -0.05455585599
v -0.03683278441 0.04330072403 -0.05291974425
v -0.03589528441 0.04330072403 -0.05454353929
v -0.03677690864 0.04342700958 -0.05288747907
v -0.03583940864 0.04342700958 -0.0545112741
v -0.03668584585 0.04353217363 -0.05283490419
v -0.03574834585 0.04353217363 -0.05445869923
v -0.03657385468 0.04359750152 -0.0527702558
v -0.03563635468 0.04359750152 -0.05439405084
v -0.03644816995 0.04362131953 -0.05269768596
v -0.03551066995 0.04362131953 -0.05432148099
v -0.0363224566 0.04359750152 -0.05262511611
v -0.0353849566 0.04359750152 -0.05424891114
v -0.03621047974 0.04353217363 -0.05256046414
v -0.03527297974 0.04353217363 -0.05418425918
v -0.03611941338 0.04342700958 -0.05250787497
v -0.03518191338 0.04342700958 -0.0541316843
v -0.03606354117 0.04330072403 -0.05247562408
v -0.0256476599 0.02153896451 -0.04862707615
v -0.02660647452 0.02139081001 -0.04701557994
v -0.0265851599 0.02153896451 -0.04700328112
v -0.02566897452 0.0216871208 -0.04863938928
v -0.02566897452 0.02139081001 -0.04863938928
v -0.0266623503 0.02126451015 -0.04704784513
v -0.0257248503 0.02126451015 -0.04867164016
v -0.02675341487 0.02115936041 -0.04710042
v -0.02581591487 0.02115936041 -0.04872421503
v -0.02686540425 0.02109403431 -0.04716506839
v -0.02592790425 0.02109403431 -0.0487888813
v -0.02699110508 0.02107021451 -0.04723765612
v -0.02605360508 0.02107021451 -0.04886145115
v -0.02711680412 0.02109403431 -0.04731022596
v -0.02617930412 0.02109403431 -0.048934021
v -0.0272287792 0.02115936041 -0.04737487435
v -0.0262912792 0.02115936041 -0.04899866939
v -0.02731984556 0.02126451015 -0.04742744923
v -0.02638234556 0.02126451015 -0.04905124426
v -0.02737571955 0.02139081001 -0.04745971441
v -0.02643821955 0.02139081001 -0.04908350945
v -0.02739705026 0.02153896451 -0.04747203112
v -0.02645955026 0.02153896451 -0.04909582615
v -0.02737571955 0.0216871208 -0.04745971441
v -0.02643821955 0.0216871208 -0.04908350945
v -0.02731984556 0.02181342065 -0.04742744923
v -0.02638234556 0.02181342065 -0.04905124426
v -0.0272287792 0.0219185704 -0.04737487435
v -0.0262912792 0.0219185704 -0.04899866939
v -0.02711680412 0.02198389471 -0.04731022596
v -0.02617930412 0.02198389471 -0.048934021
v -0.02699110508 0.02200771451 -0.04723765612
v -0.02605360508 0.02200771451 -0.04886145115
v -0.02686540425 0.02198389471 -0.04716506839
v -0.02592790425 0.02198389471 -0.0487888813
v -0.02675341487 0.0219185704 -0.04710042
v -0.02581591487 0.0219185704 -0.04872421503
v -0.0266623503 0.02181342065 -0.04704784513
v -0.0257248503 0.02181342065 -0.04867164016
v -0.02660647452 0.0216871208 -0.04701557994
v -0.02123682082 0.03246134877 -0.04608046532
v -0.02219564974 0.03231319427 -0.04446898341
v -0.02217432082 0.03246134877 -0.04445667028
v -0.02125814974 0.03260952115 -0.04609277844
v -0.02125814974 0.03231319427 -0.04609277844
v -0.02225152552 0.03218690872 -0.0445012486
v -0.02131402552 0.03218690872 -0.04612504363
v -0.02234259009 0.03208175898 -0.04455382347
v -0.02140509009 0.03208175898 -0.0461776185
v -0.02245456517 0.03201642036 -0.04461847544
v -0.02151706517 0.03201642036 -0.04624227047
v -0.02258026421 0.03199259877 -0.04469104528
v -0.02164276421 0.03199259877 -0.04631484032
v -0.02270596504 0.03201642036 -0.04476362944
v -0.02176846504 0.03201642036 -0.04638742447
v -0.02281794012 0.03208175898 -0.0448282814
v -0.02188044012 0.03208175898 -0.04645207644
v -0.02290900469 0.03218690872 -0.04488085628
v -0.02197150469 0.03218690872 -0.04650465131
v -0.02296489477 0.03231319427 -0.04491310358
v -0.02202739477 0.03231319427 -0.04653691649
v -0.02298620939 0.03246134877 -0.04492542028
v -0.02204870939 0.03246134877 -0.04654921532
v -0.02296489477 0.03260952115 -0.04491310358
v -0.02202739477 0.03260952115 -0.04653691649
v -0.02290900469 0.0327358067 -0.04488085628
v -0.02197150469 0.0327358067 -0.04650465131
v -0.02281794012 0.03284095645 -0.0448282814
v -0.02188044012 0.03284095645 -0.04645207644
v -0.02270596504 0.03290628076 -0.04476362944
v -0.02176846504 0.03290628076 -0.04638742447
v -0.02258026421 0.03293009877 -0.04469104528
v -0.02164276421 0.03293009877 -0.04631484032
v -0.02245456517 0.03290628076 -0.04461847544
v -0.02151706517 0.03290628076 -0.04624227047
v -0.02234259009 0.03284095645 -0.04455382347
v -0.02140509009 0.03284095645 -0.0461776185
v -0.02225152552 0.0327358067 -0.0445012486
v -0.02131402552 0.0327358067 -0.04612504363
v -0.02219564974 0.03260952115 -0.04446898341
v -0.05704888344 0.0538621366 -0.06675658464
v -0.05788426638 0.05994786143 -0.06723889589
v -0.05673496485 0.05940451384 -0.06657533884
v -0.05664905906 0.05312119603 -0.06652575016
v -0.0574369061 0.05460217595 -0.06698060989
v -0.05781311989 0.05534128547 -0.06719782591
v -0.05794444442 0.0599760747 -0.06727363586
v -0.05800868869 0.06000570059 -0.06731071472
v -0.05807699919 0.06003655672 -0.06735016823
v -0.05814919353 0.0600679493 -0.06739185333
v -0.05817752838 0.05607947946 -0.06740821838
v -0.05822613001 0.06009917736 -0.06743626356
v -0.05830843449 0.06012978315 -0.06748378515
v -0.05839819551 0.06015887976 -0.06753561258
v -0.0584959352 0.06018523693 -0.06759203911
v -0.05853013515 0.05681676149 -0.06761178017
v -0.05860225439 0.0602079463 -0.06765342236
v -0.05871845841 0.06022660732 -0.06772049904
v -0.05884673953 0.06023514032 -0.06779458523
v -0.05887093663 0.05755312443 -0.06780853271
v -0.05898847461 0.06022888184 -0.06787641048
v -0.05913563848 0.06019177437 -0.06796136856
v -0.05919991493 0.05828857541 -0.06799848318
v -0.05927476645 0.06011931181 -0.06804169178
v -0.05923318505 0.05836354494 -0.06801769495
v -0.05926847935 0.05844467998 -0.06803806543
v -0.05930545449 0.0585316658 -0.06805940866
v -0.05939384937 0.06000634432 -0.06811045647
v -0.05934236884 0.05862246037 -0.06808072329
v -0.05937886477 0.05871934533 -0.06810180187
v -0.05941450596 0.05882336855 -0.06812237978
v -0.05947609663 0.05985648036 -0.06815792799
v -0.05944809079 0.05893624663 -0.06814176321
v -0.05947906494 0.05905930638 -0.06815963745
v -0.05952349663 0.05968498349 -0.06818530798
v -0.05950674176 0.05919370651 -0.06817563057
v -0.05952904344 0.05934381008 -0.06818849802
v -0.05953688979 0.05950801492 -0.06819303274
v -0.05623741508 0.05237932563 -0.06628809214
v -0.0558139801 0.0516365397 -0.06604360342
v -0.05558779478 0.05885043025 -0.06591301203
v -0.05537872553 0.05089283824 -0.06579231262
v -0.05493166566 0.05014822483 -0.06553420544
v -0.05447278619 0.04940275669 -0.06526927471
v -0.05444270968 0.05828560352 -0.0652519083
v -0.05400193334 0.04865665555 -0.06499742746
v -0.05351916075 0.04790987849 -0.06471869946
v -0.05329974174 0.05771005511 -0.06459201336
v -0.05302451849 0.04716233969 -0.06443311214
v -0.0525180459 0.04641391397 -0.06414070845
v -0.05215888381 0.05712374926 -0.0639333272
v -0.05199979663 0.04566450119 -0.06384148836
v -0.05146983147 0.0449139905 -0.06353551626
v -0.05102012873 0.05652673602 -0.06327587843
v -0.05092821121 0.04416229606 -0.06322280645
v -0.05037495017 0.04340927839 -0.06290338755
v -0.0498834765 0.05591897964 -0.06261963129
v -0.04981014132 0.04265485525 -0.06257730246
v -0.04923382401 0.04189893007 -0.06224455833
v -0.04874893427 0.0553004837 -0.06196460724
v -0.04864604831 0.04114137053 -0.0619051981
v -0.04804561615 0.04038275957 -0.06155852795
v -0.04761649489 0.05467126608 -0.06131079197
v -0.04743172646 0.03962355137 -0.06120411158
v -0.04680504084 0.03886349916 -0.06084229231
v -0.0464861691 0.05403130531 -0.06065819979
v -0.0461662066 0.03810233831 -0.06047346354
v -0.0455158639 0.0373398149 -0.06009799719
v -0.04535789967 0.05338060498 -0.06000679493
v -0.0448546958 0.03657567143 -0.05971626163
v -0.04423114657 0.05271906137 -0.05935625911
v -0.04418331027 0.03580963612 -0.05932864666
v -0.04350238323 0.03504146934 -0.05893550992
v -0.04310594916 0.05204665661 -0.05870662451
v -0.04281257987 0.03427090645 -0.0585372448
v -0.04211452603 0.03349770069 -0.05813422322
v -0.0419825542 0.05136345148 -0.05805802345
v -0.04140886545 0.03272156954 -0.05772680998
v -0.04086120129 0.05066950321 -0.05741060972
v -0.04069595933 0.03194240928 -0.05731520891
v -0.0399742341 0.03116082072 -0.05689852595
v -0.03974215508 0.04996486545 -0.05676452994
v -0.03924338937 0.03037691832 -0.05647657514
v -0.03862565875 0.04924957395 -0.05611992002
v -0.03850343943 0.02959070921 -0.05604936004
v -0.03775438428 0.02880218983 -0.05561689496
v -0.0375119555 0.04852371097 -0.05547693014
v -0.03699622393 0.02801136017 -0.0551791656
v -0.03640130997 0.04778730154 -0.05483569622
v -0.03622894406 0.02721822023 -0.05473618627
v -0.03591661334 0.04315256953 -0.05455585599
v -0.03589528441 0.04330072403 -0.05454353929
v -0.03545254469 0.02642277002 -0.05428792477
v -0.03589528441 0.04300441504 -0.05454353929
v -0.03583940864 0.04287811518 -0.0545112741
v -0.03574834585 0.04277296543 -0.05445869923
v -0.03563635468 0.04270764112 -0.05439405084
v -0.03551066995 0.04268381953 -0.05432148099
v -0.0353849566 0.04270764112 -0.05424891114
v -0.03466705441 0.02562500954 -0.05383443117
v -0.03527297974 0.04277296543 -0.05418425918
v -0.03518191338 0.04287811518 -0.0541316843
v -0.03512604117 0.04300441504 -0.05409941912
v -0.03510470867 0.04315256953 -0.05408710599
v -0.03419014335 0.04628306866 -0.05355907559
v -0.03387244463 0.02482495487 -0.05337565541
v -0.03529395103 0.04704040647 -0.05419636488
v -0.03512604117 0.04330072403 -0.05409941912
v -0.03518191338 0.04342700958 -0.0541316843
v -0.03527297974 0.04353217363 -0.05418425918
v -0.0353849566 0.04359750152 -0.05424891114
v -0.03551066995 0.04362131953 -0.05432148099
v -0.03563635468 0.04359750152 -0.05439405084
v -0.03574834585 0.04353217363 -0.05445869923
v -0.03583940864 0.04342700958 -0.0545112741
v -0.03308990836 0.04551530957 -0.05292387128
v -0.03306871533 0.02402257562 -0.05291162968
v -0.03225589514 0.0232178843 -0.05244233966
v -0.03199273467 0.04473701835 -0.05229040504
v -0.02828158557 0.01918211997 -0.05014777422
v -0.03089852929 0.04394816995 -0.05165866613
v -0.0298073405 0.04314878941 -0.0510286653
v -0.02871912003 0.04233885169 -0.05040038824
v -0.02815568984 0.01905331492 -0.05007508636
v -0.02802217484 0.0189220351 -0.04999799967
v -0.02788190961 0.01878750086 -0.04991701484
v -0.02773177564 0.01865268052 -0.04983034372
v -0.02763390005 0.04151834965 -0.04977383852
v -0.02757090032 0.01851828039 -0.04973744988
v -0.02739604533 0.0183880949 -0.04963651657
v -0.02720657945 0.01826256037 -0.04952712178
v -0.02699824512 0.01814819992 -0.04940683365
v -0.02676998913 0.01804563046 -0.04927505851
v -0.02655168056 0.04068730474 -0.04914901614
v -0.0265199393 0.0179636693 -0.04913068414
v -0.02645955026 0.02153896451 -0.04909582615
v -0.02643821955 0.0216871208 -0.04908350945
v -0.026247105 0.01790275455 -0.04897317052
v -0.02643821955 0.02139081001 -0.04908350945
v -0.02638234556 0.02126451015 -0.04905124426
v -0.0262912792 0.02115936041 -0.04899866939
v -0.02617930412 0.02109403431 -0.048934021
v -0.02595852077 0.01787665486 -0.04880655169
v -0.02605360508 0.02107021451 -0.04886145115
v -0.02592790425 0.02109403431 -0.0487888813
v -0.02565448523 0.01788619459 -0.04863102078
v -0.02581591487 0.02115936041 -0.04872421503
v -0.0257248503 0.02126451015 -0.04867164016
v -0.02566897452 0.02139081001 -0.04863938928
v -0.0256476599 0.02153896451 -0.04862707615
v -0.02550090015 0.01790968537 -0.0485423398
v -0.02547244549 0.03984573126 -0.04852591395
v -0.0253451854 0.01794709504 -0.04845244646
v -0.02566897452 0.0216871208 -0.04863938928
v -0.0257248503 0.02181342065 -0.04867164016
v -0.02581591487 0.0219185704 -0.04872421503
v -0.02592790425 0.02198389471 -0.0487888813
v -0.02605360508 0.02200771451 -0.04886145115
v -0.02617930412 0.02198389471 -0.048934021
v -0.0262912792 0.0219185704 -0.04899866939
v -0.02638234556 0.02181342065 -0.04905124426
v -0.02518762529 0.01799704492 -0.04836146951
v -0.02503184974 0.01805885911 -0.04827154398
v -0.02488123477 0.01813199937 -0.04818457603
v -0.02473330557 0.01821889579 -0.04809916377
v -0.0245887506 0.01831750453 -0.04801570415
v -0.02445079565 0.01842376471 -0.04793607116
v -0.02439620912 0.03899357915 -0.04790453911
v -0.02432235003 0.01853425562 -0.04786190987
v -0.02420221567 0.01865224421 -0.04779255152
v -0.02398506045 0.01890265524 -0.04766716361
v -0.02380059063 0.01915891528 -0.04756067991
v -0.02364496529 0.01942026079 -0.04747081518
v -0.02351056516 0.01967737556 -0.04739323497
v -0.02339447916 0.01993036509 -0.0473262012
v -0.02332296073 0.03813089848 -0.04728490591
v -0.02328804016 0.02017530084 -0.04726474643
v -0.02319361567 0.02041328967 -0.04721023679
v -0.02225269496 0.03725766063 -0.04666699648
v -0.02204870939 0.03246134877 -0.04654921532
v -0.02202739477 0.03260952115 -0.04653691649
v -0.02202739477 0.03231319427 -0.04653691649
v -0.02013724566 0.02798167527 -0.04544563651
v -0.02197150469 0.03218690872 -0.04650465131
v -0.02188044012 0.03208175898 -0.04645207644
v -0.02176846504 0.03201642036 -0.04638742447
v -0.02164276421 0.03199259877 -0.04631484032
v -0.02151706517 0.03201642036 -0.04624227047
v -0.02140509009 0.03208175898 -0.0461776185
v -0.02131402552 0.03218690872 -0.04612504363
v -0.02125814974 0.03231319427 -0.04609277844
v -0.02123682082 0.03246134877 -0.04608046532
v -0.02106984079 0.0361889255 -0.04598407388
v -0.02082823455 0.03591967463 -0.04584457397
v -0.02131017029 0.03643326044 -0.04612282634
v -0.02125814974 0.03260952115 -0.04609277844
v -0.02131402552 0.0327358067 -0.04612504363
v -0.02154968977 0.03665660977 -0.04626111031
v -0.02140509009 0.03284095645 -0.0461776185
v -0.02151706517 0.03290628076 -0.04624227047
v -0.02164276421 0.03293009877 -0.04631484032
v -0.02178637505 0.03686974525 -0.04639775991
v -0.02176846504 0.03290628076 -0.04638742447
v -0.02188044012 0.03284095645 -0.04645207644
v -0.02202064455 0.03707039952 -0.04653301477
v -0.02197150469 0.0327358067 -0.04650465131
v -0.02058679461 0.03562545061 -0.04570519567
v -0.02035260022 0.03529321432 -0.04556996942
v -0.02012158513 0.03492326975 -0.04543658853
v -0.01994624913 0.02843765974 -0.0453353548
v -0.01990576565 0.03451624632 -0.04531198382
v -0.01977445543 0.02890651524 -0.04523617387
v -0.01971298456 0.03406732678 -0.04520068645
v -0.01962061465 0.02938805938 -0.04514736056
v -0.01962325573 0.03382710099 -0.04514889121
v -0.01954849541 0.02963338494 -0.04510571837
v -0.01954113007 0.03357960105 -0.04510145903
v -0.01948157966 0.02988196492 -0.04506708026
v -0.01946914494 0.03332733035 -0.04505990982
v -0.01942210436 0.03013405323 -0.04503274441
v -0.01940936923 0.03307190895 -0.04502539515
v -0.01937230468 0.03038992524 -0.04500400543
v -0.01935959995 0.03280908108 -0.04499667048
v -0.01933261514 0.03065063953 -0.04498108506
v -0.01931952059 0.03254035592 -0.04497352481
v -0.01930066466 0.03091691852 -0.04496263504
v -0.01928949058 0.03226870537 -0.04495618343
v -0.01927738488 0.0311866951 -0.04494919538
v -0.01926986933 0.03199708343 -0.04494486094
v -0.01926383972 0.03145779133 -0.04494138122
v -0.01926109493 0.03172801495 -0.04493978977
f 1 2 3
f 1 3 4
f 5 2 1
f 6 2 5
f 7 2 6
f 7 6 8
f 8 6 9
f 9 6 10
f 9 10 11
f 11 10 12
f 12 10 13
f 13 10 14
f 13 14 15
f 15 14 16
f 16 14 17
f 16 17 18
f 18 17 19
f 19 17 20
f 19 20 21
f 4 3 22
f 22 3 23
f 23 3 24
f 23 24 25
f 25 24 26
f 26 24 27
f 27 24 28
f 28 24 29
f 29 24 30
f 29 30 31
f 31 30 32
f 32 30 33
f 33 30 34
f 34 30 35
f 35 30 36
f 35 36 37
f 37 36 38
f 37 38 39
f 37 39 40
f 37 40 41
f 41 40 42
f 41 42 43
f 41 43 44
f 41 44 45
f 45 44 46
f 45 46 47
f 45 47 48
f 45 48 49
f 49 48 50
f 49 50 51
f 49 51 52
f 52 51 53
f 52 53 54
f 52 54 55
f 55 54 56
f 55 56 57
f 55 57 58
f 58 57 59
f 58 59 60
f 58 60 61
f 61 60 62
f 61 62 63
f 61 63 64
f 64 63 65
f 64 65 66
f 64 66 67
f 67 66 68
f 67 68 69
f 67 69 70
f 70 69 71
f 70 71 72
f 70 72 73
f 73 72 74
f 73 74 75
f 75 74 76
f 75 76 77
f 75 77 78
f 78 77 79
f 78 79 80
f 78 80 81
f 81 80 82
f 81 82 83
f 83 82 84
f 83 84 85
f 83 85 86
f 86 85 87
f 86 87 88
f 88 87 89
f 88 89 90
f 88 90 91
f 91 90 92
f 93 91 92
f 93 92 94
f 95 91 93
f 95 96 91
f 97 96 95
f 98 96 97
f 99 96 98
f 100 96 99
f 101 96 100
f 102 96 101
f 102 103 96
f 104 103 102
f 105 103 104
f 105 106 103
f 106 107 103
f 103 107 108
f 106 109 107
f 110 109 106
f 111 109 110
f 112 109 111
f 113 109 112
f 114 109 113
f 114 92 109
f 115 92 114
f 116 92 115
f 117 92 116
f 94 92 117
f 103 108 118
f 118 108 119
f 118 119 120
f 120 119 121
f 120 121 122
f 122 121 123
f 123 121 124
f 124 121 125
f 124 125 126
f 126 125 127
f 126 127 128
f 126 128 129
f 126 129 130
f 126 130 131
f 131 130 132
f 131 132 133
f 131 133 134
f 131 134 135
f 131 135 136
f 137 131 136
f 137 136 138
f 137 139 131
f 140 139 137
f 141 139 140
f 142 139 141
f 143 139 142
f 144 139 143
f 145 139 144
f 146 139 145
f 147 139 146
f 148 139 147
f 148 149 139
f 149 150 139
f 139 150 151
f 149 152 150
f 153 152 149
f 154 152 153
f 154 155 152
f 156 155 154
f 157 155 156
f 157 158 155
f 159 158 157
f 159 160 158
f 161 160 159
f 162 160 161
f 162 163 160
f 164 163 162
f 164 136 163
f 138 136 164
f 139 151 165
f 165 151 166
f 165 166 167
f 165 167 168
f 165 168 169
f 165 169 170
f 165 170 171
f 171 170 172
f 171 172 173
f 171 173 174
f 171 174 175
f 171 175 176
f 171 176 177
f 171 177 178
f 171 178 179
f 171 179 180
f 180 179 181
f 182 180 181
f 182 181 183
f 182 184 180
f 185 184 182
f 186 184 185
f 186 187 184
f 188 187 186
f 189 187 188
f 190 187 189
f 190 191 187
f 192 191 190
f 193 191 192
f 193 194 191
f 195 194 193
f 196 194 195
f 196 197 194
f 197 198 194
f 197 199 198
f 200 199 197
f 200 181 199
f 199 181 201
f 202 181 200
f 203 181 202
f 204 181 203
f 205 181 204
f 206 181 205
f 207 181 206
f 208 181 207
f 183 181 208
f 201 181 209
f 201 209 210
f 210 209 211
f 210 211 212
f 212 211 213
f 212 213 214
f 214 213 215
f 214 215 216
f 216 215 217
f 216 217 218
f 218 217 219
f 218 219 220
f 220 219 221
f 221 219 222
f 221 222 223
f 223 222 224
f 224 222 225
f 224 225 226
f 226 225 227
f 226 227 228
f 228 227 229
f 228 229 230
f 231 232 233
f 234 231 233
f 231 235 232
f 235 236 232
f 235 237 236
f 237 238 236
f 237 239 238
f 239 240 238
f 239 241 240
f 241 242 240
f 241 243 242
f 243 244 242
f 243 245 244
f 245 246 244
f 245 247 246
f 247 248 246
f 247 249 248
f 249 250 248
f 249 251 250
f 251 252 250
f 251 253 252
f 253 254 252
f 253 255 254
f 255 256 254
f 255 257 256
f 257 258 256
f 257 259 258
f 259 260 258
f 259 261 260
f 261 262 260
f 261 263 262
f 263 264 262
f 263 265 264
f 265 266 264
f 265 267 266
f 267 268 266
f 267 269 268
f 269 270 268
f 269 271 270
f 271 272 270
f 271 273 272
f 273 274 272
f 273 275 274
f 275 276 274
f 275 277 276
f 277 278 276
f 277 279 278
f 279 280 278
f 279 281 280
f 281 282 280
f 281 283 282
f 283 284 282
f 283 285 284
f 285 286 284
f 285 287 286
f 287 288 286
f 287 289 288
f 289 290 288
f 289 291 290
f 291 292 290
f 291 293 292
f 293 294 292
f 293 295 294
f 295 296 294
f 295 297 296
f 297 298 296
f 297 299 298
f 299 300 298
f 299 301 300
f 301 302 300
f 301 303 302
f 303 304 302
f 303 305 304
f 305 306 304
f 305 307 306
f 307 308 306
f 307 309 308
f 309 310 308
f 309 311 310
f 311 312 310
f 311 313 312
f 313 314 312
f 313 315 314
f 315 316 314
f 315 317 316
f 317 318 316
f 317 319 318
f 319 320 318
f 319 321 320
f 321 322 320
f 321 323 322
f 323 324 322
f 323 325 324
f 325 326 324
f 325 327 326
f 327 328 326
f 327 329 328
f 329 330 328
f 330 331 328
f 330 332 331
f 332 333 331
f 332 334 333
f 334 335 333
f 334 336 335
f 336 337 335
f 337 338 335
f 337 339 338
f 339 340 338
f 339 341 340
f 341 342 340
f 341 343 342
f 343 344 342
f 343 345 344
f 345 346 344
f 345 347 346
f 345 348 347
f 348 349 347
f 348 350 349
f 348 351 350
f 351 352 350
f 351 353 352
f 351 354 353
f 354 355 353
f 354 356 355
f 356 357 355
f 356 358 357
f 358 359 357
f 358 360 359
f 360 361 359
f 360 362 361
f 362 363 361
f 363 364 361
f 363 365 364
f 365 366 364
f 366 367 364
f 366 368 367
f 368 369 367
f 369 370 367
f 369 371 370
f 371 372 370
f 371 373 372
f 373 374 372
f 373 375 374
f 375 376 374
f 375 377 376
f 377 378 376
f 377 379 378
f 377 380 379
f 380 381 379
f 380 382 381
f 382 383 381
f 382 384 383
f 384 385 383
f 384 386 385
f 384 387 386
f 387 388 386
f 387 389 388
f 389 390 388
f 389 391 390
f 391 392 390
f 391 393 392
f 393 394 392
f 393 395 394
f 395 396 394
f 395 397 396
f 397 398 396
f 397 399 398
f 399 400 398
f 400 401 398
f 400 402 401
f 402 403 401
f 403 404 401
f 403 405 404
f 405 406 404
f 405 407 406
f 407 408 406
f 407 409 408
f 409 410 408
f 409 411 410
f 411 412 410
f 411 413 412
f 413 414 412
f 413 415 414
f 415 416 414
f 415 417 416
f 417 418 416
f 417 419 418
f 419 420 418
f 419 421 420
f 421 422 420
f 421 423 422
f 423 424 422
f 423 425 424
f 425 426 424
f 425 427 426
f 427 428 426
f 427 429 428
f 429 430 428
f 429 431 430
f 431 432 430
f 431 433 432
f 433 434 432
f 433 435 434
f 435 436 434
f 436 437 434
f 436 438 437
f 438 439 437
f 438 440 439
f 440 441 439
f 440 442 441
f 442 443 441
f 442 444 443
f 444 445 443
f 444 446 445
f 446 447 445
f 446 448 447
f 448 449 447
f 448 450 449
f 450 451 449
f 450 452 451
f 452 453 451
f 452 454 453
f 454 455 453
f 454 456 455
f 456 457 455
f 456 458 457
f 458 459 457
f 458 460 459
f 460 461 459
f 460 462 461
f 462 463 461
f 462 464 463
f 464 465 463
f 464 466 465
f 466 467 465
f 466 468 467
f 468 469 467
f 468 470 469
f 470 471 469
f 470 472 471
f 472 473 471
f 472 474 473
f 474 475 473
f 474 476 475
f 476 477 475
f 476 478 477
f 478 479 477
f 478 480 479
f 480 481 479
f 480 482 481
f 482 483 481
f 482 484 483
f 484 485 483
f 484 486 485
f 486 487 485
f 486 488 487
f 488 489 487
f 488 490 489
f 490 491 489
f 490 492 491
f 492 493 491
f 492 494 493
f 494 495 493
f 494 496 495
f 496 497 495
f 496 498 497
f 498 499 497
f 498 500 499
f 500 501 499
f 500 502 501
f 502 503 501
f 502 504 503
f 504 505 503
f 504 506 505
f 506 507 505
f 506 508 507
f 508 509 507
f 508 510 509
f 510 511 509
f 510 512 511
f 512 513 511
f 512 514 513
f 514 515 513
f 516 515 514
f 516 517 515
f 516 518 517
f 518 519 517
f 518 520 519
f 520 521 519
f 520 522 521
f 522 523 521
f 522 524 523
f 524 525 523
f 524 526 525
f 526 527 525
f 526 528 527
f 528 529 527
f 528 530 529
f 530 531 529
f 530 532 531
f 530 533 532
f 533 534 532
f 533 535 534
f 535 536 534
f 535 537 536
f 537 538 536
f 537 539 538
f 539 540 538
f 539 541 540
f 541 542 540
f 541 543 542
f 543 544 542
f 543 545 544
f 545 546 544
f 545 547 546
f 547 548 546
f 547 549 548
f 549 550 548
f 549 551 550
f 551 552 550
f 551 553 552
f 553 554 552
f 553 555 554
f 555 556 554
f 555 557 556
f 557 558 556
f 557 559 558
f 559 560 558
f 559 561 560
f 561 562 560
f 561 563 562
f 563 564 562
f 563 565 564
f 565 566 564
f 565 567 566
f 567 568 566
f 567 569 568
f 569 570 568
f 569 234 570
f 234 571 570
f 234 233 571
f 572 573 574
f 575 572 574
f 576 573 572
f 576 577 573
f 576 578 577
f 578 579 577
f 578 580 579
f 580 581 579
f 580 582 581
f 582 583 581
f 582 584 583
f 584 585 583
f 584 586 585
f 586 587 585
f 586 588 587
f 588 589 587
f 588 590 589
f 590 591 589
f 590 592 591
f 592 593 591
f 592 594 593
f 594 595 593
f 594 596 595
f 596 597 595
f 596 598 597
f 598 599 597
f 598 600 599
f 600 601 599
f 600 602 601
f 602 603 601
f 602 604 603
f 604 605 603
f 604 606 605
f 606 607 605
f 606 608 607
f 608 609 607
f 608 610 609
f 610 611 609
f 610 575 611
f 575 574 611
f 612 613 614
f 615 612 614
f 616 613 612
f 616 617 613
f 616 618 617
f 618 619 617
f 618 620 619
f 620 621 619
f 620 622 621
f 622 623 621
f 622 624 623
f 624 625 623
f 624 626 625
f 626 627 625
f 626 628 627
f 628 629 627
f 628 630 629
f 630 631 629
f 630 632 631
f 632 633 631
f 632 634 633
f 634 635 633
f 634 636 635
f 636 637 635
f 636 638 637
f 638 639 637
f 638 640 639
f 640 641 639
f 640 642 641
f 642 643 641
f 642 644 643
f 644 645 643
f 644 646 645
f 646 647 645
f 646 648 647
f 648 649 647
f 648 650 649
f 650 651 649
f 650 615 651
f 615 614 651
f 652 653 654
f 655 652 654
f 656 653 652
f 656 657 653
f 656 658 657
f 658 659 657
f 658 660 659
f 660 661 659
f 660 662 661
f 662 663 661
f 662 664 663
f 664 665 663
f 664 666 665
f 666 667 665
f 666 668 667
f 668 669 667
f 668 670 669
f 670 671 669
f 670 672 671
f 672 673 671
f 672 674 673
f 674 675 673
f 674 676 675
f 676 677 675
f 676 678 677
f 678 679 677
f 678 680 679
f 680 681 679
f 680 682 681
f 682 683 681
f 682 684 683
f 684 685 683
f 684 686 685
f 686 687 685
f 686 688 687
f 688 689 687
f 688 690 689
f 690 691 689
f 690 655 691
f 655 654 691
f 692 693 694
f 692 694 695
f 696 693 692
f 697 693 696
f 698 693 697
f 698 697 699
f 699 697 700
f 700 697 701
f 701 697 702
f 701 702 703
f 703 702 704
f 704 702 705
f 705 702 706
f 706 702 707
f 706 707 708
f 708 707 709
f 709 707 710
f 710 707 711
f 710 711 712
f 712 711 713
f 713 711 714
f 713 714 715
f 715 714 716
f 715 716 717
f 715 717 718
f 715 718 719
f 719 718 720
f 719 720 721
f 719 721 722
f 719 722 723
f 723 722 724
f 723 724 725
f 723 725 726
f 726 725 727
f 726 727 728
f 726 728 729
f 695 694 730
f 730 694 731
f 731 694 732
f 731 732 733
f 733 732 734
f 734 732 735
f 735 732 736
f 735 736 737
f 737 736 738
f 738 736 739
f 738 739 740
f 740 739 741
f 741 739 742
f 741 742 743
f 743 742 744
f 744 742 745
f 744 745 746
f 746 745 747
f 747 745 748
f 747 748 749
f 749 748 750
f 750 748 751
f 750 751 752
f 752 751 753
f 753 751 754
f 753 754 755
f 755 754 756
f 756 754 757
f 756 757 758
f 758 757 759
f 759 757 760
f 759 760 761
f 761 760 762
f 761 762 763
f 763 762 764
f 764 762 765
f 764 765 766
f 766 765 767
f 767 765 768
f 767 768 769
f 769 768 770
f 769 770 771
f 771 770 772
f 772 770 773
f 772 773 774
f 774 773 775
f 774 775 776
f 776 775 777
f 777 775 778
f 777 778 779
f 779 778 780
f 779 780 781
f 782 781 780
f 782 780 783
f 782 784 781
f 785 784 782
f 786 784 785
f 787 784 786
f 788 784 787
f 789 784 788
f 790 784 789
f 790 791 784
f 792 791 790
f 793 791 792
f 794 791 793
f 794 795 791
f 795 796 791
f 791 796 797
f 795 798 796
f 799 798 795
f 800 798 799
f 801 798 800
f 802 798 801
f 802 780 798
f 803 780 802
f 804 780 803
f 805 780 804
f 806 780 805
f 783 780 806
f 797 796 807
f 797 807 808
f 808 807 809
f 809 807 810
f 809 810 811
f 811 810 812
f 811 812 813
f 811 813 814
f 811 814 815
f 815 814 816
f 816 814 817
f 817 814 818
f 818 814 819
f 818 819 820
f 820 819 821
f 821 819 822
f 822 819 823
f 823 819 824
f 824 819 825
f 824 825 826
f 827 826 825
f 827 825 828
f 827 829 826
f 830 829 827
f 831 829 830
f 832 829 831
f 833 829 832
f 833 834 829
f 835 834 833
f 836 834 835
f 836 837 834
f 838 837 836
f 839 837 838
f 840 837 839
f 840 841 837
f 841 842 837
f 841 843 842
f 842 843 844
f 841 825 843
f 845 825 841
f 846 825 845
f 847 825 846
f 848 825 847
f 849 825 848
f 850 825 849
f 851 825 850
f 852 825 851
f 828 825 852
f 844 843 853
f 853 843 854
f 854 843 855
f 855 843 856
f 856 843 857
f 857 843 858
f 858 843 859
f 858 859 860
f 860 859 861
f 861 859 862
f 862 859 863
f 863 859 864
f 864 859 865
f 865 859 866
f 866 859 867
f 866 867 868
f 868 867 869
f 869 867 870
f 871 869 870
f 871 870 872
f 873 869 871
f 873 874 869
f 875 874 873
f 876 874 875
f 877 874 876
f 878 874 877
f 879 874 878
f 880 874 879
f 881 874 880
f 882 874 881
f 882 883 874
f 883 884 874
f 874 884 885
f 883 886 884
f 887 886 883
f 888 886 887
f 888 889 886
f 890 889 888
f 891 889 890
f 892 889 891
f 892 893 889
f 894 893 892
f 895 893 894
f 895 896 893
f 897 896 895
f 872 896 897
f 872 870 896
f 874 885 898
f 874 898 899
f 874 899 900
f 874 900 901
f 901 900 902
f 901 902 903
f 903 902 904
f 903 904 905
f 905 904 906
f 905 906 907
f 907 906 908
f 907 908 909
f 909 908 910
f 909 910 911
f 911 910 912
f 911 912 913
f 913 912 914
f 913 914 915
f 915 914 916
f 915 916 917
f 917 916 918
f 917 918 919
f 919 918 920
f 919 920 921
f 921 920 922
