1310 1392 0
v -0.05061753 0.041136555 0.05651685
v -0.051527835 0.041136555 0.054940155
v -0.051462285 0.04133256 0.0548709
v -0.050721825 0.040961445 0.056499525
v -0.050524785 0.04133256 0.056494695
v -0.051369525 0.041528565 0.054848745
v -0.05045922 0.041528565 0.056425455
v -0.051265245 0.041703675 0.05486607
v -0.05042208 0.041703675 0.05632647
v -0.051147105 0.04186029 0.05492463
v -0.050413725 0.04186029 0.056194875
v -0.05101626 0.041997225 0.055023555
v -0.050433975 0.041997225 0.05603211
v -0.050889015 0.04209699 0.055150905
v -0.05048064 0.04209699 0.05585823
v -0.05076324 0.042159705 0.055310265
v -0.05055576 0.042159705 0.055669635
v -0.05065041 0.04218222 0.0554847
v -0.051564975 0.040961445 0.055039125
v -0.050839965 0.04080483 0.056440965
v -0.05157333 0.04080483 0.05517072
v -0.050970795 0.040667895 0.05634204
v -0.051553095 0.040667895 0.0553335
v -0.051098055 0.04056813 0.05621469
v -0.05150643 0.04056813 0.055507365
v -0.05122383 0.0405054 0.056055345
v -0.05143131 0.0405054 0.05569596
v -0.05133666 0.0404829 0.05588091
v -0.046837875 0.03884256 0.052201005
v -0.051462285 0.04133256 0.0548709
v -0.051527835 0.041136555 0.054940155
v -0.04679496 0.03901548 0.05219496
v -0.0460794 0.03843417 0.051763095
v -0.038007915 0.034088115 0.047103015
v -0.03724944 0.03367971 0.046665105
v -0.037965 0.03426102 0.047096985
v -0.03421188 0.043653255 0.04497978
v -0.046004055 0.038549865 0.051731565
v -0.041861265 0.04891395 0.04932099
v -0.045903 0.038652 0.05170836
v -0.037934475 0.03443955 0.04713381
v -0.045776145 0.038735265 0.051691005
v -0.03792087 0.034619355 0.04721253
v -0.045633135 0.038809995 0.05168721
v -0.03789732 0.034786695 0.047318115
v -0.045476775 0.03887586 0.05170038
v -0.037868085 0.034936725 0.04745049
v -0.04531563 0.038935305 0.05173845
v -0.045152865 0.038983575 0.051803895
v -0.03782181 0.03505767 0.04760112
v -0.045003915 0.03902031 0.0519033
v -0.03775521 0.035138565 0.04776006
v -0.044874585 0.039039495 0.052034745
v -0.03767259 0.03517641 0.04792374
v -0.044781675 0.039040785 0.052194105
v -0.03757833 0.03516825 0.048084
v -0.044727315 0.039022095 0.05237151
v -0.03747333 0.035112705 0.0482313
v -0.044711895 0.038986185 0.052548765
v -0.037367475 0.035016345 0.048361275
v -0.044735025 0.038939325 0.05272377
v -0.037264545 0.0348858 0.04846776
v -0.04479573 0.03887133 0.052913475
v -0.037173915 0.03473256 0.048551595
v -0.044875485 0.038785995 0.053079525
v -0.037100895 0.034568865 0.048612345
v -0.044972895 0.03869058 0.05322027
v -0.0370536 0.03440223 0.048658065
v -0.04506183 0.038571465 0.05332332
v -0.03704559 0.03424113 0.0486978
v -0.037070415 0.034088115 0.04872681
v -0.03321963 0.04359336 0.04650951
v -0.0451419 0.03843417 0.05338689
v -0.023537115 0.026558775 0.04088391
v -0.040865385 0.04885836 0.050849205
v -0.040962195 0.04895469 0.051023355
v -0.045256365 0.038515995 0.053539575
v -0.041093865 0.04905984 0.051168135
v -0.045389445 0.038597745 0.05365971
v -0.041254575 0.04916826 0.051276705
v -0.04554114 0.03867942 0.053747295
v -0.041436945 0.04927584 0.05134407
v -0.04571145 0.038761035 0.053802315
v -0.041632125 0.04937661 0.051367425
v -0.045900375 0.03884256 0.0538248
v -0.04587555 0.03899559 0.053795775
v -0.05045922 0.041528565 0.056425455
v -0.04588356 0.03915669 0.053756055
v -0.04183128 0.049467045 0.05134626
v -0.045930855 0.039323325 0.05371032
v -0.046003875 0.03948702 0.05364957
v -0.0420273 0.049543395 0.05128167
v -0.046094505 0.03964026 0.053565735
v -0.04221144 0.049602735 0.05117607
v -0.046197435 0.03977079 0.05345925
v -0.04630329 0.039867165 0.053329275
v -0.042375645 0.04964217 0.05103387
v -0.04640829 0.03992271 0.05318199
v -0.042512625 0.04965996 0.050860905
v -0.04650255 0.03993087 0.05302173
v -0.042615705 0.049655325 0.050665365
v -0.04658517 0.039893025 0.052858035
v -0.042680415 0.049628505 0.05045628
v -0.04665177 0.03981213 0.052699095
v -0.046698045 0.039691185 0.05254848
v -0.04270434 0.04958064 0.05024271
v -0.04672728 0.039541155 0.05241609
v -0.04268688 0.049514115 0.05003481
v -0.04675083 0.039373815 0.052310505
v -0.04676445 0.039193995 0.0522318
v -0.042628455 0.04943178 0.049839315
v -0.042531285 0.049336215 0.04966494
v -0.04672341 0.038760735 0.052048305
v -0.042399315 0.04923162 0.04951998
v -0.04659033 0.038678985 0.051928185
v -0.0422385 0.049123275 0.049411395
v -0.046438635 0.03859731 0.0518406
v -0.042056205 0.049015365 0.049344135
v -0.046268325 0.038515695 0.051785565
v -0.050524785 0.04133256 0.056494695
v -0.05042208 0.041703675 0.05632647
v -0.050413725 0.04186029 0.056194875
v -0.050433975 0.041997225 0.05603211
v -0.05048064 0.04209699 0.05585823
v -0.05055576 0.042159705 0.055669635
v -0.05065041 0.04218222 0.0554847
v -0.05076324 0.042159705 0.055310265
v -0.050889015 0.04209699 0.055150905
v -0.05101626 0.041997225 0.055023555
v -0.051147105 0.04186029 0.05492463
v -0.051265245 0.041703675 0.05486607
v -0.051369525 0.041528565 0.054848745
v -0.05061753 0.041136555 0.05651685
v -0.02364153 0.026383575 0.040866435
v -0.050721825 0.040961445 0.056499525
v -0.02376258 0.02622297 0.04080657
v -0.050839965 0.04080483 0.056440965
v -0.02389098 0.02608794 0.04071009
v -0.050970795 0.040667895 0.05634204
v -0.02402064 0.025987425 0.040579245
v -0.051098055 0.04056813 0.05621469
v -0.0241452 0.02592387 0.040422795
v -0.05122383 0.0405054 0.056055345
v -0.02425779 0.025903365 0.040246905
v -0.05133666 0.0404829 0.05588091
v -0.024353805 0.02592387 0.04006146
v -0.05143131 0.0405054 0.05569596
v -0.024427035 0.025987425 0.03987537
v -0.05150643 0.04056813 0.055507365
v -0.0244755 0.02608794 0.039697665
v -0.051553095 0.040667895 0.0553335
v -0.02449485 0.02622297 0.039538215
v -0.05157333 0.04080483 0.05517072
v -0.02448618 0.026383575 0.039403455
v -0.051564975 0.040961445 0.055039125
v -0.0244491 0.026558775 0.03930429
v -0.02438373 0.02675223 0.03923709
v -0.02429286 0.026945685 0.03921408
v -0.037174095 0.033795405 0.04663359
v -0.0334647 0.043081005 0.04447425
v -0.03707304 0.03389754 0.04661037
v -0.02418843 0.027120885 0.03923154
v -0.03694617 0.033980805 0.046593015
v -0.036803175 0.034055535 0.046589235
v -0.024067395 0.02728149 0.03929142
v -0.036646815 0.0341214 0.04660239
v -0.02393898 0.02741652 0.0393879
v -0.03648567 0.03418086 0.046640475
v -0.02380932 0.027517035 0.03951873
v -0.03632289 0.034229115 0.046705905
v -0.036173955 0.034265865 0.04680531
v -0.02368476 0.02758059 0.039675195
v -0.036044625 0.034285035 0.04693677
v -0.023572185 0.027601095 0.03985107
v -0.035951715 0.03428634 0.04709613
v -0.023476155 0.02758059 0.040036515
v -0.035897355 0.034267635 0.04727352
v -0.02340294 0.027517035 0.04022262
v -0.035881935 0.034231725 0.047450775
v -0.02335446 0.02741652 0.040400325
v -0.035905065 0.034184865 0.047625795
v -0.035965755 0.034116885 0.0478155
v -0.02333511 0.02728149 0.04055976
v -0.036045525 0.034031535 0.047981535
v -0.02334378 0.027120885 0.040694535
v -0.03614292 0.03393612 0.04812228
v -0.02338086 0.026945685 0.040793685
v -0.03623187 0.033817005 0.04822533
v -0.02344623 0.02675223 0.040860885
v -0.03631194 0.03367971 0.0482889
v -0.03247299 0.04302075 0.046004055
v -0.032565975 0.04312713 0.04617603
v -0.036426405 0.033761535 0.0484416
v -0.03269349 0.043243395 0.04631835
v -0.036559485 0.033843285 0.048561735
v -0.03285009 0.043363125 0.04642431
v -0.03671118 0.03392496 0.048649305
v -0.033028335 0.04348218 0.046488885
v -0.03688149 0.034006575 0.04870434
v -0.03241827 0.042928965 0.045810615
v -0.032404125 0.042854115 0.04560453
v -0.03243036 0.0428004 0.045392745
v -0.03249615 0.042770325 0.0451848
v -0.03259905 0.04276509 0.044989665
v -0.03273468 0.04278486 0.044816355
v -0.0328965 0.04282881 0.044672985
v -0.033077355 0.042895125 0.04456542
v -0.03326967 0.04298013 0.04449834
v -0.037438365 0.03376125 0.04668759
v -0.03365577 0.043192845 0.044494635
v -0.037608675 0.03384285 0.04674261
v -0.03383397 0.043312245 0.044559105
v -0.03776037 0.03392454 0.046830195
v -0.03399069 0.043431915 0.04466508
v -0.03789345 0.03400629 0.04695033
v -0.03411852 0.043547655 0.04480758
v -0.04080735 0.04877508 0.05065395
v -0.040790325 0.048707445 0.050446305
v -0.040814595 0.04865871 0.050232975
v -0.040879485 0.04863141 0.05002404
v -0.04098255 0.048626715 0.04982853
v -0.041119365 0.04864482 0.04965549
v -0.04128324 0.048684915 0.04951314
v -0.04146693 0.04874523 0.049407285
v -0.04166253 0.04882254 0.049342425
v -0.03341508 0.043693275 0.04648572
v -0.03360783 0.043777335 0.04641891
v -0.033789135 0.043842705 0.046311615
v -0.0339513 0.04388601 0.04616841
v -0.034087125 0.043905465 0.04599516
v -0.034190055 0.043900305 0.04579998
v -0.03425568 0.04387071 0.04559187
v -0.034281585 0.043817865 0.04537983
v -0.03426699 0.043744125 0.045173475
v -0.03789345 0.03400629 0.04695033
v -0.038007915 0.034088115 0.047103015
v -0.03724944 0.03367971 0.046665105
v -0.03776037 0.03392454 0.046830195
v -0.037608675 0.03384285 0.04674261
v -0.037438365 0.03376125 0.04668759
v -0.04672341 0.038760735 0.052048305
v -0.046837875 0.03884256 0.052201005
v -0.0460794 0.03843417 0.051763095
v -0.04659033 0.038678985 0.051928185
v -0.046438635 0.03859731 0.0518406
v -0.046268325 0.038515695 0.051785565
v -0.045256365 0.038515995 0.053539575
v -0.0451419 0.03843417 0.05338689
v -0.045900375 0.03884256 0.0538248
v -0.045389445 0.038597745 0.05365971
v -0.04554114 0.03867942 0.053747295
v -0.04571145 0.038761035 0.053802315
v -0.036426405 0.033761535 0.0484416
v -0.03631194 0.03367971 0.0482889
v -0.037070415 0.034088115 0.04872681
v -0.036559485 0.033843285 0.048561735
v -0.03671118 0.03392496 0.048649305
v -0.03688149 0.034006575 0.04870434
v -0.025068615 0.02041329 0.04396263
v -0.02344623 0.02675223 0.040860885
v -0.02338086 0.026945685 0.040793685
v -0.023537115 0.026558775 0.04088391
v -0.022012245 0.027981675 0.042198045
v -0.02334378 0.027120885 0.040694535
v -0.02333511 0.02728149 0.04055976
v -0.02335446 0.02741652 0.040400325
v -0.02340294 0.027517035 0.04022262
v -0.023476155 0.02758059 0.040036515
v -0.024824745 0.027981675 0.037326645
v -0.023572185 0.027601095 0.03985107
v -0.02469945 0.028270365 0.037254315
v -0.02188695 0.028270365 0.0421257
v -0.0245838 0.028557405 0.037187535
v -0.0217713 0.028557405 0.042058935
v -0.024477795 0.02884275 0.037126335
v -0.021665295 0.02884275 0.04199772
v -0.024381405 0.02912643 0.037070685
v -0.021568905 0.02912643 0.041942085
v -0.02429466 0.029408445 0.0370206
v -0.02148216 0.029408445 0.041892
v -0.024217545 0.02968878 0.03697608
v -0.021405045 0.02968878 0.041847465
v -0.024149985 0.02996769 0.036937065
v -0.021337485 0.02996769 0.041808465
v -0.02409177 0.030245715 0.036903465
v -0.02127927 0.030245715 0.041774865
v -0.024043125 0.03052233 0.03687537
v -0.021230625 0.03052233 0.04174677
v -0.024004215 0.03079695 0.036852915
v -0.021191715 0.03079695 0.0417243
v -0.02397525 0.031068975 0.03683619
v -0.02116275 0.031068975 0.04170759
v -0.023956455 0.031337775 0.036825345
v -0.021143955 0.031337775 0.04169673
v -0.02394801 0.03160284 0.03682047
v -0.02113551 0.03160284 0.041691855
v -0.023950035 0.03186465 0.03682164
v -0.021137535 0.03186465 0.041693025
v -0.02398461 0.032379375 0.03684159
v -0.02117211 0.032379375 0.04171299
v -0.02405826 0.032882625 0.036884115
v -0.02124576 0.032882625 0.0417555
v -0.024169065 0.03337479 0.03694809
v -0.021356565 0.03337479 0.04181949
v -0.02431683 0.033855705 0.03703341
v -0.02150433 0.033855705 0.041904795
v -0.024503985 0.03432543 0.037141455
v -0.021691485 0.03432543 0.042012855
v -0.024613155 0.03455613 0.037204485
v -0.021800655 0.03455613 0.042075885
v -0.02473314 0.03478428 0.037273755
v -0.02192064 0.03478428 0.042145155
v -0.02486388 0.03501036 0.03734925
v -0.02205138 0.03501036 0.042220635
v -0.02500503 0.035233905 0.037430745
v -0.02219253 0.035233905 0.04230213
v -0.02515623 0.03545436 0.03751803
v -0.02234373 0.03545436 0.04238943
v -0.02531712 0.035671215 0.037610925
v -0.02250462 0.035671215 0.04248231
v -0.02548734 0.03588393 0.03770919
v -0.02267484 0.03588393 0.04258059
v -0.02566656 0.036092055 0.037812675
v -0.02285406 0.036092055 0.04268406
v -0.02585511 0.03629607 0.03792153
v -0.02304261 0.03629607 0.04279293
v -0.026053155 0.036496185 0.038035875
v -0.023240655 0.036496185 0.04290726
v -0.026260695 0.0366924 0.038155695
v -0.023448195 0.0366924 0.04302708
v -0.0264777 0.036884715 0.03828099
v -0.0236652 0.036884715 0.043152375
v -0.0267042 0.03707313 0.03841176
v -0.0238917 0.03707313 0.043283145
v -0.026940195 0.03725766 0.038548005
v -0.024127695 0.03725766 0.04341939
v -0.02801124 0.03813144 0.03916638
v -0.02519874 0.03813144 0.044037765
v -0.029085195 0.0389946 0.03978642
v -0.026272695 0.0389946 0.044657805
v -0.03016206 0.03984717 0.04040814
v -0.02734956 0.03984717 0.04527954
v -0.03124182 0.04068912 0.04103154
v -0.02842932 0.04068912 0.04590294
v -0.03232449 0.04152048 0.041656635
v -0.02951199 0.04152048 0.04652802
v -0.03341007 0.04234122 0.042283395
v -0.03059757 0.04234122 0.04715478
v -0.03273468 0.04278486 0.044816355
v -0.03449856 0.043151355 0.042911835
v -0.03259905 0.04276509 0.044989665
v -0.03249615 0.042770325 0.0451848
v -0.03243036 0.0428004 0.045392745
v -0.032404125 0.042854115 0.04560453
v -0.03241827 0.042928965 0.045810615
v -0.03247299 0.04302075 0.046004055
v -0.032565975 0.04312713 0.04617603
v -0.03168606 0.043151355 0.04778322
v -0.03269349 0.043243395 0.04631835
v -0.03285009 0.043363125 0.04642431
v -0.033028335 0.04348218 0.046488885
v -0.03321963 0.04359336 0.04650951
v -0.03341508 0.043693275 0.04648572
v -0.03360783 0.043777335 0.04641891
v -0.033789135 0.043842705 0.046311615
v -0.032777445 0.043950885 0.04841334
v -0.0339513 0.04388601 0.04616841
v -0.034087125 0.043905465 0.04599516
v -0.035589945 0.043950885 0.04354194
v -0.034190055 0.043900305 0.04579998
v -0.036684255 0.04473981 0.04417374
v -0.033871755 0.04473981 0.049045125
v -0.03778146 0.04551813 0.044807205
v -0.03496896 0.04551813 0.049678605
v -0.03888162 0.04628583 0.04544238
v -0.03606912 0.04628583 0.05031378
v -0.03998517 0.047043 0.04607952
v -0.03717267 0.047043 0.05095092
v -0.041092095 0.04778961 0.046718595
v -0.038279595 0.04778961 0.051589995
v -0.04220217 0.048525645 0.0473595
v -0.03938967 0.048525645 0.0522309
v -0.04098255 0.048626715 0.04982853
v -0.041119365 0.04864482 0.04965549
v -0.040879485 0.04863141 0.05002404
v -0.040814595 0.04865871 0.050232975
v -0.040790325 0.048707445 0.050446305
v -0.04080735 0.04877508 0.05065395
v -0.040865385 0.04885836 0.050849205
v -0.040962195 0.04895469 0.051023355
v -0.041093865 0.04905984 0.051168135
v -0.041254575 0.04916826 0.051276705
v -0.0405027 0.04925109 0.052873515
v -0.041436945 0.04927584 0.05134407
v -0.041632125 0.04937661 0.051367425
v -0.04183128 0.049467045 0.05134626
v -0.0420273 0.049543395 0.05128167
v -0.04221144 0.049602735 0.05117607
v -0.042375645 0.04964217 0.05103387
v -0.041618475 0.049965885 0.053517705
v -0.044430975 0.049965885 0.04864632
v -0.042512625 0.04965996 0.050860905
v -0.0455493 0.050670045 0.04929198
v -0.0427368 0.050670045 0.054163365
v -0.04666995 0.05136354 0.049938975
v -0.04385745 0.05136354 0.054810375
v -0.04779273 0.052046325 0.050587215
v -0.04498023 0.052046325 0.055458615
v -0.048917415 0.052718385 0.051236565
v -0.046104915 0.052718385 0.05610795
v -0.050043825 0.053379705 0.05188689
v -0.047231325 0.053379705 0.056758275
v -0.0511719 0.05403027 0.05253819
v -0.0483594 0.05403027 0.057409575
v -0.05230212 0.054670155 0.05319072
v -0.04948962 0.054670155 0.058062105
v -0.0534345 0.05529933 0.053844495
v -0.050622 0.05529933 0.058715895
v -0.05456907 0.055917825 0.054499545
v -0.05175657 0.055917825 0.05937093
v -0.0557058 0.05652561 0.055155825
v -0.0528933 0.05652561 0.060027225
v -0.05684469 0.05712273 0.055813365
v -0.05403219 0.05712273 0.060684765
v -0.05798577 0.05770914 0.05647218
v -0.05517327 0.05770914 0.061343565
v -0.05912901 0.058284855 0.057132225
v -0.05631651 0.058284855 0.06200361
v -0.060274425 0.05884989 0.05779353
v -0.057461925 0.05884989 0.062664915
v -0.061422 0.059404215 0.05845608
v -0.0586095 0.059404215 0.06332748
v -0.062571765 0.05994786 0.059119905
v -0.059759265 0.05994786 0.06399129
v -0.062674695 0.059998815 0.05917932
v -0.059862195 0.059998815 0.06405072
v -0.06277632 0.06004491 0.059238
v -0.059963805 0.06004491 0.064109385
v -0.06287661 0.060086145 0.0592959
v -0.06006411 0.060086145 0.0641673
v -0.06297561 0.060122505 0.059353065
v -0.06016311 0.060122505 0.06422445
v -0.0630735 0.060154395 0.059409585
v -0.060261 0.060154395 0.06428097
v -0.06317022 0.060181695 0.059465415
v -0.06035772 0.060181695 0.064336815
v -0.06326535 0.060203625 0.059520345
v -0.06045285 0.060203625 0.06439173
v -0.06335844 0.060219435 0.05957409
v -0.06054594 0.060219435 0.064445475
v -0.06345018 0.06023004 0.059627055
v -0.06063768 0.06023004 0.064498455
v -0.063540555 0.06023544 0.059679225
v -0.060728055 0.06023544 0.064550625
v -0.063628035 0.060233655 0.05972973
v -0.060815535 0.060233655 0.06460113
v -0.063711135 0.060222675 0.059777715
v -0.060898635 0.060222675 0.0646491
v -0.06379095 0.060201795 0.059823795
v -0.06097845 0.060201795 0.064695195
v -0.06386781 0.06017211 0.059868165
v -0.06105531 0.06017211 0.064739565
v -0.063938955 0.060134445 0.05990925
v -0.061126455 0.060134445 0.064780635
v -0.06400167 0.06008958 0.05994546
v -0.06118917 0.06008958 0.06481686
v -0.064101675 0.05997621 0.060003195
v -0.061289175 0.05997621 0.06487458
v -0.06417198 0.0598371 0.060043785
v -0.06135948 0.0598371 0.064915185
v -0.06419583 0.059759445 0.060057555
v -0.06138333 0.059759445 0.064928955
v -0.064212075 0.0596757 0.06006693
v -0.061399575 0.0596757 0.06493833
v -0.064221555 0.059587905 0.060072405
v -0.061409055 0.059587905 0.064943805
v -0.06422511 0.059498115 0.06007446
v -0.06141261 0.059498115 0.064945845
v -0.06422217 0.05940618 0.060072765
v -0.06140967 0.05940618 0.06494415
v -0.06421257 0.05931126 0.060067215
v -0.06140007 0.05931126 0.064938615
v -0.064197705 0.05921427 0.060058635
v -0.061385205 0.05921427 0.06493002
v -0.06417894 0.059116125 0.060047805
v -0.06136644 0.059116125 0.064919205
v -0.064156335 0.059016825 0.060034755
v -0.061343835 0.059016825 0.06490614
v -0.064129245 0.05891598 0.06001911
v -0.061316745 0.05891598 0.06489051
v -0.064098105 0.058813875 0.060001125
v -0.061285605 0.058813875 0.064872525
v -0.064063335 0.05871081 0.059981055
v -0.061250835 0.05871081 0.064852455
v -0.06402501 0.058606845 0.05995893
v -0.06121251 0.058606845 0.064830315
v -0.06398292 0.058501815 0.05993463
v -0.06117042 0.058501815 0.06480603
v -0.06393705 0.05839572 0.059908155
v -0.06112455 0.05839572 0.06477954
v -0.063887415 0.058288575 0.05987949
v -0.061074915 0.058288575 0.06475089
v -0.063559365 0.057554835 0.0596901
v -0.060746865 0.057554835 0.064561485
v -0.06321948 0.056820075 0.059493855
v -0.06040698 0.056820075 0.064365255
v -0.062867745 0.05608431 0.059290785
v -0.060055245 0.05608431 0.06416217
v -0.06250416 0.055347525 0.05908086
v -0.05969166 0.055347525 0.06395226
v -0.062128725 0.054609735 0.05886411
v -0.059316225 0.054609735 0.06373551
v -0.061741455 0.05387094 0.05864052
v -0.058928955 0.05387094 0.06351192
v -0.061342335 0.05313114 0.05841009
v -0.05852985 0.05313114 0.06328149
v -0.06093138 0.05239032 0.058172835
v -0.058118895 0.05239032 0.06304422
v -0.06050859 0.051648495 0.057928725
v -0.05769609 0.051648495 0.062800125
v -0.06007395 0.050905665 0.057677775
v -0.057261435 0.050905665 0.062549175
v -0.059627445 0.050161815 0.05742
v -0.056814945 0.050161815 0.0622914
v -0.059169105 0.049417005 0.05715537
v -0.056356605 0.049417005 0.06202677
v -0.058698765 0.04867146 0.056883825
v -0.055886265 0.04867146 0.06175521
v -0.058216485 0.047925135 0.05660538
v -0.055403985 0.047925135 0.06147678
v -0.05772231 0.04717794 0.056320065
v -0.05490981 0.04717794 0.061191465
v -0.05721627 0.04642977 0.056027895
v -0.05440377 0.04642977 0.060899295
v -0.05669841 0.04568052 0.055728915
v -0.05388591 0.04568052 0.0606003
v -0.05616879 0.0449301 0.05542314
v -0.05335629 0.0449301 0.060294525
v -0.05562744 0.044178405 0.055110585
v -0.05281494 0.044178405 0.059981985
v -0.05507442 0.04342533 0.05479131
v -0.05226192 0.04342533 0.059662695
v -0.054509775 0.0426708 0.0544653
v -0.051697275 0.0426708 0.0593367
v -0.053933535 0.041914695 0.054132615
v -0.051121035 0.041914695 0.059004015
v -0.053345775 0.04115691 0.05379327
v -0.050533275 0.04115691 0.05866467
v -0.052745265 0.040398015 0.05344656
v -0.049932765 0.040398015 0.05831796
v -0.05213121 0.0396384 0.053092035
v -0.04931871 0.0396384 0.057963435
v -0.051504285 0.038877855 0.052730085
v -0.048691785 0.038877855 0.057601485
v -0.05086515 0.038116125 0.052361085
v -0.04805265 0.038116125 0.05723247
v -0.050214435 0.03735297 0.051985395
v -0.047401935 0.03735297 0.05685678
v -0.049552845 0.036588135 0.05160342
v -0.046740345 0.036588135 0.05647482
v -0.04888101 0.03582138 0.051215535
v -0.04606851 0.03582138 0.056086935
v -0.04819959 0.03505248 0.05082213
v -0.04538709 0.03505248 0.055693515
v -0.04750926 0.03428118 0.050423565
v -0.04469676 0.03428118 0.05529495
v -0.04681068 0.033507225 0.05002023
v -0.04399818 0.033507225 0.05489163
v -0.046104495 0.03273039 0.049612515
v -0.043291995 0.03273039 0.054483915
v -0.04539105 0.03195054 0.049200615
v -0.04257855 0.03195054 0.054072
v -0.044668755 0.03116826 0.0487836
v -0.041856255 0.03116826 0.053654985
v -0.04393734 0.03038367 0.048361305
v -0.04112484 0.03038367 0.053232705
v -0.04319679 0.029596755 0.047933745
v -0.04038429 0.029596755 0.052805145
v -0.04244709 0.028807515 0.04750092
v -0.03963459 0.028807515 0.052372305
v -0.041688255 0.02801595 0.0470628
v -0.038875755 0.02801595 0.0519342
v -0.040920285 0.027222075 0.046619415
v -0.038107785 0.027222075 0.0514908
v -0.04014318 0.026425875 0.04617075
v -0.03733068 0.026425875 0.05104215
v -0.03935694 0.025627365 0.04571682
v -0.03654444 0.025627365 0.050588205
v -0.038561565 0.02482653 0.04525761
v -0.035749065 0.02482653 0.050128995
v -0.03775704 0.02402337 0.044793105
v -0.03494454 0.02402337 0.049664505
v -0.036943395 0.023217885 0.04432335
v -0.034130895 0.023217885 0.049194735
v -0.032969085 0.01918212 0.042028785
v -0.030156585 0.01918212 0.04690017
v -0.032815155 0.01901475 0.04193991
v -0.030002655 0.01901475 0.04681131
v -0.032659935 0.01885872 0.0418503
v -0.029847435 0.01885872 0.046721685
v -0.03250341 0.018714015 0.041759925
v -0.02969091 0.018714015 0.046631325
v -0.032345595 0.01858065 0.041668815
v -0.029533095 0.01858065 0.0465402
v -0.03218646 0.018458625 0.04157694
v -0.02937396 0.018458625 0.046448325
v -0.032026035 0.01834794 0.041484315
v -0.029213535 0.01834794 0.046355715
v -0.031863135 0.018248325 0.041390265
v -0.029050635 0.018248325 0.04626165
v -0.03169752 0.018159705 0.04129464
v -0.02888502 0.018159705 0.04616604
v -0.0315306 0.018082425 0.04119828
v -0.0287181 0.018082425 0.046069665
v -0.0313638 0.018016815 0.041101965
v -0.0285513 0.018016815 0.045973365
v -0.031198515 0.017963205 0.04100655
v -0.028386015 0.017963205 0.045877935
v -0.03103617 0.01792194 0.040912815
v -0.02822367 0.01792194 0.045784215
v -0.030876525 0.017893065 0.04082064
v -0.028064025 0.017893065 0.04569204
v -0.03071841 0.01787634 0.04072935
v -0.02790591 0.01787634 0.04560075
v -0.03040674 0.01787877 0.04054941
v -0.02759424 0.01787877 0.04542081
v -0.03010122 0.01792809 0.040373025
v -0.02728872 0.01792809 0.04524441
v -0.029950125 0.017970075 0.040285785
v -0.027137625 0.017970075 0.045157185
v -0.029799795 0.0180237 0.040198995
v -0.026987295 0.0180237 0.045070395
v -0.029650995 0.018089025 0.04011309
v -0.026838495 0.018089025 0.044984475
v -0.02950452 0.0181662 0.04002852
v -0.02669202 0.0181662 0.044899905
v -0.02936112 0.0182553 0.039945735
v -0.02654862 0.0182553 0.04481712
v -0.029221605 0.018356445 0.03986517
v -0.026409105 0.018356445 0.04473657
v -0.029084835 0.01847064 0.03978621
v -0.026272335 0.01847064 0.04465761
v -0.02894997 0.01859799 0.039708345
v -0.02613747 0.01859799 0.044579745
v -0.028818195 0.018737295 0.039632265
v -0.026005695 0.018737295 0.044503665
v -0.028690695 0.01888728 0.03955866
v -0.025878195 0.01888728 0.044430045
v -0.028568655 0.019046745 0.03948819
v -0.025756155 0.019046745 0.04435959
v -0.02845323 0.019214445 0.03942156
v -0.02564073 0.019214445 0.044292945
v -0.028344255 0.019390575 0.039358635
v -0.025531755 0.019390575 0.044230035
v -0.028240725 0.019576185 0.03929886
v -0.025428225 0.019576185 0.04417026
v -0.02814264 0.01977126 0.039242235
v -0.02533014 0.01977126 0.044113635
v -0.028050015 0.0199758 0.03918876
v -0.025237515 0.0199758 0.044060145
v -0.027962835 0.02018982 0.03913842
v -0.025150335 0.02018982 0.04400982
v -0.027881115 0.02041329 0.039091245
v -0.0244755 0.02608794 0.039697665
v -0.02449485 0.02622297 0.039538215
v -0.024427035 0.025987425 0.03987537
v -0.024353805 0.02592387 0.04006146
v -0.02425779 0.025903365 0.040246905
v -0.0241452 0.02592387 0.040422795
v -0.02402064 0.025987425 0.040579245
v -0.02389098 0.02608794 0.04071009
v -0.02376258 0.02622297 0.04080657
v -0.02364153 0.026383575 0.040866435
v -0.02448618 0.026383575 0.039403455
v -0.0244491 0.026558775 0.03930429
v -0.02438373 0.02675223 0.03923709
v -0.02429286 0.026945685 0.03921408
v -0.02418843 0.027120885 0.03923154
v -0.024067395 0.02728149 0.03929142
v -0.02393898 0.02741652 0.0393879
v -0.02380932 0.027517035 0.03951873
v -0.02368476 0.02758059 0.039675195
v -0.042615705 0.049655325 0.050665365
v -0.042680415 0.049628505 0.05045628
v -0.04270434 0.04958064 0.05024271
v -0.04268688 0.049514115 0.05003481
v -0.042628455 0.04943178 0.049839315
v -0.042531285 0.049336215 0.04966494
v -0.0433152 0.04925109 0.048002115
v -0.042399315 0.04923162 0.04951998
v -0.0422385 0.049123275 0.049411395
v -0.042056205 0.049015365 0.049344135
v -0.041861265 0.04891395 0.04932099
v -0.04166253 0.04882254 0.049342425
v -0.04146693 0.04874523 0.049407285
v -0.04128324 0.048684915 0.04951314
v -0.03425568 0.04387071 0.04559187
v -0.034281585 0.043817865 0.04537983
v -0.03426699 0.043744125 0.045173475
v -0.03421188 0.043653255 0.04497978
v -0.03411852 0.043547655 0.04480758
v -0.03399069 0.043431915 0.04466508
v -0.03383397 0.043312245 0.044559105
v -0.03365577 0.043192845 0.044494635
v -0.0334647 0.043081005 0.04447425
v -0.03326967 0.04298013 0.04449834
v -0.033077355 0.042895125 0.04456542
v -0.0328965 0.04282881 0.044672985
v -0.062867745 0.05608431 0.059290785
v -0.062674695 0.059998815 0.05917932
v -0.062571765 0.05994786 0.059119905
v -0.06277632 0.06004491 0.059238
v -0.06250416 0.055347525 0.05908086
v -0.061422 0.059404215 0.05845608
v -0.062128725 0.054609735 0.05886411
v -0.061741455 0.05387094 0.05864052
v -0.061342335 0.05313114 0.05841009
v -0.060274425 0.05884989 0.05779353
v -0.06093138 0.05239032 0.058172835
v -0.06050859 0.051648495 0.057928725
v -0.06007395 0.050905665 0.057677775
v -0.05912901 0.058284855 0.057132225
v -0.059627445 0.050161815 0.05742
v -0.059169105 0.049417005 0.05715537
v -0.058698765 0.04867146 0.056883825
v -0.05798577 0.05770914 0.05647218
v -0.058216485 0.047925135 0.05660538
v -0.05772231 0.04717794 0.056320065
v -0.05684469 0.05712273 0.055813365
v -0.05721627 0.04642977 0.056027895
v -0.05669841 0.04568052 0.055728915
v -0.0557058 0.05652561 0.055155825
v -0.05616879 0.0449301 0.05542314
v -0.05562744 0.044178405 0.055110585
v -0.05456907 0.055917825 0.054499545
v -0.05507442 0.04342533 0.05479131
v -0.054509775 0.0426708 0.0544653
v -0.0534345 0.05529933 0.053844495
v -0.053933535 0.041914695 0.054132615
v -0.053345775 0.04115691 0.05379327
v -0.05230212 0.054670155 0.05319072
v -0.052745265 0.040398015 0.05344656
v -0.05213121 0.0396384 0.053092035
v -0.0511719 0.05403027 0.05253819
v -0.051504285 0.038877855 0.052730085
v -0.05086515 0.038116125 0.052361085
v -0.050043825 0.053379705 0.05188689
v -0.050214435 0.03735297 0.051985395
v -0.049552845 0.036588135 0.05160342
v -0.048917415 0.052718385 0.051236565
v -0.04888101 0.03582138 0.051215535
v -0.04779273 0.052046325 0.050587215
v -0.04819959 0.03505248 0.05082213
v -0.04750926 0.03428118 0.050423565
v -0.04666995 0.05136354 0.049938975
v -0.04681068 0.033507225 0.05002023
v -0.046104495 0.03273039 0.049612515
v -0.0455493 0.050670045 0.04929198
v -0.04539105 0.03195054 0.049200615
v -0.044430975 0.049965885 0.04864632
v -0.044668755 0.03116826 0.0487836
v -0.04393734 0.03038367 0.048361305
v -0.0433152 0.04925109 0.048002115
v -0.04319679 0.029596755 0.047933745
v -0.04220217 0.048525645 0.0473595
v -0.04244709 0.028807515 0.04750092
v -0.041688255 0.02801595 0.0470628
v -0.041092095 0.04778961 0.046718595
v -0.040920285 0.027222075 0.046619415
v -0.040604115 0.04315257 0.046436865
v -0.040582785 0.043004415 0.04642455
v -0.040582785 0.043300725 0.04642455
v -0.03998517 0.047043 0.04607952
v -0.04052691 0.04342701 0.0463923
v -0.040435845 0.043532175 0.04633971
v -0.040323855 0.0435975 0.046275075
v -0.04019817 0.04362132 0.04620249
v -0.040072455 0.0435975 0.04612992
v -0.03996048 0.043532175 0.04606527
v -0.03888162 0.04628583 0.04544238
v -0.039869415 0.04342701 0.046012695
v -0.03981354 0.043300725 0.04598043
v -0.03979221 0.04315257 0.045968115
v -0.03935694 0.025627365 0.04571682
v -0.038561565 0.02482653 0.04525761
v -0.04014318 0.026425875 0.04617075
v -0.03981354 0.043004415 0.04598043
v -0.039869415 0.042878115 0.046012695
v -0.03996048 0.042772965 0.04606527
v -0.040072455 0.04270764 0.04612992
v -0.04019817 0.04268382 0.04620249
v -0.040323855 0.04270764 0.046275075
v -0.040435845 0.042772965 0.04633971
v -0.04052691 0.042878115 0.0463923
v -0.03778146 0.04551813 0.044807205
v -0.03775704 0.02402337 0.044793105
v -0.036684255 0.04473981 0.04417374
v -0.036943395 0.023217885 0.04432335
v -0.035589945 0.043950885 0.04354194
v -0.03449856 0.043151355 0.042911835
v -0.03341007 0.04234122 0.042283395
v -0.032969085 0.01918212 0.042028785
v -0.03232449 0.04152048 0.041656635
v -0.032815155 0.01901475 0.04193991
v -0.032659935 0.01885872 0.0418503
v -0.03250341 0.018714015 0.041759925
v -0.032345595 0.01858065 0.041668815
v -0.03218646 0.018458625 0.04157694
v -0.03124182 0.04068912 0.04103154
v -0.032026035 0.01834794 0.041484315
v -0.031863135 0.018248325 0.041390265
v -0.03169752 0.018159705 0.04129464
v -0.0315306 0.018082425 0.04119828
v -0.0313638 0.018016815 0.041101965
v -0.031198515 0.017963205 0.04100655
v -0.03114705 0.021538965 0.040976835
v -0.03112572 0.02139081 0.04096452
v -0.03016206 0.03984717 0.04040814
v -0.03112572 0.02168712 0.04096452
v -0.031069845 0.02181342 0.040932255
v -0.03097878 0.02191857 0.04087968
v -0.030866805 0.021983895 0.04081503
v -0.030741105 0.022007715 0.04074246
v -0.030615405 0.021983895 0.04066989
v -0.030503415 0.02191857 0.04060524
v -0.030412365 0.02181342 0.040552665
v -0.030356475 0.02168712 0.0405204
v -0.030335145 0.021538965 0.040508085
v -0.03010122 0.01792809 0.040373025
v -0.029085195 0.0389946 0.03978642
v -0.03040674 0.01787877 0.04054941
v -0.030356475 0.02139081 0.0405204
v -0.030412365 0.02126451 0.040552665
v -0.03071841 0.01787634 0.04072935
v -0.030503415 0.02115936 0.04060524
v -0.030615405 0.021094035 0.04066989
v -0.030741105 0.021070215 0.04074246
v -0.030876525 0.017893065 0.04082064
v -0.030866805 0.021094035 0.04081503
v -0.03097878 0.02115936 0.04087968
v -0.03103617 0.01792194 0.040912815
v -0.031069845 0.02126451 0.040932255
v -0.029950125 0.017970075 0.040285785
v -0.029799795 0.0180237 0.040198995
v -0.029650995 0.018089025 0.04011309
v -0.02950452 0.0181662 0.04002852
v -0.02936112 0.0182553 0.039945735
v -0.029221605 0.018356445 0.03986517
v -0.029084835 0.01847064 0.03978621
v -0.02801124 0.03813144 0.03916638
v -0.02894997 0.01859799 0.039708345
v -0.028818195 0.018737295 0.039632265
v -0.028690695 0.01888728 0.03955866
v -0.028568655 0.019046745 0.03948819
v -0.02845323 0.019214445 0.03942156
v -0.028344255 0.019390575 0.039358635
v -0.028240725 0.019576185 0.03929886
v -0.02814264 0.01977126 0.039242235
v -0.028050015 0.0199758 0.03918876
v -0.027962835 0.02018982 0.03913842
v -0.026940195 0.03725766 0.038548005
v -0.027881115 0.02041329 0.039091245
v -0.02673621 0.03246135 0.03843024
v -0.026714895 0.032313195 0.038417925
v -0.0267042 0.03707313 0.03841176
v -0.026714895 0.03260952 0.038417925
v -0.026659005 0.032735805 0.03838566
v -0.0264777 0.036884715 0.03828099
v -0.02656794 0.032840955 0.038333085
v -0.026455965 0.03290628 0.038268435
v -0.026260695 0.0366924 0.038155695
v -0.026330265 0.0329301 0.038195865
v -0.026204565 0.03290628 0.038123295
v -0.026053155 0.036496185 0.038035875
v -0.02609259 0.032840955 0.03805863
v -0.026001525 0.032735805 0.038006055
v -0.02585511 0.03629607 0.03792153
v -0.02594565 0.03260952 0.037973805
v -0.02592432 0.03246135 0.03796149
v -0.02566656 0.036092055 0.037812675
v -0.02548734 0.03588393 0.03770919
v -0.02531712 0.035671215 0.037610925
v -0.02594565 0.032313195 0.037973805
v -0.02515623 0.03545436 0.03751803
v -0.026001525 0.03218691 0.038006055
v -0.02609259 0.03208176 0.03805863
v -0.026204565 0.03201642 0.038123295
v -0.026330265 0.0319926 0.038195865
v -0.026455965 0.03201642 0.038268435
v -0.02656794 0.03208176 0.038333085
v -0.026659005 0.03218691 0.03838566
v -0.02500503 0.035233905 0.037430745
v -0.02486388 0.03501036 0.03734925
v -0.024824745 0.027981675 0.037326645
v -0.02473314 0.03478428 0.037273755
v -0.02469945 0.028270365 0.037254315
v -0.024613155 0.03455613 0.037204485
v -0.0245838 0.028557405 0.037187535
v -0.024503985 0.03432543 0.037141455
v -0.024477795 0.02884275 0.037126335
v -0.02431683 0.033855705 0.03703341
v -0.024381405 0.02912643 0.037070685
v -0.02429466 0.029408445 0.0370206
v -0.024169065 0.03337479 0.03694809
v -0.024217545 0.02968878 0.03697608
v -0.024149985 0.02996769 0.036937065
v -0.02405826 0.032882625 0.036884115
v -0.02409177 0.030245715 0.036903465
v -0.024043125 0.03052233 0.03687537
v -0.02398461 0.032379375 0.03684159
v -0.024004215 0.03079695 0.036852915
v -0.02397525 0.031068975 0.03683619
v -0.023950035 0.03186465 0.03682164
v -0.023956455 0.031337775 0.036825345
v -0.02394801 0.03160284 0.03682047
v -0.06287661 0.060086145 0.0592959
v -0.06321948 0.056820075 0.059493855
v -0.06297561 0.060122505 0.059353065
v -0.0630735 0.060154395 0.059409585
v -0.06317022 0.060181695 0.059465415
v -0.06326535 0.060203625 0.059520345
v -0.063559365 0.057554835 0.0596901
v -0.06335844 0.060219435 0.05957409
v -0.06345018 0.06023004 0.059627055
v -0.063540555 0.06023544 0.059679225
v -0.063628035 0.060233655 0.05972973
v -0.063887415 0.058288575 0.05987949
v -0.063711135 0.060222675 0.059777715
v -0.06379095 0.060201795 0.059823795
v -0.06386781 0.06017211 0.059868165
v -0.06393705 0.05839572 0.059908155
v -0.063938955 0.060134445 0.05990925
v -0.06398292 0.058501815 0.05993463
v -0.06400167 0.06008958 0.05994546
v -0.06402501 0.058606845 0.05995893
v -0.064063335 0.05871081 0.059981055
v -0.064098105 0.058813875 0.060001125
v -0.064101675 0.05997621 0.060003195
v -0.064129245 0.05891598 0.06001911
v -0.064156335 0.059016825 0.060034755
v -0.06417198 0.0598371 0.060043785
v -0.06417894 0.059116125 0.060047805
v -0.06419583 0.059759445 0.060057555
v -0.064197705 0.05921427 0.060058635
v -0.064212075 0.0596757 0.06006693
v -0.06421257 0.05931126 0.060067215
v -0.064221555 0.059587905 0.060072405
v -0.06422217 0.05940618 0.060072765
v -0.06422511 0.059498115 0.06007446
v -0.03697971 0.04315257 0.050839515
v -0.03979221 0.04315257 0.045968115
v -0.03981354 0.043004415 0.04598043
v -0.03700104 0.043300725 0.05085183
v -0.03700104 0.043004415 0.05085183
v -0.039869415 0.042878115 0.046012695
v -0.037056915 0.042878115 0.05088408
v -0.03996048 0.042772965 0.04606527
v -0.03714798 0.042772965 0.050936655
v -0.040072455 0.04270764 0.04612992
v -0.037259955 0.04270764 0.05100132
v -0.04019817 0.04268382 0.04620249
v -0.03738567 0.04268382 0.05107389
v -0.040323855 0.04270764 0.046275075
v -0.037511355 0.04270764 0.05114646
v -0.040435845 0.042772965 0.04633971
v -0.037623345 0.042772965 0.05121111
v -0.04052691 0.042878115 0.0463923
v -0.03771441 0.042878115 0.051263685
v -0.040582785 0.043004415 0.04642455
v -0.037770285 0.043004415 0.05129595
v -0.040604115 0.04315257 0.046436865
v -0.037791615 0.04315257 0.051308265
v -0.040582785 0.043300725 0.04642455
v -0.037770285 0.043300725 0.05129595
v -0.04052691 0.04342701 0.0463923
v -0.03771441 0.04342701 0.051263685
v -0.040435845 0.043532175 0.04633971
v -0.037623345 0.043532175 0.05121111
v -0.040323855 0.0435975 0.046275075
v -0.037511355 0.0435975 0.05114646
v -0.04019817 0.04362132 0.04620249
v -0.03738567 0.04362132 0.05107389
v -0.040072455 0.0435975 0.04612992
v -0.037259955 0.0435975 0.05100132
v -0.03996048 0.043532175 0.04606527
v -0.03714798 0.043532175 0.050936655
v -0.039869415 0.04342701 0.046012695
v -0.037056915 0.04342701 0.05088408
v -0.03981354 0.043300725 0.04598043
v -0.02752266 0.021538965 0.04537947
v -0.030335145 0.021538965 0.040508085
v -0.030356475 0.02139081 0.0405204
v -0.027543975 0.02168712 0.045391785
v -0.027543975 0.02139081 0.045391785
v -0.030412365 0.02126451 0.040552665
v -0.02759985 0.02126451 0.04542405
v -0.030503415 0.02115936 0.04060524
v -0.027690915 0.02115936 0.045476625
v -0.030615405 0.021094035 0.04066989
v -0.027802905 0.021094035 0.045541275
v -0.030741105 0.021070215 0.04074246
v -0.027928605 0.021070215 0.045613845
v -0.030866805 0.021094035 0.04081503
v -0.028054305 0.021094035 0.04568643
v -0.03097878 0.02115936 0.04087968
v -0.02816628 0.02115936 0.04575108
v -0.031069845 0.02126451 0.040932255
v -0.028257345 0.02126451 0.045803655
v -0.03112572 0.02139081 0.04096452
v -0.02831322 0.02139081 0.045835905
v -0.03114705 0.021538965 0.040976835
v -0.02833455 0.021538965 0.04584822
v -0.03112572 0.02168712 0.04096452
v -0.02831322 0.02168712 0.045835905
v -0.031069845 0.02181342 0.040932255
v -0.028257345 0.02181342 0.045803655
v -0.03097878 0.02191857 0.04087968
v -0.02816628 0.02191857 0.04575108
v -0.030866805 0.021983895 0.04081503
v -0.028054305 0.021983895 0.04568643
v -0.030741105 0.022007715 0.04074246
v -0.027928605 0.022007715 0.045613845
v -0.030615405 0.021983895 0.04066989
v -0.027802905 0.021983895 0.045541275
v -0.030503415 0.02191857 0.04060524
v -0.027690915 0.02191857 0.045476625
v -0.030412365 0.02181342 0.040552665
v -0.02759985 0.02181342 0.04542405
v -0.030356475 0.02168712 0.0405204
v -0.02311182 0.03246135 0.042832875
v -0.02592432 0.03246135 0.03796149
v -0.02594565 0.032313195 0.037973805
v -0.02313315 0.03260952 0.04284519
v -0.02313315 0.032313195 0.04284519
v -0.026001525 0.03218691 0.038006055
v -0.023189025 0.03218691 0.042877455
v -0.02609259 0.03208176 0.03805863
v -0.02328009 0.03208176 0.04293003
v -0.026204565 0.03201642 0.038123295
v -0.023392065 0.03201642 0.04299468
v -0.026330265 0.0319926 0.038195865
v -0.023517765 0.0319926 0.04306725
v -0.026455965 0.03201642 0.038268435
v -0.023643465 0.03201642 0.04313982
v -0.02656794 0.03208176 0.038333085
v -0.02375544 0.03208176 0.043204485
v -0.026659005 0.03218691 0.03838566
v -0.023846505 0.03218691 0.04325706
v -0.026714895 0.032313195 0.038417925
v -0.023902395 0.032313195 0.04328931
v -0.02673621 0.03246135 0.03843024
v -0.02392371 0.03246135 0.043301625
v -0.026714895 0.03260952 0.038417925
v -0.023902395 0.03260952 0.04328931
v -0.026659005 0.032735805 0.03838566
v -0.023846505 0.032735805 0.04325706
v -0.02656794 0.032840955 0.038333085
v -0.02375544 0.032840955 0.043204485
v -0.026455965 0.03290628 0.038268435
v -0.023643465 0.03290628 0.04313982
v -0.026330265 0.0329301 0.038195865
v -0.023517765 0.0329301 0.04306725
v -0.026204565 0.03290628 0.038123295
v -0.023392065 0.03290628 0.04299468
v -0.02609259 0.032840955 0.03805863
v -0.02328009 0.032840955 0.04293003
v -0.026001525 0.032735805 0.038006055
v -0.023189025 0.032735805 0.042877455
v -0.02594565 0.03260952 0.037973805
v -0.058928955 0.05387094 0.06351192
v -0.0586095 0.059404215 0.06332748
v -0.059759265 0.05994786 0.06399129
v -0.05852985 0.05313114 0.06328149
v -0.059316225 0.054609735 0.06373551
v -0.05969166 0.055347525 0.06395226
v -0.059862195 0.059998815 0.06405072
v -0.059963805 0.06004491 0.064109385
v -0.060055245 0.05608431 0.06416217
v -0.06006411 0.060086145 0.0641673
v -0.06016311 0.060122505 0.06422445
v -0.060261 0.060154395 0.06428097
v -0.06035772 0.060181695 0.064336815
v -0.06040698 0.056820075 0.064365255
v -0.06045285 0.060203625 0.06439173
v -0.06054594 0.060219435 0.064445475
v -0.06063768 0.06023004 0.064498455
v -0.060728055 0.06023544 0.064550625
v -0.060746865 0.057554835 0.064561485
v -0.060815535 0.060233655 0.06460113
v -0.060898635 0.060222675 0.0646491
v -0.06097845 0.060201795 0.064695195
v -0.06105531 0.06017211 0.064739565
v -0.061074915 0.058288575 0.06475089
v -0.061126455 0.060134445 0.064780635
v -0.06112455 0.05839572 0.06477954
v -0.06117042 0.058501815 0.06480603
v -0.06118917 0.06008958 0.06481686
v -0.06121251 0.058606845 0.064830315
v -0.061289175 0.05997621 0.06487458
v -0.061250835 0.05871081 0.064852455
v -0.061285605 0.058813875 0.064872525
v -0.061316745 0.05891598 0.06489051
v -0.06135948 0.0598371 0.064915185
v -0.061343835 0.059016825 0.06490614
v -0.06136644 0.059116125 0.064919205
v -0.06138333 0.059759445 0.064928955
v -0.061385205 0.05921427 0.06493002
v -0.061399575 0.0596757 0.06493833
v -0.06140007 0.05931126 0.064938615
v -0.061409055 0.059587905 0.064943805
v -0.06140967 0.05940618 0.06494415
v -0.06141261 0.059498115 0.064945845
v -0.058118895 0.05239032 0.06304422
v -0.05769609 0.051648495 0.062800125
v -0.057461925 0.05884989 0.062664915
v -0.057261435 0.050905665 0.062549175
v -0.056814945 0.050161815 0.0622914
v -0.056356605 0.049417005 0.06202677
v -0.05631651 0.058284855 0.06200361
v -0.055886265 0.04867146 0.06175521
v -0.055403985 0.047925135 0.06147678
v -0.05517327 0.05770914 0.061343565
v -0.05490981 0.04717794 0.061191465
v -0.05440377 0.04642977 0.060899295
v -0.05403219 0.05712273 0.060684765
v -0.05388591 0.04568052 0.0606003
v -0.05335629 0.0449301 0.060294525
v -0.0528933 0.05652561 0.060027225
v -0.05281494 0.044178405 0.059981985
v -0.05226192 0.04342533 0.059662695
v -0.05175657 0.055917825 0.05937093
v -0.051697275 0.0426708 0.0593367
v -0.051121035 0.041914695 0.059004015
v -0.050622 0.05529933 0.058715895
v -0.050533275 0.04115691 0.05866467
v -0.049932765 0.040398015 0.05831796
v -0.04948962 0.054670155 0.058062105
v -0.04931871 0.0396384 0.057963435
v -0.048691785 0.038877855 0.057601485
v -0.0483594 0.05403027 0.057409575
v -0.04805265 0.038116125 0.05723247
v -0.047401935 0.03735297 0.05685678
v -0.047231325 0.053379705 0.056758275
v -0.046740345 0.036588135 0.05647482
v -0.046104915 0.052718385 0.05610795
v -0.04606851 0.03582138 0.056086935
v -0.04538709 0.03505248 0.055693515
v -0.04498023 0.052046325 0.055458615
v -0.04469676 0.03428118 0.05529495
v -0.04399818 0.033507225 0.05489163
v -0.04385745 0.05136354 0.054810375
v -0.043291995 0.03273039 0.054483915
v -0.0427368 0.050670045 0.054163365
v -0.04257855 0.03195054 0.054072
v -0.041856255 0.03116826 0.053654985
v -0.041618475 0.049965885 0.053517705
v -0.04112484 0.03038367 0.053232705
v -0.0405027 0.04925109 0.052873515
v -0.04038429 0.029596755 0.052805145
v -0.03963459 0.028807515 0.052372305
v -0.03938967 0.048525645 0.0522309
v -0.038875755 0.02801595 0.0519342
v -0.038279595 0.04778961 0.051589995
v -0.038107785 0.027222075 0.0514908
v -0.037791615 0.04315257 0.051308265
v -0.037770285 0.043300725 0.05129595
v -0.03733068 0.026425875 0.05104215
v -0.037770285 0.043004415 0.05129595
v -0.03771441 0.042878115 0.051263685
v -0.037623345 0.042772965 0.05121111
v -0.037511355 0.04270764 0.05114646
v -0.03738567 0.04268382 0.05107389
v -0.037259955 0.04270764 0.05100132
v -0.03654444 0.025627365 0.050588205
v -0.03714798 0.042772965 0.050936655
v -0.037056915 0.042878115 0.05088408
v -0.03700104 0.043004415 0.05085183
v -0.03697971 0.04315257 0.050839515
v -0.03606912 0.04628583 0.05031378
v -0.035749065 0.02482653 0.050128995
v -0.03717267 0.047043 0.05095092
v -0.03700104 0.043300725 0.05085183
v -0.037056915 0.04342701 0.05088408
v -0.03714798 0.043532175 0.050936655
v -0.037259955 0.0435975 0.05100132
v -0.03738567 0.04362132 0.05107389
v -0.037511355 0.0435975 0.05114646
v -0.037623345 0.043532175 0.05121111
v -0.03771441 0.04342701 0.051263685
v -0.03496896 0.04551813 0.049678605
v -0.03494454 0.02402337 0.049664505
v -0.034130895 0.023217885 0.049194735
v -0.033871755 0.04473981 0.049045125
v -0.030156585 0.01918212 0.04690017
v -0.032777445 0.043950885 0.04841334
v -0.03168606 0.043151355 0.04778322
v -0.03059757 0.04234122 0.04715478
v -0.030002655 0.01901475 0.04681131
v -0.029847435 0.01885872 0.046721685
v -0.02969091 0.018714015 0.046631325
v -0.029533095 0.01858065 0.0465402
v -0.02951199 0.04152048 0.04652802
v -0.02937396 0.018458625 0.046448325
v -0.029213535 0.01834794 0.046355715
v -0.029050635 0.018248325 0.04626165
v -0.02888502 0.018159705 0.04616604
v -0.0287181 0.018082425 0.046069665
v -0.0285513 0.018016815 0.045973365
v -0.02842932 0.04068912 0.04590294
v -0.028386015 0.017963205 0.045877935
v -0.02833455 0.021538965 0.04584822
v -0.02831322 0.02168712 0.045835905
v -0.02822367 0.01792194 0.045784215
v -0.02831322 0.02139081 0.045835905
v -0.028257345 0.02126451 0.045803655
v -0.02816628 0.02115936 0.04575108
v -0.028064025 0.017893065 0.04569204
v -0.028054305 0.021094035 0.04568643
v -0.02790591 0.01787634 0.04560075
v -0.027928605 0.021070215 0.045613845
v -0.027802905 0.021094035 0.045541275
v -0.02759424 0.01787877 0.04542081
v -0.027690915 0.02115936 0.045476625
v -0.02759985 0.02126451 0.04542405
v -0.027543975 0.02139081 0.045391785
v -0.02728872 0.01792809 0.04524441
v -0.02752266 0.021538965 0.04537947
v -0.02734956 0.03984717 0.04527954
v -0.027137625 0.017970075 0.045157185
v -0.027543975 0.02168712 0.045391785
v -0.02759985 0.02181342 0.04542405
v -0.027690915 0.02191857 0.045476625
v -0.027802905 0.021983895 0.045541275
v -0.027928605 0.022007715 0.045613845
v -0.028054305 0.021983895 0.04568643
v -0.02816628 0.02191857 0.04575108
v -0.028257345 0.02181342 0.045803655
v -0.026987295 0.0180237 0.045070395
v -0.026838495 0.018089025 0.044984475
v -0.02669202 0.0181662 0.044899905
v -0.02654862 0.0182553 0.04481712
v -0.026409105 0.018356445 0.04473657
v -0.026272695 0.0389946 0.044657805
v -0.026272335 0.01847064 0.04465761
v -0.02613747 0.01859799 0.044579745
v -0.026005695 0.018737295 0.044503665
v -0.025878195 0.01888728 0.044430045
v -0.025756155 0.019046745 0.04435959
v -0.02564073 0.019214445 0.044292945
v -0.025531755 0.019390575 0.044230035
v -0.025428225 0.019576185 0.04417026
v -0.02533014 0.01977126 0.044113635
v -0.025237515 0.0199758 0.044060145
v -0.02519874 0.03813144 0.044037765
v -0.025150335 0.02018982 0.04400982
v -0.025068615 0.02041329 0.04396263
v -0.024127695 0.03725766 0.04341939
v -0.02392371 0.03246135 0.043301625
v -0.023902395 0.03260952 0.04328931
v -0.023902395 0.032313195 0.04328931
v -0.022012245 0.027981675 0.042198045
v -0.023846505 0.03218691 0.04325706
v -0.02375544 0.03208176 0.043204485
v -0.023643465 0.03201642 0.04313982
v -0.023517765 0.0319926 0.04306725
v -0.023392065 0.03201642 0.04299468
v -0.02328009 0.03208176 0.04293003
v -0.023189025 0.03218691 0.042877455
v -0.02313315 0.032313195 0.04284519
v -0.02311182 0.03246135 0.042832875
v -0.02304261 0.03629607 0.04279293
v -0.02285406 0.036092055 0.04268406
v -0.023240655 0.036496185 0.04290726
v -0.02313315 0.03260952 0.04284519
v -0.023189025 0.032735805 0.042877455
v -0.02328009 0.032840955 0.04293003
v -0.023448195 0.0366924 0.04302708
v -0.023392065 0.03290628 0.04299468
v -0.023517765 0.0329301 0.04306725
v -0.0236652 0.036884715 0.043152375
v -0.023643465 0.03290628 0.04313982
v -0.02375544 0.032840955 0.043204485
v -0.0238917 0.03707313 0.043283145
v -0.023846505 0.032735805 0.04325706
v -0.02267484 0.03588393 0.04258059
v -0.02250462 0.035671215 0.04248231
v -0.02234373 0.03545436 0.04238943
v -0.02219253 0.035233905 0.04230213
v -0.02205138 0.03501036 0.042220635
v -0.02192064 0.03478428 0.042145155
v -0.02188695 0.028270365 0.0421257
v -0.021800655 0.03455613 0.042075885
v -0.0217713 0.028557405 0.042058935
v -0.021691485 0.03432543 0.042012855
v -0.021665295 0.02884275 0.04199772
v -0.021568905 0.02912643 0.041942085
v -0.02150433 0.033855705 0.041904795
v -0.02148216 0.029408445 0.041892
v -0.021405045 0.02968878 0.041847465
v -0.021356565 0.03337479 0.04181949
v -0.021337485 0.02996769 0.041808465
v -0.02127927 0.030245715 0.041774865
v -0.02124576 0.032882625 0.0417555
v -0.021230625 0.03052233 0.04174677
v -0.021191715 0.03079695 0.0417243
v -0.02117211 0.032379375 0.04171299
v -0.02116275 0.031068975 0.04170759
v -0.021143955 0.031337775 0.04169673
v -0.021137535 0.03186465 0.041693025
v -0.02113551 0.03160284 0.041691855
f 1 2 3
f 1 4 2
f 5 1 3
f 6 5 3
f 6 7 5
f 6 8 7
f 8 9 7
f 8 10 9
f 10 11 9
f 10 12 11
f 12 13 11
f 12 14 13
f 14 15 13
f 14 16 15
f 16 17 15
f 16 18 17
f 4 19 2
f 4 20 19
f 20 21 19
f 20 22 21
f 22 23 21
f 22 24 23
f 24 25 23
f 24 26 25
f 26 27 25
f 26 28 27
f 29 30 31
f 29 32 30
f 29 31 33
f 33 31 34
f 35 34 31
f 33 34 36
f 37 36 34
f 38 33 36
f 39 33 38
f 40 38 36
f 40 36 41
f 42 40 41
f 42 41 43
f 44 42 43
f 44 43 45
f 46 44 45
f 46 45 47
f 48 46 47
f 49 48 47
f 50 49 47
f 50 51 49
f 50 52 51
f 52 53 51
f 52 54 53
f 54 55 53
f 54 56 55
f 56 57 55
f 56 58 57
f 58 59 57
f 58 60 59
f 60 61 59
f 60 62 61
f 62 63 61
f 62 64 63
f 64 65 63
f 64 66 65
f 66 67 65
f 66 68 67
f 68 69 67
f 68 70 69
f 70 71 69
f 72 71 70
f 71 73 69
f 74 73 71
f 75 69 73
f 75 67 69
f 76 75 73
f 76 73 77
f 78 76 77
f 78 77 79
f 80 78 79
f 80 79 81
f 82 80 81
f 82 81 83
f 84 82 83
f 84 83 85
f 84 85 86
f 86 85 87
f 84 86 88
f 89 84 88
f 89 88 90
f 89 90 91
f 92 89 91
f 92 91 93
f 94 92 93
f 94 93 95
f 94 95 96
f 97 94 96
f 97 96 98
f 99 97 98
f 99 98 100
f 101 99 100
f 101 100 102
f 103 101 102
f 103 102 104
f 103 104 105
f 106 103 105
f 106 105 107
f 108 106 107
f 108 107 109
f 108 109 110
f 111 108 110
f 111 110 32
f 111 32 29
f 112 111 29
f 112 29 113
f 114 112 113
f 114 113 115
f 116 114 115
f 116 115 117
f 118 116 117
f 118 117 119
f 39 118 119
f 39 119 33
f 85 120 87
f 88 86 87
f 88 87 121
f 90 88 121
f 90 121 122
f 91 90 122
f 93 91 122
f 93 122 123
f 95 93 123
f 95 123 124
f 96 95 124
f 96 124 125
f 98 96 125
f 98 125 126
f 100 98 126
f 100 126 127
f 102 100 127
f 102 127 128
f 104 102 128
f 104 128 129
f 104 129 105
f 107 105 129
f 107 129 130
f 109 107 130
f 109 130 131
f 110 109 131
f 110 131 132
f 32 110 132
f 32 132 30
f 74 120 85
f 74 133 120
f 74 85 73
f 74 134 133
f 134 135 133
f 134 136 135
f 136 137 135
f 136 138 137
f 138 139 137
f 138 140 139
f 140 141 139
f 140 142 141
f 142 143 141
f 142 144 143
f 144 145 143
f 144 146 145
f 146 147 145
f 146 148 147
f 148 149 147
f 148 150 149
f 150 151 149
f 150 152 151
f 152 153 151
f 152 154 153
f 154 155 153
f 154 156 155
f 156 31 155
f 156 157 31
f 35 31 157
f 35 157 158
f 159 35 158
f 160 35 159
f 161 159 158
f 161 158 162
f 163 161 162
f 164 163 162
f 164 162 165
f 166 164 165
f 166 165 167
f 168 166 167
f 168 167 169
f 170 168 169
f 171 170 169
f 171 169 172
f 173 171 172
f 173 172 174
f 175 173 174
f 175 174 176
f 177 175 176
f 177 176 178
f 179 177 178
f 179 178 180
f 181 179 180
f 182 181 180
f 182 180 183
f 184 182 183
f 184 183 185
f 186 184 185
f 186 185 187
f 188 186 187
f 188 187 189
f 188 189 190
f 74 190 189
f 191 188 190
f 191 186 188
f 192 191 190
f 192 190 193
f 194 192 193
f 194 193 195
f 196 194 195
f 196 195 197
f 198 196 197
f 198 197 199
f 72 198 199
f 72 199 71
f 191 184 186
f 191 200 184
f 200 182 184
f 200 201 182
f 201 181 182
f 202 181 201
f 202 179 181
f 202 177 179
f 202 203 177
f 203 175 177
f 203 204 175
f 204 173 175
f 204 205 173
f 205 171 173
f 205 170 171
f 205 206 170
f 206 168 170
f 206 207 168
f 207 166 168
f 207 208 166
f 208 164 166
f 208 163 164
f 208 160 163
f 160 161 163
f 160 159 161
f 74 71 190
f 160 209 35
f 160 210 209
f 210 211 209
f 210 212 211
f 212 213 211
f 212 214 213
f 214 215 213
f 214 216 215
f 216 34 215
f 216 37 34
f 75 65 67
f 75 217 65
f 217 63 65
f 217 218 63
f 218 61 63
f 219 61 218
f 219 59 61
f 219 57 59
f 219 220 57
f 220 55 57
f 220 221 55
f 221 53 55
f 221 222 53
f 222 51 53
f 222 49 51
f 222 223 49
f 223 48 49
f 223 224 48
f 224 46 48
f 224 225 46
f 225 44 46
f 225 42 44
f 225 39 42
f 39 40 42
f 39 38 40
f 72 70 68
f 226 72 68
f 226 68 66
f 226 66 64
f 227 226 64
f 227 64 62
f 228 227 62
f 228 62 60
f 228 60 58
f 229 228 58
f 229 58 56
f 230 229 56
f 230 56 54
f 231 230 54
f 231 54 52
f 232 231 52
f 232 52 50
f 232 50 47
f 233 232 47
f 233 47 45
f 234 233 45
f 234 45 43
f 234 43 41
f 37 234 41
f 37 41 36
f 235 236 237
f 238 235 237
f 239 238 237
f 240 239 237
f 241 242 243
f 244 241 243
f 245 244 243
f 246 245 243
f 247 248 249
f 250 247 249
f 251 250 249
f 252 251 249
f 253 254 255
f 256 253 255
f 257 256 255
f 258 257 255
f 259 260 261
f 259 262 260
f 259 261 263
f 263 261 264
f 263 264 265
f 263 265 266
f 263 266 267
f 263 267 268
f 263 268 269
f 269 268 270
f 263 269 271
f 263 271 272
f 272 271 273
f 272 273 274
f 274 273 275
f 274 275 276
f 276 275 277
f 276 277 278
f 278 277 279
f 278 279 280
f 280 279 281
f 280 281 282
f 282 281 283
f 282 283 284
f 284 283 285
f 284 285 286
f 286 285 287
f 286 287 288
f 288 287 289
f 288 289 290
f 290 289 291
f 290 291 292
f 292 291 293
f 292 293 294
f 294 293 295
f 294 295 296
f 296 295 297
f 296 297 298
f 298 297 299
f 298 299 300
f 300 299 301
f 300 301 302
f 302 301 303
f 302 303 304
f 304 303 305
f 304 305 306
f 306 305 307
f 306 307 308
f 308 307 309
f 308 309 310
f 310 309 311
f 310 311 312
f 312 311 313
f 312 313 314
f 314 313 315
f 314 315 316
f 316 315 317
f 316 317 318
f 318 317 319
f 318 319 320
f 320 319 321
f 320 321 322
f 322 321 323
f 322 323 324
f 324 323 325
f 324 325 326
f 326 325 327
f 326 327 328
f 328 327 329
f 328 329 330
f 330 329 331
f 330 331 332
f 332 331 333
f 332 333 334
f 334 333 335
f 334 335 336
f 336 335 337
f 336 337 338
f 338 337 339
f 338 339 340
f 340 339 341
f 340 341 342
f 342 341 343
f 342 343 344
f 344 343 345
f 344 345 346
f 346 345 347
f 346 347 348
f 348 347 349
f 350 349 347
f 348 349 351
f 348 351 352
f 348 352 353
f 348 353 354
f 348 354 355
f 348 355 356
f 348 356 357
f 348 357 358
f 358 357 359
f 358 359 360
f 358 360 361
f 358 361 362
f 358 362 363
f 358 363 364
f 358 364 365
f 358 365 366
f 366 365 367
f 366 367 368
f 366 368 369
f 369 368 370
f 366 369 371
f 366 371 372
f 372 371 373
f 372 373 374
f 374 373 375
f 374 375 376
f 376 375 377
f 376 377 378
f 378 377 379
f 378 379 380
f 380 379 381
f 380 381 382
f 382 381 383
f 381 384 383
f 382 383 385
f 382 385 386
f 382 386 387
f 382 387 388
f 382 388 389
f 382 389 390
f 382 390 391
f 382 391 392
f 382 392 393
f 393 392 394
f 393 394 395
f 393 395 396
f 393 396 397
f 393 397 398
f 393 398 399
f 393 399 400
f 400 399 401
f 401 399 402
f 400 401 403
f 400 403 404
f 404 403 405
f 404 405 406
f 406 405 407
f 406 407 408
f 408 407 409
f 408 409 410
f 410 409 411
f 410 411 412
f 412 411 413
f 412 413 414
f 414 413 415
f 414 415 416
f 416 415 417
f 416 417 418
f 418 417 419
f 418 419 420
f 420 419 421
f 420 421 422
f 422 421 423
f 422 423 424
f 424 423 425
f 424 425 426
f 426 425 427
f 426 427 428
f 428 427 429
f 428 429 430
f 430 429 431
f 430 431 432
f 432 431 433
f 432 433 434
f 434 433 435
f 436 434 435
f 436 435 437
f 436 437 438
f 438 437 439
f 438 439 440
f 440 439 441
f 440 441 442
f 442 441 443
f 442 443 444
f 444 443 445
f 444 445 446
f 446 445 447
f 446 447 448
f 448 447 449
f 448 449 450
f 450 449 451
f 450 451 452
f 452 451 453
f 452 453 454
f 454 453 455
f 454 455 456
f 456 455 457
f 456 457 458
f 458 457 459
f 458 459 460
f 460 459 461
f 460 461 462
f 462 461 463
f 462 463 464
f 464 463 465
f 464 465 466
f 466 465 467
f 466 467 468
f 468 467 469
f 468 469 470
f 470 469 471
f 470 471 472
f 472 471 473
f 472 473 474
f 474 473 475
f 474 475 476
f 476 475 477
f 476 477 478
f 478 477 479
f 478 479 480
f 480 479 481
f 480 481 482
f 482 481 483
f 482 483 484
f 484 483 485
f 484 485 486
f 486 485 487
f 486 487 488
f 488 487 489
f 488 489 490
f 490 489 491
f 490 491 492
f 492 491 493
f 492 493 494
f 494 493 495
f 494 495 496
f 496 495 497
f 496 497 498
f 498 497 499
f 498 499 500
f 500 499 501
f 500 501 502
f 502 501 503
f 502 503 504
f 504 503 505
f 504 505 506
f 506 505 507
f 506 507 508
f 508 507 509
f 508 509 510
f 510 509 511
f 510 511 512
f 512 511 513
f 512 513 514
f 514 513 515
f 514 515 516
f 516 515 517
f 516 517 518
f 518 517 519
f 518 519 520
f 520 519 521
f 520 521 522
f 522 521 523
f 522 523 524
f 524 523 525
f 524 525 526
f 526 525 527
f 526 527 528
f 528 527 529
f 528 529 530
f 530 529 531
f 530 531 532
f 532 531 533
f 532 533 534
f 534 533 535
f 534 535 536
f 536 535 537
f 536 537 538
f 538 537 539
f 538 539 540
f 540 539 541
f 540 541 542
f 542 541 543
f 542 543 544
f 544 543 545
f 544 545 546
f 546 545 547
f 546 547 548
f 548 547 549
f 548 549 550
f 550 549 551
f 550 551 552
f 552 551 553
f 552 553 554
f 554 553 555
f 554 555 556
f 556 555 557
f 556 557 558
f 558 557 559
f 558 559 560
f 560 559 561
f 560 561 562
f 562 561 563
f 562 563 564
f 564 563 565
f 564 565 566
f 566 565 567
f 566 567 568
f 568 567 569
f 568 569 570
f 570 569 571
f 570 571 572
f 572 571 573
f 572 573 574
f 574 573 575
f 574 575 576
f 576 575 577
f 576 577 578
f 578 577 579
f 578 579 580
f 580 579 581
f 580 581 582
f 582 581 583
f 582 583 584
f 584 583 585
f 584 585 586
f 586 585 587
f 586 587 588
f 588 587 589
f 588 589 590
f 590 589 591
f 590 591 592
f 592 591 593
f 592 593 594
f 594 593 595
f 594 595 596
f 596 595 597
f 596 597 598
f 598 597 599
f 598 599 600
f 600 599 601
f 600 601 602
f 602 601 603
f 602 603 604
f 604 603 605
f 604 605 606
f 606 605 607
f 606 607 608
f 608 607 609
f 608 609 610
f 610 609 611
f 610 611 612
f 612 611 613
f 612 613 614
f 614 613 615
f 614 615 616
f 616 615 617
f 616 617 618
f 618 617 619
f 618 619 620
f 620 619 621
f 620 621 622
f 622 621 623
f 622 623 624
f 624 623 625
f 624 625 626
f 626 625 627
f 626 627 628
f 628 627 629
f 628 629 630
f 630 629 631
f 630 631 632
f 632 631 633
f 632 633 634
f 634 633 635
f 634 635 636
f 636 635 637
f 636 637 638
f 638 637 639
f 638 639 640
f 640 639 641
f 640 641 642
f 642 641 643
f 642 643 644
f 644 643 645
f 644 645 646
f 646 645 647
f 646 647 648
f 648 647 649
f 648 649 650
f 650 649 651
f 650 651 652
f 652 651 653
f 652 653 654
f 654 653 655
f 654 655 656
f 656 655 657
f 656 657 658
f 658 657 659
f 658 659 660
f 660 659 661
f 660 661 662
f 662 661 663
f 662 663 259
f 259 663 269
f 259 269 664
f 269 665 664
f 259 664 666
f 259 666 667
f 259 667 668
f 259 668 669
f 259 669 670
f 259 670 671
f 259 671 672
f 259 672 673
f 259 673 262
f 269 674 665
f 269 675 674
f 269 676 675
f 269 677 676
f 269 678 677
f 269 679 678
f 269 680 679
f 269 681 680
f 269 682 681
f 269 270 682
f 401 402 683
f 401 683 684
f 401 684 685
f 401 685 686
f 401 686 687
f 401 687 688
f 401 688 689
f 689 688 690
f 689 690 691
f 689 691 692
f 689 692 693
f 689 693 694
f 689 694 695
f 689 695 696
f 689 696 381
f 381 696 384
f 369 370 697
f 369 697 698
f 369 698 699
f 369 699 700
f 369 700 701
f 369 701 702
f 369 702 703
f 369 703 704
f 369 704 350
f 350 704 705
f 350 705 706
f 350 706 707
f 350 707 708
f 350 708 349
f 709 710 711
f 709 712 710
f 713 709 711
f 714 713 711
f 714 715 713
f 714 716 715
f 714 717 716
f 714 718 717
f 718 719 717
f 718 720 719
f 718 721 720
f 718 722 721
f 722 723 721
f 722 724 723
f 722 725 724
f 722 726 725
f 726 727 725
f 726 728 727
f 726 729 728
f 729 730 728
f 729 731 730
f 729 732 731
f 732 733 731
f 732 734 733
f 732 735 734
f 735 736 734
f 735 737 736
f 735 738 737
f 738 739 737
f 738 740 739
f 738 741 740
f 741 742 740
f 741 743 742
f 741 744 743
f 744 745 743
f 744 746 745
f 744 747 746
f 747 748 746
f 747 749 748
f 747 750 749
f 750 751 749
f 750 752 751
f 752 753 751
f 752 754 753
f 752 755 754
f 755 756 754
f 755 757 756
f 755 758 757
f 758 759 757
f 758 760 759
f 760 761 759
f 760 762 761
f 760 763 762
f 763 764 762
f 763 765 764
f 765 766 764
f 765 767 766
f 765 768 767
f 768 769 767
f 770 769 768
f 770 771 769
f 772 770 768
f 772 768 773
f 774 772 773
f 775 774 773
f 776 775 773
f 777 776 773
f 778 777 773
f 779 778 773
f 779 773 780
f 781 779 780
f 782 781 780
f 782 780 783
f 783 780 784
f 780 785 784
f 783 784 786
f 787 783 786
f 788 787 786
f 789 788 786
f 790 789 786
f 791 790 786
f 791 786 769
f 792 791 769
f 793 792 769
f 794 793 769
f 771 794 769
f 780 795 785
f 795 796 785
f 795 797 796
f 797 798 796
f 797 799 798
f 799 800 798
f 800 801 798
f 801 802 798
f 801 803 802
f 803 804 802
f 803 805 804
f 803 806 805
f 803 807 806
f 803 808 807
f 803 809 808
f 809 810 808
f 809 811 810
f 809 812 811
f 809 813 812
f 809 814 813
f 809 815 814
f 816 815 809
f 816 817 815
f 816 809 818
f 819 816 818
f 820 819 818
f 821 820 818
f 822 821 818
f 823 822 818
f 824 823 818
f 825 824 818
f 826 825 818
f 827 826 818
f 827 818 828
f 828 818 829
f 818 830 829
f 828 829 831
f 832 828 831
f 833 832 831
f 833 831 834
f 835 833 834
f 836 835 834
f 837 836 834
f 837 834 838
f 839 837 838
f 840 839 838
f 840 838 841
f 842 840 841
f 842 841 815
f 817 842 815
f 830 843 829
f 830 844 843
f 830 845 844
f 830 846 845
f 830 847 846
f 830 848 847
f 830 849 848
f 830 850 849
f 850 851 849
f 850 852 851
f 850 853 852
f 850 854 853
f 850 855 854
f 850 856 855
f 850 857 856
f 850 858 857
f 850 859 858
f 850 860 859
f 850 861 860
f 861 862 860
f 863 862 861
f 863 864 862
f 863 861 865
f 866 863 865
f 867 866 865
f 867 865 868
f 869 867 868
f 870 869 868
f 870 868 871
f 872 870 871
f 873 872 871
f 873 871 874
f 875 873 874
f 876 875 874
f 876 874 877
f 878 876 877
f 878 877 879
f 879 877 880
f 879 880 881
f 879 881 882
f 883 879 882
f 883 882 862
f 882 884 862
f 885 883 862
f 886 885 862
f 887 886 862
f 888 887 862
f 889 888 862
f 890 889 862
f 891 890 862
f 864 891 862
f 884 892 862
f 892 893 862
f 893 894 862
f 893 895 894
f 895 896 894
f 895 897 896
f 897 898 896
f 897 899 898
f 899 900 898
f 899 901 900
f 901 902 900
f 901 903 902
f 901 904 903
f 904 905 903
f 904 906 905
f 904 907 906
f 907 908 906
f 907 909 908
f 907 910 909
f 910 911 909
f 910 912 911
f 910 913 912
f 913 914 912
f 913 915 914
f 709 916 712
f 709 917 916
f 917 918 916
f 917 919 918
f 917 920 919
f 917 921 920
f 917 922 921
f 922 923 921
f 922 924 923
f 922 925 924
f 922 926 925
f 922 927 926
f 927 928 926
f 927 929 928
f 927 930 929
f 927 931 930
f 931 932 930
f 931 933 932
f 933 934 932
f 933 935 934
f 935 936 934
f 936 937 934
f 937 938 934
f 937 939 938
f 939 940 938
f 940 941 938
f 940 942 941
f 942 943 941
f 942 944 943
f 944 945 943
f 944 946 945
f 946 947 945
f 946 948 947
f 948 949 947
f 950 951 952
f 953 951 950
f 954 950 952
f 954 952 955
f 954 955 956
f 956 955 957
f 956 957 958
f 958 957 959
f 958 959 960
f 960 959 961
f 960 961 962
f 962 961 963
f 962 963 964
f 964 963 965
f 964 965 966
f 966 965 967
f 966 967 968
f 968 967 969
f 968 969 970
f 970 969 971
f 970 971 972
f 972 971 973
f 972 973 974
f 974 973 975
f 974 975 976
f 976 975 977
f 976 977 978
f 978 977 979
f 978 979 980
f 980 979 981
f 980 981 982
f 982 981 983
f 982 983 984
f 984 983 985
f 984 985 986
f 986 985 987
f 986 987 988
f 988 987 989
f 988 989 953
f 953 989 951
f 990 991 992
f 993 991 990
f 994 990 992
f 994 992 995
f 994 995 996
f 996 995 997
f 996 997 998
f 998 997 999
f 998 999 1000
f 1000 999 1001
f 1000 1001 1002
f 1002 1001 1003
f 1002 1003 1004
f 1004 1003 1005
f 1004 1005 1006
f 1006 1005 1007
f 1006 1007 1008
f 1008 1007 1009
f 1008 1009 1010
f 1010 1009 1011
f 1010 1011 1012
f 1012 1011 1013
f 1012 1013 1014
f 1014 1013 1015
f 1014 1015 1016
f 1016 1015 1017
f 1016 1017 1018
f 1018 1017 1019
f 1018 1019 1020
f 1020 1019 1021
f 1020 1021 1022
f 1022 1021 1023
f 1022 1023 1024
f 1024 1023 1025
f 1024 1025 1026
f 1026 1025 1027
f 1026 1027 1028
f 1028 1027 1029
f 1028 1029 993
f 993 1029 991
f 1030 1031 1032
f 1033 1031 1030
f 1034 1030 1032
f 1034 1032 1035
f 1034 1035 1036
f 1036 1035 1037
f 1036 1037 1038
f 1038 1037 1039
f 1038 1039 1040
f 1040 1039 1041
f 1040 1041 1042
f 1042 1041 1043
f 1042 1043 1044
f 1044 1043 1045
f 1044 1045 1046
f 1046 1045 1047
f 1046 1047 1048
f 1048 1047 1049
f 1048 1049 1050
f 1050 1049 1051
f 1050 1051 1052
f 1052 1051 1053
f 1052 1053 1054
f 1054 1053 1055
f 1054 1055 1056
f 1056 1055 1057
f 1056 1057 1058
f 1058 1057 1059
f 1058 1059 1060
f 1060 1059 1061
f 1060 1061 1062
f 1062 1061 1063
f 1062 1063 1064
f 1064 1063 1065
f 1064 1065 1066
f 1066 1065 1067
f 1066 1067 1068
f 1068 1067 1069
f 1068 1069 1033
f 1033 1069 1031
f 1070 1071 1072
f 1070 1073 1071
f 1074 1070 1072
f 1075 1074 1072
f 1076 1075 1072
f 1076 1077 1075
f 1077 1078 1075
f 1077 1079 1078
f 1079 1080 1078
f 1080 1081 1078
f 1081 1082 1078
f 1082 1083 1078
f 1082 1084 1083
f 1084 1085 1083
f 1085 1086 1083
f 1086 1087 1083
f 1087 1088 1083
f 1087 1089 1088
f 1089 1090 1088
f 1090 1091 1088
f 1091 1092 1088
f 1092 1093 1088
f 1092 1094 1093
f 1094 1095 1093
f 1094 1096 1095
f 1094 1097 1096
f 1097 1098 1096
f 1097 1099 1098
f 1099 1100 1098
f 1099 1101 1100
f 1099 1102 1101
f 1099 1103 1102
f 1103 1104 1102
f 1103 1105 1104
f 1103 1106 1105
f 1106 1107 1105
f 1106 1108 1107
f 1108 1109 1107
f 1108 1110 1109
f 1110 1111 1109
f 1110 1112 1111
f 1073 1113 1071
f 1113 1114 1071
f 1114 1115 1071
f 1114 1116 1115
f 1116 1117 1115
f 1117 1118 1115
f 1118 1119 1115
f 1118 1120 1119
f 1120 1121 1119
f 1121 1122 1119
f 1121 1123 1122
f 1123 1124 1122
f 1124 1125 1122
f 1124 1126 1125
f 1126 1127 1125
f 1127 1128 1125
f 1127 1129 1128
f 1129 1130 1128
f 1130 1131 1128
f 1130 1132 1131
f 1132 1133 1131
f 1133 1134 1131
f 1133 1135 1134
f 1135 1136 1134
f 1136 1137 1134
f 1136 1138 1137
f 1138 1139 1137
f 1139 1140 1137
f 1139 1141 1140
f 1141 1142 1140
f 1142 1143 1140
f 1142 1144 1143
f 1144 1145 1143
f 1144 1146 1145
f 1146 1147 1145
f 1147 1148 1145
f 1147 1149 1148
f 1149 1150 1148
f 1150 1151 1148
f 1150 1152 1151
f 1152 1153 1151
f 1152 1154 1153
f 1154 1155 1153
f 1155 1156 1153
f 1155 1157 1156
f 1157 1158 1156
f 1157 1159 1158
f 1159 1160 1158
f 1160 1161 1158
f 1160 1162 1161
f 1162 1163 1161
f 1162 1164 1163
f 1165 1163 1164
f 1165 1166 1163
f 1165 1164 1167
f 1168 1165 1167
f 1169 1168 1167
f 1170 1169 1167
f 1171 1170 1167
f 1172 1171 1167
f 1173 1172 1167
f 1173 1167 1174
f 1175 1173 1174
f 1176 1175 1174
f 1177 1176 1174
f 1177 1174 1178
f 1178 1174 1179
f 1174 1180 1179
f 1178 1179 1181
f 1182 1178 1181
f 1183 1182 1181
f 1184 1183 1181
f 1185 1184 1181
f 1185 1181 1163
f 1186 1185 1163
f 1187 1186 1163
f 1188 1187 1163
f 1189 1188 1163
f 1166 1189 1163
f 1180 1190 1179
f 1180 1191 1190
f 1191 1192 1190
f 1192 1193 1190
f 1192 1194 1193
f 1194 1195 1193
f 1194 1196 1195
f 1194 1197 1196
f 1194 1198 1197
f 1198 1199 1197
f 1199 1200 1197
f 1200 1201 1197
f 1201 1202 1197
f 1201 1203 1202
f 1203 1204 1202
f 1204 1205 1202
f 1205 1206 1202
f 1206 1207 1202
f 1207 1208 1202
f 1208 1209 1202
f 1208 1210 1209
f 1211 1209 1210
f 1211 1212 1209
f 1211 1210 1213
f 1214 1211 1213
f 1215 1214 1213
f 1216 1215 1213
f 1216 1213 1217
f 1218 1216 1217
f 1218 1217 1219
f 1220 1218 1219
f 1221 1220 1219
f 1221 1219 1222
f 1223 1221 1222
f 1224 1223 1222
f 1225 1224 1222
f 1225 1222 1226
f 1225 1226 1227
f 1227 1226 1228
f 1226 1229 1228
f 1227 1228 1209
f 1230 1227 1209
f 1231 1230 1209
f 1232 1231 1209
f 1233 1232 1209
f 1234 1233 1209
f 1235 1234 1209
f 1236 1235 1209
f 1237 1236 1209
f 1212 1237 1209
f 1229 1238 1228
f 1238 1239 1228
f 1239 1240 1228
f 1240 1241 1228
f 1241 1242 1228
f 1242 1243 1228
f 1242 1244 1243
f 1244 1245 1243
f 1245 1246 1243
f 1246 1247 1243
f 1247 1248 1243
f 1248 1249 1243
f 1249 1250 1243
f 1250 1251 1243
f 1251 1252 1243
f 1252 1253 1243
f 1253 1254 1243
f 1253 1255 1254
f 1255 1256 1254
f 1256 1257 1254
f 1258 1257 1256
f 1258 1259 1257
f 1260 1258 1256
f 1260 1256 1261
f 1262 1260 1261
f 1263 1262 1261
f 1264 1263 1261
f 1265 1264 1261
f 1266 1265 1261
f 1267 1266 1261
f 1268 1267 1261
f 1269 1268 1261
f 1269 1261 1270
f 1270 1261 1271
f 1261 1272 1271
f 1270 1271 1273
f 1274 1270 1273
f 1275 1274 1273
f 1276 1275 1273
f 1276 1273 1277
f 1278 1276 1277
f 1279 1278 1277
f 1279 1277 1280
f 1281 1279 1280
f 1282 1281 1280
f 1282 1280 1283
f 1284 1282 1283
f 1259 1284 1283
f 1259 1283 1257
f 1261 1285 1272
f 1261 1286 1285
f 1261 1287 1286
f 1261 1288 1287
f 1261 1289 1288
f 1261 1290 1289
f 1261 1291 1290
f 1291 1292 1290
f 1291 1293 1292
f 1293 1294 1292
f 1293 1295 1294
f 1295 1296 1294
f 1296 1297 1294
f 1296 1298 1297
f 1298 1299 1297
f 1299 1300 1297
f 1299 1301 1300
f 1301 1302 1300
f 1302 1303 1300
f 1302 1304 1303
f 1304 1305 1303
f 1305 1306 1303
f 1305 1307 1306
f 1307 1308 1306
f 1308 1309 1306
f 1308 1310 1309
