1315 1316 0
v -0.022879815 0.00750273 0.04378146
v -0.022723725 0.00749253 0.043691355
v -0.022566975 0.0075 0.043600845
v -0.0156888 0.00750087 0.03962973
v -0.01563426 0.00751008 0.039598245
v -0.01585689 0.0075 0.03972678
v -0.01574409 0.00749613 0.03966165
v -0.015800115 0.00749583 0.03969399
v -0.015580455 0.007523745 0.03956718
v -0.023035215 0.007530585 0.04387119
v -0.015526665 0.00754194 0.039536115
v -0.023113125 0.007551075 0.04391616
v -0.015472215 0.007564695 0.03950469
v -0.02319267 0.007575795 0.04396209
v -0.01541862 0.007591905 0.039473745
v -0.02327277 0.007604835 0.044008335
v -0.01536744 0.007623435 0.039444195
v -0.02335206 0.007638375 0.044054115
v -0.015320235 0.007659165 0.03941694
v -0.023429235 0.007676535 0.044098665
v -0.015277905 0.00769947 0.039392505
v -0.023502915 0.007719465 0.04414122
v -0.015238815 0.00774567 0.03936993
v -0.02357187 0.00776736 0.04418103
v -0.015203115 0.007796325 0.03934932
v -0.023637615 0.00782109 0.04421898
v -0.015171255 0.007849755 0.03933093
v -0.02370081 0.007880355 0.044255475
v -0.01512075 0.007958595 0.039301755
v -0.02376096 0.0079443 0.044290185
v -0.023817495 0.008012025 0.04432284
v -0.015089685 0.008073135 0.03928383
v -0.023869935 0.008082675 0.04435311
v -0.015073185 0.00818955 0.039274305
v -0.023960505 0.00823068 0.0444054
v -0.01506579 0.00829971 0.03927003
v -0.024032505 0.008394 0.044446965
v -0.015068985 0.008405805 0.039271875
v -0.015083145 0.008508405 0.03928005
v -0.024088875 0.00856491 0.044479515
v -0.015117375 0.008728335 0.03929982
v -0.02413254 0.00873225 0.04450473
v -0.015151035 0.00894564 0.03931926
v -0.024163545 0.008895915 0.044522625
v -0.024181125 0.0090588 0.04453278
v -0.01518411 0.009160365 0.03933834
v -0.02418528 0.009220905 0.044535165
v -0.0152166 0.00937248 0.039357105
v -0.015248505 0.009581985 0.039375525
v -0.024223035 0.0095823 0.044556975
v -0.015279825 0.009788895 0.0393936
v -0.0242607 0.00993975 0.044578725
v -0.01531056 0.00999321 0.03941136
v -0.01534071 0.010194915 0.03942876
v -0.02429826 0.01029327 0.0446004
v -0.01537158 0.01039395 0.03944658
v -0.015403725 0.010590285 0.039465135
v -0.024335715 0.01064286 0.04462203
v -0.01543602 0.01078398 0.03948378
v -0.015467355 0.010975095 0.03950187
v -0.024373065 0.010988505 0.044643585
v -0.01549662 0.011163675 0.039518775
v -0.02441031 0.01133022 0.044665095
v -0.01552272 0.01134981 0.03953385
v -0.01554453 0.011533545 0.039546435
v -0.024447435 0.01166799 0.04468653
v -0.015560925 0.011714925 0.0395559
v -0.01557303 0.011893815 0.03956289
v -0.02448447 0.01200183 0.04470792
v -0.015582345 0.01207005 0.039568275
v -0.015588435 0.01224375 0.039571785
v -0.02452146 0.012331725 0.044729265
v -0.01559082 0.012415065 0.039573165
v -0.015589035 0.0125841 0.03957213
v -0.024559965 0.01265772 0.044751495
v -0.015582615 0.01275099 0.039568425
v -0.015571095 0.012915855 0.03956178
v -0.02460003 0.0129798 0.044774625
v -0.01555401 0.013078815 0.03955191
v -0.015531585 0.01323981 0.039538965
v -0.02464068 0.01329795 0.0447981
v -0.015504375 0.013398705 0.03952326
v -0.01547238 0.013555485 0.03950478
v -0.02468097 0.01361217 0.044821365
v -0.015435585 0.01371015 0.03948354
v -0.02471994 0.01392243 0.044843865
v -0.015347625 0.014013165 0.03943275
v -0.02475666 0.014228715 0.04486506
v -0.01524051 0.01430775 0.039370905
v -0.024790155 0.014531025 0.044884395
v -0.010556325 0.02590704 0.036666495
v -0.024819495 0.01482933 0.044901345
v -0.024844035 0.015123555 0.044915505
v -0.024866085 0.015413235 0.04492824
v -0.024885915 0.01569849 0.044939685
v -0.024903075 0.01597962 0.0449496
v -0.024917145 0.016256895 0.044957715
v -0.02492766 0.016530615 0.04496379
v -0.024934185 0.016801065 0.044967555
v -0.0249363 0.01706853 0.04496877
v -0.02493354 0.017333295 0.04496718
v -0.024925785 0.017595435 0.04496271
v -0.024914025 0.01785426 0.044955915
v -0.024898245 0.018109785 0.04494681
v -0.024878325 0.01836213 0.044935305
v -0.02485413 0.018611415 0.04492134
v -0.02482551 0.018857775 0.04490481
v -0.02479236 0.0191013 0.04488567
v -0.02475453 0.019342125 0.04486383
v -0.0247119 0.019580385 0.044839215
v -0.02466447 0.01981605 0.04481184
v -0.02461245 0.02004894 0.04478181
v -0.024555855 0.020279025 0.044749125
v -0.024494685 0.020506335 0.044713815
v -0.02442894 0.02073087 0.04467585
v -0.024283725 0.021171555 0.044592015
v -0.024120195 0.02160108 0.04449759
v -0.01051242 0.026004 0.036641145
v -0.010473495 0.026101365 0.036618675
v -0.01043955 0.026199135 0.03659907
v -0.010410585 0.026297295 0.036582345
v -0.010386615 0.026395845 0.036568515
v -0.01036761 0.0264948 0.036557535
v -0.010353585 0.02659542 0.036549435
v -0.01034451 0.02669796 0.0365442
v -0.01034043 0.026800905 0.036541845
v -0.010341345 0.02690271 0.03654237
v -0.010347285 0.027001875 0.036545805
v -0.01035825 0.027096855 0.036552135
v -0.01037514 0.027188355 0.036561885
v -0.01039812 0.02727771 0.03657516
v -0.01045806 0.02744796 0.03660975
v -0.010529565 0.027603495 0.036651045
v -0.01061274 0.02774214 0.03669906
v -0.01070748 0.027866085 0.036753765
v -0.01080492 0.027977775 0.036810015
v -0.01090212 0.028078035 0.036866145
v -0.011002035 0.02816604 0.03692382
v -0.01110465 0.028241805 0.03698307
v -0.01138383 0.028461165 0.03714426
v -0.011665095 0.02867565 0.037306635
v -0.011948445 0.028885245 0.037470225
v -0.012233865 0.029089965 0.037635015
v -0.01252137 0.029289795 0.03780102
v -0.01281096 0.02948475 0.03796821
v -0.013102635 0.029674815 0.0381366
v -0.01339638 0.02985999 0.038306205
v -0.013692285 0.030040335 0.03847704
v -0.013990395 0.03021585 0.03864915
v -0.01429062 0.03038652 0.03882249
v -0.0145929 0.030552285 0.038997015
v -0.014897175 0.030713115 0.03917268
v -0.015203385 0.030868995 0.03934947
v -0.01551144 0.03101985 0.039527325
v -0.02026929 0.03113694 0.042274275
v -0.01582128 0.03116568 0.039706215
v -0.02020791 0.031301055 0.042238845
v -0.016132965 0.031306485 0.03988617
v -0.01644654 0.031442295 0.040067205
v -0.02013516 0.03145608 0.042196845
v -0.016762005 0.031573155 0.04024935
v -0.020051025 0.031602015 0.04214826
v -0.01707939 0.031699005 0.04043259
v -0.01995525 0.031741515 0.04209297
v -0.017398665 0.031819905 0.040616925
v -0.01984809 0.031871925 0.042031095
v -0.017719845 0.03193581 0.040802355
v -0.019730355 0.031985235 0.041963115
v -0.01804293 0.032046735 0.04098888
v -0.019600905 0.032079885 0.041888385
v -0.018367905 0.03215268 0.041176515
v -0.019460895 0.03215745 0.04180755
v -0.01844664 0.032181735 0.04122198
v -0.018525405 0.03220644 0.041267445
v -0.019314435 0.03221475 0.041722995
v -0.018604185 0.03222681 0.041312925
v -0.018682995 0.03224283 0.041358435
v -0.019160775 0.032249745 0.041634285
v -0.018761835 0.032254515 0.041403945
v -0.018840705 0.032261865 0.041449485
v -0.019000695 0.03226449 0.041541855
v -0.01892028 0.032265165 0.041495415
v -0.026316975 0.0075 0.03710565
v -0.022566975 0.0075 0.043600845
v -0.022723725 0.00749253 0.043691355
v -0.02135313 0.0075 0.03721899
v -0.026437245 0.007494 0.037175085
v -0.026560725 0.00749916 0.03724638
v -0.022879815 0.00750273 0.04378146
v -0.0266874 0.00751548 0.03731952
v -0.023035215 0.007530585 0.04387119
v -0.026818635 0.007541085 0.037395285
v -0.023113125 0.007551075 0.04391616
v -0.02319267 0.007575795 0.04396209
v -0.02695434 0.007576065 0.03747363
v -0.02327277 0.007604835 0.044008335
v -0.027089415 0.00762756 0.03755163
v -0.02335206 0.007638375 0.044054115
v -0.023429235 0.007676535 0.044098665
v -0.027221175 0.00770082 0.037627695
v -0.023502915 0.007719465 0.04414122
v -0.02357187 0.00776736 0.04418103
v -0.02735337 0.00779262 0.037704015
v -0.023637615 0.00782109 0.04421898
v -0.02370081 0.007880355 0.044255475
v -0.02747862 0.007904775 0.03777633
v -0.02376096 0.0079443 0.044290185
v -0.02753595 0.007969305 0.037809435
v -0.023817495 0.008012025 0.04432284
v -0.027589635 0.00804024 0.037840425
v -0.023869935 0.008082675 0.04435311
v -0.02764137 0.008117925 0.03787029
v -0.023960505 0.00823068 0.0444054
v -0.027690495 0.008201385 0.037898655
v -0.027736215 0.0082896 0.037925055
v -0.024032505 0.008394 0.044446965
v -0.02777778 0.00838161 0.037949055
v -0.02781441 0.00847638 0.037970205
v -0.024088875 0.00856491 0.044479515
v -0.027845475 0.008573115 0.03798813
v -0.02413254 0.00873225 0.04450473
v -0.027871755 0.008672805 0.03800331
v -0.027893505 0.00877581 0.038015865
v -0.024163545 0.008895915 0.044522625
v -0.027910725 0.00888213 0.03802581
v -0.02792343 0.00899175 0.038033145
v -0.024181125 0.0090588 0.04453278
v -0.02793162 0.00910467 0.03803787
v -0.02418528 0.009220905 0.044535165
v -0.02793528 0.009220905 0.038039985
v -0.024223035 0.0095823 0.044556975
v -0.027973035 0.0095823 0.03806178
v -0.0242607 0.00993975 0.044578725
v -0.0280107 0.00993975 0.03808353
v -0.02429826 0.01029327 0.0446004
v -0.02804826 0.01029327 0.03810522
v -0.024335715 0.01064286 0.04462203
v -0.028085715 0.01064286 0.038126835
v -0.024373065 0.010988505 0.044643585
v -0.028123065 0.010988505 0.03814839
v -0.02441031 0.01133022 0.044665095
v -0.02816031 0.01133022 0.0381699
v -0.024447435 0.01166799 0.04468653
v -0.028197435 0.01166799 0.03819135
v -0.02448447 0.01200183 0.04470792
v -0.02823447 0.01200183 0.038212725
v -0.02636394 0.01207032 0.041462895
v -0.02644014 0.012080925 0.041334525
v -0.02452146 0.012331725 0.044729265
v -0.02651757 0.01211271 0.041209785
v -0.026594715 0.012165195 0.041091285
v -0.026670465 0.01223769 0.04098153
v -0.026743215 0.012328905 0.040883055
v -0.02827146 0.012331725 0.038234085
v -0.02681055 0.01243647 0.04079823
v -0.02687082 0.012557385 0.04072911
v -0.028309965 0.01265772 0.038256315
v -0.026923785 0.01268919 0.040677105
v -0.026968005 0.012829905 0.04064244
v -0.027002325 0.012977505 0.040625595
v -0.02835003 0.0129798 0.03827943
v -0.02702688 0.01312884 0.0406278
v -0.02704038 0.013280325 0.040648875
v -0.02839068 0.01329795 0.038302905
v -0.02704185 0.013428465 0.04068795
v -0.027032235 0.0135705 0.04074486
v -0.02843097 0.01361217 0.03832617
v -0.027011565 0.013703055 0.04081818
v -0.026979975 0.013822995 0.04090557
v -0.02846994 0.01392243 0.03834867
v -0.02693877 0.013928025 0.04100523
v -0.026889 0.014016495 0.0411153
v -0.02683143 0.01408701 0.04123359
v -0.026767335 0.01413825 0.041357775
v -0.026698275 0.0141693 0.04148544
v -0.026625705 0.014179695 0.04161402
v -0.02850666 0.014228715 0.038369865
v -0.02475666 0.014228715 0.04486506
v -0.026549175 0.014168895 0.04174356
v -0.024790155 0.014531025 0.044884395
v -0.028540155 0.014531025 0.038389215
v -0.024819495 0.01482933 0.044901345
v -0.028569495 0.01482933 0.03840615
v -0.024844035 0.015123555 0.044915505
v -0.028594035 0.015123555 0.038420325
v -0.024866085 0.015413235 0.04492824
v -0.028616085 0.015413235 0.038433045
v -0.024885915 0.01569849 0.044939685
v -0.028635915 0.01569849 0.03844449
v -0.024903075 0.01597962 0.0449496
v -0.028653075 0.01597962 0.038454405
v -0.024917145 0.016256895 0.044957715
v -0.028667145 0.016256895 0.03846252
v -0.02492766 0.016530615 0.04496379
v -0.02867766 0.016530615 0.038468595
v -0.024934185 0.016801065 0.044967555
v -0.028684185 0.016801065 0.03847236
v -0.0249363 0.01706853 0.04496877
v -0.0286863 0.01706853 0.03847359
v -0.02493354 0.017333295 0.04496718
v -0.02868354 0.017333295 0.038471985
v -0.024925785 0.017595435 0.04496271
v -0.028675785 0.017595435 0.038467515
v -0.024914025 0.01785426 0.044955915
v -0.028664025 0.01785426 0.03846072
v -0.024898245 0.018109785 0.04494681
v -0.028648245 0.018109785 0.038451615
v -0.024878325 0.01836213 0.044935305
v -0.028628325 0.01836213 0.03844011
v -0.02485413 0.018611415 0.04492134
v -0.02860413 0.018611415 0.038426145
v -0.02482551 0.018857775 0.04490481
v -0.02857551 0.018857775 0.03840963
v -0.02479236 0.0191013 0.04488567
v -0.02854236 0.0191013 0.03839049
v -0.02475453 0.019342125 0.04486383
v -0.02850453 0.019342125 0.03836865
v -0.0247119 0.019580385 0.044839215
v -0.0284619 0.019580385 0.038344035
v -0.02466447 0.01981605 0.04481184
v -0.02841447 0.01981605 0.038316645
v -0.02461245 0.02004894 0.04478181
v -0.02836245 0.02004894 0.038286615
v -0.024555855 0.020279025 0.044749125
v -0.028305855 0.020279025 0.038253945
v -0.024494685 0.020506335 0.044713815
v -0.028244685 0.020506335 0.03821862
v -0.02442894 0.02073087 0.04467585
v -0.02817894 0.02073087 0.038180655
v -0.024283725 0.021171555 0.044592015
v -0.028033725 0.021171555 0.03809682
v -0.024120195 0.02160108 0.04449759
v -0.027870195 0.02160108 0.03800241
v -0.023753655 0.026056785 0.040977015
v -0.023856165 0.025948935 0.040900035
v -0.023653155 0.02617959 0.04103652
v -0.023560605 0.026310375 0.041074875
v -0.02026929 0.03113694 0.042274275
v -0.02347656 0.02644842 0.04109169
v -0.02339937 0.026595705 0.04108803
v -0.02332905 0.02675223 0.041063865
v -0.02327295 0.026908755 0.04101504
v -0.02323119 0.02705604 0.04095003
v -0.023203725 0.027194085 0.040868835
v -0.02319066 0.02732487 0.040769505
v -0.023191965 0.027447675 0.040652715
v -0.02320737 0.027555525 0.040525455
v -0.02323731 0.02764446 0.040390635
v -0.02328213 0.0277176 0.04024479
v -0.02333907 0.027771465 0.04009596
v -0.02340648 0.027802935 0.039949845
v -0.023486475 0.027813315 0.0398016
v -0.02357487 0.027802935 0.039658185
v -0.02366769 0.027771465 0.039526755
v -0.02376813 0.0277176 0.03940302
v -0.02387202 0.02764446 0.039291285
v -0.023973795 0.027555525 0.039197955
v -0.02401929 0.03113694 0.03577908
v -0.02020791 0.031301055 0.042238845
v -0.02407632 0.027447675 0.039120975
v -0.024176805 0.02732487 0.039061455
v -0.02426937 0.027194085 0.0390231
v -0.0243534 0.02705604 0.039006285
v -0.02443059 0.026908755 0.03900996
v -0.024500925 0.02675223 0.03903411
v -0.02455701 0.026595705 0.03908295
v -0.024598785 0.02644842 0.03914796
v -0.024626235 0.026310375 0.03922914
v -0.0246393 0.02617959 0.039328485
v -0.02463801 0.026056785 0.03944526
v -0.02462259 0.025948935 0.039572535
v -0.02459265 0.02586 0.03970734
v -0.02454783 0.02578686 0.039853185
v -0.024490905 0.025732995 0.04000203
v -0.02442348 0.025701525 0.040148145
v -0.024343485 0.025691145 0.04029639
v -0.024255105 0.025701525 0.04043979
v -0.02416227 0.025732995 0.040571235
v -0.02406183 0.02578686 0.040694955
v -0.02395794 0.02586 0.04080669
v -0.0239895 0.03122511 0.03576189
v -0.023955915 0.03131091 0.035742495
v -0.02013516 0.03145608 0.042196845
v -0.023918535 0.03139437 0.03572091
v -0.02387736 0.03147546 0.03569715
v -0.020051025 0.031602015 0.04214826
v -0.02383239 0.03155421 0.035671185
v -0.02378364 0.03163059 0.03564303
v -0.01995525 0.031741515 0.04209297
v -0.023730435 0.031706025 0.03561231
v -0.023672655 0.031780785 0.03557895
v -0.01984809 0.031871925 0.042031095
v -0.02361108 0.031853205 0.0355434
v -0.02354649 0.03192156 0.03550611
v -0.019730355 0.031985235 0.041963115
v -0.02347968 0.0319842 0.035467545
v -0.02341143 0.032039415 0.03542814
v -0.019600905 0.032079885 0.041888385
v -0.02334069 0.032087355 0.035387295
v -0.019460895 0.03215745 0.04180755
v -0.023266605 0.03212937 0.03534453
v -0.0231903 0.03216567 0.035300475
v -0.019314435 0.03221475 0.041722995
v -0.023112885 0.03219642 0.035255775
v -0.02295912 0.032242005 0.035167005
v -0.019160775 0.032249745 0.041634285
v -0.02280591 0.032263455 0.035078535
v -0.019000695 0.03226449 0.041541855
v -0.01892028 0.032265165 0.041495415
v -0.022652655 0.03226344 0.034990065
v -0.018840705 0.032261865 0.041449485
v -0.018761835 0.032254515 0.041403945
v -0.022506525 0.03225141 0.03490569
v -0.018682995 0.03224283 0.041358435
v -0.022369875 0.032230515 0.03482679
v -0.018604185 0.03222681 0.041312925
v -0.018525405 0.03220644 0.041267445
v -0.022240335 0.032197605 0.034752015
v -0.01844664 0.032181735 0.04122198
v -0.018367905 0.03215268 0.041176515
v -0.022117905 0.03215268 0.03468132
v -0.01804293 0.032046735 0.04098888
v -0.02179293 0.032046735 0.0344937
v -0.017719845 0.03193581 0.040802355
v -0.021469845 0.03193581 0.03430716
v -0.017398665 0.031819905 0.040616925
v -0.021148665 0.031819905 0.03412173
v -0.01707939 0.031699005 0.04043259
v -0.02082939 0.031699005 0.033937395
v -0.016762005 0.031573155 0.04024935
v -0.020512005 0.031573155 0.033754155
v -0.01644654 0.031442295 0.040067205
v -0.02019654 0.031442295 0.03357201
v -0.016132965 0.031306485 0.03988617
v -0.019882965 0.031306485 0.033390975
v -0.01582128 0.03116568 0.039706215
v -0.01957128 0.03116568 0.033211035
v -0.01551144 0.03101985 0.039527325
v -0.01926144 0.03101985 0.033032145
v -0.015203385 0.030868995 0.03934947
v -0.018953385 0.030868995 0.032854275
v -0.014897175 0.030713115 0.03917268
v -0.018647175 0.030713115 0.0326775
v -0.0145929 0.030552285 0.038997015
v -0.0183429 0.030552285 0.03250182
v -0.01429062 0.03038652 0.03882249
v -0.01804062 0.03038652 0.032327295
v -0.013990395 0.03021585 0.03864915
v -0.017740395 0.03021585 0.032153955
v -0.013692285 0.030040335 0.03847704
v -0.017442285 0.030040335 0.031981845
v -0.01339638 0.02985999 0.038306205
v -0.01714638 0.02985999 0.03181101
v -0.013102635 0.029674815 0.0381366
v -0.016852635 0.029674815 0.031641405
v -0.01281096 0.02948475 0.03796821
v -0.01656096 0.02948475 0.031473015
v -0.01252137 0.029289795 0.03780102
v -0.01627137 0.029289795 0.031305825
v -0.012233865 0.029089965 0.037635015
v -0.015983865 0.029089965 0.031139835
v -0.011948445 0.028885245 0.037470225
v -0.015698445 0.028885245 0.030975045
v -0.011665095 0.02867565 0.037306635
v -0.015415095 0.02867565 0.030811455
v -0.01138383 0.028461165 0.03714426
v -0.01513383 0.028461165 0.030649065
v -0.01110465 0.028241805 0.03698307
v -0.01485465 0.028241805 0.030487875
v -0.011002035 0.02816604 0.03692382
v -0.014779545 0.02818644 0.03044451
v -0.014707725 0.02812788 0.03040305
v -0.01090212 0.028078035 0.036866145
v -0.014639175 0.028066125 0.03036348
v -0.01080492 0.027977775 0.036810015
v -0.014573925 0.02800116 0.0303258
v -0.01451193 0.027933 0.03029001
v -0.01070748 0.027866085 0.036753765
v -0.014452875 0.02786124 0.030255915
v -0.01061274 0.02774214 0.03669906
v -0.014396055 0.027785055 0.03022311
v -0.0143424 0.027705555 0.030192135
v -0.010529565 0.027603495 0.036651045
v -0.014292945 0.02762391 0.030163575
v -0.014248725 0.027541335 0.030138045
v -0.01045806 0.02744796 0.03660975
v -0.01421073 0.02745879 0.030116115
v -0.01417863 0.02737458 0.030097575
v -0.01039812 0.02727771 0.03657516
v -0.01412994 0.027202605 0.030069465
v -0.01037514 0.027188355 0.036561885
v -0.01035825 0.027096855 0.036552135
v -0.01409925 0.02703258 0.03005175
v -0.010347285 0.027001875 0.036545805
v -0.010341345 0.02690271 0.03654237
v -0.0140871 0.026865885 0.03004473
v -0.01034043 0.026800905 0.036541845
v -0.01409187 0.0267027 0.03004749
v -0.01034451 0.02669796 0.0365442
v -0.010353585 0.02659542 0.036549435
v -0.01410777 0.02654877 0.03005667
v -0.01036761 0.0264948 0.036557535
v -0.01413711 0.02640399 0.030073605
v -0.010386615 0.026395845 0.036568515
v -0.010410585 0.026297295 0.036582345
v -0.01417467 0.02626743 0.030095295
v -0.01043955 0.026199135 0.03659907
v -0.01421424 0.02613909 0.03011814
v -0.010473495 0.026101365 0.036618675
v -0.014257995 0.026018955 0.0301434
v -0.01051242 0.026004 0.036641145
v -0.010556325 0.02590704 0.036666495
v -0.014306325 0.02590704 0.0301713
v -0.013494405 0.022325625 0.034917675
v -0.01352436 0.02241456 0.034782855
v -0.013479 0.022217775 0.035044935
v -0.01347771 0.02209497 0.035161725
v -0.013490775 0.021964185 0.035261055
v -0.013518225 0.02182614 0.03534225
v -0.01524051 0.01430775 0.039370905
v -0.01356 0.021678855 0.03540726
v -0.013616085 0.02152233 0.035456085
v -0.01368642 0.021365805 0.03548025
v -0.013763595 0.02121852 0.03548391
v -0.01384764 0.021080475 0.035467095
v -0.013940205 0.02094969 0.03542874
v -0.01404069 0.020826885 0.035369235
v -0.0141432 0.020719035 0.035292255
v -0.014244975 0.0206301 0.03519891
v -0.014348865 0.02055696 0.035087175
v -0.014449305 0.020503095 0.034963455
v -0.01454214 0.020471625 0.03483201
v -0.01463052 0.020461245 0.03468861
v -0.01471053 0.020471625 0.034540365
v -0.01477794 0.020503095 0.03439425
v -0.014834865 0.02055696 0.034245405
v -0.014879685 0.0206301 0.03409956
v -0.01490964 0.020719035 0.033964755
v -0.014925045 0.020826885 0.03383748
v -0.014926335 0.02094969 0.033720705
v -0.01899051 0.01430775 0.032875725
v -0.015347625 0.014013165 0.03943275
v -0.01491327 0.021080475 0.03362136
v -0.01488582 0.02121852 0.03354018
v -0.014844045 0.021365805 0.03347517
v -0.01478796 0.02152233 0.03342633
v -0.014717625 0.021678855 0.03340218
v -0.01464045 0.02182614 0.033398505
v -0.014556405 0.021964185 0.03341532
v -0.01446384 0.02209497 0.033453675
v -0.014363355 0.022217775 0.033513195
v -0.014260845 0.022325625 0.033590175
v -0.01415907 0.02241456 0.033683505
v -0.01405518 0.022487685 0.03379524
v -0.01395474 0.022541565 0.033918975
v -0.013861905 0.022573035 0.034050405
v -0.013773525 0.022583415 0.03419382
v -0.013693515 0.022573035 0.034342065
v -0.013626105 0.022541565 0.03448818
v -0.01356918 0.022487685 0.03463701
v -0.019097625 0.014013165 0.03293757
v -0.015435585 0.01371015 0.03948354
v -0.019185585 0.01371015 0.032988345
v -0.01547238 0.013555485 0.03950478
v -0.01922238 0.013555485 0.033009585
v -0.015504375 0.013398705 0.03952326
v -0.019254375 0.013398705 0.033028065
v -0.015531585 0.01323981 0.039538965
v -0.019281585 0.01323981 0.03304377
v -0.01555401 0.013078815 0.03955191
v -0.01930401 0.013078815 0.033056715
v -0.015571095 0.012915855 0.03956178
v -0.019321095 0.012915855 0.033066585
v -0.015582615 0.01275099 0.039568425
v -0.019332615 0.01275099 0.03307323
v -0.015589035 0.0125841 0.03957213
v -0.019339035 0.0125841 0.033076935
v -0.01559082 0.012415065 0.039573165
v -0.01934082 0.012415065 0.03307797
v -0.015588435 0.01224375 0.039571785
v -0.019338435 0.01224375 0.03307659
v -0.015582345 0.01207005 0.039568275
v -0.019332345 0.01207005 0.03307308
v -0.01557303 0.011893815 0.03956289
v -0.01932303 0.011893815 0.033067695
v -0.015560925 0.011714925 0.0395559
v -0.019310925 0.011714925 0.033060705
v -0.01554453 0.011533545 0.039546435
v -0.01929453 0.011533545 0.03305124
v -0.01552272 0.01134981 0.03953385
v -0.01927272 0.01134981 0.033038655
v -0.01549662 0.011163675 0.039518775
v -0.01924662 0.011163675 0.03302358
v -0.015467355 0.010975095 0.03950187
v -0.019217355 0.010975095 0.03300669
v -0.01543602 0.01078398 0.03948378
v -0.01918602 0.01078398 0.032988585
v -0.015403725 0.010590285 0.039465135
v -0.019153725 0.010590285 0.032969955
v -0.01537158 0.01039395 0.03944658
v -0.01912158 0.01039395 0.0329514
v -0.01534071 0.010194915 0.03942876
v -0.01909071 0.010194915 0.032933565
v -0.01531056 0.00999321 0.03941136
v -0.01906056 0.00999321 0.032916165
v -0.015279825 0.009788895 0.0393936
v -0.019029825 0.009788895 0.03289842
v -0.015248505 0.009581985 0.039375525
v -0.018998505 0.009581985 0.03288033
v -0.0152166 0.00937248 0.039357105
v -0.0189666 0.00937248 0.03286191
v -0.01518411 0.009160365 0.03933834
v -0.01893411 0.009160365 0.03284316
v -0.015151035 0.00894564 0.03931926
v -0.018901035 0.00894564 0.032824065
v -0.015117375 0.008728335 0.03929982
v -0.018867375 0.008728335 0.032804625
v -0.015083145 0.008508405 0.03928005
v -0.018833145 0.008508405 0.03278487
v -0.015068985 0.008405805 0.039271875
v -0.018818535 0.008397765 0.032776425
v -0.01506579 0.00829971 0.03927003
v -0.018815895 0.008285505 0.03277491
v -0.015073185 0.00818955 0.039274305
v -0.018824925 0.008171025 0.032780115
v -0.015089685 0.008073135 0.03928383
v -0.01884456 0.008052075 0.032791455
v -0.01512075 0.007958595 0.039301755
v -0.018878775 0.00793704 0.03281121
v -0.015171255 0.007849755 0.03933093
v -0.01893156 0.00783051 0.032841675
v -0.015203115 0.007796325 0.03934932
v -0.018964425 0.00777924 0.03286065
v -0.015238815 0.00774567 0.03936993
v -0.01900086 0.007731015 0.032881695
v -0.015277905 0.00769947 0.039392505
v -0.019040325 0.007687155 0.03290448
v -0.015320235 0.007659165 0.03941694
v -0.01908252 0.007648845 0.03292884
v -0.01536744 0.007623435 0.039444195
v -0.019129005 0.00761511 0.03295569
v -0.01541862 0.007591905 0.039473745
v -0.01917906 0.00758559 0.03298458
v -0.015472215 0.007564695 0.03950469
v -0.019231305 0.00756027 0.033014745
v -0.015526665 0.00754194 0.039536115
v -0.019284345 0.00753912 0.03304536
v -0.015580455 0.007523745 0.03956718
v -0.01933686 0.007522155 0.033075675
v -0.01563426 0.00751008 0.039598245
v -0.019389435 0.00750936 0.033106035
v -0.0156888 0.00750087 0.03962973
v -0.01574409 0.00749613 0.03966165
v -0.019496745 0.00749631 0.033167985
v -0.015800115 0.00749583 0.03969399
v -0.01585689 0.0075 0.03972678
v -0.01960689 0.0075 0.033231585
v -0.017876205 0.0075 0.0365625
v -0.017996295 0.0075 0.036382245
v -0.01778013 0.0075 0.03675663
v -0.01770717 0.0075 0.036953805
v -0.01765731 0.0075 0.03715401
v -0.01763061 0.0075 0.03735825
v -0.01762728 0.0075 0.037569405
v -0.01764687 0.0075 0.03778101
v -0.017688885 0.0075 0.03798528
v -0.017754645 0.0075 0.038183205
v -0.017843475 0.0075 0.038376255
v -0.01795194 0.0075 0.038557455
v -0.01807791 0.0075 0.038721615
v -0.01822485 0.0075 0.038873295
v -0.018388335 0.0075 0.03900906
v -0.0185625 0.0075 0.039123795
v -0.01874895 0.0075 0.03921726
v -0.01894827 0.0075 0.039290955
v -0.019153095 0.0075 0.039342375
v -0.01935825 0.0075 0.03936939
v -0.019569405 0.0075 0.03937272
v -0.01978101 0.0075 0.03935313
v -0.01998528 0.0075 0.039311115
v -0.020183205 0.0075 0.039245355
v -0.020376255 0.0075 0.039156525
v -0.020557455 0.0075 0.03904806
v -0.02072097 0.0075 0.038922825
v -0.02086944 0.0075 0.038779545
v -0.021003705 0.0075 0.038617755
v -0.021123795 0.0075 0.0384375
v -0.02121987 0.0075 0.03824337
v -0.02129283 0.0075 0.038046195
v -0.02134269 0.0075 0.03784599
v -0.02136939 0.0075 0.03764175
v -0.02137272 0.0075 0.037430595
v -0.01813056 0.0075 0.036220455
v -0.01827903 0.0075 0.036077175
v -0.018442545 0.0075 0.03595194
v -0.018623745 0.0075 0.035843475
v -0.018816795 0.0075 0.035754645
v -0.01901472 0.0075 0.035688885
v -0.01921899 0.0075 0.03564687
v -0.019430595 0.0075 0.03562728
v -0.019641765 0.0075 0.03563061
v -0.019846905 0.0075 0.035657625
v -0.02005173 0.0075 0.035709045
v -0.02025105 0.0075 0.03578274
v -0.0204375 0.0075 0.035876205
v -0.020611665 0.0075 0.03599094
v -0.02077515 0.0075 0.036126705
v -0.02092209 0.0075 0.036278385
v -0.02104806 0.0075 0.036442545
v -0.021156525 0.0075 0.036623745
v -0.021245355 0.0075 0.036816795
v -0.021311115 0.0075 0.03701472
v -0.026471715 0.014136675 0.041869365
v -0.02639487 0.01408353 0.04198881
v -0.026319885 0.014010315 0.04209936
v -0.02471994 0.01392243 0.044843865
v -0.026248275 0.013918395 0.042198525
v -0.026182155 0.01381011 0.04228386
v -0.02612289 0.01368822 0.0423534
v -0.02468097 0.01361217 0.044821365
v -0.02607093 0.01355517 0.042405675
v -0.026027805 0.01341372 0.04244016
v -0.02464068 0.01329795 0.0447981
v -0.025994535 0.01326681 0.04245642
v -0.02597079 0.013117605 0.042453735
v -0.02460003 0.0129798 0.044774625
v -0.025957515 0.01296867 0.042432645
v -0.02595558 0.012822585 0.04239384
v -0.025964055 0.01268241 0.042337455
v -0.024559965 0.01265772 0.044751495
v -0.025983135 0.012551085 0.042264795
v -0.026013195 0.01243128 0.04217772
v -0.02605299 0.01232535 0.042077445
v -0.026101635 0.012235665 0.041966145
v -0.02615847 0.01216422 0.041846625
v -0.026222175 0.01211232 0.04172133
v -0.02629116 0.01208085 0.04159257
v -0.02629116 0.01208085 0.04159257
v -0.02636394 0.01207032 0.041462895
v -0.02452146 0.012331725 0.044729265
v -0.0266874 0.00751548 0.03731952
v -0.01960689 0.0075 0.033231585
v -0.026316975 0.0075 0.03710565
v -0.019389435 0.00750936 0.033106035
v -0.026560725 0.00749916 0.03724638
v -0.026437245 0.007494 0.037175085
v -0.01933686 0.007522155 0.033075675
v -0.019496745 0.00749631 0.033167985
v -0.026818635 0.007541085 0.037395285
v -0.019284345 0.00753912 0.03304536
v -0.019231305 0.00756027 0.033014745
v -0.02695434 0.007576065 0.03747363
v -0.01917906 0.00758559 0.03298458
v -0.027089415 0.00762756 0.03755163
v -0.019129005 0.00761511 0.03295569
v -0.01908252 0.007648845 0.03292884
v -0.027221175 0.00770082 0.037627695
v -0.019040325 0.007687155 0.03290448
v -0.01900086 0.007731015 0.032881695
v -0.02735337 0.00779262 0.037704015
v -0.018964425 0.00777924 0.03286065
v -0.01893156 0.00783051 0.032841675
v -0.02747862 0.007904775 0.03777633
v -0.018878775 0.00793704 0.03281121
v -0.02753595 0.007969305 0.037809435
v -0.027589635 0.00804024 0.037840425
v -0.01884456 0.008052075 0.032791455
v -0.02764137 0.008117925 0.03787029
v -0.018824925 0.008171025 0.032780115
v -0.027690495 0.008201385 0.037898655
v -0.018815895 0.008285505 0.03277491
v -0.027736215 0.0082896 0.037925055
v -0.02777778 0.00838161 0.037949055
v -0.018818535 0.008397765 0.032776425
v -0.02781441 0.00847638 0.037970205
v -0.018833145 0.008508405 0.03278487
v -0.027845475 0.008573115 0.03798813
v -0.027871755 0.008672805 0.03800331
v -0.018867375 0.008728335 0.032804625
v -0.027893505 0.00877581 0.038015865
v -0.027910725 0.00888213 0.03802581
v -0.018901035 0.00894564 0.032824065
v -0.02792343 0.00899175 0.038033145
v -0.02793162 0.00910467 0.03803787
v -0.01893411 0.009160365 0.03284316
v -0.02793528 0.009220905 0.038039985
v -0.0189666 0.00937248 0.03286191
v -0.027973035 0.0095823 0.03806178
v -0.018998505 0.009581985 0.03288033
v -0.019029825 0.009788895 0.03289842
v -0.0280107 0.00993975 0.03808353
v -0.01906056 0.00999321 0.032916165
v -0.02804826 0.01029327 0.03810522
v -0.01909071 0.010194915 0.032933565
v -0.01912158 0.01039395 0.0329514
v -0.028085715 0.01064286 0.038126835
v -0.019153725 0.010590285 0.032969955
v -0.01918602 0.01078398 0.032988585
v -0.028123065 0.010988505 0.03814839
v -0.019217355 0.010975095 0.03300669
v -0.01924662 0.011163675 0.03302358
v -0.02816031 0.01133022 0.0381699
v -0.01927272 0.01134981 0.033038655
v -0.028197435 0.01166799 0.03819135
v -0.01929453 0.011533545 0.03305124
v -0.019310925 0.011714925 0.033060705
v -0.02823447 0.01200183 0.038212725
v -0.01932303 0.011893815 0.033067695
v -0.019332345 0.01207005 0.03307308
v -0.02827146 0.012331725 0.038234085
v -0.019338435 0.01224375 0.03307659
v -0.01934082 0.012415065 0.03307797
v -0.028309965 0.01265772 0.038256315
v -0.019339035 0.0125841 0.033076935
v -0.019332615 0.01275099 0.03307323
v -0.02835003 0.0129798 0.03827943
v -0.019321095 0.012915855 0.033066585
v -0.01930401 0.013078815 0.033056715
v -0.02839068 0.01329795 0.038302905
v -0.019281585 0.01323981 0.03304377
v -0.019254375 0.013398705 0.033028065
v -0.02843097 0.01361217 0.03832617
v -0.01922238 0.013555485 0.033009585
v -0.019185585 0.01371015 0.032988345
v -0.02846994 0.01392243 0.03834867
v -0.019097625 0.014013165 0.03293757
v -0.02850666 0.014228715 0.038369865
v -0.01899051 0.01430775 0.032875725
v -0.028540155 0.014531025 0.038389215
v -0.028569495 0.01482933 0.03840615
v -0.028594035 0.015123555 0.038420325
v -0.028616085 0.015413235 0.038433045
v -0.028635915 0.01569849 0.03844449
v -0.028653075 0.01597962 0.038454405
v -0.028667145 0.016256895 0.03846252
v -0.02867766 0.016530615 0.038468595
v -0.028684185 0.016801065 0.03847236
v -0.0286863 0.01706853 0.03847359
v -0.02868354 0.017333295 0.038471985
v -0.028675785 0.017595435 0.038467515
v -0.028664025 0.01785426 0.03846072
v -0.028648245 0.018109785 0.038451615
v -0.028628325 0.01836213 0.03844011
v -0.02860413 0.018611415 0.038426145
v -0.02857551 0.018857775 0.03840963
v -0.02854236 0.0191013 0.03839049
v -0.02850453 0.019342125 0.03836865
v -0.0284619 0.019580385 0.038344035
v -0.02841447 0.01981605 0.038316645
v -0.02836245 0.02004894 0.038286615
v -0.028305855 0.020279025 0.038253945
v -0.028244685 0.020506335 0.03821862
v -0.02817894 0.02073087 0.038180655
v -0.028033725 0.021171555 0.03809682
v -0.027870195 0.02160108 0.03800241
v -0.014306325 0.02590704 0.0301713
v -0.02401929 0.03113694 0.03577908
v -0.014257995 0.026018955 0.0301434
v -0.01421424 0.02613909 0.03011814
v -0.01417467 0.02626743 0.030095295
v -0.01413711 0.02640399 0.030073605
v -0.01410777 0.02654877 0.03005667
v -0.01409187 0.0267027 0.03004749
v -0.0140871 0.026865885 0.03004473
v -0.01409925 0.02703258 0.03005175
v -0.01412994 0.027202605 0.030069465
v -0.01417863 0.02737458 0.030097575
v -0.01421073 0.02745879 0.030116115
v -0.014248725 0.027541335 0.030138045
v -0.014292945 0.02762391 0.030163575
v -0.0143424 0.027705555 0.030192135
v -0.014396055 0.027785055 0.03022311
v -0.014452875 0.02786124 0.030255915
v -0.01451193 0.027933 0.03029001
v -0.014573925 0.02800116 0.0303258
v -0.014639175 0.028066125 0.03036348
v -0.014707725 0.02812788 0.03040305
v -0.014779545 0.02818644 0.03044451
v -0.01485465 0.028241805 0.030487875
v -0.01513383 0.028461165 0.030649065
v -0.015415095 0.02867565 0.030811455
v -0.015698445 0.028885245 0.030975045
v -0.015983865 0.029089965 0.031139835
v -0.01627137 0.029289795 0.031305825
v -0.01656096 0.02948475 0.031473015
v -0.016852635 0.029674815 0.031641405
v -0.01714638 0.02985999 0.03181101
v -0.017442285 0.030040335 0.031981845
v -0.017740395 0.03021585 0.032153955
v -0.01804062 0.03038652 0.032327295
v -0.0183429 0.030552285 0.03250182
v -0.018647175 0.030713115 0.0326775
v -0.018953385 0.030868995 0.032854275
v -0.01926144 0.03101985 0.033032145
v -0.01957128 0.03116568 0.033211035
v -0.0239895 0.03122511 0.03576189
v -0.019882965 0.031306485 0.033390975
v -0.023955915 0.03131091 0.035742495
v -0.023918535 0.03139437 0.03572091
v -0.02019654 0.031442295 0.03357201
v -0.02387736 0.03147546 0.03569715
v -0.02383239 0.03155421 0.035671185
v -0.020512005 0.031573155 0.033754155
v -0.02378364 0.03163059 0.03564303
v -0.02082939 0.031699005 0.033937395
v -0.023730435 0.031706025 0.03561231
v -0.023672655 0.031780785 0.03557895
v -0.021148665 0.031819905 0.03412173
v -0.02361108 0.031853205 0.0355434
v -0.02354649 0.03192156 0.03550611
v -0.021469845 0.03193581 0.03430716
v -0.02347968 0.0319842 0.035467545
v -0.02341143 0.032039415 0.03542814
v -0.02179293 0.032046735 0.0344937
v -0.02334069 0.032087355 0.035387295
v -0.023266605 0.03212937 0.03534453
v -0.022117905 0.03215268 0.03468132
v -0.0231903 0.03216567 0.035300475
v -0.023112885 0.03219642 0.035255775
v -0.022240335 0.032197605 0.034752015
v -0.02295912 0.032242005 0.035167005
v -0.022369875 0.032230515 0.03482679
v -0.022506525 0.03225141 0.03490569
v -0.02280591 0.032263455 0.035078535
v -0.022652655 0.03226344 0.034990065
v -0.017876205 0.020625 0.0365625
v -0.017876205 0.0075 0.0365625
v -0.01778013 0.0075 0.03675663
v -0.017998485 0.020625 0.036380805
v -0.017779995 0.020625 0.03675924
v -0.01770717 0.0075 0.036953805
v -0.01770693 0.020625 0.03695772
v -0.01765731 0.0075 0.03715401
v -0.01765701 0.020625 0.03715794
v -0.01763061 0.0075 0.03735825
v -0.017630235 0.020625 0.037359885
v -0.01762728 0.0075 0.037569405
v -0.01762719 0.020625 0.037567395
v -0.01764687 0.0075 0.03778101
v -0.01764768 0.020625 0.037779195
v -0.017688885 0.0075 0.03798528
v -0.017690535 0.020625 0.03798762
v -0.017754645 0.0075 0.038183205
v -0.017754615 0.020625 0.03818502
v -0.017843475 0.0075 0.038376255
v -0.0178419 0.020625 0.0383733
v -0.01795194 0.0075 0.038557455
v -0.017952255 0.020625 0.038555235
v -0.01807791 0.0075 0.038721615
v -0.0180813 0.020625 0.038724435
v -0.01822485 0.0075 0.038873295
v -0.01822467 0.020625 0.038874465
v -0.018388335 0.0075 0.03900906
v -0.01838502 0.020625 0.03900624
v -0.0185625 0.0075 0.039123795
v -0.01856337 0.020625 0.03912228
v -0.01874895 0.0075 0.03921726
v -0.018753045 0.020625 0.03921873
v -0.01894827 0.0075 0.039290955
v -0.01894734 0.020625 0.039291705
v -0.019153095 0.0075 0.039342375
v -0.01914897 0.020625 0.039340845
v -0.01935825 0.0075 0.03936939
v -0.019360005 0.020625 0.03936801
v -0.019569405 0.0075 0.03937272
v -0.01957275 0.020625 0.0393726
v -0.01978101 0.0075 0.03935313
v -0.01977945 0.020625 0.03935406
v -0.01998528 0.0075 0.039311115
v -0.019982445 0.020625 0.03931086
v -0.020183205 0.0075 0.039245355
v -0.020184375 0.020625 0.039243765
v -0.020376255 0.0075 0.039156525
v -0.020318595 0.01311765 0.03918687
v -0.020327625 0.01327104 0.03918246
v -0.02033022 0.01296519 0.03918117
v -0.020361495 0.012823365 0.03916536
v -0.020413455 0.012688425 0.039137445
v -0.020557455 0.0075 0.03904806
v -0.020482035 0.01256166 0.03909726
v -0.020562435 0.012446115 0.03904494
v -0.02072097 0.0075 0.038922825
v -0.020656365 0.0123381 0.038975955
v -0.02075709 0.0122427 0.038891175
v -0.02086944 0.0075 0.038779545
v -0.020855535 0.012168405 0.03879543
v -0.020949705 0.01211613 0.03868911
v -0.021003705 0.0075 0.038617755
v -0.021039795 0.01208343 0.03856989
v -0.021123795 0.0075 0.0384375
v -0.021123795 0.01207032 0.0384375
v -0.02121987 0.0075 0.03824337
v -0.021194685 0.012083895 0.03830229
v -0.02125155 0.01211466 0.03816912
v -0.02129283 0.0075 0.038046195
v -0.02129571 0.012162615 0.038039475
v -0.02134269 0.0075 0.03784599
v -0.02132889 0.01222905 0.03791325
v -0.021352335 0.01231467 0.037790685
v -0.02136939 0.0075 0.03764175
v -0.02136648 0.01241373 0.037678605
v -0.02137317 0.012521415 0.037582965
v -0.02137272 0.0075 0.037430595
v -0.021375 0.0126414 0.03750069
v -0.021373875 0.01277007 0.03743493
v -0.021371805 0.012901845 0.03739062
v -0.02135313 0.0075 0.03721899
v -0.02137032 0.013039215 0.037367655
v -0.021370125 0.01318059 0.037364985
v -0.02137281 0.020625 0.037432605
v -0.02135232 0.020625 0.037220805
v -0.021371385 0.013319355 0.03738354
v -0.0213735 0.01345434 0.03742515
v -0.02137497 0.01358793 0.037489125
v -0.02136975 0.020625 0.037640115
v -0.02137365 0.013713195 0.037571055
v -0.02136741 0.01382562 0.0376686
v -0.02134299 0.020625 0.03784206
v -0.02135316 0.013929705 0.037785315
v -0.02132901 0.01401969 0.037912755
v -0.02129307 0.020625 0.03804228
v -0.021295095 0.01408872 0.038041515
v -0.021250545 0.014137605 0.03817173
v -0.021220005 0.020625 0.03824076
v -0.021193785 0.01416792 0.03830418
v -0.021123795 0.020625 0.0384375
v -0.021123795 0.014179695 0.0384375
v -0.021001515 0.020625 0.038619195
v -0.021039495 0.014165955 0.03857031
v -0.02094939 0.01413324 0.0386895
v -0.020866155 0.020625 0.038781705
v -0.02085552 0.014081505 0.038795445
v -0.02071773 0.020625 0.038925045
v -0.020758185 0.014009175 0.038890185
v -0.020659335 0.013916805 0.03897363
v -0.020556225 0.020625 0.0390492
v -0.020566665 0.013810095 0.03904203
v -0.020485245 0.01369131 0.03909528
v -0.02037804 0.020625 0.039155595
v -0.02041362 0.013557585 0.039137355
v -0.0203589 0.013415985 0.03916671
v -0.021311115 0.0075 0.03701472
v -0.021309465 0.020625 0.03701238
v -0.021245355 0.0075 0.036816795
v -0.021245385 0.020625 0.03681498
v -0.021156525 0.0075 0.036623745
v -0.0211581 0.020625 0.0366267
v -0.02104806 0.0075 0.036442545
v -0.021047745 0.020625 0.036444765
v -0.02092209 0.0075 0.036278385
v -0.0209187 0.020625 0.036275565
v -0.02077515 0.0075 0.036126705
v -0.02077533 0.020625 0.036125535
v -0.020611665 0.0075 0.03599094
v -0.02061498 0.020625 0.03599376
v -0.0204375 0.0075 0.035876205
v -0.02043663 0.020625 0.03587772
v -0.02025105 0.0075 0.03578274
v -0.020246955 0.020625 0.03578127
v -0.02005173 0.0075 0.035709045
v -0.02005266 0.020625 0.035708295
v -0.019846905 0.0075 0.035657625
v -0.01985103 0.020625 0.035659155
v -0.019641765 0.0075 0.03563061
v -0.01963998 0.020625 0.03563199
v -0.019430595 0.0075 0.03562728
v -0.01942725 0.020625 0.0356274
v -0.01921899 0.0075 0.03564687
v -0.01922055 0.020625 0.03564594
v -0.01901472 0.0075 0.035688885
v -0.019017555 0.020625 0.03568914
v -0.018816795 0.0075 0.035754645
v -0.018815625 0.020625 0.035756235
v -0.018623745 0.0075 0.035843475
v -0.01862196 0.020625 0.035844405
v -0.018442545 0.0075 0.03595194
v -0.018443775 0.020625 0.0359508
v -0.01827903 0.0075 0.036077175
v -0.01828227 0.020625 0.036074955
v -0.01813056 0.0075 0.036220455
v -0.018133845 0.020625 0.036218295
v -0.017996295 0.0075 0.036382245
v -0.02332905 0.02675223 0.041063865
v -0.013616085 0.02152233 0.035456085
v -0.01368642 0.021365805 0.03548025
v -0.02327295 0.026908755 0.04101504
v -0.02339937 0.026595705 0.04108803
v -0.013763595 0.02121852 0.03548391
v -0.02347656 0.02644842 0.04109169
v -0.01384764 0.021080475 0.035467095
v -0.023560605 0.026310375 0.041074875
v -0.013940205 0.02094969 0.03542874
v -0.023653155 0.02617959 0.04103652
v -0.01404069 0.020826885 0.035369235
v -0.023753655 0.026056785 0.040977015
v -0.0141432 0.020719035 0.035292255
v -0.023856165 0.025948935 0.040900035
v -0.014244975 0.0206301 0.03519891
v -0.02395794 0.02586 0.04080669
v -0.014348865 0.02055696 0.035087175
v -0.02406183 0.02578686 0.040694955
v -0.014449305 0.020503095 0.034963455
v -0.02416227 0.025732995 0.040571235
v -0.01454214 0.020471625 0.03483201
v -0.024255105 0.025701525 0.04043979
v -0.01463052 0.020461245 0.03468861
v -0.024343485 0.025691145 0.04029639
v -0.01471053 0.020471625 0.034540365
v -0.02442348 0.025701525 0.040148145
v -0.01477794 0.020503095 0.03439425
v -0.024490905 0.025732995 0.04000203
v -0.014834865 0.02055696 0.034245405
v -0.02454783 0.02578686 0.039853185
v -0.014879685 0.0206301 0.03409956
v -0.02459265 0.02586 0.03970734
v -0.01490964 0.020719035 0.033964755
v -0.02462259 0.025948935 0.039572535
v -0.014925045 0.020826885 0.03383748
v -0.02463801 0.026056785 0.03944526
v -0.014926335 0.02094969 0.033720705
v -0.0246393 0.02617959 0.039328485
v -0.01491327 0.021080475 0.03362136
v -0.024626235 0.026310375 0.03922914
v -0.01488582 0.02121852 0.03354018
v -0.024598785 0.02644842 0.03914796
v -0.014844045 0.021365805 0.03347517
v -0.02455701 0.026595705 0.03908295
v -0.01478796 0.02152233 0.03342633
v -0.024500925 0.02675223 0.03903411
v -0.014717625 0.021678855 0.03340218
v -0.02443059 0.026908755 0.03900996
v -0.01464045 0.02182614 0.033398505
v -0.0243534 0.02705604 0.039006285
v -0.014556405 0.021964185 0.03341532
v -0.02426937 0.027194085 0.0390231
v -0.01446384 0.02209497 0.033453675
v -0.024176805 0.02732487 0.039061455
v -0.014363355 0.022217775 0.033513195
v -0.02407632 0.027447675 0.039120975
v -0.014260845 0.022325625 0.033590175
v -0.023973795 0.027555525 0.039197955
v -0.01415907 0.02241456 0.033683505
v -0.02387202 0.02764446 0.039291285
v -0.01405518 0.022487685 0.03379524
v -0.02376813 0.0277176 0.03940302
v -0.01395474 0.022541565 0.033918975
v -0.02366769 0.027771465 0.039526755
v -0.013861905 0.022573035 0.034050405
v -0.02357487 0.027802935 0.039658185
v -0.013773525 0.022583415 0.03419382
v -0.023486475 0.027813315 0.0398016
v -0.013693515 0.022573035 0.034342065
v -0.02340648 0.027802935 0.039949845
v -0.013626105 0.022541565 0.03448818
v -0.02333907 0.027771465 0.04009596
v -0.01356918 0.022487685 0.03463701
v -0.02328213 0.0277176 0.04024479
v -0.01352436 0.02241456 0.034782855
v -0.02323731 0.02764446 0.040390635
v -0.013494405 0.022325625 0.034917675
v -0.02320737 0.027555525 0.040525455
v -0.013479 0.022217775 0.035044935
v -0.023191965 0.027447675 0.040652715
v -0.01347771 0.02209497 0.035161725
v -0.02319066 0.02732487 0.040769505
v -0.013490775 0.021964185 0.035261055
v -0.023203725 0.027194085 0.040868835
v -0.013518225 0.02182614 0.03534225
v -0.02323119 0.02705604 0.04095003
v -0.01356 0.021678855 0.03540726
v -0.021220005 0.020625 0.03824076
v -0.017998485 0.020625 0.036380805
v -0.017876205 0.020625 0.0365625
v -0.02129307 0.020625 0.03804228
v -0.021123795 0.020625 0.0384375
v -0.017779995 0.020625 0.03675924
v -0.021001515 0.020625 0.038619195
v -0.01770693 0.020625 0.03695772
v -0.020866155 0.020625 0.038781705
v -0.01765701 0.020625 0.03715794
v -0.02071773 0.020625 0.038925045
v -0.017630235 0.020625 0.037359885
v -0.020556225 0.020625 0.0390492
v -0.01762719 0.020625 0.037567395
v -0.02037804 0.020625 0.039155595
v -0.01764768 0.020625 0.037779195
v -0.020184375 0.020625 0.039243765
v -0.017690535 0.020625 0.03798762
v -0.019982445 0.020625 0.03931086
v -0.017754615 0.020625 0.03818502
v -0.01977945 0.020625 0.03935406
v -0.0178419 0.020625 0.0383733
v -0.01957275 0.020625 0.0393726
v -0.017952255 0.020625 0.038555235
v -0.019360005 0.020625 0.03936801
v -0.0180813 0.020625 0.038724435
v -0.01914897 0.020625 0.039340845
v -0.01822467 0.020625 0.038874465
v -0.01894734 0.020625 0.039291705
v -0.01838502 0.020625 0.03900624
v -0.018753045 0.020625 0.03921873
v -0.01856337 0.020625 0.03912228
v -0.018133845 0.020625 0.036218295
v -0.02134299 0.020625 0.03784206
v -0.01828227 0.020625 0.036074955
v -0.02136975 0.020625 0.037640115
v -0.018443775 0.020625 0.0359508
v -0.02137281 0.020625 0.037432605
v -0.01862196 0.020625 0.035844405
v -0.02135232 0.020625 0.037220805
v -0.018815625 0.020625 0.035756235
v -0.021309465 0.020625 0.03701238
v -0.019017555 0.020625 0.03568914
v -0.021245385 0.020625 0.03681498
v -0.01922055 0.020625 0.03564594
v -0.0211581 0.020625 0.0366267
v -0.01942725 0.020625 0.0356274
v -0.021047745 0.020625 0.036444765
v -0.01963998 0.020625 0.03563199
v -0.0209187 0.020625 0.036275565
v -0.01985103 0.020625 0.035659155
v -0.02077533 0.020625 0.036125535
v -0.02005266 0.020625 0.035708295
v -0.02061498 0.020625 0.03599376
v -0.020246955 0.020625 0.03578127
v -0.02043663 0.020625 0.03587772
v -0.026698275 0.0141693 0.04148544
v -0.021193785 0.01416792 0.03830418
v -0.021123795 0.014179695 0.0384375
v -0.021250545 0.014137605 0.03817173
v -0.026625705 0.014179695 0.04161402
v -0.021039495 0.014165955 0.03857031
v -0.026549175 0.014168895 0.04174356
v -0.026471715 0.014136675 0.041869365
v -0.02094939 0.01413324 0.0386895
v -0.02639487 0.01408353 0.04198881
v -0.02085552 0.014081505 0.038795445
v -0.026319885 0.014010315 0.04209936
v -0.020758185 0.014009175 0.038890185
v -0.026248275 0.013918395 0.042198525
v -0.020659335 0.013916805 0.03897363
v -0.020566665 0.013810095 0.03904203
v -0.026182155 0.01381011 0.04228386
v -0.020485245 0.01369131 0.03909528
v -0.02612289 0.01368822 0.0423534
v -0.02041362 0.013557585 0.039137355
v -0.02607093 0.01355517 0.042405675
v -0.0203589 0.013415985 0.03916671
v -0.026027805 0.01341372 0.04244016
v -0.020327625 0.01327104 0.03918246
v -0.025994535 0.01326681 0.04245642
v -0.020318595 0.01311765 0.03918687
v -0.02597079 0.013117605 0.042453735
v -0.025957515 0.01296867 0.042432645
v -0.02033022 0.01296519 0.03918117
v -0.02595558 0.012822585 0.04239384
v -0.020361495 0.012823365 0.03916536
v -0.020413455 0.012688425 0.039137445
v -0.025964055 0.01268241 0.042337455
v -0.020482035 0.01256166 0.03909726
v -0.025983135 0.012551085 0.042264795
v -0.020562435 0.012446115 0.03904494
v -0.026013195 0.01243128 0.04217772
v -0.020656365 0.0123381 0.038975955
v -0.02605299 0.01232535 0.042077445
v -0.02075709 0.0122427 0.038891175
v -0.026101635 0.012235665 0.041966145
v -0.020855535 0.012168405 0.03879543
v -0.02615847 0.01216422 0.041846625
v -0.020949705 0.01211613 0.03868911
v -0.026222175 0.01211232 0.04172133
v -0.021039795 0.01208343 0.03856989
v -0.02629116 0.01208085 0.04159257
v -0.021123795 0.01207032 0.0384375
v -0.02636394 0.01207032 0.041462895
v -0.021194685 0.012083895 0.03830229
v -0.02644014 0.012080925 0.041334525
v -0.02125155 0.01211466 0.03816912
v -0.02651757 0.01211271 0.041209785
v -0.02129571 0.012162615 0.038039475
v -0.026594715 0.012165195 0.041091285
v -0.02132889 0.01222905 0.03791325
v -0.026670465 0.01223769 0.04098153
v -0.021352335 0.01231467 0.037790685
v -0.026743215 0.012328905 0.040883055
v -0.02136648 0.01241373 0.037678605
v -0.02681055 0.01243647 0.04079823
v -0.02137317 0.012521415 0.037582965
v -0.02687082 0.012557385 0.04072911
v -0.021375 0.0126414 0.03750069
v -0.026923785 0.01268919 0.040677105
v -0.021373875 0.01277007 0.03743493
v -0.026968005 0.012829905 0.04064244
v -0.021371805 0.012901845 0.03739062
v -0.027002325 0.012977505 0.040625595
v -0.02137032 0.013039215 0.037367655
v -0.02702688 0.01312884 0.0406278
v -0.021370125 0.01318059 0.037364985
v -0.02704038 0.013280325 0.040648875
v -0.021371385 0.013319355 0.03738354
v -0.02704185 0.013428465 0.04068795
v -0.0213735 0.01345434 0.03742515
v -0.027032235 0.0135705 0.04074486
v -0.02137497 0.01358793 0.037489125
v -0.027011565 0.013703055 0.04081818
v -0.02137365 0.013713195 0.037571055
v -0.026979975 0.013822995 0.04090557
v -0.02136741 0.01382562 0.0376686
v -0.02693877 0.013928025 0.04100523
v -0.02135316 0.013929705 0.037785315
v -0.026889 0.014016495 0.0411153
v -0.02132901 0.01401969 0.037912755
v -0.02683143 0.01408701 0.04123359
v -0.021295095 0.01408872 0.038041515
v -0.026767335 0.01413825 0.041357775
f 1 2 3
f 4 1 3
f 4 5 1
f 6 4 3
f 6 7 4
f 6 8 7
f 5 9 1
f 9 10 1
f 9 11 10
f 11 12 10
f 11 13 12
f 13 14 12
f 13 15 14
f 15 16 14
f 15 17 16
f 17 18 16
f 17 19 18
f 19 20 18
f 19 21 20
f 21 22 20
f 21 23 22
f 23 24 22
f 23 25 24
f 25 26 24
f 25 27 26
f 27 28 26
f 27 29 28
f 29 30 28
f 29 31 30
f 29 32 31
f 32 33 31
f 32 34 33
f 34 35 33
f 34 36 35
f 36 37 35
f 36 38 37
f 38 39 37
f 39 40 37
f 39 41 40
f 41 42 40
f 41 43 42
f 43 44 42
f 43 45 44
f 43 46 45
f 46 47 45
f 46 48 47
f 48 49 47
f 49 50 47
f 49 51 50
f 51 52 50
f 51 53 52
f 53 54 52
f 54 55 52
f 54 56 55
f 56 57 55
f 57 58 55
f 57 59 58
f 59 60 58
f 60 61 58
f 60 62 61
f 62 63 61
f 62 64 63
f 64 65 63
f 65 66 63
f 65 67 66
f 67 68 66
f 68 69 66
f 68 70 69
f 70 71 69
f 71 72 69
f 71 73 72
f 73 74 72
f 74 75 72
f 74 76 75
f 76 77 75
f 77 78 75
f 77 79 78
f 79 80 78
f 80 81 78
f 80 82 81
f 82 83 81
f 83 84 81
f 83 85 84
f 85 86 84
f 85 87 86
f 87 88 86
f 87 89 88
f 89 90 88
f 89 91 90
f 91 92 90
f 91 93 92
f 91 94 93
f 91 95 94
f 91 96 95
f 91 97 96
f 91 98 97
f 91 99 98
f 91 100 99
f 91 101 100
f 91 102 101
f 91 103 102
f 91 104 103
f 91 105 104
f 91 106 105
f 91 107 106
f 91 108 107
f 91 109 108
f 91 110 109
f 91 111 110
f 91 112 111
f 91 113 112
f 91 114 113
f 91 115 114
f 91 116 115
f 91 117 116
f 91 118 117
f 118 119 117
f 119 120 117
f 120 121 117
f 121 122 117
f 122 123 117
f 123 124 117
f 124 125 117
f 125 126 117
f 126 127 117
f 127 128 117
f 128 129 117
f 129 130 117
f 130 131 117
f 131 132 117
f 132 133 117
f 133 134 117
f 134 135 117
f 135 136 117
f 136 137 117
f 137 138 117
f 138 139 117
f 139 140 117
f 140 141 117
f 141 142 117
f 142 143 117
f 143 144 117
f 144 145 117
f 145 146 117
f 146 147 117
f 147 148 117
f 148 149 117
f 149 150 117
f 150 151 117
f 151 152 117
f 152 153 117
f 153 154 117
f 154 155 117
f 154 156 155
f 156 157 155
f 156 158 157
f 158 159 157
f 159 160 157
f 159 161 160
f 161 162 160
f 161 163 162
f 163 164 162
f 163 165 164
f 165 166 164
f 165 167 166
f 167 168 166
f 167 169 168
f 169 170 168
f 169 171 170
f 171 172 170
f 171 173 172
f 173 174 172
f 174 175 172
f 174 176 175
f 176 177 175
f 177 178 175
f 177 179 178
f 179 180 178
f 180 181 178
f 180 182 181
f 183 184 185
f 186 184 183
f 187 183 185
f 187 185 188
f 188 185 189
f 188 189 190
f 190 189 191
f 190 191 192
f 192 191 193
f 192 193 194
f 192 194 195
f 195 194 196
f 195 196 197
f 197 196 198
f 197 198 199
f 197 199 200
f 200 199 201
f 200 201 202
f 200 202 203
f 203 202 204
f 203 204 205
f 203 205 206
f 206 205 207
f 206 207 208
f 208 207 209
f 208 209 210
f 210 209 211
f 210 211 212
f 212 211 213
f 212 213 214
f 214 213 215
f 215 213 216
f 215 216 217
f 217 216 218
f 218 216 219
f 218 219 220
f 220 219 221
f 220 221 222
f 222 221 223
f 223 221 224
f 223 224 225
f 225 224 226
f 226 224 227
f 226 227 228
f 228 227 229
f 228 229 230
f 230 229 231
f 230 231 232
f 232 231 233
f 232 233 234
f 234 233 235
f 234 235 236
f 236 235 237
f 236 237 238
f 238 237 239
f 238 239 240
f 240 239 241
f 240 241 242
f 242 241 243
f 242 243 244
f 244 243 245
f 244 245 246
f 247 246 245
f 247 248 246
f 247 245 249
f 248 250 246
f 250 251 246
f 251 252 246
f 252 253 246
f 253 254 246
f 253 255 254
f 255 256 254
f 256 257 254
f 256 258 257
f 258 259 257
f 259 260 257
f 260 261 257
f 260 262 261
f 262 263 261
f 263 264 261
f 263 265 264
f 265 266 264
f 266 267 264
f 266 268 267
f 268 269 267
f 269 270 267
f 269 271 270
f 271 272 270
f 272 273 270
f 273 274 270
f 274 275 270
f 275 276 270
f 276 277 270
f 276 278 277
f 279 278 276
f 277 278 280
f 277 280 281
f 281 280 282
f 281 282 283
f 283 282 284
f 283 284 285
f 285 284 286
f 285 286 287
f 287 286 288
f 287 288 289
f 289 288 290
f 289 290 291
f 291 290 292
f 291 292 293
f 293 292 294
f 293 294 295
f 295 294 296
f 295 296 297
f 297 296 298
f 297 298 299
f 299 298 300
f 299 300 301
f 301 300 302
f 301 302 303
f 303 302 304
f 303 304 305
f 305 304 306
f 305 306 307
f 307 306 308
f 307 308 309
f 309 308 310
f 309 310 311
f 311 310 312
f 311 312 313
f 313 312 314
f 313 314 315
f 315 314 316
f 315 316 317
f 317 316 318
f 317 318 319
f 319 318 320
f 319 320 321
f 321 320 322
f 321 322 323
f 323 322 324
f 323 324 325
f 325 324 326
f 325 326 327
f 327 326 328
f 327 328 329
f 329 328 330
f 329 330 331
f 331 330 332
f 331 332 333
f 334 333 332
f 334 335 333
f 336 334 332
f 337 336 332
f 337 332 338
f 339 337 338
f 340 339 338
f 340 338 341
f 342 341 338
f 343 342 338
f 344 343 338
f 345 344 338
f 346 345 338
f 347 346 338
f 348 347 338
f 349 348 338
f 350 349 338
f 351 350 338
f 352 351 338
f 353 352 338
f 354 353 338
f 355 354 338
f 356 355 338
f 357 356 338
f 357 338 358
f 358 338 359
f 360 357 358
f 361 360 358
f 362 361 358
f 362 358 333
f 363 362 333
f 364 363 333
f 365 364 333
f 366 365 333
f 367 366 333
f 368 367 333
f 369 368 333
f 370 369 333
f 371 370 333
f 372 371 333
f 373 372 333
f 374 373 333
f 375 374 333
f 376 375 333
f 377 376 333
f 378 377 333
f 379 378 333
f 380 379 333
f 335 380 333
f 358 359 381
f 381 359 382
f 382 359 383
f 382 383 384
f 384 383 385
f 385 383 386
f 385 386 387
f 387 386 388
f 388 386 389
f 388 389 390
f 390 389 391
f 391 389 392
f 391 392 393
f 393 392 394
f 394 392 395
f 394 395 396
f 396 395 397
f 397 395 398
f 397 398 399
f 399 398 400
f 399 400 401
f 401 400 402
f 402 400 403
f 402 403 404
f 404 403 405
f 405 403 406
f 405 406 407
f 407 406 408
f 407 408 409
f 407 409 410
f 410 409 411
f 410 411 412
f 410 412 413
f 413 412 414
f 413 414 415
f 415 414 416
f 415 416 417
f 415 417 418
f 418 417 419
f 418 419 420
f 418 420 421
f 421 420 422
f 421 422 423
f 423 422 424
f 423 424 425
f 425 424 426
f 425 426 427
f 427 426 428
f 427 428 429
f 429 428 430
f 429 430 431
f 431 430 432
f 431 432 433
f 433 432 434
f 433 434 435
f 435 434 436
f 435 436 437
f 437 436 438
f 437 438 439
f 439 438 440
f 439 440 441
f 441 440 442
f 441 442 443
f 443 442 444
f 443 444 445
f 445 444 446
f 445 446 447
f 447 446 448
f 447 448 449
f 449 448 450
f 449 450 451
f 451 450 452
f 451 452 453
f 453 452 454
f 453 454 455
f 455 454 456
f 455 456 457
f 457 456 458
f 457 458 459
f 459 458 460
f 459 460 461
f 461 460 462
f 461 462 463
f 463 462 464
f 463 464 465
f 465 464 466
f 465 466 467
f 467 466 468
f 467 468 469
f 469 468 470
f 469 470 471
f 471 470 472
f 472 470 473
f 472 473 474
f 474 473 475
f 474 475 476
f 476 475 477
f 477 475 478
f 477 478 479
f 479 478 480
f 479 480 481
f 481 480 482
f 482 480 483
f 482 483 484
f 484 483 485
f 485 483 486
f 485 486 487
f 487 486 488
f 488 486 489
f 488 489 490
f 490 489 491
f 490 491 492
f 490 492 493
f 493 492 494
f 493 494 495
f 493 495 496
f 496 495 497
f 496 497 498
f 498 497 499
f 498 499 500
f 498 500 501
f 501 500 502
f 501 502 503
f 503 502 504
f 503 504 505
f 503 505 506
f 506 505 507
f 506 507 508
f 508 507 509
f 508 509 510
f 510 509 511
f 510 511 512
f 510 512 513
f 514 513 512
f 514 515 513
f 516 514 512
f 517 516 512
f 518 517 512
f 519 518 512
f 519 512 520
f 521 519 520
f 521 520 522
f 523 522 520
f 524 523 520
f 525 524 520
f 526 525 520
f 527 526 520
f 528 527 520
f 529 528 520
f 530 529 520
f 531 530 520
f 532 531 520
f 533 532 520
f 534 533 520
f 535 534 520
f 536 535 520
f 537 536 520
f 538 537 520
f 539 538 520
f 540 539 520
f 540 520 541
f 541 520 542
f 543 540 541
f 543 541 513
f 544 543 513
f 545 544 513
f 546 545 513
f 547 546 513
f 548 547 513
f 549 548 513
f 550 549 513
f 551 550 513
f 552 551 513
f 553 552 513
f 554 553 513
f 555 554 513
f 556 555 513
f 557 556 513
f 558 557 513
f 559 558 513
f 560 559 513
f 515 560 513
f 541 542 561
f 561 542 562
f 561 562 563
f 563 562 564
f 563 564 565
f 565 564 566
f 565 566 567
f 567 566 568
f 567 568 569
f 569 568 570
f 569 570 571
f 571 570 572
f 571 572 573
f 573 572 574
f 573 574 575
f 575 574 576
f 575 576 577
f 577 576 578
f 577 578 579
f 579 578 580
f 579 580 581
f 581 580 582
f 581 582 583
f 583 582 584
f 583 584 585
f 585 584 586
f 585 586 587
f 587 586 588
f 587 588 589
f 589 588 590
f 589 590 591
f 591 590 592
f 591 592 593
f 593 592 594
f 593 594 595
f 595 594 596
f 595 596 597
f 597 596 598
f 597 598 599
f 599 598 600
f 599 600 601
f 601 600 602
f 601 602 603
f 603 602 604
f 603 604 605
f 605 604 606
f 605 606 607
f 607 606 608
f 607 608 609
f 609 608 610
f 609 610 611
f 611 610 612
f 611 612 613
f 613 612 614
f 613 614 615
f 615 614 616
f 615 616 617
f 617 616 618
f 617 618 619
f 619 618 620
f 619 620 621
f 621 620 622
f 621 622 623
f 623 622 624
f 623 624 625
f 625 624 626
f 625 626 627
f 627 626 628
f 627 628 629
f 629 628 630
f 629 630 631
f 631 630 632
f 631 632 633
f 633 632 634
f 633 634 635
f 635 634 636
f 635 636 637
f 637 636 638
f 637 638 639
f 639 638 640
f 639 640 641
f 641 640 642
f 641 642 643
f 643 642 644
f 643 644 645
f 645 644 646
f 645 646 647
f 647 646 648
f 647 648 649
f 649 648 650
f 649 650 651
f 651 650 652
f 651 652 653
f 651 653 654
f 654 653 655
f 654 655 656
f 654 656 657
f 658 657 656
f 659 657 658
f 660 658 656
f 661 660 656
f 662 661 656
f 663 662 656
f 664 663 656
f 665 664 656
f 666 665 656
f 667 666 656
f 668 667 656
f 669 668 656
f 670 669 656
f 670 656 184
f 671 670 184
f 672 671 184
f 673 672 184
f 674 673 184
f 675 674 184
f 676 675 184
f 677 676 184
f 678 677 184
f 679 678 184
f 680 679 184
f 681 680 184
f 682 681 184
f 683 682 184
f 684 683 184
f 685 684 184
f 686 685 184
f 687 686 184
f 688 687 184
f 689 688 184
f 690 689 184
f 691 690 184
f 692 691 184
f 186 692 184
f 659 693 657
f 693 694 657
f 694 695 657
f 695 696 657
f 696 697 657
f 697 698 657
f 698 699 657
f 699 700 657
f 700 701 657
f 701 702 657
f 702 703 657
f 703 704 657
f 704 705 657
f 705 706 657
f 706 707 657
f 707 708 657
f 708 709 657
f 709 710 657
f 710 711 657
f 711 183 657
f 711 712 183
f 712 186 183
f 279 713 278
f 713 714 278
f 714 715 278
f 715 716 278
f 715 717 716
f 717 718 716
f 718 719 716
f 719 720 716
f 719 721 720
f 721 722 720
f 722 723 720
f 722 724 723
f 724 725 723
f 725 726 723
f 725 727 726
f 727 728 726
f 728 729 726
f 729 730 726
f 729 731 730
f 731 732 730
f 732 249 730
f 732 733 249
f 733 734 249
f 734 735 249
f 735 736 249
f 736 737 249
f 738 739 740
f 741 742 743
f 741 744 742
f 745 741 743
f 746 745 743
f 741 747 744
f 744 748 742
f 741 749 747
f 749 750 747
f 749 751 750
f 749 752 751
f 752 753 751
f 752 754 753
f 754 755 753
f 754 756 755
f 754 757 756
f 757 758 756
f 757 759 758
f 757 760 759
f 760 761 759
f 760 762 761
f 760 763 762
f 763 764 762
f 763 765 764
f 765 766 764
f 766 767 764
f 766 768 767
f 768 769 767
f 768 770 769
f 770 771 769
f 770 772 771
f 772 773 771
f 773 774 771
f 773 775 774
f 775 776 774
f 775 777 776
f 777 778 776
f 778 779 776
f 778 780 779
f 780 781 779
f 781 782 779
f 781 783 782
f 783 784 782
f 784 785 782
f 784 786 785
f 786 787 785
f 786 788 787
f 788 789 787
f 788 790 789
f 788 791 790
f 791 792 790
f 791 793 792
f 793 794 792
f 793 795 794
f 793 796 795
f 796 797 795
f 796 798 797
f 796 799 798
f 799 800 798
f 799 801 800
f 799 802 801
f 802 803 801
f 802 804 803
f 804 805 803
f 804 806 805
f 804 807 806
f 807 808 806
f 807 809 808
f 807 810 809
f 810 811 809
f 810 812 811
f 810 813 812
f 813 814 812
f 813 815 814
f 813 816 815
f 816 817 815
f 816 818 817
f 816 819 818
f 819 820 818
f 819 821 820
f 819 822 821
f 822 823 821
f 822 824 823
f 822 825 824
f 825 826 824
f 825 827 826
f 827 828 826
f 827 829 828
f 829 830 828
f 830 831 828
f 831 832 828
f 832 833 828
f 833 834 828
f 834 835 828
f 835 836 828
f 836 837 828
f 837 838 828
f 838 839 828
f 839 840 828
f 840 841 828
f 841 842 828
f 842 843 828
f 843 844 828
f 844 845 828
f 845 846 828
f 846 847 828
f 847 848 828
f 848 849 828
f 849 850 828
f 850 851 828
f 851 852 828
f 852 853 828
f 853 854 828
f 854 855 828
f 855 856 828
f 855 857 856
f 857 858 856
f 857 859 858
f 857 860 859
f 857 861 860
f 857 862 861
f 857 863 862
f 857 864 863
f 857 865 864
f 857 866 865
f 857 867 866
f 857 868 867
f 857 869 868
f 857 870 869
f 857 871 870
f 857 872 871
f 857 873 872
f 857 874 873
f 857 875 874
f 857 876 875
f 857 877 876
f 857 878 877
f 857 879 878
f 857 880 879
f 857 881 880
f 857 882 881
f 857 883 882
f 857 884 883
f 857 885 884
f 857 886 885
f 857 887 886
f 857 888 887
f 857 889 888
f 857 890 889
f 857 891 890
f 857 892 891
f 857 893 892
f 857 894 893
f 857 895 894
f 857 896 895
f 896 897 895
f 896 898 897
f 898 899 897
f 899 900 897
f 899 901 900
f 901 902 900
f 902 903 900
f 902 904 903
f 904 905 903
f 904 906 905
f 906 907 905
f 907 908 905
f 907 909 908
f 909 910 908
f 910 911 908
f 910 912 911
f 912 913 911
f 913 914 911
f 913 915 914
f 915 916 914
f 916 917 914
f 916 918 917
f 918 919 917
f 919 920 917
f 919 921 920
f 921 922 920
f 921 923 922
f 921 924 923
f 924 925 923
f 926 927 928
f 929 927 926
f 930 926 928
f 930 928 931
f 930 931 932
f 932 931 933
f 932 933 934
f 934 933 935
f 934 935 936
f 936 935 937
f 936 937 938
f 938 937 939
f 938 939 940
f 940 939 941
f 940 941 942
f 942 941 943
f 942 943 944
f 944 943 945
f 944 945 946
f 946 945 947
f 946 947 948
f 948 947 949
f 948 949 950
f 950 949 951
f 950 951 952
f 952 951 953
f 952 953 954
f 954 953 955
f 954 955 956
f 956 955 957
f 956 957 958
f 958 957 959
f 958 959 960
f 960 959 961
f 960 961 962
f 962 961 963
f 962 963 964
f 964 963 965
f 964 965 966
f 966 965 967
f 966 967 968
f 968 967 969
f 968 969 970
f 970 969 971
f 970 971 972
f 972 971 973
f 974 972 973
f 974 975 972
f 976 974 973
f 977 976 973
f 978 977 973
f 978 973 979
f 980 978 979
f 981 980 979
f 981 979 982
f 983 981 982
f 984 983 982
f 984 982 985
f 986 984 985
f 987 986 985
f 987 985 988
f 989 987 988
f 989 988 990
f 989 990 991
f 991 990 992
f 993 991 992
f 994 993 992
f 994 992 995
f 996 994 995
f 996 995 997
f 998 996 997
f 999 998 997
f 999 997 1000
f 1001 999 1000
f 1002 1001 1000
f 1002 1000 1003
f 1004 1002 1003
f 1005 1004 1003
f 1006 1005 1003
f 1006 1003 1007
f 1008 1006 1007
f 1009 1008 1007
f 1009 1007 1010
f 1010 1007 1011
f 1012 1009 1010
f 1013 1012 1010
f 1014 1013 1010
f 1014 1010 1015
f 1016 1014 1015
f 1017 1016 1015
f 1017 1015 1018
f 1019 1017 1018
f 1020 1019 1018
f 1020 1018 1021
f 1022 1020 1021
f 1023 1022 1021
f 1023 1021 1024
f 1025 1023 1024
f 1025 1024 1026
f 1025 1026 1027
f 1027 1026 1028
f 1029 1027 1028
f 1030 1029 1028
f 1030 1028 1031
f 1032 1030 1031
f 1032 1031 1033
f 1034 1032 1033
f 1035 1034 1033
f 1035 1033 1036
f 1037 1035 1036
f 1038 1037 1036
f 1038 1036 1039
f 1040 1038 1039
f 1041 1040 1039
f 1041 1039 972
f 975 1041 972
f 1011 1007 1042
f 1011 1042 1043
f 1043 1042 1044
f 1043 1044 1045
f 1045 1044 1046
f 1045 1046 1047
f 1047 1046 1048
f 1047 1048 1049
f 1049 1048 1050
f 1049 1050 1051
f 1051 1050 1052
f 1051 1052 1053
f 1053 1052 1054
f 1053 1054 1055
f 1055 1054 1056
f 1055 1056 1057
f 1057 1056 1058
f 1057 1058 1059
f 1059 1058 1060
f 1059 1060 1061
f 1061 1060 1062
f 1061 1062 1063
f 1063 1062 1064
f 1063 1064 1065
f 1065 1064 1066
f 1065 1066 1067
f 1067 1066 1068
f 1067 1068 1069
f 1069 1068 1070
f 1069 1070 1071
f 1071 1070 1072
f 1071 1072 1073
f 1073 1072 1074
f 1073 1074 1075
f 1075 1074 1076
f 1075 1076 1077
f 1077 1076 1078
f 1077 1078 1079
f 1079 1078 1080
f 1079 1080 1081
f 1081 1080 1082
f 1081 1082 929
f 929 1082 927
f 1083 1084 1085
f 1086 1084 1083
f 1087 1083 1085
f 1087 1085 1088
f 1087 1088 1089
f 1089 1088 1090
f 1089 1090 1091
f 1091 1090 1092
f 1091 1092 1093
f 1093 1092 1094
f 1093 1094 1095
f 1095 1094 1096
f 1095 1096 1097
f 1097 1096 1098
f 1097 1098 1099
f 1099 1098 1100
f 1099 1100 1101
f 1101 1100 1102
f 1101 1102 1103
f 1103 1102 1104
f 1103 1104 1105
f 1105 1104 1106
f 1105 1106 1107
f 1107 1106 1108
f 1107 1108 1109
f 1109 1108 1110
f 1109 1110 1111
f 1111 1110 1112
f 1111 1112 1113
f 1113 1112 1114
f 1113 1114 1115
f 1115 1114 1116
f 1115 1116 1117
f 1117 1116 1118
f 1117 1118 1119
f 1119 1118 1120
f 1119 1120 1121
f 1121 1120 1122
f 1121 1122 1123
f 1123 1122 1124
f 1123 1124 1125
f 1125 1124 1126
f 1125 1126 1127
f 1127 1126 1128
f 1127 1128 1129
f 1129 1128 1130
f 1129 1130 1131
f 1131 1130 1132
f 1131 1132 1133
f 1133 1132 1134
f 1133 1134 1135
f 1135 1134 1136
f 1135 1136 1137
f 1137 1136 1138
f 1137 1138 1139
f 1139 1138 1140
f 1139 1140 1141
f 1141 1140 1142
f 1141 1142 1143
f 1143 1142 1144
f 1143 1144 1145
f 1145 1144 1146
f 1145 1146 1147
f 1147 1146 1148
f 1147 1148 1149
f 1149 1148 1150
f 1149 1150 1151
f 1151 1150 1152
f 1151 1152 1153
f 1153 1152 1154
f 1153 1154 1155
f 1155 1154 1156
f 1155 1156 1157
f 1157 1156 1158
f 1157 1158 1159
f 1159 1158 1160
f 1159 1160 1161
f 1161 1160 1162
f 1161 1162 1163
f 1163 1162 1164
f 1163 1164 1165
f 1165 1164 1166
f 1165 1166 1167
f 1167 1166 1168
f 1167 1168 1169
f 1169 1168 1170
f 1169 1170 1086
f 1086 1170 1084
f 1171 1172 1173
f 1171 1174 1172
f 1175 1171 1173
f 1176 1175 1173
f 1176 1177 1175
f 1176 1178 1177
f 1178 1179 1177
f 1178 1180 1179
f 1180 1181 1179
f 1180 1182 1181
f 1182 1183 1181
f 1182 1184 1183
f 1184 1185 1183
f 1184 1186 1185
f 1186 1187 1185
f 1186 1188 1187
f 1188 1189 1187
f 1188 1190 1189
f 1190 1191 1189
f 1190 1192 1191
f 1192 1193 1191
f 1192 1194 1193
f 1194 1195 1193
f 1194 1196 1195
f 1196 1197 1195
f 1196 1198 1197
f 1198 1199 1197
f 1198 1200 1199
f 1200 1201 1199
f 1200 1202 1201
f 1174 1203 1172
f 1174 1204 1203
f 1204 1205 1203
f 1204 1206 1205
f 1206 1207 1205
f 1206 1208 1207
f 1208 1209 1207
f 1208 1210 1209
f 1210 1211 1209
f 1210 1212 1211
f 1212 1213 1211
f 1212 1214 1213
f 1214 1215 1213
f 1214 1216 1215
f 1216 1217 1215
f 1216 1218 1217
f 1218 1219 1217
f 1218 1220 1219
f 1220 1221 1219
f 1220 1222 1221
f 1222 1223 1221
f 1222 1224 1223
f 1224 1225 1223
f 1224 1226 1225
f 1227 1228 1229
f 1227 1230 1228
f 1227 1229 1231
f 1231 1229 1232
f 1233 1231 1232
f 1233 1232 1234
f 1234 1232 1235
f 1234 1235 1236
f 1236 1235 1237
f 1236 1237 1238
f 1238 1237 1239
f 1238 1239 1240
f 1240 1239 1241
f 1240 1241 1242
f 1240 1242 1243
f 1243 1242 1244
f 1243 1244 1245
f 1245 1244 1246
f 1245 1246 1247
f 1247 1246 1248
f 1247 1248 1249
f 1249 1248 1250
f 1249 1250 1251
f 1251 1250 1252
f 1251 1252 1253
f 1253 1252 1254
f 1254 1252 1255
f 1254 1255 1256
f 1256 1255 1257
f 1256 1257 1258
f 1256 1258 1259
f 1259 1258 1260
f 1259 1260 1261
f 1261 1260 1262
f 1261 1262 1263
f 1263 1262 1264
f 1263 1264 1265
f 1265 1264 1266
f 1265 1266 1267
f 1267 1266 1268
f 1267 1268 1269
f 1269 1268 1270
f 1269 1270 1271
f 1271 1270 1272
f 1271 1272 1273
f 1273 1272 1274
f 1273 1274 1275
f 1275 1274 1276
f 1275 1276 1277
f 1277 1276 1278
f 1277 1278 1279
f 1279 1278 1280
f 1279 1280 1281
f 1281 1280 1282
f 1281 1282 1283
f 1283 1282 1284
f 1283 1284 1285
f 1285 1284 1286
f 1285 1286 1287
f 1287 1286 1288
f 1287 1288 1289
f 1289 1288 1290
f 1289 1290 1291
f 1291 1290 1292
f 1291 1292 1293
f 1293 1292 1294
f 1293 1294 1295
f 1295 1294 1296
f 1295 1296 1297
f 1297 1296 1298
f 1297 1298 1299
f 1299 1298 1300
f 1299 1300 1301
f 1301 1300 1302
f 1301 1302 1303
f 1303 1302 1304
f 1303 1304 1305
f 1305 1304 1306
f 1305 1306 1307
f 1307 1306 1308
f 1307 1308 1309
f 1309 1308 1310
f 1309 1310 1311
f 1311 1310 1312
f 1311 1312 1313
f 1313 1312 1314
f 1313 1314 1315
f 1315 1314 1230
f 1315 1230 1227
