# Geometry extracted from Colibri.usd; meters.
v -0.0228798151 0.007502729595 -0.04378146172
v -0.02256697476 0.0075 -0.04360084534
v -0.02272372484 0.007492530048 -0.0436913538
v -0.01568880022 0.00750086993 -0.03962973118
v -0.01563426018 0.007510079741 -0.03959824562
v -0.01585689068 0.0075 -0.03972678065
v -0.01574408948 0.007496130019 -0.03966164947
v -0.01580011547 0.007495830059 -0.03969398975
v -0.01558045506 0.007523744702 -0.03956717849
v -0.02303521514 0.007530585229 -0.04387119055
v -0.01552666426 0.007541939914 -0.03953611493
v -0.02311312437 0.007551074624 -0.04391615868
v -0.01547221541 0.007564694881 -0.03950469017
v -0.02319266975 0.007575794756 -0.04396208882
v -0.01541861951 0.007591904998 -0.03947374463
v -0.02327276945 0.007604835033 -0.04400833368
v -0.01536743939 0.007623435259 -0.03944419384
v -0.02335205913 0.007638375163 -0.04405411363
v -0.0153202343 0.007659164965 -0.03941693902
v -0.02342923522 0.007676534951 -0.04409866333
v -0.01527790546 0.007699469626 -0.03939250588
v -0.0235029155 0.0077194646 -0.04414122105
v -0.01523881495 0.007745669782 -0.03936992884
v -0.02357186973 0.007767359912 -0.0441810286
v -0.01520311475 0.007796325088 -0.03934931874
v -0.02363761425 0.007821089923 -0.04421898007
v -0.01517125547 0.007849754691 -0.03933092952
v -0.02370081067 0.00788035512 -0.044255476
v -0.01512074947 0.007958595157 -0.03930175424
v -0.0237609601 0.007944299877 -0.04429018378
v -0.0238174957 0.00801202476 -0.04432283878
v -0.01508968413 0.008073135316 -0.03928382993
v -0.02386993468 0.00808267504 -0.04435310841
v -0.01507318497 0.00818955034 -0.0392743063
v -0.02396050572 0.008230680227 -0.04440540075
v -0.01506578922 0.008299709558 -0.03927002907
v -0.02403250515 0.008393999934 -0.04444696426
v -0.01506898463 0.00840580523 -0.03927187443
v -0.0150831449 0.008508405089 -0.0392800498
v -0.02408887446 0.008564910293 -0.04447951555
v -0.01511737525 0.008728334606 -0.03929981947
v -0.02413254082 0.008732249737 -0.04450472832
v -0.01515103519 0.008945640028 -0.03931926012
v -0.02416354537 0.008895914555 -0.04452262402
v -0.02418112457 0.009058799744 -0.04453278065
v -0.0151841104 0.009160365164 -0.03933833957
v -0.0241852802 0.009220905304 -0.04453516603
v -0.01521659911 0.009372479618 -0.0393571043
v -0.01524850488 0.009581985176 -0.03937552571
v -0.02422303498 0.009582299888 -0.04455697417
v -0.01527982414 0.009788895249 -0.03939360023
v -0.02426070035 0.009939749837 -0.0445787251
v -0.01531056046 0.009993209839 -0.03941136003
v -0.01534071028 0.01019491464 -0.03942875862
v -0.02429826021 0.01029327035 -0.04460040092
v -0.01537158072 0.01039394975 -0.03944657922
v -0.01540372431 0.01059028476 -0.03946513653
v -0.02433571458 0.01064285964 -0.04462203026
v -0.0154360199 0.01078397959 -0.03948377967
v -0.01546735525 0.01097509503 -0.03950186849
v -0.02437306523 0.01098850518 -0.04464358449
v -0.01549661994 0.01116367489 -0.03951877356
v -0.02441031039 0.0113302204 -0.04466509581
v -0.01552271962 0.01134981036 -0.03953385115
v -0.01554452956 0.01153354526 -0.03954643607
v -0.02444743574 0.01166799009 -0.04468652844
v -0.01556092501 0.01171492517 -0.0395558989
v -0.01557303071 0.0118938151 -0.03956289053
v -0.02448446989 0.01200183034 -0.04470792174
v -0.01558234513 0.01207004964 -0.03956827641
v -0.01558843553 0.01224375039 -0.03957178473
v -0.02452145934 0.01233172506 -0.04472926497
v -0.01559081912 0.01241506487 -0.03957316518
v -0.01558903456 0.01258410037 -0.03957213163
v -0.02455996513 0.01265771985 -0.04475149512
v -0.01558261514 0.01275099009 -0.03956842661
v -0.01557109416 0.01291585475 -0.03956177831
v -0.02460003018 0.0129798004 -0.04477462649
v -0.01555401027 0.01307881504 -0.03955191135
v -0.01553158522 0.01323981017 -0.03953896523
v -0.02464067996 0.01329794973 -0.04479810119
v -0.0155043751 0.01339870512 -0.03952326179
v -0.01547237992 0.01355548471 -0.03950477958
v -0.02468097031 0.01361216962 -0.04482136488
v -0.01543558538 0.01371014982 -0.03948354006
v -0.02471993923 0.01392242968 -0.04484386325
v -0.01534762502 0.01401316524 -0.03943274975
v -0.02475666046 0.0142287147 -0.04486505985
v -0.01524051011 0.01430774957 -0.03937090516
v -0.02479015589 0.01453102469 -0.04488439322
v -0.01055632532 0.02590704024 -0.03666649461
v -0.02481949568 0.01482933015 -0.04490134478
v -0.02484403431 0.01512355506 -0.04491550326
v -0.02486608565 0.01541323543 -0.04492823839
v -0.02488591433 0.01569849014 -0.04493968606
v -0.0249030751 0.01597961962 -0.0449495995
v -0.02491714418 0.01625689566 -0.04495771408
v -0.02492766023 0.01653061509 -0.04496379018
v -0.02493418515 0.0168010658 -0.044967556
v -0.02493630052 0.01706853032 -0.04496876836
v -0.02493353963 0.01733329475 -0.04496718049
v -0.02492578447 0.01759543419 -0.04496271014
v -0.02491402566 0.01785426021 -0.04495591521
v -0.02489824533 0.01810978532 -0.04494681001
v -0.02487832546 0.01836212933 -0.04493530512
v -0.02485413015 0.01861141562 -0.04492133975
v -0.02482550919 0.01885777473 -0.04490481019
v -0.02479236066 0.01910129964 -0.04488566995
v -0.02475453079 0.01934212446 -0.04486382961
v -0.02471189976 0.01958038509 -0.04483921409
v -0.02466446936 0.01981604934 -0.04481184125
v -0.0246124506 0.02004894018 -0.04478181124
v -0.0245558542 0.02027902544 -0.04474912405
v -0.02449468553 0.0205063355 -0.04471381545
v -0.02442893922 0.02073087037 -0.04467584968
v -0.02428372443 0.02117155552 -0.04459201455
v -0.02412019551 0.02160107911 -0.04449759007
v -0.01051242024 0.02600400031 -0.03664114594
v -0.01047349513 0.02610136449 -0.03661867619
v -0.01043954998 0.02619913459 -0.03659907103
v -0.01041058481 0.0262972945 -0.03658234477
v -0.0103866148 0.02639584422 -0.0365685153
v -0.01036760956 0.02649479985 -0.03655753613
v -0.01035358518 0.02659542024 -0.03654943585
v -0.01034451038 0.0266979593 -0.03654420018
v -0.01034042984 0.02680090427 -0.03654184341
v -0.01034134537 0.0269027102 -0.03654236913
v -0.01034728467 0.02700187504 -0.03654580593
v -0.01035825044 0.02709685564 -0.03655213594
v -0.01037514031 0.02718835473 -0.03656188488
v -0.01039811969 0.02727770984 -0.03657516003
v -0.01045805991 0.02744796038 -0.03660974979
v -0.01052956492 0.02760349452 -0.03665104508
v -0.01061274022 0.0277421397 -0.0366990602
v -0.01070748031 0.02786608458 -0.03675376654
v -0.0108049196 0.02797777534 -0.03681001425
v -0.01090212017 0.02807803452 -0.03686614394
v -0.01100203514 0.02816603959 -0.03692381859
v -0.0111046502 0.02824180484 -0.03698307037
v -0.01138382971 0.02846116483 -0.03714426041
v -0.01166509509 0.02867565036 -0.03730663419
v -0.01194844544 0.02888524532 -0.0374702239
v -0.01223386467 0.02908996582 -0.03763501525
v -0.01252136976 0.02928979576 -0.03780101895
v -0.01281095982 0.02948474944 -0.03796820998
v -0.01310263485 0.02967481434 -0.03813659906
v -0.01339637965 0.02985999048 -0.03830620408
v -0.01369228542 0.03004033327 -0.03847703934
v -0.01399039507 0.03021584988 -0.03864915133
v -0.01429062009 0.03038652062 -0.03882248998
v -0.01459289968 0.03055228472 -0.03899701595
v -0.01489717484 0.03071311355 -0.03917267919
v -0.01520338476 0.03086899638 -0.03934946895
v -0.01551144004 0.03101985097 -0.03952732444
v -0.0202692908 0.03113693833 -0.04227427483
v -0.01582127988 0.03116568089 -0.03970621347
v -0.02020790935 0.03130105376 -0.04223884463
v -0.01613296509 0.03130648613 -0.03988616824
v -0.01644654036 0.03144229531 -0.04006720662
v -0.02013516068 0.03145607829 -0.04219684482
v -0.01676200569 0.03157315493 -0.04024935007
v -0.02005102515 0.0316020155 -0.04214826107
v -0.01707938969 0.03169900417 -0.04043259144
v -0.01995525062 0.0317415154 -0.04209296823
v -0.01739866555 0.03181990385 -0.04061692357
v -0.01984808922 0.0318719244 -0.04203109503
v -0.01771984577 0.03193581104 -0.04080235362
v -0.01973035455 0.03198523521 -0.04196311355
v -0.01804293036 0.03204673648 -0.04098888159
v -0.01960090578 0.03207988501 -0.04188838363
v -0.01836790502 0.03215268016 -0.04117651463
v -0.01946089447 0.03215745091 -0.041807549
v -0.01844664037 0.03218173385 -0.04122197986
v -0.01852540433 0.03220643878 -0.04126744509
v -0.01931443512 0.03221475005 -0.04172299504
v -0.01860418439 0.03222680926 -0.04131292462
v -0.01868299484 0.03224283099 -0.04135843635
v -0.01916077495 0.03224974394 -0.04163428545
v -0.01876183569 0.03225451469 -0.04140394449
v -0.01884070516 0.03226186395 -0.04144948483
v -0.01900069535 0.03226448894 -0.04154185653
v -0.01892027915 0.03226516485 -0.04149541497
v -0.02631697476 0.0075 -0.0371056509
v -0.02272372484 0.007492530048 -0.0436913538
v -0.02256697476 0.0075 -0.04360084534
v -0.02135313034 0.0075 -0.03721899033
v -0.02643724501 0.007493999898 -0.03717508435
v -0.02656072497 0.007499160022 -0.03724638104
v -0.0228798151 0.007502729595 -0.04378146172
v -0.02668740034 0.007515479922 -0.03731951952
v -0.02303521514 0.007530585229 -0.04387119055
v -0.02681863546 0.007541085184 -0.03739528656
v -0.02311312437 0.007551074624 -0.04391615868
v -0.02319266975 0.007575794756 -0.04396208882
v -0.02695433915 0.007576064765 -0.03747362852
v -0.02327276945 0.007604835033 -0.04400833368
v -0.02708941519 0.007627559602 -0.03755163074
v -0.02335205913 0.007638375163 -0.04405411363
v -0.02342923522 0.007676534951 -0.04409866333
v -0.02722117424 0.007700819671 -0.03762769461
v -0.0235029155 0.0077194646 -0.04414122105
v -0.02357186973 0.007767359912 -0.0441810286
v -0.02735336959 0.007792620063 -0.03770401597
v -0.02363761425 0.007821089923 -0.04421898007
v -0.02370081067 0.00788035512 -0.044255476
v -0.02747861981 0.007904774845 -0.03777632833
v -0.0237609601 0.007944299877 -0.04429018378
v -0.02753594935 0.007969305217 -0.03780943394
v -0.0238174957 0.00801202476 -0.04432283878
v -0.02758963466 0.008040239811 -0.03784042597
v -0.02386993468 0.00808267504 -0.04435310841
v -0.02764137089 0.008117924631 -0.03787029147
v -0.02396050572 0.008230680227 -0.04440540075
v -0.02769049466 0.00820138514 -0.03789865494
v -0.02773621559 0.008289600313 -0.03792505503
v -0.02403250515 0.008393999934 -0.04444696426
v -0.02777778089 0.008381609917 -0.03794905543
v -0.02781440914 0.008476380408 -0.03797020555
v -0.02408887446 0.008564910293 -0.04447951555
v -0.02784547448 0.00857311517 -0.03798812985
v -0.02413254082 0.008732249737 -0.04450472832
v -0.02787175477 0.008672804832 -0.03800331116
v -0.02789350569 0.008775809705 -0.0380158639
v -0.02416354537 0.008895914555 -0.04452262402
v -0.02791072547 0.008882129788 -0.03802580953
v -0.0279234302 0.008991749883 -0.03803314447
v -0.02418112457 0.009058799744 -0.04453278065
v -0.02793161988 0.009104669988 -0.03803786874
v -0.0241852802 0.009220905304 -0.04453516603
v -0.0279352802 0.009220905304 -0.0380399859
v -0.02422303498 0.009582299888 -0.04455697417
v -0.02797303498 0.009582299888 -0.03806177974
v -0.02426070035 0.009939749837 -0.0445787251
v -0.02801070035 0.009939749837 -0.03808353066
v -0.02429826021 0.01029327035 -0.04460040092
v -0.02804826021 0.01029327035 -0.03810522079
v -0.02433571458 0.01064285964 -0.04462203026
v -0.02808571458 0.01064285964 -0.03812683582
v -0.02437306523 0.01098850518 -0.04464358449
v -0.02812306523 0.01098850518 -0.03814839005
v -0.02441031039 0.0113302204 -0.04466509581
v -0.02816031039 0.0113302204 -0.03816990137
v -0.02444743574 0.01166799009 -0.04468652844
v -0.02819743574 0.01166799009 -0.03819134831
v -0.02448446989 0.01200183034 -0.04470792174
v -0.02823446989 0.01200183034 -0.03821272373
v -0.02636394024 0.01207031965 -0.04146289587
v -0.02644014001 0.01208092511 -0.04133452535
v -0.02452145934 0.01233172506 -0.04472926497
v -0.02651757002 0.01211271018 -0.04120978475
v -0.02659471571 0.01216519475 -0.04109128475
v -0.02667046487 0.01223769039 -0.04098152876
v -0.02674321532 0.01232890517 -0.04088305593
v -0.02827145934 0.01233172506 -0.03823408484
v -0.0268105495 0.01243646979 -0.04079823017
v -0.02687082052 0.01255738467 -0.04072911143
v -0.02830996513 0.01265771985 -0.03825631499
v -0.02692378521 0.01268919021 -0.04067710519
v -0.02696800411 0.01282990515 -0.04064244032
v -0.02700232565 0.01297750533 -0.04062559605
v -0.02835003018 0.0129798004 -0.03827942848
v -0.02702688038 0.01312884003 -0.04062779903
v -0.02704038084 0.01328032494 -0.04064887404
v -0.02839067996 0.01329794973 -0.03830290675
v -0.02704185069 0.01342846513 -0.04068794847
v -0.02703223586 0.01357049972 -0.04074486136
v -0.02843097031 0.01361216962 -0.03832617044
v -0.02701156497 0.01370305538 -0.04081817865
v -0.0269799757 0.01382299483 -0.0409055686
v -0.02846993923 0.01392242968 -0.03834866881
v -0.02693876982 0.01392802477 -0.04100522876
v -0.02688900054 0.01401649475 -0.04111529946
v -0.0268314296 0.01408701003 -0.04123358846
v -0.02676733553 0.01413825005 -0.04135777473
v -0.0266982758 0.0141693002 -0.04148544073
v -0.02662570417 0.01417969465 -0.04161401868
v -0.02850666046 0.0142287147 -0.03836986542
v -0.02475666046 0.0142287147 -0.04486505985
v -0.02654917538 0.01416889518 -0.04174355865
v -0.02479015589 0.01453102469 -0.04488439322
v -0.02854015589 0.01453102469 -0.03838921666
v -0.02481949568 0.01482933015 -0.04490134478
v -0.02856949568 0.01482933015 -0.03840615034
v -0.02484403431 0.01512355506 -0.04491550326
v -0.02859403431 0.01512355506 -0.03842032671
v -0.02486608565 0.01541323543 -0.04492823839
v -0.02861608565 0.01541323543 -0.03843304396
v -0.02488591433 0.01569849014 -0.04493968606
v -0.02863591433 0.01569849014 -0.03844449162
v -0.0249030751 0.01597961962 -0.0449495995
v -0.0286530751 0.01597961962 -0.03845440507
v -0.02491714418 0.01625689566 -0.04495771408
v -0.02866714418 0.01625689566 -0.03846251965
v -0.02492766023 0.01653061509 -0.04496379018
v -0.02867766023 0.01653061509 -0.03846859574
v -0.02493418515 0.0168010658 -0.044967556
v -0.02868418515 0.0168010658 -0.03847236156
v -0.02493630052 0.01706853032 -0.04496876836
v -0.02868630052 0.01706853032 -0.03847358823
v -0.02493353963 0.01733329475 -0.04496718049
v -0.02868353963 0.01733329475 -0.03847198606
v -0.02492578447 0.01759543419 -0.04496271014
v -0.02867578447 0.01759543419 -0.03846751571
v -0.02491402566 0.01785426021 -0.04495591521
v -0.02866402566 0.01785426021 -0.03846072078
v -0.02489824533 0.01810978532 -0.04494681001
v -0.02864824533 0.01810978532 -0.03845161557
v -0.02487832546 0.01836212933 -0.04493530512
v -0.02862832546 0.01836212933 -0.03844011068
v -0.02485413015 0.01861141562 -0.04492133975
v -0.02860413015 0.01861141562 -0.03842614532
v -0.02482550919 0.01885777473 -0.04490481019
v -0.02857550919 0.01885777473 -0.03840963006
v -0.02479236066 0.01910129964 -0.04488566995
v -0.02854236066 0.01910129964 -0.03839048982
v -0.02475453079 0.01934212446 -0.04486382961
v -0.02850453079 0.01934212446 -0.03836864948
v -0.02471189976 0.01958038509 -0.04483921409
v -0.02846189976 0.01958038509 -0.03834403396
v -0.02466446936 0.01981604934 -0.04481184125
v -0.02841446936 0.01981604934 -0.03831664324
v -0.0246124506 0.02004894018 -0.04478181124
v -0.0283624506 0.02004894018 -0.03828661323
v -0.0245558542 0.02027902544 -0.04474912405
v -0.0283058542 0.02027902544 -0.03825394392
v -0.02449468553 0.0205063355 -0.04471381545
v -0.02824468553 0.0205063355 -0.03821862102
v -0.02442893922 0.02073087037 -0.04467584968
v -0.02817893922 0.02073087037 -0.03818065524
v -0.02428372443 0.02117155552 -0.04459201455
v -0.02803372443 0.02117155552 -0.03809682012
v -0.02412019551 0.02160107911 -0.04449759007
v -0.02787019551 0.02160107911 -0.03800240993
v -0.02375365555 0.02605678439 -0.0409770155
v -0.02385616422 0.02594893456 -0.0409000361
v -0.02365315497 0.02617959023 -0.0410365212
v -0.02356060445 0.02631037474 -0.04107487679
v -0.0202692908 0.03113693833 -0.04227427483
v -0.02347656012 0.02644842088 -0.04109168887
v -0.02339936972 0.02659570456 -0.04108803034
v -0.02332904935 0.02675222933 -0.04106386542
v -0.02327295005 0.02690875411 -0.04101503849
v -0.02323118985 0.02705603957 -0.0409500289
v -0.02320372581 0.02719408572 -0.04086883664
v -0.02319065988 0.02732487023 -0.0407695055
v -0.02319196522 0.02744767427 -0.04065271497
v -0.02320737004 0.02755552411 -0.04052545667
v -0.02323731065 0.0276444608 -0.04039063454
v -0.02328213036 0.02771759927 -0.04024479032
v -0.02333907008 0.02777146518 -0.0400959599
v -0.02340647936 0.02780293465 -0.03994984388
v -0.02348647535 0.0278133148 -0.03980159998
v -0.02357487023 0.02780293465 -0.03965818405
v -0.02366769075 0.02777146518 -0.03952675581
v -0.02376813054 0.02771759927 -0.03940302014
v -0.02387201965 0.0276444608 -0.03929128647
v -0.02397379518 0.02755552411 -0.03919795632
v -0.0240192908 0.03113693833 -0.03577908039
v -0.02020790935 0.03130105376 -0.04223884463
v -0.02407631993 0.02744767427 -0.03912097335
v -0.02417680442 0.02732487023 -0.03906145334
v -0.02426936924 0.02719408572 -0.03902310133
v -0.02435339928 0.02705603957 -0.03900628567
v -0.02443058968 0.02690875411 -0.03900995851
v -0.02450092435 0.02675222933 -0.03903410912
v -0.02455700934 0.02659570456 -0.03908295035
v -0.02459878564 0.02644842088 -0.03914795995
v -0.02462623537 0.02631037474 -0.03922914147
v -0.02463929951 0.02617959023 -0.03932848334
v -0.02463801026 0.02605678439 -0.03944525957
v -0.02462258935 0.02594893456 -0.03957253575
v -0.02459265053 0.02585999966 -0.03970734
v -0.02454783082 0.02578685939 -0.03985318422
v -0.0244909054 0.02573299527 -0.04000202894
v -0.02442348003 0.02570152581 -0.04014814496
v -0.02434348583 0.02569114566 -0.04029638886
v -0.02425510526 0.02570152581 -0.04043979049
v -0.02416227043 0.02573299527 -0.04057123661
v -0.02406183064 0.02578685939 -0.0406949544
v -0.02395793974 0.02585999966 -0.04080669165
v -0.0239895004 0.03122511148 -0.03576188922
v -0.02395591557 0.03131090999 -0.03574249506
v -0.02013516068 0.03145607829 -0.04219684482
v -0.02391853452 0.0313943696 -0.03572090864
v -0.02387736082 0.03147546172 -0.03569715142
v -0.02005102515 0.0316020155 -0.04214826107
v -0.02383238912 0.03155421138 -0.03567118406
v -0.02378364086 0.03163058996 -0.0356430316
v -0.01995525062 0.0317415154 -0.04209296823
v -0.02373043478 0.03170602441 -0.03561231136
v -0.02367265463 0.03178078651 -0.03557894826
v -0.01984808922 0.0318719244 -0.04203109503
v -0.02361108005 0.03185320616 -0.03554340005
v -0.02354649067 0.03192155957 -0.03550611019
v -0.01973035455 0.03198523521 -0.04196311355
v -0.02347968042 0.03198420167 -0.0354675436
v -0.02341143072 0.03203941584 -0.03542814016
v -0.01960090578 0.03207988501 -0.04188838363
v -0.02334069014 0.03208735585 -0.03538729548
v -0.01946089447 0.03215745091 -0.041807549
v -0.02326660573 0.03212936997 -0.03534453034
v -0.02319030046 0.0321656692 -0.03530047417
v -0.01931443512 0.03221475005 -0.04172299504
v -0.02311288476 0.03219642162 -0.03525577426
v -0.02295912087 0.03224200487 -0.03516700387
v -0.01916077495 0.03224974394 -0.04163428545
v -0.02280590951 0.03226345539 -0.03507853389
v -0.01900069535 0.03226448894 -0.04154185653
v -0.01892027915 0.03226516485 -0.04149541497
v -0.02265265524 0.03226344109 -0.03499006391
v -0.01884070516 0.03226186395 -0.04144948483
v -0.01876183569 0.03225451469 -0.04140394449
v -0.02250652492 0.03225141048 -0.03490568876
v -0.01868299484 0.03224283099 -0.04135843635
v -0.02236987531 0.03223051429 -0.0348267889
v -0.01860418439 0.03222680926 -0.04131292462
v -0.01852540433 0.03220643878 -0.04126744509
v -0.02224033535 0.03219760537 -0.03475201607
v -0.01844664037 0.03218173385 -0.04122197986
v -0.01836790502 0.03215268016 -0.04117651463
v -0.02211790502 0.03215268016 -0.03468132019
v -0.01804293036 0.03204673648 -0.04098888159
v -0.02179293036 0.03204673648 -0.03449370146
v -0.01771984577 0.03193581104 -0.04080235362
v -0.02146984577 0.03193581104 -0.03430715919
v -0.01739866555 0.03181990385 -0.04061692357
v -0.02114866555 0.03181990385 -0.03412172914
v -0.01707938969 0.03169900417 -0.04043259144
v -0.02082938969 0.03169900417 -0.03393739343
v -0.01676200569 0.03157315493 -0.04024935007
v -0.02051200569 0.03157315493 -0.03375415564
v -0.01644654036 0.03144229531 -0.04006720662
v -0.02019654036 0.03144229531 -0.03357200861
v -0.01613296509 0.03130648613 -0.03988616824
v -0.01988296509 0.03130648613 -0.03339097381
v -0.01582127988 0.03116568089 -0.03970621347
v -0.01957127988 0.03116568089 -0.03321103334
v -0.01551144004 0.03101985097 -0.03952732444
v -0.01926144004 0.03101985097 -0.03303214431
v -0.01520338476 0.03086899638 -0.03934946895
v -0.01895338476 0.03086899638 -0.03285427451
v -0.01489717484 0.03071311355 -0.03917267919
v -0.01864717484 0.03071311355 -0.03267749906
v -0.01459289968 0.03055228472 -0.03899701595
v -0.01834289968 0.03055228472 -0.03250182152
v -0.01429062009 0.03038652062 -0.03882248998
v -0.01804062009 0.03038652062 -0.03232729554
v -0.01399039507 0.03021584988 -0.03864915133
v -0.01774039507 0.03021584988 -0.03215395331
v -0.01369228542 0.03004033327 -0.03847703934
v -0.01744228542 0.03004033327 -0.0319818449
v -0.01339637965 0.02985999048 -0.03830620408
v -0.01714638054 0.02985999048 -0.03181100965
v -0.01310263485 0.02967481434 -0.03813659906
v -0.01685263574 0.02967481434 -0.03164140463
v -0.01281095982 0.02948474944 -0.03796820998
v -0.01656095982 0.02948474944 -0.03147301555
v -0.01252136976 0.02928979576 -0.03780101895
v -0.01627137065 0.02928979576 -0.03130582452
v -0.01223386467 0.02908996582 -0.03763501525
v -0.01598386467 0.02908996582 -0.03113983512
v -0.01194844544 0.02888524532 -0.0374702239
v -0.01569844544 0.02888524532 -0.03097504377
v -0.01166509509 0.02867565036 -0.03730663419
v -0.01541509509 0.02867565036 -0.03081145406
v -0.01138382971 0.02846116483 -0.03714426041
v -0.01513382971 0.02846116483 -0.03064906597
v -0.0111046502 0.02824180484 -0.03698307037
v -0.0148546502 0.02824180484 -0.03048787594
v -0.01100203514 0.02816603959 -0.03692381859
v -0.01477954477 0.02818644047 -0.03044450998
v -0.01470772505 0.02812788069 -0.03040305018
v -0.01090212017 0.02807803452 -0.03686614394
v -0.01463917494 0.02806612551 -0.03036347866
v -0.0108049196 0.02797777534 -0.03681001425
v -0.01457392484 0.02800116062 -0.03032579899
v -0.01451193005 0.02793300033 -0.03029001117
v -0.01070748031 0.02786608458 -0.03675376654
v -0.01445287496 0.02786124051 -0.03025591493
v -0.01061274022 0.0277421397 -0.0366990602
v -0.01439605504 0.02778505504 -0.03022310972
v -0.01434240013 0.02770555437 -0.03019213557
v -0.01052956492 0.02760349452 -0.03665104508
v -0.01429294467 0.02762390971 -0.03016357541
v -0.01424872488 0.02754133523 -0.03013804436
v -0.01045805991 0.02744796038 -0.03660974979
v -0.0142107296 0.02745878935 -0.03011611462
v -0.01417862982 0.0273745805 -0.03009757519
v -0.01039811969 0.02727770984 -0.03657516003
v -0.01412993968 0.02720260441 -0.03006946564
v -0.01037514031 0.02718835473 -0.03656188488
v -0.01035825044 0.02709685564 -0.03655213594
v -0.01409924984 0.02703257918 -0.03005174875
v -0.01034728467 0.02700187504 -0.03654580593
v -0.01034134537 0.0269027102 -0.03654236913
v -0.01408710033 0.02686588526 -0.03004472852
v -0.01034042984 0.02680090427 -0.03654184341
v -0.01409187019 0.02670269966 -0.0300474894
v -0.01034451038 0.0266979593 -0.03654420018
v -0.01035358518 0.02659542024 -0.03654943585
v -0.01410777032 0.02654876947 -0.03005666971
v -0.01036760956 0.02649479985 -0.03655753613
v -0.01413711011 0.0264039892 -0.03007360339
v -0.0103866148 0.02639584422 -0.0365685153
v -0.01041058481 0.0262972945 -0.03658234477
v -0.01417466998 0.02626743078 -0.03009529352
v -0.01043954998 0.02619913459 -0.03659907103
v -0.01421423972 0.02613909066 -0.03011813879
v -0.01047349513 0.02610136449 -0.03661867619
v -0.01425799459 0.02601895452 -0.03014340162
v -0.01051242024 0.02600400031 -0.03664114594
v -0.01055632532 0.02590704024 -0.03666649461
v -0.01430632532 0.02590704024 -0.03017130017
v -0.01349440455 0.02232562423 -0.03491767645
v -0.01352436036 0.02241455913 -0.03478285432
v -0.01347899973 0.02221777439 -0.03504493475
v -0.01347770959 0.02209497035 -0.03516172528
v -0.01349077463 0.02196418583 -0.03526105642
v -0.01351822525 0.02182613969 -0.03534224868
v -0.01524051011 0.01430774957 -0.03937090516
v -0.01355999976 0.02167885423 -0.03540725827
v -0.01361608475 0.02152232945 -0.03545608521
v -0.01368642032 0.02136580467 -0.03548025012
v -0.01376359463 0.02121851921 -0.03548390865
v -0.01384763986 0.02108047485 -0.03546709657
v -0.01394020468 0.02094969034 -0.03542874098
v -0.01404069006 0.02082688451 -0.03536923528
v -0.01414319962 0.02071903467 -0.03529225588
v -0.01424497515 0.02063009977 -0.03519891143
v -0.01434886515 0.02055695951 -0.03508717418
v -0.01444930494 0.02050309539 -0.03496345639
v -0.01454213977 0.02047162414 -0.03483201027
v -0.01463052034 0.02046124578 -0.03468860865
v -0.01471052974 0.02047162414 -0.03454036474
v -0.01477793992 0.02050309539 -0.03439424872
v -0.01483486533 0.02055695951 -0.03424540401
v -0.01487968504 0.02063009977 -0.03409955978
v -0.01490963995 0.02071903467 -0.03396475554
v -0.01492504478 0.02082688451 -0.03383747935
v -0.01492633492 0.02094969034 -0.0337207067
v -0.01899051011 0.01430774957 -0.03287572503
v -0.01534762502 0.01401316524 -0.03943274975
v -0.01491326988 0.02108047485 -0.03362136126
v -0.01488582015 0.02121851921 -0.03354017973
v -0.01484404474 0.02136580467 -0.03347517014
v -0.01478795975 0.02152232945 -0.0334263289
v -0.01471762508 0.02167885423 -0.03340217829
v -0.01464044988 0.02182613969 -0.03339850545
v -0.01455640465 0.02196418583 -0.03341532111
v -0.01446383983 0.02209497035 -0.0334536767
v -0.01436335534 0.02221777439 -0.03351319671
v -0.01426084489 0.02232562423 -0.03359017611
v -0.01415907025 0.02241455913 -0.03368350625
v -0.01405518025 0.02248768508 -0.03379523993
v -0.01395473957 0.0225415653 -0.03391897559
v -0.01386190474 0.02257303476 -0.03405040383
v -0.01377352506 0.02258341491 -0.03419381976
v -0.01369351476 0.02257303476 -0.03434206367
v -0.01362610459 0.0225415653 -0.03448817968
v -0.01356918007 0.02248768508 -0.0346370101
v -0.01909762502 0.01401316524 -0.03293756962
v -0.01543558538 0.01371014982 -0.03948354006
v -0.01918558538 0.01371014982 -0.03298834562
v -0.01547237992 0.01355548471 -0.03950477958
v -0.01922237992 0.01355548471 -0.03300958514
v -0.0155043751 0.01339870512 -0.03952326179
v -0.0192543751 0.01339870512 -0.03302806377
v -0.01553158522 0.01323981017 -0.03953896523
v -0.01928158522 0.01323981017 -0.03304377079
v -0.01555401027 0.01307881504 -0.03955191135
v -0.01930401027 0.01307881504 -0.03305671334
v -0.01557109416 0.01291585475 -0.03956177831
v -0.01932109416 0.01291585475 -0.03306658387
v -0.01558261514 0.01275099009 -0.03956842661
v -0.01933261514 0.01275099009 -0.0330732286
v -0.01558903456 0.01258410037 -0.03957213163
v -0.01933903456 0.01258410037 -0.03307693362
v -0.01559081912 0.01241506487 -0.03957316518
v -0.01934081912 0.01241506487 -0.03307797074
v -0.01558843553 0.01224375039 -0.03957178473
v -0.01933843553 0.01224375039 -0.0330765903
v -0.01558234513 0.01207004964 -0.03956827641
v -0.01933234513 0.01207004964 -0.03307307839
v -0.01557303071 0.0118938151 -0.03956289053
v -0.01932303071 0.0118938151 -0.03306769609
v -0.01556092501 0.01171492517 -0.0395558989
v -0.01931092501 0.01171492517 -0.03306070447
v -0.01554452956 0.01153354526 -0.03954643607
v -0.01929452956 0.01153354526 -0.03305124164
v -0.01552271962 0.01134981036 -0.03953385115
v -0.01927271962 0.01134981036 -0.03303865671
v -0.01549661994 0.01116367489 -0.03951877356
v -0.01924661994 0.01116367489 -0.03302357912
v -0.01546735525 0.01097509503 -0.03950186849
v -0.01921735525 0.01097509503 -0.03300668836
v -0.0154360199 0.01078397959 -0.03948377967
v -0.0191860199 0.01078397959 -0.03298858523
v -0.01540372431 0.01059028476 -0.03946513653
v -0.01915372431 0.01059028476 -0.0329699564
v -0.01537158072 0.01039394975 -0.03944657922
v -0.01912158072 0.01039394975 -0.03295139909
v -0.01534071028 0.01019491464 -0.03942875862
v -0.01909071028 0.01019491464 -0.03293356419
v -0.01531056046 0.009993209839 -0.03941136003
v -0.01906056046 0.009993209839 -0.03291616559
v -0.01527982414 0.009788895249 -0.03939360023
v -0.01902982414 0.009788895249 -0.0328984201
v -0.01524850488 0.009581985176 -0.03937552571
v -0.01899850488 0.009581985176 -0.03288033128
v -0.01521659911 0.009372479618 -0.0393571043
v -0.01896659911 0.009372479618 -0.03286190987
v -0.0151841104 0.009160365164 -0.03933833957
v -0.0189341104 0.009160365164 -0.03284315944
v -0.01515103519 0.008945640028 -0.03931926012
v -0.01890103519 0.008945640028 -0.03282406569
v -0.01511737525 0.008728334606 -0.03929981947
v -0.01886737525 0.008728334606 -0.03280462503
v -0.0150831449 0.008508405089 -0.0392800498
v -0.0188331449 0.008508405089 -0.03278486967
v -0.01506898463 0.00840580523 -0.03927187443
v -0.0188185358 0.008397764862 -0.03277642608
v -0.01506578922 0.008299709558 -0.03927002907
v -0.01881589472 0.00828550458 -0.03277490973
v -0.01507318497 0.00818955034 -0.0392743063
v -0.01882492483 0.008171025217 -0.03278011322
v -0.01508968413 0.008073135316 -0.03928382993
v -0.01884456038 0.008052074611 -0.0327914536
v -0.01512074947 0.007958595157 -0.03930175424
v -0.01887877464 0.007937040031 -0.03281120896
v -0.01517125547 0.007849754691 -0.03933092952
v -0.01893156052 0.007830509841 -0.03284167528
v -0.01520311475 0.007796325088 -0.03934931874
v -0.01896442473 0.00777924031 -0.03286065102
v -0.01523881495 0.007745669782 -0.03936992884
v -0.01900085986 0.007731015086 -0.03288169384
v -0.01527790546 0.007699469626 -0.03939250588
v -0.01904032588 0.00768715471 -0.03290447831
v -0.0153202343 0.007659164965 -0.03941693902
v -0.0190825206 0.007648844719 -0.03292883992
v -0.01536743939 0.007623435259 -0.03944419384
v -0.01912900507 0.007615109682 -0.03295569062
v -0.01541861951 0.007591904998 -0.03947374463
v -0.01917906046 0.007585590184 -0.0329845798
v -0.01547221541 0.007564694881 -0.03950469017
v -0.01923130453 0.007560270131 -0.03301474571
v -0.01552666426 0.007541939914 -0.03953611493
v -0.01928434432 0.007539120018 -0.03304535866
v -0.01558045506 0.007523744702 -0.03956717849
v -0.01933686018 0.007522155046 -0.03307567477
v -0.01563426018 0.007510079741 -0.03959824562
v -0.01938943505 0.007509360015 -0.0331060338
v -0.01568880022 0.00750086993 -0.03962973118
v -0.01574408948 0.007496130019 -0.03966164947
v -0.01949674487 0.007496310174 -0.03316798568
v -0.01580011547 0.007495830059 -0.03969398975
v -0.01585689068 0.0075 -0.03972678065
v -0.01960689068 0.0075 -0.03323158622
v -0.01787620425 0.0075 -0.0365625
v -0.01799629569 0.0075 -0.03638224483
v -0.01778012931 0.0075 -0.03675663114
v -0.01770716965 0.0075 -0.03695380569
v -0.01765730917 0.0075 -0.03715400934
v -0.01763061047 0.0075 -0.03735825062
v -0.01762727916 0.0075 -0.03756940484
v -0.01764687002 0.0075 -0.03778100967
v -0.01768888414 0.0075 -0.03798527956
v -0.01775464475 0.0075 -0.03818320513
v -0.01784347415 0.0075 -0.03837625623
v -0.01795193911 0.0075 -0.03855745554
v -0.01807790995 0.0075 -0.03872161388
v -0.0182248503 0.0075 -0.03887329459
v -0.01838833451 0.0075 -0.03900906086
v -0.01856249928 0.0075 -0.03912379503
v -0.01874895036 0.0075 -0.03921726108
v -0.01894827068 0.0075 -0.03929095387
v -0.01915309489 0.0075 -0.03934237361
v -0.0193582499 0.0075 -0.03936938882
v -0.01956940413 0.0075 -0.03937271833
v -0.01978101075 0.0075 -0.03935313106
v -0.01998528063 0.0075 -0.03931111336
v -0.02018320441 0.0075 -0.03924535632
v -0.02037625551 0.0075 -0.03915652514
v -0.02055745482 0.0075 -0.03904806018
v -0.02072096944 0.0075 -0.03892282605
v -0.02086944044 0.0075 -0.03877954602
v -0.02100370467 0.0075 -0.03861775517
v -0.02112379432 0.0075 -0.0384375
v -0.02121986926 0.0075 -0.03824336886
v -0.02129283071 0.0075 -0.03804619431
v -0.02134268939 0.0075 -0.03784599066
v -0.02136938989 0.0075 -0.03764174938
v -0.02137271941 0.0075 -0.03743059516
v -0.01813055992 0.0075 -0.03622045398
v -0.01827902913 0.0075 -0.03607717395
v -0.01844254553 0.0075 -0.03595193982
v -0.01862374485 0.0075 -0.03584347486
v -0.01881679416 0.0075 -0.03575464368
v -0.01901471972 0.0075 -0.03568888664
v -0.01921898961 0.0075 -0.03564686894
v -0.01943059444 0.0075 -0.03562728167
v -0.01964176476 0.0075 -0.03563061118
v -0.01984690547 0.0075 -0.03565762639
v -0.02005172968 0.0075 -0.03570904613
v -0.02025105 0.0075 -0.03578273892
v -0.02043749928 0.0075 -0.03587620497
v -0.02061166584 0.0075 -0.03599093914
v -0.02077515006 0.0075 -0.03612670541
v -0.02092209041 0.0075 -0.03627838612
v -0.02104805946 0.0075 -0.03644254446
v -0.02115652442 0.0075 -0.03662374377
v -0.02124535561 0.0075 -0.03681679487
v -0.02131111443 0.0075 -0.03701472044
v -0.02647171497 0.0141366747 -0.04186936498
v -0.02639486969 0.01408353031 -0.04198880911
v -0.02631988585 0.01401031494 -0.04209935904
v -0.02471993923 0.01392242968 -0.04484386325
v -0.02624827445 0.01391839474 -0.04219852567
v -0.02618215442 0.01381011039 -0.04228385925
v -0.02612289011 0.01368822008 -0.04235339999
v -0.02468097031 0.01361216962 -0.04482136488
v -0.02607093036 0.01355517 -0.04240567446
v -0.02602780581 0.01341372013 -0.04244016051
v -0.02464067996 0.01329794973 -0.04479810119
v -0.02599453568 0.01326681018 -0.04245641828
v -0.02597078919 0.01311760515 -0.04245373607
v -0.02460003018 0.0129798004 -0.04477462649
v -0.02595751584 0.01296867013 -0.04243264675
v -0.02595557928 0.0128225854 -0.04239384055
v -0.02596405506 0.01268240958 -0.04233745337
v -0.02455996513 0.01265771985 -0.04475149512
v -0.02598313451 0.01255108505 -0.04226479411
v -0.02601319492 0.01243127972 -0.04217771888
v -0.02605298996 0.01232535034 -0.0420774436
v -0.0261016345 0.01223566532 -0.04196614623
v -0.02615847051 0.01216422021 -0.04184662342
v -0.02622217476 0.01211232036 -0.0417213285
v -0.02629115939 0.01208085001 -0.04159257174
v -0.02629115939 0.01208085001 -0.04159257174
v -0.02452145934 0.01233172506 -0.04472926497
v -0.02636394024 0.01207031965 -0.04146289587
v -0.02668740034 0.007515479922 -0.03731951952
v -0.02631697476 0.0075 -0.0371056509
v -0.01960689068 0.0075 -0.03323158622
v -0.01938943505 0.007509360015 -0.0331060338
v -0.02656072497 0.007499160022 -0.03724638104
v -0.02643724501 0.007493999898 -0.03717508435
v -0.01933686018 0.007522155046 -0.03307567477
v -0.01949674487 0.007496310174 -0.03316798568
v -0.02681863546 0.007541085184 -0.03739528656
v -0.01928434432 0.007539120018 -0.03304535866
v -0.01923130453 0.007560270131 -0.03301474571
v -0.02695433915 0.007576064765 -0.03747362852
v -0.01917906046 0.007585590184 -0.0329845798
v -0.02708941519 0.007627559602 -0.03755163074
v -0.01912900507 0.007615109682 -0.03295569062
v -0.0190825206 0.007648844719 -0.03292883992
v -0.02722117424 0.007700819671 -0.03762769461
v -0.01904032588 0.00768715471 -0.03290447831
v -0.01900085986 0.007731015086 -0.03288169384
v -0.02735336959 0.007792620063 -0.03770401597
v -0.01896442473 0.00777924031 -0.03286065102
v -0.01893156052 0.007830509841 -0.03284167528
v -0.02747861981 0.007904774845 -0.03777632833
v -0.01887877464 0.007937040031 -0.03281120896
v -0.02753594935 0.007969305217 -0.03780943394
v -0.02758963466 0.008040239811 -0.03784042597
v -0.01884456038 0.008052074611 -0.0327914536
v -0.02764137089 0.008117924631 -0.03787029147
v -0.01882492483 0.008171025217 -0.03278011322
v -0.02769049466 0.00820138514 -0.03789865494
v -0.01881589472 0.00828550458 -0.03277490973
v -0.02773621559 0.008289600313 -0.03792505503
v -0.02777778089 0.008381609917 -0.03794905543
v -0.0188185358 0.008397764862 -0.03277642608
v -0.02781440914 0.008476380408 -0.03797020555
v -0.0188331449 0.008508405089 -0.03278486967
v -0.02784547448 0.00857311517 -0.03798812985
v -0.02787175477 0.008672804832 -0.03800331116
v -0.01886737525 0.008728334606 -0.03280462503
v -0.02789350569 0.008775809705 -0.0380158639
v -0.02791072547 0.008882129788 -0.03802580953
v -0.01890103519 0.008945640028 -0.03282406569
v -0.0279234302 0.008991749883 -0.03803314447
v -0.02793161988 0.009104669988 -0.03803786874
v -0.0189341104 0.009160365164 -0.03284315944
v -0.0279352802 0.009220905304 -0.0380399859
v -0.01896659911 0.009372479618 -0.03286190987
v -0.02797303498 0.009582299888 -0.03806177974
v -0.01899850488 0.009581985176 -0.03288033128
v -0.01902982414 0.009788895249 -0.0328984201
v -0.02801070035 0.009939749837 -0.03808353066
v -0.01906056046 0.009993209839 -0.03291616559
v -0.02804826021 0.01029327035 -0.03810522079
v -0.01909071028 0.01019491464 -0.03293356419
v -0.01912158072 0.01039394975 -0.03295139909
v -0.02808571458 0.01064285964 -0.03812683582
v -0.01915372431 0.01059028476 -0.0329699564
v -0.0191860199 0.01078397959 -0.03298858523
v -0.02812306523 0.01098850518 -0.03814839005
v -0.01921735525 0.01097509503 -0.03300668836
v -0.01924661994 0.01116367489 -0.03302357912
v -0.02816031039 0.0113302204 -0.03816990137
v -0.01927271962 0.01134981036 -0.03303865671
v -0.02819743574 0.01166799009 -0.03819134831
v -0.01929452956 0.01153354526 -0.03305124164
v -0.01931092501 0.01171492517 -0.03306070447
v -0.02823446989 0.01200183034 -0.03821272373
v -0.01932303071 0.0118938151 -0.03306769609
v -0.01933234513 0.01207004964 -0.03307307839
v -0.02827145934 0.01233172506 -0.03823408484
v -0.01933843553 0.01224375039 -0.0330765903
v -0.01934081912 0.01241506487 -0.03307797074
v -0.02830996513 0.01265771985 -0.03825631499
v -0.01933903456 0.01258410037 -0.03307693362
v -0.01933261514 0.01275099009 -0.0330732286
v -0.02835003018 0.0129798004 -0.03827942848
v -0.01932109416 0.01291585475 -0.03306658387
v -0.01930401027 0.01307881504 -0.03305671334
v -0.02839067996 0.01329794973 -0.03830290675
v -0.01928158522 0.01323981017 -0.03304377079
v -0.0192543751 0.01339870512 -0.03302806377
v -0.02843097031 0.01361216962 -0.03832617044
v -0.01922237992 0.01355548471 -0.03300958514
v -0.01918558538 0.01371014982 -0.03298834562
v -0.02846993923 0.01392242968 -0.03834866881
v -0.01909762502 0.01401316524 -0.03293756962
v -0.02850666046 0.0142287147 -0.03836986542
v -0.01899051011 0.01430774957 -0.03287572503
v -0.02854015589 0.01453102469 -0.03838921666
v -0.02856949568 0.01482933015 -0.03840615034
v -0.02859403431 0.01512355506 -0.03842032671
v -0.02861608565 0.01541323543 -0.03843304396
v -0.02863591433 0.01569849014 -0.03844449162
v -0.0286530751 0.01597961962 -0.03845440507
v -0.02866714418 0.01625689566 -0.03846251965
v -0.02867766023 0.01653061509 -0.03846859574
v -0.02868418515 0.0168010658 -0.03847236156
v -0.02868630052 0.01706853032 -0.03847358823
v -0.02868353963 0.01733329475 -0.03847198606
v -0.02867578447 0.01759543419 -0.03846751571
v -0.02866402566 0.01785426021 -0.03846072078
v -0.02864824533 0.01810978532 -0.03845161557
v -0.02862832546 0.01836212933 -0.03844011068
v -0.02860413015 0.01861141562 -0.03842614532
v -0.02857550919 0.01885777473 -0.03840963006
v -0.02854236066 0.01910129964 -0.03839048982
v -0.02850453079 0.01934212446 -0.03836864948
v -0.02846189976 0.01958038509 -0.03834403396
v -0.02841446936 0.01981604934 -0.03831664324
v -0.0283624506 0.02004894018 -0.03828661323
v -0.0283058542 0.02027902544 -0.03825394392
v -0.02824468553 0.0205063355 -0.03821862102
v -0.02817893922 0.02073087037 -0.03818065524
v -0.02803372443 0.02117155552 -0.03809682012
v -0.02787019551 0.02160107911 -0.03800240993
v -0.01430632532 0.02590704024 -0.03017130017
v -0.0240192908 0.03113693833 -0.03577908039
v -0.01425799459 0.02601895452 -0.03014340162
v -0.01421423972 0.02613909066 -0.03011813879
v -0.01417466998 0.02626743078 -0.03009529352
v -0.01413711011 0.0264039892 -0.03007360339
v -0.01410777032 0.02654876947 -0.03005666971
v -0.01409187019 0.02670269966 -0.0300474894
v -0.01408710033 0.02686588526 -0.03004472852
v -0.01409924984 0.02703257918 -0.03005174875
v -0.01412993968 0.02720260441 -0.03006946564
v -0.01417862982 0.0273745805 -0.03009757519
v -0.0142107296 0.02745878935 -0.03011611462
v -0.01424872488 0.02754133523 -0.03013804436
v -0.01429294467 0.02762390971 -0.03016357541
v -0.01434240013 0.02770555437 -0.03019213557
v -0.01439605504 0.02778505504 -0.03022310972
v -0.01445287496 0.02786124051 -0.03025591493
v -0.01451193005 0.02793300033 -0.03029001117
v -0.01457392484 0.02800116062 -0.03032579899
v -0.01463917494 0.02806612551 -0.03036347866
v -0.01470772505 0.02812788069 -0.03040305018
v -0.01477954477 0.02818644047 -0.03044450998
v -0.0148546502 0.02824180484 -0.03048787594
v -0.01513382971 0.02846116483 -0.03064906597
v -0.01541509509 0.02867565036 -0.03081145406
v -0.01569844544 0.02888524532 -0.03097504377
v -0.01598386467 0.02908996582 -0.03113983512
v -0.01627137065 0.02928979576 -0.03130582452
v -0.01656095982 0.02948474944 -0.03147301555
v -0.01685263574 0.02967481434 -0.03164140463
v -0.01714638054 0.02985999048 -0.03181100965
v -0.01744228542 0.03004033327 -0.0319818449
v -0.01774039507 0.03021584988 -0.03215395331
v -0.01804062009 0.03038652062 -0.03232729554
v -0.01834289968 0.03055228472 -0.03250182152
v -0.01864717484 0.03071311355 -0.03267749906
v -0.01895338476 0.03086899638 -0.03285427451
v -0.01926144004 0.03101985097 -0.03303214431
v -0.01957127988 0.03116568089 -0.03321103334
v -0.0239895004 0.03122511148 -0.03576188922
v -0.01988296509 0.03130648613 -0.03339097381
v -0.02395591557 0.03131090999 -0.03574249506
v -0.02391853452 0.0313943696 -0.03572090864
v -0.02019654036 0.03144229531 -0.03357200861
v -0.02387736082 0.03147546172 -0.03569715142
v -0.02383238912 0.03155421138 -0.03567118406
v -0.02051200569 0.03157315493 -0.03375415564
v -0.02378364086 0.03163058996 -0.0356430316
v -0.02082938969 0.03169900417 -0.03393739343
v -0.02373043478 0.03170602441 -0.03561231136
v -0.02367265463 0.03178078651 -0.03557894826
v -0.02114866555 0.03181990385 -0.03412172914
v -0.02361108005 0.03185320616 -0.03554340005
v -0.02354649067 0.03192155957 -0.03550611019
v -0.02146984577 0.03193581104 -0.03430715919
v -0.02347968042 0.03198420167 -0.0354675436
v -0.02341143072 0.03203941584 -0.03542814016
v -0.02179293036 0.03204673648 -0.03449370146
v -0.02334069014 0.03208735585 -0.03538729548
v -0.02326660573 0.03212936997 -0.03534453034
v -0.02211790502 0.03215268016 -0.03468132019
v -0.02319030046 0.0321656692 -0.03530047417
v -0.02311288476 0.03219642162 -0.03525577426
v -0.02224033535 0.03219760537 -0.03475201607
v -0.02295912087 0.03224200487 -0.03516700387
v -0.02236987531 0.03223051429 -0.0348267889
v -0.02250652492 0.03225141048 -0.03490568876
v -0.02280590951 0.03226345539 -0.03507853389
v -0.02265265524 0.03226344109 -0.03499006391
v -0.01787620425 0.020625 -0.0365625
v -0.01778012931 0.0075 -0.03675663114
v -0.01787620425 0.0075 -0.0365625
v -0.01799848437 0.020625 -0.03638080359
v -0.0177799952 0.020625 -0.03675923824
v -0.01770716965 0.0075 -0.03695380569
v -0.01770693004 0.020625 -0.03695772171
v -0.01765730917 0.0075 -0.03715400934
v -0.01765701056 0.020625 -0.03715793967
v -0.01763061047 0.0075 -0.03735825062
v -0.01763023496 0.020625 -0.03735988498
v -0.01762727916 0.0075 -0.03756940484
v -0.01762718976 0.020625 -0.03756739497
v -0.01764687002 0.0075 -0.03778100967
v -0.01764768004 0.020625 -0.0377791965
v -0.01768888414 0.0075 -0.03798527956
v -0.01769053459 0.020625 -0.03798761845
v -0.01775464475 0.0075 -0.03818320513
v -0.01775461435 0.020625 -0.0381850183
v -0.01784347415 0.0075 -0.03837625623
v -0.01784190059 0.020625 -0.03837329865
v -0.01795193911 0.0075 -0.03855745554
v -0.01795225561 0.020625 -0.03855523467
v -0.01807790995 0.0075 -0.03872161388
v -0.01808130026 0.020625 -0.03872443557
v -0.0182248503 0.0075 -0.03887329459
v -0.01822466969 0.020625 -0.03887446404
v -0.01838833451 0.0075 -0.03900906086
v -0.0183850193 0.020625 -0.03900623918
v -0.01856249928 0.0075 -0.03912379503
v -0.01856337011 0.020625 -0.03912227869
v -0.01874895036 0.0075 -0.03921726108
v -0.0187530452 0.020625 -0.03921873093
v -0.01894827068 0.0075 -0.03929095387
v -0.01894734085 0.020625 -0.03929170489
v -0.01915309489 0.0075 -0.03934237361
v -0.01914896965 0.020625 -0.03934084654
v -0.0193582499 0.0075 -0.03936938882
v -0.01936000586 0.020625 -0.03936800838
v -0.01956940413 0.0075 -0.03937271833
v -0.01957274973 0.020625 -0.03937260032
v -0.01978101075 0.0075 -0.03935313106
v -0.0197794497 0.020625 -0.03935406089
v -0.01998528063 0.0075 -0.03931111336
v -0.01998244464 0.020625 -0.03931085944
v -0.02018320441 0.0075 -0.03924535632
v -0.02018437564 0.020625 -0.03924376488
v -0.02037625551 0.0075 -0.03915652514
v -0.02031859517 0.01311764985 -0.03918686986
v -0.02032762527 0.01327104002 -0.03918246031
v -0.02033021986 0.01296519041 -0.03918116927
v -0.02036149442 0.01282336503 -0.03916535854
v -0.02041345417 0.01268842489 -0.03913744569
v -0.02055745482 0.0075 -0.03904806018
v -0.02048203468 0.01256166011 -0.03909725904
v -0.02056243479 0.01244611502 -0.03904494166
v -0.02072096944 0.0075 -0.03892282605
v -0.02065636575 0.01233809978 -0.03897595525
v -0.02075708985 0.01224269986 -0.03889117599
v -0.02086944044 0.0075 -0.03877954602
v -0.02085553586 0.01216840535 -0.03879542828
v -0.02094970465 0.01211612999 -0.03868910909
v -0.02100370467 0.0075 -0.03861775517
v -0.02103979468 0.01208343029 -0.03856989026
v -0.02112379432 0.0075 -0.0384375
v -0.02112379432 0.01207031965 -0.0384375
v -0.02121986926 0.0075 -0.03824336886
v -0.0211946851 0.01208389521 -0.03830229163
v -0.02125154972 0.01211466014 -0.03816912174
v -0.02129283071 0.0075 -0.03804619431
v -0.02129570961 0.01216261536 -0.03803947449
v -0.02134268939 0.0075 -0.03784599066
v -0.02132889032 0.0122290501 -0.03791324973
v -0.02135233462 0.01231466979 -0.03779068351
v -0.02136938989 0.0075 -0.03764174938
v -0.02136648059 0.01241373003 -0.03767860651
v -0.02137317002 0.01252141535 -0.03758296609
v -0.02137271941 0.0075 -0.03743059516
v -0.02137499928 0.0126414004 -0.03750069022
v -0.02137387455 0.01277007043 -0.03743492961
v -0.02137180567 0.01290184468 -0.03739061952
v -0.02135313034 0.0075 -0.03721899033
v -0.02137031972 0.01303921491 -0.03736765623
v -0.02137012482 0.01318058968 -0.03736498475
v -0.0213728106 0.020625 -0.03743260503
v -0.02135232031 0.020625 -0.0372208035
v -0.02137138546 0.01331935465 -0.03738353848
v -0.02137350082 0.0134543404 -0.03742514849
v -0.02137497067 0.01358792961 -0.03748912454
v -0.02136974931 0.020625 -0.03764011502
v -0.02137364924 0.01371319503 -0.0375710535
v -0.02136741042 0.01382561982 -0.03766860008
v -0.0213429898 0.020625 -0.03784206033
v -0.02135316074 0.01392970473 -0.03778531551
v -0.02132901013 0.01401969016 -0.0379127562
v -0.02129307032 0.020625 -0.03804227829
v -0.02129509449 0.01408872038 -0.03804151654
v -0.02125054479 0.01413760543 -0.03817172885
v -0.02122000515 0.020625 -0.03824076176
v -0.02119378567 0.01416791975 -0.03830417991
v -0.02112379432 0.020625 -0.0384375
v -0.02112379432 0.01417969465 -0.0384375
v -0.0210015142 0.020625 -0.03861919641
v -0.02103949428 0.01416595459 -0.03857030869
v -0.02094938993 0.01413323969 -0.0386894989
v -0.02086615562 0.020625 -0.03878170609
v -0.02085551977 0.01408150524 -0.03879544616
v -0.02071772933 0.020625 -0.03892504334
v -0.02075818419 0.014009175 -0.03889018536
v -0.02065933585 0.01391680509 -0.03897363067
v -0.02055622458 0.020625 -0.03904920101
v -0.02056666553 0.01381009519 -0.03904203057
v -0.02048524439 0.01369130999 -0.03909528136
v -0.02037804008 0.020625 -0.0391555953
v -0.02041362047 0.01355758488 -0.03913735628
v -0.02035889983 0.01341598481 -0.03916671038
v -0.02131111443 0.0075 -0.03701472044
v -0.02130946577 0.020625 -0.03701238155
v -0.02124535561 0.0075 -0.03681679487
v -0.02124538422 0.020625 -0.0368149817
v -0.02115652442 0.0075 -0.03662374377
v -0.02115809977 0.020625 -0.03662670135
v -0.02104805946 0.0075 -0.03644254446
v -0.02104774475 0.020625 -0.03644476533
v -0.02092209041 0.0075 -0.03627838612
v -0.0209187001 0.020625 -0.03627556443
v -0.02077515006 0.0075 -0.03612670541
v -0.02077533066 0.020625 -0.03612553596
v -0.02061166584 0.0075 -0.03599093914
v -0.02061497927 0.020625 -0.03599376082
v -0.02043749928 0.0075 -0.03587620497
v -0.02043663025 0.020625 -0.03587772131
v -0.02025105 0.0075 -0.03578273892
v -0.02024695516 0.020625 -0.03578126907
v -0.02005172968 0.0075 -0.03570904613
v -0.02005265951 0.020625 -0.03570829511
v -0.01984690547 0.0075 -0.03565762639
v -0.01985103071 0.020625 -0.03565915346
v -0.01964176476 0.0075 -0.03563061118
v -0.0196399802 0.020625 -0.03563199162
v -0.01943059444 0.0075 -0.03562728167
v -0.01942725062 0.020625 -0.03562739968
v -0.01921898961 0.0075 -0.03564686894
v -0.01922055066 0.020625 -0.03564593911
v -0.01901471972 0.0075 -0.03568888664
v -0.01901755571 0.020625 -0.03568914056
v -0.01881679416 0.0075 -0.03575464368
v -0.01881562471 0.020625 -0.03575623512
v -0.01862374485 0.0075 -0.03584347486
v -0.01862196028 0.020625 -0.0358444047
v -0.01844254553 0.0075 -0.03595193982
v -0.01844377577 0.020625 -0.03595079899
v -0.01827902913 0.0075 -0.03607717395
v -0.01828226924 0.020625 -0.03607495666
v -0.01813055992 0.0075 -0.03622045398
v -0.01813384473 0.020625 -0.03621829391
v -0.01799629569 0.0075 -0.03638224483
v -0.02332904935 0.02675222933 -0.04106386542
v -0.01368642032 0.02136580467 -0.03548025012
v -0.01361608475 0.02152232945 -0.03545608521
v -0.02327295005 0.02690875411 -0.04101503849
v -0.02339936972 0.02659570456 -0.04108803034
v -0.01376359463 0.02121851921 -0.03548390865
v -0.02347656012 0.02644842088 -0.04109168887
v -0.01384763986 0.02108047485 -0.03546709657
v -0.02356060445 0.02631037474 -0.04107487679
v -0.01394020468 0.02094969034 -0.03542874098
v -0.02365315497 0.02617959023 -0.0410365212
v -0.01404069006 0.02082688451 -0.03536923528
v -0.02375365555 0.02605678439 -0.0409770155
v -0.01414319962 0.02071903467 -0.03529225588
v -0.02385616422 0.02594893456 -0.0409000361
v -0.01424497515 0.02063009977 -0.03519891143
v -0.02395793974 0.02585999966 -0.04080669165
v -0.01434886515 0.02055695951 -0.03508717418
v -0.02406183064 0.02578685939 -0.0406949544
v -0.01444930494 0.02050309539 -0.03496345639
v -0.02416227043 0.02573299527 -0.04057123661
v -0.01454213977 0.02047162414 -0.03483201027
v -0.02425510526 0.02570152581 -0.04043979049
v -0.01463052034 0.02046124578 -0.03468860865
v -0.02434348583 0.02569114566 -0.04029638886
v -0.01471052974 0.02047162414 -0.03454036474
v -0.02442348003 0.02570152581 -0.04014814496
v -0.01477793992 0.02050309539 -0.03439424872
v -0.0244909054 0.02573299527 -0.04000202894
v -0.01483486533 0.02055695951 -0.03424540401
v -0.02454783082 0.02578685939 -0.03985318422
v -0.01487968504 0.02063009977 -0.03409955978
v -0.02459265053 0.02585999966 -0.03970734
v -0.01490963995 0.02071903467 -0.03396475554
v -0.02462258935 0.02594893456 -0.03957253575
v -0.01492504478 0.02082688451 -0.03383747935
v -0.02463801026 0.02605678439 -0.03944525957
v -0.01492633492 0.02094969034 -0.0337207067
v -0.02463929951 0.02617959023 -0.03932848334
v -0.01491326988 0.02108047485 -0.03362136126
v -0.02462623537 0.02631037474 -0.03922914147
v -0.01488582015 0.02121851921 -0.03354017973
v -0.02459878564 0.02644842088 -0.03914795995
v -0.01484404474 0.02136580467 -0.03347517014
v -0.02455700934 0.02659570456 -0.03908295035
v -0.01478795975 0.02152232945 -0.0334263289
v -0.02450092435 0.02675222933 -0.03903410912
v -0.01471762508 0.02167885423 -0.03340217829
v -0.02443058968 0.02690875411 -0.03900995851
v -0.01464044988 0.02182613969 -0.03339850545
v -0.02435339928 0.02705603957 -0.03900628567
v -0.01455640465 0.02196418583 -0.03341532111
v -0.02426936924 0.02719408572 -0.03902310133
v -0.01446383983 0.02209497035 -0.0334536767
v -0.02417680442 0.02732487023 -0.03906145334
v -0.01436335534 0.02221777439 -0.03351319671
v -0.02407631993 0.02744767427 -0.03912097335
v -0.01426084489 0.02232562423 -0.03359017611
v -0.02397379518 0.02755552411 -0.03919795632
v -0.01415907025 0.02241455913 -0.03368350625
v -0.02387201965 0.0276444608 -0.03929128647
v -0.01405518025 0.02248768508 -0.03379523993
v -0.02376813054 0.02771759927 -0.03940302014
v -0.01395473957 0.0225415653 -0.03391897559
v -0.02366769075 0.02777146518 -0.03952675581
v -0.01386190474 0.02257303476 -0.03405040383
v -0.02357487023 0.02780293465 -0.03965818405
v -0.01377352506 0.02258341491 -0.03419381976
v -0.02348647535 0.0278133148 -0.03980159998
v -0.01369351476 0.02257303476 -0.03434206367
v -0.02340647936 0.02780293465 -0.03994984388
v -0.01362610459 0.0225415653 -0.03448817968
v -0.02333907008 0.02777146518 -0.0400959599
v -0.01356918007 0.02248768508 -0.0346370101
v -0.02328213036 0.02771759927 -0.04024479032
v -0.01352436036 0.02241455913 -0.03478285432
v -0.02323731065 0.0276444608 -0.04039063454
v -0.01349440455 0.02232562423 -0.03491767645
v -0.02320737004 0.02755552411 -0.04052545667
v -0.01347899973 0.02221777439 -0.03504493475
v -0.02319196522 0.02744767427 -0.04065271497
v -0.01347770959 0.02209497035 -0.03516172528
v -0.02319065988 0.02732487023 -0.0407695055
v -0.01349077463 0.02196418583 -0.03526105642
v -0.02320372581 0.02719408572 -0.04086883664
v -0.01351822525 0.02182613969 -0.03534224868
v -0.02323118985 0.02705603957 -0.0409500289
v -0.01355999976 0.02167885423 -0.03540725827
v -0.02122000515 0.020625 -0.03824076176
v -0.01787620425 0.020625 -0.0365625
v -0.01799848437 0.020625 -0.03638080359
v -0.02129307032 0.020625 -0.03804227829
v -0.02112379432 0.020625 -0.0384375
v -0.0177799952 0.020625 -0.03675923824
v -0.0210015142 0.020625 -0.03861919641
v -0.01770693004 0.020625 -0.03695772171
v -0.02086615562 0.020625 -0.03878170609
v -0.01765701056 0.020625 -0.03715793967
v -0.02071772933 0.020625 -0.03892504334
v -0.01763023496 0.020625 -0.03735988498
v -0.02055622458 0.020625 -0.03904920101
v -0.01762718976 0.020625 -0.03756739497
v -0.02037804008 0.020625 -0.0391555953
v -0.01764768004 0.020625 -0.0377791965
v -0.02018437564 0.020625 -0.03924376488
v -0.01769053459 0.020625 -0.03798761845
v -0.01998244464 0.020625 -0.03931085944
v -0.01775461435 0.020625 -0.0381850183
v -0.0197794497 0.020625 -0.03935406089
v -0.01784190059 0.020625 -0.03837329865
v -0.01957274973 0.020625 -0.03937260032
v -0.01795225561 0.020625 -0.03855523467
v -0.01936000586 0.020625 -0.03936800838
v -0.01808130026 0.020625 -0.03872443557
v -0.01914896965 0.020625 -0.03934084654
v -0.01822466969 0.020625 -0.03887446404
v -0.01894734085 0.020625 -0.03929170489
v -0.0183850193 0.020625 -0.03900623918
v -0.0187530452 0.020625 -0.03921873093
v -0.01856337011 0.020625 -0.03912227869
v -0.01813384473 0.020625 -0.03621829391
v -0.0213429898 0.020625 -0.03784206033
v -0.01828226924 0.020625 -0.03607495666
v -0.02136974931 0.020625 -0.03764011502
v -0.01844377577 0.020625 -0.03595079899
v -0.0213728106 0.020625 -0.03743260503
v -0.01862196028 0.020625 -0.0358444047
v -0.02135232031 0.020625 -0.0372208035
v -0.01881562471 0.020625 -0.03575623512
v -0.02130946577 0.020625 -0.03701238155
v -0.01901755571 0.020625 -0.03568914056
v -0.02124538422 0.020625 -0.0368149817
v -0.01922055066 0.020625 -0.03564593911
v -0.02115809977 0.020625 -0.03662670135
v -0.01942725062 0.020625 -0.03562739968
v -0.02104774475 0.020625 -0.03644476533
v -0.0196399802 0.020625 -0.03563199162
v -0.0209187001 0.020625 -0.03627556443
v -0.01985103071 0.020625 -0.03565915346
v -0.02077533066 0.020625 -0.03612553596
v -0.02005265951 0.020625 -0.03570829511
v -0.02061497927 0.020625 -0.03599376082
v -0.02024695516 0.020625 -0.03578126907
v -0.02043663025 0.020625 -0.03587772131
v -0.0266982758 0.0141693002 -0.04148544073
v -0.02112379432 0.01417969465 -0.0384375
v -0.02119378567 0.01416791975 -0.03830417991
v -0.02125054479 0.01413760543 -0.03817172885
v -0.02662570417 0.01417969465 -0.04161401868
v -0.02103949428 0.01416595459 -0.03857030869
v -0.02654917538 0.01416889518 -0.04174355865
v -0.02647171497 0.0141366747 -0.04186936498
v -0.02094938993 0.01413323969 -0.0386894989
v -0.02639486969 0.01408353031 -0.04198880911
v -0.02085551977 0.01408150524 -0.03879544616
v -0.02631988585 0.01401031494 -0.04209935904
v -0.02075818419 0.014009175 -0.03889018536
v -0.02624827445 0.01391839474 -0.04219852567
v -0.02065933585 0.01391680509 -0.03897363067
v -0.02056666553 0.01381009519 -0.03904203057
v -0.02618215442 0.01381011039 -0.04228385925
v -0.02048524439 0.01369130999 -0.03909528136
v -0.02612289011 0.01368822008 -0.04235339999
v -0.02041362047 0.01355758488 -0.03913735628
v -0.02607093036 0.01355517 -0.04240567446
v -0.02035889983 0.01341598481 -0.03916671038
v -0.02602780581 0.01341372013 -0.04244016051
v -0.02032762527 0.01327104002 -0.03918246031
v -0.02599453568 0.01326681018 -0.04245641828
v -0.02031859517 0.01311764985 -0.03918686986
v -0.02597078919 0.01311760515 -0.04245373607
v -0.02595751584 0.01296867013 -0.04243264675
v -0.02033021986 0.01296519041 -0.03918116927
v -0.02595557928 0.0128225854 -0.04239384055
v -0.02036149442 0.01282336503 -0.03916535854
v -0.02041345417 0.01268842489 -0.03913744569
v -0.02596405506 0.01268240958 -0.04233745337
v -0.02048203468 0.01256166011 -0.03909725904
v -0.02598313451 0.01255108505 -0.04226479411
v -0.02056243479 0.01244611502 -0.03904494166
v -0.02601319492 0.01243127972 -0.04217771888
v -0.02065636575 0.01233809978 -0.03897595525
v -0.02605298996 0.01232535034 -0.0420774436
v -0.02075708985 0.01224269986 -0.03889117599
v -0.0261016345 0.01223566532 -0.04196614623
v -0.02085553586 0.01216840535 -0.03879542828
v -0.02615847051 0.01216422021 -0.04184662342
v -0.02094970465 0.01211612999 -0.03868910909
v -0.02622217476 0.01211232036 -0.0417213285
v -0.02103979468 0.01208343029 -0.03856989026
v -0.02629115939 0.01208085001 -0.04159257174
v -0.02112379432 0.01207031965 -0.0384375
v -0.02636394024 0.01207031965 -0.04146289587
v -0.0211946851 0.01208389521 -0.03830229163
v -0.02644014001 0.01208092511 -0.04133452535
v -0.02125154972 0.01211466014 -0.03816912174
v -0.02651757002 0.01211271018 -0.04120978475
v -0.02129570961 0.01216261536 -0.03803947449
v -0.02659471571 0.01216519475 -0.04109128475
v -0.02132889032 0.0122290501 -0.03791324973
v -0.02667046487 0.01223769039 -0.04098152876
v -0.02135233462 0.01231466979 -0.03779068351
v -0.02674321532 0.01232890517 -0.04088305593
v -0.02136648059 0.01241373003 -0.03767860651
v -0.0268105495 0.01243646979 -0.04079823017
v -0.02137317002 0.01252141535 -0.03758296609
v -0.02687082052 0.01255738467 -0.04072911143
v -0.02137499928 0.0126414004 -0.03750069022
v -0.02692378521 0.01268919021 -0.04067710519
v -0.02137387455 0.01277007043 -0.03743492961
v -0.02696800411 0.01282990515 -0.04064244032
v -0.02137180567 0.01290184468 -0.03739061952
v -0.02700232565 0.01297750533 -0.04062559605
v -0.02137031972 0.01303921491 -0.03736765623
v -0.02702688038 0.01312884003 -0.04062779903
v -0.02137012482 0.01318058968 -0.03736498475
v -0.02704038084 0.01328032494 -0.04064887404
v -0.02137138546 0.01331935465 -0.03738353848
v -0.02704185069 0.01342846513 -0.04068794847
v -0.02137350082 0.0134543404 -0.03742514849
v -0.02703223586 0.01357049972 -0.04074486136
v -0.02137497067 0.01358792961 -0.03748912454
v -0.02701156497 0.01370305538 -0.04081817865
v -0.02137364924 0.01371319503 -0.0375710535
v -0.0269799757 0.01382299483 -0.0409055686
v -0.02136741042 0.01382561982 -0.03766860008
v -0.02693876982 0.01392802477 -0.04100522876
v -0.02135316074 0.01392970473 -0.03778531551
v -0.02688900054 0.01401649475 -0.04111529946
v -0.02132901013 0.01401969016 -0.0379127562
v -0.0268314296 0.01408701003 -0.04123358846
v -0.02129509449 0.01408872038 -0.03804151654
v -0.02676733553 0.01413825005 -0.04135777473
f 1 2 3
f 4 2 1
f 4 1 5
f 6 2 4
f 6 4 7
f 6 7 8
f 5 1 9
f 9 1 10
f 9 10 11
f 11 10 12
f 11 12 13
f 13 12 14
f 13 14 15
f 15 14 16
f 15 16 17
f 17 16 18
f 17 18 19
f 19 18 20
f 19 20 21
f 21 20 22
f 21 22 23
f 23 22 24
f 23 24 25
f 25 24 26
f 25 26 27
f 27 26 28
f 27 28 29
f 29 28 30
f 29 30 31
f 29 31 32
f 32 31 33
f 32 33 34
f 34 33 35
f 34 35 36
f 36 35 37
f 36 37 38
f 38 37 39
f 39 37 40
f 39 40 41
f 41 40 42
f 41 42 43
f 43 42 44
f 43 44 45
f 43 45 46
f 46 45 47
f 46 47 48
f 48 47 49
f 49 47 50
f 49 50 51
f 51 50 52
f 51 52 53
f 53 52 54
f 54 52 55
f 54 55 56
f 56 55 57
f 57 55 58
f 57 58 59
f 59 58 60
f 60 58 61
f 60 61 62
f 62 61 63
f 62 63 64
f 64 63 65
f 65 63 66
f 65 66 67
f 67 66 68
f 68 66 69
f 68 69 70
f 70 69 71
f 71 69 72
f 71 72 73
f 73 72 74
f 74 72 75
f 74 75 76
f 76 75 77
f 77 75 78
f 77 78 79
f 79 78 80
f 80 78 81
f 80 81 82
f 82 81 83
f 83 81 84
f 83 84 85
f 85 84 86
f 85 86 87
f 87 86 88
f 87 88 89
f 89 88 90
f 89 90 91
f 91 90 92
f 91 92 93
f 91 93 94
f 91 94 95
f 91 95 96
f 91 96 97
f 91 97 98
f 91 98 99
f 91 99 100
f 91 100 101
f 91 101 102
f 91 102 103
f 91 103 104
f 91 104 105
f 91 105 106
f 91 106 107
f 91 107 108
f 91 108 109
f 91 109 110
f 91 110 111
f 91 111 112
f 91 112 113
f 91 113 114
f 91 114 115
f 91 115 116
f 91 116 117
f 91 117 118
f 118 117 119
f 119 117 120
f 120 117 121
f 121 117 122
f 122 117 123
f 123 117 124
f 124 117 125
f 125 117 126
f 126 117 127
f 127 117 128
f 128 117 129
f 129 117 130
f 130 117 131
f 131 117 132
f 132 117 133
f 133 117 134
f 134 117 135
f 135 117 136
f 136 117 137
f 137 117 138
f 138 117 139
f 139 117 140
f 140 117 141
f 141 117 142
f 142 117 143
f 143 117 144
f 144 117 145
f 145 117 146
f 146 117 147
f 147 117 148
f 148 117 149
f 149 117 150
f 150 117 151
f 151 117 152
f 152 117 153
f 153 117 154
f 154 117 155
f 154 155 156
f 156 155 157
f 156 157 158
f 158 157 159
f 159 157 160
f 159 160 161
f 161 160 162
f 161 162 163
f 163 162 164
f 163 164 165
f 165 164 166
f 165 166 167
f 167 166 168
f 167 168 169
f 169 168 170
f 169 170 171
f 171 170 172
f 171 172 173
f 173 172 174
f 174 172 175
f 174 175 176
f 176 175 177
f 177 175 178
f 177 178 179
f 179 178 180
f 180 178 181
f 180 181 182
f 183 184 185
f 186 183 185
f 187 184 183
f 187 188 184
f 188 189 184
f 188 190 189
f 190 191 189
f 190 192 191
f 192 193 191
f 192 194 193
f 192 195 194
f 195 196 194
f 195 197 196
f 197 198 196
f 197 199 198
f 197 200 199
f 200 201 199
f 200 202 201
f 200 203 202
f 203 204 202
f 203 205 204
f 203 206 205
f 206 207 205
f 206 208 207
f 208 209 207
f 208 210 209
f 210 211 209
f 210 212 211
f 212 213 211
f 212 214 213
f 214 215 213
f 215 216 213
f 215 217 216
f 217 218 216
f 218 219 216
f 218 220 219
f 220 221 219
f 220 222 221
f 222 223 221
f 223 224 221
f 223 225 224
f 225 226 224
f 226 227 224
f 226 228 227
f 228 229 227
f 228 230 229
f 230 231 229
f 230 232 231
f 232 233 231
f 232 234 233
f 234 235 233
f 234 236 235
f 236 237 235
f 236 238 237
f 238 239 237
f 238 240 239
f 240 241 239
f 240 242 241
f 242 243 241
f 242 244 243
f 244 245 243
f 244 246 245
f 247 245 246
f 247 246 248
f 247 249 245
f 248 246 250
f 250 246 251
f 251 246 252
f 252 246 253
f 253 246 254
f 253 254 255
f 255 254 256
f 256 254 257
f 256 257 258
f 258 257 259
f 259 257 260
f 260 257 261
f 260 261 262
f 262 261 263
f 263 261 264
f 263 264 265
f 265 264 266
f 266 264 267
f 266 267 268
f 268 267 269
f 269 267 270
f 269 270 271
f 271 270 272
f 272 270 273
f 273 270 274
f 274 270 275
f 275 270 276
f 276 270 277
f 276 277 278
f 279 276 278
f 277 280 278
f 277 281 280
f 281 282 280
f 281 283 282
f 283 284 282
f 283 285 284
f 285 286 284
f 285 287 286
f 287 288 286
f 287 289 288
f 289 290 288
f 289 291 290
f 291 292 290
f 291 293 292
f 293 294 292
f 293 295 294
f 295 296 294
f 295 297 296
f 297 298 296
f 297 299 298
f 299 300 298
f 299 301 300
f 301 302 300
f 301 303 302
f 303 304 302
f 303 305 304
f 305 306 304
f 305 307 306
f 307 308 306
f 307 309 308
f 309 310 308
f 309 311 310
f 311 312 310
f 311 313 312
f 313 314 312
f 313 315 314
f 315 316 314
f 315 317 316
f 317 318 316
f 317 319 318
f 319 320 318
f 319 321 320
f 321 322 320
f 321 323 322
f 323 324 322
f 323 325 324
f 325 326 324
f 325 327 326
f 327 328 326
f 327 329 328
f 329 330 328
f 329 331 330
f 331 332 330
f 331 333 332
f 334 332 333
f 334 333 335
f 336 332 334
f 337 332 336
f 337 338 332
f 339 338 337
f 340 338 339
f 340 341 338
f 342 338 341
f 343 338 342
f 344 338 343
f 345 338 344
f 346 338 345
f 347 338 346
f 348 338 347
f 349 338 348
f 350 338 349
f 351 338 350
f 352 338 351
f 353 338 352
f 354 338 353
f 355 338 354
f 356 338 355
f 357 338 356
f 357 358 338
f 358 359 338
f 360 358 357
f 361 358 360
f 362 358 361
f 362 333 358
f 363 333 362
f 364 333 363
f 365 333 364
f 366 333 365
f 367 333 366
f 368 333 367
f 369 333 368
f 370 333 369
f 371 333 370
f 372 333 371
f 373 333 372
f 374 333 373
f 375 333 374
f 376 333 375
f 377 333 376
f 378 333 377
f 379 333 378
f 380 333 379
f 335 333 380
f 358 381 359
f 381 382 359
f 382 383 359
f 382 384 383
f 384 385 383
f 385 386 383
f 385 387 386
f 387 388 386
f 388 389 386
f 388 390 389
f 390 391 389
f 391 392 389
f 391 393 392
f 393 394 392
f 394 395 392
f 394 396 395
f 396 397 395
f 397 398 395
f 397 399 398
f 399 400 398
f 399 401 400
f 401 402 400
f 402 403 400
f 402 404 403
f 404 405 403
f 405 406 403
f 405 407 406
f 407 408 406
f 407 409 408
f 407 410 409
f 410 411 409
f 410 412 411
f 410 413 412
f 413 414 412
f 413 415 414
f 415 416 414
f 415 417 416
f 415 418 417
f 418 419 417
f 418 420 419
f 418 421 420
f 421 422 420
f 421 423 422
f 423 424 422
f 423 425 424
f 425 426 424
f 425 427 426
f 427 428 426
f 427 429 428
f 429 430 428
f 429 431 430
f 431 432 430
f 431 433 432
f 433 434 432
f 433 435 434
f 435 436 434
f 435 437 436
f 437 438 436
f 437 439 438
f 439 440 438
f 439 441 440
f 441 442 440
f 441 443 442
f 443 444 442
f 443 445 444
f 445 446 444
f 445 447 446
f 447 448 446
f 447 449 448
f 449 450 448
f 449 451 450
f 451 452 450
f 451 453 452
f 453 454 452
f 453 455 454
f 455 456 454
f 455 457 456
f 457 458 456
f 457 459 458
f 459 460 458
f 459 461 460
f 461 462 460
f 461 463 462
f 463 464 462
f 463 465 464
f 465 466 464
f 465 467 466
f 467 468 466
f 467 469 468
f 469 470 468
f 469 471 470
f 471 472 470
f 472 473 470
f 472 474 473
f 474 475 473
f 474 476 475
f 476 477 475
f 477 478 475
f 477 479 478
f 479 480 478
f 479 481 480
f 481 482 480
f 482 483 480
f 482 484 483
f 484 485 483
f 485 486 483
f 485 487 486
f 487 488 486
f 488 489 486
f 488 490 489
f 490 491 489
f 490 492 491
f 490 493 492
f 493 494 492
f 493 495 494
f 493 496 495
f 496 497 495
f 496 498 497
f 498 499 497
f 498 500 499
f 498 501 500
f 501 502 500
f 501 503 502
f 503 504 502
f 503 505 504
f 503 506 505
f 506 507 505
f 506 508 507
f 508 509 507
f 508 510 509
f 510 511 509
f 510 512 511
f 510 513 512
f 514 512 513
f 514 513 515
f 516 512 514
f 517 512 516
f 518 512 517
f 519 512 518
f 519 520 512
f 521 520 519
f 521 522 520
f 523 520 522
f 524 520 523
f 525 520 524
f 526 520 525
f 527 520 526
f 528 520 527
f 529 520 528
f 530 520 529
f 531 520 530
f 532 520 531
f 533 520 532
f 534 520 533
f 535 520 534
f 536 520 535
f 537 520 536
f 538 520 537
f 539 520 538
f 540 520 539
f 540 541 520
f 541 542 520
f 543 541 540
f 543 513 541
f 544 513 543
f 545 513 544
f 546 513 545
f 547 513 546
f 548 513 547
f 549 513 548
f 550 513 549
f 551 513 550
f 552 513 551
f 553 513 552
f 554 513 553
f 555 513 554
f 556 513 555
f 557 513 556
f 558 513 557
f 559 513 558
f 560 513 559
f 515 513 560
f 541 561 542
f 561 562 542
f 561 563 562
f 563 564 562
f 563 565 564
f 565 566 564
f 565 567 566
f 567 568 566
f 567 569 568
f 569 570 568
f 569 571 570
f 571 572 570
f 571 573 572
f 573 574 572
f 573 575 574
f 575 576 574
f 575 577 576
f 577 578 576
f 577 579 578
f 579 580 578
f 579 581 580
f 581 582 580
f 581 583 582
f 583 584 582
f 583 585 584
f 585 586 584
f 585 587 586
f 587 588 586
f 587 589 588
f 589 590 588
f 589 591 590
f 591 592 590
f 591 593 592
f 593 594 592
f 593 595 594
f 595 596 594
f 595 597 596
f 597 598 596
f 597 599 598
f 599 600 598
f 599 601 600
f 601 602 600
f 601 603 602
f 603 604 602
f 603 605 604
f 605 606 604
f 605 607 606
f 607 608 606
f 607 609 608
f 609 610 608
f 609 611 610
f 611 612 610
f 611 613 612
f 613 614 612
f 613 615 614
f 615 616 614
f 615 617 616
f 617 618 616
f 617 619 618
f 619 620 618
f 619 621 620
f 621 622 620
f 621 623 622
f 623 624 622
f 623 625 624
f 625 626 624
f 625 627 626
f 627 628 626
f 627 629 628
f 629 630 628
f 629 631 630
f 631 632 630
f 631 633 632
f 633 634 632
f 633 635 634
f 635 636 634
f 635 637 636
f 637 638 636
f 637 639 638
f 639 640 638
f 639 641 640
f 641 642 640
f 641 643 642
f 643 644 642
f 643 645 644
f 645 646 644
f 645 647 646
f 647 648 646
f 647 649 648
f 649 650 648
f 649 651 650
f 651 652 650
f 651 653 652
f 651 654 653
f 654 655 653
f 654 656 655
f 654 657 656
f 658 656 657
f 659 658 657
f 660 656 658
f 661 656 660
f 662 656 661
f 663 656 662
f 664 656 663
f 665 656 664
f 666 656 665
f 667 656 666
f 668 656 667
f 669 656 668
f 670 656 669
f 670 185 656
f 671 185 670
f 672 185 671
f 673 185 672
f 674 185 673
f 675 185 674
f 676 185 675
f 677 185 676
f 678 185 677
f 679 185 678
f 680 185 679
f 681 185 680
f 682 185 681
f 683 185 682
f 684 185 683
f 685 185 684
f 686 185 685
f 687 185 686
f 688 185 687
f 689 185 688
f 690 185 689
f 691 185 690
f 692 185 691
f 186 185 692
f 659 657 693
f 693 657 694
f 694 657 695
f 695 657 696
f 696 657 697
f 697 657 698
f 698 657 699
f 699 657 700
f 700 657 701
f 701 657 702
f 702 657 703
f 703 657 704
f 704 657 705
f 705 657 706
f 706 657 707
f 707 657 708
f 708 657 709
f 709 657 710
f 710 657 711
f 711 657 183
f 711 183 712
f 712 183 186
f 279 278 713
f 713 278 714
f 714 278 715
f 715 278 716
f 715 716 717
f 717 716 718
f 718 716 719
f 719 716 720
f 719 720 721
f 721 720 722
f 722 720 723
f 722 723 724
f 724 723 725
f 725 723 726
f 725 726 727
f 727 726 728
f 728 726 729
f 729 726 730
f 729 730 731
f 731 730 732
f 732 730 249
f 732 249 733
f 733 249 734
f 734 249 735
f 735 249 736
f 736 249 737
f 738 739 740
f 741 742 743
f 741 743 744
f 745 742 741
f 746 742 745
f 741 744 747
f 744 743 748
f 741 747 749
f 749 747 750
f 749 750 751
f 749 751 752
f 752 751 753
f 752 753 754
f 754 753 755
f 754 755 756
f 754 756 757
f 757 756 758
f 757 758 759
f 757 759 760
f 760 759 761
f 760 761 762
f 760 762 763
f 763 762 764
f 763 764 765
f 765 764 766
f 766 764 767
f 766 767 768
f 768 767 769
f 768 769 770
f 770 769 771
f 770 771 772
f 772 771 773
f 773 771 774
f 773 774 775
f 775 774 776
f 775 776 777
f 777 776 778
f 778 776 779
f 778 779 780
f 780 779 781
f 781 779 782
f 781 782 783
f 783 782 784
f 784 782 785
f 784 785 786
f 786 785 787
f 786 787 788
f 788 787 789
f 788 789 790
f 788 790 791
f 791 790 792
f 791 792 793
f 793 792 794
f 793 794 795
f 793 795 796
f 796 795 797
f 796 797 798
f 796 798 799
f 799 798 800
f 799 800 801
f 799 801 802
f 802 801 803
f 802 803 804
f 804 803 805
f 804 805 806
f 804 806 807
f 807 806 808
f 807 808 809
f 807 809 810
f 810 809 811
f 810 811 812
f 810 812 813
f 813 812 814
f 813 814 815
f 813 815 816
f 816 815 817
f 816 817 818
f 816 818 819
f 819 818 820
f 819 820 821
f 819 821 822
f 822 821 823
f 822 823 824
f 822 824 825
f 825 824 826
f 825 826 827
f 827 826 828
f 827 828 829
f 829 828 830
f 830 828 831
f 831 828 832
f 832 828 833
f 833 828 834
f 834 828 835
f 835 828 836
f 836 828 837
f 837 828 838
f 838 828 839
f 839 828 840
f 840 828 841
f 841 828 842
f 842 828 843
f 843 828 844
f 844 828 845
f 845 828 846
f 846 828 847
f 847 828 848
f 848 828 849
f 849 828 850
f 850 828 851
f 851 828 852
f 852 828 853
f 853 828 854
f 854 828 855
f 855 828 856
f 855 856 857
f 857 856 858
f 857 858 859
f 857 859 860
f 857 860 861
f 857 861 862
f 857 862 863
f 857 863 864
f 857 864 865
f 857 865 866
f 857 866 867
f 857 867 868
f 857 868 869
f 857 869 870
f 857 870 871
f 857 871 872
f 857 872 873
f 857 873 874
f 857 874 875
f 857 875 876
f 857 876 877
f 857 877 878
f 857 878 879
f 857 879 880
f 857 880 881
f 857 881 882
f 857 882 883
f 857 883 884
f 857 884 885
f 857 885 886
f 857 886 887
f 857 887 888
f 857 888 889
f 857 889 890
f 857 890 891
f 857 891 892
f 857 892 893
f 857 893 894
f 857 894 895
f 857 895 896
f 896 895 897
f 896 897 898
f 898 897 899
f 899 897 900
f 899 900 901
f 901 900 902
f 902 900 903
f 902 903 904
f 904 903 905
f 904 905 906
f 906 905 907
f 907 905 908
f 907 908 909
f 909 908 910
f 910 908 911
f 910 911 912
f 912 911 913
f 913 911 914
f 913 914 915
f 915 914 916
f 916 914 917
f 916 917 918
f 918 917 919
f 919 917 920
f 919 920 921
f 921 920 922
f 921 922 923
f 921 923 924
f 924 923 925
f 926 927 928
f 929 926 928
f 930 927 926
f 930 931 927
f 930 932 931
f 932 933 931
f 932 934 933
f 934 935 933
f 934 936 935
f 936 937 935
f 936 938 937
f 938 939 937
f 938 940 939
f 940 941 939
f 940 942 941
f 942 943 941
f 942 944 943
f 944 945 943
f 944 946 945
f 946 947 945
f 946 948 947
f 948 949 947
f 948 950 949
f 950 951 949
f 950 952 951
f 952 953 951
f 952 954 953
f 954 955 953
f 954 956 955
f 956 957 955
f 956 958 957
f 958 959 957
f 958 960 959
f 960 961 959
f 960 962 961
f 962 963 961
f 962 964 963
f 964 965 963
f 964 966 965
f 966 967 965
f 966 968 967
f 968 969 967
f 968 970 969
f 970 971 969
f 970 972 971
f 972 973 971
f 974 973 972
f 974 972 975
f 976 973 974
f 977 973 976
f 978 973 977
f 978 979 973
f 980 979 978
f 981 979 980
f 981 982 979
f 983 982 981
f 984 982 983
f 984 985 982
f 986 985 984
f 987 985 986
f 987 988 985
f 989 988 987
f 989 990 988
f 989 991 990
f 991 992 990
f 993 992 991
f 994 992 993
f 994 995 992
f 996 995 994
f 996 997 995
f 998 997 996
f 999 997 998
f 999 1000 997
f 1001 1000 999
f 1002 1000 1001
f 1002 1003 1000
f 1004 1003 1002
f 1005 1003 1004
f 1006 1003 1005
f 1006 1007 1003
f 1008 1007 1006
f 1009 1007 1008
f 1009 1010 1007
f 1010 1011 1007
f 1012 1010 1009
f 1013 1010 1012
f 1014 1010 1013
f 1014 1015 1010
f 1016 1015 1014
f 1017 1015 1016
f 1017 1018 1015
f 1019 1018 1017
f 1020 1018 1019
f 1020 1021 1018
f 1022 1021 1020
f 1023 1021 1022
f 1023 1024 1021
f 1025 1024 1023
f 1025 1026 1024
f 1025 1027 1026
f 1027 1028 1026
f 1029 1028 1027
f 1030 1028 1029
f 1030 1031 1028
f 1032 1031 1030
f 1032 1033 1031
f 1034 1033 1032
f 1035 1033 1034
f 1035 1036 1033
f 1037 1036 1035
f 1038 1036 1037
f 1038 1039 1036
f 1040 1039 1038
f 1041 1039 1040
f 1041 972 1039
f 975 972 1041
f 1011 1042 1007
f 1011 1043 1042
f 1043 1044 1042
f 1043 1045 1044
f 1045 1046 1044
f 1045 1047 1046
f 1047 1048 1046
f 1047 1049 1048
f 1049 1050 1048
f 1049 1051 1050
f 1051 1052 1050
f 1051 1053 1052
f 1053 1054 1052
f 1053 1055 1054
f 1055 1056 1054
f 1055 1057 1056
f 1057 1058 1056
f 1057 1059 1058
f 1059 1060 1058
f 1059 1061 1060
f 1061 1062 1060
f 1061 1063 1062
f 1063 1064 1062
f 1063 1065 1064
f 1065 1066 1064
f 1065 1067 1066
f 1067 1068 1066
f 1067 1069 1068
f 1069 1070 1068
f 1069 1071 1070
f 1071 1072 1070
f 1071 1073 1072
f 1073 1074 1072
f 1073 1075 1074
f 1075 1076 1074
f 1075 1077 1076
f 1077 1078 1076
f 1077 1079 1078
f 1079 1080 1078
f 1079 1081 1080
f 1081 1082 1080
f 1081 929 1082
f 929 928 1082
f 1083 1084 1085
f 1086 1083 1085
f 1087 1084 1083
f 1087 1088 1084
f 1087 1089 1088
f 1089 1090 1088
f 1089 1091 1090
f 1091 1092 1090
f 1091 1093 1092
f 1093 1094 1092
f 1093 1095 1094
f 1095 1096 1094
f 1095 1097 1096
f 1097 1098 1096
f 1097 1099 1098
f 1099 1100 1098
f 1099 1101 1100
f 1101 1102 1100
f 1101 1103 1102
f 1103 1104 1102
f 1103 1105 1104
f 1105 1106 1104
f 1105 1107 1106
f 1107 1108 1106
f 1107 1109 1108
f 1109 1110 1108
f 1109 1111 1110
f 1111 1112 1110
f 1111 1113 1112
f 1113 1114 1112
f 1113 1115 1114
f 1115 1116 1114
f 1115 1117 1116
f 1117 1118 1116
f 1117 1119 1118
f 1119 1120 1118
f 1119 1121 1120
f 1121 1122 1120
f 1121 1123 1122
f 1123 1124 1122
f 1123 1125 1124
f 1125 1126 1124
f 1125 1127 1126
f 1127 1128 1126
f 1127 1129 1128
f 1129 1130 1128
f 1129 1131 1130
f 1131 1132 1130
f 1131 1133 1132
f 1133 1134 1132
f 1133 1135 1134
f 1135 1136 1134
f 1135 1137 1136
f 1137 1138 1136
f 1137 1139 1138
f 1139 1140 1138
f 1139 1141 1140
f 1141 1142 1140
f 1141 1143 1142
f 1143 1144 1142
f 1143 1145 1144
f 1145 1146 1144
f 1145 1147 1146
f 1147 1148 1146
f 1147 1149 1148
f 1149 1150 1148
f 1149 1151 1150
f 1151 1152 1150
f 1151 1153 1152
f 1153 1154 1152
f 1153 1155 1154
f 1155 1156 1154
f 1155 1157 1156
f 1157 1158 1156
f 1157 1159 1158
f 1159 1160 1158
f 1159 1161 1160
f 1161 1162 1160
f 1161 1163 1162
f 1163 1164 1162
f 1163 1165 1164
f 1165 1166 1164
f 1165 1167 1166
f 1167 1168 1166
f 1167 1169 1168
f 1169 1170 1168
f 1169 1086 1170
f 1086 1085 1170
f 1171 1172 1173
f 1171 1173 1174
f 1175 1172 1171
f 1176 1172 1175
f 1176 1175 1177
f 1176 1177 1178
f 1178 1177 1179
f 1178 1179 1180
f 1180 1179 1181
f 1180 1181 1182
f 1182 1181 1183
f 1182 1183 1184
f 1184 1183 1185
f 1184 1185 1186
f 1186 1185 1187
f 1186 1187 1188
f 1188 1187 1189
f 1188 1189 1190
f 1190 1189 1191
f 1190 1191 1192
f 1192 1191 1193
f 1192 1193 1194
f 1194 1193 1195
f 1194 1195 1196
f 1196 1195 1197
f 1196 1197 1198
f 1198 1197 1199
f 1198 1199 1200
f 1200 1199 1201
f 1200 1201 1202
f 1174 1173 1203
f 1174 1203 1204
f 1204 1203 1205
f 1204 1205 1206
f 1206 1205 1207
f 1206 1207 1208
f 1208 1207 1209
f 1208 1209 1210
f 1210 1209 1211
f 1210 1211 1212
f 1212 1211 1213
f 1212 1213 1214
f 1214 1213 1215
f 1214 1215 1216
f 1216 1215 1217
f 1216 1217 1218
f 1218 1217 1219
f 1218 1219 1220
f 1220 1219 1221
f 1220 1221 1222
f 1222 1221 1223
f 1222 1223 1224
f 1224 1223 1225
f 1224 1225 1226
f 1227 1228 1229
f 1227 1229 1230
f 1227 1231 1228
f 1231 1232 1228
f 1233 1232 1231
f 1233 1234 1232
f 1234 1235 1232
f 1234 1236 1235
f 1236 1237 1235
f 1236 1238 1237
f 1238 1239 1237
f 1238 1240 1239
f 1240 1241 1239
f 1240 1242 1241
f 1240 1243 1242
f 1243 1244 1242
f 1243 1245 1244
f 1245 1246 1244
f 1245 1247 1246
f 1247 1248 1246
f 1247 1249 1248
f 1249 1250 1248
f 1249 1251 1250
f 1251 1252 1250
f 1251 1253 1252
f 1253 1254 1252
f 1254 1255 1252
f 1254 1256 1255
f 1256 1257 1255
f 1256 1258 1257
f 1256 1259 1258
f 1259 1260 1258
f 1259 1261 1260
f 1261 1262 1260
f 1261 1263 1262
f 1263 1264 1262
f 1263 1265 1264
f 1265 1266 1264
f 1265 1267 1266
f 1267 1268 1266
f 1267 1269 1268
f 1269 1270 1268
f 1269 1271 1270
f 1271 1272 1270
f 1271 1273 1272
f 1273 1274 1272
f 1273 1275 1274
f 1275 1276 1274
f 1275 1277 1276
f 1277 1278 1276
f 1277 1279 1278
f 1279 1280 1278
f 1279 1281 1280
f 1281 1282 1280
f 1281 1283 1282
f 1283 1284 1282
f 1283 1285 1284
f 1285 1286 1284
f 1285 1287 1286
f 1287 1288 1286
f 1287 1289 1288
f 1289 1290 1288
f 1289 1291 1290
f 1291 1292 1290
f 1291 1293 1292
f 1293 1294 1292
f 1293 1295 1294
f 1295 1296 1294
f 1295 1297 1296
f 1297 1298 1296
f 1297 1299 1298
f 1299 1300 1298
f 1299 1301 1300
f 1301 1302 1300
f 1301 1303 1302
f 1303 1304 1302
f 1303 1305 1304
f 1305 1306 1304
f 1305 1307 1306
f 1307 1308 1306
f 1307 1309 1308
f 1309 1310 1308
f 1309 1311 1310
f 1311 1312 1310
f 1311 1313 1312
f 1313 1314 1312
f 1313 1315 1314
f 1315 1230 1314
f 1315 1227 1230
