# Geometry extracted from Colibri.usd; meters.
v -0.05061752915 0.04113655329 -0.05651685119
v -0.05146228552 0.04133255839 -0.05487090111
v -0.05152783513 0.04113655329 -0.05494015574
v -0.05072182417 0.04096144438 -0.05649952412
v -0.05052478552 0.04133255839 -0.05649469614
v -0.051369524 0.0415285635 -0.05484874606
v -0.0504592216 0.0415285635 -0.05642545581
v -0.05126524329 0.04170367599 -0.05486606956
v -0.05042207837 0.04170367599 -0.05632647157
v -0.0511471045 0.04186028838 -0.05492463112
v -0.05041372418 0.04186028838 -0.05619487524
v -0.05101625919 0.04199722409 -0.05502355456
v -0.05043397665 0.04199722409 -0.05603211164
v -0.0508890152 0.04209699154 -0.05515090585
v -0.05048063993 0.04209699154 -0.0558582294
v -0.05076324105 0.04215970516 -0.05531026483
v -0.05055575967 0.04215970516 -0.05566963434
v -0.05065040946 0.04218222141 -0.0554847014
v -0.05156497478 0.04096144438 -0.05503912568
v -0.05083996654 0.04080482841 -0.05644096613
v -0.05157332897 0.04080482841 -0.05517071843
v -0.05097079396 0.04066789627 -0.05634203911
v -0.05155309439 0.04066789627 -0.05533349991
v -0.05109805584 0.04056812882 -0.0562146914
v -0.0515064311 0.04056812882 -0.05550736427
v -0.05122382998 0.0405054009 -0.05605534673
v -0.05143131137 0.0405054009 -0.05569595933
v -0.05133666158 0.04048289895 -0.05588091016
v -0.04683787465 0.03884256005 -0.05220100522
v -0.05152783513 0.04113655329 -0.05494015574
v -0.05146228552 0.04133255839 -0.05487090111
v -0.04679495931 0.03901548028 -0.05219496131
v -0.04607939959 0.03843417048 -0.05176309347
v -0.03800791383 0.03408811569 -0.04710301638
v -0.03724943876 0.03367970824 -0.04666510463
v -0.03796499848 0.03426102161 -0.04709698677
v -0.03421187997 0.0436532557 -0.04497977972
v -0.04600405455 0.03854986668 -0.051731565
v -0.04186126471 0.04891395092 -0.04932098866
v -0.04590299964 0.03865200162 -0.05170835853
v -0.03793447495 0.03443954945 -0.04713381171
v -0.04577614546 0.03873526454 -0.05169100642
v -0.03792087078 0.03461935401 -0.04721252918
v -0.04563313365 0.03880999446 -0.05168720841
v -0.03789732099 0.03478669524 -0.04731811523
v -0.04547677517 0.03887585878 -0.05170037985
v -0.03786808491 0.03493672371 -0.04745049119
v -0.04531563163 0.03893530369 -0.05173844934
v -0.04515286446 0.0389835763 -0.05180389524
v -0.03782181144 0.03505766988 -0.04760112047
v -0.04500391603 0.03902030826 -0.05190330148
v -0.0377552104 0.0351385653 -0.04776006103
v -0.04487458348 0.03903949499 -0.05203474402
v -0.03767259121 0.03517640948 -0.04792374015
v -0.04478167534 0.03904078603 -0.05219410658
v -0.03757833123 0.03516824841 -0.04808400035
v -0.0447273159 0.0390220964 -0.05237151146
v -0.03747333169 0.03511270523 -0.04823130012
v -0.04471189499 0.0389861834 -0.05254876614
v -0.03736747384 0.03501634598 -0.04836127639
v -0.04473502636 0.03893932343 -0.05272377133
v -0.03726454496 0.03488580108 -0.04846776009
v -0.04479573011 0.03887133121 -0.05291347504
v -0.03717391491 0.03473256111 -0.04855159521
v -0.0448754847 0.03878599405 -0.05307952523
v -0.03710089445 0.03456886411 -0.04861234546
v -0.04497289538 0.03869057894 -0.05322026968
v -0.03705360174 0.03440223098 -0.0486580646
v -0.04506183028 0.03857146382 -0.05332332015
v -0.03704559088 0.03424113035 -0.04869780064
v -0.03707041383 0.03408811569 -0.04872681141
v -0.03321963072 0.04359336019 -0.04650951147
v -0.04514189959 0.03843417048 -0.0533868885
v -0.02353711545 0.02655877411 -0.04088391066
v -0.04086538553 0.04885836124 -0.05084920406
v -0.0409621954 0.04895468831 -0.05102335453
v -0.04525636554 0.03851599574 -0.05353957415
v -0.04109386325 0.04905984163 -0.0511681366
v -0.04538944602 0.0385977459 -0.0536597085
v -0.04125457406 0.0491682601 -0.05127670527
v -0.04554114103 0.03867942095 -0.05374729514
v -0.04143694639 0.04927584171 -0.05134407163
v -0.04571145058 0.0387610352 -0.05380231619
v -0.04163212538 0.04937661052 -0.05136742473
v -0.04590037465 0.03884256005 -0.05382480025
v -0.0458755517 0.03899558902 -0.05379577518
v -0.0504592216 0.0415285635 -0.05642545581
v -0.04588355899 0.03915668964 -0.05375605345
v -0.04183128119 0.04946704388 -0.05134626031
v -0.04593085527 0.03932332635 -0.05371032
v -0.04600387573 0.03948701978 -0.05364956975
v -0.0420273006 0.04954339385 -0.05128166914
v -0.04609450579 0.03964025974 -0.05356573462
v -0.04221143961 0.04960273504 -0.05117606878
v -0.04619743466 0.03977079034 -0.05345925093
v -0.04630328894 0.0398671639 -0.05332927465
v -0.04237564445 0.04964217067 -0.05103386879
v -0.04640828848 0.03992271066 -0.05318198919
v -0.04251262665 0.04965995908 -0.05086090565
v -0.04650254846 0.03993087173 -0.05302172899
v -0.04261570573 0.04965532422 -0.05066536546
v -0.04658517122 0.03989302397 -0.05285803556
v -0.04268041492 0.04962850571 -0.05045627832
v -0.04665176868 0.03981212854 -0.05269909501
v -0.04669804573 0.03969118595 -0.05254848003
v -0.04270434022 0.04958064079 -0.05024271011
v -0.04672727823 0.03954115391 -0.05241608977
v -0.04268688083 0.04951411486 -0.0500348103
v -0.0467508316 0.03937381625 -0.05231050372
v -0.04676445007 0.03919399381 -0.05223180056
v -0.04262845516 0.04943178177 -0.04983931661
v -0.04253128409 0.04933621645 -0.04966494083
v -0.0467234087 0.0387607348 -0.05204830527
v -0.04239931583 0.04923162103 -0.04951997995
v -0.04659032822 0.03867898464 -0.05192818522
v -0.04223850131 0.04912327409 -0.0494113934
v -0.04643863678 0.03859730959 -0.05184059858
v -0.04205620408 0.04901536345 -0.04934413433
v -0.04626832366 0.03851569533 -0.05178556323
v -0.05052478552 0.04133255839 -0.05649469614
v -0.05042207837 0.04170367599 -0.05632647157
v -0.05041372418 0.04186028838 -0.05619487524
v -0.05043397665 0.04199722409 -0.05603211164
v -0.05048063993 0.04209699154 -0.0558582294
v -0.05055575967 0.04215970516 -0.05566963434
v -0.05065040946 0.04218222141 -0.0554847014
v -0.05076324105 0.04215970516 -0.05531026483
v -0.0508890152 0.04209699154 -0.05515090585
v -0.05101625919 0.04199722409 -0.05502355456
v -0.0511471045 0.04186028838 -0.05492463112
v -0.05126524329 0.04170367599 -0.05486606956
v -0.051369524 0.0415285635 -0.05484874606
v -0.05061752915 0.04113655329 -0.05651685119
v -0.02364153028 0.0263835758 -0.04086643338
v -0.05072182417 0.04096144438 -0.05649952412
v -0.02376258016 0.02622297049 -0.04080657005
v -0.05083996654 0.04080482841 -0.05644096613
v -0.02389097929 0.02608793914 -0.04071008921
v -0.05097079396 0.04066789627 -0.05634203911
v -0.02402064085 0.02598742425 -0.0405792439
v -0.05109805584 0.04056812882 -0.0562146914
v -0.02414520085 0.02592387021 -0.04042279601
v -0.05122382998 0.0405054009 -0.05605534673
v -0.02425778925 0.02590336561 -0.0402469039
v -0.05133666158 0.04048289895 -0.05588091016
v -0.02435380518 0.02592387021 -0.04006145954
v -0.05143131137 0.0405054009 -0.05569595933
v -0.02442703485 0.02598742425 -0.03987537146
v -0.0515064311 0.04056812882 -0.05550736427
v -0.02447550058 0.02608793914 -0.03969766617
v -0.05155309439 0.04066789627 -0.05533349991
v -0.02449485004 0.02622297049 -0.03953821421
v -0.05157332897 0.04080482841 -0.05517071843
v -0.02448617935 0.0263835758 -0.03940345645
v -0.05156497478 0.04096144438 -0.05503912568
v -0.02444910049 0.02655877411 -0.03930428982
v -0.0243837297 0.02675222933 -0.03923709154
v -0.02429286003 0.02694568455 -0.03921408176
v -0.03717409372 0.03379540443 -0.04663359046
v -0.03346469879 0.04308100462 -0.04447425127
v -0.03707303882 0.03389753938 -0.04661036968
v -0.02418842912 0.02712088466 -0.03923154116
v -0.03694617033 0.03398080587 -0.046593014
v -0.0368031764 0.03405553579 -0.04658923388
v -0.02406739533 0.02728148997 -0.03929141879
v -0.03664681435 0.03412140012 -0.046602391
v -0.0239389801 0.02741651952 -0.03938789964
v -0.0364856708 0.03418085933 -0.0466404748
v -0.02380932033 0.02751703441 -0.03951873064
v -0.03632288933 0.03422911406 -0.04670590639
v -0.0361739552 0.0342658639 -0.04680530906
v -0.02368476033 0.02758059025 -0.03967519641
v -0.03604462624 0.03428503633 -0.04693676949
v -0.02357218444 0.02760109484 -0.03985107064
v -0.03595171452 0.03428634167 -0.04709612846
v -0.02347615421 0.02758059025 -0.040036515
v -0.03589735508 0.03426763415 -0.04727351904
v -0.02340294063 0.02751703441 -0.04022262096
v -0.03588193417 0.03423172474 -0.04745077372
v -0.0233544606 0.02741651952 -0.04040032625
v -0.03590506554 0.03418486476 -0.04762579322
v -0.03596575499 0.03411688328 -0.0478155005
v -0.02333510935 0.02728148997 -0.04055976033
v -0.03604552388 0.03403153539 -0.04798153639
v -0.02334378004 0.02712088466 -0.04069453597
v -0.03614292026 0.03393612027 -0.04812228084
v -0.02338086069 0.02694568455 -0.04079368472
v -0.03623186946 0.03381700516 -0.04822533131
v -0.0234462297 0.02675222933 -0.04086088657
v -0.03631193876 0.03367970824 -0.04828889966
v -0.03247298956 0.04302075148 -0.04600405455
v -0.03256597638 0.04312713146 -0.04617603064
v -0.03642640471 0.0337615335 -0.04844159961
v -0.0326934886 0.04324339628 -0.04631834865
v -0.0365594852 0.03384328365 -0.04856173396
v -0.03285009027 0.04336312652 -0.04642431021
v -0.03671118021 0.03392495871 -0.0486493063
v -0.03302833557 0.04348218083 -0.0464888835
v -0.03688148975 0.03400657654 -0.04870434165
v -0.03241826892 0.04292896628 -0.04581061363
v -0.03240412474 0.04285411477 -0.04560453057
v -0.03243036032 0.04280039907 -0.04539274335
v -0.03249614954 0.04277032614 -0.04518480062
v -0.03259904981 0.04276509047 -0.04498966455
v -0.03273468018 0.04278486013 -0.04481635451
v -0.03289649963 0.04282880902 -0.04467298508
v -0.03307735562 0.04289512396 -0.04456542134
v -0.03326967001 0.04298012853 -0.04449834108
v -0.03743836641 0.03376125097 -0.04668758869
v -0.03365576863 0.04319284558 -0.04449463606
v -0.03760867596 0.03384285092 -0.04674260974
v -0.03383397102 0.04331224322 -0.04455910563
v -0.03776037097 0.03392454028 -0.04683019638
v -0.03399069071 0.04343191624 -0.0446650815
v -0.03789345145 0.03400629044 -0.04695033073
v -0.03411852121 0.04354765534 -0.04480757833
v -0.04080734968 0.04877508044 -0.05065394998
v -0.0407903266 0.04870744586 -0.05044630408
v -0.04081459522 0.04865870833 -0.05023297548
v -0.04087948322 0.0486314106 -0.05002403855
v -0.04098255157 0.04862671494 -0.04982853055
v -0.04111936569 0.04864482164 -0.04965548873
v -0.04128324151 0.0486849153 -0.04951313853
v -0.04146692991 0.04874522924 -0.04940728426
v -0.0416625309 0.04882254124 -0.04934242487
v -0.0334150815 0.04369327426 -0.04648571849
v -0.03360782862 0.04377733469 -0.04641891003
v -0.03378913522 0.04384270549 -0.04631161451
v -0.03395130157 0.04388601065 -0.04616840959
v -0.03408712506 0.0439054656 -0.04599516034
v -0.03419005394 0.04390030503 -0.04579998136
v -0.03425567865 0.04387071133 -0.04559187055
v -0.03428158522 0.04381786466 -0.04537982941
v -0.03426699042 0.04374412537 -0.04517347455
v -0.03789345145 0.03400629044 -0.04695033073
v -0.03724943876 0.03367970824 -0.04666510463
v -0.03800791383 0.03408811569 -0.04710301638
v -0.03776037097 0.03392454028 -0.04683019638
v -0.03760867596 0.03384285092 -0.04674260974
v -0.03743836641 0.03376125097 -0.04668758869
v -0.0467234087 0.0387607348 -0.05204830527
v -0.04607939959 0.03843417048 -0.05176309347
v -0.04683787465 0.03884256005 -0.05220100522
v -0.04659032822 0.03867898464 -0.05192818522
v -0.04643863678 0.03859730959 -0.05184059858
v -0.04626832366 0.03851569533 -0.05178556323
v -0.04525636554 0.03851599574 -0.05353957415
v -0.04590037465 0.03884256005 -0.05382480025
v -0.04514189959 0.03843417048 -0.0533868885
v -0.04538944602 0.0385977459 -0.0536597085
v -0.04554114103 0.03867942095 -0.05374729514
v -0.04571145058 0.0387610352 -0.05380231619
v -0.03642640471 0.0337615335 -0.04844159961
v -0.03707041383 0.03408811569 -0.04872681141
v -0.03631193876 0.03367970824 -0.04828889966
v -0.0365594852 0.03384328365 -0.04856173396
v -0.03671118021 0.03392495871 -0.0486493063
v -0.03688148975 0.03400657654 -0.04870434165
v -0.02506861567 0.02041328967 -0.04396262884
v -0.02338086069 0.02694568455 -0.04079368472
v -0.0234462297 0.02675222933 -0.04086088657
v -0.02353711545 0.02655877411 -0.04088391066
v -0.02201224566 0.02798167527 -0.04219804645
v -0.02334378004 0.02712088466 -0.04069453597
v -0.02333510935 0.02728148997 -0.04055976033
v -0.0233544606 0.02741651952 -0.04040032625
v -0.02340294063 0.02751703441 -0.04022262096
v -0.02347615421 0.02758059025 -0.040036515
v -0.02482474566 0.02798167527 -0.03732664347
v -0.02357218444 0.02760109484 -0.03985107064
v -0.02469945073 0.028270365 -0.03725431323
v -0.02188695073 0.028270365 -0.04212569833
v -0.02458379924 0.02855740428 -0.03718753338
v -0.02177129924 0.02855740428 -0.04205893636
v -0.02447779477 0.02884275019 -0.0371263361
v -0.02166529477 0.02884275019 -0.0419977212
v -0.02438140512 0.02912642956 -0.03707068563
v -0.02156890512 0.02912642956 -0.04194208503
v -0.02429466069 0.02940844417 -0.03702059984
v -0.02148216069 0.02940844417 -0.04189199924
v -0.02421754539 0.02968877971 -0.03697607875
v -0.02140504539 0.02968877971 -0.04184746385
v -0.02414998412 0.02996769011 -0.03693706512
v -0.02133748412 0.02996769011 -0.04180846453
v -0.02409176946 0.03024571538 -0.03690346599
v -0.02127926946 0.03024571538 -0.04177486539
v -0.02404312491 0.03052232981 -0.03687537074
v -0.02123062491 0.03052232981 -0.04174677014
v -0.024004215 0.03079694867 -0.03685291529
v -0.021191715 0.03079694867 -0.04172430038
v -0.02397525072 0.03106897473 -0.03683618903
v -0.02116275072 0.03106897473 -0.04170758843
v -0.02395645559 0.03133777499 -0.03682534575
v -0.02114395559 0.03133777499 -0.04169673085
v -0.02394801021 0.03160284162 -0.03682047129
v -0.02113551021 0.03160284162 -0.04169185638
v -0.02395003438 0.03186465025 -0.03682164073
v -0.02113753438 0.03186465025 -0.04169302583
v -0.02398460984 0.03237937331 -0.03684158921
v -0.02117210984 0.03237937331 -0.04171298862
v -0.02405825973 0.03288262367 -0.03688411474
v -0.02124575973 0.03288262367 -0.04175549984
v -0.02416906536 0.03337479115 -0.03694809079
v -0.02135656536 0.03337479115 -0.04181949019
v -0.02431683004 0.03385570407 -0.03703341007
v -0.02150433004 0.03385570407 -0.04190479517
v -0.02450398564 0.03432543039 -0.0371414566
v -0.02169148564 0.03432543039 -0.04201285601
v -0.02461315513 0.03455612898 -0.03720448494
v -0.02180065513 0.03455612898 -0.04207588434
v -0.02473313928 0.03478428125 -0.03727375388
v -0.02192063928 0.03478428125 -0.04214515328
v -0.02486388087 0.03501035929 -0.03734924912
v -0.02205138087 0.03501035929 -0.04222063422
v -0.02500502944 0.03523390532 -0.03743074536
v -0.02219252944 0.03523390532 -0.04230213046
v -0.02515622914 0.03545436144 -0.0375180316
v -0.02234372914 0.03545436144 -0.042389431
v -0.02531712055 0.03567121625 -0.03761092544
v -0.02250462055 0.03567121625 -0.04248231053
v -0.02548734069 0.03588392973 -0.03770919085
v -0.02267484069 0.03588392973 -0.04258059025
v -0.02566656053 0.03609205484 -0.03781267405
v -0.02285406053 0.03609205484 -0.04268405914
v -0.02585511088 0.03629607081 -0.03792152882
v -0.02304261088 0.03629607081 -0.04279292822
v -0.02605315447 0.03649618506 -0.03803587675
v -0.02324065447 0.03649618506 -0.04290725827
v -0.02626069486 0.03669240117 -0.03815569639
v -0.02344819486 0.03669240117 -0.04302708149
v -0.02647769988 0.03688471556 -0.03828099132
v -0.02366519988 0.03688471556 -0.04315237641
v -0.02670419991 0.03707312822 -0.03841176152
v -0.02389169991 0.03707312822 -0.04328314662
v -0.02694019496 0.03725766063 -0.03854800344
v -0.02412769496 0.03725766063 -0.04341938853
v -0.02801124036 0.03813143849 -0.03916638136
v -0.02519874036 0.03813143849 -0.04403776646
v -0.02908519506 0.03899459839 -0.03978641868
v -0.02627269506 0.03899459839 -0.04465780377
v -0.03016205907 0.03984716892 -0.04040814042
v -0.02734956086 0.03984716892 -0.04527953982
v -0.03124181986 0.04068912148 -0.04103153944
v -0.02842931986 0.04068912148 -0.04590293884
v -0.03232449174 0.04152048111 -0.04165663362
v -0.02951198995 0.04152048111 -0.04652801871
v -0.03341007113 0.04234121919 -0.04228339434
v -0.03059757113 0.04234121919 -0.04715477943
v -0.03273468018 0.04278486013 -0.04481635451
v -0.03449856162 0.0431513536 -0.04291183591
v -0.03259904981 0.04276509047 -0.04498966455
v -0.03249614954 0.04277032614 -0.04518480062
v -0.03243036032 0.04280039907 -0.04539274335
v -0.03240412474 0.04285411477 -0.04560453057
v -0.03241826892 0.04292896628 -0.04581061363
v -0.03247298956 0.04302075148 -0.04600405455
v -0.03256597638 0.04312713146 -0.04617603064
v -0.03168606162 0.0431513536 -0.04778322101
v -0.0326934886 0.04324339628 -0.04631834865
v -0.03285009027 0.04336312652 -0.04642431021
v -0.03302833557 0.04348218083 -0.0464888835
v -0.03321963072 0.04359336019 -0.04650951147
v -0.0334150815 0.04369327426 -0.04648571849
v -0.03360782862 0.04377733469 -0.04641891003
v -0.03378913522 0.04384270549 -0.04631161451
v -0.03277744532 0.04395088434 -0.04841333985
v -0.03395130157 0.04388601065 -0.04616840959
v -0.03408712506 0.0439054656 -0.04599516034
v -0.03558994532 0.04395088434 -0.04354194045
v -0.03419005394 0.04390030503 -0.04579998136
v -0.03668425441 0.04473981142 -0.04417374015
v -0.03387175441 0.04473981142 -0.04904512525
v -0.03778146029 0.04551813126 -0.04480720639
v -0.03496896029 0.04551813126 -0.04967860579
v -0.03888162017 0.04628582954 -0.04544237852
v -0.03606912017 0.04628582954 -0.0503137815
v -0.03998517036 0.04704299927 -0.04607952118
v -0.03717267036 0.04704299927 -0.05095092058
v -0.04109209657 0.04778960824 -0.04671859503
v -0.03827959657 0.04778960824 -0.05158999443
v -0.0422021699 0.04852564573 -0.04735949993
v -0.0393896699 0.04852564573 -0.05223089933
v -0.04098255157 0.04862671494 -0.04982853055
v -0.04111936569 0.04864482164 -0.04965548873
v -0.04087948322 0.0486314106 -0.05002403855
v -0.04081459522 0.04865870833 -0.05023297548
v -0.0407903266 0.04870744586 -0.05044630408
v -0.04080734968 0.04877508044 -0.05065394998
v -0.04086538553 0.04885836124 -0.05084920406
v -0.0409621954 0.04895468831 -0.05102335453
v -0.04109386325 0.04905984163 -0.0511681366
v -0.04125457406 0.0491682601 -0.05127670527
v -0.04050270081 0.04925109029 -0.0528735137
v -0.04143694639 0.04927584171 -0.05134407163
v -0.04163212538 0.04937661052 -0.05136742473
v -0.04183128119 0.04946704388 -0.05134626031
v -0.0420273006 0.04954339385 -0.05128166914
v -0.04221143961 0.04960273504 -0.05117606878
v -0.04237564445 0.04964217067 -0.05103386879
v -0.04161847472 0.04996588469 -0.0535177052
v -0.04443097472 0.04996588469 -0.0486463201
v -0.04251262665 0.04965995908 -0.05086090565
v -0.04554929852 0.05067004323 -0.04929198146
v -0.04273679852 0.05067004323 -0.05416336656
v -0.04666995049 0.05136354089 -0.04993897676
v -0.04385745049 0.05136354089 -0.05481037617
v -0.04779273033 0.05204632401 -0.05058721662
v -0.04498023033 0.05204632401 -0.05545861602
v -0.04891741633 0.05271838546 -0.05123656511
v -0.04610491633 0.05271838546 -0.05610795021
v -0.0500438261 0.05337970376 -0.05188688993
v -0.0472313261 0.05337970376 -0.05675827503
v -0.05117189884 0.05403027177 -0.05253819108
v -0.04835939884 0.05403027177 -0.05740957618
v -0.05230212092 0.05467015386 -0.05319071889
v -0.04948962092 0.05467015386 -0.05806210399
v -0.0534344995 0.05529932857 -0.05384449482
v -0.0506219995 0.05529932857 -0.05871589422
v -0.05456907034 0.05591782451 -0.05449954391
v -0.05175657034 0.05591782451 -0.059370929
v -0.05570580125 0.05652560949 -0.05515582323
v -0.05289330125 0.05652560949 -0.06002722263
v -0.05684468865 0.05712273002 -0.05581336498
v -0.05403218865 0.05712273002 -0.06068476439
v -0.05798576832 0.05770913959 -0.05647217989
v -0.05517326832 0.05770913959 -0.06134356499
v -0.05912901163 0.05828485608 -0.05713222504
v -0.05631651163 0.05828485608 -0.06200361013
v -0.06027442217 0.05884989023 -0.05779352903
v -0.05746192575 0.05884989023 -0.06266491413
v -0.06142199993 0.05940421343 -0.05845608115
v -0.05860949993 0.05940421343 -0.06332747698
v -0.06257176638 0.05994786143 -0.05911990643
v -0.05975926638 0.05994786143 -0.06399129152
v -0.06267469168 0.05999881625 -0.05917931914
v -0.05986219525 0.05999881625 -0.06405072212
v -0.06277632236 0.06004491091 -0.05923799872
v -0.05996380448 0.06004491091 -0.0641093874
v -0.06287660837 0.0600861454 -0.05929589868
v -0.06006410837 0.0600861454 -0.06416730165
v -0.06297560692 0.06012250185 -0.05935306549
v -0.06016310692 0.06012250185 -0.06422445059
v -0.06307349682 0.0601543951 -0.059409585
v -0.06026099682 0.0601543951 -0.0642809701
v -0.06317022085 0.06018169641 -0.05946541429
v -0.06035772085 0.06018169641 -0.06433681726
v -0.06326534986 0.06020362616 -0.05952034593
v -0.06045284986 0.06020362616 -0.06439172745
v -0.0633584404 0.06021943331 -0.05957409024
v -0.0605459404 0.06021943331 -0.06444547176
v -0.0634501791 0.06023004055 -0.05962705493
v -0.0606376791 0.06023004055 -0.06449845791
v -0.06354055166 0.06023544073 -0.05967922568
v -0.06072805166 0.06023544073 -0.06455062151
v -0.06362803459 0.06023365259 -0.05972972989
v -0.06081553459 0.06023365259 -0.06460113287
v -0.063711133 0.06022267342 -0.0597777164
v -0.060898633 0.06022267342 -0.06464909792
v -0.06379094839 0.0602017951 -0.05982379675
v -0.06097844839 0.0602017951 -0.06469519615
v -0.06386780977 0.06017211199 -0.05986816406
v -0.06105530977 0.06017211199 -0.06473956347
v -0.06393895626 0.06013444662 -0.05990924835
v -0.06112645626 0.06013444662 -0.06478063345
v -0.06400166988 0.06008957863 -0.05994546175
v -0.06118916988 0.06008957863 -0.06481686115
v -0.06410167694 0.05997621059 -0.06000319719
v -0.06128917694 0.05997621059 -0.06487458229
v -0.06417197943 0.05983710051 -0.06004378796
v -0.06135947943 0.05983710051 -0.06491518736
v -0.06419583321 0.05975944519 -0.06005755663
v -0.06138333321 0.05975944519 -0.06492895603
v -0.06421207666 0.05967569947 -0.06006692648
v -0.06139957666 0.05967569947 -0.06493833303
v -0.0642215538 0.05958790541 -0.06007240534
v -0.0614090538 0.05958790541 -0.06494380474
v -0.06422510862 0.05949811578 -0.06007445812
v -0.06141260862 0.05949811578 -0.06494584322
v -0.06422216892 0.05940618038 -0.06007276297
v -0.06140966892 0.05940618038 -0.06494414806
v -0.06421257019 0.05931125879 -0.06006721258
v -0.06140007019 0.05931125879 -0.06493861198
v -0.06419770718 0.05921427011 -0.06005863667
v -0.06138520718 0.05921427011 -0.06493002176
v -0.06417893887 0.0591161263 -0.06004780769
v -0.06136643887 0.0591161263 -0.0649192071
v -0.06415633678 0.05901682377 -0.06003475428
v -0.06134383678 0.05901682377 -0.06490613937
v -0.0641292429 0.05891597986 -0.06001911163
v -0.0613167429 0.05891597986 -0.06489051104
v -0.06409810781 0.05881387353 -0.06000112295
v -0.06128560781 0.05881387353 -0.06487252235
v -0.06406333208 0.05871080875 -0.05998105645
v -0.06125083208 0.05871080875 -0.06485245228
v -0.06402500868 0.05860684633 -0.05995893002
v -0.06121250868 0.05860684633 -0.06483031511
v -0.06398292303 0.0585018146 -0.0599346292
v -0.06117042303 0.0585018146 -0.06480603218
v -0.06393704653 0.05839572072 -0.05990815401
v -0.06112454653 0.05839572072 -0.06477953911
v -0.06388741493 0.05828857541 -0.05987949014
v -0.06107491493 0.05828857541 -0.06475089312
v -0.06355936289 0.05755483389 -0.05969010115
v -0.06074686289 0.05755483389 -0.06456148624
v -0.06321948051 0.0568200767 -0.05949385643
v -0.06040698051 0.0568200767 -0.06436525583
v -0.06286774635 0.05608431101 -0.0592907846
v -0.06005524635 0.05608431101 -0.06416217327
v -0.0625041604 0.05534752607 -0.05908086061
v -0.0596916604 0.05534752607 -0.06395226002
v -0.06212872267 0.0546097362 -0.05886410952
v -0.05931622624 0.0546097362 -0.06373550892
v -0.0617414546 0.0538709414 -0.05864052057
v -0.0589289546 0.0538709414 -0.06351191998
v -0.06134233475 0.05313114166 -0.05841009021
v -0.05852984905 0.05313114166 -0.06328149319
v -0.06093137741 0.05239031911 -0.0581728363
v -0.05811889529 0.05239031911 -0.0630442214
v -0.06050858974 0.0516484952 -0.05792872667
v -0.05769608974 0.0516484952 -0.06280012608
v -0.06007395029 0.05090566635 -0.05767777562
v -0.05726143599 0.05090566635 -0.06254917145
v -0.05962744474 0.05016181469 -0.05742000103
v -0.05681494474 0.05016181469 -0.06229140043
v -0.05916910529 0.04941700459 -0.05715537071
v -0.05635660529 0.04941700459 -0.06202677011
v -0.05869876385 0.04867146134 -0.05688382387
v -0.05588626385 0.04867146134 -0.06175520897
v -0.05821648479 0.0479251349 -0.05660537839
v -0.05540398479 0.0479251349 -0.06147678137
v -0.05772231102 0.04717793941 -0.05632006645
v -0.05490981102 0.04717793941 -0.06119146585
v -0.05721627116 0.04642977118 -0.05602789521
v -0.05440377116 0.04642977118 -0.06089929819
v -0.0566984117 0.04568051934 -0.05572891474
v -0.0538859117 0.04568051934 -0.06060029984
v -0.05616878986 0.04493010163 -0.05542313933
v -0.05335628986 0.04493010163 -0.06029452801
v -0.05562744141 0.04417840362 -0.05511058331
v -0.05281494141 0.04417840362 -0.05998198628
v -0.05507441998 0.04342532873 -0.05479131103
v -0.05226191998 0.04342532873 -0.05966269612
v -0.05450977564 0.0426707983 -0.05446530104
v -0.05169727564 0.0426707983 -0.05933670044
v -0.05393353343 0.04191469431 -0.05413261414
v -0.05112103343 0.04191469431 -0.05900401354
v -0.0533457756 0.04115690947 -0.05379327178
v -0.0505332756 0.04115690947 -0.05866467118
v -0.05274526477 0.04039801598 -0.05344655871
v -0.04993276477 0.04039801598 -0.05831796169
v -0.05213121057 0.03963840008 -0.05309203506
v -0.04931871057 0.03963840008 -0.05796343446
v -0.05150428534 0.03887785435 -0.05273008347
v -0.04869178534 0.03887785435 -0.05760148644
v -0.05086515069 0.03811612487 -0.05236108661
v -0.04805265069 0.03811612487 -0.0572324717
v -0.05021443605 0.03735296845 -0.05198539495
v -0.04740193605 0.03735296845 -0.05685678005
v -0.04955284595 0.03658813477 -0.05160341978
v -0.04674034595 0.03658813477 -0.05647481918
v -0.04888100982 0.03582138062 -0.05121553659
v -0.04606850982 0.03582138062 -0.056086936
v -0.04819958925 0.0350524807 -0.05082213163
v -0.04538708925 0.0350524807 -0.05569351673
v -0.04750926018 0.0342811811 -0.0504235661
v -0.04469676018 0.0342811811 -0.0552949512
v -0.04681068063 0.03350722432 -0.05002022982
v -0.04399818063 0.03350722432 -0.05489162922
v -0.04610449433 0.03273038864 -0.04961251616
v -0.04329199433 0.03273038864 -0.05448391557
v -0.04539105177 0.03195054173 -0.04920061469
v -0.04257855177 0.03195054173 -0.05407199979
v -0.04466875434 0.03116825938 -0.04878359914
v -0.04185625434 0.03116825938 -0.05365498424
v -0.04393734097 0.03038367033 -0.048361305
v -0.04112484097 0.03038367033 -0.0532327044
v -0.04319679022 0.02959675491 -0.04793374658
v -0.04038429022 0.02959675491 -0.05280514598
v -0.04244709134 0.02880751491 -0.0475009203
v -0.03963459134 0.02880751491 -0.05237230539
v -0.04168825507 0.02801595032 -0.04706280112
v -0.03887575507 0.02801595032 -0.05193420053
v -0.04092028499 0.02722207546 -0.04661941409
v -0.03810778499 0.02722207546 -0.05149079919
v -0.04014318109 0.02642587423 -0.04617074847
v -0.03733068109 0.02642587423 -0.05104215145
v -0.03935693979 0.02562736452 -0.04571681857
v -0.03654443979 0.02562736452 -0.05058820367
v -0.03856156468 0.02482653022 -0.04525761008
v -0.03574906468 0.02482653022 -0.05012899518
v -0.03775704145 0.02402336955 -0.04479310513
v -0.03494454145 0.02402336955 -0.04966450453
v -0.03694339514 0.0232178843 -0.04432335019
v -0.03413089514 0.0232178843 -0.04919473529
v -0.03296908379 0.01918211997 -0.04202878475
v -0.03015658379 0.01918211997 -0.04690016985
v -0.0328151536 0.01901475012 -0.04193991065
v -0.0300026536 0.01901475012 -0.04681131005
v -0.03265993595 0.01885872066 -0.04185029984
v -0.02984743416 0.01885872066 -0.04672168493
v -0.03250340939 0.01871401548 -0.0417599237
v -0.02969090939 0.01871401548 -0.04663132668
v -0.03234559536 0.01858065069 -0.04166881442
v -0.02953309536 0.01858065069 -0.04654019952
v -0.03218646169 0.01845862448 -0.04157693982
v -0.0293739599 0.01845862448 -0.04644832492
v -0.0320260334 0.01834794044 -0.0414843142
v -0.02921353519 0.01834794044 -0.04635571361
v -0.03186313391 0.01824832499 -0.04139026523
v -0.0290506357 0.01824832499 -0.04626165032
v -0.03169752002 0.0181597048 -0.04129463911
v -0.02888502002 0.0181597048 -0.04616603851
v -0.03153060079 0.018082425 -0.04119827986
v -0.02871810079 0.018082425 -0.04606966496
v -0.03136379957 0.01801681459 -0.04110196352
v -0.02855129957 0.01801681459 -0.0459733665
v -0.0311985147 0.01796320438 -0.0410065484
v -0.0283860147 0.01796320438 -0.0458779335
v -0.03103616953 0.01792193949 -0.04091281414
v -0.02822366953 0.01792193949 -0.04578421354
v -0.03087652445 0.01789306462 -0.04082063913
v -0.02806402445 0.01789306462 -0.04569203854
v -0.03071841002 0.01787634015 -0.04072935104
v -0.02790591002 0.01787634015 -0.04560075045
v -0.0304067409 0.01787877023 -0.04054941058
v -0.02759423912 0.01787877023 -0.04542080998
v -0.03010121942 0.01792809069 -0.04037302494
v -0.02728871942 0.01792809069 -0.04524441004
v -0.02995012522 0.01797007442 -0.0402857852
v -0.02713762522 0.01797007442 -0.0451571846
v -0.02979979455 0.01802370071 -0.04019899607
v -0.02698729455 0.01802370071 -0.04507039547
v -0.02965099454 0.01808902502 -0.04011309028
v -0.02683849454 0.01808902502 -0.04498447537
v -0.02950452089 0.01816619933 -0.04002851844
v -0.02669202089 0.01816619933 -0.04489990354
v -0.02936111927 0.01825530052 -0.03994573474
v -0.02654861927 0.01825530052 -0.04481711984
v -0.02922160506 0.01835644484 -0.03986516833
v -0.02640910506 0.01835644484 -0.04473657131
v -0.02908483565 0.01847064078 -0.03978621125
v -0.02627233565 0.01847064078 -0.04465761065
v -0.0289499706 0.01859799027 -0.03970834494
v -0.0261374706 0.01859799027 -0.04457974434
v -0.02881819546 0.01873729527 -0.03963226676
v -0.02600569546 0.01873729527 -0.04450366616
v -0.02869069576 0.01888728082 -0.03955865979
v -0.02587819576 0.01888728082 -0.04443004489
v -0.02856865525 0.0190467453 -0.03948818922
v -0.02575615525 0.0190467453 -0.04435958862
v -0.02845323086 0.01921444416 -0.03942155957
v -0.02564073086 0.01921444416 -0.04429294467
v -0.02834425449 0.01939057589 -0.03935863495
v -0.02553175449 0.01939057589 -0.04423003435
v -0.0282407248 0.01957618475 -0.03929886103
v -0.0254282248 0.01957618475 -0.04417026043
v -0.02814263999 0.01977126002 -0.03924223423
v -0.02533013999 0.01977126002 -0.04411363363
v -0.02805001438 0.01997579992 -0.03918876171
v -0.02523751438 0.01997579992 -0.04406014323
v -0.02796283543 0.02018982053 -0.03913841844
v -0.02515033543 0.02018982053 -0.04400982141
v -0.02788111567 0.02041328967 -0.03909124374
v -0.02447550058 0.02608793914 -0.03969766617
v -0.02449485004 0.02622297049 -0.03953821421
v -0.02442703485 0.02598742425 -0.03987537146
v -0.02435380518 0.02592387021 -0.04006145954
v -0.02425778925 0.02590336561 -0.0402469039
v -0.02414520085 0.02592387021 -0.04042279601
v -0.02402064085 0.02598742425 -0.0405792439
v -0.02389097929 0.02608793914 -0.04071008921
v -0.02376258016 0.02622297049 -0.04080657005
v -0.02364153028 0.0263835758 -0.04086643338
v -0.02448617935 0.0263835758 -0.03940345645
v -0.02444910049 0.02655877411 -0.03930428982
v -0.0243837297 0.02675222933 -0.03923709154
v -0.02429286003 0.02694568455 -0.03921408176
v -0.02418842912 0.02712088466 -0.03923154116
v -0.02406739533 0.02728148997 -0.03929141879
v -0.0239389801 0.02741651952 -0.03938789964
v -0.02380932033 0.02751703441 -0.03951873064
v -0.02368476033 0.02758059025 -0.03967519641
v -0.04261570573 0.04965532422 -0.05066536546
v -0.04268041492 0.04962850571 -0.05045627832
v -0.04270434022 0.04958064079 -0.05024271011
v -0.04268688083 0.04951411486 -0.0500348103
v -0.04262845516 0.04943178177 -0.04983931661
v -0.04253128409 0.04933621645 -0.04966494083
v -0.04331520081 0.04925109029 -0.0480021143
v -0.04239931583 0.04923162103 -0.04951997995
v -0.04223850131 0.04912327409 -0.0494113934
v -0.04205620408 0.04901536345 -0.04934413433
v -0.04186126471 0.04891395092 -0.04932098866
v -0.0416625309 0.04882254124 -0.04934242487
v -0.04146692991 0.04874522924 -0.04940728426
v -0.04128324151 0.0486849153 -0.04951313853
v -0.03425567865 0.04387071133 -0.04559187055
v -0.03428158522 0.04381786466 -0.04537982941
v -0.03426699042 0.04374412537 -0.04517347455
v -0.03421187997 0.0436532557 -0.04497977972
v -0.03411852121 0.04354765534 -0.04480757833
v -0.03399069071 0.04343191624 -0.0446650815
v -0.03383397102 0.04331224322 -0.04455910563
v -0.03365576863 0.04319284558 -0.04449463606
v -0.03346469879 0.04308100462 -0.04447425127
v -0.03326967001 0.04298012853 -0.04449834108
v -0.03307735562 0.04289512396 -0.04456542134
v -0.03289649963 0.04282880902 -0.04467298508
v -0.06286774635 0.05608431101 -0.0592907846
v -0.06257176638 0.05994786143 -0.05911990643
v -0.06267469168 0.05999881625 -0.05917931914
v -0.06277632236 0.06004491091 -0.05923799872
v -0.0625041604 0.05534752607 -0.05908086061
v -0.06142199993 0.05940421343 -0.05845608115
v -0.06212872267 0.0546097362 -0.05886410952
v -0.0617414546 0.0538709414 -0.05864052057
v -0.06134233475 0.05313114166 -0.05841009021
v -0.06027442217 0.05884989023 -0.05779352903
v -0.06093137741 0.05239031911 -0.0581728363
v -0.06050858974 0.0516484952 -0.05792872667
v -0.06007395029 0.05090566635 -0.05767777562
v -0.05912901163 0.05828485608 -0.05713222504
v -0.05962744474 0.05016181469 -0.05742000103
v -0.05916910529 0.04941700459 -0.05715537071
v -0.05869876385 0.04867146134 -0.05688382387
v -0.05798576832 0.05770913959 -0.05647217989
v -0.05821648479 0.0479251349 -0.05660537839
v -0.05772231102 0.04717793941 -0.05632006645
v -0.05684468865 0.05712273002 -0.05581336498
v -0.05721627116 0.04642977118 -0.05602789521
v -0.0566984117 0.04568051934 -0.05572891474
v -0.05570580125 0.05652560949 -0.05515582323
v -0.05616878986 0.04493010163 -0.05542313933
v -0.05562744141 0.04417840362 -0.05511058331
v -0.05456907034 0.05591782451 -0.05449954391
v -0.05507441998 0.04342532873 -0.05479131103
v -0.05450977564 0.0426707983 -0.05446530104
v -0.0534344995 0.05529932857 -0.05384449482
v -0.05393353343 0.04191469431 -0.05413261414
v -0.0533457756 0.04115690947 -0.05379327178
v -0.05230212092 0.05467015386 -0.05319071889
v -0.05274526477 0.04039801598 -0.05344655871
v -0.05213121057 0.03963840008 -0.05309203506
v -0.05117189884 0.05403027177 -0.05253819108
v -0.05150428534 0.03887785435 -0.05273008347
v -0.05086515069 0.03811612487 -0.05236108661
v -0.0500438261 0.05337970376 -0.05188688993
v -0.05021443605 0.03735296845 -0.05198539495
v -0.04955284595 0.03658813477 -0.05160341978
v -0.04891741633 0.05271838546 -0.05123656511
v -0.04888100982 0.03582138062 -0.05121553659
v -0.04779273033 0.05204632401 -0.05058721662
v -0.04819958925 0.0350524807 -0.05082213163
v -0.04750926018 0.0342811811 -0.0504235661
v -0.04666995049 0.05136354089 -0.04993897676
v -0.04681068063 0.03350722432 -0.05002022982
v -0.04610449433 0.03273038864 -0.04961251616
v -0.04554929852 0.05067004323 -0.04929198146
v -0.04539105177 0.03195054173 -0.04920061469
v -0.04443097472 0.04996588469 -0.0486463201
v -0.04466875434 0.03116825938 -0.04878359914
v -0.04393734097 0.03038367033 -0.048361305
v -0.04331520081 0.04925109029 -0.0480021143
v -0.04319679022 0.02959675491 -0.04793374658
v -0.0422021699 0.04852564573 -0.04735949993
v -0.04244709134 0.02880751491 -0.0475009203
v -0.04168825507 0.02801595032 -0.04706280112
v -0.04109209657 0.04778960824 -0.04671859503
v -0.04092028499 0.02722207546 -0.04661941409
v -0.04060411334 0.04315256953 -0.04643686652
v -0.04058278441 0.04300441504 -0.04642454982
v -0.04058278441 0.04330072403 -0.04642454982
v -0.03998517036 0.04704299927 -0.04607952118
v -0.04052690864 0.04342700958 -0.04639229894
v -0.04043584585 0.04353217363 -0.04633970976
v -0.04032385468 0.04359750152 -0.04627507567
v -0.04019816995 0.04362131953 -0.04620249152
v -0.0400724566 0.04359750152 -0.04612992167
v -0.03996047974 0.04353217363 -0.04606526971
v -0.03888162017 0.04628582954 -0.04544237852
v -0.03986941338 0.04342700958 -0.04601269484
v -0.03981354117 0.04330072403 -0.04598042965
v -0.03979220867 0.04315256953 -0.04596811652
v -0.03935693979 0.02562736452 -0.04571681857
v -0.03856156468 0.02482653022 -0.04525761008
v -0.04014318109 0.02642587423 -0.04617074847
v -0.03981354117 0.04300441504 -0.04598042965
v -0.03986941338 0.04287811518 -0.04601269484
v -0.03996047974 0.04277296543 -0.04606526971
v -0.0400724566 0.04270764112 -0.04612992167
v -0.04019816995 0.04268381953 -0.04620249152
v -0.04032385468 0.04270764112 -0.04627507567
v -0.04043584585 0.04277296543 -0.04633970976
v -0.04052690864 0.04287811518 -0.04639229894
v -0.03778146029 0.04551813126 -0.04480720639
v -0.03775704145 0.02402336955 -0.04479310513
v -0.03668425441 0.04473981142 -0.04417374015
v -0.03694339514 0.0232178843 -0.04432335019
v -0.03558994532 0.04395088434 -0.04354194045
v -0.03449856162 0.0431513536 -0.04291183591
v -0.03341007113 0.04234121919 -0.04228339434
v -0.03296908379 0.01918211997 -0.04202878475
v -0.03232449174 0.04152048111 -0.04165663362
v -0.0328151536 0.01901475012 -0.04193991065
v -0.03265993595 0.01885872066 -0.04185029984
v -0.03250340939 0.01871401548 -0.0417599237
v -0.03234559536 0.01858065069 -0.04166881442
v -0.03218646169 0.01845862448 -0.04157693982
v -0.03124181986 0.04068912148 -0.04103153944
v -0.0320260334 0.01834794044 -0.0414843142
v -0.03186313391 0.01824832499 -0.04139026523
v -0.03169752002 0.0181597048 -0.04129463911
v -0.03153060079 0.018082425 -0.04119827986
v -0.03136379957 0.01801681459 -0.04110196352
v -0.0311985147 0.01796320438 -0.0410065484
v -0.03114704847 0.02153896451 -0.04097683668
v -0.03112571955 0.02139081001 -0.04096451998
v -0.03016205907 0.03984716892 -0.04040814042
v -0.03112571955 0.0216871208 -0.04096451998
v -0.03106984377 0.02181342065 -0.04093225479
v -0.03097878098 0.0219185704 -0.04087967992
v -0.03086680412 0.02198389471 -0.04081503153
v -0.03074110508 0.02200771451 -0.04074246168
v -0.03061540604 0.02198389471 -0.04066988826
v -0.03050341487 0.0219185704 -0.04060523987
v -0.03041236639 0.02181342065 -0.040552665
v -0.03035647631 0.0216871208 -0.04052039981
v -0.0303351438 0.02153896451 -0.04050808668
v -0.03010121942 0.01792809069 -0.04037302494
v -0.02908519506 0.03899459839 -0.03978641868
v -0.0304067409 0.01787877023 -0.04054941058
v -0.03035647631 0.02139081001 -0.04052039981
v -0.03041236639 0.02126451015 -0.040552665
v -0.03071841002 0.01787634015 -0.04072935104
v -0.03050341487 0.02115936041 -0.04060523987
v -0.03061540604 0.02109403431 -0.04066988826
v -0.03074110508 0.02107021451 -0.04074246168
v -0.03087652445 0.01789306462 -0.04082063913
v -0.03086680412 0.02109403431 -0.04081503153
v -0.03097878098 0.02115936041 -0.04087967992
v -0.03103616953 0.01792193949 -0.04091281414
v -0.03106984377 0.02126451015 -0.04093225479
v -0.02995012522 0.01797007442 -0.0402857852
v -0.02979979455 0.01802370071 -0.04019899607
v -0.02965099454 0.01808902502 -0.04011309028
v -0.02950452089 0.01816619933 -0.04002851844
v -0.02936111927 0.01825530052 -0.03994573474
v -0.02922160506 0.01835644484 -0.03986516833
v -0.02908483565 0.01847064078 -0.03978621125
v -0.02801124036 0.03813143849 -0.03916638136
v -0.0289499706 0.01859799027 -0.03970834494
v -0.02881819546 0.01873729527 -0.03963226676
v -0.02869069576 0.01888728082 -0.03955865979
v -0.02856865525 0.0190467453 -0.03948818922
v -0.02845323086 0.01921444416 -0.03942155957
v -0.02834425449 0.01939057589 -0.03935863495
v -0.0282407248 0.01957618475 -0.03929886103
v -0.02814263999 0.01977126002 -0.03924223423
v -0.02805001438 0.01997579992 -0.03918876171
v -0.02796283543 0.02018982053 -0.03913841844
v -0.02694019496 0.03725766063 -0.03854800344
v -0.02788111567 0.02041328967 -0.03909124374
v -0.02673620939 0.03246134877 -0.03843024015
v -0.02671489477 0.03231319427 -0.03841792345
v -0.02670419991 0.03707312822 -0.03841176152
v -0.02671489477 0.03260952115 -0.03841792345
v -0.02665900469 0.0327358067 -0.03838565826
v -0.02647769988 0.03688471556 -0.03828099132
v -0.02656794012 0.03284095645 -0.03833308339
v -0.02645596504 0.03290628076 -0.038268435
v -0.02626069486 0.03669240117 -0.03815569639
v -0.02633026421 0.03293009877 -0.03819586515
v -0.02620456517 0.03290628076 -0.03812329531
v -0.02605315447 0.03649618506 -0.03803587675
v -0.02609259009 0.03284095645 -0.03805862904
v -0.02600152552 0.0327358067 -0.03800605416
v -0.02585511088 0.03629607081 -0.03792152882
v -0.02594564974 0.03260952115 -0.03797380328
v -0.02592432082 0.03246134877 -0.03796149015
v -0.02566656053 0.03609205484 -0.03781267405
v -0.02548734069 0.03588392973 -0.03770919085
v -0.02531712055 0.03567121625 -0.03761092544
v -0.02594564974 0.03231319427 -0.03797380328
v -0.02515622914 0.03545436144 -0.0375180316
v -0.02600152552 0.03218690872 -0.03800605416
v -0.02609259009 0.03208175898 -0.03805862904
v -0.02620456517 0.03201642036 -0.03812329531
v -0.02633026421 0.03199259877 -0.03819586515
v -0.02645596504 0.03201642036 -0.038268435
v -0.02656794012 0.03208175898 -0.03833308339
v -0.02665900469 0.03218690872 -0.03838565826
v -0.02500502944 0.03523390532 -0.03743074536
v -0.02486388087 0.03501035929 -0.03734924912
v -0.02482474566 0.02798167527 -0.03732664347
v -0.02473313928 0.03478428125 -0.03727375388
v -0.02469945073 0.028270365 -0.03725431323
v -0.02461315513 0.03455612898 -0.03720448494
v -0.02458379924 0.02855740428 -0.03718753338
v -0.02450398564 0.03432543039 -0.0371414566
v -0.02447779477 0.02884275019 -0.0371263361
v -0.02431683004 0.03385570407 -0.03703341007
v -0.02438140512 0.02912642956 -0.03707068563
v -0.02429466069 0.02940844417 -0.03702059984
v -0.02416906536 0.03337479115 -0.03694809079
v -0.02421754539 0.02968877971 -0.03697607875
v -0.02414998412 0.02996769011 -0.03693706512
v -0.02405825973 0.03288262367 -0.03688411474
v -0.02409176946 0.03024571538 -0.03690346599
v -0.02404312491 0.03052232981 -0.03687537074
v -0.02398460984 0.03237937331 -0.03684158921
v -0.024004215 0.03079694867 -0.03685291529
v -0.02397525072 0.03106897473 -0.03683618903
v -0.02395003438 0.03186465025 -0.03682164073
v -0.02395645559 0.03133777499 -0.03682534575
v -0.02394801021 0.03160284162 -0.03682047129
v -0.06287660837 0.0600861454 -0.05929589868
v -0.06321948051 0.0568200767 -0.05949385643
v -0.06297560692 0.06012250185 -0.05935306549
v -0.06307349682 0.0601543951 -0.059409585
v -0.06317022085 0.06018169641 -0.05946541429
v -0.06326534986 0.06020362616 -0.05952034593
v -0.06355936289 0.05755483389 -0.05969010115
v -0.0633584404 0.06021943331 -0.05957409024
v -0.0634501791 0.06023004055 -0.05962705493
v -0.06354055166 0.06023544073 -0.05967922568
v -0.06362803459 0.06023365259 -0.05972972989
v -0.06388741493 0.05828857541 -0.05987949014
v -0.063711133 0.06022267342 -0.0597777164
v -0.06379094839 0.0602017951 -0.05982379675
v -0.06386780977 0.06017211199 -0.05986816406
v -0.06393704653 0.05839572072 -0.05990815401
v -0.06393895626 0.06013444662 -0.05990924835
v -0.06398292303 0.0585018146 -0.0599346292
v -0.06400166988 0.06008957863 -0.05994546175
v -0.06402500868 0.05860684633 -0.05995893002
v -0.06406333208 0.05871080875 -0.05998105645
v -0.06409810781 0.05881387353 -0.06000112295
v -0.06410167694 0.05997621059 -0.06000319719
v -0.0641292429 0.05891597986 -0.06001911163
v -0.06415633678 0.05901682377 -0.06003475428
v -0.06417197943 0.05983710051 -0.06004378796
v -0.06417893887 0.0591161263 -0.06004780769
v -0.06419583321 0.05975944519 -0.06005755663
v -0.06419770718 0.05921427011 -0.06005863667
v -0.06421207666 0.05967569947 -0.06006692648
v -0.06421257019 0.05931125879 -0.06006721258
v -0.0642215538 0.05958790541 -0.06007240534
v -0.06422216892 0.05940618038 -0.06007276297
v -0.06422510862 0.05949811578 -0.06007445812
v -0.03697970867 0.04315256953 -0.05083951592
v -0.03981354117 0.04300441504 -0.04598042965
v -0.03979220867 0.04315256953 -0.04596811652
v -0.03700104117 0.04330072403 -0.05085182905
v -0.03700104117 0.04300441504 -0.05085182905
v -0.03986941338 0.04287811518 -0.04601269484
v -0.03705691338 0.04287811518 -0.05088407993
v -0.03996047974 0.04277296543 -0.04606526971
v -0.03714797974 0.04277296543 -0.05093665481
v -0.0400724566 0.04270764112 -0.04612992167
v -0.0372599566 0.04270764112 -0.05100132108
v -0.04019816995 0.04268381953 -0.04620249152
v -0.03738566995 0.04268381953 -0.05107389092
v -0.04032385468 0.04270764112 -0.04627507567
v -0.03751135468 0.04270764112 -0.05114646077
v -0.04043584585 0.04277296543 -0.04633970976
v -0.03762334585 0.04277296543 -0.05121110916
v -0.04052690864 0.04287811518 -0.04639229894
v -0.03771440864 0.04287811518 -0.05126368403
v -0.04058278441 0.04300441504 -0.04642454982
v -0.03777028441 0.04300441504 -0.05129594922
v -0.04060411334 0.04315256953 -0.04643686652
v -0.03779161334 0.04315256953 -0.05130826592
v -0.04058278441 0.04330072403 -0.04642454982
v -0.03777028441 0.04330072403 -0.05129594922
v -0.04052690864 0.04342700958 -0.04639229894
v -0.03771440864 0.04342700958 -0.05126368403
v -0.04043584585 0.04353217363 -0.04633970976
v -0.03762334585 0.04353217363 -0.05121110916
v -0.04032385468 0.04359750152 -0.04627507567
v -0.03751135468 0.04359750152 -0.05114646077
v -0.04019816995 0.04362131953 -0.04620249152
v -0.03738566995 0.04362131953 -0.05107389092
v -0.0400724566 0.04359750152 -0.04612992167
v -0.0372599566 0.04359750152 -0.05100132108
v -0.03996047974 0.04353217363 -0.04606526971
v -0.03714797974 0.04353217363 -0.05093665481
v -0.03986941338 0.04342700958 -0.04601269484
v -0.03705691338 0.04342700958 -0.05088407993
v -0.03981354117 0.04330072403 -0.04598042965
v -0.0275226599 0.02153896451 -0.04537947178
v -0.03035647631 0.02139081001 -0.04052039981
v -0.0303351438 0.02153896451 -0.04050808668
v -0.02754397452 0.0216871208 -0.04539178491
v -0.02754397452 0.02139081001 -0.04539178491
v -0.03041236639 0.02126451015 -0.040552665
v -0.0275998503 0.02126451015 -0.04542405009
v -0.03050341487 0.02115936041 -0.04060523987
v -0.02769091487 0.02115936041 -0.04547662497
v -0.03061540604 0.02109403431 -0.04066988826
v -0.02780290425 0.02109403431 -0.04554127336
v -0.03074110508 0.02107021451 -0.04074246168
v -0.02792860508 0.02107021451 -0.04561384678
v -0.03086680412 0.02109403431 -0.04081503153
v -0.02805430412 0.02109403431 -0.04568643093
v -0.03097878098 0.02115936041 -0.04087967992
v -0.0281662792 0.02115936041 -0.04575107932
v -0.03106984377 0.02126451015 -0.04093225479
v -0.02825734556 0.02126451015 -0.04580365419
v -0.03112571955 0.02139081001 -0.04096451998
v -0.02831321955 0.02139081001 -0.04583590508
v -0.03114704847 0.02153896451 -0.04097683668
v -0.02833455026 0.02153896451 -0.04584822178
v -0.03112571955 0.0216871208 -0.04096451998
v -0.02831321955 0.0216871208 -0.04583590508
v -0.03106984377 0.02181342065 -0.04093225479
v -0.02825734556 0.02181342065 -0.04580365419
v -0.03097878098 0.0219185704 -0.04087967992
v -0.0281662792 0.0219185704 -0.04575107932
v -0.03086680412 0.02198389471 -0.04081503153
v -0.02805430412 0.02198389471 -0.04568643093
v -0.03074110508 0.02200771451 -0.04074246168
v -0.02792860508 0.02200771451 -0.04561384678
v -0.03061540604 0.02198389471 -0.04066988826
v -0.02780290425 0.02198389471 -0.04554127336
v -0.03050341487 0.0219185704 -0.04060523987
v -0.02769091487 0.0219185704 -0.04547662497
v -0.03041236639 0.02181342065 -0.040552665
v -0.0275998503 0.02181342065 -0.04542405009
v -0.03035647631 0.0216871208 -0.04052039981
v -0.02311182082 0.03246134877 -0.04283287525
v -0.02594564974 0.03231319427 -0.03797380328
v -0.02592432082 0.03246134877 -0.03796149015
v -0.02313314974 0.03260952115 -0.04284518838
v -0.02313314974 0.03231319427 -0.04284518838
v -0.02600152552 0.03218690872 -0.03800605416
v -0.02318902552 0.03218690872 -0.04287745357
v -0.02609259009 0.03208175898 -0.03805862904
v -0.02328009009 0.03208175898 -0.04293002844
v -0.02620456517 0.03201642036 -0.03812329531
v -0.02339206517 0.03201642036 -0.0429946804
v -0.02633026421 0.03199259877 -0.03819586515
v -0.02351776421 0.03199259877 -0.04306725025
v -0.02645596504 0.03201642036 -0.038268435
v -0.02364346504 0.03201642036 -0.0431398201
v -0.02656794012 0.03208175898 -0.03833308339
v -0.02375544012 0.03208175898 -0.04320448637
v -0.02665900469 0.03218690872 -0.03838565826
v -0.02384650469 0.03218690872 -0.04325706124
v -0.02671489477 0.03231319427 -0.03841792345
v -0.02390239477 0.03231319427 -0.04328930855
v -0.02673620939 0.03246134877 -0.03843024015
v -0.02392370939 0.03246134877 -0.04330162525
v -0.02671489477 0.03260952115 -0.03841792345
v -0.02390239477 0.03260952115 -0.04328930855
v -0.02665900469 0.0327358067 -0.03838565826
v -0.02384650469 0.0327358067 -0.04325706124
v -0.02656794012 0.03284095645 -0.03833308339
v -0.02375544012 0.03284095645 -0.04320448637
v -0.02645596504 0.03290628076 -0.038268435
v -0.02364346504 0.03290628076 -0.0431398201
v -0.02633026421 0.03293009877 -0.03819586515
v -0.02351776421 0.03293009877 -0.04306725025
v -0.02620456517 0.03290628076 -0.03812329531
v -0.02339206517 0.03290628076 -0.0429946804
v -0.02609259009 0.03284095645 -0.03805862904
v -0.02328009009 0.03284095645 -0.04293002844
v -0.02600152552 0.0327358067 -0.03800605416
v -0.02318902552 0.0327358067 -0.04287745357
v -0.02594564974 0.03260952115 -0.03797380328
v -0.0589289546 0.0538709414 -0.06351191998
v -0.05975926638 0.05994786143 -0.06399129152
v -0.05860949993 0.05940421343 -0.06332747698
v -0.05852984905 0.05313114166 -0.06328149319
v -0.05931622624 0.0546097362 -0.06373550892
v -0.0596916604 0.05534752607 -0.06395226002
v -0.05986219525 0.05999881625 -0.06405072212
v -0.05996380448 0.06004491091 -0.0641093874
v -0.06005524635 0.05608431101 -0.06416217327
v -0.06006410837 0.0600861454 -0.06416730165
v -0.06016310692 0.06012250185 -0.06422445059
v -0.06026099682 0.0601543951 -0.0642809701
v -0.06035772085 0.06018169641 -0.06433681726
v -0.06040698051 0.0568200767 -0.06436525583
v -0.06045284986 0.06020362616 -0.06439172745
v -0.0605459404 0.06021943331 -0.06444547176
v -0.0606376791 0.06023004055 -0.06449845791
v -0.06072805166 0.06023544073 -0.06455062151
v -0.06074686289 0.05755483389 -0.06456148624
v -0.06081553459 0.06023365259 -0.06460113287
v -0.060898633 0.06022267342 -0.06464909792
v -0.06097844839 0.0602017951 -0.06469519615
v -0.06105530977 0.06017211199 -0.06473956347
v -0.06107491493 0.05828857541 -0.06475089312
v -0.06112645626 0.06013444662 -0.06478063345
v -0.06112454653 0.05839572072 -0.06477953911
v -0.06117042303 0.0585018146 -0.06480603218
v -0.06118916988 0.06008957863 -0.06481686115
v -0.06121250868 0.05860684633 -0.06483031511
v -0.06128917694 0.05997621059 -0.06487458229
v -0.06125083208 0.05871080875 -0.06485245228
v -0.06128560781 0.05881387353 -0.06487252235
v -0.0613167429 0.05891597986 -0.06489051104
v -0.06135947943 0.05983710051 -0.06491518736
v -0.06134383678 0.05901682377 -0.06490613937
v -0.06136643887 0.0591161263 -0.0649192071
v -0.06138333321 0.05975944519 -0.06492895603
v -0.06138520718 0.05921427011 -0.06493002176
v -0.06139957666 0.05967569947 -0.06493833303
v -0.06140007019 0.05931125879 -0.06493861198
v -0.0614090538 0.05958790541 -0.06494380474
v -0.06140966892 0.05940618038 -0.06494414806
v -0.06141260862 0.05949811578 -0.06494584322
v -0.05811889529 0.05239031911 -0.0630442214
v -0.05769608974 0.0516484952 -0.06280012608
v -0.05746192575 0.05884989023 -0.06266491413
v -0.05726143599 0.05090566635 -0.06254917145
v -0.05681494474 0.05016181469 -0.06229140043
v -0.05635660529 0.04941700459 -0.06202677011
v -0.05631651163 0.05828485608 -0.06200361013
v -0.05588626385 0.04867146134 -0.06175520897
v -0.05540398479 0.0479251349 -0.06147678137
v -0.05517326832 0.05770913959 -0.06134356499
v -0.05490981102 0.04717793941 -0.06119146585
v -0.05440377116 0.04642977118 -0.06089929819
v -0.05403218865 0.05712273002 -0.06068476439
v -0.0538859117 0.04568051934 -0.06060029984
v -0.05335628986 0.04493010163 -0.06029452801
v -0.05289330125 0.05652560949 -0.06002722263
v -0.05281494141 0.04417840362 -0.05998198628
v -0.05226191998 0.04342532873 -0.05966269612
v -0.05175657034 0.05591782451 -0.059370929
v -0.05169727564 0.0426707983 -0.05933670044
v -0.05112103343 0.04191469431 -0.05900401354
v -0.0506219995 0.05529932857 -0.05871589422
v -0.0505332756 0.04115690947 -0.05866467118
v -0.04993276477 0.04039801598 -0.05831796169
v -0.04948962092 0.05467015386 -0.05806210399
v -0.04931871057 0.03963840008 -0.05796343446
v -0.04869178534 0.03887785435 -0.05760148644
v -0.04835939884 0.05403027177 -0.05740957618
v -0.04805265069 0.03811612487 -0.0572324717
v -0.04740193605 0.03735296845 -0.05685678005
v -0.0472313261 0.05337970376 -0.05675827503
v -0.04674034595 0.03658813477 -0.05647481918
v -0.04610491633 0.05271838546 -0.05610795021
v -0.04606850982 0.03582138062 -0.056086936
v -0.04538708925 0.0350524807 -0.05569351673
v -0.04498023033 0.05204632401 -0.05545861602
v -0.04469676018 0.0342811811 -0.0552949512
v -0.04399818063 0.03350722432 -0.05489162922
v -0.04385745049 0.05136354089 -0.05481037617
v -0.04329199433 0.03273038864 -0.05448391557
v -0.04273679852 0.05067004323 -0.05416336656
v -0.04257855177 0.03195054173 -0.05407199979
v -0.04185625434 0.03116825938 -0.05365498424
v -0.04161847472 0.04996588469 -0.0535177052
v -0.04112484097 0.03038367033 -0.0532327044
v -0.04050270081 0.04925109029 -0.0528735137
v -0.04038429022 0.02959675491 -0.05280514598
v -0.03963459134 0.02880751491 -0.05237230539
v -0.0393896699 0.04852564573 -0.05223089933
v -0.03887575507 0.02801595032 -0.05193420053
v -0.03827959657 0.04778960824 -0.05158999443
v -0.03810778499 0.02722207546 -0.05149079919
v -0.03779161334 0.04315256953 -0.05130826592
v -0.03777028441 0.04330072403 -0.05129594922
v -0.03733068109 0.02642587423 -0.05104215145
v -0.03777028441 0.04300441504 -0.05129594922
v -0.03771440864 0.04287811518 -0.05126368403
v -0.03762334585 0.04277296543 -0.05121110916
v -0.03751135468 0.04270764112 -0.05114646077
v -0.03738566995 0.04268381953 -0.05107389092
v -0.0372599566 0.04270764112 -0.05100132108
v -0.03654443979 0.02562736452 -0.05058820367
v -0.03714797974 0.04277296543 -0.05093665481
v -0.03705691338 0.04287811518 -0.05088407993
v -0.03700104117 0.04300441504 -0.05085182905
v -0.03697970867 0.04315256953 -0.05083951592
v -0.03606912017 0.04628582954 -0.0503137815
v -0.03574906468 0.02482653022 -0.05012899518
v -0.03717267036 0.04704299927 -0.05095092058
v -0.03700104117 0.04330072403 -0.05085182905
v -0.03705691338 0.04342700958 -0.05088407993
v -0.03714797974 0.04353217363 -0.05093665481
v -0.0372599566 0.04359750152 -0.05100132108
v -0.03738566995 0.04362131953 -0.05107389092
v -0.03751135468 0.04359750152 -0.05114646077
v -0.03762334585 0.04353217363 -0.05121110916
v -0.03771440864 0.04342700958 -0.05126368403
v -0.03496896029 0.04551813126 -0.04967860579
v -0.03494454145 0.02402336955 -0.04966450453
v -0.03413089514 0.0232178843 -0.04919473529
v -0.03387175441 0.04473981142 -0.04904512525
v -0.03015658379 0.01918211997 -0.04690016985
v -0.03277744532 0.04395088434 -0.04841333985
v -0.03168606162 0.0431513536 -0.04778322101
v -0.03059757113 0.04234121919 -0.04715477943
v -0.0300026536 0.01901475012 -0.04681131005
v -0.02984743416 0.01885872066 -0.04672168493
v -0.02969090939 0.01871401548 -0.04663132668
v -0.02953309536 0.01858065069 -0.04654019952
v -0.02951198995 0.04152048111 -0.04652801871
v -0.0293739599 0.01845862448 -0.04644832492
v -0.02921353519 0.01834794044 -0.04635571361
v -0.0290506357 0.01824832499 -0.04626165032
v -0.02888502002 0.0181597048 -0.04616603851
v -0.02871810079 0.018082425 -0.04606966496
v -0.02855129957 0.01801681459 -0.0459733665
v -0.02842931986 0.04068912148 -0.04590293884
v -0.0283860147 0.01796320438 -0.0458779335
v -0.02833455026 0.02153896451 -0.04584822178
v -0.02831321955 0.0216871208 -0.04583590508
v -0.02822366953 0.01792193949 -0.04578421354
v -0.02831321955 0.02139081001 -0.04583590508
v -0.02825734556 0.02126451015 -0.04580365419
v -0.0281662792 0.02115936041 -0.04575107932
v -0.02806402445 0.01789306462 -0.04569203854
v -0.02805430412 0.02109403431 -0.04568643093
v -0.02790591002 0.01787634015 -0.04560075045
v -0.02792860508 0.02107021451 -0.04561384678
v -0.02780290425 0.02109403431 -0.04554127336
v -0.02759423912 0.01787877023 -0.04542080998
v -0.02769091487 0.02115936041 -0.04547662497
v -0.0275998503 0.02126451015 -0.04542405009
v -0.02754397452 0.02139081001 -0.04539178491
v -0.02728871942 0.01792809069 -0.04524441004
v -0.0275226599 0.02153896451 -0.04537947178
v -0.02734956086 0.03984716892 -0.04527953982
v -0.02713762522 0.01797007442 -0.0451571846
v -0.02754397452 0.0216871208 -0.04539178491
v -0.0275998503 0.02181342065 -0.04542405009
v -0.02769091487 0.0219185704 -0.04547662497
v -0.02780290425 0.02198389471 -0.04554127336
v -0.02792860508 0.02200771451 -0.04561384678
v -0.02805430412 0.02198389471 -0.04568643093
v -0.0281662792 0.0219185704 -0.04575107932
v -0.02825734556 0.02181342065 -0.04580365419
v -0.02698729455 0.01802370071 -0.04507039547
v -0.02683849454 0.01808902502 -0.04498447537
v -0.02669202089 0.01816619933 -0.04489990354
v -0.02654861927 0.01825530052 -0.04481711984
v -0.02640910506 0.01835644484 -0.04473657131
v -0.02627269506 0.03899459839 -0.04465780377
v -0.02627233565 0.01847064078 -0.04465761065
v -0.0261374706 0.01859799027 -0.04457974434
v -0.02600569546 0.01873729527 -0.04450366616
v -0.02587819576 0.01888728082 -0.04443004489
v -0.02575615525 0.0190467453 -0.04435958862
v -0.02564073086 0.01921444416 -0.04429294467
v -0.02553175449 0.01939057589 -0.04423003435
v -0.0254282248 0.01957618475 -0.04417026043
v -0.02533013999 0.01977126002 -0.04411363363
v -0.02523751438 0.01997579992 -0.04406014323
v -0.02519874036 0.03813143849 -0.04403776646
v -0.02515033543 0.02018982053 -0.04400982141
v -0.02506861567 0.02041328967 -0.04396262884
v -0.02412769496 0.03725766063 -0.04341938853
v -0.02392370939 0.03246134877 -0.04330162525
v -0.02390239477 0.03260952115 -0.04328930855
v -0.02390239477 0.03231319427 -0.04328930855
v -0.02201224566 0.02798167527 -0.04219804645
v -0.02384650469 0.03218690872 -0.04325706124
v -0.02375544012 0.03208175898 -0.04320448637
v -0.02364346504 0.03201642036 -0.0431398201
v -0.02351776421 0.03199259877 -0.04306725025
v -0.02339206517 0.03201642036 -0.0429946804
v -0.02328009009 0.03208175898 -0.04293002844
v -0.02318902552 0.03218690872 -0.04287745357
v -0.02313314974 0.03231319427 -0.04284518838
v -0.02311182082 0.03246134877 -0.04283287525
v -0.02304261088 0.03629607081 -0.04279292822
v -0.02285406053 0.03609205484 -0.04268405914
v -0.02324065447 0.03649618506 -0.04290725827
v -0.02313314974 0.03260952115 -0.04284518838
v -0.02318902552 0.0327358067 -0.04287745357
v -0.02328009009 0.03284095645 -0.04293002844
v -0.02344819486 0.03669240117 -0.04302708149
v -0.02339206517 0.03290628076 -0.0429946804
v -0.02351776421 0.03293009877 -0.04306725025
v -0.02366519988 0.03688471556 -0.04315237641
v -0.02364346504 0.03290628076 -0.0431398201
v -0.02375544012 0.03284095645 -0.04320448637
v -0.02389169991 0.03707312822 -0.04328314662
v -0.02384650469 0.0327358067 -0.04325706124
v -0.02267484069 0.03588392973 -0.04258059025
v -0.02250462055 0.03567121625 -0.04248231053
v -0.02234372914 0.03545436144 -0.042389431
v -0.02219252944 0.03523390532 -0.04230213046
v -0.02205138087 0.03501035929 -0.04222063422
v -0.02192063928 0.03478428125 -0.04214515328
v -0.02188695073 0.028270365 -0.04212569833
v -0.02180065513 0.03455612898 -0.04207588434
v -0.02177129924 0.02855740428 -0.04205893636
v -0.02169148564 0.03432543039 -0.04201285601
v -0.02166529477 0.02884275019 -0.0419977212
v -0.02156890512 0.02912642956 -0.04194208503
v -0.02150433004 0.03385570407 -0.04190479517
v -0.02148216069 0.02940844417 -0.04189199924
v -0.02140504539 0.02968877971 -0.04184746385
v -0.02135656536 0.03337479115 -0.04181949019
v -0.02133748412 0.02996769011 -0.04180846453
v -0.02127926946 0.03024571538 -0.04177486539
v -0.02124575973 0.03288262367 -0.04175549984
v -0.02123062491 0.03052232981 -0.04174677014
v -0.021191715 0.03079694867 -0.04172430038
v -0.02117210984 0.03237937331 -0.04171298862
v -0.02116275072 0.03106897473 -0.04170758843
v -0.02114395559 0.03133777499 -0.04169673085
v -0.02113753438 0.03186465025 -0.04169302583
v -0.02113551021 0.03160284162 -0.04169185638
f 1 2 3
f 1 3 4
f 5 2 1
f 6 2 5
f 6 5 7
f 6 7 8
f 8 7 9
f 8 9 10
f 10 9 11
f 10 11 12
f 12 11 13
f 12 13 14
f 14 13 15
f 14 15 16
f 16 15 17
f 16 17 18
f 4 3 19
f 4 19 20
f 20 19 21
f 20 21 22
f 22 21 23
f 22 23 24
f 24 23 25
f 24 25 26
f 26 25 27
f 26 27 28
f 29 30 31
f 29 31 32
f 29 33 30
f 33 34 30
f 35 30 34
f 33 36 34
f 37 34 36
f 38 36 33
f 39 38 33
f 40 36 38
f 40 41 36
f 42 41 40
f 42 43 41
f 44 43 42
f 44 45 43
f 46 45 44
f 46 47 45
f 48 47 46
f 49 47 48
f 50 47 49
f 50 49 51
f 50 51 52
f 52 51 53
f 52 53 54
f 54 53 55
f 54 55 56
f 56 55 57
f 56 57 58
f 58 57 59
f 58 59 60
f 60 59 61
f 60 61 62
f 62 61 63
f 62 63 64
f 64 63 65
f 64 65 66
f 66 65 67
f 66 67 68
f 68 67 69
f 68 69 70
f 70 69 71
f 72 70 71
f 71 69 73
f 74 71 73
f 75 73 69
f 75 69 67
f 76 73 75
f 76 77 73
f 78 77 76
f 78 79 77
f 80 79 78
f 80 81 79
f 82 81 80
f 82 83 81
f 84 83 82
f 84 85 83
f 84 86 85
f 86 87 85
f 84 88 86
f 89 88 84
f 89 90 88
f 89 91 90
f 92 91 89
f 92 93 91
f 94 93 92
f 94 95 93
f 94 96 95
f 97 96 94
f 97 98 96
f 99 98 97
f 99 100 98
f 101 100 99
f 101 102 100
f 103 102 101
f 103 104 102
f 103 105 104
f 106 105 103
f 106 107 105
f 108 107 106
f 108 109 107
f 108 110 109
f 111 110 108
f 111 32 110
f 111 29 32
f 112 29 111
f 112 113 29
f 114 113 112
f 114 115 113
f 116 115 114
f 116 117 115
f 118 117 116
f 118 119 117
f 39 119 118
f 39 33 119
f 85 87 120
f 88 87 86
f 88 121 87
f 90 121 88
f 90 122 121
f 91 122 90
f 93 122 91
f 93 123 122
f 95 123 93
f 95 124 123
f 96 124 95
f 96 125 124
f 98 125 96
f 98 126 125
f 100 126 98
f 100 127 126
f 102 127 100
f 102 128 127
f 104 128 102
f 104 129 128
f 104 105 129
f 107 129 105
f 107 130 129
f 109 130 107
f 109 131 130
f 110 131 109
f 110 132 131
f 32 132 110
f 32 31 132
f 74 85 120
f 74 120 133
f 74 73 85
f 74 133 134
f 134 133 135
f 134 135 136
f 136 135 137
f 136 137 138
f 138 137 139
f 138 139 140
f 140 139 141
f 140 141 142
f 142 141 143
f 142 143 144
f 144 143 145
f 144 145 146
f 146 145 147
f 146 147 148
f 148 147 149
f 148 149 150
f 150 149 151
f 150 151 152
f 152 151 153
f 152 153 154
f 154 153 155
f 154 155 156
f 156 155 30
f 156 30 157
f 35 157 30
f 35 158 157
f 159 158 35
f 160 159 35
f 161 158 159
f 161 162 158
f 163 162 161
f 164 162 163
f 164 165 162
f 166 165 164
f 166 167 165
f 168 167 166
f 168 169 167
f 170 169 168
f 171 169 170
f 171 172 169
f 173 172 171
f 173 174 172
f 175 174 173
f 175 176 174
f 177 176 175
f 177 178 176
f 179 178 177
f 179 180 178
f 181 180 179
f 182 180 181
f 182 183 180
f 184 183 182
f 184 185 183
f 186 185 184
f 186 187 185
f 188 187 186
f 188 189 187
f 188 190 189
f 74 189 190
f 191 190 188
f 191 188 186
f 192 190 191
f 192 193 190
f 194 193 192
f 194 195 193
f 196 195 194
f 196 197 195
f 198 197 196
f 198 199 197
f 72 199 198
f 72 71 199
f 191 186 184
f 191 184 200
f 200 184 182
f 200 182 201
f 201 182 181
f 202 201 181
f 202 181 179
f 202 179 177
f 202 177 203
f 203 177 175
f 203 175 204
f 204 175 173
f 204 173 205
f 205 173 171
f 205 171 170
f 205 170 206
f 206 170 168
f 206 168 207
f 207 168 166
f 207 166 208
f 208 166 164
f 208 164 163
f 208 163 160
f 160 163 161
f 160 161 159
f 74 190 71
f 160 35 209
f 160 209 210
f 210 209 211
f 210 211 212
f 212 211 213
f 212 213 214
f 214 213 215
f 214 215 216
f 216 215 34
f 216 34 37
f 75 67 65
f 75 65 217
f 217 65 63
f 217 63 218
f 218 63 61
f 219 218 61
f 219 61 59
f 219 59 57
f 219 57 220
f 220 57 55
f 220 55 221
f 221 55 53
f 221 53 222
f 222 53 51
f 222 51 49
f 222 49 223
f 223 49 48
f 223 48 224
f 224 48 46
f 224 46 225
f 225 46 44
f 225 44 42
f 225 42 39
f 39 42 40
f 39 40 38
f 72 68 70
f 226 68 72
f 226 66 68
f 226 64 66
f 227 64 226
f 227 62 64
f 228 62 227
f 228 60 62
f 228 58 60
f 229 58 228
f 229 56 58
f 230 56 229
f 230 54 56
f 231 54 230
f 231 52 54
f 232 52 231
f 232 50 52
f 232 47 50
f 233 47 232
f 233 45 47
f 234 45 233
f 234 43 45
f 234 41 43
f 37 41 234
f 37 36 41
f 235 236 237
f 238 236 235
f 239 236 238
f 240 236 239
f 241 242 243
f 244 242 241
f 245 242 244
f 246 242 245
f 247 248 249
f 250 248 247
f 251 248 250
f 252 248 251
f 253 254 255
f 256 254 253
f 257 254 256
f 258 254 257
f 259 260 261
f 259 261 262
f 259 263 260
f 263 264 260
f 263 265 264
f 263 266 265
f 263 267 266
f 263 268 267
f 263 269 268
f 269 270 268
f 263 271 269
f 263 272 271
f 272 273 271
f 272 274 273
f 274 275 273
f 274 276 275
f 276 277 275
f 276 278 277
f 278 279 277
f 278 280 279
f 280 281 279
f 280 282 281
f 282 283 281
f 282 284 283
f 284 285 283
f 284 286 285
f 286 287 285
f 286 288 287
f 288 289 287
f 288 290 289
f 290 291 289
f 290 292 291
f 292 293 291
f 292 294 293
f 294 295 293
f 294 296 295
f 296 297 295
f 296 298 297
f 298 299 297
f 298 300 299
f 300 301 299
f 300 302 301
f 302 303 301
f 302 304 303
f 304 305 303
f 304 306 305
f 306 307 305
f 306 308 307
f 308 309 307
f 308 310 309
f 310 311 309
f 310 312 311
f 312 313 311
f 312 314 313
f 314 315 313
f 314 316 315
f 316 317 315
f 316 318 317
f 318 319 317
f 318 320 319
f 320 321 319
f 320 322 321
f 322 323 321
f 322 324 323
f 324 325 323
f 324 326 325
f 326 327 325
f 326 328 327
f 328 329 327
f 328 330 329
f 330 331 329
f 330 332 331
f 332 333 331
f 332 334 333
f 334 335 333
f 334 336 335
f 336 337 335
f 336 338 337
f 338 339 337
f 338 340 339
f 340 341 339
f 340 342 341
f 342 343 341
f 342 344 343
f 344 345 343
f 344 346 345
f 346 347 345
f 346 348 347
f 348 349 347
f 350 347 349
f 348 351 349
f 348 352 351
f 348 353 352
f 348 354 353
f 348 355 354
f 348 356 355
f 348 357 356
f 348 358 357
f 358 359 357
f 358 360 359
f 358 361 360
f 358 362 361
f 358 363 362
f 358 364 363
f 358 365 364
f 358 366 365
f 366 367 365
f 366 368 367
f 366 369 368
f 369 370 368
f 366 371 369
f 366 372 371
f 372 373 371
f 372 374 373
f 374 375 373
f 374 376 375
f 376 377 375
f 376 378 377
f 378 379 377
f 378 380 379
f 380 381 379
f 380 382 381
f 382 383 381
f 381 383 384
f 382 385 383
f 382 386 385
f 382 387 386
f 382 388 387
f 382 389 388
f 382 390 389
f 382 391 390
f 382 392 391
f 382 393 392
f 393 394 392
f 393 395 394
f 393 396 395
f 393 397 396
f 393 398 397
f 393 399 398
f 393 400 399
f 400 401 399
f 401 402 399
f 400 403 401
f 400 404 403
f 404 405 403
f 404 406 405
f 406 407 405
f 406 408 407
f 408 409 407
f 408 410 409
f 410 411 409
f 410 412 411
f 412 413 411
f 412 414 413
f 414 415 413
f 414 416 415
f 416 417 415
f 416 418 417
f 418 419 417
f 418 420 419
f 420 421 419
f 420 422 421
f 422 423 421
f 422 424 423
f 424 425 423
f 424 426 425
f 426 427 425
f 426 428 427
f 428 429 427
f 428 430 429
f 430 431 429
f 430 432 431
f 432 433 431
f 432 434 433
f 434 435 433
f 436 435 434
f 436 437 435
f 436 438 437
f 438 439 437
f 438 440 439
f 440 441 439
f 440 442 441
f 442 443 441
f 442 444 443
f 444 445 443
f 444 446 445
f 446 447 445
f 446 448 447
f 448 449 447
f 448 450 449
f 450 451 449
f 450 452 451
f 452 453 451
f 452 454 453
f 454 455 453
f 454 456 455
f 456 457 455
f 456 458 457
f 458 459 457
f 458 460 459
f 460 461 459
f 460 462 461
f 462 463 461
f 462 464 463
f 464 465 463
f 464 466 465
f 466 467 465
f 466 468 467
f 468 469 467
f 468 470 469
f 470 471 469
f 470 472 471
f 472 473 471
f 472 474 473
f 474 475 473
f 474 476 475
f 476 477 475
f 476 478 477
f 478 479 477
f 478 480 479
f 480 481 479
f 480 482 481
f 482 483 481
f 482 484 483
f 484 485 483
f 484 486 485
f 486 487 485
f 486 488 487
f 488 489 487
f 488 490 489
f 490 491 489
f 490 492 491
f 492 493 491
f 492 494 493
f 494 495 493
f 494 496 495
f 496 497 495
f 496 498 497
f 498 499 497
f 498 500 499
f 500 501 499
f 500 502 501
f 502 503 501
f 502 504 503
f 504 505 503
f 504 506 505
f 506 507 505
f 506 508 507
f 508 509 507
f 508 510 509
f 510 511 509
f 510 512 511
f 512 513 511
f 512 514 513
f 514 515 513
f 514 516 515
f 516 517 515
f 516 518 517
f 518 519 517
f 518 520 519
f 520 521 519
f 520 522 521
f 522 523 521
f 522 524 523
f 524 525 523
f 524 526 525
f 526 527 525
f 526 528 527
f 528 529 527
f 528 530 529
f 530 531 529
f 530 532 531
f 532 533 531
f 532 534 533
f 534 535 533
f 534 536 535
f 536 537 535
f 536 538 537
f 538 539 537
f 538 540 539
f 540 541 539
f 540 542 541
f 542 543 541
f 542 544 543
f 544 545 543
f 544 546 545
f 546 547 545
f 546 548 547
f 548 549 547
f 548 550 549
f 550 551 549
f 550 552 551
f 552 553 551
f 552 554 553
f 554 555 553
f 554 556 555
f 556 557 555
f 556 558 557
f 558 559 557
f 558 560 559
f 560 561 559
f 560 562 561
f 562 563 561
f 562 564 563
f 564 565 563
f 564 566 565
f 566 567 565
f 566 568 567
f 568 569 567
f 568 570 569
f 570 571 569
f 570 572 571
f 572 573 571
f 572 574 573
f 574 575 573
f 574 576 575
f 576 577 575
f 576 578 577
f 578 579 577
f 578 580 579
f 580 581 579
f 580 582 581
f 582 583 581
f 582 584 583
f 584 585 583
f 584 586 585
f 586 587 585
f 586 588 587
f 588 589 587
f 588 590 589
f 590 591 589
f 590 592 591
f 592 593 591
f 592 594 593
f 594 595 593
f 594 596 595
f 596 597 595
f 596 598 597
f 598 599 597
f 598 600 599
f 600 601 599
f 600 602 601
f 602 603 601
f 602 604 603
f 604 605 603
f 604 606 605
f 606 607 605
f 606 608 607
f 608 609 607
f 608 610 609
f 610 611 609
f 610 612 611
f 612 613 611
f 612 614 613
f 614 615 613
f 614 616 615
f 616 617 615
f 616 618 617
f 618 619 617
f 618 620 619
f 620 621 619
f 620 622 621
f 622 623 621
f 622 624 623
f 624 625 623
f 624 626 625
f 626 627 625
f 626 628 627
f 628 629 627
f 628 630 629
f 630 631 629
f 630 632 631
f 632 633 631
f 632 634 633
f 634 635 633
f 634 636 635
f 636 637 635
f 636 638 637
f 638 639 637
f 638 640 639
f 640 641 639
f 640 642 641
f 642 643 641
f 642 644 643
f 644 645 643
f 644 646 645
f 646 647 645
f 646 648 647
f 648 649 647
f 648 650 649
f 650 651 649
f 650 652 651
f 652 653 651
f 652 654 653
f 654 655 653
f 654 656 655
f 656 657 655
f 656 658 657
f 658 659 657
f 658 660 659
f 660 661 659
f 660 662 661
f 662 663 661
f 662 259 663
f 259 269 663
f 259 664 269
f 269 664 665
f 259 666 664
f 259 667 666
f 259 668 667
f 259 669 668
f 259 670 669
f 259 671 670
f 259 672 671
f 259 673 672
f 259 262 673
f 269 665 674
f 269 674 675
f 269 675 676
f 269 676 677
f 269 677 678
f 269 678 679
f 269 679 680
f 269 680 681
f 269 681 682
f 269 682 270
f 401 683 402
f 401 684 683
f 401 685 684
f 401 686 685
f 401 687 686
f 401 688 687
f 401 689 688
f 689 690 688
f 689 691 690
f 689 692 691
f 689 693 692
f 689 694 693
f 689 695 694
f 689 696 695
f 689 381 696
f 381 384 696
f 369 697 370
f 369 698 697
f 369 699 698
f 369 700 699
f 369 701 700
f 369 702 701
f 369 703 702
f 369 704 703
f 369 350 704
f 350 705 704
f 350 706 705
f 350 707 706
f 350 708 707
f 350 349 708
f 709 710 711
f 709 711 712
f 713 710 709
f 714 710 713
f 714 713 715
f 714 715 716
f 714 716 717
f 714 717 718
f 718 717 719
f 718 719 720
f 718 720 721
f 718 721 722
f 722 721 723
f 722 723 724
f 722 724 725
f 722 725 726
f 726 725 727
f 726 727 728
f 726 728 729
f 729 728 730
f 729 730 731
f 729 731 732
f 732 731 733
f 732 733 734
f 732 734 735
f 735 734 736
f 735 736 737
f 735 737 738
f 738 737 739
f 738 739 740
f 738 740 741
f 741 740 742
f 741 742 743
f 741 743 744
f 744 743 745
f 744 745 746
f 744 746 747
f 747 746 748
f 747 748 749
f 747 749 750
f 750 749 751
f 750 751 752
f 752 751 753
f 752 753 754
f 752 754 755
f 755 754 756
f 755 756 757
f 755 757 758
f 758 757 759
f 758 759 760
f 760 759 761
f 760 761 762
f 760 762 763
f 763 762 764
f 763 764 765
f 765 764 766
f 765 766 767
f 765 767 768
f 768 767 769
f 770 768 769
f 770 769 771
f 772 768 770
f 772 773 768
f 774 773 772
f 775 773 774
f 776 773 775
f 777 773 776
f 778 773 777
f 779 773 778
f 779 780 773
f 781 780 779
f 782 780 781
f 782 783 780
f 783 784 780
f 780 784 785
f 783 786 784
f 787 786 783
f 788 786 787
f 789 786 788
f 790 786 789
f 791 786 790
f 791 769 786
f 792 769 791
f 793 769 792
f 794 769 793
f 771 769 794
f 780 785 795
f 795 785 796
f 795 796 797
f 797 796 798
f 797 798 799
f 799 798 800
f 800 798 801
f 801 798 802
f 801 802 803
f 803 802 804
f 803 804 805
f 803 805 806
f 803 806 807
f 803 807 808
f 803 808 809
f 809 808 810
f 809 810 811
f 809 811 812
f 809 812 813
f 809 813 814
f 809 814 815
f 816 809 815
f 816 815 817
f 816 818 809
f 819 818 816
f 820 818 819
f 821 818 820
f 822 818 821
f 823 818 822
f 824 818 823
f 825 818 824
f 826 818 825
f 827 818 826
f 827 828 818
f 828 829 818
f 818 829 830
f 828 831 829
f 832 831 828
f 833 831 832
f 833 834 831
f 835 834 833
f 836 834 835
f 837 834 836
f 837 838 834
f 839 838 837
f 840 838 839
f 840 841 838
f 842 841 840
f 842 815 841
f 817 815 842
f 830 829 843
f 830 843 844
f 830 844 845
f 830 845 846
f 830 846 847
f 830 847 848
f 830 848 849
f 830 849 850
f 850 849 851
f 850 851 852
f 850 852 853
f 850 853 854
f 850 854 855
f 850 855 856
f 850 856 857
f 850 857 858
f 850 858 859
f 850 859 860
f 850 860 861
f 861 860 862
f 863 861 862
f 863 862 864
f 863 865 861
f 866 865 863
f 867 865 866
f 867 868 865
f 869 868 867
f 870 868 869
f 870 871 868
f 872 871 870
f 873 871 872
f 873 874 871
f 875 874 873
f 876 874 875
f 876 877 874
f 878 877 876
f 878 879 877
f 879 880 877
f 879 881 880
f 879 882 881
f 883 882 879
f 883 862 882
f 882 862 884
f 885 862 883
f 886 862 885
f 887 862 886
f 888 862 887
f 889 862 888
f 890 862 889
f 891 862 890
f 864 862 891
f 884 862 892
f 892 862 893
f 893 862 894
f 893 894 895
f 895 894 896
f 895 896 897
f 897 896 898
f 897 898 899
f 899 898 900
f 899 900 901
f 901 900 902
f 901 902 903
f 901 903 904
f 904 903 905
f 904 905 906
f 904 906 907
f 907 906 908
f 907 908 909
f 907 909 910
f 910 909 911
f 910 911 912
f 910 912 913
f 913 912 914
f 913 914 915
f 709 712 916
f 709 916 917
f 917 916 918
f 917 918 919
f 917 919 920
f 917 920 921
f 917 921 922
f 922 921 923
f 922 923 924
f 922 924 925
f 922 925 926
f 922 926 927
f 927 926 928
f 927 928 929
f 927 929 930
f 927 930 931
f 931 930 932
f 931 932 933
f 933 932 934
f 933 934 935
f 935 934 936
f 936 934 937
f 937 934 938
f 937 938 939
f 939 938 940
f 940 938 941
f 940 941 942
f 942 941 943
f 942 943 944
f 944 943 945
f 944 945 946
f 946 945 947
f 946 947 948
f 948 947 949
f 950 951 952
f 953 950 952
f 954 951 950
f 954 955 951
f 954 956 955
f 956 957 955
f 956 958 957
f 958 959 957
f 958 960 959
f 960 961 959
f 960 962 961
f 962 963 961
f 962 964 963
f 964 965 963
f 964 966 965
f 966 967 965
f 966 968 967
f 968 969 967
f 968 970 969
f 970 971 969
f 970 972 971
f 972 973 971
f 972 974 973
f 974 975 973
f 974 976 975
f 976 977 975
f 976 978 977
f 978 979 977
f 978 980 979
f 980 981 979
f 980 982 981
f 982 983 981
f 982 984 983
f 984 985 983
f 984 986 985
f 986 987 985
f 986 988 987
f 988 989 987
f 988 953 989
f 953 952 989
f 990 991 992
f 993 990 992
f 994 991 990
f 994 995 991
f 994 996 995
f 996 997 995
f 996 998 997
f 998 999 997
f 998 1000 999
f 1000 1001 999
f 1000 1002 1001
f 1002 1003 1001
f 1002 1004 1003
f 1004 1005 1003
f 1004 1006 1005
f 1006 1007 1005
f 1006 1008 1007
f 1008 1009 1007
f 1008 1010 1009
f 1010 1011 1009
f 1010 1012 1011
f 1012 1013 1011
f 1012 1014 1013
f 1014 1015 1013
f 1014 1016 1015
f 1016 1017 1015
f 1016 1018 1017
f 1018 1019 1017
f 1018 1020 1019
f 1020 1021 1019
f 1020 1022 1021
f 1022 1023 1021
f 1022 1024 1023
f 1024 1025 1023
f 1024 1026 1025
f 1026 1027 1025
f 1026 1028 1027
f 1028 1029 1027
f 1028 993 1029
f 993 992 1029
f 1030 1031 1032
f 1033 1030 1032
f 1034 1031 1030
f 1034 1035 1031
f 1034 1036 1035
f 1036 1037 1035
f 1036 1038 1037
f 1038 1039 1037
f 1038 1040 1039
f 1040 1041 1039
f 1040 1042 1041
f 1042 1043 1041
f 1042 1044 1043
f 1044 1045 1043
f 1044 1046 1045
f 1046 1047 1045
f 1046 1048 1047
f 1048 1049 1047
f 1048 1050 1049
f 1050 1051 1049
f 1050 1052 1051
f 1052 1053 1051
f 1052 1054 1053
f 1054 1055 1053
f 1054 1056 1055
f 1056 1057 1055
f 1056 1058 1057
f 1058 1059 1057
f 1058 1060 1059
f 1060 1061 1059
f 1060 1062 1061
f 1062 1063 1061
f 1062 1064 1063
f 1064 1065 1063
f 1064 1066 1065
f 1066 1067 1065
f 1066 1068 1067
f 1068 1069 1067
f 1068 1033 1069
f 1033 1032 1069
f 1070 1071 1072
f 1070 1072 1073
f 1074 1071 1070
f 1075 1071 1074
f 1076 1071 1075
f 1076 1075 1077
f 1077 1075 1078
f 1077 1078 1079
f 1079 1078 1080
f 1080 1078 1081
f 1081 1078 1082
f 1082 1078 1083
f 1082 1083 1084
f 1084 1083 1085
f 1085 1083 1086
f 1086 1083 1087
f 1087 1083 1088
f 1087 1088 1089
f 1089 1088 1090
f 1090 1088 1091
f 1091 1088 1092
f 1092 1088 1093
f 1092 1093 1094
f 1094 1093 1095
f 1094 1095 1096
f 1094 1096 1097
f 1097 1096 1098
f 1097 1098 1099
f 1099 1098 1100
f 1099 1100 1101
f 1099 1101 1102
f 1099 1102 1103
f 1103 1102 1104
f 1103 1104 1105
f 1103 1105 1106
f 1106 1105 1107
f 1106 1107 1108
f 1108 1107 1109
f 1108 1109 1110
f 1110 1109 1111
f 1110 1111 1112
f 1073 1072 1113
f 1113 1072 1114
f 1114 1072 1115
f 1114 1115 1116
f 1116 1115 1117
f 1117 1115 1118
f 1118 1115 1119
f 1118 1119 1120
f 1120 1119 1121
f 1121 1119 1122
f 1121 1122 1123
f 1123 1122 1124
f 1124 1122 1125
f 1124 1125 1126
f 1126 1125 1127
f 1127 1125 1128
f 1127 1128 1129
f 1129 1128 1130
f 1130 1128 1131
f 1130 1131 1132
f 1132 1131 1133
f 1133 1131 1134
f 1133 1134 1135
f 1135 1134 1136
f 1136 1134 1137
f 1136 1137 1138
f 1138 1137 1139
f 1139 1137 1140
f 1139 1140 1141
f 1141 1140 1142
f 1142 1140 1143
f 1142 1143 1144
f 1144 1143 1145
f 1144 1145 1146
f 1146 1145 1147
f 1147 1145 1148
f 1147 1148 1149
f 1149 1148 1150
f 1150 1148 1151
f 1150 1151 1152
f 1152 1151 1153
f 1152 1153 1154
f 1154 1153 1155
f 1155 1153 1156
f 1155 1156 1157
f 1157 1156 1158
f 1157 1158 1159
f 1159 1158 1160
f 1160 1158 1161
f 1160 1161 1162
f 1162 1161 1163
f 1162 1163 1164
f 1165 1164 1163
f 1165 1163 1166
f 1165 1167 1164
f 1168 1167 1165
f 1169 1167 1168
f 1170 1167 1169
f 1171 1167 1170
f 1172 1167 1171
f 1173 1167 1172
f 1173 1174 1167
f 1175 1174 1173
f 1176 1174 1175
f 1177 1174 1176
f 1177 1178 1174
f 1178 1179 1174
f 1174 1179 1180
f 1178 1181 1179
f 1182 1181 1178
f 1183 1181 1182
f 1184 1181 1183
f 1185 1181 1184
f 1185 1163 1181
f 1186 1163 1185
f 1187 1163 1186
f 1188 1163 1187
f 1189 1163 1188
f 1166 1163 1189
f 1180 1179 1190
f 1180 1190 1191
f 1191 1190 1192
f 1192 1190 1193
f 1192 1193 1194
f 1194 1193 1195
f 1194 1195 1196
f 1194 1196 1197
f 1194 1197 1198
f 1198 1197 1199
f 1199 1197 1200
f 1200 1197 1201
f 1201 1197 1202
f 1201 1202 1203
f 1203 1202 1204
f 1204 1202 1205
f 1205 1202 1206
f 1206 1202 1207
f 1207 1202 1208
f 1208 1202 1209
f 1208 1209 1210
f 1211 1210 1209
f 1211 1209 1212
f 1211 1213 1210
f 1214 1213 1211
f 1215 1213 1214
f 1216 1213 1215
f 1216 1217 1213
f 1218 1217 1216
f 1218 1219 1217
f 1220 1219 1218
f 1221 1219 1220
f 1221 1222 1219
f 1223 1222 1221
f 1224 1222 1223
f 1225 1222 1224
f 1225 1226 1222
f 1225 1227 1226
f 1227 1228 1226
f 1226 1228 1229
f 1227 1209 1228
f 1230 1209 1227
f 1231 1209 1230
f 1232 1209 1231
f 1233 1209 1232
f 1234 1209 1233
f 1235 1209 1234
f 1236 1209 1235
f 1237 1209 1236
f 1212 1209 1237
f 1229 1228 1238
f 1238 1228 1239
f 1239 1228 1240
f 1240 1228 1241
f 1241 1228 1242
f 1242 1228 1243
f 1242 1243 1244
f 1244 1243 1245
f 1245 1243 1246
f 1246 1243 1247
f 1247 1243 1248
f 1248 1243 1249
f 1249 1243 1250
f 1250 1243 1251
f 1251 1243 1252
f 1252 1243 1253
f 1253 1243 1254
f 1253 1254 1255
f 1255 1254 1256
f 1256 1254 1257
f 1258 1256 1257
f 1258 1257 1259
f 1260 1256 1258
f 1260 1261 1256
f 1262 1261 1260
f 1263 1261 1262
f 1264 1261 1263
f 1265 1261 1264
f 1266 1261 1265
f 1267 1261 1266
f 1268 1261 1267
f 1269 1261 1268
f 1269 1270 1261
f 1270 1271 1261
f 1261 1271 1272
f 1270 1273 1271
f 1274 1273 1270
f 1275 1273 1274
f 1276 1273 1275
f 1276 1277 1273
f 1278 1277 1276
f 1279 1277 1278
f 1279 1280 1277
f 1281 1280 1279
f 1282 1280 1281
f 1282 1283 1280
f 1284 1283 1282
f 1259 1283 1284
f 1259 1257 1283
f 1261 1272 1285
f 1261 1285 1286
f 1261 1286 1287
f 1261 1287 1288
f 1261 1288 1289
f 1261 1289 1290
f 1261 1290 1291
f 1291 1290 1292
f 1291 1292 1293
f 1293 1292 1294
f 1293 1294 1295
f 1295 1294 1296
f 1296 1294 1297
f 1296 1297 1298
f 1298 1297 1299
f 1299 1297 1300
f 1299 1300 1301
f 1301 1300 1302
f 1302 1300 1303
f 1302 1303 1304
f 1304 1303 1305
f 1305 1303 1306
f 1305 1306 1307
f 1307 1306 1308
f 1308 1306 1309
f 1308 1309 1310
