922 930 0
v -0.05986731 0.0602343 0.066218745
v -0.059808435 0.057553125 0.06618474
v -0.060137415 0.058288575 0.066374685
v -0.05975004 0.06023442 0.066151035
v -0.059994375 0.060216315 0.066292095
v -0.06012543 0.060168945 0.06636777
v -0.060168645 0.058358895 0.066392715
v -0.06020184 0.05843514 0.066411885
v -0.060237 0.05851728 0.06643218
v -0.060258255 0.06008523 0.06644445
v -0.060272415 0.058603755 0.066452625
v -0.060307815 0.058695915 0.06647307
v -0.0603429 0.05879532 0.06649332
v -0.06036183 0.05995839 0.066504255
v -0.06037638 0.058903815 0.06651264
v -0.06040779 0.05902215 0.06653079
v -0.06043419 0.059799585 0.06654603
v -0.0604368 0.05915226 0.06654753
v -0.060459795 0.05929587 0.066560805
v -0.06046794 0.059625855 0.066565515
v -0.06047508 0.05945562 0.066569625
v -0.059640825 0.060224475 0.066087975
v -0.059539515 0.06020781 0.06602949
v -0.059467635 0.05681676 0.065987985
v -0.059445645 0.06018819 0.065975295
v -0.059358375 0.060165525 0.065924895
v -0.05927679 0.06014019 0.065877795
v -0.05920068 0.060113445 0.06583386
v -0.05912961 0.06008565 0.065792835
v -0.05911503 0.05607948 0.065784405
v -0.059061915 0.06005733 0.065753745
v -0.058997415 0.06002895 0.0657165
v -0.058935765 0.0600009 0.065680905
v -0.058877205 0.05997387 0.065647095
v -0.058821765 0.05994786 0.065615085
v -0.05875062 0.055341285 0.065574015
v -0.057672465 0.059404515 0.064951545
v -0.058374405 0.054602175 0.065356815
v -0.057986385 0.053862135 0.065132775
v -0.05758656 0.053121195 0.06490194
v -0.056525295 0.05885043 0.06428922
v -0.057174915 0.052379325 0.06466428
v -0.05675148 0.05163654 0.06441981
v -0.056316225 0.05089284 0.064168515
v -0.05538021 0.058285605 0.06362811
v -0.055869165 0.050148225 0.06391041
v -0.055410285 0.049402755 0.063645465
v -0.054939435 0.048656655 0.06337362
v -0.05423724 0.057710055 0.062968215
v -0.05445666 0.04790988 0.06309489
v -0.05396202 0.04716234 0.062809305
v -0.053096385 0.05712375 0.062309535
v -0.053455545 0.046413915 0.062516895
v -0.052937295 0.0456645 0.06221769
v -0.05195763 0.056526735 0.06165207
v -0.05240733 0.04491399 0.06191172
v -0.05186571 0.044162295 0.061599
v -0.050820975 0.05591898 0.060995835
v -0.05131245 0.04340928 0.06127959
v -0.05074764 0.042654855 0.06095349
v -0.049686435 0.055300485 0.0603408
v -0.050171325 0.04189893 0.06062076
v -0.04958355 0.04114137 0.0602814
v -0.048553995 0.054671265 0.059686995
v -0.048983115 0.04038276 0.059934735
v -0.048369225 0.03962355 0.059580315
v -0.04742367 0.054031305 0.059034405
v -0.04774254 0.0388635 0.0592185
v -0.047103705 0.03810234 0.058849665
v -0.0462954 0.053380605 0.058383
v -0.046453365 0.037339815 0.058474185
v -0.045792195 0.03657567 0.058092465
v -0.045168645 0.05271906 0.057732465
v -0.04512081 0.035809635 0.057704835
v -0.04404345 0.052046655 0.05708283
v -0.044439885 0.03504147 0.057311715
v -0.04375008 0.034270905 0.05691345
v -0.042920055 0.05136345 0.05643423
v -0.043052025 0.0334977 0.056510415
v -0.042346365 0.03272157 0.056103015
v -0.0417987 0.050669505 0.055786815
v -0.04163346 0.03194241 0.055691415
v -0.040679655 0.049964865 0.055140735
v -0.040911735 0.03116082 0.05527473
v -0.04018089 0.03037692 0.05485278
v -0.03956316 0.049249575 0.054496125
v -0.03944094 0.02959071 0.054425565
v -0.038449455 0.04852371 0.053853135
v -0.038691885 0.02880219 0.0539931
v -0.037933725 0.02801136 0.05355537
v -0.03733881 0.0477873 0.0532119
v -0.037166445 0.02721822 0.05311239
v -0.036854115 0.04315257 0.05293206
v -0.036832785 0.043004415 0.052919745
v -0.036832785 0.043300725 0.052919745
v -0.03623145 0.047040405 0.05257257
v -0.03677691 0.04342701 0.05288748
v -0.036685845 0.043532175 0.052834905
v -0.036573855 0.0435975 0.052770255
v -0.03644817 0.04362132 0.052697685
v -0.036322455 0.0435975 0.052625115
v -0.03621048 0.043532175 0.052560465
v -0.035127645 0.04628307 0.05193528
v -0.036119415 0.04342701 0.052507875
v -0.03606354 0.043300725 0.052475625
v -0.03604221 0.04315257 0.05246331
v -0.035604555 0.02562501 0.05221062
v -0.034809945 0.024824955 0.05175186
v -0.036390045 0.02642277 0.05266413
v -0.03606354 0.043004415 0.052475625
v -0.036119415 0.042878115 0.052507875
v -0.03621048 0.042772965 0.052560465
v -0.036322455 0.04270764 0.052625115
v -0.03644817 0.04268382 0.052697685
v -0.036573855 0.04270764 0.052770255
v -0.036685845 0.042772965 0.052834905
v -0.03677691 0.042878115 0.05288748
v -0.03402741 0.04551531 0.05130006
v -0.034006215 0.024022575 0.051287835
v -0.032930235 0.04473702 0.05066661
v -0.033193395 0.023217885 0.050818545
v -0.03183603 0.04394817 0.05003487
v -0.03074484 0.04314879 0.04940487
v -0.02965662 0.04233885 0.048776595
v -0.029219085 0.01918212 0.048523965
v -0.0285714 0.04151835 0.04815003
v -0.02905533 0.019013715 0.048429435
v -0.02887884 0.01884402 0.04832754
v -0.028691085 0.01867107 0.048219135
v -0.02848662 0.01850214 0.048101085
v -0.02748918 0.040687305 0.04752522
v -0.02826399 0.018338865 0.04797255
v -0.02801664 0.018190815 0.04782975
v -0.02774046 0.01805937 0.047670285
v -0.02759385 0.018004485 0.047585655
v -0.027441885 0.01795965 0.047497905
v -0.02739705 0.021538965 0.04747203
v -0.02737572 0.02139081 0.047459715
v -0.026409945 0.03984573 0.04690212
v -0.02737572 0.02168712 0.047459715
v -0.027319845 0.02181342 0.04742745
v -0.02722878 0.02191857 0.047374875
v -0.027116805 0.021983895 0.047310225
v -0.026991105 0.022007715 0.047237655
v -0.026865405 0.021983895 0.04716507
v -0.026753415 0.02191857 0.04710042
v -0.02666235 0.02181342 0.047047845
v -0.026606475 0.02168712 0.04701558
v -0.02658516 0.021538965 0.04700328
v -0.026469045 0.017905305 0.04693623
v -0.026311875 0.017937555 0.046845495
v -0.02663097 0.01788459 0.047029725
v -0.026606475 0.02139081 0.04701558
v -0.02666235 0.02126451 0.047047845
v -0.026794365 0.01787553 0.04712406
v -0.026753415 0.02115936 0.04710042
v -0.026865405 0.021094035 0.04716507
v -0.02695623 0.01787835 0.04721751
v -0.026991105 0.021070215 0.047237655
v -0.027119355 0.017894415 0.047311695
v -0.027116805 0.021094035 0.047310225
v -0.02722878 0.02115936 0.047374875
v -0.027282555 0.017922315 0.047405925
v -0.027319845 0.02126451 0.04742745
v -0.02533371 0.03899358 0.046280745
v -0.02615985 0.0179826 0.04675773
v -0.02586798 0.018107595 0.046589205
v -0.025601415 0.018262725 0.04643532
v -0.025360365 0.018446865 0.046296135
v -0.02514888 0.018642105 0.046174035
v -0.02426046 0.0381309 0.04566111
v -0.024965985 0.01884816 0.046068435
v -0.02480844 0.01905453 0.04597749
v -0.02467455 0.019261605 0.04590018
v -0.02455677 0.019465365 0.045832185
v -0.024454335 0.019665825 0.045773055
v -0.024362385 0.019861125 0.045719955
v -0.02427978 0.020051235 0.04567227
v -0.024202305 0.02023521 0.04562754
v -0.023190195 0.03725766 0.0450432
v -0.024131115 0.02041329 0.045586425
v -0.02298621 0.03246135 0.04492542
v -0.022964895 0.032313195 0.044913105
v -0.02293131 0.0370536 0.044893725
v -0.022964895 0.03260952 0.044913105
v -0.022909005 0.032735805 0.044880855
v -0.022667535 0.03682605 0.044741445
v -0.02281794 0.032840955 0.04482828
v -0.022705965 0.03290628 0.04476363
v -0.022580265 0.0329301 0.044691045
v -0.022398795 0.03657507 0.04458627
v -0.022454565 0.03290628 0.044618475
v -0.02234259 0.032840955 0.044553825
v -0.02212026 0.036304395 0.04442547
v -0.022251525 0.032735805 0.04450125
v -0.02219565 0.03260952 0.044468985
v -0.02217432 0.03246135 0.04445667
v -0.02183916 0.036008445 0.04426317
v -0.021568305 0.035676765 0.044106795
v -0.02219565 0.032313195 0.044468985
v -0.021301755 0.035307765 0.043952895
v -0.022251525 0.03218691 0.04450125
v -0.02234259 0.03208176 0.044553825
v -0.022454565 0.03201642 0.044618475
v -0.022580265 0.0319926 0.044691045
v -0.022705965 0.03201642 0.04476363
v -0.02281794 0.03208176 0.04482828
v -0.022909005 0.03218691 0.044880855
v -0.021074745 0.027981675 0.04382184
v -0.0210489 0.03490614 0.043806915
v -0.02092386 0.028335 0.04373472
v -0.020826 0.03447459 0.04367823
v -0.020781735 0.02870943 0.04365267
v -0.020627025 0.034008285 0.043563345
v -0.020648235 0.02910489 0.043575585
v -0.02053854 0.033765255 0.043512255
v -0.020517285 0.029519475 0.043499985
v -0.02045964 0.033518115 0.0434667
v -0.020398005 0.02995605 0.04343112
v -0.02039199 0.03326871 0.04342764
v -0.020335395 0.033014715 0.04339497
v -0.020306865 0.030420615 0.0433785
v -0.02028855 0.032754315 0.043367925
v -0.02025141 0.032490195 0.04334649
v -0.02023956 0.03092106 0.043339635
v -0.020223975 0.03222498 0.04333065
v -0.0202161 0.03118011 0.043326105
v -0.020206215 0.03196134 0.04332039
v -0.020201745 0.031441245 0.04331781
v -0.020198235 0.031701615 0.043315785
v -0.059199915 0.058288575 0.06799848
v -0.060137415 0.058288575 0.066374685
v -0.059808435 0.057553125 0.06618474
v -0.059233185 0.058363545 0.068017695
v -0.058870935 0.057553125 0.067808535
v -0.059467635 0.05681676 0.065987985
v -0.058530135 0.05681676 0.06761178
v -0.05911503 0.05607948 0.065784405
v -0.05817753 0.05607948 0.067408215
v -0.05875062 0.055341285 0.065574015
v -0.05781312 0.055341285 0.067197825
v -0.058374405 0.054602175 0.065356815
v -0.057436905 0.054602175 0.06698061
v -0.057986385 0.053862135 0.065132775
v -0.057048885 0.053862135 0.066756585
v -0.05758656 0.053121195 0.06490194
v -0.05664906 0.053121195 0.06652575
v -0.057174915 0.052379325 0.06466428
v -0.056237415 0.052379325 0.06628809
v -0.05675148 0.05163654 0.06441981
v -0.05581398 0.05163654 0.066043605
v -0.056316225 0.05089284 0.064168515
v -0.055378725 0.05089284 0.06579231
v -0.055869165 0.050148225 0.06391041
v -0.054931665 0.050148225 0.065534205
v -0.055410285 0.049402755 0.063645465
v -0.054472785 0.049402755 0.065269275
v -0.054939435 0.048656655 0.06337362
v -0.054001935 0.048656655 0.06499743
v -0.05445666 0.04790988 0.06309489
v -0.05351916 0.04790988 0.0647187
v -0.05396202 0.04716234 0.062809305
v -0.05302452 0.04716234 0.064433115
v -0.053455545 0.046413915 0.062516895
v -0.052518045 0.046413915 0.064140705
v -0.052937295 0.0456645 0.06221769
v -0.051999795 0.0456645 0.063841485
v -0.05240733 0.04491399 0.06191172
v -0.05146983 0.04491399 0.063535515
v -0.05186571 0.044162295 0.061599
v -0.05092821 0.044162295 0.06322281
v -0.05131245 0.04340928 0.06127959
v -0.05037495 0.04340928 0.062903385
v -0.05074764 0.042654855 0.06095349
v -0.04981014 0.042654855 0.0625773
v -0.050171325 0.04189893 0.06062076
v -0.049233825 0.04189893 0.062244555
v -0.04958355 0.04114137 0.0602814
v -0.04864605 0.04114137 0.061905195
v -0.048983115 0.04038276 0.059934735
v -0.048045615 0.04038276 0.06155853
v -0.048369225 0.03962355 0.059580315
v -0.047431725 0.03962355 0.06120411
v -0.04774254 0.0388635 0.0592185
v -0.04680504 0.0388635 0.060842295
v -0.047103705 0.03810234 0.058849665
v -0.046166205 0.03810234 0.06047346
v -0.046453365 0.037339815 0.058474185
v -0.045515865 0.037339815 0.060097995
v -0.045792195 0.03657567 0.058092465
v -0.044854695 0.03657567 0.05971626
v -0.04512081 0.035809635 0.057704835
v -0.04418331 0.035809635 0.059328645
v -0.044439885 0.03504147 0.057311715
v -0.043502385 0.03504147 0.05893551
v -0.04375008 0.034270905 0.05691345
v -0.04281258 0.034270905 0.058537245
v -0.043052025 0.0334977 0.056510415
v -0.042114525 0.0334977 0.058134225
v -0.042346365 0.03272157 0.056103015
v -0.041408865 0.03272157 0.05772681
v -0.04163346 0.03194241 0.055691415
v -0.04069596 0.03194241 0.05731521
v -0.040911735 0.03116082 0.05527473
v -0.039974235 0.03116082 0.056898525
v -0.04018089 0.03037692 0.05485278
v -0.03924339 0.03037692 0.056476575
v -0.03944094 0.02959071 0.054425565
v -0.03850344 0.02959071 0.05604936
v -0.038691885 0.02880219 0.0539931
v -0.037754385 0.02880219 0.055616895
v -0.037933725 0.02801136 0.05355537
v -0.036996225 0.02801136 0.055179165
v -0.037166445 0.02721822 0.05311239
v -0.036228945 0.02721822 0.054736185
v -0.036390045 0.02642277 0.05266413
v -0.035452545 0.02642277 0.054287925
v -0.035604555 0.02562501 0.05221062
v -0.034667055 0.02562501 0.05383443
v -0.034809945 0.024824955 0.05175186
v -0.033872445 0.024824955 0.053375655
v -0.034006215 0.024022575 0.051287835
v -0.033068715 0.024022575 0.05291163
v -0.033193395 0.023217885 0.050818545
v -0.032255895 0.023217885 0.05244234
v -0.029219085 0.01918212 0.048523965
v -0.028281585 0.01918212 0.050147775
v -0.02905533 0.019013715 0.048429435
v -0.02815569 0.019053315 0.050075085
v -0.028022175 0.018922035 0.049998
v -0.02887884 0.01884402 0.04832754
v -0.02788191 0.0187875 0.049917015
v -0.028691085 0.01867107 0.048219135
v -0.027731775 0.01865268 0.049830345
v -0.02848662 0.01850214 0.048101085
v -0.0275709 0.01851828 0.04973745
v -0.027396045 0.018388095 0.049636515
v -0.02826399 0.018338865 0.04797255
v -0.02720658 0.01826256 0.04952712
v -0.02801664 0.018190815 0.04782975
v -0.026998245 0.0181482 0.049406835
v -0.02774046 0.01805937 0.047670285
v -0.02676999 0.01804563 0.04927506
v -0.02759385 0.018004485 0.047585655
v -0.02651994 0.01796367 0.049130685
v -0.027441885 0.01795965 0.047497905
v -0.027282555 0.017922315 0.047405925
v -0.026247105 0.017902755 0.04897317
v -0.027119355 0.017894415 0.047311695
v -0.02695623 0.01787835 0.04721751
v -0.02595852 0.017876655 0.04880655
v -0.026794365 0.01787553 0.04712406
v -0.02663097 0.01788459 0.047029725
v -0.025654485 0.017886195 0.04863102
v -0.026469045 0.017905305 0.04693623
v -0.0255009 0.017909685 0.04854234
v -0.026311875 0.017937555 0.046845495
v -0.025345185 0.017947095 0.048452445
v -0.02615985 0.0179826 0.04675773
v -0.025187625 0.017997045 0.04836147
v -0.02586798 0.018107595 0.046589205
v -0.02503185 0.01805886 0.048271545
v -0.024881235 0.018132 0.048184575
v -0.025601415 0.018262725 0.04643532
v -0.024733305 0.018218895 0.048099165
v -0.02458875 0.018317505 0.048015705
v -0.025360365 0.018446865 0.046296135
v -0.024450795 0.018423765 0.04793607
v -0.02432235 0.018534255 0.04786191
v -0.02514888 0.018642105 0.046174035
v -0.024202215 0.018652245 0.04779255
v -0.024965985 0.01884816 0.046068435
v -0.02398506 0.018902655 0.047667165
v -0.02480844 0.01905453 0.04597749
v -0.02380059 0.019158915 0.04756068
v -0.02467455 0.019261605 0.04590018
v -0.023644965 0.01942026 0.047470815
v -0.02455677 0.019465365 0.045832185
v -0.024454335 0.019665825 0.045773055
v -0.023510565 0.019677375 0.047393235
v -0.024362385 0.019861125 0.045719955
v -0.02339448 0.019930365 0.0473262
v -0.02427978 0.020051235 0.04567227
v -0.02328804 0.0201753 0.047264745
v -0.024202305 0.02023521 0.04562754
v -0.024131115 0.02041329 0.045586425
v -0.023193615 0.02041329 0.047210235
v -0.021074745 0.027981675 0.04382184
v -0.020137245 0.027981675 0.045445635
v -0.02092386 0.028335 0.04373472
v -0.01994625 0.02843766 0.045335355
v -0.020781735 0.02870943 0.04365267
v -0.019774455 0.028906515 0.045236175
v -0.020648235 0.02910489 0.043575585
v -0.019620615 0.02938806 0.04514736
v -0.020517285 0.029519475 0.043499985
v -0.019548495 0.029633385 0.04510572
v -0.020398005 0.02995605 0.04343112
v -0.01948158 0.029881965 0.04506708
v -0.019422105 0.030134055 0.045032745
v -0.020306865 0.030420615 0.0433785
v -0.019372305 0.030389925 0.045004005
v -0.019332615 0.03065064 0.044981085
v -0.02023956 0.03092106 0.043339635
v -0.019300665 0.03091692 0.044962635
v -0.0202161 0.03118011 0.043326105
v -0.019277385 0.031186695 0.044949195
v -0.020201745 0.031441245 0.04331781
v -0.01926384 0.03145779 0.04494138
v -0.020198235 0.031701615 0.043315785
v -0.019261095 0.031728015 0.04493979
v -0.020206215 0.03196134 0.04332039
v -0.01926987 0.031997085 0.04494486
v -0.020223975 0.03222498 0.04333065
v -0.01928949 0.032268705 0.044956185
v -0.02025141 0.032490195 0.04334649
v -0.01931952 0.032540355 0.044973525
v -0.02028855 0.032754315 0.043367925
v -0.0193596 0.03280908 0.04499667
v -0.020335395 0.033014715 0.04339497
v -0.01940937 0.03307191 0.045025395
v -0.02039199 0.03326871 0.04342764
v -0.019469145 0.03332733 0.04505991
v -0.02045964 0.033518115 0.0434667
v -0.01954113 0.0335796 0.04510146
v -0.02053854 0.033765255 0.043512255
v -0.019623255 0.0338271 0.04514889
v -0.020627025 0.034008285 0.043563345
v -0.019712985 0.034067325 0.045200685
v -0.020826 0.03447459 0.04367823
v -0.019905765 0.034516245 0.045311985
v -0.0210489 0.03490614 0.043806915
v -0.020121585 0.03492327 0.04543659
v -0.021301755 0.035307765 0.043952895
v -0.0203526 0.035293215 0.04556997
v -0.020586795 0.03562545 0.045705195
v -0.021568305 0.035676765 0.044106795
v -0.020828235 0.035919675 0.045844575
v -0.02183916 0.036008445 0.04426317
v -0.02106984 0.036188925 0.045984075
v -0.02212026 0.036304395 0.04442547
v -0.02131017 0.03643326 0.046122825
v -0.022398795 0.03657507 0.04458627
v -0.02154969 0.03665661 0.04626111
v -0.022667535 0.03682605 0.044741445
v -0.021786375 0.036869745 0.04639776
v -0.02293131 0.0370536 0.044893725
v -0.022020645 0.0370704 0.046533015
v -0.023190195 0.03725766 0.0450432
v -0.022252695 0.03725766 0.046666995
v -0.02426046 0.0381309 0.04566111
v -0.02332296 0.0381309 0.047284905
v -0.02533371 0.03899358 0.046280745
v -0.02439621 0.03899358 0.04790454
v -0.026409945 0.03984573 0.04690212
v -0.025472445 0.03984573 0.048525915
v -0.02748918 0.040687305 0.04752522
v -0.02655168 0.040687305 0.049149015
v -0.0285714 0.04151835 0.04815003
v -0.0276339 0.04151835 0.04977384
v -0.02965662 0.04233885 0.048776595
v -0.02871912 0.04233885 0.05040039
v -0.03074484 0.04314879 0.04940487
v -0.02980734 0.04314879 0.051028665
v -0.03183603 0.04394817 0.05003487
v -0.03089853 0.04394817 0.051658665
v -0.032930235 0.04473702 0.05066661
v -0.031992735 0.04473702 0.052290405
v -0.03402741 0.04551531 0.05130006
v -0.03308991 0.04551531 0.05292387
v -0.035127645 0.04628307 0.05193528
v -0.034190145 0.04628307 0.053559075
v -0.03623145 0.047040405 0.05257257
v -0.03529395 0.047040405 0.054196365
v -0.03733881 0.0477873 0.0532119
v -0.03640131 0.0477873 0.054835695
v -0.038449455 0.04852371 0.053853135
v -0.037511955 0.04852371 0.05547693
v -0.03956316 0.049249575 0.054496125
v -0.03862566 0.049249575 0.05611992
v -0.040679655 0.049964865 0.055140735
v -0.039742155 0.049964865 0.05676453
v -0.0417987 0.050669505 0.055786815
v -0.0408612 0.050669505 0.05741061
v -0.042920055 0.05136345 0.05643423
v -0.041982555 0.05136345 0.058058025
v -0.04404345 0.052046655 0.05708283
v -0.04310595 0.052046655 0.058706625
v -0.045168645 0.05271906 0.057732465
v -0.044231145 0.05271906 0.05935626
v -0.0462954 0.053380605 0.058383
v -0.0453579 0.053380605 0.060006795
v -0.04742367 0.054031305 0.059034405
v -0.04648617 0.054031305 0.0606582
v -0.048553995 0.054671265 0.059686995
v -0.047616495 0.054671265 0.06131079
v -0.049686435 0.055300485 0.0603408
v -0.048748935 0.055300485 0.06196461
v -0.050820975 0.05591898 0.060995835
v -0.049883475 0.05591898 0.06261963
v -0.05195763 0.056526735 0.06165207
v -0.05102013 0.056526735 0.06327588
v -0.053096385 0.05712375 0.062309535
v -0.052158885 0.05712375 0.06393333
v -0.05423724 0.057710055 0.062968215
v -0.05329974 0.057710055 0.06459201
v -0.05538021 0.058285605 0.06362811
v -0.05444271 0.058285605 0.065251905
v -0.056525295 0.05885043 0.06428922
v -0.055587795 0.05885043 0.065913015
v -0.057672465 0.059404515 0.064951545
v -0.056734965 0.059404515 0.06657534
v -0.058821765 0.05994786 0.065615085
v -0.057884265 0.05994786 0.067238895
v -0.058877205 0.05997387 0.065647095
v -0.057944445 0.059976075 0.067273635
v -0.058935765 0.0600009 0.065680905
v -0.05800869 0.0600057 0.067310715
v -0.058997415 0.06002895 0.0657165
v -0.058077 0.060036555 0.067350165
v -0.059061915 0.06005733 0.065753745
v -0.058149195 0.06006795 0.06739185
v -0.05912961 0.06008565 0.065792835
v -0.05822613 0.06009918 0.067436265
v -0.05920068 0.060113445 0.06583386
v -0.058308435 0.06012978 0.067483785
v -0.05927679 0.06014019 0.065877795
v -0.058398195 0.06015888 0.06753561
v -0.059358375 0.060165525 0.065924895
v -0.058495935 0.060185235 0.06759204
v -0.059445645 0.06018819 0.065975295
v -0.059539515 0.06020781 0.06602949
v -0.058602255 0.060207945 0.06765342
v -0.059640825 0.060224475 0.066087975
v -0.05871846 0.060226605 0.0677205
v -0.05975004 0.06023442 0.066151035
v -0.05884674 0.06023514 0.067794585
v -0.05986731 0.0602343 0.066218745
v -0.058988475 0.060228885 0.06787641
v -0.059994375 0.060216315 0.066292095
v -0.05913564 0.060191775 0.06796137
v -0.06012543 0.060168945 0.06636777
v -0.059274765 0.06011931 0.068041695
v -0.060258255 0.06008523 0.06644445
v -0.05939385 0.060006345 0.068110455
v -0.06036183 0.05995839 0.066504255
v -0.059476095 0.05985648 0.06815793
v -0.06043419 0.059799585 0.06654603
v -0.059523495 0.059684985 0.068185305
v -0.06046794 0.059625855 0.066565515
v -0.05953689 0.059508015 0.06819303
v -0.06047508 0.05945562 0.066569625
v -0.059529045 0.05934381 0.0681885
v -0.060459795 0.05929587 0.066560805
v -0.05950674 0.059193705 0.06817563
v -0.0604368 0.05915226 0.06654753
v -0.059479065 0.059059305 0.06815964
v -0.06040779 0.05902215 0.06653079
v -0.05944809 0.058936245 0.06814176
v -0.06037638 0.058903815 0.06651264
v -0.059414505 0.05882337 0.06812238
v -0.0603429 0.05879532 0.06649332
v -0.059378865 0.058719345 0.0681018
v -0.060307815 0.058695915 0.06647307
v -0.05934237 0.05862246 0.068080725
v -0.060272415 0.058603755 0.066452625
v -0.059305455 0.058531665 0.06805941
v -0.060237 0.05851728 0.06643218
v -0.05926848 0.05844468 0.068038065
v -0.06020184 0.05843514 0.066411885
v -0.060168645 0.058358895 0.066392715
v -0.03510471 0.04315257 0.054087105
v -0.03604221 0.04315257 0.05246331
v -0.03606354 0.043004415 0.052475625
v -0.03512604 0.043300725 0.05409942
v -0.03512604 0.043004415 0.05409942
v -0.036119415 0.042878115 0.052507875
v -0.035181915 0.042878115 0.054131685
v -0.03621048 0.042772965 0.052560465
v -0.03527298 0.042772965 0.05418426
v -0.036322455 0.04270764 0.052625115
v -0.035384955 0.04270764 0.05424891
v -0.03644817 0.04268382 0.052697685
v -0.03551067 0.04268382 0.05432148
v -0.036573855 0.04270764 0.052770255
v -0.035636355 0.04270764 0.05439405
v -0.036685845 0.042772965 0.052834905
v -0.035748345 0.042772965 0.0544587
v -0.03677691 0.042878115 0.05288748
v -0.03583941 0.042878115 0.054511275
v -0.036832785 0.043004415 0.052919745
v -0.035895285 0.043004415 0.05454354
v -0.036854115 0.04315257 0.05293206
v -0.035916615 0.04315257 0.054555855
v -0.036832785 0.043300725 0.052919745
v -0.035895285 0.043300725 0.05454354
v -0.03677691 0.04342701 0.05288748
v -0.03583941 0.04342701 0.054511275
v -0.036685845 0.043532175 0.052834905
v -0.035748345 0.043532175 0.0544587
v -0.036573855 0.0435975 0.052770255
v -0.035636355 0.0435975 0.05439405
v -0.03644817 0.04362132 0.052697685
v -0.03551067 0.04362132 0.05432148
v -0.036322455 0.0435975 0.052625115
v -0.035384955 0.0435975 0.05424891
v -0.03621048 0.043532175 0.052560465
v -0.03527298 0.043532175 0.05418426
v -0.036119415 0.04342701 0.052507875
v -0.035181915 0.04342701 0.054131685
v -0.03606354 0.043300725 0.052475625
v -0.02564766 0.021538965 0.048627075
v -0.02658516 0.021538965 0.04700328
v -0.026606475 0.02139081 0.04701558
v -0.025668975 0.02168712 0.04863939
v -0.025668975 0.02139081 0.04863939
v -0.02666235 0.02126451 0.047047845
v -0.02572485 0.02126451 0.04867164
v -0.026753415 0.02115936 0.04710042
v -0.025815915 0.02115936 0.048724215
v -0.026865405 0.021094035 0.04716507
v -0.025927905 0.021094035 0.04878888
v -0.026991105 0.021070215 0.047237655
v -0.026053605 0.021070215 0.04886145
v -0.027116805 0.021094035 0.047310225
v -0.026179305 0.021094035 0.04893402
v -0.02722878 0.02115936 0.047374875
v -0.02629128 0.02115936 0.04899867
v -0.027319845 0.02126451 0.04742745
v -0.026382345 0.02126451 0.049051245
v -0.02737572 0.02139081 0.047459715
v -0.02643822 0.02139081 0.04908351
v -0.02739705 0.021538965 0.04747203
v -0.02645955 0.021538965 0.049095825
v -0.02737572 0.02168712 0.047459715
v -0.02643822 0.02168712 0.04908351
v -0.027319845 0.02181342 0.04742745
v -0.026382345 0.02181342 0.049051245
v -0.02722878 0.02191857 0.047374875
v -0.02629128 0.02191857 0.04899867
v -0.027116805 0.021983895 0.047310225
v -0.026179305 0.021983895 0.04893402
v -0.026991105 0.022007715 0.047237655
v -0.026053605 0.022007715 0.04886145
v -0.026865405 0.021983895 0.04716507
v -0.025927905 0.021983895 0.04878888
v -0.026753415 0.02191857 0.04710042
v -0.025815915 0.02191857 0.048724215
v -0.02666235 0.02181342 0.047047845
v -0.02572485 0.02181342 0.04867164
v -0.026606475 0.02168712 0.04701558
v -0.02123682 0.03246135 0.046080465
v -0.02217432 0.03246135 0.04445667
v -0.02219565 0.032313195 0.044468985
v -0.02125815 0.03260952 0.04609278
v -0.02125815 0.032313195 0.04609278
v -0.022251525 0.03218691 0.04450125
v -0.021314025 0.03218691 0.046125045
v -0.02234259 0.03208176 0.044553825
v -0.02140509 0.03208176 0.04617762
v -0.022454565 0.03201642 0.044618475
v -0.021517065 0.03201642 0.04624227
v -0.022580265 0.0319926 0.044691045
v -0.021642765 0.0319926 0.04631484
v -0.022705965 0.03201642 0.04476363
v -0.021768465 0.03201642 0.046387425
v -0.02281794 0.03208176 0.04482828
v -0.02188044 0.03208176 0.046452075
v -0.022909005 0.03218691 0.044880855
v -0.021971505 0.03218691 0.04650465
v -0.022964895 0.032313195 0.044913105
v -0.022027395 0.032313195 0.046536915
v -0.02298621 0.03246135 0.04492542
v -0.02204871 0.03246135 0.046549215
v -0.022964895 0.03260952 0.044913105
v -0.022027395 0.03260952 0.046536915
v -0.022909005 0.032735805 0.044880855
v -0.021971505 0.032735805 0.04650465
v -0.02281794 0.032840955 0.04482828
v -0.02188044 0.032840955 0.046452075
v -0.022705965 0.03290628 0.04476363
v -0.021768465 0.03290628 0.046387425
v -0.022580265 0.0329301 0.044691045
v -0.021642765 0.0329301 0.04631484
v -0.022454565 0.03290628 0.044618475
v -0.021517065 0.03290628 0.04624227
v -0.02234259 0.032840955 0.044553825
v -0.02140509 0.032840955 0.04617762
v -0.022251525 0.032735805 0.04450125
v -0.021314025 0.032735805 0.046125045
v -0.02219565 0.03260952 0.044468985
v -0.057048885 0.053862135 0.066756585
v -0.056734965 0.059404515 0.06657534
v -0.057884265 0.05994786 0.067238895
v -0.05664906 0.053121195 0.06652575
v -0.057436905 0.054602175 0.06698061
v -0.05781312 0.055341285 0.067197825
v -0.057944445 0.059976075 0.067273635
v -0.05800869 0.0600057 0.067310715
v -0.058077 0.060036555 0.067350165
v -0.058149195 0.06006795 0.06739185
v -0.05817753 0.05607948 0.067408215
v -0.05822613 0.06009918 0.067436265
v -0.058308435 0.06012978 0.067483785
v -0.058398195 0.06015888 0.06753561
v -0.058495935 0.060185235 0.06759204
v -0.058530135 0.05681676 0.06761178
v -0.058602255 0.060207945 0.06765342
v -0.05871846 0.060226605 0.0677205
v -0.05884674 0.06023514 0.067794585
v -0.058870935 0.057553125 0.067808535
v -0.058988475 0.060228885 0.06787641
v -0.05913564 0.060191775 0.06796137
v -0.059199915 0.058288575 0.06799848
v -0.059274765 0.06011931 0.068041695
v -0.059233185 0.058363545 0.068017695
v -0.05926848 0.05844468 0.068038065
v -0.059305455 0.058531665 0.06805941
v -0.05939385 0.060006345 0.068110455
v -0.05934237 0.05862246 0.068080725
v -0.059378865 0.058719345 0.0681018
v -0.059414505 0.05882337 0.06812238
v -0.059476095 0.05985648 0.06815793
v -0.05944809 0.058936245 0.06814176
v -0.059479065 0.059059305 0.06815964
v -0.059523495 0.059684985 0.068185305
v -0.05950674 0.059193705 0.06817563
v -0.059529045 0.05934381 0.0681885
v -0.05953689 0.059508015 0.06819303
v -0.056237415 0.052379325 0.06628809
v -0.05581398 0.05163654 0.066043605
v -0.055587795 0.05885043 0.065913015
v -0.055378725 0.05089284 0.06579231
v -0.054931665 0.050148225 0.065534205
v -0.054472785 0.049402755 0.065269275
v -0.05444271 0.058285605 0.065251905
v -0.054001935 0.048656655 0.06499743
v -0.05351916 0.04790988 0.0647187
v -0.05329974 0.057710055 0.06459201
v -0.05302452 0.04716234 0.064433115
v -0.052518045 0.046413915 0.064140705
v -0.052158885 0.05712375 0.06393333
v -0.051999795 0.0456645 0.063841485
v -0.05146983 0.04491399 0.063535515
v -0.05102013 0.056526735 0.06327588
v -0.05092821 0.044162295 0.06322281
v -0.05037495 0.04340928 0.062903385
v -0.049883475 0.05591898 0.06261963
v -0.04981014 0.042654855 0.0625773
v -0.049233825 0.04189893 0.062244555
v -0.048748935 0.055300485 0.06196461
v -0.04864605 0.04114137 0.061905195
v -0.048045615 0.04038276 0.06155853
v -0.047616495 0.054671265 0.06131079
v -0.047431725 0.03962355 0.06120411
v -0.04680504 0.0388635 0.060842295
v -0.04648617 0.054031305 0.0606582
v -0.046166205 0.03810234 0.06047346
v -0.045515865 0.037339815 0.060097995
v -0.0453579 0.053380605 0.060006795
v -0.044854695 0.03657567 0.05971626
v -0.044231145 0.05271906 0.05935626
v -0.04418331 0.035809635 0.059328645
v -0.043502385 0.03504147 0.05893551
v -0.04310595 0.052046655 0.058706625
v -0.04281258 0.034270905 0.058537245
v -0.042114525 0.0334977 0.058134225
v -0.041982555 0.05136345 0.058058025
v -0.041408865 0.03272157 0.05772681
v -0.0408612 0.050669505 0.05741061
v -0.04069596 0.03194241 0.05731521
v -0.039974235 0.03116082 0.056898525
v -0.039742155 0.049964865 0.05676453
v -0.03924339 0.03037692 0.056476575
v -0.03862566 0.049249575 0.05611992
v -0.03850344 0.02959071 0.05604936
v -0.037754385 0.02880219 0.055616895
v -0.037511955 0.04852371 0.05547693
v -0.036996225 0.02801136 0.055179165
v -0.03640131 0.0477873 0.054835695
v -0.036228945 0.02721822 0.054736185
v -0.035916615 0.04315257 0.054555855
v -0.035895285 0.043300725 0.05454354
v -0.035452545 0.02642277 0.054287925
v -0.035895285 0.043004415 0.05454354
v -0.03583941 0.042878115 0.054511275
v -0.035748345 0.042772965 0.0544587
v -0.035636355 0.04270764 0.05439405
v -0.03551067 0.04268382 0.05432148
v -0.035384955 0.04270764 0.05424891
v -0.034667055 0.02562501 0.05383443
v -0.03527298 0.042772965 0.05418426
v -0.035181915 0.042878115 0.054131685
v -0.03512604 0.043004415 0.05409942
v -0.03510471 0.04315257 0.054087105
v -0.034190145 0.04628307 0.053559075
v -0.033872445 0.024824955 0.053375655
v -0.03529395 0.047040405 0.054196365
v -0.03512604 0.043300725 0.05409942
v -0.035181915 0.04342701 0.054131685
v -0.03527298 0.043532175 0.05418426
v -0.035384955 0.0435975 0.05424891
v -0.03551067 0.04362132 0.05432148
v -0.035636355 0.0435975 0.05439405
v -0.035748345 0.043532175 0.0544587
v -0.03583941 0.04342701 0.054511275
v -0.03308991 0.04551531 0.05292387
v -0.033068715 0.024022575 0.05291163
v -0.032255895 0.023217885 0.05244234
v -0.031992735 0.04473702 0.052290405
v -0.028281585 0.01918212 0.050147775
v -0.03089853 0.04394817 0.051658665
v -0.02980734 0.04314879 0.051028665
v -0.02871912 0.04233885 0.05040039
v -0.02815569 0.019053315 0.050075085
v -0.028022175 0.018922035 0.049998
v -0.02788191 0.0187875 0.049917015
v -0.027731775 0.01865268 0.049830345
v -0.0276339 0.04151835 0.04977384
v -0.0275709 0.01851828 0.04973745
v -0.027396045 0.018388095 0.049636515
v -0.02720658 0.01826256 0.04952712
v -0.026998245 0.0181482 0.049406835
v -0.02676999 0.01804563 0.04927506
v -0.02655168 0.040687305 0.049149015
v -0.02651994 0.01796367 0.049130685
v -0.02645955 0.021538965 0.049095825
v -0.02643822 0.02168712 0.04908351
v -0.026247105 0.017902755 0.04897317
v -0.02643822 0.02139081 0.04908351
v -0.026382345 0.02126451 0.049051245
v -0.02629128 0.02115936 0.04899867
v -0.026179305 0.021094035 0.04893402
v -0.02595852 0.017876655 0.04880655
v -0.026053605 0.021070215 0.04886145
v -0.025927905 0.021094035 0.04878888
v -0.025654485 0.017886195 0.04863102
v -0.025815915 0.02115936 0.048724215
v -0.02572485 0.02126451 0.04867164
v -0.025668975 0.02139081 0.04863939
v -0.02564766 0.021538965 0.048627075
v -0.0255009 0.017909685 0.04854234
v -0.025472445 0.03984573 0.048525915
v -0.025345185 0.017947095 0.048452445
v -0.025668975 0.02168712 0.04863939
v -0.02572485 0.02181342 0.04867164
v -0.025815915 0.02191857 0.048724215
v -0.025927905 0.021983895 0.04878888
v -0.026053605 0.022007715 0.04886145
v -0.026179305 0.021983895 0.04893402
v -0.02629128 0.02191857 0.04899867
v -0.026382345 0.02181342 0.049051245
v -0.025187625 0.017997045 0.04836147
v -0.02503185 0.01805886 0.048271545
v -0.024881235 0.018132 0.048184575
v -0.024733305 0.018218895 0.048099165
v -0.02458875 0.018317505 0.048015705
v -0.024450795 0.018423765 0.04793607
v -0.02439621 0.03899358 0.04790454
v -0.02432235 0.018534255 0.04786191
v -0.024202215 0.018652245 0.04779255
v -0.02398506 0.018902655 0.047667165
v -0.02380059 0.019158915 0.04756068
v -0.023644965 0.01942026 0.047470815
v -0.023510565 0.019677375 0.047393235
v -0.02339448 0.019930365 0.0473262
v -0.02332296 0.0381309 0.047284905
v -0.02328804 0.0201753 0.047264745
v -0.023193615 0.02041329 0.047210235
v -0.022252695 0.03725766 0.046666995
v -0.02204871 0.03246135 0.046549215
v -0.022027395 0.03260952 0.046536915
v -0.022027395 0.032313195 0.046536915
v -0.020137245 0.027981675 0.045445635
v -0.021971505 0.03218691 0.04650465
v -0.02188044 0.03208176 0.046452075
v -0.021768465 0.03201642 0.046387425
v -0.021642765 0.0319926 0.04631484
v -0.021517065 0.03201642 0.04624227
v -0.02140509 0.03208176 0.04617762
v -0.021314025 0.03218691 0.046125045
v -0.02125815 0.032313195 0.04609278
v -0.02123682 0.03246135 0.046080465
v -0.02106984 0.036188925 0.045984075
v -0.020828235 0.035919675 0.045844575
v -0.02131017 0.03643326 0.046122825
v -0.02125815 0.03260952 0.04609278
v -0.021314025 0.032735805 0.046125045
v -0.02154969 0.03665661 0.04626111
v -0.02140509 0.032840955 0.04617762
v -0.021517065 0.03290628 0.04624227
v -0.021642765 0.0329301 0.04631484
v -0.021786375 0.036869745 0.04639776
v -0.021768465 0.03290628 0.046387425
v -0.02188044 0.032840955 0.046452075
v -0.022020645 0.0370704 0.046533015
v -0.021971505 0.032735805 0.04650465
v -0.020586795 0.03562545 0.045705195
v -0.0203526 0.035293215 0.04556997
v -0.020121585 0.03492327 0.04543659
v -0.01994625 0.02843766 0.045335355
v -0.019905765 0.034516245 0.045311985
v -0.019774455 0.028906515 0.045236175
v -0.019712985 0.034067325 0.045200685
v -0.019620615 0.02938806 0.04514736
v -0.019623255 0.0338271 0.04514889
v -0.019548495 0.029633385 0.04510572
v -0.01954113 0.0335796 0.04510146
v -0.01948158 0.029881965 0.04506708
v -0.019469145 0.03332733 0.04505991
v -0.019422105 0.030134055 0.045032745
v -0.01940937 0.03307191 0.045025395
v -0.019372305 0.030389925 0.045004005
v -0.0193596 0.03280908 0.04499667
v -0.019332615 0.03065064 0.044981085
v -0.01931952 0.032540355 0.044973525
v -0.019300665 0.03091692 0.044962635
v -0.01928949 0.032268705 0.044956185
v -0.019277385 0.031186695 0.044949195
v -0.01926987 0.031997085 0.04494486
v -0.01926384 0.03145779 0.04494138
v -0.019261095 0.031728015 0.04493979
f 1 2 3
f 1 4 2
f 5 1 3
f 6 5 3
f 7 6 3
f 7 8 6
f 8 9 6
f 9 10 6
f 9 11 10
f 11 12 10
f 12 13 10
f 13 14 10
f 13 15 14
f 15 16 14
f 16 17 14
f 16 18 17
f 18 19 17
f 19 20 17
f 19 21 20
f 4 22 2
f 22 23 2
f 23 24 2
f 23 25 24
f 25 26 24
f 26 27 24
f 27 28 24
f 28 29 24
f 29 30 24
f 29 31 30
f 31 32 30
f 32 33 30
f 33 34 30
f 34 35 30
f 35 36 30
f 35 37 36
f 37 38 36
f 37 39 38
f 37 40 39
f 37 41 40
f 41 42 40
f 41 43 42
f 41 44 43
f 41 45 44
f 45 46 44
f 45 47 46
f 45 48 47
f 45 49 48
f 49 50 48
f 49 51 50
f 49 52 51
f 52 53 51
f 52 54 53
f 52 55 54
f 55 56 54
f 55 57 56
f 55 58 57
f 58 59 57
f 58 60 59
f 58 61 60
f 61 62 60
f 61 63 62
f 61 64 63
f 64 65 63
f 64 66 65
f 64 67 66
f 67 68 66
f 67 69 68
f 67 70 69
f 70 71 69
f 70 72 71
f 70 73 72
f 73 74 72
f 73 75 74
f 75 76 74
f 75 77 76
f 75 78 77
f 78 79 77
f 78 80 79
f 78 81 80
f 81 82 80
f 81 83 82
f 83 84 82
f 83 85 84
f 83 86 85
f 86 87 85
f 86 88 87
f 88 89 87
f 88 90 89
f 88 91 90
f 91 92 90
f 93 92 91
f 93 94 92
f 95 93 91
f 95 91 96
f 97 95 96
f 98 97 96
f 99 98 96
f 100 99 96
f 101 100 96
f 102 101 96
f 102 96 103
f 104 102 103
f 105 104 103
f 105 103 106
f 106 103 107
f 103 108 107
f 106 107 109
f 110 106 109
f 111 110 109
f 112 111 109
f 113 112 109
f 114 113 109
f 114 109 92
f 115 114 92
f 116 115 92
f 117 116 92
f 94 117 92
f 103 118 108
f 118 119 108
f 118 120 119
f 120 121 119
f 120 122 121
f 122 123 121
f 123 124 121
f 124 125 121
f 124 126 125
f 126 127 125
f 126 128 127
f 126 129 128
f 126 130 129
f 126 131 130
f 131 132 130
f 131 133 132
f 131 134 133
f 131 135 134
f 131 136 135
f 137 136 131
f 137 138 136
f 137 131 139
f 140 137 139
f 141 140 139
f 142 141 139
f 143 142 139
f 144 143 139
f 145 144 139
f 146 145 139
f 147 146 139
f 148 147 139
f 148 139 149
f 149 139 150
f 139 151 150
f 149 150 152
f 153 149 152
f 154 153 152
f 154 152 155
f 156 154 155
f 157 156 155
f 157 155 158
f 159 157 158
f 159 158 160
f 161 159 160
f 162 161 160
f 162 160 163
f 164 162 163
f 164 163 136
f 138 164 136
f 139 165 151
f 165 166 151
f 165 167 166
f 165 168 167
f 165 169 168
f 165 170 169
f 165 171 170
f 171 172 170
f 171 173 172
f 171 174 173
f 171 175 174
f 171 176 175
f 171 177 176
f 171 178 177
f 171 179 178
f 171 180 179
f 180 181 179
f 182 181 180
f 182 183 181
f 182 180 184
f 185 182 184
f 186 185 184
f 186 184 187
f 188 186 187
f 189 188 187
f 190 189 187
f 190 187 191
f 192 190 191
f 193 192 191
f 193 191 194
f 195 193 194
f 196 195 194
f 196 194 197
f 197 194 198
f 197 198 199
f 200 197 199
f 200 199 181
f 199 201 181
f 202 200 181
f 203 202 181
f 204 203 181
f 205 204 181
f 206 205 181
f 207 206 181
f 208 207 181
f 183 208 181
f 201 209 181
f 201 210 209
f 210 211 209
f 210 212 211
f 212 213 211
f 212 214 213
f 214 215 213
f 214 216 215
f 216 217 215
f 216 218 217
f 218 219 217
f 218 220 219
f 220 221 219
f 221 222 219
f 221 223 222
f 223 224 222
f 224 225 222
f 224 226 225
f 226 227 225
f 226 228 227
f 228 229 227
f 228 230 229
f 231 232 233
f 234 232 231
f 231 233 235
f 235 233 236
f 235 236 237
f 237 236 238
f 237 238 239
f 239 238 240
f 239 240 241
f 241 240 242
f 241 242 243
f 243 242 244
f 243 244 245
f 245 244 246
f 245 246 247
f 247 246 248
f 247 248 249
f 249 248 250
f 249 250 251
f 251 250 252
f 251 252 253
f 253 252 254
f 253 254 255
f 255 254 256
f 255 256 257
f 257 256 258
f 257 258 259
f 259 258 260
f 259 260 261
f 261 260 262
f 261 262 263
f 263 262 264
f 263 264 265
f 265 264 266
f 265 266 267
f 267 266 268
f 267 268 269
f 269 268 270
f 269 270 271
f 271 270 272
f 271 272 273
f 273 272 274
f 273 274 275
f 275 274 276
f 275 276 277
f 277 276 278
f 277 278 279
f 279 278 280
f 279 280 281
f 281 280 282
f 281 282 283
f 283 282 284
f 283 284 285
f 285 284 286
f 285 286 287
f 287 286 288
f 287 288 289
f 289 288 290
f 289 290 291
f 291 290 292
f 291 292 293
f 293 292 294
f 293 294 295
f 295 294 296
f 295 296 297
f 297 296 298
f 297 298 299
f 299 298 300
f 299 300 301
f 301 300 302
f 301 302 303
f 303 302 304
f 303 304 305
f 305 304 306
f 305 306 307
f 307 306 308
f 307 308 309
f 309 308 310
f 309 310 311
f 311 310 312
f 311 312 313
f 313 312 314
f 313 314 315
f 315 314 316
f 315 316 317
f 317 316 318
f 317 318 319
f 319 318 320
f 319 320 321
f 321 320 322
f 321 322 323
f 323 322 324
f 323 324 325
f 325 324 326
f 325 326 327
f 327 326 328
f 327 328 329
f 329 328 330
f 330 328 331
f 330 331 332
f 332 331 333
f 332 333 334
f 334 333 335
f 334 335 336
f 336 335 337
f 337 335 338
f 337 338 339
f 339 338 340
f 339 340 341
f 341 340 342
f 341 342 343
f 343 342 344
f 343 344 345
f 345 344 346
f 345 346 347
f 345 347 348
f 348 347 349
f 348 349 350
f 348 350 351
f 351 350 352
f 351 352 353
f 351 353 354
f 354 353 355
f 354 355 356
f 356 355 357
f 356 357 358
f 358 357 359
f 358 359 360
f 360 359 361
f 360 361 362
f 362 361 363
f 363 361 364
f 363 364 365
f 365 364 366
f 366 364 367
f 366 367 368
f 368 367 369
f 369 367 370
f 369 370 371
f 371 370 372
f 371 372 373
f 373 372 374
f 373 374 375
f 375 374 376
f 375 376 377
f 377 376 378
f 377 378 379
f 377 379 380
f 380 379 381
f 380 381 382
f 382 381 383
f 382 383 384
f 384 383 385
f 384 385 386
f 384 386 387
f 387 386 388
f 387 388 389
f 389 388 390
f 389 390 391
f 391 390 392
f 391 392 393
f 393 392 394
f 393 394 395
f 395 394 396
f 395 396 397
f 397 396 398
f 397 398 399
f 399 398 400
f 400 398 401
f 400 401 402
f 402 401 403
f 403 401 404
f 403 404 405
f 405 404 406
f 405 406 407
f 407 406 408
f 407 408 409
f 409 408 410
f 409 410 411
f 411 410 412
f 411 412 413
f 413 412 414
f 413 414 415
f 415 414 416
f 415 416 417
f 417 416 418
f 417 418 419
f 419 418 420
f 419 420 421
f 421 420 422
f 421 422 423
f 423 422 424
f 423 424 425
f 425 424 426
f 425 426 427
f 427 426 428
f 427 428 429
f 429 428 430
f 429 430 431
f 431 430 432
f 431 432 433
f 433 432 434
f 433 434 435
f 435 434 436
f 436 434 437
f 436 437 438
f 438 437 439
f 438 439 440
f 440 439 441
f 440 441 442
f 442 441 443
f 442 443 444
f 444 443 445
f 444 445 446
f 446 445 447
f 446 447 448
f 448 447 449
f 448 449 450
f 450 449 451
f 450 451 452
f 452 451 453
f 452 453 454
f 454 453 455
f 454 455 456
f 456 455 457
f 456 457 458
f 458 457 459
f 458 459 460
f 460 459 461
f 460 461 462
f 462 461 463
f 462 463 464
f 464 463 465
f 464 465 466
f 466 465 467
f 466 467 468
f 468 467 469
f 468 469 470
f 470 469 471
f 470 471 472
f 472 471 473
f 472 473 474
f 474 473 475
f 474 475 476
f 476 475 477
f 476 477 478
f 478 477 479
f 478 479 480
f 480 479 481
f 480 481 482
f 482 481 483
f 482 483 484
f 484 483 485
f 484 485 486
f 486 485 487
f 486 487 488
f 488 487 489
f 488 489 490
f 490 489 491
f 490 491 492
f 492 491 493
f 492 493 494
f 494 493 495
f 494 495 496
f 496 495 497
f 496 497 498
f 498 497 499
f 498 499 500
f 500 499 501
f 500 501 502
f 502 501 503
f 502 503 504
f 504 503 505
f 504 505 506
f 506 505 507
f 506 507 508
f 508 507 509
f 508 509 510
f 510 509 511
f 510 511 512
f 512 511 513
f 512 513 514
f 514 513 515
f 516 514 515
f 516 515 517
f 516 517 518
f 518 517 519
f 518 519 520
f 520 519 521
f 520 521 522
f 522 521 523
f 522 523 524
f 524 523 525
f 524 525 526
f 526 525 527
f 526 527 528
f 528 527 529
f 528 529 530
f 530 529 531
f 530 531 532
f 530 532 533
f 533 532 534
f 533 534 535
f 535 534 536
f 535 536 537
f 537 536 538
f 537 538 539
f 539 538 540
f 539 540 541
f 541 540 542
f 541 542 543
f 543 542 544
f 543 544 545
f 545 544 546
f 545 546 547
f 547 546 548
f 547 548 549
f 549 548 550
f 549 550 551
f 551 550 552
f 551 552 553
f 553 552 554
f 553 554 555
f 555 554 556
f 555 556 557
f 557 556 558
f 557 558 559
f 559 558 560
f 559 560 561
f 561 560 562
f 561 562 563
f 563 562 564
f 563 564 565
f 565 564 566
f 565 566 567
f 567 566 568
f 567 568 569
f 569 568 570
f 569 570 234
f 234 570 571
f 234 571 232
f 572 573 574
f 575 573 572
f 576 572 574
f 576 574 577
f 576 577 578
f 578 577 579
f 578 579 580
f 580 579 581
f 580 581 582
f 582 581 583
f 582 583 584
f 584 583 585
f 584 585 586
f 586 585 587
f 586 587 588
f 588 587 589
f 588 589 590
f 590 589 591
f 590 591 592
f 592 591 593
f 592 593 594
f 594 593 595
f 594 595 596
f 596 595 597
f 596 597 598
f 598 597 599
f 598 599 600
f 600 599 601
f 600 601 602
f 602 601 603
f 602 603 604
f 604 603 605
f 604 605 606
f 606 605 607
f 606 607 608
f 608 607 609
f 608 609 610
f 610 609 611
f 610 611 575
f 575 611 573
f 612 613 614
f 615 613 612
f 616 612 614
f 616 614 617
f 616 617 618
f 618 617 619
f 618 619 620
f 620 619 621
f 620 621 622
f 622 621 623
f 622 623 624
f 624 623 625
f 624 625 626
f 626 625 627
f 626 627 628
f 628 627 629
f 628 629 630
f 630 629 631
f 630 631 632
f 632 631 633
f 632 633 634
f 634 633 635
f 634 635 636
f 636 635 637
f 636 637 638
f 638 637 639
f 638 639 640
f 640 639 641
f 640 641 642
f 642 641 643
f 642 643 644
f 644 643 645
f 644 645 646
f 646 645 647
f 646 647 648
f 648 647 649
f 648 649 650
f 650 649 651
f 650 651 615
f 615 651 613
f 652 653 654
f 655 653 652
f 656 652 654
f 656 654 657
f 656 657 658
f 658 657 659
f 658 659 660
f 660 659 661
f 660 661 662
f 662 661 663
f 662 663 664
f 664 663 665
f 664 665 666
f 666 665 667
f 666 667 668
f 668 667 669
f 668 669 670
f 670 669 671
f 670 671 672
f 672 671 673
f 672 673 674
f 674 673 675
f 674 675 676
f 676 675 677
f 676 677 678
f 678 677 679
f 678 679 680
f 680 679 681
f 680 681 682
f 682 681 683
f 682 683 684
f 684 683 685
f 684 685 686
f 686 685 687
f 686 687 688
f 688 687 689
f 688 689 690
f 690 689 691
f 690 691 655
f 655 691 653
f 692 693 694
f 692 695 693
f 696 692 694
f 697 696 694
f 698 697 694
f 698 699 697
f 699 700 697
f 700 701 697
f 701 702 697
f 701 703 702
f 703 704 702
f 704 705 702
f 705 706 702
f 706 707 702
f 706 708 707
f 708 709 707
f 709 710 707
f 710 711 707
f 710 712 711
f 712 713 711
f 713 714 711
f 713 715 714
f 715 716 714
f 715 717 716
f 715 718 717
f 715 719 718
f 719 720 718
f 719 721 720
f 719 722 721
f 719 723 722
f 723 724 722
f 723 725 724
f 723 726 725
f 726 727 725
f 726 728 727
f 726 729 728
f 695 730 693
f 730 731 693
f 731 732 693
f 731 733 732
f 733 734 732
f 734 735 732
f 735 736 732
f 735 737 736
f 737 738 736
f 738 739 736
f 738 740 739
f 740 741 739
f 741 742 739
f 741 743 742
f 743 744 742
f 744 745 742
f 744 746 745
f 746 747 745
f 747 748 745
f 747 749 748
f 749 750 748
f 750 751 748
f 750 752 751
f 752 753 751
f 753 754 751
f 753 755 754
f 755 756 754
f 756 757 754
f 756 758 757
f 758 759 757
f 759 760 757
f 759 761 760
f 761 762 760
f 761 763 762
f 763 764 762
f 764 765 762
f 764 766 765
f 766 767 765
f 767 768 765
f 767 769 768
f 769 770 768
f 769 771 770
f 771 772 770
f 772 773 770
f 772 774 773
f 774 775 773
f 774 776 775
f 776 777 775
f 777 778 775
f 777 779 778
f 779 780 778
f 779 781 780
f 782 780 781
f 782 783 780
f 782 781 784
f 785 782 784
f 786 785 784
f 787 786 784
f 788 787 784
f 789 788 784
f 790 789 784
f 790 784 791
f 792 790 791
f 793 792 791
f 794 793 791
f 794 791 795
f 795 791 796
f 791 797 796
f 795 796 798
f 799 795 798
f 800 799 798
f 801 800 798
f 802 801 798
f 802 798 780
f 803 802 780
f 804 803 780
f 805 804 780
f 806 805 780
f 783 806 780
f 797 807 796
f 797 808 807
f 808 809 807
f 809 810 807
f 809 811 810
f 811 812 810
f 811 813 812
f 811 814 813
f 811 815 814
f 815 816 814
f 816 817 814
f 817 818 814
f 818 819 814
f 818 820 819
f 820 821 819
f 821 822 819
f 822 823 819
f 823 824 819
f 824 825 819
f 824 826 825
f 827 825 826
f 827 828 825
f 827 826 829
f 830 827 829
f 831 830 829
f 832 831 829
f 833 832 829
f 833 829 834
f 835 833 834
f 836 835 834
f 836 834 837
f 838 836 837
f 839 838 837
f 840 839 837
f 840 837 841
f 841 837 842
f 841 842 843
f 842 844 843
f 841 843 825
f 845 841 825
f 846 845 825
f 847 846 825
f 848 847 825
f 849 848 825
f 850 849 825
f 851 850 825
f 852 851 825
f 828 852 825
f 844 853 843
f 853 854 843
f 854 855 843
f 855 856 843
f 856 857 843
f 857 858 843
f 858 859 843
f 858 860 859
f 860 861 859
f 861 862 859
f 862 863 859
f 863 864 859
f 864 865 859
f 865 866 859
f 866 867 859
f 866 868 867
f 868 869 867
f 869 870 867
f 871 870 869
f 871 872 870
f 873 871 869
f 873 869 874
f 875 873 874
f 876 875 874
f 877 876 874
f 878 877 874
f 879 878 874
f 880 879 874
f 881 880 874
f 882 881 874
f 882 874 883
f 883 874 884
f 874 885 884
f 883 884 886
f 887 883 886
f 888 887 886
f 888 886 889
f 890 888 889
f 891 890 889
f 892 891 889
f 892 889 893
f 894 892 893
f 895 894 893
f 895 893 896
f 897 895 896
f 872 897 896
f 872 896 870
f 874 898 885
f 874 899 898
f 874 900 899
f 874 901 900
f 901 902 900
f 901 903 902
f 903 904 902
f 903 905 904
f 905 906 904
f 905 907 906
f 907 908 906
f 907 909 908
f 909 910 908
f 909 911 910
f 911 912 910
f 911 913 912
f 913 914 912
f 913 915 914
f 915 916 914
f 915 917 916
f 917 918 916
f 917 919 918
f 919 920 918
f 919 921 920
f 921 922 920
