# Geometry extracted from Colibri.usd; meters.
v 0.01351252654 0.2211279071 -0.01774061476
v 0.0140541666 0.2210075023 -0.01754569515
v 0.01401463422 0.2210467231 -0.01744538257
v 0.01395664806 0.2210910629 -0.01735686538
v 0.01388243651 0.2211388176 -0.01728354526
v 0.01379485156 0.221188152 -0.0172282398
v 0.01369725901 0.2212371702 -0.01719307439
v 0.01359340926 0.2212839886 -0.01717940037
v 0.01348729321 0.2213268078 -0.01718774331
v 0.01338298888 0.2213639823 -0.0172177826
v 0.01328450456 0.2213940837 -0.01726836371
v 0.01319562499 0.221415955 -0.01733754298
v 0.01311976578 0.2214287558 -0.01742266187
v 0.01305984212 0.2214319942 -0.01752044922
v 0.01301815685 0.2214255456 -0.01762714718
v 0.01299631187 0.2214096581 -0.01773865542
v 0.01299514676 0.221384942 -0.01785068872
v 0.01301470629 0.2213523471 -0.01795894168
v 0.01305423868 0.2213131262 -0.01805925425
v 0.01311222483 0.2212687865 -0.01814777145
v 0.01318643639 0.2212210318 -0.01822109157
v 0.01327402133 0.2211716974 -0.01827639703
v 0.01337161389 0.2211226792 -0.01831156243
v 0.01347546364 0.2210758608 -0.01832523646
v 0.01358157969 0.2210330416 -0.01831689352
v 0.01368588402 0.2209958671 -0.01828685422
v 0.01378436834 0.2209657657 -0.01823627312
v 0.01387324791 0.2209438944 -0.01816709385
v 0.01394910712 0.2209310936 -0.01808197496
v 0.01400903078 0.2209278552 -0.01798418761
v 0.01405071604 0.2209343037 -0.01787748964
v 0.01407256103 0.2209501913 -0.01776598141
v 0.01407372614 0.2209749074 -0.01765394811
v 0.01461881169 0.2209957596 -0.01738167349
v 0.014541266 0.2210726942 -0.01718490334
v 0.01442752206 0.2211596698 -0.01701127063
v 0.01428195094 0.221253344 -0.01686744801
v 0.01411014687 0.2213501169 -0.01675896243
v 0.01391871215 0.2214462696 -0.01668998301
v 0.01371500356 0.221538107 -0.01666316051
v 0.01350684946 0.2216220999 -0.01667952578
v 0.0133022491 0.2216950205 -0.01673844983
v 0.0131090652 0.2217540663 -0.01683766839
v 0.01293472167 0.2217969685 -0.01697336839
v 0.01278591846 0.2218220782 -0.01714033503
v 0.01266837394 0.2218284305 -0.01733215185
v 0.01258660535 0.2218157813 -0.01754144745
v 0.01254375495 0.2217846167 -0.0177601787
v 0.0125414695 0.2217361343 -0.01797993991
v 0.01257983677 0.2216721972 -0.01819228578
v 0.01265738246 0.2215952626 -0.01838905593
v 0.0127711264 0.2215082871 -0.01856268864
v 0.01291669752 0.2214146129 -0.01870651127
v 0.01308850159 0.22131784 -0.01881499685
v 0.01327993631 0.2212216873 -0.01888397627
v 0.01348364491 0.2211298498 -0.01891079876
v 0.013691799 0.221045857 -0.01889443349
v 0.01389639936 0.2209729364 -0.01883550944
v 0.01408958326 0.2209138905 -0.01873629088
v 0.0142639268 0.2208709884 -0.01860059088
v 0.01441273 0.2208458787 -0.01843362424
v 0.01453027452 0.2208395264 -0.01824180743
v 0.01461204311 0.2208521756 -0.01803251182
v 0.01465489352 0.2208833402 -0.01781378057
v 0.01465717896 0.2209318226 -0.01759401937
v 0.01518476254 0.2210931305 -0.01725485312
v 0.01507218372 0.2212048222 -0.01696918712
v 0.01490705311 0.2213310912 -0.01671711151
v 0.01469571666 0.221467085 -0.01650831337
v 0.01444629577 0.2216075775 -0.01635081672
v 0.01416837562 0.2217471696 -0.01625067409
v 0.01387263659 0.2218804968 -0.01621173395
v 0.01357044369 0.2220024356 -0.01623549263
v 0.01327341003 0.2221082998 -0.01632103716
v 0.01299295046 0.2221940212 -0.0164650801
v 0.0127398429 0.2222563054 -0.01666208598
v 0.01252381408 0.2222927591 -0.0169044839
v 0.01235316589 0.2223019812 -0.01718295878
v 0.01223445627 0.2222836174 -0.01748680893
v 0.01217224721 0.2222383733 -0.01780435748
v 0.01216892924 0.2221679878 -0.01812340129
v 0.01222462995 0.2220751657 -0.01843167968
v 0.01233720877 0.221963474 -0.01871734568
v 0.01250233938 0.221837205 -0.01896942129
v 0.01271367583 0.2217012112 -0.01917821943
v 0.01296309672 0.2215607187 -0.01933571608
v 0.01324101687 0.2214211266 -0.0194358587
v 0.0135367559 0.2212877993 -0.01947479884
v 0.0138389488 0.2211658605 -0.01945104017
v 0.01413598246 0.2210599963 -0.01936549564
v 0.01441644203 0.220974275 -0.0192214527
v 0.01466954959 0.2209119907 -0.01902444682
v 0.01488557841 0.2208755371 -0.0187820489
v 0.0150562266 0.2208663149 -0.01850357401
v 0.01517493622 0.2208846788 -0.01819972387
v 0.01523714528 0.2209299228 -0.01788217532
v 0.01524046325 0.2210003083 -0.0175631315
v 0.01573027032 0.2212958731 -0.01717010761
v 0.01558698459 0.2214380297 -0.01680652379
v 0.01537681325 0.2215987396 -0.01648569234
v 0.01510783293 0.2217718269 -0.01621994271
v 0.01479038036 0.2219506399 -0.01601948755
v 0.01443665514 0.222128307 -0.01589203013
v 0.01406025072 0.2222980004 -0.01584246871
v 0.01367563211 0.222453199 -0.01587270784
v 0.01329757996 0.2225879386 -0.01598158531
v 0.01294062266 0.2226970411 -0.01616491727
v 0.01261847779 0.222776314 -0.01641565813
v 0.01234352526 0.2228227107 -0.0167241722
v 0.01212633135 0.2228344482 -0.0170786035
v 0.01197524264 0.2228110755 -0.01746533134
v 0.01189606549 0.2227534908 -0.01786949401
v 0.0118918426 0.222663907 -0.01827555976
v 0.01196273608 0.2225457668 -0.01866792375
v 0.01210602181 0.2224036102 -0.01903150757
v 0.01231619315 0.2222429003 -0.01935233901
v 0.01258517347 0.222069813 -0.01961808864
v 0.01290262604 0.221891 -0.0198185438
v 0.01325635126 0.2217133329 -0.01994600122
v 0.01363275568 0.2215436395 -0.01999556264
v 0.01401737429 0.2213884409 -0.01996532351
v 0.01439542644 0.2212537013 -0.01985644604
v 0.01475238374 0.2211445988 -0.01967311408
v 0.01507452861 0.2210653259 -0.01942237322
v 0.01534948114 0.2210189292 -0.01911385915
v 0.01556667505 0.2210071917 -0.01875942785
v 0.01571776376 0.2210305644 -0.01837270001
v 0.01579694091 0.2210881491 -0.01796853734
v 0.0158011638 0.2211777329 -0.0175624716
v 0.01623437133 0.2215961959 -0.01713069365
v 0.01606588514 0.2217633544 -0.01670316432
v 0.0158187496 0.2219523293 -0.01632590652
v 0.01550246223 0.2221558584 -0.01601341799
v 0.01512917758 0.2223661203 -0.01577770759
v 0.01471324074 0.2225750346 -0.01562783363
v 0.01427063595 0.222774573 -0.0155695556
v 0.01381837225 0.2229570673 -0.01560511287
v 0.01337382996 0.2231155043 -0.01573313921
v 0.01295409259 0.2232437953 -0.01594871479
v 0.01257529036 0.2233370103 -0.01624355505
v 0.01225198034 0.223391567 -0.0166063292
v 0.01199658729 0.2234053689 -0.01702309622
v 0.01181892586 0.2233778855 -0.01747784004
v 0.01172582342 0.223310173 -0.01795308507
v 0.01172085762 0.2232048337 -0.01843056795
v 0.01180421954 0.2230659155 -0.01889193919
v 0.01197270573 0.2228987571 -0.01931946852
v 0.01221984127 0.2227097821 -0.01969672631
v 0.01253612864 0.222506253 -0.02000921485
v 0.01290941329 0.2222959912 -0.02024492524
v 0.01332535013 0.2220870769 -0.0203947992
v 0.01376795492 0.2218875385 -0.02045307723
v 0.01422021862 0.2217050442 -0.02041751997
v 0.01466476091 0.2215466072 -0.02028949362
v 0.01508449828 0.2214183161 -0.02007391804
v 0.01546330052 0.2213251012 -0.01977907779
v 0.01578661053 0.2212705444 -0.01941630364
v 0.01604200359 0.2212567425 -0.01899953661
v 0.01621966501 0.2212842259 -0.01854479279
v 0.01631276746 0.2213519384 -0.01806954776
v 0.01631773325 0.2214572778 -0.01759206488
v 0.01667769302 0.2219825578 -0.01713812598
v 0.01649048129 0.2221682943 -0.01666308075
v 0.01621587907 0.222378272 -0.01624389435
v 0.01586443922 0.2226044215 -0.01589667584
v 0.01544966756 0.2228380519 -0.01563476846
v 0.01498750329 0.2230701851 -0.01546823747
v 0.01449570722 0.2232919002 -0.01540348218
v 0.01399317878 0.223494677 -0.01544299135
v 0.01349922984 0.2236707228 -0.01558524674
v 0.01303284258 0.2238132722 -0.01582478139
v 0.0126119401 0.2239168471 -0.01615239025
v 0.01225269739 0.2239774672 -0.01655548344
v 0.01196891981 0.2239928031 -0.01701857013
v 0.01177151303 0.2239622652 -0.01752385439
v 0.01166806294 0.2238870271 -0.01805191837
v 0.01166254531 0.2237699803 -0.01858246887
v 0.01175517223 0.2236156227 -0.01909511711
v 0.01194238396 0.2234298862 -0.01957016235
v 0.01221698618 0.2232199085 -0.01998934874
v 0.01256842604 0.222993759 -0.02033656725
v 0.01298319769 0.2227601286 -0.02059847464
v 0.01344536196 0.2225279954 -0.02076500563
v 0.01393715803 0.2223062803 -0.02082976092
v 0.01443968648 0.2221035035 -0.02079025175
v 0.01493363541 0.2219274577 -0.02064799636
v 0.01540002267 0.2217849083 -0.02040846171
v 0.01582092515 0.2216813334 -0.02008085285
v 0.01618016786 0.2216207133 -0.01967775966
v 0.01646394545 0.2216053774 -0.01921467297
v 0.01666135222 0.2216359153 -0.0187093887
v 0.01676480231 0.2217111534 -0.01818132472
v 0.01677031995 0.2218282002 -0.01765077423
v 0.0170431991 0.2224401112 -0.01719211896
v 0.01684445614 0.2226372881 -0.01668781365
v 0.0165529401 0.2228601991 -0.0162428077
v 0.01617985359 0.2231002781 -0.01587420246
v 0.01573953419 0.2233482989 -0.0155961632
v 0.01524890324 0.2235947302 -0.01541937463
v 0.01472681531 0.2238301018 -0.01535063085
v 0.014193334 0.2240453684 -0.01539257368
v 0.01366896059 0.2242322576 -0.01554359115
v 0.01317384654 0.2243835872 -0.01579787982
v 0.01272701881 0.2244935418 -0.01614566741
v 0.01234564875 0.2245578958 -0.01657358881
v 0.0120443922 0.2245741762 -0.01706519917
v 0.01183482608 0.2245417574 -0.01760160609
v 0.01172500411 0.2244618851 -0.01816219581
v 0.01171914674 0.2243376288 -0.01872542516
v 0.01181747892 0.2241737636 -0.01926964966
v 0.01201622187 0.2239765868 -0.01977395497
v 0.01230773792 0.2237536758 -0.02021896092
v 0.01268082442 0.2235135968 -0.02058756616
v 0.01312114383 0.223265576 -0.02086560541
v 0.01361177478 0.2230191447 -0.02104239398
v 0.0141338627 0.2227837731 -0.02111113777
v 0.01466734402 0.2225685065 -0.02106919494
v 0.01519171742 0.2223816173 -0.02091817746
v 0.01568683148 0.2222302877 -0.02066388879
v 0.0161336592 0.2221203331 -0.02031610121
v 0.01651502926 0.2220559791 -0.01988817981
v 0.01681628582 0.2220396987 -0.01939656944
v 0.01702585193 0.2220721175 -0.01886016253
v 0.0171356739 0.2221519898 -0.0182995728
v 0.01714153127 0.2222762461 -0.01773634345
v 0.01731684319 0.2229512725 -0.01729059764
v 0.01711420669 0.2231523122 -0.01677641243
v 0.01681697944 0.2233795904 -0.01632268822
v 0.01643658386 0.2236243727 -0.01594686158
v 0.01598763806 0.2238772526 -0.01566337515
v 0.015487395 0.2241285118 -0.0154831231
v 0.01495507885 0.2243684945 -0.01541303264
v 0.01441114592 0.2245879785 -0.01545579717
v 0.01387649949 0.224778529 -0.01560977329
v 0.01337168561 0.2249328234 -0.0158690437
v 0.01291610393 0.2250449321 -0.01622364493
v 0.01252726241 0.2251105469 -0.01665994967
v 0.01222010382 0.2251271463 -0.01716119129
v 0.01200643207 0.2250940923 -0.01770810712
v 0.01189445866 0.2250126552 -0.01827967935
v 0.01188848651 0.2248859646 -0.01885394313
v 0.01198874517 0.2247188891 -0.01940882954
v 0.01219138166 0.2245178494 -0.01992301475
v 0.01248860892 0.2242905712 -0.02037673896
v 0.01286900449 0.2240457889 -0.0207525656
v 0.0133179503 0.223792909 -0.02103605203
v 0.01381819336 0.2235416498 -0.02121630408
v 0.0143505095 0.2233016671 -0.02128639454
v 0.01489444244 0.2230821831 -0.02124363001
v 0.01542908887 0.2228916326 -0.02108965389
v 0.01593390275 0.2227373382 -0.02083038348
v 0.01638948443 0.2226252295 -0.02047578225
v 0.01677832595 0.2225596147 -0.02003947751
v 0.01708548454 0.2225430153 -0.01953823589
v 0.01729915629 0.2225760693 -0.01899132006
v 0.0174111297 0.2226575064 -0.01841974783
v 0.01741710184 0.222784197 -0.01784548405
v 0.01748810944 0.223496398 -0.01742977752
v 0.01728936648 0.2236935748 -0.01692547221
v 0.01699785044 0.2239164858 -0.01648046626
v 0.01662476393 0.2241565648 -0.01611186102
v 0.01618444453 0.2244045856 -0.01583382177
v 0.01569381358 0.2246510169 -0.0156570332
v 0.01517172565 0.2248863885 -0.01558828941
v 0.01463824434 0.2251016551 -0.01563023224
v 0.01411387093 0.2252885443 -0.01578124972
v 0.01361875688 0.2254398739 -0.01603553839
v 0.01317192915 0.2255498285 -0.01638332597
v 0.0127905591 0.2256141825 -0.01681124737
v 0.01248930254 0.2256304629 -0.01730285774
v 0.01227973642 0.2255980441 -0.01783926465
v 0.01216991445 0.2255181718 -0.01839985438
v 0.01216405708 0.2253939155 -0.01896308373
v 0.01226238926 0.2252300504 -0.01950730822
v 0.01246113221 0.2250328735 -0.02001161353
v 0.01275264826 0.2248099625 -0.02045661948
v 0.01312573476 0.2245698835 -0.02082522472
v 0.01356605417 0.2243218627 -0.02110326398
v 0.01405668512 0.2240754314 -0.02128005255
v 0.01457877304 0.2238400598 -0.02134879634
v 0.01511225436 0.2236247932 -0.0213068535
v 0.01563662776 0.223437904 -0.02115583603
v 0.01613174182 0.2232865744 -0.02090154736
v 0.01657856955 0.2231766198 -0.02055375977
v 0.0169599396 0.2231122658 -0.02012583837
v 0.01726119616 0.2230959854 -0.01963422801
v 0.01747076227 0.2231284042 -0.01909782109
v 0.01758058424 0.2232082765 -0.01853723137
v 0.01758644161 0.2233325328 -0.01797400202
v 0.01755041612 0.2240545389 -0.01760431007
v 0.0173632044 0.2242402754 -0.01712926483
v 0.01708860217 0.2244502531 -0.01671007844
v 0.01673716232 0.2246764026 -0.01636285993
v 0.01632239066 0.224910033 -0.01610095254
v 0.0158602264 0.2251421662 -0.01593442155
v 0.01536843033 0.2253638813 -0.01586966626
v 0.01486590188 0.2255666581 -0.01590917543
v 0.01437195294 0.2257427039 -0.01605143082
v 0.01390556569 0.2258852533 -0.01629096547
v 0.01348466321 0.2259888282 -0.01661857433
v 0.0131254205 0.2260494483 -0.01702166752
v 0.01284164291 0.2260647842 -0.01748475421
v 0.01264423614 0.2260342463 -0.01799003848
v 0.01254078605 0.2259590082 -0.01851810246
v 0.01253526841 0.2258419614 -0.01904865295
v 0.01262789534 0.2256876038 -0.0195613012
v 0.01281510706 0.2255018673 -0.02003634643
v 0.01308970929 0.2252918896 -0.02045553283
v 0.01344114914 0.2250657401 -0.02080275134
v 0.0138559208 0.2248321097 -0.02106465872
v 0.01431808506 0.2245999765 -0.02123118971
v 0.01480988114 0.2243782614 -0.021295945
v 0.01531240958 0.2241754846 -0.02125643583
v 0.01580635852 0.2239994388 -0.02111418044
v 0.01627274577 0.2238568894 -0.02087464579
v 0.01669364826 0.2237533145 -0.02054703693
v 0.01705289097 0.2236926944 -0.02014394374
v 0.01733666855 0.2236773585 -0.01968085705
v 0.01753407532 0.2237078964 -0.01917557279
v 0.01763752541 0.2237831345 -0.01864750881
v 0.01764304305 0.2239001813 -0.01811695831
v 0.01750136882 0.2246042461 -0.01780748799
v 0.01733288262 0.2247714045 -0.01737995866
v 0.01708574709 0.2249603795 -0.01700270087
v 0.01676945971 0.2251639086 -0.01669021233
v 0.01639617507 0.2253741704 -0.01645450194
v 0.01598023822 0.2255830848 -0.01630462798
v 0.01553763343 0.2257826231 -0.01624634995
v 0.01508536974 0.2259651174 -0.01628190721
v 0.01464082745 0.2261235544 -0.01640993356
v 0.01422109008 0.2262518455 -0.01662550914
v 0.01384228784 0.2263450604 -0.01692034939
v 0.01351897783 0.2263996172 -0.01728312354
v 0.01326358477 0.2264134191 -0.01769989057
v 0.01308592334 0.2263859357 -0.01815463439
v 0.0129928209 0.2263182232 -0.01862987942
v 0.01298785511 0.2262128838 -0.0191073623
v 0.01307121702 0.2260739657 -0.01956873353
v 0.01323970322 0.2259068072 -0.01999626286
v 0.01348683876 0.2257178323 -0.02037352066
v 0.01380312613 0.2255143032 -0.02068600919
v 0.01417641078 0.2253040413 -0.02092171959
v 0.01459234762 0.225095127 -0.02107159355
v 0.01503495241 0.2248955886 -0.02112987158
v 0.01548721611 0.2247130943 -0.02109431431
v 0.0159317584 0.2245546573 -0.02096628797
v 0.01635149576 0.2244263663 -0.02075071239
v 0.016730298 0.2243331513 -0.02045587213
v 0.01705360801 0.2242785946 -0.02009309798
v 0.01730900107 0.2242647927 -0.01967633096
v 0.0174866625 0.2242922761 -0.01922158714
v 0.01757976494 0.2243599886 -0.01874634211
v 0.01758473073 0.2244653279 -0.01826885923
v 0.01734285228 0.2251243948 -0.01803150344
v 0.01719956654 0.2252665514 -0.01766791962
v 0.0169893952 0.2254272613 -0.01734708817
v 0.01672041489 0.2256003486 -0.01708133854
v 0.01640296232 0.2257791616 -0.01688088338
v 0.0160492371 0.2259568287 -0.01675342596
v 0.01567283268 0.2261265221 -0.01670386454
v 0.01528821407 0.2262817207 -0.01673410367
v 0.01491016192 0.2264164603 -0.01684298114
v 0.01455320462 0.2265255628 -0.0170263131
v 0.01423105975 0.2266048357 -0.01727705396
v 0.01395610721 0.2266512324 -0.01758556803
v 0.01373891331 0.2266629699 -0.01793999933
v 0.0135878246 0.2266395972 -0.01832672717
v 0.01350864745 0.2265820125 -0.01873088984
v 0.01350442455 0.2264924287 -0.01913695559
v 0.01357531804 0.2263742885 -0.01952931958
v 0.01371860377 0.2262321319 -0.01989290339
v 0.01392877511 0.226071422 -0.02021373484
v 0.01419775542 0.2258983347 -0.02047948447
v 0.014515208 0.2257195217 -0.02067993963
v 0.01486893322 0.2255418546 -0.02080739705
v 0.01524533764 0.2253721612 -0.02085695847
v 0.01562995625 0.2252169626 -0.02082671934
v 0.0160080084 0.225082223 -0.02071784187
v 0.0163649657 0.2249731205 -0.02053450991
v 0.01668711057 0.2248938476 -0.02028376905
v 0.0169620631 0.2248474509 -0.01997525498
v 0.01717925701 0.2248357134 -0.01962082368
v 0.01733034572 0.2248590861 -0.01923409584
v 0.01740952286 0.2249166708 -0.01882993317
v 0.01741374576 0.2250062546 -0.01842386742
v 0.01708095841 0.225594996 -0.0182677475
v 0.01696837959 0.2257066876 -0.0179820815
v 0.01680324898 0.2258329566 -0.01773000589
v 0.01659191253 0.2259689504 -0.01752120775
v 0.01634249164 0.2261094429 -0.0173637111
v 0.01606457149 0.226249035 -0.01726356848
v 0.01576883246 0.2263823623 -0.01722462834
v 0.01546663955 0.2265043011 -0.01724838701
v 0.0151696059 0.2266101653 -0.01733393154
v 0.01488914633 0.2266958866 -0.01747797449
v 0.01463603876 0.2267581709 -0.01767498037
v 0.01442000995 0.2267946245 -0.01791737828
v 0.01424936176 0.2268038467 -0.01819585317
v 0.01413065214 0.2267854828 -0.01849970332
v 0.01406844307 0.2267402388 -0.01881725186
v 0.01406512511 0.2266698533 -0.01913629568
v 0.01412082582 0.2265770311 -0.01944457407
v 0.01423340464 0.2264653394 -0.01973024006
v 0.01439853525 0.2263390704 -0.01998231567
v 0.0146098717 0.2262030766 -0.02019111382
v 0.01485929258 0.2260625841 -0.02034861046
v 0.01513721273 0.225922992 -0.02044875309
v 0.01543295177 0.2257896648 -0.02048769323
v 0.01573514467 0.225667726 -0.02046393456
v 0.01603217832 0.2255618618 -0.02037839002
v 0.01631263789 0.2254761404 -0.02023434708
v 0.01656574546 0.2254138562 -0.0200373412
v 0.01678177428 0.2253774025 -0.01979494328
v 0.01695242247 0.2253681804 -0.0195164684
v 0.01707113209 0.2253865442 -0.01921261825
v 0.01713334115 0.2254317883 -0.0188950697
v 0.01713665912 0.2255021738 -0.01857602589
v 0.01672575159 0.2259979644 -0.0185071414
v 0.0166482059 0.226074899 -0.01831037125
v 0.01653446196 0.2261618745 -0.01813673854
v 0.01638889084 0.2262555487 -0.01799291592
v 0.01621708676 0.2263523216 -0.01788443033
v 0.01602565204 0.2264484743 -0.01781545091
v 0.01582194345 0.2265403118 -0.01778862842
v 0.01561378936 0.2266243046 -0.01780499369
v 0.015409189 0.2266972252 -0.01786391774
v 0.01521600509 0.2267562711 -0.0179631363
v 0.01504166156 0.2267991732 -0.0180988363
v 0.01489285835 0.2268242829 -0.01826580294
v 0.01477531383 0.2268306352 -0.01845761975
v 0.01469354524 0.226817986 -0.01866691536
v 0.01465069484 0.2267868214 -0.01888564661
v 0.01464840939 0.226738339 -0.01910540781
v 0.01468677666 0.226674402 -0.01931775369
v 0.01476432236 0.2265974674 -0.01951452384
v 0.01487806629 0.2265104918 -0.01968815655
v 0.01502363742 0.2264168176 -0.01983197917
v 0.01519544149 0.2263200447 -0.01994046475
v 0.01538687621 0.226223892 -0.02000944418
v 0.0155905848 0.2261320546 -0.02003626667
v 0.01579873889 0.2260480617 -0.0200199014
v 0.01600333926 0.2259751412 -0.01996097735
v 0.01619652316 0.2259160953 -0.01986175879
v 0.01637086669 0.2258731931 -0.01972605879
v 0.0165196699 0.2258480834 -0.01955909215
v 0.01663721442 0.2258417311 -0.01936727534
v 0.01671898301 0.2258543803 -0.01915797973
v 0.01676183341 0.225885545 -0.01893924848
v 0.01676411886 0.2259340273 -0.01871948728
v 0.01629088206 0.2263178145 -0.01874048551
v 0.01625134968 0.2263570354 -0.01864017293
v 0.01619336352 0.2264013751 -0.01855165573
v 0.01611915197 0.2264491298 -0.01847833561
v 0.01603156702 0.2264984642 -0.01842303015
v 0.01593397446 0.2265474824 -0.01838786475
v 0.01583012471 0.2265943008 -0.01837419072
v 0.01572400867 0.22663712 -0.01838253366
v 0.01561970433 0.2266742945 -0.01841257296
v 0.01552122002 0.2267043959 -0.01846315407
v 0.01543234045 0.2267262672 -0.01853233333
v 0.01535648124 0.226739068 -0.01861745222
v 0.01529655757 0.2267423064 -0.01871523958
v 0.01525487231 0.2267358579 -0.01882193754
v 0.01523302733 0.2267199703 -0.01893344577
v 0.01523186222 0.2266952542 -0.01904547907
v 0.01525142175 0.2266626593 -0.01915373203
v 0.01529095413 0.2266234385 -0.01925404461
v 0.01534894029 0.2265790987 -0.0193425618
v 0.01542315185 0.226531344 -0.01941588192
v 0.01551073679 0.2264820096 -0.01947118739
v 0.01560832935 0.2264329914 -0.01950635279
v 0.0157121791 0.2263861731 -0.01952002681
v 0.01581829514 0.2263433538 -0.01951168387
v 0.01592259948 0.2263061793 -0.01948164458
v 0.0160210838 0.2262760779 -0.01943106347
v 0.01610996337 0.2262542066 -0.0193618842
v 0.01618582257 0.2262414058 -0.01927676531
v 0.01624574624 0.2262381674 -0.01917897796
v 0.0162874315 0.226244616 -0.01907228
v 0.01630927649 0.2262605035 -0.01896077176
v 0.0163104416 0.2262852196 -0.01884873846
v 0.01579306182 0.2265422545 -0.01895881242
f 1 2 3
f 1 3 4
f 1 4 5
f 1 5 6
f 1 6 7
f 1 7 8
f 1 8 9
f 1 9 10
f 1 10 11
f 1 11 12
f 1 12 13
f 1 13 14
f 1 14 15
f 1 15 16
f 1 16 17
f 1 17 18
f 1 18 19
f 1 19 20
f 1 20 21
f 1 21 22
f 1 22 23
f 1 23 24
f 1 24 25
f 1 25 26
f 1 26 27
f 1 27 28
f 1 28 29
f 1 29 30
f 1 30 31
f 1 31 32
f 1 32 33
f 1 33 2
f 2 34 35
f 2 35 3
f 3 35 36
f 3 36 4
f 4 36 37
f 4 37 5
f 5 37 38
f 5 38 6
f 6 38 39
f 6 39 7
f 7 39 40
f 7 40 8
f 8 40 41
f 8 41 9
f 9 41 42
f 9 42 10
f 10 42 43
f 10 43 11
f 11 43 44
f 11 44 12
f 12 44 45
f 12 45 13
f 13 45 46
f 13 46 14
f 14 46 47
f 14 47 15
f 15 47 48
f 15 48 16
f 16 48 49
f 16 49 17
f 17 49 50
f 17 50 18
f 18 50 51
f 18 51 19
f 19 51 52
f 19 52 20
f 20 52 53
f 20 53 21
f 21 53 54
f 21 54 22
f 22 54 55
f 22 55 23
f 23 55 56
f 23 56 24
f 24 56 57
f 24 57 25
f 25 57 58
f 25 58 26
f 26 58 59
f 26 59 27
f 27 59 60
f 27 60 28
f 28 60 61
f 28 61 29
f 29 61 62
f 29 62 30
f 30 62 63
f 30 63 31
f 31 63 64
f 31 64 32
f 32 64 65
f 32 65 33
f 33 65 34
f 33 34 2
f 34 66 67
f 34 67 35
f 35 67 68
f 35 68 36
f 36 68 69
f 36 69 37
f 37 69 70
f 37 70 38
f 38 70 71
f 38 71 39
f 39 71 72
f 39 72 40
f 40 72 73
f 40 73 41
f 41 73 74
f 41 74 42
f 42 74 75
f 42 75 43
f 43 75 76
f 43 76 44
f 44 76 77
f 44 77 45
f 45 77 78
f 45 78 46
f 46 78 79
f 46 79 47
f 47 79 80
f 47 80 48
f 48 80 81
f 48 81 49
f 49 81 82
f 49 82 50
f 50 82 83
f 50 83 51
f 51 83 84
f 51 84 52
f 52 84 85
f 52 85 53
f 53 85 86
f 53 86 54
f 54 86 87
f 54 87 55
f 55 87 88
f 55 88 56
f 56 88 89
f 56 89 57
f 57 89 90
f 57 90 58
f 58 90 91
f 58 91 59
f 59 91 92
f 59 92 60
f 60 92 93
f 60 93 61
f 61 93 94
f 61 94 62
f 62 94 95
f 62 95 63
f 63 95 96
f 63 96 64
f 64 96 97
f 64 97 65
f 65 97 66
f 65 66 34
f 66 98 99
f 66 99 67
f 67 99 100
f 67 100 68
f 68 100 101
f 68 101 69
f 69 101 102
f 69 102 70
f 70 102 103
f 70 103 71
f 71 103 104
f 71 104 72
f 72 104 105
f 72 105 73
f 73 105 106
f 73 106 74
f 74 106 107
f 74 107 75
f 75 107 108
f 75 108 76
f 76 108 109
f 76 109 77
f 77 109 110
f 77 110 78
f 78 110 111
f 78 111 79
f 79 111 112
f 79 112 80
f 80 112 113
f 80 113 81
f 81 113 114
f 81 114 82
f 82 114 115
f 82 115 83
f 83 115 116
f 83 116 84
f 84 116 117
f 84 117 85
f 85 117 118
f 85 118 86
f 86 118 119
f 86 119 87
f 87 119 120
f 87 120 88
f 88 120 121
f 88 121 89
f 89 121 122
f 89 122 90
f 90 122 123
f 90 123 91
f 91 123 124
f 91 124 92
f 92 124 125
f 92 125 93
f 93 125 126
f 93 126 94
f 94 126 127
f 94 127 95
f 95 127 128
f 95 128 96
f 96 128 129
f 96 129 97
f 97 129 98
f 97 98 66
f 98 130 131
f 98 131 99
f 99 131 132
f 99 132 100
f 100 132 133
f 100 133 101
f 101 133 134
f 101 134 102
f 102 134 135
f 102 135 103
f 103 135 136
f 103 136 104
f 104 136 137
f 104 137 105
f 105 137 138
f 105 138 106
f 106 138 139
f 106 139 107
f 107 139 140
f 107 140 108
f 108 140 141
f 108 141 109
f 109 141 142
f 109 142 110
f 110 142 143
f 110 143 111
f 111 143 144
f 111 144 112
f 112 144 145
f 112 145 113
f 113 145 146
f 113 146 114
f 114 146 147
f 114 147 115
f 115 147 148
f 115 148 116
f 116 148 149
f 116 149 117
f 117 149 150
f 117 150 118
f 118 150 151
f 118 151 119
f 119 151 152
f 119 152 120
f 120 152 153
f 120 153 121
f 121 153 154
f 121 154 122
f 122 154 155
f 122 155 123
f 123 155 156
f 123 156 124
f 124 156 157
f 124 157 125
f 125 157 158
f 125 158 126
f 126 158 159
f 126 159 127
f 127 159 160
f 127 160 128
f 128 160 161
f 128 161 129
f 129 161 130
f 129 130 98
f 130 162 163
f 130 163 131
f 131 163 164
f 131 164 132
f 132 164 165
f 132 165 133
f 133 165 166
f 133 166 134
f 134 166 167
f 134 167 135
f 135 167 168
f 135 168 136
f 136 168 169
f 136 169 137
f 137 169 170
f 137 170 138
f 138 170 171
f 138 171 139
f 139 171 172
f 139 172 140
f 140 172 173
f 140 173 141
f 141 173 174
f 141 174 142
f 142 174 175
f 142 175 143
f 143 175 176
f 143 176 144
f 144 176 177
f 144 177 145
f 145 177 178
f 145 178 146
f 146 178 179
f 146 179 147
f 147 179 180
f 147 180 148
f 148 180 181
f 148 181 149
f 149 181 182
f 149 182 150
f 150 182 183
f 150 183 151
f 151 183 184
f 151 184 152
f 152 184 185
f 152 185 153
f 153 185 186
f 153 186 154
f 154 186 187
f 154 187 155
f 155 187 188
f 155 188 156
f 156 188 189
f 156 189 157
f 157 189 190
f 157 190 158
f 158 190 191
f 158 191 159
f 159 191 192
f 159 192 160
f 160 192 193
f 160 193 161
f 161 193 162
f 161 162 130
f 162 194 195
f 162 195 163
f 163 195 196
f 163 196 164
f 164 196 197
f 164 197 165
f 165 197 198
f 165 198 166
f 166 198 199
f 166 199 167
f 167 199 200
f 167 200 168
f 168 200 201
f 168 201 169
f 169 201 202
f 169 202 170
f 170 202 203
f 170 203 171
f 171 203 204
f 171 204 172
f 172 204 205
f 172 205 173
f 173 205 206
f 173 206 174
f 174 206 207
f 174 207 175
f 175 207 208
f 175 208 176
f 176 208 209
f 176 209 177
f 177 209 210
f 177 210 178
f 178 210 211
f 178 211 179
f 179 211 212
f 179 212 180
f 180 212 213
f 180 213 181
f 181 213 214
f 181 214 182
f 182 214 215
f 182 215 183
f 183 215 216
f 183 216 184
f 184 216 217
f 184 217 185
f 185 217 218
f 185 218 186
f 186 218 219
f 186 219 187
f 187 219 220
f 187 220 188
f 188 220 221
f 188 221 189
f 189 221 222
f 189 222 190
f 190 222 223
f 190 223 191
f 191 223 224
f 191 224 192
f 192 224 225
f 192 225 193
f 193 225 194
f 193 194 162
f 194 226 227
f 194 227 195
f 195 227 228
f 195 228 196
f 196 228 229
f 196 229 197
f 197 229 230
f 197 230 198
f 198 230 231
f 198 231 199
f 199 231 232
f 199 232 200
f 200 232 233
f 200 233 201
f 201 233 234
f 201 234 202
f 202 234 235
f 202 235 203
f 203 235 236
f 203 236 204
f 204 236 237
f 204 237 205
f 205 237 238
f 205 238 206
f 206 238 239
f 206 239 207
f 207 239 240
f 207 240 208
f 208 240 241
f 208 241 209
f 209 241 242
f 209 242 210
f 210 242 243
f 210 243 211
f 211 243 244
f 211 244 212
f 212 244 245
f 212 245 213
f 213 245 246
f 213 246 214
f 214 246 247
f 214 247 215
f 215 247 248
f 215 248 216
f 216 248 249
f 216 249 217
f 217 249 250
f 217 250 218
f 218 250 251
f 218 251 219
f 219 251 252
f 219 252 220
f 220 252 253
f 220 253 221
f 221 253 254
f 221 254 222
f 222 254 255
f 222 255 223
f 223 255 256
f 223 256 224
f 224 256 257
f 224 257 225
f 225 257 226
f 225 226 194
f 226 258 259
f 226 259 227
f 227 259 260
f 227 260 228
f 228 260 261
f 228 261 229
f 229 261 262
f 229 262 230
f 230 262 263
f 230 263 231
f 231 263 264
f 231 264 232
f 232 264 265
f 232 265 233
f 233 265 266
f 233 266 234
f 234 266 267
f 234 267 235
f 235 267 268
f 235 268 236
f 236 268 269
f 236 269 237
f 237 269 270
f 237 270 238
f 238 270 271
f 238 271 239
f 239 271 272
f 239 272 240
f 240 272 273
f 240 273 241
f 241 273 274
f 241 274 242
f 242 274 275
f 242 275 243
f 243 275 276
f 243 276 244
f 244 276 277
f 244 277 245
f 245 277 278
f 245 278 246
f 246 278 279
f 246 279 247
f 247 279 280
f 247 280 248
f 248 280 281
f 248 281 249
f 249 281 282
f 249 282 250
f 250 282 283
f 250 283 251
f 251 283 284
f 251 284 252
f 252 284 285
f 252 285 253
f 253 285 286
f 253 286 254
f 254 286 287
f 254 287 255
f 255 287 288
f 255 288 256
f 256 288 289
f 256 289 257
f 257 289 258
f 257 258 226
f 258 290 291
f 258 291 259
f 259 291 292
f 259 292 260
f 260 292 293
f 260 293 261
f 261 293 294
f 261 294 262
f 262 294 295
f 262 295 263
f 263 295 296
f 263 296 264
f 264 296 297
f 264 297 265
f 265 297 298
f 265 298 266
f 266 298 299
f 266 299 267
f 267 299 300
f 267 300 268
f 268 300 301
f 268 301 269
f 269 301 302
f 269 302 270
f 270 302 303
f 270 303 271
f 271 303 304
f 271 304 272
f 272 304 305
f 272 305 273
f 273 305 306
f 273 306 274
f 274 306 307
f 274 307 275
f 275 307 308
f 275 308 276
f 276 308 309
f 276 309 277
f 277 309 310
f 277 310 278
f 278 310 311
f 278 311 279
f 279 311 312
f 279 312 280
f 280 312 313
f 280 313 281
f 281 313 314
f 281 314 282
f 282 314 315
f 282 315 283
f 283 315 316
f 283 316 284
f 284 316 317
f 284 317 285
f 285 317 318
f 285 318 286
f 286 318 319
f 286 319 287
f 287 319 320
f 287 320 288
f 288 320 321
f 288 321 289
f 289 321 290
f 289 290 258
f 290 322 323
f 290 323 291
f 291 323 324
f 291 324 292
f 292 324 325
f 292 325 293
f 293 325 326
f 293 326 294
f 294 326 327
f 294 327 295
f 295 327 328
f 295 328 296
f 296 328 329
f 296 329 297
f 297 329 330
f 297 330 298
f 298 330 331
f 298 331 299
f 299 331 332
f 299 332 300
f 300 332 333
f 300 333 301
f 301 333 334
f 301 334 302
f 302 334 335
f 302 335 303
f 303 335 336
f 303 336 304
f 304 336 337
f 304 337 305
f 305 337 338
f 305 338 306
f 306 338 339
f 306 339 307
f 307 339 340
f 307 340 308
f 308 340 341
f 308 341 309
f 309 341 342
f 309 342 310
f 310 342 343
f 310 343 311
f 311 343 344
f 311 344 312
f 312 344 345
f 312 345 313
f 313 345 346
f 313 346 314
f 314 346 347
f 314 347 315
f 315 347 348
f 315 348 316
f 316 348 349
f 316 349 317
f 317 349 350
f 317 350 318
f 318 350 351
f 318 351 319
f 319 351 352
f 319 352 320
f 320 352 353
f 320 353 321
f 321 353 322
f 321 322 290
f 322 354 355
f 322 355 323
f 323 355 356
f 323 356 324
f 324 356 357
f 324 357 325
f 325 357 358
f 325 358 326
f 326 358 359
f 326 359 327
f 327 359 360
f 327 360 328
f 328 360 361
f 328 361 329
f 329 361 362
f 329 362 330
f 330 362 363
f 330 363 331
f 331 363 364
f 331 364 332
f 332 364 365
f 332 365 333
f 333 365 366
f 333 366 334
f 334 366 367
f 334 367 335
f 335 367 368
f 335 368 336
f 336 368 369
f 336 369 337
f 337 369 370
f 337 370 338
f 338 370 371
f 338 371 339
f 339 371 372
f 339 372 340
f 340 372 373
f 340 373 341
f 341 373 374
f 341 374 342
f 342 374 375
f 342 375 343
f 343 375 376
f 343 376 344
f 344 376 377
f 344 377 345
f 345 377 378
f 345 378 346
f 346 378 379
f 346 379 347
f 347 379 380
f 347 380 348
f 348 380 381
f 348 381 349
f 349 381 382
f 349 382 350
f 350 382 383
f 350 383 351
f 351 383 384
f 351 384 352
f 352 384 385
f 352 385 353
f 353 385 354
f 353 354 322
f 354 386 387
f 354 387 355
f 355 387 388
f 355 388 356
f 356 388 389
f 356 389 357
f 357 389 390
f 357 390 358
f 358 390 391
f 358 391 359
f 359 391 392
f 359 392 360
f 360 392 393
f 360 393 361
f 361 393 394
f 361 394 362
f 362 394 395
f 362 395 363
f 363 395 396
f 363 396 364
f 364 396 397
f 364 397 365
f 365 397 398
f 365 398 366
f 366 398 399
f 366 399 367
f 367 399 400
f 367 400 368
f 368 400 401
f 368 401 369
f 369 401 402
f 369 402 370
f 370 402 403
f 370 403 371
f 371 403 404
f 371 404 372
f 372 404 405
f 372 405 373
f 373 405 406
f 373 406 374
f 374 406 407
f 374 407 375
f 375 407 408
f 375 408 376
f 376 408 409
f 376 409 377
f 377 409 410
f 377 410 378
f 378 410 411
f 378 411 379
f 379 411 412
f 379 412 380
f 380 412 413
f 380 413 381
f 381 413 414
f 381 414 382
f 382 414 415
f 382 415 383
f 383 415 416
f 383 416 384
f 384 416 417
f 384 417 385
f 385 417 386
f 385 386 354
f 386 418 419
f 386 419 387
f 387 419 420
f 387 420 388
f 388 420 421
f 388 421 389
f 389 421 422
f 389 422 390
f 390 422 423
f 390 423 391
f 391 423 424
f 391 424 392
f 392 424 425
f 392 425 393
f 393 425 426
f 393 426 394
f 394 426 427
f 394 427 395
f 395 427 428
f 395 428 396
f 396 428 429
f 396 429 397
f 397 429 430
f 397 430 398
f 398 430 431
f 398 431 399
f 399 431 432
f 399 432 400
f 400 432 433
f 400 433 401
f 401 433 434
f 401 434 402
f 402 434 435
f 402 435 403
f 403 435 436
f 403 436 404
f 404 436 437
f 404 437 405
f 405 437 438
f 405 438 406
f 406 438 439
f 406 439 407
f 407 439 440
f 407 440 408
f 408 440 441
f 408 441 409
f 409 441 442
f 409 442 410
f 410 442 443
f 410 443 411
f 411 443 444
f 411 444 412
f 412 444 445
f 412 445 413
f 413 445 446
f 413 446 414
f 414 446 447
f 414 447 415
f 415 447 448
f 415 448 416
f 416 448 449
f 416 449 417
f 417 449 418
f 417 418 386
f 418 450 451
f 418 451 419
f 419 451 452
f 419 452 420
f 420 452 453
f 420 453 421
f 421 453 454
f 421 454 422
f 422 454 455
f 422 455 423
f 423 455 456
f 423 456 424
f 424 456 457
f 424 457 425
f 425 457 458
f 425 458 426
f 426 458 459
f 426 459 427
f 427 459 460
f 427 460 428
f 428 460 461
f 428 461 429
f 429 461 462
f 429 462 430
f 430 462 463
f 430 463 431
f 431 463 464
f 431 464 432
f 432 464 465
f 432 465 433
f 433 465 466
f 433 466 434
f 434 466 467
f 434 467 435
f 435 467 468
f 435 468 436
f 436 468 469
f 436 469 437
f 437 469 470
f 437 470 438
f 438 470 471
f 438 471 439
f 439 471 472
f 439 472 440
f 440 472 473
f 440 473 441
f 441 473 474
f 441 474 442
f 442 474 475
f 442 475 443
f 443 475 476
f 443 476 444
f 444 476 477
f 444 477 445
f 445 477 478
f 445 478 446
f 446 478 479
f 446 479 447
f 447 479 480
f 447 480 448
f 448 480 481
f 448 481 449
f 449 481 450
f 449 450 418
f 482 451 450
f 482 452 451
f 482 453 452
f 482 454 453
f 482 455 454
f 482 456 455
f 482 457 456
f 482 458 457
f 482 459 458
f 482 460 459
f 482 461 460
f 482 462 461
f 482 463 462
f 482 464 463
f 482 465 464
f 482 466 465
f 482 467 466
f 482 468 467
f 482 469 468
f 482 470 469
f 482 471 470
f 482 472 471
f 482 473 472
f 482 474 473
f 482 475 474
f 482 476 475
f 482 477 476
f 482 478 477
f 482 479 478
f 482 480 479
f 482 481 480
f 482 450 481
