# Geometry extracted from Colibri.usd; meters.
v 0.01372775341 0.003599840259 0.0180057565
v 0.01427221089 0.003523928717 0.01779678662
v 0.01429898802 0.003501717122 0.01790611791
v 0.01430444564 0.003485381698 0.01801955102
v 0.01428837401 0.003475550212 0.01813272676
v 0.01425139086 0.003472600451 0.01824129584
v 0.01419491737 0.003476645793 0.01834108601
v 0.01412112381 0.003487530759 0.01842826245
v 0.01403284598 0.003504837075 0.01849947493
v 0.01393347636 0.003527899663 0.01855198679
v 0.01382683372 0.003555832211 0.01858378017
v 0.01371701621 0.00358756132 0.01859363311
v 0.01360824408 0.003621867653 0.01858116699
v 0.01350469741 0.003657432818 0.01854686097
v 0.01341035541 0.003692890077 0.01849203333
v 0.01332884355 0.003726876841 0.01841879113
v 0.01326329437 0.003758086998 0.01832994895
v 0.0132162269 0.003785321152 0.01822892097
v 0.01318944977 0.003807532748 0.01811958968
v 0.01318399215 0.003823868172 0.01800615657
v 0.01320006378 0.003833699658 0.01789298083
v 0.01323704692 0.003836649419 0.01778441175
v 0.01329352042 0.003832604077 0.01768462159
v 0.01336731397 0.003821719111 0.01759744514
v 0.01345559181 0.003804412795 0.01752623266
v 0.01355496143 0.003781350206 0.0174737208
v 0.01366160407 0.003753417659 0.01744192742
v 0.01377142158 0.003721688549 0.01743207448
v 0.01388019371 0.003687382217 0.0174445406
v 0.01398374038 0.003651817052 0.01747884662
v 0.01407808237 0.003616359793 0.01753367426
v 0.01415959423 0.003582373029 0.01760691646
v 0.01422514342 0.003551162872 0.01769575864
v 0.01482867626 0.00356050385 0.01761004192
v 0.01488120136 0.003516934272 0.01782450301
v 0.01489190686 0.003484891188 0.01804701004
v 0.0148603813 0.003465606015 0.01826901222
v 0.01478783624 0.003459819848 0.01848197815
v 0.01467705948 0.003467755075 0.01867772363
v 0.01453230819 0.003489106722 0.0188487263
v 0.014359145 0.003523054279 0.01898841461
v 0.01416422452 0.003568293142 0.01909142047
v 0.01395503739 0.00362308484 0.01915378527
v 0.01373962262 0.003685323722 0.01917311252
v 0.01352625844 0.003752617997 0.01914865942
v 0.01332314431 0.003822381587 0.01908136573
v 0.01313808581 0.003891933512 0.01897381744
v 0.01297819461 0.003958600929 0.01883014766
v 0.01284961528 0.004019821849 0.01865587746
v 0.01275728897 0.004073243601 0.018457704
v 0.01270476387 0.00411681318 0.0182432429
v 0.01269405837 0.004148856264 0.01802073587
v 0.01272558393 0.004168141437 0.01779873369
v 0.01279812899 0.004173927604 0.01758576777
v 0.01290890575 0.004165992377 0.01739002228
v 0.01305365704 0.00414464073 0.01721901961
v 0.01322682023 0.004110693173 0.01707933131
v 0.0134217407 0.00406545431 0.01697632545
v 0.01363092783 0.004010662612 0.01691396064
v 0.01384634261 0.00394842373 0.01689463339
v 0.01405970679 0.003881129455 0.0169190865
v 0.01426282092 0.003811365865 0.01698638019
v 0.01444787942 0.00374181394 0.01709392847
v 0.01460777062 0.003675146523 0.01723759826
v 0.01473634995 0.003613925603 0.01741186845
v 0.01537576461 0.003708160059 0.01745269896
v 0.0154520193 0.00364490682 0.01776404816
v 0.01546756126 0.003598387477 0.01808707831
v 0.01542179333 0.00357038972 0.0184093755
v 0.0153164742 0.003561989515 0.01871855413
v 0.01515565128 0.003573509673 0.01900273256
v 0.01494550492 0.003604507484 0.01925098989
v 0.01469411095 0.003653791692 0.01945378588
v 0.01441113026 0.003719468356 0.01960332713
v 0.01410743766 0.003799013552 0.01969386687
v 0.01379470388 0.003889370406 0.01972192567
v 0.01348494711 0.003987066538 0.01968642535
v 0.01319007108 0.00408834758 0.01958873002
v 0.01292140774 0.004189321334 0.01943259412
v 0.01268928178 0.004286107409 0.01922401787
v 0.0125026135 0.004374986411 0.01897101678
v 0.01236857655 0.004452542753 0.01868331348
v 0.01229232187 0.004515795992 0.01837196427
v 0.0122767799 0.004562315335 0.01804893412
v 0.01232254783 0.004590313092 0.01772663693
v 0.01242786696 0.004598713296 0.0174174583
v 0.01258868989 0.004587193139 0.01713327988
v 0.01279883625 0.004556195328 0.01688502255
v 0.01305023021 0.004506911119 0.01668222655
v 0.0133332109 0.004441234455 0.0165326853
v 0.0136369035 0.004361689259 0.01644214557
v 0.01394963729 0.004271332406 0.01641408676
v 0.01425939405 0.004173636274 0.01644958708
v 0.01455427009 0.004072355231 0.01654728241
v 0.01482293342 0.003971381478 0.01670341831
v 0.01505505938 0.003874595403 0.01691199456
v 0.01524172766 0.003785716401 0.01716499566
v 0.01589245196 0.003961223169 0.01733080427
v 0.01598950569 0.003880717085 0.01772707667
v 0.01600928694 0.00382150917 0.01813821605
v 0.01595103538 0.00378587479 0.0185484226
v 0.01581698953 0.003775183369 0.01894193231
v 0.01561230082 0.003789845736 0.01930362284
v 0.01534483524 0.003829298461 0.01961959453
v 0.01502487136 0.003892025383 0.01987770481
v 0.01466470529 0.003975615903 0.02006803479
v 0.0142781779 0.00407685775 0.02018326994
v 0.0138801433 0.004191860199 0.02021898211
v 0.0134858977 0.004316203801 0.02017379874
v 0.01311059172 0.00444511011 0.02004945615
v 0.01276864816 0.004573625315 0.01985073288
v 0.01247320781 0.004696810634 0.01958526567
v 0.01223562423 0.004809932134 0.0192632563
v 0.01206502747 0.004908642651 0.01889707949
v 0.01196797374 0.004989148735 0.01850080709
v 0.01194819249 0.005048356651 0.01808966771
v 0.01200644405 0.005083991031 0.01767946116
v 0.0121404899 0.005094682451 0.01728595145
v 0.01234517861 0.005080020084 0.01692426092
v 0.0126126442 0.005040567359 0.01660828923
v 0.01293260807 0.004977840438 0.01635017895
v 0.01329277414 0.004894249918 0.01615984897
v 0.01367930153 0.004793008071 0.01604461382
v 0.01407733613 0.004678005621 0.01600890165
v 0.01447158174 0.00455366202 0.01605408502
v 0.01484688771 0.004424755711 0.01617842761
v 0.01518883127 0.004296240506 0.01637715088
v 0.01548427162 0.004173055187 0.01664261809
v 0.01572185521 0.004059933686 0.01696462746
v 0.0163588822 0.004309967872 0.01724904218
v 0.0164730053 0.004215302736 0.01771500922
v 0.0164962654 0.00414568164 0.01819845807
v 0.01642776885 0.004103780029 0.01868080996
v 0.01627014771 0.00409120822 0.01914352841
v 0.01602945919 0.004108449368 0.01956883138
v 0.0157149529 0.004154840877 0.01994037477
v 0.01533871526 0.004228599888 0.02024388054
v 0.01491520478 0.004326891937 0.02046768493
v 0.01446069666 0.004445939753 0.02060318712
v 0.01399265741 0.004581168373 0.02064517999
v 0.01352907361 0.004727380981 0.02059205
v 0.01308776049 0.004878958746 0.02044583869
v 0.01268567749 0.00503007662 0.02021216479
v 0.01233827641 0.005174927231 0.01990000834
v 0.01205890747 0.00530794409 0.01952136546
v 0.01185830691 0.005424015378 0.01909078709
v 0.01174418381 0.005518680514 0.01862482005
v 0.01172092371 0.00558830161 0.01814137121
v 0.01178942026 0.005630203221 0.01765901932
v 0.0119470414 0.005642775029 0.01719630087
v 0.01218772992 0.005625533882 0.01677099789
v 0.01250223621 0.005579142373 0.01639945451
v 0.01287847386 0.005505383362 0.01609594873
v 0.01330198433 0.005407091313 0.01587214435
v 0.01375649245 0.005288043496 0.01573664216
v 0.0142245317 0.005152814876 0.01569464929
v 0.0146881155 0.005006602269 0.01574777928
v 0.01512942862 0.004855024504 0.01589399059
v 0.01553151162 0.00470390663 0.01612766449
v 0.01587891271 0.004559056019 0.01643982094
v 0.01615828164 0.004426039159 0.01681846382
v 0.01675713042 0.004740992123 0.01721055486
v 0.01688393736 0.004635805818 0.01772830969
v 0.01690978265 0.004558446992 0.01826548921
v 0.01683367315 0.00451188848 0.01880144991
v 0.01665853395 0.004497919425 0.01931559511
v 0.01639109518 0.004517076771 0.01978816644
v 0.01604163465 0.004568624191 0.02020100348
v 0.01562358179 0.004650580822 0.02053824095
v 0.01515300206 0.004759797136 0.02078691895
v 0.0146479797 0.004892075964 0.02093748106
v 0.01412792241 0.005042333933 0.02098414109
v 0.0136128157 0.005204796703 0.020925106
v 0.01312245482 0.005373220888 0.02076264473
v 0.01267568415 0.005541134071 0.02050300018
v 0.01228967259 0.005702083474 0.02015615066
v 0.01197925454 0.005849883865 0.01973542524
v 0.01175635925 0.00597885535 0.0192569921
v 0.01162955231 0.006084041656 0.01873923727
v 0.01160370702 0.006161400481 0.01820205775
v 0.01167981652 0.006207958993 0.01766609705
v 0.01185495572 0.006221928049 0.01715195185
v 0.01212239449 0.006202770703 0.01667938052
v 0.01247185502 0.006151223282 0.01626654348
v 0.01288990788 0.006069266652 0.01592930601
v 0.01336048761 0.005960050338 0.01568062801
v 0.01386550997 0.005827771509 0.0155300659
v 0.01438556726 0.005677513541 0.01548340587
v 0.01490067397 0.005515050771 0.01554244096
v 0.01539103485 0.005346626585 0.01570490223
v 0.01583780552 0.005178713402 0.01596454678
v 0.01622381708 0.005017764 0.0163113963
v 0.01653423513 0.004869963608 0.01673212172
v 0.01707189248 0.005237732112 0.01721682129
v 0.01720650996 0.005126066938 0.01776646691
v 0.0172339473 0.005043943216 0.01833673359
v 0.01715314994 0.004994516946 0.01890570643
v 0.01696722295 0.004979687539 0.01945152006
v 0.0166833116 0.005000024807 0.01995319927
v 0.01631232625 0.005054747274 0.02039146468
v 0.01586852365 0.005141751998 0.02074947395
v 0.0153689589 0.005257695407 0.02101346915
v 0.01483283 0.005398121873 0.02117330499
v 0.01428074017 0.005557634852 0.02122283914
v 0.01373390581 0.005730104398 0.02116016788
v 0.01321334149 0.005908902587 0.0209876997
v 0.01273905211 0.006087158301 0.02071206266
v 0.01232926448 0.006258021264 0.02034384914
v 0.01199972656 0.006414925292 0.01989720936
v 0.01176310213 0.006551840702 0.01938930747
v 0.01162848465 0.006663505876 0.01883966185
v 0.01160104731 0.006745629597 0.01826939517
v 0.01168184467 0.006795055868 0.01770042234
v 0.01186777166 0.006809885275 0.0171546087
v 0.01215168301 0.006789548007 0.0166529295
v 0.01252266836 0.00673482554 0.01621466408
v 0.01296647096 0.006647820816 0.01585665482
v 0.01346603571 0.006531877407 0.01559265961
v 0.0140021646 0.00639145094 0.01543282378
v 0.01455425443 0.006231937962 0.01538328963
v 0.0151010888 0.006059468416 0.01544596088
v 0.01562165312 0.005880670226 0.01561842907
v 0.0160959425 0.005702414513 0.01589406611
v 0.01650573013 0.00553155155 0.01626227963
v 0.01683526805 0.005374647522 0.0167089194
v 0.01729107207 0.005781098173 0.01726760067
v 0.0174283269 0.005667245347 0.01782801441
v 0.01745630176 0.005583512716 0.01840945339
v 0.01737392159 0.005533118111 0.01898957296
v 0.01718435208 0.005517998165 0.0195460798
v 0.01689487851 0.005538733878 0.02005758753
v 0.01651662514 0.005594528437 0.02050443893
v 0.01606412785 0.005683237696 0.0208694621
v 0.01555477608 0.005801452572 0.0211386292
v 0.01500814386 0.005944630131 0.02130159644
v 0.01444523784 0.006107268188 0.02135210101
v 0.01388769045 0.006283116573 0.02128820205
v 0.01335692759 0.006465417647 0.02111235503
v 0.0128733463 0.006647165617 0.02083131787
v 0.01245553059 0.006821375943 0.02045589063
v 0.01211953656 0.006981353937 0.02000050059
v 0.01187827645 0.007120951654 0.01948264834
v 0.01174102162 0.00723480448 0.01892223459
v 0.01171304677 0.007318537111 0.01834079561
v 0.01179542694 0.007368931716 0.01776067604
v 0.01198499644 0.007384051662 0.0172041692
v 0.01227447001 0.007363315949 0.01669266148
v 0.01265272338 0.00730752139 0.01624581007
v 0.01310522067 0.007218812131 0.0158807869
v 0.01361457244 0.007100597255 0.0156116198
v 0.01416120466 0.006957419696 0.01544865256
v 0.01472411068 0.006794781639 0.01539814799
v 0.01528165807 0.006618933254 0.01546204695
v 0.01581242093 0.00643663218 0.01563789398
v 0.01629600222 0.00625488421 0.01591893113
v 0.01671381794 0.006080673884 0.01629435837
v 0.01704981197 0.00592069589 0.01674974842
v 0.01740624639 0.006350209125 0.01736094153
v 0.01754086387 0.006238543951 0.01791058715
v 0.01756830121 0.00615642023 0.01848085383
v 0.01748750386 0.006106993959 0.01904982667
v 0.01730157686 0.006092164552 0.0195956403
v 0.01701766551 0.00611250182 0.02009731951
v 0.01664668017 0.006167224287 0.02053558492
v 0.01620287757 0.006254229011 0.02089359419
v 0.01570331281 0.00637017242 0.02115758939
v 0.01516718392 0.006510598886 0.02131742523
v 0.01461509409 0.006670111865 0.02136695938
v 0.01406825972 0.006842581411 0.02130428812
v 0.0135476954 0.007021379601 0.02113181994
v 0.01307340603 0.007199635314 0.0208561829
v 0.01266361839 0.007370498277 0.02048796938
v 0.01233408047 0.007527402305 0.0200413296
v 0.01209745604 0.007664317715 0.01953342771
v 0.01196283856 0.007775982889 0.01898378209
v 0.01193540123 0.007858106611 0.01841351541
v 0.01201619858 0.007907532881 0.01784454258
v 0.01220212557 0.007922362288 0.01729872894
v 0.01248603692 0.00790202502 0.01679704974
v 0.01285702227 0.007847302553 0.01635878432
v 0.01330082487 0.007760297829 0.01600077506
v 0.01380038962 0.00764435442 0.01573677985
v 0.01433651852 0.007503927954 0.01557694402
v 0.01488860835 0.007344414975 0.01552740987
v 0.01543544271 0.007171945429 0.01559008112
v 0.01595600704 0.006993147239 0.01576254931
v 0.01643029641 0.006814891526 0.01603818635
v 0.01684008404 0.006644028563 0.01640639987
v 0.01716962196 0.006487124535 0.01685303964
v 0.01741298927 0.006923194477 0.01749325691
v 0.01753979621 0.006818008171 0.01801101174
v 0.0175656415 0.006740649346 0.01854819126
v 0.017489532 0.006694090834 0.01908415195
v 0.0173143928 0.006680121778 0.01959829715
v 0.01704695403 0.006699279124 0.02007086848
v 0.01669749351 0.006750826545 0.02048370553
v 0.01627944064 0.006832783175 0.020820943
v 0.01580886092 0.006941999489 0.021069621
v 0.01530383855 0.007074278318 0.02122018311
v 0.01478378126 0.007224536286 0.02126684314
v 0.01426867455 0.007386999056 0.02120780804
v 0.01377831367 0.007555423242 0.02104534677
v 0.013331543 0.007723336425 0.02078570222
v 0.01294553145 0.007884285827 0.02043885271
v 0.0126351134 0.008032086219 0.02001812728
v 0.0124122181 0.008161057704 0.01953969414
v 0.01228541116 0.008266244009 0.01902193931
v 0.01225956587 0.008343602835 0.01848475979
v 0.01233567537 0.008390161347 0.01794879909
v 0.01251081457 0.008404130402 0.01743465389
v 0.01277825334 0.008384973056 0.01696208257
v 0.01312771387 0.008333425635 0.01654924552
v 0.01354576673 0.008251469005 0.01621200805
v 0.01401634646 0.008142252691 0.01596333005
v 0.01452136882 0.008009973863 0.01581276794
v 0.01504142611 0.007859715894 0.01576610791
v 0.01555653283 0.007697253124 0.015825143
v 0.0160468937 0.007528828938 0.01598760428
v 0.01649366437 0.007360915756 0.01624724883
v 0.01687967593 0.007199966353 0.01659409834
v 0.01719009398 0.007052165962 0.01701482377
v 0.01731104161 0.007478034449 0.01765946191
v 0.01742516471 0.007383369313 0.01812542895
v 0.01744842481 0.007313748217 0.0186088778
v 0.01737992826 0.007271846606 0.01909122969
v 0.01722230712 0.007259274798 0.01955394814
v 0.0169816186 0.007276515945 0.01997925111
v 0.01666711231 0.007322907454 0.02035079449
v 0.01629087467 0.007396666465 0.02065430027
v 0.01586736419 0.007494958514 0.02087810465
v 0.01541285607 0.007614006331 0.02101360685
v 0.01494481682 0.007749234951 0.02105559971
v 0.01448123302 0.007895447558 0.02100246973
v 0.0140399199 0.008047025323 0.02085625842
v 0.0136378369 0.008198143197 0.02062258452
v 0.01329043582 0.008342993808 0.02031042807
v 0.01301106688 0.008476010668 0.01993178518
v 0.01281046632 0.008592081955 0.01950120682
v 0.01269634322 0.008686747091 0.01903523978
v 0.01267308312 0.008756368187 0.01855179093
v 0.01274157967 0.008798269798 0.01806943905
v 0.01289920081 0.008810841607 0.0176067206
v 0.01313988933 0.008793600459 0.01718141762
v 0.01345439562 0.00874720895 0.01680987424
v 0.01383063327 0.008673449939 0.01650636846
v 0.01425414375 0.00857515789 0.01628256408
v 0.01470865186 0.008456110074 0.01614706189
v 0.01517669111 0.008320881453 0.01610506902
v 0.01564027491 0.008174668846 0.016158199
v 0.01608158803 0.008023091081 0.01630441032
v 0.01648367103 0.007871973207 0.01653808421
v 0.01683107212 0.007727122596 0.01685024067
v 0.01711044105 0.007594105736 0.01722888355
v 0.01710432105 0.007993407176 0.01785316951
v 0.01720137478 0.007912901092 0.01824944191
v 0.01722115603 0.007853693176 0.0186605813
v 0.01716290447 0.007818058796 0.01907078784
v 0.01702885862 0.007807367376 0.01946429756
v 0.01682416991 0.007822029742 0.01982598808
v 0.01655670432 0.007861482468 0.02014195977
v 0.01623674045 0.007924209389 0.02040007006
v 0.01587657438 0.008007799909 0.02059040004
v 0.01549004699 0.008109041756 0.02070563519
v 0.01509201239 0.008224044206 0.02074134735
v 0.01469776678 0.008348387807 0.02069616398
v 0.01432246081 0.008477294116 0.02057182139
v 0.01398051725 0.008605809321 0.02037309812
v 0.0136850769 0.00872899464 0.02010763091
v 0.01344749331 0.008842116141 0.01978562155
v 0.01327689656 0.008940826658 0.01941944474
v 0.01317984283 0.009021332742 0.01902317233
v 0.01316006158 0.009080540657 0.01861203295
v 0.01321831314 0.009116175037 0.0182018264
v 0.01335235899 0.009126866458 0.01780831669
v 0.0135570477 0.009112204091 0.01744662616
v 0.01382451328 0.009072751366 0.01713065447
v 0.01414447716 0.009010024444 0.01687254419
v 0.01450464323 0.008926433924 0.01668221421
v 0.01489117062 0.008825192077 0.01656697906
v 0.01528920522 0.008710189628 0.0165312669
v 0.01568345082 0.008585846026 0.01657645027
v 0.0160587568 0.008456939717 0.01670079286
v 0.01640070036 0.008328424512 0.01689951612
v 0.01669614071 0.008205239193 0.01716498333
v 0.0169337243 0.008092117693 0.0174869927
v 0.01680077197 0.008449507074 0.01806693553
v 0.01687702665 0.008386253835 0.01837828474
v 0.01689256862 0.008339734492 0.01870131488
v 0.01684680069 0.008311736735 0.01902361207
v 0.01674148156 0.008303336531 0.0193327907
v 0.01658065864 0.008314856688 0.01961696913
v 0.01637051228 0.008345854499 0.01986522646
v 0.01611911831 0.008395138708 0.02006802246
v 0.01583613762 0.008460815372 0.02021756371
v 0.01553244502 0.008540360568 0.02030810344
v 0.01521971124 0.008630717421 0.02033616224
v 0.01490995447 0.008728413553 0.02030066192
v 0.01461507843 0.008829694595 0.0202029666
v 0.0143464151 0.008930668349 0.02004683069
v 0.01411428914 0.009027454424 0.01983825444
v 0.01392762086 0.009116333426 0.01958525335
v 0.01379358391 0.009193889768 0.01929755005
v 0.01371732923 0.009257143007 0.01898620084
v 0.01370178726 0.00930366235 0.0186631707
v 0.01374755519 0.009331660107 0.0183408735
v 0.01385287432 0.009340060312 0.01803169488
v 0.01401369724 0.009328540154 0.01774751645
v 0.0142238436 0.009297542343 0.01749925912
v 0.01447523757 0.009248258134 0.01729646312
v 0.01475821826 0.009182581471 0.01714692187
v 0.01506191086 0.009103036275 0.01705638214
v 0.01537464464 0.009012679421 0.01702832333
v 0.01568440141 0.008914983289 0.01706382366
v 0.01597927745 0.008813702247 0.01716151898
v 0.01624794078 0.008712728493 0.01731765488
v 0.01648006674 0.008615942418 0.01752623113
v 0.01666673502 0.008527063416 0.01777923223
v 0.01641205956 0.008828806225 0.01829254501
v 0.01646458465 0.008785236647 0.0185070061
v 0.01647529015 0.008753193563 0.01872951313
v 0.01644376459 0.00873390839 0.01895151531
v 0.01637121953 0.008728122223 0.01916448124
v 0.01626044278 0.00873605745 0.01936022672
v 0.01611569148 0.008757409097 0.01953122939
v 0.01594252829 0.008791356654 0.0196709177
v 0.01574760782 0.008836595517 0.01977392356
v 0.01553842069 0.008891387215 0.01983628836
v 0.01532300591 0.008953626097 0.01985561561
v 0.01510964174 0.009020920372 0.01983116251
v 0.0149065276 0.009090683962 0.01976386882
v 0.0147214691 0.009160235887 0.01965632053
v 0.01456157791 0.009226903304 0.01951265075
v 0.01443299857 0.009288124224 0.01933838056
v 0.01434067226 0.009341545977 0.01914020709
v 0.01428814717 0.009385115555 0.01892574599
v 0.01427744166 0.009417158639 0.01870323896
v 0.01430896722 0.009436443812 0.01848123678
v 0.01438151228 0.009442229979 0.01826827086
v 0.01449228904 0.009434294752 0.01807252537
v 0.01463704034 0.009412943105 0.0179015227
v 0.01481020352 0.009378995548 0.0177618344
v 0.015005124 0.009333756685 0.01765882854
v 0.01521431113 0.009278964987 0.01759646373
v 0.0154297259 0.009216726105 0.01757713648
v 0.01564309008 0.00914943183 0.01760158959
v 0.01584620422 0.00907966824 0.01766888328
v 0.01603126271 0.009010116315 0.01777643156
v 0.01619115391 0.008943448898 0.01792010135
v 0.01631973324 0.008882227978 0.01809437154
v 0.01595312162 0.009116728675 0.01852132804
v 0.01597989875 0.009094517079 0.01863065932
v 0.01598535637 0.009078181655 0.01874409243
v 0.01596928474 0.009068350169 0.01885726818
v 0.0159323016 0.009065400408 0.01896583725
v 0.0158758281 0.00906944575 0.01906562742
v 0.01580203455 0.009080330716 0.01915280386
v 0.01571375672 0.009097637032 0.01922401635
v 0.0156143871 0.009120699621 0.01927652821
v 0.01550774445 0.009148632168 0.01930832158
v 0.01539792694 0.009180361278 0.01931817453
v 0.01528915482 0.00921466761 0.0193057084
v 0.01518560814 0.009250232775 0.01927140238
v 0.01509126615 0.009285690034 0.01921657475
v 0.01500975429 0.009319676798 0.01914333255
v 0.01494420511 0.009350886955 0.01905449036
v 0.01489713763 0.00937812111 0.01895346238
v 0.0148703605 0.009400332705 0.0188441311
v 0.01486490288 0.009416668129 0.01873069798
v 0.01488097451 0.009426499615 0.01861752224
v 0.01491795766 0.009429449376 0.01850895317
v 0.01497443115 0.009425404034 0.018409163
v 0.01504822471 0.009414519068 0.01832198656
v 0.01513650254 0.009397212752 0.01825077407
v 0.01523587216 0.009374150164 0.01819826221
v 0.01534251481 0.009346217616 0.01816646884
v 0.01545233231 0.009314488507 0.01815661589
v 0.01556110444 0.009280182174 0.01816908202
v 0.01566465111 0.009244617009 0.01820338804
v 0.01575899311 0.00920915975 0.01825821567
v 0.01584050497 0.009175172986 0.01833145787
v 0.01590605415 0.009143962829 0.01842030005
v 0.01544159511 0.009302209568 0.01874449251
f 1 2 3
f 1 3 4
f 1 4 5
f 1 5 6
f 1 6 7
f 1 7 8
f 1 8 9
f 1 9 10
f 1 10 11
f 1 11 12
f 1 12 13
f 1 13 14
f 1 14 15
f 1 15 16
f 1 16 17
f 1 17 18
f 1 18 19
f 1 19 20
f 1 20 21
f 1 21 22
f 1 22 23
f 1 23 24
f 1 24 25
f 1 25 26
f 1 26 27
f 1 27 28
f 1 28 29
f 1 29 30
f 1 30 31
f 1 31 32
f 1 32 33
f 1 33 2
f 2 34 35
f 2 35 3
f 3 35 36
f 3 36 4
f 4 36 37
f 4 37 5
f 5 37 38
f 5 38 6
f 6 38 39
f 6 39 7
f 7 39 40
f 7 40 8
f 8 40 41
f 8 41 9
f 9 41 42
f 9 42 10
f 10 42 43
f 10 43 11
f 11 43 44
f 11 44 12
f 12 44 45
f 12 45 13
f 13 45 46
f 13 46 14
f 14 46 47
f 14 47 15
f 15 47 48
f 15 48 16
f 16 48 49
f 16 49 17
f 17 49 50
f 17 50 18
f 18 50 51
f 18 51 19
f 19 51 52
f 19 52 20
f 20 52 53
f 20 53 21
f 21 53 54
f 21 54 22
f 22 54 55
f 22 55 23
f 23 55 56
f 23 56 24
f 24 56 57
f 24 57 25
f 25 57 58
f 25 58 26
f 26 58 59
f 26 59 27
f 27 59 60
f 27 60 28
f 28 60 61
f 28 61 29
f 29 61 62
f 29 62 30
f 30 62 63
f 30 63 31
f 31 63 64
f 31 64 32
f 32 64 65
f 32 65 33
f 33 65 34
f 33 34 2
f 34 66 67
f 34 67 35
f 35 67 68
f 35 68 36
f 36 68 69
f 36 69 37
f 37 69 70
f 37 70 38
f 38 70 71
f 38 71 39
f 39 71 72
f 39 72 40
f 40 72 73
f 40 73 41
f 41 73 74
f 41 74 42
f 42 74 75
f 42 75 43
f 43 75 76
f 43 76 44
f 44 76 77
f 44 77 45
f 45 77 78
f 45 78 46
f 46 78 79
f 46 79 47
f 47 79 80
f 47 80 48
f 48 80 81
f 48 81 49
f 49 81 82
f 49 82 50
f 50 82 83
f 50 83 51
f 51 83 84
f 51 84 52
f 52 84 85
f 52 85 53
f 53 85 86
f 53 86 54
f 54 86 87
f 54 87 55
f 55 87 88
f 55 88 56
f 56 88 89
f 56 89 57
f 57 89 90
f 57 90 58
f 58 90 91
f 58 91 59
f 59 91 92
f 59 92 60
f 60 92 93
f 60 93 61
f 61 93 94
f 61 94 62
f 62 94 95
f 62 95 63
f 63 95 96
f 63 96 64
f 64 96 97
f 64 97 65
f 65 97 66
f 65 66 34
f 66 98 99
f 66 99 67
f 67 99 100
f 67 100 68
f 68 100 101
f 68 101 69
f 69 101 102
f 69 102 70
f 70 102 103
f 70 103 71
f 71 103 104
f 71 104 72
f 72 104 105
f 72 105 73
f 73 105 106
f 73 106 74
f 74 106 107
f 74 107 75
f 75 107 108
f 75 108 76
f 76 108 109
f 76 109 77
f 77 109 110
f 77 110 78
f 78 110 111
f 78 111 79
f 79 111 112
f 79 112 80
f 80 112 113
f 80 113 81
f 81 113 114
f 81 114 82
f 82 114 115
f 82 115 83
f 83 115 116
f 83 116 84
f 84 116 117
f 84 117 85
f 85 117 118
f 85 118 86
f 86 118 119
f 86 119 87
f 87 119 120
f 87 120 88
f 88 120 121
f 88 121 89
f 89 121 122
f 89 122 90
f 90 122 123
f 90 123 91
f 91 123 124
f 91 124 92
f 92 124 125
f 92 125 93
f 93 125 126
f 93 126 94
f 94 126 127
f 94 127 95
f 95 127 128
f 95 128 96
f 96 128 129
f 96 129 97
f 97 129 98
f 97 98 66
f 98 130 131
f 98 131 99
f 99 131 132
f 99 132 100
f 100 132 133
f 100 133 101
f 101 133 134
f 101 134 102
f 102 134 135
f 102 135 103
f 103 135 136
f 103 136 104
f 104 136 137
f 104 137 105
f 105 137 138
f 105 138 106
f 106 138 139
f 106 139 107
f 107 139 140
f 107 140 108
f 108 140 141
f 108 141 109
f 109 141 142
f 109 142 110
f 110 142 143
f 110 143 111
f 111 143 144
f 111 144 112
f 112 144 145
f 112 145 113
f 113 145 146
f 113 146 114
f 114 146 147
f 114 147 115
f 115 147 148
f 115 148 116
f 116 148 149
f 116 149 117
f 117 149 150
f 117 150 118
f 118 150 151
f 118 151 119
f 119 151 152
f 119 152 120
f 120 152 153
f 120 153 121
f 121 153 154
f 121 154 122
f 122 154 155
f 122 155 123
f 123 155 156
f 123 156 124
f 124 156 157
f 124 157 125
f 125 157 158
f 125 158 126
f 126 158 159
f 126 159 127
f 127 159 160
f 127 160 128
f 128 160 161
f 128 161 129
f 129 161 130
f 129 130 98
f 130 162 163
f 130 163 131
f 131 163 164
f 131 164 132
f 132 164 165
f 132 165 133
f 133 165 166
f 133 166 134
f 134 166 167
f 134 167 135
f 135 167 168
f 135 168 136
f 136 168 169
f 136 169 137
f 137 169 170
f 137 170 138
f 138 170 171
f 138 171 139
f 139 171 172
f 139 172 140
f 140 172 173
f 140 173 141
f 141 173 174
f 141 174 142
f 142 174 175
f 142 175 143
f 143 175 176
f 143 176 144
f 144 176 177
f 144 177 145
f 145 177 178
f 145 178 146
f 146 178 179
f 146 179 147
f 147 179 180
f 147 180 148
f 148 180 181
f 148 181 149
f 149 181 182
f 149 182 150
f 150 182 183
f 150 183 151
f 151 183 184
f 151 184 152
f 152 184 185
f 152 185 153
f 153 185 186
f 153 186 154
f 154 186 187
f 154 187 155
f 155 187 188
f 155 188 156
f 156 188 189
f 156 189 157
f 157 189 190
f 157 190 158
f 158 190 191
f 158 191 159
f 159 191 192
f 159 192 160
f 160 192 193
f 160 193 161
f 161 193 162
f 161 162 130
f 162 194 195
f 162 195 163
f 163 195 196
f 163 196 164
f 164 196 197
f 164 197 165
f 165 197 198
f 165 198 166
f 166 198 199
f 166 199 167
f 167 199 200
f 167 200 168
f 168 200 201
f 168 201 169
f 169 201 202
f 169 202 170
f 170 202 203
f 170 203 171
f 171 203 204
f 171 204 172
f 172 204 205
f 172 205 173
f 173 205 206
f 173 206 174
f 174 206 207
f 174 207 175
f 175 207 208
f 175 208 176
f 176 208 209
f 176 209 177
f 177 209 210
f 177 210 178
f 178 210 211
f 178 211 179
f 179 211 212
f 179 212 180
f 180 212 213
f 180 213 181
f 181 213 214
f 181 214 182
f 182 214 215
f 182 215 183
f 183 215 216
f 183 216 184
f 184 216 217
f 184 217 185
f 185 217 218
f 185 218 186
f 186 218 219
f 186 219 187
f 187 219 220
f 187 220 188
f 188 220 221
f 188 221 189
f 189 221 222
f 189 222 190
f 190 222 223
f 190 223 191
f 191 223 224
f 191 224 192
f 192 224 225
f 192 225 193
f 193 225 194
f 193 194 162
f 194 226 227
f 194 227 195
f 195 227 228
f 195 228 196
f 196 228 229
f 196 229 197
f 197 229 230
f 197 230 198
f 198 230 231
f 198 231 199
f 199 231 232
f 199 232 200
f 200 232 233
f 200 233 201
f 201 233 234
f 201 234 202
f 202 234 235
f 202 235 203
f 203 235 236
f 203 236 204
f 204 236 237
f 204 237 205
f 205 237 238
f 205 238 206
f 206 238 239
f 206 239 207
f 207 239 240
f 207 240 208
f 208 240 241
f 208 241 209
f 209 241 242
f 209 242 210
f 210 242 243
f 210 243 211
f 211 243 244
f 211 244 212
f 212 244 245
f 212 245 213
f 213 245 246
f 213 246 214
f 214 246 247
f 214 247 215
f 215 247 248
f 215 248 216
f 216 248 249
f 216 249 217
f 217 249 250
f 217 250 218
f 218 250 251
f 218 251 219
f 219 251 252
f 219 252 220
f 220 252 253
f 220 253 221
f 221 253 254
f 221 254 222
f 222 254 255
f 222 255 223
f 223 255 256
f 223 256 224
f 224 256 257
f 224 257 225
f 225 257 226
f 225 226 194
f 226 258 259
f 226 259 227
f 227 259 260
f 227 260 228
f 228 260 261
f 228 261 229
f 229 261 262
f 229 262 230
f 230 262 263
f 230 263 231
f 231 263 264
f 231 264 232
f 232 264 265
f 232 265 233
f 233 265 266
f 233 266 234
f 234 266 267
f 234 267 235
f 235 267 268
f 235 268 236
f 236 268 269
f 236 269 237
f 237 269 270
f 237 270 238
f 238 270 271
f 238 271 239
f 239 271 272
f 239 272 240
f 240 272 273
f 240 273 241
f 241 273 274
f 241 274 242
f 242 274 275
f 242 275 243
f 243 275 276
f 243 276 244
f 244 276 277
f 244 277 245
f 245 277 278
f 245 278 246
f 246 278 279
f 246 279 247
f 247 279 280
f 247 280 248
f 248 280 281
f 248 281 249
f 249 281 282
f 249 282 250
f 250 282 283
f 250 283 251
f 251 283 284
f 251 284 252
f 252 284 285
f 252 285 253
f 253 285 286
f 253 286 254
f 254 286 287
f 254 287 255
f 255 287 288
f 255 288 256
f 256 288 289
f 256 289 257
f 257 289 258
f 257 258 226
f 258 290 291
f 258 291 259
f 259 291 292
f 259 292 260
f 260 292 293
f 260 293 261
f 261 293 294
f 261 294 262
f 262 294 295
f 262 295 263
f 263 295 296
f 263 296 264
f 264 296 297
f 264 297 265
f 265 297 298
f 265 298 266
f 266 298 299
f 266 299 267
f 267 299 300
f 267 300 268
f 268 300 301
f 268 301 269
f 269 301 302
f 269 302 270
f 270 302 303
f 270 303 271
f 271 303 304
f 271 304 272
f 272 304 305
f 272 305 273
f 273 305 306
f 273 306 274
f 274 306 307
f 274 307 275
f 275 307 308
f 275 308 276
f 276 308 309
f 276 309 277
f 277 309 310
f 277 310 278
f 278 310 311
f 278 311 279
f 279 311 312
f 279 312 280
f 280 312 313
f 280 313 281
f 281 313 314
f 281 314 282
f 282 314 315
f 282 315 283
f 283 315 316
f 283 316 284
f 284 316 317
f 284 317 285
f 285 317 318
f 285 318 286
f 286 318 319
f 286 319 287
f 287 319 320
f 287 320 288
f 288 320 321
f 288 321 289
f 289 321 290
f 289 290 258
f 290 322 323
f 290 323 291
f 291 323 324
f 291 324 292
f 292 324 325
f 292 325 293
f 293 325 326
f 293 326 294
f 294 326 327
f 294 327 295
f 295 327 328
f 295 328 296
f 296 328 329
f 296 329 297
f 297 329 330
f 297 330 298
f 298 330 331
f 298 331 299
f 299 331 332
f 299 332 300
f 300 332 333
f 300 333 301
f 301 333 334
f 301 334 302
f 302 334 335
f 302 335 303
f 303 335 336
f 303 336 304
f 304 336 337
f 304 337 305
f 305 337 338
f 305 338 306
f 306 338 339
f 306 339 307
f 307 339 340
f 307 340 308
f 308 340 341
f 308 341 309
f 309 341 342
f 309 342 310
f 310 342 343
f 310 343 311
f 311 343 344
f 311 344 312
f 312 344 345
f 312 345 313
f 313 345 346
f 313 346 314
f 314 346 347
f 314 347 315
f 315 347 348
f 315 348 316
f 316 348 349
f 316 349 317
f 317 349 350
f 317 350 318
f 318 350 351
f 318 351 319
f 319 351 352
f 319 352 320
f 320 352 353
f 320 353 321
f 321 353 322
f 321 322 290
f 322 354 355
f 322 355 323
f 323 355 356
f 323 356 324
f 324 356 357
f 324 357 325
f 325 357 358
f 325 358 326
f 326 358 359
f 326 359 327
f 327 359 360
f 327 360 328
f 328 360 361
f 328 361 329
f 329 361 362
f 329 362 330
f 330 362 363
f 330 363 331
f 331 363 364
f 331 364 332
f 332 364 365
f 332 365 333
f 333 365 366
f 333 366 334
f 334 366 367
f 334 367 335
f 335 367 368
f 335 368 336
f 336 368 369
f 336 369 337
f 337 369 370
f 337 370 338
f 338 370 371
f 338 371 339
f 339 371 372
f 339 372 340
f 340 372 373
f 340 373 341
f 341 373 374
f 341 374 342
f 342 374 375
f 342 375 343
f 343 375 376
f 343 376 344
f 344 376 377
f 344 377 345
f 345 377 378
f 345 378 346
f 346 378 379
f 346 379 347
f 347 379 380
f 347 380 348
f 348 380 381
f 348 381 349
f 349 381 382
f 349 382 350
f 350 382 383
f 350 383 351
f 351 383 384
f 351 384 352
f 352 384 385
f 352 385 353
f 353 385 354
f 353 354 322
f 354 386 387
f 354 387 355
f 355 387 388
f 355 388 356
f 356 388 389
f 356 389 357
f 357 389 390
f 357 390 358
f 358 390 391
f 358 391 359
f 359 391 392
f 359 392 360
f 360 392 393
f 360 393 361
f 361 393 394
f 361 394 362
f 362 394 395
f 362 395 363
f 363 395 396
f 363 396 364
f 364 396 397
f 364 397 365
f 365 397 398
f 365 398 366
f 366 398 399
f 366 399 367
f 367 399 400
f 367 400 368
f 368 400 401
f 368 401 369
f 369 401 402
f 369 402 370
f 370 402 403
f 370 403 371
f 371 403 404
f 371 404 372
f 372 404 405
f 372 405 373
f 373 405 406
f 373 406 374
f 374 406 407
f 374 407 375
f 375 407 408
f 375 408 376
f 376 408 409
f 376 409 377
f 377 409 410
f 377 410 378
f 378 410 411
f 378 411 379
f 379 411 412
f 379 412 380
f 380 412 413
f 380 413 381
f 381 413 414
f 381 414 382
f 382 414 415
f 382 415 383
f 383 415 416
f 383 416 384
f 384 416 417
f 384 417 385
f 385 417 386
f 385 386 354
f 386 418 419
f 386 419 387
f 387 419 420
f 387 420 388
f 388 420 421
f 388 421 389
f 389 421 422
f 389 422 390
f 390 422 423
f 390 423 391
f 391 423 424
f 391 424 392
f 392 424 425
f 392 425 393
f 393 425 426
f 393 426 394
f 394 426 427
f 394 427 395
f 395 427 428
f 395 428 396
f 396 428 429
f 396 429 397
f 397 429 430
f 397 430 398
f 398 430 431
f 398 431 399
f 399 431 432
f 399 432 400
f 400 432 433
f 400 433 401
f 401 433 434
f 401 434 402
f 402 434 435
f 402 435 403
f 403 435 436
f 403 436 404
f 404 436 437
f 404 437 405
f 405 437 438
f 405 438 406
f 406 438 439
f 406 439 407
f 407 439 440
f 407 440 408
f 408 440 441
f 408 441 409
f 409 441 442
f 409 442 410
f 410 442 443
f 410 443 411
f 411 443 444
f 411 444 412
f 412 444 445
f 412 445 413
f 413 445 446
f 413 446 414
f 414 446 447
f 414 447 415
f 415 447 448
f 415 448 416
f 416 448 449
f 416 449 417
f 417 449 418
f 417 418 386
f 418 450 451
f 418 451 419
f 419 451 452
f 419 452 420
f 420 452 453
f 420 453 421
f 421 453 454
f 421 454 422
f 422 454 455
f 422 455 423
f 423 455 456
f 423 456 424
f 424 456 457
f 424 457 425
f 425 457 458
f 425 458 426
f 426 458 459
f 426 459 427
f 427 459 460
f 427 460 428
f 428 460 461
f 428 461 429
f 429 461 462
f 429 462 430
f 430 462 463
f 430 463 431
f 431 463 464
f 431 464 432
f 432 464 465
f 432 465 433
f 433 465 466
f 433 466 434
f 434 466 467
f 434 467 435
f 435 467 468
f 435 468 436
f 436 468 469
f 436 469 437
f 437 469 470
f 437 470 438
f 438 470 471
f 438 471 439
f 439 471 472
f 439 472 440
f 440 472 473
f 440 473 441
f 441 473 474
f 441 474 442
f 442 474 475
f 442 475 443
f 443 475 476
f 443 476 444
f 444 476 477
f 444 477 445
f 445 477 478
f 445 478 446
f 446 478 479
f 446 479 447
f 447 479 480
f 447 480 448
f 448 480 481
f 448 481 449
f 449 481 450
f 449 450 418
f 482 451 450
f 482 452 451
f 482 453 452
f 482 454 453
f 482 455 454
f 482 456 455
f 482 457 456
f 482 458 457
f 482 459 458
f 482 460 459
f 482 461 460
f 482 462 461
f 482 463 462
f 482 464 463
f 482 465 464
f 482 466 465
f 482 467 466
f 482 468 467
f 482 469 468
f 482 470 469
f 482 471 470
f 482 472 471
f 482 473 472
f 482 474 473
f 482 475 474
f 482 476 475
f 482 477 476
f 482 478 477
f 482 479 478
f 482 480 479
f 482 481 480
f 482 450 481
