1850 1858 0
v 0.01685778 -0.004198095 -0.0103125
v 0.016796595 -0.00011049 -0.0103125
v 0.01678125 0 -0.0103125
v 0.01683042 -0.00020754 -0.0103125
v 0.0165327 -0.004157325 -0.0103125
v 0.01648836 0.005732265 -0.0103125
v 0.01640052 -0.00413646 -0.0103125
v 0.016796595 0.00011049 -0.0103125
v 0.01683042 0.00020754 -0.0103125
v 0.01687713 0.005481195 -0.0103125
v 0.01688292 0.00029133 -0.0103125
v 0.016958175 0.0003648 -0.0103125
v 0.017048655 0.000422475 -0.0103125
v 0.017144115 0.00045624 -0.0103125
v 0.01725 0.0004671 -0.0103125
v 0.017263485 0.005224845 -0.0103125
v 0.017355885 0.00045624 -0.0103125
v 0.017451345 0.000422475 -0.0103125
v 0.017541825 0.0003648 -0.0103125
v 0.01761708 0.00029133 -0.0103125
v 0.01764744 0.004963185 -0.0103125
v 0.01766958 0.00020754 -0.0103125
v 0.017703405 0.00011049 -0.0103125
v 0.01771875 0 -0.0103125
v 0.017804175 -0.00418179 -0.0103125
v 0.017703405 -0.00011049 -0.0103125
v 0.018028995 0.004696245 -0.0103125
v 0.018110025 -0.00413016 -0.0103125
v 0.018408135 0.004423995 -0.0103125
v 0.018414315 -0.004054065 -0.0103125
v 0.01871706 -0.00395352 -0.0103125
v 0.01878486 0.004146465 -0.0103125
v 0.01901337 -0.003830565 -0.0103125
v 0.0191592 0.003863625 -0.0103125
v 0.01929834 -0.003687195 -0.0103125
v 0.019531125 0.00357549 -0.0103125
v 0.019567095 -0.003525465 -0.0103125
v 0.01982217 -0.003342915 -0.0103125
v 0.019900635 0.003282075 -0.0103125
v 0.020066805 -0.003138195 -0.0103125
v 0.020145765 0.003064695 -0.0103125
v 0.02029722 -0.002914965 -0.0103125
v 0.020370375 0.00283569 -0.0103125
v 0.02050962 -0.002676945 -0.0103125
v 0.020574435 0.002595045 -0.0103125
v 0.020700165 -0.002427795 -0.0103125
v 0.020757975 0.00234279 -0.0103125
v 0.02087034 -0.00216432 -0.0103125
v 0.02092098 0.002078895 -0.0103125
v 0.02102268 -0.00188403 -0.0103125
v 0.021064575 0.00180003 -0.0103125
v 0.02115498 -0.001591785 -0.0103125
v 0.021188775 0.00150621 -0.0103125
v 0.02126508 -0.00129237 -0.0103125
v 0.021291885 0.001202415 -0.0103125
v 0.02135079 -0.000990645 -0.0103125
v 0.021372195 0.000893685 -0.0103125
v 0.021412275 -0.00068307 -0.0103125
v 0.021427995 0.00058503 -0.0103125
v 0.02145099 -0.00036642 -0.0103125
v 0.02145912 0.00027291 -0.0103125
v 0.021466695 -4.6005e-05 -0.0103125
v 0.01766958 -0.00020754 -0.0103125
v 0.01761708 -0.00029133 -0.0103125
v 0.017541825 -0.0003648 -0.0103125
v 0.017493525 -0.00421032 -0.0103125
v 0.017451345 -0.000422475 -0.0103125
v 0.017355885 -0.00045624 -0.0103125
v 0.01725 -0.0004671 -0.0103125
v 0.01717806 -0.004215765 -0.0103125
v 0.017144115 -0.00045624 -0.0103125
v 0.017048655 -0.000422475 -0.0103125
v 0.016958175 -0.0003648 -0.0103125
v 0.01688292 -0.00029133 -0.0103125
v 0.01609719 0.005978025 -0.0103125
v 0.016269015 -0.004118085 -0.0103125
v 0.01613817 -0.00410217 -0.0103125
v 0.016008 -0.00408873 -0.0103125
v 0.015703605 0.00621849 -0.0103125
v 0.015878505 -0.00407778 -0.0103125
v 0.01574967 -0.00406929 -0.0103125
v 0.01562151 -0.004063275 -0.0103125
v 0.01530762 0.006453675 -0.0103125
v 0.01549401 -0.004059735 -0.0103125
v 0.015367185 -0.00405867 -0.0103125
v 0.015241035 -0.00406008 -0.0103125
v 0.014909235 0.00668355 -0.0103125
v 0.015115545 -0.004063965 -0.0103125
v 0.01499073 -0.004070325 -0.0103125
v 0.014866575 -0.00407916 -0.0103125
v 0.014508435 0.00690813 -0.0103125
v 0.0147432 -0.004090455 -0.0103125
v 0.014621115 -0.00410418 -0.0103125
v 0.01450023 -0.004120335 -0.0103125
v 0.01410522 0.007127415 -0.0103125
v 0.01438038 -0.004138935 -0.0103125
v 0.014261385 -0.00416001 -0.0103125
v 0.014143065 -0.004183545 -0.0103125
v 0.014025225 -0.00420957 -0.0103125
v 0.01369941 0.007341495 -0.0103125
v 0.013907685 -0.0042381 -0.0103125
v 0.01379028 -0.004269135 -0.0103125
v 0.013672815 -0.004302705 -0.0103125
v 0.01329102 0.007550355 -0.0103125
v 0.01355511 -0.004338825 -0.0103125
v 0.013436985 -0.00437751 -0.0103125
v 0.01331826 -0.004418745 -0.0103125
v 0.013198755 -0.00446259 -0.0103125
v 0.012880095 0.007753965 -0.0103125
v 0.013078845 -0.00450909 -0.0103125
v 0.012958995 -0.00455829 -0.0103125
v 0.012839145 -0.00461016 -0.0103125
v 0.01246668 0.007952325 -0.0103125
v 0.012719235 -0.00466464 -0.0103125
v 0.012599205 -0.00472167 -0.0103125
v 0.012478995 -0.00478122 -0.0103125
v 0.01235856 -0.00484323 -0.0103125
v 0.012050835 0.00814539 -0.0103125
v 0.012237825 -0.004907655 -0.0103125
v 0.01211673 -0.00497445 -0.0103125
v 0.011995215 -0.00504357 -0.0103125
v 0.011632605 0.00833316 -0.0103125
v 0.011873235 -0.005114955 -0.0103125
v 0.011750715 -0.005188545 -0.0103125
v 0.01162761 -0.005264325 -0.0103125
v 0.011212035 0.00851559 -0.0103125
v 0.01150395 -0.00534234 -0.0103125
v 0.01138029 -0.005423205 -0.0103125
v 0.011256615 -0.005506905 -0.0103125
v 0.01113279 -0.005593245 -0.0103125
v 0.0107892 0.00869268 -0.0103125
v 0.011008695 -0.005682075 -0.0103125
v 0.010884165 -0.005773215 -0.0103125
v 0.010759095 -0.005866515 -0.0103125
v 0.01036413 0.0088644 -0.0103125
v 0.01063335 -0.005961795 -0.0103125
v 0.010538505 -0.006034455 -0.0103125
v 0.010443165 -0.006108075 -0.0103125
v 0.01034724 -0.006182565 -0.0103125
v 0.00993687 0.00903072 -0.0103125
v 0.0102507 -0.006257865 -0.0103125
v 0.010153485 -0.006333915 -0.0103125
v 0.01005552 -0.006410625 -0.0103125
v 0.009956775 -0.00648795 -0.0103125
v 0.009857175 -0.006565785 -0.0103125
v 0.009507495 0.009191625 -0.0103125
v 0.009757185 -0.00664464 -0.0103125
v 0.009657195 -0.006724965 -0.0103125
v 0.009557115 -0.006806625 -0.0103125
v 0.009456825 -0.006889515 -0.0103125
v 0.00907605 0.0093471 -0.0103125
v 0.00935619 -0.00697353 -0.0103125
v 0.009255105 -0.007058535 -0.0103125
v 0.00915345 -0.007144425 -0.0103125
v 0.00905112 -0.007231065 -0.0103125
v 0.00864258 0.009497115 -0.0103125
v 0.00894798 -0.007318365 -0.0103125
v 0.00884391 -0.007406205 -0.0103125
v 0.00873882 -0.00749445 -0.0103125
v 0.008632575 -0.00758301 -0.0103125
v 0.00820713 0.00964164 -0.0103125
v 0.00852507 -0.007671735 -0.0103125
v 0.00841617 -0.007760535 -0.0103125
v 0.00830577 -0.00784929 -0.0103125
v 0.00819375 -0.00793788 -0.0103125
v 0.007769715 0.009780705 -0.0103125
v 0.008080005 -0.008026185 -0.0103125
v 0.0079644 -0.0081141 -0.0103125
v 0.00784719 -0.008201865 -0.0103125
v 0.007728735 -0.00828981 -0.0103125
v 0.00733014 0.00991434 -0.0103125
v 0.00760899 -0.00837795 -0.0103125
v 0.007487985 -0.00846627 -0.0103125
v 0.00736572 -0.00855477 -0.0103125
v 0.007242165 -0.00864345 -0.0103125
v 0.006888435 0.01004259 -0.0103125
v 0.007117365 -0.008732325 -0.0103125
v 0.00699129 -0.00882138 -0.0103125
v 0.00686394 -0.008910615 -0.0103125
v 0.006444555 0.010165425 -0.0103125
v 0.00673533 -0.009000045 -0.0103125
v 0.006605445 -0.009089655 -0.0103125
v 0.0064743 -0.009179445 -0.0103125
v 0.00634188 -0.009269415 -0.0103125
v 0.00599853 0.01028286 -0.0103125
v 0.006208185 -0.00935958 -0.0103125
v 0.00607323 -0.00944991 -0.0103125
v 0.005937015 -0.00954045 -0.0103125
v 0.005550345 0.010394895 -0.0103125
v 0.005799525 -0.009631155 -0.0103125
v 0.00566076 -0.009722055 -0.0103125
v 0.005428995 -0.00985218 -0.0103125
v 0.005100015 0.010501515 -0.0103125
v 0.005195715 -0.009976515 -0.0103125
v 0.004960905 -0.01009506 -0.0103125
v 0.004647525 0.01060275 -0.0103125
v 0.00472458 -0.010207815 -0.0103125
v 0.00448674 -0.010314765 -0.0103125
v 0.00419289 0.01069857 -0.0103125
v 0.004247385 -0.010415925 -0.0103125
v 0.004006515 -0.010511295 -0.0103125
v 0.00373608 0.01078899 -0.0103125
v 0.00376413 -0.010600875 -0.0103125
v 0.003520215 -0.010684665 -0.0103125
v 0.00327714 0.01087401 -0.0103125
v 0.003274785 -0.01076265 -0.0103125
v 0.002816025 0.01095363 -0.0103125
v 0.00302784 -0.010834845 -0.0103125
v 0.00277932 -0.010901265 -0.0103125
v 0.002352765 0.011027835 -0.0103125
v 0.00252822 -0.010962015 -0.0103125
v 0.00227454 -0.011017095 -0.0103125
v 0.00188736 0.01109664 -0.0103125
v 0.002018655 -0.011066475 -0.0103125
v 0.001875 0 -0.0103125
v 0.00141978 0.011160045 -0.0103125
v 0.00185994 -0.00021849 -0.0103125
v 0.001823985 -0.0004269 -0.0103125
v 0.001767105 -0.00062526 -0.0103125
v 0.001761015 -0.01111008 -0.0103125
v 0.001689315 -0.000813525 -0.0103125
v 0.0015882 -0.00099477 -0.0103125
v 0.00150201 -0.01114788 -0.0103125
v 0.00146457 -0.001167945 -0.0103125
v 0.00132324 -0.00132702 -0.0103125
v 0.001242045 -0.011179815 -0.0103125
v 0.00116904 -0.001465935 -0.0103125
v 0.0009993 -0.00158535 -0.0103125
v 0.000981555 -0.01120584 -0.0103125
v 0.000812775 -0.00168774 -0.0103125
v 0.00072093 -0.01122591 -0.0103125
v 0.000616425 -0.001769745 -0.0103125
v 0.000460605 -0.01123995 -0.0103125
v 0.000417225 -0.00182799 -0.0103125
v 0.00021249 -0.001861935 -0.0103125
v 0.000200955 -0.011247945 -0.0103125
v 0 -0.001873245 -0.0103125
v -5.757e-05 -0.01124982 -0.0103125
v -0.00021249 -0.001861935 -0.0103125
v -0.000315105 -0.011245545 -0.0103125
v -0.000417225 -0.00182799 -0.0103125
v -0.000573615 -0.01123506 -0.0103125
v -0.000616425 -0.001769745 -0.0103125
v -0.000812775 -0.00168774 -0.0103125
v -0.000832995 -0.011218455 -0.0103125
v -0.0009993 -0.00158535 -0.0103125
v -0.00109284 -0.011195775 -0.0103125
v -0.00116904 -0.001465935 -0.0103125
v -0.00132324 -0.00132702 -0.0103125
v -0.00135273 -0.01116708 -0.0103125
v -0.00146457 -0.001167945 -0.0103125
v -0.0015882 -0.00099477 -0.0103125
v -0.00161226 -0.011132445 -0.0103125
v -0.001689315 -0.000813525 -0.0103125
v -0.001767105 -0.00062526 -0.0103125
v -0.001823985 -0.0004269 -0.0103125
v -0.00185994 -0.00021849 -0.0103125
v -0.00187101 -0.01109193 -0.0103125
v -0.001875 0 -0.0103125
v -0.001948275 0.011079795 -0.0103125
v -0.002128575 -0.011045595 -0.0103125
v -0.00185994 0.00021849 -0.0103125
v -0.001823985 0.0004269 -0.0103125
v -0.001767105 0.00062526 -0.0103125
v -0.00169338 0.01112181 -0.0103125
v -0.001689315 0.000813525 -0.0103125
v -0.0015882 0.00099477 -0.0103125
v -0.00146457 0.001167945 -0.0103125
v -0.001438635 0.0111576 -0.0103125
v -0.00132324 0.00132702 -0.0103125
v -0.001183095 0.011187465 -0.0103125
v -0.00116904 0.001465935 -0.0103125
v -0.0009993 0.00158535 -0.0103125
v -0.000926685 0.01121139 -0.0103125
v -0.000812775 0.00168774 -0.0103125
v -0.00066942 0.01122939 -0.0103125
v -0.000616425 0.001769745 -0.0103125
v -0.000417225 0.00182799 -0.0103125
v -0.000411285 0.011241465 -0.0103125
v -0.00021249 0.001861935 -0.0103125
v -0.000152295 0.011247615 -0.0103125
v 0 0.001873245 -0.0103125
v 0.000107565 0.011247825 -0.0103125
v 0.00021249 0.001861935 -0.0103125
v 0.00036828 0.011242125 -0.0103125
v 0.000417225 0.00182799 -0.0103125
v 0.000616425 0.001769745 -0.0103125
v 0.000629865 0.0112305 -0.0103125
v 0.000812775 0.00168774 -0.0103125
v 0.000892305 0.011212935 -0.0103125
v 0.0009993 0.00158535 -0.0103125
v 0.001155615 0.01118946 -0.0103125
v 0.00116904 0.001465935 -0.0103125
v 0.00132324 0.00132702 -0.0103125
v 0.00146457 0.001167945 -0.0103125
v 0.0015882 0.00099477 -0.0103125
v 0.001689315 0.000813525 -0.0103125
v 0.001767105 0.00062526 -0.0103125
v 0.001823985 0.0004269 -0.0103125
v 0.00185994 0.00021849 -0.0103125
v -0.002203365 0.011031555 -0.0103125
v -0.00238455 -0.010993485 -0.0103125
v -0.00245823 0.010977195 -0.0103125
v -0.00263853 -0.01093569 -0.0103125
v -0.00271248 0.01091685 -0.0103125
v -0.002890095 -0.010872255 -0.0103125
v -0.00296571 0.01085061 -0.0103125
v -0.00313884 -0.01080324 -0.0103125
v -0.00321753 0.01077861 -0.0103125
v -0.003385485 -0.010728405 -0.0103125
v -0.003467535 0.010700955 -0.0103125
v -0.00363156 -0.010647315 -0.0103125
v -0.003715335 0.010617765 -0.0103125
v -0.00387672 -0.01056012 -0.0103125
v -0.003960525 0.010529145 -0.0103125
v -0.00412059 -0.010467015 -0.0103125
v -0.004202715 0.01043523 -0.0103125
v -0.00436278 -0.01036815 -0.0103125
v -0.004441485 0.01033611 -0.0103125
v -0.00460293 -0.010263705 -0.0103125
v -0.004676955 0.010231695 -0.0103125
v -0.00484065 -0.010153845 -0.0103125
v -0.004910895 0.010121205 -0.0103125
v -0.005075565 -0.010038735 -0.0103125
v -0.00514326 0.01000473 -0.0103125
v -0.005307285 -0.009918555 -0.0103125
v -0.00537366 0.00988248 -0.0103125
v -0.00553545 -0.00979347 -0.0103125
v -0.005601765 0.00975468 -0.0103125
v -0.005759685 -0.00966366 -0.0103125
v -0.005827215 0.009621555 -0.0103125
v -0.005979615 -0.00952926 -0.0103125
v -0.006049665 0.009483315 -0.0103125
v -0.00619659 -0.0093894 -0.0103125
v -0.006268755 0.00934017 -0.0103125
v -0.00641127 -0.009243735 -0.0103125
v -0.006484125 0.00919233 -0.0103125
v -0.006623355 -0.00909252 -0.0103125
v -0.00669543 0.009040035 -0.0103125
v -0.006832515 -0.008936025 -0.0103125
v -0.006902325 0.008883495 -0.0103125
v -0.007038435 -0.008774505 -0.0103125
v -0.007104435 0.00872292 -0.0103125
v -0.007240785 -0.008608245 -0.0103125
v -0.007302345 0.0085578 -0.0103125
v -0.007439265 -0.00843747 -0.0103125
v -0.0074973 0.00838713 -0.0103125
v -0.007633545 -0.008262495 -0.0103125
v -0.00768903 0.008211225 -0.0103125
v -0.007823295 -0.008083545 -0.0103125
v -0.00787725 0.008030355 -0.0103125
v -0.008008215 -0.00790089 -0.0103125
v -0.00806169 0.00784485 -0.0103125
v -0.00818799 -0.007714815 -0.0103125
v -0.008242065 0.007654995 -0.0103125
v -0.00836247 -0.00752535 -0.0103125
v -0.008418105 0.007461105 -0.0103125
v -0.00853302 -0.00733104 -0.0103125
v -0.008589495 0.00726348 -0.0103125
v -0.008699745 -0.007131855 -0.0103125
v -0.00875598 0.00706242 -0.0103125
v -0.008862405 -0.006928095 -0.0103125
v -0.008917275 0.00685824 -0.0103125
v -0.00902076 -0.006720135 -0.0103125
v -0.009073095 0.00665124 -0.0103125
v -0.009174585 -0.006508305 -0.0103125
v -0.009223185 0.00644169 -0.0103125
v -0.00932364 -0.006292935 -0.0103125
v -0.009368415 0.006228285 -0.0103125
v -0.00946767 -0.006074385 -0.0103125
v -0.009509265 0.00601041 -0.0103125
v -0.00960648 -0.005852985 -0.0103125
v -0.009645555 0.00578844 -0.0103125
v -0.009739785 -0.00562908 -0.0103125
v -0.009777105 0.00556275 -0.0103125
v -0.00986739 -0.005403 -0.0103125
v -0.00990369 0.0053337 -0.0103125
v -0.009989025 -0.00517509 -0.0103125
v -0.01002516 0.005101665 -0.0103125
v -0.010104855 -0.00494496 -0.0103125
v -0.01014129 0.004867005 -0.0103125
v -0.010215735 -0.00471099 -0.0103125
v -0.010251915 0.004630095 -0.0103125
v -0.01032156 -0.004473435 -0.0103125
v -0.01035684 0.00439131 -0.0103125
v -0.010422225 -0.0042327 -0.0103125
v -0.010455855 0.004150995 -0.0103125
v -0.01051758 -0.003989175 -0.0103125
v -0.010548795 0.003909525 -0.0103125
v -0.01060749 -0.003743235 -0.0103125
v -0.010635555 0.003667005 -0.0103125
v -0.01069182 -0.003495285 -0.0103125
v -0.010716795 0.003421575 -0.0103125
v -0.01077042 -0.003245715 -0.0103125
v -0.01079259 0.003173115 -0.0103125
v -0.01084317 -0.002994915 -0.0103125
v -0.01086288 0.00292206 -0.0103125
v -0.010909935 -0.00274329 -0.0103125
v -0.010927575 0.0026688 -0.0103125
v -0.010970565 -0.002491215 -0.0103125
v -0.01098657 0.00241374 -0.0103125
v -0.011024925 -0.002239065 -0.0103125
v -0.011039805 0.0021573 -0.0103125
v -0.011073225 -0.0019857 -0.0103125
v -0.011087175 0.00189987 -0.0103125
v -0.011115735 -0.00172995 -0.0103125
v -0.01112862 0.001641855 -0.0103125
v -0.011152425 -0.001472205 -0.0103125
v -0.01116402 0.00138369 -0.0103125
v -0.01118328 -0.0012129 -0.0103125
v -0.011193315 0.001125735 -0.0103125
v -0.011208255 -0.00095244 -0.0103125
v -0.011216415 0.00086844 -0.0103125
v -0.01122732 -0.000691245 -0.0103125
v -0.011233305 0.000611355 -0.0103125
v -0.011240475 -0.00042972 -0.0103125
v -0.01124412 0.000352665 -0.0103125
v -0.011247675 -0.000168285 -0.0103125
v -0.011248905 9.2655e-05 -0.0103125
v 0.01678125 0 -0.0140625
v 0.01678125 0 -0.0103125
v 0.016796595 -0.00011049 -0.0103125
v 0.016796595 0.00011049 -0.0140625
v 0.016796595 -0.00011049 -0.0140625
v 0.01683042 -0.00020754 -0.0103125
v 0.01683042 -0.00020754 -0.0140625
v 0.01688292 -0.00029133 -0.0103125
v 0.01688292 -0.00029133 -0.0140625
v 0.016958175 -0.0003648 -0.0103125
v 0.016958175 -0.0003648 -0.0140625
v 0.017048655 -0.000422475 -0.0103125
v 0.017048655 -0.000422475 -0.0140625
v 0.017144115 -0.00045624 -0.0103125
v 0.017144115 -0.00045624 -0.0140625
v 0.01725 -0.0004671 -0.0103125
v 0.01725 -0.0004671 -0.0140625
v 0.017355885 -0.00045624 -0.0103125
v 0.017355885 -0.00045624 -0.0140625
v 0.017451345 -0.000422475 -0.0103125
v 0.017451345 -0.000422475 -0.0140625
v 0.017541825 -0.0003648 -0.0103125
v 0.017541825 -0.0003648 -0.0140625
v 0.01761708 -0.00029133 -0.0103125
v 0.01761708 -0.00029133 -0.0140625
v 0.01766958 -0.00020754 -0.0103125
v 0.01766958 -0.00020754 -0.0140625
v 0.017703405 -0.00011049 -0.0103125
v 0.017703405 -0.00011049 -0.0140625
v 0.01771875 0 -0.0103125
v 0.01771875 0 -0.0140625
v 0.017703405 0.00011049 -0.0103125
v 0.017703405 0.00011049 -0.0140625
v 0.01766958 0.00020754 -0.0103125
v 0.01766958 0.00020754 -0.0140625
v 0.01761708 0.00029133 -0.0103125
v 0.01761708 0.00029133 -0.0140625
v 0.017541825 0.0003648 -0.0103125
v 0.017541825 0.0003648 -0.0140625
v 0.017451345 0.000422475 -0.0103125
v 0.017451345 0.000422475 -0.0140625
v 0.017355885 0.00045624 -0.0103125
v 0.017355885 0.00045624 -0.0140625
v 0.01725 0.0004671 -0.0103125
v 0.01725 0.0004671 -0.0140625
v 0.017144115 0.00045624 -0.0103125
v 0.017144115 0.00045624 -0.0140625
v 0.017048655 0.000422475 -0.0103125
v 0.017048655 0.000422475 -0.0140625
v 0.016958175 0.0003648 -0.0103125
v 0.016958175 0.0003648 -0.0140625
v 0.01688292 0.00029133 -0.0103125
v 0.01688292 0.00029133 -0.0140625
v 0.01683042 0.00020754 -0.0103125
v 0.01683042 0.00020754 -0.0140625
v 0.016796595 0.00011049 -0.0103125
v -0.001875 0 -0.01113282
v -0.001875 0 -0.0103125
v -0.00185994 -0.00021849 -0.0103125
v -0.00186846 0.000156525 -0.011145855
v -0.00186879 -0.000152505 -0.01114638
v -0.00185145 -0.000296265 -0.011177145
v -0.001823985 -0.0004269 -0.0103125
v -0.00182487 -0.000430635 -0.0112251
v -0.001767105 -0.00062526 -0.0103125
v -0.00179049 -0.000556575 -0.011291565
v -0.00174948 -0.000674505 -0.011377245
v -0.001689315 -0.000813525 -0.0103125
v -0.00170565 -0.000778695 -0.01147638
v -0.001663605 -0.000864885 -0.011584125
v -0.0015882 -0.00099477 -0.0103125
v -0.00162405 -0.00093705 -0.011704185
v -0.00159021 -0.000993405 -0.01183293
v -0.001566285 -0.001030725 -0.01196478
v -0.00146457 -0.001167945 -0.0103125
v -0.00155355 -0.00104982 -0.01210218
v -0.001552095 -0.001051965 -0.0122436
v -0.0015882 -0.00099477 -0.0140625
v -0.00146457 -0.001167945 -0.0140625
v -0.001562505 -0.00103644 -0.012382395
v -0.0015852 -0.001001385 -0.012517425
v -0.001618515 -0.00094659 -0.012651045
v -0.001689315 -0.000813525 -0.0140625
v -0.001658385 -0.00087486 -0.012776325
v -0.001701765 -0.000787155 -0.01288872
v -0.001767105 -0.00062526 -0.0140625
v -0.0017478 -0.000678825 -0.01299273
v -0.00179058 -0.000556305 -0.013082625
v -0.001823985 -0.0004269 -0.0140625
v -0.00182553 -0.000427875 -0.01315155
v -0.001851975 -0.000292965 -0.01320033
v -0.00185994 -0.00021849 -0.0140625
v -0.001868985 -0.00015012 -0.013230555
v -0.001875 0 -0.0140625
v -0.001875 0 -0.013242195
v -0.00185994 0.00021849 -0.0140625
v -0.0018684 0.000157125 -0.01322847
v -0.001849965 0.00030537 -0.013195755
v -0.001823985 0.0004269 -0.0140625
v -0.001821675 0.000444015 -0.01314405
v -0.001767105 0.00062526 -0.0140625
v -0.00178476 0.000574695 -0.013071765
v -0.0017409 0.00069636 -0.012979455
v -0.001689315 0.000813525 -0.0140625
v -0.001694865 0.0008019 -0.01287282
v -0.00165099 0.000888735 -0.012754125
v -0.0015882 0.00099477 -0.0140625
v -0.00161001 0.00096099 -0.012620535
v -0.00157728 0.001013805 -0.012479025
v -0.00146457 0.001167945 -0.0140625
v -0.001558035 0.001043145 -0.01233414
v -0.00155235 0.00105159 -0.012180765
v -0.0015882 0.00099477 -0.0103125
v -0.00146457 0.001167945 -0.0103125
v -0.00155952 0.001040925 -0.01202829
v -0.001578675 0.001011645 -0.011886375
v -0.001609725 0.00096147 -0.011751285
v -0.001689315 0.000813525 -0.0103125
v -0.00164904 0.00089235 -0.01162434
v -0.001692555 0.00080679 -0.011508675
v -0.001767105 0.00062526 -0.0103125
v -0.001739445 0.000699975 -0.01140057
v -0.00178431 0.00057606 -0.011305095
v -0.001823985 0.0004269 -0.0103125
v -0.001821705 0.000443865 -0.0112308
v -0.00185007 0.000304725 -0.011178525
v -0.00185994 0.00021849 -0.0103125
v -0.00132324 0.00132702 -0.0140625
v -0.00132324 0.00132702 -0.0103125
v -0.00116904 0.001465935 -0.0140625
v -0.00116904 0.001465935 -0.0103125
v -0.0009993 0.00158535 -0.0140625
v -0.0009993 0.00158535 -0.0103125
v -0.000812775 0.00168774 -0.0140625
v -0.000812775 0.00168774 -0.0103125
v -0.000616425 0.001769745 -0.0140625
v -0.000616425 0.001769745 -0.0103125
v -0.000417225 0.00182799 -0.0140625
v -0.000417225 0.00182799 -0.0103125
v -0.00021249 0.001861935 -0.0140625
v -0.00021249 0.001861935 -0.0103125
v 0 0.001873245 -0.0140625
v 0 0.001873245 -0.0103125
v 0.00021249 0.001861935 -0.0140625
v 0.00021249 0.001861935 -0.0103125
v 0.000417225 0.00182799 -0.0140625
v 0.000417225 0.00182799 -0.0103125
v 0.000616425 0.001769745 -0.0140625
v 0.000616425 0.001769745 -0.0103125
v 0.000812775 0.00168774 -0.0140625
v 0.000812775 0.00168774 -0.0103125
v 0.0009993 0.00158535 -0.0140625
v 0.0009993 0.00158535 -0.0103125
v 0.00116904 0.001465935 -0.0140625
v 0.00116904 0.001465935 -0.0103125
v 0.00132324 0.00132702 -0.0140625
v 0.00132324 0.00132702 -0.0103125
v 0.00146457 0.001167945 -0.0140625
v 0.00146457 0.001167945 -0.0103125
v 0.0015882 0.00099477 -0.0140625
v 0.0015882 0.00099477 -0.0103125
v 0.001689315 0.000813525 -0.0140625
v 0.001689315 0.000813525 -0.0103125
v 0.001767105 0.00062526 -0.0140625
v 0.001767105 0.00062526 -0.0103125
v 0.001823985 0.0004269 -0.0140625
v 0.001823985 0.0004269 -0.0103125
v 0.00185994 0.00021849 -0.0140625
v 0.00185994 0.00021849 -0.0103125
v 0.001875 0 -0.0140625
v 0.001875 0 -0.0103125
v 0.00185994 -0.00021849 -0.0140625
v 0.00185994 -0.00021849 -0.0103125
v 0.001823985 -0.0004269 -0.0140625
v 0.001823985 -0.0004269 -0.0103125
v 0.001767105 -0.00062526 -0.0140625
v 0.001767105 -0.00062526 -0.0103125
v 0.001689315 -0.000813525 -0.0140625
v 0.001689315 -0.000813525 -0.0103125
v 0.0015882 -0.00099477 -0.0140625
v 0.0015882 -0.00099477 -0.0103125
v 0.00146457 -0.001167945 -0.0140625
v 0.00146457 -0.001167945 -0.0103125
v 0.00132324 -0.00132702 -0.0140625
v 0.00132324 -0.00132702 -0.0103125
v 0.00116904 -0.001465935 -0.0140625
v 0.00116904 -0.001465935 -0.0103125
v 0.0009993 -0.00158535 -0.0140625
v 0.0009993 -0.00158535 -0.0103125
v 0.000812775 -0.00168774 -0.0140625
v 0.000812775 -0.00168774 -0.0103125
v 0.000616425 -0.001769745 -0.0140625
v 0.000616425 -0.001769745 -0.0103125
v 0.000417225 -0.00182799 -0.0140625
v 0.000417225 -0.00182799 -0.0103125
v 0.00021249 -0.001861935 -0.0140625
v 0.00021249 -0.001861935 -0.0103125
v 0 -0.001873245 -0.0140625
v 0 -0.001873245 -0.0103125
v -0.00021249 -0.001861935 -0.0140625
v -0.00021249 -0.001861935 -0.0103125
v -0.000417225 -0.00182799 -0.0140625
v -0.000417225 -0.00182799 -0.0103125
v -0.000616425 -0.001769745 -0.0140625
v -0.000616425 -0.001769745 -0.0103125
v -0.000812775 -0.00168774 -0.0140625
v -0.000812775 -0.00168774 -0.0103125
v -0.0009993 -0.00158535 -0.0140625
v -0.0009993 -0.00158535 -0.0103125
v -0.00116904 -0.001465935 -0.0140625
v -0.00116904 -0.001465935 -0.0103125
v -0.00132324 -0.00132702 -0.0140625
v -0.00132324 -0.00132702 -0.0103125
v 0.019900635 0.003282075 -0.0140625
v 0.019900635 0.003282075 -0.0103125
v 0.020145765 0.003064695 -0.0103125
v 0.019531125 0.00357549 -0.0140625
v 0.020145765 0.003064695 -0.0140625
v 0.020370375 0.00283569 -0.0103125
v 0.020370375 0.00283569 -0.0140625
v 0.020574435 0.002595045 -0.0103125
v 0.020574435 0.002595045 -0.0140625
v 0.020757975 0.00234279 -0.0103125
v 0.020757975 0.00234279 -0.0140625
v 0.02092098 0.002078895 -0.0103125
v 0.02092098 0.002078895 -0.0140625
v 0.021064575 0.00180003 -0.0103125
v 0.021064575 0.00180003 -0.0140625
v 0.021188775 0.00150621 -0.0103125
v 0.021188775 0.00150621 -0.0140625
v 0.021291885 0.001202415 -0.0103125
v 0.021291885 0.001202415 -0.0140625
v 0.021372195 0.000893685 -0.0103125
v 0.021372195 0.000893685 -0.0140625
v 0.021427995 0.00058503 -0.0103125
v 0.021427995 0.00058503 -0.0140625
v 0.02145912 0.00027291 -0.0103125
v 0.02145912 0.00027291 -0.0140625
v 0.021466695 -4.6005e-05 -0.0103125
v 0.021466695 -4.6005e-05 -0.0140625
v 0.02145099 -0.00036642 -0.0103125
v 0.02145099 -0.00036642 -0.0140625
v 0.021412275 -0.00068307 -0.0103125
v 0.021412275 -0.00068307 -0.0140625
v 0.02135079 -0.000990645 -0.0103125
v 0.02135079 -0.000990645 -0.0140625
v 0.02126508 -0.00129237 -0.0103125
v 0.02126508 -0.00129237 -0.0140625
v 0.02115498 -0.001591785 -0.0103125
v 0.02115498 -0.001591785 -0.0140625
v 0.02102268 -0.00188403 -0.0103125
v 0.02102268 -0.00188403 -0.0140625
v 0.02087034 -0.00216432 -0.0103125
v 0.02087034 -0.00216432 -0.0140625
v 0.020700165 -0.002427795 -0.0103125
v 0.020700165 -0.002427795 -0.0140625
v 0.02050962 -0.002676945 -0.0103125
v 0.02050962 -0.002676945 -0.0140625
v 0.02029722 -0.002914965 -0.0103125
v 0.02029722 -0.002914965 -0.0140625
v 0.020066805 -0.003138195 -0.0103125
v 0.020066805 -0.003138195 -0.0140625
v 0.01982217 -0.003342915 -0.0103125
v 0.01982217 -0.003342915 -0.0140625
v 0.019567095 -0.003525465 -0.0103125
v 0.019567095 -0.003525465 -0.0140625
v 0.01929834 -0.003687195 -0.0103125
v 0.01929834 -0.003687195 -0.0140625
v 0.01901337 -0.003830565 -0.0103125
v 0.01901337 -0.003830565 -0.0140625
v 0.01871706 -0.00395352 -0.0103125
v 0.01871706 -0.00395352 -0.0140625
v 0.018414315 -0.004054065 -0.0103125
v 0.018414315 -0.004054065 -0.0140625
v 0.018110025 -0.00413016 -0.0103125
v 0.018110025 -0.00413016 -0.0140625
v 0.017804175 -0.00418179 -0.0103125
v 0.017804175 -0.00418179 -0.0140625
v 0.017493525 -0.00421032 -0.0103125
v 0.017493525 -0.00421032 -0.0140625
v 0.01717806 -0.004215765 -0.0103125
v 0.01717806 -0.004215765 -0.0140625
v 0.01685778 -0.004198095 -0.0103125
v 0.01685778 -0.004198095 -0.0140625
v 0.0165327 -0.004157325 -0.0103125
v 0.0165327 -0.004157325 -0.0140625
v 0.01640052 -0.00413646 -0.0103125
v 0.01640052 -0.00413646 -0.0140625
v 0.016269015 -0.004118085 -0.0103125
v 0.016269015 -0.004118085 -0.0140625
v 0.01613817 -0.00410217 -0.0103125
v 0.01613817 -0.00410217 -0.0140625
v 0.016008 -0.00408873 -0.0103125
v 0.016008 -0.00408873 -0.0140625
v 0.015878505 -0.00407778 -0.0103125
v 0.015878505 -0.00407778 -0.0140625
v 0.01574967 -0.00406929 -0.0103125
v 0.01574967 -0.00406929 -0.0140625
v 0.01562151 -0.004063275 -0.0103125
v 0.01562151 -0.004063275 -0.0140625
v 0.01549401 -0.004059735 -0.0103125
v 0.01549401 -0.004059735 -0.0140625
v 0.015367185 -0.00405867 -0.0103125
v 0.015367185 -0.00405867 -0.0140625
v 0.015241035 -0.00406008 -0.0103125
v 0.015241035 -0.00406008 -0.0140625
v 0.015115545 -0.004063965 -0.0103125
v 0.015115545 -0.004063965 -0.0140625
v 0.01499073 -0.004070325 -0.0103125
v 0.01499073 -0.004070325 -0.0140625
v 0.014866575 -0.00407916 -0.0103125
v 0.014866575 -0.00407916 -0.0140625
v 0.0147432 -0.004090455 -0.0103125
v 0.0147432 -0.004090455 -0.0140625
v 0.014621115 -0.00410418 -0.0103125
v 0.014621115 -0.00410418 -0.0140625
v 0.01450023 -0.004120335 -0.0103125
v 0.01450023 -0.004120335 -0.0140625
v 0.01438038 -0.004138935 -0.0103125
v 0.01438038 -0.004138935 -0.0140625
v 0.014261385 -0.00416001 -0.0103125
v 0.014261385 -0.00416001 -0.0140625
v 0.014143065 -0.004183545 -0.0103125
v 0.014143065 -0.004183545 -0.0140625
v 0.014025225 -0.00420957 -0.0103125
v 0.014025225 -0.00420957 -0.0140625
v 0.013907685 -0.0042381 -0.0103125
v 0.013907685 -0.0042381 -0.0140625
v 0.01379028 -0.004269135 -0.0103125
v 0.01379028 -0.004269135 -0.0140625
v 0.013672815 -0.004302705 -0.0103125
v 0.013672815 -0.004302705 -0.0140625
v 0.01355511 -0.004338825 -0.0103125
v 0.01355511 -0.004338825 -0.0140625
v 0.013436985 -0.00437751 -0.0103125
v 0.013436985 -0.00437751 -0.0140625
v 0.01331826 -0.004418745 -0.0103125
v 0.01331826 -0.004418745 -0.0140625
v 0.013198755 -0.00446259 -0.0103125
v 0.013198755 -0.00446259 -0.0140625
v 0.013078845 -0.00450909 -0.0103125
v 0.013078845 -0.00450909 -0.0140625
v 0.012958995 -0.00455829 -0.0103125
v 0.012958995 -0.00455829 -0.0140625
v 0.012839145 -0.00461016 -0.0103125
v 0.012839145 -0.00461016 -0.0140625
v 0.012719235 -0.00466464 -0.0103125
v 0.012719235 -0.00466464 -0.0140625
v 0.012599205 -0.00472167 -0.0103125
v 0.012599205 -0.00472167 -0.0140625
v 0.012478995 -0.00478122 -0.0103125
v 0.012478995 -0.00478122 -0.0140625
v 0.01235856 -0.00484323 -0.0103125
v 0.01235856 -0.00484323 -0.0140625
v 0.012237825 -0.004907655 -0.0103125
v 0.012237825 -0.004907655 -0.0140625
v 0.01211673 -0.00497445 -0.0103125
v 0.01211673 -0.00497445 -0.0140625
v 0.011995215 -0.00504357 -0.0103125
v 0.011995215 -0.00504357 -0.0140625
v 0.011873235 -0.005114955 -0.0103125
v 0.011873235 -0.005114955 -0.0140625
v 0.011750715 -0.005188545 -0.0103125
v 0.011750715 -0.005188545 -0.0140625
v 0.01162761 -0.005264325 -0.0103125
v 0.01162761 -0.005264325 -0.0140625
v 0.01150395 -0.00534234 -0.0103125
v 0.01150395 -0.00534234 -0.0140625
v 0.01138029 -0.005423205 -0.0103125
v 0.01138029 -0.005423205 -0.0140625
v 0.011256615 -0.005506905 -0.0103125
v 0.011256615 -0.005506905 -0.0140625
v 0.01113279 -0.005593245 -0.0103125
v 0.01113279 -0.005593245 -0.0140625
v 0.011008695 -0.005682075 -0.0103125
v 0.011008695 -0.005682075 -0.0140625
v 0.010884165 -0.005773215 -0.0103125
v 0.010884165 -0.005773215 -0.0140625
v 0.010759095 -0.005866515 -0.0103125
v 0.010759095 -0.005866515 -0.0140625
v 0.01063335 -0.005961795 -0.0103125
v 0.01063335 -0.005961795 -0.0140625
v 0.010538505 -0.006034455 -0.0103125
v 0.010538505 -0.006034455 -0.0140625
v 0.010443165 -0.006108075 -0.0103125
v 0.010443165 -0.006108075 -0.0140625
v 0.01034724 -0.006182565 -0.0103125
v 0.01034724 -0.006182565 -0.0140625
v 0.0102507 -0.006257865 -0.0103125
v 0.0102507 -0.006257865 -0.0140625
v 0.010153485 -0.006333915 -0.0103125
v 0.010153485 -0.006333915 -0.0140625
v 0.01005552 -0.006410625 -0.0103125
v 0.01005552 -0.006410625 -0.0140625
v 0.009956775 -0.00648795 -0.0103125
v 0.009956775 -0.00648795 -0.0140625
v 0.009857175 -0.006565785 -0.0103125
v 0.009857175 -0.006565785 -0.0140625
v 0.009757185 -0.00664464 -0.0103125
v 0.009757185 -0.00664464 -0.0140625
v 0.009657195 -0.006724965 -0.0103125
v 0.009657195 -0.006724965 -0.0140625
v 0.009557115 -0.006806625 -0.0103125
v 0.009557115 -0.006806625 -0.0140625
v 0.009456825 -0.006889515 -0.0103125
v 0.009456825 -0.006889515 -0.0140625
v 0.00935619 -0.00697353 -0.0103125
v 0.00935619 -0.00697353 -0.0140625
v 0.009255105 -0.007058535 -0.0103125
v 0.009255105 -0.007058535 -0.0140625
v 0.00915345 -0.007144425 -0.0103125
v 0.00915345 -0.007144425 -0.0140625
v 0.00905112 -0.007231065 -0.0103125
v 0.00905112 -0.007231065 -0.0140625
v 0.00894798 -0.007318365 -0.0103125
v 0.00894798 -0.007318365 -0.0140625
v 0.00884391 -0.007406205 -0.0103125
v 0.00884391 -0.007406205 -0.0140625
v 0.00873882 -0.00749445 -0.0103125
v 0.00873882 -0.00749445 -0.0140625
v 0.008632575 -0.00758301 -0.0103125
v 0.008632575 -0.00758301 -0.0140625
v 0.00852507 -0.007671735 -0.0103125
v 0.00852507 -0.007671735 -0.0140625
v 0.00841617 -0.007760535 -0.0103125
v 0.00841617 -0.007760535 -0.0140625
v 0.00830577 -0.00784929 -0.0103125
v 0.00830577 -0.00784929 -0.0140625
v 0.00819375 -0.00793788 -0.0103125
v 0.00819375 -0.00793788 -0.0140625
v 0.008080005 -0.008026185 -0.0103125
v 0.008080005 -0.008026185 -0.0140625
v 0.0079644 -0.0081141 -0.0103125
v 0.0079644 -0.0081141 -0.0140625
v 0.00784719 -0.008201865 -0.0103125
v 0.00784719 -0.008201865 -0.0140625
v 0.007728735 -0.00828981 -0.0103125
v 0.007728735 -0.00828981 -0.0140625
v 0.00760899 -0.00837795 -0.0103125
v 0.00760899 -0.00837795 -0.0140625
v 0.007487985 -0.00846627 -0.0103125
v 0.007487985 -0.00846627 -0.0140625
v 0.00736572 -0.00855477 -0.0103125
v 0.00736572 -0.00855477 -0.0140625
v 0.007242165 -0.00864345 -0.0103125
v 0.007242165 -0.00864345 -0.0140625
v 0.007117365 -0.008732325 -0.0103125
v 0.007117365 -0.008732325 -0.0140625
v 0.00699129 -0.00882138 -0.0103125
v 0.00699129 -0.00882138 -0.0140625
v 0.00686394 -0.008910615 -0.0103125
v 0.00686394 -0.008910615 -0.0140625
v 0.00673533 -0.009000045 -0.0103125
v 0.00673533 -0.009000045 -0.0140625
v 0.006605445 -0.009089655 -0.0103125
v 0.006605445 -0.009089655 -0.0140625
v 0.0064743 -0.009179445 -0.0103125
v 0.0064743 -0.009179445 -0.0140625
v 0.00634188 -0.009269415 -0.0103125
v 0.00634188 -0.009269415 -0.0140625
v 0.006208185 -0.00935958 -0.0103125
v 0.006208185 -0.00935958 -0.0140625
v 0.00607323 -0.00944991 -0.0103125
v 0.00607323 -0.00944991 -0.0140625
v 0.005937015 -0.00954045 -0.0103125
v 0.005937015 -0.00954045 -0.0140625
v 0.005799525 -0.009631155 -0.0103125
v 0.005799525 -0.009631155 -0.0140625
v 0.00566076 -0.009722055 -0.0103125
v 0.00566076 -0.009722055 -0.0140625
v 0.005428995 -0.00985218 -0.0103125
v 0.005428995 -0.00985218 -0.0140625
v 0.005195715 -0.009976515 -0.0103125
v 0.005195715 -0.009976515 -0.0140625
v 0.004960905 -0.01009506 -0.0103125
v 0.004960905 -0.01009506 -0.0140625
v 0.00472458 -0.010207815 -0.0103125
v 0.00472458 -0.010207815 -0.0140625
v 0.00448674 -0.010314765 -0.0103125
v 0.00448674 -0.010314765 -0.0140625
v 0.004247385 -0.010415925 -0.0103125
v 0.004247385 -0.010415925 -0.0140625
v 0.004006515 -0.010511295 -0.0103125
v 0.004006515 -0.010511295 -0.0140625
v 0.00376413 -0.010600875 -0.0103125
v 0.00376413 -0.010600875 -0.0140625
v 0.003520215 -0.010684665 -0.0103125
v 0.003520215 -0.010684665 -0.0140625
v 0.003274785 -0.01076265 -0.0103125
v 0.003274785 -0.01076265 -0.0140625
v 0.00302784 -0.010834845 -0.0103125
v 0.00302784 -0.010834845 -0.0140625
v 0.00277932 -0.010901265 -0.0103125
v 0.00277932 -0.010901265 -0.0140625
v 0.00252822 -0.010962015 -0.0103125
v 0.00252822 -0.010962015 -0.0140625
v 0.00227454 -0.011017095 -0.0103125
v 0.00227454 -0.011017095 -0.0140625
v 0.002018655 -0.011066475 -0.0103125
v 0.002018655 -0.011066475 -0.0140625
v 0.001761015 -0.01111008 -0.0103125
v 0.001761015 -0.01111008 -0.0140625
v 0.00150201 -0.01114788 -0.0103125
v 0.00150201 -0.01114788 -0.0140625
v 0.001242045 -0.011179815 -0.0103125
v 0.001242045 -0.011179815 -0.0140625
v 0.000981555 -0.01120584 -0.0103125
v 0.000981555 -0.01120584 -0.0140625
v 0.00072093 -0.01122591 -0.0103125
v 0.00072093 -0.01122591 -0.0140625
v 0.000460605 -0.01123995 -0.0103125
v 0.000460605 -0.01123995 -0.0140625
v 0.000200955 -0.011247945 -0.0103125
v 0.000200955 -0.011247945 -0.0140625
v -5.757e-05 -0.01124982 -0.0103125
v -5.757e-05 -0.01124982 -0.0140625
v -0.000315105 -0.011245545 -0.0103125
v -0.000315105 -0.011245545 -0.0140625
v -0.000573615 -0.01123506 -0.0103125
v -0.000573615 -0.01123506 -0.0140625
v -0.000832995 -0.011218455 -0.0103125
v -0.000832995 -0.011218455 -0.0140625
v -0.00109284 -0.011195775 -0.0103125
v -0.00109284 -0.011195775 -0.0140625
v -0.00135273 -0.01116708 -0.0103125
v -0.00135273 -0.01116708 -0.0140625
v -0.00161226 -0.011132445 -0.0103125
v -0.00161226 -0.011132445 -0.0140625
v -0.00187101 -0.01109193 -0.0103125
v -0.00187101 -0.01109193 -0.0140625
v -0.002128575 -0.011045595 -0.0103125
v -0.002128575 -0.011045595 -0.0140625
v -0.00238455 -0.010993485 -0.0103125
v -0.00238455 -0.010993485 -0.0140625
v -0.00263853 -0.01093569 -0.0103125
v -0.00263853 -0.01093569 -0.0140625
v -0.002890095 -0.010872255 -0.0103125
v -0.002890095 -0.010872255 -0.0140625
v -0.00313884 -0.01080324 -0.0103125
v -0.00313884 -0.01080324 -0.0140625
v -0.003385485 -0.010728405 -0.0103125
v -0.003385485 -0.010728405 -0.0140625
v -0.00363156 -0.010647315 -0.0103125
v -0.00363156 -0.010647315 -0.0140625
v -0.00387672 -0.01056012 -0.0103125
v -0.00387672 -0.01056012 -0.0140625
v -0.00412059 -0.010467015 -0.0103125
v -0.00412059 -0.010467015 -0.0140625
v -0.00436278 -0.01036815 -0.0103125
v -0.00436278 -0.01036815 -0.0140625
v -0.00460293 -0.010263705 -0.0103125
v -0.00460293 -0.010263705 -0.0140625
v -0.00484065 -0.010153845 -0.0103125
v -0.00484065 -0.010153845 -0.0140625
v -0.005075565 -0.010038735 -0.0103125
v -0.005075565 -0.010038735 -0.0140625
v -0.005307285 -0.009918555 -0.0103125
v -0.005307285 -0.009918555 -0.0140625
v -0.00553545 -0.00979347 -0.0103125
v -0.00553545 -0.00979347 -0.0140625
v -0.005759685 -0.00966366 -0.0103125
v -0.005759685 -0.00966366 -0.0140625
v -0.005979615 -0.00952926 -0.0103125
v -0.005979615 -0.00952926 -0.0140625
v -0.00619659 -0.0093894 -0.0103125
v -0.00619659 -0.0093894 -0.0140625
v -0.00641127 -0.009243735 -0.0103125
v -0.00641127 -0.009243735 -0.0140625
v -0.006623355 -0.00909252 -0.0103125
v -0.006623355 -0.00909252 -0.0140625
v -0.006832515 -0.008936025 -0.0103125
v -0.006832515 -0.008936025 -0.0140625
v -0.007038435 -0.008774505 -0.0103125
v -0.007038435 -0.008774505 -0.0140625
v -0.007240785 -0.008608245 -0.0103125
v -0.007240785 -0.008608245 -0.0140625
v -0.007439265 -0.00843747 -0.0103125
v -0.007439265 -0.00843747 -0.0140625
v -0.007633545 -0.008262495 -0.0103125
v -0.007633545 -0.008262495 -0.0140625
v -0.007823295 -0.008083545 -0.0103125
v -0.007823295 -0.008083545 -0.0140625
v -0.008008215 -0.00790089 -0.0103125
v -0.008008215 -0.00790089 -0.0140625
v -0.00818799 -0.007714815 -0.0103125
v -0.00818799 -0.007714815 -0.0140625
v -0.00836247 -0.00752535 -0.0103125
v -0.00836247 -0.00752535 -0.0140625
v -0.00853302 -0.00733104 -0.0103125
v -0.00853302 -0.00733104 -0.0140625
v -0.008699745 -0.007131855 -0.0103125
v -0.008699745 -0.007131855 -0.0140625
v -0.008862405 -0.006928095 -0.0103125
v -0.008862405 -0.006928095 -0.0140625
v -0.00902076 -0.006720135 -0.0103125
v -0.00902076 -0.006720135 -0.0140625
v -0.009174585 -0.006508305 -0.0103125
v -0.009174585 -0.006508305 -0.0140625
v -0.00932364 -0.006292935 -0.0103125
v -0.00932364 -0.006292935 -0.0140625
v -0.00946767 -0.006074385 -0.0103125
v -0.00946767 -0.006074385 -0.0140625
v -0.00960648 -0.005852985 -0.0103125
v -0.00960648 -0.005852985 -0.0140625
v -0.009739785 -0.00562908 -0.0103125
v -0.009739785 -0.00562908 -0.0140625
v -0.00986739 -0.005403 -0.0103125
v -0.00986739 -0.005403 -0.0140625
v -0.009989025 -0.00517509 -0.0103125
v -0.009989025 -0.00517509 -0.0140625
v -0.010104855 -0.00494496 -0.0103125
v -0.010104855 -0.00494496 -0.0140625
v -0.010215735 -0.00471099 -0.0103125
v -0.010215735 -0.00471099 -0.0140625
v -0.01032156 -0.004473435 -0.0103125
v -0.01032156 -0.004473435 -0.0140625
v -0.010422225 -0.0042327 -0.0103125
v -0.010422225 -0.0042327 -0.0140625
v -0.01051758 -0.003989175 -0.0103125
v -0.01051758 -0.003989175 -0.0140625
v -0.01060749 -0.003743235 -0.0103125
v -0.01060749 -0.003743235 -0.0140625
v -0.01069182 -0.003495285 -0.0103125
v -0.01069182 -0.003495285 -0.0140625
v -0.01077042 -0.003245715 -0.0103125
v -0.01077042 -0.003245715 -0.0140625
v -0.01084317 -0.002994915 -0.0103125
v -0.01084317 -0.002994915 -0.0140625
v -0.010909935 -0.00274329 -0.0103125
v -0.010909935 -0.00274329 -0.0140625
v -0.010970565 -0.002491215 -0.0103125
v -0.010970565 -0.002491215 -0.0140625
v -0.011024925 -0.002239065 -0.0103125
v -0.011024925 -0.002239065 -0.0140625
v -0.011073225 -0.0019857 -0.0103125
v -0.011073225 -0.0019857 -0.0140625
v -0.011115735 -0.00172995 -0.0103125
v -0.011115735 -0.00172995 -0.0140625
v -0.011152425 -0.001472205 -0.0103125
v -0.011152425 -0.001472205 -0.0140625
v -0.01118328 -0.0012129 -0.0103125
v -0.01118328 -0.0012129 -0.0140625
v -0.011208255 -0.00095244 -0.0103125
v -0.011200845 -0.001050495 -0.01210548
v -0.011200815 -0.00105081 -0.01226595
v -0.01120296 -0.00102774 -0.01195062
v -0.011207115 -0.0009813 -0.011802165
v -0.011212935 -0.00091239 -0.011659305
v -0.01122732 -0.000691245 -0.0103125
v -0.0112197 -0.00082503 -0.01153047
v -0.011227095 -0.000717585 -0.01141608
v -0.01123443 -0.000591645 -0.011315715
v -0.011240475 -0.00042972 -0.0103125
v -0.01124076 -0.000456015 -0.011236485
v -0.01124562 -0.000313665 -0.01118079
v -0.011247675 -0.000168285 -0.0103125
v -0.011248845 -0.000161655 -0.01114623
v -0.011248905 9.2655e-05 -0.0103125
v -0.01125 0 -0.01113282
v -0.0112488 0.00016431 -0.011147505
v -0.01124412 0.000352665 -0.0103125
v -0.0112455 0.00031791 -0.01118283
v -0.011240565 0.0004608 -0.01123881
v -0.011233305 0.000611355 -0.0103125
v -0.011234235 0.000595365 -0.011317425
v -0.01122699 0.000719205 -0.011416695
v -0.011216415 0.00086844 -0.0103125
v -0.0112197 0.00082512 -0.011530575
v -0.011212935 0.000912375 -0.011660175
v -0.011193315 0.001125735 -0.0103125
v -0.011207085 0.00098178 -0.011804385
v -0.011202885 0.001028475 -0.011953845
v -0.011200815 0.00105081 -0.01210905
v -0.011200845 0.001050495 -0.01226952
v -0.011193315 0.001125735 -0.0140625
v -0.01116402 0.00138369 -0.0103125
v -0.011216415 0.00086844 -0.0140625
v -0.01120296 0.00102774 -0.01242438
v -0.011207115 0.0009813 -0.012572835
v -0.011212935 0.00091239 -0.012715695
v -0.0112197 0.00082503 -0.01284453
v -0.011233305 0.000611355 -0.0140625
v -0.011227095 0.000717585 -0.01295892
v -0.01123443 0.000591645 -0.013059285
v -0.01124412 0.000352665 -0.0140625
v -0.01124076 0.000456015 -0.013138515
v -0.01124562 0.000313665 -0.01319421
v -0.011248905 9.2655e-05 -0.0140625
v -0.011248845 0.000161655 -0.01322877
v -0.01125 0 -0.013242195
v -0.011247675 -0.000168285 -0.0140625
v -0.0112488 -0.00016431 -0.013227495
v -0.0112455 -0.00031791 -0.01319217
v -0.011240475 -0.00042972 -0.0140625
v -0.011240565 -0.0004608 -0.01313619
v -0.01122732 -0.000691245 -0.0140625
v -0.011234235 -0.000595365 -0.013057575
v -0.01122699 -0.000719205 -0.012958305
v -0.011208255 -0.00095244 -0.0140625
v -0.0112197 -0.00082512 -0.012844425
v -0.011212935 -0.000912375 -0.012714825
v -0.011207085 -0.00098178 -0.012570615
v -0.011202885 -0.001028475 -0.012421155
v -0.01116402 0.00138369 -0.0140625
v -0.01112862 0.001641855 -0.0103125
v -0.01112862 0.001641855 -0.0140625
v -0.011087175 0.00189987 -0.0103125
v -0.011087175 0.00189987 -0.0140625
v -0.011039805 0.0021573 -0.0103125
v -0.011039805 0.0021573 -0.0140625
v -0.01098657 0.00241374 -0.0103125
v -0.01098657 0.00241374 -0.0140625
v -0.010927575 0.0026688 -0.0103125
v -0.010927575 0.0026688 -0.0140625
v -0.01086288 0.00292206 -0.0103125
v -0.01086288 0.00292206 -0.0140625
v -0.01079259 0.003173115 -0.0103125
v -0.01079259 0.003173115 -0.0140625
v -0.010716795 0.003421575 -0.0103125
v -0.010716795 0.003421575 -0.0140625
v -0.010635555 0.003667005 -0.0103125
v -0.010635555 0.003667005 -0.0140625
v -0.010548795 0.003909525 -0.0103125
v -0.010548795 0.003909525 -0.0140625
v -0.010455855 0.004150995 -0.0103125
v -0.010455855 0.004150995 -0.0140625
v -0.01035684 0.00439131 -0.0103125
v -0.01035684 0.00439131 -0.0140625
v -0.010251915 0.004630095 -0.0103125
v -0.010251915 0.004630095 -0.0140625
v -0.01014129 0.004867005 -0.0103125
v -0.01014129 0.004867005 -0.0140625
v -0.01002516 0.005101665 -0.0103125
v -0.01002516 0.005101665 -0.0140625
v -0.00990369 0.0053337 -0.0103125
v -0.00990369 0.0053337 -0.0140625
v -0.009777105 0.00556275 -0.0103125
v -0.009777105 0.00556275 -0.0140625
v -0.009645555 0.00578844 -0.0103125
v -0.009645555 0.00578844 -0.0140625
v -0.009509265 0.00601041 -0.0103125
v -0.009509265 0.00601041 -0.0140625
v -0.009368415 0.006228285 -0.0103125
v -0.009368415 0.006228285 -0.0140625
v -0.009223185 0.00644169 -0.0103125
v -0.009223185 0.00644169 -0.0140625
v -0.009073095 0.00665124 -0.0103125
v -0.009073095 0.00665124 -0.0140625
v -0.008917275 0.00685824 -0.0103125
v -0.008917275 0.00685824 -0.0140625
v -0.00875598 0.00706242 -0.0103125
v -0.00875598 0.00706242 -0.0140625
v -0.008589495 0.00726348 -0.0103125
v -0.008589495 0.00726348 -0.0140625
v -0.008418105 0.007461105 -0.0103125
v -0.008418105 0.007461105 -0.0140625
v -0.008242065 0.007654995 -0.0103125
v -0.008242065 0.007654995 -0.0140625
v -0.00806169 0.00784485 -0.0103125
v -0.00806169 0.00784485 -0.0140625
v -0.00787725 0.008030355 -0.0103125
v -0.00787725 0.008030355 -0.0140625
v -0.00768903 0.008211225 -0.0103125
v -0.00768903 0.008211225 -0.0140625
v -0.0074973 0.00838713 -0.0103125
v -0.0074973 0.00838713 -0.0140625
v -0.007302345 0.0085578 -0.0103125
v -0.007302345 0.0085578 -0.0140625
v -0.007104435 0.00872292 -0.0103125
v -0.007104435 0.00872292 -0.0140625
v -0.006902325 0.008883495 -0.0103125
v -0.006902325 0.008883495 -0.0140625
v -0.00669543 0.009040035 -0.0103125
v -0.00669543 0.009040035 -0.0140625
v -0.006484125 0.00919233 -0.0103125
v -0.006484125 0.00919233 -0.0140625
v -0.006268755 0.00934017 -0.0103125
v -0.006268755 0.00934017 -0.0140625
v -0.006049665 0.009483315 -0.0103125
v -0.006049665 0.009483315 -0.0140625
v -0.005827215 0.009621555 -0.0103125
v -0.005827215 0.009621555 -0.0140625
v -0.005601765 0.00975468 -0.0103125
v -0.005601765 0.00975468 -0.0140625
v -0.00537366 0.00988248 -0.0103125
v -0.00537366 0.00988248 -0.0140625
v -0.00514326 0.01000473 -0.0103125
v -0.00514326 0.01000473 -0.0140625
v -0.004910895 0.010121205 -0.0103125
v -0.004910895 0.010121205 -0.0140625
v -0.004676955 0.010231695 -0.0103125
v -0.004676955 0.010231695 -0.0140625
v -0.004441485 0.01033611 -0.0103125
v -0.004441485 0.01033611 -0.0140625
v -0.004202715 0.01043523 -0.0103125
v -0.004202715 0.01043523 -0.0140625
v -0.003960525 0.010529145 -0.0103125
v -0.003960525 0.010529145 -0.0140625
v -0.003715335 0.010617765 -0.0103125
v -0.003715335 0.010617765 -0.0140625
v -0.003467535 0.010700955 -0.0103125
v -0.003467535 0.010700955 -0.0140625
v -0.00321753 0.01077861 -0.0103125
v -0.00321753 0.01077861 -0.0140625
v -0.00296571 0.01085061 -0.0103125
v -0.00296571 0.01085061 -0.0140625
v -0.00271248 0.01091685 -0.0103125
v -0.00271248 0.01091685 -0.0140625
v -0.00245823 0.010977195 -0.0103125
v -0.00245823 0.010977195 -0.0140625
v -0.002203365 0.011031555 -0.0103125
v -0.002203365 0.011031555 -0.0140625
v -0.001948275 0.011079795 -0.0103125
v -0.001948275 0.011079795 -0.0140625
v -0.00169338 0.01112181 -0.0103125
v -0.00169338 0.01112181 -0.0140625
v -0.001438635 0.0111576 -0.0103125
v -0.001438635 0.0111576 -0.0140625
v -0.001183095 0.011187465 -0.0103125
v -0.001183095 0.011187465 -0.0140625
v -0.000926685 0.01121139 -0.0103125
v -0.000926685 0.01121139 -0.0140625
v -0.00066942 0.01122939 -0.0103125
v -0.00066942 0.01122939 -0.0140625
v -0.000411285 0.011241465 -0.0103125
v -0.000411285 0.011241465 -0.0140625
v -0.000152295 0.011247615 -0.0103125
v -0.000152295 0.011247615 -0.0140625
v 0.000107565 0.011247825 -0.0103125
v 0.000107565 0.011247825 -0.0140625
v 0.00036828 0.011242125 -0.0103125
v 0.00036828 0.011242125 -0.0140625
v 0.000629865 0.0112305 -0.0103125
v 0.000629865 0.0112305 -0.0140625
v 0.000892305 0.011212935 -0.0103125
v 0.000892305 0.011212935 -0.0140625
v 0.001155615 0.01118946 -0.0103125
v 0.001155615 0.01118946 -0.0140625
v 0.00141978 0.011160045 -0.0103125
v 0.00141978 0.011160045 -0.0140625
v 0.00188736 0.01109664 -0.0103125
v 0.00188736 0.01109664 -0.0140625
v 0.002352765 0.011027835 -0.0103125
v 0.002352765 0.011027835 -0.0140625
v 0.002816025 0.01095363 -0.0103125
v 0.002816025 0.01095363 -0.0140625
v 0.00327714 0.01087401 -0.0103125
v 0.00327714 0.01087401 -0.0140625
v 0.00373608 0.01078899 -0.0103125
v 0.00373608 0.01078899 -0.0140625
v 0.00419289 0.01069857 -0.0103125
v 0.00419289 0.01069857 -0.0140625
v 0.004647525 0.01060275 -0.0103125
v 0.004647525 0.01060275 -0.0140625
v 0.005100015 0.010501515 -0.0103125
v 0.005100015 0.010501515 -0.0140625
v 0.005550345 0.010394895 -0.0103125
v 0.005550345 0.010394895 -0.0140625
v 0.00599853 0.01028286 -0.0103125
v 0.00599853 0.01028286 -0.0140625
v 0.006444555 0.010165425 -0.0103125
v 0.006444555 0.010165425 -0.0140625
v 0.006888435 0.01004259 -0.0103125
v 0.006888435 0.01004259 -0.0140625
v 0.00733014 0.00991434 -0.0103125
v 0.00733014 0.00991434 -0.0140625
v 0.007769715 0.009780705 -0.0103125
v 0.007769715 0.009780705 -0.0140625
v 0.00820713 0.00964164 -0.0103125
v 0.00820713 0.00964164 -0.0140625
v 0.00864258 0.009497115 -0.0103125
v 0.00864258 0.009497115 -0.0140625
v 0.00907605 0.0093471 -0.0103125
v 0.00907605 0.0093471 -0.0140625
v 0.009507495 0.009191625 -0.0103125
v 0.009507495 0.009191625 -0.0140625
v 0.00993687 0.00903072 -0.0103125
v 0.00993687 0.00903072 -0.0140625
v 0.01036413 0.0088644 -0.0103125
v 0.01036413 0.0088644 -0.0140625
v 0.0107892 0.00869268 -0.0103125
v 0.0107892 0.00869268 -0.0140625
v 0.011212035 0.00851559 -0.0103125
v 0.011212035 0.00851559 -0.0140625
v 0.011632605 0.00833316 -0.0103125
v 0.011632605 0.00833316 -0.0140625
v 0.012050835 0.00814539 -0.0103125
v 0.012050835 0.00814539 -0.0140625
v 0.01246668 0.007952325 -0.0103125
v 0.01246668 0.007952325 -0.0140625
v 0.012880095 0.007753965 -0.0103125
v 0.012880095 0.007753965 -0.0140625
v 0.01329102 0.007550355 -0.0103125
v 0.01329102 0.007550355 -0.0140625
v 0.01369941 0.007341495 -0.0103125
v 0.01369941 0.007341495 -0.0140625
v 0.01410522 0.007127415 -0.0103125
v 0.01410522 0.007127415 -0.0140625
v 0.014508435 0.00690813 -0.0103125
v 0.014508435 0.00690813 -0.0140625
v 0.014909235 0.00668355 -0.0103125
v 0.014909235 0.00668355 -0.0140625
v 0.01530762 0.006453675 -0.0103125
v 0.01530762 0.006453675 -0.0140625
v 0.015703605 0.00621849 -0.0103125
v 0.015703605 0.00621849 -0.0140625
v 0.01609719 0.005978025 -0.0103125
v 0.01609719 0.005978025 -0.0140625
v 0.01648836 0.005732265 -0.0103125
v 0.01648836 0.005732265 -0.0140625
v 0.01687713 0.005481195 -0.0103125
v 0.01687713 0.005481195 -0.0140625
v 0.017263485 0.005224845 -0.0103125
v 0.017263485 0.005224845 -0.0140625
v 0.01764744 0.004963185 -0.0103125
v 0.01764744 0.004963185 -0.0140625
v 0.018028995 0.004696245 -0.0103125
v 0.018028995 0.004696245 -0.0140625
v 0.018408135 0.004423995 -0.0103125
v 0.018408135 0.004423995 -0.0140625
v 0.01878486 0.004146465 -0.0103125
v 0.01878486 0.004146465 -0.0140625
v 0.0191592 0.003863625 -0.0103125
v 0.0191592 0.003863625 -0.0140625
v 0.019531125 0.00357549 -0.0103125
v 0.01687713 0.005481195 -0.0140625
v 0.016796595 0.00011049 -0.0140625
v 0.01678125 0 -0.0140625
v 0.01683042 0.00020754 -0.0140625
v 0.0165327 -0.004157325 -0.0140625
v 0.01648836 0.005732265 -0.0140625
v 0.016796595 -0.00011049 -0.0140625
v 0.01683042 -0.00020754 -0.0140625
v 0.01685778 -0.004198095 -0.0140625
v 0.01688292 -0.00029133 -0.0140625
v 0.016958175 -0.0003648 -0.0140625
v 0.017048655 -0.000422475 -0.0140625
v 0.017144115 -0.00045624 -0.0140625
v 0.01717806 -0.004215765 -0.0140625
v 0.01725 -0.0004671 -0.0140625
v 0.017355885 -0.00045624 -0.0140625
v 0.017451345 -0.000422475 -0.0140625
v 0.017493525 -0.00421032 -0.0140625
v 0.017541825 -0.0003648 -0.0140625
v 0.01761708 -0.00029133 -0.0140625
v 0.01766958 -0.00020754 -0.0140625
v 0.017703405 -0.00011049 -0.0140625
v 0.01771875 0 -0.0140625
v 0.017804175 -0.00418179 -0.0140625
v 0.018028995 0.004696245 -0.0140625
v 0.017703405 0.00011049 -0.0140625
v 0.018110025 -0.00413016 -0.0140625
v 0.018408135 0.004423995 -0.0140625
v 0.018414315 -0.004054065 -0.0140625
v 0.01878486 0.004146465 -0.0140625
v 0.01871706 -0.00395352 -0.0140625
v 0.01901337 -0.003830565 -0.0140625
v 0.0191592 0.003863625 -0.0140625
v 0.01929834 -0.003687195 -0.0140625
v 0.019531125 0.00357549 -0.0140625
v 0.019567095 -0.003525465 -0.0140625
v 0.019900635 0.003282075 -0.0140625
v 0.01982217 -0.003342915 -0.0140625
v 0.020066805 -0.003138195 -0.0140625
v 0.020145765 0.003064695 -0.0140625
v 0.02029722 -0.002914965 -0.0140625
v 0.020370375 0.00283569 -0.0140625
v 0.02050962 -0.002676945 -0.0140625
v 0.020574435 0.002595045 -0.0140625
v 0.020700165 -0.002427795 -0.0140625
v 0.020757975 0.00234279 -0.0140625
v 0.02087034 -0.00216432 -0.0140625
v 0.02092098 0.002078895 -0.0140625
v 0.02102268 -0.00188403 -0.0140625
v 0.021064575 0.00180003 -0.0140625
v 0.02115498 -0.001591785 -0.0140625
v 0.021188775 0.00150621 -0.0140625
v 0.02126508 -0.00129237 -0.0140625
v 0.021291885 0.001202415 -0.0140625
v 0.02135079 -0.000990645 -0.0140625
v 0.021372195 0.000893685 -0.0140625
v 0.021412275 -0.00068307 -0.0140625
v 0.021427995 0.00058503 -0.0140625
v 0.02145099 -0.00036642 -0.0140625
v 0.02145912 0.00027291 -0.0140625
v 0.021466695 -4.6005e-05 -0.0140625
v 0.01766958 0.00020754 -0.0140625
v 0.01764744 0.004963185 -0.0140625
v 0.01761708 0.00029133 -0.0140625
v 0.017541825 0.0003648 -0.0140625
v 0.017451345 0.000422475 -0.0140625
v 0.017355885 0.00045624 -0.0140625
v 0.017263485 0.005224845 -0.0140625
v 0.01725 0.0004671 -0.0140625
v 0.017144115 0.00045624 -0.0140625
v 0.017048655 0.000422475 -0.0140625
v 0.016958175 0.0003648 -0.0140625
v 0.01688292 0.00029133 -0.0140625
v 0.01640052 -0.00413646 -0.0140625
v 0.016269015 -0.004118085 -0.0140625
v 0.01613817 -0.00410217 -0.0140625
v 0.01609719 0.005978025 -0.0140625
v 0.016008 -0.00408873 -0.0140625
v 0.015878505 -0.00407778 -0.0140625
v 0.01574967 -0.00406929 -0.0140625
v 0.015703605 0.00621849 -0.0140625
v 0.01562151 -0.004063275 -0.0140625
v 0.01549401 -0.004059735 -0.0140625
v 0.015367185 -0.00405867 -0.0140625
v 0.01530762 0.006453675 -0.0140625
v 0.015241035 -0.00406008 -0.0140625
v 0.015115545 -0.004063965 -0.0140625
v 0.01499073 -0.004070325 -0.0140625
v 0.014909235 0.00668355 -0.0140625
v 0.014866575 -0.00407916 -0.0140625
v 0.0147432 -0.004090455 -0.0140625
v 0.014621115 -0.00410418 -0.0140625
v 0.014508435 0.00690813 -0.0140625
v 0.01450023 -0.004120335 -0.0140625
v 0.01438038 -0.004138935 -0.0140625
v 0.014261385 -0.00416001 -0.0140625
v 0.014143065 -0.004183545 -0.0140625
v 0.01410522 0.007127415 -0.0140625
v 0.014025225 -0.00420957 -0.0140625
v 0.013907685 -0.0042381 -0.0140625
v 0.01379028 -0.004269135 -0.0140625
v 0.01369941 0.007341495 -0.0140625
v 0.013672815 -0.004302705 -0.0140625
v 0.01355511 -0.004338825 -0.0140625
v 0.013436985 -0.00437751 -0.0140625
v 0.01331826 -0.004418745 -0.0140625
v 0.01329102 0.007550355 -0.0140625
v 0.013198755 -0.00446259 -0.0140625
v 0.013078845 -0.00450909 -0.0140625
v 0.012958995 -0.00455829 -0.0140625
v 0.012880095 0.007753965 -0.0140625
v 0.012839145 -0.00461016 -0.0140625
v 0.012719235 -0.00466464 -0.0140625
v 0.012599205 -0.00472167 -0.0140625
v 0.012478995 -0.00478122 -0.0140625
v 0.01246668 0.007952325 -0.0140625
v 0.01235856 -0.00484323 -0.0140625
v 0.012237825 -0.004907655 -0.0140625
v 0.01211673 -0.00497445 -0.0140625
v 0.012050835 0.00814539 -0.0140625
v 0.011995215 -0.00504357 -0.0140625
v 0.011873235 -0.005114955 -0.0140625
v 0.011750715 -0.005188545 -0.0140625
v 0.011632605 0.00833316 -0.0140625
v 0.01162761 -0.005264325 -0.0140625
v 0.01150395 -0.00534234 -0.0140625
v 0.01138029 -0.005423205 -0.0140625
v 0.011256615 -0.005506905 -0.0140625
v 0.011212035 0.00851559 -0.0140625
v 0.01113279 -0.005593245 -0.0140625
v 0.011008695 -0.005682075 -0.0140625
v 0.010884165 -0.005773215 -0.0140625
v 0.0107892 0.00869268 -0.0140625
v 0.010759095 -0.005866515 -0.0140625
v 0.01063335 -0.005961795 -0.0140625
v 0.010538505 -0.006034455 -0.0140625
v 0.010443165 -0.006108075 -0.0140625
v 0.01036413 0.0088644 -0.0140625
v 0.01034724 -0.006182565 -0.0140625
v 0.0102507 -0.006257865 -0.0140625
v 0.010153485 -0.006333915 -0.0140625
v 0.01005552 -0.006410625 -0.0140625
v 0.009956775 -0.00648795 -0.0140625
v 0.00993687 0.00903072 -0.0140625
v 0.009857175 -0.006565785 -0.0140625
v 0.009757185 -0.00664464 -0.0140625
v 0.009657195 -0.006724965 -0.0140625
v 0.009557115 -0.006806625 -0.0140625
v 0.009507495 0.009191625 -0.0140625
v 0.009456825 -0.006889515 -0.0140625
v 0.00935619 -0.00697353 -0.0140625
v 0.009255105 -0.007058535 -0.0140625
v 0.00915345 -0.007144425 -0.0140625
v 0.00907605 0.0093471 -0.0140625
v 0.00905112 -0.007231065 -0.0140625
v 0.00894798 -0.007318365 -0.0140625
v 0.00884391 -0.007406205 -0.0140625
v 0.00873882 -0.00749445 -0.0140625
v 0.00864258 0.009497115 -0.0140625
v 0.008632575 -0.00758301 -0.0140625
v 0.00852507 -0.007671735 -0.0140625
v 0.00841617 -0.007760535 -0.0140625
v 0.00830577 -0.00784929 -0.0140625
v 0.00820713 0.00964164 -0.0140625
v 0.00819375 -0.00793788 -0.0140625
v 0.008080005 -0.008026185 -0.0140625
v 0.0079644 -0.0081141 -0.0140625
v 0.00784719 -0.008201865 -0.0140625
v 0.007769715 0.009780705 -0.0140625
v 0.007728735 -0.00828981 -0.0140625
v 0.00760899 -0.00837795 -0.0140625
v 0.007487985 -0.00846627 -0.0140625
v 0.00736572 -0.00855477 -0.0140625
v 0.00733014 0.00991434 -0.0140625
v 0.007242165 -0.00864345 -0.0140625
v 0.007117365 -0.008732325 -0.0140625
v 0.00699129 -0.00882138 -0.0140625
v 0.006888435 0.01004259 -0.0140625
v 0.00686394 -0.008910615 -0.0140625
v 0.00673533 -0.009000045 -0.0140625
v 0.006605445 -0.009089655 -0.0140625
v 0.0064743 -0.009179445 -0.0140625
v 0.006444555 0.010165425 -0.0140625
v 0.00634188 -0.009269415 -0.0140625
v 0.006208185 -0.00935958 -0.0140625
v 0.00607323 -0.00944991 -0.0140625
v 0.00599853 0.01028286 -0.0140625
v 0.005937015 -0.00954045 -0.0140625
v 0.005799525 -0.009631155 -0.0140625
v 0.00566076 -0.009722055 -0.0140625
v 0.005550345 0.010394895 -0.0140625
v 0.005428995 -0.00985218 -0.0140625
v 0.005195715 -0.009976515 -0.0140625
v 0.005100015 0.010501515 -0.0140625
v 0.004960905 -0.01009506 -0.0140625
v 0.00472458 -0.010207815 -0.0140625
v 0.004647525 0.01060275 -0.0140625
v 0.00448674 -0.010314765 -0.0140625
v 0.004247385 -0.010415925 -0.0140625
v 0.00419289 0.01069857 -0.0140625
v 0.004006515 -0.010511295 -0.0140625
v 0.00376413 -0.010600875 -0.0140625
v 0.00373608 0.01078899 -0.0140625
v 0.003520215 -0.010684665 -0.0140625
v 0.00327714 0.01087401 -0.0140625
v 0.003274785 -0.01076265 -0.0140625
v 0.00302784 -0.010834845 -0.0140625
v 0.002816025 0.01095363 -0.0140625
v 0.00277932 -0.010901265 -0.0140625
v 0.00252822 -0.010962015 -0.0140625
v 0.002352765 0.011027835 -0.0140625
v 0.00227454 -0.011017095 -0.0140625
v 0.002018655 -0.011066475 -0.0140625
v 0.00188736 0.01109664 -0.0140625
v 0.001875 0 -0.0140625
v 0.001761015 -0.01111008 -0.0140625
v 0.00185994 0.00021849 -0.0140625
v 0.001823985 0.0004269 -0.0140625
v 0.001767105 0.00062526 -0.0140625
v 0.001689315 0.000813525 -0.0140625
v 0.0015882 0.00099477 -0.0140625
v 0.00146457 0.001167945 -0.0140625
v 0.00141978 0.011160045 -0.0140625
v 0.00132324 0.00132702 -0.0140625
v 0.00116904 0.001465935 -0.0140625
v 0.001155615 0.01118946 -0.0140625
v 0.0009993 0.00158535 -0.0140625
v 0.000892305 0.011212935 -0.0140625
v 0.000812775 0.00168774 -0.0140625
v 0.000629865 0.0112305 -0.0140625
v 0.000616425 0.001769745 -0.0140625
v 0.000417225 0.00182799 -0.0140625
v 0.00036828 0.011242125 -0.0140625
v 0.00021249 0.001861935 -0.0140625
v 0.000107565 0.011247825 -0.0140625
v 0 0.001873245 -0.0140625
v -0.000152295 0.011247615 -0.0140625
v -0.00021249 0.001861935 -0.0140625
v -0.000411285 0.011241465 -0.0140625
v -0.000417225 0.00182799 -0.0140625
v -0.000616425 0.001769745 -0.0140625
v -0.00066942 0.01122939 -0.0140625
v -0.000812775 0.00168774 -0.0140625
v -0.000926685 0.01121139 -0.0140625
v -0.0009993 0.00158535 -0.0140625
v -0.00116904 0.001465935 -0.0140625
v -0.001183095 0.011187465 -0.0140625
v -0.00132324 0.00132702 -0.0140625
v -0.001438635 0.0111576 -0.0140625
v -0.00146457 0.001167945 -0.0140625
v -0.0015882 0.00099477 -0.0140625
v -0.001689315 0.000813525 -0.0140625
v -0.00169338 0.01112181 -0.0140625
v -0.001767105 0.00062526 -0.0140625
v -0.001823985 0.0004269 -0.0140625
v -0.00185994 0.00021849 -0.0140625
v -0.001875 0 -0.0140625
v -0.001948275 0.011079795 -0.0140625
v -0.002128575 -0.011045595 -0.0140625
v -0.002203365 0.011031555 -0.0140625
v -0.00187101 -0.01109193 -0.0140625
v -0.00185994 -0.00021849 -0.0140625
v -0.001823985 -0.0004269 -0.0140625
v -0.001767105 -0.00062526 -0.0140625
v -0.001689315 -0.000813525 -0.0140625
v -0.00161226 -0.011132445 -0.0140625
v -0.0015882 -0.00099477 -0.0140625
v -0.00146457 -0.001167945 -0.0140625
v -0.00135273 -0.01116708 -0.0140625
v -0.00132324 -0.00132702 -0.0140625
v -0.00116904 -0.001465935 -0.0140625
v -0.00109284 -0.011195775 -0.0140625
v -0.0009993 -0.00158535 -0.0140625
v -0.000832995 -0.011218455 -0.0140625
v -0.000812775 -0.00168774 -0.0140625
v -0.000616425 -0.001769745 -0.0140625
v -0.000573615 -0.01123506 -0.0140625
v -0.000417225 -0.00182799 -0.0140625
v -0.000315105 -0.011245545 -0.0140625
v -0.00021249 -0.001861935 -0.0140625
v -5.757e-05 -0.01124982 -0.0140625
v 0 -0.001873245 -0.0140625
v 0.000200955 -0.011247945 -0.0140625
v 0.00021249 -0.001861935 -0.0140625
v 0.000417225 -0.00182799 -0.0140625
v 0.000460605 -0.01123995 -0.0140625
v 0.000616425 -0.001769745 -0.0140625
v 0.00072093 -0.01122591 -0.0140625
v 0.000812775 -0.00168774 -0.0140625
v 0.000981555 -0.01120584 -0.0140625
v 0.0009993 -0.00158535 -0.0140625
v 0.00116904 -0.001465935 -0.0140625
v 0.001242045 -0.011179815 -0.0140625
v 0.00132324 -0.00132702 -0.0140625
v 0.00146457 -0.001167945 -0.0140625
v 0.00150201 -0.01114788 -0.0140625
v 0.0015882 -0.00099477 -0.0140625
v 0.001689315 -0.000813525 -0.0140625
v 0.001767105 -0.00062526 -0.0140625
v 0.001823985 -0.0004269 -0.0140625
v 0.00185994 -0.00021849 -0.0140625
v -0.00238455 -0.010993485 -0.0140625
v -0.00245823 0.010977195 -0.0140625
v -0.00263853 -0.01093569 -0.0140625
v -0.00271248 0.01091685 -0.0140625
v -0.002890095 -0.010872255 -0.0140625
v -0.00296571 0.01085061 -0.0140625
v -0.00313884 -0.01080324 -0.0140625
v -0.00321753 0.01077861 -0.0140625
v -0.003385485 -0.010728405 -0.0140625
v -0.003467535 0.010700955 -0.0140625
v -0.00363156 -0.010647315 -0.0140625
v -0.003715335 0.010617765 -0.0140625
v -0.00387672 -0.01056012 -0.0140625
v -0.003960525 0.010529145 -0.0140625
v -0.00412059 -0.010467015 -0.0140625
v -0.004202715 0.01043523 -0.0140625
v -0.00436278 -0.01036815 -0.0140625
v -0.004441485 0.01033611 -0.0140625
v -0.00460293 -0.010263705 -0.0140625
v -0.004676955 0.010231695 -0.0140625
v -0.00484065 -0.010153845 -0.0140625
v -0.004910895 0.010121205 -0.0140625
v -0.005075565 -0.010038735 -0.0140625
v -0.00514326 0.01000473 -0.0140625
v -0.005307285 -0.009918555 -0.0140625
v -0.00537366 0.00988248 -0.0140625
v -0.00553545 -0.00979347 -0.0140625
v -0.005601765 0.00975468 -0.0140625
v -0.005759685 -0.00966366 -0.0140625
v -0.005827215 0.009621555 -0.0140625
v -0.005979615 -0.00952926 -0.0140625
v -0.006049665 0.009483315 -0.0140625
v -0.00619659 -0.0093894 -0.0140625
v -0.006268755 0.00934017 -0.0140625
v -0.00641127 -0.009243735 -0.0140625
v -0.006484125 0.00919233 -0.0140625
v -0.006623355 -0.00909252 -0.0140625
v -0.00669543 0.009040035 -0.0140625
v -0.006832515 -0.008936025 -0.0140625
v -0.006902325 0.008883495 -0.0140625
v -0.007038435 -0.008774505 -0.0140625
v -0.007104435 0.00872292 -0.0140625
v -0.007240785 -0.008608245 -0.0140625
v -0.007302345 0.0085578 -0.0140625
v -0.007439265 -0.00843747 -0.0140625
v -0.0074973 0.00838713 -0.0140625
v -0.007633545 -0.008262495 -0.0140625
v -0.00768903 0.008211225 -0.0140625
v -0.007823295 -0.008083545 -0.0140625
v -0.00787725 0.008030355 -0.0140625
v -0.008008215 -0.00790089 -0.0140625
v -0.00806169 0.00784485 -0.0140625
v -0.00818799 -0.007714815 -0.0140625
v -0.008242065 0.007654995 -0.0140625
v -0.00836247 -0.00752535 -0.0140625
v -0.008418105 0.007461105 -0.0140625
v -0.00853302 -0.00733104 -0.0140625
v -0.008589495 0.00726348 -0.0140625
v -0.008699745 -0.007131855 -0.0140625
v -0.00875598 0.00706242 -0.0140625
v -0.008862405 -0.006928095 -0.0140625
v -0.008917275 0.00685824 -0.0140625
v -0.00902076 -0.006720135 -0.0140625
v -0.009073095 0.00665124 -0.0140625
v -0.009174585 -0.006508305 -0.0140625
v -0.009223185 0.00644169 -0.0140625
v -0.00932364 -0.006292935 -0.0140625
v -0.009368415 0.006228285 -0.0140625
v -0.00946767 -0.006074385 -0.0140625
v -0.009509265 0.00601041 -0.0140625
v -0.00960648 -0.005852985 -0.0140625
v -0.009645555 0.00578844 -0.0140625
v -0.009739785 -0.00562908 -0.0140625
v -0.009777105 0.00556275 -0.0140625
v -0.00986739 -0.005403 -0.0140625
v -0.00990369 0.0053337 -0.0140625
v -0.009989025 -0.00517509 -0.0140625
v -0.01002516 0.005101665 -0.0140625
v -0.010104855 -0.00494496 -0.0140625
v -0.01014129 0.004867005 -0.0140625
v -0.010215735 -0.00471099 -0.0140625
v -0.010251915 0.004630095 -0.0140625
v -0.01032156 -0.004473435 -0.0140625
v -0.01035684 0.00439131 -0.0140625
v -0.010422225 -0.0042327 -0.0140625
v -0.010455855 0.004150995 -0.0140625
v -0.01051758 -0.003989175 -0.0140625
v -0.010548795 0.003909525 -0.0140625
v -0.01060749 -0.003743235 -0.0140625
v -0.010635555 0.003667005 -0.0140625
v -0.01069182 -0.003495285 -0.0140625
v -0.010716795 0.003421575 -0.0140625
v -0.01077042 -0.003245715 -0.0140625
v -0.01079259 0.003173115 -0.0140625
v -0.01084317 -0.002994915 -0.0140625
v -0.01086288 0.00292206 -0.0140625
v -0.010909935 -0.00274329 -0.0140625
v -0.010927575 0.0026688 -0.0140625
v -0.010970565 -0.002491215 -0.0140625
v -0.01098657 0.00241374 -0.0140625
v -0.011024925 -0.002239065 -0.0140625
v -0.011039805 0.0021573 -0.0140625
v -0.011073225 -0.0019857 -0.0140625
v -0.011087175 0.00189987 -0.0140625
v -0.011115735 -0.00172995 -0.0140625
v -0.01112862 0.001641855 -0.0140625
v -0.011152425 -0.001472205 -0.0140625
v -0.01116402 0.00138369 -0.0140625
v -0.01118328 -0.0012129 -0.0140625
v -0.011193315 0.001125735 -0.0140625
v -0.011208255 -0.00095244 -0.0140625
v -0.011216415 0.00086844 -0.0140625
v -0.01122732 -0.000691245 -0.0140625
v -0.011233305 0.000611355 -0.0140625
v -0.011240475 -0.00042972 -0.0140625
v -0.01124412 0.000352665 -0.0140625
v -0.011247675 -0.000168285 -0.0140625
v -0.011248905 9.2655e-05 -0.0140625
v -0.0112488 -0.00016431 -0.013227495
v -0.001868985 -0.00015012 -0.013230555
v -0.001875 0 -0.013242195
v -0.001851975 -0.000292965 -0.01320033
v -0.01125 0 -0.013242195
v -0.0018684 0.000157125 -0.01322847
v -0.011248845 0.000161655 -0.01322877
v -0.001849965 0.00030537 -0.013195755
v -0.01124562 0.000313665 -0.01319421
v -0.001821675 0.000444015 -0.01314405
v -0.01124076 0.000456015 -0.013138515
v -0.00178476 0.000574695 -0.013071765
v -0.01123443 0.000591645 -0.013059285
v -0.0017409 0.00069636 -0.012979455
v -0.011227095 0.000717585 -0.01295892
v -0.001694865 0.0008019 -0.01287282
v -0.0112197 0.00082503 -0.01284453
v -0.00165099 0.000888735 -0.012754125
v -0.011212935 0.00091239 -0.012715695
v -0.00161001 0.00096099 -0.012620535
v -0.011207115 0.0009813 -0.012572835
v -0.00157728 0.001013805 -0.012479025
v -0.01120296 0.00102774 -0.01242438
v -0.001558035 0.001043145 -0.01233414
v -0.011200845 0.001050495 -0.01226952
v -0.00155235 0.00105159 -0.012180765
v -0.011200815 0.00105081 -0.01210905
v -0.00155952 0.001040925 -0.01202829
v -0.011202885 0.001028475 -0.011953845
v -0.001578675 0.001011645 -0.011886375
v -0.011207085 0.00098178 -0.011804385
v -0.001609725 0.00096147 -0.011751285
v -0.011212935 0.000912375 -0.011660175
v -0.00164904 0.00089235 -0.01162434
v -0.0112197 0.00082512 -0.011530575
v -0.001692555 0.00080679 -0.011508675
v -0.01122699 0.000719205 -0.011416695
v -0.001739445 0.000699975 -0.01140057
v -0.011234235 0.000595365 -0.011317425
v -0.00178431 0.00057606 -0.011305095
v -0.011240565 0.0004608 -0.01123881
v -0.001821705 0.000443865 -0.0112308
v -0.0112455 0.00031791 -0.01118283
v -0.00185007 0.000304725 -0.011178525
v -0.0112488 0.00016431 -0.011147505
v -0.00186846 0.000156525 -0.011145855
v -0.001875 0 -0.01113282
v -0.01125 0 -0.01113282
v -0.00186879 -0.000152505 -0.01114638
v -0.011248845 -0.000161655 -0.01114623
v -0.00185145 -0.000296265 -0.011177145
v -0.01124562 -0.000313665 -0.01118079
v -0.00182487 -0.000430635 -0.0112251
v -0.01124076 -0.000456015 -0.011236485
v -0.00179049 -0.000556575 -0.011291565
v -0.01123443 -0.000591645 -0.011315715
v -0.00174948 -0.000674505 -0.011377245
v -0.011227095 -0.000717585 -0.01141608
v -0.00170565 -0.000778695 -0.01147638
v -0.0112197 -0.00082503 -0.01153047
v -0.001663605 -0.000864885 -0.011584125
v -0.011212935 -0.00091239 -0.011659305
v -0.00162405 -0.00093705 -0.011704185
v -0.011207115 -0.0009813 -0.011802165
v -0.00159021 -0.000993405 -0.01183293
v -0.01120296 -0.00102774 -0.01195062
v -0.001566285 -0.001030725 -0.01196478
v -0.00155355 -0.00104982 -0.01210218
v -0.011200845 -0.001050495 -0.01210548
v -0.001552095 -0.001051965 -0.0122436
v -0.011200815 -0.00105081 -0.01226595
v -0.001562505 -0.00103644 -0.012382395
v -0.011202885 -0.001028475 -0.012421155
v -0.0015852 -0.001001385 -0.012517425
v -0.011207085 -0.00098178 -0.012570615
v -0.001618515 -0.00094659 -0.012651045
v -0.011212935 -0.000912375 -0.012714825
v -0.001658385 -0.00087486 -0.012776325
v -0.0112197 -0.00082512 -0.012844425
v -0.001701765 -0.000787155 -0.01288872
v -0.01122699 -0.000719205 -0.012958305
v -0.0017478 -0.000678825 -0.01299273
v -0.011234235 -0.000595365 -0.013057575
v -0.00179058 -0.000556305 -0.013082625
v -0.011240565 -0.0004608 -0.01313619
v -0.00182553 -0.000427875 -0.01315155
v -0.0112455 -0.00031791 -0.01319217
f 1 2 3
f 1 4 2
f 5 1 3
f 6 5 3
f 6 7 5
f 6 3 8
f 6 8 9
f 10 6 9
f 10 9 11
f 10 11 12
f 10 12 13
f 10 13 14
f 10 14 15
f 16 10 15
f 16 15 17
f 16 17 18
f 16 18 19
f 16 19 20
f 21 16 20
f 21 20 22
f 21 22 23
f 21 23 24
f 21 24 25
f 25 24 26
f 27 21 25
f 27 25 28
f 29 27 28
f 29 28 30
f 29 30 31
f 32 29 31
f 32 31 33
f 34 32 33
f 34 33 35
f 36 34 35
f 36 35 37
f 36 37 38
f 36 38 39
f 38 40 39
f 40 41 39
f 40 42 41
f 42 43 41
f 42 44 43
f 44 45 43
f 44 46 45
f 46 47 45
f 46 48 47
f 48 49 47
f 48 50 49
f 50 51 49
f 50 52 51
f 52 53 51
f 52 54 53
f 54 55 53
f 54 56 55
f 56 57 55
f 56 58 57
f 58 59 57
f 58 60 59
f 60 61 59
f 60 62 61
f 25 26 63
f 25 63 64
f 25 64 65
f 66 25 65
f 66 65 67
f 66 67 68
f 66 68 69
f 70 66 69
f 70 69 71
f 70 71 72
f 70 72 73
f 70 73 74
f 1 70 74
f 1 74 4
f 6 75 7
f 75 76 7
f 75 77 76
f 75 78 77
f 75 79 78
f 79 80 78
f 79 81 80
f 79 82 81
f 79 83 82
f 83 84 82
f 83 85 84
f 83 86 85
f 83 87 86
f 87 88 86
f 87 89 88
f 87 90 89
f 87 91 90
f 91 92 90
f 91 93 92
f 91 94 93
f 91 95 94
f 95 96 94
f 95 97 96
f 95 98 97
f 95 99 98
f 95 100 99
f 100 101 99
f 100 102 101
f 100 103 102
f 100 104 103
f 104 105 103
f 104 106 105
f 104 107 106
f 104 108 107
f 104 109 108
f 109 110 108
f 109 111 110
f 109 112 111
f 109 113 112
f 113 114 112
f 113 115 114
f 113 116 115
f 113 117 116
f 113 118 117
f 118 119 117
f 118 120 119
f 118 121 120
f 118 122 121
f 122 123 121
f 122 124 123
f 122 125 124
f 122 126 125
f 126 127 125
f 126 128 127
f 126 129 128
f 126 130 129
f 126 131 130
f 131 132 130
f 131 133 132
f 131 134 133
f 131 135 134
f 135 136 134
f 135 137 136
f 135 138 137
f 135 139 138
f 135 140 139
f 140 141 139
f 140 142 141
f 140 143 142
f 140 144 143
f 140 145 144
f 140 146 145
f 146 147 145
f 146 148 147
f 146 149 148
f 146 150 149
f 146 151 150
f 151 152 150
f 151 153 152
f 151 154 153
f 151 155 154
f 151 156 155
f 156 157 155
f 156 158 157
f 156 159 158
f 156 160 159
f 156 161 160
f 161 162 160
f 161 163 162
f 161 164 163
f 161 165 164
f 161 166 165
f 166 167 165
f 166 168 167
f 166 169 168
f 166 170 169
f 166 171 170
f 171 172 170
f 171 173 172
f 171 174 173
f 171 175 174
f 171 176 175
f 176 177 175
f 176 178 177
f 176 179 178
f 176 180 179
f 180 181 179
f 180 182 181
f 180 183 182
f 180 184 183
f 180 185 184
f 185 186 184
f 185 187 186
f 185 188 187
f 185 189 188
f 189 190 188
f 189 191 190
f 189 192 191
f 189 193 192
f 193 194 192
f 193 195 194
f 193 196 195
f 196 197 195
f 196 198 197
f 196 199 198
f 199 200 198
f 199 201 200
f 199 202 201
f 202 203 201
f 202 204 203
f 202 205 204
f 205 206 204
f 205 207 206
f 207 208 206
f 207 209 208
f 207 210 209
f 210 211 209
f 210 212 211
f 210 213 212
f 213 214 212
f 213 215 214
f 213 216 215
f 214 215 217
f 214 217 218
f 214 218 219
f 220 214 219
f 220 219 221
f 220 221 222
f 223 220 222
f 223 222 224
f 223 224 225
f 226 223 225
f 226 225 227
f 226 227 228
f 229 226 228
f 229 228 230
f 231 229 230
f 231 230 232
f 233 231 232
f 233 232 234
f 233 234 235
f 236 233 235
f 236 235 237
f 238 236 237
f 238 237 239
f 240 238 239
f 240 239 241
f 242 240 241
f 242 241 243
f 242 243 244
f 245 242 244
f 245 244 246
f 247 245 246
f 247 246 248
f 247 248 249
f 250 247 249
f 250 249 251
f 250 251 252
f 253 250 252
f 253 252 254
f 253 254 255
f 253 255 256
f 253 256 257
f 258 253 257
f 258 257 259
f 260 258 259
f 260 261 258
f 260 259 262
f 260 262 263
f 260 263 264
f 265 260 264
f 265 264 266
f 265 266 267
f 265 267 268
f 269 265 268
f 269 268 270
f 271 269 270
f 271 270 272
f 271 272 273
f 274 271 273
f 274 273 275
f 276 274 275
f 276 275 277
f 276 277 278
f 279 276 278
f 279 278 280
f 281 279 280
f 281 280 282
f 283 281 282
f 283 282 284
f 285 283 284
f 285 284 286
f 285 286 287
f 288 285 287
f 288 287 289
f 290 288 289
f 290 289 291
f 292 290 291
f 292 291 293
f 292 293 294
f 216 292 294
f 216 294 295
f 216 295 296
f 216 296 297
f 216 297 298
f 216 298 299
f 216 299 300
f 216 300 215
f 260 301 261
f 301 302 261
f 301 303 302
f 303 304 302
f 303 305 304
f 305 306 304
f 305 307 306
f 307 308 306
f 307 309 308
f 309 310 308
f 309 311 310
f 311 312 310
f 311 313 312
f 313 314 312
f 313 315 314
f 315 316 314
f 315 317 316
f 317 318 316
f 317 319 318
f 319 320 318
f 319 321 320
f 321 322 320
f 321 323 322
f 323 324 322
f 323 325 324
f 325 326 324
f 325 327 326
f 327 328 326
f 327 329 328
f 329 330 328
f 329 331 330
f 331 332 330
f 331 333 332
f 333 334 332
f 333 335 334
f 335 336 334
f 335 337 336
f 337 338 336
f 337 339 338
f 339 340 338
f 339 341 340
f 341 342 340
f 341 343 342
f 343 344 342
f 343 345 344
f 345 346 344
f 345 347 346
f 347 348 346
f 347 349 348
f 349 350 348
f 349 351 350
f 351 352 350
f 351 353 352
f 353 354 352
f 353 355 354
f 355 356 354
f 355 357 356
f 357 358 356
f 357 359 358
f 359 360 358
f 359 361 360
f 361 362 360
f 361 363 362
f 363 364 362
f 363 365 364
f 365 366 364
f 365 367 366
f 367 368 366
f 367 369 368
f 369 370 368
f 369 371 370
f 371 372 370
f 371 373 372
f 373 374 372
f 373 375 374
f 375 376 374
f 375 377 376
f 377 378 376
f 377 379 378
f 379 380 378
f 379 381 380
f 381 382 380
f 381 383 382
f 383 384 382
f 383 385 384
f 385 386 384
f 385 387 386
f 387 388 386
f 387 389 388
f 389 390 388
f 389 391 390
f 391 392 390
f 391 393 392
f 393 394 392
f 393 395 394
f 395 396 394
f 395 397 396
f 397 398 396
f 397 399 398
f 399 400 398
f 399 401 400
f 401 402 400
f 401 403 402
f 403 404 402
f 403 405 404
f 405 406 404
f 405 407 406
f 407 408 406
f 407 409 408
f 409 410 408
f 409 411 410
f 411 412 410
f 411 413 412
f 413 414 412
f 413 415 414
f 415 416 414
f 415 417 416
f 417 418 416
f 417 419 418
f 420 421 422
f 423 421 420
f 424 420 422
f 424 422 425
f 424 425 426
f 426 425 427
f 426 427 428
f 428 427 429
f 428 429 430
f 430 429 431
f 430 431 432
f 432 431 433
f 432 433 434
f 434 433 435
f 434 435 436
f 436 435 437
f 436 437 438
f 438 437 439
f 438 439 440
f 440 439 441
f 440 441 442
f 442 441 443
f 442 443 444
f 444 443 445
f 444 445 446
f 446 445 447
f 446 447 448
f 448 447 449
f 448 449 450
f 450 449 451
f 450 451 452
f 452 451 453
f 452 453 454
f 454 453 455
f 454 455 456
f 456 455 457
f 456 457 458
f 458 457 459
f 458 459 460
f 460 459 461
f 460 461 462
f 462 461 463
f 462 463 464
f 464 463 465
f 464 465 466
f 466 465 467
f 466 467 468
f 468 467 469
f 468 469 470
f 470 469 471
f 470 471 472
f 472 471 473
f 472 473 474
f 474 473 475
f 474 475 423
f 423 475 421
f 476 477 478
f 479 477 476
f 480 476 478
f 481 480 478
f 481 478 482
f 483 481 482
f 483 482 484
f 485 483 484
f 486 485 484
f 486 484 487
f 488 486 487
f 489 488 487
f 489 487 490
f 491 489 490
f 492 491 490
f 493 492 490
f 493 490 494
f 495 493 494
f 496 495 494
f 496 494 497
f 497 494 498
f 499 496 497
f 500 499 497
f 501 500 497
f 501 497 502
f 503 501 502
f 504 503 502
f 504 502 505
f 506 504 505
f 507 506 505
f 507 505 508
f 509 507 508
f 510 509 508
f 510 508 511
f 512 510 511
f 512 511 513
f 512 513 514
f 514 513 515
f 516 514 515
f 517 516 515
f 517 515 518
f 519 517 518
f 519 518 520
f 521 519 520
f 522 521 520
f 522 520 523
f 524 522 523
f 525 524 523
f 525 523 526
f 527 525 526
f 528 527 526
f 528 526 529
f 530 528 529
f 531 530 529
f 531 529 532
f 529 533 532
f 534 531 532
f 535 534 532
f 536 535 532
f 536 532 537
f 538 536 537
f 539 538 537
f 539 537 540
f 541 539 540
f 542 541 540
f 542 540 543
f 544 542 543
f 545 544 543
f 545 543 546
f 479 545 546
f 479 546 477
f 547 533 529
f 547 548 533
f 549 548 547
f 549 550 548
f 551 550 549
f 551 552 550
f 553 552 551
f 553 554 552
f 555 554 553
f 555 556 554
f 557 556 555
f 557 558 556
f 559 558 557
f 559 560 558
f 561 560 559
f 561 562 560
f 563 562 561
f 563 564 562
f 565 564 563
f 565 566 564
f 567 566 565
f 567 568 566
f 569 568 567
f 569 570 568
f 571 570 569
f 571 572 570
f 573 572 571
f 573 574 572
f 575 574 573
f 575 576 574
f 577 576 575
f 577 578 576
f 579 578 577
f 579 580 578
f 581 580 579
f 581 582 580
f 583 582 581
f 583 584 582
f 585 584 583
f 585 586 584
f 587 586 585
f 587 588 586
f 589 588 587
f 589 590 588
f 591 590 589
f 591 592 590
f 593 592 591
f 593 594 592
f 595 594 593
f 595 596 594
f 597 596 595
f 597 598 596
f 599 598 597
f 599 600 598
f 601 600 599
f 601 602 600
f 603 602 601
f 603 604 602
f 605 604 603
f 605 606 604
f 607 606 605
f 607 608 606
f 609 608 607
f 609 610 608
f 611 610 609
f 611 612 610
f 613 612 611
f 613 614 612
f 615 614 613
f 615 616 614
f 617 616 615
f 617 618 616
f 619 618 617
f 619 620 618
f 621 620 619
f 621 622 620
f 623 622 621
f 623 624 622
f 625 624 623
f 625 626 624
f 627 626 625
f 627 628 626
f 629 628 627
f 629 630 628
f 631 630 629
f 631 632 630
f 498 632 631
f 498 494 632
f 633 634 635
f 636 634 633
f 637 633 635
f 637 635 638
f 637 638 639
f 639 638 640
f 639 640 641
f 641 640 642
f 641 642 643
f 643 642 644
f 643 644 645
f 645 644 646
f 645 646 647
f 647 646 648
f 647 648 649
f 649 648 650
f 649 650 651
f 651 650 652
f 651 652 653
f 653 652 654
f 653 654 655
f 655 654 656
f 655 656 657
f 657 656 658
f 657 658 659
f 659 658 660
f 659 660 661
f 661 660 662
f 661 662 663
f 663 662 664
f 663 664 665
f 665 664 666
f 665 666 667
f 667 666 668
f 667 668 669
f 669 668 670
f 669 670 671
f 671 670 672
f 671 672 673
f 673 672 674
f 673 674 675
f 675 674 676
f 675 676 677
f 677 676 678
f 677 678 679
f 679 678 680
f 679 680 681
f 681 680 682
f 681 682 683
f 683 682 684
f 683 684 685
f 685 684 686
f 685 686 687
f 687 686 688
f 687 688 689
f 689 688 690
f 689 690 691
f 691 690 692
f 691 692 693
f 693 692 694
f 693 694 695
f 695 694 696
f 695 696 697
f 697 696 698
f 697 698 699
f 699 698 700
f 699 700 701
f 701 700 702
f 701 702 703
f 703 702 704
f 703 704 705
f 705 704 706
f 705 706 707
f 707 706 708
f 707 708 709
f 709 708 710
f 709 710 711
f 711 710 712
f 711 712 713
f 713 712 714
f 713 714 715
f 715 714 716
f 715 716 717
f 717 716 718
f 717 718 719
f 719 718 720
f 719 720 721
f 721 720 722
f 721 722 723
f 723 722 724
f 723 724 725
f 725 724 726
f 725 726 727
f 727 726 728
f 727 728 729
f 729 728 730
f 729 730 731
f 731 730 732
f 731 732 733
f 733 732 734
f 733 734 735
f 735 734 736
f 735 736 737
f 737 736 738
f 737 738 739
f 739 738 740
f 739 740 741
f 741 740 742
f 741 742 743
f 743 742 744
f 743 744 745
f 745 744 746
f 745 746 747
f 747 746 748
f 747 748 749
f 749 748 750
f 749 750 751
f 751 750 752
f 751 752 753
f 753 752 754
f 753 754 755
f 755 754 756
f 755 756 757
f 757 756 758
f 757 758 759
f 759 758 760
f 759 760 761
f 761 760 762
f 761 762 763
f 763 762 764
f 763 764 765
f 765 764 766
f 765 766 767
f 767 766 768
f 767 768 769
f 769 768 770
f 769 770 771
f 771 770 772
f 771 772 773
f 773 772 774
f 773 774 775
f 775 774 776
f 775 776 777
f 777 776 778
f 777 778 779
f 779 778 780
f 779 780 781
f 781 780 782
f 781 782 783
f 783 782 784
f 783 784 785
f 785 784 786
f 785 786 787
f 787 786 788
f 787 788 789
f 789 788 790
f 789 790 791
f 791 790 792
f 791 792 793
f 793 792 794
f 793 794 795
f 795 794 796
f 795 796 797
f 797 796 798
f 797 798 799
f 799 798 800
f 799 800 801
f 801 800 802
f 801 802 803
f 803 802 804
f 803 804 805
f 805 804 806
f 805 806 807
f 807 806 808
f 807 808 809
f 809 808 810
f 809 810 811
f 811 810 812
f 811 812 813
f 813 812 814
f 813 814 815
f 815 814 816
f 815 816 817
f 817 816 818
f 817 818 819
f 819 818 820
f 819 820 821
f 821 820 822
f 821 822 823
f 823 822 824
f 823 824 825
f 825 824 826
f 825 826 827
f 827 826 828
f 827 828 829
f 829 828 830
f 829 830 831
f 831 830 832
f 831 832 833
f 833 832 834
f 833 834 835
f 835 834 836
f 835 836 837
f 837 836 838
f 837 838 839
f 839 838 840
f 839 840 841
f 841 840 842
f 841 842 843
f 843 842 844
f 843 844 845
f 845 844 846
f 845 846 847
f 847 846 848
f 847 848 849
f 849 848 850
f 849 850 851
f 851 850 852
f 851 852 853
f 853 852 854
f 853 854 855
f 855 854 856
f 855 856 857
f 857 856 858
f 857 858 859
f 859 858 860
f 859 860 861
f 861 860 862
f 861 862 863
f 863 862 864
f 863 864 865
f 865 864 866
f 865 866 867
f 867 866 868
f 867 868 869
f 869 868 870
f 869 870 871
f 871 870 872
f 871 872 873
f 873 872 874
f 873 874 875
f 875 874 876
f 875 876 877
f 877 876 878
f 877 878 879
f 879 878 880
f 879 880 881
f 881 880 882
f 881 882 883
f 883 882 884
f 883 884 885
f 885 884 886
f 885 886 887
f 887 886 888
f 887 888 889
f 889 888 890
f 889 890 891
f 891 890 892
f 891 892 893
f 893 892 894
f 893 894 895
f 895 894 896
f 895 896 897
f 897 896 898
f 897 898 899
f 899 898 900
f 899 900 901
f 901 900 902
f 901 902 903
f 903 902 904
f 903 904 905
f 905 904 906
f 905 906 907
f 907 906 908
f 907 908 909
f 909 908 910
f 909 910 911
f 911 910 912
f 911 912 913
f 913 912 914
f 913 914 915
f 915 914 916
f 915 916 917
f 917 916 918
f 917 918 919
f 919 918 920
f 919 920 921
f 921 920 922
f 921 922 923
f 923 922 924
f 923 924 925
f 925 924 926
f 925 926 927
f 927 926 928
f 927 928 929
f 929 928 930
f 929 930 931
f 931 930 932
f 931 932 933
f 933 932 934
f 933 934 935
f 935 934 936
f 935 936 937
f 937 936 938
f 937 938 939
f 939 938 940
f 939 940 941
f 941 940 942
f 941 942 943
f 943 942 944
f 943 944 945
f 945 944 946
f 945 946 947
f 947 946 948
f 947 948 949
f 949 948 950
f 949 950 951
f 951 950 952
f 951 952 953
f 953 952 954
f 953 954 955
f 955 954 956
f 955 956 957
f 957 956 958
f 957 958 959
f 959 958 960
f 959 960 961
f 961 960 962
f 961 962 963
f 963 962 964
f 963 964 965
f 965 964 966
f 965 966 967
f 967 966 968
f 967 968 969
f 969 968 970
f 969 970 971
f 971 970 972
f 971 972 973
f 973 972 974
f 973 974 975
f 975 974 976
f 975 976 977
f 977 976 978
f 977 978 979
f 979 978 980
f 979 980 981
f 981 980 982
f 981 982 983
f 983 982 984
f 983 984 985
f 985 984 986
f 985 986 987
f 987 986 988
f 987 988 989
f 989 988 990
f 989 990 991
f 991 990 992
f 991 992 993
f 993 992 994
f 993 994 995
f 995 994 996
f 995 996 997
f 997 996 998
f 997 998 999
f 999 998 1000
f 999 1000 1001
f 1001 1000 1002
f 1001 1002 1003
f 1003 1002 1004
f 1003 1004 1005
f 1005 1004 1006
f 1005 1006 1007
f 1007 1006 1008
f 1007 1008 1009
f 1009 1008 1010
f 1009 1010 1011
f 1011 1010 1012
f 1011 1012 1013
f 1013 1012 1014
f 1013 1014 1015
f 1015 1014 1016
f 1015 1016 1017
f 1017 1016 1018
f 1017 1018 1019
f 1019 1018 1020
f 1019 1020 1021
f 1021 1020 1022
f 1021 1022 1023
f 1023 1022 1024
f 1023 1024 1025
f 1025 1024 1026
f 1025 1026 1027
f 1027 1026 1028
f 1027 1028 1029
f 1029 1028 1030
f 1029 1030 1031
f 1031 1030 1032
f 1031 1032 1033
f 1033 1032 1034
f 1033 1034 1035
f 1035 1034 1036
f 1035 1036 1037
f 1037 1036 1038
f 1037 1038 1039
f 1039 1038 1040
f 1039 1040 1041
f 1041 1040 1042
f 1041 1042 1043
f 1043 1042 1044
f 1043 1044 1045
f 1045 1044 1046
f 1045 1046 1047
f 1047 1046 1048
f 1047 1048 1049
f 1049 1048 1050
f 1049 1050 1051
f 1051 1050 1052
f 1051 1052 1053
f 1053 1052 1054
f 1053 1054 1055
f 1055 1054 1056
f 1055 1056 1057
f 1057 1056 1058
f 1057 1058 1059
f 1059 1058 1060
f 1059 1060 1061
f 1061 1060 1062
f 1063 1061 1062
f 1063 1064 1061
f 1065 1063 1062
f 1066 1065 1062
f 1067 1066 1062
f 1067 1062 1068
f 1069 1067 1068
f 1070 1069 1068
f 1071 1070 1068
f 1071 1068 1072
f 1073 1071 1072
f 1074 1073 1072
f 1074 1072 1075
f 1076 1074 1075
f 1076 1075 1077
f 1078 1076 1077
f 1079 1078 1077
f 1079 1077 1080
f 1081 1079 1080
f 1082 1081 1080
f 1082 1080 1083
f 1084 1082 1083
f 1085 1084 1083
f 1085 1083 1086
f 1087 1085 1086
f 1088 1087 1086
f 1088 1086 1089
f 1090 1088 1089
f 1091 1090 1089
f 1092 1091 1089
f 1093 1092 1089
f 1093 1089 1094
f 1094 1089 1095
f 1093 1094 1096
f 1097 1093 1096
f 1098 1097 1096
f 1099 1098 1096
f 1100 1099 1096
f 1100 1096 1101
f 1102 1100 1101
f 1103 1102 1101
f 1103 1101 1104
f 1105 1103 1104
f 1106 1105 1104
f 1106 1104 1107
f 1108 1106 1107
f 1108 1107 1109
f 1109 1107 1110
f 1111 1109 1110
f 1112 1111 1110
f 1112 1110 1113
f 1114 1112 1113
f 1114 1113 1115
f 1116 1114 1115
f 1117 1116 1115
f 1117 1115 1118
f 1119 1117 1118
f 1120 1119 1118
f 1121 1120 1118
f 1121 1118 1061
f 1122 1121 1061
f 1064 1122 1061
f 1094 1095 1123
f 1123 1095 1124
f 1123 1124 1125
f 1125 1124 1126
f 1125 1126 1127
f 1127 1126 1128
f 1127 1128 1129
f 1129 1128 1130
f 1129 1130 1131
f 1131 1130 1132
f 1131 1132 1133
f 1133 1132 1134
f 1133 1134 1135
f 1135 1134 1136
f 1135 1136 1137
f 1137 1136 1138
f 1137 1138 1139
f 1139 1138 1140
f 1139 1140 1141
f 1141 1140 1142
f 1141 1142 1143
f 1143 1142 1144
f 1143 1144 1145
f 1145 1144 1146
f 1145 1146 1147
f 1147 1146 1148
f 1147 1148 1149
f 1149 1148 1150
f 1149 1150 1151
f 1151 1150 1152
f 1151 1152 1153
f 1153 1152 1154
f 1153 1154 1155
f 1155 1154 1156
f 1155 1156 1157
f 1157 1156 1158
f 1157 1158 1159
f 1159 1158 1160
f 1159 1160 1161
f 1161 1160 1162
f 1161 1162 1163
f 1163 1162 1164
f 1163 1164 1165
f 1165 1164 1166
f 1165 1166 1167
f 1167 1166 1168
f 1167 1168 1169
f 1169 1168 1170
f 1169 1170 1171
f 1171 1170 1172
f 1171 1172 1173
f 1173 1172 1174
f 1173 1174 1175
f 1175 1174 1176
f 1175 1176 1177
f 1177 1176 1178
f 1177 1178 1179
f 1179 1178 1180
f 1179 1180 1181
f 1181 1180 1182
f 1181 1182 1183
f 1183 1182 1184
f 1183 1184 1185
f 1185 1184 1186
f 1185 1186 1187
f 1187 1186 1188
f 1187 1188 1189
f 1189 1188 1190
f 1189 1190 1191
f 1191 1190 1192
f 1191 1192 1193
f 1193 1192 1194
f 1193 1194 1195
f 1195 1194 1196
f 1195 1196 1197
f 1197 1196 1198
f 1197 1198 1199
f 1199 1198 1200
f 1199 1200 1201
f 1201 1200 1202
f 1201 1202 1203
f 1203 1202 1204
f 1203 1204 1205
f 1205 1204 1206
f 1205 1206 1207
f 1207 1206 1208
f 1207 1208 1209
f 1209 1208 1210
f 1209 1210 1211
f 1211 1210 1212
f 1211 1212 1213
f 1213 1212 1214
f 1213 1214 1215
f 1215 1214 1216
f 1215 1216 1217
f 1217 1216 1218
f 1217 1218 1219
f 1219 1218 1220
f 1219 1220 1221
f 1221 1220 1222
f 1221 1222 1223
f 1223 1222 1224
f 1223 1224 1225
f 1225 1224 1226
f 1225 1226 1227
f 1227 1226 1228
f 1227 1228 1229
f 1229 1228 1230
f 1229 1230 1231
f 1231 1230 1232
f 1231 1232 1233
f 1233 1232 1234
f 1233 1234 1235
f 1235 1234 1236
f 1235 1236 1237
f 1237 1236 1238
f 1237 1238 1239
f 1239 1238 1240
f 1239 1240 1241
f 1241 1240 1242
f 1241 1242 1243
f 1243 1242 1244
f 1243 1244 1245
f 1245 1244 1246
f 1245 1246 1247
f 1247 1246 1248
f 1247 1248 1249
f 1249 1248 1250
f 1249 1250 1251
f 1251 1250 1252
f 1251 1252 1253
f 1253 1252 1254
f 1253 1254 1255
f 1255 1254 1256
f 1255 1256 1257
f 1257 1256 1258
f 1257 1258 1259
f 1259 1258 1260
f 1259 1260 1261
f 1261 1260 1262
f 1261 1262 1263
f 1263 1262 1264
f 1263 1264 1265
f 1265 1264 1266
f 1265 1266 1267
f 1267 1266 1268
f 1267 1268 1269
f 1269 1268 1270
f 1269 1270 1271
f 1271 1270 1272
f 1271 1272 1273
f 1273 1272 1274
f 1273 1274 1275
f 1275 1274 1276
f 1275 1276 1277
f 1277 1276 1278
f 1277 1278 1279
f 1279 1278 1280
f 1279 1280 1281
f 1281 1280 1282
f 1281 1282 1283
f 1283 1282 1284
f 1283 1284 1285
f 1285 1284 1286
f 1285 1286 1287
f 1287 1286 1288
f 1287 1288 1289
f 1289 1288 1290
f 1289 1290 1291
f 1291 1290 1292
f 1291 1292 1293
f 1293 1292 1294
f 1293 1294 1295
f 1295 1294 1296
f 1295 1296 1297
f 1297 1296 1298
f 1297 1298 1299
f 1299 1298 1300
f 1299 1300 1301
f 1301 1300 1302
f 1301 1302 1303
f 1303 1302 1304
f 1303 1304 1305
f 1305 1304 1306
f 1305 1306 1307
f 1307 1306 1308
f 1307 1308 1309
f 1309 1308 1310
f 1309 1310 1311
f 1311 1310 1312
f 1311 1312 1313
f 1313 1312 1314
f 1313 1314 1315
f 1315 1314 1316
f 1315 1316 1317
f 1317 1316 1318
f 1317 1318 1319
f 1319 1318 1320
f 1319 1320 1321
f 1321 1320 1322
f 1321 1322 1323
f 1323 1322 1324
f 1323 1324 1325
f 1325 1324 1326
f 1325 1326 1327
f 1327 1326 1328
f 1327 1328 1329
f 1329 1328 1330
f 1329 1330 1331
f 1331 1330 1332
f 1331 1332 1333
f 1333 1332 1334
f 1333 1334 1335
f 1335 1334 1336
f 1335 1336 1337
f 1337 1336 1338
f 1337 1338 1339
f 1339 1338 1340
f 1339 1340 1341
f 1341 1340 1342
f 1341 1342 1343
f 1343 1342 1344
f 1343 1344 636
f 636 1344 634
f 1345 1346 1347
f 1345 1348 1346
f 1349 1345 1347
f 1349 1350 1345
f 1349 1347 1351
f 1349 1351 1352
f 1353 1349 1352
f 1353 1352 1354
f 1353 1354 1355
f 1353 1355 1356
f 1353 1356 1357
f 1358 1353 1357
f 1358 1357 1359
f 1358 1359 1360
f 1358 1360 1361
f 1362 1358 1361
f 1362 1361 1363
f 1362 1363 1364
f 1362 1364 1365
f 1362 1365 1366
f 1362 1366 1367
f 1368 1362 1367
f 1368 1367 1369
f 1369 1367 1370
f 1371 1368 1369
f 1371 1369 1372
f 1373 1371 1372
f 1373 1372 1374
f 1375 1373 1374
f 1376 1375 1374
f 1376 1374 1377
f 1378 1376 1377
f 1378 1377 1379
f 1380 1378 1379
f 1380 1379 1381
f 1382 1380 1381
f 1383 1382 1381
f 1384 1383 1381
f 1384 1385 1383
f 1384 1386 1385
f 1386 1387 1385
f 1386 1388 1387
f 1388 1389 1387
f 1388 1390 1389
f 1390 1391 1389
f 1390 1392 1391
f 1392 1393 1391
f 1392 1394 1393
f 1394 1395 1393
f 1394 1396 1395
f 1396 1397 1395
f 1396 1398 1397
f 1398 1399 1397
f 1398 1400 1399
f 1400 1401 1399
f 1400 1402 1401
f 1402 1403 1401
f 1402 1404 1403
f 1404 1405 1403
f 1369 1370 1406
f 1407 1369 1406
f 1407 1406 1408
f 1407 1408 1409
f 1407 1409 1410
f 1407 1410 1411
f 1412 1407 1411
f 1412 1411 1413
f 1412 1413 1414
f 1412 1414 1415
f 1412 1415 1416
f 1412 1416 1417
f 1345 1412 1417
f 1345 1417 1348
f 1349 1418 1350
f 1418 1419 1350
f 1419 1420 1350
f 1420 1421 1350
f 1420 1422 1421
f 1422 1423 1421
f 1423 1424 1421
f 1424 1425 1421
f 1424 1426 1425
f 1426 1427 1425
f 1427 1428 1425
f 1428 1429 1425
f 1428 1430 1429
f 1430 1431 1429
f 1431 1432 1429
f 1432 1433 1429
f 1432 1434 1433
f 1434 1435 1433
f 1435 1436 1433
f 1436 1437 1433
f 1436 1438 1437
f 1438 1439 1437
f 1439 1440 1437
f 1440 1441 1437
f 1441 1442 1437
f 1441 1443 1442
f 1443 1444 1442
f 1444 1445 1442
f 1445 1446 1442
f 1445 1447 1446
f 1447 1448 1446
f 1448 1449 1446
f 1449 1450 1446
f 1450 1451 1446
f 1450 1452 1451
f 1452 1453 1451
f 1453 1454 1451
f 1454 1455 1451
f 1454 1456 1455
f 1456 1457 1455
f 1457 1458 1455
f 1458 1459 1455
f 1459 1460 1455
f 1459 1461 1460
f 1461 1462 1460
f 1462 1463 1460
f 1463 1464 1460
f 1463 1465 1464
f 1465 1466 1464
f 1466 1467 1464
f 1467 1468 1464
f 1467 1469 1468
f 1469 1470 1468
f 1470 1471 1468
f 1471 1472 1468
f 1472 1473 1468
f 1472 1474 1473
f 1474 1475 1473
f 1475 1476 1473
f 1476 1477 1473
f 1476 1478 1477
f 1478 1479 1477
f 1479 1480 1477
f 1480 1481 1477
f 1481 1482 1477
f 1481 1483 1482
f 1483 1484 1482
f 1484 1485 1482
f 1485 1486 1482
f 1486 1487 1482
f 1487 1488 1482
f 1487 1489 1488
f 1489 1490 1488
f 1490 1491 1488
f 1491 1492 1488
f 1492 1493 1488
f 1492 1494 1493
f 1494 1495 1493
f 1495 1496 1493
f 1496 1497 1493
f 1497 1498 1493
f 1497 1499 1498
f 1499 1500 1498
f 1500 1501 1498
f 1501 1502 1498
f 1502 1503 1498
f 1502 1504 1503
f 1504 1505 1503
f 1505 1506 1503
f 1506 1507 1503
f 1507 1508 1503
f 1507 1509 1508
f 1509 1510 1508
f 1510 1511 1508
f 1511 1512 1508
f 1512 1513 1508
f 1512 1514 1513
f 1514 1515 1513
f 1515 1516 1513
f 1516 1517 1513
f 1517 1518 1513
f 1517 1519 1518
f 1519 1520 1518
f 1520 1521 1518
f 1521 1522 1518
f 1521 1523 1522
f 1523 1524 1522
f 1524 1525 1522
f 1525 1526 1522
f 1526 1527 1522
f 1526 1528 1527
f 1528 1529 1527
f 1529 1530 1527
f 1530 1531 1527
f 1530 1532 1531
f 1532 1533 1531
f 1533 1534 1531
f 1534 1535 1531
f 1534 1536 1535
f 1536 1537 1535
f 1537 1538 1535
f 1537 1539 1538
f 1539 1540 1538
f 1540 1541 1538
f 1540 1542 1541
f 1542 1543 1541
f 1543 1544 1541
f 1543 1545 1544
f 1545 1546 1544
f 1546 1547 1544
f 1546 1548 1547
f 1548 1549 1547
f 1548 1550 1549
f 1550 1551 1549
f 1551 1552 1549
f 1551 1553 1552
f 1553 1554 1552
f 1554 1555 1552
f 1554 1556 1555
f 1556 1557 1555
f 1557 1558 1555
f 1557 1559 1558
f 1557 1560 1559
f 1558 1559 1561
f 1558 1561 1562
f 1558 1562 1563
f 1558 1563 1564
f 1558 1564 1565
f 1558 1565 1566
f 1567 1558 1566
f 1567 1566 1568
f 1567 1568 1569
f 1570 1567 1569
f 1570 1569 1571
f 1572 1570 1571
f 1572 1571 1573
f 1574 1572 1573
f 1574 1573 1575
f 1574 1575 1576
f 1577 1574 1576
f 1577 1576 1578
f 1579 1577 1578
f 1579 1578 1580
f 1581 1579 1580
f 1581 1580 1582
f 1583 1581 1582
f 1583 1582 1584
f 1583 1584 1585
f 1586 1583 1585
f 1586 1585 1587
f 1588 1586 1587
f 1588 1587 1589
f 1588 1589 1590
f 1591 1588 1590
f 1591 1590 1592
f 1593 1591 1592
f 1593 1592 1594
f 1593 1594 1595
f 1593 1595 1596
f 1597 1593 1596
f 1597 1596 1598
f 1597 1598 1599
f 1597 1599 1600
f 1597 1600 1601
f 1602 1597 1601
f 1603 1602 1601
f 1603 1604 1602
f 1605 1603 1601
f 1605 1601 1606
f 1605 1606 1607
f 1605 1607 1608
f 1605 1608 1609
f 1610 1605 1609
f 1610 1609 1611
f 1610 1611 1612
f 1613 1610 1612
f 1613 1612 1614
f 1613 1614 1615
f 1616 1613 1615
f 1616 1615 1617
f 1618 1616 1617
f 1618 1617 1619
f 1618 1619 1620
f 1621 1618 1620
f 1621 1620 1622
f 1623 1621 1622
f 1623 1622 1624
f 1625 1623 1624
f 1625 1624 1626
f 1627 1625 1626
f 1627 1626 1628
f 1627 1628 1629
f 1630 1627 1629
f 1630 1629 1631
f 1632 1630 1631
f 1632 1631 1633
f 1634 1632 1633
f 1634 1633 1635
f 1634 1635 1636
f 1637 1634 1636
f 1637 1636 1638
f 1637 1638 1639
f 1640 1637 1639
f 1640 1639 1641
f 1640 1641 1642
f 1560 1640 1642
f 1560 1642 1643
f 1560 1643 1644
f 1560 1644 1645
f 1560 1645 1559
f 1603 1646 1604
f 1646 1647 1604
f 1646 1648 1647
f 1648 1649 1647
f 1648 1650 1649
f 1650 1651 1649
f 1650 1652 1651
f 1652 1653 1651
f 1652 1654 1653
f 1654 1655 1653
f 1654 1656 1655
f 1656 1657 1655
f 1656 1658 1657
f 1658 1659 1657
f 1658 1660 1659
f 1660 1661 1659
f 1660 1662 1661
f 1662 1663 1661
f 1662 1664 1663
f 1664 1665 1663
f 1664 1666 1665
f 1666 1667 1665
f 1666 1668 1667
f 1668 1669 1667
f 1668 1670 1669
f 1670 1671 1669
f 1670 1672 1671
f 1672 1673 1671
f 1672 1674 1673
f 1674 1675 1673
f 1674 1676 1675
f 1676 1677 1675
f 1676 1678 1677
f 1678 1679 1677
f 1678 1680 1679
f 1680 1681 1679
f 1680 1682 1681
f 1682 1683 1681
f 1682 1684 1683
f 1684 1685 1683
f 1684 1686 1685
f 1686 1687 1685
f 1686 1688 1687
f 1688 1689 1687
f 1688 1690 1689
f 1690 1691 1689
f 1690 1692 1691
f 1692 1693 1691
f 1692 1694 1693
f 1694 1695 1693
f 1694 1696 1695
f 1696 1697 1695
f 1696 1698 1697
f 1698 1699 1697
f 1698 1700 1699
f 1700 1701 1699
f 1700 1702 1701
f 1702 1703 1701
f 1702 1704 1703
f 1704 1705 1703
f 1704 1706 1705
f 1706 1707 1705
f 1706 1708 1707
f 1708 1709 1707
f 1708 1710 1709
f 1710 1711 1709
f 1710 1712 1711
f 1712 1713 1711
f 1712 1714 1713
f 1714 1715 1713
f 1714 1716 1715
f 1716 1717 1715
f 1716 1718 1717
f 1718 1719 1717
f 1718 1720 1719
f 1720 1721 1719
f 1720 1722 1721
f 1722 1723 1721
f 1722 1724 1723
f 1724 1725 1723
f 1724 1726 1725
f 1726 1727 1725
f 1726 1728 1727
f 1728 1729 1727
f 1728 1730 1729
f 1730 1731 1729
f 1730 1732 1731
f 1732 1733 1731
f 1732 1734 1733
f 1734 1735 1733
f 1734 1736 1735
f 1736 1737 1735
f 1736 1738 1737
f 1738 1739 1737
f 1738 1740 1739
f 1740 1741 1739
f 1740 1742 1741
f 1742 1743 1741
f 1742 1744 1743
f 1744 1745 1743
f 1744 1746 1745
f 1746 1747 1745
f 1746 1748 1747
f 1748 1749 1747
f 1748 1750 1749
f 1750 1751 1749
f 1750 1752 1751
f 1752 1753 1751
f 1752 1754 1753
f 1754 1755 1753
f 1754 1756 1755
f 1756 1757 1755
f 1756 1758 1757
f 1758 1759 1757
f 1758 1760 1759
f 1760 1761 1759
f 1760 1762 1761
f 1762 1763 1761
f 1764 1765 1766
f 1764 1767 1765
f 1764 1766 1768
f 1768 1766 1769
f 1770 1768 1769
f 1770 1769 1771
f 1770 1771 1772
f 1772 1771 1773
f 1772 1773 1774
f 1774 1773 1775
f 1774 1775 1776
f 1776 1775 1777
f 1776 1777 1778
f 1778 1777 1779
f 1778 1779 1780
f 1780 1779 1781
f 1780 1781 1782
f 1782 1781 1783
f 1782 1783 1784
f 1784 1783 1785
f 1784 1785 1786
f 1786 1785 1787
f 1786 1787 1788
f 1788 1787 1789
f 1788 1789 1790
f 1790 1789 1791
f 1790 1791 1792
f 1792 1791 1793
f 1792 1793 1794
f 1794 1793 1795
f 1794 1795 1796
f 1796 1795 1797
f 1796 1797 1798
f 1798 1797 1799
f 1798 1799 1800
f 1800 1799 1801
f 1800 1801 1802
f 1802 1801 1803
f 1802 1803 1804
f 1804 1803 1805
f 1804 1805 1806
f 1806 1805 1807
f 1806 1807 1808
f 1808 1807 1809
f 1808 1809 1810
f 1808 1810 1811
f 1811 1810 1812
f 1811 1812 1813
f 1813 1812 1814
f 1813 1814 1815
f 1815 1814 1816
f 1815 1816 1817
f 1817 1816 1818
f 1817 1818 1819
f 1819 1818 1820
f 1819 1820 1821
f 1821 1820 1822
f 1821 1822 1823
f 1823 1822 1824
f 1823 1824 1825
f 1825 1824 1826
f 1825 1826 1827
f 1827 1826 1828
f 1827 1828 1829
f 1829 1828 1830
f 1829 1830 1831
f 1829 1831 1832
f 1832 1831 1833
f 1832 1833 1834
f 1834 1833 1835
f 1834 1835 1836
f 1836 1835 1837
f 1836 1837 1838
f 1838 1837 1839
f 1838 1839 1840
f 1840 1839 1841
f 1840 1841 1842
f 1842 1841 1843
f 1842 1843 1844
f 1844 1843 1845
f 1844 1845 1846
f 1846 1845 1847
f 1846 1847 1848
f 1848 1847 1849
f 1848 1849 1850
f 1850 1849 1767
f 1850 1767 1764
