1672 1680 0
v 0.017493525 -0.00421032 0.0065625
v 0.017703405 -0.00011049 0.0065625
v 0.01771875 0 0.0065625
v 0.01766958 -0.00020754 0.0065625
v 0.017804175 -0.00418179 0.0065625
v 0.018028995 0.004696245 0.0065625
v 0.018110025 -0.00413016 0.0065625
v 0.017703405 0.00011049 0.0065625
v 0.01766958 0.00020754 0.0065625
v 0.01764744 0.004963185 0.0065625
v 0.01761708 0.00029133 0.0065625
v 0.017541825 0.0003648 0.0065625
v 0.017451345 0.000422475 0.0065625
v 0.017355885 0.00045624 0.0065625
v 0.017263485 0.005224845 0.0065625
v 0.01725 0.0004671 0.0065625
v 0.017144115 0.00045624 0.0065625
v 0.017048655 0.000422475 0.0065625
v 0.016958175 0.0003648 0.0065625
v 0.01688292 0.00029133 0.0065625
v 0.01687713 0.005481195 0.0065625
v 0.01683042 0.00020754 0.0065625
v 0.016796595 0.00011049 0.0065625
v 0.01678125 0 0.0065625
v 0.0165327 -0.004157325 0.0065625
v 0.016796595 -0.00011049 0.0065625
v 0.01648836 0.005732265 0.0065625
v 0.016127625 -0.004100985 0.0065625
v 0.01609719 0.005978025 0.0065625
v 0.015728985 -0.00406812 0.0065625
v 0.015703605 0.00621849 0.0065625
v 0.015336765 -0.004058715 0.0065625
v 0.01530762 0.006453675 0.0065625
v 0.01495098 -0.004072785 0.0065625
v 0.014909235 0.00668355 0.0065625
v 0.014573085 -0.004110225 0.0065625
v 0.014508435 0.00690813 0.0065625
v 0.01420533 -0.00417084 0.0065625
v 0.01410522 0.007127415 0.0065625
v 0.014023755 -0.00420996 0.0065625
v 0.01384281 -0.00425502 0.0065625
v 0.01369941 0.007341495 0.0065625
v 0.013661835 -0.004306065 0.0065625
v 0.01348014 -0.00436317 0.0065625
v 0.01329708 -0.00442638 0.0065625
v 0.01329102 0.007550355 0.0065625
v 0.013112595 -0.004495755 0.0065625
v 0.012928245 -0.0045714 0.0065625
v 0.012880095 0.007753965 0.0065625
v 0.012743895 -0.004653195 0.0065625
v 0.012559275 -0.00474102 0.0065625
v 0.01246668 0.007952325 0.0065625
v 0.012374115 -0.0048348 0.0065625
v 0.012188115 -0.004934385 0.0065625
v 0.012050835 0.00814539 0.0065625
v 0.01200099 -0.00503967 0.0065625
v 0.011812485 -0.005150565 0.0065625
v 0.011632605 0.00833316 0.0065625
v 0.011622285 -0.005266935 0.0065625
v 0.01143141 -0.00538944 0.0065625
v 0.01124058 -0.005518515 0.0065625
v 0.011212035 0.00851559 0.0065625
v 0.011049165 -0.005653695 0.0065625
v 0.010856535 -0.005794515 0.0065625
v 0.0107892 0.00869268 0.0065625
v 0.01066206 -0.005940525 0.0065625
v 0.010465095 -0.00609126 0.0065625
v 0.01036413 0.0088644 0.0065625
v 0.01026501 -0.00624624 0.0065625
v 0.01006116 -0.00640503 0.0065625
v 0.00993687 0.00903072 0.0065625
v 0.009853155 -0.00656742 0.0065625
v 0.009643425 -0.006736185 0.0065625
v 0.009507495 0.009191625 0.0065625
v 0.00943209 -0.006911205 0.0065625
v 0.009218265 -0.00709128 0.0065625
v 0.00907605 0.0093471 0.0065625
v 0.009001065 -0.007275165 0.0065625
v 0.008779605 -0.007461645 0.0065625
v 0.00864258 0.009497115 0.0065625
v 0.008553015 -0.007649505 0.0065625
v 0.00832041 -0.007837515 0.0065625
v 0.00820713 0.00964164 0.0065625
v 0.008080905 -0.008024445 0.0065625
v 0.00783423 -0.00820992 0.0065625
v 0.007769715 0.009780705 0.0065625
v 0.0075819 -0.00839604 0.0065625
v 0.00733014 0.00991434 0.0065625
v 0.007324035 -0.008582985 0.0065625
v 0.007060635 -0.008770755 0.0065625
v 0.006888435 0.01004259 0.0065625
v 0.006791715 -0.008959365 0.0065625
v 0.006517275 -0.009148785 0.0065625
v 0.006444555 0.010165425 0.0065625
v 0.0062373 -0.009339045 0.0065625
v 0.00599853 0.01028286 0.0065625
v 0.00595179 -0.00953013 0.0065625
v 0.00566076 -0.009722055 0.0065625
v 0.005550345 0.010394895 0.0065625
v 0.005428995 -0.00985218 0.0065625
v 0.005195715 -0.009976515 0.0065625
v 0.005100015 0.010501515 0.0065625
v 0.004960905 -0.01009506 0.0065625
v 0.00472458 -0.010207815 0.0065625
v 0.004647525 0.01060275 0.0065625
v 0.00448674 -0.010314765 0.0065625
v 0.004247385 -0.010415925 0.0065625
v 0.00419289 0.01069857 0.0065625
v 0.004006515 -0.010511295 0.0065625
v 0.00376413 -0.010600875 0.0065625
v 0.00373608 0.01078899 0.0065625
v 0.003520215 -0.010684665 0.0065625
v 0.00327714 0.01087401 0.0065625
v 0.003274785 -0.01076265 0.0065625
v 0.00302784 -0.010834845 0.0065625
v 0.002816025 0.01095363 0.0065625
v 0.00277932 -0.010901265 0.0065625
v 0.00252822 -0.010962015 0.0065625
v 0.002352765 0.011027835 0.0065625
v 0.00227454 -0.011017095 0.0065625
v 0.002018655 -0.011066475 0.0065625
v 0.00188736 0.01109664 0.0065625
v 0.001875 0 0.0065625
v 0.001761015 -0.01111008 0.0065625
v 0.00185994 0.00021849 0.0065625
v 0.001823985 0.0004269 0.0065625
v 0.001767105 0.00062526 0.0065625
v 0.001689315 0.000813525 0.0065625
v 0.0015882 0.00099477 0.0065625
v 0.00146457 0.001167945 0.0065625
v 0.00141978 0.011160045 0.0065625
v 0.00132324 0.00132702 0.0065625
v 0.00116904 0.001465935 0.0065625
v 0.001155615 0.01118946 0.0065625
v 0.0009993 0.00158535 0.0065625
v 0.000892305 0.011212935 0.0065625
v 0.000812775 0.00168774 0.0065625
v 0.000629865 0.0112305 0.0065625
v 0.000616425 0.001769745 0.0065625
v 0.000417225 0.00182799 0.0065625
v 0.00036828 0.011242125 0.0065625
v 0.00021249 0.001861935 0.0065625
v 0.000107565 0.011247825 0.0065625
v 0 0.001873245 0.0065625
v -0.000152295 0.011247615 0.0065625
v -0.00021249 0.001861935 0.0065625
v -0.000411285 0.011241465 0.0065625
v -0.000417225 0.00182799 0.0065625
v -0.000616425 0.001769745 0.0065625
v -0.00066942 0.01122939 0.0065625
v -0.000812775 0.00168774 0.0065625
v -0.000926685 0.01121139 0.0065625
v -0.0009993 0.00158535 0.0065625
v -0.00116904 0.001465935 0.0065625
v -0.001183095 0.011187465 0.0065625
v -0.00132324 0.00132702 0.0065625
v -0.001438635 0.0111576 0.0065625
v -0.00146457 0.001167945 0.0065625
v -0.0015882 0.00099477 0.0065625
v -0.001689315 0.000813525 0.0065625
v -0.00169338 0.01112181 0.0065625
v -0.001767105 0.00062526 0.0065625
v -0.001823985 0.0004269 0.0065625
v -0.00185994 0.00021849 0.0065625
v -0.001875 0 0.0065625
v -0.001948275 0.011079795 0.0065625
v -0.002128575 -0.011045595 0.0065625
v -0.002203365 0.011031555 0.0065625
v -0.00187101 -0.01109193 0.0065625
v -0.00185994 -0.00021849 0.0065625
v -0.001823985 -0.0004269 0.0065625
v -0.001767105 -0.00062526 0.0065625
v -0.001689315 -0.000813525 0.0065625
v -0.00161226 -0.011132445 0.0065625
v -0.0015882 -0.00099477 0.0065625
v -0.00146457 -0.001167945 0.0065625
v -0.00135273 -0.01116708 0.0065625
v -0.00132324 -0.00132702 0.0065625
v -0.00116904 -0.001465935 0.0065625
v -0.00109284 -0.011195775 0.0065625
v -0.0009993 -0.00158535 0.0065625
v -0.000832995 -0.011218455 0.0065625
v -0.000812775 -0.00168774 0.0065625
v -0.000616425 -0.001769745 0.0065625
v -0.000573615 -0.01123506 0.0065625
v -0.000417225 -0.00182799 0.0065625
v -0.000315105 -0.011245545 0.0065625
v -0.00021249 -0.001861935 0.0065625
v -5.757e-05 -0.01124982 0.0065625
v 0 -0.001873245 0.0065625
v 0.000200955 -0.011247945 0.0065625
v 0.00021249 -0.001861935 0.0065625
v 0.000417225 -0.00182799 0.0065625
v 0.000460605 -0.01123995 0.0065625
v 0.000616425 -0.001769745 0.0065625
v 0.00072093 -0.01122591 0.0065625
v 0.000812775 -0.00168774 0.0065625
v 0.000981555 -0.01120584 0.0065625
v 0.0009993 -0.00158535 0.0065625
v 0.00116904 -0.001465935 0.0065625
v 0.001242045 -0.011179815 0.0065625
v 0.00132324 -0.00132702 0.0065625
v 0.00146457 -0.001167945 0.0065625
v 0.00150201 -0.01114788 0.0065625
v 0.0015882 -0.00099477 0.0065625
v 0.001689315 -0.000813525 0.0065625
v 0.001767105 -0.00062526 0.0065625
v 0.001823985 -0.0004269 0.0065625
v 0.00185994 -0.00021849 0.0065625
v -0.00238455 -0.010993485 0.0065625
v -0.00245823 0.010977195 0.0065625
v -0.00263853 -0.01093569 0.0065625
v -0.00271248 0.01091685 0.0065625
v -0.002890095 -0.010872255 0.0065625
v -0.00296571 0.01085061 0.0065625
v -0.00313884 -0.01080324 0.0065625
v -0.00321753 0.01077861 0.0065625
v -0.003385485 -0.010728405 0.0065625
v -0.003467535 0.010700955 0.0065625
v -0.00363156 -0.010647315 0.0065625
v -0.003715335 0.010617765 0.0065625
v -0.00387672 -0.01056012 0.0065625
v -0.003960525 0.010529145 0.0065625
v -0.00412059 -0.010467015 0.0065625
v -0.004202715 0.01043523 0.0065625
v -0.00436278 -0.01036815 0.0065625
v -0.004441485 0.01033611 0.0065625
v -0.00460293 -0.010263705 0.0065625
v -0.004676955 0.010231695 0.0065625
v -0.00484065 -0.010153845 0.0065625
v -0.004910895 0.010121205 0.0065625
v -0.005075565 -0.010038735 0.0065625
v -0.00514326 0.01000473 0.0065625
v -0.005307285 -0.009918555 0.0065625
v -0.00537366 0.00988248 0.0065625
v -0.00553545 -0.00979347 0.0065625
v -0.005601765 0.00975468 0.0065625
v -0.005759685 -0.00966366 0.0065625
v -0.005827215 0.009621555 0.0065625
v -0.005979615 -0.00952926 0.0065625
v -0.006049665 0.009483315 0.0065625
v -0.00619659 -0.0093894 0.0065625
v -0.006268755 0.00934017 0.0065625
v -0.00641127 -0.009243735 0.0065625
v -0.006484125 0.00919233 0.0065625
v -0.006623355 -0.00909252 0.0065625
v -0.00669543 0.009040035 0.0065625
v -0.006832515 -0.008936025 0.0065625
v -0.006902325 0.008883495 0.0065625
v -0.007038435 -0.008774505 0.0065625
v -0.007104435 0.00872292 0.0065625
v -0.007240785 -0.008608245 0.0065625
v -0.007302345 0.0085578 0.0065625
v -0.007439265 -0.00843747 0.0065625
v -0.0074973 0.00838713 0.0065625
v -0.007633545 -0.008262495 0.0065625
v -0.00768903 0.008211225 0.0065625
v -0.007823295 -0.008083545 0.0065625
v -0.00787725 0.008030355 0.0065625
v -0.008008215 -0.00790089 0.0065625
v -0.00806169 0.00784485 0.0065625
v -0.00818799 -0.007714815 0.0065625
v -0.008242065 0.007654995 0.0065625
v -0.00836247 -0.00752535 0.0065625
v -0.008418105 0.007461105 0.0065625
v -0.00853302 -0.00733104 0.0065625
v -0.008589495 0.00726348 0.0065625
v -0.008699745 -0.007131855 0.0065625
v -0.00875598 0.00706242 0.0065625
v -0.008862405 -0.006928095 0.0065625
v -0.008917275 0.00685824 0.0065625
v -0.00902076 -0.006720135 0.0065625
v -0.009073095 0.00665124 0.0065625
v -0.009174585 -0.006508305 0.0065625
v -0.009223185 0.00644169 0.0065625
v -0.00932364 -0.006292935 0.0065625
v -0.009368415 0.006228285 0.0065625
v -0.00946767 -0.006074385 0.0065625
v -0.009509265 0.00601041 0.0065625
v -0.00960648 -0.005852985 0.0065625
v -0.009645555 0.00578844 0.0065625
v -0.009739785 -0.00562908 0.0065625
v -0.009777105 0.00556275 0.0065625
v -0.00986739 -0.005403 0.0065625
v -0.00990369 0.0053337 0.0065625
v -0.009989025 -0.00517509 0.0065625
v -0.01002516 0.005101665 0.0065625
v -0.010104855 -0.00494496 0.0065625
v -0.01014129 0.004867005 0.0065625
v -0.010215735 -0.00471099 0.0065625
v -0.010251915 0.004630095 0.0065625
v -0.01032156 -0.004473435 0.0065625
v -0.01035684 0.00439131 0.0065625
v -0.010422225 -0.0042327 0.0065625
v -0.010455855 0.004150995 0.0065625
v -0.01051758 -0.003989175 0.0065625
v -0.010548795 0.003909525 0.0065625
v -0.01060749 -0.003743235 0.0065625
v -0.010635555 0.003667005 0.0065625
v -0.01069182 -0.003495285 0.0065625
v -0.010716795 0.003421575 0.0065625
v -0.01077042 -0.003245715 0.0065625
v -0.01079259 0.003173115 0.0065625
v -0.01084317 -0.002994915 0.0065625
v -0.01086288 0.00292206 0.0065625
v -0.010909935 -0.00274329 0.0065625
v -0.010927575 0.0026688 0.0065625
v -0.010970565 -0.002491215 0.0065625
v -0.01098657 0.00241374 0.0065625
v -0.011024925 -0.002239065 0.0065625
v -0.011039805 0.0021573 0.0065625
v -0.011073225 -0.0019857 0.0065625
v -0.011087175 0.00189987 0.0065625
v -0.011115735 -0.00172995 0.0065625
v -0.01112862 0.001641855 0.0065625
v -0.011152425 -0.001472205 0.0065625
v -0.01116402 0.00138369 0.0065625
v -0.01118328 -0.0012129 0.0065625
v -0.011193315 0.001125735 0.0065625
v -0.011208255 -0.00095244 0.0065625
v -0.011216415 0.00086844 0.0065625
v -0.01122732 -0.000691245 0.0065625
v -0.011233305 0.000611355 0.0065625
v -0.011240475 -0.00042972 0.0065625
v -0.01124412 0.000352665 0.0065625
v -0.011247675 -0.000168285 0.0065625
v -0.011248905 9.2655e-05 0.0065625
v 0.01683042 -0.00020754 0.0065625
v 0.01685778 -0.004198095 0.0065625
v 0.01688292 -0.00029133 0.0065625
v 0.016958175 -0.0003648 0.0065625
v 0.017048655 -0.000422475 0.0065625
v 0.017144115 -0.00045624 0.0065625
v 0.01717806 -0.004215765 0.0065625
v 0.01725 -0.0004671 0.0065625
v 0.017355885 -0.00045624 0.0065625
v 0.017451345 -0.000422475 0.0065625
v 0.017541825 -0.0003648 0.0065625
v 0.01761708 -0.00029133 0.0065625
v 0.018408135 0.004423995 0.0065625
v 0.018414315 -0.004054065 0.0065625
v 0.01878486 0.004146465 0.0065625
v 0.01871706 -0.00395352 0.0065625
v 0.01901337 -0.003830565 0.0065625
v 0.0191592 0.003863625 0.0065625
v 0.01929834 -0.003687195 0.0065625
v 0.019531125 0.00357549 0.0065625
v 0.019567095 -0.003525465 0.0065625
v 0.019900635 0.003282075 0.0065625
v 0.01982217 -0.003342915 0.0065625
v 0.020066805 -0.003138195 0.0065625
v 0.020145765 0.003064695 0.0065625
v 0.02029722 -0.002914965 0.0065625
v 0.020370375 0.00283569 0.0065625
v 0.02050962 -0.002676945 0.0065625
v 0.020574435 0.002595045 0.0065625
v 0.020700165 -0.002427795 0.0065625
v 0.020757975 0.00234279 0.0065625
v 0.02087034 -0.00216432 0.0065625
v 0.02092098 0.002078895 0.0065625
v 0.02102268 -0.00188403 0.0065625
v 0.021064575 0.00180003 0.0065625
v 0.02115498 -0.001591785 0.0065625
v 0.021188775 0.00150621 0.0065625
v 0.02126508 -0.00129237 0.0065625
v 0.021291885 0.001202415 0.0065625
v 0.02135079 -0.000990645 0.0065625
v 0.021372195 0.000893685 0.0065625
v 0.021412275 -0.00068307 0.0065625
v 0.021427995 0.00058503 0.0065625
v 0.02145099 -0.00036642 0.0065625
v 0.02145912 0.00027291 0.0065625
v 0.021466695 -4.6005e-05 0.0065625
v 0.01771875 0 0.0140625
v 0.01771875 0 0.0065625
v 0.017703405 -0.00011049 0.0065625
v 0.017703405 0.00011049 0.0140625
v 0.017703405 -0.00011049 0.0140625
v 0.01766958 -0.00020754 0.0065625
v 0.01766958 -0.00020754 0.0140625
v 0.01761708 -0.00029133 0.0065625
v 0.01761708 -0.00029133 0.0140625
v 0.017541825 -0.0003648 0.0065625
v 0.017541825 -0.0003648 0.0140625
v 0.017451345 -0.000422475 0.0065625
v 0.017451345 -0.000422475 0.0140625
v 0.017355885 -0.00045624 0.0065625
v 0.017355885 -0.00045624 0.0140625
v 0.01725 -0.0004671 0.0065625
v 0.01725 -0.0004671 0.0140625
v 0.017144115 -0.00045624 0.0065625
v 0.017144115 -0.00045624 0.0140625
v 0.017048655 -0.000422475 0.0065625
v 0.017048655 -0.000422475 0.0140625
v 0.016958175 -0.0003648 0.0065625
v 0.016958175 -0.0003648 0.0140625
v 0.01688292 -0.00029133 0.0065625
v 0.01688292 -0.00029133 0.0140625
v 0.01683042 -0.00020754 0.0065625
v 0.01683042 -0.00020754 0.0140625
v 0.016796595 -0.00011049 0.0065625
v 0.016796595 -0.00011049 0.0140625
v 0.01678125 0 0.0065625
v 0.01678125 0 0.0140625
v 0.016796595 0.00011049 0.0065625
v 0.016796595 0.00011049 0.0140625
v 0.01683042 0.00020754 0.0065625
v 0.01683042 0.00020754 0.0140625
v 0.01688292 0.00029133 0.0065625
v 0.01688292 0.00029133 0.0140625
v 0.016958175 0.0003648 0.0065625
v 0.016958175 0.0003648 0.0140625
v 0.017048655 0.000422475 0.0065625
v 0.017048655 0.000422475 0.0140625
v 0.017144115 0.00045624 0.0065625
v 0.017144115 0.00045624 0.0140625
v 0.01725 0.0004671 0.0065625
v 0.01725 0.0004671 0.0140625
v 0.017355885 0.00045624 0.0065625
v 0.017355885 0.00045624 0.0140625
v 0.017451345 0.000422475 0.0065625
v 0.017451345 0.000422475 0.0140625
v 0.017541825 0.0003648 0.0065625
v 0.017541825 0.0003648 0.0140625
v 0.01761708 0.00029133 0.0065625
v 0.01761708 0.00029133 0.0140625
v 0.01766958 0.00020754 0.0065625
v 0.01766958 0.00020754 0.0140625
v 0.017703405 0.00011049 0.0065625
v 0.001875 0 0.0140625
v 0.001875 0 0.0065625
v 0.00185994 -0.00021849 0.0065625
v 0.00185994 0.00021849 0.0140625
v 0.00185994 -0.00021849 0.0140625
v 0.001823985 -0.0004269 0.0065625
v 0.001823985 -0.0004269 0.0140625
v 0.001767105 -0.00062526 0.0065625
v 0.001767105 -0.00062526 0.0140625
v 0.001689315 -0.000813525 0.0065625
v 0.001689315 -0.000813525 0.0140625
v 0.0015882 -0.00099477 0.0065625
v 0.0015882 -0.00099477 0.0140625
v 0.00146457 -0.001167945 0.0065625
v 0.00146457 -0.001167945 0.0140625
v 0.00132324 -0.00132702 0.0065625
v 0.00132324 -0.00132702 0.0140625
v 0.00116904 -0.001465935 0.0065625
v 0.00116904 -0.001465935 0.0140625
v 0.0009993 -0.00158535 0.0065625
v 0.0009993 -0.00158535 0.0140625
v 0.000812775 -0.00168774 0.0065625
v 0.000812775 -0.00168774 0.0140625
v 0.000616425 -0.001769745 0.0065625
v 0.000616425 -0.001769745 0.0140625
v 0.000417225 -0.00182799 0.0065625
v 0.000417225 -0.00182799 0.0140625
v 0.00021249 -0.001861935 0.0065625
v 0.00021249 -0.001861935 0.0140625
v 0 -0.001873245 0.0065625
v 0 -0.001873245 0.0140625
v -0.00021249 -0.001861935 0.0065625
v -0.00021249 -0.001861935 0.0140625
v -0.000417225 -0.00182799 0.0065625
v -0.000417225 -0.00182799 0.0140625
v -0.000616425 -0.001769745 0.0065625
v -0.000616425 -0.001769745 0.0140625
v -0.000812775 -0.00168774 0.0065625
v -0.000812775 -0.00168774 0.0140625
v -0.0009993 -0.00158535 0.0065625
v -0.0009993 -0.00158535 0.0140625
v -0.00116904 -0.001465935 0.0065625
v -0.00116904 -0.001465935 0.0140625
v -0.00132324 -0.00132702 0.0065625
v -0.00132324 -0.00132702 0.0140625
v -0.00146457 -0.001167945 0.0065625
v -0.00146457 -0.001167945 0.0140625
v -0.0015882 -0.00099477 0.0065625
v -0.00155025 -0.001054695 0.0103125
v -0.00155733 -0.001044195 0.010450095
v -0.00155766 -0.001043715 0.010173735
v -0.001574565 -0.00101802 0.01004145
v -0.001600245 -0.000977175 0.00991563
v -0.001689315 -0.000813525 0.0065625
v -0.001634265 -0.00091914 0.0097947
v -0.001674135 -0.000844335 0.009680235
v -0.00171585 -0.00075597 0.009577065
v -0.001767105 -0.00062526 0.0065625
v -0.001757835 -0.00065241 0.009484845
v -0.0017973 -0.00053415 0.00940392
v -0.001823985 -0.0004269 0.0065625
v -0.00182994 -0.00040857 0.00934017
v -0.00185994 -0.00021849 0.0065625
v -0.00185418 -0.000278625 0.009295545
v -0.0018696 -0.00014223 0.009268095
v -0.001875 0 0.0065625
v -0.001875 0 0.00925782
v -0.00185994 0.00021849 0.0065625
v -0.001869375 0.0001452 0.00926943
v -0.00185349 0.000283215 0.00929757
v -0.001823985 0.0004269 0.0065625
v -0.001828845 0.000413445 0.009342225
v -0.00179637 0.0005373 0.009405015
v -0.001767105 0.00062526 0.0065625
v -0.001757745 0.00065268 0.009484305
v -0.001689315 0.000813525 0.0065625
v -0.0017166 0.00075426 0.009575295
v -0.00167511 0.0008424 0.009678
v -0.0015882 0.00099477 0.0065625
v -0.001635045 0.00091776 0.009792405
v -0.001600755 0.00097632 0.009913545
v -0.00157494 0.00101745 0.010039785
v -0.00146457 0.001167945 0.0065625
v -0.001557855 0.001043415 0.010172775
v -0.00155025 0.001054695 0.0103125
v -0.0015882 0.00099477 0.0140625
v -0.00146457 0.001167945 0.0140625
v -0.001556445 0.0010455 0.010446285
v -0.001572585 0.00102108 0.01057542
v -0.00159792 0.00098097 0.01069989
v -0.001689315 0.000813525 0.0140625
v -0.00163212 0.00092295 0.01082208
v -0.001672515 0.000847545 0.010939605
v -0.00171474 0.00075849 0.01104534
v -0.001767105 0.00062526 0.0140625
v -0.001757175 0.000654165 0.01113882
v -0.001797045 0.000535005 0.01122051
v -0.001823985 0.0004269 0.0140625
v -0.00182991 0.00040875 0.011284755
v -0.00185994 0.00021849 0.0140625
v -0.00185421 0.000278475 0.01132968
v -0.001869615 0.00014202 0.01135716
v -0.001875 0 0.0140625
v -0.001875 0 0.011367195
v -0.00185994 -0.00021849 0.0140625
v -0.00186957 -0.000142695 0.01135668
v -0.001854075 -0.000279315 0.01132914
v -0.001823985 -0.0004269 0.0140625
v -0.00182979 -0.000409275 0.01128453
v -0.00179721 -0.00053448 0.011221095
v -0.001767105 -0.00062526 0.0140625
v -0.001757925 -0.000652185 0.011140605
v -0.001689315 -0.000813525 0.0140625
v -0.00171606 -0.000755475 0.011048445
v -0.00167421 -0.000844185 0.010944525
v -0.0015882 -0.00099477 0.0140625
v -0.001633995 -0.000919605 0.010828935
v -0.00159975 -0.000977985 0.010707375
v -0.00157407 -0.001018785 0.01058172
v -0.00132324 0.00132702 0.0065625
v -0.00132324 0.00132702 0.0140625
v -0.00116904 0.001465935 0.0065625
v -0.00116904 0.001465935 0.0140625
v -0.0009993 0.00158535 0.0065625
v -0.0009993 0.00158535 0.0140625
v -0.000812775 0.00168774 0.0065625
v -0.000812775 0.00168774 0.0140625
v -0.000616425 0.001769745 0.0065625
v -0.000616425 0.001769745 0.0140625
v -0.000417225 0.00182799 0.0065625
v -0.000417225 0.00182799 0.0140625
v -0.00021249 0.001861935 0.0065625
v -0.00021249 0.001861935 0.0140625
v 0 0.001873245 0.0065625
v 0 0.001873245 0.0140625
v 0.00021249 0.001861935 0.0065625
v 0.00021249 0.001861935 0.0140625
v 0.000417225 0.00182799 0.0065625
v 0.000417225 0.00182799 0.0140625
v 0.000616425 0.001769745 0.0065625
v 0.000616425 0.001769745 0.0140625
v 0.000812775 0.00168774 0.0065625
v 0.000812775 0.00168774 0.0140625
v 0.0009993 0.00158535 0.0065625
v 0.0009993 0.00158535 0.0140625
v 0.00116904 0.001465935 0.0065625
v 0.00116904 0.001465935 0.0140625
v 0.00132324 0.00132702 0.0065625
v 0.00132324 0.00132702 0.0140625
v 0.00146457 0.001167945 0.0065625
v 0.00146457 0.001167945 0.0140625
v 0.0015882 0.00099477 0.0065625
v 0.0015882 0.00099477 0.0140625
v 0.001689315 0.000813525 0.0065625
v 0.001689315 0.000813525 0.0140625
v 0.001767105 0.00062526 0.0065625
v 0.001767105 0.00062526 0.0140625
v 0.001823985 0.0004269 0.0065625
v 0.001823985 0.0004269 0.0140625
v 0.00185994 0.00021849 0.0065625
v 0.0165327 -0.004157325 0.0140625
v 0.0165327 -0.004157325 0.0065625
v 0.01685778 -0.004198095 0.0065625
v 0.016127625 -0.004100985 0.0140625
v 0.01685778 -0.004198095 0.0140625
v 0.01717806 -0.004215765 0.0065625
v 0.01717806 -0.004215765 0.0140625
v 0.017493525 -0.00421032 0.0065625
v 0.017493525 -0.00421032 0.0140625
v 0.017804175 -0.00418179 0.0065625
v 0.017804175 -0.00418179 0.0140625
v 0.018110025 -0.00413016 0.0065625
v 0.018110025 -0.00413016 0.0140625
v 0.018414315 -0.004054065 0.0065625
v 0.018414315 -0.004054065 0.0140625
v 0.01871706 -0.00395352 0.0065625
v 0.01871706 -0.00395352 0.0140625
v 0.01901337 -0.003830565 0.0065625
v 0.01901337 -0.003830565 0.0140625
v 0.01929834 -0.003687195 0.0065625
v 0.01929834 -0.003687195 0.0140625
v 0.019567095 -0.003525465 0.0065625
v 0.019567095 -0.003525465 0.0140625
v 0.01982217 -0.003342915 0.0065625
v 0.01982217 -0.003342915 0.0140625
v 0.020066805 -0.003138195 0.0065625
v 0.020066805 -0.003138195 0.0140625
v 0.02029722 -0.002914965 0.0065625
v 0.02029722 -0.002914965 0.0140625
v 0.02050962 -0.002676945 0.0065625
v 0.02050962 -0.002676945 0.0140625
v 0.020700165 -0.002427795 0.0065625
v 0.020700165 -0.002427795 0.0140625
v 0.02087034 -0.00216432 0.0065625
v 0.02087034 -0.00216432 0.0140625
v 0.02102268 -0.00188403 0.0065625
v 0.02102268 -0.00188403 0.0140625
v 0.02115498 -0.001591785 0.0065625
v 0.02115498 -0.001591785 0.0140625
v 0.02126508 -0.00129237 0.0065625
v 0.02126508 -0.00129237 0.0140625
v 0.02135079 -0.000990645 0.0065625
v 0.02135079 -0.000990645 0.0140625
v 0.021412275 -0.00068307 0.0065625
v 0.021412275 -0.00068307 0.0140625
v 0.02145099 -0.00036642 0.0065625
v 0.02145099 -0.00036642 0.0140625
v 0.021466695 -4.6005e-05 0.0065625
v 0.021466695 -4.6005e-05 0.0140625
v 0.02145912 0.00027291 0.0065625
v 0.02145912 0.00027291 0.0140625
v 0.021427995 0.00058503 0.0065625
v 0.021427995 0.00058503 0.0140625
v 0.021372195 0.000893685 0.0065625
v 0.021372195 0.000893685 0.0140625
v 0.021291885 0.001202415 0.0065625
v 0.021291885 0.001202415 0.0140625
v 0.021188775 0.00150621 0.0065625
v 0.021188775 0.00150621 0.0140625
v 0.021064575 0.00180003 0.0065625
v 0.021064575 0.00180003 0.0140625
v 0.02092098 0.002078895 0.0065625
v 0.02092098 0.002078895 0.0140625
v 0.020757975 0.00234279 0.0065625
v 0.020757975 0.00234279 0.0140625
v 0.020574435 0.002595045 0.0065625
v 0.020574435 0.002595045 0.0140625
v 0.020370375 0.00283569 0.0065625
v 0.020370375 0.00283569 0.0140625
v 0.020145765 0.003064695 0.0065625
v 0.020145765 0.003064695 0.0140625
v 0.019900635 0.003282075 0.0065625
v 0.019900635 0.003282075 0.0140625
v 0.019531125 0.00357549 0.0065625
v 0.019531125 0.00357549 0.0140625
v 0.0191592 0.003863625 0.0065625
v 0.0191592 0.003863625 0.0140625
v 0.01878486 0.004146465 0.0065625
v 0.01878486 0.004146465 0.0140625
v 0.018408135 0.004423995 0.0065625
v 0.018408135 0.004423995 0.0140625
v 0.018028995 0.004696245 0.0065625
v 0.018028995 0.004696245 0.0140625
v 0.01764744 0.004963185 0.0065625
v 0.01764744 0.004963185 0.0140625
v 0.017263485 0.005224845 0.0065625
v 0.017263485 0.005224845 0.0140625
v 0.01687713 0.005481195 0.0065625
v 0.01687713 0.005481195 0.0140625
v 0.01648836 0.005732265 0.0065625
v 0.01648836 0.005732265 0.0140625
v 0.01609719 0.005978025 0.0065625
v 0.01609719 0.005978025 0.0140625
v 0.015703605 0.00621849 0.0065625
v 0.015703605 0.00621849 0.0140625
v 0.01530762 0.006453675 0.0065625
v 0.01530762 0.006453675 0.0140625
v 0.014909235 0.00668355 0.0065625
v 0.014909235 0.00668355 0.0140625
v 0.014508435 0.00690813 0.0065625
v 0.014508435 0.00690813 0.0140625
v 0.01410522 0.007127415 0.0065625
v 0.01410522 0.007127415 0.0140625
v 0.01369941 0.007341495 0.0065625
v 0.01369941 0.007341495 0.0140625
v 0.01329102 0.007550355 0.0065625
v 0.01329102 0.007550355 0.0140625
v 0.012880095 0.007753965 0.0065625
v 0.012880095 0.007753965 0.0140625
v 0.01246668 0.007952325 0.0065625
v 0.01246668 0.007952325 0.0140625
v 0.012050835 0.00814539 0.0065625
v 0.012050835 0.00814539 0.0140625
v 0.011632605 0.00833316 0.0065625
v 0.011632605 0.00833316 0.0140625
v 0.011212035 0.00851559 0.0065625
v 0.011212035 0.00851559 0.0140625
v 0.0107892 0.00869268 0.0065625
v 0.0107892 0.00869268 0.0140625
v 0.01036413 0.0088644 0.0065625
v 0.01036413 0.0088644 0.0140625
v 0.00993687 0.00903072 0.0065625
v 0.00993687 0.00903072 0.0140625
v 0.009507495 0.009191625 0.0065625
v 0.009507495 0.009191625 0.0140625
v 0.00907605 0.0093471 0.0065625
v 0.00907605 0.0093471 0.0140625
v 0.00864258 0.009497115 0.0065625
v 0.00864258 0.009497115 0.0140625
v 0.00820713 0.00964164 0.0065625
v 0.00820713 0.00964164 0.0140625
v 0.007769715 0.009780705 0.0065625
v 0.007769715 0.009780705 0.0140625
v 0.00733014 0.00991434 0.0065625
v 0.00733014 0.00991434 0.0140625
v 0.006888435 0.01004259 0.0065625
v 0.006888435 0.01004259 0.0140625
v 0.006444555 0.010165425 0.0065625
v 0.006444555 0.010165425 0.0140625
v 0.00599853 0.01028286 0.0065625
v 0.00599853 0.01028286 0.0140625
v 0.005550345 0.010394895 0.0065625
v 0.005550345 0.010394895 0.0140625
v 0.005100015 0.010501515 0.0065625
v 0.005100015 0.010501515 0.0140625
v 0.004647525 0.01060275 0.0065625
v 0.004647525 0.01060275 0.0140625
v 0.00419289 0.01069857 0.0065625
v 0.00419289 0.01069857 0.0140625
v 0.00373608 0.01078899 0.0065625
v 0.00373608 0.01078899 0.0140625
v 0.00327714 0.01087401 0.0065625
v 0.00327714 0.01087401 0.0140625
v 0.002816025 0.01095363 0.0065625
v 0.002816025 0.01095363 0.0140625
v 0.002352765 0.011027835 0.0065625
v 0.002352765 0.011027835 0.0140625
v 0.00188736 0.01109664 0.0065625
v 0.00188736 0.01109664 0.0140625
v 0.00141978 0.011160045 0.0065625
v 0.00141978 0.011160045 0.0140625
v 0.001155615 0.01118946 0.0065625
v 0.001155615 0.01118946 0.0140625
v 0.000892305 0.011212935 0.0065625
v 0.000892305 0.011212935 0.0140625
v 0.000629865 0.0112305 0.0065625
v 0.000629865 0.0112305 0.0140625
v 0.00036828 0.011242125 0.0065625
v 0.00036828 0.011242125 0.0140625
v 0.000107565 0.011247825 0.0065625
v 0.000107565 0.011247825 0.0140625
v -0.000152295 0.011247615 0.0065625
v -0.000152295 0.011247615 0.0140625
v -0.000411285 0.011241465 0.0065625
v -0.000411285 0.011241465 0.0140625
v -0.00066942 0.01122939 0.0065625
v -0.00066942 0.01122939 0.0140625
v -0.000926685 0.01121139 0.0065625
v -0.000926685 0.01121139 0.0140625
v -0.001183095 0.011187465 0.0065625
v -0.001183095 0.011187465 0.0140625
v -0.001438635 0.0111576 0.0065625
v -0.001438635 0.0111576 0.0140625
v -0.00169338 0.01112181 0.0065625
v -0.00169338 0.01112181 0.0140625
v -0.001948275 0.011079795 0.0065625
v -0.001948275 0.011079795 0.0140625
v -0.002203365 0.011031555 0.0065625
v -0.002203365 0.011031555 0.0140625
v -0.00245823 0.010977195 0.0065625
v -0.00245823 0.010977195 0.0140625
v -0.00271248 0.01091685 0.0065625
v -0.00271248 0.01091685 0.0140625
v -0.00296571 0.01085061 0.0065625
v -0.00296571 0.01085061 0.0140625
v -0.00321753 0.01077861 0.0065625
v -0.00321753 0.01077861 0.0140625
v -0.003467535 0.010700955 0.0065625
v -0.003467535 0.010700955 0.0140625
v -0.003715335 0.010617765 0.0065625
v -0.003715335 0.010617765 0.0140625
v -0.003960525 0.010529145 0.0065625
v -0.003960525 0.010529145 0.0140625
v -0.004202715 0.01043523 0.0065625
v -0.004202715 0.01043523 0.0140625
v -0.004441485 0.01033611 0.0065625
v -0.004441485 0.01033611 0.0140625
v -0.004676955 0.010231695 0.0065625
v -0.004676955 0.010231695 0.0140625
v -0.004910895 0.010121205 0.0065625
v -0.004910895 0.010121205 0.0140625
v -0.00514326 0.01000473 0.0065625
v -0.00514326 0.01000473 0.0140625
v -0.00537366 0.00988248 0.0065625
v -0.00537366 0.00988248 0.0140625
v -0.005601765 0.00975468 0.0065625
v -0.005601765 0.00975468 0.0140625
v -0.005827215 0.009621555 0.0065625
v -0.005827215 0.009621555 0.0140625
v -0.006049665 0.009483315 0.0065625
v -0.006049665 0.009483315 0.0140625
v -0.006268755 0.00934017 0.0065625
v -0.006268755 0.00934017 0.0140625
v -0.006484125 0.00919233 0.0065625
v -0.006484125 0.00919233 0.0140625
v -0.00669543 0.009040035 0.0065625
v -0.00669543 0.009040035 0.0140625
v -0.006902325 0.008883495 0.0065625
v -0.006902325 0.008883495 0.0140625
v -0.007104435 0.00872292 0.0065625
v -0.007104435 0.00872292 0.0140625
v -0.007302345 0.0085578 0.0065625
v -0.007302345 0.0085578 0.0140625
v -0.0074973 0.00838713 0.0065625
v -0.0074973 0.00838713 0.0140625
v -0.00768903 0.008211225 0.0065625
v -0.00768903 0.008211225 0.0140625
v -0.00787725 0.008030355 0.0065625
v -0.00787725 0.008030355 0.0140625
v -0.00806169 0.00784485 0.0065625
v -0.00806169 0.00784485 0.0140625
v -0.008242065 0.007654995 0.0065625
v -0.008242065 0.007654995 0.0140625
v -0.008418105 0.007461105 0.0065625
v -0.008418105 0.007461105 0.0140625
v -0.008589495 0.00726348 0.0065625
v -0.008589495 0.00726348 0.0140625
v -0.00875598 0.00706242 0.0065625
v -0.00875598 0.00706242 0.0140625
v -0.008917275 0.00685824 0.0065625
v -0.008917275 0.00685824 0.0140625
v -0.009073095 0.00665124 0.0065625
v -0.009073095 0.00665124 0.0140625
v -0.009223185 0.00644169 0.0065625
v -0.009223185 0.00644169 0.0140625
v -0.009368415 0.006228285 0.0065625
v -0.009368415 0.006228285 0.0140625
v -0.009509265 0.00601041 0.0065625
v -0.009509265 0.00601041 0.0140625
v -0.009645555 0.00578844 0.0065625
v -0.009645555 0.00578844 0.0140625
v -0.009777105 0.00556275 0.0065625
v -0.009777105 0.00556275 0.0140625
v -0.00990369 0.0053337 0.0065625
v -0.00990369 0.0053337 0.0140625
v -0.01002516 0.005101665 0.0065625
v -0.01002516 0.005101665 0.0140625
v -0.01014129 0.004867005 0.0065625
v -0.01014129 0.004867005 0.0140625
v -0.010251915 0.004630095 0.0065625
v -0.010251915 0.004630095 0.0140625
v -0.01035684 0.00439131 0.0065625
v -0.01035684 0.00439131 0.0140625
v -0.010455855 0.004150995 0.0065625
v -0.010455855 0.004150995 0.0140625
v -0.010548795 0.003909525 0.0065625
v -0.010548795 0.003909525 0.0140625
v -0.010635555 0.003667005 0.0065625
v -0.010635555 0.003667005 0.0140625
v -0.010716795 0.003421575 0.0065625
v -0.010716795 0.003421575 0.0140625
v -0.01079259 0.003173115 0.0065625
v -0.01079259 0.003173115 0.0140625
v -0.01086288 0.00292206 0.0065625
v -0.01086288 0.00292206 0.0140625
v -0.010927575 0.0026688 0.0065625
v -0.010927575 0.0026688 0.0140625
v -0.01098657 0.00241374 0.0065625
v -0.01098657 0.00241374 0.0140625
v -0.011039805 0.0021573 0.0065625
v -0.011039805 0.0021573 0.0140625
v -0.011087175 0.00189987 0.0065625
v -0.011087175 0.00189987 0.0140625
v -0.01112862 0.001641855 0.0065625
v -0.01112862 0.001641855 0.0140625
v -0.01116402 0.00138369 0.0065625
v -0.01116402 0.00138369 0.0140625
v -0.011193315 0.001125735 0.0065625
v -0.011193315 0.001125735 0.0140625
v -0.011200455 0.001054695 0.0103125
v -0.011201715 0.00104124 0.010474155
v -0.011216415 0.00086844 0.0065625
v -0.011201835 0.001039965 0.01014819
v -0.011205045 0.00100464 0.00999459
v -0.01120992 0.000948705 0.009851715
v -0.011216295 0.000870105 0.009717165
v -0.011223555 0.00077082 0.00959334
v -0.011233305 0.000611355 0.0065625
v -0.0112308 0.00065694 0.009487395
v -0.011237625 0.00052737 0.009400125
v -0.01124412 0.000352665 0.0065625
v -0.011243475 0.00038316 0.009330735
v -0.01124757 0.00023367 0.009284025
v -0.011248905 9.2655e-05 0.0065625
v -0.01124973 7.845e-05 0.009261675
v -0.011247675 -0.000168285 0.0065625
v -0.0112497 -8.2005e-05 0.00926199
v -0.01124751 -0.00023688 0.00928476
v -0.011240475 -0.00042972 0.0065625
v -0.0112434 -0.000385365 0.009331215
v -0.011237595 -0.000528225 0.00940011
v -0.01122732 -0.000691245 0.0065625
v -0.0112308 -0.000657045 0.009487485
v -0.011223525 -0.000771435 0.009594945
v -0.011208255 -0.00095244 0.0065625
v -0.011216175 -0.000871815 0.0097209
v -0.011209725 -0.000951015 0.0098565
v -0.011204865 -0.00100668 0.009998835
v -0.01118328 -0.0012129 0.0065625
v -0.011201715 -0.00104124 0.010150845
v -0.011200455 -0.001054695 0.0103125
v -0.011208255 -0.00095244 0.0140625
v -0.01118328 -0.0012129 0.0140625
v -0.011201835 -0.001039965 0.01047681
v -0.011205045 -0.00100464 0.01063041
v -0.01120992 -0.000948705 0.010773285
v -0.01122732 -0.000691245 0.0140625
v -0.011216295 -0.000870105 0.010907835
v -0.011223555 -0.00077082 0.01103166
v -0.0112308 -0.00065694 0.011137605
v -0.011240475 -0.00042972 0.0140625
v -0.011237625 -0.00052737 0.011224875
v -0.011243475 -0.00038316 0.011294265
v -0.011247675 -0.000168285 0.0140625
v -0.01124757 -0.00023367 0.011340975
v -0.01124973 -7.845e-05 0.011363325
v -0.011248905 9.2655e-05 0.0140625
v -0.0112497 8.2005e-05 0.01136301
v -0.01124751 0.00023688 0.01134024
v -0.01124412 0.000352665 0.0140625
v -0.0112434 0.000385365 0.011293785
v -0.011233305 0.000611355 0.0140625
v -0.011237595 0.000528225 0.01122489
v -0.0112308 0.000657045 0.011137515
v -0.011216415 0.00086844 0.0140625
v -0.011223525 0.000771435 0.011030055
v -0.011216175 0.000871815 0.0109041
v -0.011209725 0.000951015 0.0107685
v -0.011204865 0.00100668 0.010626165
v -0.011152425 -0.001472205 0.0065625
v -0.011152425 -0.001472205 0.0140625
v -0.011115735 -0.00172995 0.0065625
v -0.011115735 -0.00172995 0.0140625
v -0.011073225 -0.0019857 0.0065625
v -0.011073225 -0.0019857 0.0140625
v -0.011024925 -0.002239065 0.0065625
v -0.011024925 -0.002239065 0.0140625
v -0.010970565 -0.002491215 0.0065625
v -0.010970565 -0.002491215 0.0140625
v -0.010909935 -0.00274329 0.0065625
v -0.010909935 -0.00274329 0.0140625
v -0.01084317 -0.002994915 0.0065625
v -0.01084317 -0.002994915 0.0140625
v -0.01077042 -0.003245715 0.0065625
v -0.01077042 -0.003245715 0.0140625
v -0.01069182 -0.003495285 0.0065625
v -0.01069182 -0.003495285 0.0140625
v -0.01060749 -0.003743235 0.0065625
v -0.01060749 -0.003743235 0.0140625
v -0.01051758 -0.003989175 0.0065625
v -0.01051758 -0.003989175 0.0140625
v -0.010422225 -0.0042327 0.0065625
v -0.010422225 -0.0042327 0.0140625
v -0.01032156 -0.004473435 0.0065625
v -0.01032156 -0.004473435 0.0140625
v -0.010215735 -0.00471099 0.0065625
v -0.010215735 -0.00471099 0.0140625
v -0.010104855 -0.00494496 0.0065625
v -0.010104855 -0.00494496 0.0140625
v -0.009989025 -0.00517509 0.0065625
v -0.009989025 -0.00517509 0.0140625
v -0.00986739 -0.005403 0.0065625
v -0.00986739 -0.005403 0.0140625
v -0.009739785 -0.00562908 0.0065625
v -0.009739785 -0.00562908 0.0140625
v -0.00960648 -0.005852985 0.0065625
v -0.00960648 -0.005852985 0.0140625
v -0.00946767 -0.006074385 0.0065625
v -0.00946767 -0.006074385 0.0140625
v -0.00932364 -0.006292935 0.0065625
v -0.00932364 -0.006292935 0.0140625
v -0.009174585 -0.006508305 0.0065625
v -0.009174585 -0.006508305 0.0140625
v -0.00902076 -0.006720135 0.0065625
v -0.00902076 -0.006720135 0.0140625
v -0.008862405 -0.006928095 0.0065625
v -0.008862405 -0.006928095 0.0140625
v -0.008699745 -0.007131855 0.0065625
v -0.008699745 -0.007131855 0.0140625
v -0.00853302 -0.00733104 0.0065625
v -0.00853302 -0.00733104 0.0140625
v -0.00836247 -0.00752535 0.0065625
v -0.00836247 -0.00752535 0.0140625
v -0.00818799 -0.007714815 0.0065625
v -0.00818799 -0.007714815 0.0140625
v -0.008008215 -0.00790089 0.0065625
v -0.008008215 -0.00790089 0.0140625
v -0.007823295 -0.008083545 0.0065625
v -0.007823295 -0.008083545 0.0140625
v -0.007633545 -0.008262495 0.0065625
v -0.007633545 -0.008262495 0.0140625
v -0.007439265 -0.00843747 0.0065625
v -0.007439265 -0.00843747 0.0140625
v -0.007240785 -0.008608245 0.0065625
v -0.007240785 -0.008608245 0.0140625
v -0.007038435 -0.008774505 0.0065625
v -0.007038435 -0.008774505 0.0140625
v -0.006832515 -0.008936025 0.0065625
v -0.006832515 -0.008936025 0.0140625
v -0.006623355 -0.00909252 0.0065625
v -0.006623355 -0.00909252 0.0140625
v -0.00641127 -0.009243735 0.0065625
v -0.00641127 -0.009243735 0.0140625
v -0.00619659 -0.0093894 0.0065625
v -0.00619659 -0.0093894 0.0140625
v -0.005979615 -0.00952926 0.0065625
v -0.005979615 -0.00952926 0.0140625
v -0.005759685 -0.00966366 0.0065625
v -0.005759685 -0.00966366 0.0140625
v -0.00553545 -0.00979347 0.0065625
v -0.00553545 -0.00979347 0.0140625
v -0.005307285 -0.009918555 0.0065625
v -0.005307285 -0.009918555 0.0140625
v -0.005075565 -0.010038735 0.0065625
v -0.005075565 -0.010038735 0.0140625
v -0.00484065 -0.010153845 0.0065625
v -0.00484065 -0.010153845 0.0140625
v -0.00460293 -0.010263705 0.0065625
v -0.00460293 -0.010263705 0.0140625
v -0.00436278 -0.01036815 0.0065625
v -0.00436278 -0.01036815 0.0140625
v -0.00412059 -0.010467015 0.0065625
v -0.00412059 -0.010467015 0.0140625
v -0.00387672 -0.01056012 0.0065625
v -0.00387672 -0.01056012 0.0140625
v -0.00363156 -0.010647315 0.0065625
v -0.00363156 -0.010647315 0.0140625
v -0.003385485 -0.010728405 0.0065625
v -0.003385485 -0.010728405 0.0140625
v -0.00313884 -0.01080324 0.0065625
v -0.00313884 -0.01080324 0.0140625
v -0.002890095 -0.010872255 0.0065625
v -0.002890095 -0.010872255 0.0140625
v -0.00263853 -0.01093569 0.0065625
v -0.00263853 -0.01093569 0.0140625
v -0.00238455 -0.010993485 0.0065625
v -0.00238455 -0.010993485 0.0140625
v -0.002128575 -0.011045595 0.0065625
v -0.002128575 -0.011045595 0.0140625
v -0.00187101 -0.01109193 0.0065625
v -0.00187101 -0.01109193 0.0140625
v -0.00161226 -0.011132445 0.0065625
v -0.00161226 -0.011132445 0.0140625
v -0.00135273 -0.01116708 0.0065625
v -0.00135273 -0.01116708 0.0140625
v -0.00109284 -0.011195775 0.0065625
v -0.00109284 -0.011195775 0.0140625
v -0.000832995 -0.011218455 0.0065625
v -0.000832995 -0.011218455 0.0140625
v -0.000573615 -0.01123506 0.0065625
v -0.000573615 -0.01123506 0.0140625
v -0.000315105 -0.011245545 0.0065625
v -0.000315105 -0.011245545 0.0140625
v -5.757e-05 -0.01124982 0.0065625
v -5.757e-05 -0.01124982 0.0140625
v 0.000200955 -0.011247945 0.0065625
v 0.000200955 -0.011247945 0.0140625
v 0.000460605 -0.01123995 0.0065625
v 0.000460605 -0.01123995 0.0140625
v 0.00072093 -0.01122591 0.0065625
v 0.00072093 -0.01122591 0.0140625
v 0.000981555 -0.01120584 0.0065625
v 0.000981555 -0.01120584 0.0140625
v 0.001242045 -0.011179815 0.0065625
v 0.001242045 -0.011179815 0.0140625
v 0.00150201 -0.01114788 0.0065625
v 0.00150201 -0.01114788 0.0140625
v 0.001761015 -0.01111008 0.0065625
v 0.001761015 -0.01111008 0.0140625
v 0.002018655 -0.011066475 0.0065625
v 0.002018655 -0.011066475 0.0140625
v 0.00227454 -0.011017095 0.0065625
v 0.00227454 -0.011017095 0.0140625
v 0.00252822 -0.010962015 0.0065625
v 0.00252822 -0.010962015 0.0140625
v 0.00277932 -0.010901265 0.0065625
v 0.00277932 -0.010901265 0.0140625
v 0.00302784 -0.010834845 0.0065625
v 0.00302784 -0.010834845 0.0140625
v 0.003274785 -0.01076265 0.0065625
v 0.003274785 -0.01076265 0.0140625
v 0.003520215 -0.010684665 0.0065625
v 0.003520215 -0.010684665 0.0140625
v 0.00376413 -0.010600875 0.0065625
v 0.00376413 -0.010600875 0.0140625
v 0.004006515 -0.010511295 0.0065625
v 0.004006515 -0.010511295 0.0140625
v 0.004247385 -0.010415925 0.0065625
v 0.004247385 -0.010415925 0.0140625
v 0.00448674 -0.010314765 0.0065625
v 0.00448674 -0.010314765 0.0140625
v 0.00472458 -0.010207815 0.0065625
v 0.00472458 -0.010207815 0.0140625
v 0.004960905 -0.01009506 0.0065625
v 0.004960905 -0.01009506 0.0140625
v 0.005195715 -0.009976515 0.0065625
v 0.005195715 -0.009976515 0.0140625
v 0.005428995 -0.00985218 0.0065625
v 0.005428995 -0.00985218 0.0140625
v 0.00566076 -0.009722055 0.0065625
v 0.00566076 -0.009722055 0.0140625
v 0.00595179 -0.00953013 0.0065625
v 0.00595179 -0.00953013 0.0140625
v 0.0062373 -0.009339045 0.0065625
v 0.0062373 -0.009339045 0.0140625
v 0.006517275 -0.009148785 0.0065625
v 0.006517275 -0.009148785 0.0140625
v 0.006791715 -0.008959365 0.0065625
v 0.006791715 -0.008959365 0.0140625
v 0.007060635 -0.008770755 0.0065625
v 0.007060635 -0.008770755 0.0140625
v 0.007324035 -0.008582985 0.0065625
v 0.007324035 -0.008582985 0.0140625
v 0.0075819 -0.00839604 0.0065625
v 0.0075819 -0.00839604 0.0140625
v 0.00783423 -0.00820992 0.0065625
v 0.00783423 -0.00820992 0.0140625
v 0.008080905 -0.008024445 0.0065625
v 0.008080905 -0.008024445 0.0140625
v 0.00832041 -0.007837515 0.0065625
v 0.00832041 -0.007837515 0.0140625
v 0.008553015 -0.007649505 0.0065625
v 0.008553015 -0.007649505 0.0140625
v 0.008779605 -0.007461645 0.0065625
v 0.008779605 -0.007461645 0.0140625
v 0.009001065 -0.007275165 0.0065625
v 0.009001065 -0.007275165 0.0140625
v 0.009218265 -0.00709128 0.0065625
v 0.009218265 -0.00709128 0.0140625
v 0.00943209 -0.006911205 0.0065625
v 0.00943209 -0.006911205 0.0140625
v 0.009643425 -0.006736185 0.0065625
v 0.009643425 -0.006736185 0.0140625
v 0.009853155 -0.00656742 0.0065625
v 0.009853155 -0.00656742 0.0140625
v 0.01006116 -0.00640503 0.0065625
v 0.01006116 -0.00640503 0.0140625
v 0.01026501 -0.00624624 0.0065625
v 0.01026501 -0.00624624 0.0140625
v 0.010465095 -0.00609126 0.0065625
v 0.010465095 -0.00609126 0.0140625
v 0.01066206 -0.005940525 0.0065625
v 0.01066206 -0.005940525 0.0140625
v 0.010856535 -0.005794515 0.0065625
v 0.010856535 -0.005794515 0.0140625
v 0.011049165 -0.005653695 0.0065625
v 0.011049165 -0.005653695 0.0140625
v 0.01124058 -0.005518515 0.0065625
v 0.01124058 -0.005518515 0.0140625
v 0.01143141 -0.00538944 0.0065625
v 0.01143141 -0.00538944 0.0140625
v 0.011622285 -0.005266935 0.0065625
v 0.011622285 -0.005266935 0.0140625
v 0.011812485 -0.005150565 0.0065625
v 0.011812485 -0.005150565 0.0140625
v 0.01200099 -0.00503967 0.0065625
v 0.01200099 -0.00503967 0.0140625
v 0.012188115 -0.004934385 0.0065625
v 0.012188115 -0.004934385 0.0140625
v 0.012374115 -0.0048348 0.0065625
v 0.012374115 -0.0048348 0.0140625
v 0.012559275 -0.00474102 0.0065625
v 0.012559275 -0.00474102 0.0140625
v 0.012743895 -0.004653195 0.0065625
v 0.012743895 -0.004653195 0.0140625
v 0.012928245 -0.0045714 0.0065625
v 0.012928245 -0.0045714 0.0140625
v 0.013112595 -0.004495755 0.0065625
v 0.013112595 -0.004495755 0.0140625
v 0.01329708 -0.00442638 0.0065625
v 0.01329708 -0.00442638 0.0140625
v 0.01348014 -0.00436317 0.0065625
v 0.01348014 -0.00436317 0.0140625
v 0.013661835 -0.004306065 0.0065625
v 0.013661835 -0.004306065 0.0140625
v 0.01384281 -0.00425502 0.0065625
v 0.01384281 -0.00425502 0.0140625
v 0.014023755 -0.00420996 0.0065625
v 0.014023755 -0.00420996 0.0140625
v 0.01420533 -0.00417084 0.0065625
v 0.01420533 -0.00417084 0.0140625
v 0.014573085 -0.004110225 0.0065625
v 0.014573085 -0.004110225 0.0140625
v 0.01495098 -0.004072785 0.0065625
v 0.01495098 -0.004072785 0.0140625
v 0.015336765 -0.004058715 0.0065625
v 0.015336765 -0.004058715 0.0140625
v 0.015728985 -0.00406812 0.0065625
v 0.015728985 -0.00406812 0.0140625
v 0.016127625 -0.004100985 0.0065625
v 0.01764744 0.004963185 0.0140625
v 0.017703405 0.00011049 0.0140625
v 0.01771875 0 0.0140625
v 0.01766958 0.00020754 0.0140625
v 0.017804175 -0.00418179 0.0140625
v 0.018028995 0.004696245 0.0140625
v 0.017703405 -0.00011049 0.0140625
v 0.01766958 -0.00020754 0.0140625
v 0.01761708 -0.00029133 0.0140625
v 0.017541825 -0.0003648 0.0140625
v 0.017493525 -0.00421032 0.0140625
v 0.017451345 -0.000422475 0.0140625
v 0.017355885 -0.00045624 0.0140625
v 0.01725 -0.0004671 0.0140625
v 0.01717806 -0.004215765 0.0140625
v 0.017144115 -0.00045624 0.0140625
v 0.017048655 -0.000422475 0.0140625
v 0.016958175 -0.0003648 0.0140625
v 0.01688292 -0.00029133 0.0140625
v 0.01685778 -0.004198095 0.0140625
v 0.01683042 -0.00020754 0.0140625
v 0.016796595 -0.00011049 0.0140625
v 0.01678125 0 0.0140625
v 0.0165327 -0.004157325 0.0140625
v 0.01648836 0.005732265 0.0140625
v 0.016127625 -0.004100985 0.0140625
v 0.016796595 0.00011049 0.0140625
v 0.01683042 0.00020754 0.0140625
v 0.01687713 0.005481195 0.0140625
v 0.01688292 0.00029133 0.0140625
v 0.016958175 0.0003648 0.0140625
v 0.017048655 0.000422475 0.0140625
v 0.017144115 0.00045624 0.0140625
v 0.01725 0.0004671 0.0140625
v 0.017263485 0.005224845 0.0140625
v 0.017355885 0.00045624 0.0140625
v 0.017451345 0.000422475 0.0140625
v 0.017541825 0.0003648 0.0140625
v 0.01761708 0.00029133 0.0140625
v 0.01609719 0.005978025 0.0140625
v 0.015728985 -0.00406812 0.0140625
v 0.015703605 0.00621849 0.0140625
v 0.015336765 -0.004058715 0.0140625
v 0.01530762 0.006453675 0.0140625
v 0.01495098 -0.004072785 0.0140625
v 0.014909235 0.00668355 0.0140625
v 0.014573085 -0.004110225 0.0140625
v 0.014508435 0.00690813 0.0140625
v 0.01420533 -0.00417084 0.0140625
v 0.01410522 0.007127415 0.0140625
v 0.014023755 -0.00420996 0.0140625
v 0.01369941 0.007341495 0.0140625
v 0.01384281 -0.00425502 0.0140625
v 0.013661835 -0.004306065 0.0140625
v 0.01329102 0.007550355 0.0140625
v 0.01348014 -0.00436317 0.0140625
v 0.01329708 -0.00442638 0.0140625
v 0.013112595 -0.004495755 0.0140625
v 0.012880095 0.007753965 0.0140625
v 0.012928245 -0.0045714 0.0140625
v 0.012743895 -0.004653195 0.0140625
v 0.01246668 0.007952325 0.0140625
v 0.012559275 -0.00474102 0.0140625
v 0.012374115 -0.0048348 0.0140625
v 0.012050835 0.00814539 0.0140625
v 0.012188115 -0.004934385 0.0140625
v 0.01200099 -0.00503967 0.0140625
v 0.011632605 0.00833316 0.0140625
v 0.011812485 -0.005150565 0.0140625
v 0.011622285 -0.005266935 0.0140625
v 0.011212035 0.00851559 0.0140625
v 0.01143141 -0.00538944 0.0140625
v 0.01124058 -0.005518515 0.0140625
v 0.011049165 -0.005653695 0.0140625
v 0.0107892 0.00869268 0.0140625
v 0.010856535 -0.005794515 0.0140625
v 0.01066206 -0.005940525 0.0140625
v 0.01036413 0.0088644 0.0140625
v 0.010465095 -0.00609126 0.0140625
v 0.01026501 -0.00624624 0.0140625
v 0.00993687 0.00903072 0.0140625
v 0.01006116 -0.00640503 0.0140625
v 0.009853155 -0.00656742 0.0140625
v 0.009507495 0.009191625 0.0140625
v 0.009643425 -0.006736185 0.0140625
v 0.00943209 -0.006911205 0.0140625
v 0.00907605 0.0093471 0.0140625
v 0.009218265 -0.00709128 0.0140625
v 0.009001065 -0.007275165 0.0140625
v 0.00864258 0.009497115 0.0140625
v 0.008779605 -0.007461645 0.0140625
v 0.008553015 -0.007649505 0.0140625
v 0.00820713 0.00964164 0.0140625
v 0.00832041 -0.007837515 0.0140625
v 0.008080905 -0.008024445 0.0140625
v 0.007769715 0.009780705 0.0140625
v 0.00783423 -0.00820992 0.0140625
v 0.0075819 -0.00839604 0.0140625
v 0.00733014 0.00991434 0.0140625
v 0.007324035 -0.008582985 0.0140625
v 0.006888435 0.01004259 0.0140625
v 0.007060635 -0.008770755 0.0140625
v 0.006791715 -0.008959365 0.0140625
v 0.006444555 0.010165425 0.0140625
v 0.006517275 -0.009148785 0.0140625
v 0.0062373 -0.009339045 0.0140625
v 0.00599853 0.01028286 0.0140625
v 0.00595179 -0.00953013 0.0140625
v 0.005550345 0.010394895 0.0140625
v 0.00566076 -0.009722055 0.0140625
v 0.005428995 -0.00985218 0.0140625
v 0.005100015 0.010501515 0.0140625
v 0.005195715 -0.009976515 0.0140625
v 0.004960905 -0.01009506 0.0140625
v 0.004647525 0.01060275 0.0140625
v 0.00472458 -0.010207815 0.0140625
v 0.00448674 -0.010314765 0.0140625
v 0.00419289 0.01069857 0.0140625
v 0.004247385 -0.010415925 0.0140625
v 0.004006515 -0.010511295 0.0140625
v 0.00373608 0.01078899 0.0140625
v 0.00376413 -0.010600875 0.0140625
v 0.003520215 -0.010684665 0.0140625
v 0.00327714 0.01087401 0.0140625
v 0.003274785 -0.01076265 0.0140625
v 0.002816025 0.01095363 0.0140625
v 0.00302784 -0.010834845 0.0140625
v 0.00277932 -0.010901265 0.0140625
v 0.002352765 0.011027835 0.0140625
v 0.00252822 -0.010962015 0.0140625
v 0.00227454 -0.011017095 0.0140625
v 0.00188736 0.01109664 0.0140625
v 0.002018655 -0.011066475 0.0140625
v 0.001875 0 0.0140625
v 0.00141978 0.011160045 0.0140625
v 0.00185994 -0.00021849 0.0140625
v 0.001823985 -0.0004269 0.0140625
v 0.001767105 -0.00062526 0.0140625
v 0.001761015 -0.01111008 0.0140625
v 0.001689315 -0.000813525 0.0140625
v 0.0015882 -0.00099477 0.0140625
v 0.00150201 -0.01114788 0.0140625
v 0.00146457 -0.001167945 0.0140625
v 0.00132324 -0.00132702 0.0140625
v 0.001242045 -0.011179815 0.0140625
v 0.00116904 -0.001465935 0.0140625
v 0.0009993 -0.00158535 0.0140625
v 0.000981555 -0.01120584 0.0140625
v 0.000812775 -0.00168774 0.0140625
v 0.00072093 -0.01122591 0.0140625
v 0.000616425 -0.001769745 0.0140625
v 0.000460605 -0.01123995 0.0140625
v 0.000417225 -0.00182799 0.0140625
v 0.00021249 -0.001861935 0.0140625
v 0.000200955 -0.011247945 0.0140625
v 0 -0.001873245 0.0140625
v -5.757e-05 -0.01124982 0.0140625
v -0.00021249 -0.001861935 0.0140625
v -0.000315105 -0.011245545 0.0140625
v -0.000417225 -0.00182799 0.0140625
v -0.000573615 -0.01123506 0.0140625
v -0.000616425 -0.001769745 0.0140625
v -0.000812775 -0.00168774 0.0140625
v -0.000832995 -0.011218455 0.0140625
v -0.0009993 -0.00158535 0.0140625
v -0.00109284 -0.011195775 0.0140625
v -0.00116904 -0.001465935 0.0140625
v -0.00132324 -0.00132702 0.0140625
v -0.00135273 -0.01116708 0.0140625
v -0.00146457 -0.001167945 0.0140625
v -0.0015882 -0.00099477 0.0140625
v -0.00161226 -0.011132445 0.0140625
v -0.001689315 -0.000813525 0.0140625
v -0.001767105 -0.00062526 0.0140625
v -0.001823985 -0.0004269 0.0140625
v -0.00185994 -0.00021849 0.0140625
v -0.00187101 -0.01109193 0.0140625
v -0.001875 0 0.0140625
v -0.001948275 0.011079795 0.0140625
v -0.002128575 -0.011045595 0.0140625
v -0.00185994 0.00021849 0.0140625
v -0.001823985 0.0004269 0.0140625
v -0.001767105 0.00062526 0.0140625
v -0.00169338 0.01112181 0.0140625
v -0.001689315 0.000813525 0.0140625
v -0.0015882 0.00099477 0.0140625
v -0.00146457 0.001167945 0.0140625
v -0.001438635 0.0111576 0.0140625
v -0.00132324 0.00132702 0.0140625
v -0.001183095 0.011187465 0.0140625
v -0.00116904 0.001465935 0.0140625
v -0.0009993 0.00158535 0.0140625
v -0.000926685 0.01121139 0.0140625
v -0.000812775 0.00168774 0.0140625
v -0.00066942 0.01122939 0.0140625
v -0.000616425 0.001769745 0.0140625
v -0.000417225 0.00182799 0.0140625
v -0.000411285 0.011241465 0.0140625
v -0.00021249 0.001861935 0.0140625
v -0.000152295 0.011247615 0.0140625
v 0 0.001873245 0.0140625
v 0.000107565 0.011247825 0.0140625
v 0.00021249 0.001861935 0.0140625
v 0.00036828 0.011242125 0.0140625
v 0.000417225 0.00182799 0.0140625
v 0.000616425 0.001769745 0.0140625
v 0.000629865 0.0112305 0.0140625
v 0.000812775 0.00168774 0.0140625
v 0.000892305 0.011212935 0.0140625
v 0.0009993 0.00158535 0.0140625
v 0.001155615 0.01118946 0.0140625
v 0.00116904 0.001465935 0.0140625
v 0.00132324 0.00132702 0.0140625
v 0.00146457 0.001167945 0.0140625
v 0.0015882 0.00099477 0.0140625
v 0.001689315 0.000813525 0.0140625
v 0.001767105 0.00062526 0.0140625
v 0.001823985 0.0004269 0.0140625
v 0.00185994 0.00021849 0.0140625
v -0.002203365 0.011031555 0.0140625
v -0.00238455 -0.010993485 0.0140625
v -0.00245823 0.010977195 0.0140625
v -0.00263853 -0.01093569 0.0140625
v -0.00271248 0.01091685 0.0140625
v -0.002890095 -0.010872255 0.0140625
v -0.00296571 0.01085061 0.0140625
v -0.00313884 -0.01080324 0.0140625
v -0.00321753 0.01077861 0.0140625
v -0.003385485 -0.010728405 0.0140625
v -0.003467535 0.010700955 0.0140625
v -0.00363156 -0.010647315 0.0140625
v -0.003715335 0.010617765 0.0140625
v -0.00387672 -0.01056012 0.0140625
v -0.003960525 0.010529145 0.0140625
v -0.00412059 -0.010467015 0.0140625
v -0.004202715 0.01043523 0.0140625
v -0.00436278 -0.01036815 0.0140625
v -0.004441485 0.01033611 0.0140625
v -0.00460293 -0.010263705 0.0140625
v -0.004676955 0.010231695 0.0140625
v -0.00484065 -0.010153845 0.0140625
v -0.004910895 0.010121205 0.0140625
v -0.005075565 -0.010038735 0.0140625
v -0.00514326 0.01000473 0.0140625
v -0.005307285 -0.009918555 0.0140625
v -0.00537366 0.00988248 0.0140625
v -0.00553545 -0.00979347 0.0140625
v -0.005601765 0.00975468 0.0140625
v -0.005759685 -0.00966366 0.0140625
v -0.005827215 0.009621555 0.0140625
v -0.005979615 -0.00952926 0.0140625
v -0.006049665 0.009483315 0.0140625
v -0.00619659 -0.0093894 0.0140625
v -0.006268755 0.00934017 0.0140625
v -0.00641127 -0.009243735 0.0140625
v -0.006484125 0.00919233 0.0140625
v -0.006623355 -0.00909252 0.0140625
v -0.00669543 0.009040035 0.0140625
v -0.006832515 -0.008936025 0.0140625
v -0.006902325 0.008883495 0.0140625
v -0.007038435 -0.008774505 0.0140625
v -0.007104435 0.00872292 0.0140625
v -0.007240785 -0.008608245 0.0140625
v -0.007302345 0.0085578 0.0140625
v -0.007439265 -0.00843747 0.0140625
v -0.0074973 0.00838713 0.0140625
v -0.007633545 -0.008262495 0.0140625
v -0.00768903 0.008211225 0.0140625
v -0.007823295 -0.008083545 0.0140625
v -0.00787725 0.008030355 0.0140625
v -0.008008215 -0.00790089 0.0140625
v -0.00806169 0.00784485 0.0140625
v -0.00818799 -0.007714815 0.0140625
v -0.008242065 0.007654995 0.0140625
v -0.00836247 -0.00752535 0.0140625
v -0.008418105 0.007461105 0.0140625
v -0.00853302 -0.00733104 0.0140625
v -0.008589495 0.00726348 0.0140625
v -0.008699745 -0.007131855 0.0140625
v -0.00875598 0.00706242 0.0140625
v -0.008862405 -0.006928095 0.0140625
v -0.008917275 0.00685824 0.0140625
v -0.00902076 -0.006720135 0.0140625
v -0.009073095 0.00665124 0.0140625
v -0.009174585 -0.006508305 0.0140625
v -0.009223185 0.00644169 0.0140625
v -0.00932364 -0.006292935 0.0140625
v -0.009368415 0.006228285 0.0140625
v -0.00946767 -0.006074385 0.0140625
v -0.009509265 0.00601041 0.0140625
v -0.00960648 -0.005852985 0.0140625
v -0.009645555 0.00578844 0.0140625
v -0.009739785 -0.00562908 0.0140625
v -0.009777105 0.00556275 0.0140625
v -0.00986739 -0.005403 0.0140625
v -0.00990369 0.0053337 0.0140625
v -0.009989025 -0.00517509 0.0140625
v -0.01002516 0.005101665 0.0140625
v -0.010104855 -0.00494496 0.0140625
v -0.01014129 0.004867005 0.0140625
v -0.010215735 -0.00471099 0.0140625
v -0.010251915 0.004630095 0.0140625
v -0.01032156 -0.004473435 0.0140625
v -0.01035684 0.00439131 0.0140625
v -0.010422225 -0.0042327 0.0140625
v -0.010455855 0.004150995 0.0140625
v -0.01051758 -0.003989175 0.0140625
v -0.010548795 0.003909525 0.0140625
v -0.01060749 -0.003743235 0.0140625
v -0.010635555 0.003667005 0.0140625
v -0.01069182 -0.003495285 0.0140625
v -0.010716795 0.003421575 0.0140625
v -0.01077042 -0.003245715 0.0140625
v -0.01079259 0.003173115 0.0140625
v -0.01084317 -0.002994915 0.0140625
v -0.01086288 0.00292206 0.0140625
v -0.010909935 -0.00274329 0.0140625
v -0.010927575 0.0026688 0.0140625
v -0.010970565 -0.002491215 0.0140625
v -0.01098657 0.00241374 0.0140625
v -0.011024925 -0.002239065 0.0140625
v -0.011039805 0.0021573 0.0140625
v -0.011073225 -0.0019857 0.0140625
v -0.011087175 0.00189987 0.0140625
v -0.011115735 -0.00172995 0.0140625
v -0.01112862 0.001641855 0.0140625
v -0.011152425 -0.001472205 0.0140625
v -0.01116402 0.00138369 0.0140625
v -0.01118328 -0.0012129 0.0140625
v -0.011193315 0.001125735 0.0140625
v -0.011208255 -0.00095244 0.0140625
v -0.011216415 0.00086844 0.0140625
v -0.01122732 -0.000691245 0.0140625
v -0.011233305 0.000611355 0.0140625
v -0.011240475 -0.00042972 0.0140625
v -0.01124412 0.000352665 0.0140625
v -0.011247675 -0.000168285 0.0140625
v -0.011248905 9.2655e-05 0.0140625
v 0.018110025 -0.00413016 0.0140625
v 0.018408135 0.004423995 0.0140625
v 0.018414315 -0.004054065 0.0140625
v 0.01871706 -0.00395352 0.0140625
v 0.01878486 0.004146465 0.0140625
v 0.01901337 -0.003830565 0.0140625
v 0.0191592 0.003863625 0.0140625
v 0.01929834 -0.003687195 0.0140625
v 0.019531125 0.00357549 0.0140625
v 0.019567095 -0.003525465 0.0140625
v 0.01982217 -0.003342915 0.0140625
v 0.019900635 0.003282075 0.0140625
v 0.020066805 -0.003138195 0.0140625
v 0.020145765 0.003064695 0.0140625
v 0.02029722 -0.002914965 0.0140625
v 0.020370375 0.00283569 0.0140625
v 0.02050962 -0.002676945 0.0140625
v 0.020574435 0.002595045 0.0140625
v 0.020700165 -0.002427795 0.0140625
v 0.020757975 0.00234279 0.0140625
v 0.02087034 -0.00216432 0.0140625
v 0.02092098 0.002078895 0.0140625
v 0.02102268 -0.00188403 0.0140625
v 0.021064575 0.00180003 0.0140625
v 0.02115498 -0.001591785 0.0140625
v 0.021188775 0.00150621 0.0140625
v 0.02126508 -0.00129237 0.0140625
v 0.021291885 0.001202415 0.0140625
v 0.02135079 -0.000990645 0.0140625
v 0.021372195 0.000893685 0.0140625
v 0.021412275 -0.00068307 0.0140625
v 0.021427995 0.00058503 0.0140625
v 0.02145099 -0.00036642 0.0140625
v 0.02145912 0.00027291 0.0140625
v 0.021466695 -4.6005e-05 0.0140625
v -0.011200455 -0.001054695 0.0103125
v -0.00155025 -0.001054695 0.0103125
v -0.00155766 -0.001043715 0.010173735
v -0.011201835 -0.001039965 0.01047681
v -0.011201715 -0.00104124 0.010150845
v -0.001574565 -0.00101802 0.01004145
v -0.011204865 -0.00100668 0.009998835
v -0.001600245 -0.000977175 0.00991563
v -0.011209725 -0.000951015 0.0098565
v -0.001634265 -0.00091914 0.0097947
v -0.011216175 -0.000871815 0.0097209
v -0.001674135 -0.000844335 0.009680235
v -0.011223525 -0.000771435 0.009594945
v -0.00171585 -0.00075597 0.009577065
v -0.0112308 -0.000657045 0.009487485
v -0.001757835 -0.00065241 0.009484845
v -0.0017973 -0.00053415 0.00940392
v -0.011237595 -0.000528225 0.00940011
v -0.00182994 -0.00040857 0.00934017
v -0.0112434 -0.000385365 0.009331215
v -0.00185418 -0.000278625 0.009295545
v -0.01124751 -0.00023688 0.00928476
v -0.0018696 -0.00014223 0.009268095
v -0.0112497 -8.2005e-05 0.00926199
v -0.001875 0 0.00925782
v -0.01124973 7.845e-05 0.009261675
v -0.001869375 0.0001452 0.00926943
v -0.01124757 0.00023367 0.009284025
v -0.00185349 0.000283215 0.00929757
v -0.011243475 0.00038316 0.009330735
v -0.001828845 0.000413445 0.009342225
v -0.011237625 0.00052737 0.009400125
v -0.00179637 0.0005373 0.009405015
v -0.001757745 0.00065268 0.009484305
v -0.0112308 0.00065694 0.009487395
v -0.0017166 0.00075426 0.009575295
v -0.011223555 0.00077082 0.00959334
v -0.00167511 0.0008424 0.009678
v -0.011216295 0.000870105 0.009717165
v -0.001635045 0.00091776 0.009792405
v -0.01120992 0.000948705 0.009851715
v -0.001600755 0.00097632 0.009913545
v -0.011205045 0.00100464 0.00999459
v -0.00157494 0.00101745 0.010039785
v -0.011201835 0.001039965 0.01014819
v -0.001557855 0.001043415 0.010172775
v -0.00155025 0.001054695 0.0103125
v -0.011200455 0.001054695 0.0103125
v -0.001556445 0.0010455 0.010446285
v -0.011201715 0.00104124 0.010474155
v -0.001572585 0.00102108 0.01057542
v -0.011204865 0.00100668 0.010626165
v -0.00159792 0.00098097 0.01069989
v -0.011209725 0.000951015 0.0107685
v -0.00163212 0.00092295 0.01082208
v -0.011216175 0.000871815 0.0109041
v -0.001672515 0.000847545 0.010939605
v -0.011223525 0.000771435 0.011030055
v -0.00171474 0.00075849 0.01104534
v -0.0112308 0.000657045 0.011137515
v -0.001757175 0.000654165 0.01113882
v -0.001797045 0.000535005 0.01122051
v -0.011237595 0.000528225 0.01122489
v -0.00182991 0.00040875 0.011284755
v -0.0112434 0.000385365 0.011293785
v -0.00185421 0.000278475 0.01132968
v -0.01124751 0.00023688 0.01134024
v -0.001869615 0.00014202 0.01135716
v -0.0112497 8.2005e-05 0.01136301
v -0.001875 0 0.011367195
v -0.01124973 -7.845e-05 0.011363325
v -0.00186957 -0.000142695 0.01135668
v -0.01124757 -0.00023367 0.011340975
v -0.001854075 -0.000279315 0.01132914
v -0.011243475 -0.00038316 0.011294265
v -0.00182979 -0.000409275 0.01128453
v -0.011237625 -0.00052737 0.011224875
v -0.00179721 -0.00053448 0.011221095
v -0.001757925 -0.000652185 0.011140605
v -0.0112308 -0.00065694 0.011137605
v -0.00171606 -0.000755475 0.011048445
v -0.011223555 -0.00077082 0.01103166
v -0.00167421 -0.000844185 0.010944525
v -0.011216295 -0.000870105 0.010907835
v -0.001633995 -0.000919605 0.010828935
v -0.01120992 -0.000948705 0.010773285
v -0.00159975 -0.000977985 0.010707375
v -0.011205045 -0.00100464 0.01063041
v -0.00157407 -0.001018785 0.01058172
v -0.00155733 -0.001044195 0.010450095
f 1 2 3
f 1 4 2
f 5 1 3
f 6 5 3
f 6 7 5
f 6 3 8
f 6 8 9
f 10 6 9
f 10 9 11
f 10 11 12
f 10 12 13
f 10 13 14
f 15 10 14
f 15 14 16
f 15 16 17
f 15 17 18
f 15 18 19
f 15 19 20
f 21 15 20
f 21 20 22
f 21 22 23
f 21 23 24
f 21 24 25
f 25 24 26
f 27 21 25
f 28 27 25
f 28 29 27
f 28 30 29
f 30 31 29
f 30 32 31
f 32 33 31
f 32 34 33
f 34 35 33
f 34 36 35
f 36 37 35
f 36 38 37
f 38 39 37
f 38 40 39
f 40 41 39
f 41 42 39
f 41 43 42
f 43 44 42
f 44 45 42
f 45 46 42
f 45 47 46
f 47 48 46
f 48 49 46
f 48 50 49
f 50 51 49
f 51 52 49
f 51 53 52
f 53 54 52
f 54 55 52
f 54 56 55
f 56 57 55
f 57 58 55
f 57 59 58
f 59 60 58
f 60 61 58
f 61 62 58
f 61 63 62
f 63 64 62
f 64 65 62
f 64 66 65
f 66 67 65
f 67 68 65
f 67 69 68
f 69 70 68
f 70 71 68
f 70 72 71
f 72 73 71
f 73 74 71
f 73 75 74
f 75 76 74
f 76 77 74
f 76 78 77
f 78 79 77
f 79 80 77
f 79 81 80
f 81 82 80
f 82 83 80
f 82 84 83
f 84 85 83
f 85 86 83
f 85 87 86
f 87 88 86
f 87 89 88
f 89 90 88
f 90 91 88
f 90 92 91
f 92 93 91
f 93 94 91
f 93 95 94
f 95 96 94
f 95 97 96
f 97 98 96
f 98 99 96
f 98 100 99
f 100 101 99
f 101 102 99
f 101 103 102
f 103 104 102
f 104 105 102
f 104 106 105
f 106 107 105
f 107 108 105
f 107 109 108
f 109 110 108
f 110 111 108
f 110 112 111
f 112 113 111
f 112 114 113
f 114 115 113
f 115 116 113
f 115 117 116
f 117 118 116
f 118 119 116
f 118 120 119
f 120 121 119
f 121 122 119
f 121 123 122
f 121 124 123
f 122 123 125
f 122 125 126
f 122 126 127
f 122 127 128
f 122 128 129
f 122 129 130
f 131 122 130
f 131 130 132
f 131 132 133
f 134 131 133
f 134 133 135
f 136 134 135
f 136 135 137
f 138 136 137
f 138 137 139
f 138 139 140
f 141 138 140
f 141 140 142
f 143 141 142
f 143 142 144
f 145 143 144
f 145 144 146
f 147 145 146
f 147 146 148
f 147 148 149
f 150 147 149
f 150 149 151
f 152 150 151
f 152 151 153
f 152 153 154
f 155 152 154
f 155 154 156
f 157 155 156
f 157 156 158
f 157 158 159
f 157 159 160
f 161 157 160
f 161 160 162
f 161 162 163
f 161 163 164
f 161 164 165
f 166 161 165
f 167 166 165
f 167 168 166
f 169 167 165
f 169 165 170
f 169 170 171
f 169 171 172
f 169 172 173
f 174 169 173
f 174 173 175
f 174 175 176
f 177 174 176
f 177 176 178
f 177 178 179
f 180 177 179
f 180 179 181
f 182 180 181
f 182 181 183
f 182 183 184
f 185 182 184
f 185 184 186
f 187 185 186
f 187 186 188
f 189 187 188
f 189 188 190
f 191 189 190
f 191 190 192
f 191 192 193
f 194 191 193
f 194 193 195
f 196 194 195
f 196 195 197
f 198 196 197
f 198 197 199
f 198 199 200
f 201 198 200
f 201 200 202
f 201 202 203
f 204 201 203
f 204 203 205
f 204 205 206
f 124 204 206
f 124 206 207
f 124 207 208
f 124 208 209
f 124 209 123
f 167 210 168
f 210 211 168
f 210 212 211
f 212 213 211
f 212 214 213
f 214 215 213
f 214 216 215
f 216 217 215
f 216 218 217
f 218 219 217
f 218 220 219
f 220 221 219
f 220 222 221
f 222 223 221
f 222 224 223
f 224 225 223
f 224 226 225
f 226 227 225
f 226 228 227
f 228 229 227
f 228 230 229
f 230 231 229
f 230 232 231
f 232 233 231
f 232 234 233
f 234 235 233
f 234 236 235
f 236 237 235
f 236 238 237
f 238 239 237
f 238 240 239
f 240 241 239
f 240 242 241
f 242 243 241
f 242 244 243
f 244 245 243
f 244 246 245
f 246 247 245
f 246 248 247
f 248 249 247
f 248 250 249
f 250 251 249
f 250 252 251
f 252 253 251
f 252 254 253
f 254 255 253
f 254 256 255
f 256 257 255
f 256 258 257
f 258 259 257
f 258 260 259
f 260 261 259
f 260 262 261
f 262 263 261
f 262 264 263
f 264 265 263
f 264 266 265
f 266 267 265
f 266 268 267
f 268 269 267
f 268 270 269
f 270 271 269
f 270 272 271
f 272 273 271
f 272 274 273
f 274 275 273
f 274 276 275
f 276 277 275
f 276 278 277
f 278 279 277
f 278 280 279
f 280 281 279
f 280 282 281
f 282 283 281
f 282 284 283
f 284 285 283
f 284 286 285
f 286 287 285
f 286 288 287
f 288 289 287
f 288 290 289
f 290 291 289
f 290 292 291
f 292 293 291
f 292 294 293
f 294 295 293
f 294 296 295
f 296 297 295
f 296 298 297
f 298 299 297
f 298 300 299
f 300 301 299
f 300 302 301
f 302 303 301
f 302 304 303
f 304 305 303
f 304 306 305
f 306 307 305
f 306 308 307
f 308 309 307
f 308 310 309
f 310 311 309
f 310 312 311
f 312 313 311
f 312 314 313
f 314 315 313
f 314 316 315
f 316 317 315
f 316 318 317
f 318 319 317
f 318 320 319
f 320 321 319
f 320 322 321
f 322 323 321
f 322 324 323
f 324 325 323
f 324 326 325
f 326 327 325
f 25 26 328
f 329 25 328
f 329 328 330
f 329 330 331
f 329 331 332
f 329 332 333
f 334 329 333
f 334 333 335
f 334 335 336
f 334 336 337
f 1 334 337
f 1 337 338
f 1 338 339
f 1 339 4
f 6 340 7
f 340 341 7
f 340 342 341
f 342 343 341
f 342 344 343
f 342 345 344
f 345 346 344
f 345 347 346
f 347 348 346
f 347 349 348
f 349 350 348
f 349 351 350
f 349 352 351
f 352 353 351
f 352 354 353
f 354 355 353
f 354 356 355
f 356 357 355
f 356 358 357
f 358 359 357
f 358 360 359
f 360 361 359
f 360 362 361
f 362 363 361
f 362 364 363
f 364 365 363
f 364 366 365
f 366 367 365
f 366 368 367
f 368 369 367
f 368 370 369
f 370 371 369
f 370 372 371
f 372 373 371
f 374 375 376
f 377 375 374
f 378 374 376
f 378 376 379
f 378 379 380
f 380 379 381
f 380 381 382
f 382 381 383
f 382 383 384
f 384 383 385
f 384 385 386
f 386 385 387
f 386 387 388
f 388 387 389
f 388 389 390
f 390 389 391
f 390 391 392
f 392 391 393
f 392 393 394
f 394 393 395
f 394 395 396
f 396 395 397
f 396 397 398
f 398 397 399
f 398 399 400
f 400 399 401
f 400 401 402
f 402 401 403
f 402 403 404
f 404 403 405
f 404 405 406
f 406 405 407
f 406 407 408
f 408 407 409
f 408 409 410
f 410 409 411
f 410 411 412
f 412 411 413
f 412 413 414
f 414 413 415
f 414 415 416
f 416 415 417
f 416 417 418
f 418 417 419
f 418 419 420
f 420 419 421
f 420 421 422
f 422 421 423
f 422 423 424
f 424 423 425
f 424 425 426
f 426 425 427
f 426 427 428
f 428 427 429
f 428 429 377
f 377 429 375
f 430 431 432
f 433 431 430
f 434 430 432
f 434 432 435
f 434 435 436
f 436 435 437
f 436 437 438
f 438 437 439
f 438 439 440
f 440 439 441
f 440 441 442
f 442 441 443
f 442 443 444
f 444 443 445
f 444 445 446
f 446 445 447
f 446 447 448
f 448 447 449
f 448 449 450
f 450 449 451
f 450 451 452
f 452 451 453
f 452 453 454
f 454 453 455
f 454 455 456
f 456 455 457
f 456 457 458
f 458 457 459
f 458 459 460
f 460 459 461
f 460 461 462
f 462 461 463
f 462 463 464
f 464 463 465
f 464 465 466
f 466 465 467
f 466 467 468
f 468 467 469
f 468 469 470
f 470 469 471
f 470 471 472
f 472 471 473
f 472 473 474
f 474 473 475
f 474 475 476
f 476 475 477
f 478 476 477
f 479 476 478
f 480 478 477
f 481 480 477
f 482 481 477
f 482 477 483
f 484 482 483
f 485 484 483
f 486 485 483
f 486 483 487
f 488 486 487
f 489 488 487
f 489 487 490
f 491 489 490
f 491 490 492
f 493 491 492
f 494 493 492
f 494 492 495
f 496 494 495
f 496 495 497
f 498 496 497
f 499 498 497
f 499 497 500
f 501 499 500
f 502 501 500
f 502 500 503
f 504 502 503
f 504 503 505
f 506 504 505
f 507 506 505
f 507 505 508
f 509 507 508
f 510 509 508
f 511 510 508
f 511 508 512
f 513 511 512
f 514 513 512
f 514 512 515
f 515 512 516
f 517 514 515
f 518 517 515
f 519 518 515
f 519 515 520
f 521 519 520
f 522 521 520
f 523 522 520
f 523 520 524
f 525 523 524
f 526 525 524
f 526 524 527
f 528 526 527
f 528 527 529
f 530 528 529
f 531 530 529
f 531 529 532
f 531 532 533
f 533 532 534
f 535 533 534
f 536 535 534
f 536 534 537
f 538 536 537
f 539 538 537
f 539 537 540
f 541 539 540
f 541 540 542
f 543 541 542
f 544 543 542
f 544 542 545
f 546 544 545
f 547 546 545
f 548 547 545
f 548 545 476
f 479 548 476
f 516 512 549
f 516 549 550
f 550 549 551
f 550 551 552
f 552 551 553
f 552 553 554
f 554 553 555
f 554 555 556
f 556 555 557
f 556 557 558
f 558 557 559
f 558 559 560
f 560 559 561
f 560 561 562
f 562 561 563
f 562 563 564
f 564 563 565
f 564 565 566
f 566 565 567
f 566 567 568
f 568 567 569
f 568 569 570
f 570 569 571
f 570 571 572
f 572 571 573
f 572 573 574
f 574 573 575
f 574 575 576
f 576 575 577
f 576 577 578
f 578 577 579
f 578 579 580
f 580 579 581
f 580 581 582
f 582 581 583
f 582 583 584
f 584 583 585
f 584 585 586
f 586 585 587
f 586 587 588
f 588 587 589
f 588 589 433
f 433 589 431
f 590 591 592
f 593 591 590
f 594 590 592
f 594 592 595
f 594 595 596
f 596 595 597
f 596 597 598
f 598 597 599
f 598 599 600
f 600 599 601
f 600 601 602
f 602 601 603
f 602 603 604
f 604 603 605
f 604 605 606
f 606 605 607
f 606 607 608
f 608 607 609
f 608 609 610
f 610 609 611
f 610 611 612
f 612 611 613
f 612 613 614
f 614 613 615
f 614 615 616
f 616 615 617
f 616 617 618
f 618 617 619
f 618 619 620
f 620 619 621
f 620 621 622
f 622 621 623
f 622 623 624
f 624 623 625
f 624 625 626
f 626 625 627
f 626 627 628
f 628 627 629
f 628 629 630
f 630 629 631
f 630 631 632
f 632 631 633
f 632 633 634
f 634 633 635
f 634 635 636
f 636 635 637
f 636 637 638
f 638 637 639
f 638 639 640
f 640 639 641
f 640 641 642
f 642 641 643
f 642 643 644
f 644 643 645
f 644 645 646
f 646 645 647
f 646 647 648
f 648 647 649
f 648 649 650
f 650 649 651
f 650 651 652
f 652 651 653
f 652 653 654
f 654 653 655
f 654 655 656
f 656 655 657
f 656 657 658
f 658 657 659
f 658 659 660
f 660 659 661
f 660 661 662
f 662 661 663
f 662 663 664
f 664 663 665
f 664 665 666
f 666 665 667
f 666 667 668
f 668 667 669
f 668 669 670
f 670 669 671
f 670 671 672
f 672 671 673
f 672 673 674
f 674 673 675
f 674 675 676
f 676 675 677
f 676 677 678
f 678 677 679
f 678 679 680
f 680 679 681
f 680 681 682
f 682 681 683
f 682 683 684
f 684 683 685
f 684 685 686
f 686 685 687
f 686 687 688
f 688 687 689
f 688 689 690
f 690 689 691
f 690 691 692
f 692 691 693
f 692 693 694
f 694 693 695
f 694 695 696
f 696 695 697
f 696 697 698
f 698 697 699
f 698 699 700
f 700 699 701
f 700 701 702
f 702 701 703
f 702 703 704
f 704 703 705
f 704 705 706
f 706 705 707
f 706 707 708
f 708 707 709
f 708 709 710
f 710 709 711
f 710 711 712
f 712 711 713
f 712 713 714
f 714 713 715
f 714 715 716
f 716 715 717
f 716 717 718
f 718 717 719
f 718 719 720
f 720 719 721
f 720 721 722
f 722 721 723
f 722 723 724
f 724 723 725
f 724 725 726
f 726 725 727
f 726 727 728
f 728 727 729
f 728 729 730
f 730 729 731
f 730 731 732
f 732 731 733
f 732 733 734
f 734 733 735
f 734 735 736
f 736 735 737
f 736 737 738
f 738 737 739
f 738 739 740
f 740 739 741
f 740 741 742
f 742 741 743
f 742 743 744
f 744 743 745
f 744 745 746
f 746 745 747
f 746 747 748
f 748 747 749
f 748 749 750
f 750 749 751
f 750 751 752
f 752 751 753
f 752 753 754
f 754 753 755
f 754 755 756
f 756 755 757
f 756 757 758
f 758 757 759
f 758 759 760
f 760 759 761
f 760 761 762
f 762 761 763
f 762 763 764
f 764 763 765
f 764 765 766
f 766 765 767
f 766 767 768
f 768 767 769
f 768 769 770
f 770 769 771
f 770 771 772
f 772 771 773
f 772 773 774
f 774 773 775
f 774 775 776
f 776 775 777
f 776 777 778
f 778 777 779
f 778 779 780
f 780 779 781
f 780 781 782
f 782 781 783
f 782 783 784
f 784 783 785
f 784 785 786
f 786 785 787
f 786 787 788
f 788 787 789
f 788 789 790
f 790 789 791
f 790 791 792
f 792 791 793
f 792 793 794
f 794 793 795
f 794 795 796
f 796 795 797
f 796 797 798
f 798 797 799
f 798 799 800
f 800 799 801
f 800 801 802
f 802 801 803
f 802 803 804
f 804 803 805
f 804 805 806
f 806 805 807
f 806 807 808
f 808 807 809
f 808 809 810
f 810 809 811
f 810 811 812
f 812 811 813
f 812 813 814
f 814 813 815
f 814 815 816
f 816 815 817
f 816 817 818
f 818 817 819
f 818 819 820
f 820 819 821
f 820 821 822
f 822 821 823
f 822 823 824
f 824 823 825
f 824 825 826
f 826 825 827
f 826 827 828
f 828 827 829
f 828 829 830
f 830 829 831
f 830 831 832
f 832 831 833
f 832 833 834
f 834 833 835
f 834 835 836
f 836 835 837
f 836 837 838
f 838 837 839
f 838 839 840
f 840 839 841
f 840 841 842
f 842 841 843
f 842 843 844
f 844 843 845
f 844 845 846
f 846 845 847
f 846 847 848
f 848 847 849
f 848 849 850
f 850 849 851
f 850 851 852
f 852 851 853
f 852 853 854
f 854 853 855
f 854 855 856
f 856 855 857
f 856 857 858
f 858 857 859
f 858 859 860
f 860 859 861
f 860 861 862
f 862 861 863
f 862 863 864
f 864 863 865
f 864 865 866
f 866 865 867
f 866 867 868
f 868 867 869
f 868 869 870
f 870 869 871
f 870 871 872
f 872 871 873
f 872 873 874
f 874 873 875
f 874 875 876
f 876 875 877
f 876 877 878
f 878 877 879
f 878 879 880
f 880 879 881
f 880 881 882
f 882 881 883
f 882 883 884
f 884 883 885
f 884 885 886
f 886 885 887
f 886 887 888
f 889 888 887
f 890 888 889
f 889 887 891
f 892 889 891
f 893 892 891
f 894 893 891
f 895 894 891
f 896 895 891
f 896 891 897
f 898 896 897
f 899 898 897
f 899 897 900
f 901 899 900
f 902 901 900
f 902 900 903
f 904 902 903
f 904 903 905
f 906 904 905
f 907 906 905
f 907 905 908
f 909 907 908
f 910 909 908
f 910 908 911
f 912 910 911
f 913 912 911
f 913 911 914
f 915 913 914
f 916 915 914
f 917 916 914
f 917 914 918
f 919 917 918
f 920 919 918
f 920 918 921
f 921 918 922
f 923 920 921
f 924 923 921
f 925 924 921
f 925 921 926
f 927 925 926
f 928 927 926
f 929 928 926
f 929 926 930
f 931 929 930
f 932 931 930
f 932 930 933
f 934 932 933
f 935 934 933
f 935 933 936
f 937 935 936
f 938 937 936
f 938 936 939
f 940 938 939
f 940 939 941
f 942 940 941
f 943 942 941
f 943 941 944
f 945 943 944
f 946 945 944
f 946 944 888
f 947 946 888
f 948 947 888
f 890 948 888
f 922 918 949
f 922 949 950
f 950 949 951
f 950 951 952
f 952 951 953
f 952 953 954
f 954 953 955
f 954 955 956
f 956 955 957
f 956 957 958
f 958 957 959
f 958 959 960
f 960 959 961
f 960 961 962
f 962 961 963
f 962 963 964
f 964 963 965
f 964 965 966
f 966 965 967
f 966 967 968
f 968 967 969
f 968 969 970
f 970 969 971
f 970 971 972
f 972 971 973
f 972 973 974
f 974 973 975
f 974 975 976
f 976 975 977
f 976 977 978
f 978 977 979
f 978 979 980
f 980 979 981
f 980 981 982
f 982 981 983
f 982 983 984
f 984 983 985
f 984 985 986
f 986 985 987
f 986 987 988
f 988 987 989
f 988 989 990
f 990 989 991
f 990 991 992
f 992 991 993
f 992 993 994
f 994 993 995
f 994 995 996
f 996 995 997
f 996 997 998
f 998 997 999
f 998 999 1000
f 1000 999 1001
f 1000 1001 1002
f 1002 1001 1003
f 1002 1003 1004
f 1004 1003 1005
f 1004 1005 1006
f 1006 1005 1007
f 1006 1007 1008
f 1008 1007 1009
f 1008 1009 1010
f 1010 1009 1011
f 1010 1011 1012
f 1012 1011 1013
f 1012 1013 1014
f 1014 1013 1015
f 1014 1015 1016
f 1016 1015 1017
f 1016 1017 1018
f 1018 1017 1019
f 1018 1019 1020
f 1020 1019 1021
f 1020 1021 1022
f 1022 1021 1023
f 1022 1023 1024
f 1024 1023 1025
f 1024 1025 1026
f 1026 1025 1027
f 1026 1027 1028
f 1028 1027 1029
f 1028 1029 1030
f 1030 1029 1031
f 1030 1031 1032
f 1032 1031 1033
f 1032 1033 1034
f 1034 1033 1035
f 1034 1035 1036
f 1036 1035 1037
f 1036 1037 1038
f 1038 1037 1039
f 1038 1039 1040
f 1040 1039 1041
f 1040 1041 1042
f 1042 1041 1043
f 1042 1043 1044
f 1044 1043 1045
f 1044 1045 1046
f 1046 1045 1047
f 1046 1047 1048
f 1048 1047 1049
f 1048 1049 1050
f 1050 1049 1051
f 1050 1051 1052
f 1052 1051 1053
f 1052 1053 1054
f 1054 1053 1055
f 1054 1055 1056
f 1056 1055 1057
f 1056 1057 1058
f 1058 1057 1059
f 1058 1059 1060
f 1060 1059 1061
f 1060 1061 1062
f 1062 1061 1063
f 1062 1063 1064
f 1064 1063 1065
f 1064 1065 1066
f 1066 1065 1067
f 1066 1067 1068
f 1068 1067 1069
f 1068 1069 1070
f 1070 1069 1071
f 1070 1071 1072
f 1072 1071 1073
f 1072 1073 1074
f 1074 1073 1075
f 1074 1075 1076
f 1076 1075 1077
f 1076 1077 1078
f 1078 1077 1079
f 1078 1079 1080
f 1080 1079 1081
f 1080 1081 1082
f 1082 1081 1083
f 1082 1083 1084
f 1084 1083 1085
f 1084 1085 1086
f 1086 1085 1087
f 1086 1087 1088
f 1088 1087 1089
f 1088 1089 1090
f 1090 1089 1091
f 1090 1091 1092
f 1092 1091 1093
f 1092 1093 1094
f 1094 1093 1095
f 1094 1095 1096
f 1096 1095 1097
f 1096 1097 1098
f 1098 1097 1099
f 1098 1099 1100
f 1100 1099 1101
f 1100 1101 1102
f 1102 1101 1103
f 1102 1103 1104
f 1104 1103 1105
f 1104 1105 1106
f 1106 1105 1107
f 1106 1107 1108
f 1108 1107 1109
f 1108 1109 1110
f 1110 1109 1111
f 1110 1111 1112
f 1112 1111 1113
f 1112 1113 1114
f 1114 1113 1115
f 1114 1115 1116
f 1116 1115 1117
f 1116 1117 1118
f 1118 1117 1119
f 1118 1119 1120
f 1120 1119 1121
f 1120 1121 1122
f 1122 1121 1123
f 1122 1123 1124
f 1124 1123 1125
f 1124 1125 1126
f 1126 1125 1127
f 1126 1127 1128
f 1128 1127 1129
f 1128 1129 1130
f 1130 1129 1131
f 1130 1131 1132
f 1132 1131 1133
f 1132 1133 1134
f 1134 1133 1135
f 1134 1135 1136
f 1136 1135 1137
f 1136 1137 1138
f 1138 1137 1139
f 1138 1139 1140
f 1140 1139 1141
f 1140 1141 1142
f 1142 1141 1143
f 1142 1143 1144
f 1144 1143 1145
f 1144 1145 1146
f 1146 1145 1147
f 1146 1147 1148
f 1148 1147 1149
f 1148 1149 1150
f 1150 1149 1151
f 1150 1151 1152
f 1152 1151 1153
f 1152 1153 1154
f 1154 1153 1155
f 1154 1155 1156
f 1156 1155 1157
f 1156 1157 1158
f 1158 1157 1159
f 1158 1159 1160
f 1160 1159 1161
f 1160 1161 1162
f 1162 1161 1163
f 1162 1163 1164
f 1164 1163 1165
f 1164 1165 1166
f 1166 1165 1167
f 1166 1167 1168
f 1168 1167 1169
f 1168 1169 1170
f 1170 1169 1171
f 1170 1171 1172
f 1172 1171 1173
f 1172 1173 1174
f 1174 1173 1175
f 1174 1175 1176
f 1176 1175 1177
f 1176 1177 1178
f 1178 1177 1179
f 1178 1179 1180
f 1180 1179 1181
f 1180 1181 1182
f 1182 1181 1183
f 1182 1183 1184
f 1184 1183 1185
f 1184 1185 1186
f 1186 1185 1187
f 1186 1187 1188
f 1188 1187 1189
f 1188 1189 1190
f 1190 1189 1191
f 1190 1191 1192
f 1192 1191 1193
f 1192 1193 1194
f 1194 1193 1195
f 1194 1195 1196
f 1196 1195 1197
f 1196 1197 1198
f 1198 1197 1199
f 1198 1199 1200
f 1200 1199 1201
f 1200 1201 1202
f 1202 1201 1203
f 1202 1203 1204
f 1204 1203 1205
f 1204 1205 1206
f 1206 1205 1207
f 1206 1207 1208
f 1208 1207 1209
f 1208 1209 593
f 593 1209 591
f 1210 1211 1212
f 1210 1213 1211
f 1214 1210 1212
f 1214 1215 1210
f 1214 1212 1216
f 1214 1216 1217
f 1214 1217 1218
f 1214 1218 1219
f 1220 1214 1219
f 1220 1219 1221
f 1220 1221 1222
f 1220 1222 1223
f 1224 1220 1223
f 1224 1223 1225
f 1224 1225 1226
f 1224 1226 1227
f 1224 1227 1228
f 1229 1224 1228
f 1229 1228 1230
f 1229 1230 1231
f 1229 1231 1232
f 1229 1232 1233
f 1234 1233 1232
f 1234 1235 1233
f 1234 1232 1236
f 1234 1236 1237
f 1238 1234 1237
f 1238 1237 1239
f 1238 1239 1240
f 1238 1240 1241
f 1238 1241 1242
f 1238 1242 1243
f 1244 1238 1243
f 1244 1243 1245
f 1244 1245 1246
f 1244 1246 1247
f 1244 1247 1248
f 1210 1244 1248
f 1210 1248 1213
f 1234 1249 1235
f 1249 1250 1235
f 1249 1251 1250
f 1251 1252 1250
f 1251 1253 1252
f 1253 1254 1252
f 1253 1255 1254
f 1255 1256 1254
f 1255 1257 1256
f 1257 1258 1256
f 1257 1259 1258
f 1259 1260 1258
f 1259 1261 1260
f 1261 1262 1260
f 1261 1263 1262
f 1261 1264 1263
f 1264 1265 1263
f 1264 1266 1265
f 1264 1267 1266
f 1264 1268 1267
f 1268 1269 1267
f 1268 1270 1269
f 1268 1271 1270
f 1271 1272 1270
f 1271 1273 1272
f 1271 1274 1273
f 1274 1275 1273
f 1274 1276 1275
f 1274 1277 1276
f 1277 1278 1276
f 1277 1279 1278
f 1277 1280 1279
f 1280 1281 1279
f 1280 1282 1281
f 1280 1283 1282
f 1280 1284 1283
f 1284 1285 1283
f 1284 1286 1285
f 1284 1287 1286
f 1287 1288 1286
f 1287 1289 1288
f 1287 1290 1289
f 1290 1291 1289
f 1290 1292 1291
f 1290 1293 1292
f 1293 1294 1292
f 1293 1295 1294
f 1293 1296 1295
f 1296 1297 1295
f 1296 1298 1297
f 1296 1299 1298
f 1299 1300 1298
f 1299 1301 1300
f 1299 1302 1301
f 1302 1303 1301
f 1302 1304 1303
f 1302 1305 1304
f 1305 1306 1304
f 1305 1307 1306
f 1305 1308 1307
f 1308 1309 1307
f 1308 1310 1309
f 1310 1311 1309
f 1310 1312 1311
f 1310 1313 1312
f 1313 1314 1312
f 1313 1315 1314
f 1313 1316 1315
f 1316 1317 1315
f 1316 1318 1317
f 1318 1319 1317
f 1318 1320 1319
f 1318 1321 1320
f 1321 1322 1320
f 1321 1323 1322
f 1321 1324 1323
f 1324 1325 1323
f 1324 1326 1325
f 1324 1327 1326
f 1327 1328 1326
f 1327 1329 1328
f 1327 1330 1329
f 1330 1331 1329
f 1330 1332 1331
f 1330 1333 1332
f 1333 1334 1332
f 1333 1335 1334
f 1335 1336 1334
f 1335 1337 1336
f 1335 1338 1337
f 1338 1339 1337
f 1338 1340 1339
f 1338 1341 1340
f 1341 1342 1340
f 1341 1343 1342
f 1341 1344 1343
f 1342 1343 1345
f 1342 1345 1346
f 1342 1346 1347
f 1348 1342 1347
f 1348 1347 1349
f 1348 1349 1350
f 1351 1348 1350
f 1351 1350 1352
f 1351 1352 1353
f 1354 1351 1353
f 1354 1353 1355
f 1354 1355 1356
f 1357 1354 1356
f 1357 1356 1358
f 1359 1357 1358
f 1359 1358 1360
f 1361 1359 1360
f 1361 1360 1362
f 1361 1362 1363
f 1364 1361 1363
f 1364 1363 1365
f 1366 1364 1365
f 1366 1365 1367
f 1368 1366 1367
f 1368 1367 1369
f 1370 1368 1369
f 1370 1369 1371
f 1370 1371 1372
f 1373 1370 1372
f 1373 1372 1374
f 1375 1373 1374
f 1375 1374 1376
f 1375 1376 1377
f 1378 1375 1377
f 1378 1377 1379
f 1378 1379 1380
f 1381 1378 1380
f 1381 1380 1382
f 1381 1382 1383
f 1381 1383 1384
f 1381 1384 1385
f 1386 1381 1385
f 1386 1385 1387
f 1388 1386 1387
f 1388 1389 1386
f 1388 1387 1390
f 1388 1390 1391
f 1388 1391 1392
f 1393 1388 1392
f 1393 1392 1394
f 1393 1394 1395
f 1393 1395 1396
f 1397 1393 1396
f 1397 1396 1398
f 1399 1397 1398
f 1399 1398 1400
f 1399 1400 1401
f 1402 1399 1401
f 1402 1401 1403
f 1404 1402 1403
f 1404 1403 1405
f 1404 1405 1406
f 1407 1404 1406
f 1407 1406 1408
f 1409 1407 1408
f 1409 1408 1410
f 1411 1409 1410
f 1411 1410 1412
f 1413 1411 1412
f 1413 1412 1414
f 1413 1414 1415
f 1416 1413 1415
f 1416 1415 1417
f 1418 1416 1417
f 1418 1417 1419
f 1420 1418 1419
f 1420 1419 1421
f 1420 1421 1422
f 1344 1420 1422
f 1344 1422 1423
f 1344 1423 1424
f 1344 1424 1425
f 1344 1425 1426
f 1344 1426 1427
f 1344 1427 1428
f 1344 1428 1343
f 1388 1429 1389
f 1429 1430 1389
f 1429 1431 1430
f 1431 1432 1430
f 1431 1433 1432
f 1433 1434 1432
f 1433 1435 1434
f 1435 1436 1434
f 1435 1437 1436
f 1437 1438 1436
f 1437 1439 1438
f 1439 1440 1438
f 1439 1441 1440
f 1441 1442 1440
f 1441 1443 1442
f 1443 1444 1442
f 1443 1445 1444
f 1445 1446 1444
f 1445 1447 1446
f 1447 1448 1446
f 1447 1449 1448
f 1449 1450 1448
f 1449 1451 1450
f 1451 1452 1450
f 1451 1453 1452
f 1453 1454 1452
f 1453 1455 1454
f 1455 1456 1454
f 1455 1457 1456
f 1457 1458 1456
f 1457 1459 1458
f 1459 1460 1458
f 1459 1461 1460
f 1461 1462 1460
f 1461 1463 1462
f 1463 1464 1462
f 1463 1465 1464
f 1465 1466 1464
f 1465 1467 1466
f 1467 1468 1466
f 1467 1469 1468
f 1469 1470 1468
f 1469 1471 1470
f 1471 1472 1470
f 1471 1473 1472
f 1473 1474 1472
f 1473 1475 1474
f 1475 1476 1474
f 1475 1477 1476
f 1477 1478 1476
f 1477 1479 1478
f 1479 1480 1478
f 1479 1481 1480
f 1481 1482 1480
f 1481 1483 1482
f 1483 1484 1482
f 1483 1485 1484
f 1485 1486 1484
f 1485 1487 1486
f 1487 1488 1486
f 1487 1489 1488
f 1489 1490 1488
f 1489 1491 1490
f 1491 1492 1490
f 1491 1493 1492
f 1493 1494 1492
f 1493 1495 1494
f 1495 1496 1494
f 1495 1497 1496
f 1497 1498 1496
f 1497 1499 1498
f 1499 1500 1498
f 1499 1501 1500
f 1501 1502 1500
f 1501 1503 1502
f 1503 1504 1502
f 1503 1505 1504
f 1505 1506 1504
f 1505 1507 1506
f 1507 1508 1506
f 1507 1509 1508
f 1509 1510 1508
f 1509 1511 1510
f 1511 1512 1510
f 1511 1513 1512
f 1513 1514 1512
f 1513 1515 1514
f 1515 1516 1514
f 1515 1517 1516
f 1517 1518 1516
f 1517 1519 1518
f 1519 1520 1518
f 1519 1521 1520
f 1521 1522 1520
f 1521 1523 1522
f 1523 1524 1522
f 1523 1525 1524
f 1525 1526 1524
f 1525 1527 1526
f 1527 1528 1526
f 1527 1529 1528
f 1529 1530 1528
f 1529 1531 1530
f 1531 1532 1530
f 1531 1533 1532
f 1533 1534 1532
f 1533 1535 1534
f 1535 1536 1534
f 1535 1537 1536
f 1537 1538 1536
f 1537 1539 1538
f 1539 1540 1538
f 1539 1541 1540
f 1541 1542 1540
f 1541 1543 1542
f 1543 1544 1542
f 1543 1545 1544
f 1545 1546 1544
f 1545 1547 1546
f 1214 1548 1215
f 1548 1549 1215
f 1548 1550 1549
f 1550 1551 1549
f 1551 1552 1549
f 1551 1553 1552
f 1553 1554 1552
f 1553 1555 1554
f 1555 1556 1554
f 1555 1557 1556
f 1557 1558 1556
f 1558 1559 1556
f 1558 1560 1559
f 1560 1561 1559
f 1560 1562 1561
f 1562 1563 1561
f 1562 1564 1563
f 1564 1565 1563
f 1564 1566 1565
f 1566 1567 1565
f 1566 1568 1567
f 1568 1569 1567
f 1568 1570 1569
f 1570 1571 1569
f 1570 1572 1571
f 1572 1573 1571
f 1572 1574 1573
f 1574 1575 1573
f 1574 1576 1575
f 1576 1577 1575
f 1576 1578 1577
f 1578 1579 1577
f 1578 1580 1579
f 1580 1581 1579
f 1580 1582 1581
f 1583 1584 1585
f 1586 1584 1583
f 1583 1585 1587
f 1587 1585 1588
f 1587 1588 1589
f 1589 1588 1590
f 1589 1590 1591
f 1591 1590 1592
f 1591 1592 1593
f 1593 1592 1594
f 1593 1594 1595
f 1595 1594 1596
f 1595 1596 1597
f 1597 1596 1598
f 1597 1598 1599
f 1597 1599 1600
f 1600 1599 1601
f 1600 1601 1602
f 1602 1601 1603
f 1602 1603 1604
f 1604 1603 1605
f 1604 1605 1606
f 1606 1605 1607
f 1606 1607 1608
f 1608 1607 1609
f 1608 1609 1610
f 1610 1609 1611
f 1610 1611 1612
f 1612 1611 1613
f 1612 1613 1614
f 1614 1613 1615
f 1614 1615 1616
f 1614 1616 1617
f 1617 1616 1618
f 1617 1618 1619
f 1619 1618 1620
f 1619 1620 1621
f 1621 1620 1622
f 1621 1622 1623
f 1623 1622 1624
f 1623 1624 1625
f 1625 1624 1626
f 1625 1626 1627
f 1627 1626 1628
f 1627 1628 1629
f 1627 1629 1630
f 1630 1629 1631
f 1632 1630 1631
f 1632 1631 1633
f 1632 1633 1634
f 1634 1633 1635
f 1634 1635 1636
f 1636 1635 1637
f 1636 1637 1638
f 1638 1637 1639
f 1638 1639 1640
f 1640 1639 1641
f 1640 1641 1642
f 1642 1641 1643
f 1642 1643 1644
f 1642 1644 1645
f 1645 1644 1646
f 1645 1646 1647
f 1647 1646 1648
f 1647 1648 1649
f 1649 1648 1650
f 1649 1650 1651
f 1651 1650 1652
f 1651 1652 1653
f 1653 1652 1654
f 1653 1654 1655
f 1655 1654 1656
f 1655 1656 1657
f 1657 1656 1658
f 1657 1658 1659
f 1659 1658 1660
f 1659 1660 1661
f 1659 1661 1662
f 1662 1661 1663
f 1662 1663 1664
f 1664 1663 1665
f 1664 1665 1666
f 1666 1665 1667
f 1666 1667 1668
f 1668 1667 1669
f 1668 1669 1670
f 1670 1669 1671
f 1670 1671 1586
f 1586 1671 1672
f 1586 1672 1584
