1848 1848 0
v -0.080277015 -0.0611277 -0.0065625
v -0.08387823 -0.061194915 -0.0065625
v -0.08387523 -0.06111534 -0.0065625
v -0.08027928 -0.061259265 -0.0065625
v -0.08387823 -0.061035735 -0.0065625
v -0.080277615 -0.06099525 -0.0065625
v -0.083883915 -0.06095745 -0.0065625
v -0.083892315 -0.060880455 -0.0065625
v -0.080281095 -0.060861915 -0.0065625
v -0.083903385 -0.06080475 -0.0065625
v -0.08391717 -0.06073035 -0.0065625
v -0.08393364 -0.060657255 -0.0065625
v -0.08395281 -0.06058545 -0.0065625
v -0.083974665 -0.06051495 -0.0065625
v -0.08029023 -0.060496965 -0.0065625
v -0.08399922 -0.06044574 -0.0065625
v -0.084026475 -0.06037782 -0.0065625
v -0.084056415 -0.06031122 -0.0065625
v -0.08408934 -0.060245535 -0.0065625
v -0.08412558 -0.060180375 -0.0065625
v -0.08028834 -0.060136485 -0.0065625
v -0.08416494 -0.060115995 -0.0065625
v -0.08420718 -0.060052665 -0.0065625
v -0.08425209 -0.059990685 -0.0065625
v -0.08429943 -0.05993031 -0.0065625
v -0.08434899 -0.05987184 -0.0065625
v -0.084400545 -0.059815545 -0.0065625
v -0.08027544 -0.05978052 -0.0065625
v -0.08445387 -0.05976171 -0.0065625
v -0.084508725 -0.05971062 -0.0065625
v -0.084564915 -0.059662545 -0.0065625
v -0.084622725 -0.059617335 -0.0065625
v -0.08468328 -0.05957409 -0.0065625
v -0.084746325 -0.059532855 -0.0065625
v -0.08481159 -0.059493795 -0.0065625
v -0.0848787 -0.05945709 -0.0065625
v -0.080251545 -0.059429025 -0.0065625
v -0.084947355 -0.05942286 -0.0065625
v -0.085017225 -0.0593913 -0.0065625
v -0.085087995 -0.05936253 -0.0065625
v -0.085159335 -0.05933673 -0.0065625
v -0.08523093 -0.059314035 -0.0065625
v -0.085302465 -0.059294625 -0.0065625
v -0.085374 -0.05927853 -0.0065625
v -0.085447095 -0.05926542 -0.0065625
v -0.085521615 -0.059255205 -0.0065625
v -0.08559723 -0.059247915 -0.0065625
v -0.08567355 -0.05924355 -0.0065625
v -0.080216625 -0.05908203 -0.0065625
v -0.08575023 -0.05924208 -0.0065625
v -0.09085794 -0.059146995 -0.0065625
v -0.08582691 -0.05924355 -0.0065625
v -0.09081027 -0.05902842 -0.0065625
v -0.09075969 -0.05891055 -0.0065625
v -0.090706185 -0.058793415 -0.0065625
v -0.08017071 -0.05873952 -0.0065625
v -0.09064974 -0.05867697 -0.0065625
v -0.090590385 -0.05856126 -0.0065625
v -0.09052809 -0.058446255 -0.0065625
v -0.080113785 -0.05840151 -0.0065625
v -0.090462885 -0.058331955 -0.0065625
v -0.090394755 -0.058218375 -0.0065625
v -0.0903237 -0.058105515 -0.0065625
v -0.080046 -0.05806863 -0.0065625
v -0.090181815 -0.05789514 -0.0065625
v -0.079967415 -0.057741105 -0.0065625
v -0.090037245 -0.05768571 -0.0065625
v -0.089889975 -0.05747721 -0.0065625
v -0.07987788 -0.057418275 -0.0065625
v -0.08974002 -0.05726964 -0.0065625
v -0.079777215 -0.05709951 -0.0065625
v -0.08958738 -0.057063015 -0.0065625
v -0.08943204 -0.056857335 -0.0065625
v -0.0796653 -0.056784165 -0.0065625
v -0.08927403 -0.056652585 -0.0065625
v -0.079541955 -0.05647161 -0.0065625
v -0.089113305 -0.056448765 -0.0065625
v -0.08894991 -0.056245905 -0.0065625
v -0.079407045 -0.056161185 -0.0065625
v -0.088783665 -0.056044035 -0.0065625
v -0.07933524 -0.05600676 -0.0065625
v -0.088614195 -0.055843335 -0.0065625
v -0.0792606 -0.0558531 -0.0065625
v -0.07918311 -0.05570019 -0.0065625
v -0.088441695 -0.05564373 -0.0065625
v -0.079102785 -0.055548015 -0.0065625
v -0.08826639 -0.0554451 -0.0065625
v -0.07901961 -0.055396605 -0.0065625
v -0.088088535 -0.055247355 -0.0065625
v -0.0789336 -0.05524593 -0.0065625
v -0.087908355 -0.05505039 -0.0065625
v -0.078844755 -0.055096005 -0.0065625
v -0.078753045 -0.05494683 -0.0065625
v -0.087726105 -0.054854085 -0.0065625
v -0.0786585 -0.054798405 -0.0065625
v -0.087541995 -0.054658365 -0.0065625
v -0.07856112 -0.05465073 -0.0065625
v -0.087356295 -0.054463095 -0.0065625
v -0.078460905 -0.054503805 -0.0065625
v -0.078357825 -0.054357615 -0.0065625
v -0.08716917 -0.0542682 -0.0065625
v -0.07825191 -0.05421219 -0.0065625
v -0.08698026 -0.05407386 -0.0065625
v -0.07814316 -0.0540675 -0.0065625
v -0.0867894 -0.053880135 -0.0065625
v -0.07811937 -0.05403693 -0.0065625
v -0.07809489 -0.054005505 -0.0065625
v -0.07806969 -0.05397321 -0.0065625
v -0.078043785 -0.05394006 -0.0065625
v -0.078017115 -0.053906055 -0.0065625
v -0.077989755 -0.053871195 -0.0065625
v -0.086596575 -0.053687025 -0.0065625
v -0.077961825 -0.05383548 -0.0065625
v -0.077933415 -0.053798955 -0.0065625
v -0.07790445 -0.05376168 -0.0065625
v -0.077874975 -0.05372349 -0.0065625
v -0.07784502 -0.053684145 -0.0065625
v -0.086401815 -0.053494515 -0.0065625
v -0.077814585 -0.053643705 -0.0065625
v -0.077783655 -0.053602245 -0.0065625
v -0.07775229 -0.053559465 -0.0065625
v -0.077720595 -0.053515125 -0.0065625
v -0.07768845 -0.053469405 -0.0065625
v -0.086205105 -0.053302635 -0.0065625
v -0.077655915 -0.053422245 -0.0065625
v -0.07762314 -0.05337327 -0.0065625
v -0.07759023 -0.0533223 -0.0065625
v -0.077557035 -0.053269635 -0.0065625
v -0.086006445 -0.053111355 -0.0065625
v -0.07752369 -0.053214975 -0.0065625
v -0.07749033 -0.053157915 -0.0065625
v -0.077457 -0.053098365 -0.0065625
v -0.08580582 -0.05292069 -0.0065625
v -0.07742358 -0.053036535 -0.0065625
v -0.07739028 -0.052972155 -0.0065625
v -0.077357325 -0.05290497 -0.0065625
v -0.08560326 -0.052730655 -0.0065625
v -0.077324085 -0.05283507 -0.0065625
v -0.077290965 -0.052762485 -0.0065625
v -0.07725915 -0.052686945 -0.0065625
v -0.08539875 -0.05254122 -0.0065625
v -0.07722948 -0.052608285 -0.0065625
v -0.077200395 -0.052526715 -0.0065625
v -0.085351725 -0.052493565 -0.0065625
v -0.08530359 -0.05244837 -0.0065625
v -0.07717344 -0.05244207 -0.0065625
v -0.085254375 -0.052405635 -0.0065625
v -0.08520405 -0.05236536 -0.0065625
v -0.077151015 -0.052354065 -0.0065625
v -0.08515263 -0.05232756 -0.0065625
v -0.0851001 -0.05229222 -0.0065625
v -0.077133885 -0.05226219 -0.0065625
v -0.08504649 -0.052259325 -0.0065625
v -0.08499177 -0.052228905 -0.0065625
v -0.084935955 -0.05220096 -0.0065625
v -0.084879045 -0.05217546 -0.0065625
v -0.077120115 -0.052166325 -0.0065625
v -0.08482104 -0.05215242 -0.0065625
v -0.08476194 -0.052131855 -0.0065625
v -0.08470173 -0.05211375 -0.0065625
v -0.084640425 -0.052098105 -0.0065625
v -0.084578025 -0.05208492 -0.0065625
v -0.084514545 -0.052074195 -0.0065625
v -0.077112465 -0.052067685 -0.0065625
v -0.08002893 -0.051089925 -0.0065625
v -0.077114055 -0.051967515 -0.0065625
v -0.07712439 -0.05186394 -0.0065625
v -0.07714263 -0.05175741 -0.0065625
v -0.077171355 -0.051652815 -0.0065625
v -0.0772131 -0.05155455 -0.0065625
v -0.07726872 -0.051459675 -0.0065625
v -0.077335845 -0.05136924 -0.0065625
v -0.077411715 -0.05128671 -0.0065625
v -0.077495445 -0.051214725 -0.0065625
v -0.07759044 -0.05115171 -0.0065625
v -0.077691495 -0.05109705 -0.0065625
v -0.07995483 -0.05107323 -0.0065625
v -0.07987899 -0.0510567 -0.0065625
v -0.07779252 -0.05105043 -0.0065625
v -0.079801425 -0.05104032 -0.0065625
v -0.079722075 -0.05102406 -0.0065625
v -0.07789227 -0.051012765 -0.0065625
v -0.079640445 -0.0510075 -0.0065625
v -0.07955715 -0.050991135 -0.0065625
v -0.077993685 -0.05098404 -0.0065625
v -0.079473165 -0.05097579 -0.0065625
v -0.079389075 -0.05096193 -0.0065625
v -0.07809399 -0.050961645 -0.0065625
v -0.07930428 -0.050949045 -0.0065625
v -0.07819038 -0.050942985 -0.0065625
v -0.079219125 -0.050937465 -0.0065625
v -0.07828266 -0.0509295 -0.0065625
v -0.079134135 -0.050927715 -0.0065625
v -0.078372195 -0.050920875 -0.0065625
v -0.07904949 -0.05091996 -0.0065625
v -0.078459855 -0.050914965 -0.0065625
v -0.078964905 -0.05091396 -0.0065625
v -0.07854624 -0.050910045 -0.0065625
v -0.078880485 -0.05090973 -0.0065625
v -0.07879632 -0.05090724 -0.0065625
v -0.07863033 -0.05090715 -0.0065625
v -0.078713205 -0.050906325 -0.0065625
v -0.08590323 -0.059247915 -0.0065625
v -0.085978845 -0.059255205 -0.0065625
v -0.08605338 -0.05926542 -0.0065625
v -0.09090267 -0.059266275 -0.0065625
v -0.086126475 -0.05927853 -0.0065625
v -0.08619801 -0.059294625 -0.0065625
v -0.08626953 -0.059314035 -0.0065625
v -0.086341125 -0.05933673 -0.0065625
v -0.086412465 -0.05936253 -0.0065625
v -0.09094449 -0.059386275 -0.0065625
v -0.086483235 -0.0593913 -0.0065625
v -0.086553105 -0.05942286 -0.0065625
v -0.086621775 -0.05945709 -0.0065625
v -0.086688885 -0.059493795 -0.0065625
v -0.090983385 -0.059506995 -0.0065625
v -0.086754135 -0.059532855 -0.0065625
v -0.086817195 -0.05957409 -0.0065625
v -0.08687775 -0.059617335 -0.0065625
v -0.09101934 -0.05962842 -0.0065625
v -0.086935545 -0.059662545 -0.0065625
v -0.086991735 -0.05971062 -0.0065625
v -0.091052385 -0.059750565 -0.0065625
v -0.087046605 -0.05976171 -0.0065625
v -0.087099915 -0.059815545 -0.0065625
v -0.08715147 -0.05987184 -0.0065625
v -0.09108252 -0.05987352 -0.0065625
v -0.08720103 -0.05993031 -0.0065625
v -0.08724837 -0.059990685 -0.0065625
v -0.091109775 -0.05999796 -0.0065625
v -0.08729328 -0.060052665 -0.0065625
v -0.08733552 -0.060115995 -0.0065625
v -0.09113415 -0.060123825 -0.0065625
v -0.08737488 -0.060180375 -0.0065625
v -0.08741112 -0.060245535 -0.0065625
v -0.09115563 -0.06025092 -0.0065625
v -0.087444045 -0.06031122 -0.0065625
v -0.087474 -0.06037782 -0.0065625
v -0.091174215 -0.06037902 -0.0065625
v -0.08750124 -0.06044574 -0.0065625
v -0.09118989 -0.060507915 -0.0065625
v -0.087525795 -0.06051495 -0.0065625
v -0.087547665 -0.06058545 -0.0065625
v -0.09120261 -0.06063738 -0.0065625
v -0.087566835 -0.060657255 -0.0065625
v -0.08758329 -0.06073035 -0.0065625
v -0.091212405 -0.060767235 -0.0065625
v -0.087597075 -0.06080475 -0.0065625
v -0.08760816 -0.060880455 -0.0065625
v -0.09121923 -0.060897255 -0.0065625
v -0.087616545 -0.06095745 -0.0065625
v -0.09122307 -0.06102723 -0.0065625
v -0.08762223 -0.061035735 -0.0065625
v -0.08762523 -0.06111534 -0.0065625
v -0.091223925 -0.061156935 -0.0065625
v -0.08762223 -0.061194915 -0.0065625
v -0.087616545 -0.061273215 -0.0065625
v -0.09122178 -0.061286175 -0.0065625
v -0.08760816 -0.06135021 -0.0065625
v -0.09121662 -0.06141474 -0.0065625
v -0.087597075 -0.061425915 -0.0065625
v -0.08758329 -0.0615003 -0.0065625
v -0.091208415 -0.061542405 -0.0065625
v -0.087566835 -0.06157341 -0.0065625
v -0.087547665 -0.061645215 -0.0065625
v -0.091197165 -0.06166896 -0.0065625
v -0.087525795 -0.061715715 -0.0065625
v -0.08750124 -0.061784925 -0.0065625
v -0.09118278 -0.061795035 -0.0065625
v -0.087474 -0.061852845 -0.0065625
v -0.087444045 -0.06191946 -0.0065625
v -0.09116517 -0.061921605 -0.0065625
v -0.08741112 -0.061985115 -0.0065625
v -0.091144395 -0.062048445 -0.0065625
v -0.08737488 -0.06205029 -0.0065625
v -0.08733552 -0.06211467 -0.0065625
v -0.09112053 -0.062175375 -0.0065625
v -0.08729328 -0.062178 -0.0065625
v -0.08724837 -0.06223998 -0.0065625
v -0.08720103 -0.062300355 -0.0065625
v -0.091093605 -0.0623022 -0.0065625
v -0.08715147 -0.062358825 -0.0065625
v -0.087099915 -0.06241512 -0.0065625
v -0.091063695 -0.06242868 -0.0065625
v -0.087046605 -0.062468955 -0.0065625
v -0.086991735 -0.062520045 -0.0065625
v -0.091030845 -0.06255465 -0.0065625
v -0.086935545 -0.06256812 -0.0065625
v -0.08687775 -0.06261333 -0.0065625
v -0.086817195 -0.062656575 -0.0065625
v -0.09099513 -0.062679885 -0.0065625
v -0.086754135 -0.06269781 -0.0065625
v -0.086688885 -0.06273687 -0.0065625
v -0.086621775 -0.06277359 -0.0065625
v -0.090956595 -0.062804175 -0.0065625
v -0.086553105 -0.062807805 -0.0065625
v -0.086483235 -0.062839365 -0.0065625
v -0.086412465 -0.062868135 -0.0065625
v -0.086341125 -0.062893935 -0.0065625
v -0.08626953 -0.06291663 -0.0065625
v -0.090915285 -0.06292734 -0.0065625
v -0.08619801 -0.06293604 -0.0065625
v -0.086126475 -0.062952135 -0.0065625
v -0.08605338 -0.062965245 -0.0065625
v -0.085978845 -0.06297546 -0.0065625
v -0.08590323 -0.06298275 -0.0065625
v -0.08582691 -0.06298713 -0.0065625
v -0.08575023 -0.062988585 -0.0065625
v -0.090871275 -0.06304917 -0.0065625
v -0.08061453 -0.06301116 -0.0065625
v -0.080660925 -0.063131415 -0.0065625
v -0.08567355 -0.06298713 -0.0065625
v -0.08559723 -0.06298275 -0.0065625
v -0.085521615 -0.06297546 -0.0065625
v -0.085447095 -0.062965245 -0.0065625
v -0.085374 -0.062952135 -0.0065625
v -0.085302465 -0.06293604 -0.0065625
v -0.08523093 -0.06291663 -0.0065625
v -0.085159335 -0.062893935 -0.0065625
v -0.08057124 -0.06289047 -0.0065625
v -0.085087995 -0.062868135 -0.0065625
v -0.085017225 -0.062839365 -0.0065625
v -0.084947355 -0.062807805 -0.0065625
v -0.0848787 -0.06277359 -0.0065625
v -0.080531145 -0.06276957 -0.0065625
v -0.08481159 -0.06273687 -0.0065625
v -0.084746325 -0.06269781 -0.0065625
v -0.08468328 -0.062656575 -0.0065625
v -0.080494275 -0.06264846 -0.0065625
v -0.084622725 -0.06261333 -0.0065625
v -0.084564915 -0.06256812 -0.0065625
v -0.080460345 -0.062526555 -0.0065625
v -0.084508725 -0.062520045 -0.0065625
v -0.08445387 -0.062468955 -0.0065625
v -0.084400545 -0.06241512 -0.0065625
v -0.08042928 -0.062403795 -0.0065625
v -0.08434899 -0.062358825 -0.0065625
v -0.08429943 -0.062300355 -0.0065625
v -0.08040111 -0.062280135 -0.0065625
v -0.08425209 -0.06223998 -0.0065625
v -0.08420718 -0.062178 -0.0065625
v -0.080375805 -0.062155605 -0.0065625
v -0.08416494 -0.06211467 -0.0065625
v -0.08412558 -0.06205029 -0.0065625
v -0.08035338 -0.06203019 -0.0065625
v -0.08408934 -0.061985115 -0.0065625
v -0.084056415 -0.06191946 -0.0065625
v -0.080333835 -0.06190389 -0.0065625
v -0.084026475 -0.061852845 -0.0065625
v -0.08399922 -0.061784925 -0.0065625
v -0.080317155 -0.061776735 -0.0065625
v -0.083974665 -0.061715715 -0.0065625
v -0.080303385 -0.06164868 -0.0065625
v -0.08395281 -0.061645215 -0.0065625
v -0.08393364 -0.06157341 -0.0065625
v -0.080292465 -0.061519755 -0.0065625
v -0.08391717 -0.0615003 -0.0065625
v -0.083903385 -0.061425915 -0.0065625
v -0.08028444 -0.061389945 -0.0065625
v -0.083892315 -0.06135021 -0.0065625
v -0.083883915 -0.061273215 -0.0065625
v -0.09082464 -0.06316944 -0.0065625
v -0.08071035 -0.063251055 -0.0065625
v -0.090775395 -0.063287955 -0.0065625
v -0.08076267 -0.06336987 -0.0065625
v -0.09072363 -0.063404535 -0.0065625
v -0.080817825 -0.06348771 -0.0065625
v -0.09066933 -0.06351906 -0.0065625
v -0.080875695 -0.06360438 -0.0065625
v -0.09061194 -0.0636327 -0.0065625
v -0.080936205 -0.063719655 -0.0065625
v -0.090551415 -0.06374565 -0.0065625
v -0.080999235 -0.063833385 -0.0065625
v -0.090487875 -0.06385773 -0.0065625
v -0.081064725 -0.06394536 -0.0065625
v -0.090421425 -0.06396876 -0.0065625
v -0.08113254 -0.0640554 -0.0065625
v -0.0903522 -0.064078575 -0.0065625
v -0.081202605 -0.064163295 -0.0065625
v -0.090280335 -0.06418701 -0.0065625
v -0.08127483 -0.064268895 -0.0065625
v -0.090205935 -0.064293885 -0.0065625
v -0.08134911 -0.064371975 -0.0065625
v -0.09012912 -0.06439902 -0.0065625
v -0.081425835 -0.064473045 -0.0065625
v -0.090050025 -0.06450225 -0.0065625
v -0.08150559 -0.064572885 -0.0065625
v -0.089968785 -0.064603395 -0.0065625
v -0.081588195 -0.064671345 -0.0065625
v -0.08988549 -0.064702305 -0.0065625
v -0.08167353 -0.064768305 -0.0065625
v -0.089800275 -0.064798785 -0.0065625
v -0.081761415 -0.064863615 -0.0065625
v -0.089713275 -0.06489267 -0.0065625
v -0.0818517 -0.06495711 -0.0065625
v -0.089624595 -0.06498378 -0.0065625
v -0.08194425 -0.065048655 -0.0065625
v -0.08953389 -0.06507243 -0.0065625
v -0.0820389 -0.065138115 -0.0065625
v -0.089440395 -0.06515943 -0.0065625
v -0.082135485 -0.065225325 -0.0065625
v -0.08934426 -0.065244645 -0.0065625
v -0.082233885 -0.06531015 -0.0065625
v -0.089245635 -0.06532797 -0.0065625
v -0.082333905 -0.065392425 -0.0065625
v -0.089144715 -0.065409285 -0.0065625
v -0.08243541 -0.06547203 -0.0065625
v -0.08904168 -0.06548847 -0.0065625
v -0.082538265 -0.065548815 -0.0065625
v -0.08893668 -0.065565405 -0.0065625
v -0.082642275 -0.06562263 -0.0065625
v -0.08882991 -0.06563997 -0.0065625
v -0.08274744 -0.0656934 -0.0065625
v -0.08872152 -0.06571203 -0.0065625
v -0.082854795 -0.065761815 -0.0065625
v -0.088611705 -0.065781465 -0.0065625
v -0.082964505 -0.06582804 -0.0065625
v -0.088500645 -0.06584817 -0.0065625
v -0.08307636 -0.06589197 -0.0065625
v -0.088388475 -0.065912025 -0.0065625
v -0.083190165 -0.06595353 -0.0065625
v -0.088275405 -0.06597288 -0.0065625
v -0.083305755 -0.06601263 -0.0065625
v -0.0881616 -0.066030645 -0.0065625
v -0.083422905 -0.06606918 -0.0065625
v -0.088047165 -0.066085215 -0.0065625
v -0.083541435 -0.06612309 -0.0065625
v -0.08793099 -0.066137085 -0.0065625
v -0.08366115 -0.066174285 -0.0065625
v -0.087812805 -0.066186435 -0.0065625
v -0.083781855 -0.066222675 -0.0065625
v -0.08769282 -0.066233205 -0.0065625
v -0.08390337 -0.066268185 -0.0065625
v -0.08757123 -0.06627735 -0.0065625
v -0.084025485 -0.06631071 -0.0065625
v -0.08744826 -0.066318795 -0.0065625
v -0.084148005 -0.066350175 -0.0065625
v -0.087324075 -0.06635748 -0.0065625
v -0.08427075 -0.06638649 -0.0065625
v -0.087198915 -0.066393375 -0.0065625
v -0.08439351 -0.066419565 -0.0065625
v -0.087072945 -0.06642642 -0.0065625
v -0.08451675 -0.06644949 -0.0065625
v -0.08694642 -0.066456525 -0.0065625
v -0.084641565 -0.066476565 -0.0065625
v -0.086819505 -0.066483675 -0.0065625
v -0.08476773 -0.06650076 -0.0065625
v -0.086692425 -0.066507795 -0.0065625
v -0.084895065 -0.066522075 -0.0065625
v -0.086565375 -0.066528825 -0.0065625
v -0.08502336 -0.06654048 -0.0065625
v -0.086438565 -0.06654672 -0.0065625
v -0.08515239 -0.066555975 -0.0065625
v -0.08631219 -0.066561405 -0.0065625
v -0.085281945 -0.066568515 -0.0065625
v -0.08618592 -0.06657291 -0.0065625
v -0.085411815 -0.06657813 -0.0065625
v -0.08605857 -0.06658134 -0.0065625
v -0.085541805 -0.06658476 -0.0065625
v -0.085930275 -0.066586725 -0.0065625
v -0.085671675 -0.06658842 -0.0065625
v -0.085801245 -0.06658908 -0.0065625
v -0.08387523 -0.06111534 -0.0028125
v -0.08387523 -0.06111534 -0.0065625
v -0.08387823 -0.061194915 -0.0065625
v -0.08387823 -0.061035735 -0.0028125
v -0.08387823 -0.061194915 -0.0028125
v -0.083883915 -0.061273215 -0.0065625
v -0.083883915 -0.061273215 -0.0028125
v -0.083892315 -0.06135021 -0.0065625
v -0.083892315 -0.06135021 -0.0028125
v -0.083903385 -0.061425915 -0.0065625
v -0.083903385 -0.061425915 -0.0028125
v -0.08391717 -0.0615003 -0.0065625
v -0.08391717 -0.0615003 -0.0028125
v -0.08393364 -0.06157341 -0.0065625
v -0.08393364 -0.06157341 -0.0028125
v -0.08395281 -0.061645215 -0.0065625
v -0.08395281 -0.061645215 -0.0028125
v -0.083974665 -0.061715715 -0.0065625
v -0.083974665 -0.061715715 -0.0028125
v -0.08399922 -0.061784925 -0.0065625
v -0.08399922 -0.061784925 -0.0028125
v -0.084026475 -0.061852845 -0.0065625
v -0.084026475 -0.061852845 -0.0028125
v -0.084056415 -0.06191946 -0.0065625
v -0.084056415 -0.06191946 -0.0028125
v -0.08408934 -0.061985115 -0.0065625
v -0.08408934 -0.061985115 -0.0028125
v -0.08412558 -0.06205029 -0.0065625
v -0.08412558 -0.06205029 -0.0028125
v -0.08416494 -0.06211467 -0.0065625
v -0.08416494 -0.06211467 -0.0028125
v -0.08420718 -0.062178 -0.0065625
v -0.08420718 -0.062178 -0.0028125
v -0.08425209 -0.06223998 -0.0065625
v -0.08425209 -0.06223998 -0.0028125
v -0.08429943 -0.062300355 -0.0065625
v -0.08429943 -0.062300355 -0.0028125
v -0.08434899 -0.062358825 -0.0065625
v -0.08434899 -0.062358825 -0.0028125
v -0.084400545 -0.06241512 -0.0065625
v -0.084400545 -0.06241512 -0.0028125
v -0.08445387 -0.062468955 -0.0065625
v -0.08445387 -0.062468955 -0.0028125
v -0.084508725 -0.062520045 -0.0065625
v -0.084508725 -0.062520045 -0.0028125
v -0.084564915 -0.06256812 -0.0065625
v -0.084564915 -0.06256812 -0.0028125
v -0.084622725 -0.06261333 -0.0065625
v -0.084622725 -0.06261333 -0.0028125
v -0.08468328 -0.062656575 -0.0065625
v -0.08468328 -0.062656575 -0.0028125
v -0.084746325 -0.06269781 -0.0065625
v -0.084746325 -0.06269781 -0.0028125
v -0.08481159 -0.06273687 -0.0065625
v -0.08481159 -0.06273687 -0.0028125
v -0.0848787 -0.06277359 -0.0065625
v -0.0848787 -0.06277359 -0.0028125
v -0.084947355 -0.062807805 -0.0065625
v -0.084947355 -0.062807805 -0.0028125
v -0.085017225 -0.062839365 -0.0065625
v -0.085017225 -0.062839365 -0.0028125
v -0.085087995 -0.062868135 -0.0065625
v -0.085087995 -0.062868135 -0.0028125
v -0.085159335 -0.062893935 -0.0065625
v -0.085159335 -0.062893935 -0.0028125
v -0.08523093 -0.06291663 -0.0065625
v -0.08523093 -0.06291663 -0.0028125
v -0.085302465 -0.06293604 -0.0065625
v -0.085302465 -0.06293604 -0.0028125
v -0.085374 -0.062952135 -0.0065625
v -0.085374 -0.062952135 -0.0028125
v -0.085447095 -0.062965245 -0.0065625
v -0.085447095 -0.062965245 -0.0028125
v -0.085521615 -0.06297546 -0.0065625
v -0.085521615 -0.06297546 -0.0028125
v -0.08559723 -0.06298275 -0.0065625
v -0.08559723 -0.06298275 -0.0028125
v -0.08567355 -0.06298713 -0.0065625
v -0.08567355 -0.06298713 -0.0028125
v -0.08575023 -0.062988585 -0.0065625
v -0.08575023 -0.062988585 -0.0028125
v -0.08582691 -0.06298713 -0.0065625
v -0.08582691 -0.06298713 -0.0028125
v -0.08590323 -0.06298275 -0.0065625
v -0.08590323 -0.06298275 -0.0028125
v -0.085978845 -0.06297546 -0.0065625
v -0.085978845 -0.06297546 -0.0028125
v -0.08605338 -0.062965245 -0.0065625
v -0.08605338 -0.062965245 -0.0028125
v -0.086126475 -0.062952135 -0.0065625
v -0.086126475 -0.062952135 -0.0028125
v -0.08619801 -0.06293604 -0.0065625
v -0.08619801 -0.06293604 -0.0028125
v -0.08626953 -0.06291663 -0.0065625
v -0.08626953 -0.06291663 -0.0028125
v -0.086341125 -0.062893935 -0.0065625
v -0.086341125 -0.062893935 -0.0028125
v -0.086412465 -0.062868135 -0.0065625
v -0.086412465 -0.062868135 -0.0028125
v -0.086483235 -0.062839365 -0.0065625
v -0.086483235 -0.062839365 -0.0028125
v -0.086553105 -0.062807805 -0.0065625
v -0.086553105 -0.062807805 -0.0028125
v -0.086621775 -0.06277359 -0.0065625
v -0.086621775 -0.06277359 -0.0028125
v -0.086688885 -0.06273687 -0.0065625
v -0.086688885 -0.06273687 -0.0028125
v -0.086754135 -0.06269781 -0.0065625
v -0.086754135 -0.06269781 -0.0028125
v -0.086817195 -0.062656575 -0.0065625
v -0.086817195 -0.062656575 -0.0028125
v -0.08687775 -0.06261333 -0.0065625
v -0.08687775 -0.06261333 -0.0028125
v -0.086935545 -0.06256812 -0.0065625
v -0.086935545 -0.06256812 -0.0028125
v -0.086991735 -0.062520045 -0.0065625
v -0.086991735 -0.062520045 -0.0028125
v -0.087046605 -0.062468955 -0.0065625
v -0.087046605 -0.062468955 -0.0028125
v -0.087099915 -0.06241512 -0.0065625
v -0.087099915 -0.06241512 -0.0028125
v -0.08715147 -0.062358825 -0.0065625
v -0.08715147 -0.062358825 -0.0028125
v -0.08720103 -0.062300355 -0.0065625
v -0.08720103 -0.062300355 -0.0028125
v -0.08724837 -0.06223998 -0.0065625
v -0.08724837 -0.06223998 -0.0028125
v -0.08729328 -0.062178 -0.0065625
v -0.08729328 -0.062178 -0.0028125
v -0.08733552 -0.06211467 -0.0065625
v -0.08733552 -0.06211467 -0.0028125
v -0.08737488 -0.06205029 -0.0065625
v -0.08737488 -0.06205029 -0.0028125
v -0.08741112 -0.061985115 -0.0065625
v -0.08741112 -0.061985115 -0.0028125
v -0.087444045 -0.06191946 -0.0065625
v -0.087444045 -0.06191946 -0.0028125
v -0.087474 -0.061852845 -0.0065625
v -0.087474 -0.061852845 -0.0028125
v -0.08750124 -0.061784925 -0.0065625
v -0.08750124 -0.061784925 -0.0028125
v -0.087525795 -0.061715715 -0.0065625
v -0.087525795 -0.061715715 -0.0028125
v -0.087547665 -0.061645215 -0.0065625
v -0.087547665 -0.061645215 -0.0028125
v -0.087566835 -0.06157341 -0.0065625
v -0.087566835 -0.06157341 -0.0028125
v -0.08758329 -0.0615003 -0.0065625
v -0.08758329 -0.0615003 -0.0028125
v -0.087597075 -0.061425915 -0.0065625
v -0.087597075 -0.061425915 -0.0028125
v -0.08760816 -0.06135021 -0.0065625
v -0.08760816 -0.06135021 -0.0028125
v -0.087616545 -0.061273215 -0.0065625
v -0.087616545 -0.061273215 -0.0028125
v -0.08762223 -0.061194915 -0.0065625
v -0.08762223 -0.061194915 -0.0028125
v -0.08762523 -0.06111534 -0.0065625
v -0.08762523 -0.06111534 -0.0028125
v -0.08762223 -0.061035735 -0.0065625
v -0.08762223 -0.061035735 -0.0028125
v -0.087616545 -0.06095745 -0.0065625
v -0.087616545 -0.06095745 -0.0028125
v -0.08760816 -0.060880455 -0.0065625
v -0.08760816 -0.060880455 -0.0028125
v -0.087597075 -0.06080475 -0.0065625
v -0.087597075 -0.06080475 -0.0028125
v -0.08758329 -0.06073035 -0.0065625
v -0.08758329 -0.06073035 -0.0028125
v -0.087566835 -0.060657255 -0.0065625
v -0.087566835 -0.060657255 -0.0028125
v -0.087547665 -0.06058545 -0.0065625
v -0.087547665 -0.06058545 -0.0028125
v -0.087525795 -0.06051495 -0.0065625
v -0.087525795 -0.06051495 -0.0028125
v -0.08750124 -0.06044574 -0.0065625
v -0.08750124 -0.06044574 -0.0028125
v -0.087474 -0.06037782 -0.0065625
v -0.087474 -0.06037782 -0.0028125
v -0.087444045 -0.06031122 -0.0065625
v -0.087444045 -0.06031122 -0.0028125
v -0.08741112 -0.060245535 -0.0065625
v -0.08741112 -0.060245535 -0.0028125
v -0.08737488 -0.060180375 -0.0065625
v -0.08737488 -0.060180375 -0.0028125
v -0.08733552 -0.060115995 -0.0065625
v -0.08733552 -0.060115995 -0.0028125
v -0.08729328 -0.060052665 -0.0065625
v -0.08729328 -0.060052665 -0.0028125
v -0.08724837 -0.059990685 -0.0065625
v -0.08724837 -0.059990685 -0.0028125
v -0.08720103 -0.05993031 -0.0065625
v -0.08720103 -0.05993031 -0.0028125
v -0.08715147 -0.05987184 -0.0065625
v -0.08715147 -0.05987184 -0.0028125
v -0.087099915 -0.059815545 -0.0065625
v -0.087099915 -0.059815545 -0.0028125
v -0.087046605 -0.05976171 -0.0065625
v -0.087046605 -0.05976171 -0.0028125
v -0.086991735 -0.05971062 -0.0065625
v -0.086991735 -0.05971062 -0.0028125
v -0.086935545 -0.059662545 -0.0065625
v -0.086935545 -0.059662545 -0.0028125
v -0.08687775 -0.059617335 -0.0065625
v -0.08687775 -0.059617335 -0.0028125
v -0.086817195 -0.05957409 -0.0065625
v -0.086817195 -0.05957409 -0.0028125
v -0.086754135 -0.059532855 -0.0065625
v -0.086754135 -0.059532855 -0.0028125
v -0.086688885 -0.059493795 -0.0065625
v -0.086688885 -0.059493795 -0.0028125
v -0.086621775 -0.05945709 -0.0065625
v -0.086621775 -0.05945709 -0.0028125
v -0.086553105 -0.05942286 -0.0065625
v -0.086553105 -0.05942286 -0.0028125
v -0.086483235 -0.0593913 -0.0065625
v -0.086483235 -0.0593913 -0.0028125
v -0.086412465 -0.05936253 -0.0065625
v -0.086412465 -0.05936253 -0.0028125
v -0.086341125 -0.05933673 -0.0065625
v -0.086341125 -0.05933673 -0.0028125
v -0.08626953 -0.059314035 -0.0065625
v -0.08626953 -0.059314035 -0.0028125
v -0.08619801 -0.059294625 -0.0065625
v -0.08619801 -0.059294625 -0.0028125
v -0.086126475 -0.05927853 -0.0065625
v -0.086126475 -0.05927853 -0.0028125
v -0.08605338 -0.05926542 -0.0065625
v -0.08605338 -0.05926542 -0.0028125
v -0.085978845 -0.059255205 -0.0065625
v -0.085978845 -0.059255205 -0.0028125
v -0.08590323 -0.059247915 -0.0065625
v -0.08590323 -0.059247915 -0.0028125
v -0.08582691 -0.05924355 -0.0065625
v -0.08582691 -0.05924355 -0.0028125
v -0.08575023 -0.05924208 -0.0065625
v -0.08575023 -0.05924208 -0.0028125
v -0.08567355 -0.05924355 -0.0065625
v -0.08567355 -0.05924355 -0.0028125
v -0.08559723 -0.059247915 -0.0065625
v -0.08559723 -0.059247915 -0.0028125
v -0.085521615 -0.059255205 -0.0065625
v -0.085521615 -0.059255205 -0.0028125
v -0.085447095 -0.05926542 -0.0065625
v -0.085447095 -0.05926542 -0.0028125
v -0.085374 -0.05927853 -0.0065625
v -0.085374 -0.05927853 -0.0028125
v -0.085302465 -0.059294625 -0.0065625
v -0.085302465 -0.059294625 -0.0028125
v -0.08523093 -0.059314035 -0.0065625
v -0.08523093 -0.059314035 -0.0028125
v -0.085159335 -0.05933673 -0.0065625
v -0.085159335 -0.05933673 -0.0028125
v -0.085087995 -0.05936253 -0.0065625
v -0.085087995 -0.05936253 -0.0028125
v -0.085017225 -0.0593913 -0.0065625
v -0.085017225 -0.0593913 -0.0028125
v -0.084947355 -0.05942286 -0.0065625
v -0.084947355 -0.05942286 -0.0028125
v -0.0848787 -0.05945709 -0.0065625
v -0.0848787 -0.05945709 -0.0028125
v -0.08481159 -0.059493795 -0.0065625
v -0.08481159 -0.059493795 -0.0028125
v -0.084746325 -0.059532855 -0.0065625
v -0.084746325 -0.059532855 -0.0028125
v -0.08468328 -0.05957409 -0.0065625
v -0.08468328 -0.05957409 -0.0028125
v -0.084622725 -0.059617335 -0.0065625
v -0.084622725 -0.059617335 -0.0028125
v -0.084564915 -0.059662545 -0.0065625
v -0.084564915 -0.059662545 -0.0028125
v -0.084508725 -0.05971062 -0.0065625
v -0.084508725 -0.05971062 -0.0028125
v -0.08445387 -0.05976171 -0.0065625
v -0.08445387 -0.05976171 -0.0028125
v -0.084400545 -0.059815545 -0.0065625
v -0.084400545 -0.059815545 -0.0028125
v -0.08434899 -0.05987184 -0.0065625
v -0.08434899 -0.05987184 -0.0028125
v -0.08429943 -0.05993031 -0.0065625
v -0.08429943 -0.05993031 -0.0028125
v -0.08425209 -0.059990685 -0.0065625
v -0.08425209 -0.059990685 -0.0028125
v -0.08420718 -0.060052665 -0.0065625
v -0.08420718 -0.060052665 -0.0028125
v -0.08416494 -0.060115995 -0.0065625
v -0.08416494 -0.060115995 -0.0028125
v -0.08412558 -0.060180375 -0.0065625
v -0.08412558 -0.060180375 -0.0028125
v -0.08408934 -0.060245535 -0.0065625
v -0.08408934 -0.060245535 -0.0028125
v -0.084056415 -0.06031122 -0.0065625
v -0.084056415 -0.06031122 -0.0028125
v -0.084026475 -0.06037782 -0.0065625
v -0.084026475 -0.06037782 -0.0028125
v -0.08399922 -0.06044574 -0.0065625
v -0.08399922 -0.06044574 -0.0028125
v -0.083974665 -0.06051495 -0.0065625
v -0.083974665 -0.06051495 -0.0028125
v -0.08395281 -0.06058545 -0.0065625
v -0.08395281 -0.06058545 -0.0028125
v -0.08393364 -0.060657255 -0.0065625
v -0.08393364 -0.060657255 -0.0028125
v -0.08391717 -0.06073035 -0.0065625
v -0.08391717 -0.06073035 -0.0028125
v -0.083903385 -0.06080475 -0.0065625
v -0.083903385 -0.06080475 -0.0028125
v -0.083892315 -0.060880455 -0.0065625
v -0.083892315 -0.060880455 -0.0028125
v -0.083883915 -0.06095745 -0.0065625
v -0.083883915 -0.06095745 -0.0028125
v -0.08387823 -0.061035735 -0.0065625
v -0.08539875 -0.05254122 -0.0028125
v -0.08539875 -0.05254122 -0.0065625
v -0.08560326 -0.052730655 -0.0065625
v -0.085357215 -0.052499655 -0.0028125
v -0.08560326 -0.052730655 -0.0028125
v -0.08580582 -0.05292069 -0.0065625
v -0.08580582 -0.05292069 -0.0028125
v -0.086006445 -0.053111355 -0.0065625
v -0.086006445 -0.053111355 -0.0028125
v -0.086205105 -0.053302635 -0.0065625
v -0.086205105 -0.053302635 -0.0028125
v -0.086401815 -0.053494515 -0.0065625
v -0.086401815 -0.053494515 -0.0028125
v -0.086596575 -0.053687025 -0.0065625
v -0.086596575 -0.053687025 -0.0028125
v -0.0867894 -0.053880135 -0.0065625
v -0.0867894 -0.053880135 -0.0028125
v -0.08698026 -0.05407386 -0.0065625
v -0.08698026 -0.05407386 -0.0028125
v -0.08716917 -0.0542682 -0.0065625
v -0.08716917 -0.0542682 -0.0028125
v -0.087356295 -0.054463095 -0.0065625
v -0.087356295 -0.054463095 -0.0028125
v -0.087541995 -0.054658365 -0.0065625
v -0.087541995 -0.054658365 -0.0028125
v -0.087726105 -0.054854085 -0.0065625
v -0.087726105 -0.054854085 -0.0028125
v -0.087908355 -0.05505039 -0.0065625
v -0.087908355 -0.05505039 -0.0028125
v -0.088088535 -0.055247355 -0.0065625
v -0.088088535 -0.055247355 -0.0028125
v -0.08826639 -0.0554451 -0.0065625
v -0.08826639 -0.0554451 -0.0028125
v -0.088441695 -0.05564373 -0.0065625
v -0.088441695 -0.05564373 -0.0028125
v -0.088614195 -0.055843335 -0.0065625
v -0.088614195 -0.055843335 -0.0028125
v -0.088783665 -0.056044035 -0.0065625
v -0.088783665 -0.056044035 -0.0028125
v -0.08894991 -0.056245905 -0.0065625
v -0.08894991 -0.056245905 -0.0028125
v -0.089113305 -0.056448765 -0.0065625
v -0.089113305 -0.056448765 -0.0028125
v -0.08927403 -0.056652585 -0.0065625
v -0.08927403 -0.056652585 -0.0028125
v -0.08943204 -0.056857335 -0.0065625
v -0.08943204 -0.056857335 -0.0028125
v -0.08958738 -0.057063015 -0.0065625
v -0.08958738 -0.057063015 -0.0028125
v -0.08974002 -0.05726964 -0.0065625
v -0.08974002 -0.05726964 -0.0028125
v -0.089889975 -0.05747721 -0.0065625
v -0.089889975 -0.05747721 -0.0028125
v -0.090037245 -0.05768571 -0.0065625
v -0.090037245 -0.05768571 -0.0028125
v -0.090181815 -0.05789514 -0.0065625
v -0.090181815 -0.05789514 -0.0028125
v -0.0903237 -0.058105515 -0.0065625
v -0.0903237 -0.058105515 -0.0028125
v -0.090394755 -0.058218375 -0.0065625
v -0.090394755 -0.058218375 -0.0028125
v -0.090462885 -0.058331955 -0.0065625
v -0.090462885 -0.058331955 -0.0028125
v -0.09052809 -0.058446255 -0.0065625
v -0.09052809 -0.058446255 -0.0028125
v -0.090590385 -0.05856126 -0.0065625
v -0.090590385 -0.05856126 -0.0028125
v -0.09064974 -0.05867697 -0.0065625
v -0.09064974 -0.05867697 -0.0028125
v -0.090706185 -0.058793415 -0.0065625
v -0.090706185 -0.058793415 -0.0028125
v -0.09075969 -0.05891055 -0.0065625
v -0.09075969 -0.05891055 -0.0028125
v -0.09081027 -0.05902842 -0.0065625
v -0.09081027 -0.05902842 -0.0028125
v -0.09085794 -0.059146995 -0.0065625
v -0.09085794 -0.059146995 -0.0028125
v -0.09090267 -0.059266275 -0.0065625
v -0.09090267 -0.059266275 -0.0028125
v -0.09094449 -0.059386275 -0.0065625
v -0.09094449 -0.059386275 -0.0028125
v -0.090983385 -0.059506995 -0.0065625
v -0.090983385 -0.059506995 -0.0028125
v -0.09101934 -0.05962842 -0.0065625
v -0.09101934 -0.05962842 -0.0028125
v -0.091052385 -0.059750565 -0.0065625
v -0.091052385 -0.059750565 -0.0028125
v -0.09108252 -0.05987352 -0.0065625
v -0.09108252 -0.05987352 -0.0028125
v -0.091109775 -0.05999796 -0.0065625
v -0.091109775 -0.05999796 -0.0028125
v -0.09113415 -0.060123825 -0.0065625
v -0.09113415 -0.060123825 -0.0028125
v -0.09115563 -0.06025092 -0.0065625
v -0.09115563 -0.06025092 -0.0028125
v -0.091174215 -0.06037902 -0.0065625
v -0.091174215 -0.06037902 -0.0028125
v -0.09118989 -0.060507915 -0.0065625
v -0.09118989 -0.060507915 -0.0028125
v -0.09120261 -0.06063738 -0.0065625
v -0.09120261 -0.06063738 -0.0028125
v -0.091212405 -0.060767235 -0.0065625
v -0.091212405 -0.060767235 -0.0028125
v -0.09121923 -0.060897255 -0.0065625
v -0.09121923 -0.060897255 -0.0028125
v -0.09122307 -0.06102723 -0.0065625
v -0.09122307 -0.06102723 -0.0028125
v -0.091223925 -0.061156935 -0.0065625
v -0.091223925 -0.061156935 -0.0028125
v -0.09122178 -0.061286175 -0.0065625
v -0.09122178 -0.061286175 -0.0028125
v -0.09121662 -0.06141474 -0.0065625
v -0.09121662 -0.06141474 -0.0028125
v -0.091208415 -0.061542405 -0.0065625
v -0.091208415 -0.061542405 -0.0028125
v -0.091197165 -0.06166896 -0.0065625
v -0.091197165 -0.06166896 -0.0028125
v -0.09118278 -0.061795035 -0.0065625
v -0.09118278 -0.061795035 -0.0028125
v -0.09116517 -0.061921605 -0.0065625
v -0.09116517 -0.061921605 -0.0028125
v -0.091144395 -0.062048445 -0.0065625
v -0.091144395 -0.062048445 -0.0028125
v -0.09112053 -0.062175375 -0.0065625
v -0.09112053 -0.062175375 -0.0028125
v -0.091093605 -0.0623022 -0.0065625
v -0.091093605 -0.0623022 -0.0028125
v -0.091063695 -0.06242868 -0.0065625
v -0.091063695 -0.06242868 -0.0028125
v -0.091030845 -0.06255465 -0.0065625
v -0.091030845 -0.06255465 -0.0028125
v -0.09099513 -0.062679885 -0.0065625
v -0.09099513 -0.062679885 -0.0028125
v -0.090956595 -0.062804175 -0.0065625
v -0.090956595 -0.062804175 -0.0028125
v -0.090915285 -0.06292734 -0.0065625
v -0.090915285 -0.06292734 -0.0028125
v -0.090871275 -0.06304917 -0.0065625
v -0.090871275 -0.06304917 -0.0028125
v -0.09082464 -0.06316944 -0.0065625
v -0.09082464 -0.06316944 -0.0028125
v -0.090775395 -0.063287955 -0.0065625
v -0.090775395 -0.063287955 -0.0028125
v -0.09072363 -0.063404535 -0.0065625
v -0.09072363 -0.063404535 -0.0028125
v -0.09066933 -0.06351906 -0.0065625
v -0.09066933 -0.06351906 -0.0028125
v -0.09061194 -0.0636327 -0.0065625
v -0.09061194 -0.0636327 -0.0028125
v -0.090551415 -0.06374565 -0.0065625
v -0.090551415 -0.06374565 -0.0028125
v -0.090487875 -0.06385773 -0.0065625
v -0.090487875 -0.06385773 -0.0028125
v -0.090421425 -0.06396876 -0.0065625
v -0.090421425 -0.06396876 -0.0028125
v -0.0903522 -0.064078575 -0.0065625
v -0.0903522 -0.064078575 -0.0028125
v -0.090280335 -0.06418701 -0.0065625
v -0.090280335 -0.06418701 -0.0028125
v -0.090205935 -0.064293885 -0.0065625
v -0.090205935 -0.064293885 -0.0028125
v -0.09012912 -0.06439902 -0.0065625
v -0.09012912 -0.06439902 -0.0028125
v -0.090050025 -0.06450225 -0.0065625
v -0.090050025 -0.06450225 -0.0028125
v -0.089968785 -0.064603395 -0.0065625
v -0.089968785 -0.064603395 -0.0028125
v -0.08988549 -0.064702305 -0.0065625
v -0.08988549 -0.064702305 -0.0028125
v -0.089800275 -0.064798785 -0.0065625
v -0.089800275 -0.064798785 -0.0028125
v -0.089713275 -0.06489267 -0.0065625
v -0.089713275 -0.06489267 -0.0028125
v -0.089624595 -0.06498378 -0.0065625
v -0.089624595 -0.06498378 -0.0028125
v -0.08953389 -0.06507243 -0.0065625
v -0.08953389 -0.06507243 -0.0028125
v -0.089440395 -0.06515943 -0.0065625
v -0.089440395 -0.06515943 -0.0028125
v -0.08934426 -0.065244645 -0.0065625
v -0.08934426 -0.065244645 -0.0028125
v -0.089245635 -0.06532797 -0.0065625
v -0.089245635 -0.06532797 -0.0028125
v -0.089144715 -0.065409285 -0.0065625
v -0.089144715 -0.065409285 -0.0028125
v -0.08904168 -0.06548847 -0.0065625
v -0.08904168 -0.06548847 -0.0028125
v -0.08893668 -0.065565405 -0.0065625
v -0.08893668 -0.065565405 -0.0028125
v -0.08882991 -0.06563997 -0.0065625
v -0.08882991 -0.06563997 -0.0028125
v -0.08872152 -0.06571203 -0.0065625
v -0.08872152 -0.06571203 -0.0028125
v -0.088611705 -0.065781465 -0.0065625
v -0.088611705 -0.065781465 -0.0028125
v -0.088500645 -0.06584817 -0.0065625
v -0.088500645 -0.06584817 -0.0028125
v -0.088388475 -0.065912025 -0.0065625
v -0.088388475 -0.065912025 -0.0028125
v -0.088275405 -0.06597288 -0.0065625
v -0.088275405 -0.06597288 -0.0028125
v -0.0881616 -0.066030645 -0.0065625
v -0.0881616 -0.066030645 -0.0028125
v -0.088047165 -0.066085215 -0.0065625
v -0.088047165 -0.066085215 -0.0028125
v -0.08793099 -0.066137085 -0.0065625
v -0.08793099 -0.066137085 -0.0028125
v -0.087812805 -0.066186435 -0.0065625
v -0.087812805 -0.066186435 -0.0028125
v -0.08769282 -0.066233205 -0.0065625
v -0.08769282 -0.066233205 -0.0028125
v -0.08757123 -0.06627735 -0.0065625
v -0.08757123 -0.06627735 -0.0028125
v -0.08744826 -0.066318795 -0.0065625
v -0.08744826 -0.066318795 -0.0028125
v -0.087324075 -0.06635748 -0.0065625
v -0.087324075 -0.06635748 -0.0028125
v -0.087198915 -0.066393375 -0.0065625
v -0.087198915 -0.066393375 -0.0028125
v -0.087072945 -0.06642642 -0.0065625
v -0.087072945 -0.06642642 -0.0028125
v -0.08694642 -0.066456525 -0.0065625
v -0.08694642 -0.066456525 -0.0028125
v -0.086819505 -0.066483675 -0.0065625
v -0.086819505 -0.066483675 -0.0028125
v -0.086692425 -0.066507795 -0.0065625
v -0.086692425 -0.066507795 -0.0028125
v -0.086565375 -0.066528825 -0.0065625
v -0.086565375 -0.066528825 -0.0028125
v -0.086438565 -0.06654672 -0.0065625
v -0.086438565 -0.06654672 -0.0028125
v -0.08631219 -0.066561405 -0.0065625
v -0.08631219 -0.066561405 -0.0028125
v -0.08618592 -0.06657291 -0.0065625
v -0.08618592 -0.06657291 -0.0028125
v -0.08605857 -0.06658134 -0.0065625
v -0.08605857 -0.06658134 -0.0028125
v -0.085930275 -0.066586725 -0.0065625
v -0.085930275 -0.066586725 -0.0028125
v -0.085801245 -0.06658908 -0.0065625
v -0.085801245 -0.06658908 -0.0028125
v -0.085671675 -0.06658842 -0.0065625
v -0.085671675 -0.06658842 -0.0028125
v -0.085541805 -0.06658476 -0.0065625
v -0.085541805 -0.06658476 -0.0028125
v -0.085411815 -0.06657813 -0.0065625
v -0.085411815 -0.06657813 -0.0028125
v -0.085281945 -0.066568515 -0.0065625
v -0.085281945 -0.066568515 -0.0028125
v -0.08515239 -0.066555975 -0.0065625
v -0.08515239 -0.066555975 -0.0028125
v -0.08502336 -0.06654048 -0.0065625
v -0.08502336 -0.06654048 -0.0028125
v -0.084895065 -0.066522075 -0.0065625
v -0.084895065 -0.066522075 -0.0028125
v -0.08476773 -0.06650076 -0.0065625
v -0.08476773 -0.06650076 -0.0028125
v -0.084641565 -0.066476565 -0.0065625
v -0.084641565 -0.066476565 -0.0028125
v -0.08451675 -0.06644949 -0.0065625
v -0.08451675 -0.06644949 -0.0028125
v -0.08439351 -0.066419565 -0.0065625
v -0.08439351 -0.066419565 -0.0028125
v -0.08427075 -0.06638649 -0.0065625
v -0.08427075 -0.06638649 -0.0028125
v -0.084148005 -0.066350175 -0.0065625
v -0.084148005 -0.066350175 -0.0028125
v -0.084025485 -0.06631071 -0.0065625
v -0.084025485 -0.06631071 -0.0028125
v -0.08390337 -0.066268185 -0.0065625
v -0.08390337 -0.066268185 -0.0028125
v -0.083781855 -0.066222675 -0.0065625
v -0.083781855 -0.066222675 -0.0028125
v -0.08366115 -0.066174285 -0.0065625
v -0.08366115 -0.066174285 -0.0028125
v -0.083541435 -0.06612309 -0.0065625
v -0.083541435 -0.06612309 -0.0028125
v -0.083422905 -0.06606918 -0.0065625
v -0.083422905 -0.06606918 -0.0028125
v -0.083305755 -0.06601263 -0.0065625
v -0.083305755 -0.06601263 -0.0028125
v -0.083190165 -0.06595353 -0.0065625
v -0.083190165 -0.06595353 -0.0028125
v -0.08307636 -0.06589197 -0.0065625
v -0.08307636 -0.06589197 -0.0028125
v -0.082964505 -0.06582804 -0.0065625
v -0.082964505 -0.06582804 -0.0028125
v -0.082854795 -0.065761815 -0.0065625
v -0.082854795 -0.065761815 -0.0028125
v -0.08274744 -0.0656934 -0.0065625
v -0.08274744 -0.0656934 -0.0028125
v -0.082642275 -0.06562263 -0.0065625
v -0.082642275 -0.06562263 -0.0028125
v -0.082538265 -0.065548815 -0.0065625
v -0.082538265 -0.065548815 -0.0028125
v -0.08243541 -0.06547203 -0.0065625
v -0.08243541 -0.06547203 -0.0028125
v -0.082333905 -0.065392425 -0.0065625
v -0.082333905 -0.065392425 -0.0028125
v -0.082233885 -0.06531015 -0.0065625
v -0.082233885 -0.06531015 -0.0028125
v -0.082135485 -0.065225325 -0.0065625
v -0.082135485 -0.065225325 -0.0028125
v -0.0820389 -0.065138115 -0.0065625
v -0.0820389 -0.065138115 -0.0028125
v -0.08194425 -0.065048655 -0.0065625
v -0.08194425 -0.065048655 -0.0028125
v -0.0818517 -0.06495711 -0.0065625
v -0.0818517 -0.06495711 -0.0028125
v -0.081761415 -0.064863615 -0.0065625
v -0.081761415 -0.064863615 -0.0028125
v -0.08167353 -0.064768305 -0.0065625
v -0.08167353 -0.064768305 -0.0028125
v -0.081588195 -0.064671345 -0.0065625
v -0.081588195 -0.064671345 -0.0028125
v -0.08150559 -0.064572885 -0.0065625
v -0.08150559 -0.064572885 -0.0028125
v -0.081425835 -0.064473045 -0.0065625
v -0.081425835 -0.064473045 -0.0028125
v -0.08134911 -0.064371975 -0.0065625
v -0.08134911 -0.064371975 -0.0028125
v -0.08127483 -0.064268895 -0.0065625
v -0.08127483 -0.064268895 -0.0028125
v -0.081202605 -0.064163295 -0.0065625
v -0.081202605 -0.064163295 -0.0028125
v -0.08113254 -0.0640554 -0.0065625
v -0.08113254 -0.0640554 -0.0028125
v -0.081064725 -0.06394536 -0.0065625
v -0.081064725 -0.06394536 -0.0028125
v -0.080999235 -0.063833385 -0.0065625
v -0.080999235 -0.063833385 -0.0028125
v -0.080936205 -0.063719655 -0.0065625
v -0.080936205 -0.063719655 -0.0028125
v -0.080875695 -0.06360438 -0.0065625
v -0.080875695 -0.06360438 -0.0028125
v -0.080817825 -0.06348771 -0.0065625
v -0.080817825 -0.06348771 -0.0028125
v -0.08076267 -0.06336987 -0.0065625
v -0.08076267 -0.06336987 -0.0028125
v -0.08071035 -0.063251055 -0.0065625
v -0.08071035 -0.063251055 -0.0028125
v -0.080660925 -0.063131415 -0.0065625
v -0.080660925 -0.063131415 -0.0028125
v -0.08061453 -0.06301116 -0.0065625
v -0.08061453 -0.06301116 -0.0028125
v -0.08057124 -0.06289047 -0.0065625
v -0.08057124 -0.06289047 -0.0028125
v -0.080531145 -0.06276957 -0.0065625
v -0.080531145 -0.06276957 -0.0028125
v -0.080494275 -0.06264846 -0.0065625
v -0.080494275 -0.06264846 -0.0028125
v -0.080460345 -0.062526555 -0.0065625
v -0.080460345 -0.062526555 -0.0028125
v -0.08042928 -0.062403795 -0.0065625
v -0.08042928 -0.062403795 -0.0028125
v -0.08040111 -0.062280135 -0.0065625
v -0.08040111 -0.062280135 -0.0028125
v -0.080375805 -0.062155605 -0.0065625
v -0.080375805 -0.062155605 -0.0028125
v -0.08035338 -0.06203019 -0.0065625
v -0.08035338 -0.06203019 -0.0028125
v -0.080333835 -0.06190389 -0.0065625
v -0.080333835 -0.06190389 -0.0028125
v -0.080317155 -0.061776735 -0.0065625
v -0.080317155 -0.061776735 -0.0028125
v -0.080303385 -0.06164868 -0.0065625
v -0.080303385 -0.06164868 -0.0028125
v -0.080292465 -0.061519755 -0.0065625
v -0.080292465 -0.061519755 -0.0028125
v -0.08028444 -0.061389945 -0.0065625
v -0.08028444 -0.061389945 -0.0028125
v -0.08027928 -0.061259265 -0.0065625
v -0.08027928 -0.061259265 -0.0028125
v -0.080277015 -0.0611277 -0.0065625
v -0.080277015 -0.0611277 -0.0028125
v -0.080277615 -0.06099525 -0.0065625
v -0.080277615 -0.06099525 -0.0028125
v -0.080281095 -0.060861915 -0.0065625
v -0.080281095 -0.060861915 -0.0028125
v -0.08029023 -0.060496965 -0.0065625
v -0.08029023 -0.060496965 -0.0028125
v -0.08028834 -0.060136485 -0.0065625
v -0.08028834 -0.060136485 -0.0028125
v -0.08027544 -0.05978052 -0.0065625
v -0.08027544 -0.05978052 -0.0028125
v -0.080251545 -0.059429025 -0.0065625
v -0.080251545 -0.059429025 -0.0028125
v -0.080216625 -0.05908203 -0.0065625
v -0.080216625 -0.05908203 -0.0028125
v -0.08017071 -0.05873952 -0.0065625
v -0.08017071 -0.05873952 -0.0028125
v -0.080113785 -0.05840151 -0.0065625
v -0.080113785 -0.05840151 -0.0028125
v -0.080046 -0.05806863 -0.0065625
v -0.080046 -0.05806863 -0.0028125
v -0.079967415 -0.057741105 -0.0065625
v -0.079967415 -0.057741105 -0.0028125
v -0.07987788 -0.057418275 -0.0065625
v -0.07987788 -0.057418275 -0.0028125
v -0.079777215 -0.05709951 -0.0065625
v -0.079777215 -0.05709951 -0.0028125
v -0.0796653 -0.056784165 -0.0065625
v -0.0796653 -0.056784165 -0.0028125
v -0.079541955 -0.05647161 -0.0065625
v -0.079541955 -0.05647161 -0.0028125
v -0.079407045 -0.056161185 -0.0065625
v -0.079407045 -0.056161185 -0.0028125
v -0.07933524 -0.05600676 -0.0065625
v -0.07933524 -0.05600676 -0.0028125
v -0.0792606 -0.0558531 -0.0065625
v -0.0792606 -0.0558531 -0.0028125
v -0.07918311 -0.05570019 -0.0065625
v -0.07918311 -0.05570019 -0.0028125
v -0.079102785 -0.055548015 -0.0065625
v -0.079102785 -0.055548015 -0.0028125
v -0.07901961 -0.055396605 -0.0065625
v -0.07901961 -0.055396605 -0.0028125
v -0.0789336 -0.05524593 -0.0065625
v -0.0789336 -0.05524593 -0.0028125
v -0.078844755 -0.055096005 -0.0065625
v -0.078844755 -0.055096005 -0.0028125
v -0.078753045 -0.05494683 -0.0065625
v -0.078753045 -0.05494683 -0.0028125
v -0.0786585 -0.054798405 -0.0065625
v -0.0786585 -0.054798405 -0.0028125
v -0.07856112 -0.05465073 -0.0065625
v -0.07856112 -0.05465073 -0.0028125
v -0.078460905 -0.054503805 -0.0065625
v -0.078460905 -0.054503805 -0.0028125
v -0.078357825 -0.054357615 -0.0065625
v -0.078357825 -0.054357615 -0.0028125
v -0.07825191 -0.05421219 -0.0065625
v -0.07825191 -0.05421219 -0.0028125
v -0.07814316 -0.0540675 -0.0065625
v -0.07814316 -0.0540675 -0.0028125
v -0.07811937 -0.05403693 -0.0065625
v -0.078118935 -0.05403639 -0.0028125
v -0.07809489 -0.054005505 -0.0065625
v -0.078093885 -0.054004245 -0.0028125
v -0.07806969 -0.05397321 -0.0065625
v -0.078068025 -0.053971095 -0.0028125
v -0.078043785 -0.05394006 -0.0065625
v -0.078041325 -0.05393691 -0.0028125
v -0.078017115 -0.053906055 -0.0065625
v -0.078013755 -0.053901765 -0.0028125
v -0.077989755 -0.053871195 -0.0065625
v -0.077985375 -0.053865615 -0.0028125
v -0.077961825 -0.05383548 -0.0065625
v -0.07795623 -0.053828355 -0.0028125
v -0.077933415 -0.053798955 -0.0065625
v -0.07792641 -0.053789925 -0.0028125
v -0.07790445 -0.05376168 -0.0065625
v -0.07789584 -0.053750535 -0.0028125
v -0.077874975 -0.05372349 -0.0065625
v -0.077864565 -0.053709945 -0.0028125
v -0.07784502 -0.053684145 -0.0065625
v -0.077832615 -0.05366787 -0.0028125
v -0.077814585 -0.053643705 -0.0065625
v -0.07780002 -0.053624175 -0.0028125
v -0.077783655 -0.053602245 -0.0065625
v -0.07776669 -0.053579145 -0.0028125
v -0.07775229 -0.053559465 -0.0065625
v -0.07773276 -0.05353245 -0.0028125
v -0.077720595 -0.053515125 -0.0065625
v -0.077698335 -0.053483715 -0.0028125
v -0.07768845 -0.053469405 -0.0065625
v -0.077663385 -0.05343291 -0.0028125
v -0.077655915 -0.053422245 -0.0065625
v -0.077627835 -0.05338026 -0.0028125
v -0.07762314 -0.05337327 -0.0065625
v -0.077591925 -0.05332539 -0.0028125
v -0.07759023 -0.0533223 -0.0065625
v -0.077557035 -0.053269635 -0.0065625
v -0.07755594 -0.05326791 -0.0028125
v -0.07752369 -0.053214975 -0.0065625
v -0.077519775 -0.05320797 -0.0028125
v -0.07749033 -0.053157915 -0.0065625
v -0.0774834 -0.05314563 -0.0028125
v -0.077457 -0.053098365 -0.0065625
v -0.077447055 -0.0530805 -0.0028125
v -0.07742358 -0.053036535 -0.0065625
v -0.07741092 -0.053012205 -0.0028125
v -0.07739028 -0.052972155 -0.0065625
v -0.0773745 -0.052941015 -0.0028125
v -0.077357325 -0.05290497 -0.0065625
v -0.07733823 -0.052866855 -0.0028125
v -0.077324085 -0.05283507 -0.0065625
v -0.077302935 -0.052789395 -0.0028125
v -0.077290965 -0.052762485 -0.0065625
v -0.07726902 -0.052708425 -0.0028125
v -0.07725915 -0.052686945 -0.0065625
v -0.07723491 -0.052624155 -0.0028125
v -0.07722948 -0.052608285 -0.0065625
v -0.07720257 -0.05253648 -0.0028125
v -0.077200395 -0.052526715 -0.0065625
v -0.077174535 -0.05244516 -0.0028125
v -0.07717344 -0.05244207 -0.0065625
v -0.077151015 -0.052354065 -0.0065625
v -0.0771516 -0.052349775 -0.0028125
v -0.077133885 -0.05226219 -0.0065625
v -0.0771315 -0.052250115 -0.0028125
v -0.077120115 -0.052166325 -0.0065625
v -0.07711728 -0.05214732 -0.0028125
v -0.077112465 -0.052067685 -0.0065625
v -0.07711245 -0.05204265 -0.0028125
v -0.077114055 -0.051967515 -0.0065625
v -0.07711749 -0.051934365 -0.0028125
v -0.07712439 -0.05186394 -0.0065625
v -0.07713063 -0.05182197 -0.0028125
v -0.07714263 -0.05175741 -0.0065625
v -0.07715391 -0.05171106 -0.0028125
v -0.077171355 -0.051652815 -0.0065625
v -0.077189415 -0.051607185 -0.0028125
v -0.0772131 -0.05155455 -0.0065625
v -0.077238555 -0.051509025 -0.0028125
v -0.07726872 -0.051459675 -0.0065625
v -0.07729956 -0.051415455 -0.0028125
v -0.077335845 -0.05136924 -0.0065625
v -0.077369805 -0.05132928 -0.0028125
v -0.077411715 -0.05128671 -0.0065625
v -0.077447175 -0.051253095 -0.0028125
v -0.077495445 -0.051214725 -0.0065625
v -0.07753563 -0.05118645 -0.0028125
v -0.07759044 -0.05115171 -0.0065625
v -0.077631885 -0.05112834 -0.0028125
v -0.077691495 -0.05109705 -0.0065625
v -0.07773 -0.05107827 -0.0028125
v -0.07779252 -0.05105043 -0.0065625
v -0.07782543 -0.05103624 -0.0028125
v -0.07789227 -0.051012765 -0.0065625
v -0.07792167 -0.051003615 -0.0028125
v -0.077993685 -0.05098404 -0.0065625
v -0.078018075 -0.05097822 -0.0028125
v -0.07809399 -0.050961645 -0.0065625
v -0.07811295 -0.05095743 -0.0028125
v -0.07819038 -0.050942985 -0.0065625
v -0.07820526 -0.05094021 -0.0028125
v -0.07828266 -0.0509295 -0.0065625
v -0.078295845 -0.05092839 -0.0028125
v -0.078372195 -0.050920875 -0.0065625
v -0.078385035 -0.05092029 -0.0028125
v -0.078459855 -0.050914965 -0.0065625
v -0.07847307 -0.05091405 -0.0028125
v -0.07854624 -0.050910045 -0.0065625
v -0.07855971 -0.05090928 -0.0028125
v -0.07863033 -0.05090715 -0.0065625
v -0.07864494 -0.05090688 -0.0028125
v -0.078713205 -0.050906325 -0.0065625
v -0.07872939 -0.05090646 -0.0028125
v -0.07879632 -0.05090724 -0.0065625
v -0.078813735 -0.05090763 -0.0028125
v -0.078880485 -0.05090973 -0.0065625
v -0.07889781 -0.050910435 -0.0028125
v -0.078964905 -0.05091396 -0.0065625
v -0.078981495 -0.05091498 -0.0028125
v -0.07904949 -0.05091996 -0.0065625
v -0.079064955 -0.050921235 -0.0028125
v -0.079134135 -0.050927715 -0.0065625
v -0.07914834 -0.050929185 -0.0028125
v -0.079219125 -0.050937465 -0.0065625
v -0.07923171 -0.050939055 -0.0028125
v -0.07930428 -0.050949045 -0.0065625
v -0.07931487 -0.050950575 -0.0028125
v -0.079389075 -0.05096193 -0.0065625
v -0.079397655 -0.05096328 -0.0028125
v -0.079473165 -0.05097579 -0.0065625
v -0.079480005 -0.050976975 -0.0028125
v -0.07955715 -0.050991135 -0.0065625
v -0.07956237 -0.050992155 -0.0028125
v -0.079640445 -0.0510075 -0.0065625
v -0.079644045 -0.051008235 -0.0028125
v -0.079722075 -0.05102406 -0.0065625
v -0.07972425 -0.051024495 -0.0028125
v -0.079801425 -0.05104032 -0.0065625
v -0.07980258 -0.051040545 -0.0028125
v -0.07987899 -0.0510567 -0.0065625
v -0.079879455 -0.05105679 -0.0028125
v -0.07995483 -0.05107323 -0.0065625
v -0.07995492 -0.051073245 -0.0028125
v -0.08002893 -0.051089925 -0.0065625
v -0.08002893 -0.051089925 -0.0028125
v -0.084514545 -0.052074195 -0.0065625
v -0.084514545 -0.052074195 -0.0028125
v -0.084578025 -0.05208492 -0.0065625
v -0.08458128 -0.05208693 -0.0028125
v -0.084640425 -0.052098105 -0.0065625
v -0.08464689 -0.05210202 -0.0028125
v -0.08470173 -0.05211375 -0.0065625
v -0.0847113 -0.05211945 -0.0028125
v -0.08476194 -0.052131855 -0.0065625
v -0.08477457 -0.052139235 -0.0028125
v -0.08482104 -0.05215242 -0.0065625
v -0.084837075 -0.05216139 -0.0028125
v -0.084879045 -0.05217546 -0.0065625
v -0.08489868 -0.052185885 -0.0028125
v -0.084935955 -0.05220096 -0.0065625
v -0.084958575 -0.05221272 -0.0028125
v -0.08499177 -0.052228905 -0.0065625
v -0.085015995 -0.05224191 -0.0028125
v -0.08504649 -0.052259325 -0.0065625
v -0.085070625 -0.052273875 -0.0028125
v -0.0851001 -0.05229222 -0.0065625
v -0.08512293 -0.052308465 -0.0028125
v -0.08515263 -0.05232756 -0.0065625
v -0.08517321 -0.052344825 -0.0028125
v -0.08520405 -0.05236536 -0.0065625
v -0.085221795 -0.052382085 -0.0028125
v -0.085254375 -0.052405635 -0.0065625
v -0.085268745 -0.052420095 -0.0028125
v -0.08530359 -0.05244837 -0.0065625
v -0.085313895 -0.052459275 -0.0028125
v -0.085351725 -0.052493565 -0.0065625
v -0.080277615 -0.06099525 -0.0028125
v -0.08387823 -0.061035735 -0.0028125
v -0.08387523 -0.06111534 -0.0028125
v -0.083883915 -0.06095745 -0.0028125
v -0.080277015 -0.0611277 -0.0028125
v -0.08387823 -0.061194915 -0.0028125
v -0.08027928 -0.061259265 -0.0028125
v -0.083883915 -0.061273215 -0.0028125
v -0.083892315 -0.06135021 -0.0028125
v -0.08028444 -0.061389945 -0.0028125
v -0.083903385 -0.061425915 -0.0028125
v -0.08391717 -0.0615003 -0.0028125
v -0.080292465 -0.061519755 -0.0028125
v -0.08393364 -0.06157341 -0.0028125
v -0.08395281 -0.061645215 -0.0028125
v -0.080303385 -0.06164868 -0.0028125
v -0.083974665 -0.061715715 -0.0028125
v -0.080317155 -0.061776735 -0.0028125
v -0.08399922 -0.061784925 -0.0028125
v -0.084026475 -0.061852845 -0.0028125
v -0.080333835 -0.06190389 -0.0028125
v -0.084056415 -0.06191946 -0.0028125
v -0.08408934 -0.061985115 -0.0028125
v -0.08035338 -0.06203019 -0.0028125
v -0.08412558 -0.06205029 -0.0028125
v -0.08416494 -0.06211467 -0.0028125
v -0.080375805 -0.062155605 -0.0028125
v -0.08420718 -0.062178 -0.0028125
v -0.08425209 -0.06223998 -0.0028125
v -0.08040111 -0.062280135 -0.0028125
v -0.08429943 -0.062300355 -0.0028125
v -0.08434899 -0.062358825 -0.0028125
v -0.08042928 -0.062403795 -0.0028125
v -0.084400545 -0.06241512 -0.0028125
v -0.08445387 -0.062468955 -0.0028125
v -0.084508725 -0.062520045 -0.0028125
v -0.080460345 -0.062526555 -0.0028125
v -0.084564915 -0.06256812 -0.0028125
v -0.084622725 -0.06261333 -0.0028125
v -0.080494275 -0.06264846 -0.0028125
v -0.08468328 -0.062656575 -0.0028125
v -0.084746325 -0.06269781 -0.0028125
v -0.08481159 -0.06273687 -0.0028125
v -0.080531145 -0.06276957 -0.0028125
v -0.0848787 -0.06277359 -0.0028125
v -0.084947355 -0.062807805 -0.0028125
v -0.085017225 -0.062839365 -0.0028125
v -0.085087995 -0.062868135 -0.0028125
v -0.08057124 -0.06289047 -0.0028125
v -0.085159335 -0.062893935 -0.0028125
v -0.08523093 -0.06291663 -0.0028125
v -0.085302465 -0.06293604 -0.0028125
v -0.085374 -0.062952135 -0.0028125
v -0.085447095 -0.062965245 -0.0028125
v -0.085521615 -0.06297546 -0.0028125
v -0.08559723 -0.06298275 -0.0028125
v -0.08567355 -0.06298713 -0.0028125
v -0.08061453 -0.06301116 -0.0028125
v -0.08575023 -0.062988585 -0.0028125
v -0.090871275 -0.06304917 -0.0028125
v -0.080660925 -0.063131415 -0.0028125
v -0.08582691 -0.06298713 -0.0028125
v -0.08590323 -0.06298275 -0.0028125
v -0.085978845 -0.06297546 -0.0028125
v -0.08605338 -0.062965245 -0.0028125
v -0.086126475 -0.062952135 -0.0028125
v -0.08619801 -0.06293604 -0.0028125
v -0.090915285 -0.06292734 -0.0028125
v -0.08626953 -0.06291663 -0.0028125
v -0.086341125 -0.062893935 -0.0028125
v -0.086412465 -0.062868135 -0.0028125
v -0.086483235 -0.062839365 -0.0028125
v -0.086553105 -0.062807805 -0.0028125
v -0.090956595 -0.062804175 -0.0028125
v -0.086621775 -0.06277359 -0.0028125
v -0.086688885 -0.06273687 -0.0028125
v -0.086754135 -0.06269781 -0.0028125
v -0.09099513 -0.062679885 -0.0028125
v -0.086817195 -0.062656575 -0.0028125
v -0.08687775 -0.06261333 -0.0028125
v -0.086935545 -0.06256812 -0.0028125
v -0.091030845 -0.06255465 -0.0028125
v -0.086991735 -0.062520045 -0.0028125
v -0.087046605 -0.062468955 -0.0028125
v -0.091063695 -0.06242868 -0.0028125
v -0.087099915 -0.06241512 -0.0028125
v -0.08715147 -0.062358825 -0.0028125
v -0.091093605 -0.0623022 -0.0028125
v -0.08720103 -0.062300355 -0.0028125
v -0.08724837 -0.06223998 -0.0028125
v -0.08729328 -0.062178 -0.0028125
v -0.09112053 -0.062175375 -0.0028125
v -0.08733552 -0.06211467 -0.0028125
v -0.08737488 -0.06205029 -0.0028125
v -0.091144395 -0.062048445 -0.0028125
v -0.08741112 -0.061985115 -0.0028125
v -0.09116517 -0.061921605 -0.0028125
v -0.087444045 -0.06191946 -0.0028125
v -0.087474 -0.061852845 -0.0028125
v -0.09118278 -0.061795035 -0.0028125
v -0.08750124 -0.061784925 -0.0028125
v -0.087525795 -0.061715715 -0.0028125
v -0.091197165 -0.06166896 -0.0028125
v -0.087547665 -0.061645215 -0.0028125
v -0.087566835 -0.06157341 -0.0028125
v -0.091208415 -0.061542405 -0.0028125
v -0.08758329 -0.0615003 -0.0028125
v -0.087597075 -0.061425915 -0.0028125
v -0.09121662 -0.06141474 -0.0028125
v -0.08760816 -0.06135021 -0.0028125
v -0.09122178 -0.061286175 -0.0028125
v -0.087616545 -0.061273215 -0.0028125
v -0.08762223 -0.061194915 -0.0028125
v -0.091223925 -0.061156935 -0.0028125
v -0.08762523 -0.06111534 -0.0028125
v -0.08762223 -0.061035735 -0.0028125
v -0.09122307 -0.06102723 -0.0028125
v -0.087616545 -0.06095745 -0.0028125
v -0.09121923 -0.060897255 -0.0028125
v -0.08760816 -0.060880455 -0.0028125
v -0.087597075 -0.06080475 -0.0028125
v -0.091212405 -0.060767235 -0.0028125
v -0.08758329 -0.06073035 -0.0028125
v -0.087566835 -0.060657255 -0.0028125
v -0.09120261 -0.06063738 -0.0028125
v -0.087547665 -0.06058545 -0.0028125
v -0.087525795 -0.06051495 -0.0028125
v -0.09118989 -0.060507915 -0.0028125
v -0.08750124 -0.06044574 -0.0028125
v -0.091174215 -0.06037902 -0.0028125
v -0.087474 -0.06037782 -0.0028125
v -0.087444045 -0.06031122 -0.0028125
v -0.09115563 -0.06025092 -0.0028125
v -0.08741112 -0.060245535 -0.0028125
v -0.08737488 -0.060180375 -0.0028125
v -0.09113415 -0.060123825 -0.0028125
v -0.08733552 -0.060115995 -0.0028125
v -0.08729328 -0.060052665 -0.0028125
v -0.091109775 -0.05999796 -0.0028125
v -0.08724837 -0.059990685 -0.0028125
v -0.08720103 -0.05993031 -0.0028125
v -0.09108252 -0.05987352 -0.0028125
v -0.08715147 -0.05987184 -0.0028125
v -0.087099915 -0.059815545 -0.0028125
v -0.087046605 -0.05976171 -0.0028125
v -0.091052385 -0.059750565 -0.0028125
v -0.086991735 -0.05971062 -0.0028125
v -0.086935545 -0.059662545 -0.0028125
v -0.09101934 -0.05962842 -0.0028125
v -0.08687775 -0.059617335 -0.0028125
v -0.086817195 -0.05957409 -0.0028125
v -0.086754135 -0.059532855 -0.0028125
v -0.090983385 -0.059506995 -0.0028125
v -0.086688885 -0.059493795 -0.0028125
v -0.086621775 -0.05945709 -0.0028125
v -0.086553105 -0.05942286 -0.0028125
v -0.086483235 -0.0593913 -0.0028125
v -0.09094449 -0.059386275 -0.0028125
v -0.086412465 -0.05936253 -0.0028125
v -0.086341125 -0.05933673 -0.0028125
v -0.08626953 -0.059314035 -0.0028125
v -0.08619801 -0.059294625 -0.0028125
v -0.086126475 -0.05927853 -0.0028125
v -0.09090267 -0.059266275 -0.0028125
v -0.08605338 -0.05926542 -0.0028125
v -0.085978845 -0.059255205 -0.0028125
v -0.08590323 -0.059247915 -0.0028125
v -0.08582691 -0.05924355 -0.0028125
v -0.08575023 -0.05924208 -0.0028125
v -0.09085794 -0.059146995 -0.0028125
v -0.080216625 -0.05908203 -0.0028125
v -0.08567355 -0.05924355 -0.0028125
v -0.09081027 -0.05902842 -0.0028125
v -0.08017071 -0.05873952 -0.0028125
v -0.09075969 -0.05891055 -0.0028125
v -0.090706185 -0.058793415 -0.0028125
v -0.09064974 -0.05867697 -0.0028125
v -0.080113785 -0.05840151 -0.0028125
v -0.090590385 -0.05856126 -0.0028125
v -0.09052809 -0.058446255 -0.0028125
v -0.090462885 -0.058331955 -0.0028125
v -0.080046 -0.05806863 -0.0028125
v -0.090394755 -0.058218375 -0.0028125
v -0.0903237 -0.058105515 -0.0028125
v -0.090181815 -0.05789514 -0.0028125
v -0.079967415 -0.057741105 -0.0028125
v -0.090037245 -0.05768571 -0.0028125
v -0.07987788 -0.057418275 -0.0028125
v -0.089889975 -0.05747721 -0.0028125
v -0.08974002 -0.05726964 -0.0028125
v -0.079777215 -0.05709951 -0.0028125
v -0.08958738 -0.057063015 -0.0028125
v -0.0796653 -0.056784165 -0.0028125
v -0.08943204 -0.056857335 -0.0028125
v -0.08927403 -0.056652585 -0.0028125
v -0.079541955 -0.05647161 -0.0028125
v -0.089113305 -0.056448765 -0.0028125
v -0.079407045 -0.056161185 -0.0028125
v -0.08894991 -0.056245905 -0.0028125
v -0.088783665 -0.056044035 -0.0028125
v -0.07933524 -0.05600676 -0.0028125
v -0.0792606 -0.0558531 -0.0028125
v -0.088614195 -0.055843335 -0.0028125
v -0.07918311 -0.05570019 -0.0028125
v -0.088441695 -0.05564373 -0.0028125
v -0.079102785 -0.055548015 -0.0028125
v -0.08826639 -0.0554451 -0.0028125
v -0.07901961 -0.055396605 -0.0028125
v -0.088088535 -0.055247355 -0.0028125
v -0.0789336 -0.05524593 -0.0028125
v -0.078844755 -0.055096005 -0.0028125
v -0.087908355 -0.05505039 -0.0028125
v -0.078753045 -0.05494683 -0.0028125
v -0.087726105 -0.054854085 -0.0028125
v -0.0786585 -0.054798405 -0.0028125
v -0.087541995 -0.054658365 -0.0028125
v -0.07856112 -0.05465073 -0.0028125
v -0.078460905 -0.054503805 -0.0028125
v -0.087356295 -0.054463095 -0.0028125
v -0.078357825 -0.054357615 -0.0028125
v -0.08716917 -0.0542682 -0.0028125
v -0.07825191 -0.05421219 -0.0028125
v -0.08698026 -0.05407386 -0.0028125
v -0.07814316 -0.0540675 -0.0028125
v -0.078118935 -0.05403639 -0.0028125
v -0.078093885 -0.054004245 -0.0028125
v -0.078068025 -0.053971095 -0.0028125
v -0.078041325 -0.05393691 -0.0028125
v -0.078013755 -0.053901765 -0.0028125
v -0.0867894 -0.053880135 -0.0028125
v -0.077985375 -0.053865615 -0.0028125
v -0.07795623 -0.053828355 -0.0028125
v -0.07792641 -0.053789925 -0.0028125
v -0.07789584 -0.053750535 -0.0028125
v -0.077864565 -0.053709945 -0.0028125
v -0.086596575 -0.053687025 -0.0028125
v -0.077832615 -0.05366787 -0.0028125
v -0.07780002 -0.053624175 -0.0028125
v -0.07776669 -0.053579145 -0.0028125
v -0.07773276 -0.05353245 -0.0028125
v -0.086401815 -0.053494515 -0.0028125
v -0.077698335 -0.053483715 -0.0028125
v -0.077663385 -0.05343291 -0.0028125
v -0.077627835 -0.05338026 -0.0028125
v -0.077591925 -0.05332539 -0.0028125
v -0.086205105 -0.053302635 -0.0028125
v -0.07755594 -0.05326791 -0.0028125
v -0.077519775 -0.05320797 -0.0028125
v -0.0774834 -0.05314563 -0.0028125
v -0.086006445 -0.053111355 -0.0028125
v -0.077447055 -0.0530805 -0.0028125
v -0.07741092 -0.053012205 -0.0028125
v -0.0773745 -0.052941015 -0.0028125
v -0.08580582 -0.05292069 -0.0028125
v -0.07733823 -0.052866855 -0.0028125
v -0.077302935 -0.052789395 -0.0028125
v -0.08560326 -0.052730655 -0.0028125
v -0.07726902 -0.052708425 -0.0028125
v -0.07723491 -0.052624155 -0.0028125
v -0.08539875 -0.05254122 -0.0028125
v -0.07720257 -0.05253648 -0.0028125
v -0.085357215 -0.052499655 -0.0028125
v -0.077174535 -0.05244516 -0.0028125
v -0.085313895 -0.052459275 -0.0028125
v -0.085268745 -0.052420095 -0.0028125
v -0.0771516 -0.052349775 -0.0028125
v -0.085221795 -0.052382085 -0.0028125
v -0.08517321 -0.052344825 -0.0028125
v -0.0771315 -0.052250115 -0.0028125
v -0.08512293 -0.052308465 -0.0028125
v -0.085070625 -0.052273875 -0.0028125
v -0.085015995 -0.05224191 -0.0028125
v -0.07711728 -0.05214732 -0.0028125
v -0.084958575 -0.05221272 -0.0028125
v -0.08489868 -0.052185885 -0.0028125
v -0.084837075 -0.05216139 -0.0028125
v -0.08477457 -0.052139235 -0.0028125
v -0.07711245 -0.05204265 -0.0028125
v -0.0847113 -0.05211945 -0.0028125
v -0.08464689 -0.05210202 -0.0028125
v -0.08458128 -0.05208693 -0.0028125
v -0.084514545 -0.052074195 -0.0028125
v -0.07711749 -0.051934365 -0.0028125
v -0.07713063 -0.05182197 -0.0028125
v -0.07715391 -0.05171106 -0.0028125
v -0.077189415 -0.051607185 -0.0028125
v -0.077238555 -0.051509025 -0.0028125
v -0.07729956 -0.051415455 -0.0028125
v -0.077369805 -0.05132928 -0.0028125
v -0.077447175 -0.051253095 -0.0028125
v -0.07753563 -0.05118645 -0.0028125
v -0.077631885 -0.05112834 -0.0028125
v -0.08002893 -0.051089925 -0.0028125
v -0.07773 -0.05107827 -0.0028125
v -0.07995492 -0.051073245 -0.0028125
v -0.07782543 -0.05103624 -0.0028125
v -0.079879455 -0.05105679 -0.0028125
v -0.07980258 -0.051040545 -0.0028125
v -0.07972425 -0.051024495 -0.0028125
v -0.07792167 -0.051003615 -0.0028125
v -0.079644045 -0.051008235 -0.0028125
v -0.07956237 -0.050992155 -0.0028125
v -0.078018075 -0.05097822 -0.0028125
v -0.079480005 -0.050976975 -0.0028125
v -0.07811295 -0.05095743 -0.0028125
v -0.079397655 -0.05096328 -0.0028125
v -0.07931487 -0.050950575 -0.0028125
v -0.07820526 -0.05094021 -0.0028125
v -0.07923171 -0.050939055 -0.0028125
v -0.078295845 -0.05092839 -0.0028125
v -0.07914834 -0.050929185 -0.0028125
v -0.079064955 -0.050921235 -0.0028125
v -0.078385035 -0.05092029 -0.0028125
v -0.078981495 -0.05091498 -0.0028125
v -0.07847307 -0.05091405 -0.0028125
v -0.07889781 -0.050910435 -0.0028125
v -0.07855971 -0.05090928 -0.0028125
v -0.078813735 -0.05090763 -0.0028125
v -0.07864494 -0.05090688 -0.0028125
v -0.07872939 -0.05090646 -0.0028125
v -0.08559723 -0.059247915 -0.0028125
v -0.085521615 -0.059255205 -0.0028125
v -0.085447095 -0.05926542 -0.0028125
v -0.085374 -0.05927853 -0.0028125
v -0.085302465 -0.059294625 -0.0028125
v -0.08523093 -0.059314035 -0.0028125
v -0.085159335 -0.05933673 -0.0028125
v -0.085087995 -0.05936253 -0.0028125
v -0.085017225 -0.0593913 -0.0028125
v -0.084947355 -0.05942286 -0.0028125
v -0.080251545 -0.059429025 -0.0028125
v -0.0848787 -0.05945709 -0.0028125
v -0.08481159 -0.059493795 -0.0028125
v -0.084746325 -0.059532855 -0.0028125
v -0.08468328 -0.05957409 -0.0028125
v -0.084622725 -0.059617335 -0.0028125
v -0.084564915 -0.059662545 -0.0028125
v -0.084508725 -0.05971062 -0.0028125
v -0.08445387 -0.05976171 -0.0028125
v -0.08027544 -0.05978052 -0.0028125
v -0.084400545 -0.059815545 -0.0028125
v -0.08434899 -0.05987184 -0.0028125
v -0.08429943 -0.05993031 -0.0028125
v -0.08425209 -0.059990685 -0.0028125
v -0.08420718 -0.060052665 -0.0028125
v -0.08416494 -0.060115995 -0.0028125
v -0.08028834 -0.060136485 -0.0028125
v -0.08412558 -0.060180375 -0.0028125
v -0.08408934 -0.060245535 -0.0028125
v -0.084056415 -0.06031122 -0.0028125
v -0.084026475 -0.06037782 -0.0028125
v -0.08399922 -0.06044574 -0.0028125
v -0.08029023 -0.060496965 -0.0028125
v -0.083974665 -0.06051495 -0.0028125
v -0.08395281 -0.06058545 -0.0028125
v -0.08393364 -0.060657255 -0.0028125
v -0.08391717 -0.06073035 -0.0028125
v -0.083903385 -0.06080475 -0.0028125
v -0.080281095 -0.060861915 -0.0028125
v -0.083892315 -0.060880455 -0.0028125
v -0.09082464 -0.06316944 -0.0028125
v -0.08071035 -0.063251055 -0.0028125
v -0.090775395 -0.063287955 -0.0028125
v -0.08076267 -0.06336987 -0.0028125
v -0.09072363 -0.063404535 -0.0028125
v -0.080817825 -0.06348771 -0.0028125
v -0.09066933 -0.06351906 -0.0028125
v -0.080875695 -0.06360438 -0.0028125
v -0.09061194 -0.0636327 -0.0028125
v -0.080936205 -0.063719655 -0.0028125
v -0.090551415 -0.06374565 -0.0028125
v -0.080999235 -0.063833385 -0.0028125
v -0.090487875 -0.06385773 -0.0028125
v -0.081064725 -0.06394536 -0.0028125
v -0.090421425 -0.06396876 -0.0028125
v -0.08113254 -0.0640554 -0.0028125
v -0.0903522 -0.064078575 -0.0028125
v -0.081202605 -0.064163295 -0.0028125
v -0.090280335 -0.06418701 -0.0028125
v -0.08127483 -0.064268895 -0.0028125
v -0.090205935 -0.064293885 -0.0028125
v -0.08134911 -0.064371975 -0.0028125
v -0.09012912 -0.06439902 -0.0028125
v -0.081425835 -0.064473045 -0.0028125
v -0.090050025 -0.06450225 -0.0028125
v -0.08150559 -0.064572885 -0.0028125
v -0.089968785 -0.064603395 -0.0028125
v -0.081588195 -0.064671345 -0.0028125
v -0.08988549 -0.064702305 -0.0028125
v -0.08167353 -0.064768305 -0.0028125
v -0.089800275 -0.064798785 -0.0028125
v -0.081761415 -0.064863615 -0.0028125
v -0.089713275 -0.06489267 -0.0028125
v -0.0818517 -0.06495711 -0.0028125
v -0.089624595 -0.06498378 -0.0028125
v -0.08194425 -0.065048655 -0.0028125
v -0.08953389 -0.06507243 -0.0028125
v -0.0820389 -0.065138115 -0.0028125
v -0.089440395 -0.06515943 -0.0028125
v -0.082135485 -0.065225325 -0.0028125
v -0.08934426 -0.065244645 -0.0028125
v -0.082233885 -0.06531015 -0.0028125
v -0.089245635 -0.06532797 -0.0028125
v -0.082333905 -0.065392425 -0.0028125
v -0.089144715 -0.065409285 -0.0028125
v -0.08243541 -0.06547203 -0.0028125
v -0.08904168 -0.06548847 -0.0028125
v -0.082538265 -0.065548815 -0.0028125
v -0.08893668 -0.065565405 -0.0028125
v -0.082642275 -0.06562263 -0.0028125
v -0.08882991 -0.06563997 -0.0028125
v -0.08274744 -0.0656934 -0.0028125
v -0.08872152 -0.06571203 -0.0028125
v -0.082854795 -0.065761815 -0.0028125
v -0.088611705 -0.065781465 -0.0028125
v -0.082964505 -0.06582804 -0.0028125
v -0.088500645 -0.06584817 -0.0028125
v -0.08307636 -0.06589197 -0.0028125
v -0.088388475 -0.065912025 -0.0028125
v -0.083190165 -0.06595353 -0.0028125
v -0.088275405 -0.06597288 -0.0028125
v -0.083305755 -0.06601263 -0.0028125
v -0.0881616 -0.066030645 -0.0028125
v -0.083422905 -0.06606918 -0.0028125
v -0.088047165 -0.066085215 -0.0028125
v -0.083541435 -0.06612309 -0.0028125
v -0.08793099 -0.066137085 -0.0028125
v -0.08366115 -0.066174285 -0.0028125
v -0.087812805 -0.066186435 -0.0028125
v -0.083781855 -0.066222675 -0.0028125
v -0.08769282 -0.066233205 -0.0028125
v -0.08390337 -0.066268185 -0.0028125
v -0.08757123 -0.06627735 -0.0028125
v -0.084025485 -0.06631071 -0.0028125
v -0.08744826 -0.066318795 -0.0028125
v -0.084148005 -0.066350175 -0.0028125
v -0.087324075 -0.06635748 -0.0028125
v -0.08427075 -0.06638649 -0.0028125
v -0.087198915 -0.066393375 -0.0028125
v -0.08439351 -0.066419565 -0.0028125
v -0.087072945 -0.06642642 -0.0028125
v -0.08451675 -0.06644949 -0.0028125
v -0.08694642 -0.066456525 -0.0028125
v -0.084641565 -0.066476565 -0.0028125
v -0.086819505 -0.066483675 -0.0028125
v -0.08476773 -0.06650076 -0.0028125
v -0.086692425 -0.066507795 -0.0028125
v -0.084895065 -0.066522075 -0.0028125
v -0.086565375 -0.066528825 -0.0028125
v -0.08502336 -0.06654048 -0.0028125
v -0.086438565 -0.06654672 -0.0028125
v -0.08515239 -0.066555975 -0.0028125
v -0.08631219 -0.066561405 -0.0028125
v -0.085281945 -0.066568515 -0.0028125
v -0.08618592 -0.06657291 -0.0028125
v -0.085411815 -0.06657813 -0.0028125
v -0.08605857 -0.06658134 -0.0028125
v -0.085541805 -0.06658476 -0.0028125
v -0.085930275 -0.066586725 -0.0028125
v -0.085671675 -0.06658842 -0.0028125
v -0.085801245 -0.06658908 -0.0028125
f 1 2 3
f 1 4 2
f 1 3 5
f 6 1 5
f 6 5 7
f 6 7 8
f 9 6 8
f 9 8 10
f 9 10 11
f 9 11 12
f 9 12 13
f 9 13 14
f 15 9 14
f 15 14 16
f 15 16 17
f 15 17 18
f 15 18 19
f 15 19 20
f 21 15 20
f 21 20 22
f 21 22 23
f 21 23 24
f 21 24 25
f 21 25 26
f 21 26 27
f 28 21 27
f 28 27 29
f 28 29 30
f 28 30 31
f 28 31 32
f 28 32 33
f 28 33 34
f 28 34 35
f 28 35 36
f 37 28 36
f 37 36 38
f 37 38 39
f 37 39 40
f 37 40 41
f 37 41 42
f 37 42 43
f 37 43 44
f 37 44 45
f 37 45 46
f 37 46 47
f 37 47 48
f 49 37 48
f 49 48 50
f 49 50 51
f 51 50 52
f 49 51 53
f 49 53 54
f 49 54 55
f 56 49 55
f 56 55 57
f 56 57 58
f 56 58 59
f 60 56 59
f 60 59 61
f 60 61 62
f 60 62 63
f 64 60 63
f 64 63 65
f 66 64 65
f 66 65 67
f 66 67 68
f 69 66 68
f 69 68 70
f 71 69 70
f 71 70 72
f 71 72 73
f 74 71 73
f 74 73 75
f 76 74 75
f 76 75 77
f 76 77 78
f 79 76 78
f 79 78 80
f 81 79 80
f 81 80 82
f 83 81 82
f 84 83 82
f 84 82 85
f 86 84 85
f 86 85 87
f 88 86 87
f 88 87 89
f 90 88 89
f 90 89 91
f 92 90 91
f 93 92 91
f 93 91 94
f 95 93 94
f 95 94 96
f 97 95 96
f 97 96 98
f 99 97 98
f 100 99 98
f 100 98 101
f 102 100 101
f 102 101 103
f 104 102 103
f 104 103 105
f 106 104 105
f 107 106 105
f 108 107 105
f 109 108 105
f 110 109 105
f 111 110 105
f 111 105 112
f 113 111 112
f 114 113 112
f 115 114 112
f 116 115 112
f 117 116 112
f 117 112 118
f 119 117 118
f 120 119 118
f 121 120 118
f 122 121 118
f 123 122 118
f 123 118 124
f 125 123 124
f 126 125 124
f 127 126 124
f 128 127 124
f 128 124 129
f 130 128 129
f 131 130 129
f 132 131 129
f 132 129 133
f 134 132 133
f 135 134 133
f 136 135 133
f 136 133 137
f 138 136 137
f 139 138 137
f 140 139 137
f 140 137 141
f 142 140 141
f 143 142 141
f 144 143 141
f 144 145 143
f 145 146 143
f 145 147 146
f 147 148 146
f 148 149 146
f 148 150 149
f 150 151 149
f 151 152 149
f 151 153 152
f 153 154 152
f 154 155 152
f 155 156 152
f 156 157 152
f 156 158 157
f 158 159 157
f 159 160 157
f 160 161 157
f 161 162 157
f 162 163 157
f 163 164 157
f 163 165 164
f 165 166 164
f 165 167 166
f 165 168 167
f 165 169 168
f 165 170 169
f 165 171 170
f 165 172 171
f 165 173 172
f 165 174 173
f 165 175 174
f 165 176 175
f 165 177 176
f 177 178 176
f 178 179 176
f 178 180 179
f 180 181 179
f 181 182 179
f 181 183 182
f 183 184 182
f 184 185 182
f 184 186 185
f 186 187 185
f 187 188 185
f 187 189 188
f 189 190 188
f 189 191 190
f 191 192 190
f 191 193 192
f 193 194 192
f 193 195 194
f 195 196 194
f 195 197 196
f 197 198 196
f 197 199 198
f 199 200 198
f 200 201 198
f 200 202 201
f 51 52 203
f 51 203 204
f 51 204 205
f 206 51 205
f 206 205 207
f 206 207 208
f 206 208 209
f 206 209 210
f 206 210 211
f 212 206 211
f 212 211 213
f 212 213 214
f 212 214 215
f 212 215 216
f 217 212 216
f 217 216 218
f 217 218 219
f 217 219 220
f 221 217 220
f 221 220 222
f 221 222 223
f 224 221 223
f 224 223 225
f 224 225 226
f 224 226 227
f 228 224 227
f 228 227 229
f 228 229 230
f 231 228 230
f 231 230 232
f 231 232 233
f 234 231 233
f 234 233 235
f 234 235 236
f 237 234 236
f 237 236 238
f 237 238 239
f 240 237 239
f 240 239 241
f 242 240 241
f 242 241 243
f 242 243 244
f 245 242 244
f 245 244 246
f 245 246 247
f 248 245 247
f 248 247 249
f 248 249 250
f 251 248 250
f 251 250 252
f 253 251 252
f 253 252 254
f 253 254 255
f 256 253 255
f 256 255 257
f 256 257 258
f 259 256 258
f 259 258 260
f 261 259 260
f 261 260 262
f 261 262 263
f 264 261 263
f 264 263 265
f 264 265 266
f 267 264 266
f 267 266 268
f 267 268 269
f 270 267 269
f 270 269 271
f 270 271 272
f 273 270 272
f 273 272 274
f 275 273 274
f 275 274 276
f 275 276 277
f 278 275 277
f 278 277 279
f 278 279 280
f 278 280 281
f 282 278 281
f 282 281 283
f 282 283 284
f 285 282 284
f 285 284 286
f 285 286 287
f 288 285 287
f 288 287 289
f 288 289 290
f 288 290 291
f 292 288 291
f 292 291 293
f 292 293 294
f 292 294 295
f 296 292 295
f 296 295 297
f 296 297 298
f 296 298 299
f 296 299 300
f 296 300 301
f 302 296 301
f 302 301 303
f 302 303 304
f 302 304 305
f 302 305 306
f 302 306 307
f 302 307 308
f 302 308 309
f 310 302 309
f 311 310 309
f 311 312 310
f 311 309 313
f 311 313 314
f 311 314 315
f 311 315 316
f 311 316 317
f 311 317 318
f 311 318 319
f 311 319 320
f 321 311 320
f 321 320 322
f 321 322 323
f 321 323 324
f 321 324 325
f 326 321 325
f 326 325 327
f 326 327 328
f 326 328 329
f 330 326 329
f 330 329 331
f 330 331 332
f 333 330 332
f 333 332 334
f 333 334 335
f 333 335 336
f 337 333 336
f 337 336 338
f 337 338 339
f 340 337 339
f 340 339 341
f 340 341 342
f 343 340 342
f 343 342 344
f 343 344 345
f 346 343 345
f 346 345 347
f 346 347 348
f 349 346 348
f 349 348 350
f 349 350 351
f 352 349 351
f 352 351 353
f 354 352 353
f 354 353 355
f 354 355 356
f 357 354 356
f 357 356 358
f 357 358 359
f 360 357 359
f 360 359 361
f 360 361 362
f 4 360 362
f 4 362 2
f 312 363 310
f 312 364 363
f 364 365 363
f 364 366 365
f 366 367 365
f 366 368 367
f 368 369 367
f 368 370 369
f 370 371 369
f 370 372 371
f 372 373 371
f 372 374 373
f 374 375 373
f 374 376 375
f 376 377 375
f 376 378 377
f 378 379 377
f 378 380 379
f 380 381 379
f 380 382 381
f 382 383 381
f 382 384 383
f 384 385 383
f 384 386 385
f 386 387 385
f 386 388 387
f 388 389 387
f 388 390 389
f 390 391 389
f 390 392 391
f 392 393 391
f 392 394 393
f 394 395 393
f 394 396 395
f 396 397 395
f 396 398 397
f 398 399 397
f 398 400 399
f 400 401 399
f 400 402 401
f 402 403 401
f 402 404 403
f 404 405 403
f 404 406 405
f 406 407 405
f 406 408 407
f 408 409 407
f 408 410 409
f 410 411 409
f 410 412 411
f 412 413 411
f 412 414 413
f 414 415 413
f 414 416 415
f 416 417 415
f 416 418 417
f 418 419 417
f 418 420 419
f 420 421 419
f 420 422 421
f 422 423 421
f 422 424 423
f 424 425 423
f 424 426 425
f 426 427 425
f 426 428 427
f 428 429 427
f 428 430 429
f 430 431 429
f 430 432 431
f 432 433 431
f 432 434 433
f 434 435 433
f 434 436 435
f 436 437 435
f 436 438 437
f 438 439 437
f 438 440 439
f 440 441 439
f 440 442 441
f 442 443 441
f 442 444 443
f 444 445 443
f 444 446 445
f 446 447 445
f 446 448 447
f 448 449 447
f 448 450 449
f 450 451 449
f 450 452 451
f 452 453 451
f 452 454 453
f 454 455 453
f 454 456 455
f 456 457 455
f 456 458 457
f 458 459 457
f 458 460 459
f 460 461 459
f 460 462 461
f 462 463 461
f 464 465 466
f 467 465 464
f 468 464 466
f 468 466 469
f 468 469 470
f 470 469 471
f 470 471 472
f 472 471 473
f 472 473 474
f 474 473 475
f 474 475 476
f 476 475 477
f 476 477 478
f 478 477 479
f 478 479 480
f 480 479 481
f 480 481 482
f 482 481 483
f 482 483 484
f 484 483 485
f 484 485 486
f 486 485 487
f 486 487 488
f 488 487 489
f 488 489 490
f 490 489 491
f 490 491 492
f 492 491 493
f 492 493 494
f 494 493 495
f 494 495 496
f 496 495 497
f 496 497 498
f 498 497 499
f 498 499 500
f 500 499 501
f 500 501 502
f 502 501 503
f 502 503 504
f 504 503 505
f 504 505 506
f 506 505 507
f 506 507 508
f 508 507 509
f 508 509 510
f 510 509 511
f 510 511 512
f 512 511 513
f 512 513 514
f 514 513 515
f 514 515 516
f 516 515 517
f 516 517 518
f 518 517 519
f 518 519 520
f 520 519 521
f 520 521 522
f 522 521 523
f 522 523 524
f 524 523 525
f 524 525 526
f 526 525 527
f 526 527 528
f 528 527 529
f 528 529 530
f 530 529 531
f 530 531 532
f 532 531 533
f 532 533 534
f 534 533 535
f 534 535 536
f 536 535 537
f 536 537 538
f 538 537 539
f 538 539 540
f 540 539 541
f 540 541 542
f 542 541 543
f 542 543 544
f 544 543 545
f 544 545 546
f 546 545 547
f 546 547 548
f 548 547 549
f 548 549 550
f 550 549 551
f 550 551 552
f 552 551 553
f 552 553 554
f 554 553 555
f 554 555 556
f 556 555 557
f 556 557 558
f 558 557 559
f 558 559 560
f 560 559 561
f 560 561 562
f 562 561 563
f 562 563 564
f 564 563 565
f 564 565 566
f 566 565 567
f 566 567 568
f 568 567 569
f 568 569 570
f 570 569 571
f 570 571 572
f 572 571 573
f 572 573 574
f 574 573 575
f 574 575 576
f 576 575 577
f 576 577 578
f 578 577 579
f 578 579 580
f 580 579 581
f 580 581 582
f 582 581 583
f 582 583 584
f 584 583 585
f 584 585 586
f 586 585 587
f 586 587 588
f 588 587 589
f 588 589 590
f 590 589 591
f 590 591 592
f 592 591 593
f 592 593 594
f 594 593 595
f 594 595 596
f 596 595 597
f 596 597 598
f 598 597 599
f 598 599 600
f 600 599 601
f 600 601 602
f 602 601 603
f 602 603 604
f 604 603 605
f 604 605 606
f 606 605 607
f 606 607 608
f 608 607 609
f 608 609 610
f 610 609 611
f 610 611 612
f 612 611 613
f 612 613 614
f 614 613 615
f 614 615 616
f 616 615 617
f 616 617 618
f 618 617 619
f 618 619 620
f 620 619 621
f 620 621 622
f 622 621 623
f 622 623 624
f 624 623 625
f 624 625 626
f 626 625 627
f 626 627 628
f 628 627 629
f 628 629 630
f 630 629 631
f 630 631 632
f 632 631 633
f 632 633 634
f 634 633 635
f 634 635 636
f 636 635 637
f 636 637 638
f 638 637 639
f 638 639 640
f 640 639 641
f 640 641 642
f 642 641 643
f 642 643 644
f 644 643 645
f 644 645 646
f 646 645 647
f 646 647 648
f 648 647 649
f 648 649 650
f 650 649 651
f 650 651 652
f 652 651 653
f 652 653 654
f 654 653 655
f 654 655 656
f 656 655 657
f 656 657 658
f 658 657 659
f 658 659 660
f 660 659 661
f 660 661 662
f 662 661 663
f 662 663 664
f 664 663 665
f 664 665 666
f 666 665 667
f 666 667 668
f 668 667 669
f 668 669 670
f 670 669 671
f 670 671 672
f 672 671 673
f 672 673 674
f 674 673 675
f 674 675 676
f 676 675 677
f 676 677 678
f 678 677 679
f 678 679 680
f 680 679 681
f 680 681 682
f 682 681 683
f 682 683 684
f 684 683 685
f 684 685 686
f 686 685 687
f 686 687 688
f 688 687 689
f 688 689 690
f 690 689 691
f 690 691 692
f 692 691 693
f 692 693 694
f 694 693 695
f 694 695 696
f 696 695 697
f 696 697 698
f 698 697 699
f 698 699 700
f 700 699 701
f 700 701 702
f 702 701 703
f 702 703 704
f 704 703 705
f 704 705 706
f 706 705 707
f 706 707 708
f 708 707 709
f 708 709 710
f 710 709 711
f 710 711 712
f 712 711 713
f 712 713 714
f 714 713 715
f 714 715 716
f 716 715 717
f 716 717 718
f 718 717 719
f 718 719 720
f 720 719 721
f 720 721 722
f 722 721 723
f 722 723 724
f 724 723 725
f 724 725 726
f 726 725 727
f 726 727 728
f 728 727 729
f 728 729 730
f 730 729 731
f 730 731 732
f 732 731 733
f 732 733 734
f 734 733 735
f 734 735 736
f 736 735 737
f 736 737 738
f 738 737 739
f 738 739 740
f 740 739 741
f 740 741 742
f 742 741 743
f 742 743 744
f 744 743 745
f 744 745 746
f 746 745 747
f 746 747 748
f 748 747 749
f 748 749 750
f 750 749 751
f 750 751 752
f 752 751 753
f 752 753 754
f 754 753 755
f 754 755 756
f 756 755 757
f 756 757 758
f 758 757 759
f 758 759 760
f 760 759 761
f 760 761 762
f 762 761 763
f 762 763 764
f 764 763 765
f 764 765 766
f 766 765 767
f 766 767 768
f 768 767 769
f 768 769 770
f 770 769 771
f 770 771 772
f 772 771 773
f 772 773 774
f 774 773 775
f 774 775 467
f 467 775 465
f 776 777 778
f 779 777 776
f 776 778 780
f 780 778 781
f 780 781 782
f 782 781 783
f 782 783 784
f 784 783 785
f 784 785 786
f 786 785 787
f 786 787 788
f 788 787 789
f 788 789 790
f 790 789 791
f 790 791 792
f 792 791 793
f 792 793 794
f 794 793 795
f 794 795 796
f 796 795 797
f 796 797 798
f 798 797 799
f 798 799 800
f 800 799 801
f 800 801 802
f 802 801 803
f 802 803 804
f 804 803 805
f 804 805 806
f 806 805 807
f 806 807 808
f 808 807 809
f 808 809 810
f 810 809 811
f 810 811 812
f 812 811 813
f 812 813 814
f 814 813 815
f 814 815 816
f 816 815 817
f 816 817 818
f 818 817 819
f 818 819 820
f 820 819 821
f 820 821 822
f 822 821 823
f 822 823 824
f 824 823 825
f 824 825 826
f 826 825 827
f 826 827 828
f 828 827 829
f 828 829 830
f 830 829 831
f 830 831 832
f 832 831 833
f 832 833 834
f 834 833 835
f 834 835 836
f 836 835 837
f 836 837 838
f 838 837 839
f 838 839 840
f 840 839 841
f 840 841 842
f 842 841 843
f 842 843 844
f 844 843 845
f 844 845 846
f 846 845 847
f 846 847 848
f 848 847 849
f 848 849 850
f 850 849 851
f 850 851 852
f 852 851 853
f 852 853 854
f 854 853 855
f 854 855 856
f 856 855 857
f 856 857 858
f 858 857 859
f 858 859 860
f 860 859 861
f 860 861 862
f 862 861 863
f 862 863 864
f 864 863 865
f 864 865 866
f 866 865 867
f 866 867 868
f 868 867 869
f 868 869 870
f 870 869 871
f 870 871 872
f 872 871 873
f 872 873 874
f 874 873 875
f 874 875 876
f 876 875 877
f 876 877 878
f 878 877 879
f 878 879 880
f 880 879 881
f 880 881 882
f 882 881 883
f 882 883 884
f 884 883 885
f 884 885 886
f 886 885 887
f 886 887 888
f 888 887 889
f 888 889 890
f 890 889 891
f 890 891 892
f 892 891 893
f 892 893 894
f 894 893 895
f 894 895 896
f 896 895 897
f 896 897 898
f 898 897 899
f 898 899 900
f 900 899 901
f 900 901 902
f 902 901 903
f 902 903 904
f 904 903 905
f 904 905 906
f 906 905 907
f 906 907 908
f 908 907 909
f 908 909 910
f 910 909 911
f 910 911 912
f 912 911 913
f 912 913 914
f 914 913 915
f 914 915 916
f 916 915 917
f 916 917 918
f 918 917 919
f 918 919 920
f 920 919 921
f 920 921 922
f 922 921 923
f 922 923 924
f 924 923 925
f 924 925 926
f 926 925 927
f 926 927 928
f 928 927 929
f 928 929 930
f 930 929 931
f 930 931 932
f 932 931 933
f 932 933 934
f 934 933 935
f 934 935 936
f 936 935 937
f 936 937 938
f 938 937 939
f 938 939 940
f 940 939 941
f 940 941 942
f 942 941 943
f 942 943 944
f 944 943 945
f 944 945 946
f 946 945 947
f 946 947 948
f 948 947 949
f 948 949 950
f 950 949 951
f 950 951 952
f 952 951 953
f 952 953 954
f 954 953 955
f 954 955 956
f 956 955 957
f 956 957 958
f 958 957 959
f 958 959 960
f 960 959 961
f 960 961 962
f 962 961 963
f 962 963 964
f 964 963 965
f 964 965 966
f 966 965 967
f 966 967 968
f 968 967 969
f 968 969 970
f 970 969 971
f 970 971 972
f 972 971 973
f 972 973 974
f 974 973 975
f 974 975 976
f 976 975 977
f 976 977 978
f 978 977 979
f 978 979 980
f 980 979 981
f 980 981 982
f 982 981 983
f 982 983 984
f 984 983 985
f 984 985 986
f 986 985 987
f 986 987 988
f 988 987 989
f 988 989 990
f 990 989 991
f 990 991 992
f 992 991 993
f 992 993 994
f 994 993 995
f 994 995 996
f 996 995 997
f 996 997 998
f 998 997 999
f 998 999 1000
f 1000 999 1001
f 1000 1001 1002
f 1002 1001 1003
f 1002 1003 1004
f 1004 1003 1005
f 1004 1005 1006
f 1006 1005 1007
f 1006 1007 1008
f 1008 1007 1009
f 1008 1009 1010
f 1010 1009 1011
f 1010 1011 1012
f 1012 1011 1013
f 1012 1013 1014
f 1014 1013 1015
f 1014 1015 1016
f 1016 1015 1017
f 1016 1017 1018
f 1018 1017 1019
f 1018 1019 1020
f 1020 1019 1021
f 1020 1021 1022
f 1022 1021 1023
f 1022 1023 1024
f 1024 1023 1025
f 1024 1025 1026
f 1026 1025 1027
f 1026 1027 1028
f 1028 1027 1029
f 1028 1029 1030
f 1030 1029 1031
f 1030 1031 1032
f 1032 1031 1033
f 1032 1033 1034
f 1034 1033 1035
f 1034 1035 1036
f 1036 1035 1037
f 1036 1037 1038
f 1038 1037 1039
f 1038 1039 1040
f 1040 1039 1041
f 1040 1041 1042
f 1042 1041 1043
f 1042 1043 1044
f 1044 1043 1045
f 1044 1045 1046
f 1046 1045 1047
f 1046 1047 1048
f 1048 1047 1049
f 1048 1049 1050
f 1050 1049 1051
f 1050 1051 1052
f 1052 1051 1053
f 1052 1053 1054
f 1054 1053 1055
f 1054 1055 1056
f 1056 1055 1057
f 1056 1057 1058
f 1058 1057 1059
f 1058 1059 1060
f 1060 1059 1061
f 1060 1061 1062
f 1062 1061 1063
f 1062 1063 1064
f 1064 1063 1065
f 1064 1065 1066
f 1066 1065 1067
f 1066 1067 1068
f 1068 1067 1069
f 1068 1069 1070
f 1070 1069 1071
f 1070 1071 1072
f 1072 1071 1073
f 1072 1073 1074
f 1074 1073 1075
f 1074 1075 1076
f 1076 1075 1077
f 1076 1077 1078
f 1078 1077 1079
f 1078 1079 1080
f 1080 1079 1081
f 1080 1081 1082
f 1082 1081 1083
f 1082 1083 1084
f 1084 1083 1085
f 1084 1085 1086
f 1086 1085 1087
f 1086 1087 1088
f 1088 1087 1089
f 1088 1089 1090
f 1090 1089 1091
f 1090 1091 1092
f 1092 1091 1093
f 1092 1093 1094
f 1094 1093 1095
f 1094 1095 1096
f 1096 1095 1097
f 1096 1097 1098
f 1098 1097 1099
f 1098 1099 1100
f 1100 1099 1101
f 1100 1101 1102
f 1102 1101 1103
f 1102 1103 1104
f 1104 1103 1105
f 1104 1105 1106
f 1106 1105 1107
f 1106 1107 1108
f 1108 1107 1109
f 1108 1109 1110
f 1110 1109 1111
f 1110 1111 1112
f 1112 1111 1113
f 1112 1113 1114
f 1114 1113 1115
f 1114 1115 1116
f 1116 1115 1117
f 1116 1117 1118
f 1118 1117 1119
f 1118 1119 1120
f 1120 1119 1121
f 1120 1121 1122
f 1122 1121 1123
f 1122 1123 1124
f 1124 1123 1125
f 1124 1125 1126
f 1126 1125 1127
f 1126 1127 1128
f 1128 1127 1129
f 1128 1129 1130
f 1130 1129 1131
f 1130 1131 1132
f 1132 1131 1133
f 1132 1133 1134
f 1134 1133 1135
f 1134 1135 1136
f 1136 1135 1137
f 1136 1137 1138
f 1138 1137 1139
f 1138 1139 1140
f 1140 1139 1141
f 1140 1141 1142
f 1142 1141 1143
f 1142 1143 1144
f 1144 1143 1145
f 1144 1145 1146
f 1146 1145 1147
f 1146 1147 1148
f 1148 1147 1149
f 1148 1149 1150
f 1150 1149 1151
f 1150 1151 1152
f 1152 1151 1153
f 1152 1153 1154
f 1154 1153 1155
f 1154 1155 1156
f 1156 1155 1157
f 1156 1157 1158
f 1158 1157 1159
f 1158 1159 1160
f 1160 1159 1161
f 1160 1161 1162
f 1162 1161 1163
f 1162 1163 1164
f 1164 1163 1165
f 1164 1165 1166
f 1166 1165 1167
f 1166 1167 1168
f 1168 1167 1169
f 1168 1169 1170
f 1170 1169 1171
f 1170 1171 1172
f 1172 1171 1173
f 1172 1173 1174
f 1174 1173 1175
f 1174 1175 1176
f 1176 1175 1177
f 1176 1177 1178
f 1178 1177 1179
f 1178 1179 1180
f 1180 1179 1181
f 1180 1181 1182
f 1182 1181 1183
f 1182 1183 1184
f 1184 1183 1185
f 1184 1185 1186
f 1186 1185 1187
f 1186 1187 1188
f 1188 1187 1189
f 1188 1189 1190
f 1190 1189 1191
f 1190 1191 1192
f 1192 1191 1193
f 1192 1193 1194
f 1194 1193 1195
f 1194 1195 1196
f 1196 1195 1197
f 1196 1197 1198
f 1198 1197 1199
f 1198 1199 1200
f 1200 1199 1201
f 1200 1201 1202
f 1202 1201 1203
f 1202 1203 1204
f 1204 1203 1205
f 1204 1205 1206
f 1206 1205 1207
f 1206 1207 1208
f 1208 1207 1209
f 1208 1209 1210
f 1210 1209 1211
f 1210 1211 1212
f 1212 1211 1213
f 1212 1213 1214
f 1214 1213 1215
f 1214 1215 1216
f 1216 1215 1217
f 1216 1217 1218
f 1218 1217 1219
f 1218 1219 1220
f 1220 1219 1221
f 1220 1221 1222
f 1222 1221 1223
f 1222 1223 1224
f 1224 1223 1225
f 1224 1225 1226
f 1226 1225 1227
f 1226 1227 1228
f 1228 1227 1229
f 1228 1229 1230
f 1230 1229 1231
f 1230 1231 1232
f 1232 1231 1233
f 1232 1233 1234
f 1234 1233 1235
f 1234 1235 1236
f 1236 1235 1237
f 1236 1237 1238
f 1238 1237 1239
f 1238 1239 1240
f 1240 1239 1241
f 1240 1241 1242
f 1242 1241 1243
f 1242 1243 1244
f 1244 1243 1245
f 1244 1245 1246
f 1246 1245 1247
f 1246 1247 1248
f 1246 1248 1249
f 1249 1248 1250
f 1249 1250 1251
f 1251 1250 1252
f 1251 1252 1253
f 1253 1252 1254
f 1253 1254 1255
f 1255 1254 1256
f 1255 1256 1257
f 1257 1256 1258
f 1257 1258 1259
f 1259 1258 1260
f 1259 1260 1261
f 1261 1260 1262
f 1261 1262 1263
f 1263 1262 1264
f 1263 1264 1265
f 1265 1264 1266
f 1265 1266 1267
f 1267 1266 1268
f 1267 1268 1269
f 1269 1268 1270
f 1269 1270 1271
f 1271 1270 1272
f 1271 1272 1273
f 1271 1273 1274
f 1274 1273 1275
f 1274 1275 1276
f 1276 1275 1277
f 1276 1277 1278
f 1278 1277 1279
f 1278 1279 1280
f 1280 1279 1281
f 1280 1281 1282
f 1282 1281 1283
f 1282 1283 1284
f 1284 1283 1285
f 1284 1285 1286
f 1286 1285 1287
f 1286 1287 1288
f 1288 1287 1289
f 1288 1289 1290
f 1290 1289 1291
f 1290 1291 1292
f 1292 1291 1293
f 1292 1293 1294
f 1294 1293 1295
f 1294 1295 1296
f 1296 1295 1297
f 1296 1297 1298
f 1298 1297 1299
f 1298 1299 1300
f 1300 1299 1301
f 1300 1301 1302
f 1302 1301 1303
f 1302 1303 1304
f 1304 1303 1305
f 1304 1305 1306
f 1306 1305 1307
f 1306 1307 1308
f 1308 1307 1309
f 1308 1309 1310
f 1310 1309 1311
f 1310 1311 1312
f 1312 1311 1313
f 1312 1313 1314
f 1314 1313 1315
f 1314 1315 1316
f 1316 1315 1317
f 1316 1317 1318
f 1318 1317 1319
f 1318 1319 1320
f 1320 1319 1321
f 1320 1321 1322
f 1322 1321 1323
f 1322 1323 1324
f 1324 1323 1325
f 1324 1325 1326
f 1326 1325 1327
f 1326 1327 1328
f 1328 1327 1329
f 1328 1329 1330
f 1330 1329 1331
f 1330 1331 1332
f 1332 1331 1333
f 1332 1333 1334
f 1334 1333 1335
f 1334 1335 1336
f 1336 1335 1337
f 1336 1337 1338
f 1338 1337 1339
f 1338 1339 1340
f 1340 1339 1341
f 1340 1341 1342
f 1342 1341 1343
f 1342 1343 1344
f 1344 1343 1345
f 1344 1345 1346
f 1346 1345 1347
f 1346 1347 1348
f 1348 1347 1349
f 1348 1349 1350
f 1350 1349 1351
f 1350 1351 1352
f 1352 1351 1353
f 1352 1353 1354
f 1354 1353 1355
f 1354 1355 1356
f 1356 1355 1357
f 1356 1357 1358
f 1358 1357 1359
f 1360 1358 1359
f 1360 1359 1361
f 1360 1361 1362
f 1362 1361 1363
f 1362 1363 1364
f 1364 1363 1365
f 1364 1365 1366
f 1366 1365 1367
f 1366 1367 1368
f 1368 1367 1369
f 1368 1369 1370
f 1370 1369 1371
f 1370 1371 1372
f 1372 1371 1373
f 1372 1373 1374
f 1374 1373 1375
f 1374 1375 1376
f 1376 1375 1377
f 1376 1377 1378
f 1378 1377 1379
f 1378 1379 1380
f 1380 1379 1381
f 1380 1381 1382
f 1382 1381 1383
f 1382 1383 1384
f 1384 1383 1385
f 1384 1385 1386
f 1386 1385 1387
f 1386 1387 779
f 779 1387 777
f 1388 1389 1390
f 1388 1391 1389
f 1392 1388 1390
f 1392 1390 1393
f 1394 1392 1393
f 1394 1393 1395
f 1394 1395 1396
f 1397 1394 1396
f 1397 1396 1398
f 1397 1398 1399
f 1400 1397 1399
f 1400 1399 1401
f 1400 1401 1402
f 1403 1400 1402
f 1403 1402 1404
f 1405 1403 1404
f 1405 1404 1406
f 1405 1406 1407
f 1408 1405 1407
f 1408 1407 1409
f 1408 1409 1410
f 1411 1408 1410
f 1411 1410 1412
f 1411 1412 1413
f 1414 1411 1413
f 1414 1413 1415
f 1414 1415 1416
f 1417 1414 1416
f 1417 1416 1418
f 1417 1418 1419
f 1420 1417 1419
f 1420 1419 1421
f 1420 1421 1422
f 1420 1422 1423
f 1424 1420 1423
f 1424 1423 1425
f 1424 1425 1426
f 1427 1424 1426
f 1427 1426 1428
f 1427 1428 1429
f 1427 1429 1430
f 1431 1427 1430
f 1431 1430 1432
f 1431 1432 1433
f 1431 1433 1434
f 1431 1434 1435
f 1436 1431 1435
f 1436 1435 1437
f 1436 1437 1438
f 1436 1438 1439
f 1436 1439 1440
f 1436 1440 1441
f 1436 1441 1442
f 1436 1442 1443
f 1436 1443 1444
f 1445 1436 1444
f 1444 1446 1445
f 1447 1445 1446
f 1447 1448 1445
f 1447 1446 1449
f 1447 1449 1450
f 1447 1450 1451
f 1447 1451 1452
f 1447 1452 1453
f 1447 1453 1454
f 1455 1447 1454
f 1455 1454 1456
f 1455 1456 1457
f 1455 1457 1458
f 1455 1458 1459
f 1455 1459 1460
f 1461 1455 1460
f 1461 1460 1462
f 1461 1462 1463
f 1461 1463 1464
f 1465 1461 1464
f 1465 1464 1466
f 1465 1466 1467
f 1465 1467 1468
f 1469 1465 1468
f 1469 1468 1470
f 1469 1470 1471
f 1472 1469 1471
f 1472 1471 1473
f 1472 1473 1474
f 1475 1472 1474
f 1475 1474 1476
f 1475 1476 1477
f 1475 1477 1478
f 1479 1475 1478
f 1479 1478 1480
f 1479 1480 1481
f 1482 1479 1481
f 1482 1481 1483
f 1484 1482 1483
f 1484 1483 1485
f 1484 1485 1486
f 1487 1484 1486
f 1487 1486 1488
f 1487 1488 1489
f 1490 1487 1489
f 1490 1489 1491
f 1490 1491 1492
f 1493 1490 1492
f 1493 1492 1494
f 1493 1494 1495
f 1496 1493 1495
f 1496 1495 1497
f 1498 1496 1497
f 1498 1497 1499
f 1498 1499 1500
f 1501 1498 1500
f 1501 1500 1502
f 1501 1502 1503
f 1504 1501 1503
f 1504 1503 1505
f 1506 1504 1505
f 1506 1505 1507
f 1506 1507 1508
f 1509 1506 1508
f 1509 1508 1510
f 1509 1510 1511
f 1512 1509 1511
f 1512 1511 1513
f 1512 1513 1514
f 1515 1512 1514
f 1515 1514 1516
f 1517 1515 1516
f 1517 1516 1518
f 1517 1518 1519
f 1520 1517 1519
f 1520 1519 1521
f 1520 1521 1522
f 1523 1520 1522
f 1523 1522 1524
f 1523 1524 1525
f 1526 1523 1525
f 1526 1525 1527
f 1526 1527 1528
f 1529 1526 1528
f 1529 1528 1530
f 1529 1530 1531
f 1529 1531 1532
f 1533 1529 1532
f 1533 1532 1534
f 1533 1534 1535
f 1536 1533 1535
f 1536 1535 1537
f 1536 1537 1538
f 1536 1538 1539
f 1540 1536 1539
f 1540 1539 1541
f 1540 1541 1542
f 1540 1542 1543
f 1540 1543 1544
f 1545 1540 1544
f 1545 1544 1546
f 1545 1546 1547
f 1545 1547 1548
f 1545 1548 1549
f 1545 1549 1550
f 1551 1545 1550
f 1551 1550 1552
f 1551 1552 1553
f 1551 1553 1554
f 1551 1554 1555
f 1551 1555 1556
f 1557 1551 1556
f 1557 1556 1558
f 1558 1556 1559
f 1560 1557 1558
f 1560 1558 1561
f 1562 1560 1561
f 1563 1562 1561
f 1564 1563 1561
f 1564 1561 1565
f 1566 1564 1565
f 1567 1566 1565
f 1568 1567 1565
f 1568 1565 1569
f 1570 1568 1569
f 1571 1570 1569
f 1572 1571 1569
f 1572 1569 1573
f 1574 1572 1573
f 1574 1573 1575
f 1576 1574 1575
f 1577 1576 1575
f 1577 1575 1578
f 1579 1577 1578
f 1579 1578 1580
f 1581 1579 1580
f 1582 1581 1580
f 1582 1580 1583
f 1584 1582 1583
f 1584 1583 1585
f 1586 1584 1585
f 1587 1586 1585
f 1587 1585 1588
f 1587 1588 1589
f 1590 1587 1589
f 1590 1589 1591
f 1592 1590 1591
f 1592 1591 1593
f 1594 1592 1593
f 1594 1593 1595
f 1596 1594 1595
f 1596 1595 1597
f 1596 1597 1598
f 1599 1596 1598
f 1599 1598 1600
f 1601 1599 1600
f 1601 1600 1602
f 1603 1601 1602
f 1603 1602 1604
f 1603 1604 1605
f 1606 1603 1605
f 1606 1605 1607
f 1608 1606 1607
f 1608 1607 1609
f 1610 1608 1609
f 1610 1609 1611
f 1610 1611 1612
f 1610 1612 1613
f 1610 1613 1614
f 1610 1614 1615
f 1610 1615 1616
f 1617 1610 1616
f 1617 1616 1618
f 1617 1618 1619
f 1617 1619 1620
f 1617 1620 1621
f 1617 1621 1622
f 1623 1617 1622
f 1623 1622 1624
f 1623 1624 1625
f 1623 1625 1626
f 1623 1626 1627
f 1628 1623 1627
f 1628 1627 1629
f 1628 1629 1630
f 1628 1630 1631
f 1628 1631 1632
f 1633 1628 1632
f 1633 1632 1634
f 1633 1634 1635
f 1633 1635 1636
f 1637 1633 1636
f 1637 1636 1638
f 1637 1638 1639
f 1637 1639 1640
f 1641 1637 1640
f 1641 1640 1642
f 1641 1642 1643
f 1644 1641 1643
f 1644 1643 1645
f 1644 1645 1646
f 1647 1644 1646
f 1647 1646 1648
f 1649 1647 1648
f 1649 1648 1650
f 1651 1649 1650
f 1652 1651 1650
f 1652 1650 1653
f 1654 1652 1653
f 1655 1654 1653
f 1655 1653 1656
f 1657 1655 1656
f 1658 1657 1656
f 1659 1658 1656
f 1659 1656 1660
f 1661 1659 1660
f 1662 1661 1660
f 1663 1662 1660
f 1664 1663 1660
f 1664 1660 1665
f 1666 1664 1665
f 1667 1666 1665
f 1668 1667 1665
f 1668 1665 1669
f 1665 1670 1669
f 1670 1671 1669
f 1671 1672 1669
f 1672 1673 1669
f 1673 1674 1669
f 1674 1675 1669
f 1675 1676 1669
f 1676 1677 1669
f 1677 1678 1669
f 1678 1679 1669
f 1679 1680 1669
f 1679 1681 1680
f 1681 1682 1680
f 1681 1683 1682
f 1683 1684 1682
f 1683 1685 1684
f 1683 1686 1685
f 1683 1687 1686
f 1687 1688 1686
f 1687 1689 1688
f 1687 1690 1689
f 1690 1691 1689
f 1690 1692 1691
f 1692 1693 1691
f 1692 1694 1693
f 1692 1695 1694
f 1695 1696 1694
f 1695 1697 1696
f 1697 1698 1696
f 1697 1699 1698
f 1697 1700 1699
f 1700 1701 1699
f 1700 1702 1701
f 1702 1703 1701
f 1702 1704 1703
f 1704 1705 1703
f 1704 1706 1705
f 1706 1707 1705
f 1558 1559 1708
f 1558 1708 1709
f 1558 1709 1710
f 1558 1710 1711
f 1558 1711 1712
f 1558 1712 1713
f 1558 1713 1714
f 1558 1714 1715
f 1558 1715 1716
f 1558 1716 1717
f 1718 1558 1717
f 1718 1717 1719
f 1718 1719 1720
f 1718 1720 1721
f 1718 1721 1722
f 1718 1722 1723
f 1718 1723 1724
f 1718 1724 1725
f 1718 1725 1726
f 1727 1718 1726
f 1727 1726 1728
f 1727 1728 1729
f 1727 1729 1730
f 1727 1730 1731
f 1727 1731 1732
f 1727 1732 1733
f 1734 1727 1733
f 1734 1733 1735
f 1734 1735 1736
f 1734 1736 1737
f 1734 1737 1738
f 1734 1738 1739
f 1740 1734 1739
f 1740 1739 1741
f 1740 1741 1742
f 1740 1742 1743
f 1740 1743 1744
f 1740 1744 1745
f 1746 1740 1745
f 1746 1745 1747
f 1746 1747 1391
f 1388 1746 1391
f 1447 1748 1448
f 1748 1749 1448
f 1748 1750 1749
f 1750 1751 1749
f 1750 1752 1751
f 1752 1753 1751
f 1752 1754 1753
f 1754 1755 1753
f 1754 1756 1755
f 1756 1757 1755
f 1756 1758 1757
f 1758 1759 1757
f 1758 1760 1759
f 1760 1761 1759
f 1760 1762 1761
f 1762 1763 1761
f 1762 1764 1763
f 1764 1765 1763
f 1764 1766 1765
f 1766 1767 1765
f 1766 1768 1767
f 1768 1769 1767
f 1768 1770 1769
f 1770 1771 1769
f 1770 1772 1771
f 1772 1773 1771
f 1772 1774 1773
f 1774 1775 1773
f 1774 1776 1775
f 1776 1777 1775
f 1776 1778 1777
f 1778 1779 1777
f 1778 1780 1779
f 1780 1781 1779
f 1780 1782 1781
f 1782 1783 1781
f 1782 1784 1783
f 1784 1785 1783
f 1784 1786 1785
f 1786 1787 1785
f 1786 1788 1787
f 1788 1789 1787
f 1788 1790 1789
f 1790 1791 1789
f 1790 1792 1791
f 1792 1793 1791
f 1792 1794 1793
f 1794 1795 1793
f 1794 1796 1795
f 1796 1797 1795
f 1796 1798 1797
f 1798 1799 1797
f 1798 1800 1799
f 1800 1801 1799
f 1800 1802 1801
f 1802 1803 1801
f 1802 1804 1803
f 1804 1805 1803
f 1804 1806 1805
f 1806 1807 1805
f 1806 1808 1807
f 1808 1809 1807
f 1808 1810 1809
f 1810 1811 1809
f 1810 1812 1811
f 1812 1813 1811
f 1812 1814 1813
f 1814 1815 1813
f 1814 1816 1815
f 1816 1817 1815
f 1816 1818 1817
f 1818 1819 1817
f 1818 1820 1819
f 1820 1821 1819
f 1820 1822 1821
f 1822 1823 1821
f 1822 1824 1823
f 1824 1825 1823
f 1824 1826 1825
f 1826 1827 1825
f 1826 1828 1827
f 1828 1829 1827
f 1828 1830 1829
f 1830 1831 1829
f 1830 1832 1831
f 1832 1833 1831
f 1832 1834 1833
f 1834 1835 1833
f 1834 1836 1835
f 1836 1837 1835
f 1836 1838 1837
f 1838 1839 1837
f 1838 1840 1839
f 1840 1841 1839
f 1840 1842 1841
f 1842 1843 1841
f 1842 1844 1843
f 1844 1845 1843
f 1844 1846 1845
f 1846 1847 1845
f 1846 1848 1847
