1528 1528 0
v -0.043652535 -0.056619435 -0.0065625
v -0.04364154 -0.05179395 -0.0065625
v -0.04362741 -0.05187234 -0.0065625
v -0.04365276 -0.051716265 -0.0065625
v -0.043607415 -0.05194944 -0.0065625
v -0.04358508 -0.052024695 -0.0065625
v -0.04356039 -0.052098105 -0.0065625
v -0.04353333 -0.05216967 -0.0065625
v -0.04352937 -0.056662005 -0.0065625
v -0.04350393 -0.052239375 -0.0065625
v -0.043472175 -0.05230725 -0.0065625
v -0.043438065 -0.05237328 -0.0065625
v -0.043405155 -0.056701785 -0.0065625
v -0.0434016 -0.052437465 -0.0065625
v -0.04336278 -0.052499805 -0.0065625
v -0.043321605 -0.0525603 -0.0065625
v -0.0432801 -0.05673873 -0.0065625
v -0.04327809 -0.05261895 -0.0065625
v -0.043231845 -0.052676025 -0.0065625
v -0.04318248 -0.0527319 -0.0065625
v -0.043154385 -0.05677275 -0.0065625
v -0.043130235 -0.052786365 -0.0065625
v -0.04307541 -0.052839165 -0.0065625
v -0.043028205 -0.0568038 -0.0065625
v -0.04301826 -0.05289009 -0.0065625
v -0.042959085 -0.0529389 -0.0065625
v -0.0429018 -0.056831805 -0.0065625
v -0.04289814 -0.052985385 -0.0065625
v -0.04283571 -0.053029335 -0.0065625
v -0.042775335 -0.056856705 -0.0065625
v -0.042772095 -0.05307048 -0.0065625
v -0.04270755 -0.05310864 -0.0065625
v -0.04264905 -0.056878455 -0.0065625
v -0.04264236 -0.053143545 -0.0065625
v -0.042576225 -0.053175315 -0.0065625
v -0.04252311 -0.056896965 -0.0065625
v -0.042507795 -0.053204595 -0.0065625
v -0.04243737 -0.053231355 -0.0065625
v -0.042397005 -0.056912295 -0.0065625
v -0.042365265 -0.053255505 -0.0065625
v -0.04229184 -0.053276985 -0.0065625
v -0.04226967 -0.056924595 -0.0065625
v -0.042217455 -0.05329569 -0.0065625
v -0.04214244 -0.053311545 -0.0065625
v -0.042141315 -0.056933865 -0.0065625
v -0.04206714 -0.053324475 -0.0065625
v -0.04201215 -0.056940135 -0.0065625
v -0.04199193 -0.05333439 -0.0065625
v -0.04191714 -0.0533412 -0.0065625
v -0.04188237 -0.05694339 -0.0065625
v -0.041843115 -0.053344845 -0.0065625
v -0.041769795 -0.05334522 -0.0065625
v -0.0417522 -0.05694366 -0.0065625
v -0.041695575 -0.05334237 -0.0065625
v -0.04162185 -0.05694093 -0.0065625
v -0.04162059 -0.05333637 -0.0065625
v -0.041545185 -0.05332728 -0.0065625
v -0.041491545 -0.056935245 -0.0065625
v -0.04146969 -0.053315205 -0.0065625
v -0.04139448 -0.05330019 -0.0065625
v -0.04136148 -0.05692659 -0.0065625
v -0.0413199 -0.053282325 -0.0065625
v -0.04124628 -0.0532617 -0.0065625
v -0.041231865 -0.056914965 -0.0065625
v -0.041173995 -0.053238375 -0.0065625
v -0.04110339 -0.053212425 -0.0065625
v -0.04110294 -0.0569004 -0.0065625
v -0.041034795 -0.05318394 -0.0065625
v -0.040974885 -0.056882895 -0.0065625
v -0.040968375 -0.05315289 -0.0065625
v -0.040902675 -0.0531186 -0.0065625
v -0.040847925 -0.05686245 -0.0065625
v -0.040837605 -0.0530811 -0.0065625
v -0.04077345 -0.0530406 -0.0065625
v -0.040722285 -0.056839095 -0.0065625
v -0.040710495 -0.05299734 -0.0065625
v -0.04064901 -0.05295153 -0.0065625
v -0.04059807 -0.0568128 -0.0065625
v -0.04058928 -0.05290338 -0.0065625
v -0.04053159 -0.052853145 -0.0065625
v -0.04047624 -0.05280102 -0.0065625
v -0.040474125 -0.05678331 -0.0065625
v -0.04042347 -0.05274723 -0.0065625
v -0.04037361 -0.052692 -0.0065625
v -0.04035009 -0.056750595 -0.0065625
v -0.04032684 -0.05263545 -0.0065625
v -0.04028226 -0.052576455 -0.0065625
v -0.040239615 -0.052514775 -0.0065625
v -0.040226205 -0.0567147 -0.0065625
v -0.04019907 -0.05245077 -0.0065625
v -0.04016079 -0.05238474 -0.0065625
v -0.04012491 -0.052317 -0.0065625
v -0.04010265 -0.056675745 -0.0065625
v -0.040091595 -0.05224788 -0.0065625
v -0.040061025 -0.05217771 -0.0065625
v -0.040033335 -0.052106805 -0.0065625
v -0.04000869 -0.05203548 -0.0065625
v -0.039987255 -0.051964065 -0.0065625
v -0.03997962 -0.05663379 -0.0065625
v -0.03996918 -0.051892875 -0.0065625
v -0.03995421 -0.051821385 -0.0065625
v -0.03994215 -0.05174922 -0.0065625
v -0.039932985 -0.05167635 -0.0065625
v -0.039926745 -0.051602805 -0.0065625
v -0.039923415 -0.051528555 -0.0065625
v -0.039857325 -0.056588925 -0.0065625
v -0.039922995 -0.051453615 -0.0065625
v -0.03797451 -0.044193555 -0.0065625
v -0.039735945 -0.05654121 -0.0065625
v -0.039925485 -0.051378 -0.0065625
v -0.039930885 -0.05130168 -0.0065625
v -0.039939195 -0.051224685 -0.0065625
v -0.039950415 -0.051146985 -0.0065625
v -0.039964545 -0.051068595 -0.0065625
v -0.03998454 -0.05099151 -0.0065625
v -0.040006875 -0.050916255 -0.0065625
v -0.04003158 -0.050842845 -0.0065625
v -0.040058625 -0.05077128 -0.0065625
v -0.040088025 -0.05070156 -0.0065625
v -0.04011978 -0.050633685 -0.0065625
v -0.04015389 -0.050567655 -0.0065625
v -0.040190355 -0.050503485 -0.0065625
v -0.040229175 -0.050441145 -0.0065625
v -0.04027035 -0.05038065 -0.0065625
v -0.04031388 -0.050322 -0.0065625
v -0.04036011 -0.05026491 -0.0065625
v -0.040409475 -0.050209035 -0.0065625
v -0.04046172 -0.050154585 -0.0065625
v -0.040516545 -0.050101785 -0.0065625
v -0.040573695 -0.05005086 -0.0065625
v -0.04063287 -0.050002035 -0.0065625
v -0.040693815 -0.04995555 -0.0065625
v -0.040756245 -0.049911615 -0.0065625
v -0.04081986 -0.049870455 -0.0065625
v -0.040884405 -0.04983231 -0.0065625
v -0.040949595 -0.04979739 -0.0065625
v -0.04101573 -0.049765635 -0.0065625
v -0.041084145 -0.049736355 -0.0065625
v -0.041154585 -0.049709595 -0.0065625
v -0.04122669 -0.04968543 -0.0065625
v -0.0413001 -0.049663965 -0.0065625
v -0.0413745 -0.04964526 -0.0065625
v -0.041449515 -0.04962939 -0.0065625
v -0.041524815 -0.049616475 -0.0065625
v -0.041600025 -0.04960656 -0.0065625
v -0.041674815 -0.049599735 -0.0065625
v -0.04174884 -0.049596105 -0.0065625
v -0.04182216 -0.049595715 -0.0065625
v -0.04189638 -0.049598565 -0.0065625
v -0.041971365 -0.04960458 -0.0065625
v -0.04204677 -0.049613655 -0.0065625
v -0.042122265 -0.049625745 -0.0065625
v -0.042197475 -0.04964076 -0.0065625
v -0.042272055 -0.04965861 -0.0065625
v -0.042345675 -0.04967925 -0.0065625
v -0.04241796 -0.049702575 -0.0065625
v -0.042488565 -0.04972851 -0.0065625
v -0.042557145 -0.049756995 -0.0065625
v -0.04262358 -0.049788045 -0.0065625
v -0.04268928 -0.049822335 -0.0065625
v -0.04275435 -0.04985985 -0.0065625
v -0.042818505 -0.049900335 -0.0065625
v -0.04288146 -0.04994361 -0.0065625
v -0.042942945 -0.04998942 -0.0065625
v -0.043002675 -0.050037555 -0.0065625
v -0.043060365 -0.050087805 -0.0065625
v -0.043115715 -0.05013993 -0.0065625
v -0.04316847 -0.05019372 -0.0065625
v -0.043218345 -0.05024895 -0.0065625
v -0.046837515 -0.05417316 -0.0065625
v -0.04665741 -0.05434209 -0.0065625
v -0.04701984 -0.054006135 -0.0065625
v -0.04720437 -0.053841 -0.0065625
v -0.047391105 -0.05367777 -0.0065625
v -0.04758006 -0.05351637 -0.0065625
v -0.047771205 -0.05335683 -0.0065625
v -0.047964555 -0.05319915 -0.0065625
v -0.048160125 -0.053043405 -0.0065625
v -0.048357915 -0.05288958 -0.0065625
v -0.04855794 -0.05273775 -0.0065625
v -0.048760215 -0.05258793 -0.0065625
v -0.048964725 -0.052440165 -0.0065625
v -0.04917147 -0.052294455 -0.0065625
v -0.049380465 -0.052150725 -0.0065625
v -0.049562385 -0.04673628 -0.0065625
v -0.049591695 -0.052009005 -0.0065625
v -0.049648545 -0.046753635 -0.0065625
v -0.04980516 -0.05186928 -0.0065625
v -0.04973418 -0.046777275 -0.0065625
v -0.04981953 -0.04680675 -0.0065625
v -0.05002086 -0.05173155 -0.0065625
v -0.04990464 -0.046841955 -0.0065625
v -0.049987545 -0.04688694 -0.0065625
v -0.05006892 -0.04694205 -0.0065625
v -0.05023878 -0.0515958 -0.0065625
v -0.050146215 -0.047007795 -0.0065625
v -0.05018223 -0.047045445 -0.0065625
v -0.05021709 -0.047086905 -0.0065625
v -0.050250465 -0.04713123 -0.0065625
v -0.05045895 -0.05146206 -0.0065625
v -0.050281935 -0.047177295 -0.0065625
v -0.05031105 -0.047224005 -0.0065625
v -0.050337615 -0.04727094 -0.0065625
v -0.05036199 -0.04731891 -0.0065625
v -0.050384175 -0.047367975 -0.0065625
v -0.050404185 -0.047418135 -0.0065625
v -0.050422005 -0.047469375 -0.0065625
v -0.0505983 -0.04790583 -0.0065625
v -0.050681355 -0.0513303 -0.0065625
v -0.050782635 -0.048338745 -0.0065625
v -0.05090598 -0.05120055 -0.0065625
v -0.05095575 -0.051176175 -0.0065625
v -0.05097501 -0.04876809 -0.0065625
v -0.05100393 -0.051150135 -0.0065625
v -0.051050505 -0.051122415 -0.0065625
v -0.051095505 -0.05109303 -0.0065625
v -0.051138915 -0.051061965 -0.0065625
v -0.051175425 -0.049193895 -0.0065625
v -0.051180735 -0.05102922 -0.0065625
v -0.051220965 -0.05099481 -0.0065625
v -0.051259905 -0.050958585 -0.0065625
v -0.051297945 -0.050920395 -0.0065625
v -0.05133465 -0.050880405 -0.0065625
v -0.0513696 -0.050838825 -0.0065625
v -0.051383865 -0.04961613 -0.0065625
v -0.051402345 -0.050795835 -0.0065625
v -0.051432435 -0.050751645 -0.0065625
v -0.05143479 -0.04970634 -0.0065625
v -0.05145942 -0.050706435 -0.0065625
v -0.05145726 -0.049752435 -0.0065625
v -0.05147772 -0.04979922 -0.0065625
v -0.051483105 -0.05066013 -0.0065625
v -0.0514962 -0.04984668 -0.0065625
v -0.051504165 -0.050611995 -0.0065625
v -0.05151267 -0.049894815 -0.0065625
v -0.051522615 -0.050562285 -0.0065625
v -0.051527145 -0.049943625 -0.0065625
v -0.051538395 -0.050511465 -0.0065625
v -0.05153985 -0.04999335 -0.0065625
v -0.051551445 -0.05045994 -0.0065625
v -0.051551085 -0.050044305 -0.0065625
v -0.05156052 -0.05009616 -0.0065625
v -0.05156172 -0.050408145 -0.0065625
v -0.051567825 -0.05014854 -0.0065625
v -0.05156913 -0.050356485 -0.0065625
v -0.051572655 -0.050201085 -0.0065625
v -0.051573585 -0.050305245 -0.0065625
v -0.05157468 -0.05025345 -0.0065625
v -0.043265115 -0.050305485 -0.0065625
v -0.04647951 -0.05451291 -0.0065625
v -0.043309695 -0.050364495 -0.0065625
v -0.04335234 -0.05042616 -0.0065625
v -0.04630383 -0.054685635 -0.0065625
v -0.043392885 -0.05049018 -0.0065625
v -0.04613037 -0.05486025 -0.0065625
v -0.043431165 -0.05055621 -0.0065625
v -0.045959115 -0.05503677 -0.0065625
v -0.043467045 -0.050623935 -0.0065625
v -0.045790065 -0.05521518 -0.0065625
v -0.043500345 -0.050693055 -0.0065625
v -0.045696735 -0.055310775 -0.0065625
v -0.04560201 -0.055403685 -0.0065625
v -0.04353093 -0.050763225 -0.0065625
v -0.04550592 -0.055493895 -0.0065625
v -0.04355862 -0.05083413 -0.0065625
v -0.045408465 -0.055581435 -0.0065625
v -0.045309615 -0.055666275 -0.0065625
v -0.04358325 -0.050905455 -0.0065625
v -0.045209385 -0.055748445 -0.0065625
v -0.04510779 -0.055827915 -0.0065625
v -0.0436047 -0.05097687 -0.0065625
v -0.045004815 -0.0559047 -0.0065625
v -0.04490046 -0.0559788 -0.0065625
v -0.043622775 -0.051048075 -0.0065625
v -0.044794725 -0.056050215 -0.0065625
v -0.043637745 -0.05111955 -0.0065625
v -0.04468761 -0.056118945 -0.0065625
v -0.04457913 -0.056184975 -0.0065625
v -0.043649805 -0.05119173 -0.0065625
v -0.044469255 -0.056248335 -0.0065625
v -0.044358015 -0.05630901 -0.0065625
v -0.04365897 -0.051264585 -0.0065625
v -0.044245305 -0.056367015 -0.0065625
v -0.044130495 -0.05642256 -0.0065625
v -0.04366521 -0.051338145 -0.0065625
v -0.044013615 -0.056475645 -0.0065625
v -0.04366854 -0.051412395 -0.0065625
v -0.043894845 -0.056526195 -0.0065625
v -0.043774425 -0.05657415 -0.0065625
v -0.04366896 -0.05148732 -0.0065625
v -0.04366647 -0.05156295 -0.0065625
v -0.04366107 -0.051639255 -0.0065625
v -0.03961569 -0.05649075 -0.0065625
v -0.03949674 -0.05643762 -0.0065625
v -0.039379305 -0.05638188 -0.0065625
v -0.039263595 -0.056323635 -0.0065625
v -0.039149775 -0.056262945 -0.0065625
v -0.03903807 -0.0561999 -0.0065625
v -0.03892866 -0.05613459 -0.0065625
v -0.03882132 -0.056066805 -0.0065625
v -0.03871497 -0.05599593 -0.0065625
v -0.03860973 -0.05592204 -0.0065625
v -0.038505765 -0.05584527 -0.0065625
v -0.038403195 -0.0557658 -0.0065625
v -0.038302215 -0.055683735 -0.0065625
v -0.03820296 -0.055599225 -0.0065625
v -0.038105595 -0.05551242 -0.0065625
v -0.038010285 -0.05542347 -0.0065625
v -0.03791718 -0.055332495 -0.0065625
v -0.03789498 -0.04417257 -0.0065625
v -0.037826445 -0.055239645 -0.0065625
v -0.03781146 -0.044156355 -0.0065625
v -0.037738245 -0.05514507 -0.0065625
v -0.03772392 -0.04414491 -0.0065625
v -0.037652715 -0.05504892 -0.0065625
v -0.03763182 -0.044137215 -0.0065625
v -0.03757005 -0.0549513 -0.0065625
v -0.03753483 -0.044132745 -0.0065625
v -0.037490355 -0.054852375 -0.0065625
v -0.037435455 -0.04413594 -0.0065625
v -0.037413015 -0.054751275 -0.0065625
v -0.0373857 -0.044141895 -0.0065625
v -0.03733767 -0.05464761 -0.0065625
v -0.037335465 -0.044150985 -0.0065625
v -0.03728385 -0.04416255 -0.0065625
v -0.03726441 -0.054541575 -0.0065625
v -0.037231695 -0.044176605 -0.0065625
v -0.03719334 -0.054433335 -0.0065625
v -0.037179795 -0.044193135 -0.0065625
v -0.037129005 -0.04421217 -0.0065625
v -0.03712458 -0.054323085 -0.0065625
v -0.03708015 -0.044233695 -0.0065625
v -0.037058205 -0.054211035 -0.0065625
v -0.037033935 -0.04425777 -0.0065625
v -0.036994335 -0.054097335 -0.0065625
v -0.03698928 -0.04428483 -0.0065625
v -0.0369459 -0.04431474 -0.0065625
v -0.03693306 -0.053982195 -0.0065625
v -0.036904065 -0.044347095 -0.0065625
v -0.036874485 -0.053865795 -0.0065625
v -0.03686412 -0.04438155 -0.0065625
v -0.036826335 -0.04441773 -0.0065625
v -0.036818715 -0.05374833 -0.0065625
v -0.036791025 -0.044455245 -0.0065625
v -0.036765855 -0.05362998 -0.0065625
v -0.03675831 -0.04449432 -0.0065625
v -0.03672777 -0.04453608 -0.0065625
v -0.036715995 -0.053510925 -0.0065625
v -0.03669942 -0.04457985 -0.0065625
v -0.036673305 -0.044624925 -0.0065625
v -0.03666924 -0.05339136 -0.0065625
v -0.036627825 -0.044716035 -0.0065625
v -0.036625695 -0.05327148 -0.0065625
v -0.036592125 -0.044805105 -0.0065625
v -0.03658539 -0.0531513 -0.0065625
v -0.036567135 -0.044894985 -0.0065625
v -0.036549345 -0.04498395 -0.0065625
v -0.036547965 -0.053030235 -0.0065625
v -0.03653508 -0.045069615 -0.0065625
v -0.036524775 -0.04515225 -0.0065625
v -0.036519285 -0.045232425 -0.0065625
v -0.036518595 -0.045310125 -0.0065625
v -0.03651342 -0.052908225 -0.0065625
v -0.036484845 -0.046066905 -0.0065625
v -0.036481725 -0.052785225 -0.0065625
v -0.036453705 -0.04682385 -0.0065625
v -0.036452895 -0.052661265 -0.0065625
v -0.03642519 -0.04758093 -0.0065625
v -0.03642693 -0.05253636 -0.0065625
v -0.036403815 -0.052410465 -0.0065625
v -0.036399285 -0.04833819 -0.0065625
v -0.036383565 -0.052283625 -0.0065625
v -0.036376005 -0.049095585 -0.0065625
v -0.03636618 -0.05215581 -0.0065625
v -0.036355365 -0.04985313 -0.0065625
v -0.03635166 -0.052027035 -0.0065625
v -0.036337335 -0.050610825 -0.0065625
v -0.03633999 -0.051897285 -0.0065625
v -0.036331185 -0.051766575 -0.0065625
v -0.03632193 -0.05136867 -0.0065625
v -0.03632523 -0.051634905 -0.0065625
v -0.036322155 -0.051502275 -0.0065625
v -0.04362741 -0.05187234 -0.0028125
v -0.04362741 -0.05187234 -0.0065625
v -0.04364154 -0.05179395 -0.0065625
v -0.043607415 -0.05194944 -0.0028125
v -0.04364154 -0.05179395 -0.0028125
v -0.04365276 -0.051716265 -0.0065625
v -0.04365276 -0.051716265 -0.0028125
v -0.04366107 -0.051639255 -0.0065625
v -0.04366107 -0.051639255 -0.0028125
v -0.04366647 -0.05156295 -0.0065625
v -0.04366647 -0.05156295 -0.0028125
v -0.04366896 -0.05148732 -0.0065625
v -0.04366896 -0.05148732 -0.0028125
v -0.04366854 -0.051412395 -0.0065625
v -0.04366854 -0.051412395 -0.0028125
v -0.04366521 -0.051338145 -0.0065625
v -0.04366521 -0.051338145 -0.0028125
v -0.04365897 -0.051264585 -0.0065625
v -0.04365897 -0.051264585 -0.0028125
v -0.043649805 -0.05119173 -0.0065625
v -0.043649805 -0.05119173 -0.0028125
v -0.043637745 -0.05111955 -0.0065625
v -0.043637745 -0.05111955 -0.0028125
v -0.043622775 -0.051048075 -0.0065625
v -0.043622775 -0.051048075 -0.0028125
v -0.0436047 -0.05097687 -0.0065625
v -0.0436047 -0.05097687 -0.0028125
v -0.04358325 -0.050905455 -0.0065625
v -0.04358325 -0.050905455 -0.0028125
v -0.04355862 -0.05083413 -0.0065625
v -0.04355862 -0.05083413 -0.0028125
v -0.04353093 -0.050763225 -0.0065625
v -0.04353093 -0.050763225 -0.0028125
v -0.043500345 -0.050693055 -0.0065625
v -0.043500345 -0.050693055 -0.0028125
v -0.043467045 -0.050623935 -0.0065625
v -0.043467045 -0.050623935 -0.0028125
v -0.043431165 -0.05055621 -0.0065625
v -0.043431165 -0.05055621 -0.0028125
v -0.043392885 -0.05049018 -0.0065625
v -0.043392885 -0.05049018 -0.0028125
v -0.04335234 -0.05042616 -0.0065625
v -0.04335234 -0.05042616 -0.0028125
v -0.043309695 -0.050364495 -0.0065625
v -0.043309695 -0.050364495 -0.0028125
v -0.043265115 -0.050305485 -0.0065625
v -0.043265115 -0.050305485 -0.0028125
v -0.043218345 -0.05024895 -0.0065625
v -0.043218345 -0.05024895 -0.0028125
v -0.04316847 -0.05019372 -0.0065625
v -0.04316847 -0.05019372 -0.0028125
v -0.043115715 -0.05013993 -0.0065625
v -0.043115715 -0.05013993 -0.0028125
v -0.043060365 -0.050087805 -0.0065625
v -0.043060365 -0.050087805 -0.0028125
v -0.043002675 -0.050037555 -0.0065625
v -0.043002675 -0.050037555 -0.0028125
v -0.042942945 -0.04998942 -0.0065625
v -0.042942945 -0.04998942 -0.0028125
v -0.04288146 -0.04994361 -0.0065625
v -0.04288146 -0.04994361 -0.0028125
v -0.042818505 -0.049900335 -0.0065625
v -0.042818505 -0.049900335 -0.0028125
v -0.04275435 -0.04985985 -0.0065625
v -0.04275435 -0.04985985 -0.0028125
v -0.04268928 -0.049822335 -0.0065625
v -0.04268928 -0.049822335 -0.0028125
v -0.04262358 -0.049788045 -0.0065625
v -0.04262358 -0.049788045 -0.0028125
v -0.042557145 -0.049756995 -0.0065625
v -0.042557145 -0.049756995 -0.0028125
v -0.042488565 -0.04972851 -0.0065625
v -0.042488565 -0.04972851 -0.0028125
v -0.04241796 -0.049702575 -0.0065625
v -0.04241796 -0.049702575 -0.0028125
v -0.042345675 -0.04967925 -0.0065625
v -0.042345675 -0.04967925 -0.0028125
v -0.042272055 -0.04965861 -0.0065625
v -0.042272055 -0.04965861 -0.0028125
v -0.042197475 -0.04964076 -0.0065625
v -0.042197475 -0.04964076 -0.0028125
v -0.042122265 -0.049625745 -0.0065625
v -0.042122265 -0.049625745 -0.0028125
v -0.04204677 -0.049613655 -0.0065625
v -0.04204677 -0.049613655 -0.0028125
v -0.041971365 -0.04960458 -0.0065625
v -0.041971365 -0.04960458 -0.0028125
v -0.04189638 -0.049598565 -0.0065625
v -0.04189638 -0.049598565 -0.0028125
v -0.04182216 -0.049595715 -0.0065625
v -0.04182216 -0.049595715 -0.0028125
v -0.04174884 -0.049596105 -0.0065625
v -0.04174884 -0.049596105 -0.0028125
v -0.041674815 -0.049599735 -0.0065625
v -0.041674815 -0.049599735 -0.0028125
v -0.041600025 -0.04960656 -0.0065625
v -0.041600025 -0.04960656 -0.0028125
v -0.041524815 -0.049616475 -0.0065625
v -0.041524815 -0.049616475 -0.0028125
v -0.041449515 -0.04962939 -0.0065625
v -0.041449515 -0.04962939 -0.0028125
v -0.0413745 -0.04964526 -0.0065625
v -0.0413745 -0.04964526 -0.0028125
v -0.0413001 -0.049663965 -0.0065625
v -0.0413001 -0.049663965 -0.0028125
v -0.04122669 -0.04968543 -0.0065625
v -0.04122669 -0.04968543 -0.0028125
v -0.041154585 -0.049709595 -0.0065625
v -0.041154585 -0.049709595 -0.0028125
v -0.041084145 -0.049736355 -0.0065625
v -0.041084145 -0.049736355 -0.0028125
v -0.04101573 -0.049765635 -0.0065625
v -0.04101573 -0.049765635 -0.0028125
v -0.040949595 -0.04979739 -0.0065625
v -0.040949595 -0.04979739 -0.0028125
v -0.040884405 -0.04983231 -0.0065625
v -0.040884405 -0.04983231 -0.0028125
v -0.04081986 -0.049870455 -0.0065625
v -0.04081986 -0.049870455 -0.0028125
v -0.040756245 -0.049911615 -0.0065625
v -0.040756245 -0.049911615 -0.0028125
v -0.040693815 -0.04995555 -0.0065625
v -0.040693815 -0.04995555 -0.0028125
v -0.04063287 -0.050002035 -0.0065625
v -0.04063287 -0.050002035 -0.0028125
v -0.040573695 -0.05005086 -0.0065625
v -0.040573695 -0.05005086 -0.0028125
v -0.040516545 -0.050101785 -0.0065625
v -0.040516545 -0.050101785 -0.0028125
v -0.04046172 -0.050154585 -0.0065625
v -0.04046172 -0.050154585 -0.0028125
v -0.040409475 -0.050209035 -0.0065625
v -0.040409475 -0.050209035 -0.0028125
v -0.04036011 -0.05026491 -0.0065625
v -0.04036011 -0.05026491 -0.0028125
v -0.04031388 -0.050322 -0.0065625
v -0.04031388 -0.050322 -0.0028125
v -0.04027035 -0.05038065 -0.0065625
v -0.04027035 -0.05038065 -0.0028125
v -0.040229175 -0.050441145 -0.0065625
v -0.040229175 -0.050441145 -0.0028125
v -0.040190355 -0.050503485 -0.0065625
v -0.040190355 -0.050503485 -0.0028125
v -0.04015389 -0.050567655 -0.0065625
v -0.04015389 -0.050567655 -0.0028125
v -0.04011978 -0.050633685 -0.0065625
v -0.04011978 -0.050633685 -0.0028125
v -0.040088025 -0.05070156 -0.0065625
v -0.040088025 -0.05070156 -0.0028125
v -0.040058625 -0.05077128 -0.0065625
v -0.040058625 -0.05077128 -0.0028125
v -0.04003158 -0.050842845 -0.0065625
v -0.04003158 -0.050842845 -0.0028125
v -0.040006875 -0.050916255 -0.0065625
v -0.040006875 -0.050916255 -0.0028125
v -0.03998454 -0.05099151 -0.0065625
v -0.03998454 -0.05099151 -0.0028125
v -0.039964545 -0.051068595 -0.0065625
v -0.039964545 -0.051068595 -0.0028125
v -0.039950415 -0.051146985 -0.0065625
v -0.039950415 -0.051146985 -0.0028125
v -0.039939195 -0.051224685 -0.0065625
v -0.039939195 -0.051224685 -0.0028125
v -0.039930885 -0.05130168 -0.0065625
v -0.039930885 -0.05130168 -0.0028125
v -0.039925485 -0.051378 -0.0065625
v -0.039925485 -0.051378 -0.0028125
v -0.039922995 -0.051453615 -0.0065625
v -0.039922995 -0.051453615 -0.0028125
v -0.039923415 -0.051528555 -0.0065625
v -0.039923415 -0.051528555 -0.0028125
v -0.039926745 -0.051602805 -0.0065625
v -0.039926745 -0.051602805 -0.0028125
v -0.039932985 -0.05167635 -0.0065625
v -0.039932985 -0.05167635 -0.0028125
v -0.03994215 -0.05174922 -0.0065625
v -0.03994215 -0.05174922 -0.0028125
v -0.03995421 -0.051821385 -0.0065625
v -0.03995421 -0.051821385 -0.0028125
v -0.03996918 -0.051892875 -0.0065625
v -0.03996918 -0.051892875 -0.0028125
v -0.039987255 -0.051964065 -0.0065625
v -0.039987255 -0.051964065 -0.0028125
v -0.04000869 -0.05203548 -0.0065625
v -0.04000869 -0.05203548 -0.0028125
v -0.040033335 -0.052106805 -0.0065625
v -0.040033335 -0.052106805 -0.0028125
v -0.040061025 -0.05217771 -0.0065625
v -0.040061025 -0.05217771 -0.0028125
v -0.040091595 -0.05224788 -0.0065625
v -0.040091595 -0.05224788 -0.0028125
v -0.04012491 -0.052317 -0.0065625
v -0.04012491 -0.052317 -0.0028125
v -0.04016079 -0.05238474 -0.0065625
v -0.04016079 -0.05238474 -0.0028125
v -0.04019907 -0.05245077 -0.0065625
v -0.04019907 -0.05245077 -0.0028125
v -0.040239615 -0.052514775 -0.0065625
v -0.040239615 -0.052514775 -0.0028125
v -0.04028226 -0.052576455 -0.0065625
v -0.04028226 -0.052576455 -0.0028125
v -0.04032684 -0.05263545 -0.0065625
v -0.04032684 -0.05263545 -0.0028125
v -0.04037361 -0.052692 -0.0065625
v -0.04037361 -0.052692 -0.0028125
v -0.04042347 -0.05274723 -0.0065625
v -0.04042347 -0.05274723 -0.0028125
v -0.04047624 -0.05280102 -0.0065625
v -0.04047624 -0.05280102 -0.0028125
v -0.04053159 -0.052853145 -0.0065625
v -0.04053159 -0.052853145 -0.0028125
v -0.04058928 -0.05290338 -0.0065625
v -0.04058928 -0.05290338 -0.0028125
v -0.04064901 -0.05295153 -0.0065625
v -0.04064901 -0.05295153 -0.0028125
v -0.040710495 -0.05299734 -0.0065625
v -0.040710495 -0.05299734 -0.0028125
v -0.04077345 -0.0530406 -0.0065625
v -0.04077345 -0.0530406 -0.0028125
v -0.040837605 -0.0530811 -0.0065625
v -0.040837605 -0.0530811 -0.0028125
v -0.040902675 -0.0531186 -0.0065625
v -0.040902675 -0.0531186 -0.0028125
v -0.040968375 -0.05315289 -0.0065625
v -0.040968375 -0.05315289 -0.0028125
v -0.041034795 -0.05318394 -0.0065625
v -0.041034795 -0.05318394 -0.0028125
v -0.04110339 -0.053212425 -0.0065625
v -0.04110339 -0.053212425 -0.0028125
v -0.041173995 -0.053238375 -0.0065625
v -0.041173995 -0.053238375 -0.0028125
v -0.04124628 -0.0532617 -0.0065625
v -0.04124628 -0.0532617 -0.0028125
v -0.0413199 -0.053282325 -0.0065625
v -0.0413199 -0.053282325 -0.0028125
v -0.04139448 -0.05330019 -0.0065625
v -0.04139448 -0.05330019 -0.0028125
v -0.04146969 -0.053315205 -0.0065625
v -0.04146969 -0.053315205 -0.0028125
v -0.041545185 -0.05332728 -0.0065625
v -0.041545185 -0.05332728 -0.0028125
v -0.04162059 -0.05333637 -0.0065625
v -0.04162059 -0.05333637 -0.0028125
v -0.041695575 -0.05334237 -0.0065625
v -0.041695575 -0.05334237 -0.0028125
v -0.041769795 -0.05334522 -0.0065625
v -0.041769795 -0.05334522 -0.0028125
v -0.041843115 -0.053344845 -0.0065625
v -0.041843115 -0.053344845 -0.0028125
v -0.04191714 -0.0533412 -0.0065625
v -0.04191714 -0.0533412 -0.0028125
v -0.04199193 -0.05333439 -0.0065625
v -0.04199193 -0.05333439 -0.0028125
v -0.04206714 -0.053324475 -0.0065625
v -0.04206714 -0.053324475 -0.0028125
v -0.04214244 -0.053311545 -0.0065625
v -0.04214244 -0.053311545 -0.0028125
v -0.042217455 -0.05329569 -0.0065625
v -0.042217455 -0.05329569 -0.0028125
v -0.04229184 -0.053276985 -0.0065625
v -0.04229184 -0.053276985 -0.0028125
v -0.042365265 -0.053255505 -0.0065625
v -0.042365265 -0.053255505 -0.0028125
v -0.04243737 -0.053231355 -0.0065625
v -0.04243737 -0.053231355 -0.0028125
v -0.042507795 -0.053204595 -0.0065625
v -0.042507795 -0.053204595 -0.0028125
v -0.042576225 -0.053175315 -0.0065625
v -0.042576225 -0.053175315 -0.0028125
v -0.04264236 -0.053143545 -0.0065625
v -0.04264236 -0.053143545 -0.0028125
v -0.04270755 -0.05310864 -0.0065625
v -0.04270755 -0.05310864 -0.0028125
v -0.042772095 -0.05307048 -0.0065625
v -0.042772095 -0.05307048 -0.0028125
v -0.04283571 -0.053029335 -0.0065625
v -0.04283571 -0.053029335 -0.0028125
v -0.04289814 -0.052985385 -0.0065625
v -0.04289814 -0.052985385 -0.0028125
v -0.042959085 -0.0529389 -0.0065625
v -0.042959085 -0.0529389 -0.0028125
v -0.04301826 -0.05289009 -0.0065625
v -0.04301826 -0.05289009 -0.0028125
v -0.04307541 -0.052839165 -0.0065625
v -0.04307541 -0.052839165 -0.0028125
v -0.043130235 -0.052786365 -0.0065625
v -0.043130235 -0.052786365 -0.0028125
v -0.04318248 -0.0527319 -0.0065625
v -0.04318248 -0.0527319 -0.0028125
v -0.043231845 -0.052676025 -0.0065625
v -0.043231845 -0.052676025 -0.0028125
v -0.04327809 -0.05261895 -0.0065625
v -0.04327809 -0.05261895 -0.0028125
v -0.043321605 -0.0525603 -0.0065625
v -0.043321605 -0.0525603 -0.0028125
v -0.04336278 -0.052499805 -0.0065625
v -0.04336278 -0.052499805 -0.0028125
v -0.0434016 -0.052437465 -0.0065625
v -0.0434016 -0.052437465 -0.0028125
v -0.043438065 -0.05237328 -0.0065625
v -0.043438065 -0.05237328 -0.0028125
v -0.043472175 -0.05230725 -0.0065625
v -0.043472175 -0.05230725 -0.0028125
v -0.04350393 -0.052239375 -0.0065625
v -0.04350393 -0.052239375 -0.0028125
v -0.04353333 -0.05216967 -0.0065625
v -0.04353333 -0.05216967 -0.0028125
v -0.04356039 -0.052098105 -0.0065625
v -0.04356039 -0.052098105 -0.0028125
v -0.04358508 -0.052024695 -0.0065625
v -0.04358508 -0.052024695 -0.0028125
v -0.043607415 -0.05194944 -0.0065625
v -0.050422005 -0.047469375 -0.0028125
v -0.050422005 -0.047469375 -0.0065625
v -0.0505983 -0.04790583 -0.0065625
v -0.050391 -0.04738569 -0.0028125
v -0.0505983 -0.04790583 -0.0028125
v -0.050782635 -0.048338745 -0.0065625
v -0.050782635 -0.048338745 -0.0028125
v -0.05097501 -0.04876809 -0.0065625
v -0.05097501 -0.04876809 -0.0028125
v -0.051175425 -0.049193895 -0.0065625
v -0.051175425 -0.049193895 -0.0028125
v -0.051383865 -0.04961613 -0.0065625
v -0.051383865 -0.04961613 -0.0028125
v -0.05143479 -0.04970634 -0.0065625
v -0.051410565 -0.049661205 -0.0028125
v -0.051435225 -0.049706985 -0.0028125
v -0.05145726 -0.049752435 -0.0065625
v -0.051457845 -0.049753455 -0.0028125
v -0.05147772 -0.04979922 -0.0065625
v -0.051478425 -0.049800615 -0.0028125
v -0.0514962 -0.04984668 -0.0065625
v -0.051496965 -0.049848465 -0.0028125
v -0.05151267 -0.049894815 -0.0065625
v -0.05151348 -0.04989702 -0.0028125
v -0.051527145 -0.049943625 -0.0065625
v -0.051527955 -0.049946265 -0.0028125
v -0.05153985 -0.04999335 -0.0065625
v -0.051540615 -0.04999647 -0.0028125
v -0.051551085 -0.050044305 -0.0065625
v -0.05155176 -0.050047965 -0.0028125
v -0.05156052 -0.05009616 -0.0065625
v -0.051561075 -0.050100405 -0.0028125
v -0.051567825 -0.05014854 -0.0065625
v -0.051568215 -0.05015337 -0.0028125
v -0.051572655 -0.050201085 -0.0065625
v -0.05157285 -0.0502065 -0.0028125
v -0.05157468 -0.05025345 -0.0065625
v -0.051574635 -0.05025936 -0.0028125
v -0.051573585 -0.050305245 -0.0065625
v -0.05157324 -0.05031159 -0.0028125
v -0.05156913 -0.050356485 -0.0065625
v -0.05156844 -0.050363145 -0.0028125
v -0.05156172 -0.050408145 -0.0065625
v -0.051560595 -0.050415075 -0.0028125
v -0.051551445 -0.05045994 -0.0065625
v -0.05154981 -0.050467095 -0.0028125
v -0.051538395 -0.050511465 -0.0065625
v -0.051536205 -0.05051877 -0.0028125
v -0.051522615 -0.050562285 -0.0065625
v -0.05151987 -0.050569695 -0.0028125
v -0.051504165 -0.050611995 -0.0065625
v -0.051500895 -0.050619435 -0.0028125
v -0.051483105 -0.05066013 -0.0065625
v -0.0514794 -0.05066754 -0.0028125
v -0.05145942 -0.050706435 -0.0065625
v -0.051455355 -0.05071371 -0.0028125
v -0.051432435 -0.050751645 -0.0065625
v -0.05142801 -0.050758695 -0.0028125
v -0.051402345 -0.050795835 -0.0065625
v -0.05139756 -0.050802585 -0.0028125
v -0.0513696 -0.050838825 -0.0065625
v -0.051364515 -0.0508452 -0.0028125
v -0.05133465 -0.050880405 -0.0065625
v -0.051329325 -0.050886345 -0.0028125
v -0.051297945 -0.050920395 -0.0065625
v -0.051292485 -0.050925855 -0.0028125
v -0.051259905 -0.050958585 -0.0065625
v -0.051254475 -0.050963565 -0.0028125
v -0.051220965 -0.05099481 -0.0065625
v -0.051215745 -0.050999265 -0.0028125
v -0.051180735 -0.05102922 -0.0065625
v -0.051175875 -0.05103315 -0.0028125
v -0.051138915 -0.051061965 -0.0065625
v -0.05113455 -0.051065325 -0.0028125
v -0.051095505 -0.05109303 -0.0065625
v -0.051091755 -0.05109579 -0.0028125
v -0.051050505 -0.051122415 -0.0065625
v -0.051047505 -0.051124545 -0.0028125
v -0.05100393 -0.051150135 -0.0065625
v -0.0510018 -0.05115159 -0.0028125
v -0.05095575 -0.051176175 -0.0065625
v -0.050954625 -0.051176925 -0.0028125
v -0.05090598 -0.05120055 -0.0065625
v -0.05090598 -0.05120055 -0.0028125
v -0.050681355 -0.0513303 -0.0065625
v -0.050681355 -0.0513303 -0.0028125
v -0.05045895 -0.05146206 -0.0065625
v -0.05045895 -0.05146206 -0.0028125
v -0.05023878 -0.0515958 -0.0065625
v -0.05023878 -0.0515958 -0.0028125
v -0.05002086 -0.05173155 -0.0065625
v -0.05002086 -0.05173155 -0.0028125
v -0.04980516 -0.05186928 -0.0065625
v -0.04980516 -0.05186928 -0.0028125
v -0.049591695 -0.052009005 -0.0065625
v -0.049591695 -0.052009005 -0.0028125
v -0.049380465 -0.052150725 -0.0065625
v -0.049380465 -0.052150725 -0.0028125
v -0.04917147 -0.052294455 -0.0065625
v -0.04917147 -0.052294455 -0.0028125
v -0.048964725 -0.052440165 -0.0065625
v -0.048964725 -0.052440165 -0.0028125
v -0.048760215 -0.05258793 -0.0065625
v -0.048760215 -0.05258793 -0.0028125
v -0.04855794 -0.05273775 -0.0065625
v -0.04855794 -0.05273775 -0.0028125
v -0.048357915 -0.05288958 -0.0065625
v -0.048357915 -0.05288958 -0.0028125
v -0.048160125 -0.053043405 -0.0065625
v -0.048160125 -0.053043405 -0.0028125
v -0.047964555 -0.05319915 -0.0065625
v -0.047964555 -0.05319915 -0.0028125
v -0.047771205 -0.05335683 -0.0065625
v -0.047771205 -0.05335683 -0.0028125
v -0.04758006 -0.05351637 -0.0065625
v -0.04758006 -0.05351637 -0.0028125
v -0.047391105 -0.05367777 -0.0065625
v -0.047391105 -0.05367777 -0.0028125
v -0.04720437 -0.053841 -0.0065625
v -0.04720437 -0.053841 -0.0028125
v -0.04701984 -0.054006135 -0.0065625
v -0.04701984 -0.054006135 -0.0028125
v -0.046837515 -0.05417316 -0.0065625
v -0.046837515 -0.05417316 -0.0028125
v -0.04665741 -0.05434209 -0.0065625
v -0.04665741 -0.05434209 -0.0028125
v -0.04647951 -0.05451291 -0.0065625
v -0.04647951 -0.05451291 -0.0028125
v -0.04630383 -0.054685635 -0.0065625
v -0.04630383 -0.054685635 -0.0028125
v -0.04613037 -0.05486025 -0.0065625
v -0.04613037 -0.05486025 -0.0028125
v -0.045959115 -0.05503677 -0.0065625
v -0.045959115 -0.05503677 -0.0028125
v -0.045790065 -0.05521518 -0.0065625
v -0.045790065 -0.05521518 -0.0028125
v -0.045696735 -0.055310775 -0.0065625
v -0.045696735 -0.055310775 -0.0028125
v -0.04560201 -0.055403685 -0.0065625
v -0.04560201 -0.055403685 -0.0028125
v -0.04550592 -0.055493895 -0.0065625
v -0.04550592 -0.055493895 -0.0028125
v -0.045408465 -0.055581435 -0.0065625
v -0.045408465 -0.055581435 -0.0028125
v -0.045309615 -0.055666275 -0.0065625
v -0.045309615 -0.055666275 -0.0028125
v -0.045209385 -0.055748445 -0.0065625
v -0.045209385 -0.055748445 -0.0028125
v -0.04510779 -0.055827915 -0.0065625
v -0.04510779 -0.055827915 -0.0028125
v -0.045004815 -0.0559047 -0.0065625
v -0.045004815 -0.0559047 -0.0028125
v -0.04490046 -0.0559788 -0.0065625
v -0.04490046 -0.0559788 -0.0028125
v -0.044794725 -0.056050215 -0.0065625
v -0.044794725 -0.056050215 -0.0028125
v -0.04468761 -0.056118945 -0.0065625
v -0.04468761 -0.056118945 -0.0028125
v -0.04457913 -0.056184975 -0.0065625
v -0.04457913 -0.056184975 -0.0028125
v -0.044469255 -0.056248335 -0.0065625
v -0.044469255 -0.056248335 -0.0028125
v -0.044358015 -0.05630901 -0.0065625
v -0.044358015 -0.05630901 -0.0028125
v -0.044245305 -0.056367015 -0.0065625
v -0.044245305 -0.056367015 -0.0028125
v -0.044130495 -0.05642256 -0.0065625
v -0.044130495 -0.05642256 -0.0028125
v -0.044013615 -0.056475645 -0.0065625
v -0.044013615 -0.056475645 -0.0028125
v -0.043894845 -0.056526195 -0.0065625
v -0.043894845 -0.056526195 -0.0028125
v -0.043774425 -0.05657415 -0.0065625
v -0.043774425 -0.05657415 -0.0028125
v -0.043652535 -0.056619435 -0.0065625
v -0.043652535 -0.056619435 -0.0028125
v -0.04352937 -0.056662005 -0.0065625
v -0.04352937 -0.056662005 -0.0028125
v -0.043405155 -0.056701785 -0.0065625
v -0.043405155 -0.056701785 -0.0028125
v -0.0432801 -0.05673873 -0.0065625
v -0.0432801 -0.05673873 -0.0028125
v -0.043154385 -0.05677275 -0.0065625
v -0.043154385 -0.05677275 -0.0028125
v -0.043028205 -0.0568038 -0.0065625
v -0.043028205 -0.0568038 -0.0028125
v -0.0429018 -0.056831805 -0.0065625
v -0.0429018 -0.056831805 -0.0028125
v -0.042775335 -0.056856705 -0.0065625
v -0.042775335 -0.056856705 -0.0028125
v -0.04264905 -0.056878455 -0.0065625
v -0.04264905 -0.056878455 -0.0028125
v -0.04252311 -0.056896965 -0.0065625
v -0.04252311 -0.056896965 -0.0028125
v -0.042397005 -0.056912295 -0.0065625
v -0.042397005 -0.056912295 -0.0028125
v -0.04226967 -0.056924595 -0.0065625
v -0.04226967 -0.056924595 -0.0028125
v -0.042141315 -0.056933865 -0.0065625
v -0.042141315 -0.056933865 -0.0028125
v -0.04201215 -0.056940135 -0.0065625
v -0.04201215 -0.056940135 -0.0028125
v -0.04188237 -0.05694339 -0.0065625
v -0.04188237 -0.05694339 -0.0028125
v -0.0417522 -0.05694366 -0.0065625
v -0.0417522 -0.05694366 -0.0028125
v -0.04162185 -0.05694093 -0.0065625
v -0.04162185 -0.05694093 -0.0028125
v -0.041491545 -0.056935245 -0.0065625
v -0.041491545 -0.056935245 -0.0028125
v -0.04136148 -0.05692659 -0.0065625
v -0.04136148 -0.05692659 -0.0028125
v -0.041231865 -0.056914965 -0.0065625
v -0.041231865 -0.056914965 -0.0028125
v -0.04110294 -0.0569004 -0.0065625
v -0.04110294 -0.0569004 -0.0028125
v -0.040974885 -0.056882895 -0.0065625
v -0.040974885 -0.056882895 -0.0028125
v -0.040847925 -0.05686245 -0.0065625
v -0.040847925 -0.05686245 -0.0028125
v -0.040722285 -0.056839095 -0.0065625
v -0.040722285 -0.056839095 -0.0028125
v -0.04059807 -0.0568128 -0.0065625
v -0.04059807 -0.0568128 -0.0028125
v -0.040474125 -0.05678331 -0.0065625
v -0.040474125 -0.05678331 -0.0028125
v -0.04035009 -0.056750595 -0.0065625
v -0.04035009 -0.056750595 -0.0028125
v -0.040226205 -0.0567147 -0.0065625
v -0.040226205 -0.0567147 -0.0028125
v -0.04010265 -0.056675745 -0.0065625
v -0.04010265 -0.056675745 -0.0028125
v -0.03997962 -0.05663379 -0.0065625
v -0.03997962 -0.05663379 -0.0028125
v -0.039857325 -0.056588925 -0.0065625
v -0.039857325 -0.056588925 -0.0028125
v -0.039735945 -0.05654121 -0.0065625
v -0.039735945 -0.05654121 -0.0028125
v -0.03961569 -0.05649075 -0.0065625
v -0.03961569 -0.05649075 -0.0028125
v -0.03949674 -0.05643762 -0.0065625
v -0.03949674 -0.05643762 -0.0028125
v -0.039379305 -0.05638188 -0.0065625
v -0.039379305 -0.05638188 -0.0028125
v -0.039263595 -0.056323635 -0.0065625
v -0.039263595 -0.056323635 -0.0028125
v -0.039149775 -0.056262945 -0.0065625
v -0.039149775 -0.056262945 -0.0028125
v -0.03903807 -0.0561999 -0.0065625
v -0.03903807 -0.0561999 -0.0028125
v -0.03892866 -0.05613459 -0.0065625
v -0.03892866 -0.05613459 -0.0028125
v -0.03882132 -0.056066805 -0.0065625
v -0.03882132 -0.056066805 -0.0028125
v -0.03871497 -0.05599593 -0.0065625
v -0.03871497 -0.05599593 -0.0028125
v -0.03860973 -0.05592204 -0.0065625
v -0.03860973 -0.05592204 -0.0028125
v -0.038505765 -0.05584527 -0.0065625
v -0.038505765 -0.05584527 -0.0028125
v -0.038403195 -0.0557658 -0.0065625
v -0.038403195 -0.0557658 -0.0028125
v -0.038302215 -0.055683735 -0.0065625
v -0.038302215 -0.055683735 -0.0028125
v -0.03820296 -0.055599225 -0.0065625
v -0.03820296 -0.055599225 -0.0028125
v -0.038105595 -0.05551242 -0.0065625
v -0.038105595 -0.05551242 -0.0028125
v -0.038010285 -0.05542347 -0.0065625
v -0.038010285 -0.05542347 -0.0028125
v -0.03791718 -0.055332495 -0.0065625
v -0.03791718 -0.055332495 -0.0028125
v -0.037826445 -0.055239645 -0.0065625
v -0.037826445 -0.055239645 -0.0028125
v -0.037738245 -0.05514507 -0.0065625
v -0.037738245 -0.05514507 -0.0028125
v -0.037652715 -0.05504892 -0.0065625
v -0.037652715 -0.05504892 -0.0028125
v -0.03757005 -0.0549513 -0.0065625
v -0.03757005 -0.0549513 -0.0028125
v -0.037490355 -0.054852375 -0.0065625
v -0.037490355 -0.054852375 -0.0028125
v -0.037413015 -0.054751275 -0.0065625
v -0.037413015 -0.054751275 -0.0028125
v -0.03733767 -0.05464761 -0.0065625
v -0.03733767 -0.05464761 -0.0028125
v -0.03726441 -0.054541575 -0.0065625
v -0.03726441 -0.054541575 -0.0028125
v -0.03719334 -0.054433335 -0.0065625
v -0.03719334 -0.054433335 -0.0028125
v -0.03712458 -0.054323085 -0.0065625
v -0.03712458 -0.054323085 -0.0028125
v -0.037058205 -0.054211035 -0.0065625
v -0.037058205 -0.054211035 -0.0028125
v -0.036994335 -0.054097335 -0.0065625
v -0.036994335 -0.054097335 -0.0028125
v -0.03693306 -0.053982195 -0.0065625
v -0.03693306 -0.053982195 -0.0028125
v -0.036874485 -0.053865795 -0.0065625
v -0.036874485 -0.053865795 -0.0028125
v -0.036818715 -0.05374833 -0.0065625
v -0.036818715 -0.05374833 -0.0028125
v -0.036765855 -0.05362998 -0.0065625
v -0.036765855 -0.05362998 -0.0028125
v -0.036715995 -0.053510925 -0.0065625
v -0.036715995 -0.053510925 -0.0028125
v -0.03666924 -0.05339136 -0.0065625
v -0.03666924 -0.05339136 -0.0028125
v -0.036625695 -0.05327148 -0.0065625
v -0.036625695 -0.05327148 -0.0028125
v -0.03658539 -0.0531513 -0.0065625
v -0.03658539 -0.0531513 -0.0028125
v -0.036547965 -0.053030235 -0.0065625
v -0.036547965 -0.053030235 -0.0028125
v -0.03651342 -0.052908225 -0.0065625
v -0.03651342 -0.052908225 -0.0028125
v -0.036481725 -0.052785225 -0.0065625
v -0.036481725 -0.052785225 -0.0028125
v -0.036452895 -0.052661265 -0.0065625
v -0.036452895 -0.052661265 -0.0028125
v -0.03642693 -0.05253636 -0.0065625
v -0.03642693 -0.05253636 -0.0028125
v -0.036403815 -0.052410465 -0.0065625
v -0.036403815 -0.052410465 -0.0028125
v -0.036383565 -0.052283625 -0.0065625
v -0.036383565 -0.052283625 -0.0028125
v -0.03636618 -0.05215581 -0.0065625
v -0.03636618 -0.05215581 -0.0028125
v -0.03635166 -0.052027035 -0.0065625
v -0.03635166 -0.052027035 -0.0028125
v -0.03633999 -0.051897285 -0.0065625
v -0.03633999 -0.051897285 -0.0028125
v -0.036331185 -0.051766575 -0.0065625
v -0.036331185 -0.051766575 -0.0028125
v -0.03632523 -0.051634905 -0.0065625
v -0.03632523 -0.051634905 -0.0028125
v -0.036322155 -0.051502275 -0.0065625
v -0.036322155 -0.051502275 -0.0028125
v -0.03632193 -0.05136867 -0.0065625
v -0.03632193 -0.05136867 -0.0028125
v -0.036337335 -0.050610825 -0.0065625
v -0.036337335 -0.050610825 -0.0028125
v -0.036355365 -0.04985313 -0.0065625
v -0.036355365 -0.04985313 -0.0028125
v -0.036376005 -0.049095585 -0.0065625
v -0.036376005 -0.049095585 -0.0028125
v -0.036399285 -0.04833819 -0.0065625
v -0.036399285 -0.04833819 -0.0028125
v -0.03642519 -0.04758093 -0.0065625
v -0.03642519 -0.04758093 -0.0028125
v -0.036453705 -0.04682385 -0.0065625
v -0.036453705 -0.04682385 -0.0028125
v -0.036484845 -0.046066905 -0.0065625
v -0.036484845 -0.046066905 -0.0028125
v -0.036518595 -0.045310125 -0.0065625
v -0.036518595 -0.045310125 -0.0028125
v -0.036519285 -0.045232425 -0.0065625
v -0.03651903 -0.04522761 -0.0028125
v -0.036524775 -0.04515225 -0.0065625
v -0.03652509 -0.04514259 -0.0028125
v -0.03653508 -0.045069615 -0.0065625
v -0.036536775 -0.04505505 -0.0028125
v -0.036549345 -0.04498395 -0.0065625
v -0.03655326 -0.04496418 -0.0028125
v -0.036567135 -0.044894985 -0.0065625
v -0.03657411 -0.04486959 -0.0028125
v -0.036592125 -0.044805105 -0.0065625
v -0.03660294 -0.044774745 -0.0028125
v -0.036627825 -0.044716035 -0.0065625
v -0.03664326 -0.044682315 -0.0028125
v -0.036673305 -0.044624925 -0.0065625
v -0.036667665 -0.044635605 -0.0028125
v -0.03669459 -0.044589 -0.0028125
v -0.03669942 -0.04457985 -0.0065625
v -0.03672384 -0.044543295 -0.0028125
v -0.03672777 -0.04453608 -0.0065625
v -0.036755235 -0.044499285 -0.0028125
v -0.03675831 -0.04449432 -0.0065625
v -0.036788565 -0.044457735 -0.0028125
v -0.036791025 -0.044455245 -0.0065625
v -0.03682374 -0.04441935 -0.0028125
v -0.036826335 -0.04441773 -0.0065625
v -0.036861405 -0.044383185 -0.0028125
v -0.03686412 -0.04438155 -0.0065625
v -0.0369015 -0.04434891 -0.0028125
v -0.036904065 -0.044347095 -0.0065625
v -0.036943605 -0.04431675 -0.0028125
v -0.0369459 -0.04431474 -0.0065625
v -0.03698727 -0.04428693 -0.0028125
v -0.03698928 -0.04428483 -0.0065625
v -0.03703206 -0.04425966 -0.0028125
v -0.037033935 -0.04425777 -0.0065625
v -0.037077555 -0.044235165 -0.0028125
v -0.03708015 -0.044233695 -0.0065625
v -0.037123935 -0.044213595 -0.0028125
v -0.037129005 -0.04421217 -0.0065625
v -0.0371724 -0.04419483 -0.0028125
v -0.037179795 -0.044193135 -0.0065625
v -0.03722232 -0.044178705 -0.0028125
v -0.037231695 -0.044176605 -0.0065625
v -0.03727293 -0.04416507 -0.0028125
v -0.03728385 -0.04416255 -0.0065625
v -0.037335465 -0.044150985 -0.0065625
v -0.037373235 -0.044144655 -0.0028125
v -0.0373857 -0.044141895 -0.0065625
v -0.037435455 -0.04413594 -0.0065625
v -0.03746874 -0.04413327 -0.0028125
v -0.03753483 -0.044132745 -0.0065625
v -0.037562055 -0.04413255 -0.0028125
v -0.03763182 -0.044137215 -0.0065625
v -0.037652475 -0.04413861 -0.0028125
v -0.03772392 -0.04414491 -0.0065625
v -0.03773877 -0.04414713 -0.0028125
v -0.03781146 -0.044156355 -0.0065625
v -0.037821045 -0.044158635 -0.0028125
v -0.03789498 -0.04417257 -0.0065625
v -0.03789963 -0.044174115 -0.0028125
v -0.03797451 -0.044193555 -0.0065625
v -0.03797451 -0.044193555 -0.0028125
v -0.049562385 -0.04673628 -0.0065625
v -0.049562385 -0.04673628 -0.0028125
v -0.049648545 -0.046753635 -0.0065625
v -0.04961448 -0.046745625 -0.0028125
v -0.04966602 -0.046757235 -0.0028125
v -0.04973418 -0.046777275 -0.0065625
v -0.04971699 -0.046771125 -0.0028125
v -0.049767405 -0.046787295 -0.0028125
v -0.04981953 -0.04680675 -0.0065625
v -0.049817295 -0.046805745 -0.0028125
v -0.049867575 -0.046826625 -0.0028125
v -0.04990464 -0.046841955 -0.0065625
v -0.049917765 -0.04684986 -0.0028125
v -0.049987545 -0.04688694 -0.0065625
v -0.049966695 -0.046875255 -0.0028125
v -0.050013165 -0.04690263 -0.0028125
v -0.05006892 -0.04694205 -0.0065625
v -0.05005617 -0.04693185 -0.0028125
v -0.05013411 -0.046997175 -0.0028125
v -0.050146215 -0.047007795 -0.0065625
v -0.05018223 -0.047045445 -0.0065625
v -0.05020248 -0.04706859 -0.0028125
v -0.05021709 -0.047086905 -0.0065625
v -0.050250465 -0.04713123 -0.0065625
v -0.05026101 -0.047143725 -0.0028125
v -0.050281935 -0.047177295 -0.0065625
v -0.05031027 -0.047223075 -0.0028125
v -0.05031105 -0.047224005 -0.0065625
v -0.050337615 -0.04727094 -0.0065625
v -0.05035362 -0.047303715 -0.0028125
v -0.05036199 -0.04731891 -0.0065625
v -0.050384175 -0.047367975 -0.0065625
v -0.050404185 -0.047418135 -0.0065625
v -0.04352937 -0.056662005 -0.0028125
v -0.043607415 -0.05194944 -0.0028125
v -0.04362741 -0.05187234 -0.0028125
v -0.04358508 -0.052024695 -0.0028125
v -0.04364154 -0.05179395 -0.0028125
v -0.043652535 -0.056619435 -0.0028125
v -0.04365276 -0.051716265 -0.0028125
v -0.04366107 -0.051639255 -0.0028125
v -0.04366647 -0.05156295 -0.0028125
v -0.04366896 -0.05148732 -0.0028125
v -0.043774425 -0.05657415 -0.0028125
v -0.049562385 -0.04673628 -0.0028125
v -0.04366854 -0.051412395 -0.0028125
v -0.043894845 -0.056526195 -0.0028125
v -0.044013615 -0.056475645 -0.0028125
v -0.044130495 -0.05642256 -0.0028125
v -0.044245305 -0.056367015 -0.0028125
v -0.044358015 -0.05630901 -0.0028125
v -0.044469255 -0.056248335 -0.0028125
v -0.04457913 -0.056184975 -0.0028125
v -0.04468761 -0.056118945 -0.0028125
v -0.044794725 -0.056050215 -0.0028125
v -0.04490046 -0.0559788 -0.0028125
v -0.045004815 -0.0559047 -0.0028125
v -0.04510779 -0.055827915 -0.0028125
v -0.045209385 -0.055748445 -0.0028125
v -0.045309615 -0.055666275 -0.0028125
v -0.045408465 -0.055581435 -0.0028125
v -0.04550592 -0.055493895 -0.0028125
v -0.04560201 -0.055403685 -0.0028125
v -0.045696735 -0.055310775 -0.0028125
v -0.045790065 -0.05521518 -0.0028125
v -0.045959115 -0.05503677 -0.0028125
v -0.04613037 -0.05486025 -0.0028125
v -0.04630383 -0.054685635 -0.0028125
v -0.04647951 -0.05451291 -0.0028125
v -0.04665741 -0.05434209 -0.0028125
v -0.046837515 -0.05417316 -0.0028125
v -0.04701984 -0.054006135 -0.0028125
v -0.04720437 -0.053841 -0.0028125
v -0.047391105 -0.05367777 -0.0028125
v -0.04758006 -0.05351637 -0.0028125
v -0.047771205 -0.05335683 -0.0028125
v -0.047964555 -0.05319915 -0.0028125
v -0.048160125 -0.053043405 -0.0028125
v -0.048357915 -0.05288958 -0.0028125
v -0.04855794 -0.05273775 -0.0028125
v -0.048760215 -0.05258793 -0.0028125
v -0.048964725 -0.052440165 -0.0028125
v -0.04917147 -0.052294455 -0.0028125
v -0.049380465 -0.052150725 -0.0028125
v -0.049591695 -0.052009005 -0.0028125
v -0.04961448 -0.046745625 -0.0028125
v -0.04966602 -0.046757235 -0.0028125
v -0.04971699 -0.046771125 -0.0028125
v -0.049767405 -0.046787295 -0.0028125
v -0.04980516 -0.05186928 -0.0028125
v -0.049817295 -0.046805745 -0.0028125
v -0.049867575 -0.046826625 -0.0028125
v -0.049917765 -0.04684986 -0.0028125
v -0.049966695 -0.046875255 -0.0028125
v -0.050013165 -0.04690263 -0.0028125
v -0.05002086 -0.05173155 -0.0028125
v -0.05005617 -0.04693185 -0.0028125
v -0.05013411 -0.046997175 -0.0028125
v -0.05020248 -0.04706859 -0.0028125
v -0.05023878 -0.0515958 -0.0028125
v -0.05026101 -0.047143725 -0.0028125
v -0.05031027 -0.047223075 -0.0028125
v -0.05035362 -0.047303715 -0.0028125
v -0.050391 -0.04738569 -0.0028125
v -0.050422005 -0.047469375 -0.0028125
v -0.05045895 -0.05146206 -0.0028125
v -0.0505983 -0.04790583 -0.0028125
v -0.050681355 -0.0513303 -0.0028125
v -0.050782635 -0.048338745 -0.0028125
v -0.05090598 -0.05120055 -0.0028125
v -0.05097501 -0.04876809 -0.0028125
v -0.050954625 -0.051176925 -0.0028125
v -0.0510018 -0.05115159 -0.0028125
v -0.051175425 -0.049193895 -0.0028125
v -0.051047505 -0.051124545 -0.0028125
v -0.051091755 -0.05109579 -0.0028125
v -0.05113455 -0.051065325 -0.0028125
v -0.051175875 -0.05103315 -0.0028125
v -0.051383865 -0.04961613 -0.0028125
v -0.051215745 -0.050999265 -0.0028125
v -0.051254475 -0.050963565 -0.0028125
v -0.051292485 -0.050925855 -0.0028125
v -0.051329325 -0.050886345 -0.0028125
v -0.051364515 -0.0508452 -0.0028125
v -0.05139756 -0.050802585 -0.0028125
v -0.051410565 -0.049661205 -0.0028125
v -0.05142801 -0.050758695 -0.0028125
v -0.051435225 -0.049706985 -0.0028125
v -0.051455355 -0.05071371 -0.0028125
v -0.051457845 -0.049753455 -0.0028125
v -0.051478425 -0.049800615 -0.0028125
v -0.0514794 -0.05066754 -0.0028125
v -0.051496965 -0.049848465 -0.0028125
v -0.051500895 -0.050619435 -0.0028125
v -0.05151348 -0.04989702 -0.0028125
v -0.05151987 -0.050569695 -0.0028125
v -0.051527955 -0.049946265 -0.0028125
v -0.051536205 -0.05051877 -0.0028125
v -0.051540615 -0.04999647 -0.0028125
v -0.05154981 -0.050467095 -0.0028125
v -0.05155176 -0.050047965 -0.0028125
v -0.051560595 -0.050415075 -0.0028125
v -0.051561075 -0.050100405 -0.0028125
v -0.051568215 -0.05015337 -0.0028125
v -0.05156844 -0.050363145 -0.0028125
v -0.05157285 -0.0502065 -0.0028125
v -0.05157324 -0.05031159 -0.0028125
v -0.051574635 -0.05025936 -0.0028125
v -0.04366521 -0.051338145 -0.0028125
v -0.04365897 -0.051264585 -0.0028125
v -0.043649805 -0.05119173 -0.0028125
v -0.043637745 -0.05111955 -0.0028125
v -0.043622775 -0.051048075 -0.0028125
v -0.0436047 -0.05097687 -0.0028125
v -0.04358325 -0.050905455 -0.0028125
v -0.04355862 -0.05083413 -0.0028125
v -0.04353093 -0.050763225 -0.0028125
v -0.043500345 -0.050693055 -0.0028125
v -0.043467045 -0.050623935 -0.0028125
v -0.043431165 -0.05055621 -0.0028125
v -0.043392885 -0.05049018 -0.0028125
v -0.04335234 -0.05042616 -0.0028125
v -0.043309695 -0.050364495 -0.0028125
v -0.043265115 -0.050305485 -0.0028125
v -0.043218345 -0.05024895 -0.0028125
v -0.04316847 -0.05019372 -0.0028125
v -0.043115715 -0.05013993 -0.0028125
v -0.043060365 -0.050087805 -0.0028125
v -0.043002675 -0.050037555 -0.0028125
v -0.042942945 -0.04998942 -0.0028125
v -0.04288146 -0.04994361 -0.0028125
v -0.042818505 -0.049900335 -0.0028125
v -0.04275435 -0.04985985 -0.0028125
v -0.04268928 -0.049822335 -0.0028125
v -0.04262358 -0.049788045 -0.0028125
v -0.042557145 -0.049756995 -0.0028125
v -0.042488565 -0.04972851 -0.0028125
v -0.04241796 -0.049702575 -0.0028125
v -0.042345675 -0.04967925 -0.0028125
v -0.042272055 -0.04965861 -0.0028125
v -0.042197475 -0.04964076 -0.0028125
v -0.042122265 -0.049625745 -0.0028125
v -0.04204677 -0.049613655 -0.0028125
v -0.041971365 -0.04960458 -0.0028125
v -0.04189638 -0.049598565 -0.0028125
v -0.04182216 -0.049595715 -0.0028125
v -0.04174884 -0.049596105 -0.0028125
v -0.041674815 -0.049599735 -0.0028125
v -0.041600025 -0.04960656 -0.0028125
v -0.041524815 -0.049616475 -0.0028125
v -0.041449515 -0.04962939 -0.0028125
v -0.0413745 -0.04964526 -0.0028125
v -0.0413001 -0.049663965 -0.0028125
v -0.04122669 -0.04968543 -0.0028125
v -0.041154585 -0.049709595 -0.0028125
v -0.03797451 -0.044193555 -0.0028125
v -0.041084145 -0.049736355 -0.0028125
v -0.04101573 -0.049765635 -0.0028125
v -0.040949595 -0.04979739 -0.0028125
v -0.040884405 -0.04983231 -0.0028125
v -0.04081986 -0.049870455 -0.0028125
v -0.040756245 -0.049911615 -0.0028125
v -0.040693815 -0.04995555 -0.0028125
v -0.04063287 -0.050002035 -0.0028125
v -0.040573695 -0.05005086 -0.0028125
v -0.040516545 -0.050101785 -0.0028125
v -0.04046172 -0.050154585 -0.0028125
v -0.040409475 -0.050209035 -0.0028125
v -0.04036011 -0.05026491 -0.0028125
v -0.04031388 -0.050322 -0.0028125
v -0.04027035 -0.05038065 -0.0028125
v -0.040229175 -0.050441145 -0.0028125
v -0.040190355 -0.050503485 -0.0028125
v -0.04015389 -0.050567655 -0.0028125
v -0.04011978 -0.050633685 -0.0028125
v -0.040088025 -0.05070156 -0.0028125
v -0.038010285 -0.05542347 -0.0028125
v -0.03791718 -0.055332495 -0.0028125
v -0.040058625 -0.05077128 -0.0028125
v -0.038105595 -0.05551242 -0.0028125
v -0.03820296 -0.055599225 -0.0028125
v -0.04003158 -0.050842845 -0.0028125
v -0.038302215 -0.055683735 -0.0028125
v -0.040006875 -0.050916255 -0.0028125
v -0.038403195 -0.0557658 -0.0028125
v -0.038505765 -0.05584527 -0.0028125
v -0.03998454 -0.05099151 -0.0028125
v -0.03860973 -0.05592204 -0.0028125
v -0.039964545 -0.051068595 -0.0028125
v -0.03871497 -0.05599593 -0.0028125
v -0.03882132 -0.056066805 -0.0028125
v -0.03892866 -0.05613459 -0.0028125
v -0.039950415 -0.051146985 -0.0028125
v -0.03903807 -0.0561999 -0.0028125
v -0.039149775 -0.056262945 -0.0028125
v -0.039939195 -0.051224685 -0.0028125
v -0.039263595 -0.056323635 -0.0028125
v -0.039930885 -0.05130168 -0.0028125
v -0.039379305 -0.05638188 -0.0028125
v -0.03949674 -0.05643762 -0.0028125
v -0.039925485 -0.051378 -0.0028125
v -0.03961569 -0.05649075 -0.0028125
v -0.039735945 -0.05654121 -0.0028125
v -0.039922995 -0.051453615 -0.0028125
v -0.039857325 -0.056588925 -0.0028125
v -0.039923415 -0.051528555 -0.0028125
v -0.039926745 -0.051602805 -0.0028125
v -0.039932985 -0.05167635 -0.0028125
v -0.03994215 -0.05174922 -0.0028125
v -0.03995421 -0.051821385 -0.0028125
v -0.03996918 -0.051892875 -0.0028125
v -0.03997962 -0.05663379 -0.0028125
v -0.039987255 -0.051964065 -0.0028125
v -0.04000869 -0.05203548 -0.0028125
v -0.040033335 -0.052106805 -0.0028125
v -0.040061025 -0.05217771 -0.0028125
v -0.040091595 -0.05224788 -0.0028125
v -0.04010265 -0.056675745 -0.0028125
v -0.04012491 -0.052317 -0.0028125
v -0.04016079 -0.05238474 -0.0028125
v -0.04019907 -0.05245077 -0.0028125
v -0.040226205 -0.0567147 -0.0028125
v -0.040239615 -0.052514775 -0.0028125
v -0.04028226 -0.052576455 -0.0028125
v -0.04032684 -0.05263545 -0.0028125
v -0.04035009 -0.056750595 -0.0028125
v -0.04037361 -0.052692 -0.0028125
v -0.04042347 -0.05274723 -0.0028125
v -0.040474125 -0.05678331 -0.0028125
v -0.04047624 -0.05280102 -0.0028125
v -0.04053159 -0.052853145 -0.0028125
v -0.04058928 -0.05290338 -0.0028125
v -0.04059807 -0.0568128 -0.0028125
v -0.04064901 -0.05295153 -0.0028125
v -0.040710495 -0.05299734 -0.0028125
v -0.040722285 -0.056839095 -0.0028125
v -0.04077345 -0.0530406 -0.0028125
v -0.040837605 -0.0530811 -0.0028125
v -0.040847925 -0.05686245 -0.0028125
v -0.040902675 -0.0531186 -0.0028125
v -0.040968375 -0.05315289 -0.0028125
v -0.040974885 -0.056882895 -0.0028125
v -0.041034795 -0.05318394 -0.0028125
v -0.04110294 -0.0569004 -0.0028125
v -0.04110339 -0.053212425 -0.0028125
v -0.041173995 -0.053238375 -0.0028125
v -0.041231865 -0.056914965 -0.0028125
v -0.04124628 -0.0532617 -0.0028125
v -0.0413199 -0.053282325 -0.0028125
v -0.04136148 -0.05692659 -0.0028125
v -0.04139448 -0.05330019 -0.0028125
v -0.04146969 -0.053315205 -0.0028125
v -0.041491545 -0.056935245 -0.0028125
v -0.041545185 -0.05332728 -0.0028125
v -0.04162059 -0.05333637 -0.0028125
v -0.04162185 -0.05694093 -0.0028125
v -0.041695575 -0.05334237 -0.0028125
v -0.0417522 -0.05694366 -0.0028125
v -0.041769795 -0.05334522 -0.0028125
v -0.041843115 -0.053344845 -0.0028125
v -0.04188237 -0.05694339 -0.0028125
v -0.04191714 -0.0533412 -0.0028125
v -0.04199193 -0.05333439 -0.0028125
v -0.04201215 -0.056940135 -0.0028125
v -0.04206714 -0.053324475 -0.0028125
v -0.042141315 -0.056933865 -0.0028125
v -0.04214244 -0.053311545 -0.0028125
v -0.042217455 -0.05329569 -0.0028125
v -0.04226967 -0.056924595 -0.0028125
v -0.04229184 -0.053276985 -0.0028125
v -0.042365265 -0.053255505 -0.0028125
v -0.042397005 -0.056912295 -0.0028125
v -0.04243737 -0.053231355 -0.0028125
v -0.042507795 -0.053204595 -0.0028125
v -0.04252311 -0.056896965 -0.0028125
v -0.042576225 -0.053175315 -0.0028125
v -0.04264236 -0.053143545 -0.0028125
v -0.04264905 -0.056878455 -0.0028125
v -0.04270755 -0.05310864 -0.0028125
v -0.042772095 -0.05307048 -0.0028125
v -0.042775335 -0.056856705 -0.0028125
v -0.04283571 -0.053029335 -0.0028125
v -0.04289814 -0.052985385 -0.0028125
v -0.0429018 -0.056831805 -0.0028125
v -0.042959085 -0.0529389 -0.0028125
v -0.04301826 -0.05289009 -0.0028125
v -0.043028205 -0.0568038 -0.0028125
v -0.04307541 -0.052839165 -0.0028125
v -0.043130235 -0.052786365 -0.0028125
v -0.043154385 -0.05677275 -0.0028125
v -0.04318248 -0.0527319 -0.0028125
v -0.043231845 -0.052676025 -0.0028125
v -0.04327809 -0.05261895 -0.0028125
v -0.0432801 -0.05673873 -0.0028125
v -0.043321605 -0.0525603 -0.0028125
v -0.04336278 -0.052499805 -0.0028125
v -0.0434016 -0.052437465 -0.0028125
v -0.043405155 -0.056701785 -0.0028125
v -0.043438065 -0.05237328 -0.0028125
v -0.043472175 -0.05230725 -0.0028125
v -0.04350393 -0.052239375 -0.0028125
v -0.04353333 -0.05216967 -0.0028125
v -0.04356039 -0.052098105 -0.0028125
v -0.03789963 -0.044174115 -0.0028125
v -0.037826445 -0.055239645 -0.0028125
v -0.037821045 -0.044158635 -0.0028125
v -0.037738245 -0.05514507 -0.0028125
v -0.03773877 -0.04414713 -0.0028125
v -0.037652715 -0.05504892 -0.0028125
v -0.037652475 -0.04413861 -0.0028125
v -0.03757005 -0.0549513 -0.0028125
v -0.037562055 -0.04413255 -0.0028125
v -0.037490355 -0.054852375 -0.0028125
v -0.03746874 -0.04413327 -0.0028125
v -0.037413015 -0.054751275 -0.0028125
v -0.037373235 -0.044144655 -0.0028125
v -0.03733767 -0.05464761 -0.0028125
v -0.03727293 -0.04416507 -0.0028125
v -0.03726441 -0.054541575 -0.0028125
v -0.03722232 -0.044178705 -0.0028125
v -0.03719334 -0.054433335 -0.0028125
v -0.0371724 -0.04419483 -0.0028125
v -0.03712458 -0.054323085 -0.0028125
v -0.037123935 -0.044213595 -0.0028125
v -0.037058205 -0.054211035 -0.0028125
v -0.037077555 -0.044235165 -0.0028125
v -0.03703206 -0.04425966 -0.0028125
v -0.036994335 -0.054097335 -0.0028125
v -0.03698727 -0.04428693 -0.0028125
v -0.03693306 -0.053982195 -0.0028125
v -0.036943605 -0.04431675 -0.0028125
v -0.0369015 -0.04434891 -0.0028125
v -0.036874485 -0.053865795 -0.0028125
v -0.036861405 -0.044383185 -0.0028125
v -0.036818715 -0.05374833 -0.0028125
v -0.03682374 -0.04441935 -0.0028125
v -0.036788565 -0.044457735 -0.0028125
v -0.036765855 -0.05362998 -0.0028125
v -0.036755235 -0.044499285 -0.0028125
v -0.036715995 -0.053510925 -0.0028125
v -0.03672384 -0.044543295 -0.0028125
v -0.03669459 -0.044589 -0.0028125
v -0.03666924 -0.05339136 -0.0028125
v -0.036667665 -0.044635605 -0.0028125
v -0.036625695 -0.05327148 -0.0028125
v -0.03664326 -0.044682315 -0.0028125
v -0.03660294 -0.044774745 -0.0028125
v -0.03658539 -0.0531513 -0.0028125
v -0.03657411 -0.04486959 -0.0028125
v -0.036547965 -0.053030235 -0.0028125
v -0.03655326 -0.04496418 -0.0028125
v -0.036536775 -0.04505505 -0.0028125
v -0.03651342 -0.052908225 -0.0028125
v -0.03652509 -0.04514259 -0.0028125
v -0.03651903 -0.04522761 -0.0028125
v -0.036518595 -0.045310125 -0.0028125
v -0.036484845 -0.046066905 -0.0028125
v -0.036481725 -0.052785225 -0.0028125
v -0.036453705 -0.04682385 -0.0028125
v -0.036452895 -0.052661265 -0.0028125
v -0.03642693 -0.05253636 -0.0028125
v -0.03642519 -0.04758093 -0.0028125
v -0.036403815 -0.052410465 -0.0028125
v -0.036399285 -0.04833819 -0.0028125
v -0.036383565 -0.052283625 -0.0028125
v -0.036376005 -0.049095585 -0.0028125
v -0.03636618 -0.05215581 -0.0028125
v -0.036355365 -0.04985313 -0.0028125
v -0.03635166 -0.052027035 -0.0028125
v -0.03633999 -0.051897285 -0.0028125
v -0.036337335 -0.050610825 -0.0028125
v -0.036331185 -0.051766575 -0.0028125
v -0.03632523 -0.051634905 -0.0028125
v -0.036322155 -0.051502275 -0.0028125
v -0.03632193 -0.05136867 -0.0028125
f 1 2 3
f 1 4 2
f 1 3 5
f 1 5 6
f 1 6 7
f 1 7 8
f 9 1 8
f 9 8 10
f 9 10 11
f 9 11 12
f 13 9 12
f 13 12 14
f 13 14 15
f 13 15 16
f 17 13 16
f 17 16 18
f 17 18 19
f 17 19 20
f 21 17 20
f 21 20 22
f 21 22 23
f 24 21 23
f 24 23 25
f 24 25 26
f 27 24 26
f 27 26 28
f 27 28 29
f 30 27 29
f 30 29 31
f 30 31 32
f 33 30 32
f 33 32 34
f 33 34 35
f 36 33 35
f 36 35 37
f 36 37 38
f 39 36 38
f 39 38 40
f 39 40 41
f 42 39 41
f 42 41 43
f 42 43 44
f 45 42 44
f 45 44 46
f 47 45 46
f 47 46 48
f 47 48 49
f 50 47 49
f 50 49 51
f 50 51 52
f 53 50 52
f 53 52 54
f 55 53 54
f 55 54 56
f 55 56 57
f 58 55 57
f 58 57 59
f 58 59 60
f 61 58 60
f 61 60 62
f 61 62 63
f 64 61 63
f 64 63 65
f 64 65 66
f 67 64 66
f 67 66 68
f 69 67 68
f 69 68 70
f 69 70 71
f 72 69 71
f 72 71 73
f 72 73 74
f 75 72 74
f 75 74 76
f 75 76 77
f 78 75 77
f 78 77 79
f 78 79 80
f 78 80 81
f 82 78 81
f 82 81 83
f 82 83 84
f 85 82 84
f 85 84 86
f 85 86 87
f 85 87 88
f 89 85 88
f 89 88 90
f 89 90 91
f 89 91 92
f 93 89 92
f 93 92 94
f 93 94 95
f 93 95 96
f 93 96 97
f 93 97 98
f 99 93 98
f 99 98 100
f 99 100 101
f 99 101 102
f 99 102 103
f 99 103 104
f 99 104 105
f 106 99 105
f 106 105 107
f 108 106 107
f 108 109 106
f 108 107 110
f 108 110 111
f 108 111 112
f 108 112 113
f 108 113 114
f 108 114 115
f 108 115 116
f 108 116 117
f 108 117 118
f 108 118 119
f 108 119 120
f 108 120 121
f 108 121 122
f 108 122 123
f 108 123 124
f 108 124 125
f 108 125 126
f 108 126 127
f 108 127 128
f 108 128 129
f 108 129 130
f 108 130 131
f 108 131 132
f 108 132 133
f 108 133 134
f 108 134 135
f 108 135 136
f 108 136 137
f 108 137 138
f 108 138 139
f 108 139 140
f 108 140 141
f 108 141 142
f 108 142 143
f 108 143 144
f 108 144 145
f 108 145 146
f 108 146 147
f 108 147 148
f 108 148 149
f 108 149 150
f 108 150 151
f 108 151 152
f 108 152 153
f 108 153 154
f 108 154 155
f 108 155 156
f 108 156 157
f 108 157 158
f 108 158 159
f 108 159 160
f 108 160 161
f 108 161 162
f 108 162 163
f 108 163 164
f 108 164 165
f 108 165 166
f 108 166 167
f 108 167 168
f 108 168 169
f 108 169 170
f 171 170 169
f 108 170 172
f 108 172 173
f 108 173 174
f 108 174 175
f 108 175 176
f 108 176 177
f 108 177 178
f 108 178 179
f 108 179 180
f 108 180 181
f 108 181 182
f 108 182 183
f 108 183 184
f 185 108 184
f 185 184 186
f 187 185 186
f 187 186 188
f 189 187 188
f 190 189 188
f 190 188 191
f 192 190 191
f 193 192 191
f 194 193 191
f 194 191 195
f 196 194 195
f 197 196 195
f 198 197 195
f 199 198 195
f 199 195 200
f 201 199 200
f 202 201 200
f 203 202 200
f 204 203 200
f 205 204 200
f 206 205 200
f 206 200 207
f 200 208 207
f 200 209 208
f 209 210 208
f 209 211 210
f 211 212 210
f 212 213 210
f 212 214 213
f 214 215 213
f 215 216 213
f 216 217 213
f 217 218 213
f 217 219 218
f 219 220 218
f 220 221 218
f 221 222 218
f 222 223 218
f 223 224 218
f 224 225 218
f 224 226 225
f 226 227 225
f 227 228 225
f 227 229 228
f 229 230 228
f 229 231 230
f 229 232 231
f 232 233 231
f 232 234 233
f 234 235 233
f 234 236 235
f 236 237 235
f 236 238 237
f 238 239 237
f 238 240 239
f 240 241 239
f 240 242 241
f 240 243 242
f 243 244 242
f 243 245 244
f 245 246 244
f 245 247 246
f 247 248 246
f 171 169 249
f 250 171 249
f 250 249 251
f 250 251 252
f 252 253 250
f 253 252 254
f 255 253 254
f 255 254 256
f 257 255 256
f 257 256 258
f 259 257 258
f 259 258 260
f 261 259 260
f 262 261 260
f 262 260 263
f 264 262 263
f 264 263 265
f 266 264 265
f 267 266 265
f 267 265 268
f 269 267 268
f 270 269 268
f 270 268 271
f 272 270 271
f 273 272 271
f 273 271 274
f 275 273 274
f 275 274 276
f 276 277 275
f 278 277 276
f 278 276 279
f 280 278 279
f 281 280 279
f 281 279 282
f 283 281 282
f 284 283 282
f 284 282 285
f 286 284 285
f 286 285 287
f 288 286 287
f 289 288 287
f 289 287 290
f 289 290 291
f 289 291 292
f 289 292 4
f 1 289 4
f 108 293 109
f 108 294 293
f 108 295 294
f 108 296 295
f 108 297 296
f 108 298 297
f 108 299 298
f 108 300 299
f 108 301 300
f 108 302 301
f 108 303 302
f 108 304 303
f 108 305 304
f 108 306 305
f 108 307 306
f 108 308 307
f 108 309 308
f 108 310 309
f 310 311 309
f 310 312 311
f 312 313 311
f 312 314 313
f 314 315 313
f 314 316 315
f 316 317 315
f 316 318 317
f 318 319 317
f 318 320 319
f 320 321 319
f 320 322 321
f 322 323 321
f 322 324 323
f 324 325 323
f 325 326 323
f 325 327 326
f 327 328 326
f 327 329 328
f 329 330 328
f 330 331 328
f 330 332 331
f 332 333 331
f 332 334 333
f 334 335 333
f 334 336 335
f 336 337 335
f 337 338 335
f 337 339 338
f 339 340 338
f 339 341 340
f 341 342 340
f 342 343 340
f 342 344 343
f 344 345 343
f 344 346 345
f 346 347 345
f 347 348 345
f 347 349 348
f 349 350 348
f 350 351 348
f 350 352 351
f 352 353 351
f 352 354 353
f 354 355 353
f 354 356 355
f 356 357 355
f 357 358 355
f 357 359 358
f 359 360 358
f 360 361 358
f 361 362 358
f 362 363 358
f 362 364 363
f 364 365 363
f 364 366 365
f 366 367 365
f 366 368 367
f 368 369 367
f 368 370 369
f 368 371 370
f 371 372 370
f 371 373 372
f 373 374 372
f 373 375 374
f 375 376 374
f 375 377 376
f 377 378 376
f 377 379 378
f 377 380 379
f 380 381 379
f 380 382 381
f 383 384 385
f 386 384 383
f 387 383 385
f 387 385 388
f 387 388 389
f 389 388 390
f 389 390 391
f 391 390 392
f 391 392 393
f 393 392 394
f 393 394 395
f 395 394 396
f 395 396 397
f 397 396 398
f 397 398 399
f 399 398 400
f 399 400 401
f 401 400 402
f 401 402 403
f 403 402 404
f 403 404 405
f 405 404 406
f 405 406 407
f 407 406 408
f 407 408 409
f 409 408 410
f 409 410 411
f 411 410 412
f 411 412 413
f 413 412 414
f 413 414 415
f 415 414 416
f 415 416 417
f 417 416 418
f 417 418 419
f 419 418 420
f 419 420 421
f 421 420 422
f 421 422 423
f 423 422 424
f 423 424 425
f 425 424 426
f 425 426 427
f 427 426 428
f 427 428 429
f 429 428 430
f 429 430 431
f 431 430 432
f 431 432 433
f 433 432 434
f 433 434 435
f 435 434 436
f 435 436 437
f 437 436 438
f 437 438 439
f 439 438 440
f 439 440 441
f 441 440 442
f 441 442 443
f 443 442 444
f 443 444 445
f 445 444 446
f 445 446 447
f 447 446 448
f 447 448 449
f 449 448 450
f 449 450 451
f 451 450 452
f 451 452 453
f 453 452 454
f 453 454 455
f 455 454 456
f 455 456 457
f 457 456 458
f 457 458 459
f 459 458 460
f 459 460 461
f 461 460 462
f 461 462 463
f 463 462 464
f 463 464 465
f 465 464 466
f 465 466 467
f 467 466 468
f 467 468 469
f 469 468 470
f 469 470 471
f 471 470 472
f 471 472 473
f 473 472 474
f 473 474 475
f 475 474 476
f 475 476 477
f 477 476 478
f 477 478 479
f 479 478 480
f 479 480 481
f 481 480 482
f 481 482 483
f 483 482 484
f 483 484 485
f 485 484 486
f 485 486 487
f 487 486 488
f 487 488 489
f 489 488 490
f 489 490 491
f 491 490 492
f 491 492 493
f 493 492 494
f 493 494 495
f 495 494 496
f 495 496 497
f 497 496 498
f 497 498 499
f 499 498 500
f 499 500 501
f 501 500 502
f 501 502 503
f 503 502 504
f 503 504 505
f 505 504 506
f 505 506 507
f 507 506 508
f 507 508 509
f 509 508 510
f 509 510 511
f 511 510 512
f 511 512 513
f 513 512 514
f 513 514 515
f 515 514 516
f 515 516 517
f 517 516 518
f 517 518 519
f 519 518 520
f 519 520 521
f 521 520 522
f 521 522 523
f 523 522 524
f 523 524 525
f 525 524 526
f 525 526 527
f 527 526 528
f 527 528 529
f 529 528 530
f 529 530 531
f 531 530 532
f 531 532 533
f 533 532 534
f 533 534 535
f 535 534 536
f 535 536 537
f 537 536 538
f 537 538 539
f 539 538 540
f 539 540 541
f 541 540 542
f 541 542 543
f 543 542 544
f 543 544 545
f 545 544 546
f 545 546 547
f 547 546 548
f 547 548 549
f 549 548 550
f 549 550 551
f 551 550 552
f 551 552 553
f 553 552 554
f 553 554 555
f 555 554 556
f 555 556 557
f 557 556 558
f 557 558 559
f 559 558 560
f 559 560 561
f 561 560 562
f 561 562 563
f 563 562 564
f 563 564 565
f 565 564 566
f 565 566 567
f 567 566 568
f 567 568 569
f 569 568 570
f 569 570 571
f 571 570 572
f 571 572 573
f 573 572 574
f 573 574 575
f 575 574 576
f 575 576 577
f 577 576 578
f 577 578 579
f 579 578 580
f 579 580 581
f 581 580 582
f 581 582 583
f 583 582 584
f 583 584 585
f 585 584 586
f 585 586 587
f 587 586 588
f 587 588 589
f 589 588 590
f 589 590 591
f 591 590 592
f 591 592 593
f 593 592 594
f 593 594 595
f 595 594 596
f 595 596 597
f 597 596 598
f 597 598 599
f 599 598 600
f 599 600 601
f 601 600 602
f 601 602 603
f 603 602 604
f 603 604 605
f 605 604 606
f 605 606 607
f 607 606 608
f 607 608 609
f 609 608 610
f 609 610 611
f 611 610 612
f 611 612 613
f 613 612 614
f 613 614 615
f 615 614 616
f 615 616 617
f 617 616 618
f 617 618 619
f 619 618 620
f 619 620 621
f 621 620 622
f 621 622 623
f 623 622 624
f 623 624 625
f 625 624 626
f 625 626 627
f 627 626 628
f 627 628 629
f 629 628 630
f 629 630 631
f 631 630 632
f 631 632 633
f 633 632 634
f 633 634 635
f 635 634 636
f 635 636 637
f 637 636 638
f 637 638 639
f 639 638 640
f 639 640 641
f 641 640 642
f 641 642 643
f 643 642 644
f 643 644 645
f 645 644 646
f 645 646 647
f 647 646 648
f 647 648 649
f 649 648 650
f 649 650 651
f 651 650 652
f 651 652 653
f 653 652 654
f 653 654 655
f 655 654 656
f 655 656 657
f 657 656 658
f 657 658 659
f 659 658 660
f 659 660 661
f 661 660 662
f 661 662 663
f 663 662 664
f 663 664 665
f 665 664 666
f 665 666 667
f 667 666 668
f 667 668 669
f 669 668 670
f 669 670 671
f 671 670 672
f 671 672 673
f 673 672 674
f 673 674 675
f 675 674 676
f 675 676 677
f 677 676 678
f 677 678 679
f 679 678 680
f 679 680 681
f 681 680 682
f 681 682 683
f 683 682 684
f 683 684 685
f 685 684 686
f 685 686 687
f 687 686 688
f 687 688 689
f 689 688 690
f 689 690 691
f 691 690 692
f 691 692 693
f 693 692 694
f 693 694 386
f 386 694 384
f 695 696 697
f 698 696 695
f 699 695 697
f 699 697 700
f 699 700 701
f 701 700 702
f 701 702 703
f 703 702 704
f 703 704 705
f 705 704 706
f 705 706 707
f 707 706 708
f 707 708 709
f 709 708 710
f 710 708 711
f 710 711 712
f 712 711 713
f 712 713 714
f 714 713 715
f 714 715 716
f 716 715 717
f 716 717 718
f 718 717 719
f 718 719 720
f 720 719 721
f 720 721 722
f 722 721 723
f 722 723 724
f 724 723 725
f 724 725 726
f 726 725 727
f 726 727 728
f 728 727 729
f 728 729 730
f 730 729 731
f 730 731 732
f 732 731 733
f 732 733 734
f 734 733 735
f 734 735 736
f 736 735 737
f 736 737 738
f 738 737 739
f 738 739 740
f 740 739 741
f 740 741 742
f 742 741 743
f 742 743 744
f 744 743 745
f 744 745 746
f 746 745 747
f 746 747 748
f 748 747 749
f 748 749 750
f 750 749 751
f 750 751 752
f 752 751 753
f 752 753 754
f 754 753 755
f 754 755 756
f 756 755 757
f 756 757 758
f 758 757 759
f 758 759 760
f 760 759 761
f 760 761 762
f 762 761 763
f 762 763 764
f 764 763 765
f 764 765 766
f 766 765 767
f 766 767 768
f 768 767 769
f 768 769 770
f 770 769 771
f 770 771 772
f 772 771 773
f 772 773 774
f 774 773 775
f 774 775 776
f 776 775 777
f 776 777 778
f 778 777 779
f 778 779 780
f 780 779 781
f 780 781 782
f 782 781 783
f 782 783 784
f 784 783 785
f 784 785 786
f 786 785 787
f 786 787 788
f 788 787 789
f 788 789 790
f 790 789 791
f 790 791 792
f 792 791 793
f 792 793 794
f 794 793 795
f 794 795 796
f 796 795 797
f 796 797 798
f 798 797 799
f 798 799 800
f 800 799 801
f 800 801 802
f 802 801 803
f 802 803 804
f 804 803 805
f 804 805 806
f 806 805 807
f 806 807 808
f 808 807 809
f 808 809 810
f 810 809 811
f 810 811 812
f 812 811 813
f 812 813 814
f 814 813 815
f 814 815 816
f 816 815 817
f 816 817 818
f 818 817 819
f 818 819 820
f 820 819 821
f 820 821 822
f 822 821 823
f 822 823 824
f 824 823 825
f 824 825 826
f 826 825 827
f 826 827 828
f 828 827 829
f 828 829 830
f 830 829 831
f 830 831 832
f 832 831 833
f 832 833 834
f 834 833 835
f 834 835 836
f 836 835 837
f 836 837 838
f 838 837 839
f 838 839 840
f 840 839 841
f 840 841 842
f 842 841 843
f 842 843 844
f 844 843 845
f 844 845 846
f 846 845 847
f 846 847 848
f 848 847 849
f 848 849 850
f 850 849 851
f 850 851 852
f 852 851 853
f 852 853 854
f 854 853 855
f 854 855 856
f 856 855 857
f 856 857 858
f 858 857 859
f 858 859 860
f 860 859 861
f 860 861 862
f 862 861 863
f 862 863 864
f 864 863 865
f 864 865 866
f 866 865 867
f 866 867 868
f 868 867 869
f 868 869 870
f 870 869 871
f 870 871 872
f 872 871 873
f 872 873 874
f 874 873 875
f 874 875 876
f 876 875 877
f 876 877 878
f 878 877 879
f 878 879 880
f 880 879 881
f 880 881 882
f 882 881 883
f 882 883 884
f 884 883 885
f 884 885 886
f 886 885 887
f 886 887 888
f 888 887 889
f 888 889 890
f 890 889 891
f 890 891 892
f 892 891 893
f 892 893 894
f 894 893 895
f 894 895 896
f 896 895 897
f 896 897 898
f 898 897 899
f 898 899 900
f 900 899 901
f 900 901 902
f 902 901 903
f 902 903 904
f 904 903 905
f 904 905 906
f 906 905 907
f 906 907 908
f 908 907 909
f 908 909 910
f 910 909 911
f 910 911 912
f 912 911 913
f 912 913 914
f 914 913 915
f 914 915 916
f 916 915 917
f 916 917 918
f 918 917 919
f 918 919 920
f 920 919 921
f 920 921 922
f 922 921 923
f 922 923 924
f 924 923 925
f 924 925 926
f 926 925 927
f 926 927 928
f 928 927 929
f 928 929 930
f 930 929 931
f 930 931 932
f 932 931 933
f 932 933 934
f 934 933 935
f 934 935 936
f 936 935 937
f 936 937 938
f 938 937 939
f 938 939 940
f 940 939 941
f 940 941 942
f 942 941 943
f 942 943 944
f 944 943 945
f 944 945 946
f 946 945 947
f 946 947 948
f 948 947 949
f 948 949 950
f 950 949 951
f 950 951 952
f 952 951 953
f 952 953 954
f 954 953 955
f 954 955 956
f 956 955 957
f 956 957 958
f 958 957 959
f 958 959 960
f 960 959 961
f 960 961 962
f 962 961 963
f 962 963 964
f 964 963 965
f 964 965 966
f 966 965 967
f 966 967 968
f 968 967 969
f 968 969 970
f 970 969 971
f 970 971 972
f 972 971 973
f 972 973 974
f 974 973 975
f 974 975 976
f 976 975 977
f 976 977 978
f 978 977 979
f 978 979 980
f 980 979 981
f 980 981 982
f 982 981 983
f 982 983 984
f 984 983 985
f 984 985 986
f 986 985 987
f 986 987 988
f 988 987 989
f 988 989 990
f 990 989 991
f 990 991 992
f 992 991 993
f 992 993 994
f 994 993 995
f 994 995 996
f 996 995 997
f 996 997 998
f 998 997 999
f 998 999 1000
f 1000 999 1001
f 1000 1001 1002
f 1002 1001 1003
f 1002 1003 1004
f 1004 1003 1005
f 1004 1005 1006
f 1006 1005 1007
f 1006 1007 1008
f 1008 1007 1009
f 1008 1009 1010
f 1010 1009 1011
f 1010 1011 1012
f 1012 1011 1013
f 1012 1013 1014
f 1014 1013 1015
f 1014 1015 1016
f 1016 1015 1017
f 1016 1017 1018
f 1018 1017 1019
f 1018 1019 1020
f 1020 1019 1021
f 1020 1021 1022
f 1022 1021 1023
f 1022 1023 1024
f 1024 1023 1025
f 1024 1025 1026
f 1026 1025 1027
f 1026 1027 1028
f 1028 1027 1029
f 1028 1029 1030
f 1030 1029 1031
f 1030 1031 1032
f 1032 1031 1033
f 1032 1033 1034
f 1034 1033 1035
f 1034 1035 1036
f 1036 1035 1037
f 1036 1037 1038
f 1038 1037 1039
f 1038 1039 1040
f 1040 1039 1041
f 1040 1041 1042
f 1042 1041 1043
f 1042 1043 1044
f 1044 1043 1045
f 1044 1045 1046
f 1046 1045 1047
f 1046 1047 1048
f 1048 1047 1049
f 1048 1049 1050
f 1050 1049 1051
f 1050 1051 1052
f 1052 1051 1053
f 1052 1053 1054
f 1054 1053 1055
f 1054 1055 1056
f 1056 1055 1057
f 1056 1057 1058
f 1058 1057 1059
f 1058 1059 1060
f 1060 1059 1061
f 1060 1061 1062
f 1062 1061 1063
f 1062 1063 1064
f 1064 1063 1065
f 1064 1065 1066
f 1066 1065 1067
f 1067 1065 1068
f 1067 1068 1069
f 1069 1068 1070
f 1069 1070 1071
f 1071 1070 1072
f 1071 1072 1073
f 1073 1072 1074
f 1073 1074 1075
f 1075 1074 1076
f 1075 1076 1077
f 1077 1076 1078
f 1077 1078 1079
f 1079 1078 1080
f 1079 1080 1081
f 1081 1080 1082
f 1081 1082 1083
f 1083 1082 1084
f 1083 1084 1085
f 1085 1084 1086
f 1085 1086 1087
f 1087 1086 1088
f 1087 1088 1089
f 1089 1088 1090
f 1089 1090 1091
f 1091 1090 1092
f 1091 1092 1093
f 1093 1092 1094
f 1093 1094 1095
f 1095 1094 1096
f 1095 1096 1097
f 1095 1097 1098
f 1098 1097 1099
f 1098 1099 1100
f 1098 1100 1101
f 1101 1100 1102
f 1101 1102 1103
f 1103 1102 1104
f 1103 1104 1105
f 1105 1104 1106
f 1105 1106 1107
f 1107 1106 1108
f 1107 1108 1109
f 1109 1108 1110
f 1109 1110 1111
f 1111 1110 1112
f 1111 1112 1113
f 1113 1112 1114
f 1113 1114 1115
f 1115 1114 1116
f 1115 1116 1117
f 1117 1116 1118
f 1118 1116 1119
f 1118 1119 1120
f 1120 1119 1121
f 1121 1119 1122
f 1121 1122 1123
f 1123 1122 1124
f 1124 1122 1125
f 1124 1125 1126
f 1126 1125 1127
f 1126 1127 1128
f 1128 1127 1129
f 1129 1127 1130
f 1129 1130 1131
f 1131 1130 1132
f 1132 1130 1133
f 1132 1133 1134
f 1132 1134 1135
f 1135 1134 1136
f 1135 1136 1137
f 1135 1137 1138
f 1138 1137 1139
f 1138 1139 1140
f 1140 1139 1141
f 1140 1141 1142
f 1140 1142 1143
f 1143 1142 1144
f 1143 1144 1145
f 1143 1145 698
f 698 1145 1146
f 698 1146 696
f 1147 1148 1149
f 1147 1150 1148
f 1147 1149 1151
f 1152 1147 1151
f 1152 1151 1153
f 1152 1153 1154
f 1152 1154 1155
f 1152 1155 1156
f 1157 1152 1156
f 1157 1156 1158
f 1158 1156 1159
f 1160 1157 1158
f 1161 1160 1158
f 1162 1161 1158
f 1163 1162 1158
f 1164 1163 1158
f 1165 1164 1158
f 1166 1165 1158
f 1167 1166 1158
f 1168 1167 1158
f 1169 1168 1158
f 1170 1169 1158
f 1171 1170 1158
f 1172 1171 1158
f 1173 1172 1158
f 1174 1173 1158
f 1175 1174 1158
f 1176 1175 1158
f 1177 1176 1158
f 1178 1177 1158
f 1179 1178 1158
f 1180 1179 1158
f 1181 1180 1158
f 1182 1181 1158
f 1183 1182 1158
f 1184 1183 1158
f 1185 1184 1158
f 1186 1185 1158
f 1187 1186 1158
f 1188 1187 1158
f 1189 1188 1158
f 1190 1189 1158
f 1191 1190 1158
f 1192 1191 1158
f 1193 1192 1158
f 1194 1193 1158
f 1195 1194 1158
f 1196 1195 1158
f 1197 1196 1158
f 1198 1197 1158
f 1198 1158 1199
f 1198 1199 1200
f 1198 1200 1201
f 1198 1201 1202
f 1203 1198 1202
f 1203 1202 1204
f 1203 1204 1205
f 1203 1205 1206
f 1203 1206 1207
f 1203 1207 1208
f 1209 1203 1208
f 1209 1208 1210
f 1209 1210 1211
f 1209 1211 1212
f 1213 1209 1212
f 1213 1212 1214
f 1213 1214 1215
f 1213 1215 1216
f 1213 1216 1217
f 1213 1217 1218
f 1219 1213 1218
f 1220 1219 1218
f 1220 1221 1219
f 1220 1222 1221
f 1222 1223 1221
f 1222 1224 1223
f 1224 1225 1223
f 1224 1226 1225
f 1224 1227 1226
f 1227 1228 1226
f 1227 1229 1228
f 1227 1230 1229
f 1227 1231 1230
f 1227 1232 1231
f 1232 1233 1231
f 1232 1234 1233
f 1232 1235 1234
f 1232 1236 1235
f 1232 1237 1236
f 1232 1238 1237
f 1232 1239 1238
f 1239 1240 1238
f 1239 1241 1240
f 1241 1242 1240
f 1241 1243 1242
f 1243 1244 1242
f 1244 1245 1242
f 1244 1246 1245
f 1246 1247 1245
f 1246 1248 1247
f 1248 1249 1247
f 1248 1250 1249
f 1250 1251 1249
f 1250 1252 1251
f 1252 1253 1251
f 1252 1254 1253
f 1254 1255 1253
f 1254 1256 1255
f 1256 1257 1255
f 1257 1258 1255
f 1257 1259 1258
f 1259 1260 1258
f 1259 1261 1260
f 1158 1159 1262
f 1158 1262 1263
f 1158 1263 1264
f 1158 1264 1265
f 1158 1265 1266
f 1158 1266 1267
f 1158 1267 1268
f 1158 1268 1269
f 1158 1269 1270
f 1158 1270 1271
f 1158 1271 1272
f 1158 1272 1273
f 1158 1273 1274
f 1158 1274 1275
f 1158 1275 1276
f 1158 1276 1277
f 1158 1277 1278
f 1158 1278 1279
f 1158 1279 1280
f 1158 1280 1281
f 1158 1281 1282
f 1158 1282 1283
f 1158 1283 1284
f 1158 1284 1285
f 1158 1285 1286
f 1158 1286 1287
f 1158 1287 1288
f 1158 1288 1289
f 1158 1289 1290
f 1158 1290 1291
f 1158 1291 1292
f 1158 1292 1293
f 1158 1293 1294
f 1158 1294 1295
f 1158 1295 1296
f 1158 1296 1297
f 1158 1297 1298
f 1158 1298 1299
f 1158 1299 1300
f 1158 1300 1301
f 1158 1301 1302
f 1158 1302 1303
f 1158 1303 1304
f 1158 1304 1305
f 1158 1305 1306
f 1158 1306 1307
f 1158 1307 1308
f 1309 1158 1308
f 1309 1308 1310
f 1309 1310 1311
f 1309 1311 1312
f 1309 1312 1313
f 1309 1313 1314
f 1309 1314 1315
f 1309 1315 1316
f 1309 1316 1317
f 1309 1317 1318
f 1309 1318 1319
f 1309 1319 1320
f 1309 1320 1321
f 1309 1321 1322
f 1309 1322 1323
f 1309 1323 1324
f 1309 1324 1325
f 1309 1325 1326
f 1309 1326 1327
f 1309 1327 1328
f 1309 1328 1329
f 1330 1309 1329
f 1330 1331 1309
f 1330 1329 1332
f 1333 1330 1332
f 1334 1333 1332
f 1334 1332 1335
f 1336 1334 1335
f 1336 1335 1337
f 1338 1336 1337
f 1339 1338 1337
f 1339 1337 1340
f 1341 1339 1340
f 1341 1340 1342
f 1343 1341 1342
f 1344 1343 1342
f 1345 1344 1342
f 1345 1342 1346
f 1346 1347 1345
f 1348 1347 1346
f 1348 1346 1349
f 1350 1348 1349
f 1350 1349 1351
f 1351 1352 1350
f 1353 1352 1351
f 1353 1351 1354
f 1355 1353 1354
f 1356 1355 1354
f 1356 1354 1357
f 1358 1356 1357
f 1358 1357 1359
f 1358 1359 1360
f 1358 1360 1361
f 1358 1361 1362
f 1358 1362 1363
f 1358 1363 1364
f 1365 1358 1364
f 1365 1364 1366
f 1365 1366 1367
f 1365 1367 1368
f 1365 1368 1369
f 1365 1369 1370
f 1371 1365 1370
f 1371 1370 1372
f 1371 1372 1373
f 1371 1373 1374
f 1375 1371 1374
f 1375 1374 1376
f 1375 1376 1377
f 1375 1377 1378
f 1379 1375 1378
f 1379 1378 1380
f 1379 1380 1381
f 1382 1379 1381
f 1382 1381 1383
f 1382 1383 1384
f 1382 1384 1385
f 1386 1382 1385
f 1386 1385 1387
f 1386 1387 1388
f 1389 1386 1388
f 1389 1388 1390
f 1389 1390 1391
f 1392 1389 1391
f 1392 1391 1393
f 1392 1393 1394
f 1395 1392 1394
f 1395 1394 1396
f 1397 1395 1396
f 1397 1396 1398
f 1397 1398 1399
f 1400 1397 1399
f 1400 1399 1401
f 1400 1401 1402
f 1403 1400 1402
f 1403 1402 1404
f 1403 1404 1405
f 1406 1403 1405
f 1406 1405 1407
f 1406 1407 1408
f 1409 1406 1408
f 1409 1408 1410
f 1411 1409 1410
f 1411 1410 1412
f 1411 1412 1413
f 1414 1411 1413
f 1414 1413 1415
f 1414 1415 1416
f 1417 1414 1416
f 1417 1416 1418
f 1419 1417 1418
f 1419 1418 1420
f 1419 1420 1421
f 1422 1419 1421
f 1422 1421 1423
f 1422 1423 1424
f 1425 1422 1424
f 1425 1424 1426
f 1425 1426 1427
f 1428 1425 1427
f 1428 1427 1429
f 1428 1429 1430
f 1431 1428 1430
f 1431 1430 1432
f 1431 1432 1433
f 1434 1431 1433
f 1434 1433 1435
f 1434 1435 1436
f 1437 1434 1436
f 1437 1436 1438
f 1437 1438 1439
f 1440 1437 1439
f 1440 1439 1441
f 1440 1441 1442
f 1443 1440 1442
f 1443 1442 1444
f 1443 1444 1445
f 1443 1445 1446
f 1447 1443 1446
f 1447 1446 1448
f 1447 1448 1449
f 1447 1449 1450
f 1451 1447 1450
f 1451 1450 1452
f 1451 1452 1453
f 1451 1453 1454
f 1147 1451 1454
f 1147 1454 1455
f 1147 1455 1456
f 1147 1456 1150
f 1331 1457 1309
f 1331 1458 1457
f 1458 1459 1457
f 1458 1460 1459
f 1460 1461 1459
f 1460 1462 1461
f 1462 1463 1461
f 1462 1464 1463
f 1464 1465 1463
f 1464 1466 1465
f 1466 1467 1465
f 1466 1468 1467
f 1468 1469 1467
f 1468 1470 1469
f 1470 1471 1469
f 1470 1472 1471
f 1472 1473 1471
f 1472 1474 1473
f 1474 1475 1473
f 1474 1476 1475
f 1476 1477 1475
f 1476 1478 1477
f 1478 1479 1477
f 1478 1480 1479
f 1478 1481 1480
f 1481 1482 1480
f 1481 1483 1482
f 1483 1484 1482
f 1483 1485 1484
f 1483 1486 1485
f 1486 1487 1485
f 1486 1488 1487
f 1488 1489 1487
f 1488 1490 1489
f 1488 1491 1490
f 1491 1492 1490
f 1491 1493 1492
f 1493 1494 1492
f 1493 1495 1494
f 1493 1496 1495
f 1496 1497 1495
f 1496 1498 1497
f 1498 1499 1497
f 1498 1500 1499
f 1498 1501 1500
f 1501 1502 1500
f 1501 1503 1502
f 1503 1504 1502
f 1503 1505 1504
f 1503 1506 1505
f 1506 1507 1505
f 1506 1508 1507
f 1506 1509 1508
f 1506 1510 1509
f 1506 1511 1510
f 1511 1512 1510
f 1511 1513 1512
f 1513 1514 1512
f 1514 1515 1512
f 1514 1516 1515
f 1516 1517 1515
f 1516 1518 1517
f 1518 1519 1517
f 1518 1520 1519
f 1520 1521 1519
f 1520 1522 1521
f 1522 1523 1521
f 1523 1524 1521
f 1523 1525 1524
f 1525 1526 1524
f 1526 1527 1524
f 1527 1528 1524
