1632 1644 0
v -0.07327557 -0.030632415 0.0046875
v -0.07271898 -0.038074635 0.0046875
v -0.072703125 -0.03825 0.0046875
v -0.072755055 -0.03791094 0.0046875
v -0.0723783 -0.03064458 0.0046875
v -0.054478515 -0.043062075 0.0046875
v -0.07148619 -0.030650925 0.0046875
v -0.07271898 -0.03842538 0.0046875
v -0.072755055 -0.03858906 0.0046875
v -0.07281135 -0.038741085 0.0046875
v -0.072888315 -0.03888186 0.0046875
v -0.072989475 -0.03901491 0.0046875
v -0.07311009 -0.039135525 0.0046875
v -0.07324314 -0.039236685 0.0046875
v -0.073386045 -0.03931422 0.0046875
v -0.07354479 -0.039372315 0.0046875
v -0.073710945 -0.039409065 0.0046875
v -0.073875 -0.039421875 0.0046875
v -0.07403904 -0.039409065 0.0046875
v -0.07751622 -0.038951925 0.0046875
v -0.07420521 -0.039372315 0.0046875
v -0.077560905 -0.03943983 0.0046875
v -0.077600235 -0.03992358 0.0046875
v -0.07763421 -0.040403205 0.0046875
v -0.07766286 -0.04087866 0.0046875
v -0.077686155 -0.041349975 0.0046875
v -0.077702475 -0.041925405 0.0046875
v -0.07770411 -0.04181715 0.0046875
v -0.07770567 -0.04203303 0.0046875
v -0.077713695 -0.04214001 0.0046875
v -0.077726535 -0.04224636 0.0046875
v -0.07774422 -0.042352065 0.0046875
v -0.077766705 -0.042457815 0.0046875
v -0.077794005 -0.042564885 0.0046875
v -0.07782615 -0.04267155 0.0046875
v -0.07786311 -0.04277583 0.0046875
v -0.0779049 -0.042875775 0.0046875
v -0.077951625 -0.042969675 0.0046875
v -0.07800432 -0.04305921 0.0046875
v -0.078062325 -0.04314483 0.0046875
v -0.078124545 -0.04322607 0.0046875
v -0.07818987 -0.043302555 0.0046875
v -0.078257175 -0.04337382 0.0046875
v -0.07840167 -0.04350051 0.0046875
v -0.07855638 -0.04360794 0.0046875
v -0.078711555 -0.043697805 0.0046875
v -0.07886898 -0.043767885 0.0046875
v -0.07902576 -0.043824015 0.0046875
v -0.079177455 -0.043872405 0.0046875
v -0.07932564 -0.04391085 0.0046875
v -0.079470585 -0.043939005 0.0046875
v -0.091389705 -0.051161475 0.0046875
v -0.09235419 -0.046766055 0.0046875
v -0.091503705 -0.051190425 0.0046875
v -0.09156135 -0.051197385 0.0046875
v -0.091619415 -0.051199335 0.0046875
v -0.091677915 -0.051196275 0.0046875
v -0.091738365 -0.051188535 0.0046875
v -0.09180075 -0.051176085 0.0046875
v -0.09186282 -0.051158475 0.0046875
v -0.091922265 -0.05113524 0.0046875
v -0.09197682 -0.0511059 0.0046875
v -0.092027085 -0.05106891 0.0046875
v -0.09207459 -0.051024555 0.0046875
v -0.092118405 -0.050975205 0.0046875
v -0.092157615 -0.050923215 0.0046875
v -0.092191305 -0.05087094 0.0046875
v -0.09221946 -0.05081838 0.0046875
v -0.092242725 -0.05076399 0.0046875
v -0.09226107 -0.050707725 0.0046875
v -0.092283015 -0.050589645 0.0046875
v -0.092414805 -0.04677459 0.0046875
v -0.0924735 -0.04678818 0.0046875
v -0.09253029 -0.04680681 0.0046875
v -0.092585175 -0.04683048 0.0046875
v -0.092638125 -0.046859205 0.0046875
v -0.092690805 -0.04689372 0.0046875
v -0.092743185 -0.046934055 0.0046875
v -0.09279285 -0.046979055 0.0046875
v -0.092837355 -0.047027565 0.0046875
v -0.092874255 -0.04707846 0.0046875
v -0.09290313 -0.04713321 0.0046875
v -0.092925585 -0.04719258 0.0046875
v -0.092926005 -0.047659365 0.0046875
v -0.09294228 -0.04725435 0.0046875
v -0.09295389 -0.047316285 0.0046875
v -0.092954655 -0.04754781 0.0046875
v -0.09296106 -0.04737615 0.0046875
v -0.092963805 -0.047433945 0.0046875
v -0.077466195 -0.03845988 0.0046875
v -0.074363955 -0.03931422 0.0046875
v -0.07741083 -0.03796368 0.0046875
v -0.07738842 -0.037790475 0.0046875
v -0.07450686 -0.039236685 0.0046875
v -0.077370045 -0.037610595 0.0046875
v -0.077354745 -0.037424235 0.0046875
v -0.07734279 -0.037231335 0.0046875
v -0.074639925 -0.039135525 0.0046875
v -0.077341425 -0.03703032 0.0046875
v -0.074760525 -0.03901491 0.0046875
v -0.074861685 -0.03888186 0.0046875
v -0.07493865 -0.038741085 0.0046875
v -0.074994945 -0.03858906 0.0046875
v -0.077003715 -0.030541695 0.0046875
v -0.077512005 -0.030540915 0.0046875
v -0.075031035 -0.03842538 0.0046875
v -0.076499175 -0.030548355 0.0046875
v -0.0759984 -0.030560925 0.0046875
v -0.075046875 -0.03825 0.0046875
v -0.07508562 -0.03059058 0.0046875
v -0.075031035 -0.038074635 0.0046875
v -0.074994945 -0.03791094 0.0046875
v -0.07493865 -0.037758915 0.0046875
v -0.074861685 -0.037618155 0.0046875
v -0.074760525 -0.03748509 0.0046875
v -0.074639925 -0.037364475 0.0046875
v -0.07450686 -0.037263315 0.0046875
v -0.074363955 -0.03718578 0.0046875
v -0.07420521 -0.037127685 0.0046875
v -0.074178015 -0.030614415 0.0046875
v -0.07403904 -0.037090935 0.0046875
v -0.073875 -0.037078125 0.0046875
v -0.073710945 -0.037090935 0.0046875
v -0.07354479 -0.037127685 0.0046875
v -0.073386045 -0.03718578 0.0046875
v -0.07324314 -0.037263315 0.0046875
v -0.07311009 -0.037364475 0.0046875
v -0.072989475 -0.03748509 0.0046875
v -0.072888315 -0.037618155 0.0046875
v -0.07281135 -0.037758915 0.0046875
v -0.07734939 -0.03682032 0.0046875
v -0.07737291 -0.03660402 0.0046875
v -0.07741656 -0.03638061 0.0046875
v -0.077445255 -0.036266805 0.0046875
v -0.077479095 -0.036153675 0.0046875
v -0.07751847 -0.03604272 0.0046875
v -0.078024075 -0.03054606 0.0046875
v -0.07756371 -0.035932245 0.0046875
v -0.077614425 -0.035822115 0.0046875
v -0.07767009 -0.035714145 0.0046875
v -0.07773009 -0.03561018 0.0046875
v -0.077794095 -0.03551166 0.0046875
v -0.07786311 -0.03541683 0.0046875
v -0.07793661 -0.03532587 0.0046875
v -0.07809342 -0.035159085 0.0046875
v -0.078539895 -0.0305571 0.0046875
v -0.078261615 -0.035016045 0.0046875
v -0.07844076 -0.03489426 0.0046875
v -0.078624375 -0.034791255 0.0046875
v -0.079059495 -0.03057405 0.0046875
v -0.078813945 -0.034707645 0.0046875
v -0.07900257 -0.034640475 0.0046875
v -0.079189425 -0.034589775 0.0046875
v -0.079582845 -0.030596895 0.0046875
v -0.079372335 -0.03455364 0.0046875
v -0.07954746 -0.034530075 0.0046875
v -0.079715835 -0.034519035 0.0046875
v -0.080109975 -0.030625665 0.0046875
v -0.079875285 -0.034515855 0.0046875
v -0.08002563 -0.034521375 0.0046875
v -0.080168865 -0.034532115 0.0046875
v -0.080640855 -0.030660315 0.0046875
v -0.08030505 -0.03454707 0.0046875
v -0.080435295 -0.034565805 0.0046875
v -0.080561505 -0.034586595 0.0046875
v -0.080683275 -0.03460983 0.0046875
v -0.081175515 -0.03070089 0.0046875
v -0.080802525 -0.03463377 0.0046875
v -0.080919315 -0.034658385 0.0046875
v -0.08103339 -0.034683885 0.0046875
v -0.08171394 -0.03074745 0.0046875
v -0.082256265 -0.03080109 0.0046875
v -0.082802505 -0.030861705 0.0046875
v -0.08335257 -0.03092883 0.0046875
v -0.083906415 -0.03100197 0.0046875
v -0.08446398 -0.03108063 0.0046875
v -0.085025205 -0.03116433 0.0046875
v -0.08559003 -0.031252575 0.0046875
v -0.086158395 -0.031344885 0.0046875
v -0.086730225 -0.031440765 0.0046875
v -0.08730549 -0.031539735 0.0046875
v -0.08788416 -0.03164172 0.0046875
v -0.08846637 -0.03174777 0.0046875
v -0.08905215 -0.031858005 0.0046875
v -0.08964147 -0.031972395 0.0046875
v -0.090234345 -0.032090955 0.0046875
v -0.09083076 -0.0322137 0.0046875
v -0.091430745 -0.0323406 0.0046875
v -0.09203427 -0.032471685 0.0046875
v -0.09264135 -0.032606925 0.0046875
v -0.093251985 -0.03274635 0.0046875
v -0.093866175 -0.03288993 0.0046875
v -0.09403215 -0.032919645 0.0046875
v -0.094199175 -0.03296277 0.0046875
v -0.09436353 -0.037608915 0.0046875
v -0.094367265 -0.03301932 0.0046875
v -0.09447753 -0.037637865 0.0046875
v -0.094538835 -0.03308778 0.0046875
v -0.09453519 -0.037644825 0.0046875
v -0.09459327 -0.037646775 0.0046875
v -0.09471336 -0.03316851 0.0046875
v -0.094651785 -0.037643715 0.0046875
v -0.09471225 -0.03763596 0.0046875
v -0.094774665 -0.037623495 0.0046875
v -0.09488184 -0.033266955 0.0046875
v -0.09483675 -0.03760587 0.0046875
v -0.094896225 -0.037582605 0.0046875
v -0.09496125 -0.03332454 0.0046875
v -0.09495078 -0.037553265 0.0046875
v -0.095001045 -0.037516245 0.0046875
v -0.09503973 -0.033388005 0.0046875
v -0.095048535 -0.037471875 0.0046875
v -0.09511713 -0.033456765 0.0046875
v -0.095092335 -0.03742251 0.0046875
v -0.095131545 -0.037370505 0.0046875
v -0.095192085 -0.033530205 0.0046875
v -0.095165205 -0.037318245 0.0046875
v -0.09519336 -0.0372657 0.0046875
v -0.095263245 -0.033607695 0.0046875
v -0.09521661 -0.03721131 0.0046875
v -0.095234925 -0.03715509 0.0046875
v -0.095256855 -0.037037085 0.0046875
v -0.09532926 -0.033688605 0.0046875
v -0.09538878 -0.033772305 0.0046875
v -0.095442315 -0.033860205 0.0046875
v -0.095491095 -0.03395313 0.0046875
v -0.09553491 -0.034049715 0.0046875
v -0.095573535 -0.03414855 0.0046875
v -0.095578935 -0.03556929 0.0046875
v -0.095606745 -0.03424824 0.0046875
v -0.095623725 -0.03540012 0.0046875
v -0.095634285 -0.034347375 0.0046875
v -0.09565545 -0.035223975 0.0046875
v -0.09565563 -0.034445775 0.0046875
v -0.09567009 -0.034545975 0.0046875
v -0.09567414 -0.035040855 0.0046875
v -0.095678625 -0.03464721 0.0046875
v -0.095682045 -0.03484842 0.0046875
v -0.095682255 -0.034748385 0.0046875
v -0.07059924 -0.03065145 0.0046875
v -0.069717495 -0.030646125 0.0046875
v -0.068841225 -0.030634785 0.0046875
v -0.06797031 -0.030617475 0.0046875
v -0.06710454 -0.030594345 0.0046875
v -0.0618933 -0.03543564 0.0046875
v -0.06624369 -0.030565575 0.0046875
v -0.06181776 -0.03551118 0.0046875
v -0.06173079 -0.035566215 0.0046875
v -0.06163035 -0.03560082 0.0046875
v -0.06152661 -0.03561324 0.0046875
v -0.06142287 -0.03560082 0.0046875
v -0.061322415 -0.035566215 0.0046875
v -0.061235475 -0.03551118 0.0046875
v -0.06115992 -0.03543564 0.0046875
v -0.061105035 -0.035349225 0.0046875
v -0.061071465 -0.035252625 0.0046875
v -0.06105786 -0.03514449 0.0046875
v -0.06034608 -0.0302121 0.0046875
v -0.059522145 -0.030139725 0.0046875
v -0.061174695 -0.030279 0.0046875
v -0.061071465 -0.035036355 0.0046875
v -0.061105035 -0.034939755 0.0046875
v -0.06115992 -0.03485334 0.0046875
v -0.061235475 -0.0347778 0.0046875
v -0.062007975 -0.030340395 0.0046875
v -0.061322415 -0.034722765 0.0046875
v -0.06142287 -0.03468816 0.0046875
v -0.06152661 -0.03467574 0.0046875
v -0.06163035 -0.03468816 0.0046875
v -0.06173079 -0.034722765 0.0046875
v -0.06181776 -0.0347778 0.0046875
v -0.0618933 -0.03485334 0.0046875
v -0.061948185 -0.034939755 0.0046875
v -0.06198177 -0.035036355 0.0046875
v -0.06199536 -0.03514449 0.0046875
v -0.06284595 -0.0303963 0.0046875
v -0.06198177 -0.035252625 0.0046875
v -0.063688575 -0.0304467 0.0046875
v -0.061948185 -0.035349225 0.0046875
v -0.06453588 -0.03049164 0.0046875
v -0.065387535 -0.030531285 0.0046875
v -0.05870289 -0.030061845 0.0046875
v -0.058554165 -0.030041685 0.0046875
v -0.05840025 -0.03003633 0.0046875
v -0.0582405 -0.03004548 0.0046875
v -0.05815653 -0.030054555 0.0046875
v -0.058071045 -0.03006723 0.0046875
v -0.05798589 -0.030084405 0.0046875
v -0.05666121 -0.03479805 0.0046875
v -0.05651937 -0.035329185 0.0046875
v -0.05790288 -0.030106995 0.0046875
v -0.0578235 -0.030135825 0.0046875
v -0.05774532 -0.03017079 0.0046875
v -0.056780535 -0.03426615 0.0046875
v -0.057668475 -0.03021129 0.0046875
v -0.05759433 -0.030256815 0.0046875
v -0.05752425 -0.03030684 0.0046875
v -0.056878515 -0.03373044 0.0046875
v -0.057459615 -0.0303609 0.0046875
v -0.05740005 -0.03041994 0.0046875
v -0.057344535 -0.030484425 0.0046875
v -0.05695515 -0.03319089 0.0046875
v -0.057247335 -0.03062439 0.0046875
v -0.057010425 -0.032647515 0.0046875
v -0.057171495 -0.030771195 0.0046875
v -0.05711874 -0.030927855 0.0046875
v -0.057044355 -0.0321003 0.0046875
v -0.057083445 -0.031087905 0.0046875
v -0.057056925 -0.031549275 0.0046875
v -0.05706042 -0.03124335 0.0046875
v -0.05705148 -0.03139698 0.0046875
v -0.056439825 -0.035594925 0.0046875
v -0.056354775 -0.03586017 0.0046875
v -0.056264385 -0.03612447 0.0046875
v -0.056168835 -0.036387345 0.0046875
v -0.056068305 -0.03664833 0.0046875
v -0.055962945 -0.03690699 0.0046875
v -0.055852965 -0.037162845 0.0046875
v -0.0557385 -0.03741543 0.0046875
v -0.05549691 -0.03790899 0.0046875
v -0.055237935 -0.038388255 0.0046875
v -0.054960405 -0.038856315 0.0046875
v -0.05466432 -0.03931317 0.0046875
v -0.05442096 -0.043049475 0.0046875
v -0.054360075 -0.043035765 0.0046875
v -0.054349695 -0.03975882 0.0046875
v -0.054295815 -0.043020855 0.0046875
v -0.054227835 -0.043004145 0.0046875
v -0.054155985 -0.042984945 0.0046875
v -0.05408013 -0.042962745 0.0046875
v -0.0540165 -0.040193265 0.0046875
v -0.053999955 -0.04293621 0.0046875
v -0.05391534 -0.042904275 0.0046875
v -0.05382621 -0.04286574 0.0046875
v -0.05373222 -0.04281759 0.0046875
v -0.05366478 -0.040616505 0.0046875
v -0.053633745 -0.04275849 0.0046875
v -0.05360631 -0.040683675 0.0046875
v -0.05353164 -0.042685545 0.0046875
v -0.05354538 -0.040754895 0.0046875
v -0.05348211 -0.04083036 0.0046875
v -0.05343009 -0.042598125 0.0046875
v -0.05341758 -0.04091175 0.0046875
v -0.05333154 -0.04249572 0.0046875
v -0.053352675 -0.04100094 0.0046875
v -0.053288085 -0.04109934 0.0046875
v -0.05324319 -0.0423789 0.0046875
v -0.05322627 -0.041211615 0.0046875
v -0.053169555 -0.042248595 0.0046875
v -0.053170095 -0.04133823 0.0046875
v -0.053123325 -0.041481015 0.0046875
v -0.05311557 -0.04210542 0.0046875
v -0.053091705 -0.041633955 0.0046875
v -0.05308512 -0.041952705 0.0046875
v -0.05307753 -0.041793795 0.0046875
v -0.072703125 -0.03825 -0.0028125
v -0.072703125 -0.03825 0.0046875
v -0.07271898 -0.038074635 0.0046875
v -0.07271898 -0.03842538 -0.0028125
v -0.07271898 -0.038074635 -0.0028125
v -0.072755055 -0.03791094 0.0046875
v -0.072755055 -0.03791094 -0.0028125
v -0.07281135 -0.037758915 0.0046875
v -0.07281135 -0.037758915 -0.0028125
v -0.072888315 -0.037618155 0.0046875
v -0.072888315 -0.037618155 -0.0028125
v -0.072989475 -0.03748509 0.0046875
v -0.072989475 -0.03748509 -0.0028125
v -0.07311009 -0.037364475 0.0046875
v -0.07311009 -0.037364475 -0.0028125
v -0.07324314 -0.037263315 0.0046875
v -0.07324314 -0.037263315 -0.0028125
v -0.073386045 -0.03718578 0.0046875
v -0.073386045 -0.03718578 -0.0028125
v -0.07354479 -0.037127685 0.0046875
v -0.07354479 -0.037127685 -0.0028125
v -0.073710945 -0.037090935 0.0046875
v -0.073710945 -0.037090935 -0.0028125
v -0.073875 -0.037078125 0.0046875
v -0.073875 -0.037078125 -0.0028125
v -0.07403904 -0.037090935 0.0046875
v -0.07403904 -0.037090935 -0.0028125
v -0.07420521 -0.037127685 0.0046875
v -0.07420521 -0.037127685 -0.0028125
v -0.074363955 -0.03718578 0.0046875
v -0.074363955 -0.03718578 -0.0028125
v -0.07450686 -0.037263315 0.0046875
v -0.07450686 -0.037263315 -0.0028125
v -0.074639925 -0.037364475 0.0046875
v -0.074639925 -0.037364475 -0.0028125
v -0.074760525 -0.03748509 0.0046875
v -0.074760525 -0.03748509 -0.0028125
v -0.074861685 -0.037618155 0.0046875
v -0.074861685 -0.037618155 -0.0028125
v -0.07493865 -0.037758915 0.0046875
v -0.07493865 -0.037758915 -0.0028125
v -0.074994945 -0.03791094 0.0046875
v -0.074994945 -0.03791094 -0.0028125
v -0.075031035 -0.038074635 0.0046875
v -0.075031035 -0.038074635 -0.0028125
v -0.075046875 -0.03825 0.0046875
v -0.075046875 -0.03825 -0.0028125
v -0.075031035 -0.03842538 0.0046875
v -0.075031035 -0.03842538 -0.0028125
v -0.074994945 -0.03858906 0.0046875
v -0.074994945 -0.03858906 -0.0028125
v -0.07493865 -0.038741085 0.0046875
v -0.07493865 -0.038741085 -0.0028125
v -0.074861685 -0.03888186 0.0046875
v -0.074861685 -0.03888186 -0.0028125
v -0.074760525 -0.03901491 0.0046875
v -0.074760525 -0.03901491 -0.0028125
v -0.074639925 -0.039135525 0.0046875
v -0.074639925 -0.039135525 -0.0028125
v -0.07450686 -0.039236685 0.0046875
v -0.07450686 -0.039236685 -0.0028125
v -0.074363955 -0.03931422 0.0046875
v -0.074363955 -0.03931422 -0.0028125
v -0.07420521 -0.039372315 0.0046875
v -0.07420521 -0.039372315 -0.0028125
v -0.07403904 -0.039409065 0.0046875
v -0.07403904 -0.039409065 -0.0028125
v -0.073875 -0.039421875 0.0046875
v -0.073875 -0.039421875 -0.0028125
v -0.073710945 -0.039409065 0.0046875
v -0.073710945 -0.039409065 -0.0028125
v -0.07354479 -0.039372315 0.0046875
v -0.07354479 -0.039372315 -0.0028125
v -0.073386045 -0.03931422 0.0046875
v -0.073386045 -0.03931422 -0.0028125
v -0.07324314 -0.039236685 0.0046875
v -0.07324314 -0.039236685 -0.0028125
v -0.07311009 -0.039135525 0.0046875
v -0.07311009 -0.039135525 -0.0028125
v -0.072989475 -0.03901491 0.0046875
v -0.072989475 -0.03901491 -0.0028125
v -0.072888315 -0.03888186 0.0046875
v -0.072888315 -0.03888186 -0.0028125
v -0.07281135 -0.038741085 0.0046875
v -0.07281135 -0.038741085 -0.0028125
v -0.072755055 -0.03858906 0.0046875
v -0.072755055 -0.03858906 -0.0028125
v -0.07271898 -0.03842538 0.0046875
v -0.089529525 -0.04614624 0.00139266
v -0.09235419 -0.046766055 0.0046875
v -0.079470585 -0.043939005 0.0046875
v -0.08962389 -0.04616694 0.001359075
v -0.08942391 -0.046123065 0.00140625
v -0.08931828 -0.04609989 0.00139266
v -0.089223915 -0.046079175 0.001359075
v -0.089139525 -0.046060665 0.00130419
v -0.08906574 -0.046044465 0.00122865
v -0.08901198 -0.046032675 0.001141695
v -0.08897817 -0.04602525 0.00104124
v -0.08896605 -0.046022595 0.0009375
v -0.08897817 -0.04602525 0.00083376
v -0.08901198 -0.046032675 0.000733305
v -0.08906574 -0.046044465 0.00064635
v -0.09235419 -0.046766055 -0.0028125
v -0.079470585 -0.043939005 -0.0028125
v -0.089139525 -0.046060665 0.00057081
v -0.089223915 -0.046079175 0.000515925
v -0.08931828 -0.04609989 0.00048234
v -0.08942391 -0.046123065 0.00046875
v -0.089529525 -0.04614624 0.00048234
v -0.08962389 -0.04616694 0.000515925
v -0.08970828 -0.046185465 0.00057081
v -0.089782065 -0.04620165 0.00064635
v -0.089835825 -0.046213455 0.000733305
v -0.089869635 -0.046220865 0.00083376
v -0.089881755 -0.04622352 0.0009375
v -0.089869635 -0.046220865 0.00104124
v -0.089835825 -0.046213455 0.001141695
v -0.089782065 -0.04620165 0.00122865
v -0.09246618 -0.046786215 -0.0028125
v -0.08970828 -0.046185465 0.00130419
v -0.092414805 -0.04677459 0.0046875
v -0.0924735 -0.04678818 0.0046875
v -0.092572635 -0.04682514 -0.0028125
v -0.09253029 -0.04680681 0.0046875
v -0.092585175 -0.04683048 0.0046875
v -0.0926238 -0.04685163 -0.0028125
v -0.092638125 -0.046859205 0.0046875
v -0.09267516 -0.046883055 -0.0028125
v -0.092690805 -0.04689372 0.0046875
v -0.09272673 -0.046919415 -0.0028125
v -0.092743185 -0.046934055 0.0046875
v -0.092776125 -0.046960335 -0.0028125
v -0.09279285 -0.046979055 0.0046875
v -0.092820975 -0.047005485 -0.0028125
v -0.092837355 -0.047027565 0.0046875
v -0.092858865 -0.04705452 -0.0028125
v -0.092874255 -0.04707846 0.0046875
v -0.092889855 -0.047109195 -0.0028125
v -0.09290313 -0.04713321 0.0046875
v -0.09291552 -0.04716972 -0.0028125
v -0.092925585 -0.04719258 0.0046875
v -0.092935815 -0.047233485 -0.0028125
v -0.09294228 -0.04725435 0.0046875
v -0.09295071 -0.04729788 -0.0028125
v -0.09295389 -0.047316285 0.0046875
v -0.09296016 -0.047360235 -0.0028125
v -0.09296106 -0.04737615 0.0046875
v -0.092964165 -0.047420595 -0.0028125
v -0.092963805 -0.047433945 0.0046875
v -0.09296274 -0.047480685 -0.0028125
v -0.09295593 -0.047540505 -0.0028125
v -0.092954655 -0.04754781 0.0046875
v -0.092943675 -0.04760007 -0.0028125
v -0.092926005 -0.047659365 -0.0028125
v -0.092926005 -0.047659365 0.0046875
v -0.092283015 -0.050589645 0.0046875
v -0.092283015 -0.050589645 -0.0028125
v -0.09226245 -0.050703345 -0.0028125
v -0.09226107 -0.050707725 0.0046875
v -0.092222715 -0.050811045 -0.0028125
v -0.092242725 -0.05076399 0.0046875
v -0.09221946 -0.05081838 0.0046875
v -0.092195685 -0.050862675 -0.0028125
v -0.092191305 -0.05087094 0.0046875
v -0.09216345 -0.05091441 -0.0028125
v -0.092157615 -0.050923215 0.0046875
v -0.092126055 -0.050966265 -0.0028125
v -0.092118405 -0.050975205 0.0046875
v -0.09208407 -0.05101581 -0.0028125
v -0.09207459 -0.051024555 0.0046875
v -0.09203805 -0.051060645 -0.0028125
v -0.092027085 -0.05106891 0.0046875
v -0.09198858 -0.05109834 -0.0028125
v -0.09197682 -0.0511059 0.0046875
v -0.09193401 -0.05112879 -0.0028125
v -0.091922265 -0.05113524 0.0046875
v -0.091873965 -0.051153615 -0.0028125
v -0.09186282 -0.051158475 0.0046875
v -0.09181092 -0.051172965 -0.0028125
v -0.09180075 -0.051176085 0.0046875
v -0.09174732 -0.05118699 -0.0028125
v -0.091738365 -0.051188535 0.0046875
v -0.09168564 -0.05119584 -0.0028125
v -0.091677915 -0.051196275 0.0046875
v -0.091625895 -0.051199515 -0.0028125
v -0.091619415 -0.051199335 0.0046875
v -0.091566435 -0.05119791 -0.0028125
v -0.09156135 -0.051197385 0.0046875
v -0.09150723 -0.05119104 -0.0028125
v -0.091503705 -0.051190425 0.0046875
v -0.091448325 -0.051178905 -0.0028125
v -0.091389705 -0.051161475 -0.0028125
v -0.091389705 -0.051161475 0.0046875
v -0.08881758 -0.05059707 0.00064635
v -0.08887134 -0.050608875 0.000733305
v -0.088743795 -0.050580885 0.00057081
v -0.08865939 -0.050562375 0.000515925
v -0.08856504 -0.05054166 0.00048234
v -0.088459425 -0.050518485 0.00046875
v -0.054478515 -0.043062075 -0.0028125
v -0.088353795 -0.05049531 0.00048234
v -0.08825943 -0.05047461 0.000515925
v -0.08817504 -0.050456085 0.00057081
v -0.088101255 -0.0504399 0.00064635
v -0.088047495 -0.050428095 0.000733305
v -0.088013685 -0.050420685 0.00083376
v -0.088001565 -0.050418015 0.0009375
v -0.088013685 -0.050420685 0.00104124
v -0.088047495 -0.050428095 0.001141695
v -0.088101255 -0.0504399 0.00122865
v -0.054478515 -0.043062075 0.0046875
v -0.08817504 -0.050456085 0.00130419
v -0.08825943 -0.05047461 0.001359075
v -0.088353795 -0.05049531 0.00139266
v -0.088459425 -0.050518485 0.00140625
v -0.08856504 -0.05054166 0.00139266
v -0.08865939 -0.050562375 0.001359075
v -0.088743795 -0.050580885 0.00130419
v -0.08881758 -0.05059707 0.00122865
v -0.08887134 -0.050608875 0.001141695
v -0.08890515 -0.050616285 0.00104124
v -0.08891727 -0.050618955 0.0009375
v -0.08890515 -0.050616285 0.00083376
v -0.05441268 -0.04304766 -0.0028125
v -0.05442096 -0.043049475 0.0046875
v -0.054360075 -0.043035765 0.0046875
v -0.05434359 -0.043031985 -0.0028125
v -0.054295815 -0.043020855 0.0046875
v -0.054271245 -0.04301496 -0.0028125
v -0.054227835 -0.043004145 0.0046875
v -0.054195435 -0.04299573 -0.0028125
v -0.054155985 -0.042984945 0.0046875
v -0.054116055 -0.042973485 -0.0028125
v -0.05408013 -0.042962745 0.0046875
v -0.054033045 -0.04294761 -0.0028125
v -0.053999955 -0.04293621 0.0046875
v -0.053946045 -0.04291644 -0.0028125
v -0.05391534 -0.042904275 0.0046875
v -0.053854995 -0.042878655 -0.0028125
v -0.05382621 -0.04286574 0.0046875
v -0.053759625 -0.04283265 -0.0028125
v -0.05373222 -0.04281759 0.0046875
v -0.0536601 -0.04277517 -0.0028125
v -0.053633745 -0.04275849 0.0046875
v -0.053557245 -0.042705 -0.0028125
v -0.05353164 -0.042685545 0.0046875
v -0.053453265 -0.042619845 -0.0028125
v -0.05343009 -0.042598125 0.0046875
v -0.053353605 -0.042520125 -0.0028125
v -0.05333154 -0.04249572 0.0046875
v -0.05326146 -0.04240596 -0.0028125
v -0.05324319 -0.0423789 0.0046875
v -0.053184465 -0.04227885 -0.0028125
v -0.053169555 -0.042248595 0.0046875
v -0.0531261 -0.042140415 -0.0028125
v -0.05311557 -0.04210542 0.0046875
v -0.05309067 -0.0419919 -0.0028125
v -0.05308512 -0.041952705 0.0046875
v -0.053077455 -0.041838225 -0.0028125
v -0.05307753 -0.041793795 0.0046875
v -0.053085015 -0.04168287 -0.0028125
v -0.053091705 -0.041633955 0.0046875
v -0.05311107 -0.04153149 -0.0028125
v -0.053123325 -0.041481015 0.0046875
v -0.05315097 -0.041390265 -0.0028125
v -0.053170095 -0.04133823 0.0046875
v -0.05320236 -0.04126155 -0.0028125
v -0.05322627 -0.041211615 0.0046875
v -0.05325966 -0.041148585 -0.0028125
v -0.053288085 -0.04109934 0.0046875
v -0.053320125 -0.04104861 -0.0028125
v -0.053352675 -0.04100094 0.0046875
v -0.053381535 -0.04096032 -0.0028125
v -0.05341758 -0.04091175 0.0046875
v -0.053442225 -0.04088004 -0.0028125
v -0.05348211 -0.04083036 0.0046875
v -0.05350161 -0.04080672 -0.0028125
v -0.05354538 -0.040754895 0.0046875
v -0.05355894 -0.040738995 -0.0028125
v -0.05360631 -0.040683675 0.0046875
v -0.05361336 -0.040675635 -0.0028125
v -0.05366478 -0.040616505 -0.0028125
v -0.05366478 -0.040616505 0.0046875
v -0.0540165 -0.040193265 -0.0028125
v -0.0540165 -0.040193265 0.0046875
v -0.054349695 -0.03975882 -0.0028125
v -0.054349695 -0.03975882 0.0046875
v -0.05466432 -0.03931317 -0.0028125
v -0.05466432 -0.03931317 0.0046875
v -0.054960405 -0.038856315 -0.0028125
v -0.054960405 -0.038856315 0.0046875
v -0.055237935 -0.038388255 -0.0028125
v -0.055237935 -0.038388255 0.0046875
v -0.05549691 -0.03790899 -0.0028125
v -0.05549691 -0.03790899 0.0046875
v -0.0557385 -0.03741543 -0.0028125
v -0.0557385 -0.03741543 0.0046875
v -0.055852965 -0.037162845 -0.0028125
v -0.055852965 -0.037162845 0.0046875
v -0.055962945 -0.03690699 -0.0028125
v -0.055962945 -0.03690699 0.0046875
v -0.056068305 -0.03664833 -0.0028125
v -0.056068305 -0.03664833 0.0046875
v -0.056168835 -0.036387345 -0.0028125
v -0.056168835 -0.036387345 0.0046875
v -0.056264385 -0.03612447 -0.0028125
v -0.056264385 -0.03612447 0.0046875
v -0.056354775 -0.03586017 -0.0028125
v -0.056354775 -0.03586017 0.0046875
v -0.056439825 -0.035594925 -0.0028125
v -0.056439825 -0.035594925 0.0046875
v -0.05651937 -0.035329185 -0.0028125
v -0.05651937 -0.035329185 0.0046875
v -0.05666121 -0.03479805 -0.0028125
v -0.05666121 -0.03479805 0.0046875
v -0.056780535 -0.03426615 -0.0028125
v -0.056780535 -0.03426615 0.0046875
v -0.056878515 -0.03373044 -0.0028125
v -0.056878515 -0.03373044 0.0046875
v -0.05695515 -0.03319089 -0.0028125
v -0.05695515 -0.03319089 0.0046875
v -0.057010425 -0.032647515 -0.0028125
v -0.057010425 -0.032647515 0.0046875
v -0.057044355 -0.0321003 -0.0028125
v -0.057044355 -0.0321003 0.0046875
v -0.057056925 -0.031549275 -0.0028125
v -0.057056925 -0.031549275 0.0046875
v -0.05705109 -0.031390875 -0.0028125
v -0.05705148 -0.03139698 0.0046875
v -0.05706042 -0.03124335 0.0046875
v -0.057061005 -0.031231545 -0.0028125
v -0.057083445 -0.031087905 0.0046875
v -0.057086475 -0.031070745 -0.0028125
v -0.05710443 -0.030988005 -0.0028125
v -0.05711874 -0.030927855 0.0046875
v -0.057126255 -0.03090486 -0.0028125
v -0.057152535 -0.030822975 -0.0028125
v -0.057171495 -0.030771195 0.0046875
v -0.057183885 -0.030744045 -0.0028125
v -0.057247335 -0.03062439 0.0046875
v -0.057263685 -0.030597195 -0.0028125
v -0.057344535 -0.030484425 0.0046875
v -0.057364455 -0.030460605 -0.0028125
v -0.05740005 -0.03041994 0.0046875
v -0.057481455 -0.03034143 -0.0028125
v -0.057459615 -0.0303609 0.0046875
v -0.05752425 -0.03030684 0.0046875
v -0.057615645 -0.03024228 -0.0028125
v -0.05759433 -0.030256815 0.0046875
v -0.057668475 -0.03021129 0.0046875
v -0.057764385 -0.030161685 -0.0028125
v -0.05774532 -0.03017079 0.0046875
v -0.0578235 -0.030135825 0.0046875
v -0.057918435 -0.030101955 -0.0028125
v -0.05790288 -0.030106995 0.0046875
v -0.05798589 -0.030084405 0.0046875
v -0.05808105 -0.030064905 -0.0028125
v -0.058071045 -0.03006723 0.0046875
v -0.05815653 -0.030054555 0.0046875
v -0.058245045 -0.030044955 -0.0028125
v -0.0582405 -0.03004548 0.0046875
v -0.05840025 -0.03003633 0.0046875
v -0.058401735 -0.03003681 -0.0028125
v -0.05855418 -0.03004233 -0.0028125
v -0.058554165 -0.030041685 0.0046875
v -0.05870289 -0.030061845 -0.0028125
v -0.05870289 -0.030061845 0.0046875
v -0.059522145 -0.030139725 -0.0028125
v -0.059522145 -0.030139725 0.0046875
v -0.06034608 -0.0302121 -0.0028125
v -0.06034608 -0.0302121 0.0046875
v -0.061174695 -0.030279 -0.0028125
v -0.061174695 -0.030279 0.0046875
v -0.062007975 -0.030340395 -0.0028125
v -0.062007975 -0.030340395 0.0046875
v -0.06284595 -0.0303963 -0.0028125
v -0.06284595 -0.0303963 0.0046875
v -0.063688575 -0.0304467 -0.0028125
v -0.063688575 -0.0304467 0.0046875
v -0.06453588 -0.03049164 -0.0028125
v -0.06453588 -0.03049164 0.0046875
v -0.065387535 -0.030531285 -0.0028125
v -0.065387535 -0.030531285 0.0046875
v -0.06624369 -0.030565575 -0.0028125
v -0.06624369 -0.030565575 0.0046875
v -0.06710454 -0.030594345 -0.0028125
v -0.06710454 -0.030594345 0.0046875
v -0.06797031 -0.030617475 -0.0028125
v -0.06797031 -0.030617475 0.0046875
v -0.068841225 -0.030634785 -0.0028125
v -0.068841225 -0.030634785 0.0046875
v -0.069717495 -0.030646125 -0.0028125
v -0.069717495 -0.030646125 0.0046875
v -0.07059924 -0.03065145 -0.0028125
v -0.07059924 -0.03065145 0.0046875
v -0.07148619 -0.030650925 -0.0028125
v -0.07148619 -0.030650925 0.0046875
v -0.0723783 -0.03064458 -0.0028125
v -0.0723783 -0.03064458 0.0046875
v -0.07327557 -0.030632415 -0.0028125
v -0.07327557 -0.030632415 0.0046875
v -0.074178015 -0.030614415 -0.0028125
v -0.074178015 -0.030614415 0.0046875
v -0.07508562 -0.03059058 -0.0028125
v -0.07508562 -0.03059058 0.0046875
v -0.0759984 -0.030560925 -0.0028125
v -0.0759984 -0.030560925 0.0046875
v -0.076499175 -0.030548355 -0.0028125
v -0.076499175 -0.030548355 0.0046875
v -0.077003715 -0.030541695 -0.0028125
v -0.077003715 -0.030541695 0.0046875
v -0.077512005 -0.030540915 -0.0028125
v -0.077512005 -0.030540915 0.0046875
v -0.078024075 -0.03054606 -0.0028125
v -0.078024075 -0.03054606 0.0046875
v -0.078539895 -0.0305571 -0.0028125
v -0.078539895 -0.0305571 0.0046875
v -0.079059495 -0.03057405 -0.0028125
v -0.079059495 -0.03057405 0.0046875
v -0.079582845 -0.030596895 -0.0028125
v -0.079582845 -0.030596895 0.0046875
v -0.080109975 -0.030625665 -0.0028125
v -0.080109975 -0.030625665 0.0046875
v -0.080640855 -0.030660315 -0.0028125
v -0.080640855 -0.030660315 0.0046875
v -0.081175515 -0.03070089 -0.0028125
v -0.081175515 -0.03070089 0.0046875
v -0.08171394 -0.03074745 -0.0028125
v -0.08171394 -0.03074745 0.0046875
v -0.082256265 -0.03080109 -0.0028125
v -0.082256265 -0.03080109 0.0046875
v -0.082802505 -0.030861705 -0.0028125
v -0.082802505 -0.030861705 0.0046875
v -0.08335257 -0.03092883 -0.0028125
v -0.08335257 -0.03092883 0.0046875
v -0.083906415 -0.03100197 -0.0028125
v -0.083906415 -0.03100197 0.0046875
v -0.08446398 -0.03108063 -0.0028125
v -0.08446398 -0.03108063 0.0046875
v -0.085025205 -0.03116433 -0.0028125
v -0.085025205 -0.03116433 0.0046875
v -0.08559003 -0.031252575 -0.0028125
v -0.08559003 -0.031252575 0.0046875
v -0.086158395 -0.031344885 -0.0028125
v -0.086158395 -0.031344885 0.0046875
v -0.086730225 -0.031440765 -0.0028125
v -0.086730225 -0.031440765 0.0046875
v -0.08730549 -0.031539735 -0.0028125
v -0.08730549 -0.031539735 0.0046875
v -0.08788416 -0.03164172 -0.0028125
v -0.08788416 -0.03164172 0.0046875
v -0.08846637 -0.03174777 -0.0028125
v -0.08846637 -0.03174777 0.0046875
v -0.08905215 -0.031858005 -0.0028125
v -0.08905215 -0.031858005 0.0046875
v -0.08964147 -0.031972395 -0.0028125
v -0.08964147 -0.031972395 0.0046875
v -0.090234345 -0.032090955 -0.0028125
v -0.090234345 -0.032090955 0.0046875
v -0.09083076 -0.0322137 -0.0028125
v -0.09083076 -0.0322137 0.0046875
v -0.091430745 -0.0323406 -0.0028125
v -0.091430745 -0.0323406 0.0046875
v -0.09203427 -0.032471685 -0.0028125
v -0.09194016 -0.032468715 0.00093789
v -0.091951845 -0.032471235 0.001042635
v -0.091951695 -0.03247119 0.000833055
v -0.091985835 -0.03247857 0.000733515
v -0.092040675 -0.03249042 0.00064455
v -0.09264135 -0.032606925 -0.0028125
v -0.09211332 -0.032506125 0.000570495
v -0.09220014 -0.032524935 0.000514875
v -0.092296755 -0.032545905 0.000480405
v -0.09239829 -0.03256794 0.00046875
v -0.092500005 -0.03259008 0.00048045
v -0.09259662 -0.032611125 0.000514965
v -0.092683275 -0.03263004 0.00057054
v -0.093251985 -0.03274635 -0.0028125
v -0.092755695 -0.032645865 0.00064437
v -0.09281043 -0.03265782 0.00073308
v -0.092844615 -0.032665305 0.00083238
v -0.09285627 -0.032667855 0.000937095
v -0.09264135 -0.032606925 0.0046875
v -0.093251985 -0.03274635 0.0046875
v -0.092844765 -0.032665335 0.001041945
v -0.09281064 -0.032657865 0.001141485
v -0.09275583 -0.032645895 0.001230435
v -0.092683215 -0.032630025 0.001304505
v -0.092596425 -0.032611095 0.001360125
v -0.09203427 -0.032471685 0.0046875
v -0.09249984 -0.032590035 0.00139458
v -0.09239829 -0.03256794 0.00140625
v -0.092296575 -0.03254586 0.00139455
v -0.09219996 -0.03252489 0.001360035
v -0.09211326 -0.03250611 0.00130446
v -0.09204081 -0.03249045 0.00123063
v -0.09198603 -0.032478615 0.001141935
v -0.093866175 -0.03288993 -0.0028125
v -0.093866175 -0.03288993 0.0046875
v -0.09405564 -0.032920815 -0.0028125
v -0.09403215 -0.032919645 0.0046875
v -0.094199175 -0.03296277 0.0046875
v -0.09424239 -0.03296928 -0.0028125
v -0.094367265 -0.03301932 0.0046875
v -0.094426455 -0.033035325 -0.0028125
v -0.094517475 -0.033074955 -0.0028125
v -0.094538835 -0.03308778 0.0046875
v -0.094608855 -0.03311889 -0.0028125
v -0.094701885 -0.033167085 -0.0028125
v -0.09471336 -0.03316851 0.0046875
v -0.09479514 -0.033219615 -0.0028125
v -0.09488184 -0.033266955 0.0046875
v -0.094887135 -0.033276585 -0.0028125
v -0.09496125 -0.03332454 0.0046875
v -0.09497634 -0.033338085 -0.0028125
v -0.09503973 -0.033388005 0.0046875
v -0.09506124 -0.03340419 -0.0028125
v -0.09511713 -0.033456765 0.0046875
v -0.09514035 -0.033475035 -0.0028125
v -0.095192085 -0.033530205 0.0046875
v -0.095213145 -0.033551145 -0.0028125
v -0.095263245 -0.033607695 0.0046875
v -0.095282505 -0.03363399 -0.0028125
v -0.09532926 -0.033688605 0.0046875
v -0.095348145 -0.03372249 -0.0028125
v -0.09538878 -0.033772305 0.0046875
v -0.095409345 -0.033815355 -0.0028125
v -0.095442315 -0.033860205 0.0046875
v -0.0954654 -0.033911265 -0.0028125
v -0.095491095 -0.03395313 0.0046875
v -0.09551562 -0.03400896 -0.0028125
v -0.09553491 -0.034049715 0.0046875
v -0.09555927 -0.03410712 -0.0028125
v -0.095573535 -0.03414855 0.0046875
v -0.09559566 -0.03420492 -0.0028125
v -0.095606745 -0.03424824 0.0046875
v -0.095624475 -0.03430557 -0.0028125
v -0.095634285 -0.034347375 0.0046875
v -0.095646465 -0.034408965 -0.0028125
v -0.09565563 -0.034445775 0.0046875
v -0.095662455 -0.034513845 -0.0028125
v -0.09567009 -0.034545975 0.0046875
v -0.0956733 -0.03461901 -0.0028125
v -0.095678625 -0.03464721 0.0046875
v -0.09567984 -0.034723245 -0.0028125
v -0.095682255 -0.034748385 0.0046875
v -0.095682915 -0.034825305 -0.0028125
v -0.095682045 -0.03484842 0.0046875
v -0.09568032 -0.035020515 -0.0028125
v -0.09567414 -0.035040855 0.0046875
v -0.09566241 -0.035209155 -0.0028125
v -0.09565545 -0.035223975 0.0046875
v -0.095628615 -0.035392095 -0.0028125
v -0.095623725 -0.03540012 0.0046875
v -0.095578935 -0.03556929 -0.0028125
v -0.095578935 -0.03556929 0.0046875
v -0.095256855 -0.037037085 0.0046875
v -0.095256855 -0.037037085 -0.0028125
v -0.09523629 -0.03715074 -0.0028125
v -0.095234925 -0.03715509 0.0046875
v -0.095196585 -0.037258425 -0.0028125
v -0.09521661 -0.03721131 0.0046875
v -0.09519336 -0.0372657 0.0046875
v -0.09516954 -0.037310025 -0.0028125
v -0.095165205 -0.037318245 0.0046875
v -0.09513735 -0.037361745 -0.0028125
v -0.095131545 -0.037370505 0.0046875
v -0.09509997 -0.0374136 -0.0028125
v -0.095092335 -0.03742251 0.0046875
v -0.095058 -0.03746316 -0.0028125
v -0.095048535 -0.037471875 0.0046875
v -0.09501201 -0.037507995 -0.0028125
v -0.095001045 -0.037516245 0.0046875
v -0.09496254 -0.03754569 -0.0028125
v -0.09495078 -0.037553265 0.0046875
v -0.094907985 -0.037576155 -0.0028125
v -0.094896225 -0.037582605 0.0046875
v -0.094847925 -0.037600995 -0.0028125
v -0.09483675 -0.03760587 0.0046875
v -0.094784865 -0.03762036 -0.0028125
v -0.094774665 -0.037623495 0.0046875
v -0.094721265 -0.0376344 -0.0028125
v -0.09471225 -0.03763596 0.0046875
v -0.09465957 -0.037643265 -0.0028125
v -0.094651785 -0.037643715 0.0046875
v -0.09459981 -0.037646955 -0.0028125
v -0.09459327 -0.037646775 0.0046875
v -0.094540335 -0.03764535 -0.0028125
v -0.09453519 -0.037644825 0.0046875
v -0.094481115 -0.03763848 -0.0028125
v -0.09447753 -0.037637865 0.0046875
v -0.09442218 -0.037626345 -0.0028125
v -0.09436353 -0.037608915 -0.0028125
v -0.09436353 -0.037608915 0.0046875
v -0.09179142 -0.03704451 0.00064635
v -0.09184518 -0.037056315 0.000733305
v -0.091717635 -0.037028325 0.00057081
v -0.09163323 -0.0370098 0.000515925
v -0.09153888 -0.0369891 0.00048234
v -0.08103339 -0.034683885 -0.0028125
v -0.09143325 -0.036965925 0.00046875
v -0.09132762 -0.03694275 0.00048234
v -0.09123327 -0.036922035 0.000515925
v -0.091148865 -0.036903525 0.00057081
v -0.09107508 -0.036887325 0.00064635
v -0.09102132 -0.036875535 0.000733305
v -0.090987525 -0.036868125 0.00083376
v -0.09097539 -0.036865455 0.0009375
v -0.090987525 -0.036868125 0.00104124
v -0.09102132 -0.036875535 0.001141695
v -0.09107508 -0.036887325 0.00122865
v -0.08103339 -0.034683885 0.0046875
v -0.091148865 -0.036903525 0.00130419
v -0.09123327 -0.036922035 0.001359075
v -0.09132762 -0.03694275 0.00139266
v -0.09143325 -0.036965925 0.00140625
v -0.09153888 -0.0369891 0.00139266
v -0.09163323 -0.0370098 0.001359075
v -0.091717635 -0.037028325 0.00130419
v -0.09179142 -0.03704451 0.00122865
v -0.09184518 -0.037056315 0.001141695
v -0.091878975 -0.037063725 0.00104124
v -0.09189111 -0.037066395 0.0009375
v -0.091878975 -0.037063725 0.00083376
v -0.08089479 -0.03465231 -0.0028125
v -0.080919315 -0.034658385 0.0046875
v -0.080802525 -0.03463377 0.0046875
v -0.080750565 -0.03462258 -0.0028125
v -0.080683275 -0.03460983 0.0046875
v -0.08060085 -0.034594275 -0.0028125
v -0.080561505 -0.034586595 0.0046875
v -0.080445795 -0.03456702 -0.0028125
v -0.080435295 -0.034565805 0.0046875
v -0.080283975 -0.034544775 -0.0028125
v -0.08030505 -0.03454707 0.0046875
v -0.080168865 -0.034532115 0.0046875
v -0.0801153 -0.034527375 -0.0028125
v -0.08002563 -0.034521375 0.0046875
v -0.079939245 -0.03451704 -0.0028125
v -0.079875285 -0.034515855 0.0046875
v -0.0797541 -0.03451797 -0.0028125
v -0.079715835 -0.034519035 0.0046875
v -0.07956015 -0.034528815 -0.0028125
v -0.07954746 -0.034530075 0.0046875
v -0.07936002 -0.03455571 -0.0028125
v -0.079372335 -0.03455364 0.0046875
v -0.079189425 -0.034589775 0.0046875
v -0.07915179 -0.034599165 -0.0028125
v -0.07900257 -0.034640475 0.0046875
v -0.078940815 -0.034660305 -0.0028125
v -0.078813945 -0.034707645 0.0046875
v -0.078732765 -0.034741935 -0.0028125
v -0.078624375 -0.034791255 0.0046875
v -0.07852608 -0.034843245 -0.0028125
v -0.07844076 -0.03489426 0.0046875
v -0.0783312 -0.03496599 -0.0028125
v -0.078261615 -0.035016045 0.0046875
v -0.078237945 -0.035036355 -0.0028125
v -0.078147405 -0.035112195 -0.0028125
v -0.07809342 -0.035159085 0.0046875
v -0.078060735 -0.03519261 -0.0028125
v -0.077979105 -0.03527673 -0.0028125
v -0.07793661 -0.03532587 0.0046875
v -0.077903325 -0.03536427 -0.0028125
v -0.07786311 -0.03541683 0.0046875
v -0.077832435 -0.035457075 -0.0028125
v -0.077794095 -0.03551166 0.0046875
v -0.077705235 -0.035653095 -0.0028125
v -0.07773009 -0.03561018 0.0046875
v -0.07767009 -0.035714145 0.0046875
v -0.07759857 -0.035852505 -0.0028125
v -0.077614425 -0.035822115 0.0046875
v -0.07756371 -0.035932245 0.0046875
v -0.07751328 -0.036056445 -0.0028125
v -0.07751847 -0.03604272 0.0046875
v -0.077479095 -0.036153675 0.0046875
v -0.07744668 -0.03626052 -0.0028125
v -0.077445255 -0.036266805 0.0046875
v -0.077398005 -0.036460695 -0.0028125
v -0.07741656 -0.03638061 0.0046875
v -0.07737291 -0.03660402 0.0046875
v -0.07736664 -0.036657915 -0.0028125
v -0.07734939 -0.03682032 0.0046875
v -0.07734705 -0.036847155 -0.0028125
v -0.07734078 -0.037028625 -0.0028125
v -0.077341425 -0.03703032 0.0046875
v -0.077342655 -0.037202535 -0.0028125
v -0.07734279 -0.037231335 0.0046875
v -0.07735002 -0.03736827 -0.0028125
v -0.077354745 -0.037424235 0.0046875
v -0.077363115 -0.03752646 -0.0028125
v -0.077370045 -0.037610595 0.0046875
v -0.07737732 -0.03767853 -0.0028125
v -0.07738842 -0.037790475 0.0046875
v -0.077393055 -0.037824315 -0.0028125
v -0.07741083 -0.03796368 -0.0028125
v -0.07741083 -0.03796368 0.0046875
v -0.077466195 -0.03845988 -0.0028125
v -0.077466195 -0.03845988 0.0046875
v -0.07751622 -0.038951925 -0.0028125
v -0.07751622 -0.038951925 0.0046875
v -0.077560905 -0.03943983 -0.0028125
v -0.077560905 -0.03943983 0.0046875
v -0.077600235 -0.03992358 -0.0028125
v -0.077600235 -0.03992358 0.0046875
v -0.07763421 -0.040403205 -0.0028125
v -0.07763421 -0.040403205 0.0046875
v -0.07766286 -0.04087866 -0.0028125
v -0.07766286 -0.04087866 0.0046875
v -0.077686155 -0.041349975 -0.0028125
v -0.077686155 -0.041349975 0.0046875
v -0.07770411 -0.04181715 -0.0028125
v -0.07770411 -0.04181715 0.0046875
v -0.07770468 -0.041975925 -0.0028125
v -0.077702475 -0.041925405 0.0046875
v -0.07770567 -0.04203303 0.0046875
v -0.077716845 -0.04214004 -0.0028125
v -0.077713695 -0.04214001 0.0046875
v -0.077726535 -0.04224636 0.0046875
v -0.0777402 -0.04230984 -0.0028125
v -0.07774422 -0.042352065 0.0046875
v -0.07777233 -0.042487425 -0.0028125
v -0.077766705 -0.042457815 0.0046875
v -0.077794005 -0.042564885 0.0046875
v -0.077820135 -0.042666795 -0.0028125
v -0.07782615 -0.04267155 0.0046875
v -0.07789044 -0.04284357 -0.0028125
v -0.07786311 -0.04277583 0.0046875
v -0.0779049 -0.042875775 0.0046875
v -0.07793313 -0.04293246 -0.0028125
v -0.077951625 -0.042969675 0.0046875
v -0.0779808 -0.043020105 -0.0028125
v -0.07800432 -0.04305921 0.0046875
v -0.078033555 -0.043105125 -0.0028125
v -0.078062325 -0.04314483 0.0046875
v -0.078091455 -0.04318611 -0.0028125
v -0.078124545 -0.04322607 0.0046875
v -0.07815516 -0.043263795 -0.0028125
v -0.07818987 -0.043302555 0.0046875
v -0.078224655 -0.04333923 -0.0028125
v -0.078257175 -0.04337382 0.0046875
v -0.07829904 -0.043411545 -0.0028125
v -0.078377415 -0.04347978 -0.0028125
v -0.07840167 -0.04350051 0.0046875
v -0.078458865 -0.04354305 -0.0028125
v -0.0785436 -0.04360077 -0.0028125
v -0.07855638 -0.04360794 0.0046875
v -0.078633795 -0.043653615 -0.0028125
v -0.078711555 -0.043697805 0.0046875
v -0.078727695 -0.043701855 -0.0028125
v -0.07882326 -0.04374576 -0.0028125
v -0.07886898 -0.043767885 0.0046875
v -0.07891845 -0.043785525 -0.0028125
v -0.079011435 -0.043821405 -0.0028125
v -0.07902576 -0.043824015 0.0046875
v -0.079103565 -0.043853205 -0.0028125
v -0.079177455 -0.043872405 0.0046875
v -0.079287375 -0.0439044 -0.0028125
v -0.07932564 -0.04391085 0.0046875
v -0.06105786 -0.03514449 -0.0028125
v -0.06105786 -0.03514449 0.0046875
v -0.061071465 -0.035036355 0.0046875
v -0.061071465 -0.035252625 -0.0028125
v -0.061071465 -0.035036355 -0.0028125
v -0.061105035 -0.034939755 0.0046875
v -0.061105035 -0.034939755 -0.0028125
v -0.06115992 -0.03485334 0.0046875
v -0.06115992 -0.03485334 -0.0028125
v -0.061235475 -0.0347778 0.0046875
v -0.061235475 -0.0347778 -0.0028125
v -0.061322415 -0.034722765 0.0046875
v -0.061322415 -0.034722765 -0.0028125
v -0.06142287 -0.03468816 0.0046875
v -0.06142287 -0.03468816 -0.0028125
v -0.06152661 -0.03467574 0.0046875
v -0.06152661 -0.03467574 -0.0028125
v -0.06163035 -0.03468816 0.0046875
v -0.06163035 -0.03468816 -0.0028125
v -0.06173079 -0.034722765 0.0046875
v -0.06173079 -0.034722765 -0.0028125
v -0.06181776 -0.0347778 0.0046875
v -0.06181776 -0.0347778 -0.0028125
v -0.0618933 -0.03485334 0.0046875
v -0.0618933 -0.03485334 -0.0028125
v -0.061948185 -0.034939755 0.0046875
v -0.061948185 -0.034939755 -0.0028125
v -0.06198177 -0.035036355 0.0046875
v -0.06198177 -0.035036355 -0.0028125
v -0.06199536 -0.03514449 0.0046875
v -0.06199536 -0.03514449 -0.0028125
v -0.06198177 -0.035252625 0.0046875
v -0.06198177 -0.035252625 -0.0028125
v -0.061948185 -0.035349225 0.0046875
v -0.061948185 -0.035349225 -0.0028125
v -0.0618933 -0.03543564 0.0046875
v -0.0618933 -0.03543564 -0.0028125
v -0.06181776 -0.03551118 0.0046875
v -0.06181776 -0.03551118 -0.0028125
v -0.06173079 -0.035566215 0.0046875
v -0.06173079 -0.035566215 -0.0028125
v -0.06163035 -0.03560082 0.0046875
v -0.06163035 -0.03560082 -0.0028125
v -0.06152661 -0.03561324 0.0046875
v -0.06152661 -0.03561324 -0.0028125
v -0.06142287 -0.03560082 0.0046875
v -0.06142287 -0.03560082 -0.0028125
v -0.061322415 -0.035566215 0.0046875
v -0.061322415 -0.035566215 -0.0028125
v -0.061235475 -0.03551118 0.0046875
v -0.061235475 -0.03551118 -0.0028125
v -0.06115992 -0.03543564 0.0046875
v -0.06115992 -0.03543564 -0.0028125
v -0.061105035 -0.035349225 0.0046875
v -0.061105035 -0.035349225 -0.0028125
v -0.061071465 -0.035252625 0.0046875
v -0.07148619 -0.030650925 -0.0028125
v -0.07271898 -0.03842538 -0.0028125
v -0.072703125 -0.03825 -0.0028125
v -0.07059924 -0.03065145 -0.0028125
v -0.0723783 -0.03064458 -0.0028125
v -0.07271898 -0.038074635 -0.0028125
v -0.072755055 -0.03791094 -0.0028125
v -0.07281135 -0.037758915 -0.0028125
v -0.072888315 -0.037618155 -0.0028125
v -0.072989475 -0.03748509 -0.0028125
v -0.07311009 -0.037364475 -0.0028125
v -0.07324314 -0.037263315 -0.0028125
v -0.07327557 -0.030632415 -0.0028125
v -0.073386045 -0.03718578 -0.0028125
v -0.07354479 -0.037127685 -0.0028125
v -0.073710945 -0.037090935 -0.0028125
v -0.073875 -0.037078125 -0.0028125
v -0.07403904 -0.037090935 -0.0028125
v -0.074178015 -0.030614415 -0.0028125
v -0.07420521 -0.037127685 -0.0028125
v -0.074363955 -0.03718578 -0.0028125
v -0.07450686 -0.037263315 -0.0028125
v -0.074639925 -0.037364475 -0.0028125
v -0.074760525 -0.03748509 -0.0028125
v -0.074861685 -0.037618155 -0.0028125
v -0.07493865 -0.037758915 -0.0028125
v -0.074994945 -0.03791094 -0.0028125
v -0.075031035 -0.038074635 -0.0028125
v -0.07508562 -0.03059058 -0.0028125
v -0.075046875 -0.03825 -0.0028125
v -0.07777233 -0.042487425 -0.0028125
v -0.0777402 -0.04230984 -0.0028125
v -0.077820135 -0.042666795 -0.0028125
v -0.07789044 -0.04284357 -0.0028125
v -0.07793313 -0.04293246 -0.0028125
v -0.0779808 -0.043020105 -0.0028125
v -0.075031035 -0.03842538 -0.0028125
v -0.078033555 -0.043105125 -0.0028125
v -0.074994945 -0.03858906 -0.0028125
v -0.07493865 -0.038741085 -0.0028125
v -0.074861685 -0.03888186 -0.0028125
v -0.078091455 -0.04318611 -0.0028125
v -0.074760525 -0.03901491 -0.0028125
v -0.074639925 -0.039135525 -0.0028125
v -0.07815516 -0.043263795 -0.0028125
v -0.07450686 -0.039236685 -0.0028125
v -0.074363955 -0.03931422 -0.0028125
v -0.078224655 -0.04333923 -0.0028125
v -0.07420521 -0.039372315 -0.0028125
v -0.07403904 -0.039409065 -0.0028125
v -0.07829904 -0.043411545 -0.0028125
v -0.073875 -0.039421875 -0.0028125
v -0.073710945 -0.039409065 -0.0028125
v -0.07354479 -0.039372315 -0.0028125
v -0.078377415 -0.04347978 -0.0028125
v -0.073386045 -0.03931422 -0.0028125
v -0.07324314 -0.039236685 -0.0028125
v -0.07311009 -0.039135525 -0.0028125
v -0.062007975 -0.030340395 -0.0028125
v -0.06284595 -0.0303963 -0.0028125
v -0.06199536 -0.03514449 -0.0028125
v -0.078458865 -0.04354305 -0.0028125
v -0.06198177 -0.035036355 -0.0028125
v -0.061174695 -0.030279 -0.0028125
v -0.061948185 -0.034939755 -0.0028125
v -0.0618933 -0.03485334 -0.0028125
v -0.06181776 -0.0347778 -0.0028125
v -0.06173079 -0.034722765 -0.0028125
v -0.06163035 -0.03468816 -0.0028125
v -0.06152661 -0.03467574 -0.0028125
v -0.06142287 -0.03468816 -0.0028125
v -0.061322415 -0.034722765 -0.0028125
v -0.061235475 -0.0347778 -0.0028125
v -0.06115992 -0.03485334 -0.0028125
v -0.06034608 -0.0302121 -0.0028125
v -0.061105035 -0.034939755 -0.0028125
v -0.061071465 -0.035036355 -0.0028125
v -0.06105786 -0.03514449 -0.0028125
v -0.061071465 -0.035252625 -0.0028125
v -0.059522145 -0.030139725 -0.0028125
v -0.05870289 -0.030061845 -0.0028125
v -0.061105035 -0.035349225 -0.0028125
v -0.05855418 -0.03004233 -0.0028125
v -0.058401735 -0.03003681 -0.0028125
v -0.058245045 -0.030044955 -0.0028125
v -0.05808105 -0.030064905 -0.0028125
v -0.057918435 -0.030101955 -0.0028125
v -0.057764385 -0.030161685 -0.0028125
v -0.06115992 -0.03543564 -0.0028125
v -0.057615645 -0.03024228 -0.0028125
v -0.057481455 -0.03034143 -0.0028125
v -0.057364455 -0.030460605 -0.0028125
v -0.057263685 -0.030597195 -0.0028125
v -0.057183885 -0.030744045 -0.0028125
v -0.057152535 -0.030822975 -0.0028125
v -0.057126255 -0.03090486 -0.0028125
v -0.05710443 -0.030988005 -0.0028125
v -0.057086475 -0.031070745 -0.0028125
v -0.057061005 -0.031231545 -0.0028125
v -0.057056925 -0.031549275 -0.0028125
v -0.05705109 -0.031390875 -0.0028125
v -0.061235475 -0.03551118 -0.0028125
v -0.057044355 -0.0321003 -0.0028125
v -0.057010425 -0.032647515 -0.0028125
v -0.05695515 -0.03319089 -0.0028125
v -0.061322415 -0.035566215 -0.0028125
v -0.056878515 -0.03373044 -0.0028125
v -0.091389705 -0.051161475 -0.0028125
v -0.056780535 -0.03426615 -0.0028125
v -0.06142287 -0.03560082 -0.0028125
v -0.06152661 -0.03561324 -0.0028125
v -0.06163035 -0.03560082 -0.0028125
v -0.06173079 -0.035566215 -0.0028125
v -0.06181776 -0.03551118 -0.0028125
v -0.0618933 -0.03543564 -0.0028125
v -0.061948185 -0.035349225 -0.0028125
v -0.06198177 -0.035252625 -0.0028125
v -0.0785436 -0.04360077 -0.0028125
v -0.078633795 -0.043653615 -0.0028125
v -0.078727695 -0.043701855 -0.0028125
v -0.07882326 -0.04374576 -0.0028125
v -0.07891845 -0.043785525 -0.0028125
v -0.079011435 -0.043821405 -0.0028125
v -0.079103565 -0.043853205 -0.0028125
v -0.079287375 -0.0439044 -0.0028125
v -0.079470585 -0.043939005 -0.0028125
v -0.091448325 -0.051178905 -0.0028125
v -0.09150723 -0.05119104 -0.0028125
v -0.091566435 -0.05119791 -0.0028125
v -0.091625895 -0.051199515 -0.0028125
v -0.09168564 -0.05119584 -0.0028125
v -0.09174732 -0.05118699 -0.0028125
v -0.09181092 -0.051172965 -0.0028125
v -0.091873965 -0.051153615 -0.0028125
v -0.09193401 -0.05112879 -0.0028125
v -0.09198858 -0.05109834 -0.0028125
v -0.09203805 -0.051060645 -0.0028125
v -0.09208407 -0.05101581 -0.0028125
v -0.092126055 -0.050966265 -0.0028125
v -0.09216345 -0.05091441 -0.0028125
v -0.092195685 -0.050862675 -0.0028125
v -0.092222715 -0.050811045 -0.0028125
v -0.09226245 -0.050703345 -0.0028125
v -0.092283015 -0.050589645 -0.0028125
v -0.09235419 -0.046766055 -0.0028125
v -0.092926005 -0.047659365 -0.0028125
v -0.09246618 -0.046786215 -0.0028125
v -0.092572635 -0.04682514 -0.0028125
v -0.0926238 -0.04685163 -0.0028125
v -0.09267516 -0.046883055 -0.0028125
v -0.09272673 -0.046919415 -0.0028125
v -0.092776125 -0.046960335 -0.0028125
v -0.092820975 -0.047005485 -0.0028125
v -0.092858865 -0.04705452 -0.0028125
v -0.092889855 -0.047109195 -0.0028125
v -0.09291552 -0.04716972 -0.0028125
v -0.092935815 -0.047233485 -0.0028125
v -0.092943675 -0.04760007 -0.0028125
v -0.09295071 -0.04729788 -0.0028125
v -0.09295593 -0.047540505 -0.0028125
v -0.09296016 -0.047360235 -0.0028125
v -0.09296274 -0.047480685 -0.0028125
v -0.092964165 -0.047420595 -0.0028125
v -0.05666121 -0.03479805 -0.0028125
v -0.05651937 -0.035329185 -0.0028125
v -0.056439825 -0.035594925 -0.0028125
v -0.056354775 -0.03586017 -0.0028125
v -0.056264385 -0.03612447 -0.0028125
v -0.056168835 -0.036387345 -0.0028125
v -0.056068305 -0.03664833 -0.0028125
v -0.055962945 -0.03690699 -0.0028125
v -0.055852965 -0.037162845 -0.0028125
v -0.0557385 -0.03741543 -0.0028125
v -0.05549691 -0.03790899 -0.0028125
v -0.055237935 -0.038388255 -0.0028125
v -0.054960405 -0.038856315 -0.0028125
v -0.05466432 -0.03931317 -0.0028125
v -0.054478515 -0.043062075 -0.0028125
v -0.054349695 -0.03975882 -0.0028125
v -0.05441268 -0.04304766 -0.0028125
v -0.05434359 -0.043031985 -0.0028125
v -0.0540165 -0.040193265 -0.0028125
v -0.054271245 -0.04301496 -0.0028125
v -0.054195435 -0.04299573 -0.0028125
v -0.054116055 -0.042973485 -0.0028125
v -0.054033045 -0.04294761 -0.0028125
v -0.053946045 -0.04291644 -0.0028125
v -0.05366478 -0.040616505 -0.0028125
v -0.053854995 -0.042878655 -0.0028125
v -0.053759625 -0.04283265 -0.0028125
v -0.0536601 -0.04277517 -0.0028125
v -0.05361336 -0.040675635 -0.0028125
v -0.05355894 -0.040738995 -0.0028125
v -0.053557245 -0.042705 -0.0028125
v -0.05350161 -0.04080672 -0.0028125
v -0.053453265 -0.042619845 -0.0028125
v -0.053442225 -0.04088004 -0.0028125
v -0.053381535 -0.04096032 -0.0028125
v -0.053353605 -0.042520125 -0.0028125
v -0.053320125 -0.04104861 -0.0028125
v -0.05326146 -0.04240596 -0.0028125
v -0.05325966 -0.041148585 -0.0028125
v -0.05320236 -0.04126155 -0.0028125
v -0.053184465 -0.04227885 -0.0028125
v -0.05315097 -0.041390265 -0.0028125
v -0.0531261 -0.042140415 -0.0028125
v -0.05311107 -0.04153149 -0.0028125
v -0.05309067 -0.0419919 -0.0028125
v -0.053085015 -0.04168287 -0.0028125
v -0.053077455 -0.041838225 -0.0028125
v -0.063688575 -0.0304467 -0.0028125
v -0.072989475 -0.03901491 -0.0028125
v -0.06453588 -0.03049164 -0.0028125
v -0.065387535 -0.030531285 -0.0028125
v -0.06624369 -0.030565575 -0.0028125
v -0.072888315 -0.03888186 -0.0028125
v -0.06710454 -0.030594345 -0.0028125
v -0.06797031 -0.030617475 -0.0028125
v -0.07281135 -0.038741085 -0.0028125
v -0.068841225 -0.030634785 -0.0028125
v -0.069717495 -0.030646125 -0.0028125
v -0.072755055 -0.03858906 -0.0028125
v -0.0759984 -0.030560925 -0.0028125
v -0.077716845 -0.04214004 -0.0028125
v -0.076499175 -0.030548355 -0.0028125
v -0.07735002 -0.03736827 -0.0028125
v -0.077363115 -0.03752646 -0.0028125
v -0.077003715 -0.030541695 -0.0028125
v -0.077342655 -0.037202535 -0.0028125
v -0.07734078 -0.037028625 -0.0028125
v -0.07734705 -0.036847155 -0.0028125
v -0.07736664 -0.036657915 -0.0028125
v -0.077398005 -0.036460695 -0.0028125
v -0.07744668 -0.03626052 -0.0028125
v -0.077512005 -0.030540915 -0.0028125
v -0.07751328 -0.036056445 -0.0028125
v -0.07759857 -0.035852505 -0.0028125
v -0.077705235 -0.035653095 -0.0028125
v -0.077832435 -0.035457075 -0.0028125
v -0.077903325 -0.03536427 -0.0028125
v -0.077979105 -0.03527673 -0.0028125
v -0.078024075 -0.03054606 -0.0028125
v -0.078060735 -0.03519261 -0.0028125
v -0.078147405 -0.035112195 -0.0028125
v -0.078237945 -0.035036355 -0.0028125
v -0.0783312 -0.03496599 -0.0028125
v -0.07852608 -0.034843245 -0.0028125
v -0.078539895 -0.0305571 -0.0028125
v -0.078732765 -0.034741935 -0.0028125
v -0.078940815 -0.034660305 -0.0028125
v -0.079059495 -0.03057405 -0.0028125
v -0.07915179 -0.034599165 -0.0028125
v -0.07936002 -0.03455571 -0.0028125
v -0.07956015 -0.034528815 -0.0028125
v -0.079582845 -0.030596895 -0.0028125
v -0.0797541 -0.03451797 -0.0028125
v -0.079939245 -0.03451704 -0.0028125
v -0.080109975 -0.030625665 -0.0028125
v -0.0801153 -0.034527375 -0.0028125
v -0.080283975 -0.034544775 -0.0028125
v -0.080445795 -0.03456702 -0.0028125
v -0.08060085 -0.034594275 -0.0028125
v -0.080640855 -0.030660315 -0.0028125
v -0.080750565 -0.03462258 -0.0028125
v -0.08089479 -0.03465231 -0.0028125
v -0.08103339 -0.034683885 -0.0028125
v -0.081175515 -0.03070089 -0.0028125
v -0.09436353 -0.037608915 -0.0028125
v -0.08171394 -0.03074745 -0.0028125
v -0.082256265 -0.03080109 -0.0028125
v -0.082802505 -0.030861705 -0.0028125
v -0.08335257 -0.03092883 -0.0028125
v -0.083906415 -0.03100197 -0.0028125
v -0.08446398 -0.03108063 -0.0028125
v -0.085025205 -0.03116433 -0.0028125
v -0.08559003 -0.031252575 -0.0028125
v -0.086158395 -0.031344885 -0.0028125
v -0.086730225 -0.031440765 -0.0028125
v -0.08730549 -0.031539735 -0.0028125
v -0.08788416 -0.03164172 -0.0028125
v -0.08846637 -0.03174777 -0.0028125
v -0.08905215 -0.031858005 -0.0028125
v -0.08964147 -0.031972395 -0.0028125
v -0.090234345 -0.032090955 -0.0028125
v -0.09083076 -0.0322137 -0.0028125
v -0.091430745 -0.0323406 -0.0028125
v -0.09203427 -0.032471685 -0.0028125
v -0.09264135 -0.032606925 -0.0028125
v -0.093251985 -0.03274635 -0.0028125
v -0.093866175 -0.03288993 -0.0028125
v -0.09405564 -0.032920815 -0.0028125
v -0.09424239 -0.03296928 -0.0028125
v -0.09442218 -0.037626345 -0.0028125
v -0.094426455 -0.033035325 -0.0028125
v -0.094481115 -0.03763848 -0.0028125
v -0.094517475 -0.033074955 -0.0028125
v -0.094540335 -0.03764535 -0.0028125
v -0.09459981 -0.037646955 -0.0028125
v -0.094608855 -0.03311889 -0.0028125
v -0.09465957 -0.037643265 -0.0028125
v -0.094701885 -0.033167085 -0.0028125
v -0.094721265 -0.0376344 -0.0028125
v -0.094784865 -0.03762036 -0.0028125
v -0.09479514 -0.033219615 -0.0028125
v -0.094847925 -0.037600995 -0.0028125
v -0.094887135 -0.033276585 -0.0028125
v -0.094907985 -0.037576155 -0.0028125
v -0.09496254 -0.03754569 -0.0028125
v -0.09497634 -0.033338085 -0.0028125
v -0.09501201 -0.037507995 -0.0028125
v -0.095058 -0.03746316 -0.0028125
v -0.09506124 -0.03340419 -0.0028125
v -0.09509997 -0.0374136 -0.0028125
v -0.09513735 -0.037361745 -0.0028125
v -0.09514035 -0.033475035 -0.0028125
v -0.09516954 -0.037310025 -0.0028125
v -0.095196585 -0.037258425 -0.0028125
v -0.095213145 -0.033551145 -0.0028125
v -0.09523629 -0.03715074 -0.0028125
v -0.095256855 -0.037037085 -0.0028125
v -0.095282505 -0.03363399 -0.0028125
v -0.095578935 -0.03556929 -0.0028125
v -0.095348145 -0.03372249 -0.0028125
v -0.095409345 -0.033815355 -0.0028125
v -0.0954654 -0.033911265 -0.0028125
v -0.09551562 -0.03400896 -0.0028125
v -0.09555927 -0.03410712 -0.0028125
v -0.09559566 -0.03420492 -0.0028125
v -0.095628615 -0.035392095 -0.0028125
v -0.095624475 -0.03430557 -0.0028125
v -0.095646465 -0.034408965 -0.0028125
v -0.09566241 -0.035209155 -0.0028125
v -0.095662455 -0.034513845 -0.0028125
v -0.09568032 -0.035020515 -0.0028125
v -0.0956733 -0.03461901 -0.0028125
v -0.09567984 -0.034723245 -0.0028125
v -0.095682915 -0.034825305 -0.0028125
v -0.07737732 -0.03767853 -0.0028125
v -0.07770468 -0.041975925 -0.0028125
v -0.077393055 -0.037824315 -0.0028125
v -0.07741083 -0.03796368 -0.0028125
v -0.077466195 -0.03845988 -0.0028125
v -0.07751622 -0.038951925 -0.0028125
v -0.077560905 -0.03943983 -0.0028125
v -0.077600235 -0.03992358 -0.0028125
v -0.07763421 -0.040403205 -0.0028125
v -0.07766286 -0.04087866 -0.0028125
v -0.077686155 -0.041349975 -0.0028125
v -0.07770411 -0.04181715 -0.0028125
v -0.088459425 -0.050518485 0.00140625
v -0.08942391 -0.046123065 0.00140625
v -0.08931828 -0.04609989 0.00139266
v -0.08856504 -0.05054166 0.00139266
v -0.088353795 -0.05049531 0.00139266
v -0.089223915 -0.046079175 0.001359075
v -0.08825943 -0.05047461 0.001359075
v -0.089139525 -0.046060665 0.00130419
v -0.08817504 -0.050456085 0.00130419
v -0.08906574 -0.046044465 0.00122865
v -0.088101255 -0.0504399 0.00122865
v -0.08901198 -0.046032675 0.001141695
v -0.088047495 -0.050428095 0.001141695
v -0.08897817 -0.04602525 0.00104124
v -0.088013685 -0.050420685 0.00104124
v -0.08896605 -0.046022595 0.0009375
v -0.088001565 -0.050418015 0.0009375
v -0.08897817 -0.04602525 0.00083376
v -0.088013685 -0.050420685 0.00083376
v -0.08901198 -0.046032675 0.000733305
v -0.088047495 -0.050428095 0.000733305
v -0.08906574 -0.046044465 0.00064635
v -0.088101255 -0.0504399 0.00064635
v -0.089139525 -0.046060665 0.00057081
v -0.08817504 -0.050456085 0.00057081
v -0.089223915 -0.046079175 0.000515925
v -0.08825943 -0.05047461 0.000515925
v -0.08931828 -0.04609989 0.00048234
v -0.088353795 -0.05049531 0.00048234
v -0.08942391 -0.046123065 0.00046875
v -0.088459425 -0.050518485 0.00046875
v -0.089529525 -0.04614624 0.00048234
v -0.08856504 -0.05054166 0.00048234
v -0.08962389 -0.04616694 0.000515925
v -0.08865939 -0.050562375 0.000515925
v -0.08970828 -0.046185465 0.00057081
v -0.088743795 -0.050580885 0.00057081
v -0.089782065 -0.04620165 0.00064635
v -0.08881758 -0.05059707 0.00064635
v -0.089835825 -0.046213455 0.000733305
v -0.08887134 -0.050608875 0.000733305
v -0.089869635 -0.046220865 0.00083376
v -0.08890515 -0.050616285 0.00083376
v -0.089881755 -0.04622352 0.0009375
v -0.08891727 -0.050618955 0.0009375
v -0.089869635 -0.046220865 0.00104124
v -0.08890515 -0.050616285 0.00104124
v -0.089835825 -0.046213455 0.001141695
v -0.08887134 -0.050608875 0.001141695
v -0.089782065 -0.04620165 0.00122865
v -0.08881758 -0.05059707 0.00122865
v -0.08970828 -0.046185465 0.00130419
v -0.088743795 -0.050580885 0.00130419
v -0.08962389 -0.04616694 0.001359075
v -0.08865939 -0.050562375 0.001359075
v -0.089529525 -0.04614624 0.00139266
v -0.09143325 -0.036965925 0.00046875
v -0.09239829 -0.03256794 0.00046875
v -0.092500005 -0.03259008 0.00048045
v -0.09132762 -0.03694275 0.00048234
v -0.09153888 -0.0369891 0.00048234
v -0.09259662 -0.032611125 0.000514965
v -0.09163323 -0.0370098 0.000515925
v -0.092683275 -0.03263004 0.00057054
v -0.091717635 -0.037028325 0.00057081
v -0.092755695 -0.032645865 0.00064437
v -0.09179142 -0.03704451 0.00064635
v -0.09281043 -0.03265782 0.00073308
v -0.09184518 -0.037056315 0.000733305
v -0.092844615 -0.032665305 0.00083238
v -0.091878975 -0.037063725 0.00083376
v -0.09285627 -0.032667855 0.000937095
v -0.09189111 -0.037066395 0.0009375
v -0.092844765 -0.032665335 0.001041945
v -0.091878975 -0.037063725 0.00104124
v -0.09184518 -0.037056315 0.001141695
v -0.09281064 -0.032657865 0.001141485
v -0.09179142 -0.03704451 0.00122865
v -0.09275583 -0.032645895 0.001230435
v -0.091717635 -0.037028325 0.00130419
v -0.092683215 -0.032630025 0.001304505
v -0.09163323 -0.0370098 0.001359075
v -0.092596425 -0.032611095 0.001360125
v -0.09153888 -0.0369891 0.00139266
v -0.09249984 -0.032590035 0.00139458
v -0.09239829 -0.03256794 0.00140625
v -0.09143325 -0.036965925 0.00140625
v -0.092296575 -0.03254586 0.00139455
v -0.09132762 -0.03694275 0.00139266
v -0.09219996 -0.03252489 0.001360035
v -0.09123327 -0.036922035 0.001359075
v -0.09211326 -0.03250611 0.00130446
v -0.091148865 -0.036903525 0.00130419
v -0.09204081 -0.03249045 0.00123063
v -0.09107508 -0.036887325 0.00122865
v -0.09198603 -0.032478615 0.001141935
v -0.09102132 -0.036875535 0.001141695
v -0.091951845 -0.032471235 0.001042635
v -0.090987525 -0.036868125 0.00104124
v -0.09194016 -0.032468715 0.00093789
v -0.09097539 -0.036865455 0.0009375
v -0.091951695 -0.03247119 0.000833055
v -0.090987525 -0.036868125 0.00083376
v -0.09102132 -0.036875535 0.000733305
v -0.091985835 -0.03247857 0.000733515
v -0.09107508 -0.036887325 0.00064635
v -0.092040675 -0.03249042 0.00064455
v -0.091148865 -0.036903525 0.00057081
v -0.09211332 -0.032506125 0.000570495
v -0.09123327 -0.036922035 0.000515925
v -0.09220014 -0.032524935 0.000514875
v -0.092296755 -0.032545905 0.000480405
f 1 2 3
f 1 4 2
f 5 1 3
f 6 5 3
f 6 7 5
f 6 3 8
f 6 8 9
f 6 9 10
f 6 10 11
f 6 11 12
f 6 12 13
f 6 13 14
f 6 14 15
f 6 15 16
f 6 16 17
f 6 17 18
f 6 18 19
f 6 19 20
f 20 19 21
f 6 20 22
f 6 22 23
f 6 23 24
f 6 24 25
f 6 25 26
f 6 26 27
f 26 28 27
f 6 27 29
f 6 29 30
f 6 30 31
f 6 31 32
f 6 32 33
f 6 33 34
f 6 34 35
f 6 35 36
f 6 36 37
f 6 37 38
f 6 38 39
f 6 39 40
f 6 40 41
f 6 41 42
f 6 42 43
f 6 43 44
f 6 44 45
f 6 45 46
f 6 46 47
f 6 47 48
f 6 48 49
f 6 49 50
f 6 50 51
f 52 6 51
f 52 51 53
f 54 52 53
f 55 54 53
f 56 55 53
f 57 56 53
f 58 57 53
f 59 58 53
f 60 59 53
f 61 60 53
f 62 61 53
f 63 62 53
f 64 63 53
f 65 64 53
f 66 65 53
f 67 66 53
f 68 67 53
f 69 68 53
f 70 69 53
f 71 70 53
f 72 71 53
f 72 73 71
f 73 74 71
f 74 75 71
f 75 76 71
f 76 77 71
f 77 78 71
f 78 79 71
f 79 80 71
f 80 81 71
f 81 82 71
f 82 83 71
f 83 84 71
f 83 85 84
f 85 86 84
f 86 87 84
f 86 88 87
f 88 89 87
f 90 20 21
f 90 21 91
f 92 90 91
f 93 92 91
f 93 91 94
f 95 93 94
f 96 95 94
f 97 96 94
f 97 94 98
f 99 97 98
f 99 98 100
f 99 100 101
f 99 101 102
f 99 102 103
f 104 99 103
f 104 105 99
f 104 103 106
f 107 104 106
f 108 107 106
f 108 106 109
f 110 108 109
f 110 109 111
f 110 111 112
f 110 112 113
f 110 113 114
f 110 114 115
f 110 115 116
f 110 116 117
f 110 117 118
f 110 118 119
f 120 110 119
f 120 119 121
f 120 121 122
f 120 122 123
f 120 123 124
f 120 124 125
f 1 120 125
f 1 125 126
f 1 126 127
f 1 127 128
f 1 128 129
f 1 129 130
f 1 130 4
f 105 131 99
f 105 132 131
f 105 133 132
f 105 134 133
f 105 135 134
f 105 136 135
f 105 137 136
f 137 138 136
f 137 139 138
f 137 140 139
f 137 141 140
f 137 142 141
f 137 143 142
f 137 144 143
f 137 145 144
f 137 146 145
f 146 147 145
f 146 148 147
f 146 149 148
f 146 150 149
f 150 151 149
f 150 152 151
f 150 153 152
f 150 154 153
f 154 155 153
f 154 156 155
f 154 157 156
f 154 158 157
f 158 159 157
f 158 160 159
f 158 161 160
f 158 162 161
f 162 163 161
f 162 164 163
f 162 165 164
f 162 166 165
f 162 167 166
f 167 168 166
f 167 169 168
f 167 170 169
f 167 171 170
f 171 172 170
f 172 173 170
f 173 174 170
f 174 175 170
f 175 176 170
f 176 177 170
f 177 178 170
f 178 179 170
f 179 180 170
f 180 181 170
f 181 182 170
f 182 183 170
f 183 184 170
f 184 185 170
f 185 186 170
f 186 187 170
f 187 188 170
f 188 189 170
f 189 190 170
f 190 191 170
f 191 192 170
f 192 193 170
f 193 194 170
f 194 195 170
f 194 196 195
f 196 197 195
f 196 198 197
f 198 199 197
f 198 200 199
f 198 201 200
f 201 202 200
f 201 203 202
f 201 204 203
f 201 205 204
f 205 206 204
f 205 207 206
f 205 208 207
f 208 209 207
f 208 210 209
f 208 211 210
f 211 212 210
f 211 213 212
f 213 214 212
f 213 215 214
f 213 216 215
f 216 217 215
f 216 218 217
f 216 219 218
f 219 220 218
f 219 221 220
f 219 222 221
f 219 223 222
f 223 224 222
f 224 225 222
f 225 226 222
f 226 227 222
f 227 228 222
f 228 229 222
f 228 230 229
f 230 231 229
f 230 232 231
f 232 233 231
f 232 234 233
f 234 235 233
f 235 236 233
f 235 237 236
f 237 238 236
f 237 239 238
f 6 240 7
f 6 241 240
f 6 242 241
f 6 243 242
f 6 244 243
f 245 244 6
f 245 246 244
f 247 245 6
f 248 247 6
f 249 248 6
f 250 249 6
f 251 250 6
f 252 251 6
f 253 252 6
f 254 253 6
f 255 254 6
f 256 255 6
f 256 6 257
f 257 6 258
f 6 259 258
f 257 258 260
f 261 257 260
f 262 261 260
f 263 262 260
f 264 263 260
f 264 260 265
f 266 264 265
f 267 266 265
f 268 267 265
f 269 268 265
f 270 269 265
f 271 270 265
f 272 271 265
f 273 272 265
f 274 273 265
f 275 274 265
f 275 265 276
f 277 275 276
f 277 276 278
f 279 277 278
f 279 278 280
f 279 280 281
f 245 279 281
f 245 281 246
f 6 282 259
f 6 283 282
f 6 284 283
f 6 285 284
f 6 286 285
f 6 287 286
f 6 288 287
f 288 6 289
f 6 290 289
f 289 291 288
f 289 292 291
f 289 293 292
f 289 294 293
f 294 295 293
f 294 296 295
f 294 297 296
f 294 298 297
f 298 299 297
f 298 300 299
f 298 301 300
f 298 302 301
f 302 303 301
f 302 304 303
f 304 305 303
f 304 306 305
f 304 307 306
f 307 308 306
f 307 309 308
f 309 310 308
f 309 311 310
f 6 312 290
f 6 313 312
f 6 314 313
f 6 315 314
f 6 316 315
f 6 317 316
f 6 318 317
f 6 319 318
f 6 320 319
f 6 321 320
f 6 322 321
f 6 323 322
f 6 324 323
f 324 325 323
f 325 326 323
f 325 327 326
f 327 328 326
f 328 329 326
f 329 330 326
f 330 331 326
f 330 332 331
f 332 333 331
f 333 334 331
f 334 335 331
f 335 336 331
f 335 337 336
f 337 338 336
f 337 339 338
f 339 340 338
f 339 341 340
f 339 342 341
f 342 343 341
f 342 344 343
f 344 345 343
f 344 346 345
f 344 347 346
f 347 348 346
f 347 349 348
f 349 350 348
f 349 351 350
f 349 352 351
f 352 353 351
f 352 354 353
f 354 355 353
f 356 357 358
f 359 357 356
f 360 356 358
f 360 358 361
f 360 361 362
f 362 361 363
f 362 363 364
f 364 363 365
f 364 365 366
f 366 365 367
f 366 367 368
f 368 367 369
f 368 369 370
f 370 369 371
f 370 371 372
f 372 371 373
f 372 373 374
f 374 373 375
f 374 375 376
f 376 375 377
f 376 377 378
f 378 377 379
f 378 379 380
f 380 379 381
f 380 381 382
f 382 381 383
f 382 383 384
f 384 383 385
f 384 385 386
f 386 385 387
f 386 387 388
f 388 387 389
f 388 389 390
f 390 389 391
f 390 391 392
f 392 391 393
f 392 393 394
f 394 393 395
f 394 395 396
f 396 395 397
f 396 397 398
f 398 397 399
f 398 399 400
f 400 399 401
f 400 401 402
f 402 401 403
f 402 403 404
f 404 403 405
f 404 405 406
f 406 405 407
f 406 407 408
f 408 407 409
f 408 409 410
f 410 409 411
f 410 411 412
f 412 411 413
f 412 413 414
f 414 413 415
f 414 415 416
f 416 415 417
f 416 417 418
f 418 417 419
f 418 419 420
f 420 419 421
f 420 421 422
f 422 421 423
f 422 423 424
f 424 423 425
f 424 425 426
f 426 425 427
f 426 427 428
f 428 427 429
f 428 429 430
f 430 429 431
f 430 431 432
f 432 431 433
f 432 433 434
f 434 433 435
f 434 435 436
f 436 435 437
f 436 437 438
f 438 437 439
f 438 439 440
f 440 439 441
f 440 441 442
f 442 441 443
f 442 443 359
f 359 443 357
f 444 445 446
f 444 447 445
f 444 446 448
f 449 448 446
f 450 449 446
f 451 450 446
f 452 451 446
f 453 452 446
f 454 453 446
f 455 454 446
f 456 455 446
f 457 456 446
f 458 457 446
f 458 446 459
f 459 446 460
f 461 458 459
f 462 461 459
f 463 462 459
f 464 463 459
f 465 464 459
f 466 465 459
f 467 466 459
f 468 467 459
f 469 468 459
f 470 469 459
f 471 470 459
f 472 471 459
f 473 472 459
f 474 473 459
f 474 459 445
f 475 445 459
f 476 474 445
f 447 476 445
f 475 477 445
f 475 478 477
f 479 478 475
f 479 480 478
f 479 481 480
f 482 481 479
f 482 483 481
f 484 483 482
f 484 485 483
f 486 485 484
f 486 487 485
f 488 487 486
f 488 489 487
f 490 489 488
f 490 491 489
f 492 491 490
f 492 493 491
f 494 493 492
f 494 495 493
f 496 495 494
f 496 497 495
f 498 497 496
f 498 499 497
f 500 499 498
f 500 501 499
f 502 501 500
f 502 503 501
f 504 503 502
f 504 505 503
f 506 505 504
f 507 505 506
f 507 508 505
f 509 508 507
f 509 510 508
f 510 511 508
f 510 512 511
f 513 512 510
f 514 512 513
f 514 515 512
f 516 515 514
f 516 517 515
f 516 518 517
f 519 518 516
f 519 520 518
f 521 520 519
f 521 522 520
f 523 522 521
f 523 524 522
f 525 524 523
f 525 526 524
f 527 526 525
f 527 528 526
f 529 528 527
f 529 530 528
f 531 530 529
f 531 532 530
f 533 532 531
f 533 534 532
f 535 534 533
f 535 536 534
f 537 536 535
f 537 538 536
f 539 538 537
f 539 540 538
f 541 540 539
f 541 542 540
f 543 542 541
f 543 544 542
f 545 544 543
f 545 546 544
f 547 546 545
f 548 546 547
f 548 549 546
f 550 549 548
f 551 549 550
f 550 548 552
f 552 548 553
f 553 548 554
f 554 548 555
f 555 548 556
f 555 556 557
f 557 556 558
f 558 556 559
f 559 556 560
f 560 556 561
f 561 556 562
f 562 556 563
f 563 556 564
f 564 556 565
f 565 556 566
f 566 556 549
f 556 567 549
f 566 549 568
f 568 549 569
f 569 549 570
f 570 549 571
f 572 571 549
f 572 549 573
f 573 549 574
f 574 549 575
f 575 549 576
f 576 549 577
f 577 549 578
f 578 549 579
f 579 549 551
f 580 567 556
f 580 581 567
f 580 582 581
f 583 582 580
f 583 584 582
f 585 584 583
f 585 586 584
f 587 586 585
f 587 588 586
f 589 588 587
f 589 590 588
f 591 590 589
f 591 592 590
f 593 592 591
f 593 594 592
f 595 594 593
f 595 596 594
f 597 596 595
f 597 598 596
f 599 598 597
f 599 600 598
f 601 600 599
f 601 602 600
f 603 602 601
f 603 604 602
f 605 604 603
f 605 606 604
f 607 606 605
f 607 608 606
f 609 608 607
f 609 610 608
f 611 610 609
f 611 612 610
f 613 612 611
f 613 614 612
f 615 614 613
f 615 616 614
f 617 616 615
f 617 618 616
f 619 618 617
f 619 620 618
f 621 620 619
f 621 622 620
f 623 622 621
f 623 624 622
f 625 624 623
f 625 626 624
f 627 626 625
f 627 628 626
f 629 628 627
f 629 630 628
f 631 630 629
f 631 632 630
f 633 632 631
f 633 634 632
f 635 634 633
f 635 636 634
f 637 636 635
f 638 636 637
f 638 639 636
f 640 639 638
f 640 641 639
f 642 641 640
f 642 643 641
f 644 643 642
f 644 645 643
f 646 645 644
f 646 647 645
f 648 647 646
f 648 649 647
f 650 649 648
f 650 651 649
f 652 651 650
f 652 653 651
f 654 653 652
f 654 655 653
f 656 655 654
f 656 657 655
f 658 657 656
f 658 659 657
f 660 659 658
f 660 661 659
f 662 661 660
f 662 663 661
f 664 663 662
f 664 665 663
f 666 665 664
f 666 667 665
f 668 667 666
f 668 669 667
f 670 669 668
f 670 671 669
f 672 671 670
f 672 673 671
f 674 673 672
f 674 675 673
f 676 675 674
f 676 677 675
f 678 677 676
f 678 679 677
f 680 679 678
f 680 681 679
f 682 681 680
f 682 683 681
f 684 683 682
f 684 685 683
f 684 686 685
f 687 686 684
f 687 688 686
f 689 688 687
f 690 688 689
f 690 691 688
f 692 691 690
f 693 691 692
f 693 694 691
f 695 694 693
f 695 696 694
f 697 696 695
f 697 698 696
f 699 698 697
f 699 700 698
f 701 700 699
f 701 702 700
f 701 703 702
f 704 703 701
f 704 705 703
f 704 706 705
f 707 706 704
f 707 708 706
f 707 709 708
f 710 709 707
f 710 711 709
f 710 712 711
f 713 712 710
f 713 714 712
f 713 715 714
f 716 715 713
f 716 717 715
f 716 718 717
f 719 718 716
f 720 718 719
f 720 721 718
f 722 721 720
f 722 723 721
f 724 723 722
f 724 725 723
f 726 725 724
f 726 727 725
f 728 727 726
f 728 729 727
f 730 729 728
f 730 731 729
f 732 731 730
f 732 733 731
f 734 733 732
f 734 735 733
f 736 735 734
f 736 737 735
f 738 737 736
f 738 739 737
f 740 739 738
f 740 741 739
f 742 741 740
f 742 743 741
f 744 743 742
f 744 745 743
f 746 745 744
f 746 747 745
f 748 747 746
f 748 749 747
f 750 749 748
f 750 751 749
f 752 751 750
f 752 753 751
f 754 753 752
f 754 755 753
f 756 755 754
f 756 757 755
f 758 757 756
f 758 759 757
f 760 759 758
f 760 761 759
f 762 761 760
f 762 763 761
f 764 763 762
f 764 765 763
f 766 765 764
f 766 767 765
f 768 767 766
f 768 769 767
f 770 769 768
f 770 771 769
f 772 771 770
f 772 773 771
f 774 773 772
f 774 775 773
f 776 775 774
f 776 777 775
f 778 777 776
f 778 779 777
f 780 779 778
f 780 781 779
f 782 781 780
f 782 783 781
f 784 783 782
f 784 785 783
f 786 785 784
f 786 787 785
f 788 787 786
f 788 789 787
f 790 789 788
f 790 791 789
f 792 791 790
f 792 793 791
f 794 793 792
f 794 795 793
f 796 795 794
f 796 797 795
f 798 797 796
f 798 799 797
f 800 799 798
f 800 801 799
f 802 801 800
f 802 803 801
f 804 803 802
f 804 805 803
f 806 805 804
f 806 807 805
f 808 807 806
f 808 809 807
f 810 809 808
f 810 811 809
f 812 811 810
f 812 813 811
f 814 813 812
f 814 815 813
f 816 815 814
f 816 817 815
f 818 817 816
f 818 819 817
f 820 819 818
f 821 819 820
f 821 822 819
f 823 821 820
f 824 823 820
f 825 824 820
f 825 820 826
f 827 825 826
f 828 827 826
f 829 828 826
f 829 826 830
f 831 830 826
f 832 831 826
f 833 832 826
f 833 826 834
f 835 833 834
f 836 835 834
f 837 836 834
f 838 837 834
f 838 834 839
f 834 840 839
f 841 838 839
f 842 841 839
f 843 842 839
f 844 843 839
f 845 844 839
f 845 839 846
f 847 845 846
f 848 847 846
f 849 848 846
f 850 849 846
f 851 850 846
f 852 851 846
f 853 852 846
f 853 846 819
f 822 853 819
f 854 840 834
f 854 855 840
f 856 855 854
f 856 857 855
f 856 858 857
f 859 858 856
f 859 860 858
f 861 860 859
f 862 860 861
f 862 863 860
f 864 863 862
f 865 863 864
f 865 866 863
f 867 866 865
f 867 868 866
f 869 868 867
f 869 870 868
f 871 870 869
f 871 872 870
f 873 872 871
f 873 874 872
f 875 874 873
f 875 876 874
f 877 876 875
f 877 878 876
f 879 878 877
f 879 880 878
f 881 880 879
f 881 882 880
f 883 882 881
f 883 884 882
f 885 884 883
f 885 886 884
f 887 886 885
f 887 888 886
f 889 888 887
f 889 890 888
f 891 890 889
f 891 892 890
f 893 892 891
f 893 894 892
f 895 894 893
f 895 896 894
f 897 896 895
f 897 898 896
f 899 898 897
f 899 900 898
f 901 900 899
f 901 902 900
f 903 902 901
f 903 904 902
f 905 904 903
f 905 906 904
f 907 906 905
f 907 908 906
f 909 908 907
f 909 910 908
f 911 910 909
f 911 912 910
f 911 913 912
f 914 913 911
f 915 913 914
f 915 916 913
f 917 916 915
f 917 918 916
f 917 919 918
f 920 919 917
f 920 921 919
f 922 921 920
f 922 923 921
f 924 923 922
f 924 925 923
f 926 925 924
f 926 927 925
f 928 927 926
f 928 929 927
f 930 929 928
f 930 931 929
f 932 931 930
f 932 933 931
f 934 933 932
f 934 935 933
f 936 935 934
f 936 937 935
f 938 937 936
f 938 939 937
f 940 939 938
f 940 941 939
f 942 941 940
f 942 943 941
f 944 943 942
f 944 945 943
f 946 945 944
f 946 947 945
f 948 947 946
f 949 947 948
f 949 950 947
f 951 950 949
f 951 952 950
f 953 951 949
f 954 953 949
f 955 954 949
f 955 949 956
f 957 955 956
f 958 957 956
f 959 958 956
f 960 959 956
f 961 960 956
f 962 961 956
f 963 962 956
f 964 963 956
f 965 964 956
f 966 965 956
f 967 966 956
f 967 956 950
f 956 968 950
f 969 967 950
f 970 969 950
f 971 970 950
f 971 950 972
f 973 972 950
f 974 973 950
f 975 974 950
f 976 975 950
f 977 976 950
f 978 977 950
f 979 978 950
f 980 979 950
f 952 980 950
f 981 968 956
f 981 982 968
f 981 983 982
f 984 983 981
f 984 985 983
f 986 985 984
f 986 987 985
f 988 987 986
f 988 989 987
f 990 989 988
f 990 991 989
f 990 992 991
f 993 992 990
f 993 994 992
f 995 994 993
f 995 996 994
f 997 996 995
f 997 998 996
f 999 998 997
f 999 1000 998
f 1001 1000 999
f 1001 1002 1000
f 1001 1003 1002
f 1004 1003 1001
f 1004 1005 1003
f 1006 1005 1004
f 1006 1007 1005
f 1008 1007 1006
f 1008 1009 1007
f 1010 1009 1008
f 1010 1011 1009
f 1012 1011 1010
f 1012 1013 1011
f 1014 1013 1012
f 1015 1013 1014
f 1015 1016 1013
f 1017 1016 1015
f 1018 1016 1017
f 1018 1019 1016
f 1020 1019 1018
f 1020 1021 1019
f 1022 1021 1020
f 1022 1023 1021
f 1024 1023 1022
f 1024 1025 1023
f 1024 1026 1025
f 1027 1026 1024
f 1027 1028 1026
f 1027 1029 1028
f 1030 1029 1027
f 1030 1031 1029
f 1030 1032 1031
f 1033 1032 1030
f 1033 1034 1032
f 1035 1034 1033
f 1035 1036 1034
f 1035 1037 1036
f 1038 1037 1035
f 1038 1039 1037
f 1040 1039 1038
f 1041 1039 1040
f 1041 1042 1039
f 1043 1042 1041
f 1043 1044 1042
f 1045 1044 1043
f 1045 1046 1044
f 1047 1046 1045
f 1047 1048 1046
f 1049 1048 1047
f 1049 1050 1048
f 1051 1050 1049
f 1052 1050 1051
f 1052 1053 1050
f 1054 1053 1052
f 1054 1055 1053
f 1056 1055 1054
f 1056 1057 1055
f 1058 1057 1056
f 1058 1059 1057
f 1060 1059 1058
f 1060 1061 1059
f 1062 1061 1060
f 1062 1063 1061
f 1064 1063 1062
f 1064 1065 1063
f 1066 1065 1064
f 1066 1067 1065
f 1068 1067 1066
f 1068 1069 1067
f 1070 1069 1068
f 1070 1071 1069
f 1070 1072 1071
f 1073 1072 1070
f 1073 1074 1072
f 1073 1075 1074
f 1076 1075 1073
f 1076 1077 1075
f 1078 1077 1076
f 1078 1079 1077
f 1078 1080 1079
f 1081 1080 1078
f 1081 1082 1080
f 1083 1082 1081
f 1083 1084 1082
f 1083 1085 1084
f 1086 1085 1083
f 1086 1087 1085
f 1088 1087 1086
f 1088 1089 1087
f 1090 1089 1088
f 1090 1091 1089
f 1092 1091 1090
f 1092 1093 1091
f 1094 1093 1092
f 1094 1095 1093
f 1096 1095 1094
f 1096 1097 1095
f 1098 1097 1096
f 1099 1097 1098
f 1099 1100 1097
f 1101 1100 1099
f 1102 1100 1101
f 1102 1103 1100
f 1104 1103 1102
f 1104 1105 1103
f 1106 1105 1104
f 1107 1105 1106
f 1107 1108 1105
f 1109 1108 1107
f 1110 1108 1109
f 1110 1111 1108
f 1112 1111 1110
f 1112 1113 1111
f 1114 1113 1112
f 1114 1115 1113
f 460 1115 1114
f 460 446 1115
f 1116 1117 1118
f 1119 1117 1116
f 1120 1116 1118
f 1120 1118 1121
f 1120 1121 1122
f 1122 1121 1123
f 1122 1123 1124
f 1124 1123 1125
f 1124 1125 1126
f 1126 1125 1127
f 1126 1127 1128
f 1128 1127 1129
f 1128 1129 1130
f 1130 1129 1131
f 1130 1131 1132
f 1132 1131 1133
f 1132 1133 1134
f 1134 1133 1135
f 1134 1135 1136
f 1136 1135 1137
f 1136 1137 1138
f 1138 1137 1139
f 1138 1139 1140
f 1140 1139 1141
f 1140 1141 1142
f 1142 1141 1143
f 1142 1143 1144
f 1144 1143 1145
f 1144 1145 1146
f 1146 1145 1147
f 1146 1147 1148
f 1148 1147 1149
f 1148 1149 1150
f 1150 1149 1151
f 1150 1151 1152
f 1152 1151 1153
f 1152 1153 1154
f 1154 1153 1155
f 1154 1155 1156
f 1156 1155 1157
f 1156 1157 1158
f 1158 1157 1159
f 1158 1159 1160
f 1160 1159 1161
f 1160 1161 1162
f 1162 1161 1163
f 1162 1163 1164
f 1164 1163 1165
f 1164 1165 1166
f 1166 1165 1167
f 1166 1167 1168
f 1168 1167 1169
f 1168 1169 1170
f 1170 1169 1171
f 1170 1171 1119
f 1119 1171 1117
f 1172 1173 1174
f 1172 1175 1173
f 1176 1172 1174
f 1176 1174 1177
f 1176 1177 1178
f 1176 1178 1179
f 1176 1179 1180
f 1176 1180 1181
f 1176 1181 1182
f 1176 1182 1183
f 1184 1176 1183
f 1184 1183 1185
f 1184 1185 1186
f 1184 1186 1187
f 1184 1187 1188
f 1184 1188 1189
f 1190 1184 1189
f 1190 1189 1191
f 1190 1191 1192
f 1190 1192 1193
f 1190 1193 1194
f 1190 1194 1195
f 1190 1195 1196
f 1190 1196 1197
f 1190 1197 1198
f 1190 1198 1199
f 1200 1190 1199
f 1200 1199 1201
f 1202 1200 1201
f 1202 1203 1200
f 1204 1202 1201
f 1205 1204 1201
f 1206 1205 1201
f 1207 1206 1201
f 1207 1201 1208
f 1209 1207 1208
f 1209 1208 1210
f 1209 1210 1211
f 1209 1211 1212
f 1213 1209 1212
f 1213 1212 1214
f 1213 1214 1215
f 1216 1213 1215
f 1216 1215 1217
f 1216 1217 1218
f 1219 1216 1218
f 1219 1218 1220
f 1219 1220 1221
f 1222 1219 1221
f 1222 1221 1223
f 1222 1223 1224
f 1222 1224 1225
f 1226 1222 1225
f 1226 1225 1227
f 1226 1227 1228
f 1226 1228 1229
f 1226 1229 1230
f 1231 1230 1229
f 1232 1226 1230
f 1232 1233 1226
f 1234 1232 1230
f 1234 1230 1235
f 1236 1234 1235
f 1237 1236 1235
f 1238 1237 1235
f 1239 1238 1235
f 1240 1239 1235
f 1241 1240 1235
f 1242 1241 1235
f 1243 1242 1235
f 1244 1243 1235
f 1245 1244 1235
f 1245 1235 1246
f 1247 1245 1246
f 1248 1247 1246
f 1248 1246 1249
f 1250 1249 1246
f 1250 1246 1251
f 1250 1251 1252
f 1253 1250 1252
f 1253 1252 1254
f 1253 1254 1255
f 1253 1255 1256
f 1253 1256 1257
f 1253 1257 1258
f 1253 1258 1259
f 1260 1253 1259
f 1260 1259 1261
f 1260 1261 1262
f 1260 1262 1263
f 1260 1263 1264
f 1260 1264 1265
f 1260 1265 1266
f 1260 1266 1267
f 1260 1267 1268
f 1260 1268 1269
f 1260 1269 1270
f 1260 1270 1271
f 1270 1272 1271
f 1273 1260 1271
f 1273 1271 1274
f 1273 1274 1275
f 1273 1275 1276
f 1277 1273 1276
f 1277 1276 1278
f 1277 1278 1279
f 1278 1280 1279
f 1281 1277 1279
f 1282 1281 1279
f 1283 1282 1279
f 1284 1283 1279
f 1285 1284 1279
f 1286 1285 1279
f 1287 1286 1279
f 1288 1287 1279
f 1232 1288 1279
f 1232 1279 1289
f 1290 1289 1279
f 1232 1289 1233
f 1291 1290 1279
f 1292 1291 1279
f 1293 1292 1279
f 1294 1293 1279
f 1295 1294 1279
f 1296 1295 1279
f 1297 1296 1279
f 1297 1279 1298
f 1297 1298 1299
f 1297 1299 1300
f 1297 1300 1301
f 1297 1301 1302
f 1297 1302 1303
f 1297 1303 1304
f 1297 1304 1305
f 1297 1305 1306
f 1297 1306 1307
f 1297 1307 1308
f 1297 1308 1309
f 1297 1309 1310
f 1297 1310 1311
f 1297 1311 1312
f 1297 1312 1313
f 1297 1313 1314
f 1297 1314 1315
f 1316 1297 1315
f 1316 1315 1317
f 1318 1316 1317
f 1319 1318 1317
f 1320 1319 1317
f 1321 1320 1317
f 1322 1321 1317
f 1323 1322 1317
f 1324 1323 1317
f 1325 1324 1317
f 1326 1325 1317
f 1327 1326 1317
f 1328 1327 1317
f 1329 1328 1317
f 1329 1330 1328
f 1329 1331 1330
f 1331 1332 1330
f 1331 1333 1332
f 1333 1334 1332
f 1280 1335 1279
f 1335 1336 1279
f 1336 1337 1279
f 1337 1338 1279
f 1338 1339 1279
f 1339 1340 1279
f 1340 1341 1279
f 1341 1342 1279
f 1342 1343 1279
f 1343 1344 1279
f 1344 1345 1279
f 1345 1346 1279
f 1346 1347 1279
f 1347 1348 1279
f 1348 1349 1279
f 1348 1350 1349
f 1350 1351 1349
f 1350 1352 1351
f 1350 1353 1352
f 1353 1354 1352
f 1353 1355 1354
f 1353 1356 1355
f 1353 1357 1356
f 1353 1358 1357
f 1353 1359 1358
f 1359 1360 1358
f 1359 1361 1360
f 1359 1362 1361
f 1359 1363 1362
f 1363 1364 1362
f 1364 1365 1362
f 1364 1366 1365
f 1366 1367 1365
f 1366 1368 1367
f 1368 1369 1367
f 1369 1370 1367
f 1369 1371 1370
f 1371 1372 1370
f 1371 1373 1372
f 1373 1374 1372
f 1374 1375 1372
f 1374 1376 1375
f 1376 1377 1375
f 1376 1378 1377
f 1378 1379 1377
f 1378 1380 1379
f 1380 1381 1379
f 1382 1231 1229
f 1382 1229 1383
f 1384 1382 1383
f 1385 1384 1383
f 1386 1385 1383
f 1386 1383 1387
f 1388 1386 1387
f 1389 1388 1387
f 1389 1387 1390
f 1391 1389 1390
f 1392 1391 1390
f 1392 1390 1393
f 1175 1392 1393
f 1175 1393 1173
f 1203 1394 1200
f 1203 1395 1394
f 1395 1396 1394
f 1395 1397 1396
f 1395 1398 1397
f 1397 1399 1396
f 1397 1400 1399
f 1400 1401 1399
f 1401 1402 1399
f 1402 1403 1399
f 1403 1404 1399
f 1404 1405 1399
f 1405 1406 1399
f 1405 1407 1406
f 1407 1408 1406
f 1408 1409 1406
f 1409 1410 1406
f 1410 1411 1406
f 1411 1412 1406
f 1412 1413 1406
f 1412 1414 1413
f 1414 1415 1413
f 1415 1416 1413
f 1416 1417 1413
f 1417 1418 1413
f 1418 1419 1413
f 1418 1420 1419
f 1420 1421 1419
f 1421 1422 1419
f 1421 1423 1422
f 1423 1424 1422
f 1424 1425 1422
f 1425 1426 1422
f 1425 1427 1426
f 1427 1428 1426
f 1428 1429 1426
f 1428 1430 1429
f 1430 1431 1429
f 1431 1432 1429
f 1432 1433 1429
f 1433 1434 1429
f 1433 1435 1434
f 1435 1436 1434
f 1436 1437 1434
f 1437 1438 1434
f 1437 1439 1438
f 1439 1440 1438
f 1439 1441 1440
f 1439 1442 1441
f 1439 1443 1442
f 1439 1444 1443
f 1439 1445 1444
f 1439 1446 1445
f 1439 1447 1446
f 1439 1448 1447
f 1439 1449 1448
f 1439 1450 1449
f 1439 1451 1450
f 1439 1452 1451
f 1439 1453 1452
f 1439 1454 1453
f 1439 1455 1454
f 1439 1456 1455
f 1439 1457 1456
f 1439 1458 1457
f 1439 1459 1458
f 1439 1460 1459
f 1439 1461 1460
f 1439 1462 1461
f 1439 1463 1462
f 1439 1464 1463
f 1464 1465 1463
f 1464 1466 1465
f 1466 1467 1465
f 1466 1468 1467
f 1468 1469 1467
f 1469 1470 1467
f 1469 1471 1470
f 1471 1472 1470
f 1471 1473 1472
f 1473 1474 1472
f 1474 1475 1472
f 1474 1476 1475
f 1476 1477 1475
f 1476 1478 1477
f 1478 1479 1477
f 1479 1480 1477
f 1479 1481 1480
f 1481 1482 1480
f 1482 1483 1480
f 1482 1484 1483
f 1484 1485 1483
f 1485 1486 1483
f 1485 1487 1486
f 1487 1488 1486
f 1488 1489 1486
f 1488 1490 1489
f 1490 1491 1489
f 1491 1492 1489
f 1491 1493 1492
f 1493 1494 1492
f 1493 1495 1494
f 1493 1496 1495
f 1493 1497 1496
f 1493 1498 1497
f 1493 1499 1498
f 1493 1500 1499
f 1500 1501 1499
f 1500 1502 1501
f 1500 1503 1502
f 1503 1504 1502
f 1503 1505 1504
f 1505 1506 1504
f 1505 1507 1506
f 1505 1508 1507
f 1395 1509 1398
f 1509 1395 1510
f 1510 1511 1509
f 1510 1512 1511
f 1510 1513 1512
f 1510 1514 1513
f 1510 1515 1514
f 1510 1516 1515
f 1510 1517 1516
f 1510 1518 1517
f 1510 1519 1518
f 1510 1520 1519
f 1521 1522 1523
f 1524 1522 1521
f 1525 1521 1523
f 1525 1523 1526
f 1527 1525 1526
f 1527 1526 1528
f 1529 1527 1528
f 1529 1528 1530
f 1531 1529 1530
f 1531 1530 1532
f 1533 1531 1532
f 1533 1532 1534
f 1535 1533 1534
f 1535 1534 1536
f 1537 1535 1536
f 1537 1536 1538
f 1539 1537 1538
f 1539 1538 1540
f 1541 1539 1540
f 1541 1540 1542
f 1543 1541 1542
f 1543 1542 1544
f 1545 1543 1544
f 1545 1544 1546
f 1547 1545 1546
f 1547 1546 1548
f 1549 1547 1548
f 1549 1548 1550
f 1551 1549 1550
f 1551 1550 1552
f 1553 1551 1552
f 1553 1552 1554
f 1555 1553 1554
f 1555 1554 1556
f 1557 1555 1556
f 1557 1556 1558
f 1559 1557 1558
f 1559 1558 1560
f 1561 1559 1560
f 1561 1560 1562
f 1563 1561 1562
f 1563 1562 1564
f 1565 1563 1564
f 1565 1564 1566
f 1567 1565 1566
f 1567 1566 1568
f 1569 1567 1568
f 1569 1568 1570
f 1571 1569 1570
f 1571 1570 1572
f 1573 1571 1572
f 1573 1572 1574
f 1575 1573 1574
f 1575 1574 1576
f 1524 1575 1576
f 1524 1576 1522
f 1577 1578 1579
f 1580 1578 1577
f 1577 1579 1581
f 1581 1579 1582
f 1581 1582 1583
f 1583 1582 1584
f 1583 1584 1585
f 1585 1584 1586
f 1585 1586 1587
f 1587 1586 1588
f 1587 1588 1589
f 1589 1588 1590
f 1589 1590 1591
f 1591 1590 1592
f 1591 1592 1593
f 1593 1592 1594
f 1593 1594 1595
f 1595 1594 1596
f 1596 1594 1597
f 1596 1597 1598
f 1598 1597 1599
f 1598 1599 1600
f 1600 1599 1601
f 1600 1601 1602
f 1602 1601 1603
f 1602 1603 1604
f 1604 1603 1605
f 1604 1605 1606
f 1604 1606 1607
f 1607 1606 1608
f 1609 1607 1608
f 1609 1608 1610
f 1609 1610 1611
f 1611 1610 1612
f 1611 1612 1613
f 1613 1612 1614
f 1613 1614 1615
f 1615 1614 1616
f 1615 1616 1617
f 1617 1616 1618
f 1617 1618 1619
f 1619 1618 1620
f 1619 1620 1621
f 1621 1620 1622
f 1621 1622 1623
f 1623 1622 1624
f 1624 1622 1625
f 1624 1625 1626
f 1626 1625 1627
f 1626 1627 1628
f 1628 1627 1629
f 1628 1629 1630
f 1630 1629 1631
f 1630 1631 1580
f 1580 1631 1632
f 1580 1632 1578
