898 898 0
v -0.04026654 -0.040652865 0.00421875
v -0.03871635 -0.04309779 0.00421875
v -0.03871635 -0.04309779 -0.00234375
v -0.038578635 -0.04331961 0.00421875
v -0.04026654 -0.040652865 -0.00234375
v -0.04036389 -0.040511955 -0.00234375
v -0.04036371 -0.040512165 0.00421875
v -0.040485375 -0.040390665 0.00421875
v -0.040485825 -0.040390305 -0.00234375
v -0.04063311 -0.04030314 0.00421875
v -0.040633755 -0.04030287 -0.00234375
v -0.04079937 -0.04025967 0.00421875
v -0.040799955 -0.040259595 -0.00234375
v -0.04097154 -0.040258725 0.00421875
v -0.04097181 -0.040258755 -0.00234375
v -0.04114011 -0.0402888 -0.00234375
v -0.04114011 -0.0402888 0.00421875
v -0.0419163 -0.040459125 0.00421875
v -0.0419163 -0.040459125 -0.00234375
v -0.04208202 -0.0405024 -0.00234375
v -0.04208175 -0.04050231 0.00421875
v -0.042237525 -0.040575075 0.00421875
v -0.042238035 -0.04057539 -0.00234375
v -0.042370305 -0.040683975 0.00421875
v -0.042370785 -0.040684485 -0.00234375
v -0.04246803 -0.04082535 0.00421875
v -0.042468285 -0.04082586 -0.00234375
v -0.04252779 -0.04098681 0.00421875
v -0.042527865 -0.04098708 -0.00234375
v -0.04255719 -0.0411555 -0.00234375
v -0.04255719 -0.0411555 0.00421875
v -0.043031205 -0.04469688 0.00421875
v -0.043031205 -0.04469688 -0.00234375
v -0.04306329 -0.044880975 -0.00234375
v -0.043063215 -0.04488069 0.00421875
v -0.043128225 -0.04505655 0.00421875
v -0.043128495 -0.04505709 -0.00234375
v -0.04323462 -0.04521078 0.00421875
v -0.04323513 -0.04521132 -0.00234375
v -0.04337952 -0.045329805 0.00421875
v -0.04338003 -0.04533012 -0.00234375
v -0.043549575 -0.04540935 0.00421875
v -0.043549845 -0.04540944 -0.00234375
v -0.043730355 -0.045456555 -0.00234375
v -0.043730355 -0.045456555 0.00421875
v -0.04384434 -0.045481575 0.00421875
v -0.04384434 -0.045481575 -0.00234375
v -0.0440283 -0.045514395 -0.00234375
v -0.044028015 -0.045514365 0.00421875
v -0.0442155 -0.04551342 0.00421875
v -0.044216115 -0.045513345 -0.00234375
v -0.04439682 -0.045466185 0.00421875
v -0.04439751 -0.0454659 -0.00234375
v -0.04455822 -0.04537074 0.00421875
v -0.0445587 -0.045370365 -0.00234375
v -0.044691135 -0.04523814 0.00421875
v -0.044691315 -0.04523793 -0.00234375
v -0.044797335 -0.04508442 -0.00234375
v -0.044797335 -0.04508442 0.00421875
v -0.04671057 -0.04206687 0.00421875
v -0.04671057 -0.04206687 -0.00234375
v -0.04680792 -0.04192596 -0.00234375
v -0.04680774 -0.04192617 0.00421875
v -0.046929405 -0.04180467 0.00421875
v -0.046929855 -0.04180431 -0.00234375
v -0.04707714 -0.041717145 0.00421875
v -0.047077785 -0.041716875 -0.00234375
v -0.0472434 -0.041673675 0.00421875
v -0.047243985 -0.041673615 -0.00234375
v -0.04741557 -0.041672745 0.00421875
v -0.047415855 -0.04167276 -0.00234375
v -0.04758414 -0.04170282 -0.00234375
v -0.04758414 -0.04170282 0.00421875
v -0.04836033 -0.04187313 0.00421875
v -0.04836033 -0.04187313 -0.00234375
v -0.04852605 -0.041916405 -0.00234375
v -0.04852578 -0.041916315 0.00421875
v -0.04868157 -0.041989095 0.00421875
v -0.048682065 -0.04198941 -0.00234375
v -0.048814335 -0.04209798 0.00421875
v -0.048814815 -0.042098505 -0.00234375
v -0.04891206 -0.042239355 0.00421875
v -0.048912315 -0.042239865 -0.00234375
v -0.04897182 -0.042400815 0.00421875
v -0.048971895 -0.042401085 -0.00234375
v -0.04900122 -0.042569505 -0.00234375
v -0.04900122 -0.042569505 0.00421875
v -0.049475235 -0.046110885 0.00421875
v -0.049475235 -0.046110885 -0.00234375
v -0.04950732 -0.04629498 -0.00234375
v -0.049507245 -0.04629471 0.00421875
v -0.049572255 -0.046470555 0.00421875
v -0.04957254 -0.04647111 -0.00234375
v -0.04967865 -0.046624785 0.00421875
v -0.04967916 -0.04662534 -0.00234375
v -0.04982355 -0.04674381 0.00421875
v -0.04982406 -0.04674414 -0.00234375
v -0.049993605 -0.046823355 0.00421875
v -0.049993875 -0.046823445 -0.00234375
v -0.050174385 -0.046870575 -0.00234375
v -0.050174385 -0.046870575 0.00421875
v -0.05028837 -0.04689558 0.00421875
v -0.05028837 -0.04689558 -0.00234375
v -0.05047233 -0.0469284 -0.00234375
v -0.050472045 -0.04692837 0.00421875
v -0.05065953 -0.046927425 0.00421875
v -0.050660145 -0.04692735 -0.00234375
v -0.05084085 -0.046880205 0.00421875
v -0.05084154 -0.04687992 -0.00234375
v -0.051002265 -0.046784745 0.00421875
v -0.05100273 -0.04678437 -0.00234375
v -0.051135165 -0.04665216 0.00421875
v -0.051135345 -0.046651935 -0.00234375
v -0.051241365 -0.046498425 -0.00234375
v -0.051241365 -0.046498425 0.00421875
v -0.0531546 -0.04348089 0.00421875
v -0.0531546 -0.04348089 -0.00234375
v -0.05325195 -0.043339965 -0.00234375
v -0.05325177 -0.04334019 0.00421875
v -0.053373435 -0.04321869 0.00421875
v -0.053373885 -0.04321833 -0.00234375
v -0.05352117 -0.043131165 0.00421875
v -0.053521815 -0.04313088 -0.00234375
v -0.053687445 -0.043087695 0.00421875
v -0.053688015 -0.04308762 -0.00234375
v -0.0538596 -0.04308675 0.00421875
v -0.05385987 -0.04308678 -0.00234375
v -0.05402817 -0.043116825 -0.00234375
v -0.05402817 -0.043116825 0.00421875
v -0.05480436 -0.043287135 0.00421875
v -0.05480436 -0.043287135 -0.00234375
v -0.05497008 -0.043330425 -0.00234375
v -0.05496981 -0.043330335 0.00421875
v -0.0551256 -0.0434031 0.00421875
v -0.055126095 -0.043403415 -0.00234375
v -0.055258365 -0.043512 0.00421875
v -0.055258845 -0.04351251 -0.00234375
v -0.05535609 -0.043653375 0.00421875
v -0.055356345 -0.043653885 -0.00234375
v -0.055415865 -0.043814835 0.00421875
v -0.055415925 -0.04381509 -0.00234375
v -0.05544525 -0.043983525 -0.00234375
v -0.05544525 -0.043983525 0.00421875
v -0.055919265 -0.047524905 0.00421875
v -0.055919265 -0.047524905 -0.00234375
v -0.05595135 -0.047709 -0.00234375
v -0.055951275 -0.047708715 0.00421875
v -0.056016285 -0.047884575 0.00421875
v -0.056016555 -0.047885115 -0.00234375
v -0.05612268 -0.048038805 0.00421875
v -0.05612319 -0.048039345 -0.00234375
v -0.05626758 -0.04815783 0.00421875
v -0.05626809 -0.048158145 -0.00234375
v -0.056437635 -0.048237375 0.00421875
v -0.056437905 -0.048237465 -0.00234375
v -0.056618415 -0.04828458 -0.00234375
v -0.056618415 -0.04828458 0.00421875
v -0.0567324 -0.0483096 0.00421875
v -0.0567324 -0.0483096 -0.00234375
v -0.05691636 -0.048342405 -0.00234375
v -0.056916075 -0.04834239 0.00421875
v -0.05710356 -0.048341445 0.00421875
v -0.057104175 -0.04834137 -0.00234375
v -0.05728488 -0.04829421 0.00421875
v -0.05728557 -0.048293925 -0.00234375
v -0.05744628 -0.048198765 0.00421875
v -0.05744676 -0.04819839 -0.00234375
v -0.057579195 -0.048066165 0.00421875
v -0.057579375 -0.04806594 -0.00234375
v -0.057685395 -0.047912445 -0.00234375
v -0.057685395 -0.047912445 0.00421875
v -0.05959863 -0.044894895 0.00421875
v -0.05959863 -0.044894895 -0.00234375
v -0.05969598 -0.044753985 -0.00234375
v -0.0596958 -0.044754195 0.00421875
v -0.059817465 -0.044632695 0.00421875
v -0.059817915 -0.044632335 -0.00234375
v -0.0599652 -0.04454517 0.00421875
v -0.059965845 -0.0445449 -0.00234375
v -0.060131475 -0.0445017 0.00421875
v -0.060132045 -0.044501625 -0.00234375
v -0.06030363 -0.044500755 0.00421875
v -0.0603039 -0.044500785 -0.00234375
v -0.0604722 -0.04453083 -0.00234375
v -0.0604722 -0.04453083 0.00421875
v -0.06124839 -0.044701155 0.00421875
v -0.06124839 -0.044701155 -0.00234375
v -0.06141411 -0.04474443 -0.00234375
v -0.06141384 -0.04474434 0.00421875
v -0.06156963 -0.04481712 0.00421875
v -0.061570125 -0.04481742 -0.00234375
v -0.061702395 -0.044926005 0.00421875
v -0.061702875 -0.04492653 -0.00234375
v -0.06180012 -0.04506738 0.00421875
v -0.061800375 -0.04506789 -0.00234375
v -0.06185988 -0.04522884 0.00421875
v -0.061859955 -0.04522911 -0.00234375
v -0.06188928 -0.04539753 -0.00234375
v -0.06188928 -0.04539753 0.00421875
v -0.062363295 -0.04893891 0.00421875
v -0.062363295 -0.04893891 -0.00234375
v -0.06239538 -0.049123005 -0.00234375
v -0.062395305 -0.04912272 0.00421875
v -0.062460315 -0.04929858 0.00421875
v -0.0624606 -0.04929912 -0.00234375
v -0.06256671 -0.04945281 0.00421875
v -0.06256722 -0.04945335 -0.00234375
v -0.06271161 -0.049571835 0.00421875
v -0.062712135 -0.049572165 -0.00234375
v -0.062881665 -0.04965138 0.00421875
v -0.062881935 -0.04965147 -0.00234375
v -0.063062445 -0.0496986 -0.00234375
v -0.063062445 -0.0496986 0.00421875
v -0.06317643 -0.049723605 0.00421875
v -0.06317643 -0.049723605 -0.00234375
v -0.06336039 -0.049756425 -0.00234375
v -0.063360105 -0.049756395 0.00421875
v -0.06354759 -0.04975545 0.00421875
v -0.063548205 -0.049755375 -0.00234375
v -0.06372891 -0.049708215 0.00421875
v -0.0637296 -0.04970793 -0.00234375
v -0.063890325 -0.04961277 0.00421875
v -0.063890805 -0.049612395 -0.00234375
v -0.064023225 -0.04948017 0.00421875
v -0.064023405 -0.04947996 -0.00234375
v -0.064129425 -0.04932645 -0.00234375
v -0.064129425 -0.04932645 0.00421875
v -0.06604266 -0.0463089 0.00421875
v -0.06604266 -0.0463089 -0.00234375
v -0.06614001 -0.04616799 -0.00234375
v -0.06613983 -0.0461682 0.00421875
v -0.066261495 -0.046046715 0.00421875
v -0.066261945 -0.046046355 -0.00234375
v -0.06640923 -0.045959175 0.00421875
v -0.066409875 -0.045958905 -0.00234375
v -0.06657549 -0.04591572 0.00421875
v -0.066576075 -0.045915645 -0.00234375
v -0.06674766 -0.045914775 0.00421875
v -0.06674793 -0.04591479 -0.00234375
v -0.06691623 -0.04594485 -0.00234375
v -0.06691623 -0.04594485 0.00421875
v -0.06769242 -0.04611516 0.00421875
v -0.06769242 -0.04611516 -0.00234375
v -0.06785814 -0.046158435 -0.00234375
v -0.06785787 -0.04615836 0.00421875
v -0.06801366 -0.046231125 0.00421875
v -0.068014155 -0.04623144 -0.00234375
v -0.06814644 -0.04634001 0.00421875
v -0.06814692 -0.046340535 -0.00234375
v -0.06824415 -0.046481385 0.00421875
v -0.068244405 -0.04648191 -0.00234375
v -0.068303925 -0.04664286 0.00421875
v -0.068303985 -0.046643115 -0.00234375
v -0.06833331 -0.04681155 -0.00234375
v -0.06833331 -0.04681155 0.00421875
v -0.068807325 -0.050352915 0.00421875
v -0.068807325 -0.050352915 -0.00234375
v -0.06883941 -0.05053701 -0.00234375
v -0.068839335 -0.05053674 0.00421875
v -0.068904345 -0.0507126 0.00421875
v -0.06890463 -0.05071314 -0.00234375
v -0.06901074 -0.050866815 0.00421875
v -0.06901125 -0.05086737 -0.00234375
v -0.06915564 -0.05098584 0.00421875
v -0.06915615 -0.05098617 -0.00234375
v -0.069325695 -0.0510654 0.00421875
v -0.069325965 -0.05106549 -0.00234375
v -0.069506475 -0.051112605 -0.00234375
v -0.069506475 -0.051112605 0.00421875
v -0.06962046 -0.05113761 0.00421875
v -0.06962046 -0.05113761 -0.00234375
v -0.06980442 -0.05117043 -0.00234375
v -0.069804135 -0.051170415 0.00421875
v -0.069991635 -0.05116947 0.00421875
v -0.069992235 -0.051169395 -0.00234375
v -0.07017294 -0.051122235 0.00421875
v -0.07017363 -0.05112195 -0.00234375
v -0.070334355 -0.051026775 0.00421875
v -0.07033482 -0.051026415 -0.00234375
v -0.070467255 -0.05089419 0.00421875
v -0.070467435 -0.050893965 -0.00234375
v -0.070573455 -0.050740455 -0.00234375
v -0.070573455 -0.050740455 0.00421875
v -0.07248669 -0.04772292 0.00421875
v -0.07248669 -0.04772292 -0.00234375
v -0.07258404 -0.047581995 -0.00234375
v -0.07258386 -0.04758222 0.00421875
v -0.072705525 -0.04746072 0.00421875
v -0.072705975 -0.04746036 -0.00234375
v -0.07285326 -0.047373195 0.00421875
v -0.072853905 -0.047372925 -0.00234375
v -0.073019535 -0.047329725 0.00421875
v -0.073020105 -0.04732965 -0.00234375
v -0.073191705 -0.04732878 0.00421875
v -0.073191975 -0.04732881 -0.00234375
v -0.07336026 -0.047358855 -0.00234375
v -0.07336026 -0.047358855 0.00421875
v -0.11742939 -0.05702892 -0.00234375
v -0.115939125 -0.05670192 0.000502605
v -0.116065935 -0.056729745 0.00031575
v -0.115863075 -0.056685225 0.000708465
v -0.11583456 -0.05667897 0.0009375
v -0.115863075 -0.056685225 0.001166535
v -0.115939125 -0.05670192 0.001372395
v -0.116065935 -0.056729745 0.00155925
v -0.116229195 -0.056765565 0.001708125
v -0.11642685 -0.05680893 0.001813905
v -0.11663862 -0.0568554 0.00186756
v -0.116861925 -0.056904405 0.00186756
v -0.11742939 -0.05702892 0.00421875
v -0.117073695 -0.056950875 0.001813905
v -0.11727135 -0.05699424 0.001708125
v -0.11743461 -0.057030075 0.00155925
v -0.11756142 -0.0570579 0.001372395
v -0.117637455 -0.05707458 0.001166535
v -0.117665985 -0.057080835 0.0009375
v -0.11781681 -0.05711394 0.00419223
v -0.11781681 -0.05711394 -0.00231723
v -0.117637455 -0.05707458 0.000708465
v -0.11819253 -0.05719638 -0.00224019
v -0.11819253 -0.05719638 0.00411519
v -0.11855862 -0.057276705 -0.00211185
v -0.11855862 -0.057276705 0.00398685
v -0.11890329 -0.057352335 -0.0019365
v -0.11890329 -0.057352335 0.0038115
v -0.119224365 -0.05742279 -0.00171489
v -0.119224365 -0.05742279 0.00358989
v -0.11951238 -0.057486 -0.00145353
v -0.11951238 -0.057486 0.00332853
v -0.11976588 -0.05754162 -0.00115419
v -0.11976588 -0.05754162 0.00302919
v -0.119976525 -0.057587835 -0.0008265
v -0.119976525 -0.057587835 0.0027015
v -0.12014583 -0.05762499 -0.00046875
v -0.12014583 -0.05762499 0.00234375
v -0.12027651 -0.05765367 -7.602e-05
v -0.12027651 -0.05765367 0.00195102
v -0.120363615 -0.05767278 0.00032298
v -0.120363615 -0.05767278 0.00155202
v -0.120407175 -0.057682335 0.000730245
v -0.120407175 -0.057682335 0.001144755
v -0.11756142 -0.0570579 0.000502605
v -0.11743461 -0.057030075 0.00031575
v -0.11727135 -0.05699424 0.000166875
v -0.117073695 -0.056950875 6.1095e-05
v -0.116861925 -0.056904405 7.44e-06
v -0.11663862 -0.0568554 7.44e-06
v -0.11642685 -0.05680893 6.1095e-05
v -0.116229195 -0.056765565 0.000166875
v -0.03857934 -0.04331841 -0.00234375
v -0.03845286 -0.043545975 -0.00234375
v -0.038451675 -0.0435483 0.00421875
v -0.03834648 -0.043781595 -0.00234375
v -0.038344935 -0.043785585 0.00421875
v -0.03826596 -0.0440289 -0.00234375
v -0.038264235 -0.0440355 0.00421875
v -0.03821193 -0.044300985 -0.00234375
v -0.03821064 -0.044310465 0.00421875
v -0.038189685 -0.044612625 -0.00234375
v -0.038189625 -0.044623935 0.00421875
v -0.03819438 -0.044787105 -0.00234375
v -0.038195145 -0.04479861 0.00421875
v -0.038213415 -0.04497411 -0.00234375
v -0.038214915 -0.044985075 0.00421875
v -0.03824736 -0.04517172 -0.00234375
v -0.03824943 -0.04518153 0.00421875
v -0.038297655 -0.04537626 -0.00234375
v -0.038299965 -0.045384405 0.00421875
v -0.03836421 -0.04558515 -0.00234375
v -0.038366415 -0.045591375 0.00421875
v -0.03844716 -0.04579704 -0.00234375
v -0.03844893 -0.04580115 0.00421875
v -0.03854553 -0.04600761 -0.00234375
v -0.038546565 -0.04600965 0.00421875
v -0.03865938 -0.046217055 0.00421875
v -0.03865938 -0.046217055 -0.00234375
v -0.03890124 -0.04658073 0.00421875
v -0.038793525 -0.046425195 -0.00234375
v -0.03893181 -0.046617525 -0.00234375
v -0.03917382 -0.046904025 0.00421875
v -0.039221535 -0.046954305 -0.00234375
v -0.039476475 -0.047186415 0.00421875
v -0.03952923 -0.047226885 -0.00234375
v -0.03981117 -0.04742949 0.00421875
v -0.039838065 -0.047447115 -0.00234375
v -0.040177845 -0.047632995 0.00421875
v -0.0401451 -0.04761918 -0.00234375
v -0.040443705 -0.047750475 -0.00234375
v -0.04058187 -0.04780185 0.00421875
v -0.04073037 -0.047852025 -0.00234375
v -0.040800375 -0.047875545 0.00421875
v -0.041002725 -0.047929245 -0.00234375
v -0.041029215 -0.0479415 0.00421875
v -0.04126527 -0.04799547 -0.00234375
v -0.041268375 -0.0479997 0.00421875
v -0.041517885 -0.04805013 0.00421875
v -0.041517885 -0.04805013 -0.00234375
v -0.115821915 -0.064354635 0.00421875
v -0.11433165 -0.06402762 0.001372395
v -0.11445846 -0.064055445 0.00155925
v -0.114255615 -0.06401094 0.001166535
v -0.114227085 -0.064004685 0.0009375
v -0.114255615 -0.06401094 0.000708465
v -0.11433165 -0.06402762 0.000502605
v -0.11445846 -0.064055445 0.00031575
v -0.11462172 -0.064091265 0.000166875
v -0.114819375 -0.064134645 6.1095e-05
v -0.115031145 -0.064181115 7.44e-06
v -0.11525445 -0.06423012 7.44e-06
v -0.115821915 -0.064354635 -0.00234375
v -0.11546622 -0.06427659 6.1095e-05
v -0.115663875 -0.064319955 0.000166875
v -0.115827135 -0.064355775 0.00031575
v -0.115953945 -0.0643836 0.000502605
v -0.11602998 -0.064400295 0.000708465
v -0.11605851 -0.06440655 0.0009375
v -0.116209335 -0.06443964 -0.00231723
v -0.116209335 -0.06443964 0.00419223
v -0.11658504 -0.064522095 0.00411519
v -0.11602998 -0.064400295 0.001166535
v -0.115953945 -0.0643836 0.001372395
v -0.115827135 -0.064355775 0.00155925
v -0.115663875 -0.064319955 0.001708125
v -0.11546622 -0.06427659 0.001813905
v -0.11525445 -0.06423012 0.00186756
v -0.115031145 -0.064181115 0.00186756
v -0.114819375 -0.064134645 0.001813905
v -0.11462172 -0.064091265 0.001708125
v -0.11658504 -0.064522095 -0.00224019
v -0.116951145 -0.06460242 0.00398685
v -0.116951145 -0.06460242 -0.00211185
v -0.117295815 -0.06467805 0.0038115
v -0.117295815 -0.06467805 -0.0019365
v -0.11761689 -0.064748505 0.00358989
v -0.11761689 -0.064748505 -0.00171489
v -0.117904905 -0.0648117 0.00332853
v -0.117904905 -0.0648117 -0.00145353
v -0.118158405 -0.064867335 0.00302919
v -0.118158405 -0.064867335 -0.00115419
v -0.11836905 -0.06491355 0.0027015
v -0.11836905 -0.06491355 -0.0008265
v -0.118538355 -0.064950705 0.00234375
v -0.118538355 -0.064950705 -0.00046875
v -0.118669035 -0.06497937 0.00195102
v -0.118669035 -0.06497937 -7.602e-05
v -0.118756155 -0.06499848 0.00155202
v -0.118756155 -0.06499848 0.00032298
v -0.118799715 -0.06500805 0.001144755
v -0.118799715 -0.06500805 0.000730245
v -0.03893181 -0.046617525 -0.00234375
v -0.04026654 -0.040652865 -0.00234375
v -0.03871635 -0.04309779 -0.00234375
v -0.039221535 -0.046954305 -0.00234375
v -0.038793525 -0.046425195 -0.00234375
v -0.03865938 -0.046217055 -0.00234375
v -0.03854553 -0.04600761 -0.00234375
v -0.03844716 -0.04579704 -0.00234375
v -0.03836421 -0.04558515 -0.00234375
v -0.038297655 -0.04537626 -0.00234375
v -0.03824736 -0.04517172 -0.00234375
v -0.03857934 -0.04331841 -0.00234375
v -0.038213415 -0.04497411 -0.00234375
v -0.03845286 -0.043545975 -0.00234375
v -0.03819438 -0.044787105 -0.00234375
v -0.038189685 -0.044612625 -0.00234375
v -0.03834648 -0.043781595 -0.00234375
v -0.03821193 -0.044300985 -0.00234375
v -0.03826596 -0.0440289 -0.00234375
v -0.04036389 -0.040511955 -0.00234375
v -0.040485825 -0.040390305 -0.00234375
v -0.040633755 -0.04030287 -0.00234375
v -0.040799955 -0.040259595 -0.00234375
v -0.03952923 -0.047226885 -0.00234375
v -0.04097181 -0.040258755 -0.00234375
v -0.04114011 -0.0402888 -0.00234375
v -0.039838065 -0.047447115 -0.00234375
v -0.0401451 -0.04761918 -0.00234375
v -0.0419163 -0.040459125 -0.00234375
v -0.040443705 -0.047750475 -0.00234375
v -0.04208202 -0.0405024 -0.00234375
v -0.04073037 -0.047852025 -0.00234375
v -0.042238035 -0.04057539 -0.00234375
v -0.042370785 -0.040684485 -0.00234375
v -0.041002725 -0.047929245 -0.00234375
v -0.042468285 -0.04082586 -0.00234375
v -0.042527865 -0.04098708 -0.00234375
v -0.04126527 -0.04799547 -0.00234375
v -0.04255719 -0.0411555 -0.00234375
v -0.041517885 -0.04805013 -0.00234375
v -0.043031205 -0.04469688 -0.00234375
v -0.04306329 -0.044880975 -0.00234375
v -0.043128495 -0.04505709 -0.00234375
v -0.04323513 -0.04521132 -0.00234375
v -0.04338003 -0.04533012 -0.00234375
v -0.043549845 -0.04540944 -0.00234375
v -0.043730355 -0.045456555 -0.00234375
v -0.115821915 -0.064354635 -0.00234375
v -0.04384434 -0.045481575 -0.00234375
v -0.0440283 -0.045514395 -0.00234375
v -0.044216115 -0.045513345 -0.00234375
v -0.04439751 -0.0454659 -0.00234375
v -0.049993875 -0.046823445 -0.00234375
v -0.050174385 -0.046870575 -0.00234375
v -0.0445587 -0.045370365 -0.00234375
v -0.044691315 -0.04523793 -0.00234375
v -0.044797335 -0.04508442 -0.00234375
v -0.04982406 -0.04674414 -0.00234375
v -0.04967916 -0.04662534 -0.00234375
v -0.04957254 -0.04647111 -0.00234375
v -0.04671057 -0.04206687 -0.00234375
v -0.04680792 -0.04192596 -0.00234375
v -0.046929855 -0.04180431 -0.00234375
v -0.047077785 -0.041716875 -0.00234375
v -0.047243985 -0.041673615 -0.00234375
v -0.047415855 -0.04167276 -0.00234375
v -0.04758414 -0.04170282 -0.00234375
v -0.04950732 -0.04629498 -0.00234375
v -0.04836033 -0.04187313 -0.00234375
v -0.04852605 -0.041916405 -0.00234375
v -0.048682065 -0.04198941 -0.00234375
v -0.049475235 -0.046110885 -0.00234375
v -0.048814815 -0.042098505 -0.00234375
v -0.048912315 -0.042239865 -0.00234375
v -0.048971895 -0.042401085 -0.00234375
v -0.04900122 -0.042569505 -0.00234375
v -0.05028837 -0.04689558 -0.00234375
v -0.05047233 -0.0469284 -0.00234375
v -0.050660145 -0.04692735 -0.00234375
v -0.05084154 -0.04687992 -0.00234375
v -0.05100273 -0.04678437 -0.00234375
v -0.056437905 -0.048237465 -0.00234375
v -0.056618415 -0.04828458 -0.00234375
v -0.051135345 -0.046651935 -0.00234375
v -0.051241365 -0.046498425 -0.00234375
v -0.05626809 -0.048158145 -0.00234375
v -0.05612319 -0.048039345 -0.00234375
v -0.056016555 -0.047885115 -0.00234375
v -0.0531546 -0.04348089 -0.00234375
v -0.05325195 -0.043339965 -0.00234375
v -0.053373885 -0.04321833 -0.00234375
v -0.053521815 -0.04313088 -0.00234375
v -0.053688015 -0.04308762 -0.00234375
v -0.05385987 -0.04308678 -0.00234375
v -0.05402817 -0.043116825 -0.00234375
v -0.05595135 -0.047709 -0.00234375
v -0.05480436 -0.043287135 -0.00234375
v -0.05497008 -0.043330425 -0.00234375
v -0.055126095 -0.043403415 -0.00234375
v -0.055919265 -0.047524905 -0.00234375
v -0.055258845 -0.04351251 -0.00234375
v -0.055356345 -0.043653885 -0.00234375
v -0.055415925 -0.04381509 -0.00234375
v -0.05544525 -0.043983525 -0.00234375
v -0.0567324 -0.0483096 -0.00234375
v -0.05691636 -0.048342405 -0.00234375
v -0.057104175 -0.04834137 -0.00234375
v -0.05728557 -0.048293925 -0.00234375
v -0.05744676 -0.04819839 -0.00234375
v -0.062881935 -0.04965147 -0.00234375
v -0.063062445 -0.0496986 -0.00234375
v -0.057579375 -0.04806594 -0.00234375
v -0.057685395 -0.047912445 -0.00234375
v -0.062712135 -0.049572165 -0.00234375
v -0.06256722 -0.04945335 -0.00234375
v -0.0624606 -0.04929912 -0.00234375
v -0.05959863 -0.044894895 -0.00234375
v -0.05969598 -0.044753985 -0.00234375
v -0.059817915 -0.044632335 -0.00234375
v -0.059965845 -0.0445449 -0.00234375
v -0.060132045 -0.044501625 -0.00234375
v -0.0603039 -0.044500785 -0.00234375
v -0.0604722 -0.04453083 -0.00234375
v -0.06239538 -0.049123005 -0.00234375
v -0.06124839 -0.044701155 -0.00234375
v -0.06141411 -0.04474443 -0.00234375
v -0.061570125 -0.04481742 -0.00234375
v -0.062363295 -0.04893891 -0.00234375
v -0.061702875 -0.04492653 -0.00234375
v -0.061800375 -0.04506789 -0.00234375
v -0.061859955 -0.04522911 -0.00234375
v -0.06188928 -0.04539753 -0.00234375
v -0.06317643 -0.049723605 -0.00234375
v -0.06336039 -0.049756425 -0.00234375
v -0.063548205 -0.049755375 -0.00234375
v -0.0637296 -0.04970793 -0.00234375
v -0.063890805 -0.049612395 -0.00234375
v -0.069325965 -0.05106549 -0.00234375
v -0.069506475 -0.051112605 -0.00234375
v -0.064023405 -0.04947996 -0.00234375
v -0.064129425 -0.04932645 -0.00234375
v -0.06915615 -0.05098617 -0.00234375
v -0.06901125 -0.05086737 -0.00234375
v -0.06890463 -0.05071314 -0.00234375
v -0.06604266 -0.0463089 -0.00234375
v -0.06614001 -0.04616799 -0.00234375
v -0.066261945 -0.046046355 -0.00234375
v -0.066409875 -0.045958905 -0.00234375
v -0.066576075 -0.045915645 -0.00234375
v -0.06674793 -0.04591479 -0.00234375
v -0.06691623 -0.04594485 -0.00234375
v -0.06883941 -0.05053701 -0.00234375
v -0.06769242 -0.04611516 -0.00234375
v -0.06785814 -0.046158435 -0.00234375
v -0.068014155 -0.04623144 -0.00234375
v -0.068807325 -0.050352915 -0.00234375
v -0.06814692 -0.046340535 -0.00234375
v -0.068244405 -0.04648191 -0.00234375
v -0.068303985 -0.046643115 -0.00234375
v -0.06833331 -0.04681155 -0.00234375
v -0.06962046 -0.05113761 -0.00234375
v -0.06980442 -0.05117043 -0.00234375
v -0.069992235 -0.051169395 -0.00234375
v -0.07017363 -0.05112195 -0.00234375
v -0.07033482 -0.051026415 -0.00234375
v -0.070467435 -0.050893965 -0.00234375
v -0.070573455 -0.050740455 -0.00234375
v -0.07248669 -0.04772292 -0.00234375
v -0.07258404 -0.047581995 -0.00234375
v -0.072705975 -0.04746036 -0.00234375
v -0.072853905 -0.047372925 -0.00234375
v -0.073020105 -0.04732965 -0.00234375
v -0.073191975 -0.04732881 -0.00234375
v -0.07336026 -0.047358855 -0.00234375
v -0.11742939 -0.05702892 -0.00234375
v -0.116209335 -0.06443964 -0.00231723
v -0.11781681 -0.05711394 -0.00231723
v -0.11658504 -0.064522095 -0.00224019
v -0.11819253 -0.05719638 -0.00224019
v -0.116951145 -0.06460242 -0.00211185
v -0.11855862 -0.057276705 -0.00211185
v -0.117295815 -0.06467805 -0.0019365
v -0.11890329 -0.057352335 -0.0019365
v -0.11761689 -0.064748505 -0.00171489
v -0.119224365 -0.05742279 -0.00171489
v -0.117904905 -0.0648117 -0.00145353
v -0.11951238 -0.057486 -0.00145353
v -0.118158405 -0.064867335 -0.00115419
v -0.11976588 -0.05754162 -0.00115419
v -0.11836905 -0.06491355 -0.0008265
v -0.119976525 -0.057587835 -0.0008265
v -0.118538355 -0.064950705 -0.00046875
v -0.12014583 -0.05762499 -0.00046875
v -0.118669035 -0.06497937 -7.602e-05
v -0.12027651 -0.05765367 -7.602e-05
v -0.118756155 -0.06499848 0.00032298
v -0.120363615 -0.05767278 0.00032298
v -0.118799715 -0.06500805 0.000730245
v -0.120407175 -0.057682335 0.000730245
v -0.118799715 -0.06500805 0.001144755
v -0.120407175 -0.057682335 0.001144755
v -0.118756155 -0.06499848 0.00155202
v -0.120363615 -0.05767278 0.00155202
v -0.118669035 -0.06497937 0.00195102
v -0.12027651 -0.05765367 0.00195102
v -0.118538355 -0.064950705 0.00234375
v -0.12014583 -0.05762499 0.00234375
v -0.11836905 -0.06491355 0.0027015
v -0.119976525 -0.057587835 0.0027015
v -0.118158405 -0.064867335 0.00302919
v -0.11976588 -0.05754162 0.00302919
v -0.117904905 -0.0648117 0.00332853
v -0.11951238 -0.057486 0.00332853
v -0.11761689 -0.064748505 0.00358989
v -0.119224365 -0.05742279 0.00358989
v -0.117295815 -0.06467805 0.0038115
v -0.11890329 -0.057352335 0.0038115
v -0.116951145 -0.06460242 0.00398685
v -0.11855862 -0.057276705 0.00398685
v -0.11658504 -0.064522095 0.00411519
v -0.11819253 -0.05719638 0.00411519
v -0.116209335 -0.06443964 0.00419223
v -0.11781681 -0.05711394 0.00419223
v -0.115821915 -0.064354635 0.00421875
v -0.11742939 -0.05702892 0.00421875
v -0.041517885 -0.04805013 0.00421875
v -0.069804135 -0.051170415 0.00421875
v -0.069991635 -0.05116947 0.00421875
v -0.06962046 -0.05113761 0.00421875
v -0.069506475 -0.051112605 0.00421875
v -0.069325695 -0.0510654 0.00421875
v -0.06915564 -0.05098584 0.00421875
v -0.06901074 -0.050866815 0.00421875
v -0.068904345 -0.0507126 0.00421875
v -0.068839335 -0.05053674 0.00421875
v -0.068807325 -0.050352915 0.00421875
v -0.063360105 -0.049756395 0.00421875
v -0.06354759 -0.04975545 0.00421875
v -0.06317643 -0.049723605 0.00421875
v -0.063062445 -0.0496986 0.00421875
v -0.062881665 -0.04965138 0.00421875
v -0.06271161 -0.049571835 0.00421875
v -0.06256671 -0.04945281 0.00421875
v -0.062460315 -0.04929858 0.00421875
v -0.062395305 -0.04912272 0.00421875
v -0.062363295 -0.04893891 0.00421875
v -0.056916075 -0.04834239 0.00421875
v -0.05710356 -0.048341445 0.00421875
v -0.0567324 -0.0483096 0.00421875
v -0.056618415 -0.04828458 0.00421875
v -0.056437635 -0.048237375 0.00421875
v -0.05626758 -0.04815783 0.00421875
v -0.05612268 -0.048038805 0.00421875
v -0.056016285 -0.047884575 0.00421875
v -0.055951275 -0.047708715 0.00421875
v -0.055919265 -0.047524905 0.00421875
v -0.05065953 -0.046927425 0.00421875
v -0.05084085 -0.046880205 0.00421875
v -0.050472045 -0.04692837 0.00421875
v -0.05028837 -0.04689558 0.00421875
v -0.050174385 -0.046870575 0.00421875
v -0.049993605 -0.046823355 0.00421875
v -0.04982355 -0.04674381 0.00421875
v -0.04967865 -0.046624785 0.00421875
v -0.049572255 -0.046470555 0.00421875
v -0.049507245 -0.04629471 0.00421875
v -0.049475235 -0.046110885 0.00421875
v -0.04900122 -0.042569505 0.00421875
v -0.04897182 -0.042400815 0.00421875
v -0.04891206 -0.042239355 0.00421875
v -0.048814335 -0.04209798 0.00421875
v -0.04868157 -0.041989095 0.00421875
v -0.04852578 -0.041916315 0.00421875
v -0.04455822 -0.04537074 0.00421875
v -0.04836033 -0.04187313 0.00421875
v -0.04439682 -0.045466185 0.00421875
v -0.0442155 -0.04551342 0.00421875
v -0.044028015 -0.045514365 0.00421875
v -0.04384434 -0.045481575 0.00421875
v -0.043730355 -0.045456555 0.00421875
v -0.043549575 -0.04540935 0.00421875
v -0.04337952 -0.045329805 0.00421875
v -0.04323462 -0.04521078 0.00421875
v -0.043128225 -0.04505655 0.00421875
v -0.043063215 -0.04488069 0.00421875
v -0.043031205 -0.04469688 0.00421875
v -0.041268375 -0.0479997 0.00421875
v -0.04255719 -0.0411555 0.00421875
v -0.041029215 -0.0479415 0.00421875
v -0.04252779 -0.04098681 0.00421875
v -0.040800375 -0.047875545 0.00421875
v -0.04246803 -0.04082535 0.00421875
v -0.042370305 -0.040683975 0.00421875
v -0.04058187 -0.04780185 0.00421875
v -0.042237525 -0.040575075 0.00421875
v -0.04208175 -0.04050231 0.00421875
v -0.040177845 -0.047632995 0.00421875
v -0.0419163 -0.040459125 0.00421875
v -0.03981117 -0.04742949 0.00421875
v -0.04114011 -0.0402888 0.00421875
v -0.039476475 -0.047186415 0.00421875
v -0.04097154 -0.040258725 0.00421875
v -0.03917382 -0.046904025 0.00421875
v -0.04079937 -0.04025967 0.00421875
v -0.04063311 -0.04030314 0.00421875
v -0.040485375 -0.040390665 0.00421875
v -0.03890124 -0.04658073 0.00421875
v -0.04036371 -0.040512165 0.00421875
v -0.04026654 -0.040652865 0.00421875
v -0.03865938 -0.046217055 0.00421875
v -0.038546565 -0.04600965 0.00421875
v -0.03844893 -0.04580115 0.00421875
v -0.038366415 -0.045591375 0.00421875
v -0.038299965 -0.045384405 0.00421875
v -0.03871635 -0.04309779 0.00421875
v -0.03824943 -0.04518153 0.00421875
v -0.038214915 -0.044985075 0.00421875
v -0.038578635 -0.04331961 0.00421875
v -0.038195145 -0.04479861 0.00421875
v -0.038451675 -0.0435483 0.00421875
v -0.038189625 -0.044623935 0.00421875
v -0.038344935 -0.043785585 0.00421875
v -0.03821064 -0.044310465 0.00421875
v -0.038264235 -0.0440355 0.00421875
v -0.044691135 -0.04523814 0.00421875
v -0.04758414 -0.04170282 0.00421875
v -0.04741557 -0.041672745 0.00421875
v -0.0472434 -0.041673675 0.00421875
v -0.044797335 -0.04508442 0.00421875
v -0.04707714 -0.041717145 0.00421875
v -0.046929405 -0.04180467 0.00421875
v -0.04680774 -0.04192617 0.00421875
v -0.04671057 -0.04206687 0.00421875
v -0.051002265 -0.046784745 0.00421875
v -0.05544525 -0.043983525 0.00421875
v -0.055415865 -0.043814835 0.00421875
v -0.05535609 -0.043653375 0.00421875
v -0.055258365 -0.043512 0.00421875
v -0.0551256 -0.0434031 0.00421875
v -0.05496981 -0.043330335 0.00421875
v -0.05480436 -0.043287135 0.00421875
v -0.051135165 -0.04665216 0.00421875
v -0.05402817 -0.043116825 0.00421875
v -0.0538596 -0.04308675 0.00421875
v -0.053687445 -0.043087695 0.00421875
v -0.051241365 -0.046498425 0.00421875
v -0.05352117 -0.043131165 0.00421875
v -0.053373435 -0.04321869 0.00421875
v -0.05325177 -0.04334019 0.00421875
v -0.0531546 -0.04348089 0.00421875
v -0.05728488 -0.04829421 0.00421875
v -0.05744628 -0.048198765 0.00421875
v -0.06188928 -0.04539753 0.00421875
v -0.06185988 -0.04522884 0.00421875
v -0.06180012 -0.04506738 0.00421875
v -0.061702395 -0.044926005 0.00421875
v -0.06156963 -0.04481712 0.00421875
v -0.06141384 -0.04474434 0.00421875
v -0.06124839 -0.044701155 0.00421875
v -0.057579195 -0.048066165 0.00421875
v -0.0604722 -0.04453083 0.00421875
v -0.06030363 -0.044500755 0.00421875
v -0.060131475 -0.0445017 0.00421875
v -0.057685395 -0.047912445 0.00421875
v -0.0599652 -0.04454517 0.00421875
v -0.059817465 -0.044632695 0.00421875
v -0.0596958 -0.044754195 0.00421875
v -0.05959863 -0.044894895 0.00421875
v -0.06372891 -0.049708215 0.00421875
v -0.063890325 -0.04961277 0.00421875
v -0.06833331 -0.04681155 0.00421875
v -0.068303925 -0.04664286 0.00421875
v -0.06824415 -0.046481385 0.00421875
v -0.06814644 -0.04634001 0.00421875
v -0.06801366 -0.046231125 0.00421875
v -0.06785787 -0.04615836 0.00421875
v -0.06769242 -0.04611516 0.00421875
v -0.064023225 -0.04948017 0.00421875
v -0.06691623 -0.04594485 0.00421875
v -0.06674766 -0.045914775 0.00421875
v -0.06657549 -0.04591572 0.00421875
v -0.064129425 -0.04932645 0.00421875
v -0.06640923 -0.045959175 0.00421875
v -0.066261495 -0.046046715 0.00421875
v -0.06613983 -0.0461682 0.00421875
v -0.06604266 -0.0463089 0.00421875
v -0.07017294 -0.051122235 0.00421875
v -0.070334355 -0.051026775 0.00421875
v -0.070467255 -0.05089419 0.00421875
v -0.07336026 -0.047358855 0.00421875
v -0.073191705 -0.04732878 0.00421875
v -0.073019535 -0.047329725 0.00421875
v -0.070573455 -0.050740455 0.00421875
v -0.07285326 -0.047373195 0.00421875
v -0.072705525 -0.04746072 0.00421875
v -0.07258386 -0.04758222 0.00421875
v -0.07248669 -0.04772292 0.00421875
v -0.114227085 -0.064004685 0.0009375
v -0.11583456 -0.05667897 0.0009375
v -0.115863075 -0.056685225 0.000708465
v -0.114255615 -0.06401094 0.001166535
v -0.114255615 -0.06401094 0.000708465
v -0.115939125 -0.05670192 0.000502605
v -0.11433165 -0.06402762 0.000502605
v -0.116065935 -0.056729745 0.00031575
v -0.11445846 -0.064055445 0.00031575
v -0.116229195 -0.056765565 0.000166875
v -0.11462172 -0.064091265 0.000166875
v -0.11642685 -0.05680893 6.1095e-05
v -0.114819375 -0.064134645 6.1095e-05
v -0.11663862 -0.0568554 7.44e-06
v -0.115031145 -0.064181115 7.44e-06
v -0.116861925 -0.056904405 7.44e-06
v -0.11525445 -0.06423012 7.44e-06
v -0.117073695 -0.056950875 6.1095e-05
v -0.11546622 -0.06427659 6.1095e-05
v -0.11727135 -0.05699424 0.000166875
v -0.115663875 -0.064319955 0.000166875
v -0.11743461 -0.057030075 0.00031575
v -0.115827135 -0.064355775 0.00031575
v -0.11756142 -0.0570579 0.000502605
v -0.115953945 -0.0643836 0.000502605
v -0.117637455 -0.05707458 0.000708465
v -0.11602998 -0.064400295 0.000708465
v -0.117665985 -0.057080835 0.0009375
v -0.11605851 -0.06440655 0.0009375
v -0.117637455 -0.05707458 0.001166535
v -0.11602998 -0.064400295 0.001166535
v -0.11756142 -0.0570579 0.001372395
v -0.115953945 -0.0643836 0.001372395
v -0.11743461 -0.057030075 0.00155925
v -0.115827135 -0.064355775 0.00155925
v -0.11727135 -0.05699424 0.001708125
v -0.115663875 -0.064319955 0.001708125
v -0.117073695 -0.056950875 0.001813905
v -0.11546622 -0.06427659 0.001813905
v -0.116861925 -0.056904405 0.00186756
v -0.11525445 -0.06423012 0.00186756
v -0.11663862 -0.0568554 0.00186756
v -0.115031145 -0.064181115 0.00186756
v -0.11642685 -0.05680893 0.001813905
v -0.114819375 -0.064134645 0.001813905
v -0.116229195 -0.056765565 0.001708125
v -0.11462172 -0.064091265 0.001708125
v -0.116065935 -0.056729745 0.00155925
v -0.11445846 -0.064055445 0.00155925
v -0.115939125 -0.05670192 0.001372395
v -0.11433165 -0.06402762 0.001372395
v -0.115863075 -0.056685225 0.001166535
f 1 2 3
f 4 3 2
f 5 1 3
f 6 1 5
f 6 7 1
f 6 8 7
f 6 9 8
f 9 10 8
f 9 11 10
f 11 12 10
f 11 13 12
f 13 14 12
f 13 15 14
f 15 16 14
f 14 16 17
f 18 17 16
f 19 18 16
f 20 18 19
f 20 21 18
f 20 22 21
f 20 23 22
f 23 24 22
f 23 25 24
f 25 26 24
f 25 27 26
f 27 28 26
f 27 29 28
f 29 30 28
f 28 30 31
f 32 31 30
f 33 32 30
f 34 32 33
f 34 35 32
f 34 36 35
f 34 37 36
f 37 38 36
f 37 39 38
f 39 40 38
f 39 41 40
f 41 42 40
f 41 43 42
f 43 44 42
f 42 44 45
f 46 45 44
f 47 46 44
f 48 46 47
f 48 49 46
f 48 50 49
f 48 51 50
f 51 52 50
f 51 53 52
f 53 54 52
f 53 55 54
f 55 56 54
f 55 57 56
f 57 58 56
f 56 58 59
f 60 59 58
f 61 60 58
f 62 60 61
f 62 63 60
f 62 64 63
f 62 65 64
f 65 66 64
f 65 67 66
f 67 68 66
f 67 69 68
f 69 70 68
f 69 71 70
f 71 72 70
f 70 72 73
f 74 73 72
f 75 74 72
f 76 74 75
f 76 77 74
f 76 78 77
f 76 79 78
f 79 80 78
f 79 81 80
f 81 82 80
f 81 83 82
f 83 84 82
f 83 85 84
f 85 86 84
f 84 86 87
f 88 87 86
f 89 88 86
f 90 88 89
f 90 91 88
f 90 92 91
f 90 93 92
f 93 94 92
f 93 95 94
f 95 96 94
f 95 97 96
f 97 98 96
f 97 99 98
f 99 100 98
f 98 100 101
f 102 101 100
f 103 102 100
f 104 102 103
f 104 105 102
f 104 106 105
f 104 107 106
f 107 108 106
f 107 109 108
f 109 110 108
f 109 111 110
f 111 112 110
f 111 113 112
f 113 114 112
f 112 114 115
f 116 115 114
f 117 116 114
f 118 116 117
f 118 119 116
f 118 120 119
f 118 121 120
f 121 122 120
f 121 123 122
f 123 124 122
f 123 125 124
f 125 126 124
f 125 127 126
f 127 128 126
f 126 128 129
f 130 129 128
f 131 130 128
f 132 130 131
f 132 133 130
f 132 134 133
f 132 135 134
f 135 136 134
f 135 137 136
f 137 138 136
f 137 139 138
f 139 140 138
f 139 141 140
f 141 142 140
f 140 142 143
f 144 143 142
f 145 144 142
f 146 144 145
f 146 147 144
f 146 148 147
f 146 149 148
f 149 150 148
f 149 151 150
f 151 152 150
f 151 153 152
f 153 154 152
f 153 155 154
f 155 156 154
f 154 156 157
f 158 157 156
f 159 158 156
f 160 158 159
f 160 161 158
f 160 162 161
f 160 163 162
f 163 164 162
f 163 165 164
f 165 166 164
f 165 167 166
f 167 168 166
f 167 169 168
f 169 170 168
f 168 170 171
f 172 171 170
f 173 172 170
f 174 172 173
f 174 175 172
f 174 176 175
f 174 177 176
f 177 178 176
f 177 179 178
f 179 180 178
f 179 181 180
f 181 182 180
f 181 183 182
f 183 184 182
f 182 184 185
f 186 185 184
f 187 186 184
f 188 186 187
f 188 189 186
f 188 190 189
f 188 191 190
f 191 192 190
f 191 193 192
f 193 194 192
f 193 195 194
f 195 196 194
f 195 197 196
f 197 198 196
f 196 198 199
f 200 199 198
f 201 200 198
f 202 200 201
f 202 203 200
f 202 204 203
f 202 205 204
f 205 206 204
f 205 207 206
f 207 208 206
f 207 209 208
f 209 210 208
f 209 211 210
f 211 212 210
f 210 212 213
f 214 213 212
f 215 214 212
f 216 214 215
f 216 217 214
f 216 218 217
f 216 219 218
f 219 220 218
f 219 221 220
f 221 222 220
f 221 223 222
f 223 224 222
f 223 225 224
f 225 226 224
f 224 226 227
f 228 227 226
f 229 228 226
f 230 228 229
f 230 231 228
f 230 232 231
f 230 233 232
f 233 234 232
f 233 235 234
f 235 236 234
f 235 237 236
f 237 238 236
f 237 239 238
f 239 240 238
f 238 240 241
f 242 241 240
f 243 242 240
f 244 242 243
f 244 245 242
f 244 246 245
f 244 247 246
f 247 248 246
f 247 249 248
f 249 250 248
f 249 251 250
f 251 252 250
f 251 253 252
f 253 254 252
f 252 254 255
f 256 255 254
f 257 256 254
f 258 256 257
f 258 259 256
f 258 260 259
f 258 261 260
f 261 262 260
f 261 263 262
f 263 264 262
f 263 265 264
f 265 266 264
f 265 267 266
f 267 268 266
f 266 268 269
f 270 269 268
f 271 270 268
f 272 270 271
f 272 273 270
f 272 274 273
f 272 275 274
f 275 276 274
f 275 277 276
f 277 278 276
f 277 279 278
f 279 280 278
f 279 281 280
f 281 282 280
f 280 282 283
f 284 283 282
f 285 284 282
f 286 284 285
f 286 287 284
f 286 288 287
f 286 289 288
f 289 290 288
f 289 291 290
f 291 292 290
f 291 293 292
f 293 294 292
f 293 295 294
f 295 296 294
f 294 296 297
f 297 296 298
f 297 298 299
f 298 300 299
f 297 299 301
f 297 301 302
f 297 302 303
f 297 303 304
f 297 304 305
f 297 305 306
f 297 306 307
f 297 307 308
f 297 308 309
f 310 297 309
f 310 309 311
f 310 311 312
f 310 312 313
f 310 313 314
f 310 314 315
f 310 315 316
f 317 310 316
f 317 316 318
f 318 316 319
f 317 318 320
f 321 317 320
f 321 320 322
f 323 321 322
f 323 322 324
f 325 323 324
f 325 324 326
f 327 325 326
f 327 326 328
f 329 327 328
f 329 328 330
f 331 329 330
f 331 330 332
f 333 331 332
f 333 332 334
f 333 334 335
f 334 336 335
f 336 337 335
f 336 338 337
f 338 339 337
f 338 340 339
f 340 341 339
f 318 319 342
f 318 342 343
f 298 318 343
f 298 343 344
f 298 344 345
f 298 345 346
f 298 346 347
f 298 347 348
f 298 348 349
f 298 349 300
f 350 3 4
f 351 350 4
f 351 4 352
f 353 351 352
f 353 352 354
f 355 353 354
f 355 354 356
f 357 355 356
f 357 356 358
f 359 357 358
f 359 358 360
f 361 359 360
f 361 360 362
f 363 361 362
f 363 362 364
f 365 363 364
f 365 364 366
f 367 365 366
f 367 366 368
f 369 367 368
f 369 368 370
f 371 369 370
f 371 370 372
f 373 371 372
f 373 372 374
f 373 374 375
f 373 375 376
f 375 377 376
f 377 378 376
f 377 379 378
f 377 380 379
f 380 381 379
f 380 382 381
f 382 383 381
f 382 384 383
f 384 385 383
f 384 386 385
f 386 387 385
f 386 388 387
f 386 389 388
f 389 390 388
f 389 391 390
f 391 392 390
f 391 393 392
f 393 394 392
f 393 395 394
f 395 396 394
f 394 396 397
f 397 396 398
f 397 398 399
f 398 400 399
f 397 399 401
f 397 401 402
f 397 402 403
f 397 403 404
f 397 404 405
f 397 405 406
f 397 406 407
f 397 407 408
f 397 408 409
f 410 397 409
f 410 409 411
f 410 411 412
f 410 412 413
f 410 413 414
f 410 414 415
f 410 415 416
f 417 410 416
f 418 417 416
f 418 419 417
f 418 416 420
f 418 420 421
f 418 421 422
f 418 422 398
f 398 422 423
f 398 423 424
f 398 424 425
f 398 425 426
f 398 426 427
f 398 427 428
f 398 428 400
f 419 429 417
f 419 430 429
f 430 431 429
f 430 432 431
f 432 433 431
f 432 434 433
f 434 435 433
f 434 436 435
f 436 437 435
f 436 438 437
f 438 439 437
f 438 440 439
f 440 441 439
f 440 442 441
f 442 443 441
f 442 444 443
f 444 445 443
f 444 446 445
f 446 447 445
f 446 448 447
f 448 449 447
f 450 451 452
f 453 451 450
f 450 452 454
f 454 452 455
f 456 455 452
f 456 452 457
f 457 452 458
f 458 452 459
f 459 452 460
f 460 452 461
f 460 461 462
f 462 461 463
f 462 463 464
f 464 463 465
f 465 463 466
f 465 466 467
f 467 466 468
f 453 469 451
f 453 470 469
f 453 471 470
f 453 472 471
f 473 472 453
f 473 474 472
f 473 475 474
f 476 475 473
f 477 475 476
f 477 478 475
f 479 478 477
f 479 480 478
f 481 480 479
f 481 482 480
f 481 483 482
f 484 483 481
f 484 485 483
f 484 486 485
f 487 486 484
f 487 488 486
f 487 489 488
f 489 490 488
f 491 490 489
f 491 489 492
f 492 489 493
f 493 489 494
f 494 489 495
f 496 495 489
f 489 497 496
f 497 498 496
f 499 498 497
f 499 497 500
f 500 497 501
f 501 497 502
f 502 497 503
f 501 502 504
f 504 502 505
f 505 502 506
f 507 506 502
f 508 506 507
f 509 506 508
f 509 510 506
f 509 511 510
f 509 512 511
f 509 513 512
f 509 514 513
f 509 515 514
f 509 516 515
f 517 516 509
f 517 518 516
f 517 519 518
f 517 520 519
f 517 521 520
f 520 521 522
f 522 521 523
f 523 521 524
f 524 521 525
f 497 526 503
f 527 526 497
f 527 497 528
f 528 497 529
f 529 497 530
f 530 497 531
f 531 497 532
f 530 531 533
f 533 531 534
f 535 534 531
f 536 534 535
f 537 534 536
f 537 538 534
f 537 539 538
f 537 540 539
f 537 541 540
f 537 542 541
f 537 543 542
f 537 544 543
f 545 544 537
f 545 546 544
f 545 547 546
f 545 548 547
f 545 549 548
f 548 549 550
f 550 549 551
f 551 549 552
f 552 549 553
f 497 554 532
f 555 554 497
f 555 497 556
f 556 497 557
f 557 497 558
f 558 497 559
f 559 497 560
f 558 559 561
f 561 559 562
f 563 562 559
f 564 562 563
f 565 562 564
f 565 566 562
f 565 567 566
f 565 568 567
f 565 569 568
f 565 570 569
f 565 571 570
f 565 572 571
f 573 572 565
f 573 574 572
f 573 575 574
f 573 576 575
f 573 577 576
f 576 577 578
f 578 577 579
f 579 577 580
f 580 577 581
f 497 582 560
f 583 582 497
f 583 497 584
f 584 497 585
f 585 497 586
f 586 497 587
f 587 497 588
f 586 587 589
f 589 587 590
f 591 590 587
f 592 590 591
f 593 590 592
f 593 594 590
f 593 595 594
f 593 596 595
f 593 597 596
f 593 598 597
f 593 599 598
f 593 600 599
f 601 600 593
f 601 602 600
f 601 603 602
f 601 604 603
f 601 605 604
f 604 605 606
f 606 605 607
f 607 605 608
f 608 605 609
f 497 610 588
f 611 610 497
f 611 497 612
f 612 497 613
f 613 497 614
f 614 497 615
f 615 497 616
f 497 617 616
f 618 617 497
f 618 497 619
f 619 497 620
f 620 497 621
f 621 497 622
f 622 497 623
f 497 624 623
f 625 624 497
f 625 626 624
f 627 626 625
f 627 628 626
f 629 628 627
f 629 630 628
f 631 630 629
f 631 632 630
f 633 632 631
f 633 634 632
f 635 634 633
f 635 636 634
f 637 636 635
f 637 638 636
f 639 638 637
f 639 640 638
f 641 640 639
f 641 642 640
f 643 642 641
f 643 644 642
f 645 644 643
f 645 646 644
f 647 646 645
f 647 648 646
f 649 648 647
f 649 650 648
f 651 650 649
f 651 652 650
f 653 652 651
f 653 654 652
f 655 654 653
f 655 656 654
f 657 656 655
f 657 658 656
f 659 658 657
f 659 660 658
f 661 660 659
f 661 662 660
f 663 662 661
f 663 664 662
f 665 664 663
f 665 666 664
f 667 666 665
f 667 668 666
f 669 668 667
f 669 670 668
f 671 670 669
f 671 672 670
f 671 673 672
f 673 674 672
f 675 674 673
f 676 674 675
f 677 674 676
f 676 675 678
f 675 679 678
f 680 679 675
f 680 675 681
f 681 675 682
f 682 675 683
f 683 675 684
f 684 675 685
f 686 685 675
f 687 685 686
f 686 675 688
f 675 689 688
f 690 689 675
f 690 675 691
f 691 675 692
f 692 675 693
f 693 675 694
f 694 675 695
f 696 695 675
f 697 695 696
f 696 675 698
f 675 699 698
f 700 699 675
f 700 675 701
f 701 675 702
f 702 675 703
f 703 675 704
f 704 675 705
f 706 705 675
f 707 705 706
f 706 675 708
f 708 675 709
f 675 710 709
f 711 710 675
f 711 675 712
f 712 675 713
f 713 675 714
f 714 675 715
f 715 675 716
f 675 717 716
f 718 717 675
f 718 675 719
f 719 675 720
f 720 675 721
f 721 675 722
f 723 722 675
f 723 724 722
f 723 675 725
f 725 675 726
f 726 675 727
f 727 675 728
f 675 729 728
f 730 729 675
f 730 675 731
f 731 675 732
f 732 675 733
f 733 675 734
f 734 675 735
f 736 735 675
f 736 737 735
f 738 737 736
f 738 739 737
f 740 739 738
f 740 741 739
f 740 742 741
f 743 742 740
f 743 744 742
f 743 745 744
f 746 745 743
f 746 747 745
f 748 747 746
f 748 749 747
f 750 749 748
f 750 751 749
f 752 751 750
f 752 753 751
f 752 754 753
f 752 755 754
f 756 755 752
f 756 757 755
f 756 758 757
f 759 758 756
f 760 758 759
f 761 758 760
f 762 758 761
f 763 758 762
f 763 764 758
f 765 764 763
f 766 764 765
f 767 764 766
f 767 766 768
f 767 768 769
f 769 768 770
f 769 770 771
f 771 770 772
f 771 772 773
f 774 724 723
f 774 775 724
f 774 776 775
f 774 777 776
f 774 778 777
f 777 778 779
f 779 778 780
f 780 778 781
f 781 778 782
f 783 705 707
f 783 784 705
f 783 785 784
f 783 786 785
f 783 787 786
f 783 788 787
f 783 789 788
f 783 790 789
f 791 790 783
f 791 792 790
f 791 793 792
f 791 794 793
f 791 795 794
f 794 795 796
f 796 795 797
f 797 795 798
f 798 795 799
f 800 695 697
f 801 695 800
f 801 802 695
f 801 803 802
f 801 804 803
f 801 805 804
f 801 806 805
f 801 807 806
f 801 808 807
f 809 808 801
f 809 810 808
f 809 811 810
f 809 812 811
f 809 813 812
f 812 813 814
f 814 813 815
f 815 813 816
f 816 813 817
f 818 685 687
f 819 685 818
f 819 820 685
f 819 821 820
f 819 822 821
f 819 823 822
f 819 824 823
f 819 825 824
f 819 826 825
f 827 826 819
f 827 828 826
f 827 829 828
f 827 830 829
f 827 831 830
f 830 831 832
f 832 831 833
f 833 831 834
f 834 831 835
f 836 674 677
f 837 674 836
f 838 674 837
f 838 839 674
f 838 840 839
f 838 841 840
f 838 842 841
f 841 842 843
f 843 842 844
f 844 842 845
f 845 842 846
f 847 848 849
f 850 848 847
f 851 847 849
f 851 849 852
f 851 852 853
f 853 852 854
f 853 854 855
f 855 854 856
f 855 856 857
f 857 856 858
f 857 858 859
f 859 858 860
f 859 860 861
f 861 860 862
f 861 862 863
f 863 862 864
f 863 864 865
f 865 864 866
f 865 866 867
f 867 866 868
f 867 868 869
f 869 868 870
f 869 870 871
f 871 870 872
f 871 872 873
f 873 872 874
f 873 874 875
f 875 874 876
f 875 876 877
f 877 876 878
f 877 878 879
f 879 878 880
f 879 880 881
f 881 880 882
f 881 882 883
f 883 882 884
f 883 884 885
f 885 884 886
f 885 886 887
f 887 886 888
f 887 888 889
f 889 888 890
f 889 890 891
f 891 890 892
f 891 892 893
f 893 892 894
f 893 894 895
f 895 894 896
f 895 896 897
f 897 896 898
f 897 898 850
f 850 898 848
