1392 1396 0
v -0.03127638 0.01991532 0.0103125
v -0.031177995 0.02242932 0.0103125
v -0.031171875 0.0225 0.0103125
v -0.03118881 0.02236206 0.0103125
v -0.03104172 0.019981815 0.0103125
v -0.03112527 0.025998015 0.0103125
v -0.03058953 0.02629134 0.0103125
v -0.031177995 0.02257068 0.0103125
v -0.03118881 0.02263794 0.0103125
v -0.031204335 0.022701795 0.0103125
v -0.031224555 0.02276223 0.0103125
v -0.03124947 0.022819245 0.0103125
v -0.03127908 0.022872855 0.0103125
v -0.03131346 0.02292309 0.0103125
v -0.03135414 0.02297109 0.0103125
v -0.03140088 0.023016645 0.0103125
v -0.031452405 0.02305887 0.0103125
v -0.03150744 0.023096805 0.0103125
v -0.031564695 0.02312952 0.0103125
v -0.03162288 0.0231561 0.0103125
v -0.031659 0.02569923 0.0103125
v -0.03168126 0.02317578 0.0103125
v -0.031743195 0.023189595 0.0103125
v -0.03180831 0.023197875 0.0103125
v -0.031875 0.023200635 0.0103125
v -0.03194169 0.023197875 0.0103125
v -0.032006805 0.023189595 0.0103125
v -0.03206874 0.02317578 0.0103125
v -0.03212712 0.0231561 0.0103125
v -0.032185305 0.02312952 0.0103125
v -0.032190735 0.02539497 0.0103125
v -0.03224256 0.023096805 0.0103125
v -0.032297595 0.02305887 0.0103125
v -0.03234912 0.023016645 0.0103125
v -0.03239586 0.02297109 0.0103125
v -0.03243654 0.02292309 0.0103125
v -0.03247092 0.022872855 0.0103125
v -0.03250053 0.022819245 0.0103125
v -0.032525445 0.02276223 0.0103125
v -0.032545665 0.022701795 0.0103125
v -0.03256119 0.02263794 0.0103125
v -0.032572005 0.02257068 0.0103125
v -0.032720475 0.025085265 0.0103125
v -0.032578125 0.0225 0.0103125
v -0.032749875 0.019996665 0.0103125
v -0.032572005 0.02242932 0.0103125
v -0.03298425 0.02009151 0.0103125
v -0.0332076 0.020206425 0.0103125
v -0.033248205 0.0247701 0.0103125
v -0.03341436 0.020339205 0.0103125
v -0.0334614 0.024624075 0.0103125
v -0.0336093 0.02049363 0.0103125
v -0.033655785 0.024464445 0.0103125
v -0.033791955 0.02066805 0.0103125
v -0.033831345 0.02429118 0.0103125
v -0.03395778 0.0208578 0.0103125
v -0.03398808 0.02410431 0.0103125
v -0.0341022 0.021058245 0.0103125
v -0.03412689 0.02390187 0.0103125
v -0.03422595 0.02127207 0.0103125
v -0.034248555 0.023682135 0.0103125
v -0.03433119 0.021501045 0.0103125
v -0.03435051 0.02345076 0.0103125
v -0.034415535 0.021739095 0.0103125
v -0.034430055 0.023213685 0.0103125
v -0.03447663 0.021980175 0.0103125
v -0.034485045 0.022974645 0.0103125
v -0.03451311 0.022223175 0.0103125
v -0.034517115 0.02272665 0.0103125
v -0.03452652 0.02247399 0.0103125
v -0.03256119 0.02236206 0.0103125
v -0.032545665 0.022298205 0.0103125
v -0.032525445 0.02223777 0.0103125
v -0.03251049 0.01992438 0.0103125
v -0.03250053 0.022180755 0.0103125
v -0.03247092 0.022127145 0.0103125
v -0.03243654 0.02207691 0.0103125
v -0.03239586 0.02202891 0.0103125
v -0.03234912 0.021983355 0.0103125
v -0.032297595 0.02194113 0.0103125
v -0.03226989 0.019876695 0.0103125
v -0.03224256 0.021903195 0.0103125
v -0.032185305 0.02187048 0.0103125
v -0.03212712 0.0218439 0.0103125
v -0.03206874 0.02182422 0.0103125
v -0.032021025 0.019852215 0.0103125
v -0.032006805 0.021810405 0.0103125
v -0.03194169 0.021802125 0.0103125
v -0.031875 0.021799365 0.0103125
v -0.03180831 0.021802125 0.0103125
v -0.031768185 0.019850505 0.0103125
v -0.031743195 0.021810405 0.0103125
v -0.03168126 0.02182422 0.0103125
v -0.03162288 0.0218439 0.0103125
v -0.031564695 0.02187048 0.0103125
v -0.03151791 0.01987155 0.0103125
v -0.03150744 0.021903195 0.0103125
v -0.031452405 0.02194113 0.0103125
v -0.03140088 0.021983355 0.0103125
v -0.03135414 0.02202891 0.0103125
v -0.03131346 0.02207691 0.0103125
v -0.03127908 0.022127145 0.0103125
v -0.03124947 0.022180755 0.0103125
v -0.031224555 0.02223777 0.0103125
v -0.031204335 0.022298205 0.0103125
v -0.03081177 0.020071065 0.0103125
v -0.030586545 0.020183055 0.0103125
v -0.030051795 0.02657922 0.0103125
v -0.030366045 0.02031777 0.0103125
v -0.030011355 0.02055756 0.0103125
v -0.02951205 0.026861625 0.0103125
v -0.02965515 0.02079177 0.0103125
v -0.029297415 0.021020355 0.0103125
v -0.02897031 0.027138585 0.0103125
v -0.028938165 0.02124336 0.0103125
v -0.028426575 0.027410085 0.0103125
v -0.028577385 0.021460755 0.0103125
v -0.02821509 0.021672555 0.0103125
v -0.02788083 0.02767611 0.0103125
v -0.02785128 0.02187876 0.0103125
v -0.027333075 0.02793669 0.0103125
v -0.02748594 0.02207937 0.0103125
v -0.02711907 0.02227437 0.0103125
v -0.02678334 0.02819181 0.0103125
v -0.026750685 0.02246379 0.0103125
v -0.02623158 0.02844147 0.0103125
v -0.02638077 0.0226476 0.0103125
v -0.02600934 0.0228258 0.0103125
v -0.02567784 0.02868567 0.0103125
v -0.025636395 0.02299842 0.0103125
v -0.025122075 0.02892441 0.0103125
v -0.02526192 0.02316543 0.0103125
v -0.02488578 0.02332683 0.0103125
v -0.02456418 0.029157735 0.0103125
v -0.02450787 0.02348259 0.0103125
v -0.02400414 0.02938566 0.0103125
v -0.024128265 0.023632725 0.0103125
v -0.023747025 0.02377725 0.0103125
v -0.023442 0.02960817 0.0103125
v -0.023364225 0.023916165 0.0103125
v -0.02287779 0.02982522 0.0103125
v -0.022979925 0.024049485 0.0103125
v -0.022594185 0.024177225 0.0103125
v -0.022311555 0.03003684 0.0103125
v -0.02220708 0.0242994 0.0103125
v -0.02174334 0.030242985 0.0103125
v -0.02181867 0.024415995 0.0103125
v -0.02142903 0.024527025 0.0103125
v -0.02117319 0.03044364 0.0103125
v -0.02103822 0.02463252 0.0103125
v -0.020601135 0.03063882 0.0103125
v -0.0206463 0.024732465 0.0103125
v -0.020253345 0.02482689 0.0103125
v -0.020027205 0.03082848 0.0103125
v -0.01985943 0.024915795 0.0103125
v -0.01945146 0.031012635 0.0103125
v -0.019464315 0.02499924 0.0103125
v -0.019067775 0.02507727 0.0103125
v -0.01887393 0.03119124 0.0103125
v -0.018669885 0.025149825 0.0103125
v -0.018294645 0.03136431 0.0103125
v -0.018270675 0.025216905 0.0103125
v -0.01771368 0.0315318 0.0103125
v -0.01787022 0.02527845 0.0103125
v -0.01746858 0.02533443 0.0103125
v -0.017131035 0.031693725 0.0103125
v -0.017065785 0.0253848 0.0103125
v -0.01654671 0.031850085 0.0103125
v -0.016661925 0.02542953 0.0103125
v -0.01625703 0.02546859 0.0103125
v -0.0159606 0.03200091 0.0103125
v -0.01585116 0.02550195 0.0103125
v -0.01537269 0.0321462 0.0103125
v -0.01544439 0.02552955 0.0103125
v -0.01503675 0.025551375 0.0103125
v -0.014782965 0.03228597 0.0103125
v -0.014628315 0.025567365 0.0103125
v -0.01419144 0.032420205 0.0103125
v -0.014219145 0.025577505 0.0103125
v -0.013809135 0.025581855 0.0103125
v -0.013598115 0.03254892 0.0103125
v -0.01339818 0.025580475 0.0103125
v -0.013002975 0.032672115 0.0103125
v -0.012986265 0.025573365 0.0103125
v -0.012406035 0.032789775 0.0103125
v -0.012573405 0.02556054 0.0103125
v -0.0121596 0.025541985 0.0103125
v -0.01180728 0.0329019 0.0103125
v -0.011744835 0.0255177 0.0103125
v -0.011206725 0.033008505 0.0103125
v -0.011329125 0.0254877 0.0103125
v -0.010912455 0.025451985 0.0103125
v -0.010604355 0.03310959 0.0103125
v -0.01049484 0.02541054 0.0103125
v -0.010000185 0.033205155 0.0103125
v -0.01007628 0.025363365 0.0103125
v -0.00965676 0.025310475 0.0103125
v -0.009533505 0.02927187 0.0103125
v -0.009394215 0.03329517 0.0103125
v -0.009518445 0.02905338 0.0103125
v -0.00948249 0.028844955 0.0103125
v -0.00942561 0.02864661 0.0103125
v -0.00934782 0.02845833 0.0103125
v -0.009246705 0.0282771 0.0103125
v -0.009236295 0.02525187 0.0103125
v -0.00912306 0.028103925 0.0103125
v -0.008981745 0.02794485 0.0103125
v -0.008827545 0.027805935 0.0103125
v -0.008814885 0.02518752 0.0103125
v -0.008657805 0.02768652 0.0103125
v -0.00847128 0.02758413 0.0103125
v -0.008392515 0.02511747 0.0103125
v -0.008274915 0.027502125 0.0103125
v -0.008226645 0.02509326 0.0103125
v -0.00807573 0.02744388 0.0103125
v -0.00806202 0.025075005 0.0103125
v -0.007870995 0.027409935 0.0103125
v -0.007898655 0.025062705 0.0103125
v -0.00773655 0.025056375 0.0103125
v -0.007658505 0.027398625 0.0103125
v -0.00757569 0.025055985 0.0103125
v -0.007446015 0.027409935 0.0103125
v -0.00741609 0.025061565 0.0103125
v -0.00724128 0.02744388 0.0103125
v -0.007257735 0.0250731 0.0103125
v -0.007100625 0.02509059 0.0103125
v -0.00704208 0.027502125 0.0103125
v -0.006944775 0.025114035 0.0103125
v -0.00684573 0.02758413 0.0103125
v -0.006790185 0.02514345 0.0103125
v -0.006659205 0.02768652 0.0103125
v -0.00663588 0.02517921 0.0103125
v -0.006489465 0.027805935 0.0103125
v -0.00648135 0.025221555 0.0103125
v -0.006335265 0.02794485 0.0103125
v -0.00632721 0.02527023 0.0103125
v -0.006193935 0.028103925 0.0103125
v -0.006174105 0.02532495 0.0103125
v -0.006070305 0.0282771 0.0103125
v -0.00602268 0.02538543 0.0103125
v -0.00596919 0.02845833 0.0103125
v -0.0058914 0.02864661 0.0103125
v -0.00587358 0.02545143 0.0103125
v -0.00583452 0.028844955 0.0103125
v -0.00579855 0.02905338 0.0103125
v -0.005783505 0.02927187 0.0103125
v -0.005727435 0.02552268 0.0103125
v -0.005678535 0.03299496 0.0103125
v -0.00558489 0.02559888 0.0103125
v -0.00579855 0.02949036 0.0103125
v -0.005824035 0.03306858 0.0103125
v -0.00583452 0.02969877 0.0103125
v -0.0058914 0.02989713 0.0103125
v -0.00596919 0.030085395 0.0103125
v -0.00597213 0.033136815 0.0103125
v -0.006070305 0.03026664 0.0103125
v -0.00612219 0.033199365 0.0103125
v -0.006193935 0.030439815 0.0103125
v -0.006273615 0.03325593 0.0103125
v -0.006335265 0.03059889 0.0103125
v -0.00642576 0.03330621 0.0103125
v -0.006489465 0.030737805 0.0103125
v -0.006577995 0.033349905 0.0103125
v -0.006659205 0.03085722 0.0103125
v -0.006730875 0.033387255 0.0103125
v -0.00684573 0.03095961 0.0103125
v -0.0068853 0.033418725 0.0103125
v -0.00704208 0.0310416 0.0103125
v -0.007041285 0.033444315 0.0103125
v -0.00719883 0.03346401 0.0103125
v -0.00724128 0.03109986 0.0103125
v -0.007357935 0.03347784 0.0103125
v -0.007446015 0.031133805 0.0103125
v -0.0075186 0.03348576 0.0103125
v -0.007658505 0.031145115 0.0103125
v -0.007680825 0.033487815 0.0103125
v -0.007870995 0.031133805 0.0103125
v -0.00784461 0.033483975 0.0103125
v -0.00800994 0.033474255 0.0103125
v -0.00807573 0.03109986 0.0103125
v -0.008176845 0.033458655 0.0103125
v -0.008274915 0.0310416 0.0103125
v -0.00847128 0.03095961 0.0103125
v -0.008657805 0.03085722 0.0103125
v -0.00878643 0.03337968 0.0103125
v -0.008827545 0.030737805 0.0103125
v -0.008981745 0.03059889 0.0103125
v -0.00912306 0.030439815 0.0103125
v -0.009246705 0.03026664 0.0103125
v -0.00934782 0.030085395 0.0103125
v -0.00942561 0.02989713 0.0103125
v -0.00948249 0.02969877 0.0103125
v -0.009518445 0.02949036 0.0103125
v -0.005536275 0.032916255 0.0103125
v -0.00544659 0.02567979 0.0103125
v -0.005397855 0.032832795 0.0103125
v -0.00531315 0.02576514 0.0103125
v -0.005263905 0.032744835 0.0103125
v -0.005183325 0.025855875 0.0103125
v -0.00513507 0.032652705 0.0103125
v -0.00505572 0.025952805 0.0103125
v -0.005010105 0.0325554 0.0103125
v -0.00493086 0.026055435 0.0103125
v -0.00488769 0.032452005 0.0103125
v -0.00480921 0.0261633 0.0103125
v -0.00476829 0.032343045 0.0103125
v -0.004691265 0.026275905 0.0103125
v -0.00465237 0.03222903 0.0103125
v -0.004577535 0.026392755 0.0103125
v -0.00454041 0.032110485 0.0103125
v -0.004468515 0.026513355 0.0103125
v -0.004432875 0.03198792 0.0103125
v -0.00436467 0.026637225 0.0103125
v -0.004330215 0.031861845 0.0103125
v -0.00426651 0.026763885 0.0103125
v -0.004232925 0.03173277 0.0103125
v -0.00417453 0.026892825 0.0103125
v -0.00414144 0.03160122 0.0103125
v -0.004087905 0.02702544 0.0103125
v -0.004056255 0.03146769 0.0103125
v -0.004005675 0.02716296 0.0103125
v -0.00397659 0.031330785 0.0103125
v -0.003928095 0.02730477 0.0103125
v -0.003901575 0.031189185 0.0103125
v -0.00385545 0.02745021 0.0103125
v -0.00383142 0.031043565 0.0103125
v -0.00378801 0.02759868 0.0103125
v -0.003766395 0.030894555 0.0103125
v -0.00372606 0.027749505 0.0103125
v -0.003706725 0.030742815 0.0103125
v -0.003669885 0.02790207 0.0103125
v -0.00365265 0.030588975 0.0103125
v -0.003619725 0.02805573 0.0103125
v -0.003604425 0.03043371 0.0103125
v -0.003575895 0.028209855 0.0103125
v -0.003562275 0.030277665 0.0103125
v -0.003538635 0.028363815 0.0103125
v -0.00352647 0.030121485 0.0103125
v -0.00350772 0.028519155 0.0103125
v -0.00349722 0.029965815 0.0103125
v -0.0034827 0.02867742 0.0103125
v -0.003474375 0.02980908 0.0103125
v -0.003463605 0.028837935 0.0103125
v -0.00345756 0.02964972 0.0103125
v -0.00345045 0.02899998 0.0103125
v -0.00344679 0.02948844 0.0103125
v -0.00344325 0.02916288 0.0103125
v -0.00344202 0.02932593 0.0103125
v -0.031171875 0.0225 0.0140625
v -0.031171875 0.0225 0.0103125
v -0.031177995 0.02242932 0.0103125
v -0.031177995 0.02257068 0.0140625
v -0.031177995 0.02242932 0.0140625
v -0.03118881 0.02236206 0.0103125
v -0.03118881 0.02236206 0.0140625
v -0.031204335 0.022298205 0.0103125
v -0.031204335 0.022298205 0.0140625
v -0.031224555 0.02223777 0.0103125
v -0.031224555 0.02223777 0.0140625
v -0.03124947 0.022180755 0.0103125
v -0.03124947 0.022180755 0.0140625
v -0.03127908 0.022127145 0.0103125
v -0.03127908 0.022127145 0.0140625
v -0.03131346 0.02207691 0.0103125
v -0.03131346 0.02207691 0.0140625
v -0.03135414 0.02202891 0.0103125
v -0.03135414 0.02202891 0.0140625
v -0.03140088 0.021983355 0.0103125
v -0.03140088 0.021983355 0.0140625
v -0.031452405 0.02194113 0.0103125
v -0.031452405 0.02194113 0.0140625
v -0.03150744 0.021903195 0.0103125
v -0.03150744 0.021903195 0.0140625
v -0.031564695 0.02187048 0.0103125
v -0.031564695 0.02187048 0.0140625
v -0.03162288 0.0218439 0.0103125
v -0.03162288 0.0218439 0.0140625
v -0.03168126 0.02182422 0.0103125
v -0.03168126 0.02182422 0.0140625
v -0.031743195 0.021810405 0.0103125
v -0.031743195 0.021810405 0.0140625
v -0.03180831 0.021802125 0.0103125
v -0.03180831 0.021802125 0.0140625
v -0.031875 0.021799365 0.0103125
v -0.031875 0.021799365 0.0140625
v -0.03194169 0.021802125 0.0103125
v -0.03194169 0.021802125 0.0140625
v -0.032006805 0.021810405 0.0103125
v -0.032006805 0.021810405 0.0140625
v -0.03206874 0.02182422 0.0103125
v -0.03206874 0.02182422 0.0140625
v -0.03212712 0.0218439 0.0103125
v -0.03212712 0.0218439 0.0140625
v -0.032185305 0.02187048 0.0103125
v -0.032185305 0.02187048 0.0140625
v -0.03224256 0.021903195 0.0103125
v -0.03224256 0.021903195 0.0140625
v -0.032297595 0.02194113 0.0103125
v -0.032297595 0.02194113 0.0140625
v -0.03234912 0.021983355 0.0103125
v -0.03234912 0.021983355 0.0140625
v -0.03239586 0.02202891 0.0103125
v -0.03239586 0.02202891 0.0140625
v -0.03243654 0.02207691 0.0103125
v -0.03243654 0.02207691 0.0140625
v -0.03247092 0.022127145 0.0103125
v -0.03247092 0.022127145 0.0140625
v -0.03250053 0.022180755 0.0103125
v -0.03250053 0.022180755 0.0140625
v -0.032525445 0.02223777 0.0103125
v -0.032525445 0.02223777 0.0140625
v -0.032545665 0.022298205 0.0103125
v -0.032545665 0.022298205 0.0140625
v -0.03256119 0.02236206 0.0103125
v -0.03256119 0.02236206 0.0140625
v -0.032572005 0.02242932 0.0103125
v -0.032572005 0.02242932 0.0140625
v -0.032578125 0.0225 0.0103125
v -0.032578125 0.0225 0.0140625
v -0.032572005 0.02257068 0.0103125
v -0.032572005 0.02257068 0.0140625
v -0.03256119 0.02263794 0.0103125
v -0.03256119 0.02263794 0.0140625
v -0.032545665 0.022701795 0.0103125
v -0.032545665 0.022701795 0.0140625
v -0.032525445 0.02276223 0.0103125
v -0.032525445 0.02276223 0.0140625
v -0.03250053 0.022819245 0.0103125
v -0.03250053 0.022819245 0.0140625
v -0.03247092 0.022872855 0.0103125
v -0.03247092 0.022872855 0.0140625
v -0.03243654 0.02292309 0.0103125
v -0.03243654 0.02292309 0.0140625
v -0.03239586 0.02297109 0.0103125
v -0.03239586 0.02297109 0.0140625
v -0.03234912 0.023016645 0.0103125
v -0.03234912 0.023016645 0.0140625
v -0.032297595 0.02305887 0.0103125
v -0.032297595 0.02305887 0.0140625
v -0.03224256 0.023096805 0.0103125
v -0.03224256 0.023096805 0.0140625
v -0.032185305 0.02312952 0.0103125
v -0.032185305 0.02312952 0.0140625
v -0.03212712 0.0231561 0.0103125
v -0.03212712 0.0231561 0.0140625
v -0.03206874 0.02317578 0.0103125
v -0.03206874 0.02317578 0.0140625
v -0.032006805 0.023189595 0.0103125
v -0.032006805 0.023189595 0.0140625
v -0.03194169 0.023197875 0.0103125
v -0.03194169 0.023197875 0.0140625
v -0.031875 0.023200635 0.0103125
v -0.031875 0.023200635 0.0140625
v -0.03180831 0.023197875 0.0103125
v -0.03180831 0.023197875 0.0140625
v -0.031743195 0.023189595 0.0103125
v -0.031743195 0.023189595 0.0140625
v -0.03168126 0.02317578 0.0103125
v -0.03168126 0.02317578 0.0140625
v -0.03162288 0.0231561 0.0103125
v -0.03162288 0.0231561 0.0140625
v -0.031564695 0.02312952 0.0103125
v -0.031564695 0.02312952 0.0140625
v -0.03150744 0.023096805 0.0103125
v -0.03150744 0.023096805 0.0140625
v -0.031452405 0.02305887 0.0103125
v -0.031452405 0.02305887 0.0140625
v -0.03140088 0.023016645 0.0103125
v -0.03140088 0.023016645 0.0140625
v -0.03135414 0.02297109 0.0103125
v -0.03135414 0.02297109 0.0140625
v -0.03131346 0.02292309 0.0103125
v -0.03131346 0.02292309 0.0140625
v -0.03127908 0.022872855 0.0103125
v -0.03127908 0.022872855 0.0140625
v -0.03124947 0.022819245 0.0103125
v -0.03124947 0.022819245 0.0140625
v -0.031224555 0.02276223 0.0103125
v -0.031224555 0.02276223 0.0140625
v -0.031204335 0.022701795 0.0103125
v -0.031204335 0.022701795 0.0140625
v -0.03118881 0.02263794 0.0103125
v -0.03118881 0.02263794 0.0140625
v -0.031177995 0.02257068 0.0103125
v -0.005783505 0.02927187 0.0140625
v -0.005783505 0.02927187 0.0103125
v -0.00579855 0.02905338 0.0103125
v -0.00579855 0.02949036 0.0140625
v -0.00579855 0.02905338 0.0140625
v -0.00583452 0.028844955 0.0103125
v -0.00583452 0.028844955 0.0140625
v -0.0058914 0.02864661 0.0103125
v -0.0058914 0.02864661 0.0140625
v -0.00596919 0.02845833 0.0103125
v -0.00596919 0.02845833 0.0140625
v -0.006070305 0.0282771 0.0103125
v -0.006070305 0.0282771 0.0140625
v -0.006193935 0.028103925 0.0103125
v -0.006193935 0.028103925 0.0140625
v -0.006335265 0.02794485 0.0103125
v -0.006335265 0.02794485 0.0140625
v -0.006489465 0.027805935 0.0103125
v -0.006489465 0.027805935 0.0140625
v -0.006659205 0.02768652 0.0103125
v -0.006659205 0.02768652 0.0140625
v -0.00684573 0.02758413 0.0103125
v -0.00684573 0.02758413 0.0140625
v -0.00704208 0.027502125 0.0103125
v -0.00704208 0.027502125 0.0140625
v -0.00724128 0.02744388 0.0103125
v -0.00724128 0.02744388 0.0140625
v -0.007446015 0.027409935 0.0103125
v -0.007446015 0.027409935 0.0140625
v -0.007658505 0.027398625 0.0103125
v -0.007658505 0.027398625 0.0140625
v -0.007870995 0.027409935 0.0103125
v -0.007870995 0.027409935 0.0140625
v -0.00807573 0.02744388 0.0103125
v -0.00807573 0.02744388 0.0140625
v -0.008274915 0.027502125 0.0103125
v -0.008274915 0.027502125 0.0140625
v -0.00847128 0.02758413 0.0103125
v -0.00847128 0.02758413 0.0140625
v -0.008657805 0.02768652 0.0103125
v -0.008657805 0.02768652 0.0140625
v -0.008827545 0.027805935 0.0103125
v -0.008827545 0.027805935 0.0140625
v -0.008981745 0.02794485 0.0103125
v -0.008981745 0.02794485 0.0140625
v -0.00912306 0.028103925 0.0103125
v -0.00912306 0.028103925 0.0140625
v -0.009246705 0.0282771 0.0103125
v -0.009246705 0.0282771 0.0140625
v -0.00934782 0.02845833 0.0103125
v -0.00934782 0.02845833 0.0140625
v -0.00942561 0.02864661 0.0103125
v -0.00942561 0.02864661 0.0140625
v -0.00948249 0.028844955 0.0103125
v -0.00948249 0.028844955 0.0140625
v -0.009518445 0.02905338 0.0103125
v -0.009518445 0.02905338 0.0140625
v -0.009533505 0.02927187 0.0103125
v -0.009533505 0.02927187 0.0140625
v -0.009518445 0.02949036 0.0103125
v -0.009518445 0.02949036 0.0140625
v -0.00948249 0.02969877 0.0103125
v -0.00948249 0.02969877 0.0140625
v -0.00942561 0.02989713 0.0103125
v -0.00942561 0.02989713 0.0140625
v -0.00934782 0.030085395 0.0103125
v -0.00934782 0.030085395 0.0140625
v -0.009246705 0.03026664 0.0103125
v -0.009246705 0.03026664 0.0140625
v -0.00912306 0.030439815 0.0103125
v -0.00912306 0.030439815 0.0140625
v -0.008981745 0.03059889 0.0103125
v -0.008981745 0.03059889 0.0140625
v -0.008827545 0.030737805 0.0103125
v -0.008827545 0.030737805 0.0140625
v -0.008657805 0.03085722 0.0103125
v -0.008657805 0.03085722 0.0140625
v -0.00847128 0.03095961 0.0103125
v -0.00847128 0.03095961 0.0140625
v -0.008274915 0.0310416 0.0103125
v -0.008274915 0.0310416 0.0140625
v -0.00807573 0.03109986 0.0103125
v -0.00807573 0.03109986 0.0140625
v -0.007870995 0.031133805 0.0103125
v -0.007870995 0.031133805 0.0140625
v -0.007658505 0.031145115 0.0103125
v -0.007658505 0.031145115 0.0140625
v -0.007446015 0.031133805 0.0103125
v -0.007446015 0.031133805 0.0140625
v -0.00724128 0.03109986 0.0103125
v -0.00724128 0.03109986 0.0140625
v -0.00704208 0.0310416 0.0103125
v -0.00704208 0.0310416 0.0140625
v -0.00684573 0.03095961 0.0103125
v -0.00684573 0.03095961 0.0140625
v -0.006659205 0.03085722 0.0103125
v -0.006659205 0.03085722 0.0140625
v -0.006489465 0.030737805 0.0103125
v -0.006489465 0.030737805 0.0140625
v -0.006335265 0.03059889 0.0103125
v -0.006335265 0.03059889 0.0140625
v -0.006193935 0.030439815 0.0103125
v -0.006193935 0.030439815 0.0140625
v -0.006070305 0.03026664 0.0103125
v -0.006070305 0.03026664 0.0140625
v -0.00596919 0.030085395 0.0103125
v -0.00596919 0.030085395 0.0140625
v -0.0058914 0.02989713 0.0103125
v -0.0058914 0.02989713 0.0140625
v -0.00583452 0.02969877 0.0103125
v -0.00583452 0.02969877 0.0140625
v -0.00579855 0.02949036 0.0103125
v -0.033248205 0.0247701 0.0140625
v -0.033248205 0.0247701 0.0103125
v -0.0334614 0.024624075 0.0103125
v -0.032720475 0.025085265 0.0140625
v -0.0334614 0.024624075 0.0140625
v -0.033655785 0.024464445 0.0103125
v -0.033655785 0.024464445 0.0140625
v -0.033831345 0.02429118 0.0103125
v -0.033831345 0.02429118 0.0140625
v -0.03398808 0.02410431 0.0103125
v -0.03398808 0.02410431 0.0140625
v -0.03412689 0.02390187 0.0103125
v -0.03412689 0.02390187 0.0140625
v -0.034248555 0.023682135 0.0103125
v -0.034248555 0.023682135 0.0140625
v -0.03435051 0.02345076 0.0103125
v -0.03435051 0.02345076 0.0140625
v -0.034430055 0.023213685 0.0103125
v -0.034430055 0.023213685 0.0140625
v -0.034485045 0.022974645 0.0103125
v -0.034485045 0.022974645 0.0140625
v -0.034517115 0.02272665 0.0103125
v -0.034517115 0.02272665 0.0140625
v -0.03452652 0.02247399 0.0103125
v -0.03452652 0.02247399 0.0140625
v -0.03451311 0.022223175 0.0103125
v -0.03451311 0.022223175 0.0140625
v -0.03447663 0.021980175 0.0103125
v -0.03447663 0.021980175 0.0140625
v -0.034415535 0.021739095 0.0103125
v -0.034415535 0.021739095 0.0140625
v -0.03433119 0.021501045 0.0103125
v -0.03433119 0.021501045 0.0140625
v -0.03422595 0.02127207 0.0103125
v -0.03422595 0.02127207 0.0140625
v -0.0341022 0.021058245 0.0103125
v -0.0341022 0.021058245 0.0140625
v -0.03395778 0.0208578 0.0103125
v -0.03395778 0.0208578 0.0140625
v -0.033791955 0.02066805 0.0103125
v -0.033791955 0.02066805 0.0140625
v -0.0336093 0.02049363 0.0103125
v -0.0336093 0.02049363 0.0140625
v -0.03341436 0.020339205 0.0103125
v -0.03341436 0.020339205 0.0140625
v -0.0332076 0.020206425 0.0103125
v -0.0332076 0.020206425 0.0140625
v -0.03298425 0.02009151 0.0103125
v -0.03298425 0.02009151 0.0140625
v -0.032749875 0.019996665 0.0103125
v -0.032749875 0.019996665 0.0140625
v -0.03251049 0.01992438 0.0103125
v -0.03251049 0.01992438 0.0140625
v -0.03226989 0.019876695 0.0103125
v -0.03226989 0.019876695 0.0140625
v -0.032021025 0.019852215 0.0103125
v -0.032021025 0.019852215 0.0140625
v -0.031768185 0.019850505 0.0103125
v -0.031768185 0.019850505 0.0140625
v -0.03151791 0.01987155 0.0103125
v -0.03151791 0.01987155 0.0140625
v -0.03127638 0.01991532 0.0103125
v -0.03127638 0.01991532 0.0140625
v -0.03104172 0.019981815 0.0103125
v -0.03104172 0.019981815 0.0140625
v -0.03081177 0.020071065 0.0103125
v -0.03081177 0.020071065 0.0140625
v -0.030586545 0.020183055 0.0103125
v -0.030586545 0.020183055 0.0140625
v -0.030366045 0.02031777 0.0103125
v -0.030366045 0.02031777 0.0140625
v -0.030011355 0.02055756 0.0103125
v -0.030011355 0.02055756 0.0140625
v -0.02965515 0.02079177 0.0103125
v -0.02965515 0.02079177 0.0140625
v -0.029297415 0.021020355 0.0103125
v -0.029297415 0.021020355 0.0140625
v -0.028938165 0.02124336 0.0103125
v -0.028938165 0.02124336 0.0140625
v -0.028577385 0.021460755 0.0103125
v -0.028577385 0.021460755 0.0140625
v -0.02821509 0.021672555 0.0103125
v -0.02821509 0.021672555 0.0140625
v -0.02785128 0.02187876 0.0103125
v -0.02785128 0.02187876 0.0140625
v -0.02748594 0.02207937 0.0103125
v -0.02748594 0.02207937 0.0140625
v -0.02711907 0.02227437 0.0103125
v -0.02711907 0.02227437 0.0140625
v -0.026750685 0.02246379 0.0103125
v -0.026750685 0.02246379 0.0140625
v -0.02638077 0.0226476 0.0103125
v -0.02638077 0.0226476 0.0140625
v -0.02600934 0.0228258 0.0103125
v -0.02600934 0.0228258 0.0140625
v -0.025636395 0.02299842 0.0103125
v -0.025636395 0.02299842 0.0140625
v -0.02526192 0.02316543 0.0103125
v -0.02526192 0.02316543 0.0140625
v -0.02488578 0.02332683 0.0103125
v -0.02488578 0.02332683 0.0140625
v -0.02450787 0.02348259 0.0103125
v -0.02450787 0.02348259 0.0140625
v -0.024128265 0.023632725 0.0103125
v -0.024128265 0.023632725 0.0140625
v -0.023747025 0.02377725 0.0103125
v -0.023747025 0.02377725 0.0140625
v -0.023364225 0.023916165 0.0103125
v -0.023364225 0.023916165 0.0140625
v -0.022979925 0.024049485 0.0103125
v -0.022979925 0.024049485 0.0140625
v -0.022594185 0.024177225 0.0103125
v -0.022594185 0.024177225 0.0140625
v -0.02220708 0.0242994 0.0103125
v -0.02220708 0.0242994 0.0140625
v -0.02181867 0.024415995 0.0103125
v -0.02181867 0.024415995 0.0140625
v -0.02142903 0.024527025 0.0103125
v -0.02142903 0.024527025 0.0140625
v -0.02103822 0.02463252 0.0103125
v -0.02103822 0.02463252 0.0140625
v -0.0206463 0.024732465 0.0103125
v -0.0206463 0.024732465 0.0140625
v -0.020253345 0.02482689 0.0103125
v -0.020253345 0.02482689 0.0140625
v -0.01985943 0.024915795 0.0103125
v -0.01985943 0.024915795 0.0140625
v -0.019464315 0.02499924 0.0103125
v -0.019464315 0.02499924 0.0140625
v -0.019067775 0.02507727 0.0103125
v -0.019067775 0.02507727 0.0140625
v -0.018669885 0.025149825 0.0103125
v -0.018669885 0.025149825 0.0140625
v -0.018270675 0.025216905 0.0103125
v -0.018270675 0.025216905 0.0140625
v -0.01787022 0.02527845 0.0103125
v -0.01787022 0.02527845 0.0140625
v -0.01746858 0.02533443 0.0103125
v -0.01746858 0.02533443 0.0140625
v -0.017065785 0.0253848 0.0103125
v -0.017065785 0.0253848 0.0140625
v -0.016661925 0.02542953 0.0103125
v -0.016661925 0.02542953 0.0140625
v -0.01625703 0.02546859 0.0103125
v -0.01625703 0.02546859 0.0140625
v -0.01585116 0.02550195 0.0103125
v -0.01585116 0.02550195 0.0140625
v -0.01544439 0.02552955 0.0103125
v -0.01544439 0.02552955 0.0140625
v -0.01503675 0.025551375 0.0103125
v -0.01503675 0.025551375 0.0140625
v -0.014628315 0.025567365 0.0103125
v -0.014628315 0.025567365 0.0140625
v -0.014219145 0.025577505 0.0103125
v -0.014219145 0.025577505 0.0140625
v -0.013809135 0.025581855 0.0103125
v -0.013809135 0.025581855 0.0140625
v -0.01339818 0.025580475 0.0103125
v -0.01339818 0.025580475 0.0140625
v -0.012986265 0.025573365 0.0103125
v -0.012986265 0.025573365 0.0140625
v -0.012573405 0.02556054 0.0103125
v -0.012573405 0.02556054 0.0140625
v -0.0121596 0.025541985 0.0103125
v -0.0121596 0.025541985 0.0140625
v -0.011744835 0.0255177 0.0103125
v -0.011744835 0.0255177 0.0140625
v -0.011329125 0.0254877 0.0103125
v -0.011329125 0.0254877 0.0140625
v -0.010912455 0.025451985 0.0103125
v -0.010912455 0.025451985 0.0140625
v -0.01049484 0.02541054 0.0103125
v -0.01049484 0.02541054 0.0140625
v -0.01007628 0.025363365 0.0103125
v -0.01007628 0.025363365 0.0140625
v -0.00965676 0.025310475 0.0103125
v -0.00965676 0.025310475 0.0140625
v -0.009236295 0.02525187 0.0103125
v -0.009236295 0.02525187 0.0140625
v -0.008814885 0.02518752 0.0103125
v -0.008814885 0.02518752 0.0140625
v -0.008392515 0.02511747 0.0103125
v -0.008392515 0.02511747 0.0140625
v -0.008226645 0.02509326 0.0103125
v -0.008226645 0.02509326 0.0140625
v -0.00806202 0.025075005 0.0103125
v -0.00806202 0.025075005 0.0140625
v -0.007898655 0.025062705 0.0103125
v -0.007898655 0.025062705 0.0140625
v -0.00773655 0.025056375 0.0103125
v -0.00773655 0.025056375 0.0140625
v -0.00757569 0.025055985 0.0103125
v -0.00757569 0.025055985 0.0140625
v -0.00741609 0.025061565 0.0103125
v -0.00741609 0.025061565 0.0140625
v -0.007257735 0.0250731 0.0103125
v -0.007257735 0.0250731 0.0140625
v -0.007100625 0.02509059 0.0103125
v -0.007100625 0.02509059 0.0140625
v -0.006944775 0.025114035 0.0103125
v -0.006944775 0.025114035 0.0140625
v -0.006790185 0.02514345 0.0103125
v -0.006790185 0.02514345 0.0140625
v -0.00663588 0.02517921 0.0103125
v -0.00663588 0.02517921 0.0140625
v -0.00648135 0.025221555 0.0103125
v -0.00648135 0.025221555 0.0140625
v -0.00632721 0.02527023 0.0103125
v -0.00632721 0.02527023 0.0140625
v -0.006174105 0.02532495 0.0103125
v -0.006174105 0.02532495 0.0140625
v -0.00602268 0.02538543 0.0103125
v -0.00602268 0.02538543 0.0140625
v -0.00587358 0.02545143 0.0103125
v -0.00587358 0.02545143 0.0140625
v -0.005727435 0.02552268 0.0103125
v -0.005727435 0.02552268 0.0140625
v -0.00558489 0.02559888 0.0103125
v -0.00558489 0.02559888 0.0140625
v -0.00544659 0.02567979 0.0103125
v -0.00544659 0.02567979 0.0140625
v -0.00531315 0.02576514 0.0103125
v -0.00531315 0.02576514 0.0140625
v -0.005183325 0.025855875 0.0103125
v -0.005183325 0.025855875 0.0140625
v -0.00505572 0.025952805 0.0103125
v -0.00505572 0.025952805 0.0140625
v -0.00493086 0.026055435 0.0103125
v -0.00493086 0.026055435 0.0140625
v -0.00480921 0.0261633 0.0103125
v -0.00480921 0.0261633 0.0140625
v -0.004691265 0.026275905 0.0103125
v -0.004691265 0.026275905 0.0140625
v -0.004577535 0.026392755 0.0103125
v -0.004577535 0.026392755 0.0140625
v -0.004468515 0.026513355 0.0103125
v -0.004468515 0.026513355 0.0140625
v -0.00436467 0.026637225 0.0103125
v -0.00436467 0.026637225 0.0140625
v -0.00426651 0.026763885 0.0103125
v -0.00426651 0.026763885 0.0140625
v -0.00417453 0.026892825 0.0103125
v -0.00417453 0.026892825 0.0140625
v -0.004087905 0.02702544 0.0103125
v -0.004087905 0.02702544 0.0140625
v -0.004005675 0.02716296 0.0103125
v -0.004005675 0.02716296 0.0140625
v -0.003928095 0.02730477 0.0103125
v -0.003928095 0.02730477 0.0140625
v -0.00385545 0.02745021 0.0103125
v -0.00385545 0.02745021 0.0140625
v -0.00378801 0.02759868 0.0103125
v -0.00378801 0.02759868 0.0140625
v -0.00372606 0.027749505 0.0103125
v -0.00372606 0.027749505 0.0140625
v -0.003669885 0.02790207 0.0103125
v -0.003669885 0.02790207 0.0140625
v -0.003619725 0.02805573 0.0103125
v -0.003619725 0.02805573 0.0140625
v -0.003575895 0.028209855 0.0103125
v -0.003575895 0.028209855 0.0140625
v -0.003538635 0.028363815 0.0103125
v -0.003538635 0.028363815 0.0140625
v -0.00350772 0.028519155 0.0103125
v -0.00350772 0.028519155 0.0140625
v -0.0034827 0.02867742 0.0103125
v -0.0034827 0.02867742 0.0140625
v -0.003463605 0.028837935 0.0103125
v -0.003463605 0.028837935 0.0140625
v -0.00345045 0.02899998 0.0103125
v -0.00345045 0.02899998 0.0140625
v -0.00344325 0.02916288 0.0103125
v -0.00344325 0.02916288 0.0140625
v -0.00344202 0.02932593 0.0103125
v -0.00344202 0.02932593 0.0140625
v -0.00344679 0.02948844 0.0103125
v -0.00344679 0.02948844 0.0140625
v -0.00345756 0.02964972 0.0103125
v -0.00345756 0.02964972 0.0140625
v -0.003474375 0.02980908 0.0103125
v -0.003474375 0.02980908 0.0140625
v -0.00349722 0.029965815 0.0103125
v -0.00349722 0.029965815 0.0140625
v -0.00352647 0.030121485 0.0103125
v -0.00352647 0.030121485 0.0140625
v -0.003562275 0.030277665 0.0103125
v -0.003562275 0.030277665 0.0140625
v -0.003604425 0.03043371 0.0103125
v -0.003604425 0.03043371 0.0140625
v -0.00365265 0.030588975 0.0103125
v -0.00365265 0.030588975 0.0140625
v -0.003706725 0.030742815 0.0103125
v -0.003706725 0.030742815 0.0140625
v -0.003766395 0.030894555 0.0103125
v -0.003766395 0.030894555 0.0140625
v -0.00383142 0.031043565 0.0103125
v -0.00383142 0.031043565 0.0140625
v -0.003901575 0.031189185 0.0103125
v -0.003901575 0.031189185 0.0140625
v -0.00397659 0.031330785 0.0103125
v -0.00397659 0.031330785 0.0140625
v -0.004056255 0.03146769 0.0103125
v -0.004056255 0.03146769 0.0140625
v -0.00414144 0.03160122 0.0103125
v -0.00414144 0.03160122 0.0140625
v -0.004232925 0.03173277 0.0103125
v -0.004232925 0.03173277 0.0140625
v -0.004330215 0.031861845 0.0103125
v -0.004330215 0.031861845 0.0140625
v -0.004432875 0.03198792 0.0103125
v -0.004432875 0.03198792 0.0140625
v -0.00454041 0.032110485 0.0103125
v -0.00454041 0.032110485 0.0140625
v -0.00465237 0.03222903 0.0103125
v -0.00465237 0.03222903 0.0140625
v -0.00476829 0.032343045 0.0103125
v -0.00476829 0.032343045 0.0140625
v -0.00488769 0.032452005 0.0103125
v -0.00488769 0.032452005 0.0140625
v -0.005010105 0.0325554 0.0103125
v -0.005010105 0.0325554 0.0140625
v -0.00513507 0.032652705 0.0103125
v -0.00513507 0.032652705 0.0140625
v -0.005263905 0.032744835 0.0103125
v -0.005263905 0.032744835 0.0140625
v -0.005397855 0.032832795 0.0103125
v -0.005397855 0.032832795 0.0140625
v -0.005536275 0.032916255 0.0103125
v -0.005536275 0.032916255 0.0140625
v -0.005678535 0.03299496 0.0103125
v -0.005678535 0.03299496 0.0140625
v -0.005824035 0.03306858 0.0103125
v -0.005824035 0.03306858 0.0140625
v -0.00597213 0.033136815 0.0103125
v -0.00597213 0.033136815 0.0140625
v -0.00612219 0.033199365 0.0103125
v -0.00612219 0.033199365 0.0140625
v -0.006273615 0.03325593 0.0103125
v -0.006273615 0.03325593 0.0140625
v -0.00642576 0.03330621 0.0103125
v -0.00642576 0.03330621 0.0140625
v -0.006577995 0.033349905 0.0103125
v -0.006577995 0.033349905 0.0140625
v -0.006730875 0.033387255 0.0103125
v -0.006730875 0.033387255 0.0140625
v -0.0068853 0.033418725 0.0103125
v -0.0068853 0.033418725 0.0140625
v -0.007041285 0.033444315 0.0103125
v -0.007041285 0.033444315 0.0140625
v -0.00719883 0.03346401 0.0103125
v -0.00719883 0.03346401 0.0140625
v -0.007357935 0.03347784 0.0103125
v -0.007357935 0.03347784 0.0140625
v -0.0075186 0.03348576 0.0103125
v -0.0075186 0.03348576 0.0140625
v -0.007680825 0.033487815 0.0103125
v -0.007680825 0.033487815 0.0140625
v -0.00784461 0.033483975 0.0103125
v -0.00784461 0.033483975 0.0140625
v -0.00800994 0.033474255 0.0103125
v -0.00800994 0.033474255 0.0140625
v -0.008176845 0.033458655 0.0103125
v -0.008176845 0.033458655 0.0140625
v -0.00878643 0.03337968 0.0103125
v -0.00878643 0.03337968 0.0140625
v -0.009394215 0.03329517 0.0103125
v -0.009394215 0.03329517 0.0140625
v -0.010000185 0.033205155 0.0103125
v -0.010000185 0.033205155 0.0140625
v -0.010604355 0.03310959 0.0103125
v -0.010604355 0.03310959 0.0140625
v -0.011206725 0.033008505 0.0103125
v -0.011206725 0.033008505 0.0140625
v -0.01180728 0.0329019 0.0103125
v -0.01180728 0.0329019 0.0140625
v -0.012406035 0.032789775 0.0103125
v -0.012406035 0.032789775 0.0140625
v -0.013002975 0.032672115 0.0103125
v -0.013002975 0.032672115 0.0140625
v -0.013598115 0.03254892 0.0103125
v -0.013598115 0.03254892 0.0140625
v -0.01419144 0.032420205 0.0103125
v -0.01419144 0.032420205 0.0140625
v -0.014782965 0.03228597 0.0103125
v -0.014782965 0.03228597 0.0140625
v -0.01537269 0.0321462 0.0103125
v -0.01537269 0.0321462 0.0140625
v -0.0159606 0.03200091 0.0103125
v -0.0159606 0.03200091 0.0140625
v -0.01654671 0.031850085 0.0103125
v -0.01654671 0.031850085 0.0140625
v -0.017131035 0.031693725 0.0103125
v -0.017131035 0.031693725 0.0140625
v -0.01771368 0.0315318 0.0103125
v -0.01771368 0.0315318 0.0140625
v -0.018294645 0.03136431 0.0103125
v -0.018294645 0.03136431 0.0140625
v -0.01887393 0.03119124 0.0103125
v -0.01887393 0.03119124 0.0140625
v -0.01945146 0.031012635 0.0103125
v -0.01945146 0.031012635 0.0140625
v -0.020027205 0.03082848 0.0103125
v -0.020027205 0.03082848 0.0140625
v -0.020601135 0.03063882 0.0103125
v -0.020601135 0.03063882 0.0140625
v -0.02117319 0.03044364 0.0103125
v -0.02117319 0.03044364 0.0140625
v -0.02174334 0.030242985 0.0103125
v -0.02174334 0.030242985 0.0140625
v -0.022311555 0.03003684 0.0103125
v -0.022311555 0.03003684 0.0140625
v -0.02287779 0.02982522 0.0103125
v -0.02287779 0.02982522 0.0140625
v -0.023442 0.02960817 0.0103125
v -0.023442 0.02960817 0.0140625
v -0.02400414 0.02938566 0.0103125
v -0.02400414 0.02938566 0.0140625
v -0.02456418 0.029157735 0.0103125
v -0.02456418 0.029157735 0.0140625
v -0.025122075 0.02892441 0.0103125
v -0.025122075 0.02892441 0.0140625
v -0.02567784 0.02868567 0.0103125
v -0.02567784 0.02868567 0.0140625
v -0.02623158 0.02844147 0.0103125
v -0.02623158 0.02844147 0.0140625
v -0.02678334 0.02819181 0.0103125
v -0.02678334 0.02819181 0.0140625
v -0.027333075 0.02793669 0.0103125
v -0.027333075 0.02793669 0.0140625
v -0.02788083 0.02767611 0.0103125
v -0.02788083 0.02767611 0.0140625
v -0.028426575 0.027410085 0.0103125
v -0.028426575 0.027410085 0.0140625
v -0.02897031 0.027138585 0.0103125
v -0.02897031 0.027138585 0.0140625
v -0.02951205 0.026861625 0.0103125
v -0.02951205 0.026861625 0.0140625
v -0.030051795 0.02657922 0.0103125
v -0.030051795 0.02657922 0.0140625
v -0.03058953 0.02629134 0.0103125
v -0.03058953 0.02629134 0.0140625
v -0.03112527 0.025998015 0.0103125
v -0.03112527 0.025998015 0.0140625
v -0.031659 0.02569923 0.0103125
v -0.031659 0.02569923 0.0140625
v -0.032190735 0.02539497 0.0103125
v -0.032190735 0.02539497 0.0140625
v -0.032720475 0.025085265 0.0103125
v -0.03112527 0.025998015 0.0140625
v -0.031177995 0.02257068 0.0140625
v -0.031171875 0.0225 0.0140625
v -0.031659 0.02569923 0.0140625
v -0.03104172 0.019981815 0.0140625
v -0.03081177 0.020071065 0.0140625
v -0.031177995 0.02242932 0.0140625
v -0.03118881 0.02236206 0.0140625
v -0.031204335 0.022298205 0.0140625
v -0.031224555 0.02223777 0.0140625
v -0.03124947 0.022180755 0.0140625
v -0.03127638 0.01991532 0.0140625
v -0.03127908 0.022127145 0.0140625
v -0.03131346 0.02207691 0.0140625
v -0.03135414 0.02202891 0.0140625
v -0.03140088 0.021983355 0.0140625
v -0.031452405 0.02194113 0.0140625
v -0.03150744 0.021903195 0.0140625
v -0.03151791 0.01987155 0.0140625
v -0.031564695 0.02187048 0.0140625
v -0.03162288 0.0218439 0.0140625
v -0.03168126 0.02182422 0.0140625
v -0.031743195 0.021810405 0.0140625
v -0.031768185 0.019850505 0.0140625
v -0.03180831 0.021802125 0.0140625
v -0.031875 0.021799365 0.0140625
v -0.03194169 0.021802125 0.0140625
v -0.032006805 0.021810405 0.0140625
v -0.032021025 0.019852215 0.0140625
v -0.03206874 0.02182422 0.0140625
v -0.03212712 0.0218439 0.0140625
v -0.032185305 0.02187048 0.0140625
v -0.03224256 0.021903195 0.0140625
v -0.03226989 0.019876695 0.0140625
v -0.032297595 0.02194113 0.0140625
v -0.03234912 0.021983355 0.0140625
v -0.03239586 0.02202891 0.0140625
v -0.03243654 0.02207691 0.0140625
v -0.03247092 0.022127145 0.0140625
v -0.03250053 0.022180755 0.0140625
v -0.03251049 0.01992438 0.0140625
v -0.032525445 0.02223777 0.0140625
v -0.032545665 0.022298205 0.0140625
v -0.03256119 0.02236206 0.0140625
v -0.032572005 0.02242932 0.0140625
v -0.032578125 0.0225 0.0140625
v -0.032720475 0.025085265 0.0140625
v -0.032572005 0.02257068 0.0140625
v -0.032749875 0.019996665 0.0140625
v -0.033248205 0.0247701 0.0140625
v -0.03298425 0.02009151 0.0140625
v -0.0332076 0.020206425 0.0140625
v -0.03341436 0.020339205 0.0140625
v -0.0334614 0.024624075 0.0140625
v -0.0336093 0.02049363 0.0140625
v -0.033655785 0.024464445 0.0140625
v -0.033791955 0.02066805 0.0140625
v -0.033831345 0.02429118 0.0140625
v -0.03395778 0.0208578 0.0140625
v -0.03398808 0.02410431 0.0140625
v -0.0341022 0.021058245 0.0140625
v -0.03412689 0.02390187 0.0140625
v -0.03422595 0.02127207 0.0140625
v -0.034248555 0.023682135 0.0140625
v -0.03433119 0.021501045 0.0140625
v -0.03435051 0.02345076 0.0140625
v -0.034415535 0.021739095 0.0140625
v -0.034430055 0.023213685 0.0140625
v -0.03447663 0.021980175 0.0140625
v -0.034485045 0.022974645 0.0140625
v -0.03451311 0.022223175 0.0140625
v -0.034517115 0.02272665 0.0140625
v -0.03452652 0.02247399 0.0140625
v -0.03256119 0.02263794 0.0140625
v -0.032545665 0.022701795 0.0140625
v -0.032525445 0.02276223 0.0140625
v -0.03250053 0.022819245 0.0140625
v -0.03247092 0.022872855 0.0140625
v -0.03243654 0.02292309 0.0140625
v -0.03239586 0.02297109 0.0140625
v -0.03234912 0.023016645 0.0140625
v -0.032297595 0.02305887 0.0140625
v -0.03224256 0.023096805 0.0140625
v -0.032190735 0.02539497 0.0140625
v -0.032185305 0.02312952 0.0140625
v -0.03212712 0.0231561 0.0140625
v -0.03206874 0.02317578 0.0140625
v -0.032006805 0.023189595 0.0140625
v -0.03194169 0.023197875 0.0140625
v -0.031875 0.023200635 0.0140625
v -0.03180831 0.023197875 0.0140625
v -0.031743195 0.023189595 0.0140625
v -0.03168126 0.02317578 0.0140625
v -0.03162288 0.0231561 0.0140625
v -0.031564695 0.02312952 0.0140625
v -0.03150744 0.023096805 0.0140625
v -0.031452405 0.02305887 0.0140625
v -0.03140088 0.023016645 0.0140625
v -0.03135414 0.02297109 0.0140625
v -0.03131346 0.02292309 0.0140625
v -0.03127908 0.022872855 0.0140625
v -0.03124947 0.022819245 0.0140625
v -0.031224555 0.02276223 0.0140625
v -0.031204335 0.022701795 0.0140625
v -0.03118881 0.02263794 0.0140625
v -0.03058953 0.02629134 0.0140625
v -0.030586545 0.020183055 0.0140625
v -0.030366045 0.02031777 0.0140625
v -0.030051795 0.02657922 0.0140625
v -0.030011355 0.02055756 0.0140625
v -0.02965515 0.02079177 0.0140625
v -0.02951205 0.026861625 0.0140625
v -0.029297415 0.021020355 0.0140625
v -0.02897031 0.027138585 0.0140625
v -0.028938165 0.02124336 0.0140625
v -0.028577385 0.021460755 0.0140625
v -0.028426575 0.027410085 0.0140625
v -0.02821509 0.021672555 0.0140625
v -0.02788083 0.02767611 0.0140625
v -0.02785128 0.02187876 0.0140625
v -0.02748594 0.02207937 0.0140625
v -0.027333075 0.02793669 0.0140625
v -0.02711907 0.02227437 0.0140625
v -0.02678334 0.02819181 0.0140625
v -0.026750685 0.02246379 0.0140625
v -0.02638077 0.0226476 0.0140625
v -0.02623158 0.02844147 0.0140625
v -0.02600934 0.0228258 0.0140625
v -0.02567784 0.02868567 0.0140625
v -0.025636395 0.02299842 0.0140625
v -0.02526192 0.02316543 0.0140625
v -0.025122075 0.02892441 0.0140625
v -0.02488578 0.02332683 0.0140625
v -0.02456418 0.029157735 0.0140625
v -0.02450787 0.02348259 0.0140625
v -0.024128265 0.023632725 0.0140625
v -0.02400414 0.02938566 0.0140625
v -0.023747025 0.02377725 0.0140625
v -0.023442 0.02960817 0.0140625
v -0.023364225 0.023916165 0.0140625
v -0.022979925 0.024049485 0.0140625
v -0.02287779 0.02982522 0.0140625
v -0.022594185 0.024177225 0.0140625
v -0.022311555 0.03003684 0.0140625
v -0.02220708 0.0242994 0.0140625
v -0.02181867 0.024415995 0.0140625
v -0.02174334 0.030242985 0.0140625
v -0.02142903 0.024527025 0.0140625
v -0.02117319 0.03044364 0.0140625
v -0.02103822 0.02463252 0.0140625
v -0.0206463 0.024732465 0.0140625
v -0.020601135 0.03063882 0.0140625
v -0.020253345 0.02482689 0.0140625
v -0.020027205 0.03082848 0.0140625
v -0.01985943 0.024915795 0.0140625
v -0.019464315 0.02499924 0.0140625
v -0.01945146 0.031012635 0.0140625
v -0.019067775 0.02507727 0.0140625
v -0.01887393 0.03119124 0.0140625
v -0.018669885 0.025149825 0.0140625
v -0.018294645 0.03136431 0.0140625
v -0.018270675 0.025216905 0.0140625
v -0.01787022 0.02527845 0.0140625
v -0.01771368 0.0315318 0.0140625
v -0.01746858 0.02533443 0.0140625
v -0.017131035 0.031693725 0.0140625
v -0.017065785 0.0253848 0.0140625
v -0.016661925 0.02542953 0.0140625
v -0.01654671 0.031850085 0.0140625
v -0.01625703 0.02546859 0.0140625
v -0.0159606 0.03200091 0.0140625
v -0.01585116 0.02550195 0.0140625
v -0.01544439 0.02552955 0.0140625
v -0.01537269 0.0321462 0.0140625
v -0.01503675 0.025551375 0.0140625
v -0.014782965 0.03228597 0.0140625
v -0.014628315 0.025567365 0.0140625
v -0.014219145 0.025577505 0.0140625
v -0.01419144 0.032420205 0.0140625
v -0.013809135 0.025581855 0.0140625
v -0.013598115 0.03254892 0.0140625
v -0.01339818 0.025580475 0.0140625
v -0.013002975 0.032672115 0.0140625
v -0.012986265 0.025573365 0.0140625
v -0.012573405 0.02556054 0.0140625
v -0.012406035 0.032789775 0.0140625
v -0.0121596 0.025541985 0.0140625
v -0.01180728 0.0329019 0.0140625
v -0.011744835 0.0255177 0.0140625
v -0.011329125 0.0254877 0.0140625
v -0.011206725 0.033008505 0.0140625
v -0.010912455 0.025451985 0.0140625
v -0.010604355 0.03310959 0.0140625
v -0.01049484 0.02541054 0.0140625
v -0.01007628 0.025363365 0.0140625
v -0.010000185 0.033205155 0.0140625
v -0.00965676 0.025310475 0.0140625
v -0.009533505 0.02927187 0.0140625
v -0.009518445 0.02905338 0.0140625
v -0.009518445 0.02949036 0.0140625
v -0.00948249 0.02969877 0.0140625
v -0.00942561 0.02989713 0.0140625
v -0.009394215 0.03329517 0.0140625
v -0.00934782 0.030085395 0.0140625
v -0.009246705 0.03026664 0.0140625
v -0.00912306 0.030439815 0.0140625
v -0.008981745 0.03059889 0.0140625
v -0.008827545 0.030737805 0.0140625
v -0.00878643 0.03337968 0.0140625
v -0.008657805 0.03085722 0.0140625
v -0.00847128 0.03095961 0.0140625
v -0.008274915 0.0310416 0.0140625
v -0.008176845 0.033458655 0.0140625
v -0.00807573 0.03109986 0.0140625
v -0.00800994 0.033474255 0.0140625
v -0.007870995 0.031133805 0.0140625
v -0.00784461 0.033483975 0.0140625
v -0.007658505 0.031145115 0.0140625
v -0.007680825 0.033487815 0.0140625
v -0.0075186 0.03348576 0.0140625
v -0.007446015 0.031133805 0.0140625
v -0.007357935 0.03347784 0.0140625
v -0.00724128 0.03109986 0.0140625
v -0.00719883 0.03346401 0.0140625
v -0.00704208 0.0310416 0.0140625
v -0.007041285 0.033444315 0.0140625
v -0.00684573 0.03095961 0.0140625
v -0.0068853 0.033418725 0.0140625
v -0.006730875 0.033387255 0.0140625
v -0.006659205 0.03085722 0.0140625
v -0.006577995 0.033349905 0.0140625
v -0.006489465 0.030737805 0.0140625
v -0.00642576 0.03330621 0.0140625
v -0.006335265 0.03059889 0.0140625
v -0.006273615 0.03325593 0.0140625
v -0.006193935 0.030439815 0.0140625
v -0.00612219 0.033199365 0.0140625
v -0.006070305 0.03026664 0.0140625
v -0.00597213 0.033136815 0.0140625
v -0.00596919 0.030085395 0.0140625
v -0.0058914 0.02989713 0.0140625
v -0.00583452 0.02969877 0.0140625
v -0.005824035 0.03306858 0.0140625
v -0.00579855 0.02949036 0.0140625
v -0.005783505 0.02927187 0.0140625
v -0.005727435 0.02552268 0.0140625
v -0.005678535 0.03299496 0.0140625
v -0.00579855 0.02905338 0.0140625
v -0.00583452 0.028844955 0.0140625
v -0.00587358 0.02545143 0.0140625
v -0.0058914 0.02864661 0.0140625
v -0.00596919 0.02845833 0.0140625
v -0.00602268 0.02538543 0.0140625
v -0.006070305 0.0282771 0.0140625
v -0.006174105 0.02532495 0.0140625
v -0.006193935 0.028103925 0.0140625
v -0.00632721 0.02527023 0.0140625
v -0.006335265 0.02794485 0.0140625
v -0.00648135 0.025221555 0.0140625
v -0.006489465 0.027805935 0.0140625
v -0.00663588 0.02517921 0.0140625
v -0.006659205 0.02768652 0.0140625
v -0.006790185 0.02514345 0.0140625
v -0.00684573 0.02758413 0.0140625
v -0.006944775 0.025114035 0.0140625
v -0.00704208 0.027502125 0.0140625
v -0.007100625 0.02509059 0.0140625
v -0.00724128 0.02744388 0.0140625
v -0.007257735 0.0250731 0.0140625
v -0.007446015 0.027409935 0.0140625
v -0.00741609 0.025061565 0.0140625
v -0.00757569 0.025055985 0.0140625
v -0.007658505 0.027398625 0.0140625
v -0.00773655 0.025056375 0.0140625
v -0.007870995 0.027409935 0.0140625
v -0.007898655 0.025062705 0.0140625
v -0.00807573 0.02744388 0.0140625
v -0.00806202 0.025075005 0.0140625
v -0.008226645 0.02509326 0.0140625
v -0.008274915 0.027502125 0.0140625
v -0.008392515 0.02511747 0.0140625
v -0.00847128 0.02758413 0.0140625
v -0.008657805 0.02768652 0.0140625
v -0.008814885 0.02518752 0.0140625
v -0.008827545 0.027805935 0.0140625
v -0.008981745 0.02794485 0.0140625
v -0.00912306 0.028103925 0.0140625
v -0.009236295 0.02525187 0.0140625
v -0.009246705 0.0282771 0.0140625
v -0.00934782 0.02845833 0.0140625
v -0.00942561 0.02864661 0.0140625
v -0.00948249 0.028844955 0.0140625
v -0.00558489 0.02559888 0.0140625
v -0.005536275 0.032916255 0.0140625
v -0.00544659 0.02567979 0.0140625
v -0.005397855 0.032832795 0.0140625
v -0.00531315 0.02576514 0.0140625
v -0.005263905 0.032744835 0.0140625
v -0.005183325 0.025855875 0.0140625
v -0.00513507 0.032652705 0.0140625
v -0.00505572 0.025952805 0.0140625
v -0.005010105 0.0325554 0.0140625
v -0.00493086 0.026055435 0.0140625
v -0.00488769 0.032452005 0.0140625
v -0.00480921 0.0261633 0.0140625
v -0.00476829 0.032343045 0.0140625
v -0.004691265 0.026275905 0.0140625
v -0.00465237 0.03222903 0.0140625
v -0.004577535 0.026392755 0.0140625
v -0.00454041 0.032110485 0.0140625
v -0.004468515 0.026513355 0.0140625
v -0.004432875 0.03198792 0.0140625
v -0.00436467 0.026637225 0.0140625
v -0.004330215 0.031861845 0.0140625
v -0.00426651 0.026763885 0.0140625
v -0.004232925 0.03173277 0.0140625
v -0.00417453 0.026892825 0.0140625
v -0.00414144 0.03160122 0.0140625
v -0.004087905 0.02702544 0.0140625
v -0.004056255 0.03146769 0.0140625
v -0.004005675 0.02716296 0.0140625
v -0.00397659 0.031330785 0.0140625
v -0.003928095 0.02730477 0.0140625
v -0.003901575 0.031189185 0.0140625
v -0.00385545 0.02745021 0.0140625
v -0.00383142 0.031043565 0.0140625
v -0.00378801 0.02759868 0.0140625
v -0.003766395 0.030894555 0.0140625
v -0.00372606 0.027749505 0.0140625
v -0.003706725 0.030742815 0.0140625
v -0.003669885 0.02790207 0.0140625
v -0.00365265 0.030588975 0.0140625
v -0.003619725 0.02805573 0.0140625
v -0.003604425 0.03043371 0.0140625
v -0.003575895 0.028209855 0.0140625
v -0.003562275 0.030277665 0.0140625
v -0.003538635 0.028363815 0.0140625
v -0.00352647 0.030121485 0.0140625
v -0.00350772 0.028519155 0.0140625
v -0.00349722 0.029965815 0.0140625
v -0.0034827 0.02867742 0.0140625
v -0.003474375 0.02980908 0.0140625
v -0.003463605 0.028837935 0.0140625
v -0.00345756 0.02964972 0.0140625
v -0.00345045 0.02899998 0.0140625
v -0.00344679 0.02948844 0.0140625
v -0.00344325 0.02916288 0.0140625
v -0.00344202 0.02932593 0.0140625
f 1 2 3
f 1 4 2
f 5 1 3
f 6 5 3
f 6 7 5
f 6 3 8
f 6 8 9
f 6 9 10
f 6 10 11
f 6 11 12
f 6 12 13
f 6 13 14
f 6 14 15
f 6 15 16
f 6 16 17
f 6 17 18
f 6 18 19
f 6 19 20
f 21 6 20
f 21 20 22
f 21 22 23
f 21 23 24
f 21 24 25
f 21 25 26
f 21 26 27
f 21 27 28
f 21 28 29
f 21 29 30
f 31 21 30
f 31 30 32
f 31 32 33
f 31 33 34
f 31 34 35
f 31 35 36
f 31 36 37
f 31 37 38
f 31 38 39
f 31 39 40
f 31 40 41
f 31 41 42
f 43 31 42
f 43 42 44
f 43 44 45
f 45 44 46
f 43 45 47
f 43 47 48
f 43 48 49
f 48 50 49
f 50 51 49
f 50 52 51
f 52 53 51
f 52 54 53
f 54 55 53
f 54 56 55
f 56 57 55
f 56 58 57
f 58 59 57
f 58 60 59
f 60 61 59
f 60 62 61
f 62 63 61
f 62 64 63
f 64 65 63
f 64 66 65
f 66 67 65
f 66 68 67
f 68 69 67
f 68 70 69
f 45 46 71
f 45 71 72
f 45 72 73
f 74 45 73
f 74 73 75
f 74 75 76
f 74 76 77
f 74 77 78
f 74 78 79
f 74 79 80
f 81 74 80
f 81 80 82
f 81 82 83
f 81 83 84
f 81 84 85
f 86 81 85
f 86 85 87
f 86 87 88
f 86 88 89
f 86 89 90
f 91 86 90
f 91 90 92
f 91 92 93
f 91 93 94
f 91 94 95
f 96 91 95
f 96 95 97
f 96 97 98
f 96 98 99
f 96 99 100
f 96 100 101
f 96 101 102
f 1 96 102
f 1 102 103
f 1 103 104
f 1 104 105
f 1 105 4
f 7 106 5
f 7 107 106
f 7 108 107
f 108 109 107
f 108 110 109
f 108 111 110
f 111 112 110
f 111 113 112
f 111 114 113
f 114 115 113
f 114 116 115
f 116 117 115
f 116 118 117
f 116 119 118
f 119 120 118
f 119 121 120
f 121 122 120
f 121 123 122
f 121 124 123
f 124 125 123
f 124 126 125
f 126 127 125
f 126 128 127
f 126 129 128
f 129 130 128
f 129 131 130
f 131 132 130
f 131 133 132
f 131 134 133
f 134 135 133
f 134 136 135
f 136 137 135
f 136 138 137
f 136 139 138
f 139 140 138
f 139 141 140
f 141 142 140
f 141 143 142
f 141 144 143
f 144 145 143
f 144 146 145
f 146 147 145
f 146 148 147
f 146 149 148
f 149 150 148
f 149 151 150
f 151 152 150
f 151 153 152
f 151 154 153
f 154 155 153
f 154 156 155
f 156 157 155
f 156 158 157
f 156 159 158
f 159 160 158
f 159 161 160
f 161 162 160
f 161 163 162
f 163 164 162
f 163 165 164
f 163 166 165
f 166 167 165
f 166 168 167
f 168 169 167
f 168 170 169
f 168 171 170
f 171 172 170
f 171 173 172
f 173 174 172
f 173 175 174
f 173 176 175
f 176 177 175
f 176 178 177
f 178 179 177
f 178 180 179
f 178 181 180
f 181 182 180
f 181 183 182
f 183 184 182
f 183 185 184
f 185 186 184
f 185 187 186
f 185 188 187
f 188 189 187
f 188 190 189
f 190 191 189
f 190 192 191
f 190 193 192
f 193 194 192
f 193 195 194
f 195 196 194
f 195 197 196
f 195 198 197
f 195 199 198
f 197 198 200
f 197 200 201
f 197 201 202
f 197 202 203
f 197 203 204
f 205 197 204
f 205 204 206
f 205 206 207
f 205 207 208
f 209 205 208
f 209 208 210
f 209 210 211
f 212 209 211
f 212 211 213
f 214 212 213
f 214 213 215
f 216 214 215
f 216 215 217
f 218 216 217
f 219 218 217
f 219 217 220
f 221 219 220
f 221 220 222
f 223 221 222
f 223 222 224
f 225 223 224
f 226 225 224
f 226 224 227
f 228 226 227
f 228 227 229
f 230 228 229
f 230 229 231
f 232 230 231
f 232 231 233
f 234 232 233
f 234 233 235
f 236 234 235
f 236 235 237
f 238 236 237
f 238 237 239
f 240 238 239
f 240 239 241
f 240 241 242
f 243 240 242
f 243 242 244
f 243 244 245
f 243 245 246
f 247 243 246
f 248 247 246
f 248 249 247
f 248 246 250
f 251 248 250
f 251 250 252
f 251 252 253
f 251 253 254
f 255 251 254
f 255 254 256
f 257 255 256
f 257 256 258
f 259 257 258
f 259 258 260
f 261 259 260
f 261 260 262
f 263 261 262
f 263 262 264
f 265 263 264
f 265 264 266
f 267 265 266
f 267 266 268
f 269 267 268
f 270 269 268
f 270 268 271
f 272 270 271
f 272 271 273
f 274 272 273
f 274 273 275
f 276 274 275
f 276 275 277
f 278 276 277
f 279 278 277
f 279 277 280
f 281 279 280
f 281 280 282
f 281 282 283
f 281 283 284
f 285 281 284
f 285 284 286
f 285 286 287
f 285 287 288
f 285 288 289
f 285 289 290
f 199 285 290
f 199 290 291
f 199 291 292
f 199 292 293
f 199 293 198
f 248 294 249
f 294 295 249
f 294 296 295
f 296 297 295
f 296 298 297
f 298 299 297
f 298 300 299
f 300 301 299
f 300 302 301
f 302 303 301
f 302 304 303
f 304 305 303
f 304 306 305
f 306 307 305
f 306 308 307
f 308 309 307
f 308 310 309
f 310 311 309
f 310 312 311
f 312 313 311
f 312 314 313
f 314 315 313
f 314 316 315
f 316 317 315
f 316 318 317
f 318 319 317
f 318 320 319
f 320 321 319
f 320 322 321
f 322 323 321
f 322 324 323
f 324 325 323
f 324 326 325
f 326 327 325
f 326 328 327
f 328 329 327
f 328 330 329
f 330 331 329
f 330 332 331
f 332 333 331
f 332 334 333
f 334 335 333
f 334 336 335
f 336 337 335
f 336 338 337
f 338 339 337
f 338 340 339
f 340 341 339
f 340 342 341
f 342 343 341
f 342 344 343
f 344 345 343
f 344 346 345
f 346 347 345
f 346 348 347
f 349 350 351
f 352 350 349
f 353 349 351
f 353 351 354
f 353 354 355
f 355 354 356
f 355 356 357
f 357 356 358
f 357 358 359
f 359 358 360
f 359 360 361
f 361 360 362
f 361 362 363
f 363 362 364
f 363 364 365
f 365 364 366
f 365 366 367
f 367 366 368
f 367 368 369
f 369 368 370
f 369 370 371
f 371 370 372
f 371 372 373
f 373 372 374
f 373 374 375
f 375 374 376
f 375 376 377
f 377 376 378
f 377 378 379
f 379 378 380
f 379 380 381
f 381 380 382
f 381 382 383
f 383 382 384
f 383 384 385
f 385 384 386
f 385 386 387
f 387 386 388
f 387 388 389
f 389 388 390
f 389 390 391
f 391 390 392
f 391 392 393
f 393 392 394
f 393 394 395
f 395 394 396
f 395 396 397
f 397 396 398
f 397 398 399
f 399 398 400
f 399 400 401
f 401 400 402
f 401 402 403
f 403 402 404
f 403 404 405
f 405 404 406
f 405 406 407
f 407 406 408
f 407 408 409
f 409 408 410
f 409 410 411
f 411 410 412
f 411 412 413
f 413 412 414
f 413 414 415
f 415 414 416
f 415 416 417
f 417 416 418
f 417 418 419
f 419 418 420
f 419 420 421
f 421 420 422
f 421 422 423
f 423 422 424
f 423 424 425
f 425 424 426
f 425 426 427
f 427 426 428
f 427 428 429
f 429 428 430
f 429 430 431
f 431 430 432
f 431 432 433
f 433 432 434
f 433 434 435
f 435 434 436
f 435 436 437
f 437 436 438
f 437 438 439
f 439 438 440
f 439 440 441
f 441 440 442
f 441 442 443
f 443 442 444
f 443 444 445
f 445 444 446
f 445 446 447
f 447 446 448
f 447 448 449
f 449 448 450
f 449 450 451
f 451 450 452
f 451 452 453
f 453 452 454
f 453 454 455
f 455 454 456
f 455 456 457
f 457 456 458
f 457 458 459
f 459 458 460
f 459 460 461
f 461 460 462
f 461 462 463
f 463 462 464
f 463 464 465
f 465 464 466
f 465 466 467
f 467 466 468
f 467 468 469
f 469 468 470
f 469 470 471
f 471 470 472
f 471 472 473
f 473 472 474
f 473 474 475
f 475 474 476
f 475 476 477
f 477 476 478
f 477 478 479
f 479 478 480
f 479 480 481
f 481 480 482
f 481 482 483
f 483 482 484
f 483 484 352
f 352 484 350
f 485 486 487
f 488 486 485
f 489 485 487
f 489 487 490
f 489 490 491
f 491 490 492
f 491 492 493
f 493 492 494
f 493 494 495
f 495 494 496
f 495 496 497
f 497 496 498
f 497 498 499
f 499 498 500
f 499 500 501
f 501 500 502
f 501 502 503
f 503 502 504
f 503 504 505
f 505 504 506
f 505 506 507
f 507 506 508
f 507 508 509
f 509 508 510
f 509 510 511
f 511 510 512
f 511 512 513
f 513 512 514
f 513 514 515
f 515 514 516
f 515 516 517
f 517 516 518
f 517 518 519
f 519 518 520
f 519 520 521
f 521 520 522
f 521 522 523
f 523 522 524
f 523 524 525
f 525 524 526
f 525 526 527
f 527 526 528
f 527 528 529
f 529 528 530
f 529 530 531
f 531 530 532
f 531 532 533
f 533 532 534
f 533 534 535
f 535 534 536
f 535 536 537
f 537 536 538
f 537 538 539
f 539 538 540
f 539 540 541
f 541 540 542
f 541 542 543
f 543 542 544
f 543 544 545
f 545 544 546
f 545 546 547
f 547 546 548
f 547 548 549
f 549 548 550
f 549 550 551
f 551 550 552
f 551 552 553
f 553 552 554
f 553 554 555
f 555 554 556
f 555 556 557
f 557 556 558
f 557 558 559
f 559 558 560
f 559 560 561
f 561 560 562
f 561 562 563
f 563 562 564
f 563 564 565
f 565 564 566
f 565 566 567
f 567 566 568
f 567 568 569
f 569 568 570
f 569 570 571
f 571 570 572
f 571 572 573
f 573 572 574
f 573 574 575
f 575 574 576
f 575 576 577
f 577 576 578
f 577 578 579
f 579 578 580
f 579 580 581
f 581 580 582
f 581 582 583
f 583 582 584
f 583 584 585
f 585 584 586
f 585 586 587
f 587 586 588
f 587 588 589
f 589 588 590
f 589 590 591
f 591 590 592
f 591 592 593
f 593 592 594
f 593 594 595
f 595 594 596
f 595 596 488
f 488 596 486
f 597 598 599
f 600 598 597
f 601 597 599
f 601 599 602
f 601 602 603
f 603 602 604
f 603 604 605
f 605 604 606
f 605 606 607
f 607 606 608
f 607 608 609
f 609 608 610
f 609 610 611
f 611 610 612
f 611 612 613
f 613 612 614
f 613 614 615
f 615 614 616
f 615 616 617
f 617 616 618
f 617 618 619
f 619 618 620
f 619 620 621
f 621 620 622
f 621 622 623
f 623 622 624
f 623 624 625
f 625 624 626
f 625 626 627
f 627 626 628
f 627 628 629
f 629 628 630
f 629 630 631
f 631 630 632
f 631 632 633
f 633 632 634
f 633 634 635
f 635 634 636
f 635 636 637
f 637 636 638
f 637 638 639
f 639 638 640
f 639 640 641
f 641 640 642
f 641 642 643
f 643 642 644
f 643 644 645
f 645 644 646
f 645 646 647
f 647 646 648
f 647 648 649
f 649 648 650
f 649 650 651
f 651 650 652
f 651 652 653
f 653 652 654
f 653 654 655
f 655 654 656
f 655 656 657
f 657 656 658
f 657 658 659
f 659 658 660
f 659 660 661
f 661 660 662
f 661 662 663
f 663 662 664
f 663 664 665
f 665 664 666
f 665 666 667
f 667 666 668
f 667 668 669
f 669 668 670
f 669 670 671
f 671 670 672
f 671 672 673
f 673 672 674
f 673 674 675
f 675 674 676
f 675 676 677
f 677 676 678
f 677 678 679
f 679 678 680
f 679 680 681
f 681 680 682
f 681 682 683
f 683 682 684
f 683 684 685
f 685 684 686
f 685 686 687
f 687 686 688
f 687 688 689
f 689 688 690
f 689 690 691
f 691 690 692
f 691 692 693
f 693 692 694
f 693 694 695
f 695 694 696
f 695 696 697
f 697 696 698
f 697 698 699
f 699 698 700
f 699 700 701
f 701 700 702
f 701 702 703
f 703 702 704
f 703 704 705
f 705 704 706
f 705 706 707
f 707 706 708
f 707 708 709
f 709 708 710
f 709 710 711
f 711 710 712
f 711 712 713
f 713 712 714
f 713 714 715
f 715 714 716
f 715 716 717
f 717 716 718
f 717 718 719
f 719 718 720
f 719 720 721
f 721 720 722
f 721 722 723
f 723 722 724
f 723 724 725
f 725 724 726
f 725 726 727
f 727 726 728
f 727 728 729
f 729 728 730
f 729 730 731
f 731 730 732
f 731 732 733
f 733 732 734
f 733 734 735
f 735 734 736
f 735 736 737
f 737 736 738
f 737 738 739
f 739 738 740
f 739 740 741
f 741 740 742
f 741 742 743
f 743 742 744
f 743 744 745
f 745 744 746
f 745 746 747
f 747 746 748
f 747 748 749
f 749 748 750
f 749 750 751
f 751 750 752
f 751 752 753
f 753 752 754
f 753 754 755
f 755 754 756
f 755 756 757
f 757 756 758
f 757 758 759
f 759 758 760
f 759 760 761
f 761 760 762
f 761 762 763
f 763 762 764
f 763 764 765
f 765 764 766
f 765 766 767
f 767 766 768
f 767 768 769
f 769 768 770
f 769 770 771
f 771 770 772
f 771 772 773
f 773 772 774
f 773 774 775
f 775 774 776
f 775 776 777
f 777 776 778
f 777 778 779
f 779 778 780
f 779 780 781
f 781 780 782
f 781 782 783
f 783 782 784
f 783 784 785
f 785 784 786
f 785 786 787
f 787 786 788
f 787 788 789
f 789 788 790
f 789 790 791
f 791 790 792
f 791 792 793
f 793 792 794
f 793 794 795
f 795 794 796
f 795 796 797
f 797 796 798
f 797 798 799
f 799 798 800
f 799 800 801
f 801 800 802
f 801 802 803
f 803 802 804
f 803 804 805
f 805 804 806
f 805 806 807
f 807 806 808
f 807 808 809
f 809 808 810
f 809 810 811
f 811 810 812
f 811 812 813
f 813 812 814
f 813 814 815
f 815 814 816
f 815 816 817
f 817 816 818
f 817 818 819
f 819 818 820
f 819 820 821
f 821 820 822
f 821 822 823
f 823 822 824
f 823 824 825
f 825 824 826
f 825 826 827
f 827 826 828
f 827 828 829
f 829 828 830
f 829 830 831
f 831 830 832
f 831 832 833
f 833 832 834
f 833 834 835
f 835 834 836
f 835 836 837
f 837 836 838
f 837 838 839
f 839 838 840
f 839 840 841
f 841 840 842
f 841 842 843
f 843 842 844
f 843 844 845
f 845 844 846
f 845 846 847
f 847 846 848
f 847 848 849
f 849 848 850
f 849 850 851
f 851 850 852
f 851 852 853
f 853 852 854
f 853 854 855
f 855 854 856
f 855 856 857
f 857 856 858
f 857 858 859
f 859 858 860
f 859 860 861
f 861 860 862
f 861 862 863
f 863 862 864
f 863 864 865
f 865 864 866
f 865 866 867
f 867 866 868
f 867 868 869
f 869 868 870
f 869 870 871
f 871 870 872
f 871 872 873
f 873 872 874
f 873 874 875
f 875 874 876
f 875 876 877
f 877 876 878
f 877 878 879
f 879 878 880
f 879 880 881
f 881 880 882
f 881 882 883
f 883 882 884
f 883 884 885
f 885 884 886
f 885 886 887
f 887 886 888
f 887 888 889
f 889 888 890
f 889 890 891
f 891 890 892
f 891 892 893
f 893 892 894
f 893 894 895
f 895 894 896
f 895 896 897
f 897 896 898
f 897 898 899
f 899 898 900
f 899 900 901
f 901 900 902
f 901 902 903
f 903 902 904
f 903 904 905
f 905 904 906
f 905 906 907
f 907 906 908
f 907 908 909
f 909 908 910
f 909 910 911
f 911 910 912
f 911 912 913
f 913 912 914
f 913 914 915
f 915 914 916
f 915 916 917
f 917 916 918
f 917 918 919
f 919 918 920
f 919 920 921
f 921 920 922
f 921 922 923
f 923 922 924
f 923 924 925
f 925 924 926
f 925 926 927
f 927 926 928
f 927 928 929
f 929 928 930
f 929 930 931
f 931 930 932
f 931 932 933
f 933 932 934
f 933 934 935
f 935 934 936
f 935 936 937
f 937 936 938
f 937 938 939
f 939 938 940
f 939 940 941
f 941 940 942
f 941 942 943
f 943 942 944
f 943 944 945
f 945 944 946
f 945 946 947
f 947 946 948
f 947 948 949
f 949 948 950
f 949 950 951
f 951 950 952
f 951 952 953
f 953 952 954
f 953 954 955
f 955 954 956
f 955 956 957
f 957 956 958
f 957 958 959
f 959 958 960
f 959 960 961
f 961 960 962
f 961 962 963
f 963 962 964
f 963 964 965
f 965 964 966
f 965 966 967
f 967 966 968
f 967 968 969
f 969 968 970
f 969 970 971
f 971 970 972
f 971 972 973
f 973 972 974
f 973 974 975
f 975 974 976
f 975 976 977
f 977 976 978
f 977 978 979
f 979 978 980
f 979 980 981
f 981 980 982
f 981 982 983
f 983 982 984
f 983 984 985
f 985 984 986
f 985 986 987
f 987 986 988
f 987 988 989
f 989 988 990
f 989 990 991
f 991 990 992
f 991 992 993
f 993 992 994
f 993 994 995
f 995 994 996
f 995 996 997
f 997 996 998
f 997 998 999
f 999 998 1000
f 999 1000 1001
f 1001 1000 1002
f 1001 1002 1003
f 1003 1002 1004
f 1003 1004 1005
f 1005 1004 1006
f 1005 1006 1007
f 1007 1006 1008
f 1007 1008 1009
f 1009 1008 1010
f 1009 1010 1011
f 1011 1010 1012
f 1011 1012 1013
f 1013 1012 1014
f 1013 1014 1015
f 1015 1014 1016
f 1015 1016 1017
f 1017 1016 1018
f 1017 1018 1019
f 1019 1018 1020
f 1019 1020 1021
f 1021 1020 1022
f 1021 1022 1023
f 1023 1022 1024
f 1023 1024 1025
f 1025 1024 1026
f 1025 1026 1027
f 1027 1026 1028
f 1027 1028 1029
f 1029 1028 1030
f 1029 1030 1031
f 1031 1030 1032
f 1031 1032 1033
f 1033 1032 1034
f 1033 1034 1035
f 1035 1034 1036
f 1035 1036 1037
f 1037 1036 1038
f 1037 1038 1039
f 1039 1038 1040
f 1039 1040 1041
f 1041 1040 1042
f 1041 1042 1043
f 1043 1042 1044
f 1043 1044 600
f 600 1044 598
f 1045 1046 1047
f 1045 1048 1046
f 1049 1045 1047
f 1049 1050 1045
f 1049 1047 1051
f 1049 1051 1052
f 1049 1052 1053
f 1049 1053 1054
f 1049 1054 1055
f 1056 1049 1055
f 1056 1055 1057
f 1056 1057 1058
f 1056 1058 1059
f 1056 1059 1060
f 1056 1060 1061
f 1056 1061 1062
f 1063 1056 1062
f 1063 1062 1064
f 1063 1064 1065
f 1063 1065 1066
f 1063 1066 1067
f 1068 1063 1067
f 1068 1067 1069
f 1068 1069 1070
f 1068 1070 1071
f 1068 1071 1072
f 1073 1068 1072
f 1073 1072 1074
f 1073 1074 1075
f 1073 1075 1076
f 1073 1076 1077
f 1078 1073 1077
f 1078 1077 1079
f 1078 1079 1080
f 1078 1080 1081
f 1078 1081 1082
f 1078 1082 1083
f 1078 1083 1084
f 1085 1078 1084
f 1085 1084 1086
f 1085 1086 1087
f 1085 1087 1088
f 1085 1088 1089
f 1085 1089 1090
f 1085 1090 1091
f 1091 1090 1092
f 1093 1085 1091
f 1093 1091 1094
f 1095 1093 1094
f 1096 1095 1094
f 1097 1096 1094
f 1098 1097 1094
f 1098 1099 1097
f 1098 1100 1099
f 1100 1101 1099
f 1100 1102 1101
f 1102 1103 1101
f 1102 1104 1103
f 1104 1105 1103
f 1104 1106 1105
f 1106 1107 1105
f 1106 1108 1107
f 1108 1109 1107
f 1108 1110 1109
f 1110 1111 1109
f 1110 1112 1111
f 1112 1113 1111
f 1112 1114 1113
f 1114 1115 1113
f 1114 1116 1115
f 1116 1117 1115
f 1091 1092 1118
f 1091 1118 1119
f 1091 1119 1120
f 1091 1120 1121
f 1091 1121 1122
f 1091 1122 1123
f 1091 1123 1124
f 1091 1124 1125
f 1091 1125 1126
f 1091 1126 1127
f 1128 1091 1127
f 1128 1127 1129
f 1128 1129 1130
f 1128 1130 1131
f 1128 1131 1132
f 1128 1132 1133
f 1128 1133 1134
f 1128 1134 1135
f 1128 1135 1136
f 1128 1136 1137
f 1048 1128 1137
f 1048 1137 1138
f 1048 1138 1139
f 1048 1139 1140
f 1048 1140 1141
f 1048 1141 1142
f 1048 1142 1143
f 1048 1143 1144
f 1048 1144 1145
f 1048 1145 1146
f 1048 1146 1147
f 1048 1147 1148
f 1048 1148 1149
f 1048 1149 1046
f 1050 1150 1045
f 1050 1151 1150
f 1151 1152 1150
f 1152 1153 1150
f 1152 1154 1153
f 1154 1155 1153
f 1155 1156 1153
f 1155 1157 1156
f 1157 1158 1156
f 1157 1159 1158
f 1159 1160 1158
f 1160 1161 1158
f 1160 1162 1161
f 1162 1163 1161
f 1162 1164 1163
f 1164 1165 1163
f 1165 1166 1163
f 1165 1167 1166
f 1167 1168 1166
f 1167 1169 1168
f 1169 1170 1168
f 1170 1171 1168
f 1170 1172 1171
f 1172 1173 1171
f 1172 1174 1173
f 1174 1175 1173
f 1175 1176 1173
f 1175 1177 1176
f 1177 1178 1176
f 1177 1179 1178
f 1179 1180 1178
f 1180 1181 1178
f 1180 1182 1181
f 1182 1183 1181
f 1182 1184 1183
f 1184 1185 1183
f 1185 1186 1183
f 1185 1187 1186
f 1187 1188 1186
f 1187 1189 1188
f 1189 1190 1188
f 1190 1191 1188
f 1190 1192 1191
f 1192 1193 1191
f 1192 1194 1193
f 1194 1195 1193
f 1195 1196 1193
f 1195 1197 1196
f 1197 1198 1196
f 1197 1199 1198
f 1199 1200 1198
f 1200 1201 1198
f 1200 1202 1201
f 1202 1203 1201
f 1202 1204 1203
f 1204 1205 1203
f 1204 1206 1205
f 1206 1207 1205
f 1207 1208 1205
f 1207 1209 1208
f 1209 1210 1208
f 1209 1211 1210
f 1211 1212 1210
f 1212 1213 1210
f 1212 1214 1213
f 1214 1215 1213
f 1214 1216 1215
f 1216 1217 1215
f 1217 1218 1215
f 1217 1219 1218
f 1219 1220 1218
f 1219 1221 1220
f 1221 1222 1220
f 1222 1223 1220
f 1222 1224 1223
f 1224 1225 1223
f 1224 1226 1225
f 1226 1227 1225
f 1226 1228 1227
f 1228 1229 1227
f 1229 1230 1227
f 1229 1231 1230
f 1231 1232 1230
f 1231 1233 1232
f 1233 1234 1232
f 1234 1235 1232
f 1234 1236 1235
f 1236 1237 1235
f 1236 1238 1237
f 1238 1239 1237
f 1239 1240 1237
f 1239 1241 1240
f 1241 1242 1240
f 1241 1243 1242
f 1240 1242 1244
f 1240 1244 1245
f 1240 1245 1246
f 1247 1240 1246
f 1247 1246 1248
f 1247 1248 1249
f 1247 1249 1250
f 1247 1250 1251
f 1247 1251 1252
f 1253 1247 1252
f 1253 1252 1254
f 1253 1254 1255
f 1253 1255 1256
f 1257 1253 1256
f 1257 1256 1258
f 1259 1257 1258
f 1259 1258 1260
f 1261 1259 1260
f 1261 1260 1262
f 1263 1261 1262
f 1264 1263 1262
f 1264 1262 1265
f 1266 1264 1265
f 1266 1265 1267
f 1268 1266 1267
f 1268 1267 1269
f 1270 1268 1269
f 1270 1269 1271
f 1272 1270 1271
f 1273 1272 1271
f 1273 1271 1274
f 1275 1273 1274
f 1275 1274 1276
f 1277 1275 1276
f 1277 1276 1278
f 1279 1277 1278
f 1279 1278 1280
f 1281 1279 1280
f 1281 1280 1282
f 1283 1281 1282
f 1283 1282 1284
f 1283 1284 1285
f 1283 1285 1286
f 1287 1283 1286
f 1287 1286 1288
f 1287 1288 1289
f 1290 1287 1289
f 1290 1291 1287
f 1290 1289 1292
f 1290 1292 1293
f 1294 1290 1293
f 1294 1293 1295
f 1294 1295 1296
f 1297 1294 1296
f 1297 1296 1298
f 1299 1297 1298
f 1299 1298 1300
f 1301 1299 1300
f 1301 1300 1302
f 1303 1301 1302
f 1303 1302 1304
f 1305 1303 1304
f 1305 1304 1306
f 1307 1305 1306
f 1307 1306 1308
f 1309 1307 1308
f 1309 1308 1310
f 1311 1309 1310
f 1311 1310 1312
f 1313 1311 1312
f 1313 1312 1314
f 1315 1313 1314
f 1316 1315 1314
f 1316 1314 1317
f 1318 1316 1317
f 1318 1317 1319
f 1320 1318 1319
f 1320 1319 1321
f 1322 1320 1321
f 1323 1322 1321
f 1323 1321 1324
f 1325 1323 1324
f 1325 1324 1326
f 1325 1326 1327
f 1328 1325 1327
f 1328 1327 1329
f 1328 1329 1330
f 1328 1330 1331
f 1332 1328 1331
f 1332 1331 1333
f 1332 1333 1334
f 1332 1334 1335
f 1332 1335 1336
f 1332 1336 1243
f 1241 1332 1243
f 1290 1337 1291
f 1337 1338 1291
f 1337 1339 1338
f 1339 1340 1338
f 1339 1341 1340
f 1341 1342 1340
f 1341 1343 1342
f 1343 1344 1342
f 1343 1345 1344
f 1345 1346 1344
f 1345 1347 1346
f 1347 1348 1346
f 1347 1349 1348
f 1349 1350 1348
f 1349 1351 1350
f 1351 1352 1350
f 1351 1353 1352
f 1353 1354 1352
f 1353 1355 1354
f 1355 1356 1354
f 1355 1357 1356
f 1357 1358 1356
f 1357 1359 1358
f 1359 1360 1358
f 1359 1361 1360
f 1361 1362 1360
f 1361 1363 1362
f 1363 1364 1362
f 1363 1365 1364
f 1365 1366 1364
f 1365 1367 1366
f 1367 1368 1366
f 1367 1369 1368
f 1369 1370 1368
f 1369 1371 1370
f 1371 1372 1370
f 1371 1373 1372
f 1373 1374 1372
f 1373 1375 1374
f 1375 1376 1374
f 1375 1377 1376
f 1377 1378 1376
f 1377 1379 1378
f 1379 1380 1378
f 1379 1381 1380
f 1381 1382 1380
f 1381 1383 1382
f 1383 1384 1382
f 1383 1385 1384
f 1385 1386 1384
f 1385 1387 1386
f 1387 1388 1386
f 1387 1389 1388
f 1389 1390 1388
f 1389 1391 1390
f 1391 1392 1390
